<?xml version="1.0" encoding="UTF-8" standalone="yes"?>
<!DOCTYPE svg PUBLIC "-//W3C//DTD SVG 1.0//EN" "http://www.w3.org/TR/2001/REC-SVG-20010904/DTD/svg10.dtd">
<svg height="2000" width="2000" xmlns="http://www.w3.org/2000/svg" xmlns:svg="http://www.w3.org/2000/svg" xmlns:xlink="http://www.w3.org/1999/xlink">
   <marker id="endArrow" markerHeight="8" markerUnits="strokeWidth" markerWidth="10" orient="auto" refX="1" refY="5" viewBox="0 0 1000 1000">
      <polyline fill="darkblue" points="0,0 10,5 0,10 1,5" />
   </marker>
   <circle cx="1000" cy="1000" r="1" style="stroke:black; fill: red" />
   <circle cx="1000" cy="1000" r="800" style="stroke:black; fill: none" />
   <line x1="803.326111" y1="1065.844482" x2="758.026367" y2="1065.844482" style="stroke: green; stroke-width: 0.200000"/>
   <line x1="803.326111" y1="1064.844482" x2="758.069824" y2="1064.844482" style="stroke: green; stroke-width: 0.200000"/>
   <line x1="803.326111" y1="1063.844482" x2="758.107666" y2="1063.844482" style="stroke: green; stroke-width: 0.200000"/>
   <line x1="803.326111" y1="1062.844482" x2="758.313049" y2="1062.844482" style="stroke: green; stroke-width: 0.200000"/>
   <line x1="803.326111" y1="1061.844482" x2="758.521179" y2="1061.844482" style="stroke: green; stroke-width: 0.200000"/>
   <line x1="803.326111" y1="1060.844482" x2="758.729309" y2="1060.844482" style="stroke: green; stroke-width: 0.200000"/>
   <line x1="803.326111" y1="1059.844482" x2="758.937439" y2="1059.844482" style="stroke: green; stroke-width: 0.200000"/>
   <line x1="803.326111" y1="1058.844482" x2="759.145569" y2="1058.844482" style="stroke: green; stroke-width: 0.200000"/>
   <line x1="803.326111" y1="1057.844482" x2="759.353699" y2="1057.844482" style="stroke: green; stroke-width: 0.200000"/>
   <line x1="803.326111" y1="1056.844482" x2="759.561768" y2="1056.844482" style="stroke: green; stroke-width: 0.200000"/>
   <line x1="803.326111" y1="1055.844482" x2="759.769897" y2="1055.844482" style="stroke: green; stroke-width: 0.200000"/>
   <line x1="803.326111" y1="1054.844482" x2="760.114868" y2="1054.844482" style="stroke: green; stroke-width: 0.200000"/>
   <line x1="803.326111" y1="1053.844482" x2="760.463562" y2="1053.844482" style="stroke: green; stroke-width: 0.200000"/>
   <line x1="803.326111" y1="1052.844482" x2="760.812134" y2="1052.844482" style="stroke: green; stroke-width: 0.200000"/>
   <line x1="803.326111" y1="1051.844482" x2="761.160828" y2="1051.844482" style="stroke: green; stroke-width: 0.200000"/>
   <line x1="803.326111" y1="1050.844482" x2="761.509399" y2="1050.844482" style="stroke: green; stroke-width: 0.200000"/>
   <line x1="803.326111" y1="1049.844482" x2="761.858032" y2="1049.844482" style="stroke: green; stroke-width: 0.200000"/>
   <line x1="803.326111" y1="1048.844482" x2="762.191040" y2="1048.844482" style="stroke: green; stroke-width: 0.200000"/>
   <line x1="803.326111" y1="1047.844482" x2="762.484375" y2="1047.844482" style="stroke: green; stroke-width: 0.200000"/>
   <line x1="803.326111" y1="1046.844482" x2="762.837891" y2="1046.844482" style="stroke: green; stroke-width: 0.200000"/>
   <line x1="803.326111" y1="1045.844482" x2="763.270386" y2="1045.844482" style="stroke: green; stroke-width: 0.200000"/>
   <line x1="803.326111" y1="1044.844482" x2="763.803101" y2="1044.844482" style="stroke: green; stroke-width: 0.200000"/>
   <line x1="803.326111" y1="1043.844482" x2="764.340881" y2="1043.844482" style="stroke: green; stroke-width: 0.200000"/>
   <line x1="803.326111" y1="1042.844482" x2="764.878601" y2="1042.844482" style="stroke: green; stroke-width: 0.200000"/>
   <line x1="803.326111" y1="1041.844482" x2="765.416382" y2="1041.844482" style="stroke: green; stroke-width: 0.200000"/>
   <line x1="803.326111" y1="1040.844482" x2="765.954102" y2="1040.844482" style="stroke: green; stroke-width: 0.200000"/>
   <line x1="803.326111" y1="1039.844482" x2="766.502747" y2="1039.844482" style="stroke: green; stroke-width: 0.200000"/>
   <line x1="803.326111" y1="1038.844482" x2="767.163330" y2="1038.844482" style="stroke: green; stroke-width: 0.200000"/>
   <line x1="803.326111" y1="1037.844482" x2="767.823730" y2="1037.844482" style="stroke: green; stroke-width: 0.200000"/>
   <line x1="803.326111" y1="1036.844482" x2="768.484192" y2="1036.844482" style="stroke: green; stroke-width: 0.200000"/>
   <line x1="803.326111" y1="1035.844482" x2="769.144775" y2="1035.844482" style="stroke: green; stroke-width: 0.200000"/>
   <line x1="803.326111" y1="1034.844482" x2="769.805237" y2="1034.844482" style="stroke: green; stroke-width: 0.200000"/>
   <line x1="803.326111" y1="1033.844482" x2="770.465759" y2="1033.844482" style="stroke: green; stroke-width: 0.200000"/>
   <line x1="803.326111" y1="1032.844482" x2="771.126343" y2="1032.844482" style="stroke: green; stroke-width: 0.200000"/>
   <line x1="803.326111" y1="1031.844482" x2="771.870789" y2="1031.844482" style="stroke: green; stroke-width: 0.200000"/>
   <line x1="803.326111" y1="1030.844482" x2="772.895020" y2="1030.844482" style="stroke: green; stroke-width: 0.200000"/>
   <line x1="803.326111" y1="1029.844482" x2="773.969360" y2="1029.844482" style="stroke: green; stroke-width: 0.200000"/>
   <line x1="803.326111" y1="1028.844482" x2="775.043640" y2="1028.844482" style="stroke: green; stroke-width: 0.200000"/>
   <line x1="803.326111" y1="1027.844482" x2="776.117920" y2="1027.844482" style="stroke: green; stroke-width: 0.200000"/>
   <line x1="803.326111" y1="1026.844482" x2="777.192139" y2="1026.844482" style="stroke: green; stroke-width: 0.200000"/>
   <line x1="803.326111" y1="1025.844482" x2="778.336548" y2="1025.844482" style="stroke: green; stroke-width: 0.200000"/>
   <line x1="803.326111" y1="1024.844482" x2="779.566406" y2="1024.844482" style="stroke: green; stroke-width: 0.200000"/>
   <line x1="803.326111" y1="1023.844482" x2="780.796204" y2="1023.844482" style="stroke: green; stroke-width: 0.200000"/>
   <line x1="803.326111" y1="1022.844482" x2="782.026062" y2="1022.844482" style="stroke: green; stroke-width: 0.200000"/>
   <line x1="803.326111" y1="1021.844482" x2="783.303284" y2="1021.844482" style="stroke: green; stroke-width: 0.200000"/>
   <line x1="803.326111" y1="1020.844482" x2="784.666382" y2="1020.844482" style="stroke: green; stroke-width: 0.200000"/>
   <line x1="803.326111" y1="1019.844482" x2="786.350037" y2="1019.844482" style="stroke: green; stroke-width: 0.200000"/>
   <line x1="803.326111" y1="1018.844482" x2="788.452148" y2="1018.844482" style="stroke: green; stroke-width: 0.200000"/>
   <line x1="803.326111" y1="1017.844482" x2="790.554260" y2="1017.844482" style="stroke: green; stroke-width: 0.200000"/>
   <line x1="803.326111" y1="1016.844482" x2="792.656372" y2="1016.844482" style="stroke: green; stroke-width: 0.200000"/>
   <line x1="853.426147" y1="1065.844482" x2="803.426147" y2="1065.844482" style="stroke: green; stroke-width: 0.200000"/>
   <line x1="853.426147" y1="1064.844482" x2="803.426147" y2="1064.844482" style="stroke: green; stroke-width: 0.200000"/>
   <line x1="853.426147" y1="1063.844482" x2="803.426147" y2="1063.844482" style="stroke: green; stroke-width: 0.200000"/>
   <line x1="853.426147" y1="1062.844482" x2="803.426147" y2="1062.844482" style="stroke: green; stroke-width: 0.200000"/>
   <line x1="853.426147" y1="1061.844482" x2="803.426147" y2="1061.844482" style="stroke: green; stroke-width: 0.200000"/>
   <line x1="852.723022" y1="1060.844482" x2="803.426147" y2="1060.844482" style="stroke: green; stroke-width: 0.200000"/>
   <line x1="851.713623" y1="1059.844482" x2="803.426147" y2="1059.844482" style="stroke: green; stroke-width: 0.200000"/>
   <line x1="850.704285" y1="1058.844482" x2="803.426147" y2="1058.844482" style="stroke: green; stroke-width: 0.200000"/>
   <line x1="849.641846" y1="1057.844482" x2="803.426147" y2="1057.844482" style="stroke: green; stroke-width: 0.200000"/>
   <line x1="848.471375" y1="1056.844482" x2="803.426147" y2="1056.844482" style="stroke: green; stroke-width: 0.200000"/>
   <line x1="847.451904" y1="1055.844482" x2="803.426147" y2="1055.844482" style="stroke: green; stroke-width: 0.200000"/>
   <line x1="846.594727" y1="1054.844482" x2="803.426147" y2="1054.844482" style="stroke: green; stroke-width: 0.200000"/>
   <line x1="845.737549" y1="1053.844482" x2="803.426147" y2="1053.844482" style="stroke: green; stroke-width: 0.200000"/>
   <line x1="844.880310" y1="1052.844482" x2="803.426147" y2="1052.844482" style="stroke: green; stroke-width: 0.200000"/>
   <line x1="844.023132" y1="1051.844482" x2="803.426147" y2="1051.844482" style="stroke: green; stroke-width: 0.200000"/>
   <line x1="843.327515" y1="1050.844482" x2="803.426147" y2="1050.844482" style="stroke: green; stroke-width: 0.200000"/>
   <line x1="842.637207" y1="1049.844482" x2="803.426147" y2="1049.844482" style="stroke: green; stroke-width: 0.200000"/>
   <line x1="841.946960" y1="1048.844482" x2="803.426147" y2="1048.844482" style="stroke: green; stroke-width: 0.200000"/>
   <line x1="841.256714" y1="1047.844482" x2="803.426147" y2="1047.844482" style="stroke: green; stroke-width: 0.200000"/>
   <line x1="840.655579" y1="1046.844482" x2="803.426147" y2="1046.844482" style="stroke: green; stroke-width: 0.200000"/>
   <line x1="840.055908" y1="1045.844482" x2="803.426147" y2="1045.844482" style="stroke: green; stroke-width: 0.200000"/>
   <line x1="839.456238" y1="1044.844482" x2="803.426147" y2="1044.844482" style="stroke: green; stroke-width: 0.200000"/>
   <line x1="838.854004" y1="1043.844482" x2="803.426147" y2="1043.844482" style="stroke: green; stroke-width: 0.200000"/>
   <line x1="838.195435" y1="1042.844482" x2="803.426147" y2="1042.844482" style="stroke: green; stroke-width: 0.200000"/>
   <line x1="837.536865" y1="1041.844482" x2="803.426147" y2="1041.844482" style="stroke: green; stroke-width: 0.200000"/>
   <line x1="836.878296" y1="1040.844482" x2="803.426147" y2="1040.844482" style="stroke: green; stroke-width: 0.200000"/>
   <line x1="836.219727" y1="1039.844482" x2="803.426147" y2="1039.844482" style="stroke: green; stroke-width: 0.200000"/>
   <line x1="835.561157" y1="1038.844482" x2="803.426147" y2="1038.844482" style="stroke: green; stroke-width: 0.200000"/>
   <line x1="834.921570" y1="1037.844482" x2="803.426147" y2="1037.844482" style="stroke: green; stroke-width: 0.200000"/>
   <line x1="834.304688" y1="1036.844482" x2="803.426147" y2="1036.844482" style="stroke: green; stroke-width: 0.200000"/>
   <line x1="833.687744" y1="1035.844482" x2="803.426147" y2="1035.844482" style="stroke: green; stroke-width: 0.200000"/>
   <line x1="832.918030" y1="1034.844482" x2="803.426147" y2="1034.844482" style="stroke: green; stroke-width: 0.200000"/>
   <line x1="832.062439" y1="1033.844482" x2="803.426147" y2="1033.844482" style="stroke: green; stroke-width: 0.200000"/>
   <line x1="831.206909" y1="1032.844482" x2="803.426147" y2="1032.844482" style="stroke: green; stroke-width: 0.200000"/>
   <line x1="830.351318" y1="1031.844482" x2="803.426147" y2="1031.844482" style="stroke: green; stroke-width: 0.200000"/>
   <line x1="829.495728" y1="1030.844482" x2="803.426147" y2="1030.844482" style="stroke: green; stroke-width: 0.200000"/>
   <line x1="828.640137" y1="1029.844482" x2="803.426147" y2="1029.844482" style="stroke: green; stroke-width: 0.200000"/>
   <line x1="827.784546" y1="1028.844482" x2="803.426147" y2="1028.844482" style="stroke: green; stroke-width: 0.200000"/>
   <line x1="826.593750" y1="1027.844482" x2="803.426147" y2="1027.844482" style="stroke: green; stroke-width: 0.200000"/>
   <line x1="825.233765" y1="1026.844482" x2="803.426147" y2="1026.844482" style="stroke: green; stroke-width: 0.200000"/>
   <line x1="823.873657" y1="1025.844482" x2="803.426147" y2="1025.844482" style="stroke: green; stroke-width: 0.200000"/>
   <line x1="822.513672" y1="1024.844482" x2="803.426147" y2="1024.844482" style="stroke: green; stroke-width: 0.200000"/>
   <line x1="821.153625" y1="1023.844482" x2="803.426147" y2="1023.844482" style="stroke: green; stroke-width: 0.200000"/>
   <line x1="819.574829" y1="1022.844482" x2="803.426147" y2="1022.844482" style="stroke: green; stroke-width: 0.200000"/>
   <line x1="817.746826" y1="1021.844482" x2="803.426147" y2="1021.844482" style="stroke: green; stroke-width: 0.200000"/>
   <line x1="815.918884" y1="1020.844482" x2="803.426147" y2="1020.844482" style="stroke: green; stroke-width: 0.200000"/>
   <line x1="814.125427" y1="1019.844482" x2="803.426147" y2="1019.844482" style="stroke: green; stroke-width: 0.200000"/>
   <line x1="812.331421" y1="1018.844482" x2="803.426147" y2="1018.844482" style="stroke: green; stroke-width: 0.200000"/>
   <line x1="809.120117" y1="1017.844482" x2="803.426147" y2="1017.844482" style="stroke: green; stroke-width: 0.200000"/>
   <line x1="804.755859" y1="1016.844482" x2="803.426147" y2="1016.844482" style="stroke: green; stroke-width: 0.200000"/>
   <line x1="858.159485" y1="1065.844482" x2="853.526062" y2="1065.844482" style="stroke: green; stroke-width: 0.200000"/>
   <line x1="857.206726" y1="1064.844482" x2="853.526062" y2="1064.844482" style="stroke: green; stroke-width: 0.200000"/>
   <line x1="856.118469" y1="1063.844482" x2="853.526062" y2="1063.844482" style="stroke: green; stroke-width: 0.200000"/>
   <line x1="854.924561" y1="1062.844482" x2="853.526062" y2="1062.844482" style="stroke: green; stroke-width: 0.200000"/>
   <line x1="853.732361" y1="1061.844482" x2="853.526062" y2="1061.844482" style="stroke: green; stroke-width: 0.200000"/>
   <line x1="803.326111" y1="1115.844482" x2="753.408264" y2="1115.844482" style="stroke: green; stroke-width: 0.200000"/>
   <line x1="803.326111" y1="1114.844482" x2="753.368042" y2="1114.844482" style="stroke: green; stroke-width: 0.200000"/>
   <line x1="803.326111" y1="1113.844482" x2="753.447327" y2="1113.844482" style="stroke: green; stroke-width: 0.200000"/>
   <line x1="803.326111" y1="1112.844482" x2="753.526611" y2="1112.844482" style="stroke: green; stroke-width: 0.200000"/>
   <line x1="803.326111" y1="1111.844482" x2="753.605896" y2="1111.844482" style="stroke: green; stroke-width: 0.200000"/>
   <line x1="803.326111" y1="1110.844482" x2="753.685181" y2="1110.844482" style="stroke: green; stroke-width: 0.200000"/>
   <line x1="803.326111" y1="1109.844482" x2="753.806885" y2="1109.844482" style="stroke: green; stroke-width: 0.200000"/>
   <line x1="803.326111" y1="1108.844482" x2="753.954163" y2="1108.844482" style="stroke: green; stroke-width: 0.200000"/>
   <line x1="803.326111" y1="1107.844482" x2="754.101440" y2="1107.844482" style="stroke: green; stroke-width: 0.200000"/>
   <line x1="803.326111" y1="1106.844482" x2="754.248718" y2="1106.844482" style="stroke: green; stroke-width: 0.200000"/>
   <line x1="803.326111" y1="1105.844482" x2="754.395996" y2="1105.844482" style="stroke: green; stroke-width: 0.200000"/>
   <line x1="803.326111" y1="1104.844482" x2="754.552734" y2="1104.844482" style="stroke: green; stroke-width: 0.200000"/>
   <line x1="803.326111" y1="1103.844482" x2="754.714722" y2="1103.844482" style="stroke: green; stroke-width: 0.200000"/>
   <line x1="803.326111" y1="1102.844482" x2="754.876648" y2="1102.844482" style="stroke: green; stroke-width: 0.200000"/>
   <line x1="803.326111" y1="1101.844482" x2="755.038574" y2="1101.844482" style="stroke: green; stroke-width: 0.200000"/>
   <line x1="803.326111" y1="1100.844482" x2="755.200562" y2="1100.844482" style="stroke: green; stroke-width: 0.200000"/>
   <line x1="803.326111" y1="1099.844482" x2="755.368408" y2="1099.844482" style="stroke: green; stroke-width: 0.200000"/>
   <line x1="803.326111" y1="1098.844482" x2="755.566101" y2="1098.844482" style="stroke: green; stroke-width: 0.200000"/>
   <line x1="803.326111" y1="1097.844482" x2="755.763855" y2="1097.844482" style="stroke: green; stroke-width: 0.200000"/>
   <line x1="803.326111" y1="1096.844482" x2="755.961548" y2="1096.844482" style="stroke: green; stroke-width: 0.200000"/>
   <line x1="803.326111" y1="1095.844482" x2="756.159302" y2="1095.844482" style="stroke: green; stroke-width: 0.200000"/>
   <line x1="803.326111" y1="1094.844482" x2="756.356934" y2="1094.844482" style="stroke: green; stroke-width: 0.200000"/>
   <line x1="803.326111" y1="1093.844482" x2="756.532715" y2="1093.844482" style="stroke: green; stroke-width: 0.200000"/>
   <line x1="803.326111" y1="1092.844482" x2="756.683838" y2="1092.844482" style="stroke: green; stroke-width: 0.200000"/>
   <line x1="803.326111" y1="1091.844482" x2="756.834778" y2="1091.844482" style="stroke: green; stroke-width: 0.200000"/>
   <line x1="803.326111" y1="1090.844482" x2="756.985779" y2="1090.844482" style="stroke: green; stroke-width: 0.200000"/>
   <line x1="803.326111" y1="1089.844482" x2="757.136780" y2="1089.844482" style="stroke: green; stroke-width: 0.200000"/>
   <line x1="803.326111" y1="1088.844482" x2="757.267944" y2="1088.844482" style="stroke: green; stroke-width: 0.200000"/>
   <line x1="803.326111" y1="1087.844482" x2="757.389893" y2="1087.844482" style="stroke: green; stroke-width: 0.200000"/>
   <line x1="803.326111" y1="1086.844482" x2="757.511902" y2="1086.844482" style="stroke: green; stroke-width: 0.200000"/>
   <line x1="803.326111" y1="1085.844482" x2="757.633911" y2="1085.844482" style="stroke: green; stroke-width: 0.200000"/>
   <line x1="803.326111" y1="1084.844482" x2="757.755859" y2="1084.844482" style="stroke: green; stroke-width: 0.200000"/>
   <line x1="803.326111" y1="1083.844482" x2="757.877869" y2="1083.844482" style="stroke: green; stroke-width: 0.200000"/>
   <line x1="803.326111" y1="1082.844482" x2="757.883850" y2="1082.844482" style="stroke: green; stroke-width: 0.200000"/>
   <line x1="803.326111" y1="1081.844482" x2="757.834473" y2="1081.844482" style="stroke: green; stroke-width: 0.200000"/>
   <line x1="803.326111" y1="1080.844482" x2="757.785095" y2="1080.844482" style="stroke: green; stroke-width: 0.200000"/>
   <line x1="803.326111" y1="1079.844482" x2="757.735718" y2="1079.844482" style="stroke: green; stroke-width: 0.200000"/>
   <line x1="803.326111" y1="1078.844482" x2="757.686401" y2="1078.844482" style="stroke: green; stroke-width: 0.200000"/>
   <line x1="803.326111" y1="1077.844482" x2="757.654907" y2="1077.844482" style="stroke: green; stroke-width: 0.200000"/>
   <line x1="803.326111" y1="1076.844482" x2="757.663269" y2="1076.844482" style="stroke: green; stroke-width: 0.200000"/>
   <line x1="803.326111" y1="1075.844482" x2="757.671631" y2="1075.844482" style="stroke: green; stroke-width: 0.200000"/>
   <line x1="803.326111" y1="1074.844482" x2="757.680054" y2="1074.844482" style="stroke: green; stroke-width: 0.200000"/>
   <line x1="803.326111" y1="1073.844482" x2="757.688477" y2="1073.844482" style="stroke: green; stroke-width: 0.200000"/>
   <line x1="803.326111" y1="1072.844482" x2="757.721802" y2="1072.844482" style="stroke: green; stroke-width: 0.200000"/>
   <line x1="803.326111" y1="1071.844482" x2="757.765381" y2="1071.844482" style="stroke: green; stroke-width: 0.200000"/>
   <line x1="803.326111" y1="1070.844482" x2="757.808838" y2="1070.844482" style="stroke: green; stroke-width: 0.200000"/>
   <line x1="803.326111" y1="1069.844482" x2="757.852295" y2="1069.844482" style="stroke: green; stroke-width: 0.200000"/>
   <line x1="803.326111" y1="1068.844482" x2="757.895813" y2="1068.844482" style="stroke: green; stroke-width: 0.200000"/>
   <line x1="803.326111" y1="1067.844482" x2="757.939331" y2="1067.844482" style="stroke: green; stroke-width: 0.200000"/>
   <line x1="803.326111" y1="1066.844482" x2="757.982849" y2="1066.844482" style="stroke: green; stroke-width: 0.200000"/>
   <line x1="853.426147" y1="1115.844482" x2="803.426147" y2="1115.844482" style="stroke: green; stroke-width: 0.200000"/>
   <line x1="853.426147" y1="1114.844482" x2="803.426147" y2="1114.844482" style="stroke: green; stroke-width: 0.200000"/>
   <line x1="853.426147" y1="1113.844482" x2="803.426147" y2="1113.844482" style="stroke: green; stroke-width: 0.200000"/>
   <line x1="853.426147" y1="1112.844482" x2="803.426147" y2="1112.844482" style="stroke: green; stroke-width: 0.200000"/>
   <line x1="853.426147" y1="1111.844482" x2="803.426147" y2="1111.844482" style="stroke: green; stroke-width: 0.200000"/>
   <line x1="853.426147" y1="1110.844482" x2="803.426147" y2="1110.844482" style="stroke: green; stroke-width: 0.200000"/>
   <line x1="853.426147" y1="1109.844482" x2="803.426147" y2="1109.844482" style="stroke: green; stroke-width: 0.200000"/>
   <line x1="853.426147" y1="1108.844482" x2="803.426147" y2="1108.844482" style="stroke: green; stroke-width: 0.200000"/>
   <line x1="853.426147" y1="1107.844482" x2="803.426147" y2="1107.844482" style="stroke: green; stroke-width: 0.200000"/>
   <line x1="853.426147" y1="1106.844482" x2="803.426147" y2="1106.844482" style="stroke: green; stroke-width: 0.200000"/>
   <line x1="853.426147" y1="1105.844482" x2="803.426147" y2="1105.844482" style="stroke: green; stroke-width: 0.200000"/>
   <line x1="853.426147" y1="1104.844482" x2="803.426147" y2="1104.844482" style="stroke: green; stroke-width: 0.200000"/>
   <line x1="853.426147" y1="1103.844482" x2="803.426147" y2="1103.844482" style="stroke: green; stroke-width: 0.200000"/>
   <line x1="853.426147" y1="1102.844482" x2="803.426147" y2="1102.844482" style="stroke: green; stroke-width: 0.200000"/>
   <line x1="853.426147" y1="1101.844482" x2="803.426147" y2="1101.844482" style="stroke: green; stroke-width: 0.200000"/>
   <line x1="853.426147" y1="1100.844482" x2="803.426147" y2="1100.844482" style="stroke: green; stroke-width: 0.200000"/>
   <line x1="853.426147" y1="1099.844482" x2="803.426147" y2="1099.844482" style="stroke: green; stroke-width: 0.200000"/>
   <line x1="853.426147" y1="1098.844482" x2="803.426147" y2="1098.844482" style="stroke: green; stroke-width: 0.200000"/>
   <line x1="853.426147" y1="1097.844482" x2="803.426147" y2="1097.844482" style="stroke: green; stroke-width: 0.200000"/>
   <line x1="853.426147" y1="1096.844482" x2="803.426147" y2="1096.844482" style="stroke: green; stroke-width: 0.200000"/>
   <line x1="853.426147" y1="1095.844482" x2="803.426147" y2="1095.844482" style="stroke: green; stroke-width: 0.200000"/>
   <line x1="853.426147" y1="1094.844482" x2="803.426147" y2="1094.844482" style="stroke: green; stroke-width: 0.200000"/>
   <line x1="853.426147" y1="1093.844482" x2="803.426147" y2="1093.844482" style="stroke: green; stroke-width: 0.200000"/>
   <line x1="853.426147" y1="1092.844482" x2="803.426147" y2="1092.844482" style="stroke: green; stroke-width: 0.200000"/>
   <line x1="853.426147" y1="1091.844482" x2="803.426147" y2="1091.844482" style="stroke: green; stroke-width: 0.200000"/>
   <line x1="853.426147" y1="1090.844482" x2="803.426147" y2="1090.844482" style="stroke: green; stroke-width: 0.200000"/>
   <line x1="853.426147" y1="1089.844482" x2="803.426147" y2="1089.844482" style="stroke: green; stroke-width: 0.200000"/>
   <line x1="853.426147" y1="1088.844482" x2="803.426147" y2="1088.844482" style="stroke: green; stroke-width: 0.200000"/>
   <line x1="853.426147" y1="1087.844482" x2="803.426147" y2="1087.844482" style="stroke: green; stroke-width: 0.200000"/>
   <line x1="853.426147" y1="1086.844482" x2="803.426147" y2="1086.844482" style="stroke: green; stroke-width: 0.200000"/>
   <line x1="853.426147" y1="1085.844482" x2="803.426147" y2="1085.844482" style="stroke: green; stroke-width: 0.200000"/>
   <line x1="853.426147" y1="1084.844482" x2="803.426147" y2="1084.844482" style="stroke: green; stroke-width: 0.200000"/>
   <line x1="853.426147" y1="1083.844482" x2="803.426147" y2="1083.844482" style="stroke: green; stroke-width: 0.200000"/>
   <line x1="853.426147" y1="1082.844482" x2="803.426147" y2="1082.844482" style="stroke: green; stroke-width: 0.200000"/>
   <line x1="853.426147" y1="1081.844482" x2="803.426147" y2="1081.844482" style="stroke: green; stroke-width: 0.200000"/>
   <line x1="853.426147" y1="1080.844482" x2="803.426147" y2="1080.844482" style="stroke: green; stroke-width: 0.200000"/>
   <line x1="853.426147" y1="1079.844482" x2="803.426147" y2="1079.844482" style="stroke: green; stroke-width: 0.200000"/>
   <line x1="853.426147" y1="1078.844482" x2="803.426147" y2="1078.844482" style="stroke: green; stroke-width: 0.200000"/>
   <line x1="853.426147" y1="1077.844482" x2="803.426147" y2="1077.844482" style="stroke: green; stroke-width: 0.200000"/>
   <line x1="853.426147" y1="1076.844482" x2="803.426147" y2="1076.844482" style="stroke: green; stroke-width: 0.200000"/>
   <line x1="853.426147" y1="1075.844482" x2="803.426147" y2="1075.844482" style="stroke: green; stroke-width: 0.200000"/>
   <line x1="853.426147" y1="1074.844482" x2="803.426147" y2="1074.844482" style="stroke: green; stroke-width: 0.200000"/>
   <line x1="853.426147" y1="1073.844482" x2="803.426147" y2="1073.844482" style="stroke: green; stroke-width: 0.200000"/>
   <line x1="853.426147" y1="1072.844482" x2="803.426147" y2="1072.844482" style="stroke: green; stroke-width: 0.200000"/>
   <line x1="853.426147" y1="1071.844482" x2="803.426147" y2="1071.844482" style="stroke: green; stroke-width: 0.200000"/>
   <line x1="853.426147" y1="1070.844482" x2="803.426147" y2="1070.844482" style="stroke: green; stroke-width: 0.200000"/>
   <line x1="853.426147" y1="1069.844482" x2="803.426147" y2="1069.844482" style="stroke: green; stroke-width: 0.200000"/>
   <line x1="853.426147" y1="1068.844482" x2="803.426147" y2="1068.844482" style="stroke: green; stroke-width: 0.200000"/>
   <line x1="853.426147" y1="1067.844482" x2="803.426147" y2="1067.844482" style="stroke: green; stroke-width: 0.200000"/>
   <line x1="853.426147" y1="1066.844482" x2="803.426147" y2="1066.844482" style="stroke: green; stroke-width: 0.200000"/>
   <line x1="888.000122" y1="1115.844482" x2="853.526062" y2="1115.844482" style="stroke: green; stroke-width: 0.200000"/>
   <line x1="887.726074" y1="1114.844482" x2="853.526062" y2="1114.844482" style="stroke: green; stroke-width: 0.200000"/>
   <line x1="887.441284" y1="1113.844482" x2="853.526062" y2="1113.844482" style="stroke: green; stroke-width: 0.200000"/>
   <line x1="887.112915" y1="1112.844482" x2="853.526062" y2="1112.844482" style="stroke: green; stroke-width: 0.200000"/>
   <line x1="886.784607" y1="1111.844482" x2="853.526062" y2="1111.844482" style="stroke: green; stroke-width: 0.200000"/>
   <line x1="886.464905" y1="1110.844482" x2="853.526062" y2="1110.844482" style="stroke: green; stroke-width: 0.200000"/>
   <line x1="886.152466" y1="1109.844482" x2="853.526062" y2="1109.844482" style="stroke: green; stroke-width: 0.200000"/>
   <line x1="885.840088" y1="1108.844482" x2="853.526062" y2="1108.844482" style="stroke: green; stroke-width: 0.200000"/>
   <line x1="885.527649" y1="1107.844482" x2="853.526062" y2="1107.844482" style="stroke: green; stroke-width: 0.200000"/>
   <line x1="885.215210" y1="1106.844482" x2="853.526062" y2="1106.844482" style="stroke: green; stroke-width: 0.200000"/>
   <line x1="884.902710" y1="1105.844482" x2="853.526062" y2="1105.844482" style="stroke: green; stroke-width: 0.200000"/>
   <line x1="884.590332" y1="1104.844482" x2="853.526062" y2="1104.844482" style="stroke: green; stroke-width: 0.200000"/>
   <line x1="884.235840" y1="1103.844482" x2="853.526062" y2="1103.844482" style="stroke: green; stroke-width: 0.200000"/>
   <line x1="883.843323" y1="1102.844482" x2="853.526062" y2="1102.844482" style="stroke: green; stroke-width: 0.200000"/>
   <line x1="883.450684" y1="1101.844482" x2="853.526062" y2="1101.844482" style="stroke: green; stroke-width: 0.200000"/>
   <line x1="883.058167" y1="1100.844482" x2="853.526062" y2="1100.844482" style="stroke: green; stroke-width: 0.200000"/>
   <line x1="882.665649" y1="1099.844482" x2="853.526062" y2="1099.844482" style="stroke: green; stroke-width: 0.200000"/>
   <line x1="882.273071" y1="1098.844482" x2="853.526062" y2="1098.844482" style="stroke: green; stroke-width: 0.200000"/>
   <line x1="881.880493" y1="1097.844482" x2="853.526062" y2="1097.844482" style="stroke: green; stroke-width: 0.200000"/>
   <line x1="881.487976" y1="1096.844482" x2="853.526062" y2="1096.844482" style="stroke: green; stroke-width: 0.200000"/>
   <line x1="881.144714" y1="1095.844482" x2="853.526062" y2="1095.844482" style="stroke: green; stroke-width: 0.200000"/>
   <line x1="880.815552" y1="1094.844482" x2="853.526062" y2="1094.844482" style="stroke: green; stroke-width: 0.200000"/>
   <line x1="880.382446" y1="1093.844482" x2="853.526062" y2="1093.844482" style="stroke: green; stroke-width: 0.200000"/>
   <line x1="879.949280" y1="1092.844482" x2="853.526062" y2="1092.844482" style="stroke: green; stroke-width: 0.200000"/>
   <line x1="879.546204" y1="1091.844482" x2="853.526062" y2="1091.844482" style="stroke: green; stroke-width: 0.200000"/>
   <line x1="879.171204" y1="1090.844482" x2="853.526062" y2="1090.844482" style="stroke: green; stroke-width: 0.200000"/>
   <line x1="878.796143" y1="1089.844482" x2="853.526062" y2="1089.844482" style="stroke: green; stroke-width: 0.200000"/>
   <line x1="878.421143" y1="1088.844482" x2="853.526062" y2="1088.844482" style="stroke: green; stroke-width: 0.200000"/>
   <line x1="878.046143" y1="1087.844482" x2="853.526062" y2="1087.844482" style="stroke: green; stroke-width: 0.200000"/>
   <line x1="877.671143" y1="1086.844482" x2="853.526062" y2="1086.844482" style="stroke: green; stroke-width: 0.200000"/>
   <line x1="877.296082" y1="1085.844482" x2="853.526062" y2="1085.844482" style="stroke: green; stroke-width: 0.200000"/>
   <line x1="876.711304" y1="1084.844482" x2="853.526062" y2="1084.844482" style="stroke: green; stroke-width: 0.200000"/>
   <line x1="875.953979" y1="1083.844482" x2="853.526062" y2="1083.844482" style="stroke: green; stroke-width: 0.200000"/>
   <line x1="875.208435" y1="1082.844482" x2="853.526062" y2="1082.844482" style="stroke: green; stroke-width: 0.200000"/>
   <line x1="874.496216" y1="1081.844482" x2="853.526062" y2="1081.844482" style="stroke: green; stroke-width: 0.200000"/>
   <line x1="873.784058" y1="1080.844482" x2="853.526062" y2="1080.844482" style="stroke: green; stroke-width: 0.200000"/>
   <line x1="873.071838" y1="1079.844482" x2="853.526062" y2="1079.844482" style="stroke: green; stroke-width: 0.200000"/>
   <line x1="872.359558" y1="1078.844482" x2="853.526062" y2="1078.844482" style="stroke: green; stroke-width: 0.200000"/>
   <line x1="871.647339" y1="1077.844482" x2="853.526062" y2="1077.844482" style="stroke: green; stroke-width: 0.200000"/>
   <line x1="870.809998" y1="1076.844482" x2="853.526062" y2="1076.844482" style="stroke: green; stroke-width: 0.200000"/>
   <line x1="869.930359" y1="1075.844482" x2="853.526062" y2="1075.844482" style="stroke: green; stroke-width: 0.200000"/>
   <line x1="869.050659" y1="1074.844482" x2="853.526062" y2="1074.844482" style="stroke: green; stroke-width: 0.200000"/>
   <line x1="868.065674" y1="1073.844482" x2="853.526062" y2="1073.844482" style="stroke: green; stroke-width: 0.200000"/>
   <line x1="866.986389" y1="1072.844482" x2="853.526062" y2="1072.844482" style="stroke: green; stroke-width: 0.200000"/>
   <line x1="865.907104" y1="1071.844482" x2="853.526062" y2="1071.844482" style="stroke: green; stroke-width: 0.200000"/>
   <line x1="864.827881" y1="1070.844482" x2="853.526062" y2="1070.844482" style="stroke: green; stroke-width: 0.200000"/>
   <line x1="863.748657" y1="1069.844482" x2="853.526062" y2="1069.844482" style="stroke: green; stroke-width: 0.200000"/>
   <line x1="862.359985" y1="1068.844482" x2="853.526062" y2="1068.844482" style="stroke: green; stroke-width: 0.200000"/>
   <line x1="860.904236" y1="1067.844482" x2="853.526062" y2="1067.844482" style="stroke: green; stroke-width: 0.200000"/>
   <line x1="859.448486" y1="1066.844482" x2="853.526062" y2="1066.844482" style="stroke: green; stroke-width: 0.200000"/>
   <line x1="803.326111" y1="1165.844482" x2="770.102600" y2="1165.844482" style="stroke: green; stroke-width: 0.200000"/>
   <line x1="803.326111" y1="1164.844482" x2="769.396912" y2="1164.844482" style="stroke: green; stroke-width: 0.200000"/>
   <line x1="803.326111" y1="1163.844482" x2="768.907166" y2="1163.844482" style="stroke: green; stroke-width: 0.200000"/>
   <line x1="803.326111" y1="1162.844482" x2="768.475647" y2="1162.844482" style="stroke: green; stroke-width: 0.200000"/>
   <line x1="803.326111" y1="1161.844482" x2="768.044067" y2="1161.844482" style="stroke: green; stroke-width: 0.200000"/>
   <line x1="803.326111" y1="1160.844482" x2="767.612549" y2="1160.844482" style="stroke: green; stroke-width: 0.200000"/>
   <line x1="803.326111" y1="1159.844482" x2="767.165649" y2="1159.844482" style="stroke: green; stroke-width: 0.200000"/>
   <line x1="803.326111" y1="1158.844482" x2="766.668823" y2="1158.844482" style="stroke: green; stroke-width: 0.200000"/>
   <line x1="803.326111" y1="1157.844482" x2="766.172119" y2="1157.844482" style="stroke: green; stroke-width: 0.200000"/>
   <line x1="803.326111" y1="1156.844482" x2="765.675354" y2="1156.844482" style="stroke: green; stroke-width: 0.200000"/>
   <line x1="803.326111" y1="1155.844482" x2="765.203552" y2="1155.844482" style="stroke: green; stroke-width: 0.200000"/>
   <line x1="803.326111" y1="1154.844482" x2="764.936523" y2="1154.844482" style="stroke: green; stroke-width: 0.200000"/>
   <line x1="803.326111" y1="1153.844482" x2="764.669434" y2="1153.844482" style="stroke: green; stroke-width: 0.200000"/>
   <line x1="803.326111" y1="1152.844482" x2="764.402344" y2="1152.844482" style="stroke: green; stroke-width: 0.200000"/>
   <line x1="803.326111" y1="1151.844482" x2="764.077454" y2="1151.844482" style="stroke: green; stroke-width: 0.200000"/>
   <line x1="803.326111" y1="1150.844482" x2="763.714661" y2="1150.844482" style="stroke: green; stroke-width: 0.200000"/>
   <line x1="803.326111" y1="1149.844482" x2="763.351929" y2="1149.844482" style="stroke: green; stroke-width: 0.200000"/>
   <line x1="803.326111" y1="1148.844482" x2="762.989136" y2="1148.844482" style="stroke: green; stroke-width: 0.200000"/>
   <line x1="803.326111" y1="1147.844482" x2="762.626282" y2="1147.844482" style="stroke: green; stroke-width: 0.200000"/>
   <line x1="803.326111" y1="1146.844482" x2="762.263489" y2="1146.844482" style="stroke: green; stroke-width: 0.200000"/>
   <line x1="803.326111" y1="1145.844482" x2="761.944641" y2="1145.844482" style="stroke: green; stroke-width: 0.200000"/>
   <line x1="803.326111" y1="1144.844482" x2="761.634399" y2="1144.844482" style="stroke: green; stroke-width: 0.200000"/>
   <line x1="803.326111" y1="1143.844482" x2="761.324158" y2="1143.844482" style="stroke: green; stroke-width: 0.200000"/>
   <line x1="803.326111" y1="1142.844482" x2="761.013916" y2="1142.844482" style="stroke: green; stroke-width: 0.200000"/>
   <line x1="803.326111" y1="1141.844482" x2="760.703674" y2="1141.844482" style="stroke: green; stroke-width: 0.200000"/>
   <line x1="803.326111" y1="1140.844482" x2="760.393433" y2="1140.844482" style="stroke: green; stroke-width: 0.200000"/>
   <line x1="803.326111" y1="1139.844482" x2="760.083130" y2="1139.844482" style="stroke: green; stroke-width: 0.200000"/>
   <line x1="803.326111" y1="1138.844482" x2="759.772949" y2="1138.844482" style="stroke: green; stroke-width: 0.200000"/>
   <line x1="803.326111" y1="1137.844482" x2="759.462769" y2="1137.844482" style="stroke: green; stroke-width: 0.200000"/>
   <line x1="803.326111" y1="1136.844482" x2="759.221313" y2="1136.844482" style="stroke: green; stroke-width: 0.200000"/>
   <line x1="803.326111" y1="1135.844482" x2="759.001343" y2="1135.844482" style="stroke: green; stroke-width: 0.200000"/>
   <line x1="803.326111" y1="1134.844482" x2="758.614807" y2="1134.844482" style="stroke: green; stroke-width: 0.200000"/>
   <line x1="803.326111" y1="1133.844482" x2="758.228210" y2="1133.844482" style="stroke: green; stroke-width: 0.200000"/>
   <line x1="803.326111" y1="1132.844482" x2="757.841675" y2="1132.844482" style="stroke: green; stroke-width: 0.200000"/>
   <line x1="803.326111" y1="1131.844482" x2="757.455078" y2="1131.844482" style="stroke: green; stroke-width: 0.200000"/>
   <line x1="803.326111" y1="1130.844482" x2="757.068542" y2="1130.844482" style="stroke: green; stroke-width: 0.200000"/>
   <line x1="803.326111" y1="1129.844482" x2="756.682007" y2="1129.844482" style="stroke: green; stroke-width: 0.200000"/>
   <line x1="803.326111" y1="1128.844482" x2="756.295410" y2="1128.844482" style="stroke: green; stroke-width: 0.200000"/>
   <line x1="803.326111" y1="1127.844482" x2="755.908875" y2="1127.844482" style="stroke: green; stroke-width: 0.200000"/>
   <line x1="803.326111" y1="1126.844482" x2="755.522339" y2="1126.844482" style="stroke: green; stroke-width: 0.200000"/>
   <line x1="803.326111" y1="1125.844482" x2="755.135742" y2="1125.844482" style="stroke: green; stroke-width: 0.200000"/>
   <line x1="803.326111" y1="1124.844482" x2="754.931091" y2="1124.844482" style="stroke: green; stroke-width: 0.200000"/>
   <line x1="803.326111" y1="1123.844482" x2="754.784790" y2="1123.844482" style="stroke: green; stroke-width: 0.200000"/>
   <line x1="803.326111" y1="1122.844482" x2="754.631042" y2="1122.844482" style="stroke: green; stroke-width: 0.200000"/>
   <line x1="803.326111" y1="1121.844482" x2="754.456421" y2="1121.844482" style="stroke: green; stroke-width: 0.200000"/>
   <line x1="803.326111" y1="1120.844482" x2="754.281677" y2="1120.844482" style="stroke: green; stroke-width: 0.200000"/>
   <line x1="803.326111" y1="1119.844482" x2="754.106995" y2="1119.844482" style="stroke: green; stroke-width: 0.200000"/>
   <line x1="803.326111" y1="1118.844482" x2="753.932373" y2="1118.844482" style="stroke: green; stroke-width: 0.200000"/>
   <line x1="803.326111" y1="1117.844482" x2="753.757629" y2="1117.844482" style="stroke: green; stroke-width: 0.200000"/>
   <line x1="803.326111" y1="1116.844482" x2="753.582886" y2="1116.844482" style="stroke: green; stroke-width: 0.200000"/>
   <line x1="853.426147" y1="1165.844482" x2="803.426147" y2="1165.844482" style="stroke: green; stroke-width: 0.200000"/>
   <line x1="853.426147" y1="1164.844482" x2="803.426147" y2="1164.844482" style="stroke: green; stroke-width: 0.200000"/>
   <line x1="853.426147" y1="1163.844482" x2="803.426147" y2="1163.844482" style="stroke: green; stroke-width: 0.200000"/>
   <line x1="853.426147" y1="1162.844482" x2="803.426147" y2="1162.844482" style="stroke: green; stroke-width: 0.200000"/>
   <line x1="853.426147" y1="1161.844482" x2="803.426147" y2="1161.844482" style="stroke: green; stroke-width: 0.200000"/>
   <line x1="853.426147" y1="1160.844482" x2="803.426147" y2="1160.844482" style="stroke: green; stroke-width: 0.200000"/>
   <line x1="853.426147" y1="1159.844482" x2="803.426147" y2="1159.844482" style="stroke: green; stroke-width: 0.200000"/>
   <line x1="853.426147" y1="1158.844482" x2="803.426147" y2="1158.844482" style="stroke: green; stroke-width: 0.200000"/>
   <line x1="853.426147" y1="1157.844482" x2="803.426147" y2="1157.844482" style="stroke: green; stroke-width: 0.200000"/>
   <line x1="853.426147" y1="1156.844482" x2="803.426147" y2="1156.844482" style="stroke: green; stroke-width: 0.200000"/>
   <line x1="853.426147" y1="1155.844482" x2="803.426147" y2="1155.844482" style="stroke: green; stroke-width: 0.200000"/>
   <line x1="853.426147" y1="1154.844482" x2="803.426147" y2="1154.844482" style="stroke: green; stroke-width: 0.200000"/>
   <line x1="853.426147" y1="1153.844482" x2="803.426147" y2="1153.844482" style="stroke: green; stroke-width: 0.200000"/>
   <line x1="853.426147" y1="1152.844482" x2="803.426147" y2="1152.844482" style="stroke: green; stroke-width: 0.200000"/>
   <line x1="853.426147" y1="1151.844482" x2="803.426147" y2="1151.844482" style="stroke: green; stroke-width: 0.200000"/>
   <line x1="853.426147" y1="1150.844482" x2="803.426147" y2="1150.844482" style="stroke: green; stroke-width: 0.200000"/>
   <line x1="853.426147" y1="1149.844482" x2="803.426147" y2="1149.844482" style="stroke: green; stroke-width: 0.200000"/>
   <line x1="853.426147" y1="1148.844482" x2="803.426147" y2="1148.844482" style="stroke: green; stroke-width: 0.200000"/>
   <line x1="853.426147" y1="1147.844482" x2="803.426147" y2="1147.844482" style="stroke: green; stroke-width: 0.200000"/>
   <line x1="853.426147" y1="1146.844482" x2="803.426147" y2="1146.844482" style="stroke: green; stroke-width: 0.200000"/>
   <line x1="853.426147" y1="1145.844482" x2="803.426147" y2="1145.844482" style="stroke: green; stroke-width: 0.200000"/>
   <line x1="853.426147" y1="1144.844482" x2="803.426147" y2="1144.844482" style="stroke: green; stroke-width: 0.200000"/>
   <line x1="853.426147" y1="1143.844482" x2="803.426147" y2="1143.844482" style="stroke: green; stroke-width: 0.200000"/>
   <line x1="853.426147" y1="1142.844482" x2="803.426147" y2="1142.844482" style="stroke: green; stroke-width: 0.200000"/>
   <line x1="853.426147" y1="1141.844482" x2="803.426147" y2="1141.844482" style="stroke: green; stroke-width: 0.200000"/>
   <line x1="853.426147" y1="1140.844482" x2="803.426147" y2="1140.844482" style="stroke: green; stroke-width: 0.200000"/>
   <line x1="853.426147" y1="1139.844482" x2="803.426147" y2="1139.844482" style="stroke: green; stroke-width: 0.200000"/>
   <line x1="853.426147" y1="1138.844482" x2="803.426147" y2="1138.844482" style="stroke: green; stroke-width: 0.200000"/>
   <line x1="853.426147" y1="1137.844482" x2="803.426147" y2="1137.844482" style="stroke: green; stroke-width: 0.200000"/>
   <line x1="853.426147" y1="1136.844482" x2="803.426147" y2="1136.844482" style="stroke: green; stroke-width: 0.200000"/>
   <line x1="853.426147" y1="1135.844482" x2="803.426147" y2="1135.844482" style="stroke: green; stroke-width: 0.200000"/>
   <line x1="853.426147" y1="1134.844482" x2="803.426147" y2="1134.844482" style="stroke: green; stroke-width: 0.200000"/>
   <line x1="853.426147" y1="1133.844482" x2="803.426147" y2="1133.844482" style="stroke: green; stroke-width: 0.200000"/>
   <line x1="853.426147" y1="1132.844482" x2="803.426147" y2="1132.844482" style="stroke: green; stroke-width: 0.200000"/>
   <line x1="853.426147" y1="1131.844482" x2="803.426147" y2="1131.844482" style="stroke: green; stroke-width: 0.200000"/>
   <line x1="853.426147" y1="1130.844482" x2="803.426147" y2="1130.844482" style="stroke: green; stroke-width: 0.200000"/>
   <line x1="853.426147" y1="1129.844482" x2="803.426147" y2="1129.844482" style="stroke: green; stroke-width: 0.200000"/>
   <line x1="853.426147" y1="1128.844482" x2="803.426147" y2="1128.844482" style="stroke: green; stroke-width: 0.200000"/>
   <line x1="853.426147" y1="1127.844482" x2="803.426147" y2="1127.844482" style="stroke: green; stroke-width: 0.200000"/>
   <line x1="853.426147" y1="1126.844482" x2="803.426147" y2="1126.844482" style="stroke: green; stroke-width: 0.200000"/>
   <line x1="853.426147" y1="1125.844482" x2="803.426147" y2="1125.844482" style="stroke: green; stroke-width: 0.200000"/>
   <line x1="853.426147" y1="1124.844482" x2="803.426147" y2="1124.844482" style="stroke: green; stroke-width: 0.200000"/>
   <line x1="853.426147" y1="1123.844482" x2="803.426147" y2="1123.844482" style="stroke: green; stroke-width: 0.200000"/>
   <line x1="853.426147" y1="1122.844482" x2="803.426147" y2="1122.844482" style="stroke: green; stroke-width: 0.200000"/>
   <line x1="853.426147" y1="1121.844482" x2="803.426147" y2="1121.844482" style="stroke: green; stroke-width: 0.200000"/>
   <line x1="853.426147" y1="1120.844482" x2="803.426147" y2="1120.844482" style="stroke: green; stroke-width: 0.200000"/>
   <line x1="853.426147" y1="1119.844482" x2="803.426147" y2="1119.844482" style="stroke: green; stroke-width: 0.200000"/>
   <line x1="853.426147" y1="1118.844482" x2="803.426147" y2="1118.844482" style="stroke: green; stroke-width: 0.200000"/>
   <line x1="853.426147" y1="1117.844482" x2="803.426147" y2="1117.844482" style="stroke: green; stroke-width: 0.200000"/>
   <line x1="853.426147" y1="1116.844482" x2="803.426147" y2="1116.844482" style="stroke: green; stroke-width: 0.200000"/>
   <line x1="887.597351" y1="1165.844482" x2="853.526062" y2="1165.844482" style="stroke: green; stroke-width: 0.200000"/>
   <line x1="888.210144" y1="1164.844482" x2="853.526062" y2="1164.844482" style="stroke: green; stroke-width: 0.200000"/>
   <line x1="888.739502" y1="1163.844482" x2="853.526062" y2="1163.844482" style="stroke: green; stroke-width: 0.200000"/>
   <line x1="889.041199" y1="1162.844482" x2="853.526062" y2="1162.844482" style="stroke: green; stroke-width: 0.200000"/>
   <line x1="889.342957" y1="1161.844482" x2="853.526062" y2="1161.844482" style="stroke: green; stroke-width: 0.200000"/>
   <line x1="889.644714" y1="1160.844482" x2="853.526062" y2="1160.844482" style="stroke: green; stroke-width: 0.200000"/>
   <line x1="889.946350" y1="1159.844482" x2="853.526062" y2="1159.844482" style="stroke: green; stroke-width: 0.200000"/>
   <line x1="890.248108" y1="1158.844482" x2="853.526062" y2="1158.844482" style="stroke: green; stroke-width: 0.200000"/>
   <line x1="890.566284" y1="1157.844482" x2="853.526062" y2="1157.844482" style="stroke: green; stroke-width: 0.200000"/>
   <line x1="890.893799" y1="1156.844482" x2="853.526062" y2="1156.844482" style="stroke: green; stroke-width: 0.200000"/>
   <line x1="891.221313" y1="1155.844482" x2="853.526062" y2="1155.844482" style="stroke: green; stroke-width: 0.200000"/>
   <line x1="891.531921" y1="1154.844482" x2="853.526062" y2="1154.844482" style="stroke: green; stroke-width: 0.200000"/>
   <line x1="891.697754" y1="1153.844482" x2="853.526062" y2="1153.844482" style="stroke: green; stroke-width: 0.200000"/>
   <line x1="891.863647" y1="1152.844482" x2="853.526062" y2="1152.844482" style="stroke: green; stroke-width: 0.200000"/>
   <line x1="892.029480" y1="1151.844482" x2="853.526062" y2="1151.844482" style="stroke: green; stroke-width: 0.200000"/>
   <line x1="892.195374" y1="1150.844482" x2="853.526062" y2="1150.844482" style="stroke: green; stroke-width: 0.200000"/>
   <line x1="892.356262" y1="1149.844482" x2="853.526062" y2="1149.844482" style="stroke: green; stroke-width: 0.200000"/>
   <line x1="892.508789" y1="1148.844482" x2="853.526062" y2="1148.844482" style="stroke: green; stroke-width: 0.200000"/>
   <line x1="892.661194" y1="1147.844482" x2="853.526062" y2="1147.844482" style="stroke: green; stroke-width: 0.200000"/>
   <line x1="892.813721" y1="1146.844482" x2="853.526062" y2="1146.844482" style="stroke: green; stroke-width: 0.200000"/>
   <line x1="892.966187" y1="1145.844482" x2="853.526062" y2="1145.844482" style="stroke: green; stroke-width: 0.200000"/>
   <line x1="892.962097" y1="1144.844482" x2="853.526062" y2="1144.844482" style="stroke: green; stroke-width: 0.200000"/>
   <line x1="892.891357" y1="1143.844482" x2="853.526062" y2="1143.844482" style="stroke: green; stroke-width: 0.200000"/>
   <line x1="892.820740" y1="1142.844482" x2="853.526062" y2="1142.844482" style="stroke: green; stroke-width: 0.200000"/>
   <line x1="892.750000" y1="1141.844482" x2="853.526062" y2="1141.844482" style="stroke: green; stroke-width: 0.200000"/>
   <line x1="892.679382" y1="1140.844482" x2="853.526062" y2="1140.844482" style="stroke: green; stroke-width: 0.200000"/>
   <line x1="892.608643" y1="1139.844482" x2="853.526062" y2="1139.844482" style="stroke: green; stroke-width: 0.200000"/>
   <line x1="892.537964" y1="1138.844482" x2="853.526062" y2="1138.844482" style="stroke: green; stroke-width: 0.200000"/>
   <line x1="892.467285" y1="1137.844482" x2="853.526062" y2="1137.844482" style="stroke: green; stroke-width: 0.200000"/>
   <line x1="892.396606" y1="1136.844482" x2="853.526062" y2="1136.844482" style="stroke: green; stroke-width: 0.200000"/>
   <line x1="892.325928" y1="1135.844482" x2="853.526062" y2="1135.844482" style="stroke: green; stroke-width: 0.200000"/>
   <line x1="892.255249" y1="1134.844482" x2="853.526062" y2="1134.844482" style="stroke: green; stroke-width: 0.200000"/>
   <line x1="892.106995" y1="1133.844482" x2="853.526062" y2="1133.844482" style="stroke: green; stroke-width: 0.200000"/>
   <line x1="891.915222" y1="1132.844482" x2="853.526062" y2="1132.844482" style="stroke: green; stroke-width: 0.200000"/>
   <line x1="891.723389" y1="1131.844482" x2="853.526062" y2="1131.844482" style="stroke: green; stroke-width: 0.200000"/>
   <line x1="891.531677" y1="1130.844482" x2="853.526062" y2="1130.844482" style="stroke: green; stroke-width: 0.200000"/>
   <line x1="891.339844" y1="1129.844482" x2="853.526062" y2="1129.844482" style="stroke: green; stroke-width: 0.200000"/>
   <line x1="891.148132" y1="1128.844482" x2="853.526062" y2="1128.844482" style="stroke: green; stroke-width: 0.200000"/>
   <line x1="890.956360" y1="1127.844482" x2="853.526062" y2="1127.844482" style="stroke: green; stroke-width: 0.200000"/>
   <line x1="890.764648" y1="1126.844482" x2="853.526062" y2="1126.844482" style="stroke: green; stroke-width: 0.200000"/>
   <line x1="890.572815" y1="1125.844482" x2="853.526062" y2="1125.844482" style="stroke: green; stroke-width: 0.200000"/>
   <line x1="890.380981" y1="1124.844482" x2="853.526062" y2="1124.844482" style="stroke: green; stroke-width: 0.200000"/>
   <line x1="890.189270" y1="1123.844482" x2="853.526062" y2="1123.844482" style="stroke: green; stroke-width: 0.200000"/>
   <line x1="889.918518" y1="1122.844482" x2="853.526062" y2="1122.844482" style="stroke: green; stroke-width: 0.200000"/>
   <line x1="889.644470" y1="1121.844482" x2="853.526062" y2="1121.844482" style="stroke: green; stroke-width: 0.200000"/>
   <line x1="889.370422" y1="1120.844482" x2="853.526062" y2="1120.844482" style="stroke: green; stroke-width: 0.200000"/>
   <line x1="889.096375" y1="1119.844482" x2="853.526062" y2="1119.844482" style="stroke: green; stroke-width: 0.200000"/>
   <line x1="888.822327" y1="1118.844482" x2="853.526062" y2="1118.844482" style="stroke: green; stroke-width: 0.200000"/>
   <line x1="888.548218" y1="1117.844482" x2="853.526062" y2="1117.844482" style="stroke: green; stroke-width: 0.200000"/>
   <line x1="888.274170" y1="1116.844482" x2="853.526062" y2="1116.844482" style="stroke: green; stroke-width: 0.200000"/>
   <line x1="803.326111" y1="1196.844482" x2="802.310059" y2="1196.844482" style="stroke: green; stroke-width: 0.200000"/>
   <line x1="803.326111" y1="1195.844482" x2="800.386475" y2="1195.844482" style="stroke: green; stroke-width: 0.200000"/>
   <line x1="803.326111" y1="1194.844482" x2="798.460693" y2="1194.844482" style="stroke: green; stroke-width: 0.200000"/>
   <line x1="803.326111" y1="1193.844482" x2="796.495667" y2="1193.844482" style="stroke: green; stroke-width: 0.200000"/>
   <line x1="803.326111" y1="1192.844482" x2="794.748169" y2="1192.844482" style="stroke: green; stroke-width: 0.200000"/>
   <line x1="803.326111" y1="1191.844482" x2="793.543640" y2="1191.844482" style="stroke: green; stroke-width: 0.200000"/>
   <line x1="803.326111" y1="1190.844482" x2="792.421814" y2="1190.844482" style="stroke: green; stroke-width: 0.200000"/>
   <line x1="803.326111" y1="1189.844482" x2="791.300049" y2="1189.844482" style="stroke: green; stroke-width: 0.200000"/>
   <line x1="803.326111" y1="1188.844482" x2="790.178223" y2="1188.844482" style="stroke: green; stroke-width: 0.200000"/>
   <line x1="803.326111" y1="1187.844482" x2="789.056458" y2="1187.844482" style="stroke: green; stroke-width: 0.200000"/>
   <line x1="803.326111" y1="1186.844482" x2="787.934631" y2="1186.844482" style="stroke: green; stroke-width: 0.200000"/>
   <line x1="803.326111" y1="1185.844482" x2="787.141357" y2="1185.844482" style="stroke: green; stroke-width: 0.200000"/>
   <line x1="803.326111" y1="1184.844482" x2="786.397400" y2="1184.844482" style="stroke: green; stroke-width: 0.200000"/>
   <line x1="803.326111" y1="1183.844482" x2="785.653442" y2="1183.844482" style="stroke: green; stroke-width: 0.200000"/>
   <line x1="803.326111" y1="1182.844482" x2="784.905396" y2="1182.844482" style="stroke: green; stroke-width: 0.200000"/>
   <line x1="803.326111" y1="1181.844482" x2="783.901367" y2="1181.844482" style="stroke: green; stroke-width: 0.200000"/>
   <line x1="803.326111" y1="1180.844482" x2="782.897400" y2="1180.844482" style="stroke: green; stroke-width: 0.200000"/>
   <line x1="803.326111" y1="1179.844482" x2="781.893433" y2="1179.844482" style="stroke: green; stroke-width: 0.200000"/>
   <line x1="803.326111" y1="1178.844482" x2="780.911560" y2="1178.844482" style="stroke: green; stroke-width: 0.200000"/>
   <line x1="803.326111" y1="1177.844482" x2="779.976685" y2="1177.844482" style="stroke: green; stroke-width: 0.200000"/>
   <line x1="803.326111" y1="1176.844482" x2="779.041748" y2="1176.844482" style="stroke: green; stroke-width: 0.200000"/>
   <line x1="803.326111" y1="1175.844482" x2="778.106812" y2="1175.844482" style="stroke: green; stroke-width: 0.200000"/>
   <line x1="803.326111" y1="1174.844482" x2="777.171875" y2="1174.844482" style="stroke: green; stroke-width: 0.200000"/>
   <line x1="803.326111" y1="1173.844482" x2="776.236938" y2="1173.844482" style="stroke: green; stroke-width: 0.200000"/>
   <line x1="803.326111" y1="1172.844482" x2="775.261902" y2="1172.844482" style="stroke: green; stroke-width: 0.200000"/>
   <line x1="803.326111" y1="1171.844482" x2="774.306702" y2="1171.844482" style="stroke: green; stroke-width: 0.200000"/>
   <line x1="803.326111" y1="1170.844482" x2="773.612732" y2="1170.844482" style="stroke: green; stroke-width: 0.200000"/>
   <line x1="803.326111" y1="1169.844482" x2="772.918701" y2="1169.844482" style="stroke: green; stroke-width: 0.200000"/>
   <line x1="803.326111" y1="1168.844482" x2="772.219727" y2="1168.844482" style="stroke: green; stroke-width: 0.200000"/>
   <line x1="803.326111" y1="1167.844482" x2="771.513977" y2="1167.844482" style="stroke: green; stroke-width: 0.200000"/>
   <line x1="803.326111" y1="1166.844482" x2="770.808350" y2="1166.844482" style="stroke: green; stroke-width: 0.200000"/>
   <line x1="837.854919" y1="1202.844482" x2="823.176941" y2="1202.844482" style="stroke: green; stroke-width: 0.200000"/>
   <line x1="841.246887" y1="1201.844482" x2="817.120728" y2="1201.844482" style="stroke: green; stroke-width: 0.200000"/>
   <line x1="844.152954" y1="1200.844482" x2="813.270020" y2="1200.844482" style="stroke: green; stroke-width: 0.200000"/>
   <line x1="846.897705" y1="1199.844482" x2="810.151855" y2="1199.844482" style="stroke: green; stroke-width: 0.200000"/>
   <line x1="849.642395" y1="1198.844482" x2="807.033569" y2="1198.844482" style="stroke: green; stroke-width: 0.200000"/>
   <line x1="852.387085" y1="1197.844482" x2="804.280884" y2="1197.844482" style="stroke: green; stroke-width: 0.200000"/>
   <line x1="853.426147" y1="1196.844482" x2="803.426147" y2="1196.844482" style="stroke: green; stroke-width: 0.200000"/>
   <line x1="853.426147" y1="1195.844482" x2="803.426147" y2="1195.844482" style="stroke: green; stroke-width: 0.200000"/>
   <line x1="853.426147" y1="1194.844482" x2="803.426147" y2="1194.844482" style="stroke: green; stroke-width: 0.200000"/>
   <line x1="853.426147" y1="1193.844482" x2="803.426147" y2="1193.844482" style="stroke: green; stroke-width: 0.200000"/>
   <line x1="853.426147" y1="1192.844482" x2="803.426147" y2="1192.844482" style="stroke: green; stroke-width: 0.200000"/>
   <line x1="853.426147" y1="1191.844482" x2="803.426147" y2="1191.844482" style="stroke: green; stroke-width: 0.200000"/>
   <line x1="853.426147" y1="1190.844482" x2="803.426147" y2="1190.844482" style="stroke: green; stroke-width: 0.200000"/>
   <line x1="853.426147" y1="1189.844482" x2="803.426147" y2="1189.844482" style="stroke: green; stroke-width: 0.200000"/>
   <line x1="853.426147" y1="1188.844482" x2="803.426147" y2="1188.844482" style="stroke: green; stroke-width: 0.200000"/>
   <line x1="853.426147" y1="1187.844482" x2="803.426147" y2="1187.844482" style="stroke: green; stroke-width: 0.200000"/>
   <line x1="853.426147" y1="1186.844482" x2="803.426147" y2="1186.844482" style="stroke: green; stroke-width: 0.200000"/>
   <line x1="853.426147" y1="1185.844482" x2="803.426147" y2="1185.844482" style="stroke: green; stroke-width: 0.200000"/>
   <line x1="853.426147" y1="1184.844482" x2="803.426147" y2="1184.844482" style="stroke: green; stroke-width: 0.200000"/>
   <line x1="853.426147" y1="1183.844482" x2="803.426147" y2="1183.844482" style="stroke: green; stroke-width: 0.200000"/>
   <line x1="853.426147" y1="1182.844482" x2="803.426147" y2="1182.844482" style="stroke: green; stroke-width: 0.200000"/>
   <line x1="853.426147" y1="1181.844482" x2="803.426147" y2="1181.844482" style="stroke: green; stroke-width: 0.200000"/>
   <line x1="853.426147" y1="1180.844482" x2="803.426147" y2="1180.844482" style="stroke: green; stroke-width: 0.200000"/>
   <line x1="853.426147" y1="1179.844482" x2="803.426147" y2="1179.844482" style="stroke: green; stroke-width: 0.200000"/>
   <line x1="853.426147" y1="1178.844482" x2="803.426147" y2="1178.844482" style="stroke: green; stroke-width: 0.200000"/>
   <line x1="853.426147" y1="1177.844482" x2="803.426147" y2="1177.844482" style="stroke: green; stroke-width: 0.200000"/>
   <line x1="853.426147" y1="1176.844482" x2="803.426147" y2="1176.844482" style="stroke: green; stroke-width: 0.200000"/>
   <line x1="853.426147" y1="1175.844482" x2="803.426147" y2="1175.844482" style="stroke: green; stroke-width: 0.200000"/>
   <line x1="853.426147" y1="1174.844482" x2="803.426147" y2="1174.844482" style="stroke: green; stroke-width: 0.200000"/>
   <line x1="853.426147" y1="1173.844482" x2="803.426147" y2="1173.844482" style="stroke: green; stroke-width: 0.200000"/>
   <line x1="853.426147" y1="1172.844482" x2="803.426147" y2="1172.844482" style="stroke: green; stroke-width: 0.200000"/>
   <line x1="853.426147" y1="1171.844482" x2="803.426147" y2="1171.844482" style="stroke: green; stroke-width: 0.200000"/>
   <line x1="853.426147" y1="1170.844482" x2="803.426147" y2="1170.844482" style="stroke: green; stroke-width: 0.200000"/>
   <line x1="853.426147" y1="1169.844482" x2="803.426147" y2="1169.844482" style="stroke: green; stroke-width: 0.200000"/>
   <line x1="853.426147" y1="1168.844482" x2="803.426147" y2="1168.844482" style="stroke: green; stroke-width: 0.200000"/>
   <line x1="853.426147" y1="1167.844482" x2="803.426147" y2="1167.844482" style="stroke: green; stroke-width: 0.200000"/>
   <line x1="853.426147" y1="1166.844482" x2="803.426147" y2="1166.844482" style="stroke: green; stroke-width: 0.200000"/>
   <line x1="854.570679" y1="1196.844482" x2="853.526062" y2="1196.844482" style="stroke: green; stroke-width: 0.200000"/>
   <line x1="856.612061" y1="1195.844482" x2="853.526062" y2="1195.844482" style="stroke: green; stroke-width: 0.200000"/>
   <line x1="858.653503" y1="1194.844482" x2="853.526062" y2="1194.844482" style="stroke: green; stroke-width: 0.200000"/>
   <line x1="860.694885" y1="1193.844482" x2="853.526062" y2="1193.844482" style="stroke: green; stroke-width: 0.200000"/>
   <line x1="862.518921" y1="1192.844482" x2="853.526062" y2="1192.844482" style="stroke: green; stroke-width: 0.200000"/>
   <line x1="863.941650" y1="1191.844482" x2="853.526062" y2="1191.844482" style="stroke: green; stroke-width: 0.200000"/>
   <line x1="865.354980" y1="1190.844482" x2="853.526062" y2="1190.844482" style="stroke: green; stroke-width: 0.200000"/>
   <line x1="866.751404" y1="1189.844482" x2="853.526062" y2="1189.844482" style="stroke: green; stroke-width: 0.200000"/>
   <line x1="868.147827" y1="1188.844482" x2="853.526062" y2="1188.844482" style="stroke: green; stroke-width: 0.200000"/>
   <line x1="869.544128" y1="1187.844482" x2="853.526062" y2="1187.844482" style="stroke: green; stroke-width: 0.200000"/>
   <line x1="870.714600" y1="1186.844482" x2="853.526062" y2="1186.844482" style="stroke: green; stroke-width: 0.200000"/>
   <line x1="871.880615" y1="1185.844482" x2="853.526062" y2="1185.844482" style="stroke: green; stroke-width: 0.200000"/>
   <line x1="873.046814" y1="1184.844482" x2="853.526062" y2="1184.844482" style="stroke: green; stroke-width: 0.200000"/>
   <line x1="874.049377" y1="1183.844482" x2="853.526062" y2="1183.844482" style="stroke: green; stroke-width: 0.200000"/>
   <line x1="875.001099" y1="1182.844482" x2="853.526062" y2="1182.844482" style="stroke: green; stroke-width: 0.200000"/>
   <line x1="875.952698" y1="1181.844482" x2="853.526062" y2="1181.844482" style="stroke: green; stroke-width: 0.200000"/>
   <line x1="877.050232" y1="1180.844482" x2="853.526062" y2="1180.844482" style="stroke: green; stroke-width: 0.200000"/>
   <line x1="878.179199" y1="1179.844482" x2="853.526062" y2="1179.844482" style="stroke: green; stroke-width: 0.200000"/>
   <line x1="879.307983" y1="1178.844482" x2="853.526062" y2="1178.844482" style="stroke: green; stroke-width: 0.200000"/>
   <line x1="879.969849" y1="1177.844482" x2="853.526062" y2="1177.844482" style="stroke: green; stroke-width: 0.200000"/>
   <line x1="880.628540" y1="1176.844482" x2="853.526062" y2="1176.844482" style="stroke: green; stroke-width: 0.200000"/>
   <line x1="881.287109" y1="1175.844482" x2="853.526062" y2="1175.844482" style="stroke: green; stroke-width: 0.200000"/>
   <line x1="881.945740" y1="1174.844482" x2="853.526062" y2="1174.844482" style="stroke: green; stroke-width: 0.200000"/>
   <line x1="882.604370" y1="1173.844482" x2="853.526062" y2="1173.844482" style="stroke: green; stroke-width: 0.200000"/>
   <line x1="883.262939" y1="1172.844482" x2="853.526062" y2="1172.844482" style="stroke: green; stroke-width: 0.200000"/>
   <line x1="883.920593" y1="1171.844482" x2="853.526062" y2="1171.844482" style="stroke: green; stroke-width: 0.200000"/>
   <line x1="884.533386" y1="1170.844482" x2="853.526062" y2="1170.844482" style="stroke: green; stroke-width: 0.200000"/>
   <line x1="885.146179" y1="1169.844482" x2="853.526062" y2="1169.844482" style="stroke: green; stroke-width: 0.200000"/>
   <line x1="885.758972" y1="1168.844482" x2="853.526062" y2="1168.844482" style="stroke: green; stroke-width: 0.200000"/>
   <line x1="886.371765" y1="1167.844482" x2="853.526062" y2="1167.844482" style="stroke: green; stroke-width: 0.200000"/>
   <line x1="886.984558" y1="1166.844482" x2="853.526062" y2="1166.844482" style="stroke: green; stroke-width: 0.200000"/>
   <path d="M 799.292  1015.04  803.922  1015.14  808.553  1016.1  813.011  1017.49  815.731  1019.03  821.237  1022.04  828.279  1027.21  828.542  1027.42  834.681  1034.6  836.467  1037.49  840.152  1043.09  842.507  1047.02  845.185  1050.9  848.928  1055.26  851.043  1057.07  854.753  1060.74  857.817  1063.31  859.453  1065.03  864.495  1068.49  869.711  1073.32  872.644  1076.66  876.603  1082.22  878.455  1084.66  881.132  1091.8  882.267  1094.42  882.767  1096  885.858  1103.87  888.064  1110.93  888.943  1113.61  891.641  1123.45  891.784  1124.13  893.72  1134.29  894.52  1145.61  893.781  1150.45  892.976  1155.31  891.788  1158.93  890.039  1164.73  885.141  1172.72  885.07  1172.9  884.862  1173.14  880.459  1179.83  877.163  1182.75  874.358  1185.7  870.497  1189.01  865.725  1192.42  862.785  1194.49  853.53  1199.02  844.586  1202.28  839.767  1203.94  835.121  1205.02  828.117  1204.91  824.548  1204.58  817.362  1203.45  813.027  1202.34  806.105  1200.12  803.506  1199.16  797.88  1196.23  794.291  1194.41  792.84  1193.23  786.676  1187.73  783.784  1183.84  780.133  1180.21  774.758  1174.46  773.264  1172.97  771.289  1170.13  767.932  1165.37  765.921  1160.71  763.823  1156.49  762.864  1152.9  760.782  1147.16  757.864  1137.75  757.619  1136.43  753.582  1125.99  753.195  1123.34  751.816  1115.45  752.224  1110.3  752.965  1105.27  753.859  1099.74  754.984  1094.06  755.698  1089.33  756.413  1083.47  756.152  1078.18  756.191  1073.52  756.59  1064.35  756.59  1063.93  756.627  1063.59  758.327  1055.42  760.679  1048.67  761.238  1046.77  761.94  1045.14  765.155  1039.16  770.294  1031.38  770.976  1030.58  776.797  1025.16  781.784  1021.11  783.6  1019.75  785.068  1018.79  792.202  1015.4  794.568  1014.85  799.292  1015.04  " style="fill: none; stroke: darkmagenta; stroke-width: 0.200000; fill-type: evenodd"  fill-opacity="1.000000" />
   <path d="M 799.26  1016.04  803.809  1016.14  808.303  1017.07  812.61  1018.41  815.244  1019.91  820.699  1022.89  827.667  1028  827.84  1028.14  833.871  1035.19  835.624  1038.03  839.305  1043.62  841.666  1047.56  844.392  1051.51  848.22  1055.97  850.366  1057.81  854.079  1061.48  857.132  1064.04  858.801  1065.79  863.869  1069.27  868.994  1074.02  871.86  1077.28  875.797  1082.81  877.569  1085.15  880.204  1092.18  881.329  1094.77  881.824  1096.33  884.914  1104.2  887.112  1111.24  887.985  1113.9  890.669  1123.69  890.803  1124.33  892.726  1134.42  893.514  1145.57  892.794  1150.29  892.001  1155.07  890.834  1158.63  889.119  1164.32  884.245  1172.27  884.204  1172.37  884.062  1172.54  879.697  1179.17  876.468  1182.03  873.669  1184.97  869.879  1188.22  865.147  1191.61  862.274  1193.63  853.138  1198.1  844.252  1201.34  839.49  1202.98  835.013  1204.02  828.172  1203.92  824.673  1203.58  817.564  1202.47  813.305  1201.38  806.432  1199.18  803.912  1198.24  798.337  1195.34  794.839  1193.56  793.488  1192.46  787.418  1187.05  784.543  1183.19  780.852  1179.51  775.476  1173.76  774.034  1172.33  772.109  1169.55  768.809  1164.88  766.829  1160.29  764.763  1156.13  763.819  1152.6  761.73  1146.84  758.837  1137.51  758.585  1136.16  754.555  1125.73  754.183  1123.18  752.823  1115.4  753.218  1110.41  753.954  1105.42  754.844  1099.92  755.969  1094.23  756.689  1089.46  757.416  1083.5  757.152  1078.16  757.191  1073.54  757.59  1064.38  757.59  1063.99  757.616  1063.74  759.293  1055.68  761.632  1048.97  762.18  1047.11  762.841  1045.58  766.015  1039.68  771.095  1031.98  771.7  1031.27  777.454  1025.92  782.399  1021.9  784.173  1020.57  785.558  1019.67  792.535  1016.35  794.664  1015.85  799.26  1016.04  " style="fill: none; stroke: black; stroke-width: 0.200000; fill-type: evenodd"  fill-opacity="1.000000" />
   <path d="M 823.115  1348.8  823.858  1349.54  824.13  1350.56  823.858  1351.57  823.115  1352.32  822.099  1352.59  821.084  1352.32  820.341  1351.57  820.069  1350.56  820.341  1349.54  821.084  1348.8  822.099  1348.53  823.115  1348.8  " style="fill: none; stroke: purple; stroke-width: 0.500000; fill-type: evenodd"  fill-opacity="1.000000" />
   <path d="M 843.099  1348.83  843.831  1349.56  844.099  1350.56  843.831  1351.56  843.099  1352.29  842.099  1352.56  841.099  1352.29  840.367  1351.56  840.099  1350.56  840.367  1349.56  841.099  1348.83  842.099  1348.56  843.099  1348.83  " style="fill: none; stroke: purple; stroke-width: 0.500000; fill-type: evenodd"  fill-opacity="1.000000" />
   <path d="M 823.099  1328.83  823.831  1329.56  824.099  1330.56  823.831  1331.56  823.099  1332.29  822.099  1332.56  821.099  1332.29  820.367  1331.56  820.099  1330.56  820.367  1329.56  821.099  1328.83  822.099  1328.56  823.099  1328.83  " style="fill: none; stroke: purple; stroke-width: 0.500000; fill-type: evenodd"  fill-opacity="1.000000" />
   <path d="M 823.099  1308.83  823.831  1309.56  824.099  1310.56  823.831  1311.56  823.099  1312.29  822.099  1312.56  821.099  1312.29  820.367  1311.56  820.099  1310.56  820.367  1309.56  821.099  1308.83  822.099  1308.56  823.099  1308.83  " style="fill: none; stroke: purple; stroke-width: 0.500000; fill-type: evenodd"  fill-opacity="1.000000" />
   <path d="M 803.099  1308.83  803.831  1309.56  804.099  1310.56  803.831  1311.56  803.099  1312.29  802.099  1312.56  801.099  1312.29  800.367  1311.56  800.099  1310.56  800.367  1309.56  801.099  1308.83  802.099  1308.56  803.099  1308.83  " style="fill: none; stroke: purple; stroke-width: 0.500000; fill-type: evenodd"  fill-opacity="1.000000" />
   <path d="M 843.099  1288.83  843.831  1289.56  844.099  1290.56  843.831  1291.56  843.099  1292.29  842.099  1292.56  841.099  1292.29  840.367  1291.56  840.099  1290.56  840.367  1289.56  841.099  1288.83  842.099  1288.56  843.099  1288.83  " style="fill: none; stroke: purple; stroke-width: 0.500000; fill-type: evenodd"  fill-opacity="1.000000" />
   <path d="M 823.099  1288.83  823.831  1289.56  824.099  1290.56  823.831  1291.56  823.099  1292.29  822.099  1292.56  821.099  1292.29  820.367  1291.56  820.099  1290.56  820.367  1289.56  821.099  1288.83  822.099  1288.56  823.099  1288.83  " style="fill: none; stroke: purple; stroke-width: 0.500000; fill-type: evenodd"  fill-opacity="1.000000" />
   <path d="M 803.099  1288.83  803.831  1289.56  804.099  1290.56  803.831  1291.56  803.099  1292.29  802.099  1292.56  801.099  1292.29  800.367  1291.56  800.099  1290.56  800.367  1289.56  801.099  1288.83  802.099  1288.56  803.099  1288.83  " style="fill: none; stroke: purple; stroke-width: 0.500000; fill-type: evenodd"  fill-opacity="1.000000" />
   <path d="M 843.099  1268.83  843.831  1269.56  844.099  1270.56  843.831  1271.56  843.099  1272.29  842.099  1272.56  841.099  1272.29  840.367  1271.56  840.099  1270.56  840.367  1269.56  841.099  1268.83  842.099  1268.56  843.099  1268.83  " style="fill: none; stroke: purple; stroke-width: 0.500000; fill-type: evenodd"  fill-opacity="1.000000" />
   <path d="M 823.099  1268.83  823.831  1269.56  824.099  1270.56  823.831  1271.56  823.099  1272.29  822.099  1272.56  821.099  1272.29  820.367  1271.56  820.099  1270.56  820.367  1269.56  821.099  1268.83  822.099  1268.56  823.099  1268.83  " style="fill: none; stroke: purple; stroke-width: 0.500000; fill-type: evenodd"  fill-opacity="1.000000" />
   <path d="M 1003.54  1244.87  1005.31  1245.64  1006.73  1246.95  1007.65  1248.65  1007.97  1250.56  1007.65  1252.47  1006.73  1254.17  1005.31  1255.47  1003.54  1256.25  1001.61  1256.41  999.741  1255.94  998.122  1254.88  996.935  1253.35  996.308  1251.53  996.308  1249.59  996.935  1247.76  998.122  1246.24  999.741  1245.18  1001.61  1244.71  1003.54  1244.87  " style="fill: none; stroke: purple; stroke-width: 0.500000; fill-type: evenodd"  fill-opacity="1.000000" />
   <path d="M 843.099  1248.83  843.831  1249.56  844.099  1250.56  843.831  1251.56  843.099  1252.29  842.099  1252.56  841.099  1252.29  840.367  1251.56  840.099  1250.56  840.367  1249.56  841.099  1248.83  842.099  1248.56  843.099  1248.83  " style="fill: none; stroke: purple; stroke-width: 0.500000; fill-type: evenodd"  fill-opacity="1.000000" />
   <path d="M 823.099  1248.83  823.831  1249.56  824.099  1250.56  823.831  1251.56  823.099  1252.29  822.099  1252.56  821.099  1252.29  820.367  1251.56  820.099  1250.56  820.367  1249.56  821.099  1248.83  822.099  1248.56  823.099  1248.83  " style="fill: none; stroke: purple; stroke-width: 0.500000; fill-type: evenodd"  fill-opacity="1.000000" />
   <path d="M 803.099  1248.83  803.831  1249.56  804.099  1250.56  803.831  1251.56  803.099  1252.29  802.099  1252.56  801.099  1252.29  800.367  1251.56  800.099  1250.56  800.367  1249.56  801.099  1248.83  802.099  1248.56  803.099  1248.83  " style="fill: none; stroke: purple; stroke-width: 0.500000; fill-type: evenodd"  fill-opacity="1.000000" />
   <path d="M 1004.03  1224.61  1005.78  1225.49  1007.16  1226.88  1008.05  1228.62  1008.36  1230.56  1008.05  1232.49  1007.16  1234.24  1005.78  1235.62  1004.03  1236.51  1002.1  1236.82  1000.17  1236.51  998.42  1235.62  997.035  1234.24  996.146  1232.49  995.84  1230.56  996.146  1228.62  997.035  1226.88  998.42  1225.49  1000.17  1224.61  1002.1  1224.3  1004.03  1224.61  " style="fill: none; stroke: purple; stroke-width: 0.500000; fill-type: evenodd"  fill-opacity="1.000000" />
   <path d="M 984.03  1224.62  985.771  1225.51  987.153  1226.89  988.041  1228.63  988.346  1230.56  988.041  1232.49  987.153  1234.23  985.771  1235.61  984.03  1236.5  982.099  1236.81  980.169  1236.5  978.427  1235.61  977.046  1234.23  976.158  1232.49  975.852  1230.56  976.158  1228.63  977.046  1226.89  978.427  1225.51  980.169  1224.62  982.099  1224.31  984.03  1224.62  " style="fill: none; stroke: purple; stroke-width: 0.500000; fill-type: evenodd"  fill-opacity="1.000000" />
   <path d="M 964.028  1224.62  965.768  1225.51  967.148  1226.89  968.035  1228.63  968.34  1230.56  968.035  1232.49  967.148  1234.23  965.768  1235.61  964.028  1236.49  962.099  1236.8  960.171  1236.49  958.431  1235.61  957.05  1234.23  956.164  1232.49  955.858  1230.56  956.164  1228.63  957.05  1226.89  958.431  1225.51  960.171  1224.62  962.099  1224.32  964.028  1224.62  " style="fill: none; stroke: purple; stroke-width: 0.500000; fill-type: evenodd"  fill-opacity="1.000000" />
   <path d="M 823.099  1228.83  823.831  1229.56  824.099  1230.56  823.831  1231.56  823.099  1232.29  822.099  1232.56  821.099  1232.29  820.367  1231.56  820.099  1230.56  820.367  1229.56  821.099  1228.83  822.099  1228.56  823.099  1228.83  " style="fill: none; stroke: purple; stroke-width: 0.500000; fill-type: evenodd"  fill-opacity="1.000000" />
   <path d="M 843.099  1228.83  843.831  1229.56  844.099  1230.56  843.831  1231.56  843.099  1232.29  842.099  1232.56  841.099  1232.29  840.367  1231.56  840.099  1230.56  840.367  1229.56  841.099  1228.83  842.099  1228.56  843.099  1228.83  " style="fill: none; stroke: purple; stroke-width: 0.500000; fill-type: evenodd"  fill-opacity="1.000000" />
   <path d="M 1005.03  1204.13  1006.72  1205.22  1008.04  1206.74  1008.88  1208.57  1009.16  1210.56  1008.88  1212.55  1008.04  1214.38  1006.72  1215.9  1005.03  1216.98  1003.1  1217.55  1001.09  1217.55  999.165  1216.98  997.474  1215.9  996.158  1214.38  995.323  1212.55  995.037  1210.56  995.323  1208.57  996.158  1206.74  997.474  1205.22  999.165  1204.13  1001.09  1203.57  1003.1  1203.57  1005.03  1204.13  " style="fill: none; stroke: purple; stroke-width: 0.500000; fill-type: evenodd"  fill-opacity="1.000000" />
   <path d="M 924.096  1204.42  925.896  1205.33  927.325  1206.76  928.243  1208.56  928.559  1210.56  928.243  1212.56  927.325  1214.36  925.896  1215.79  924.096  1216.7  922.099  1217.02  920.103  1216.7  918.302  1215.79  916.873  1214.36  915.956  1212.56  915.64  1210.56  915.956  1208.56  916.873  1206.76  918.302  1205.33  920.103  1204.42  922.099  1204.1  924.096  1204.42  " style="fill: none; stroke: purple; stroke-width: 0.500000; fill-type: evenodd"  fill-opacity="1.000000" />
   <path d="M 984.018  1204.65  985.749  1205.54  987.122  1206.91  988.004  1208.64  988.308  1210.56  988.004  1212.48  987.122  1214.21  985.749  1215.58  984.018  1216.46  982.099  1216.77  980.181  1216.46  978.45  1215.58  977.077  1214.21  976.195  1212.48  975.891  1210.56  976.195  1208.64  977.077  1206.91  978.45  1205.54  980.181  1204.65  982.099  1204.35  984.018  1204.65  " style="fill: none; stroke: purple; stroke-width: 0.500000; fill-type: evenodd"  fill-opacity="1.000000" />
   <path d="M 963.953  1204.85  965.626  1205.71  966.953  1207.03  967.806  1208.71  968.099  1210.56  967.806  1212.41  966.953  1214.09  965.626  1215.41  963.953  1216.27  962.099  1216.56  960.245  1216.27  958.573  1215.41  957.245  1214.09  956.393  1212.41  956.099  1210.56  956.393  1208.71  957.245  1207.03  958.573  1205.71  960.245  1204.85  962.099  1204.56  963.953  1204.85  " style="fill: none; stroke: purple; stroke-width: 0.500000; fill-type: evenodd"  fill-opacity="1.000000" />
   <path d="M 943.518  1204.96  945.26  1205.72  946.659  1207.01  947.564  1208.68  947.877  1210.56  947.564  1212.44  946.659  1214.11  945.26  1215.4  943.518  1216.16  941.622  1216.32  939.778  1215.85  938.186  1214.81  937.018  1213.31  936.4  1211.51  936.4  1209.61  937.018  1207.81  938.186  1206.31  939.778  1205.27  941.622  1204.8  943.518  1204.96  " style="fill: none; stroke: purple; stroke-width: 0.500000; fill-type: evenodd"  fill-opacity="1.000000" />
   <path d="M 964.07  1184.49  965.848  1185.4  967.259  1186.81  968.165  1188.59  968.477  1190.56  968.165  1192.53  967.259  1194.31  965.848  1195.72  964.07  1196.62  962.099  1196.94  960.129  1196.62  958.351  1195.72  956.94  1194.31  956.034  1192.53  955.722  1190.56  956.034  1188.59  956.94  1186.81  958.351  1185.4  960.129  1184.49  962.099  1184.18  964.07  1184.49  " style="fill: none; stroke: purple; stroke-width: 0.500000; fill-type: evenodd"  fill-opacity="1.000000" />
   <path d="M 903.953  1184.85  905.626  1185.71  906.953  1187.03  907.806  1188.71  908.099  1190.56  907.806  1192.41  906.953  1194.09  905.626  1195.41  903.953  1196.27  902.099  1196.56  900.245  1196.27  898.573  1195.41  897.245  1194.09  897.057  1193.72  902.072  1186.1  903.239  1184.74  903.953  1184.85  " style="fill: none; stroke: purple; stroke-width: 0.500000; fill-type: evenodd"  fill-opacity="1.000000" />
   <path d="M 943.537  1184.88  945.303  1185.66  946.722  1186.96  947.64  1188.66  947.958  1190.56  947.64  1192.46  946.722  1194.16  945.303  1195.46  943.537  1196.24  941.616  1196.4  939.746  1195.92  938.132  1194.87  936.947  1193.35  936.321  1191.52  936.321  1189.59  936.947  1187.77  938.132  1186.25  939.746  1185.19  941.616  1184.72  943.537  1184.88  " style="fill: none; stroke: purple; stroke-width: 0.500000; fill-type: evenodd"  fill-opacity="1.000000" />
   <path d="M 923.53  1184.91  925.288  1185.68  926.699  1186.98  927.613  1188.67  927.928  1190.56  927.613  1192.45  926.699  1194.14  925.288  1195.44  923.53  1196.21  921.618  1196.37  919.758  1195.9  918.151  1194.85  916.973  1193.33  916.35  1191.52  916.35  1189.6  916.973  1187.78  918.151  1186.27  919.758  1185.22  921.618  1184.75  923.53  1184.91  " style="fill: none; stroke: purple; stroke-width: 0.500000; fill-type: evenodd"  fill-opacity="1.000000" />
   <path d="M 943.633  1163.18  945.568  1163.87  947.245  1165.05  948.54  1166.64  949.358  1168.53  949.638  1170.56  949.358  1172.59  948.54  1174.48  947.245  1176.07  945.568  1177.25  943.633  1177.94  941.585  1178.08  939.575  1177.66  937.752  1176.72  936.252  1175.32  935.185  1173.56  934.631  1171.59  934.631  1169.53  935.185  1167.56  936.252  1165.8  937.752  1164.4  939.575  1163.46  941.585  1163.04  943.633  1163.18  " style="fill: none; stroke: purple; stroke-width: 0.500000; fill-type: evenodd"  fill-opacity="1.000000" />
   <path d="M 924.068  1164.5  925.844  1165.41  927.253  1166.81  928.158  1168.59  928.47  1170.56  928.158  1172.53  927.253  1174.3  925.844  1175.71  924.068  1176.62  922.099  1176.93  920.131  1176.62  918.355  1175.71  916.946  1174.3  916.041  1172.53  915.729  1170.56  916.041  1168.59  916.946  1166.81  918.355  1165.41  920.131  1164.5  922.099  1164.19  924.068  1164.5  " style="fill: none; stroke: purple; stroke-width: 0.500000; fill-type: evenodd"  fill-opacity="1.000000" />
</svg>
