<?xml version="1.0" encoding="UTF-8" standalone="yes"?>
<!DOCTYPE svg PUBLIC "-//W3C//DTD SVG 1.0//EN" "http://www.w3.org/TR/2001/REC-SVG-20010904/DTD/svg10.dtd">
<svg height="2000" width="2000" xmlns="http://www.w3.org/2000/svg" xmlns:svg="http://www.w3.org/2000/svg" xmlns:xlink="http://www.w3.org/1999/xlink">
   <marker id="endArrow" markerHeight="8" markerUnits="strokeWidth" markerWidth="10" orient="auto" refX="1" refY="5" viewBox="0 0 1000 1000">
      <polyline fill="darkblue" points="0,0 10,5 0,10 1,5" />
   </marker>
   <circle cx="1000" cy="1000" r="1" style="stroke:black; fill: red" />
   <circle cx="1000" cy="1000" r="800" style="stroke:black; fill: none" />
   <line x1="1070.804077" y1="1076.238647" x2="1070.804077" y2="1080.772461" style="stroke: green; stroke-width: 0.200000"/>
   <line x1="1071.804077" y1="1075.238647" x2="1071.804077" y2="1080.493896" style="stroke: green; stroke-width: 0.200000"/>
   <line x1="1069.803955" y1="1077.238647" x2="1069.803955" y2="1080.105347" style="stroke: green; stroke-width: 0.200000"/>
   <line x1="1072.804077" y1="1074.238647" x2="1072.804077" y2="1079.881714" style="stroke: green; stroke-width: 0.200000"/>
   <line x1="1068.803955" y1="1078.238647" x2="1068.803955" y2="1079.109741" style="stroke: green; stroke-width: 0.200000"/>
   <line x1="1073.803955" y1="1073.238647" x2="1073.803955" y2="1078.960205" style="stroke: green; stroke-width: 0.200000"/>
   <line x1="1074.803955" y1="1072.679077" x2="1074.803955" y2="1077.925903" style="stroke: green; stroke-width: 0.200000"/>
   <line x1="1075.804077" y1="1072.856934" x2="1075.804077" y2="1076.939697" style="stroke: green; stroke-width: 0.200000"/>
   <line x1="1076.804077" y1="1073.034424" x2="1076.804077" y2="1075.981323" style="stroke: green; stroke-width: 0.200000"/>
   <line x1="1077.804077" y1="1072.034424" x2="1077.804077" y2="1075.003296" style="stroke: green; stroke-width: 0.200000"/>
   <line x1="1078.803955" y1="1071.034424" x2="1078.803955" y2="1074.008667" style="stroke: green; stroke-width: 0.200000"/>
   <line x1="1079.803955" y1="1070.034424" x2="1079.803955" y2="1073.013916" style="stroke: green; stroke-width: 0.200000"/>
   <line x1="1080.804077" y1="1069.034546" x2="1080.804077" y2="1072.019165" style="stroke: green; stroke-width: 0.200000"/>
   <line x1="1081.804077" y1="1068.034546" x2="1081.804077" y2="1071.092896" style="stroke: green; stroke-width: 0.200000"/>
   <line x1="1082.804077" y1="1067.034668" x2="1082.804077" y2="1070.178101" style="stroke: green; stroke-width: 0.200000"/>
   <line x1="1083.803955" y1="1066.034546" x2="1083.803955" y2="1069.251465" style="stroke: green; stroke-width: 0.200000"/>
   <line x1="1084.803955" y1="1065.034546" x2="1084.803955" y2="1068.324951" style="stroke: green; stroke-width: 0.200000"/>
   <line x1="1085.804077" y1="1064.034546" x2="1085.804077" y2="1067.398438" style="stroke: green; stroke-width: 0.200000"/>
   <line x1="1086.804077" y1="1063.034546" x2="1086.804077" y2="1066.471802" style="stroke: green; stroke-width: 0.200000"/>
   <line x1="1087.804077" y1="1062.034668" x2="1087.804077" y2="1065.519775" style="stroke: green; stroke-width: 0.200000"/>
   <line x1="1088.803955" y1="1061.034546" x2="1088.803955" y2="1064.550537" style="stroke: green; stroke-width: 0.200000"/>
   <line x1="1089.803955" y1="1060.034546" x2="1089.803955" y2="1063.595581" style="stroke: green; stroke-width: 0.200000"/>
   <line x1="1090.804077" y1="1059.034546" x2="1090.804077" y2="1062.640625" style="stroke: green; stroke-width: 0.200000"/>
   <line x1="1091.804077" y1="1058.034546" x2="1091.804077" y2="1061.685547" style="stroke: green; stroke-width: 0.200000"/>
   <line x1="1092.804077" y1="1057.034668" x2="1092.804077" y2="1060.730591" style="stroke: green; stroke-width: 0.200000"/>
   <line x1="1093.803955" y1="1056.034546" x2="1093.803955" y2="1059.775635" style="stroke: green; stroke-width: 0.200000"/>
   <line x1="1094.803955" y1="1055.034546" x2="1094.803955" y2="1058.873047" style="stroke: green; stroke-width: 0.200000"/>
   <line x1="1095.804077" y1="1054.034546" x2="1095.804077" y2="1057.900635" style="stroke: green; stroke-width: 0.200000"/>
   <line x1="1096.804077" y1="1053.034546" x2="1096.804077" y2="1056.928223" style="stroke: green; stroke-width: 0.200000"/>
   <line x1="1097.804077" y1="1052.034668" x2="1097.804077" y2="1055.955933" style="stroke: green; stroke-width: 0.200000"/>
   <line x1="1098.803955" y1="1051.034668" x2="1098.803955" y2="1054.983398" style="stroke: green; stroke-width: 0.200000"/>
   <line x1="1099.803955" y1="1050.034668" x2="1099.803955" y2="1053.999268" style="stroke: green; stroke-width: 0.200000"/>
   <line x1="1100.804077" y1="1049.034546" x2="1100.804077" y2="1053.010254" style="stroke: green; stroke-width: 0.200000"/>
   <line x1="1101.804077" y1="1048.034546" x2="1101.804077" y2="1052.122192" style="stroke: green; stroke-width: 0.200000"/>
   <line x1="1102.804077" y1="1047.034668" x2="1102.804077" y2="1051.154541" style="stroke: green; stroke-width: 0.200000"/>
   <line x1="1103.803955" y1="1046.034668" x2="1103.803955" y2="1050.267944" style="stroke: green; stroke-width: 0.200000"/>
   <line x1="1104.803955" y1="1045.034668" x2="1104.803955" y2="1049.390015" style="stroke: green; stroke-width: 0.200000"/>
   <line x1="1105.804077" y1="1044.034546" x2="1105.804077" y2="1048.452026" style="stroke: green; stroke-width: 0.200000"/>
   <line x1="1106.804077" y1="1043.034546" x2="1106.804077" y2="1047.525757" style="stroke: green; stroke-width: 0.200000"/>
   <line x1="1107.804077" y1="1042.034668" x2="1107.804077" y2="1046.625977" style="stroke: green; stroke-width: 0.200000"/>
   <line x1="1108.803955" y1="1041.034668" x2="1108.803955" y2="1045.765015" style="stroke: green; stroke-width: 0.200000"/>
   <line x1="1109.803955" y1="1040.034668" x2="1109.803955" y2="1045.022217" style="stroke: green; stroke-width: 0.200000"/>
   <line x1="1110.804077" y1="1039.034546" x2="1110.804077" y2="1044.192383" style="stroke: green; stroke-width: 0.200000"/>
   <line x1="1111.804077" y1="1038.034546" x2="1111.804077" y2="1043.393066" style="stroke: green; stroke-width: 0.200000"/>
   <line x1="1112.804077" y1="1037.034668" x2="1112.804077" y2="1042.569702" style="stroke: green; stroke-width: 0.200000"/>
   <line x1="1113.803955" y1="1036.034058" x2="1113.803955" y2="1041.746582" style="stroke: green; stroke-width: 0.200000"/>
   <line x1="1114.803955" y1="1032.238770" x2="1114.803955" y2="1040.874268" style="stroke: green; stroke-width: 0.200000"/>
   <line x1="1115.804077" y1="1031.241333" x2="1115.804077" y2="1039.979370" style="stroke: green; stroke-width: 0.200000"/>
   <line x1="1116.804077" y1="1032.897461" x2="1116.804077" y2="1038.746460" style="stroke: green; stroke-width: 0.200000"/>
   <line x1="1113.803955" y1="1033.238770" x2="1113.803955" y2="1034.231934" style="stroke: green; stroke-width: 0.200000"/>
   <path d="M 1111.81  1033.12  1116.16  1028.76  1117.42  1031.02  1117.53  1031.22  1117.74  1031.47  1118.15  1032.25  1118.23  1032.38  1118.84  1033.76  1119  1034.33  1119.11  1034.9  1119.17  1035.48  1119.18  1036.06  1119.13  1036.64  1119.03  1037.23  1118.89  1037.75  1118.68  1038.38  1118.16  1039.43  1117.48  1040.4  1116.73  1041.18  1114.84  1042.84  1112.58  1044.7  1111.6  1045.47  1110.74  1046.2  1110.01  1046.71  1108.93  1047.63  1107.51  1048.91  1105.14  1051.13  1104.37  1051.72  1102.74  1053.31  1102.1  1053.83  1100.15  1055.77  1095.78  1060.02  1095.32  1060.4  1089.6  1065.87  1088.3  1067.13  1083.28  1071.78  1082.11  1072.84  1078.31  1076.61  1076.23  1078.61  1074.46  1080.44  1074.16  1080.72  1073.49  1081.25  1073.15  1081.48  1072.79  1081.69  1072.42  1081.87  1072.05  1082.03  1071.67  1082.15  1071.3  1082.23  1070.93  1082.27  1070.57  1082.27  1070.21  1082.22  1069.89  1082.11  1069.42  1081.84  1066.24  1078.68  1071.93  1073  " style="fill: none; stroke: darkmagenta; stroke-width: 0.200000; fill-type: evenodd"  fill-opacity="1.000000" />
   <path d="M 1071.93  1073  1073.92  1071  1074.78  1071.15  " style="fill: none; stroke: red; stroke-width: 0.200000; fill-type: evenodd"  fill-opacity="1.000000" />
   <path d="M 1074.78  1071.15  1076.3  1071.42  1112.58  1035.13  1111.96  1033.97  " style="fill: none; stroke: darkmagenta; stroke-width: 0.200000; fill-type: evenodd"  fill-opacity="1.000000" />
   <path d="M 1111.96  1033.97  1111.61  1033.31  1111.81  1033.12  " style="fill: none; stroke: red; stroke-width: 0.200000; fill-type: evenodd"  fill-opacity="1.000000" />
   <path d="M 1116.55  1031.52  1116.71  1031.8  1116.91  1032.03  1117.28  1032.75  1117.35  1032.86  1117.9  1034.1  1118.03  1034.56  1118.12  1035.04  1118.17  1035.53  1118.18  1036.03  1118.13  1036.51  1118.05  1037.02  1117.93  1037.46  1117.75  1037.99  1117.29  1038.92  1116.7  1039.76  1116.04  1040.46  1114.19  1042.07  1111.95  1043.92  1110.97  1044.7  1110.13  1045.41  1109.4  1045.92  1108.27  1046.88  1106.83  1048.17  1104.49  1050.37  1103.72  1050.97  1102.07  1052.56  1101.43  1053.09  1099.45  1055.05  1095.11  1059.28  1094.65  1059.66  1088.9  1065.15  1087.61  1066.4  1082.6  1071.05  1081.42  1072.11  1077.61  1075.9  1075.52  1077.9  1073.76  1079.72  1073.51  1079.96  1072.9  1080.44  1072.62  1080.63  1072.31  1080.81  1072.01  1080.96  1071.71  1081.09  1071.41  1081.18  1071.13  1081.24  1070.88  1081.27  1070.65  1081.27  1070.44  1081.24  1070.3  1081.19  1070.04  1081.04  1067.66  1078.68  1074.26  1072.07  1076.63  1072.5  1113.81  1035.32  1112.84  1033.49  1115.93  1030.41  1116.55  1031.52  " style="fill: none; stroke: black; stroke-width: 0.200000; fill-type: evenodd"  fill-opacity="1.000000" />
</svg>
