<?xml version="1.0" encoding="UTF-8" standalone="yes"?>
<!DOCTYPE svg PUBLIC "-//W3C//DTD SVG 1.0//EN" "http://www.w3.org/TR/2001/REC-SVG-20010904/DTD/svg10.dtd">
<svg height="2000" width="2000" xmlns="http://www.w3.org/2000/svg" xmlns:svg="http://www.w3.org/2000/svg" xmlns:xlink="http://www.w3.org/1999/xlink">
   <marker id="endArrow" markerHeight="8" markerUnits="strokeWidth" markerWidth="10" orient="auto" refX="1" refY="5" viewBox="0 0 1000 1000">
      <polyline fill="darkblue" points="0,0 10,5 0,10 1,5" />
   </marker>
   <circle cx="1000" cy="1000" r="1" style="stroke:black; fill: red" />
   <circle cx="1000" cy="1000" r="800" style="stroke:black; fill: none" />
   <line x1="1077.527344" y1="1063.726807" x2="1076.056030" y2="1063.726807" style="stroke: green; stroke-width: 0.200000"/>
   <line x1="1077.527344" y1="1062.726807" x2="1077.055908" y2="1062.726807" style="stroke: green; stroke-width: 0.200000"/>
   <line x1="1085.694336" y1="1063.726807" x2="1077.627319" y2="1063.726807" style="stroke: green; stroke-width: 0.200000"/>
   <line x1="1087.076904" y1="1062.726807" x2="1077.627319" y2="1062.726807" style="stroke: green; stroke-width: 0.200000"/>
   <line x1="1088.499634" y1="1061.726807" x2="1078.055908" y2="1061.726807" style="stroke: green; stroke-width: 0.200000"/>
   <line x1="1089.963379" y1="1060.726807" x2="1079.055908" y2="1060.726807" style="stroke: green; stroke-width: 0.200000"/>
   <line x1="1091.574097" y1="1059.726807" x2="1080.056030" y2="1059.726807" style="stroke: green; stroke-width: 0.200000"/>
   <line x1="1093.242310" y1="1058.726807" x2="1081.056030" y2="1058.726807" style="stroke: green; stroke-width: 0.200000"/>
   <line x1="1095.015625" y1="1057.726807" x2="1082.055908" y2="1057.726807" style="stroke: green; stroke-width: 0.200000"/>
   <line x1="1096.854492" y1="1056.726807" x2="1083.055908" y2="1056.726807" style="stroke: green; stroke-width: 0.200000"/>
   <line x1="1098.795532" y1="1055.726807" x2="1084.056030" y2="1055.726807" style="stroke: green; stroke-width: 0.200000"/>
   <line x1="1100.834961" y1="1054.726807" x2="1085.056030" y2="1054.726807" style="stroke: green; stroke-width: 0.200000"/>
   <line x1="1102.897217" y1="1053.726807" x2="1086.056030" y2="1053.726807" style="stroke: green; stroke-width: 0.200000"/>
   <line x1="1105.136108" y1="1052.726807" x2="1087.055908" y2="1052.726807" style="stroke: green; stroke-width: 0.200000"/>
   <line x1="1107.245605" y1="1051.726807" x2="1088.055908" y2="1051.726807" style="stroke: green; stroke-width: 0.200000"/>
   <line x1="1109.246948" y1="1050.726807" x2="1089.055908" y2="1050.726807" style="stroke: green; stroke-width: 0.200000"/>
   <line x1="1111.079590" y1="1049.726807" x2="1090.055908" y2="1049.726807" style="stroke: green; stroke-width: 0.200000"/>
   <line x1="1112.643066" y1="1048.726807" x2="1091.056030" y2="1048.726807" style="stroke: green; stroke-width: 0.200000"/>
   <line x1="1114.031250" y1="1047.726807" x2="1092.055908" y2="1047.726807" style="stroke: green; stroke-width: 0.200000"/>
   <line x1="1115.314209" y1="1046.726807" x2="1093.055908" y2="1046.726807" style="stroke: green; stroke-width: 0.200000"/>
   <line x1="1116.359741" y1="1045.726807" x2="1094.056030" y2="1045.726807" style="stroke: green; stroke-width: 0.200000"/>
   <line x1="1117.565918" y1="1044.726807" x2="1095.056030" y2="1044.726807" style="stroke: green; stroke-width: 0.200000"/>
   <line x1="1118.540161" y1="1043.726807" x2="1096.056030" y2="1043.726807" style="stroke: green; stroke-width: 0.200000"/>
   <line x1="1119.480713" y1="1042.726807" x2="1097.055908" y2="1042.726807" style="stroke: green; stroke-width: 0.200000"/>
   <line x1="1120.421387" y1="1041.726807" x2="1098.055908" y2="1041.726807" style="stroke: green; stroke-width: 0.200000"/>
   <line x1="1121.361938" y1="1040.726807" x2="1099.056030" y2="1040.726807" style="stroke: green; stroke-width: 0.200000"/>
   <line x1="1122.242188" y1="1039.726807" x2="1100.056030" y2="1039.726807" style="stroke: green; stroke-width: 0.200000"/>
   <line x1="1122.996826" y1="1038.726807" x2="1101.056030" y2="1038.726807" style="stroke: green; stroke-width: 0.200000"/>
   <line x1="1123.751465" y1="1037.726807" x2="1102.055908" y2="1037.726807" style="stroke: green; stroke-width: 0.200000"/>
   <line x1="1124.338623" y1="1036.726807" x2="1103.055908" y2="1036.726807" style="stroke: green; stroke-width: 0.200000"/>
   <line x1="1124.859253" y1="1035.726807" x2="1104.056030" y2="1035.726807" style="stroke: green; stroke-width: 0.200000"/>
   <line x1="1125.378052" y1="1034.726807" x2="1105.056030" y2="1034.726807" style="stroke: green; stroke-width: 0.200000"/>
   <line x1="1125.707397" y1="1033.726807" x2="1106.056030" y2="1033.726807" style="stroke: green; stroke-width: 0.200000"/>
   <line x1="1126.036255" y1="1032.726807" x2="1107.055908" y2="1032.726807" style="stroke: green; stroke-width: 0.200000"/>
   <line x1="1126.336304" y1="1031.726807" x2="1108.055908" y2="1031.726807" style="stroke: green; stroke-width: 0.200000"/>
   <line x1="1126.494873" y1="1030.726807" x2="1109.056030" y2="1030.726807" style="stroke: green; stroke-width: 0.200000"/>
   <line x1="1126.653564" y1="1029.726807" x2="1110.056030" y2="1029.726807" style="stroke: green; stroke-width: 0.200000"/>
   <line x1="1126.812256" y1="1028.726807" x2="1111.056030" y2="1028.726807" style="stroke: green; stroke-width: 0.200000"/>
   <line x1="1126.823608" y1="1027.726807" x2="1112.055908" y2="1027.726807" style="stroke: green; stroke-width: 0.200000"/>
   <line x1="1126.822998" y1="1026.726807" x2="1113.055908" y2="1026.726807" style="stroke: green; stroke-width: 0.200000"/>
   <line x1="1126.822266" y1="1025.726807" x2="1114.056030" y2="1025.726807" style="stroke: green; stroke-width: 0.200000"/>
   <line x1="1126.704590" y1="1024.726807" x2="1115.056030" y2="1024.726807" style="stroke: green; stroke-width: 0.200000"/>
   <line x1="1126.545288" y1="1023.726807" x2="1116.056030" y2="1023.726807" style="stroke: green; stroke-width: 0.200000"/>
   <line x1="1126.386108" y1="1022.726807" x2="1117.055908" y2="1022.726807" style="stroke: green; stroke-width: 0.200000"/>
   <line x1="1126.134277" y1="1021.726807" x2="1118.055908" y2="1021.726807" style="stroke: green; stroke-width: 0.200000"/>
   <line x1="1125.808838" y1="1020.726868" x2="1119.056030" y2="1020.726868" style="stroke: green; stroke-width: 0.200000"/>
   <line x1="1125.483276" y1="1019.726868" x2="1120.056030" y2="1019.726868" style="stroke: green; stroke-width: 0.200000"/>
   <line x1="1125.073364" y1="1018.726807" x2="1121.056030" y2="1018.726807" style="stroke: green; stroke-width: 0.200000"/>
   <line x1="1124.564941" y1="1017.726807" x2="1121.982178" y2="1017.726807" style="stroke: green; stroke-width: 0.200000"/>
   <line x1="1124.056519" y1="1016.726807" x2="1121.315186" y2="1016.726807" style="stroke: green; stroke-width: 0.200000"/>
   <line x1="1123.484863" y1="1015.726868" x2="1121.260132" y2="1015.726868" style="stroke: green; stroke-width: 0.200000"/>
   <line x1="1122.858154" y1="1014.726868" x2="1122.260254" y2="1014.726868" style="stroke: green; stroke-width: 0.200000"/>
   <line x1="1042.849243" y1="1112.726807" x2="1036.643799" y2="1112.726807" style="stroke: green; stroke-width: 0.200000"/>
   <line x1="1045.979980" y1="1111.726807" x2="1033.208374" y2="1111.726807" style="stroke: green; stroke-width: 0.200000"/>
   <line x1="1047.825928" y1="1110.726807" x2="1030.702881" y2="1110.726807" style="stroke: green; stroke-width: 0.200000"/>
   <line x1="1049.181030" y1="1109.726807" x2="1028.197510" y2="1109.726807" style="stroke: green; stroke-width: 0.200000"/>
   <line x1="1050.177246" y1="1108.726807" x2="1028.259766" y2="1108.726807" style="stroke: green; stroke-width: 0.200000"/>
   <line x1="1029.470703" y1="1107.726807" x2="1029.260132" y2="1107.726807" style="stroke: green; stroke-width: 0.200000"/>
   <line x1="1051.101196" y1="1107.726807" x2="1032.055542" y2="1107.726807" style="stroke: green; stroke-width: 0.200000"/>
   <line x1="1051.891846" y1="1106.726807" x2="1033.055542" y2="1106.726807" style="stroke: green; stroke-width: 0.200000"/>
   <line x1="1052.690552" y1="1105.726807" x2="1034.055420" y2="1105.726807" style="stroke: green; stroke-width: 0.200000"/>
   <line x1="1053.489258" y1="1104.726807" x2="1035.055420" y2="1104.726807" style="stroke: green; stroke-width: 0.200000"/>
   <line x1="1054.279419" y1="1103.726807" x2="1036.055664" y2="1103.726807" style="stroke: green; stroke-width: 0.200000"/>
   <line x1="1054.968384" y1="1102.726807" x2="1037.055908" y2="1102.726807" style="stroke: green; stroke-width: 0.200000"/>
   <line x1="1055.657471" y1="1101.726807" x2="1038.055908" y2="1101.726807" style="stroke: green; stroke-width: 0.200000"/>
   <line x1="1056.281982" y1="1100.726807" x2="1039.055908" y2="1100.726807" style="stroke: green; stroke-width: 0.200000"/>
   <line x1="1056.891113" y1="1099.726807" x2="1040.055908" y2="1099.726807" style="stroke: green; stroke-width: 0.200000"/>
   <line x1="1057.467163" y1="1098.726807" x2="1041.055908" y2="1098.726807" style="stroke: green; stroke-width: 0.200000"/>
   <line x1="1058.001831" y1="1097.726807" x2="1042.055908" y2="1097.726807" style="stroke: green; stroke-width: 0.200000"/>
   <line x1="1058.536499" y1="1096.726807" x2="1043.055908" y2="1096.726807" style="stroke: green; stroke-width: 0.200000"/>
   <line x1="1059.071167" y1="1095.726807" x2="1044.055908" y2="1095.726807" style="stroke: green; stroke-width: 0.200000"/>
   <line x1="1059.605835" y1="1094.726807" x2="1045.055908" y2="1094.726807" style="stroke: green; stroke-width: 0.200000"/>
   <line x1="1060.136719" y1="1093.726807" x2="1046.055908" y2="1093.726807" style="stroke: green; stroke-width: 0.200000"/>
   <line x1="1060.681641" y1="1092.726807" x2="1047.055908" y2="1092.726807" style="stroke: green; stroke-width: 0.200000"/>
   <line x1="1061.280762" y1="1091.726807" x2="1048.055908" y2="1091.726807" style="stroke: green; stroke-width: 0.200000"/>
   <line x1="1061.879761" y1="1090.726807" x2="1049.055908" y2="1090.726807" style="stroke: green; stroke-width: 0.200000"/>
   <line x1="1062.478882" y1="1089.726807" x2="1050.055908" y2="1089.726807" style="stroke: green; stroke-width: 0.200000"/>
   <line x1="1063.090942" y1="1088.726807" x2="1051.055908" y2="1088.726807" style="stroke: green; stroke-width: 0.200000"/>
   <line x1="1063.770996" y1="1087.726807" x2="1052.055908" y2="1087.726807" style="stroke: green; stroke-width: 0.200000"/>
   <line x1="1064.450928" y1="1086.726807" x2="1053.055908" y2="1086.726807" style="stroke: green; stroke-width: 0.200000"/>
   <line x1="1065.130859" y1="1085.726807" x2="1054.055908" y2="1085.726807" style="stroke: green; stroke-width: 0.200000"/>
   <line x1="1065.824829" y1="1084.726807" x2="1055.055908" y2="1084.726807" style="stroke: green; stroke-width: 0.200000"/>
   <line x1="1066.619263" y1="1083.726807" x2="1056.056030" y2="1083.726807" style="stroke: green; stroke-width: 0.200000"/>
   <line x1="1067.413574" y1="1082.726807" x2="1057.055908" y2="1082.726807" style="stroke: green; stroke-width: 0.200000"/>
   <line x1="1068.208008" y1="1081.726807" x2="1058.055908" y2="1081.726807" style="stroke: green; stroke-width: 0.200000"/>
   <line x1="1069.002441" y1="1080.726807" x2="1059.055908" y2="1080.726807" style="stroke: green; stroke-width: 0.200000"/>
   <line x1="1069.796875" y1="1079.726807" x2="1060.055908" y2="1079.726807" style="stroke: green; stroke-width: 0.200000"/>
   <line x1="1070.591187" y1="1078.726807" x2="1061.056030" y2="1078.726807" style="stroke: green; stroke-width: 0.200000"/>
   <line x1="1071.385620" y1="1077.726807" x2="1062.055908" y2="1077.726807" style="stroke: green; stroke-width: 0.200000"/>
   <line x1="1072.256592" y1="1076.726807" x2="1063.055908" y2="1076.726807" style="stroke: green; stroke-width: 0.200000"/>
   <line x1="1073.186157" y1="1075.726807" x2="1064.055908" y2="1075.726807" style="stroke: green; stroke-width: 0.200000"/>
   <line x1="1074.115479" y1="1074.726807" x2="1065.055908" y2="1074.726807" style="stroke: green; stroke-width: 0.200000"/>
   <line x1="1075.045044" y1="1073.726807" x2="1066.056030" y2="1073.726807" style="stroke: green; stroke-width: 0.200000"/>
   <line x1="1075.974365" y1="1072.726807" x2="1067.055908" y2="1072.726807" style="stroke: green; stroke-width: 0.200000"/>
   <line x1="1076.903931" y1="1071.726807" x2="1068.055908" y2="1071.726807" style="stroke: green; stroke-width: 0.200000"/>
   <line x1="1077.527344" y1="1070.726807" x2="1069.055908" y2="1070.726807" style="stroke: green; stroke-width: 0.200000"/>
   <line x1="1077.527344" y1="1069.726807" x2="1070.055908" y2="1069.726807" style="stroke: green; stroke-width: 0.200000"/>
   <line x1="1077.527344" y1="1068.726807" x2="1071.056030" y2="1068.726807" style="stroke: green; stroke-width: 0.200000"/>
   <line x1="1077.527344" y1="1067.726807" x2="1072.055908" y2="1067.726807" style="stroke: green; stroke-width: 0.200000"/>
   <line x1="1077.527344" y1="1066.726807" x2="1073.055908" y2="1066.726807" style="stroke: green; stroke-width: 0.200000"/>
   <line x1="1077.527344" y1="1065.726807" x2="1074.055908" y2="1065.726807" style="stroke: green; stroke-width: 0.200000"/>
   <line x1="1077.527344" y1="1064.726807" x2="1075.056030" y2="1064.726807" style="stroke: green; stroke-width: 0.200000"/>
   <line x1="1077.833374" y1="1070.726807" x2="1077.627319" y2="1070.726807" style="stroke: green; stroke-width: 0.200000"/>
   <line x1="1078.832397" y1="1069.726807" x2="1077.627319" y2="1069.726807" style="stroke: green; stroke-width: 0.200000"/>
   <line x1="1079.896118" y1="1068.726807" x2="1077.627319" y2="1068.726807" style="stroke: green; stroke-width: 0.200000"/>
   <line x1="1080.959839" y1="1067.726807" x2="1077.627319" y2="1067.726807" style="stroke: green; stroke-width: 0.200000"/>
   <line x1="1082.051514" y1="1066.726807" x2="1077.627319" y2="1066.726807" style="stroke: green; stroke-width: 0.200000"/>
   <line x1="1083.261230" y1="1065.726807" x2="1077.627319" y2="1065.726807" style="stroke: green; stroke-width: 0.200000"/>
   <line x1="1084.470947" y1="1064.726807" x2="1077.627319" y2="1064.726807" style="stroke: green; stroke-width: 0.200000"/>
   <line x1="887.174683" y1="1035.648926" x2="885.624451" y2="1035.648926" style="stroke: green; stroke-width: 0.200000"/>
   <line x1="888.174744" y1="1034.648926" x2="884.732117" y2="1034.648926" style="stroke: green; stroke-width: 0.200000"/>
   <line x1="889.174744" y1="1033.648926" x2="884.080078" y2="1033.648926" style="stroke: green; stroke-width: 0.200000"/>
   <line x1="890.174683" y1="1032.648926" x2="883.629639" y2="1032.648926" style="stroke: green; stroke-width: 0.200000"/>
   <line x1="891.174683" y1="1031.648926" x2="883.361206" y2="1031.648926" style="stroke: green; stroke-width: 0.200000"/>
   <line x1="892.174683" y1="1030.648926" x2="883.233948" y2="1030.648926" style="stroke: green; stroke-width: 0.200000"/>
   <line x1="893.174683" y1="1029.648926" x2="883.269897" y2="1029.648926" style="stroke: green; stroke-width: 0.200000"/>
   <line x1="894.174683" y1="1028.648926" x2="883.435608" y2="1028.648926" style="stroke: green; stroke-width: 0.200000"/>
   <line x1="895.174683" y1="1027.648926" x2="883.727539" y2="1027.648926" style="stroke: green; stroke-width: 0.200000"/>
   <line x1="896.174683" y1="1026.648926" x2="884.127869" y2="1026.648926" style="stroke: green; stroke-width: 0.200000"/>
   <line x1="897.174683" y1="1025.648926" x2="884.645142" y2="1025.648926" style="stroke: green; stroke-width: 0.200000"/>
   <line x1="898.174683" y1="1024.648926" x2="885.179321" y2="1024.648926" style="stroke: green; stroke-width: 0.200000"/>
   <line x1="899.174683" y1="1023.648926" x2="885.700684" y2="1023.648926" style="stroke: green; stroke-width: 0.200000"/>
   <line x1="900.174683" y1="1022.648926" x2="886.222046" y2="1022.648926" style="stroke: green; stroke-width: 0.200000"/>
   <line x1="901.174683" y1="1021.648926" x2="886.743530" y2="1021.648926" style="stroke: green; stroke-width: 0.200000"/>
   <line x1="902.174683" y1="1020.648926" x2="887.302917" y2="1020.648926" style="stroke: green; stroke-width: 0.200000"/>
   <line x1="903.174683" y1="1019.648987" x2="887.940552" y2="1019.648987" style="stroke: green; stroke-width: 0.200000"/>
   <line x1="904.174744" y1="1018.648926" x2="888.567871" y2="1018.648926" style="stroke: green; stroke-width: 0.200000"/>
   <line x1="905.174683" y1="1017.648926" x2="889.186951" y2="1017.648926" style="stroke: green; stroke-width: 0.200000"/>
   <line x1="906.174683" y1="1016.648926" x2="889.805908" y2="1016.648926" style="stroke: green; stroke-width: 0.200000"/>
   <line x1="907.174683" y1="1015.648926" x2="890.554321" y2="1015.648926" style="stroke: green; stroke-width: 0.200000"/>
   <line x1="908.174683" y1="1014.648987" x2="891.301758" y2="1014.648987" style="stroke: green; stroke-width: 0.200000"/>
   <line x1="909.174683" y1="1013.648926" x2="892.031006" y2="1013.648926" style="stroke: green; stroke-width: 0.200000"/>
   <line x1="910.174683" y1="1012.648926" x2="892.760376" y2="1012.648926" style="stroke: green; stroke-width: 0.200000"/>
   <line x1="911.174683" y1="1011.648926" x2="893.584106" y2="1011.648926" style="stroke: green; stroke-width: 0.200000"/>
   <line x1="912.174683" y1="1010.648926" x2="894.421387" y2="1010.648926" style="stroke: green; stroke-width: 0.200000"/>
   <line x1="913.174683" y1="1009.648987" x2="895.276245" y2="1009.648987" style="stroke: green; stroke-width: 0.200000"/>
   <line x1="914.174683" y1="1008.648926" x2="896.141296" y2="1008.648926" style="stroke: green; stroke-width: 0.200000"/>
   <line x1="915.174683" y1="1007.648926" x2="897.044434" y2="1007.648926" style="stroke: green; stroke-width: 0.200000"/>
   <line x1="916.174683" y1="1006.648926" x2="897.947693" y2="1006.648926" style="stroke: green; stroke-width: 0.200000"/>
   <line x1="917.174683" y1="1005.648926" x2="898.850830" y2="1005.648926" style="stroke: green; stroke-width: 0.200000"/>
   <line x1="918.174683" y1="1004.648987" x2="899.819031" y2="1004.648987" style="stroke: green; stroke-width: 0.200000"/>
   <line x1="919.174683" y1="1003.648926" x2="900.860840" y2="1003.648926" style="stroke: green; stroke-width: 0.200000"/>
   <line x1="920.174683" y1="1002.648926" x2="901.902710" y2="1002.648926" style="stroke: green; stroke-width: 0.200000"/>
   <line x1="921.174683" y1="1001.648926" x2="902.959473" y2="1001.648926" style="stroke: green; stroke-width: 0.200000"/>
   <line x1="922.174683" y1="1000.648926" x2="904.026123" y2="1000.648926" style="stroke: green; stroke-width: 0.200000"/>
   <line x1="923.174683" y1="999.648987" x2="905.219055" y2="999.648987" style="stroke: green; stroke-width: 0.200000"/>
   <line x1="924.174683" y1="998.648926" x2="906.602844" y2="998.648926" style="stroke: green; stroke-width: 0.200000"/>
   <line x1="925.174683" y1="997.648926" x2="908.509460" y2="997.648926" style="stroke: green; stroke-width: 0.200000"/>
   <line x1="926.174683" y1="996.648926" x2="911.329590" y2="996.648926" style="stroke: green; stroke-width: 0.200000"/>
   <line x1="924.471497" y1="995.648926" x2="921.087646" y2="995.648926" style="stroke: green; stroke-width: 0.200000"/>
   <line x1="988.010254" y1="934.813354" x2="987.351746" y2="934.813354" style="stroke: green; stroke-width: 0.200000"/>
   <line x1="989.010254" y1="933.813354" x2="987.181274" y2="933.813354" style="stroke: green; stroke-width: 0.200000"/>
   <line x1="990.010315" y1="932.813354" x2="987.118225" y2="932.813354" style="stroke: green; stroke-width: 0.200000"/>
   <line x1="991.010254" y1="931.813354" x2="987.040894" y2="931.813354" style="stroke: green; stroke-width: 0.200000"/>
   <line x1="992.010254" y1="930.813354" x2="987.017517" y2="930.813354" style="stroke: green; stroke-width: 0.200000"/>
   <line x1="993.010254" y1="929.813354" x2="987.033447" y2="929.813354" style="stroke: green; stroke-width: 0.200000"/>
   <line x1="994.010254" y1="928.813354" x2="987.052551" y2="928.813354" style="stroke: green; stroke-width: 0.200000"/>
   <line x1="995.010315" y1="927.813354" x2="987.056763" y2="927.813354" style="stroke: green; stroke-width: 0.200000"/>
   <line x1="996.010254" y1="926.813354" x2="987.061035" y2="926.813354" style="stroke: green; stroke-width: 0.200000"/>
   <line x1="997.010254" y1="925.813354" x2="987.078186" y2="925.813354" style="stroke: green; stroke-width: 0.200000"/>
   <line x1="998.010254" y1="924.813354" x2="987.103821" y2="924.813354" style="stroke: green; stroke-width: 0.200000"/>
   <line x1="999.010254" y1="923.813354" x2="987.169312" y2="923.813354" style="stroke: green; stroke-width: 0.200000"/>
   <line x1="1000.010315" y1="922.813354" x2="987.309631" y2="922.813354" style="stroke: green; stroke-width: 0.200000"/>
   <line x1="1001.010254" y1="921.813354" x2="987.548523" y2="921.813354" style="stroke: green; stroke-width: 0.200000"/>
   <line x1="1002.010254" y1="920.813354" x2="987.841187" y2="920.813354" style="stroke: green; stroke-width: 0.200000"/>
   <line x1="1003.010254" y1="919.813354" x2="988.248840" y2="919.813354" style="stroke: green; stroke-width: 0.200000"/>
   <line x1="1004.010254" y1="918.813354" x2="988.797302" y2="918.813354" style="stroke: green; stroke-width: 0.200000"/>
   <line x1="1005.010315" y1="917.813354" x2="989.328064" y2="917.813354" style="stroke: green; stroke-width: 0.200000"/>
   <line x1="1006.010254" y1="916.813354" x2="990.119629" y2="916.813354" style="stroke: green; stroke-width: 0.200000"/>
   <line x1="1007.010254" y1="915.813354" x2="990.932678" y2="915.813354" style="stroke: green; stroke-width: 0.200000"/>
   <line x1="1008.010254" y1="914.813354" x2="991.907104" y2="914.813354" style="stroke: green; stroke-width: 0.200000"/>
   <line x1="1009.010254" y1="913.813354" x2="992.920044" y2="913.813354" style="stroke: green; stroke-width: 0.200000"/>
   <line x1="1010.010254" y1="912.813354" x2="993.933105" y2="912.813354" style="stroke: green; stroke-width: 0.200000"/>
   <line x1="1011.010254" y1="911.813354" x2="994.946045" y2="911.813354" style="stroke: green; stroke-width: 0.200000"/>
   <line x1="1012.010254" y1="910.813354" x2="995.975281" y2="910.813354" style="stroke: green; stroke-width: 0.200000"/>
   <line x1="1013.010254" y1="909.813354" x2="997.044556" y2="909.813354" style="stroke: green; stroke-width: 0.200000"/>
   <line x1="1014.010254" y1="908.813354" x2="998.139771" y2="908.813354" style="stroke: green; stroke-width: 0.200000"/>
   <line x1="1015.010254" y1="907.813354" x2="999.256592" y2="907.813354" style="stroke: green; stroke-width: 0.200000"/>
   <line x1="1016.010254" y1="906.813354" x2="1000.373474" y2="906.813354" style="stroke: green; stroke-width: 0.200000"/>
   <line x1="1017.010254" y1="905.813354" x2="1001.490234" y2="905.813354" style="stroke: green; stroke-width: 0.200000"/>
   <line x1="1018.010254" y1="904.813354" x2="1002.662354" y2="904.813354" style="stroke: green; stroke-width: 0.200000"/>
   <line x1="1019.010254" y1="903.813354" x2="1003.869385" y2="903.813354" style="stroke: green; stroke-width: 0.200000"/>
   <line x1="1020.010254" y1="902.813354" x2="1005.105591" y2="902.813354" style="stroke: green; stroke-width: 0.200000"/>
   <line x1="1021.010254" y1="901.813354" x2="1006.370728" y2="901.813354" style="stroke: green; stroke-width: 0.200000"/>
   <line x1="1022.010254" y1="900.813354" x2="1007.794922" y2="900.813354" style="stroke: green; stroke-width: 0.200000"/>
   <line x1="1023.010254" y1="899.813354" x2="1009.325500" y2="899.813354" style="stroke: green; stroke-width: 0.200000"/>
   <line x1="1022.623230" y1="898.813354" x2="1011.251953" y2="898.813354" style="stroke: green; stroke-width: 0.200000"/>
   <line x1="1020.745605" y1="897.813354" x2="1013.696777" y2="897.813354" style="stroke: green; stroke-width: 0.200000"/>
   <path d="M 1123.77  1013.36  1125.13  1015.52  1126.7  1018.61  1127.78  1021.93  1128.32  1025.35  1128.32  1028.77  1127.79  1032.11  1127.46  1033.2  1126.76  1035.32  1125.24  1038.25  1123.29  1040.83  1122.93  1041.25  1122.68  1041.5  1119.31  1045.09  1118.63  1045.8  1117.51  1046.7  1116.44  1047.75  1114.1  1049.58  1111.6  1051.18  1109.03  1052.54  1105.18  1054.37  1103.74  1054.99  1103.03  1055.32  1099.13  1057.23  1097.68  1057.98  1094.69  1059.61  1092.66  1060.82  1090.46  1062.18  1088.05  1063.88  1086.5  1064.99  1082.81  1068.04  1079.35  1071.3  1072.87  1078.27  1066.94  1085.74  1064.25  1089.7  1061.76  1093.85  1061.39  1094.56  1058.53  1099.92  1057.05  1102.35  1055.43  1104.7  1052.44  1108.44  1052.02  1108.99  1051.33  1109.69  1050.76  1110.33  1050.47  1110.61  1049.53  1111.38  1048.51  1112.07  1047.43  1112.7  1046.28  1113.24  1045.08  1113.7  1043.81  1114.07  1042.5  1114.32  1041.17  1114.47  1039.8  1114.53  1038.43  1114.48  1037.05  1114.33  1035.67  1114.07  1034.32  1113.71  1033.03  1113.27  1029.11  1111.72  1024.86  1110  1029.1  1105.76  1030.86  1106.81  1120.08  1017.58  1118.96  1015.9  1122.91  1011.96  1123.77  1013.36  " style="fill: none; stroke: darkmagenta; stroke-width: 0.200000; fill-type: evenodd"  fill-opacity="1.000000" />
   <path d="M 1124.26  1016.01  1125.77  1019  1126.8  1022.17  1127.32  1025.43  1127.32  1028.69  1126.82  1031.88  1126.51  1032.9  1125.84  1034.93  1124.39  1037.71  1122.51  1040.2  1122.2  1040.57  1121.96  1040.8  1118.59  1044.4  1117.95  1045.06  1116.84  1045.96  1115.78  1047  1113.52  1048.76  1111.09  1050.31  1108.58  1051.65  1104.77  1053.45  1103.33  1054.08  1102.6  1054.42  1098.68  1056.34  1097.21  1057.1  1094.19  1058.74  1092.14  1059.96  1089.91  1061.35  1087.47  1063.06  1085.89  1064.2  1082.15  1067.29  1078.64  1070.6  1072.11  1077.62  1066.13  1085.15  1063.4  1089.16  1060.88  1093.37  1060.51  1094.1  1057.66  1099.42  1056.21  1101.81  1054.63  1104.1  1051.65  1107.82  1051.27  1108.33  1050.6  1109.01  1050.04  1109.64  1049.81  1109.86  1048.93  1110.58  1047.98  1111.23  1046.96  1111.81  1045.89  1112.32  1044.76  1112.76  1043.58  1113.1  1042.35  1113.33  1041.09  1113.48  1039.8  1113.53  1038.5  1113.48  1037.19  1113.34  1035.89  1113.09  1034.61  1112.75  1033.38  1112.33  1029.48  1110.79  1026.64  1109.64  1029.26  1107.02  1031.01  1108.06  1121.37  1017.71  1120.25  1016.03  1122.72  1013.56  1124.26  1016.01  " style="fill: none; stroke: black; stroke-width: 0.200000; fill-type: evenodd"  fill-opacity="1.000000" />
   <path d="M 923.908  994.1  924.408  994.112  924.76  994.177  925.328  994.235  925.598  994.309  926.22  994.426  926.419  994.502  927.093  994.694  927.855  995.013  928.618  995.368  929.2  995.745  886.354  1038.59  885.759  1037.96  885.622  1037.85  884.077  1036.19  883.304  1035.29  882.85  1034.52  882.737  1034.38  882.629  1034.16  882.305  1033.35  882.137  1033.01  881.796  1031.54  881.72  1030.52  881.721  1030.24  881.804  1029.05  882.12  1027.68  882.611  1026.33  883.124  1025.3  883.551  1024.53  884.536  1022.66  885.794  1020.23  886.959  1018.4  888.588  1015.77  889.924  1013.99  891.669  1011.6  893.569  1009.33  894.998  1007.68  897.764  1004.62  898.453  1003.88  901.285  1001.16  903.562  999.028  904.052  998.642  905.865  997.332  908.476  995.977  911.319  995.08  914.303  994.654  917.336  994.377  922.51  994.059  923.047  994.075  923.464  994.054  923.908  994.1  " style="fill: none; stroke: darkmagenta; stroke-width: 0.200000; fill-type: evenodd"  fill-opacity="1.000000" />
   <path d="M 923.845  995.099  924.305  995.11  924.618  995.168  925.144  995.221  925.372  995.284  925.948  995.393  926.103  995.451  926.761  995.64  927.557  995.973  886.357  1037.17  884.822  1035.52  884.12  1034.7  883.671  1033.94  883.583  1033.83  883.543  1033.75  883.219  1032.95  883.086  1032.67  882.787  1031.39  882.72  1030.48  882.721  1030.27  882.796  1029.2  883.08  1027.97  883.532  1026.72  884.01  1025.77  884.431  1025  885.422  1023.12  886.661  1020.73  887.806  1018.93  889.414  1016.33  890.728  1014.59  892.457  1012.22  894.331  1009.98  895.747  1008.34  898.499  1005.29  899.164  1004.59  901.974  1001.89  904.215  999.787  904.654  999.44  906.391  998.185  908.859  996.904  911.541  996.058  914.419  995.648  917.412  995.375  922.526  995.06  923.056  995.076  923.437  995.057  923.845  995.099  " style="fill: none; stroke: black; stroke-width: 0.200000; fill-type: evenodd"  fill-opacity="1.000000" />
   <path d="M 1016.93  895.685  1018.9  895.775  1021.07  896.306  1021.74  896.613  1023.04  897.254  1023.66  897.716  1024.91  898.833  1025.53  899.419  986.761  938.184  986.023  935.8  985.781  934.617  985.684  933.939  985.655  933.198  985.526  932.176  985.542  931.881  985.508  930.417  985.55  929.368  985.563  926.397  985.607  924.69  985.661  923.767  985.833  922.541  986.227  920.892  986.707  919.505  987.743  917.617  988.102  916.917  989.977  914.611  994.627  910.021  996.517  908.253  1000.65  904.551  1002.32  903.137  1004.81  901.122  1005.54  900.562  1007.17  899.422  1008.63  898.478  1010.17  897.667  1010.91  897.332  1011.96  896.82  1013.38  896.336  1014.48  896.036  1014.56  896.038  1016.11  895.723  1016.58  895.666  1016.93  895.685  " style="fill: none; stroke: darkmagenta; stroke-width: 0.200000; fill-type: evenodd"  fill-opacity="1.000000" />
   <path d="M 1016.88  896.683  1018.76  896.769  1020.74  897.255  1021.31  897.516  1022.51  898.111  1023.03  898.493  1024.09  899.441  987.16  936.37  986.766  934.446  986.681  933.848  986.653  933.116  986.53  932.141  986.543  931.897  986.509  930.425  986.55  929.391  986.563  926.411  986.606  924.732  986.657  923.866  986.816  922.727  987.188  921.172  987.625  919.912  988.626  918.086  988.944  917.467  990.719  915.284  995.32  910.742  997.192  908.991  1001.31  905.306  1002.96  903.907  1005.43  901.907  1006.13  901.368  1007.73  900.252  1009.13  899.341  1010.61  898.565  1011.33  898.238  1012.34  897.747  1013.68  897.293  1014.6  897.039  1014.65  897.04  1016.27  896.711  1016.61  896.669  1016.88  896.683  " style="fill: none; stroke: black; stroke-width: 0.200000; fill-type: evenodd"  fill-opacity="1.000000" />
</svg>
