<?xml version="1.0" encoding="UTF-8" standalone="yes"?>
<!DOCTYPE svg PUBLIC "-//W3C//DTD SVG 1.0//EN" "http://www.w3.org/TR/2001/REC-SVG-20010904/DTD/svg10.dtd">
<svg height="2000" width="2000" xmlns="http://www.w3.org/2000/svg" xmlns:svg="http://www.w3.org/2000/svg" xmlns:xlink="http://www.w3.org/1999/xlink">
   <marker id="endArrow" markerHeight="8" markerUnits="strokeWidth" markerWidth="10" orient="auto" refX="1" refY="5" viewBox="0 0 1000 1000">
      <polyline fill="darkblue" points="0,0 10,5 0,10 1,5" />
   </marker>
   <circle cx="1000" cy="1000" r="1" style="stroke:black; fill: red" />
   <circle cx="1000" cy="1000" r="800" style="stroke:black; fill: none" />
   <line x1="797.277344" y1="1054.081055" x2="753.921631" y2="1054.081055" style="stroke: green; stroke-width: 0.200000"/>
   <line x1="797.277344" y1="1053.081055" x2="754.024902" y2="1053.081055" style="stroke: green; stroke-width: 0.200000"/>
   <line x1="797.277344" y1="1052.081055" x2="754.128052" y2="1052.081055" style="stroke: green; stroke-width: 0.200000"/>
   <line x1="797.277344" y1="1051.081055" x2="754.231262" y2="1051.081055" style="stroke: green; stroke-width: 0.200000"/>
   <line x1="797.277344" y1="1050.081055" x2="754.334412" y2="1050.081055" style="stroke: green; stroke-width: 0.200000"/>
   <line x1="797.277344" y1="1049.081055" x2="754.437622" y2="1049.081055" style="stroke: green; stroke-width: 0.200000"/>
   <line x1="797.277344" y1="1048.081055" x2="754.549622" y2="1048.081055" style="stroke: green; stroke-width: 0.200000"/>
   <line x1="797.277344" y1="1047.081055" x2="754.764893" y2="1047.081055" style="stroke: green; stroke-width: 0.200000"/>
   <line x1="797.277344" y1="1046.081055" x2="754.980103" y2="1046.081055" style="stroke: green; stroke-width: 0.200000"/>
   <line x1="797.277344" y1="1045.081055" x2="755.195312" y2="1045.081055" style="stroke: green; stroke-width: 0.200000"/>
   <line x1="797.277344" y1="1044.081055" x2="755.500427" y2="1044.081055" style="stroke: green; stroke-width: 0.200000"/>
   <line x1="797.277344" y1="1043.081055" x2="755.899780" y2="1043.081055" style="stroke: green; stroke-width: 0.200000"/>
   <line x1="797.277344" y1="1042.081055" x2="756.299194" y2="1042.081055" style="stroke: green; stroke-width: 0.200000"/>
   <line x1="797.277344" y1="1041.081055" x2="756.698608" y2="1041.081055" style="stroke: green; stroke-width: 0.200000"/>
   <line x1="797.277344" y1="1040.081055" x2="757.098022" y2="1040.081055" style="stroke: green; stroke-width: 0.200000"/>
   <line x1="797.277344" y1="1039.081055" x2="757.497437" y2="1039.081055" style="stroke: green; stroke-width: 0.200000"/>
   <line x1="797.277344" y1="1038.081055" x2="757.896790" y2="1038.081055" style="stroke: green; stroke-width: 0.200000"/>
   <line x1="797.277344" y1="1037.081055" x2="758.296204" y2="1037.081055" style="stroke: green; stroke-width: 0.200000"/>
   <line x1="797.277344" y1="1036.081055" x2="758.695618" y2="1036.081055" style="stroke: green; stroke-width: 0.200000"/>
   <line x1="797.277344" y1="1035.081055" x2="759.094971" y2="1035.081055" style="stroke: green; stroke-width: 0.200000"/>
   <line x1="797.277344" y1="1034.081055" x2="759.617371" y2="1034.081055" style="stroke: green; stroke-width: 0.200000"/>
   <line x1="797.277344" y1="1033.081055" x2="760.207764" y2="1033.081055" style="stroke: green; stroke-width: 0.200000"/>
   <line x1="797.277344" y1="1032.081055" x2="760.798096" y2="1032.081055" style="stroke: green; stroke-width: 0.200000"/>
   <line x1="797.277344" y1="1031.081055" x2="761.388489" y2="1031.081055" style="stroke: green; stroke-width: 0.200000"/>
   <line x1="797.277344" y1="1030.081055" x2="761.978821" y2="1030.081055" style="stroke: green; stroke-width: 0.200000"/>
   <line x1="797.277344" y1="1029.081055" x2="762.569214" y2="1029.081055" style="stroke: green; stroke-width: 0.200000"/>
   <line x1="797.277344" y1="1028.081055" x2="763.159546" y2="1028.081055" style="stroke: green; stroke-width: 0.200000"/>
   <line x1="797.277344" y1="1027.081055" x2="763.749939" y2="1027.081055" style="stroke: green; stroke-width: 0.200000"/>
   <line x1="797.277344" y1="1026.081055" x2="764.363464" y2="1026.081055" style="stroke: green; stroke-width: 0.200000"/>
   <line x1="797.277344" y1="1025.081055" x2="765.207458" y2="1025.081055" style="stroke: green; stroke-width: 0.200000"/>
   <line x1="797.277344" y1="1024.081055" x2="766.051392" y2="1024.081055" style="stroke: green; stroke-width: 0.200000"/>
   <line x1="797.277344" y1="1023.081055" x2="766.895264" y2="1023.081055" style="stroke: green; stroke-width: 0.200000"/>
   <line x1="797.277344" y1="1022.081055" x2="767.739258" y2="1022.081055" style="stroke: green; stroke-width: 0.200000"/>
   <line x1="797.277344" y1="1021.080994" x2="768.583252" y2="1021.080994" style="stroke: green; stroke-width: 0.200000"/>
   <line x1="797.277344" y1="1020.081055" x2="769.427185" y2="1020.081055" style="stroke: green; stroke-width: 0.200000"/>
   <line x1="797.277344" y1="1019.081055" x2="770.271118" y2="1019.081055" style="stroke: green; stroke-width: 0.200000"/>
   <line x1="797.277344" y1="1018.081055" x2="771.259766" y2="1018.081055" style="stroke: green; stroke-width: 0.200000"/>
   <line x1="797.277344" y1="1017.081055" x2="772.430725" y2="1017.081055" style="stroke: green; stroke-width: 0.200000"/>
   <line x1="797.277344" y1="1016.080994" x2="773.601746" y2="1016.080994" style="stroke: green; stroke-width: 0.200000"/>
   <line x1="797.277344" y1="1015.081055" x2="774.772705" y2="1015.081055" style="stroke: green; stroke-width: 0.200000"/>
   <line x1="797.277344" y1="1014.081055" x2="775.943726" y2="1014.081055" style="stroke: green; stroke-width: 0.200000"/>
   <line x1="797.277344" y1="1013.081055" x2="777.114746" y2="1013.081055" style="stroke: green; stroke-width: 0.200000"/>
   <line x1="797.277344" y1="1012.081055" x2="778.330383" y2="1012.081055" style="stroke: green; stroke-width: 0.200000"/>
   <line x1="797.277344" y1="1011.080994" x2="779.605713" y2="1011.080994" style="stroke: green; stroke-width: 0.200000"/>
   <line x1="797.277344" y1="1010.081055" x2="780.881042" y2="1010.081055" style="stroke: green; stroke-width: 0.200000"/>
   <line x1="797.277344" y1="1009.081055" x2="782.156311" y2="1009.081055" style="stroke: green; stroke-width: 0.200000"/>
   <line x1="797.277344" y1="1008.081055" x2="783.431641" y2="1008.081055" style="stroke: green; stroke-width: 0.200000"/>
   <line x1="797.277344" y1="1007.081055" x2="784.787903" y2="1007.081055" style="stroke: green; stroke-width: 0.200000"/>
   <line x1="797.277344" y1="1006.080994" x2="787.199402" y2="1006.080994" style="stroke: green; stroke-width: 0.200000"/>
   <line x1="797.277344" y1="1005.081055" x2="792.267090" y2="1005.081055" style="stroke: green; stroke-width: 0.200000"/>
   <line x1="847.377380" y1="1054.081055" x2="797.377380" y2="1054.081055" style="stroke: green; stroke-width: 0.200000"/>
   <line x1="847.377380" y1="1053.081055" x2="797.377380" y2="1053.081055" style="stroke: green; stroke-width: 0.200000"/>
   <line x1="847.377380" y1="1052.081055" x2="797.377380" y2="1052.081055" style="stroke: green; stroke-width: 0.200000"/>
   <line x1="847.377380" y1="1051.081055" x2="797.377380" y2="1051.081055" style="stroke: green; stroke-width: 0.200000"/>
   <line x1="847.377380" y1="1050.081055" x2="797.377380" y2="1050.081055" style="stroke: green; stroke-width: 0.200000"/>
   <line x1="847.377380" y1="1049.081055" x2="797.377380" y2="1049.081055" style="stroke: green; stroke-width: 0.200000"/>
   <line x1="847.377380" y1="1048.081055" x2="797.377380" y2="1048.081055" style="stroke: green; stroke-width: 0.200000"/>
   <line x1="847.377380" y1="1047.081055" x2="797.377380" y2="1047.081055" style="stroke: green; stroke-width: 0.200000"/>
   <line x1="847.377380" y1="1046.081055" x2="797.377380" y2="1046.081055" style="stroke: green; stroke-width: 0.200000"/>
   <line x1="847.377380" y1="1045.081055" x2="797.377380" y2="1045.081055" style="stroke: green; stroke-width: 0.200000"/>
   <line x1="847.256409" y1="1044.081055" x2="797.377380" y2="1044.081055" style="stroke: green; stroke-width: 0.200000"/>
   <line x1="846.116821" y1="1043.081055" x2="797.377380" y2="1043.081055" style="stroke: green; stroke-width: 0.200000"/>
   <line x1="845.228638" y1="1042.081055" x2="797.377380" y2="1042.081055" style="stroke: green; stroke-width: 0.200000"/>
   <line x1="844.340515" y1="1041.081055" x2="797.377380" y2="1041.081055" style="stroke: green; stroke-width: 0.200000"/>
   <line x1="843.452393" y1="1040.081055" x2="797.377380" y2="1040.081055" style="stroke: green; stroke-width: 0.200000"/>
   <line x1="842.564148" y1="1039.081055" x2="797.377380" y2="1039.081055" style="stroke: green; stroke-width: 0.200000"/>
   <line x1="841.676025" y1="1038.081055" x2="797.377380" y2="1038.081055" style="stroke: green; stroke-width: 0.200000"/>
   <line x1="840.787903" y1="1037.081055" x2="797.377380" y2="1037.081055" style="stroke: green; stroke-width: 0.200000"/>
   <line x1="839.942139" y1="1036.081055" x2="797.377380" y2="1036.081055" style="stroke: green; stroke-width: 0.200000"/>
   <line x1="839.221069" y1="1035.081055" x2="797.377380" y2="1035.081055" style="stroke: green; stroke-width: 0.200000"/>
   <line x1="838.500000" y1="1034.081055" x2="797.377380" y2="1034.081055" style="stroke: green; stroke-width: 0.200000"/>
   <line x1="837.778870" y1="1033.081055" x2="797.377380" y2="1033.081055" style="stroke: green; stroke-width: 0.200000"/>
   <line x1="837.057800" y1="1032.081055" x2="797.377380" y2="1032.081055" style="stroke: green; stroke-width: 0.200000"/>
   <line x1="836.384399" y1="1031.081055" x2="797.377380" y2="1031.081055" style="stroke: green; stroke-width: 0.200000"/>
   <line x1="835.715393" y1="1030.081055" x2="797.377380" y2="1030.081055" style="stroke: green; stroke-width: 0.200000"/>
   <line x1="835.046448" y1="1029.081055" x2="797.377380" y2="1029.081055" style="stroke: green; stroke-width: 0.200000"/>
   <line x1="834.348511" y1="1028.081055" x2="797.377380" y2="1028.081055" style="stroke: green; stroke-width: 0.200000"/>
   <line x1="833.581787" y1="1027.081055" x2="797.377380" y2="1027.081055" style="stroke: green; stroke-width: 0.200000"/>
   <line x1="832.815002" y1="1026.081055" x2="797.377380" y2="1026.081055" style="stroke: green; stroke-width: 0.200000"/>
   <line x1="832.048218" y1="1025.081055" x2="797.377380" y2="1025.081055" style="stroke: green; stroke-width: 0.200000"/>
   <line x1="831.281433" y1="1024.081055" x2="797.377380" y2="1024.081055" style="stroke: green; stroke-width: 0.200000"/>
   <line x1="830.531006" y1="1023.081055" x2="797.377380" y2="1023.081055" style="stroke: green; stroke-width: 0.200000"/>
   <line x1="829.811768" y1="1022.081055" x2="797.377380" y2="1022.081055" style="stroke: green; stroke-width: 0.200000"/>
   <line x1="829.092529" y1="1021.080994" x2="797.377380" y2="1021.080994" style="stroke: green; stroke-width: 0.200000"/>
   <line x1="828.298035" y1="1020.081055" x2="797.377380" y2="1020.081055" style="stroke: green; stroke-width: 0.200000"/>
   <line x1="827.218384" y1="1019.081055" x2="797.377380" y2="1019.081055" style="stroke: green; stroke-width: 0.200000"/>
   <line x1="826.128479" y1="1018.081055" x2="797.377380" y2="1018.081055" style="stroke: green; stroke-width: 0.200000"/>
   <line x1="825.107910" y1="1017.081055" x2="797.377380" y2="1017.081055" style="stroke: green; stroke-width: 0.200000"/>
   <line x1="824.095459" y1="1016.080994" x2="797.377380" y2="1016.080994" style="stroke: green; stroke-width: 0.200000"/>
   <line x1="823.083130" y1="1015.081055" x2="797.377380" y2="1015.081055" style="stroke: green; stroke-width: 0.200000"/>
   <line x1="822.070801" y1="1014.081055" x2="797.377380" y2="1014.081055" style="stroke: green; stroke-width: 0.200000"/>
   <line x1="820.806885" y1="1013.081055" x2="797.377380" y2="1013.081055" style="stroke: green; stroke-width: 0.200000"/>
   <line x1="819.258057" y1="1012.081055" x2="797.377380" y2="1012.081055" style="stroke: green; stroke-width: 0.200000"/>
   <line x1="817.593018" y1="1011.080994" x2="797.377380" y2="1011.080994" style="stroke: green; stroke-width: 0.200000"/>
   <line x1="815.927979" y1="1010.081055" x2="797.377380" y2="1010.081055" style="stroke: green; stroke-width: 0.200000"/>
   <line x1="814.262939" y1="1009.081055" x2="797.377380" y2="1009.081055" style="stroke: green; stroke-width: 0.200000"/>
   <line x1="811.979614" y1="1008.081055" x2="797.377380" y2="1008.081055" style="stroke: green; stroke-width: 0.200000"/>
   <line x1="809.451904" y1="1007.081055" x2="797.377380" y2="1007.081055" style="stroke: green; stroke-width: 0.200000"/>
   <line x1="806.914429" y1="1006.080994" x2="797.377380" y2="1006.080994" style="stroke: green; stroke-width: 0.200000"/>
   <line x1="802.309631" y1="1005.081055" x2="797.377380" y2="1005.081055" style="stroke: green; stroke-width: 0.200000"/>
   <line x1="859.927429" y1="1054.081055" x2="847.477417" y2="1054.081055" style="stroke: green; stroke-width: 0.200000"/>
   <line x1="858.469360" y1="1053.081055" x2="847.477417" y2="1053.081055" style="stroke: green; stroke-width: 0.200000"/>
   <line x1="857.049805" y1="1052.081055" x2="847.477417" y2="1052.081055" style="stroke: green; stroke-width: 0.200000"/>
   <line x1="855.815674" y1="1051.081055" x2="847.477417" y2="1051.081055" style="stroke: green; stroke-width: 0.200000"/>
   <line x1="854.581604" y1="1050.081055" x2="847.477417" y2="1050.081055" style="stroke: green; stroke-width: 0.200000"/>
   <line x1="853.347534" y1="1049.081055" x2="847.477417" y2="1049.081055" style="stroke: green; stroke-width: 0.200000"/>
   <line x1="852.113525" y1="1048.081055" x2="847.477417" y2="1048.081055" style="stroke: green; stroke-width: 0.200000"/>
   <line x1="850.882324" y1="1047.081055" x2="847.477417" y2="1047.081055" style="stroke: green; stroke-width: 0.200000"/>
   <line x1="849.673767" y1="1046.081055" x2="847.477417" y2="1046.081055" style="stroke: green; stroke-width: 0.200000"/>
   <line x1="848.465027" y1="1045.081055" x2="847.477417" y2="1045.081055" style="stroke: green; stroke-width: 0.200000"/>
   <line x1="797.277344" y1="1104.081055" x2="747.867920" y2="1104.081055" style="stroke: green; stroke-width: 0.200000"/>
   <line x1="797.277344" y1="1103.081055" x2="747.969360" y2="1103.081055" style="stroke: green; stroke-width: 0.200000"/>
   <line x1="797.277344" y1="1102.081055" x2="748.088440" y2="1102.081055" style="stroke: green; stroke-width: 0.200000"/>
   <line x1="797.277344" y1="1101.081055" x2="748.271851" y2="1101.081055" style="stroke: green; stroke-width: 0.200000"/>
   <line x1="797.277344" y1="1100.081055" x2="748.455261" y2="1100.081055" style="stroke: green; stroke-width: 0.200000"/>
   <line x1="797.277344" y1="1099.081055" x2="748.638672" y2="1099.081055" style="stroke: green; stroke-width: 0.200000"/>
   <line x1="797.277344" y1="1098.081055" x2="748.822083" y2="1098.081055" style="stroke: green; stroke-width: 0.200000"/>
   <line x1="797.277344" y1="1097.081055" x2="749.005615" y2="1097.081055" style="stroke: green; stroke-width: 0.200000"/>
   <line x1="797.277344" y1="1096.081055" x2="749.188965" y2="1096.081055" style="stroke: green; stroke-width: 0.200000"/>
   <line x1="797.277344" y1="1095.081055" x2="749.372437" y2="1095.081055" style="stroke: green; stroke-width: 0.200000"/>
   <line x1="797.277344" y1="1094.081055" x2="749.555786" y2="1094.081055" style="stroke: green; stroke-width: 0.200000"/>
   <line x1="797.277344" y1="1093.081055" x2="749.748657" y2="1093.081055" style="stroke: green; stroke-width: 0.200000"/>
   <line x1="797.277344" y1="1092.081055" x2="749.948853" y2="1092.081055" style="stroke: green; stroke-width: 0.200000"/>
   <line x1="797.277344" y1="1091.081055" x2="750.169006" y2="1091.081055" style="stroke: green; stroke-width: 0.200000"/>
   <line x1="797.277344" y1="1090.081055" x2="750.389160" y2="1090.081055" style="stroke: green; stroke-width: 0.200000"/>
   <line x1="797.277344" y1="1089.081055" x2="750.609253" y2="1089.081055" style="stroke: green; stroke-width: 0.200000"/>
   <line x1="797.277344" y1="1088.081055" x2="750.829407" y2="1088.081055" style="stroke: green; stroke-width: 0.200000"/>
   <line x1="797.277344" y1="1087.081055" x2="751.049500" y2="1087.081055" style="stroke: green; stroke-width: 0.200000"/>
   <line x1="797.277344" y1="1086.081055" x2="751.269592" y2="1086.081055" style="stroke: green; stroke-width: 0.200000"/>
   <line x1="797.277344" y1="1085.081055" x2="751.489746" y2="1085.081055" style="stroke: green; stroke-width: 0.200000"/>
   <line x1="797.277344" y1="1084.081055" x2="751.709839" y2="1084.081055" style="stroke: green; stroke-width: 0.200000"/>
   <line x1="797.277344" y1="1083.081055" x2="751.929932" y2="1083.081055" style="stroke: green; stroke-width: 0.200000"/>
   <line x1="797.277344" y1="1082.081055" x2="752.150024" y2="1082.081055" style="stroke: green; stroke-width: 0.200000"/>
   <line x1="797.277344" y1="1081.081055" x2="752.391296" y2="1081.081055" style="stroke: green; stroke-width: 0.200000"/>
   <line x1="797.277344" y1="1080.081055" x2="752.533936" y2="1080.081055" style="stroke: green; stroke-width: 0.200000"/>
   <line x1="797.277344" y1="1079.081055" x2="752.676636" y2="1079.081055" style="stroke: green; stroke-width: 0.200000"/>
   <line x1="797.277344" y1="1078.081055" x2="752.819275" y2="1078.081055" style="stroke: green; stroke-width: 0.200000"/>
   <line x1="797.277344" y1="1077.081055" x2="752.961914" y2="1077.081055" style="stroke: green; stroke-width: 0.200000"/>
   <line x1="797.277344" y1="1076.081055" x2="753.104553" y2="1076.081055" style="stroke: green; stroke-width: 0.200000"/>
   <line x1="797.277344" y1="1075.081055" x2="753.247192" y2="1075.081055" style="stroke: green; stroke-width: 0.200000"/>
   <line x1="797.277344" y1="1074.081055" x2="753.389893" y2="1074.081055" style="stroke: green; stroke-width: 0.200000"/>
   <line x1="797.277344" y1="1073.081055" x2="753.532593" y2="1073.081055" style="stroke: green; stroke-width: 0.200000"/>
   <line x1="797.277344" y1="1072.081055" x2="753.675171" y2="1072.081055" style="stroke: green; stroke-width: 0.200000"/>
   <line x1="797.277344" y1="1071.081055" x2="753.817810" y2="1071.081055" style="stroke: green; stroke-width: 0.200000"/>
   <line x1="797.277344" y1="1070.081055" x2="753.895935" y2="1070.081055" style="stroke: green; stroke-width: 0.200000"/>
   <line x1="797.277344" y1="1069.081055" x2="753.915283" y2="1069.081055" style="stroke: green; stroke-width: 0.200000"/>
   <line x1="797.277344" y1="1068.081055" x2="753.875183" y2="1068.081055" style="stroke: green; stroke-width: 0.200000"/>
   <line x1="797.277344" y1="1067.081055" x2="753.835083" y2="1067.081055" style="stroke: green; stroke-width: 0.200000"/>
   <line x1="797.277344" y1="1066.081055" x2="753.795044" y2="1066.081055" style="stroke: green; stroke-width: 0.200000"/>
   <line x1="797.277344" y1="1065.081055" x2="753.754883" y2="1065.081055" style="stroke: green; stroke-width: 0.200000"/>
   <line x1="797.277344" y1="1064.081055" x2="753.714844" y2="1064.081055" style="stroke: green; stroke-width: 0.200000"/>
   <line x1="797.277344" y1="1063.081055" x2="753.674805" y2="1063.081055" style="stroke: green; stroke-width: 0.200000"/>
   <line x1="797.277344" y1="1062.081055" x2="753.634644" y2="1062.081055" style="stroke: green; stroke-width: 0.200000"/>
   <line x1="797.277344" y1="1061.081055" x2="753.594604" y2="1061.081055" style="stroke: green; stroke-width: 0.200000"/>
   <line x1="797.277344" y1="1060.081055" x2="753.554565" y2="1060.081055" style="stroke: green; stroke-width: 0.200000"/>
   <line x1="797.277344" y1="1059.081055" x2="753.582825" y2="1059.081055" style="stroke: green; stroke-width: 0.200000"/>
   <line x1="797.277344" y1="1058.081055" x2="753.613831" y2="1058.081055" style="stroke: green; stroke-width: 0.200000"/>
   <line x1="797.277344" y1="1057.081055" x2="753.644714" y2="1057.081055" style="stroke: green; stroke-width: 0.200000"/>
   <line x1="797.277344" y1="1056.081055" x2="753.715271" y2="1056.081055" style="stroke: green; stroke-width: 0.200000"/>
   <line x1="797.277344" y1="1055.081055" x2="753.818481" y2="1055.081055" style="stroke: green; stroke-width: 0.200000"/>
   <line x1="847.377380" y1="1104.081055" x2="797.377380" y2="1104.081055" style="stroke: green; stroke-width: 0.200000"/>
   <line x1="847.377380" y1="1103.081055" x2="797.377380" y2="1103.081055" style="stroke: green; stroke-width: 0.200000"/>
   <line x1="847.377380" y1="1102.081055" x2="797.377380" y2="1102.081055" style="stroke: green; stroke-width: 0.200000"/>
   <line x1="847.377380" y1="1101.081055" x2="797.377380" y2="1101.081055" style="stroke: green; stroke-width: 0.200000"/>
   <line x1="847.377380" y1="1100.081055" x2="797.377380" y2="1100.081055" style="stroke: green; stroke-width: 0.200000"/>
   <line x1="847.377380" y1="1099.081055" x2="797.377380" y2="1099.081055" style="stroke: green; stroke-width: 0.200000"/>
   <line x1="847.377380" y1="1098.081055" x2="797.377380" y2="1098.081055" style="stroke: green; stroke-width: 0.200000"/>
   <line x1="847.377380" y1="1097.081055" x2="797.377380" y2="1097.081055" style="stroke: green; stroke-width: 0.200000"/>
   <line x1="847.377380" y1="1096.081055" x2="797.377380" y2="1096.081055" style="stroke: green; stroke-width: 0.200000"/>
   <line x1="847.377380" y1="1095.081055" x2="797.377380" y2="1095.081055" style="stroke: green; stroke-width: 0.200000"/>
   <line x1="847.377380" y1="1094.081055" x2="797.377380" y2="1094.081055" style="stroke: green; stroke-width: 0.200000"/>
   <line x1="847.377380" y1="1093.081055" x2="797.377380" y2="1093.081055" style="stroke: green; stroke-width: 0.200000"/>
   <line x1="847.377380" y1="1092.081055" x2="797.377380" y2="1092.081055" style="stroke: green; stroke-width: 0.200000"/>
   <line x1="847.377380" y1="1091.081055" x2="797.377380" y2="1091.081055" style="stroke: green; stroke-width: 0.200000"/>
   <line x1="847.377380" y1="1090.081055" x2="797.377380" y2="1090.081055" style="stroke: green; stroke-width: 0.200000"/>
   <line x1="847.377380" y1="1089.081055" x2="797.377380" y2="1089.081055" style="stroke: green; stroke-width: 0.200000"/>
   <line x1="847.377380" y1="1088.081055" x2="797.377380" y2="1088.081055" style="stroke: green; stroke-width: 0.200000"/>
   <line x1="847.377380" y1="1087.081055" x2="797.377380" y2="1087.081055" style="stroke: green; stroke-width: 0.200000"/>
   <line x1="847.377380" y1="1086.081055" x2="797.377380" y2="1086.081055" style="stroke: green; stroke-width: 0.200000"/>
   <line x1="847.377380" y1="1085.081055" x2="797.377380" y2="1085.081055" style="stroke: green; stroke-width: 0.200000"/>
   <line x1="847.377380" y1="1084.081055" x2="797.377380" y2="1084.081055" style="stroke: green; stroke-width: 0.200000"/>
   <line x1="847.377380" y1="1083.081055" x2="797.377380" y2="1083.081055" style="stroke: green; stroke-width: 0.200000"/>
   <line x1="847.377380" y1="1082.081055" x2="797.377380" y2="1082.081055" style="stroke: green; stroke-width: 0.200000"/>
   <line x1="847.377380" y1="1081.081055" x2="797.377380" y2="1081.081055" style="stroke: green; stroke-width: 0.200000"/>
   <line x1="847.377380" y1="1080.081055" x2="797.377380" y2="1080.081055" style="stroke: green; stroke-width: 0.200000"/>
   <line x1="847.377380" y1="1079.081055" x2="797.377380" y2="1079.081055" style="stroke: green; stroke-width: 0.200000"/>
   <line x1="847.377380" y1="1078.081055" x2="797.377380" y2="1078.081055" style="stroke: green; stroke-width: 0.200000"/>
   <line x1="847.377380" y1="1077.081055" x2="797.377380" y2="1077.081055" style="stroke: green; stroke-width: 0.200000"/>
   <line x1="847.377380" y1="1076.081055" x2="797.377380" y2="1076.081055" style="stroke: green; stroke-width: 0.200000"/>
   <line x1="847.377380" y1="1075.081055" x2="797.377380" y2="1075.081055" style="stroke: green; stroke-width: 0.200000"/>
   <line x1="847.377380" y1="1074.081055" x2="797.377380" y2="1074.081055" style="stroke: green; stroke-width: 0.200000"/>
   <line x1="847.377380" y1="1073.081055" x2="797.377380" y2="1073.081055" style="stroke: green; stroke-width: 0.200000"/>
   <line x1="847.377380" y1="1072.081055" x2="797.377380" y2="1072.081055" style="stroke: green; stroke-width: 0.200000"/>
   <line x1="847.377380" y1="1071.081055" x2="797.377380" y2="1071.081055" style="stroke: green; stroke-width: 0.200000"/>
   <line x1="847.377380" y1="1070.081055" x2="797.377380" y2="1070.081055" style="stroke: green; stroke-width: 0.200000"/>
   <line x1="847.377380" y1="1069.081055" x2="797.377380" y2="1069.081055" style="stroke: green; stroke-width: 0.200000"/>
   <line x1="847.377380" y1="1068.081055" x2="797.377380" y2="1068.081055" style="stroke: green; stroke-width: 0.200000"/>
   <line x1="847.377380" y1="1067.081055" x2="797.377380" y2="1067.081055" style="stroke: green; stroke-width: 0.200000"/>
   <line x1="847.377380" y1="1066.081055" x2="797.377380" y2="1066.081055" style="stroke: green; stroke-width: 0.200000"/>
   <line x1="847.377380" y1="1065.081055" x2="797.377380" y2="1065.081055" style="stroke: green; stroke-width: 0.200000"/>
   <line x1="847.377380" y1="1064.081055" x2="797.377380" y2="1064.081055" style="stroke: green; stroke-width: 0.200000"/>
   <line x1="847.377380" y1="1063.081055" x2="797.377380" y2="1063.081055" style="stroke: green; stroke-width: 0.200000"/>
   <line x1="847.377380" y1="1062.081055" x2="797.377380" y2="1062.081055" style="stroke: green; stroke-width: 0.200000"/>
   <line x1="847.377380" y1="1061.081055" x2="797.377380" y2="1061.081055" style="stroke: green; stroke-width: 0.200000"/>
   <line x1="847.377380" y1="1060.081055" x2="797.377380" y2="1060.081055" style="stroke: green; stroke-width: 0.200000"/>
   <line x1="847.377380" y1="1059.081055" x2="797.377380" y2="1059.081055" style="stroke: green; stroke-width: 0.200000"/>
   <line x1="847.377380" y1="1058.081055" x2="797.377380" y2="1058.081055" style="stroke: green; stroke-width: 0.200000"/>
   <line x1="847.377380" y1="1057.081055" x2="797.377380" y2="1057.081055" style="stroke: green; stroke-width: 0.200000"/>
   <line x1="847.377380" y1="1056.081055" x2="797.377380" y2="1056.081055" style="stroke: green; stroke-width: 0.200000"/>
   <line x1="847.377380" y1="1055.081055" x2="797.377380" y2="1055.081055" style="stroke: green; stroke-width: 0.200000"/>
   <line x1="897.477417" y1="1104.081055" x2="847.477417" y2="1104.081055" style="stroke: green; stroke-width: 0.200000"/>
   <line x1="897.477417" y1="1103.081055" x2="847.477417" y2="1103.081055" style="stroke: green; stroke-width: 0.200000"/>
   <line x1="897.477417" y1="1102.081055" x2="847.477417" y2="1102.081055" style="stroke: green; stroke-width: 0.200000"/>
   <line x1="897.243713" y1="1101.081055" x2="847.477417" y2="1101.081055" style="stroke: green; stroke-width: 0.200000"/>
   <line x1="896.846863" y1="1100.081055" x2="847.477417" y2="1100.081055" style="stroke: green; stroke-width: 0.200000"/>
   <line x1="896.450073" y1="1099.081055" x2="847.477417" y2="1099.081055" style="stroke: green; stroke-width: 0.200000"/>
   <line x1="896.053101" y1="1098.081055" x2="847.477417" y2="1098.081055" style="stroke: green; stroke-width: 0.200000"/>
   <line x1="895.656189" y1="1097.081055" x2="847.477417" y2="1097.081055" style="stroke: green; stroke-width: 0.200000"/>
   <line x1="895.259338" y1="1096.081055" x2="847.477417" y2="1096.081055" style="stroke: green; stroke-width: 0.200000"/>
   <line x1="894.860718" y1="1095.081055" x2="847.477417" y2="1095.081055" style="stroke: green; stroke-width: 0.200000"/>
   <line x1="894.451782" y1="1094.081055" x2="847.477417" y2="1094.081055" style="stroke: green; stroke-width: 0.200000"/>
   <line x1="894.042847" y1="1093.081055" x2="847.477417" y2="1093.081055" style="stroke: green; stroke-width: 0.200000"/>
   <line x1="893.633789" y1="1092.081055" x2="847.477417" y2="1092.081055" style="stroke: green; stroke-width: 0.200000"/>
   <line x1="893.224854" y1="1091.081055" x2="847.477417" y2="1091.081055" style="stroke: green; stroke-width: 0.200000"/>
   <line x1="892.815857" y1="1090.081055" x2="847.477417" y2="1090.081055" style="stroke: green; stroke-width: 0.200000"/>
   <line x1="892.406921" y1="1089.081055" x2="847.477417" y2="1089.081055" style="stroke: green; stroke-width: 0.200000"/>
   <line x1="891.970337" y1="1088.081055" x2="847.477417" y2="1088.081055" style="stroke: green; stroke-width: 0.200000"/>
   <line x1="891.526123" y1="1087.081055" x2="847.477417" y2="1087.081055" style="stroke: green; stroke-width: 0.200000"/>
   <line x1="891.080994" y1="1086.081055" x2="847.477417" y2="1086.081055" style="stroke: green; stroke-width: 0.200000"/>
   <line x1="890.618164" y1="1085.081055" x2="847.477417" y2="1085.081055" style="stroke: green; stroke-width: 0.200000"/>
   <line x1="890.155273" y1="1084.081055" x2="847.477417" y2="1084.081055" style="stroke: green; stroke-width: 0.200000"/>
   <line x1="889.692383" y1="1083.081055" x2="847.477417" y2="1083.081055" style="stroke: green; stroke-width: 0.200000"/>
   <line x1="889.229431" y1="1082.081055" x2="847.477417" y2="1082.081055" style="stroke: green; stroke-width: 0.200000"/>
   <line x1="888.766541" y1="1081.081055" x2="847.477417" y2="1081.081055" style="stroke: green; stroke-width: 0.200000"/>
   <line x1="888.291382" y1="1080.081055" x2="847.477417" y2="1080.081055" style="stroke: green; stroke-width: 0.200000"/>
   <line x1="887.768005" y1="1079.081055" x2="847.477417" y2="1079.081055" style="stroke: green; stroke-width: 0.200000"/>
   <line x1="887.244629" y1="1078.081055" x2="847.477417" y2="1078.081055" style="stroke: green; stroke-width: 0.200000"/>
   <line x1="886.700745" y1="1077.081055" x2="847.477417" y2="1077.081055" style="stroke: green; stroke-width: 0.200000"/>
   <line x1="885.875488" y1="1076.081055" x2="847.477417" y2="1076.081055" style="stroke: green; stroke-width: 0.200000"/>
   <line x1="884.848145" y1="1075.081055" x2="847.477417" y2="1075.081055" style="stroke: green; stroke-width: 0.200000"/>
   <line x1="883.820923" y1="1074.081055" x2="847.477417" y2="1074.081055" style="stroke: green; stroke-width: 0.200000"/>
   <line x1="882.793701" y1="1073.081055" x2="847.477417" y2="1073.081055" style="stroke: green; stroke-width: 0.200000"/>
   <line x1="881.766479" y1="1072.081055" x2="847.477417" y2="1072.081055" style="stroke: green; stroke-width: 0.200000"/>
   <line x1="880.739258" y1="1071.081055" x2="847.477417" y2="1071.081055" style="stroke: green; stroke-width: 0.200000"/>
   <line x1="879.683167" y1="1070.081055" x2="847.477417" y2="1070.081055" style="stroke: green; stroke-width: 0.200000"/>
   <line x1="878.511475" y1="1069.081055" x2="847.477417" y2="1069.081055" style="stroke: green; stroke-width: 0.200000"/>
   <line x1="877.339966" y1="1068.081055" x2="847.477417" y2="1068.081055" style="stroke: green; stroke-width: 0.200000"/>
   <line x1="876.168335" y1="1067.081055" x2="847.477417" y2="1067.081055" style="stroke: green; stroke-width: 0.200000"/>
   <line x1="875.019653" y1="1066.081055" x2="847.477417" y2="1066.081055" style="stroke: green; stroke-width: 0.200000"/>
   <line x1="873.913452" y1="1065.081055" x2="847.477417" y2="1065.081055" style="stroke: green; stroke-width: 0.200000"/>
   <line x1="872.807068" y1="1064.081055" x2="847.477417" y2="1064.081055" style="stroke: green; stroke-width: 0.200000"/>
   <line x1="871.640259" y1="1063.081055" x2="847.477417" y2="1063.081055" style="stroke: green; stroke-width: 0.200000"/>
   <line x1="870.440735" y1="1062.081055" x2="847.477417" y2="1062.081055" style="stroke: green; stroke-width: 0.200000"/>
   <line x1="869.241272" y1="1061.081055" x2="847.477417" y2="1061.081055" style="stroke: green; stroke-width: 0.200000"/>
   <line x1="868.042603" y1="1060.081055" x2="847.477417" y2="1060.081055" style="stroke: green; stroke-width: 0.200000"/>
   <line x1="866.865479" y1="1059.081055" x2="847.477417" y2="1059.081055" style="stroke: green; stroke-width: 0.200000"/>
   <line x1="865.688416" y1="1058.081055" x2="847.477417" y2="1058.081055" style="stroke: green; stroke-width: 0.200000"/>
   <line x1="864.301514" y1="1057.081055" x2="847.477417" y2="1057.081055" style="stroke: green; stroke-width: 0.200000"/>
   <line x1="862.843506" y1="1056.081055" x2="847.477417" y2="1056.081055" style="stroke: green; stroke-width: 0.200000"/>
   <line x1="861.385437" y1="1055.081055" x2="847.477417" y2="1055.081055" style="stroke: green; stroke-width: 0.200000"/>
   <line x1="898.416992" y1="1104.081055" x2="897.577393" y2="1104.081055" style="stroke: green; stroke-width: 0.200000"/>
   <line x1="898.037415" y1="1103.081055" x2="897.577393" y2="1103.081055" style="stroke: green; stroke-width: 0.200000"/>
   <line x1="897.640503" y1="1102.081055" x2="897.577393" y2="1102.081055" style="stroke: green; stroke-width: 0.200000"/>
   <line x1="797.277344" y1="1154.081055" x2="754.740723" y2="1154.081055" style="stroke: green; stroke-width: 0.200000"/>
   <line x1="797.277344" y1="1153.081055" x2="754.389038" y2="1153.081055" style="stroke: green; stroke-width: 0.200000"/>
   <line x1="797.277344" y1="1152.081055" x2="754.068542" y2="1152.081055" style="stroke: green; stroke-width: 0.200000"/>
   <line x1="797.277344" y1="1151.081055" x2="753.748047" y2="1151.081055" style="stroke: green; stroke-width: 0.200000"/>
   <line x1="797.277344" y1="1150.081055" x2="753.427490" y2="1150.081055" style="stroke: green; stroke-width: 0.200000"/>
   <line x1="797.277344" y1="1149.081055" x2="753.107056" y2="1149.081055" style="stroke: green; stroke-width: 0.200000"/>
   <line x1="797.277344" y1="1148.081055" x2="752.797729" y2="1148.081055" style="stroke: green; stroke-width: 0.200000"/>
   <line x1="797.277344" y1="1147.081055" x2="752.536499" y2="1147.081055" style="stroke: green; stroke-width: 0.200000"/>
   <line x1="797.277344" y1="1146.081055" x2="752.284241" y2="1146.081055" style="stroke: green; stroke-width: 0.200000"/>
   <line x1="797.277344" y1="1145.081055" x2="752.039673" y2="1145.081055" style="stroke: green; stroke-width: 0.200000"/>
   <line x1="797.277344" y1="1144.081055" x2="751.795105" y2="1144.081055" style="stroke: green; stroke-width: 0.200000"/>
   <line x1="797.277344" y1="1143.081055" x2="751.550598" y2="1143.081055" style="stroke: green; stroke-width: 0.200000"/>
   <line x1="797.277344" y1="1142.081055" x2="751.306030" y2="1142.081055" style="stroke: green; stroke-width: 0.200000"/>
   <line x1="797.277344" y1="1141.081055" x2="751.061462" y2="1141.081055" style="stroke: green; stroke-width: 0.200000"/>
   <line x1="797.277344" y1="1140.081055" x2="750.816956" y2="1140.081055" style="stroke: green; stroke-width: 0.200000"/>
   <line x1="797.277344" y1="1139.081055" x2="750.597168" y2="1139.081055" style="stroke: green; stroke-width: 0.200000"/>
   <line x1="797.277344" y1="1138.081055" x2="750.406738" y2="1138.081055" style="stroke: green; stroke-width: 0.200000"/>
   <line x1="797.277344" y1="1137.081055" x2="750.216309" y2="1137.081055" style="stroke: green; stroke-width: 0.200000"/>
   <line x1="797.277344" y1="1136.081055" x2="750.025879" y2="1136.081055" style="stroke: green; stroke-width: 0.200000"/>
   <line x1="797.277344" y1="1135.081055" x2="749.835510" y2="1135.081055" style="stroke: green; stroke-width: 0.200000"/>
   <line x1="797.277344" y1="1134.081055" x2="749.645081" y2="1134.081055" style="stroke: green; stroke-width: 0.200000"/>
   <line x1="797.277344" y1="1133.081055" x2="749.454651" y2="1133.081055" style="stroke: green; stroke-width: 0.200000"/>
   <line x1="797.277344" y1="1132.081055" x2="749.271362" y2="1132.081055" style="stroke: green; stroke-width: 0.200000"/>
   <line x1="797.277344" y1="1131.081055" x2="749.091187" y2="1131.081055" style="stroke: green; stroke-width: 0.200000"/>
   <line x1="797.277344" y1="1130.081055" x2="748.911011" y2="1130.081055" style="stroke: green; stroke-width: 0.200000"/>
   <line x1="797.277344" y1="1129.081055" x2="748.746643" y2="1129.081055" style="stroke: green; stroke-width: 0.200000"/>
   <line x1="797.277344" y1="1128.081055" x2="748.626770" y2="1128.081055" style="stroke: green; stroke-width: 0.200000"/>
   <line x1="797.277344" y1="1127.081055" x2="748.506836" y2="1127.081055" style="stroke: green; stroke-width: 0.200000"/>
   <line x1="797.277344" y1="1126.081055" x2="748.386963" y2="1126.081055" style="stroke: green; stroke-width: 0.200000"/>
   <line x1="797.277344" y1="1125.081055" x2="748.267151" y2="1125.081055" style="stroke: green; stroke-width: 0.200000"/>
   <line x1="797.277344" y1="1124.081055" x2="748.147278" y2="1124.081055" style="stroke: green; stroke-width: 0.200000"/>
   <line x1="797.277344" y1="1123.081055" x2="748.052856" y2="1123.081055" style="stroke: green; stroke-width: 0.200000"/>
   <line x1="797.277344" y1="1122.081055" x2="747.961731" y2="1122.081055" style="stroke: green; stroke-width: 0.200000"/>
   <line x1="797.277344" y1="1121.081055" x2="747.870605" y2="1121.081055" style="stroke: green; stroke-width: 0.200000"/>
   <line x1="797.277344" y1="1120.081055" x2="747.783447" y2="1120.081055" style="stroke: green; stroke-width: 0.200000"/>
   <line x1="797.277344" y1="1119.081055" x2="747.702698" y2="1119.081055" style="stroke: green; stroke-width: 0.200000"/>
   <line x1="797.277344" y1="1118.081055" x2="747.624634" y2="1118.081055" style="stroke: green; stroke-width: 0.200000"/>
   <line x1="797.277344" y1="1117.081055" x2="747.568420" y2="1117.081055" style="stroke: green; stroke-width: 0.200000"/>
   <line x1="797.277344" y1="1116.081055" x2="747.512268" y2="1116.081055" style="stroke: green; stroke-width: 0.200000"/>
   <line x1="797.277344" y1="1115.081055" x2="747.456116" y2="1115.081055" style="stroke: green; stroke-width: 0.200000"/>
   <line x1="797.277344" y1="1114.081055" x2="747.399963" y2="1114.081055" style="stroke: green; stroke-width: 0.200000"/>
   <line x1="797.277344" y1="1113.081055" x2="747.343750" y2="1113.081055" style="stroke: green; stroke-width: 0.200000"/>
   <line x1="797.277344" y1="1112.081055" x2="747.287598" y2="1112.081055" style="stroke: green; stroke-width: 0.200000"/>
   <line x1="797.277344" y1="1111.081055" x2="747.335754" y2="1111.081055" style="stroke: green; stroke-width: 0.200000"/>
   <line x1="797.277344" y1="1110.081055" x2="747.406982" y2="1110.081055" style="stroke: green; stroke-width: 0.200000"/>
   <line x1="797.277344" y1="1109.081055" x2="747.478271" y2="1109.081055" style="stroke: green; stroke-width: 0.200000"/>
   <line x1="797.277344" y1="1108.081055" x2="747.549500" y2="1108.081055" style="stroke: green; stroke-width: 0.200000"/>
   <line x1="797.277344" y1="1107.081055" x2="747.620789" y2="1107.081055" style="stroke: green; stroke-width: 0.200000"/>
   <line x1="797.277344" y1="1106.081055" x2="747.692017" y2="1106.081055" style="stroke: green; stroke-width: 0.200000"/>
   <line x1="797.277344" y1="1105.081055" x2="747.766479" y2="1105.081055" style="stroke: green; stroke-width: 0.200000"/>
   <line x1="847.377380" y1="1154.081055" x2="797.377380" y2="1154.081055" style="stroke: green; stroke-width: 0.200000"/>
   <line x1="847.377380" y1="1153.081055" x2="797.377380" y2="1153.081055" style="stroke: green; stroke-width: 0.200000"/>
   <line x1="847.377380" y1="1152.081055" x2="797.377380" y2="1152.081055" style="stroke: green; stroke-width: 0.200000"/>
   <line x1="847.377380" y1="1151.081055" x2="797.377380" y2="1151.081055" style="stroke: green; stroke-width: 0.200000"/>
   <line x1="847.377380" y1="1150.081055" x2="797.377380" y2="1150.081055" style="stroke: green; stroke-width: 0.200000"/>
   <line x1="847.377380" y1="1149.081055" x2="797.377380" y2="1149.081055" style="stroke: green; stroke-width: 0.200000"/>
   <line x1="847.377380" y1="1148.081055" x2="797.377380" y2="1148.081055" style="stroke: green; stroke-width: 0.200000"/>
   <line x1="847.377380" y1="1147.081055" x2="797.377380" y2="1147.081055" style="stroke: green; stroke-width: 0.200000"/>
   <line x1="847.377380" y1="1146.081055" x2="797.377380" y2="1146.081055" style="stroke: green; stroke-width: 0.200000"/>
   <line x1="847.377380" y1="1145.081055" x2="797.377380" y2="1145.081055" style="stroke: green; stroke-width: 0.200000"/>
   <line x1="847.377380" y1="1144.081055" x2="797.377380" y2="1144.081055" style="stroke: green; stroke-width: 0.200000"/>
   <line x1="847.377380" y1="1143.081055" x2="797.377380" y2="1143.081055" style="stroke: green; stroke-width: 0.200000"/>
   <line x1="847.377380" y1="1142.081055" x2="797.377380" y2="1142.081055" style="stroke: green; stroke-width: 0.200000"/>
   <line x1="847.377380" y1="1141.081055" x2="797.377380" y2="1141.081055" style="stroke: green; stroke-width: 0.200000"/>
   <line x1="847.377380" y1="1140.081055" x2="797.377380" y2="1140.081055" style="stroke: green; stroke-width: 0.200000"/>
   <line x1="847.377380" y1="1139.081055" x2="797.377380" y2="1139.081055" style="stroke: green; stroke-width: 0.200000"/>
   <line x1="847.377380" y1="1138.081055" x2="797.377380" y2="1138.081055" style="stroke: green; stroke-width: 0.200000"/>
   <line x1="847.377380" y1="1137.081055" x2="797.377380" y2="1137.081055" style="stroke: green; stroke-width: 0.200000"/>
   <line x1="847.377380" y1="1136.081055" x2="797.377380" y2="1136.081055" style="stroke: green; stroke-width: 0.200000"/>
   <line x1="847.377380" y1="1135.081055" x2="797.377380" y2="1135.081055" style="stroke: green; stroke-width: 0.200000"/>
   <line x1="847.377380" y1="1134.081055" x2="797.377380" y2="1134.081055" style="stroke: green; stroke-width: 0.200000"/>
   <line x1="847.377380" y1="1133.081055" x2="797.377380" y2="1133.081055" style="stroke: green; stroke-width: 0.200000"/>
   <line x1="847.377380" y1="1132.081055" x2="797.377380" y2="1132.081055" style="stroke: green; stroke-width: 0.200000"/>
   <line x1="847.377380" y1="1131.081055" x2="797.377380" y2="1131.081055" style="stroke: green; stroke-width: 0.200000"/>
   <line x1="847.377380" y1="1130.081055" x2="797.377380" y2="1130.081055" style="stroke: green; stroke-width: 0.200000"/>
   <line x1="847.377380" y1="1129.081055" x2="797.377380" y2="1129.081055" style="stroke: green; stroke-width: 0.200000"/>
   <line x1="847.377380" y1="1128.081055" x2="797.377380" y2="1128.081055" style="stroke: green; stroke-width: 0.200000"/>
   <line x1="847.377380" y1="1127.081055" x2="797.377380" y2="1127.081055" style="stroke: green; stroke-width: 0.200000"/>
   <line x1="847.377380" y1="1126.081055" x2="797.377380" y2="1126.081055" style="stroke: green; stroke-width: 0.200000"/>
   <line x1="847.377380" y1="1125.081055" x2="797.377380" y2="1125.081055" style="stroke: green; stroke-width: 0.200000"/>
   <line x1="847.377380" y1="1124.081055" x2="797.377380" y2="1124.081055" style="stroke: green; stroke-width: 0.200000"/>
   <line x1="847.377380" y1="1123.081055" x2="797.377380" y2="1123.081055" style="stroke: green; stroke-width: 0.200000"/>
   <line x1="847.377380" y1="1122.081055" x2="797.377380" y2="1122.081055" style="stroke: green; stroke-width: 0.200000"/>
   <line x1="847.377380" y1="1121.081055" x2="797.377380" y2="1121.081055" style="stroke: green; stroke-width: 0.200000"/>
   <line x1="847.377380" y1="1120.081055" x2="797.377380" y2="1120.081055" style="stroke: green; stroke-width: 0.200000"/>
   <line x1="847.377380" y1="1119.081055" x2="797.377380" y2="1119.081055" style="stroke: green; stroke-width: 0.200000"/>
   <line x1="847.377380" y1="1118.081055" x2="797.377380" y2="1118.081055" style="stroke: green; stroke-width: 0.200000"/>
   <line x1="847.377380" y1="1117.081055" x2="797.377380" y2="1117.081055" style="stroke: green; stroke-width: 0.200000"/>
   <line x1="847.377380" y1="1116.081055" x2="797.377380" y2="1116.081055" style="stroke: green; stroke-width: 0.200000"/>
   <line x1="847.377380" y1="1115.081055" x2="797.377380" y2="1115.081055" style="stroke: green; stroke-width: 0.200000"/>
   <line x1="847.377380" y1="1114.081055" x2="797.377380" y2="1114.081055" style="stroke: green; stroke-width: 0.200000"/>
   <line x1="847.377380" y1="1113.081055" x2="797.377380" y2="1113.081055" style="stroke: green; stroke-width: 0.200000"/>
   <line x1="847.377380" y1="1112.081055" x2="797.377380" y2="1112.081055" style="stroke: green; stroke-width: 0.200000"/>
   <line x1="847.377380" y1="1111.081055" x2="797.377380" y2="1111.081055" style="stroke: green; stroke-width: 0.200000"/>
   <line x1="847.377380" y1="1110.081055" x2="797.377380" y2="1110.081055" style="stroke: green; stroke-width: 0.200000"/>
   <line x1="847.377380" y1="1109.081055" x2="797.377380" y2="1109.081055" style="stroke: green; stroke-width: 0.200000"/>
   <line x1="847.377380" y1="1108.081055" x2="797.377380" y2="1108.081055" style="stroke: green; stroke-width: 0.200000"/>
   <line x1="847.377380" y1="1107.081055" x2="797.377380" y2="1107.081055" style="stroke: green; stroke-width: 0.200000"/>
   <line x1="847.377380" y1="1106.081055" x2="797.377380" y2="1106.081055" style="stroke: green; stroke-width: 0.200000"/>
   <line x1="847.377380" y1="1105.081055" x2="797.377380" y2="1105.081055" style="stroke: green; stroke-width: 0.200000"/>
   <line x1="897.477417" y1="1154.081055" x2="847.477417" y2="1154.081055" style="stroke: green; stroke-width: 0.200000"/>
   <line x1="897.477417" y1="1153.081055" x2="847.477417" y2="1153.081055" style="stroke: green; stroke-width: 0.200000"/>
   <line x1="897.477417" y1="1152.081055" x2="847.477417" y2="1152.081055" style="stroke: green; stroke-width: 0.200000"/>
   <line x1="897.477417" y1="1151.081055" x2="847.477417" y2="1151.081055" style="stroke: green; stroke-width: 0.200000"/>
   <line x1="897.477417" y1="1150.081055" x2="847.477417" y2="1150.081055" style="stroke: green; stroke-width: 0.200000"/>
   <line x1="897.477417" y1="1149.081055" x2="847.477417" y2="1149.081055" style="stroke: green; stroke-width: 0.200000"/>
   <line x1="897.477417" y1="1148.081055" x2="847.477417" y2="1148.081055" style="stroke: green; stroke-width: 0.200000"/>
   <line x1="897.477417" y1="1147.081055" x2="847.477417" y2="1147.081055" style="stroke: green; stroke-width: 0.200000"/>
   <line x1="897.477417" y1="1146.081055" x2="847.477417" y2="1146.081055" style="stroke: green; stroke-width: 0.200000"/>
   <line x1="897.477417" y1="1145.081055" x2="847.477417" y2="1145.081055" style="stroke: green; stroke-width: 0.200000"/>
   <line x1="897.477417" y1="1144.081055" x2="847.477417" y2="1144.081055" style="stroke: green; stroke-width: 0.200000"/>
   <line x1="897.477417" y1="1143.081055" x2="847.477417" y2="1143.081055" style="stroke: green; stroke-width: 0.200000"/>
   <line x1="897.477417" y1="1142.081055" x2="847.477417" y2="1142.081055" style="stroke: green; stroke-width: 0.200000"/>
   <line x1="897.477417" y1="1141.081055" x2="847.477417" y2="1141.081055" style="stroke: green; stroke-width: 0.200000"/>
   <line x1="897.477417" y1="1140.081055" x2="847.477417" y2="1140.081055" style="stroke: green; stroke-width: 0.200000"/>
   <line x1="897.477417" y1="1139.081055" x2="847.477417" y2="1139.081055" style="stroke: green; stroke-width: 0.200000"/>
   <line x1="897.477417" y1="1138.081055" x2="847.477417" y2="1138.081055" style="stroke: green; stroke-width: 0.200000"/>
   <line x1="897.477417" y1="1137.081055" x2="847.477417" y2="1137.081055" style="stroke: green; stroke-width: 0.200000"/>
   <line x1="897.477417" y1="1136.081055" x2="847.477417" y2="1136.081055" style="stroke: green; stroke-width: 0.200000"/>
   <line x1="897.477417" y1="1135.081055" x2="847.477417" y2="1135.081055" style="stroke: green; stroke-width: 0.200000"/>
   <line x1="897.477417" y1="1134.081055" x2="847.477417" y2="1134.081055" style="stroke: green; stroke-width: 0.200000"/>
   <line x1="897.477417" y1="1133.081055" x2="847.477417" y2="1133.081055" style="stroke: green; stroke-width: 0.200000"/>
   <line x1="897.477417" y1="1132.081055" x2="847.477417" y2="1132.081055" style="stroke: green; stroke-width: 0.200000"/>
   <line x1="897.477417" y1="1131.081055" x2="847.477417" y2="1131.081055" style="stroke: green; stroke-width: 0.200000"/>
   <line x1="897.477417" y1="1130.081055" x2="847.477417" y2="1130.081055" style="stroke: green; stroke-width: 0.200000"/>
   <line x1="897.477417" y1="1129.081055" x2="847.477417" y2="1129.081055" style="stroke: green; stroke-width: 0.200000"/>
   <line x1="897.477417" y1="1128.081055" x2="847.477417" y2="1128.081055" style="stroke: green; stroke-width: 0.200000"/>
   <line x1="897.477417" y1="1127.081055" x2="847.477417" y2="1127.081055" style="stroke: green; stroke-width: 0.200000"/>
   <line x1="897.477417" y1="1126.081055" x2="847.477417" y2="1126.081055" style="stroke: green; stroke-width: 0.200000"/>
   <line x1="897.477417" y1="1125.081055" x2="847.477417" y2="1125.081055" style="stroke: green; stroke-width: 0.200000"/>
   <line x1="897.477417" y1="1124.081055" x2="847.477417" y2="1124.081055" style="stroke: green; stroke-width: 0.200000"/>
   <line x1="897.477417" y1="1123.081055" x2="847.477417" y2="1123.081055" style="stroke: green; stroke-width: 0.200000"/>
   <line x1="897.477417" y1="1122.081055" x2="847.477417" y2="1122.081055" style="stroke: green; stroke-width: 0.200000"/>
   <line x1="897.477417" y1="1121.081055" x2="847.477417" y2="1121.081055" style="stroke: green; stroke-width: 0.200000"/>
   <line x1="897.477417" y1="1120.081055" x2="847.477417" y2="1120.081055" style="stroke: green; stroke-width: 0.200000"/>
   <line x1="897.477417" y1="1119.081055" x2="847.477417" y2="1119.081055" style="stroke: green; stroke-width: 0.200000"/>
   <line x1="897.477417" y1="1118.081055" x2="847.477417" y2="1118.081055" style="stroke: green; stroke-width: 0.200000"/>
   <line x1="897.477417" y1="1117.081055" x2="847.477417" y2="1117.081055" style="stroke: green; stroke-width: 0.200000"/>
   <line x1="897.477417" y1="1116.081055" x2="847.477417" y2="1116.081055" style="stroke: green; stroke-width: 0.200000"/>
   <line x1="897.477417" y1="1115.081055" x2="847.477417" y2="1115.081055" style="stroke: green; stroke-width: 0.200000"/>
   <line x1="897.477417" y1="1114.081055" x2="847.477417" y2="1114.081055" style="stroke: green; stroke-width: 0.200000"/>
   <line x1="897.477417" y1="1113.081055" x2="847.477417" y2="1113.081055" style="stroke: green; stroke-width: 0.200000"/>
   <line x1="897.477417" y1="1112.081055" x2="847.477417" y2="1112.081055" style="stroke: green; stroke-width: 0.200000"/>
   <line x1="897.477417" y1="1111.081055" x2="847.477417" y2="1111.081055" style="stroke: green; stroke-width: 0.200000"/>
   <line x1="897.477417" y1="1110.081055" x2="847.477417" y2="1110.081055" style="stroke: green; stroke-width: 0.200000"/>
   <line x1="897.477417" y1="1109.081055" x2="847.477417" y2="1109.081055" style="stroke: green; stroke-width: 0.200000"/>
   <line x1="897.477417" y1="1108.081055" x2="847.477417" y2="1108.081055" style="stroke: green; stroke-width: 0.200000"/>
   <line x1="897.477417" y1="1107.081055" x2="847.477417" y2="1107.081055" style="stroke: green; stroke-width: 0.200000"/>
   <line x1="897.477417" y1="1106.081055" x2="847.477417" y2="1106.081055" style="stroke: green; stroke-width: 0.200000"/>
   <line x1="897.477417" y1="1105.081055" x2="847.477417" y2="1105.081055" style="stroke: green; stroke-width: 0.200000"/>
   <line x1="901.407715" y1="1154.081055" x2="897.577393" y2="1154.081055" style="stroke: green; stroke-width: 0.200000"/>
   <line x1="901.653809" y1="1153.081055" x2="897.577393" y2="1153.081055" style="stroke: green; stroke-width: 0.200000"/>
   <line x1="901.917969" y1="1152.081055" x2="897.577393" y2="1152.081055" style="stroke: green; stroke-width: 0.200000"/>
   <line x1="902.348328" y1="1151.081055" x2="897.577393" y2="1151.081055" style="stroke: green; stroke-width: 0.200000"/>
   <line x1="902.765198" y1="1150.081055" x2="897.577393" y2="1150.081055" style="stroke: green; stroke-width: 0.200000"/>
   <line x1="902.942261" y1="1149.081055" x2="897.577393" y2="1149.081055" style="stroke: green; stroke-width: 0.200000"/>
   <line x1="903.101257" y1="1148.081055" x2="897.577393" y2="1148.081055" style="stroke: green; stroke-width: 0.200000"/>
   <line x1="903.260254" y1="1147.081055" x2="897.577393" y2="1147.081055" style="stroke: green; stroke-width: 0.200000"/>
   <line x1="903.419250" y1="1146.081055" x2="897.577393" y2="1146.081055" style="stroke: green; stroke-width: 0.200000"/>
   <line x1="903.578369" y1="1145.081055" x2="897.577393" y2="1145.081055" style="stroke: green; stroke-width: 0.200000"/>
   <line x1="903.737305" y1="1144.081055" x2="897.577393" y2="1144.081055" style="stroke: green; stroke-width: 0.200000"/>
   <line x1="903.896362" y1="1143.081055" x2="897.577393" y2="1143.081055" style="stroke: green; stroke-width: 0.200000"/>
   <line x1="904.055298" y1="1142.081055" x2="897.577393" y2="1142.081055" style="stroke: green; stroke-width: 0.200000"/>
   <line x1="904.214355" y1="1141.081055" x2="897.577393" y2="1141.081055" style="stroke: green; stroke-width: 0.200000"/>
   <line x1="904.373413" y1="1140.081055" x2="897.577393" y2="1140.081055" style="stroke: green; stroke-width: 0.200000"/>
   <line x1="904.532410" y1="1139.081055" x2="897.577393" y2="1139.081055" style="stroke: green; stroke-width: 0.200000"/>
   <line x1="904.691406" y1="1138.081055" x2="897.577393" y2="1138.081055" style="stroke: green; stroke-width: 0.200000"/>
   <line x1="904.666626" y1="1137.081055" x2="897.577393" y2="1137.081055" style="stroke: green; stroke-width: 0.200000"/>
   <line x1="904.594604" y1="1136.081055" x2="897.577393" y2="1136.081055" style="stroke: green; stroke-width: 0.200000"/>
   <line x1="904.522583" y1="1135.081055" x2="897.577393" y2="1135.081055" style="stroke: green; stroke-width: 0.200000"/>
   <line x1="904.450562" y1="1134.081055" x2="897.577393" y2="1134.081055" style="stroke: green; stroke-width: 0.200000"/>
   <line x1="904.378540" y1="1133.081055" x2="897.577393" y2="1133.081055" style="stroke: green; stroke-width: 0.200000"/>
   <line x1="904.306519" y1="1132.081055" x2="897.577393" y2="1132.081055" style="stroke: green; stroke-width: 0.200000"/>
   <line x1="904.234497" y1="1131.081055" x2="897.577393" y2="1131.081055" style="stroke: green; stroke-width: 0.200000"/>
   <line x1="904.162476" y1="1130.081055" x2="897.577393" y2="1130.081055" style="stroke: green; stroke-width: 0.200000"/>
   <line x1="904.090454" y1="1129.081055" x2="897.577393" y2="1129.081055" style="stroke: green; stroke-width: 0.200000"/>
   <line x1="904.018311" y1="1128.081055" x2="897.577393" y2="1128.081055" style="stroke: green; stroke-width: 0.200000"/>
   <line x1="903.946289" y1="1127.081055" x2="897.577393" y2="1127.081055" style="stroke: green; stroke-width: 0.200000"/>
   <line x1="903.767334" y1="1126.081055" x2="897.577393" y2="1126.081055" style="stroke: green; stroke-width: 0.200000"/>
   <line x1="903.565735" y1="1125.081055" x2="897.577393" y2="1125.081055" style="stroke: green; stroke-width: 0.200000"/>
   <line x1="903.364258" y1="1124.081055" x2="897.577393" y2="1124.081055" style="stroke: green; stroke-width: 0.200000"/>
   <line x1="903.162720" y1="1123.081055" x2="897.577393" y2="1123.081055" style="stroke: green; stroke-width: 0.200000"/>
   <line x1="902.961121" y1="1122.081055" x2="897.577393" y2="1122.081055" style="stroke: green; stroke-width: 0.200000"/>
   <line x1="902.759521" y1="1121.081055" x2="897.577393" y2="1121.081055" style="stroke: green; stroke-width: 0.200000"/>
   <line x1="902.558044" y1="1120.081055" x2="897.577393" y2="1120.081055" style="stroke: green; stroke-width: 0.200000"/>
   <line x1="902.356506" y1="1119.081055" x2="897.577393" y2="1119.081055" style="stroke: green; stroke-width: 0.200000"/>
   <line x1="902.154907" y1="1118.081055" x2="897.577393" y2="1118.081055" style="stroke: green; stroke-width: 0.200000"/>
   <line x1="901.953430" y1="1117.081055" x2="897.577393" y2="1117.081055" style="stroke: green; stroke-width: 0.200000"/>
   <line x1="901.744751" y1="1116.081055" x2="897.577393" y2="1116.081055" style="stroke: green; stroke-width: 0.200000"/>
   <line x1="901.515442" y1="1115.081055" x2="897.577393" y2="1115.081055" style="stroke: green; stroke-width: 0.200000"/>
   <line x1="901.286072" y1="1114.081055" x2="897.577393" y2="1114.081055" style="stroke: green; stroke-width: 0.200000"/>
   <line x1="901.006470" y1="1113.081055" x2="897.577393" y2="1113.081055" style="stroke: green; stroke-width: 0.200000"/>
   <line x1="900.720581" y1="1112.081055" x2="897.577393" y2="1112.081055" style="stroke: green; stroke-width: 0.200000"/>
   <line x1="900.434692" y1="1111.081055" x2="897.577393" y2="1111.081055" style="stroke: green; stroke-width: 0.200000"/>
   <line x1="900.148865" y1="1110.081055" x2="897.577393" y2="1110.081055" style="stroke: green; stroke-width: 0.200000"/>
   <line x1="899.863037" y1="1109.081055" x2="897.577393" y2="1109.081055" style="stroke: green; stroke-width: 0.200000"/>
   <line x1="899.577148" y1="1108.081055" x2="897.577393" y2="1108.081055" style="stroke: green; stroke-width: 0.200000"/>
   <line x1="899.291321" y1="1107.081055" x2="897.577393" y2="1107.081055" style="stroke: green; stroke-width: 0.200000"/>
   <line x1="899.005432" y1="1106.081055" x2="897.577393" y2="1106.081055" style="stroke: green; stroke-width: 0.200000"/>
   <line x1="898.719543" y1="1105.081055" x2="897.577393" y2="1105.081055" style="stroke: green; stroke-width: 0.200000"/>
   <line x1="797.277344" y1="1197.081055" x2="795.738831" y2="1197.081055" style="stroke: green; stroke-width: 0.200000"/>
   <line x1="797.277344" y1="1196.081055" x2="793.649353" y2="1196.081055" style="stroke: green; stroke-width: 0.200000"/>
   <line x1="797.277344" y1="1195.081055" x2="791.903931" y2="1195.081055" style="stroke: green; stroke-width: 0.200000"/>
   <line x1="797.277344" y1="1194.081055" x2="790.279236" y2="1194.081055" style="stroke: green; stroke-width: 0.200000"/>
   <line x1="797.277344" y1="1193.081055" x2="788.654541" y2="1193.081055" style="stroke: green; stroke-width: 0.200000"/>
   <line x1="797.277344" y1="1192.081055" x2="787.029907" y2="1192.081055" style="stroke: green; stroke-width: 0.200000"/>
   <line x1="797.277344" y1="1191.081055" x2="785.322876" y2="1191.081055" style="stroke: green; stroke-width: 0.200000"/>
   <line x1="797.277344" y1="1190.081055" x2="783.833313" y2="1190.081055" style="stroke: green; stroke-width: 0.200000"/>
   <line x1="797.277344" y1="1189.081055" x2="782.409180" y2="1189.081055" style="stroke: green; stroke-width: 0.200000"/>
   <line x1="797.277344" y1="1188.081055" x2="780.985107" y2="1188.081055" style="stroke: green; stroke-width: 0.200000"/>
   <line x1="797.277344" y1="1187.081055" x2="779.561035" y2="1187.081055" style="stroke: green; stroke-width: 0.200000"/>
   <line x1="797.277344" y1="1186.081055" x2="778.136841" y2="1186.081055" style="stroke: green; stroke-width: 0.200000"/>
   <line x1="797.277344" y1="1185.081055" x2="776.930298" y2="1185.081055" style="stroke: green; stroke-width: 0.200000"/>
   <line x1="797.277344" y1="1184.081055" x2="775.769287" y2="1184.081055" style="stroke: green; stroke-width: 0.200000"/>
   <line x1="797.277344" y1="1183.081055" x2="774.697205" y2="1183.081055" style="stroke: green; stroke-width: 0.200000"/>
   <line x1="797.277344" y1="1182.081055" x2="773.667908" y2="1182.081055" style="stroke: green; stroke-width: 0.200000"/>
   <line x1="797.277344" y1="1181.081055" x2="772.638611" y2="1181.081055" style="stroke: green; stroke-width: 0.200000"/>
   <line x1="797.277344" y1="1180.081055" x2="771.609253" y2="1180.081055" style="stroke: green; stroke-width: 0.200000"/>
   <line x1="797.277344" y1="1179.081055" x2="770.579956" y2="1179.081055" style="stroke: green; stroke-width: 0.200000"/>
   <line x1="797.277344" y1="1178.081055" x2="769.662354" y2="1178.081055" style="stroke: green; stroke-width: 0.200000"/>
   <line x1="797.277344" y1="1177.081055" x2="768.768616" y2="1177.081055" style="stroke: green; stroke-width: 0.200000"/>
   <line x1="797.277344" y1="1176.081055" x2="767.874817" y2="1176.081055" style="stroke: green; stroke-width: 0.200000"/>
   <line x1="797.277344" y1="1175.081055" x2="766.981140" y2="1175.081055" style="stroke: green; stroke-width: 0.200000"/>
   <line x1="797.277344" y1="1174.081055" x2="766.181030" y2="1174.081055" style="stroke: green; stroke-width: 0.200000"/>
   <line x1="797.277344" y1="1173.081055" x2="765.434692" y2="1173.081055" style="stroke: green; stroke-width: 0.200000"/>
   <line x1="797.277344" y1="1172.081055" x2="764.688416" y2="1172.081055" style="stroke: green; stroke-width: 0.200000"/>
   <line x1="797.277344" y1="1171.081055" x2="763.942139" y2="1171.081055" style="stroke: green; stroke-width: 0.200000"/>
   <line x1="797.277344" y1="1170.081055" x2="763.195740" y2="1170.081055" style="stroke: green; stroke-width: 0.200000"/>
   <line x1="797.277344" y1="1169.081055" x2="762.449402" y2="1169.081055" style="stroke: green; stroke-width: 0.200000"/>
   <line x1="797.277344" y1="1168.081055" x2="761.865967" y2="1168.081055" style="stroke: green; stroke-width: 0.200000"/>
   <line x1="797.277344" y1="1167.081055" x2="761.324768" y2="1167.081055" style="stroke: green; stroke-width: 0.200000"/>
   <line x1="797.277344" y1="1166.081055" x2="760.783569" y2="1166.081055" style="stroke: green; stroke-width: 0.200000"/>
   <line x1="797.277344" y1="1165.081055" x2="760.228760" y2="1165.081055" style="stroke: green; stroke-width: 0.200000"/>
   <line x1="797.277344" y1="1164.081055" x2="759.673462" y2="1164.081055" style="stroke: green; stroke-width: 0.200000"/>
   <line x1="797.277344" y1="1163.081055" x2="759.118164" y2="1163.081055" style="stroke: green; stroke-width: 0.200000"/>
   <line x1="797.277344" y1="1162.081055" x2="758.562988" y2="1162.081055" style="stroke: green; stroke-width: 0.200000"/>
   <line x1="797.277344" y1="1161.081055" x2="758.007751" y2="1161.081055" style="stroke: green; stroke-width: 0.200000"/>
   <line x1="797.277344" y1="1160.081055" x2="757.452515" y2="1160.081055" style="stroke: green; stroke-width: 0.200000"/>
   <line x1="797.277344" y1="1159.081055" x2="756.897278" y2="1159.081055" style="stroke: green; stroke-width: 0.200000"/>
   <line x1="797.277344" y1="1158.081055" x2="756.342041" y2="1158.081055" style="stroke: green; stroke-width: 0.200000"/>
   <line x1="797.277344" y1="1157.081055" x2="755.829346" y2="1157.081055" style="stroke: green; stroke-width: 0.200000"/>
   <line x1="797.277344" y1="1156.081055" x2="755.466431" y2="1156.081055" style="stroke: green; stroke-width: 0.200000"/>
   <line x1="797.277344" y1="1155.081055" x2="755.103638" y2="1155.081055" style="stroke: green; stroke-width: 0.200000"/>
   <line x1="842.147705" y1="1204.081055" x2="813.908630" y2="1204.081055" style="stroke: green; stroke-width: 0.200000"/>
   <line x1="846.648071" y1="1203.081055" x2="810.253662" y2="1203.081055" style="stroke: green; stroke-width: 0.200000"/>
   <line x1="847.377380" y1="1202.081055" x2="807.447998" y2="1202.081055" style="stroke: green; stroke-width: 0.200000"/>
   <line x1="847.377380" y1="1201.081055" x2="804.860718" y2="1201.081055" style="stroke: green; stroke-width: 0.200000"/>
   <line x1="847.377380" y1="1200.081055" x2="802.273438" y2="1200.081055" style="stroke: green; stroke-width: 0.200000"/>
   <line x1="847.377380" y1="1199.081055" x2="799.917847" y2="1199.081055" style="stroke: green; stroke-width: 0.200000"/>
   <line x1="847.377380" y1="1198.081055" x2="797.828369" y2="1198.081055" style="stroke: green; stroke-width: 0.200000"/>
   <line x1="847.377380" y1="1197.081055" x2="797.377380" y2="1197.081055" style="stroke: green; stroke-width: 0.200000"/>
   <line x1="847.377380" y1="1196.081055" x2="797.377380" y2="1196.081055" style="stroke: green; stroke-width: 0.200000"/>
   <line x1="847.377380" y1="1195.081055" x2="797.377380" y2="1195.081055" style="stroke: green; stroke-width: 0.200000"/>
   <line x1="847.377380" y1="1194.081055" x2="797.377380" y2="1194.081055" style="stroke: green; stroke-width: 0.200000"/>
   <line x1="847.377380" y1="1193.081055" x2="797.377380" y2="1193.081055" style="stroke: green; stroke-width: 0.200000"/>
   <line x1="847.377380" y1="1192.081055" x2="797.377380" y2="1192.081055" style="stroke: green; stroke-width: 0.200000"/>
   <line x1="847.377380" y1="1191.081055" x2="797.377380" y2="1191.081055" style="stroke: green; stroke-width: 0.200000"/>
   <line x1="847.377380" y1="1190.081055" x2="797.377380" y2="1190.081055" style="stroke: green; stroke-width: 0.200000"/>
   <line x1="847.377380" y1="1189.081055" x2="797.377380" y2="1189.081055" style="stroke: green; stroke-width: 0.200000"/>
   <line x1="847.377380" y1="1188.081055" x2="797.377380" y2="1188.081055" style="stroke: green; stroke-width: 0.200000"/>
   <line x1="847.377380" y1="1187.081055" x2="797.377380" y2="1187.081055" style="stroke: green; stroke-width: 0.200000"/>
   <line x1="847.377380" y1="1186.081055" x2="797.377380" y2="1186.081055" style="stroke: green; stroke-width: 0.200000"/>
   <line x1="847.377380" y1="1185.081055" x2="797.377380" y2="1185.081055" style="stroke: green; stroke-width: 0.200000"/>
   <line x1="847.377380" y1="1184.081055" x2="797.377380" y2="1184.081055" style="stroke: green; stroke-width: 0.200000"/>
   <line x1="847.377380" y1="1183.081055" x2="797.377380" y2="1183.081055" style="stroke: green; stroke-width: 0.200000"/>
   <line x1="847.377380" y1="1182.081055" x2="797.377380" y2="1182.081055" style="stroke: green; stroke-width: 0.200000"/>
   <line x1="847.377380" y1="1181.081055" x2="797.377380" y2="1181.081055" style="stroke: green; stroke-width: 0.200000"/>
   <line x1="847.377380" y1="1180.081055" x2="797.377380" y2="1180.081055" style="stroke: green; stroke-width: 0.200000"/>
   <line x1="847.377380" y1="1179.081055" x2="797.377380" y2="1179.081055" style="stroke: green; stroke-width: 0.200000"/>
   <line x1="847.377380" y1="1178.081055" x2="797.377380" y2="1178.081055" style="stroke: green; stroke-width: 0.200000"/>
   <line x1="847.377380" y1="1177.081055" x2="797.377380" y2="1177.081055" style="stroke: green; stroke-width: 0.200000"/>
   <line x1="847.377380" y1="1176.081055" x2="797.377380" y2="1176.081055" style="stroke: green; stroke-width: 0.200000"/>
   <line x1="847.377380" y1="1175.081055" x2="797.377380" y2="1175.081055" style="stroke: green; stroke-width: 0.200000"/>
   <line x1="847.377380" y1="1174.081055" x2="797.377380" y2="1174.081055" style="stroke: green; stroke-width: 0.200000"/>
   <line x1="847.377380" y1="1173.081055" x2="797.377380" y2="1173.081055" style="stroke: green; stroke-width: 0.200000"/>
   <line x1="847.377380" y1="1172.081055" x2="797.377380" y2="1172.081055" style="stroke: green; stroke-width: 0.200000"/>
   <line x1="847.377380" y1="1171.081055" x2="797.377380" y2="1171.081055" style="stroke: green; stroke-width: 0.200000"/>
   <line x1="847.377380" y1="1170.081055" x2="797.377380" y2="1170.081055" style="stroke: green; stroke-width: 0.200000"/>
   <line x1="847.377380" y1="1169.081055" x2="797.377380" y2="1169.081055" style="stroke: green; stroke-width: 0.200000"/>
   <line x1="847.377380" y1="1168.081055" x2="797.377380" y2="1168.081055" style="stroke: green; stroke-width: 0.200000"/>
   <line x1="847.377380" y1="1167.081055" x2="797.377380" y2="1167.081055" style="stroke: green; stroke-width: 0.200000"/>
   <line x1="847.377380" y1="1166.081055" x2="797.377380" y2="1166.081055" style="stroke: green; stroke-width: 0.200000"/>
   <line x1="847.377380" y1="1165.081055" x2="797.377380" y2="1165.081055" style="stroke: green; stroke-width: 0.200000"/>
   <line x1="847.377380" y1="1164.081055" x2="797.377380" y2="1164.081055" style="stroke: green; stroke-width: 0.200000"/>
   <line x1="847.377380" y1="1163.081055" x2="797.377380" y2="1163.081055" style="stroke: green; stroke-width: 0.200000"/>
   <line x1="847.377380" y1="1162.081055" x2="797.377380" y2="1162.081055" style="stroke: green; stroke-width: 0.200000"/>
   <line x1="847.377380" y1="1161.081055" x2="797.377380" y2="1161.081055" style="stroke: green; stroke-width: 0.200000"/>
   <line x1="847.377380" y1="1160.081055" x2="797.377380" y2="1160.081055" style="stroke: green; stroke-width: 0.200000"/>
   <line x1="847.377380" y1="1159.081055" x2="797.377380" y2="1159.081055" style="stroke: green; stroke-width: 0.200000"/>
   <line x1="847.377380" y1="1158.081055" x2="797.377380" y2="1158.081055" style="stroke: green; stroke-width: 0.200000"/>
   <line x1="847.377380" y1="1157.081055" x2="797.377380" y2="1157.081055" style="stroke: green; stroke-width: 0.200000"/>
   <line x1="847.377380" y1="1156.081055" x2="797.377380" y2="1156.081055" style="stroke: green; stroke-width: 0.200000"/>
   <line x1="847.377380" y1="1155.081055" x2="797.377380" y2="1155.081055" style="stroke: green; stroke-width: 0.200000"/>
   <line x1="850.532715" y1="1202.081055" x2="847.477417" y2="1202.081055" style="stroke: green; stroke-width: 0.200000"/>
   <line x1="854.310059" y1="1201.081055" x2="847.477417" y2="1201.081055" style="stroke: green; stroke-width: 0.200000"/>
   <line x1="856.886475" y1="1200.081055" x2="847.477417" y2="1200.081055" style="stroke: green; stroke-width: 0.200000"/>
   <line x1="859.629395" y1="1199.081055" x2="847.477417" y2="1199.081055" style="stroke: green; stroke-width: 0.200000"/>
   <line x1="862.392883" y1="1198.081055" x2="847.477417" y2="1198.081055" style="stroke: green; stroke-width: 0.200000"/>
   <line x1="865.069580" y1="1197.081055" x2="847.477417" y2="1197.081055" style="stroke: green; stroke-width: 0.200000"/>
   <line x1="867.040100" y1="1196.081055" x2="847.477417" y2="1196.081055" style="stroke: green; stroke-width: 0.200000"/>
   <line x1="869.429382" y1="1195.081055" x2="847.477417" y2="1195.081055" style="stroke: green; stroke-width: 0.200000"/>
   <line x1="871.883606" y1="1194.081055" x2="847.477417" y2="1194.081055" style="stroke: green; stroke-width: 0.200000"/>
   <line x1="874.337830" y1="1193.081055" x2="847.477417" y2="1193.081055" style="stroke: green; stroke-width: 0.200000"/>
   <line x1="876.792053" y1="1192.081055" x2="847.477417" y2="1192.081055" style="stroke: green; stroke-width: 0.200000"/>
   <line x1="878.559631" y1="1191.081055" x2="847.477417" y2="1191.081055" style="stroke: green; stroke-width: 0.200000"/>
   <line x1="880.163513" y1="1190.081055" x2="847.477417" y2="1190.081055" style="stroke: green; stroke-width: 0.200000"/>
   <line x1="881.485535" y1="1189.081055" x2="847.477417" y2="1189.081055" style="stroke: green; stroke-width: 0.200000"/>
   <line x1="882.698730" y1="1188.081055" x2="847.477417" y2="1188.081055" style="stroke: green; stroke-width: 0.200000"/>
   <line x1="883.911987" y1="1187.081055" x2="847.477417" y2="1187.081055" style="stroke: green; stroke-width: 0.200000"/>
   <line x1="885.125122" y1="1186.081055" x2="847.477417" y2="1186.081055" style="stroke: green; stroke-width: 0.200000"/>
   <line x1="886.208008" y1="1185.081055" x2="847.477417" y2="1185.081055" style="stroke: green; stroke-width: 0.200000"/>
   <line x1="887.218628" y1="1184.081055" x2="847.477417" y2="1184.081055" style="stroke: green; stroke-width: 0.200000"/>
   <line x1="888.229248" y1="1183.081055" x2="847.477417" y2="1183.081055" style="stroke: green; stroke-width: 0.200000"/>
   <line x1="889.239807" y1="1182.081055" x2="847.477417" y2="1182.081055" style="stroke: green; stroke-width: 0.200000"/>
   <line x1="890.250488" y1="1181.081055" x2="847.477417" y2="1181.081055" style="stroke: green; stroke-width: 0.200000"/>
   <line x1="891.261047" y1="1180.081055" x2="847.477417" y2="1180.081055" style="stroke: green; stroke-width: 0.200000"/>
   <line x1="892.079346" y1="1179.081055" x2="847.477417" y2="1179.081055" style="stroke: green; stroke-width: 0.200000"/>
   <line x1="892.654907" y1="1178.081055" x2="847.477417" y2="1178.081055" style="stroke: green; stroke-width: 0.200000"/>
   <line x1="893.112549" y1="1177.081055" x2="847.477417" y2="1177.081055" style="stroke: green; stroke-width: 0.200000"/>
   <line x1="893.570312" y1="1176.081055" x2="847.477417" y2="1176.081055" style="stroke: green; stroke-width: 0.200000"/>
   <line x1="894.028198" y1="1175.081055" x2="847.477417" y2="1175.081055" style="stroke: green; stroke-width: 0.200000"/>
   <line x1="894.485962" y1="1174.081055" x2="847.477417" y2="1174.081055" style="stroke: green; stroke-width: 0.200000"/>
   <line x1="894.943726" y1="1173.081055" x2="847.477417" y2="1173.081055" style="stroke: green; stroke-width: 0.200000"/>
   <line x1="895.433289" y1="1172.081055" x2="847.477417" y2="1172.081055" style="stroke: green; stroke-width: 0.200000"/>
   <line x1="895.971802" y1="1171.081055" x2="847.477417" y2="1171.081055" style="stroke: green; stroke-width: 0.200000"/>
   <line x1="896.510254" y1="1170.081055" x2="847.477417" y2="1170.081055" style="stroke: green; stroke-width: 0.200000"/>
   <line x1="897.048706" y1="1169.081055" x2="847.477417" y2="1169.081055" style="stroke: green; stroke-width: 0.200000"/>
   <line x1="897.477417" y1="1168.081055" x2="847.477417" y2="1168.081055" style="stroke: green; stroke-width: 0.200000"/>
   <line x1="897.477417" y1="1167.081055" x2="847.477417" y2="1167.081055" style="stroke: green; stroke-width: 0.200000"/>
   <line x1="897.477417" y1="1166.081055" x2="847.477417" y2="1166.081055" style="stroke: green; stroke-width: 0.200000"/>
   <line x1="897.477417" y1="1165.081055" x2="847.477417" y2="1165.081055" style="stroke: green; stroke-width: 0.200000"/>
   <line x1="897.477417" y1="1164.081055" x2="847.477417" y2="1164.081055" style="stroke: green; stroke-width: 0.200000"/>
   <line x1="897.477417" y1="1163.081055" x2="847.477417" y2="1163.081055" style="stroke: green; stroke-width: 0.200000"/>
   <line x1="897.477417" y1="1162.081055" x2="847.477417" y2="1162.081055" style="stroke: green; stroke-width: 0.200000"/>
   <line x1="897.477417" y1="1161.081055" x2="847.477417" y2="1161.081055" style="stroke: green; stroke-width: 0.200000"/>
   <line x1="897.477417" y1="1160.081055" x2="847.477417" y2="1160.081055" style="stroke: green; stroke-width: 0.200000"/>
   <line x1="897.477417" y1="1159.081055" x2="847.477417" y2="1159.081055" style="stroke: green; stroke-width: 0.200000"/>
   <line x1="897.477417" y1="1158.081055" x2="847.477417" y2="1158.081055" style="stroke: green; stroke-width: 0.200000"/>
   <line x1="897.477417" y1="1157.081055" x2="847.477417" y2="1157.081055" style="stroke: green; stroke-width: 0.200000"/>
   <line x1="897.477417" y1="1156.081055" x2="847.477417" y2="1156.081055" style="stroke: green; stroke-width: 0.200000"/>
   <line x1="897.477417" y1="1155.081055" x2="847.477417" y2="1155.081055" style="stroke: green; stroke-width: 0.200000"/>
   <line x1="897.746033" y1="1167.081055" x2="897.577393" y2="1167.081055" style="stroke: green; stroke-width: 0.200000"/>
   <line x1="897.946899" y1="1166.081055" x2="897.577393" y2="1166.081055" style="stroke: green; stroke-width: 0.200000"/>
   <line x1="898.269531" y1="1165.081055" x2="897.577393" y2="1165.081055" style="stroke: green; stroke-width: 0.200000"/>
   <line x1="898.591980" y1="1164.081055" x2="897.577393" y2="1164.081055" style="stroke: green; stroke-width: 0.200000"/>
   <line x1="898.914490" y1="1163.081055" x2="897.577393" y2="1163.081055" style="stroke: green; stroke-width: 0.200000"/>
   <line x1="899.237000" y1="1162.081055" x2="897.577393" y2="1162.081055" style="stroke: green; stroke-width: 0.200000"/>
   <line x1="899.559570" y1="1161.081055" x2="897.577393" y2="1161.081055" style="stroke: green; stroke-width: 0.200000"/>
   <line x1="899.882080" y1="1160.081055" x2="897.577393" y2="1160.081055" style="stroke: green; stroke-width: 0.200000"/>
   <line x1="900.176941" y1="1159.081055" x2="897.577393" y2="1159.081055" style="stroke: green; stroke-width: 0.200000"/>
   <line x1="900.423096" y1="1158.081055" x2="897.577393" y2="1158.081055" style="stroke: green; stroke-width: 0.200000"/>
   <line x1="900.669250" y1="1157.081055" x2="897.577393" y2="1157.081055" style="stroke: green; stroke-width: 0.200000"/>
   <line x1="900.915405" y1="1156.081055" x2="897.577393" y2="1156.081055" style="stroke: green; stroke-width: 0.200000"/>
   <line x1="901.161499" y1="1155.081055" x2="897.577393" y2="1155.081055" style="stroke: green; stroke-width: 0.200000"/>
   <line x1="836.647644" y1="1205.081055" x2="817.563477" y2="1205.081055" style="stroke: green; stroke-width: 0.200000"/>
   <line x1="1071.541870" y1="1144.351074" x2="1065.789673" y2="1144.351074" style="stroke: green; stroke-width: 0.200000"/>
   <line x1="1072.462402" y1="1143.351074" x2="1064.197388" y2="1143.351074" style="stroke: green; stroke-width: 0.200000"/>
   <line x1="1072.979858" y1="1142.351196" x2="1062.694336" y2="1142.351196" style="stroke: green; stroke-width: 0.200000"/>
   <line x1="1073.497192" y1="1141.351196" x2="1061.762451" y2="1141.351196" style="stroke: green; stroke-width: 0.200000"/>
   <line x1="1073.913940" y1="1140.351074" x2="1060.830566" y2="1140.351074" style="stroke: green; stroke-width: 0.200000"/>
   <line x1="1074.059570" y1="1139.351074" x2="1060.197632" y2="1139.351074" style="stroke: green; stroke-width: 0.200000"/>
   <line x1="1074.205200" y1="1138.351074" x2="1059.895996" y2="1138.351074" style="stroke: green; stroke-width: 0.200000"/>
   <line x1="1074.350830" y1="1137.351196" x2="1059.594238" y2="1137.351196" style="stroke: green; stroke-width: 0.200000"/>
   <line x1="1074.496460" y1="1136.351196" x2="1059.442017" y2="1136.351196" style="stroke: green; stroke-width: 0.200000"/>
   <line x1="1074.394287" y1="1135.351074" x2="1059.320190" y2="1135.351074" style="stroke: green; stroke-width: 0.200000"/>
   <line x1="1074.140503" y1="1134.351074" x2="1059.198364" y2="1134.351074" style="stroke: green; stroke-width: 0.200000"/>
   <line x1="1073.886719" y1="1133.351074" x2="1059.076538" y2="1133.351074" style="stroke: green; stroke-width: 0.200000"/>
   <line x1="1073.632935" y1="1132.351196" x2="1058.954712" y2="1132.351196" style="stroke: green; stroke-width: 0.200000"/>
   <line x1="1073.379150" y1="1131.351196" x2="1058.832886" y2="1131.351196" style="stroke: green; stroke-width: 0.200000"/>
   <line x1="1073.125488" y1="1130.351074" x2="1058.711060" y2="1130.351074" style="stroke: green; stroke-width: 0.200000"/>
   <line x1="1072.871704" y1="1129.351074" x2="1058.823120" y2="1129.351074" style="stroke: green; stroke-width: 0.200000"/>
   <line x1="1072.617920" y1="1128.351074" x2="1059.023438" y2="1128.351074" style="stroke: green; stroke-width: 0.200000"/>
   <line x1="1071.641235" y1="1127.351196" x2="1059.223633" y2="1127.351196" style="stroke: green; stroke-width: 0.200000"/>
   <line x1="1068.246338" y1="1126.351196" x2="1059.423950" y2="1126.351196" style="stroke: green; stroke-width: 0.200000"/>
   <line x1="1064.851562" y1="1125.351074" x2="1060.516235" y2="1125.351074" style="stroke: green; stroke-width: 0.200000"/>
   <path d="M 800.463  1003.36  804.714  1003.84  807.453  1004.68  814.458  1007.45  820.526  1011.09  822.528  1012.42  827.047  1016.89  829.35  1019  830.013  1019.79  831.982  1022.53  835.795  1027.5  838.229  1031.14  841.297  1035.4  847.354  1042.22  851.97  1046.03  858.159  1051.05  866.303  1056.63  869.051  1058.97  873.402  1062.6  876.399  1065.31  880.929  1069.17  887.111  1075.19  888.022  1076.33  889.743  1079.62  892.468  1085.51  893.697  1088.27  896.312  1094.67  899.735  1103.29  899.967  1103.99  902.714  1113.6  903.269  1116.02  905.39  1126.54  905.439  1126.92  906.229  1137.9  906.223  1138  904.412  1149.39  904.202  1150.57  903.303  1152.66  901.532  1159.85  899.354  1166.61  899.011  1168.54  898.51  1169.53  896.565  1173.14  893.661  1179.49  892.581  1180.88  886.564  1186.84  881.488  1191.02  877.949  1193.23  867.928  1197.31  865.451  1198.57  857.697  1201.38  854.559  1202.59  844.566  1205.17  835.784  1206.76  831.889  1207.02  826.611  1207.19  819.863  1207.06  817.798  1206.7  809.362  1204.39  808.775  1204.2  800.295  1200.92  792.388  1197.14  786.117  1193.28  784.127  1192.12  776.968  1187.09  774.379  1184.86  769.315  1179.94  765.493  1175.67  761.028  1169.68  759.453  1166.77  754.54  1157.93  753.054  1153.83  751.406  1148.69  750.961  1146.98  749.218  1139.86  747.923  1133.05  747.294  1129.57  746.642  1124.12  746.32  1120.59  746.134  1118.29  745.775  1111.89  746.261  1105.06  746.563  1102.09  748.159  1093.38  748.475  1091.8  750.747  1081.48  750.905  1080.88  752.365  1070.65  752.428  1069.43  752.052  1060.05  752.161  1056.53  753.049  1047.92  753.866  1044.13  757.887  1034.06  763.059  1025.3  769.458  1017.72  769.637  1017.51  769.806  1017.35  776.834  1011.35  783.338  1006.25  785.204  1004.99  788.516  1004.25  795.532  1002.96  800.463  1003.36  " style="fill: none; stroke: darkmagenta; stroke-width: 0.200000; fill-type: evenodd"  fill-opacity="1.000000" />
   <path d="M 800.366  1004.36  804.511  1004.83  807.122  1005.62  814.014  1008.35  819.991  1011.94  821.894  1013.2  826.358  1017.61  828.626  1019.69  829.223  1020.41  831.179  1023.13  834.982  1028.09  837.408  1031.71  840.516  1036.02  846.657  1042.94  851.337  1046.81  857.56  1051.85  865.694  1057.43  868.407  1059.73  872.747  1063.35  875.739  1066.06  880.255  1069.91  886.369  1075.86  887.181  1076.88  888.846  1080.06  891.557  1085.92  892.777  1088.67  895.385  1095.04  898.796  1103.64  899.012  1104.28  901.745  1113.85  902.292  1116.23  904.403  1126.7  904.443  1127.02  905.227  1137.9  903.426  1149.22  903.238  1150.28  902.351  1152.34  900.569  1159.58  898.381  1166.36  898.052  1168.22  897.623  1169.07  895.669  1172.7  892.799  1178.97  891.831  1180.22  885.893  1186.1  880.903  1190.21  877.493  1192.34  867.512  1196.4  865.053  1197.65  857.346  1200.44  854.252  1201.64  844.352  1204.19  835.661  1205.77  831.84  1206.02  826.605  1206.19  819.958  1206.06  818.016  1205.72  809.648  1203.43  809.109  1203.26  800.692  1200.01  792.867  1196.26  786.631  1192.42  784.667  1191.28  777.583  1186.3  775.055  1184.13  770.037  1179.25  766.268  1175.03  761.873  1169.14  760.33  1166.29  755.453  1157.51  754  1153.51  752.366  1148.41  751.93  1146.74  750.195  1139.64  748.906  1132.87  748.283  1129.42  747.636  1124.02  747.316  1120.5  747.132  1118.22  746.776  1111.9  747.258  1105.14  747.553  1102.23  749.141  1093.57  749.454  1092.01  751.719  1081.71  751.887  1081.08  753.361  1070.74  753.429  1069.43  753.053  1060.05  753.16  1056.6  754.038  1048.08  754.826  1044.42  758.787  1034.5  763.877  1025.88  770.22  1018.37  770.362  1018.2  770.475  1018.09  777.467  1012.12  783.926  1007.06  785.607  1005.93  788.716  1005.23  795.582  1003.96  800.366  1004.36  " style="fill: none; stroke: black; stroke-width: 0.200000; fill-type: evenodd"  fill-opacity="1.000000" />
   <path d="M 1072.9  1126.16  1073.45  1126.54  1073.63  1126.85  1074.02  1127.77  1076.08  1135.89  1075.32  1141.09  1073.49  1144.63  1071.49  1146.4  1066.81  1146.76  1061.86  1143.65  1059.01  1140.59  1058.07  1137.49  1057.16  1130.02  1058.06  1125.53  1060.26  1123.57  1063.26  1123.32  1072.9  1126.16  " style="fill: none; stroke: darkmagenta; stroke-width: 0.200000; fill-type: evenodd"  fill-opacity="1.000000" />
   <path d="M 1072.47  1127.07  1072.71  1127.24  1073.07  1128.08  1075.06  1135.95  1074.36  1140.78  1072.69  1144.01  1071.08  1145.43  1067.06  1145.74  1062.5  1142.87  1059.9  1140.08  1059.05  1137.29  1058.17  1130.06  1058.97  1126.05  1060.68  1124.54  1063.16  1124.33  1072.47  1127.07  " style="fill: none; stroke: black; stroke-width: 0.200000; fill-type: evenodd"  fill-opacity="1.000000" />
   <path d="M 823.6  1348.39  824.438  1349.33  824.741  1350.56  824.438  1351.79  823.6  1352.73  822.418  1353.18  821.163  1353.03  820.122  1352.31  819.535  1351.19  819.535  1349.93  820.122  1348.81  821.163  1348.09  822.418  1347.94  823.6  1348.39  " style="fill: none; stroke: purple; stroke-width: 0.500000; fill-type: evenodd"  fill-opacity="1.000000" />
   <path d="M 843.099  1348.83  843.831  1349.56  844.099  1350.56  843.831  1351.56  843.099  1352.29  842.099  1352.56  841.099  1352.29  840.367  1351.56  840.099  1350.56  840.367  1349.56  841.099  1348.83  842.099  1348.56  843.099  1348.83  " style="fill: none; stroke: purple; stroke-width: 0.500000; fill-type: evenodd"  fill-opacity="1.000000" />
   <path d="M 823.099  1328.83  823.831  1329.56  824.099  1330.56  823.831  1331.56  823.099  1332.29  822.099  1332.56  821.099  1332.29  820.367  1331.56  820.099  1330.56  820.367  1329.56  821.099  1328.83  822.099  1328.56  823.099  1328.83  " style="fill: none; stroke: purple; stroke-width: 0.500000; fill-type: evenodd"  fill-opacity="1.000000" />
   <path d="M 803.322  1308.44  804.218  1309.34  804.546  1310.56  804.218  1311.78  803.322  1312.68  802.099  1313.01  800.876  1312.68  799.981  1311.78  799.653  1310.56  799.981  1309.34  800.876  1308.44  802.099  1308.11  803.322  1308.44  " style="fill: none; stroke: purple; stroke-width: 0.500000; fill-type: evenodd"  fill-opacity="1.000000" />
   <path d="M 823.099  1308.83  823.831  1309.56  824.099  1310.56  823.831  1311.56  823.099  1312.29  822.099  1312.56  821.099  1312.29  820.367  1311.56  820.099  1310.56  820.367  1309.56  821.099  1308.83  822.099  1308.56  823.099  1308.83  " style="fill: none; stroke: purple; stroke-width: 0.500000; fill-type: evenodd"  fill-opacity="1.000000" />
   <path d="M 803.2  1288.65  804.006  1289.46  804.301  1290.56  804.006  1291.66  803.2  1292.47  802.099  1292.76  800.998  1292.47  800.193  1291.66  799.898  1290.56  800.193  1289.46  800.998  1288.65  802.099  1288.36  803.2  1288.65  " style="fill: none; stroke: purple; stroke-width: 0.500000; fill-type: evenodd"  fill-opacity="1.000000" />
   <path d="M 843.099  1288.83  843.831  1289.56  844.099  1290.56  843.831  1291.56  843.099  1292.29  842.099  1292.56  841.099  1292.29  840.367  1291.56  840.099  1290.56  840.367  1289.56  841.099  1288.83  842.099  1288.56  843.099  1288.83  " style="fill: none; stroke: purple; stroke-width: 0.500000; fill-type: evenodd"  fill-opacity="1.000000" />
   <path d="M 823.099  1288.83  823.831  1289.56  824.099  1290.56  823.831  1291.56  823.099  1292.29  822.099  1292.56  821.099  1292.29  820.367  1291.56  820.099  1290.56  820.367  1289.56  821.099  1288.83  822.099  1288.56  823.099  1288.83  " style="fill: none; stroke: purple; stroke-width: 0.500000; fill-type: evenodd"  fill-opacity="1.000000" />
   <path d="M 843.099  1268.83  843.831  1269.56  844.099  1270.56  843.831  1271.56  843.099  1272.29  842.099  1272.56  841.099  1272.29  840.367  1271.56  840.099  1270.56  840.367  1269.56  841.099  1268.83  842.099  1268.56  843.099  1268.83  " style="fill: none; stroke: purple; stroke-width: 0.500000; fill-type: evenodd"  fill-opacity="1.000000" />
   <path d="M 823.099  1268.83  823.831  1269.56  824.099  1270.56  823.831  1271.56  823.099  1272.29  822.099  1272.56  821.099  1272.29  820.367  1271.56  820.099  1270.56  820.367  1269.56  821.099  1268.83  822.099  1268.56  823.099  1268.83  " style="fill: none; stroke: purple; stroke-width: 0.500000; fill-type: evenodd"  fill-opacity="1.000000" />
   <path d="M 1005.18  1243.82  1006.95  1244.96  1008.33  1246.55  1009.21  1248.47  1009.51  1250.56  1009.21  1252.65  1008.33  1254.57  1006.95  1256.16  1005.18  1257.3  1003.15  1257.89  1001.04  1257.89  999.021  1257.3  997.247  1256.16  995.865  1254.57  994.989  1252.65  994.689  1250.56  994.989  1248.47  995.865  1246.55  997.247  1244.96  999.021  1243.82  1001.04  1243.22  1003.15  1243.22  1005.18  1243.82  " style="fill: none; stroke: purple; stroke-width: 0.500000; fill-type: evenodd"  fill-opacity="1.000000" />
   <path d="M 843.099  1248.83  843.831  1249.56  844.099  1250.56  843.831  1251.56  843.099  1252.29  842.099  1252.56  841.099  1252.29  840.367  1251.56  840.099  1250.56  840.367  1249.56  841.099  1248.83  842.099  1248.56  843.099  1248.83  " style="fill: none; stroke: purple; stroke-width: 0.500000; fill-type: evenodd"  fill-opacity="1.000000" />
   <path d="M 803.099  1248.83  803.831  1249.56  804.099  1250.56  803.831  1251.56  803.099  1252.29  802.099  1252.56  801.099  1252.29  800.367  1251.56  800.099  1250.56  800.367  1249.56  801.099  1248.83  802.099  1248.56  803.099  1248.83  " style="fill: none; stroke: purple; stroke-width: 0.500000; fill-type: evenodd"  fill-opacity="1.000000" />
   <path d="M 823.099  1248.83  823.831  1249.56  824.099  1250.56  823.831  1251.56  823.099  1252.29  822.099  1252.56  821.099  1252.29  820.367  1251.56  820.099  1250.56  820.367  1249.56  821.099  1248.83  822.099  1248.56  823.099  1248.83  " style="fill: none; stroke: purple; stroke-width: 0.500000; fill-type: evenodd"  fill-opacity="1.000000" />
   <path d="M 1004.26  1222.51  1006.27  1223.34  1007.99  1224.66  1009.32  1226.39  1010.15  1228.4  1010.44  1230.56  1010.15  1232.72  1009.32  1234.73  1007.99  1236.45  1006.27  1237.78  1004.26  1238.61  1002.1  1238.9  999.941  1238.61  997.931  1237.78  996.204  1236.45  994.879  1234.73  994.046  1232.72  993.762  1230.56  994.046  1228.4  994.879  1226.39  996.204  1224.66  997.931  1223.34  999.941  1222.51  1002.1  1222.22  1004.26  1222.51  " style="fill: none; stroke: purple; stroke-width: 0.500000; fill-type: evenodd"  fill-opacity="1.000000" />
   <path d="M 984.227  1222.62  986.21  1223.44  987.913  1224.75  989.22  1226.45  990.041  1228.43  990.322  1230.56  990.041  1232.69  989.22  1234.67  987.913  1236.37  986.21  1237.68  984.227  1238.5  982.099  1238.78  979.971  1238.5  977.988  1237.68  976.285  1236.37  974.979  1234.67  974.157  1232.69  973.877  1230.56  974.157  1228.43  974.979  1226.45  976.285  1224.75  977.988  1223.44  979.971  1222.62  982.099  1222.34  984.227  1222.62  " style="fill: none; stroke: purple; stroke-width: 0.500000; fill-type: evenodd"  fill-opacity="1.000000" />
   <path d="M 964.214  1222.67  966.184  1223.48  967.875  1224.78  969.174  1226.47  969.99  1228.44  970.268  1230.56  969.99  1232.67  969.174  1234.64  967.875  1236.34  966.184  1237.63  964.214  1238.45  962.099  1238.73  959.985  1238.45  958.015  1237.63  956.323  1236.34  955.025  1234.64  954.209  1232.67  953.931  1230.56  954.209  1228.44  955.025  1226.47  956.323  1224.78  958.015  1223.48  959.985  1222.67  962.099  1222.39  964.214  1222.67  " style="fill: none; stroke: purple; stroke-width: 0.500000; fill-type: evenodd"  fill-opacity="1.000000" />
   <path d="M 845.094  1227.56  846.012  1228.94  846.335  1230.56  846.012  1232.18  845.094  1233.55  843.72  1234.47  842.099  1234.79  840.479  1234.47  839.105  1233.55  838.187  1232.18  837.864  1230.56  838.187  1228.94  838.765  1228.07  844.339  1227.06  845.094  1227.56  " style="fill: none; stroke: purple; stroke-width: 0.500000; fill-type: evenodd"  fill-opacity="1.000000" />
   <path d="M 823.964  1228.64  824.533  1229.28  824.847  1230.56  824.533  1231.84  823.66  1232.82  822.431  1233.29  821.125  1233.13  820.042  1232.38  819.431  1231.22  819.431  1229.9  820.042  1228.74  820.287  1228.57  823.964  1228.64  " style="fill: none; stroke: purple; stroke-width: 0.500000; fill-type: evenodd"  fill-opacity="1.000000" />
   <path d="M 1005.43  1201.79  1007.43  1202.84  1009.12  1204.34  1010.41  1206.2  1011.21  1208.31  1011.48  1210.56  1011.21  1212.8  1010.41  1214.92  1009.12  1216.78  1007.43  1218.28  1005.43  1219.33  1003.23  1219.87  1000.97  1219.87  998.773  1219.33  996.77  1218.28  995.077  1216.78  993.792  1214.92  992.99  1212.8  992.718  1210.56  992.99  1208.31  993.792  1206.2  995.077  1204.34  996.77  1202.84  998.773  1201.79  1000.97  1201.25  1003.23  1201.25  1005.43  1201.79  " style="fill: none; stroke: purple; stroke-width: 0.500000; fill-type: evenodd"  fill-opacity="1.000000" />
   <path d="M 925.368  1201.94  927.336  1202.97  928.999  1204.45  930.262  1206.28  931.05  1208.35  931.318  1210.56  931.05  1212.77  930.262  1214.84  928.999  1216.67  927.336  1218.15  925.368  1219.18  923.211  1219.71  920.988  1219.71  918.831  1219.18  916.863  1218.15  915.199  1216.67  913.937  1214.84  913.149  1212.77  912.881  1210.56  913.149  1208.35  913.937  1206.28  915.199  1204.45  916.863  1202.97  918.831  1201.94  920.988  1201.41  923.211  1201.41  925.368  1201.94  " style="fill: none; stroke: purple; stroke-width: 0.500000; fill-type: evenodd"  fill-opacity="1.000000" />
   <path d="M 984.79  1202.28  986.766  1203.21  988.448  1204.6  989.731  1206.36  990.534  1208.39  990.808  1210.56  990.534  1212.72  989.731  1214.75  988.448  1216.52  986.766  1217.91  984.79  1218.84  982.646  1219.25  980.468  1219.11  978.392  1218.44  976.548  1217.27  975.054  1215.68  974.003  1213.76  973.46  1211.65  973.46  1209.47  974.003  1207.35  975.054  1205.44  976.548  1203.85  978.392  1202.68  980.468  1202.01  982.646  1201.87  984.79  1202.28  " style="fill: none; stroke: purple; stroke-width: 0.500000; fill-type: evenodd"  fill-opacity="1.000000" />
   <path d="M 964.751  1202.4  966.697  1203.31  968.354  1204.69  969.619  1206.43  970.41  1208.43  970.68  1210.56  970.41  1212.69  969.619  1214.69  968.354  1216.43  966.697  1217.8  964.751  1218.72  962.638  1219.12  960.492  1218.99  958.446  1218.32  956.63  1217.17  955.157  1215.6  954.121  1213.72  953.586  1211.63  953.586  1209.48  954.121  1207.4  955.157  1205.52  956.63  1203.95  958.446  1202.8  960.492  1202.13  962.638  1202  964.751  1202.4  " style="fill: none; stroke: purple; stroke-width: 0.500000; fill-type: evenodd"  fill-opacity="1.000000" />
   <path d="M 944.285  1202.4  946.322  1203.25  948.071  1204.59  949.412  1206.34  950.256  1208.37  950.544  1210.56  950.256  1212.74  949.412  1214.78  948.071  1216.53  946.322  1217.87  944.285  1218.72  942.099  1219  939.914  1218.72  937.877  1217.87  936.128  1216.53  934.786  1214.78  933.943  1212.74  933.655  1210.56  933.943  1208.37  934.786  1206.34  936.128  1204.59  937.877  1203.25  939.914  1202.4  942.099  1202.11  944.285  1202.4  " style="fill: none; stroke: purple; stroke-width: 0.500000; fill-type: evenodd"  fill-opacity="1.000000" />
   <path d="M 923.824  1180.78  926.033  1181.44  928.03  1182.59  929.707  1184.18  930.975  1186.1  931.763  1188.27  932.031  1190.56  931.763  1192.85  930.975  1195.02  929.707  1196.94  928.03  1198.53  926.033  1199.68  923.824  1200.34  921.522  1200.47  919.251  1200.07  917.134  1199.16  915.284  1197.78  913.802  1196.02  912.767  1193.96  912.235  1191.71  912.235  1190.57  915.68  1183.04  917.134  1181.96  919.251  1181.04  921.522  1180.64  923.824  1180.78  " style="fill: none; stroke: purple; stroke-width: 0.500000; fill-type: evenodd"  fill-opacity="1.000000" />
   <path d="M 965.431  1181.77  967.437  1182.83  969.133  1184.33  970.419  1186.19  971.223  1188.31  971.496  1190.56  971.223  1192.81  970.419  1194.93  969.133  1196.79  967.437  1198.29  965.431  1199.34  963.232  1199.89  960.967  1199.89  958.767  1199.34  956.762  1198.29  955.066  1196.79  953.779  1194.93  952.976  1192.81  952.703  1190.56  952.976  1188.31  953.779  1186.19  955.066  1184.33  956.762  1182.83  958.767  1181.77  960.967  1181.23  963.232  1181.23  965.431  1181.77  " style="fill: none; stroke: purple; stroke-width: 0.500000; fill-type: evenodd"  fill-opacity="1.000000" />
   <path d="M 945.384  1181.9  947.361  1182.94  949.032  1184.42  950.301  1186.25  951.093  1188.34  951.362  1190.56  951.093  1192.78  950.301  1194.86  949.032  1196.7  947.361  1198.18  945.384  1199.22  943.216  1199.75  940.983  1199.75  938.815  1199.22  936.838  1198.18  935.166  1196.7  933.898  1194.86  933.106  1192.78  932.837  1190.56  933.106  1188.34  933.898  1186.25  935.166  1184.42  936.838  1182.94  938.815  1181.9  940.983  1181.36  943.216  1181.36  945.384  1181.9  " style="fill: none; stroke: purple; stroke-width: 0.500000; fill-type: evenodd"  fill-opacity="1.000000" />
   <path d="M 911.849  1192.78  911.109  1194.9  909.918  1196.79  908.334  1198.38  906.917  1199.27  910.065  1193.42  912.069  1190.83  911.849  1192.78  " style="fill: none; stroke: purple; stroke-width: 0.500000; fill-type: evenodd"  fill-opacity="1.000000" />
   <path d="M 924.325  1160.81  926.438  1161.55  928.334  1162.74  929.918  1164.32  931.109  1166.22  931.849  1168.33  932.099  1170.56  931.849  1172.78  931.109  1174.9  929.918  1176.79  928.334  1178.38  926.438  1179.57  924.325  1180.31  922.099  1180.56  919.874  1180.31  917.761  1179.57  917.583  1179.46  919.629  1175.4  919.915  1173.79  922.455  1168.24  921.587  1167.71  921.766  1167.16  922.227  1165.73  923.462  1160.71  924.325  1160.81  " style="fill: none; stroke: purple; stroke-width: 0.500000; fill-type: evenodd"  fill-opacity="1.000000" />
   <path d="M 944.325  1160.81  946.438  1161.55  948.334  1162.74  949.918  1164.32  951.109  1166.22  951.849  1168.33  952.099  1170.56  951.849  1172.78  951.109  1174.9  949.918  1176.79  948.334  1178.38  946.438  1179.57  944.325  1180.31  942.099  1180.56  939.874  1180.31  937.761  1179.57  935.865  1178.38  934.281  1176.79  933.09  1174.9  932.35  1172.78  932.099  1170.56  932.35  1168.33  933.09  1166.22  934.281  1164.32  935.865  1162.74  937.761  1161.55  939.874  1160.81  942.099  1160.56  944.325  1160.81  " style="fill: none; stroke: purple; stroke-width: 0.500000; fill-type: evenodd"  fill-opacity="1.000000" />
</svg>
