<?xml version="1.0" encoding="UTF-8" standalone="yes"?>
<!DOCTYPE svg PUBLIC "-//W3C//DTD SVG 1.0//EN" "http://www.w3.org/TR/2001/REC-SVG-20010904/DTD/svg10.dtd">
<svg height="2000" width="2000" xmlns="http://www.w3.org/2000/svg" xmlns:svg="http://www.w3.org/2000/svg" xmlns:xlink="http://www.w3.org/1999/xlink">
   <marker id="endArrow" markerHeight="8" markerUnits="strokeWidth" markerWidth="10" orient="auto" refX="1" refY="5" viewBox="0 0 1000 1000">
      <polyline fill="darkblue" points="0,0 10,5 0,10 1,5" />
   </marker>
   <circle cx="1000" cy="1000" r="1" style="stroke:black; fill: red" />
   <circle cx="1000" cy="1000" r="800" style="stroke:black; fill: none" />
   <line x1="953.566833" y1="1040.409302" x2="953.566833" y2="1077.856201" style="stroke: green; stroke-width: 0.200000"/>
   <line x1="952.566833" y1="1039.723145" x2="952.566833" y2="1077.835571" style="stroke: green; stroke-width: 0.200000"/>
   <line x1="951.566833" y1="1039.045654" x2="951.566833" y2="1077.827271" style="stroke: green; stroke-width: 0.200000"/>
   <line x1="950.566895" y1="1038.437012" x2="950.566895" y2="1077.746338" style="stroke: green; stroke-width: 0.200000"/>
   <line x1="949.566772" y1="1037.828247" x2="949.566772" y2="1077.653320" style="stroke: green; stroke-width: 0.200000"/>
   <line x1="954.566772" y1="1041.095459" x2="954.566772" y2="1077.571289" style="stroke: green; stroke-width: 0.200000"/>
   <line x1="948.566833" y1="1037.216553" x2="948.566833" y2="1077.425293" style="stroke: green; stroke-width: 0.200000"/>
   <line x1="955.566895" y1="1041.781616" x2="955.566895" y2="1077.268555" style="stroke: green; stroke-width: 0.200000"/>
   <line x1="947.566833" y1="1036.658203" x2="947.566833" y2="1077.121338" style="stroke: green; stroke-width: 0.200000"/>
   <line x1="956.566833" y1="1042.467773" x2="956.566833" y2="1076.965820" style="stroke: green; stroke-width: 0.200000"/>
   <line x1="946.566833" y1="1036.167603" x2="946.566833" y2="1076.838623" style="stroke: green; stroke-width: 0.200000"/>
   <line x1="957.566833" y1="1043.295410" x2="957.566833" y2="1076.655029" style="stroke: green; stroke-width: 0.200000"/>
   <line x1="945.566895" y1="1035.677002" x2="945.566895" y2="1076.487915" style="stroke: green; stroke-width: 0.200000"/>
   <line x1="958.566833" y1="1044.148438" x2="958.566833" y2="1076.326172" style="stroke: green; stroke-width: 0.200000"/>
   <line x1="944.566772" y1="1035.186523" x2="944.566772" y2="1076.145264" style="stroke: green; stroke-width: 0.200000"/>
   <line x1="959.566772" y1="1045.001587" x2="959.566772" y2="1075.913208" style="stroke: green; stroke-width: 0.200000"/>
   <line x1="943.566833" y1="1034.713989" x2="943.566833" y2="1075.815552" style="stroke: green; stroke-width: 0.200000"/>
   <line x1="942.566833" y1="1034.316895" x2="942.566833" y2="1075.485840" style="stroke: green; stroke-width: 0.200000"/>
   <line x1="960.566895" y1="1045.854614" x2="960.566895" y2="1075.415771" style="stroke: green; stroke-width: 0.200000"/>
   <line x1="941.566833" y1="1033.919556" x2="941.566833" y2="1075.012695" style="stroke: green; stroke-width: 0.200000"/>
   <line x1="961.566833" y1="1046.722168" x2="961.566833" y2="1074.918335" style="stroke: green; stroke-width: 0.200000"/>
   <line x1="940.566895" y1="1033.560547" x2="940.566895" y2="1074.499268" style="stroke: green; stroke-width: 0.200000"/>
   <line x1="962.566833" y1="1047.696289" x2="962.566833" y2="1074.420898" style="stroke: green; stroke-width: 0.200000"/>
   <line x1="939.566772" y1="1033.301636" x2="939.566772" y2="1073.985962" style="stroke: green; stroke-width: 0.200000"/>
   <line x1="963.566833" y1="1048.682739" x2="963.566833" y2="1073.914795" style="stroke: green; stroke-width: 0.200000"/>
   <line x1="938.566833" y1="1033.047363" x2="938.566833" y2="1073.487915" style="stroke: green; stroke-width: 0.200000"/>
   <line x1="964.566772" y1="1049.669067" x2="964.566772" y2="1073.385498" style="stroke: green; stroke-width: 0.200000"/>
   <line x1="937.566833" y1="1032.799805" x2="937.566833" y2="1072.990479" style="stroke: green; stroke-width: 0.200000"/>
   <line x1="965.566895" y1="1050.655518" x2="965.566895" y2="1072.856323" style="stroke: green; stroke-width: 0.200000"/>
   <line x1="936.566833" y1="1032.680176" x2="936.566833" y2="1072.492798" style="stroke: green; stroke-width: 0.200000"/>
   <line x1="966.566833" y1="1051.734375" x2="966.566833" y2="1072.181885" style="stroke: green; stroke-width: 0.200000"/>
   <line x1="935.566895" y1="1032.639282" x2="935.566895" y2="1071.995361" style="stroke: green; stroke-width: 0.200000"/>
   <line x1="934.566772" y1="1032.863892" x2="934.566772" y2="1071.497803" style="stroke: green; stroke-width: 0.200000"/>
   <line x1="967.566833" y1="1052.869751" x2="967.566833" y2="1071.402100" style="stroke: green; stroke-width: 0.200000"/>
   <line x1="933.566833" y1="1033.766846" x2="933.566833" y2="1071.000122" style="stroke: green; stroke-width: 0.200000"/>
   <line x1="968.566833" y1="1054.005371" x2="968.566833" y2="1070.622437" style="stroke: green; stroke-width: 0.200000"/>
   <line x1="932.566833" y1="1034.674438" x2="932.566833" y2="1070.502563" style="stroke: green; stroke-width: 0.200000"/>
   <line x1="931.566833" y1="1035.591919" x2="931.566833" y2="1069.681152" style="stroke: green; stroke-width: 0.200000"/>
   <line x1="930.566895" y1="1036.551514" x2="930.566895" y2="1068.779541" style="stroke: green; stroke-width: 0.200000"/>
   <line x1="929.566772" y1="1037.561157" x2="929.566772" y2="1067.877808" style="stroke: green; stroke-width: 0.200000"/>
   <line x1="928.566833" y1="1038.740723" x2="928.566833" y2="1066.975952" style="stroke: green; stroke-width: 0.200000"/>
   <line x1="927.566833" y1="1039.948730" x2="927.566833" y2="1066.074097" style="stroke: green; stroke-width: 0.200000"/>
   <line x1="926.566833" y1="1041.156738" x2="926.566833" y2="1065.172363" style="stroke: green; stroke-width: 0.200000"/>
   <line x1="925.566895" y1="1042.364746" x2="925.566895" y2="1064.270630" style="stroke: green; stroke-width: 0.200000"/>
   <line x1="924.566772" y1="1043.747192" x2="924.566772" y2="1063.358887" style="stroke: green; stroke-width: 0.200000"/>
   <line x1="923.566833" y1="1045.436157" x2="923.566833" y2="1062.249268" style="stroke: green; stroke-width: 0.200000"/>
   <line x1="922.566833" y1="1047.129639" x2="922.566833" y2="1060.957642" style="stroke: green; stroke-width: 0.200000"/>
   <line x1="921.566833" y1="1048.953979" x2="921.566833" y2="1059.610474" style="stroke: green; stroke-width: 0.200000"/>
   <line x1="920.566895" y1="1050.977661" x2="920.566895" y2="1058.176270" style="stroke: green; stroke-width: 0.200000"/>
   <line x1="919.566772" y1="1053.893433" x2="919.566772" y2="1056.427246" style="stroke: green; stroke-width: 0.200000"/>
   <line x1="969.566772" y1="1055.140869" x2="969.566772" y2="1069.842651" style="stroke: green; stroke-width: 0.200000"/>
   <line x1="970.566895" y1="1056.383301" x2="970.566895" y2="1069.074097" style="stroke: green; stroke-width: 0.200000"/>
   <line x1="971.566833" y1="1057.714233" x2="971.566833" y2="1068.280518" style="stroke: green; stroke-width: 0.200000"/>
   <line x1="972.566833" y1="1059.045166" x2="972.566833" y2="1067.220337" style="stroke: green; stroke-width: 0.200000"/>
   <line x1="973.566833" y1="1060.566650" x2="973.566833" y2="1066.160156" style="stroke: green; stroke-width: 0.200000"/>
   <line x1="974.566772" y1="1062.481689" x2="974.566772" y2="1065.146973" style="stroke: green; stroke-width: 0.200000"/>
   <line x1="1035.032349" y1="928.868103" x2="1035.032349" y2="977.101379" style="stroke: green; stroke-width: 0.200000"/>
   <line x1="1036.032349" y1="928.406738" x2="1036.032349" y2="977.101379" style="stroke: green; stroke-width: 0.200000"/>
   <line x1="1037.032349" y1="927.945496" x2="1037.032349" y2="977.101379" style="stroke: green; stroke-width: 0.200000"/>
   <line x1="1038.032349" y1="927.491943" x2="1038.032349" y2="977.101379" style="stroke: green; stroke-width: 0.200000"/>
   <line x1="1039.032349" y1="927.106018" x2="1039.032349" y2="977.101379" style="stroke: green; stroke-width: 0.200000"/>
   <line x1="1040.032349" y1="927.258179" x2="1040.032349" y2="977.101379" style="stroke: green; stroke-width: 0.200000"/>
   <line x1="1041.032349" y1="927.578186" x2="1041.032349" y2="977.101379" style="stroke: green; stroke-width: 0.200000"/>
   <line x1="1042.032349" y1="927.963562" x2="1042.032349" y2="977.101379" style="stroke: green; stroke-width: 0.200000"/>
   <line x1="1043.032349" y1="928.418579" x2="1043.032349" y2="977.101379" style="stroke: green; stroke-width: 0.200000"/>
   <line x1="1044.032349" y1="929.005798" x2="1044.032349" y2="977.101379" style="stroke: green; stroke-width: 0.200000"/>
   <line x1="1045.032349" y1="929.606384" x2="1045.032349" y2="977.101379" style="stroke: green; stroke-width: 0.200000"/>
   <line x1="1046.032349" y1="930.207214" x2="1046.032349" y2="977.101379" style="stroke: green; stroke-width: 0.200000"/>
   <line x1="1047.032349" y1="930.946716" x2="1047.032349" y2="977.101379" style="stroke: green; stroke-width: 0.200000"/>
   <line x1="1048.032349" y1="931.686279" x2="1048.032349" y2="977.101379" style="stroke: green; stroke-width: 0.200000"/>
   <line x1="1049.032349" y1="932.425842" x2="1049.032349" y2="977.101379" style="stroke: green; stroke-width: 0.200000"/>
   <line x1="1050.032349" y1="933.165344" x2="1050.032349" y2="977.101379" style="stroke: green; stroke-width: 0.200000"/>
   <line x1="1051.032349" y1="933.904907" x2="1051.032349" y2="977.101379" style="stroke: green; stroke-width: 0.200000"/>
   <line x1="1052.032349" y1="934.644409" x2="1052.032349" y2="977.101379" style="stroke: green; stroke-width: 0.200000"/>
   <line x1="1053.032349" y1="935.383972" x2="1053.032349" y2="977.101379" style="stroke: green; stroke-width: 0.200000"/>
   <line x1="1054.032349" y1="936.123535" x2="1054.032349" y2="977.101379" style="stroke: green; stroke-width: 0.200000"/>
   <line x1="1055.032349" y1="935.176392" x2="1055.032349" y2="977.101379" style="stroke: green; stroke-width: 0.200000"/>
   <line x1="1056.032349" y1="933.902954" x2="1056.032349" y2="977.101379" style="stroke: green; stroke-width: 0.200000"/>
   <line x1="1057.032349" y1="932.629761" x2="1057.032349" y2="977.101379" style="stroke: green; stroke-width: 0.200000"/>
   <line x1="1058.032349" y1="931.356323" x2="1058.032349" y2="977.101379" style="stroke: green; stroke-width: 0.200000"/>
   <line x1="1059.032349" y1="930.083130" x2="1059.032349" y2="977.101379" style="stroke: green; stroke-width: 0.200000"/>
   <line x1="1060.032349" y1="929.361572" x2="1060.032349" y2="977.101379" style="stroke: green; stroke-width: 0.200000"/>
   <line x1="1061.032349" y1="930.380981" x2="1061.032349" y2="977.101379" style="stroke: green; stroke-width: 0.200000"/>
   <line x1="1062.032349" y1="931.400391" x2="1062.032349" y2="977.101379" style="stroke: green; stroke-width: 0.200000"/>
   <line x1="1063.032349" y1="932.419800" x2="1063.032349" y2="977.101379" style="stroke: green; stroke-width: 0.200000"/>
   <line x1="1064.032349" y1="933.439270" x2="1064.032349" y2="977.101379" style="stroke: green; stroke-width: 0.200000"/>
   <line x1="1065.032349" y1="934.572510" x2="1065.032349" y2="977.101379" style="stroke: green; stroke-width: 0.200000"/>
   <line x1="1066.032349" y1="935.720520" x2="1066.032349" y2="977.101379" style="stroke: green; stroke-width: 0.200000"/>
   <line x1="1067.032349" y1="936.868591" x2="1067.032349" y2="977.101379" style="stroke: green; stroke-width: 0.200000"/>
   <line x1="1034.032349" y1="929.329468" x2="1034.032349" y2="976.555115" style="stroke: green; stroke-width: 0.200000"/>
   <line x1="1033.032349" y1="929.790771" x2="1033.032349" y2="975.429382" style="stroke: green; stroke-width: 0.200000"/>
   <line x1="1032.032349" y1="930.461426" x2="1032.032349" y2="974.265808" style="stroke: green; stroke-width: 0.200000"/>
   <line x1="1031.032349" y1="931.181641" x2="1031.032349" y2="973.085693" style="stroke: green; stroke-width: 0.200000"/>
   <line x1="1030.032349" y1="931.901855" x2="1030.032349" y2="971.856445" style="stroke: green; stroke-width: 0.200000"/>
   <line x1="1029.032349" y1="932.622070" x2="1029.032349" y2="970.535950" style="stroke: green; stroke-width: 0.200000"/>
   <line x1="1028.032349" y1="933.342163" x2="1028.032349" y2="969.149109" style="stroke: green; stroke-width: 0.200000"/>
   <line x1="1027.032349" y1="934.051270" x2="1027.032349" y2="967.737488" style="stroke: green; stroke-width: 0.200000"/>
   <line x1="1026.032349" y1="935.039734" x2="1026.032349" y2="966.194824" style="stroke: green; stroke-width: 0.200000"/>
   <line x1="1025.032349" y1="936.078125" x2="1025.032349" y2="964.485229" style="stroke: green; stroke-width: 0.200000"/>
   <line x1="1024.032349" y1="937.116455" x2="1024.032349" y2="962.723267" style="stroke: green; stroke-width: 0.200000"/>
   <line x1="1023.032349" y1="938.154907" x2="1023.032349" y2="961.040039" style="stroke: green; stroke-width: 0.200000"/>
   <line x1="1022.032349" y1="939.193237" x2="1022.032349" y2="959.084351" style="stroke: green; stroke-width: 0.200000"/>
   <line x1="1021.032349" y1="940.438843" x2="1021.032349" y2="957.073669" style="stroke: green; stroke-width: 0.200000"/>
   <line x1="1020.032349" y1="941.764526" x2="1020.032349" y2="954.917053" style="stroke: green; stroke-width: 0.200000"/>
   <line x1="1019.032349" y1="943.103516" x2="1019.032349" y2="952.667542" style="stroke: green; stroke-width: 0.200000"/>
   <line x1="1018.032349" y1="944.442383" x2="1018.032349" y2="949.980591" style="stroke: green; stroke-width: 0.200000"/>
   <line x1="1068.032349" y1="952.318665" x2="1068.032349" y2="977.101379" style="stroke: green; stroke-width: 0.200000"/>
   <line x1="1069.032349" y1="954.449158" x2="1069.032349" y2="977.101379" style="stroke: green; stroke-width: 0.200000"/>
   <line x1="1070.032349" y1="956.579712" x2="1070.032349" y2="977.101379" style="stroke: green; stroke-width: 0.200000"/>
   <line x1="1071.032349" y1="958.710266" x2="1071.032349" y2="977.101379" style="stroke: green; stroke-width: 0.200000"/>
   <line x1="1072.032349" y1="960.840820" x2="1072.032349" y2="977.101379" style="stroke: green; stroke-width: 0.200000"/>
   <line x1="1073.032349" y1="962.971313" x2="1073.032349" y2="977.101379" style="stroke: green; stroke-width: 0.200000"/>
   <line x1="1074.032349" y1="965.254578" x2="1074.032349" y2="975.291077" style="stroke: green; stroke-width: 0.200000"/>
   <line x1="1075.032349" y1="968.923645" x2="1075.032349" y2="973.151550" style="stroke: green; stroke-width: 0.200000"/>
   <line x1="1068.032349" y1="938.016602" x2="1068.032349" y2="951.220581" style="stroke: green; stroke-width: 0.200000"/>
   <line x1="1069.032349" y1="939.164673" x2="1069.032349" y2="950.710754" style="stroke: green; stroke-width: 0.200000"/>
   <line x1="1070.032349" y1="940.397461" x2="1070.032349" y2="950.201050" style="stroke: green; stroke-width: 0.200000"/>
   <line x1="1071.032349" y1="941.686035" x2="1071.032349" y2="949.691223" style="stroke: green; stroke-width: 0.200000"/>
   <line x1="1072.032349" y1="942.974548" x2="1072.032349" y2="949.181519" style="stroke: green; stroke-width: 0.200000"/>
   <line x1="1073.032349" y1="944.263000" x2="1073.032349" y2="948.671753" style="stroke: green; stroke-width: 0.200000"/>
   <line x1="1074.032349" y1="945.551514" x2="1074.032349" y2="948.161926" style="stroke: green; stroke-width: 0.200000"/>
   <line x1="1075.032349" y1="946.938843" x2="1075.032349" y2="947.652222" style="stroke: green; stroke-width: 0.200000"/>
   <line x1="1058.032349" y1="977.201416" x2="1058.032349" y2="992.898682" style="stroke: green; stroke-width: 0.200000"/>
   <line x1="1057.032349" y1="977.201416" x2="1057.032349" y2="992.867310" style="stroke: green; stroke-width: 0.200000"/>
   <line x1="1056.032349" y1="977.201416" x2="1056.032349" y2="992.716187" style="stroke: green; stroke-width: 0.200000"/>
   <line x1="1055.032349" y1="977.201416" x2="1055.032349" y2="992.271851" style="stroke: green; stroke-width: 0.200000"/>
   <line x1="1059.032349" y1="977.201416" x2="1059.032349" y2="992.197632" style="stroke: green; stroke-width: 0.200000"/>
   <line x1="1054.032349" y1="977.201416" x2="1054.032349" y2="991.812256" style="stroke: green; stroke-width: 0.200000"/>
   <line x1="1060.032349" y1="977.201416" x2="1060.032349" y2="991.449219" style="stroke: green; stroke-width: 0.200000"/>
   <line x1="1053.032349" y1="977.201416" x2="1053.032349" y2="991.352661" style="stroke: green; stroke-width: 0.200000"/>
   <line x1="1052.032349" y1="977.201416" x2="1052.032349" y2="990.893005" style="stroke: green; stroke-width: 0.200000"/>
   <line x1="1061.032349" y1="977.201416" x2="1061.032349" y2="990.700989" style="stroke: green; stroke-width: 0.200000"/>
   <line x1="1051.032349" y1="977.201416" x2="1051.032349" y2="990.369568" style="stroke: green; stroke-width: 0.200000"/>
   <line x1="1062.032349" y1="977.201416" x2="1062.032349" y2="989.952515" style="stroke: green; stroke-width: 0.200000"/>
   <line x1="1050.032349" y1="977.201416" x2="1050.032349" y2="989.778198" style="stroke: green; stroke-width: 0.200000"/>
   <line x1="1063.032349" y1="977.201416" x2="1063.032349" y2="989.225830" style="stroke: green; stroke-width: 0.200000"/>
   <line x1="1049.032349" y1="977.201416" x2="1049.032349" y2="989.110229" style="stroke: green; stroke-width: 0.200000"/>
   <line x1="1048.032349" y1="977.201416" x2="1048.032349" y2="988.442322" style="stroke: green; stroke-width: 0.200000"/>
   <line x1="1064.032349" y1="977.201416" x2="1064.032349" y2="988.277893" style="stroke: green; stroke-width: 0.200000"/>
   <line x1="1047.032349" y1="977.201416" x2="1047.032349" y2="987.774414" style="stroke: green; stroke-width: 0.200000"/>
   <line x1="1065.032349" y1="977.201416" x2="1065.032349" y2="987.318787" style="stroke: green; stroke-width: 0.200000"/>
   <line x1="1046.032349" y1="977.201416" x2="1046.032349" y2="987.104126" style="stroke: green; stroke-width: 0.200000"/>
   <line x1="1066.032349" y1="977.201416" x2="1066.032349" y2="986.359619" style="stroke: green; stroke-width: 0.200000"/>
   <line x1="1045.032349" y1="977.201416" x2="1045.032349" y2="986.333496" style="stroke: green; stroke-width: 0.200000"/>
   <line x1="1044.032349" y1="977.201416" x2="1044.032349" y2="985.562744" style="stroke: green; stroke-width: 0.200000"/>
   <line x1="1067.032349" y1="977.201416" x2="1067.032349" y2="985.400513" style="stroke: green; stroke-width: 0.200000"/>
   <line x1="1043.032349" y1="977.201416" x2="1043.032349" y2="984.802002" style="stroke: green; stroke-width: 0.200000"/>
   <line x1="1042.032349" y1="977.201416" x2="1042.032349" y2="984.007263" style="stroke: green; stroke-width: 0.200000"/>
   <line x1="1041.032349" y1="977.201416" x2="1041.032349" y2="983.128418" style="stroke: green; stroke-width: 0.200000"/>
   <line x1="1040.032349" y1="977.201416" x2="1040.032349" y2="982.260010" style="stroke: green; stroke-width: 0.200000"/>
   <line x1="1039.032349" y1="977.201416" x2="1039.032349" y2="981.406311" style="stroke: green; stroke-width: 0.200000"/>
   <line x1="1038.032349" y1="977.201416" x2="1038.032349" y2="980.552612" style="stroke: green; stroke-width: 0.200000"/>
   <line x1="1037.032349" y1="977.201416" x2="1037.032349" y2="979.562378" style="stroke: green; stroke-width: 0.200000"/>
   <line x1="1036.032349" y1="977.201416" x2="1036.032349" y2="978.562012" style="stroke: green; stroke-width: 0.200000"/>
   <line x1="1035.032349" y1="977.201416" x2="1035.032349" y2="977.558594" style="stroke: green; stroke-width: 0.200000"/>
   <line x1="1068.032349" y1="977.201416" x2="1068.032349" y2="984.461914" style="stroke: green; stroke-width: 0.200000"/>
   <line x1="1069.032349" y1="977.201416" x2="1069.032349" y2="983.284058" style="stroke: green; stroke-width: 0.200000"/>
   <line x1="1070.032349" y1="977.201416" x2="1070.032349" y2="981.901611" style="stroke: green; stroke-width: 0.200000"/>
   <line x1="1071.032349" y1="977.201416" x2="1071.032349" y2="980.521912" style="stroke: green; stroke-width: 0.200000"/>
   <line x1="1072.032349" y1="977.201416" x2="1072.032349" y2="979.144958" style="stroke: green; stroke-width: 0.200000"/>
   <line x1="1073.032349" y1="977.201416" x2="1073.032349" y2="977.369690" style="stroke: green; stroke-width: 0.200000"/>
   <line x1="917.485229" y1="1031.533203" x2="917.485229" y2="1070.478271" style="stroke: green; stroke-width: 0.200000"/>
   <line x1="918.485168" y1="1030.361816" x2="918.485168" y2="1070.478271" style="stroke: green; stroke-width: 0.200000"/>
   <line x1="919.485168" y1="1056.233643" x2="919.485168" y2="1070.478271" style="stroke: green; stroke-width: 0.200000"/>
   <line x1="920.485229" y1="1058.059326" x2="920.485229" y2="1070.478271" style="stroke: green; stroke-width: 0.200000"/>
   <line x1="921.485229" y1="1059.493530" x2="921.485229" y2="1070.478271" style="stroke: green; stroke-width: 0.200000"/>
   <line x1="922.485229" y1="1060.852295" x2="922.485229" y2="1070.478271" style="stroke: green; stroke-width: 0.200000"/>
   <line x1="923.485168" y1="1062.144043" x2="923.485168" y2="1070.478271" style="stroke: green; stroke-width: 0.200000"/>
   <line x1="924.485168" y1="1063.282715" x2="924.485168" y2="1070.478271" style="stroke: green; stroke-width: 0.200000"/>
   <line x1="925.485229" y1="1064.197144" x2="925.485229" y2="1070.478271" style="stroke: green; stroke-width: 0.200000"/>
   <line x1="926.485229" y1="1065.098877" x2="926.485229" y2="1070.478271" style="stroke: green; stroke-width: 0.200000"/>
   <line x1="927.485229" y1="1066.000732" x2="927.485229" y2="1070.478271" style="stroke: green; stroke-width: 0.200000"/>
   <line x1="928.485168" y1="1066.902466" x2="928.485168" y2="1070.478271" style="stroke: green; stroke-width: 0.200000"/>
   <line x1="929.485168" y1="1067.804321" x2="929.485168" y2="1070.478271" style="stroke: green; stroke-width: 0.200000"/>
   <line x1="930.485229" y1="1068.706177" x2="930.485229" y2="1070.478271" style="stroke: green; stroke-width: 0.200000"/>
   <line x1="931.485229" y1="1069.607666" x2="931.485229" y2="1070.478271" style="stroke: green; stroke-width: 0.200000"/>
   <line x1="932.485229" y1="1070.462036" x2="932.485229" y2="1070.478271" style="stroke: green; stroke-width: 0.200000"/>
   <line x1="916.485229" y1="1032.704590" x2="916.485229" y2="1069.606445" style="stroke: green; stroke-width: 0.200000"/>
   <line x1="915.485229" y1="1033.875977" x2="915.485229" y2="1068.486938" style="stroke: green; stroke-width: 0.200000"/>
   <line x1="914.485168" y1="1035.158569" x2="914.485168" y2="1067.367432" style="stroke: green; stroke-width: 0.200000"/>
   <line x1="913.485168" y1="1036.730835" x2="913.485168" y2="1066.247925" style="stroke: green; stroke-width: 0.200000"/>
   <line x1="912.485229" y1="1038.303101" x2="912.485229" y2="1065.081055" style="stroke: green; stroke-width: 0.200000"/>
   <line x1="911.485229" y1="1039.875366" x2="911.485229" y2="1063.885376" style="stroke: green; stroke-width: 0.200000"/>
   <line x1="910.485229" y1="1041.447510" x2="910.485229" y2="1062.499023" style="stroke: green; stroke-width: 0.200000"/>
   <line x1="909.485168" y1="1043.326172" x2="909.485168" y2="1060.899658" style="stroke: green; stroke-width: 0.200000"/>
   <line x1="908.485168" y1="1045.540039" x2="908.485168" y2="1059.189331" style="stroke: green; stroke-width: 0.200000"/>
   <line x1="907.485229" y1="1047.907959" x2="907.485229" y2="1056.722656" style="stroke: green; stroke-width: 0.200000"/>
   <line x1="919.485168" y1="1029.190430" x2="919.485168" y2="1054.147217" style="stroke: green; stroke-width: 0.200000"/>
   <line x1="920.485229" y1="1028.048218" x2="920.485229" y2="1051.181396" style="stroke: green; stroke-width: 0.200000"/>
   <line x1="921.485229" y1="1027.085449" x2="921.485229" y2="1049.102661" style="stroke: green; stroke-width: 0.200000"/>
   <line x1="922.485229" y1="1026.122803" x2="922.485229" y2="1047.278320" style="stroke: green; stroke-width: 0.200000"/>
   <line x1="923.485168" y1="1025.202271" x2="923.485168" y2="1045.573975" style="stroke: green; stroke-width: 0.200000"/>
   <line x1="924.485168" y1="1024.292969" x2="924.485168" y2="1043.883301" style="stroke: green; stroke-width: 0.200000"/>
   <line x1="925.485229" y1="1023.383728" x2="925.485229" y2="1042.465210" style="stroke: green; stroke-width: 0.200000"/>
   <line x1="956.485229" y1="1028.824219" x2="956.485229" y2="1042.411621" style="stroke: green; stroke-width: 0.200000"/>
   <line x1="955.485229" y1="1028.212158" x2="955.485229" y2="1041.725464" style="stroke: green; stroke-width: 0.200000"/>
   <line x1="926.485229" y1="1022.602905" x2="926.485229" y2="1041.255127" style="stroke: green; stroke-width: 0.200000"/>
   <line x1="954.485168" y1="1027.600098" x2="954.485168" y2="1041.039307" style="stroke: green; stroke-width: 0.200000"/>
   <line x1="953.485168" y1="1027.076660" x2="953.485168" y2="1040.353149" style="stroke: green; stroke-width: 0.200000"/>
   <line x1="927.485229" y1="1022.003113" x2="927.485229" y2="1040.047119" style="stroke: green; stroke-width: 0.200000"/>
   <line x1="952.485229" y1="1026.588013" x2="952.485229" y2="1039.666992" style="stroke: green; stroke-width: 0.200000"/>
   <line x1="951.485229" y1="1026.099487" x2="951.485229" y2="1038.995850" style="stroke: green; stroke-width: 0.200000"/>
   <line x1="928.485168" y1="1021.365662" x2="928.485168" y2="1038.839111" style="stroke: green; stroke-width: 0.200000"/>
   <line x1="950.485229" y1="1025.610840" x2="950.485229" y2="1038.387207" style="stroke: green; stroke-width: 0.200000"/>
   <line x1="949.485168" y1="1025.122192" x2="949.485168" y2="1037.778442" style="stroke: green; stroke-width: 0.200000"/>
   <line x1="929.485168" y1="1021.091370" x2="929.485168" y2="1037.650269" style="stroke: green; stroke-width: 0.200000"/>
   <line x1="948.485168" y1="1024.678711" x2="948.485168" y2="1037.166504" style="stroke: green; stroke-width: 0.200000"/>
   <line x1="930.485229" y1="1020.817200" x2="930.485229" y2="1036.629761" style="stroke: green; stroke-width: 0.200000"/>
   <line x1="947.485229" y1="1024.281494" x2="947.485229" y2="1036.618042" style="stroke: green; stroke-width: 0.200000"/>
   <line x1="946.485229" y1="1023.884155" x2="946.485229" y2="1036.127441" style="stroke: green; stroke-width: 0.200000"/>
   <line x1="931.485229" y1="1020.603027" x2="931.485229" y2="1035.670044" style="stroke: green; stroke-width: 0.200000"/>
   <line x1="945.485229" y1="1023.499451" x2="945.485229" y2="1035.636841" style="stroke: green; stroke-width: 0.200000"/>
   <line x1="944.485168" y1="1023.133301" x2="944.485168" y2="1035.146240" style="stroke: green; stroke-width: 0.200000"/>
   <line x1="932.485229" y1="1020.559998" x2="932.485229" y2="1034.748413" style="stroke: green; stroke-width: 0.200000"/>
   <line x1="943.485168" y1="1022.792725" x2="943.485168" y2="1034.681519" style="stroke: green; stroke-width: 0.200000"/>
   <line x1="942.485229" y1="1022.460205" x2="942.485229" y2="1034.284302" style="stroke: green; stroke-width: 0.200000"/>
   <line x1="941.485229" y1="1022.127625" x2="941.485229" y2="1033.886963" style="stroke: green; stroke-width: 0.200000"/>
   <line x1="933.485168" y1="1020.516968" x2="933.485168" y2="1033.840820" style="stroke: green; stroke-width: 0.200000"/>
   <line x1="940.485229" y1="1021.795044" x2="940.485229" y2="1033.538574" style="stroke: green; stroke-width: 0.200000"/>
   <line x1="939.485168" y1="1021.501221" x2="939.485168" y2="1033.280396" style="stroke: green; stroke-width: 0.200000"/>
   <line x1="938.485168" y1="1021.232544" x2="938.485168" y2="1033.027100" style="stroke: green; stroke-width: 0.200000"/>
   <line x1="934.485168" y1="1020.481873" x2="934.485168" y2="1032.933105" style="stroke: green; stroke-width: 0.200000"/>
   <line x1="937.485229" y1="1021.043762" x2="937.485229" y2="1032.781372" style="stroke: green; stroke-width: 0.200000"/>
   <line x1="936.485229" y1="1020.855042" x2="936.485229" y2="1032.669800" style="stroke: green; stroke-width: 0.200000"/>
   <line x1="935.485229" y1="1020.666260" x2="935.485229" y2="1032.658081" style="stroke: green; stroke-width: 0.200000"/>
   <line x1="969.485168" y1="1069.906372" x2="969.485168" y2="1070.478271" style="stroke: green; stroke-width: 0.200000"/>
   <line x1="970.485229" y1="1069.136719" x2="970.485229" y2="1070.478271" style="stroke: green; stroke-width: 0.200000"/>
   <line x1="971.485229" y1="1068.367188" x2="971.485229" y2="1070.478271" style="stroke: green; stroke-width: 0.200000"/>
   <line x1="972.485229" y1="1067.307007" x2="972.485229" y2="1070.478271" style="stroke: green; stroke-width: 0.200000"/>
   <line x1="973.485168" y1="1066.246826" x2="973.485168" y2="1070.478271" style="stroke: green; stroke-width: 0.200000"/>
   <line x1="974.485168" y1="1065.229004" x2="974.485168" y2="1070.478271" style="stroke: green; stroke-width: 0.200000"/>
   <line x1="975.485229" y1="1044.370117" x2="975.485229" y2="1070.478271" style="stroke: green; stroke-width: 0.200000"/>
   <line x1="976.485229" y1="1045.480347" x2="976.485229" y2="1070.478271" style="stroke: green; stroke-width: 0.200000"/>
   <line x1="977.485229" y1="1046.590698" x2="977.485229" y2="1070.478271" style="stroke: green; stroke-width: 0.200000"/>
   <line x1="978.485168" y1="1047.709229" x2="978.485168" y2="1070.478271" style="stroke: green; stroke-width: 0.200000"/>
   <line x1="979.485168" y1="1048.893555" x2="979.485168" y2="1070.478271" style="stroke: green; stroke-width: 0.200000"/>
   <line x1="980.485229" y1="1050.179199" x2="980.485229" y2="1070.478271" style="stroke: green; stroke-width: 0.200000"/>
   <line x1="981.485229" y1="1051.464966" x2="981.485229" y2="1070.478271" style="stroke: green; stroke-width: 0.200000"/>
   <line x1="982.485229" y1="1052.777222" x2="982.485229" y2="1070.478271" style="stroke: green; stroke-width: 0.200000"/>
   <line x1="983.485168" y1="1054.332520" x2="983.485168" y2="1070.478271" style="stroke: green; stroke-width: 0.200000"/>
   <line x1="984.485168" y1="1055.887939" x2="984.485168" y2="1070.478271" style="stroke: green; stroke-width: 0.200000"/>
   <line x1="985.485229" y1="1057.386108" x2="985.485229" y2="1070.478271" style="stroke: green; stroke-width: 0.200000"/>
   <line x1="986.485229" y1="1059.129150" x2="986.485229" y2="1070.478271" style="stroke: green; stroke-width: 0.200000"/>
   <line x1="987.485229" y1="1061.032837" x2="987.485229" y2="1070.478271" style="stroke: green; stroke-width: 0.200000"/>
   <line x1="988.485168" y1="1063.687012" x2="988.485168" y2="1070.342896" style="stroke: green; stroke-width: 0.200000"/>
   <line x1="974.485168" y1="1043.285034" x2="974.485168" y2="1062.336426" style="stroke: green; stroke-width: 0.200000"/>
   <line x1="973.485168" y1="1042.316772" x2="973.485168" y2="1060.404297" style="stroke: green; stroke-width: 0.200000"/>
   <line x1="972.485229" y1="1041.348389" x2="972.485229" y2="1058.936279" style="stroke: green; stroke-width: 0.200000"/>
   <line x1="971.485229" y1="1040.380127" x2="971.485229" y2="1057.605469" style="stroke: green; stroke-width: 0.200000"/>
   <line x1="970.485229" y1="1039.411865" x2="970.485229" y2="1056.274536" style="stroke: green; stroke-width: 0.200000"/>
   <line x1="969.485168" y1="1038.484131" x2="969.485168" y2="1055.047974" style="stroke: green; stroke-width: 0.200000"/>
   <line x1="968.485168" y1="1037.636230" x2="968.485168" y2="1053.912476" style="stroke: green; stroke-width: 0.200000"/>
   <line x1="967.485229" y1="1036.788208" x2="967.485229" y2="1052.776978" style="stroke: green; stroke-width: 0.200000"/>
   <line x1="966.485229" y1="1035.940186" x2="966.485229" y2="1051.641968" style="stroke: green; stroke-width: 0.200000"/>
   <line x1="965.485229" y1="1035.092285" x2="965.485229" y2="1050.574829" style="stroke: green; stroke-width: 0.200000"/>
   <line x1="964.485168" y1="1034.263550" x2="964.485168" y2="1049.588501" style="stroke: green; stroke-width: 0.200000"/>
   <line x1="963.485168" y1="1033.527710" x2="963.485168" y2="1048.602051" style="stroke: green; stroke-width: 0.200000"/>
   <line x1="962.485229" y1="1032.791870" x2="962.485229" y2="1047.615723" style="stroke: green; stroke-width: 0.200000"/>
   <line x1="961.485229" y1="1032.061035" x2="961.485229" y2="1046.643311" style="stroke: green; stroke-width: 0.200000"/>
   <line x1="960.485229" y1="1031.375000" x2="960.485229" y2="1045.784912" style="stroke: green; stroke-width: 0.200000"/>
   <line x1="959.485168" y1="1030.688721" x2="959.485168" y2="1044.931763" style="stroke: green; stroke-width: 0.200000"/>
   <line x1="958.485168" y1="1030.048218" x2="958.485168" y2="1044.078735" style="stroke: green; stroke-width: 0.200000"/>
   <line x1="957.485229" y1="1029.436157" x2="957.485229" y2="1043.225586" style="stroke: green; stroke-width: 0.200000"/>
   <line x1="955.485229" y1="1077.293457" x2="955.485229" y2="1089.876221" style="stroke: green; stroke-width: 0.200000"/>
   <line x1="956.485229" y1="1076.990601" x2="956.485229" y2="1089.865845" style="stroke: green; stroke-width: 0.200000"/>
   <line x1="954.485168" y1="1077.596191" x2="954.485168" y2="1089.828369" style="stroke: green; stroke-width: 0.200000"/>
   <line x1="953.485168" y1="1077.859009" x2="953.485168" y2="1089.644043" style="stroke: green; stroke-width: 0.200000"/>
   <line x1="952.485229" y1="1077.833130" x2="952.485229" y2="1089.459717" style="stroke: green; stroke-width: 0.200000"/>
   <line x1="951.485229" y1="1077.827881" x2="951.485229" y2="1089.246948" style="stroke: green; stroke-width: 0.200000"/>
   <line x1="950.485229" y1="1077.738892" x2="950.485229" y2="1089.001221" style="stroke: green; stroke-width: 0.200000"/>
   <line x1="949.485168" y1="1077.645752" x2="949.485168" y2="1088.767700" style="stroke: green; stroke-width: 0.200000"/>
   <line x1="948.485168" y1="1077.400513" x2="948.485168" y2="1088.541382" style="stroke: green; stroke-width: 0.200000"/>
   <line x1="947.485229" y1="1077.096558" x2="947.485229" y2="1088.270508" style="stroke: green; stroke-width: 0.200000"/>
   <line x1="946.485229" y1="1076.810181" x2="946.485229" y2="1087.990479" style="stroke: green; stroke-width: 0.200000"/>
   <line x1="945.485229" y1="1076.459473" x2="945.485229" y2="1087.682129" style="stroke: green; stroke-width: 0.200000"/>
   <line x1="944.485168" y1="1076.118530" x2="944.485168" y2="1087.299561" style="stroke: green; stroke-width: 0.200000"/>
   <line x1="943.485168" y1="1075.788696" x2="943.485168" y2="1086.888672" style="stroke: green; stroke-width: 0.200000"/>
   <line x1="942.485229" y1="1075.458984" x2="942.485229" y2="1086.467407" style="stroke: green; stroke-width: 0.200000"/>
   <line x1="941.485229" y1="1074.970825" x2="941.485229" y2="1086.048584" style="stroke: green; stroke-width: 0.200000"/>
   <line x1="940.485229" y1="1074.457520" x2="940.485229" y2="1085.642822" style="stroke: green; stroke-width: 0.200000"/>
   <line x1="939.485168" y1="1073.945068" x2="939.485168" y2="1085.237183" style="stroke: green; stroke-width: 0.200000"/>
   <line x1="938.485168" y1="1073.447388" x2="938.485168" y2="1084.811523" style="stroke: green; stroke-width: 0.200000"/>
   <line x1="937.485229" y1="1072.949951" x2="937.485229" y2="1084.343384" style="stroke: green; stroke-width: 0.200000"/>
   <line x1="936.485229" y1="1072.452271" x2="936.485229" y2="1083.791016" style="stroke: green; stroke-width: 0.200000"/>
   <line x1="935.485229" y1="1071.954834" x2="935.485229" y2="1083.238647" style="stroke: green; stroke-width: 0.200000"/>
   <line x1="934.485168" y1="1071.457275" x2="934.485168" y2="1082.689941" style="stroke: green; stroke-width: 0.200000"/>
   <line x1="933.485168" y1="1070.959595" x2="933.485168" y2="1082.149414" style="stroke: green; stroke-width: 0.200000"/>
   <line x1="932.485229" y1="1070.578247" x2="932.485229" y2="1081.608887" style="stroke: green; stroke-width: 0.200000"/>
   <line x1="931.485229" y1="1070.578247" x2="931.485229" y2="1081.063965" style="stroke: green; stroke-width: 0.200000"/>
   <line x1="930.485229" y1="1070.578247" x2="930.485229" y2="1080.500732" style="stroke: green; stroke-width: 0.200000"/>
   <line x1="929.485168" y1="1070.578247" x2="929.485168" y2="1079.836182" style="stroke: green; stroke-width: 0.200000"/>
   <line x1="928.485168" y1="1070.578247" x2="928.485168" y2="1079.147217" style="stroke: green; stroke-width: 0.200000"/>
   <line x1="927.485229" y1="1070.578247" x2="927.485229" y2="1078.458130" style="stroke: green; stroke-width: 0.200000"/>
   <line x1="926.485229" y1="1070.578247" x2="926.485229" y2="1077.769043" style="stroke: green; stroke-width: 0.200000"/>
   <line x1="925.485229" y1="1070.578247" x2="925.485229" y2="1077.080078" style="stroke: green; stroke-width: 0.200000"/>
   <line x1="924.485168" y1="1070.578247" x2="924.485168" y2="1076.390991" style="stroke: green; stroke-width: 0.200000"/>
   <line x1="923.485168" y1="1070.578247" x2="923.485168" y2="1075.702026" style="stroke: green; stroke-width: 0.200000"/>
   <line x1="922.485229" y1="1070.578247" x2="922.485229" y2="1074.863403" style="stroke: green; stroke-width: 0.200000"/>
   <line x1="921.485229" y1="1070.578247" x2="921.485229" y2="1074.007812" style="stroke: green; stroke-width: 0.200000"/>
   <line x1="920.485229" y1="1070.578247" x2="920.485229" y2="1073.152344" style="stroke: green; stroke-width: 0.200000"/>
   <line x1="919.485168" y1="1070.578247" x2="919.485168" y2="1072.296875" style="stroke: green; stroke-width: 0.200000"/>
   <line x1="918.485168" y1="1070.578247" x2="918.485168" y2="1071.441284" style="stroke: green; stroke-width: 0.200000"/>
   <line x1="917.485229" y1="1070.578247" x2="917.485229" y2="1070.585693" style="stroke: green; stroke-width: 0.200000"/>
   <line x1="957.485229" y1="1076.682007" x2="957.485229" y2="1089.869385" style="stroke: green; stroke-width: 0.200000"/>
   <line x1="958.485168" y1="1076.353027" x2="958.485168" y2="1089.800537" style="stroke: green; stroke-width: 0.200000"/>
   <line x1="959.485168" y1="1075.953979" x2="959.485168" y2="1089.674194" style="stroke: green; stroke-width: 0.200000"/>
   <line x1="960.485229" y1="1075.456543" x2="960.485229" y2="1089.523071" style="stroke: green; stroke-width: 0.200000"/>
   <line x1="961.485229" y1="1074.959106" x2="961.485229" y2="1089.372070" style="stroke: green; stroke-width: 0.200000"/>
   <line x1="962.485229" y1="1074.461548" x2="962.485229" y2="1089.031982" style="stroke: green; stroke-width: 0.200000"/>
   <line x1="963.485168" y1="1073.958130" x2="963.485168" y2="1088.676025" style="stroke: green; stroke-width: 0.200000"/>
   <line x1="964.485168" y1="1073.428833" x2="964.485168" y2="1088.334961" style="stroke: green; stroke-width: 0.200000"/>
   <line x1="965.485229" y1="1072.899536" x2="965.485229" y2="1087.958740" style="stroke: green; stroke-width: 0.200000"/>
   <line x1="966.485229" y1="1072.245605" x2="966.485229" y2="1087.505737" style="stroke: green; stroke-width: 0.200000"/>
   <line x1="967.485229" y1="1071.465942" x2="967.485229" y2="1087.021729" style="stroke: green; stroke-width: 0.200000"/>
   <line x1="968.485168" y1="1070.686157" x2="968.485168" y2="1086.508911" style="stroke: green; stroke-width: 0.200000"/>
   <line x1="969.485168" y1="1070.578247" x2="969.485168" y2="1086.051514" style="stroke: green; stroke-width: 0.200000"/>
   <line x1="970.485229" y1="1070.578247" x2="970.485229" y2="1085.550049" style="stroke: green; stroke-width: 0.200000"/>
   <line x1="971.485229" y1="1070.578247" x2="971.485229" y2="1084.978760" style="stroke: green; stroke-width: 0.200000"/>
   <line x1="972.485229" y1="1070.578247" x2="972.485229" y2="1084.374023" style="stroke: green; stroke-width: 0.200000"/>
   <line x1="973.485168" y1="1070.578247" x2="973.485168" y2="1083.738525" style="stroke: green; stroke-width: 0.200000"/>
   <line x1="974.485168" y1="1070.578247" x2="974.485168" y2="1083.102905" style="stroke: green; stroke-width: 0.200000"/>
   <line x1="975.485229" y1="1070.578247" x2="975.485229" y2="1082.467285" style="stroke: green; stroke-width: 0.200000"/>
   <line x1="976.485229" y1="1070.578247" x2="976.485229" y2="1081.741699" style="stroke: green; stroke-width: 0.200000"/>
   <line x1="977.485229" y1="1070.578247" x2="977.485229" y2="1081.002930" style="stroke: green; stroke-width: 0.200000"/>
   <line x1="978.485168" y1="1070.578247" x2="978.485168" y2="1080.249146" style="stroke: green; stroke-width: 0.200000"/>
   <line x1="979.485168" y1="1070.578247" x2="979.485168" y2="1079.448730" style="stroke: green; stroke-width: 0.200000"/>
   <line x1="980.485229" y1="1070.578247" x2="980.485229" y2="1078.648315" style="stroke: green; stroke-width: 0.200000"/>
   <line x1="981.485229" y1="1070.578247" x2="981.485229" y2="1077.780518" style="stroke: green; stroke-width: 0.200000"/>
   <line x1="982.485229" y1="1070.578247" x2="982.485229" y2="1076.851074" style="stroke: green; stroke-width: 0.200000"/>
   <line x1="983.485168" y1="1070.578247" x2="983.485168" y2="1075.921753" style="stroke: green; stroke-width: 0.200000"/>
   <line x1="984.485168" y1="1070.578247" x2="984.485168" y2="1074.943970" style="stroke: green; stroke-width: 0.200000"/>
   <line x1="985.485229" y1="1070.578247" x2="985.485229" y2="1073.941162" style="stroke: green; stroke-width: 0.200000"/>
   <line x1="986.485229" y1="1070.578247" x2="986.485229" y2="1072.957031" style="stroke: green; stroke-width: 0.200000"/>
   <line x1="987.485229" y1="1070.578247" x2="987.485229" y2="1071.889404" style="stroke: green; stroke-width: 0.200000"/>
   <line x1="1013.549927" y1="929.887634" x2="1013.549927" y2="964.990784" style="stroke: green; stroke-width: 0.200000"/>
   <line x1="1014.549927" y1="928.851868" x2="1014.549927" y2="964.990784" style="stroke: green; stroke-width: 0.200000"/>
   <line x1="1015.549927" y1="927.816040" x2="1015.549927" y2="964.990784" style="stroke: green; stroke-width: 0.200000"/>
   <line x1="1016.549988" y1="926.780151" x2="1016.549988" y2="964.990784" style="stroke: green; stroke-width: 0.200000"/>
   <line x1="1017.549988" y1="948.242310" x2="1017.549988" y2="964.990784" style="stroke: green; stroke-width: 0.200000"/>
   <line x1="1018.549927" y1="951.473267" x2="1018.549927" y2="964.990784" style="stroke: green; stroke-width: 0.200000"/>
   <line x1="1019.549927" y1="953.865295" x2="1019.549927" y2="964.990784" style="stroke: green; stroke-width: 0.200000"/>
   <line x1="1020.549927" y1="956.046448" x2="1020.549927" y2="964.990784" style="stroke: green; stroke-width: 0.200000"/>
   <line x1="1021.549988" y1="958.123474" x2="1021.549988" y2="964.990784" style="stroke: green; stroke-width: 0.200000"/>
   <line x1="1022.549988" y1="960.115845" x2="1022.549988" y2="964.990784" style="stroke: green; stroke-width: 0.200000"/>
   <line x1="1023.549927" y1="961.911499" x2="1023.549927" y2="964.990784" style="stroke: green; stroke-width: 0.200000"/>
   <line x1="1024.549927" y1="963.631470" x2="1024.549927" y2="964.990784" style="stroke: green; stroke-width: 0.200000"/>
   <line x1="1012.549988" y1="930.923462" x2="1012.549988" y2="964.907166" style="stroke: green; stroke-width: 0.200000"/>
   <line x1="1011.549988" y1="932.220764" x2="1011.549988" y2="962.889526" style="stroke: green; stroke-width: 0.200000"/>
   <line x1="1010.549927" y1="933.522888" x2="1010.549927" y2="960.768494" style="stroke: green; stroke-width: 0.200000"/>
   <line x1="1009.549927" y1="934.824890" x2="1009.549927" y2="958.407104" style="stroke: green; stroke-width: 0.200000"/>
   <line x1="1008.549927" y1="936.111755" x2="1008.549927" y2="955.938965" style="stroke: green; stroke-width: 0.200000"/>
   <line x1="1007.549988" y1="937.395630" x2="1007.549988" y2="953.256104" style="stroke: green; stroke-width: 0.200000"/>
   <line x1="1006.549988" y1="939.269043" x2="1006.549988" y2="950.326599" style="stroke: green; stroke-width: 0.200000"/>
   <line x1="1017.549988" y1="925.744385" x2="1017.549988" y2="945.259277" style="stroke: green; stroke-width: 0.200000"/>
   <line x1="1018.549927" y1="924.708618" x2="1018.549927" y2="943.749146" style="stroke: green; stroke-width: 0.200000"/>
   <line x1="1005.549927" y1="942.690918" x2="1005.549927" y2="943.574890" style="stroke: green; stroke-width: 0.200000"/>
   <line x1="1019.549927" y1="923.949585" x2="1019.549927" y2="942.410278" style="stroke: green; stroke-width: 0.200000"/>
   <line x1="1020.549927" y1="923.190552" x2="1020.549927" y2="941.072937" style="stroke: green; stroke-width: 0.200000"/>
   <line x1="1021.549988" y1="922.431519" x2="1021.549988" y2="939.758179" style="stroke: green; stroke-width: 0.200000"/>
   <line x1="1022.549988" y1="921.672424" x2="1022.549988" y2="938.655640" style="stroke: green; stroke-width: 0.200000"/>
   <line x1="1023.549927" y1="920.916443" x2="1023.549927" y2="937.617249" style="stroke: green; stroke-width: 0.200000"/>
   <line x1="1024.549927" y1="920.169922" x2="1024.549927" y2="936.578857" style="stroke: green; stroke-width: 0.200000"/>
   <line x1="1054.549927" y1="924.277039" x2="1054.549927" y2="935.790466" style="stroke: green; stroke-width: 0.200000"/>
   <line x1="1053.549927" y1="923.443909" x2="1053.549927" y2="935.766663" style="stroke: green; stroke-width: 0.200000"/>
   <line x1="1025.549927" y1="919.435547" x2="1025.549927" y2="935.540466" style="stroke: green; stroke-width: 0.200000"/>
   <line x1="1052.549927" y1="922.610718" x2="1052.549927" y2="935.027100" style="stroke: green; stroke-width: 0.200000"/>
   <line x1="1026.550049" y1="918.917725" x2="1026.550049" y2="934.507690" style="stroke: green; stroke-width: 0.200000"/>
   <line x1="1051.550049" y1="921.848389" x2="1051.550049" y2="934.287598" style="stroke: green; stroke-width: 0.200000"/>
   <line x1="1027.549927" y1="918.399780" x2="1027.549927" y2="933.684082" style="stroke: green; stroke-width: 0.200000"/>
   <line x1="1050.549927" y1="921.127197" x2="1050.549927" y2="933.548035" style="stroke: green; stroke-width: 0.200000"/>
   <line x1="1028.549927" y1="917.881958" x2="1028.549927" y2="932.969360" style="stroke: green; stroke-width: 0.200000"/>
   <line x1="1049.549927" y1="920.405945" x2="1049.549927" y2="932.808472" style="stroke: green; stroke-width: 0.200000"/>
   <line x1="1029.549927" y1="917.364014" x2="1029.549927" y2="932.249146" style="stroke: green; stroke-width: 0.200000"/>
   <line x1="1048.549927" y1="919.691406" x2="1048.549927" y2="932.068970" style="stroke: green; stroke-width: 0.200000"/>
   <line x1="1030.549927" y1="916.846191" x2="1030.549927" y2="931.528931" style="stroke: green; stroke-width: 0.200000"/>
   <line x1="1047.549927" y1="919.068665" x2="1047.549927" y2="931.329407" style="stroke: green; stroke-width: 0.200000"/>
   <line x1="1031.550049" y1="916.328247" x2="1031.550049" y2="930.808716" style="stroke: green; stroke-width: 0.200000"/>
   <line x1="1046.550049" y1="918.465515" x2="1046.550049" y2="930.589905" style="stroke: green; stroke-width: 0.200000"/>
   <line x1="1032.549927" y1="915.810425" x2="1032.549927" y2="930.088440" style="stroke: green; stroke-width: 0.200000"/>
   <line x1="1045.549927" y1="917.895752" x2="1045.549927" y2="929.916931" style="stroke: green; stroke-width: 0.200000"/>
   <line x1="1033.549927" y1="915.382446" x2="1033.549927" y2="929.551941" style="stroke: green; stroke-width: 0.200000"/>
   <line x1="1044.549927" y1="917.402954" x2="1044.549927" y2="929.316711" style="stroke: green; stroke-width: 0.200000"/>
   <line x1="1034.549927" y1="915.112183" x2="1034.549927" y2="929.090576" style="stroke: green; stroke-width: 0.200000"/>
   <line x1="1043.549927" y1="916.932495" x2="1043.549927" y2="928.716125" style="stroke: green; stroke-width: 0.200000"/>
   <line x1="1035.549927" y1="915.031128" x2="1035.549927" y2="928.629211" style="stroke: green; stroke-width: 0.200000"/>
   <line x1="1042.549927" y1="916.462097" x2="1042.549927" y2="928.197144" style="stroke: green; stroke-width: 0.200000"/>
   <line x1="1036.550049" y1="915.017029" x2="1036.550049" y2="928.167847" style="stroke: green; stroke-width: 0.200000"/>
   <line x1="1041.550049" y1="916.062866" x2="1041.550049" y2="927.777100" style="stroke: green; stroke-width: 0.200000"/>
   <line x1="1037.549927" y1="915.100708" x2="1037.549927" y2="927.706543" style="stroke: green; stroke-width: 0.200000"/>
   <line x1="1040.549927" y1="915.689758" x2="1040.549927" y2="927.392578" style="stroke: green; stroke-width: 0.200000"/>
   <line x1="1038.549927" y1="915.238403" x2="1038.549927" y2="927.291992" style="stroke: green; stroke-width: 0.200000"/>
   <line x1="1039.549927" y1="915.439453" x2="1039.549927" y2="927.181458" style="stroke: green; stroke-width: 0.200000"/>
   <line x1="1074.549927" y1="947.898193" x2="1074.549927" y2="964.990784" style="stroke: green; stroke-width: 0.200000"/>
   <line x1="1075.549927" y1="947.685852" x2="1075.549927" y2="964.990784" style="stroke: green; stroke-width: 0.200000"/>
   <line x1="1076.550049" y1="949.179749" x2="1076.550049" y2="964.990784" style="stroke: green; stroke-width: 0.200000"/>
   <line x1="1077.549927" y1="950.673767" x2="1077.549927" y2="964.990784" style="stroke: green; stroke-width: 0.200000"/>
   <line x1="1078.549927" y1="952.167664" x2="1078.549927" y2="964.990784" style="stroke: green; stroke-width: 0.200000"/>
   <line x1="1079.549927" y1="953.772827" x2="1079.549927" y2="964.990784" style="stroke: green; stroke-width: 0.200000"/>
   <line x1="1080.549927" y1="955.526428" x2="1080.549927" y2="964.990784" style="stroke: green; stroke-width: 0.200000"/>
   <line x1="1081.550049" y1="957.339783" x2="1081.550049" y2="964.990784" style="stroke: green; stroke-width: 0.200000"/>
   <line x1="1082.549927" y1="959.153137" x2="1082.549927" y2="964.990784" style="stroke: green; stroke-width: 0.200000"/>
   <line x1="1083.549927" y1="961.177673" x2="1083.549927" y2="964.990784" style="stroke: green; stroke-width: 0.200000"/>
   <line x1="1084.549927" y1="963.517395" x2="1084.549927" y2="964.990784" style="stroke: green; stroke-width: 0.200000"/>
   <line x1="1073.549927" y1="948.408081" x2="1073.549927" y2="964.074097" style="stroke: green; stroke-width: 0.200000"/>
   <line x1="1072.549927" y1="948.917786" x2="1072.549927" y2="961.943359" style="stroke: green; stroke-width: 0.200000"/>
   <line x1="1071.550049" y1="949.427490" x2="1071.550049" y2="959.812866" style="stroke: green; stroke-width: 0.200000"/>
   <line x1="1070.549927" y1="949.937195" x2="1070.549927" y2="957.682251" style="stroke: green; stroke-width: 0.200000"/>
   <line x1="1069.549927" y1="950.447021" x2="1069.549927" y2="955.551758" style="stroke: green; stroke-width: 0.200000"/>
   <line x1="1068.549927" y1="950.956787" x2="1068.549927" y2="953.421143" style="stroke: green; stroke-width: 0.200000"/>
   <line x1="1056.550049" y1="926.017578" x2="1056.550049" y2="933.243896" style="stroke: green; stroke-width: 0.200000"/>
   <line x1="1057.549927" y1="926.915222" x2="1057.549927" y2="931.970459" style="stroke: green; stroke-width: 0.200000"/>
   <line x1="1058.549927" y1="927.850464" x2="1058.549927" y2="930.697083" style="stroke: green; stroke-width: 0.200000"/>
   <line x1="1059.549927" y1="928.869934" x2="1059.549927" y2="929.423828" style="stroke: green; stroke-width: 0.200000"/>
   <line x1="1054.549927" y1="992.050293" x2="1054.549927" y2="1004.367920" style="stroke: green; stroke-width: 0.200000"/>
   <line x1="1053.549927" y1="991.590637" x2="1053.549927" y2="1003.972839" style="stroke: green; stroke-width: 0.200000"/>
   <line x1="1052.549927" y1="991.131042" x2="1052.549927" y2="1003.577759" style="stroke: green; stroke-width: 0.200000"/>
   <line x1="1051.550049" y1="990.671509" x2="1051.550049" y2="1003.145691" style="stroke: green; stroke-width: 0.200000"/>
   <line x1="1050.549927" y1="990.086304" x2="1050.549927" y2="1002.686035" style="stroke: green; stroke-width: 0.200000"/>
   <line x1="1049.549927" y1="989.456116" x2="1049.549927" y2="1002.206665" style="stroke: green; stroke-width: 0.200000"/>
   <line x1="1048.549927" y1="988.788147" x2="1048.549927" y2="1001.662048" style="stroke: green; stroke-width: 0.200000"/>
   <line x1="1047.549927" y1="988.120239" x2="1047.549927" y2="1001.098145" style="stroke: green; stroke-width: 0.200000"/>
   <line x1="1046.550049" y1="987.452332" x2="1046.550049" y2="1000.534302" style="stroke: green; stroke-width: 0.200000"/>
   <line x1="1045.549927" y1="986.732483" x2="1045.549927" y2="999.970398" style="stroke: green; stroke-width: 0.200000"/>
   <line x1="1044.549927" y1="985.961853" x2="1044.549927" y2="999.362244" style="stroke: green; stroke-width: 0.200000"/>
   <line x1="1043.549927" y1="985.195251" x2="1043.549927" y2="998.709778" style="stroke: green; stroke-width: 0.200000"/>
   <line x1="1042.549927" y1="984.435730" x2="1042.549927" y2="998.057251" style="stroke: green; stroke-width: 0.200000"/>
   <line x1="1041.550049" y1="983.583435" x2="1041.550049" y2="997.447876" style="stroke: green; stroke-width: 0.200000"/>
   <line x1="1040.549927" y1="982.704590" x2="1040.549927" y2="996.810364" style="stroke: green; stroke-width: 0.200000"/>
   <line x1="1039.549927" y1="981.848267" x2="1039.549927" y2="996.152405" style="stroke: green; stroke-width: 0.200000"/>
   <line x1="1038.549927" y1="980.994629" x2="1038.549927" y2="995.430298" style="stroke: green; stroke-width: 0.200000"/>
   <line x1="1037.549927" y1="980.079224" x2="1037.549927" y2="994.668945" style="stroke: green; stroke-width: 0.200000"/>
   <line x1="1036.550049" y1="979.080933" x2="1036.550049" y2="993.907593" style="stroke: green; stroke-width: 0.200000"/>
   <line x1="1035.549927" y1="978.078064" x2="1035.549927" y2="993.146362" style="stroke: green; stroke-width: 0.200000"/>
   <line x1="1034.549927" y1="977.074646" x2="1034.549927" y2="992.309082" style="stroke: green; stroke-width: 0.200000"/>
   <line x1="1033.549927" y1="976.020142" x2="1033.549927" y2="991.451721" style="stroke: green; stroke-width: 0.200000"/>
   <line x1="1032.549927" y1="974.876770" x2="1032.549927" y2="990.594421" style="stroke: green; stroke-width: 0.200000"/>
   <line x1="1031.550049" y1="973.696655" x2="1031.550049" y2="989.737000" style="stroke: green; stroke-width: 0.200000"/>
   <line x1="1030.549927" y1="972.516602" x2="1030.549927" y2="988.879639" style="stroke: green; stroke-width: 0.200000"/>
   <line x1="1029.549927" y1="971.219604" x2="1029.549927" y2="987.921204" style="stroke: green; stroke-width: 0.200000"/>
   <line x1="1028.549927" y1="969.872192" x2="1028.549927" y2="986.918335" style="stroke: green; stroke-width: 0.200000"/>
   <line x1="1027.549927" y1="968.475464" x2="1027.549927" y2="985.915466" style="stroke: green; stroke-width: 0.200000"/>
   <line x1="1026.550049" y1="966.993530" x2="1026.550049" y2="984.912598" style="stroke: green; stroke-width: 0.200000"/>
   <line x1="1025.549927" y1="965.401855" x2="1025.549927" y2="983.909668" style="stroke: green; stroke-width: 0.200000"/>
   <line x1="1024.549927" y1="965.090820" x2="1024.549927" y2="982.737305" style="stroke: green; stroke-width: 0.200000"/>
   <line x1="1023.549927" y1="965.090820" x2="1023.549927" y2="981.561218" style="stroke: green; stroke-width: 0.200000"/>
   <line x1="1022.549988" y1="965.090820" x2="1022.549988" y2="980.385071" style="stroke: green; stroke-width: 0.200000"/>
   <line x1="1021.549988" y1="965.090820" x2="1021.549988" y2="979.208984" style="stroke: green; stroke-width: 0.200000"/>
   <line x1="1020.549927" y1="965.090820" x2="1020.549927" y2="977.899841" style="stroke: green; stroke-width: 0.200000"/>
   <line x1="1019.549927" y1="965.090820" x2="1019.549927" y2="976.503235" style="stroke: green; stroke-width: 0.200000"/>
   <line x1="1018.549927" y1="965.090820" x2="1018.549927" y2="975.106567" style="stroke: green; stroke-width: 0.200000"/>
   <line x1="1017.549988" y1="965.090820" x2="1017.549988" y2="973.691467" style="stroke: green; stroke-width: 0.200000"/>
   <line x1="1016.549988" y1="965.090820" x2="1016.549988" y2="972.053955" style="stroke: green; stroke-width: 0.200000"/>
   <line x1="1015.549927" y1="965.090820" x2="1015.549927" y2="970.339905" style="stroke: green; stroke-width: 0.200000"/>
   <line x1="1014.549927" y1="965.090820" x2="1014.549927" y2="968.656738" style="stroke: green; stroke-width: 0.200000"/>
   <line x1="1013.549927" y1="965.090820" x2="1013.549927" y2="966.924744" style="stroke: green; stroke-width: 0.200000"/>
   <line x1="1060.549927" y1="991.062134" x2="1060.549927" y2="1005.420593" style="stroke: green; stroke-width: 0.200000"/>
   <line x1="1059.549927" y1="991.810364" x2="1059.549927" y2="1005.407959" style="stroke: green; stroke-width: 0.200000"/>
   <line x1="1061.550049" y1="990.313721" x2="1061.550049" y2="1005.315918" style="stroke: green; stroke-width: 0.200000"/>
   <line x1="1058.549927" y1="992.558838" x2="1058.549927" y2="1005.272278" style="stroke: green; stroke-width: 0.200000"/>
   <line x1="1062.549927" y1="989.572388" x2="1062.549927" y2="1005.211304" style="stroke: green; stroke-width: 0.200000"/>
   <line x1="1057.549927" y1="992.934082" x2="1057.549927" y2="1005.136597" style="stroke: green; stroke-width: 0.200000"/>
   <line x1="1056.550049" y1="992.805237" x2="1056.550049" y2="1005.000854" style="stroke: green; stroke-width: 0.200000"/>
   <line x1="1063.549927" y1="988.740723" x2="1063.549927" y2="1004.942017" style="stroke: green; stroke-width: 0.200000"/>
   <line x1="1064.549927" y1="987.781616" x2="1064.549927" y2="1004.486816" style="stroke: green; stroke-width: 0.200000"/>
   <line x1="1065.549927" y1="986.822449" x2="1065.549927" y2="1004.007202" style="stroke: green; stroke-width: 0.200000"/>
   <line x1="1066.550049" y1="985.863342" x2="1066.550049" y2="1003.209717" style="stroke: green; stroke-width: 0.200000"/>
   <line x1="1067.549927" y1="984.904236" x2="1067.549927" y2="1002.412170" style="stroke: green; stroke-width: 0.200000"/>
   <line x1="1068.549927" y1="983.951050" x2="1068.549927" y2="1001.614685" style="stroke: green; stroke-width: 0.200000"/>
   <line x1="1069.549927" y1="982.568665" x2="1069.549927" y2="1000.817200" style="stroke: green; stroke-width: 0.200000"/>
   <line x1="1070.549927" y1="981.186279" x2="1070.549927" y2="1000.019653" style="stroke: green; stroke-width: 0.200000"/>
   <line x1="1071.550049" y1="979.809326" x2="1071.550049" y2="999.222168" style="stroke: green; stroke-width: 0.200000"/>
   <line x1="1072.549927" y1="978.373901" x2="1072.549927" y2="998.265869" style="stroke: green; stroke-width: 0.200000"/>
   <line x1="1073.549927" y1="976.292725" x2="1073.549927" y2="997.294006" style="stroke: green; stroke-width: 0.200000"/>
   <line x1="1074.549927" y1="974.220459" x2="1074.549927" y2="996.367065" style="stroke: green; stroke-width: 0.200000"/>
   <line x1="1075.549927" y1="965.090820" x2="1075.549927" y2="995.524658" style="stroke: green; stroke-width: 0.200000"/>
   <line x1="1076.550049" y1="965.090820" x2="1076.550049" y2="994.682312" style="stroke: green; stroke-width: 0.200000"/>
   <line x1="1077.549927" y1="965.090820" x2="1077.549927" y2="993.793579" style="stroke: green; stroke-width: 0.200000"/>
   <line x1="1078.549927" y1="965.090820" x2="1078.549927" y2="992.589050" style="stroke: green; stroke-width: 0.200000"/>
   <line x1="1079.549927" y1="965.090820" x2="1079.549927" y2="991.256165" style="stroke: green; stroke-width: 0.200000"/>
   <line x1="1080.549927" y1="965.090820" x2="1080.549927" y2="989.923218" style="stroke: green; stroke-width: 0.200000"/>
   <line x1="1081.550049" y1="965.090820" x2="1081.550049" y2="988.590393" style="stroke: green; stroke-width: 0.200000"/>
   <line x1="1082.549927" y1="965.090820" x2="1082.549927" y2="987.257446" style="stroke: green; stroke-width: 0.200000"/>
   <line x1="1083.549927" y1="965.090820" x2="1083.549927" y2="985.639893" style="stroke: green; stroke-width: 0.200000"/>
   <line x1="1084.549927" y1="965.090820" x2="1084.549927" y2="983.764526" style="stroke: green; stroke-width: 0.200000"/>
   <line x1="1085.549927" y1="966.180359" x2="1085.549927" y2="981.889160" style="stroke: green; stroke-width: 0.200000"/>
   <line x1="1086.550049" y1="969.181458" x2="1086.550049" y2="980.055054" style="stroke: green; stroke-width: 0.200000"/>
   <line x1="1074.549927" y1="965.090820" x2="1074.549927" y2="966.966858" style="stroke: green; stroke-width: 0.200000"/>
   <path d="M 934.553  1018.98  934.656  1018.98  939.044  1019.81  940.84  1020.33  944.741  1021.63  946.423  1022.25  949.585  1023.5  954.926  1026.11  959.917  1029.17  962.457  1030.91  965.587  1033.21  970.829  1037.66  974.784  1041.47  975.746  1042.42  979.274  1046.34  980.316  1047.52  983.612  1051.76  986.068  1055.58  987.073  1057.05  988.497  1059.71  988.824  1060.36  989.228  1061.23  989.622  1062.26  990.286  1064.46  990.568  1067.89  989.896  1070.92  988.716  1072.75  988.361  1073.34  988.256  1073.44  987.391  1074.15  984.867  1076.69  981.943  1079.4  979.156  1081.63  976.46  1083.62  972.74  1085.99  971.057  1086.95  969.782  1087.58  969.229  1087.81  967.618  1088.64  965.703  1089.51  964.152  1090.03  962.14  1090.76  961.9  1090.83  959.202  1091.23  957.837  1091.38  956.99  1091.36  954.946  1091.38  954.414  1091.34  951.634  1090.83  949.768  1090.37  947.948  1089.96  945.29  1089.21  943.66  1088.59  941.07  1087.5  938.464  1086.44  937.063  1085.82  934.088  1084.18  930.953  1082.49  929.495  1081.66  922.468  1076.82  916.865  1072.04  915.899  1071.2  911.972  1066.81  909.956  1064.39  908.888  1062.81  907.358  1060.28  907.056  1059.69  906.427  1058.2  905.54  1055.77  905.354  1055.18  905.294  1054.91  905.147  1053.24  904.993  1051.82  905.04  1050.76  905.168  1050.05  905.192  1049.62  905.418  1048.95  907.502  1044.01  908.731  1041.41  913.554  1033.83  919.253  1027.15  921.669  1024.83  925.287  1021.54  926.099  1021.11  927.846  1019.99  930.992  1019.12  934.381  1018.98  934.553  1018.98  " style="fill: none; stroke: red; stroke-width: 0.200000; fill-type: evenodd"  fill-opacity="1.000000" />
   <path d="M 932.771  1082.33  931.437  1081.61  930.025  1080.82  923.078  1076.03  920.305  1073.66  " style="fill: none; stroke: black; stroke-width: 0.200000; fill-type: evenodd"  fill-opacity="1.000000" />
   <path d="M 920.305  1073.66  917.518  1071.29  916.604  1070.49  912.729  1066.15  910.756  1063.79  909.731  1062.28  908.232  1059.79  907.962  1059.27  907.358  1057.83  906.487  1055.45  906.32  1054.92  906.284  1054.76  906.143  1053.15  905.996  1051.79  906.036  1050.87  906.163  1050.17  906.183  1049.81  906.354  1049.3  908.415  1044.42  909.609  1041.89  914.36  1034.42  919.981  1027.84  922.352  1025.56  925.865  1022.36  926.602  1021.98  928.258  1020.91  931.147  1020.12  934.384  1019.98  934.57  1019.98  938.811  1020.79  940.543  1021.29  944.411  1022.57  946.066  1023.18  949.181  1024.42  954.444  1026.99  959.372  1030.01  961.877  1031.72  964.966  1034  970.158  1038.4  974.086  1042.19  975.022  1043.11  978.527  1047  979.545  1048.16  982.795  1052.33  985.234  1056.13  986.216  1057.57  987.61  1060.17  987.924  1060.79  988.305  1061.62  988.674  1062.59  989.298  1064.65  989.559  1067.82  988.959  1070.53  987.868  1072.22  987.571  1072.71  986.717  1073.41  984.172  1075.97  981.29  1078.64  978.546  1080.84  975.894  1082.8  972.224  1085.13  970.588  1086.07  969.365  1086.67  968.804  1086.91  967.183  1087.74  965.335  1088.58  963.822  1089.09  961.831  1089.81  961.686  1089.85  959.075  1090.24  957.794  1090.37  956.994  1090.36  954.98  1090.38  954.543  1090.35  951.844  1089.85  949.997  1089.4  948.193  1088.99  945.604  1088.26  944.032  1087.66  941.452  1086.57  938.853  1085.52  937.507  1084.93  934.568  1083.3  932.771  1082.33  " style="fill: none; stroke: red; stroke-width: 0.200000; fill-type: evenodd"  fill-opacity="1.000000" />
   <path d="M 1038.3  913.659  1040.52  914.105  1040.89  914.217  1042.86  914.952  1045.76  916.315  1046.68  916.794  1048.58  917.938  1049.46  918.493  1053.1  921.119  1056.38  923.849  1058.68  925.913  1059.5  926.675  1065.25  932.538  1070.59  938.666  1075.6  945.122  1076.78  946.829  1080.27  952.042  1081.36  953.896  1084.53  959.639  1085.59  962.164  1086.17  963.471  1087.8  968.003  1088.04  968.926  1088.11  969.245  1088.7  973.387  1088.69  974.437  1088.92  975.477  1088.91  976.145  1088.61  978.423  1088.39  979.061  1088.04  980.421  1087.89  980.725  1087.07  982.233  1084.29  987.432  1079.01  994.471  1078.13  995.308  1075.21  997.772  1072.63  1000.28  1066.35  1005.28  1066.24  1005.37  1063.48  1006.62  1060.01  1006.98  1056.06  1006.45  1054.56  1005.98  1051.53  1004.79  1049.13  1003.68  1048.04  1003.09  1044.27  1000.97  1041.55  999.193  1040.93  998.83  1039.4  997.857  1038.26  997.094  1034.39  994.15  1033.62  993.472  1029.22  989.719  1024.42  984.906  1020.17  979.905  1019.59  979.129  1016.44  974.732  1015.68  973.568  1014.9  972.177  1012.38  967.936  1009.83  962.791  1008.65  960.225  1007.78  958.004  1006.67  955.322  1005.13  950.802  1004.96  950.218  1004.19  946.466  1004.02  942.992  1004.03  942.594  1004.8  939.369  1005.59  937.887  1006.16  936.733  1008.2  934.122  1011.39  929.961  1017.55  923.584  1022.4  919.9  1024.7  918.188  1032.27  914.268  1032.76  914.042  1034.41  913.596  1036.26  913.487  1038.3  913.659  " style="fill: none; stroke: red; stroke-width: 0.200000; fill-type: evenodd"  fill-opacity="1.000000" />
   <path d="M 1052.64  922.035  1055.72  924.605  1058  926.652  1058.8  927.392  1064.51  933.217  1069.81  939.302  1074.79  945.714  1075.95  947.392  1079.42  952.575  1080.5  954.392  1081.23  955.717  " style="fill: none; stroke: black; stroke-width: 0.200000; fill-type: evenodd"  fill-opacity="1.000000" />
   <path d="M 1081.23  955.717  1083.63  960.075  1084.67  962.56  1085.24  963.843  1086.84  968.301  1087.07  969.156  1087.12  969.418  1087.7  973.451  1087.69  974.539  1087.92  975.583  1087.91  976.076  1087.63  978.192  1087.43  978.774  1087.09  980.077  1087  980.267  1086.19  981.757  1083.45  986.893  1078.26  993.804  1077.47  994.564  1074.54  997.03  1071.97  999.527  1065.74  1004.49  1063.21  1005.64  1060.03  1005.98  1056.27  1005.47  1054.89  1005.04  1051.93  1003.87  1049.57  1002.79  1048.52  1002.22  1044.79  1000.12  1042.07  998.343  1041.45  997.977  1039.95  997.02  1038.84  996.279  1035.03  993.375  1034.28  992.716  1029.9  988.984  1025.16  984.228  1020.95  979.278  1020.39  978.536  1017.26  974.168  1016.54  973.05  1015.76  971.676  1013.26  967.458  1010.73  962.36  1009.57  959.834  1008.71  957.631  1007.61  954.969  1006.08  950.504  1005.93  949.981  1005.18  946.34  1005.02  942.982  1005.03  942.726  1005.74  939.725  1006.47  938.345  1007.01  937.27  1008.99  934.734  1012.15  930.615  1018.22  924.334  1023.01  920.699  1025.23  919.038  1032.71  915.167  1033.1  914.985  1034.57  914.588  1036.24  914.49  1038.16  914.65  1040.28  915.076  1040.57  915.165  1042.48  915.875  1045.32  917.212  1046.19  917.667  1048.05  918.789  1048.9  919.323  1052.49  921.91  1052.64  922.035  " style="fill: none; stroke: red; stroke-width: 0.200000; fill-type: evenodd"  fill-opacity="1.000000" />
   <path d="M 998.432  1107.15  999.283  1107.88  999.601  1108.96  999.283  1110.05  998.432  1110.78  997.316  1110.94  996.291  1110.48  995.682  1109.53  995.682  1108.4  996.291  1107.45  997.316  1106.99  998.432  1107.15  " style="fill: none; stroke: purple; stroke-width: 0.500000; fill-type: evenodd"  fill-opacity="1.000000" />
   <path d="M 1018.6  1087.23  1019.33  1087.96  1019.6  1088.96  1019.33  1089.96  1018.6  1090.7  1017.6  1090.96  1016.6  1090.7  1015.87  1089.96  1015.6  1088.96  1015.87  1087.96  1016.6  1087.23  1017.6  1086.96  1018.6  1087.23  " style="fill: none; stroke: purple; stroke-width: 0.500000; fill-type: evenodd"  fill-opacity="1.000000" />
   <path d="M 1039.24  1066.59  1040.16  1067.62  1040.49  1068.96  1040.16  1070.31  1039.24  1071.34  1037.95  1071.83  1036.58  1071.67  1035.44  1070.88  1034.8  1069.66  1034.8  1068.27  1035.44  1067.05  1036.58  1066.26  1037.95  1066.1  1039.24  1066.59  " style="fill: none; stroke: purple; stroke-width: 0.500000; fill-type: evenodd"  fill-opacity="1.000000" />
   <path d="M 1018.6  1067.23  1019.33  1067.96  1019.6  1068.96  1019.33  1069.96  1018.6  1070.7  1017.6  1070.96  1016.6  1070.7  1015.87  1069.96  1015.6  1068.96  1015.87  1067.96  1016.6  1067.23  1017.6  1066.96  1018.6  1067.23  " style="fill: none; stroke: purple; stroke-width: 0.500000; fill-type: evenodd"  fill-opacity="1.000000" />
   <path d="M 1059.24  1046.59  1060.16  1047.62  1060.49  1048.96  1060.16  1050.31  1059.24  1051.34  1057.95  1051.83  1056.58  1051.67  1055.44  1050.88  1054.8  1049.66  1054.8  1048.27  1055.44  1047.05  1056.58  1046.26  1057.95  1046.1  1059.24  1046.59  " style="fill: none; stroke: purple; stroke-width: 0.500000; fill-type: evenodd"  fill-opacity="1.000000" />
   <path d="M 1038.7  1047.07  1039.5  1047.87  1039.79  1048.96  1039.5  1050.06  1038.7  1050.86  1037.6  1051.16  1036.51  1050.86  1035.7  1050.06  1035.41  1048.96  1035.7  1047.87  1036.51  1047.07  1037.6  1046.77  1038.7  1047.07  " style="fill: none; stroke: purple; stroke-width: 0.500000; fill-type: evenodd"  fill-opacity="1.000000" />
   <path d="M 1018.6  1047.23  1019.33  1047.96  1019.6  1048.96  1019.33  1049.96  1018.6  1050.7  1017.6  1050.96  1016.6  1050.7  1015.87  1049.96  1015.6  1048.96  1015.87  1047.96  1016.6  1047.23  1017.6  1046.96  1018.6  1047.23  " style="fill: none; stroke: purple; stroke-width: 0.500000; fill-type: evenodd"  fill-opacity="1.000000" />
   <path d="M 1099.05  1026.86  1099.86  1027.78  1100.15  1028.96  1099.86  1030.15  1099.05  1031.06  1097.91  1031.5  1096.7  1031.35  1095.69  1030.66  1095.12  1029.58  1095.12  1028.35  1095.69  1027.27  1096.7  1026.58  1097.91  1026.43  1099.05  1026.86  " style="fill: none; stroke: purple; stroke-width: 0.500000; fill-type: evenodd"  fill-opacity="1.000000" />
   <path d="M 1038.6  1027.23  1039.33  1027.96  1039.6  1028.96  1039.33  1029.96  1038.6  1030.7  1037.6  1030.96  1036.6  1030.7  1035.87  1029.96  1035.6  1028.96  1035.87  1027.96  1036.6  1027.23  1037.6  1026.96  1038.6  1027.23  " style="fill: none; stroke: purple; stroke-width: 0.500000; fill-type: evenodd"  fill-opacity="1.000000" />
   <path d="M 1059.51  1028.61  1059.6  1028.96  1059.33  1029.96  1058.6  1030.7  1057.6  1030.96  1056.6  1030.7  1055.87  1029.96  1055.6  1028.96  1055.83  1028.11  1059.51  1028.61  " style="fill: none; stroke: purple; stroke-width: 0.500000; fill-type: evenodd"  fill-opacity="1.000000" />
   <path d="M 1078.6  1027.23  1079.33  1027.96  1079.6  1028.96  1079.33  1029.96  1078.6  1030.7  1077.6  1030.96  1076.6  1030.7  1075.87  1029.96  1075.6  1028.96  1075.87  1027.96  1076.6  1027.23  1077.6  1026.96  1078.6  1027.23  " style="fill: none; stroke: purple; stroke-width: 0.500000; fill-type: evenodd"  fill-opacity="1.000000" />
   <path d="M 1098.6  1007.23  1099.33  1007.96  1099.6  1008.96  1099.33  1009.96  1098.6  1010.7  1097.6  1010.96  1096.6  1010.7  1095.87  1009.96  1095.6  1008.96  1095.87  1007.96  1096.6  1007.23  1097.6  1006.96  1098.6  1007.23  " style="fill: none; stroke: purple; stroke-width: 0.500000; fill-type: evenodd"  fill-opacity="1.000000" />
   <path d="M 898.432  1007.15  899.283  1007.88  899.601  1008.96  899.283  1010.05  898.432  1010.78  897.316  1010.94  896.291  1010.48  895.682  1009.53  895.682  1008.4  896.291  1007.45  897.316  1006.99  898.432  1007.15  " style="fill: none; stroke: purple; stroke-width: 0.500000; fill-type: evenodd"  fill-opacity="1.000000" />
   <path d="M 939.148  986.724  940.012  987.699  940.324  988.965  940.012  990.23  939.148  991.206  937.929  991.668  936.635  991.511  935.563  990.771  934.957  989.616  934.957  988.313  935.563  987.159  936.635  986.419  937.929  986.261  939.148  986.724  " style="fill: none; stroke: purple; stroke-width: 0.500000; fill-type: evenodd"  fill-opacity="1.000000" />
   <path d="M 959.241  965.005  960.631  965.934  961.56  967.325  961.887  968.965  961.56  970.605  960.631  971.995  959.241  972.924  957.601  973.25  955.961  972.924  954.57  971.995  953.641  970.605  953.315  968.965  953.641  967.325  954.57  965.934  955.961  965.005  957.601  964.679  959.241  965.005  " style="fill: none; stroke: purple; stroke-width: 0.500000; fill-type: evenodd"  fill-opacity="1.000000" />
   <path d="M 979.05  946.865  979.86  947.779  980.153  948.965  979.86  950.151  979.05  951.065  977.908  951.498  976.696  951.351  975.691  950.657  975.123  949.575  975.123  948.354  975.691  947.273  976.696  946.579  977.908  946.432  979.05  946.865  " style="fill: none; stroke: purple; stroke-width: 0.500000; fill-type: evenodd"  fill-opacity="1.000000" />
   <path d="M 998.601  907.233  999.333  907.965  999.601  908.965  999.333  909.965  998.601  910.697  997.601  910.965  996.601  910.697  995.869  909.965  995.601  908.965  995.869  907.965  996.601  907.233  997.601  906.965  998.601  907.233  " style="fill: none; stroke: purple; stroke-width: 0.500000; fill-type: evenodd"  fill-opacity="1.000000" />
</svg>
