<?xml version="1.0" encoding="UTF-8" standalone="yes"?>
<!DOCTYPE svg PUBLIC "-//W3C//DTD SVG 1.0//EN" "http://www.w3.org/TR/2001/REC-SVG-20010904/DTD/svg10.dtd">
<svg height="2000" width="2000" xmlns="http://www.w3.org/2000/svg" xmlns:svg="http://www.w3.org/2000/svg" xmlns:xlink="http://www.w3.org/1999/xlink">
   <marker id="endArrow" markerHeight="8" markerUnits="strokeWidth" markerWidth="10" orient="auto" refX="1" refY="5" viewBox="0 0 1000 1000">
      <polyline fill="darkblue" points="0,0 10,5 0,10 1,5" />
   </marker>
   <circle cx="1000" cy="1000" r="1" style="stroke:black; fill: red" />
   <circle cx="1000" cy="1000" r="800" style="stroke:black; fill: none" />
   <line x1="1082.592041" y1="1066.274902" x2="1075.742310" y2="1066.274902" style="stroke: green; stroke-width: 0.200000"/>
   <line x1="1082.592041" y1="1065.274902" x2="1076.742188" y2="1065.274902" style="stroke: green; stroke-width: 0.200000"/>
   <line x1="1082.592041" y1="1064.275024" x2="1077.742310" y2="1064.275024" style="stroke: green; stroke-width: 0.200000"/>
   <line x1="1082.592041" y1="1063.275024" x2="1078.742310" y2="1063.275024" style="stroke: green; stroke-width: 0.200000"/>
   <line x1="1082.592041" y1="1062.274902" x2="1079.742310" y2="1062.274902" style="stroke: green; stroke-width: 0.200000"/>
   <line x1="1082.592041" y1="1061.274902" x2="1080.742310" y2="1061.274902" style="stroke: green; stroke-width: 0.200000"/>
   <line x1="1082.592041" y1="1060.274902" x2="1081.742188" y2="1060.274902" style="stroke: green; stroke-width: 0.200000"/>
   <line x1="1085.001587" y1="1066.274902" x2="1082.692017" y2="1066.274902" style="stroke: green; stroke-width: 0.200000"/>
   <line x1="1086.161133" y1="1065.274902" x2="1082.692017" y2="1065.274902" style="stroke: green; stroke-width: 0.200000"/>
   <line x1="1087.320801" y1="1064.275024" x2="1082.692017" y2="1064.275024" style="stroke: green; stroke-width: 0.200000"/>
   <line x1="1088.565674" y1="1063.275024" x2="1082.692017" y2="1063.275024" style="stroke: green; stroke-width: 0.200000"/>
   <line x1="1089.866577" y1="1062.274902" x2="1082.692017" y2="1062.274902" style="stroke: green; stroke-width: 0.200000"/>
   <line x1="1091.183105" y1="1061.274902" x2="1082.692017" y2="1061.274902" style="stroke: green; stroke-width: 0.200000"/>
   <line x1="1092.611694" y1="1060.274902" x2="1082.692017" y2="1060.274902" style="stroke: green; stroke-width: 0.200000"/>
   <line x1="1094.089233" y1="1059.275024" x2="1082.742310" y2="1059.275024" style="stroke: green; stroke-width: 0.200000"/>
   <line x1="1095.589844" y1="1058.275024" x2="1083.742310" y2="1058.275024" style="stroke: green; stroke-width: 0.200000"/>
   <line x1="1097.231323" y1="1057.274902" x2="1084.742310" y2="1057.274902" style="stroke: green; stroke-width: 0.200000"/>
   <line x1="1098.872925" y1="1056.274902" x2="1085.742432" y2="1056.274902" style="stroke: green; stroke-width: 0.200000"/>
   <line x1="1100.536133" y1="1055.274902" x2="1086.742432" y2="1055.274902" style="stroke: green; stroke-width: 0.200000"/>
   <line x1="1102.306885" y1="1054.275024" x2="1087.742432" y2="1054.275024" style="stroke: green; stroke-width: 0.200000"/>
   <line x1="1104.077637" y1="1053.275024" x2="1088.742432" y2="1053.275024" style="stroke: green; stroke-width: 0.200000"/>
   <line x1="1105.929932" y1="1052.274902" x2="1089.742432" y2="1052.274902" style="stroke: green; stroke-width: 0.200000"/>
   <line x1="1107.866699" y1="1051.274902" x2="1090.742432" y2="1051.274902" style="stroke: green; stroke-width: 0.200000"/>
   <line x1="1109.819458" y1="1050.274902" x2="1091.742432" y2="1050.274902" style="stroke: green; stroke-width: 0.200000"/>
   <line x1="1111.656616" y1="1049.275024" x2="1092.742432" y2="1049.275024" style="stroke: green; stroke-width: 0.200000"/>
   <line x1="1113.399414" y1="1048.275024" x2="1093.742432" y2="1048.275024" style="stroke: green; stroke-width: 0.200000"/>
   <line x1="1114.982300" y1="1047.274902" x2="1094.742432" y2="1047.274902" style="stroke: green; stroke-width: 0.200000"/>
   <line x1="1116.419800" y1="1046.274902" x2="1095.742432" y2="1046.274902" style="stroke: green; stroke-width: 0.200000"/>
   <line x1="1117.650513" y1="1045.274902" x2="1096.742432" y2="1045.274902" style="stroke: green; stroke-width: 0.200000"/>
   <line x1="1118.713135" y1="1044.275024" x2="1097.742432" y2="1044.275024" style="stroke: green; stroke-width: 0.200000"/>
   <line x1="1119.684814" y1="1043.275024" x2="1098.742432" y2="1043.275024" style="stroke: green; stroke-width: 0.200000"/>
   <line x1="1120.656494" y1="1042.274902" x2="1099.742432" y2="1042.274902" style="stroke: green; stroke-width: 0.200000"/>
   <line x1="1121.628052" y1="1041.274902" x2="1100.742432" y2="1041.274902" style="stroke: green; stroke-width: 0.200000"/>
   <line x1="1122.549927" y1="1040.274902" x2="1101.742432" y2="1040.274902" style="stroke: green; stroke-width: 0.200000"/>
   <line x1="1123.356323" y1="1039.275024" x2="1102.742432" y2="1039.275024" style="stroke: green; stroke-width: 0.200000"/>
   <line x1="1124.062866" y1="1038.275024" x2="1103.742432" y2="1038.275024" style="stroke: green; stroke-width: 0.200000"/>
   <line x1="1124.613770" y1="1037.274902" x2="1104.742432" y2="1037.274902" style="stroke: green; stroke-width: 0.200000"/>
   <line x1="1125.148438" y1="1036.274902" x2="1105.742432" y2="1036.274902" style="stroke: green; stroke-width: 0.200000"/>
   <line x1="1125.578125" y1="1035.274902" x2="1106.742432" y2="1035.274902" style="stroke: green; stroke-width: 0.200000"/>
   <line x1="1125.921143" y1="1034.275024" x2="1107.742432" y2="1034.275024" style="stroke: green; stroke-width: 0.200000"/>
   <line x1="1126.257812" y1="1033.275024" x2="1108.742432" y2="1033.275024" style="stroke: green; stroke-width: 0.200000"/>
   <line x1="1126.422119" y1="1032.274902" x2="1109.742432" y2="1032.274902" style="stroke: green; stroke-width: 0.200000"/>
   <line x1="1126.586426" y1="1031.274902" x2="1110.742432" y2="1031.274902" style="stroke: green; stroke-width: 0.200000"/>
   <line x1="1126.690796" y1="1030.274902" x2="1111.742432" y2="1030.274902" style="stroke: green; stroke-width: 0.200000"/>
   <line x1="1126.691406" y1="1029.275024" x2="1112.742432" y2="1029.275024" style="stroke: green; stroke-width: 0.200000"/>
   <line x1="1126.692017" y1="1028.275024" x2="1113.742432" y2="1028.275024" style="stroke: green; stroke-width: 0.200000"/>
   <line x1="1126.596558" y1="1027.274902" x2="1114.742432" y2="1027.274902" style="stroke: green; stroke-width: 0.200000"/>
   <line x1="1126.439453" y1="1026.274902" x2="1115.742432" y2="1026.274902" style="stroke: green; stroke-width: 0.200000"/>
   <line x1="1126.282471" y1="1025.274902" x2="1116.742432" y2="1025.274902" style="stroke: green; stroke-width: 0.200000"/>
   <line x1="1125.977417" y1="1024.275024" x2="1117.742432" y2="1024.275024" style="stroke: green; stroke-width: 0.200000"/>
   <line x1="1125.652344" y1="1023.275024" x2="1118.742432" y2="1023.275024" style="stroke: green; stroke-width: 0.200000"/>
   <line x1="1125.283691" y1="1022.274902" x2="1119.742432" y2="1022.274902" style="stroke: green; stroke-width: 0.200000"/>
   <line x1="1124.780029" y1="1021.274963" x2="1120.742432" y2="1021.274963" style="stroke: green; stroke-width: 0.200000"/>
   <line x1="1124.272217" y1="1020.274963" x2="1121.489380" y2="1020.274963" style="stroke: green; stroke-width: 0.200000"/>
   <line x1="1123.653442" y1="1019.274963" x2="1120.832886" y2="1019.274963" style="stroke: green; stroke-width: 0.200000"/>
   <line x1="1123.021851" y1="1018.275024" x2="1120.946655" y2="1018.275024" style="stroke: green; stroke-width: 0.200000"/>
   <line x1="1122.404907" y1="1017.274902" x2="1121.946655" y2="1017.274902" style="stroke: green; stroke-width: 0.200000"/>
   <line x1="1048.208496" y1="1110.274902" x2="1042.028198" y2="1110.274902" style="stroke: green; stroke-width: 0.200000"/>
   <line x1="1050.876953" y1="1109.275024" x2="1039.263184" y2="1109.275024" style="stroke: green; stroke-width: 0.200000"/>
   <line x1="1052.473145" y1="1108.275024" x2="1036.741699" y2="1108.275024" style="stroke: green; stroke-width: 0.200000"/>
   <line x1="1053.696777" y1="1107.274902" x2="1034.219849" y2="1107.274902" style="stroke: green; stroke-width: 0.200000"/>
   <line x1="1054.608765" y1="1106.274902" x2="1032.946533" y2="1106.274902" style="stroke: green; stroke-width: 0.200000"/>
   <line x1="1035.489990" y1="1105.274902" x2="1033.946655" y2="1105.274902" style="stroke: green; stroke-width: 0.200000"/>
   <line x1="1055.447876" y1="1105.274902" x2="1036.741333" y2="1105.274902" style="stroke: green; stroke-width: 0.200000"/>
   <line x1="1056.155762" y1="1104.275024" x2="1037.742432" y2="1104.275024" style="stroke: green; stroke-width: 0.200000"/>
   <line x1="1056.863647" y1="1103.275024" x2="1038.742432" y2="1103.275024" style="stroke: green; stroke-width: 0.200000"/>
   <line x1="1057.528564" y1="1102.274902" x2="1039.742432" y2="1102.274902" style="stroke: green; stroke-width: 0.200000"/>
   <line x1="1058.191895" y1="1101.274902" x2="1040.742432" y2="1101.274902" style="stroke: green; stroke-width: 0.200000"/>
   <line x1="1058.801758" y1="1100.274902" x2="1041.742432" y2="1100.274902" style="stroke: green; stroke-width: 0.200000"/>
   <line x1="1059.380859" y1="1099.275024" x2="1042.742432" y2="1099.275024" style="stroke: green; stroke-width: 0.200000"/>
   <line x1="1059.959595" y1="1098.275024" x2="1043.742432" y2="1098.275024" style="stroke: green; stroke-width: 0.200000"/>
   <line x1="1060.538574" y1="1097.274902" x2="1044.742310" y2="1097.274902" style="stroke: green; stroke-width: 0.200000"/>
   <line x1="1061.117676" y1="1096.274902" x2="1045.742432" y2="1096.274902" style="stroke: green; stroke-width: 0.200000"/>
   <line x1="1061.668457" y1="1095.274902" x2="1046.742432" y2="1095.274902" style="stroke: green; stroke-width: 0.200000"/>
   <line x1="1062.209717" y1="1094.275024" x2="1047.742432" y2="1094.275024" style="stroke: green; stroke-width: 0.200000"/>
   <line x1="1062.751099" y1="1093.275024" x2="1048.742432" y2="1093.275024" style="stroke: green; stroke-width: 0.200000"/>
   <line x1="1063.361084" y1="1092.274902" x2="1049.742310" y2="1092.274902" style="stroke: green; stroke-width: 0.200000"/>
   <line x1="1063.973267" y1="1091.274902" x2="1050.742432" y2="1091.274902" style="stroke: green; stroke-width: 0.200000"/>
   <line x1="1064.585449" y1="1090.274902" x2="1051.742432" y2="1090.274902" style="stroke: green; stroke-width: 0.200000"/>
   <line x1="1065.197510" y1="1089.275024" x2="1052.742432" y2="1089.275024" style="stroke: green; stroke-width: 0.200000"/>
   <line x1="1065.867188" y1="1088.275024" x2="1053.742432" y2="1088.275024" style="stroke: green; stroke-width: 0.200000"/>
   <line x1="1066.552490" y1="1087.274902" x2="1054.742432" y2="1087.274902" style="stroke: green; stroke-width: 0.200000"/>
   <line x1="1067.237671" y1="1086.274902" x2="1055.742432" y2="1086.274902" style="stroke: green; stroke-width: 0.200000"/>
   <line x1="1067.922852" y1="1085.274902" x2="1056.742432" y2="1085.274902" style="stroke: green; stroke-width: 0.200000"/>
   <line x1="1068.690063" y1="1084.275024" x2="1057.742432" y2="1084.275024" style="stroke: green; stroke-width: 0.200000"/>
   <line x1="1069.482910" y1="1083.275024" x2="1058.742310" y2="1083.275024" style="stroke: green; stroke-width: 0.200000"/>
   <line x1="1070.275757" y1="1082.274902" x2="1059.742310" y2="1082.274902" style="stroke: green; stroke-width: 0.200000"/>
   <line x1="1071.068726" y1="1081.274902" x2="1060.742310" y2="1081.274902" style="stroke: green; stroke-width: 0.200000"/>
   <line x1="1071.861694" y1="1080.274902" x2="1061.742188" y2="1080.274902" style="stroke: green; stroke-width: 0.200000"/>
   <line x1="1072.654541" y1="1079.275024" x2="1062.742188" y2="1079.275024" style="stroke: green; stroke-width: 0.200000"/>
   <line x1="1073.447510" y1="1078.275024" x2="1063.742188" y2="1078.275024" style="stroke: green; stroke-width: 0.200000"/>
   <line x1="1074.266602" y1="1077.274902" x2="1064.742310" y2="1077.274902" style="stroke: green; stroke-width: 0.200000"/>
   <line x1="1075.189697" y1="1076.274902" x2="1065.742310" y2="1076.274902" style="stroke: green; stroke-width: 0.200000"/>
   <line x1="1076.112793" y1="1075.274902" x2="1066.742188" y2="1075.274902" style="stroke: green; stroke-width: 0.200000"/>
   <line x1="1077.035767" y1="1074.275024" x2="1067.742188" y2="1074.275024" style="stroke: green; stroke-width: 0.200000"/>
   <line x1="1077.958862" y1="1073.275024" x2="1068.742310" y2="1073.275024" style="stroke: green; stroke-width: 0.200000"/>
   <line x1="1078.881836" y1="1072.274902" x2="1069.742310" y2="1072.274902" style="stroke: green; stroke-width: 0.200000"/>
   <line x1="1079.804932" y1="1071.274902" x2="1070.742310" y2="1071.274902" style="stroke: green; stroke-width: 0.200000"/>
   <line x1="1080.743652" y1="1070.274902" x2="1071.742188" y2="1070.274902" style="stroke: green; stroke-width: 0.200000"/>
   <line x1="1081.785156" y1="1069.275024" x2="1072.742188" y2="1069.275024" style="stroke: green; stroke-width: 0.200000"/>
   <line x1="1082.592041" y1="1068.275024" x2="1073.742310" y2="1068.275024" style="stroke: green; stroke-width: 0.200000"/>
   <line x1="1082.592041" y1="1067.274902" x2="1074.742310" y2="1067.274902" style="stroke: green; stroke-width: 0.200000"/>
   <line x1="1082.826660" y1="1068.275024" x2="1082.692017" y2="1068.275024" style="stroke: green; stroke-width: 0.200000"/>
   <line x1="1083.868164" y1="1067.274902" x2="1082.692017" y2="1067.274902" style="stroke: green; stroke-width: 0.200000"/>
   <path d="M 1124.44  1017.71  1125.41  1019.24  1125.83  1019.98  1126.21  1020.79  1126.79  1021.93  1127.73  1024.8  1128.19  1027.77  1128.19  1030.77  1127.71  1033.68  1126.77  1036.42  1125.41  1038.97  1124.6  1040.12  1124.09  1040.78  1123.34  1041.66  1122.98  1042.03  1119.1  1046.03  1116.81  1047.89  1114.27  1049.5  1112.41  1050.57  1111.8  1050.94  1107.03  1053.39  1105.23  1054.34  1101  1056.74  1096.17  1059.68  1092.57  1062.12  1091.65  1062.79  1088.73  1065.04  1085.11  1068.16  1081.68  1071.46  1075.22  1078.45  1069.29  1085.93  1066.59  1089.88  1064.07  1093.99  1062.57  1096.76  1059.71  1101.7  1058.13  1104.09  1056.37  1106.57  1054.72  1108.37  1054.28  1108.77  1053.11  1109.68  1052.35  1110.17  1051.27  1110.77  1050.22  1111.22  1049.14  1111.59  1048.03  1111.87  1046.91  1112.06  1045.77  1112.16  1044.62  1112.17  1043.49  1112.08  1042.36  1111.9  1041.27  1111.63  1040.19  1111.26  1037.67  1110.25  1029.92  1107.18  1034.28  1102.82  1036.04  1103.86  1119.67  1020.23  1118.56  1018.54  1122.51  1014.59  1124.44  1017.71  " style="fill: none; stroke: darkmagenta; stroke-width: 0.200000; fill-type: evenodd"  fill-opacity="1.000000" />
   <path d="M 1123.59  1018.24  1124.55  1019.75  1124.94  1020.44  1125.31  1021.23  1125.87  1022.32  1126.75  1025.04  1127.19  1027.85  1127.19  1030.68  1126.74  1033.43  1125.85  1036.02  1124.56  1038.44  1123.79  1039.53  1123.32  1040.15  1122.59  1040.99  1122.26  1041.34  1118.42  1045.29  1116.22  1047.08  1113.75  1048.65  1111.9  1049.71  1111.31  1050.07  1106.57  1052.5  1104.75  1053.47  1100.49  1055.87  1095.63  1058.84  1091.99  1061.3  1091.05  1062  1088.1  1064.27  1084.44  1067.42  1080.96  1070.76  1074.46  1077.8  1068.49  1085.33  1065.75  1089.33  1063.2  1093.5  1061.7  1096.27  1058.86  1101.17  1057.3  1103.52  1055.58  1105.95  1054.02  1107.66  1053.64  1108  1052.53  1108.87  1051.84  1109.32  1050.83  1109.87  1049.86  1110.29  1048.86  1110.63  1047.83  1110.89  1046.78  1111.06  1045.72  1111.16  1044.66  1111.17  1043.6  1111.09  1042.56  1110.92  1041.55  1110.67  1040.54  1110.32  1038.04  1109.32  1031.7  1106.81  1034.44  1104.08  1036.2  1105.11  1120.95  1020.36  1119.84  1018.67  1122.32  1016.19  1123.59  1018.24  " style="fill: none; stroke: black; stroke-width: 0.200000; fill-type: evenodd"  fill-opacity="1.000000" />
</svg>
