<?xml version="1.0" encoding="UTF-8" standalone="yes"?>
<!DOCTYPE svg PUBLIC "-//W3C//DTD SVG 1.0//EN" "http://www.w3.org/TR/2001/REC-SVG-20010904/DTD/svg10.dtd">
<svg height="2000" width="2000" xmlns="http://www.w3.org/2000/svg" xmlns:svg="http://www.w3.org/2000/svg" xmlns:xlink="http://www.w3.org/1999/xlink">
   <marker id="endArrow" markerHeight="8" markerUnits="strokeWidth" markerWidth="10" orient="auto" refX="1" refY="5" viewBox="0 0 1000 1000">
      <polyline fill="darkblue" points="0,0 10,5 0,10 1,5" />
   </marker>
   <circle cx="1000" cy="1000" r="1" style="stroke:black; fill: red" />
   <circle cx="1000" cy="1000" r="800" style="stroke:black; fill: none" />
   <line x1="953.884949" y1="1071.614014" x2="913.646484" y2="1071.614014" style="stroke: green; stroke-width: 0.200000"/>
   <line x1="953.884949" y1="1070.614014" x2="912.535461" y2="1070.614014" style="stroke: green; stroke-width: 0.200000"/>
   <line x1="953.884949" y1="1069.614014" x2="911.424561" y2="1069.614014" style="stroke: green; stroke-width: 0.200000"/>
   <line x1="953.884949" y1="1068.614014" x2="910.317932" y2="1068.614014" style="stroke: green; stroke-width: 0.200000"/>
   <line x1="953.884949" y1="1067.614014" x2="909.249390" y2="1067.614014" style="stroke: green; stroke-width: 0.200000"/>
   <line x1="953.884949" y1="1066.614014" x2="908.292725" y2="1066.614014" style="stroke: green; stroke-width: 0.200000"/>
   <line x1="953.884949" y1="1065.614014" x2="907.336060" y2="1065.614014" style="stroke: green; stroke-width: 0.200000"/>
   <line x1="953.884949" y1="1064.614014" x2="906.379333" y2="1064.614014" style="stroke: green; stroke-width: 0.200000"/>
   <line x1="953.884949" y1="1063.614014" x2="905.524658" y2="1063.614014" style="stroke: green; stroke-width: 0.200000"/>
   <line x1="953.884949" y1="1062.614014" x2="904.678711" y2="1062.614014" style="stroke: green; stroke-width: 0.200000"/>
   <line x1="953.884949" y1="1061.614014" x2="903.901062" y2="1061.614014" style="stroke: green; stroke-width: 0.200000"/>
   <line x1="953.884949" y1="1060.614014" x2="906.275269" y2="1060.614014" style="stroke: green; stroke-width: 0.200000"/>
   <line x1="953.884949" y1="1059.614014" x2="908.716736" y2="1059.614014" style="stroke: green; stroke-width: 0.200000"/>
   <line x1="953.884949" y1="1058.614014" x2="910.969788" y2="1058.614014" style="stroke: green; stroke-width: 0.200000"/>
   <line x1="953.884949" y1="1057.614014" x2="910.635925" y2="1057.614014" style="stroke: green; stroke-width: 0.200000"/>
   <line x1="953.884949" y1="1056.614014" x2="910.302002" y2="1056.614014" style="stroke: green; stroke-width: 0.200000"/>
   <line x1="953.884949" y1="1055.614014" x2="909.968140" y2="1055.614014" style="stroke: green; stroke-width: 0.200000"/>
   <line x1="953.884949" y1="1054.614014" x2="909.634155" y2="1054.614014" style="stroke: green; stroke-width: 0.200000"/>
   <line x1="953.884949" y1="1053.614014" x2="909.300232" y2="1053.614014" style="stroke: green; stroke-width: 0.200000"/>
   <line x1="953.884949" y1="1052.614014" x2="908.966370" y2="1052.614014" style="stroke: green; stroke-width: 0.200000"/>
   <line x1="953.884949" y1="1051.614014" x2="908.631897" y2="1051.614014" style="stroke: green; stroke-width: 0.200000"/>
   <line x1="953.884949" y1="1050.614014" x2="908.297974" y2="1050.614014" style="stroke: green; stroke-width: 0.200000"/>
   <line x1="953.884949" y1="1049.614014" x2="907.964111" y2="1049.614014" style="stroke: green; stroke-width: 0.200000"/>
   <line x1="953.884949" y1="1048.614014" x2="907.690430" y2="1048.614014" style="stroke: green; stroke-width: 0.200000"/>
   <line x1="953.884949" y1="1047.614014" x2="907.503113" y2="1047.614014" style="stroke: green; stroke-width: 0.200000"/>
   <line x1="953.884949" y1="1046.614014" x2="907.591492" y2="1046.614014" style="stroke: green; stroke-width: 0.200000"/>
   <line x1="953.884949" y1="1045.614014" x2="908.101135" y2="1045.614014" style="stroke: green; stroke-width: 0.200000"/>
   <line x1="953.884949" y1="1044.614014" x2="908.629761" y2="1044.614014" style="stroke: green; stroke-width: 0.200000"/>
   <line x1="953.884949" y1="1043.614014" x2="909.119202" y2="1043.614014" style="stroke: green; stroke-width: 0.200000"/>
   <line x1="953.884949" y1="1042.614014" x2="909.608704" y2="1042.614014" style="stroke: green; stroke-width: 0.200000"/>
   <line x1="953.884949" y1="1041.614014" x2="910.098145" y2="1041.614014" style="stroke: green; stroke-width: 0.200000"/>
   <line x1="953.884949" y1="1040.614014" x2="910.587524" y2="1040.614014" style="stroke: green; stroke-width: 0.200000"/>
   <line x1="953.884949" y1="1039.614014" x2="911.158813" y2="1039.614014" style="stroke: green; stroke-width: 0.200000"/>
   <line x1="953.884949" y1="1038.614014" x2="911.863770" y2="1038.614014" style="stroke: green; stroke-width: 0.200000"/>
   <line x1="953.884949" y1="1037.614014" x2="912.568848" y2="1037.614014" style="stroke: green; stroke-width: 0.200000"/>
   <line x1="953.884949" y1="1036.614014" x2="913.273804" y2="1036.614014" style="stroke: green; stroke-width: 0.200000"/>
   <line x1="953.884949" y1="1035.614014" x2="913.978760" y2="1035.614014" style="stroke: green; stroke-width: 0.200000"/>
   <line x1="953.884949" y1="1034.614014" x2="914.683716" y2="1034.614014" style="stroke: green; stroke-width: 0.200000"/>
   <line x1="953.884949" y1="1033.614014" x2="915.442749" y2="1033.614014" style="stroke: green; stroke-width: 0.200000"/>
   <line x1="953.884949" y1="1032.614014" x2="916.325317" y2="1032.614014" style="stroke: green; stroke-width: 0.200000"/>
   <line x1="953.884949" y1="1031.614014" x2="917.221130" y2="1031.614014" style="stroke: green; stroke-width: 0.200000"/>
   <line x1="953.884949" y1="1030.614014" x2="918.117065" y2="1030.614014" style="stroke: green; stroke-width: 0.200000"/>
   <line x1="953.884949" y1="1029.614014" x2="919.012939" y2="1029.614014" style="stroke: green; stroke-width: 0.200000"/>
   <line x1="952.803406" y1="1028.614014" x2="919.932495" y2="1028.614014" style="stroke: green; stroke-width: 0.200000"/>
   <line x1="950.873962" y1="1027.614014" x2="920.928650" y2="1027.614014" style="stroke: green; stroke-width: 0.200000"/>
   <line x1="948.589172" y1="1026.614014" x2="921.999390" y2="1026.614014" style="stroke: green; stroke-width: 0.200000"/>
   <line x1="945.859619" y1="1025.614014" x2="923.066345" y2="1025.614014" style="stroke: green; stroke-width: 0.200000"/>
   <line x1="942.787170" y1="1024.614014" x2="924.133301" y2="1024.614014" style="stroke: green; stroke-width: 0.200000"/>
   <line x1="938.896973" y1="1023.614014" x2="925.200256" y2="1023.614014" style="stroke: green; stroke-width: 0.200000"/>
   <line x1="934.302673" y1="1022.614075" x2="926.537231" y2="1022.614075" style="stroke: green; stroke-width: 0.200000"/>
   <line x1="989.769897" y1="1071.614014" x2="953.984985" y2="1071.614014" style="stroke: green; stroke-width: 0.200000"/>
   <line x1="989.832153" y1="1070.614014" x2="953.984985" y2="1070.614014" style="stroke: green; stroke-width: 0.200000"/>
   <line x1="989.641602" y1="1069.614014" x2="953.984985" y2="1069.614014" style="stroke: green; stroke-width: 0.200000"/>
   <line x1="989.421936" y1="1068.614014" x2="953.984985" y2="1068.614014" style="stroke: green; stroke-width: 0.200000"/>
   <line x1="989.033875" y1="1067.614014" x2="953.984985" y2="1067.614014" style="stroke: green; stroke-width: 0.200000"/>
   <line x1="988.648804" y1="1066.614014" x2="953.984985" y2="1066.614014" style="stroke: green; stroke-width: 0.200000"/>
   <line x1="988.264160" y1="1065.614014" x2="953.984985" y2="1065.614014" style="stroke: green; stroke-width: 0.200000"/>
   <line x1="987.879395" y1="1064.614014" x2="953.984985" y2="1064.614014" style="stroke: green; stroke-width: 0.200000"/>
   <line x1="987.503418" y1="1063.614014" x2="953.984985" y2="1063.614014" style="stroke: green; stroke-width: 0.200000"/>
   <line x1="987.048645" y1="1062.614014" x2="953.984985" y2="1062.614014" style="stroke: green; stroke-width: 0.200000"/>
   <line x1="986.513367" y1="1061.614014" x2="953.984985" y2="1061.614014" style="stroke: green; stroke-width: 0.200000"/>
   <line x1="985.978027" y1="1060.614014" x2="953.984985" y2="1060.614014" style="stroke: green; stroke-width: 0.200000"/>
   <line x1="985.442749" y1="1059.614014" x2="953.984985" y2="1059.614014" style="stroke: green; stroke-width: 0.200000"/>
   <line x1="984.909607" y1="1058.614014" x2="953.984985" y2="1058.614014" style="stroke: green; stroke-width: 0.200000"/>
   <line x1="984.340454" y1="1057.614014" x2="953.984985" y2="1057.614014" style="stroke: green; stroke-width: 0.200000"/>
   <line x1="983.655640" y1="1056.614014" x2="953.984985" y2="1056.614014" style="stroke: green; stroke-width: 0.200000"/>
   <line x1="982.959534" y1="1055.614014" x2="953.984985" y2="1055.614014" style="stroke: green; stroke-width: 0.200000"/>
   <line x1="982.262817" y1="1054.614014" x2="953.984985" y2="1054.614014" style="stroke: green; stroke-width: 0.200000"/>
   <line x1="981.566162" y1="1053.614014" x2="953.984985" y2="1053.614014" style="stroke: green; stroke-width: 0.200000"/>
   <line x1="980.869507" y1="1052.614014" x2="953.984985" y2="1052.614014" style="stroke: green; stroke-width: 0.200000"/>
   <line x1="980.074585" y1="1051.614014" x2="953.984985" y2="1051.614014" style="stroke: green; stroke-width: 0.200000"/>
   <line x1="979.238586" y1="1050.614014" x2="953.984985" y2="1050.614014" style="stroke: green; stroke-width: 0.200000"/>
   <line x1="978.402588" y1="1049.614014" x2="953.984985" y2="1049.614014" style="stroke: green; stroke-width: 0.200000"/>
   <line x1="977.559509" y1="1048.614014" x2="953.984985" y2="1048.614014" style="stroke: green; stroke-width: 0.200000"/>
   <line x1="976.653503" y1="1047.614014" x2="953.984985" y2="1047.614014" style="stroke: green; stroke-width: 0.200000"/>
   <line x1="975.747559" y1="1046.614014" x2="953.984985" y2="1046.614014" style="stroke: green; stroke-width: 0.200000"/>
   <line x1="974.808289" y1="1045.614014" x2="953.984985" y2="1045.614014" style="stroke: green; stroke-width: 0.200000"/>
   <line x1="973.851013" y1="1044.614014" x2="953.984985" y2="1044.614014" style="stroke: green; stroke-width: 0.200000"/>
   <line x1="972.864685" y1="1043.614014" x2="953.984985" y2="1043.614014" style="stroke: green; stroke-width: 0.200000"/>
   <line x1="971.830322" y1="1042.614014" x2="953.984985" y2="1042.614014" style="stroke: green; stroke-width: 0.200000"/>
   <line x1="970.787964" y1="1041.614014" x2="953.984985" y2="1041.614014" style="stroke: green; stroke-width: 0.200000"/>
   <line x1="969.692688" y1="1040.614014" x2="953.984985" y2="1040.614014" style="stroke: green; stroke-width: 0.200000"/>
   <line x1="968.564392" y1="1039.614014" x2="953.984985" y2="1039.614014" style="stroke: green; stroke-width: 0.200000"/>
   <line x1="967.375549" y1="1038.614014" x2="953.984985" y2="1038.614014" style="stroke: green; stroke-width: 0.200000"/>
   <line x1="966.203247" y1="1037.614014" x2="953.984985" y2="1037.614014" style="stroke: green; stroke-width: 0.200000"/>
   <line x1="964.997681" y1="1036.614014" x2="953.984985" y2="1036.614014" style="stroke: green; stroke-width: 0.200000"/>
   <line x1="963.714233" y1="1035.614014" x2="953.984985" y2="1035.614014" style="stroke: green; stroke-width: 0.200000"/>
   <line x1="962.368774" y1="1034.614014" x2="953.984985" y2="1034.614014" style="stroke: green; stroke-width: 0.200000"/>
   <line x1="961.023315" y1="1033.614014" x2="953.984985" y2="1033.614014" style="stroke: green; stroke-width: 0.200000"/>
   <line x1="959.560425" y1="1032.614014" x2="953.984985" y2="1032.614014" style="stroke: green; stroke-width: 0.200000"/>
   <line x1="957.979187" y1="1031.614014" x2="953.984985" y2="1031.614014" style="stroke: green; stroke-width: 0.200000"/>
   <line x1="956.398010" y1="1030.614014" x2="953.984985" y2="1030.614014" style="stroke: green; stroke-width: 0.200000"/>
   <line x1="954.732788" y1="1029.614014" x2="953.984985" y2="1029.614014" style="stroke: green; stroke-width: 0.200000"/>
   <line x1="953.229919" y1="1094.614014" x2="951.012695" y2="1094.614014" style="stroke: green; stroke-width: 0.200000"/>
   <line x1="953.324280" y1="1093.614014" x2="948.584656" y2="1093.614014" style="stroke: green; stroke-width: 0.200000"/>
   <line x1="953.418579" y1="1092.614014" x2="946.276733" y2="1092.614014" style="stroke: green; stroke-width: 0.200000"/>
   <line x1="953.512878" y1="1091.614014" x2="944.032104" y2="1091.614014" style="stroke: green; stroke-width: 0.200000"/>
   <line x1="953.607239" y1="1090.614014" x2="941.943115" y2="1090.614014" style="stroke: green; stroke-width: 0.200000"/>
   <line x1="953.701538" y1="1089.614014" x2="940.066284" y2="1089.614014" style="stroke: green; stroke-width: 0.200000"/>
   <line x1="953.795837" y1="1088.614014" x2="938.189575" y2="1088.614014" style="stroke: green; stroke-width: 0.200000"/>
   <line x1="953.884949" y1="1087.614014" x2="936.315857" y2="1087.614014" style="stroke: green; stroke-width: 0.200000"/>
   <line x1="953.884949" y1="1086.614014" x2="934.589905" y2="1086.614014" style="stroke: green; stroke-width: 0.200000"/>
   <line x1="953.884949" y1="1085.614014" x2="932.967590" y2="1085.614014" style="stroke: green; stroke-width: 0.200000"/>
   <line x1="953.884949" y1="1084.614014" x2="931.345215" y2="1084.614014" style="stroke: green; stroke-width: 0.200000"/>
   <line x1="953.884949" y1="1083.614014" x2="929.722900" y2="1083.614014" style="stroke: green; stroke-width: 0.200000"/>
   <line x1="953.884949" y1="1082.614014" x2="928.130798" y2="1082.614014" style="stroke: green; stroke-width: 0.200000"/>
   <line x1="953.884949" y1="1081.614014" x2="926.693848" y2="1081.614014" style="stroke: green; stroke-width: 0.200000"/>
   <line x1="953.884949" y1="1080.614014" x2="925.256897" y2="1080.614014" style="stroke: green; stroke-width: 0.200000"/>
   <line x1="953.884949" y1="1079.614014" x2="923.819946" y2="1079.614014" style="stroke: green; stroke-width: 0.200000"/>
   <line x1="953.884949" y1="1078.614014" x2="922.382935" y2="1078.614014" style="stroke: green; stroke-width: 0.200000"/>
   <line x1="953.884949" y1="1077.614014" x2="921.038757" y2="1077.614014" style="stroke: green; stroke-width: 0.200000"/>
   <line x1="953.884949" y1="1076.614014" x2="919.762512" y2="1076.614014" style="stroke: green; stroke-width: 0.200000"/>
   <line x1="953.884949" y1="1075.614014" x2="918.486267" y2="1075.614014" style="stroke: green; stroke-width: 0.200000"/>
   <line x1="953.884949" y1="1074.614014" x2="917.210022" y2="1074.614014" style="stroke: green; stroke-width: 0.200000"/>
   <line x1="953.884949" y1="1073.614014" x2="915.933716" y2="1073.614014" style="stroke: green; stroke-width: 0.200000"/>
   <line x1="953.884949" y1="1072.614014" x2="914.757385" y2="1072.614014" style="stroke: green; stroke-width: 0.200000"/>
   <line x1="966.861328" y1="1087.614014" x2="961.837708" y2="1087.614014" style="stroke: green; stroke-width: 0.200000"/>
   <line x1="969.846191" y1="1086.614014" x2="953.984985" y2="1086.614014" style="stroke: green; stroke-width: 0.200000"/>
   <line x1="971.665894" y1="1085.614014" x2="953.984985" y2="1085.614014" style="stroke: green; stroke-width: 0.200000"/>
   <line x1="973.421997" y1="1084.614014" x2="953.984985" y2="1084.614014" style="stroke: green; stroke-width: 0.200000"/>
   <line x1="975.178101" y1="1083.614014" x2="953.984985" y2="1083.614014" style="stroke: green; stroke-width: 0.200000"/>
   <line x1="976.846069" y1="1082.614014" x2="953.984985" y2="1082.614014" style="stroke: green; stroke-width: 0.200000"/>
   <line x1="978.301514" y1="1081.614014" x2="953.984985" y2="1081.614014" style="stroke: green; stroke-width: 0.200000"/>
   <line x1="979.711060" y1="1080.614014" x2="953.984985" y2="1080.614014" style="stroke: green; stroke-width: 0.200000"/>
   <line x1="981.120544" y1="1079.614014" x2="953.984985" y2="1079.614014" style="stroke: green; stroke-width: 0.200000"/>
   <line x1="982.443176" y1="1078.614014" x2="953.984985" y2="1078.614014" style="stroke: green; stroke-width: 0.200000"/>
   <line x1="983.602234" y1="1077.614014" x2="953.984985" y2="1077.614014" style="stroke: green; stroke-width: 0.200000"/>
   <line x1="984.761353" y1="1076.614014" x2="953.984985" y2="1076.614014" style="stroke: green; stroke-width: 0.200000"/>
   <line x1="985.920410" y1="1075.614014" x2="953.984985" y2="1075.614014" style="stroke: green; stroke-width: 0.200000"/>
   <line x1="987.036499" y1="1074.614014" x2="953.984985" y2="1074.614014" style="stroke: green; stroke-width: 0.200000"/>
   <line x1="988.155518" y1="1073.614014" x2="953.984985" y2="1073.614014" style="stroke: green; stroke-width: 0.200000"/>
   <line x1="989.152832" y1="1072.614014" x2="953.984985" y2="1072.614014" style="stroke: green; stroke-width: 0.200000"/>
   <line x1="1057.660156" y1="961.207275" x2="1012.945679" y2="961.207275" style="stroke: green; stroke-width: 0.200000"/>
   <line x1="1057.660156" y1="960.207214" x2="1012.554321" y2="960.207214" style="stroke: green; stroke-width: 0.200000"/>
   <line x1="1057.660156" y1="959.207214" x2="1012.162964" y2="959.207214" style="stroke: green; stroke-width: 0.200000"/>
   <line x1="1057.660156" y1="958.207275" x2="1011.771545" y2="958.207275" style="stroke: green; stroke-width: 0.200000"/>
   <line x1="1057.660156" y1="957.207275" x2="1011.375244" y2="957.207275" style="stroke: green; stroke-width: 0.200000"/>
   <line x1="1057.660156" y1="956.207275" x2="1011.007324" y2="956.207275" style="stroke: green; stroke-width: 0.200000"/>
   <line x1="1057.660156" y1="955.207214" x2="1010.699585" y2="955.207214" style="stroke: green; stroke-width: 0.200000"/>
   <line x1="1057.660156" y1="954.207214" x2="1010.408997" y2="954.207214" style="stroke: green; stroke-width: 0.200000"/>
   <line x1="1057.660156" y1="953.207275" x2="1010.118896" y2="953.207275" style="stroke: green; stroke-width: 0.200000"/>
   <line x1="1057.660156" y1="952.207275" x2="1009.828796" y2="952.207275" style="stroke: green; stroke-width: 0.200000"/>
   <line x1="1057.660156" y1="951.207275" x2="1009.547180" y2="951.207275" style="stroke: green; stroke-width: 0.200000"/>
   <line x1="1057.660156" y1="950.207214" x2="1009.280762" y2="950.207214" style="stroke: green; stroke-width: 0.200000"/>
   <line x1="1057.660156" y1="949.207214" x2="1009.014343" y2="949.207214" style="stroke: green; stroke-width: 0.200000"/>
   <line x1="1057.660156" y1="948.207275" x2="1008.803162" y2="948.207275" style="stroke: green; stroke-width: 0.200000"/>
   <line x1="1057.660156" y1="947.207275" x2="1008.609985" y2="947.207275" style="stroke: green; stroke-width: 0.200000"/>
   <line x1="1057.660156" y1="946.207275" x2="1008.416809" y2="946.207275" style="stroke: green; stroke-width: 0.200000"/>
   <line x1="1057.660156" y1="945.207214" x2="1008.223633" y2="945.207214" style="stroke: green; stroke-width: 0.200000"/>
   <line x1="1057.660156" y1="944.207214" x2="1008.030457" y2="944.207214" style="stroke: green; stroke-width: 0.200000"/>
   <line x1="1057.660156" y1="943.207275" x2="1007.851318" y2="943.207275" style="stroke: green; stroke-width: 0.200000"/>
   <line x1="1057.660156" y1="942.207275" x2="1007.767273" y2="942.207275" style="stroke: green; stroke-width: 0.200000"/>
   <line x1="1057.660156" y1="941.207275" x2="1007.683716" y2="941.207275" style="stroke: green; stroke-width: 0.200000"/>
   <line x1="1057.660156" y1="940.207214" x2="1007.694153" y2="940.207214" style="stroke: green; stroke-width: 0.200000"/>
   <line x1="1057.660156" y1="939.207214" x2="1007.805420" y2="939.207214" style="stroke: green; stroke-width: 0.200000"/>
   <line x1="1057.660156" y1="938.207275" x2="1008.022766" y2="938.207275" style="stroke: green; stroke-width: 0.200000"/>
   <line x1="1057.660156" y1="937.207275" x2="1008.536316" y2="937.207275" style="stroke: green; stroke-width: 0.200000"/>
   <line x1="1057.660156" y1="936.207275" x2="1009.263245" y2="936.207275" style="stroke: green; stroke-width: 0.200000"/>
   <line x1="1057.660156" y1="935.207214" x2="1010.074951" y2="935.207214" style="stroke: green; stroke-width: 0.200000"/>
   <line x1="1057.660156" y1="934.207214" x2="1010.981934" y2="934.207214" style="stroke: green; stroke-width: 0.200000"/>
   <line x1="1057.660156" y1="933.207275" x2="1011.888794" y2="933.207275" style="stroke: green; stroke-width: 0.200000"/>
   <line x1="1057.660156" y1="932.207275" x2="1012.773499" y2="932.207275" style="stroke: green; stroke-width: 0.200000"/>
   <line x1="1057.660156" y1="931.207275" x2="1013.569641" y2="931.207275" style="stroke: green; stroke-width: 0.200000"/>
   <line x1="1057.660156" y1="930.207214" x2="1014.512939" y2="930.207214" style="stroke: green; stroke-width: 0.200000"/>
   <line x1="1057.660156" y1="929.207214" x2="1015.466431" y2="929.207214" style="stroke: green; stroke-width: 0.200000"/>
   <line x1="1057.660156" y1="928.207275" x2="1016.371094" y2="928.207275" style="stroke: green; stroke-width: 0.200000"/>
   <line x1="1057.660156" y1="927.207275" x2="1017.275757" y2="927.207275" style="stroke: green; stroke-width: 0.200000"/>
   <line x1="1057.660156" y1="926.207275" x2="1018.251099" y2="926.207275" style="stroke: green; stroke-width: 0.200000"/>
   <line x1="1057.660156" y1="925.207214" x2="1019.422302" y2="925.207214" style="stroke: green; stroke-width: 0.200000"/>
   <line x1="1057.660156" y1="924.207214" x2="1020.591797" y2="924.207214" style="stroke: green; stroke-width: 0.200000"/>
   <line x1="1057.655518" y1="923.207275" x2="1021.763794" y2="923.207275" style="stroke: green; stroke-width: 0.200000"/>
   <line x1="1056.683228" y1="922.207275" x2="1023.011475" y2="922.207275" style="stroke: green; stroke-width: 0.200000"/>
   <line x1="1055.699219" y1="921.207275" x2="1024.220459" y2="921.207275" style="stroke: green; stroke-width: 0.200000"/>
   <line x1="1054.659302" y1="920.207214" x2="1025.774170" y2="920.207214" style="stroke: green; stroke-width: 0.200000"/>
   <line x1="1053.596680" y1="919.207214" x2="1027.406738" y2="919.207214" style="stroke: green; stroke-width: 0.200000"/>
   <line x1="1052.534180" y1="918.207275" x2="1043.257324" y2="918.207275" style="stroke: green; stroke-width: 0.200000"/>
   <line x1="1041.728394" y1="918.207275" x2="1029.047974" y2="918.207275" style="stroke: green; stroke-width: 0.200000"/>
   <line x1="1051.433838" y1="917.207275" x2="1043.506714" y2="917.207275" style="stroke: green; stroke-width: 0.200000"/>
   <line x1="1035.552246" y1="917.207275" x2="1030.689209" y2="917.207275" style="stroke: green; stroke-width: 0.200000"/>
   <line x1="1050.274292" y1="916.207275" x2="1043.756348" y2="916.207275" style="stroke: green; stroke-width: 0.200000"/>
   <line x1="1049.094116" y1="915.207214" x2="1044.005859" y2="915.207214" style="stroke: green; stroke-width: 0.200000"/>
   <line x1="1047.850342" y1="914.207214" x2="1044.255615" y2="914.207214" style="stroke: green; stroke-width: 0.200000"/>
   <line x1="1046.507080" y1="913.207275" x2="1044.505371" y2="913.207275" style="stroke: green; stroke-width: 0.200000"/>
   <line x1="1045.163330" y1="912.207275" x2="1044.754883" y2="912.207275" style="stroke: green; stroke-width: 0.200000"/>
   <line x1="1088.366577" y1="961.207275" x2="1057.760132" y2="961.207275" style="stroke: green; stroke-width: 0.200000"/>
   <line x1="1087.748413" y1="960.207214" x2="1057.760132" y2="960.207214" style="stroke: green; stroke-width: 0.200000"/>
   <line x1="1087.114868" y1="959.207214" x2="1057.760132" y2="959.207214" style="stroke: green; stroke-width: 0.200000"/>
   <line x1="1086.480957" y1="958.207275" x2="1057.760132" y2="958.207275" style="stroke: green; stroke-width: 0.200000"/>
   <line x1="1085.847046" y1="957.207275" x2="1057.760132" y2="957.207275" style="stroke: green; stroke-width: 0.200000"/>
   <line x1="1085.181152" y1="956.207275" x2="1057.760132" y2="956.207275" style="stroke: green; stroke-width: 0.200000"/>
   <line x1="1084.489746" y1="955.207214" x2="1057.760132" y2="955.207214" style="stroke: green; stroke-width: 0.200000"/>
   <line x1="1083.773804" y1="954.207214" x2="1057.760132" y2="954.207214" style="stroke: green; stroke-width: 0.200000"/>
   <line x1="1083.058105" y1="953.207275" x2="1057.760132" y2="953.207275" style="stroke: green; stroke-width: 0.200000"/>
   <line x1="1082.342285" y1="952.207275" x2="1057.760132" y2="952.207275" style="stroke: green; stroke-width: 0.200000"/>
   <line x1="1081.626587" y1="951.207275" x2="1057.760132" y2="951.207275" style="stroke: green; stroke-width: 0.200000"/>
   <line x1="1080.908936" y1="950.207214" x2="1057.760132" y2="950.207214" style="stroke: green; stroke-width: 0.200000"/>
   <line x1="1080.129517" y1="949.207214" x2="1057.760132" y2="949.207214" style="stroke: green; stroke-width: 0.200000"/>
   <line x1="1079.350098" y1="948.207275" x2="1057.760132" y2="948.207275" style="stroke: green; stroke-width: 0.200000"/>
   <line x1="1078.570679" y1="947.207275" x2="1057.760132" y2="947.207275" style="stroke: green; stroke-width: 0.200000"/>
   <line x1="1077.791260" y1="946.207275" x2="1057.760132" y2="946.207275" style="stroke: green; stroke-width: 0.200000"/>
   <line x1="1077.011841" y1="945.207214" x2="1057.760132" y2="945.207214" style="stroke: green; stroke-width: 0.200000"/>
   <line x1="1076.232422" y1="944.207214" x2="1057.760132" y2="944.207214" style="stroke: green; stroke-width: 0.200000"/>
   <line x1="1075.415527" y1="943.207275" x2="1057.760132" y2="943.207275" style="stroke: green; stroke-width: 0.200000"/>
   <line x1="1074.588867" y1="942.207275" x2="1057.760132" y2="942.207275" style="stroke: green; stroke-width: 0.200000"/>
   <line x1="1073.762329" y1="941.207275" x2="1057.760132" y2="941.207275" style="stroke: green; stroke-width: 0.200000"/>
   <line x1="1072.935669" y1="940.207214" x2="1057.760132" y2="940.207214" style="stroke: green; stroke-width: 0.200000"/>
   <line x1="1072.109009" y1="939.207214" x2="1057.760132" y2="939.207214" style="stroke: green; stroke-width: 0.200000"/>
   <line x1="1071.282471" y1="938.207275" x2="1057.760132" y2="938.207275" style="stroke: green; stroke-width: 0.200000"/>
   <line x1="1070.421387" y1="937.207275" x2="1057.760132" y2="937.207275" style="stroke: green; stroke-width: 0.200000"/>
   <line x1="1069.552002" y1="936.207275" x2="1057.760132" y2="936.207275" style="stroke: green; stroke-width: 0.200000"/>
   <line x1="1068.682617" y1="935.207214" x2="1057.760132" y2="935.207214" style="stroke: green; stroke-width: 0.200000"/>
   <line x1="1067.813232" y1="934.207214" x2="1057.760132" y2="934.207214" style="stroke: green; stroke-width: 0.200000"/>
   <line x1="1066.943848" y1="933.207275" x2="1057.760132" y2="933.207275" style="stroke: green; stroke-width: 0.200000"/>
   <line x1="1066.074463" y1="932.207275" x2="1057.760132" y2="932.207275" style="stroke: green; stroke-width: 0.200000"/>
   <line x1="1065.160522" y1="931.207275" x2="1057.760132" y2="931.207275" style="stroke: green; stroke-width: 0.200000"/>
   <line x1="1064.246094" y1="930.207214" x2="1057.760132" y2="930.207214" style="stroke: green; stroke-width: 0.200000"/>
   <line x1="1063.331665" y1="929.207214" x2="1057.760132" y2="929.207214" style="stroke: green; stroke-width: 0.200000"/>
   <line x1="1062.417236" y1="928.207275" x2="1057.760132" y2="928.207275" style="stroke: green; stroke-width: 0.200000"/>
   <line x1="1061.502808" y1="927.207275" x2="1057.760132" y2="927.207275" style="stroke: green; stroke-width: 0.200000"/>
   <line x1="1060.572510" y1="926.207275" x2="1057.760132" y2="926.207275" style="stroke: green; stroke-width: 0.200000"/>
   <line x1="1059.600220" y1="925.207214" x2="1057.760132" y2="925.207214" style="stroke: green; stroke-width: 0.200000"/>
   <line x1="1058.627808" y1="924.207214" x2="1057.760132" y2="924.207214" style="stroke: green; stroke-width: 0.200000"/>
   <line x1="1057.660156" y1="1003.207275" x2="1057.621094" y2="1003.207275" style="stroke: green; stroke-width: 0.200000"/>
   <line x1="1057.660156" y1="1002.207275" x2="1054.840210" y2="1002.207275" style="stroke: green; stroke-width: 0.200000"/>
   <line x1="1057.660156" y1="1001.207275" x2="1052.456543" y2="1001.207275" style="stroke: green; stroke-width: 0.200000"/>
   <line x1="1057.660156" y1="1000.207214" x2="1050.166992" y2="1000.207214" style="stroke: green; stroke-width: 0.200000"/>
   <line x1="1057.660156" y1="999.207214" x2="1048.287231" y2="999.207214" style="stroke: green; stroke-width: 0.200000"/>
   <line x1="1057.660156" y1="998.207275" x2="1046.433228" y2="998.207275" style="stroke: green; stroke-width: 0.200000"/>
   <line x1="1057.660156" y1="997.207275" x2="1044.589355" y2="997.207275" style="stroke: green; stroke-width: 0.200000"/>
   <line x1="1057.660156" y1="996.207275" x2="1043.056030" y2="996.207275" style="stroke: green; stroke-width: 0.200000"/>
   <line x1="1057.660156" y1="995.207214" x2="1041.522705" y2="995.207214" style="stroke: green; stroke-width: 0.200000"/>
   <line x1="1057.660156" y1="994.207214" x2="1039.989258" y2="994.207214" style="stroke: green; stroke-width: 0.200000"/>
   <line x1="1057.660156" y1="993.207275" x2="1038.666748" y2="993.207275" style="stroke: green; stroke-width: 0.200000"/>
   <line x1="1057.660156" y1="992.207275" x2="1037.347656" y2="992.207275" style="stroke: green; stroke-width: 0.200000"/>
   <line x1="1057.660156" y1="991.207275" x2="1036.106812" y2="991.207275" style="stroke: green; stroke-width: 0.200000"/>
   <line x1="1057.660156" y1="990.207214" x2="1034.945557" y2="990.207214" style="stroke: green; stroke-width: 0.200000"/>
   <line x1="1057.660156" y1="989.207214" x2="1033.784180" y2="989.207214" style="stroke: green; stroke-width: 0.200000"/>
   <line x1="1057.660156" y1="988.207275" x2="1032.673218" y2="988.207275" style="stroke: green; stroke-width: 0.200000"/>
   <line x1="1057.660156" y1="987.207275" x2="1031.614258" y2="987.207275" style="stroke: green; stroke-width: 0.200000"/>
   <line x1="1057.660156" y1="986.207275" x2="1030.678101" y2="986.207275" style="stroke: green; stroke-width: 0.200000"/>
   <line x1="1057.660156" y1="985.207214" x2="1029.692383" y2="985.207214" style="stroke: green; stroke-width: 0.200000"/>
   <line x1="1057.660156" y1="984.207214" x2="1028.697266" y2="984.207214" style="stroke: green; stroke-width: 0.200000"/>
   <line x1="1057.660156" y1="983.207275" x2="1027.704346" y2="983.207275" style="stroke: green; stroke-width: 0.200000"/>
   <line x1="1057.660156" y1="982.207275" x2="1026.821777" y2="982.207275" style="stroke: green; stroke-width: 0.200000"/>
   <line x1="1057.660156" y1="981.207275" x2="1025.979858" y2="981.207275" style="stroke: green; stroke-width: 0.200000"/>
   <line x1="1057.660156" y1="980.207214" x2="1025.120972" y2="980.207214" style="stroke: green; stroke-width: 0.200000"/>
   <line x1="1057.660156" y1="979.207214" x2="1024.262085" y2="979.207214" style="stroke: green; stroke-width: 0.200000"/>
   <line x1="1057.660156" y1="978.207275" x2="1023.422119" y2="978.207275" style="stroke: green; stroke-width: 0.200000"/>
   <line x1="1057.660156" y1="977.207275" x2="1022.660217" y2="977.207275" style="stroke: green; stroke-width: 0.200000"/>
   <line x1="1057.660156" y1="976.207275" x2="1021.924316" y2="976.207275" style="stroke: green; stroke-width: 0.200000"/>
   <line x1="1057.660156" y1="975.207214" x2="1021.184082" y2="975.207214" style="stroke: green; stroke-width: 0.200000"/>
   <line x1="1057.660156" y1="974.207214" x2="1020.443787" y2="974.207214" style="stroke: green; stroke-width: 0.200000"/>
   <line x1="1057.660156" y1="973.207275" x2="1019.708130" y2="973.207275" style="stroke: green; stroke-width: 0.200000"/>
   <line x1="1057.660156" y1="972.207275" x2="1018.995422" y2="972.207275" style="stroke: green; stroke-width: 0.200000"/>
   <line x1="1057.660156" y1="971.207275" x2="1018.299561" y2="971.207275" style="stroke: green; stroke-width: 0.200000"/>
   <line x1="1057.660156" y1="970.207214" x2="1017.658936" y2="970.207214" style="stroke: green; stroke-width: 0.200000"/>
   <line x1="1057.660156" y1="969.207214" x2="1017.037415" y2="969.207214" style="stroke: green; stroke-width: 0.200000"/>
   <line x1="1057.660156" y1="968.207275" x2="1016.435608" y2="968.207275" style="stroke: green; stroke-width: 0.200000"/>
   <line x1="1057.660156" y1="967.207275" x2="1015.908081" y2="967.207275" style="stroke: green; stroke-width: 0.200000"/>
   <line x1="1057.660156" y1="966.207275" x2="1015.380493" y2="966.207275" style="stroke: green; stroke-width: 0.200000"/>
   <line x1="1057.660156" y1="965.207214" x2="1014.852905" y2="965.207214" style="stroke: green; stroke-width: 0.200000"/>
   <line x1="1057.660156" y1="964.207214" x2="1014.325317" y2="964.207214" style="stroke: green; stroke-width: 0.200000"/>
   <line x1="1057.660156" y1="963.207275" x2="1013.797729" y2="963.207275" style="stroke: green; stroke-width: 0.200000"/>
   <line x1="1057.660156" y1="962.207275" x2="1013.337097" y2="962.207275" style="stroke: green; stroke-width: 0.200000"/>
   <line x1="1066.434082" y1="1004.207214" x2="1061.169678" y2="1004.207214" style="stroke: green; stroke-width: 0.200000"/>
   <line x1="1067.833740" y1="1003.207275" x2="1057.760132" y2="1003.207275" style="stroke: green; stroke-width: 0.200000"/>
   <line x1="1069.117920" y1="1002.207275" x2="1057.760132" y2="1002.207275" style="stroke: green; stroke-width: 0.200000"/>
   <line x1="1070.402222" y1="1001.207275" x2="1057.760132" y2="1001.207275" style="stroke: green; stroke-width: 0.200000"/>
   <line x1="1071.686523" y1="1000.207214" x2="1057.760132" y2="1000.207214" style="stroke: green; stroke-width: 0.200000"/>
   <line x1="1072.849854" y1="999.207214" x2="1057.760132" y2="999.207214" style="stroke: green; stroke-width: 0.200000"/>
   <line x1="1073.873169" y1="998.207275" x2="1057.760132" y2="998.207275" style="stroke: green; stroke-width: 0.200000"/>
   <line x1="1074.896362" y1="997.207275" x2="1057.760132" y2="997.207275" style="stroke: green; stroke-width: 0.200000"/>
   <line x1="1075.919678" y1="996.207275" x2="1057.760132" y2="996.207275" style="stroke: green; stroke-width: 0.200000"/>
   <line x1="1076.942871" y1="995.207214" x2="1057.760132" y2="995.207214" style="stroke: green; stroke-width: 0.200000"/>
   <line x1="1077.915283" y1="994.207214" x2="1057.760132" y2="994.207214" style="stroke: green; stroke-width: 0.200000"/>
   <line x1="1078.699097" y1="993.207275" x2="1057.760132" y2="993.207275" style="stroke: green; stroke-width: 0.200000"/>
   <line x1="1079.482788" y1="992.207275" x2="1057.760132" y2="992.207275" style="stroke: green; stroke-width: 0.200000"/>
   <line x1="1080.266602" y1="991.207275" x2="1057.760132" y2="991.207275" style="stroke: green; stroke-width: 0.200000"/>
   <line x1="1081.050293" y1="990.207214" x2="1057.760132" y2="990.207214" style="stroke: green; stroke-width: 0.200000"/>
   <line x1="1081.839355" y1="989.207214" x2="1057.760132" y2="989.207214" style="stroke: green; stroke-width: 0.200000"/>
   <line x1="1082.565430" y1="988.207275" x2="1057.760132" y2="988.207275" style="stroke: green; stroke-width: 0.200000"/>
   <line x1="1083.158081" y1="987.207275" x2="1057.760132" y2="987.207275" style="stroke: green; stroke-width: 0.200000"/>
   <line x1="1083.750732" y1="986.207275" x2="1057.760132" y2="986.207275" style="stroke: green; stroke-width: 0.200000"/>
   <line x1="1084.401733" y1="985.207214" x2="1057.760132" y2="985.207214" style="stroke: green; stroke-width: 0.200000"/>
   <line x1="1085.046997" y1="984.207214" x2="1057.760132" y2="984.207214" style="stroke: green; stroke-width: 0.200000"/>
   <line x1="1085.458252" y1="983.207275" x2="1057.760132" y2="983.207275" style="stroke: green; stroke-width: 0.200000"/>
   <line x1="1085.651611" y1="982.207275" x2="1057.760132" y2="982.207275" style="stroke: green; stroke-width: 0.200000"/>
   <line x1="1085.741943" y1="981.207275" x2="1057.760132" y2="981.207275" style="stroke: green; stroke-width: 0.200000"/>
   <line x1="1085.632935" y1="980.207214" x2="1057.760132" y2="980.207214" style="stroke: green; stroke-width: 0.200000"/>
   <line x1="1085.485474" y1="979.207214" x2="1057.760132" y2="979.207214" style="stroke: green; stroke-width: 0.200000"/>
   <line x1="1085.379028" y1="978.207275" x2="1057.760132" y2="978.207275" style="stroke: green; stroke-width: 0.200000"/>
   <line x1="1085.272705" y1="977.207275" x2="1057.760132" y2="977.207275" style="stroke: green; stroke-width: 0.200000"/>
   <line x1="1085.166260" y1="976.207275" x2="1057.760132" y2="976.207275" style="stroke: green; stroke-width: 0.200000"/>
   <line x1="1085.059937" y1="975.207214" x2="1057.760132" y2="975.207214" style="stroke: green; stroke-width: 0.200000"/>
   <line x1="1084.953491" y1="974.207214" x2="1057.760132" y2="974.207214" style="stroke: green; stroke-width: 0.200000"/>
   <line x1="1084.847046" y1="973.207275" x2="1057.760132" y2="973.207275" style="stroke: green; stroke-width: 0.200000"/>
   <line x1="1084.740723" y1="972.207275" x2="1057.760132" y2="972.207275" style="stroke: green; stroke-width: 0.200000"/>
   <line x1="1084.633911" y1="971.207275" x2="1057.760132" y2="971.207275" style="stroke: green; stroke-width: 0.200000"/>
   <line x1="1084.527466" y1="970.207214" x2="1057.760132" y2="970.207214" style="stroke: green; stroke-width: 0.200000"/>
   <line x1="1084.421143" y1="969.207214" x2="1057.760132" y2="969.207214" style="stroke: green; stroke-width: 0.200000"/>
   <line x1="1084.966797" y1="968.207275" x2="1057.760132" y2="968.207275" style="stroke: green; stroke-width: 0.200000"/>
   <line x1="1090.486450" y1="967.207275" x2="1057.760132" y2="967.207275" style="stroke: green; stroke-width: 0.200000"/>
   <line x1="1091.140869" y1="966.207275" x2="1057.760132" y2="966.207275" style="stroke: green; stroke-width: 0.200000"/>
   <line x1="1090.626709" y1="965.207214" x2="1057.760132" y2="965.207214" style="stroke: green; stroke-width: 0.200000"/>
   <line x1="1090.113037" y1="964.207214" x2="1057.760132" y2="964.207214" style="stroke: green; stroke-width: 0.200000"/>
   <line x1="1089.574951" y1="963.207275" x2="1057.760132" y2="963.207275" style="stroke: green; stroke-width: 0.200000"/>
   <line x1="1088.984619" y1="962.207275" x2="1057.760132" y2="962.207275" style="stroke: green; stroke-width: 0.200000"/>
   <line x1="906.988586" y1="1060.321777" x2="902.945251" y2="1060.321777" style="stroke: green; stroke-width: 0.200000"/>
   <line x1="909.430054" y1="1059.321777" x2="902.213867" y2="1059.321777" style="stroke: green; stroke-width: 0.200000"/>
   <line x1="910.872131" y1="1058.321777" x2="901.503662" y2="1058.321777" style="stroke: green; stroke-width: 0.200000"/>
   <line x1="910.538208" y1="1057.321777" x2="900.839294" y2="1057.321777" style="stroke: green; stroke-width: 0.200000"/>
   <line x1="910.204346" y1="1056.321777" x2="900.246277" y2="1056.321777" style="stroke: green; stroke-width: 0.200000"/>
   <line x1="909.870361" y1="1055.321777" x2="899.693237" y2="1055.321777" style="stroke: green; stroke-width: 0.200000"/>
   <line x1="909.536438" y1="1054.321777" x2="899.203613" y2="1054.321777" style="stroke: green; stroke-width: 0.200000"/>
   <line x1="909.202576" y1="1053.321777" x2="898.714050" y2="1053.321777" style="stroke: green; stroke-width: 0.200000"/>
   <line x1="908.868652" y1="1052.321777" x2="898.270203" y2="1052.321777" style="stroke: green; stroke-width: 0.200000"/>
   <line x1="908.534180" y1="1051.321777" x2="897.873535" y2="1051.321777" style="stroke: green; stroke-width: 0.200000"/>
   <line x1="908.200317" y1="1050.321777" x2="897.563538" y2="1050.321777" style="stroke: green; stroke-width: 0.200000"/>
   <line x1="907.866333" y1="1049.321777" x2="897.303955" y2="1049.321777" style="stroke: green; stroke-width: 0.200000"/>
   <line x1="907.618896" y1="1048.321777" x2="897.074951" y2="1048.321777" style="stroke: green; stroke-width: 0.200000"/>
   <line x1="907.512268" y1="1047.321777" x2="896.905212" y2="1047.321777" style="stroke: green; stroke-width: 0.200000"/>
   <line x1="907.705627" y1="1046.321777" x2="896.777344" y2="1046.321777" style="stroke: green; stroke-width: 0.200000"/>
   <line x1="908.264282" y1="1045.321777" x2="896.707703" y2="1045.321777" style="stroke: green; stroke-width: 0.200000"/>
   <line x1="908.772705" y1="1044.321777" x2="896.743225" y2="1044.321777" style="stroke: green; stroke-width: 0.200000"/>
   <line x1="909.262146" y1="1043.321777" x2="896.866333" y2="1043.321777" style="stroke: green; stroke-width: 0.200000"/>
   <line x1="909.751587" y1="1042.321777" x2="897.108521" y2="1042.321777" style="stroke: green; stroke-width: 0.200000"/>
   <line x1="910.241089" y1="1041.321777" x2="897.445740" y2="1041.321777" style="stroke: green; stroke-width: 0.200000"/>
   <line x1="910.730530" y1="1040.321777" x2="897.888489" y2="1040.321777" style="stroke: green; stroke-width: 0.200000"/>
   <line x1="911.364746" y1="1039.321777" x2="898.424683" y2="1039.321777" style="stroke: green; stroke-width: 0.200000"/>
   <line x1="912.069702" y1="1038.321777" x2="898.974670" y2="1038.321777" style="stroke: green; stroke-width: 0.200000"/>
   <line x1="912.774719" y1="1037.321777" x2="899.524658" y2="1037.321777" style="stroke: green; stroke-width: 0.200000"/>
   <line x1="913.479675" y1="1036.321777" x2="900.074707" y2="1036.321777" style="stroke: green; stroke-width: 0.200000"/>
   <line x1="914.184631" y1="1035.321777" x2="900.607178" y2="1035.321777" style="stroke: green; stroke-width: 0.200000"/>
   <line x1="914.889587" y1="1034.321777" x2="901.151672" y2="1034.321777" style="stroke: green; stroke-width: 0.200000"/>
   <line x1="915.691162" y1="1033.321777" x2="901.799866" y2="1033.321777" style="stroke: green; stroke-width: 0.200000"/>
   <line x1="916.586975" y1="1032.321777" x2="902.448059" y2="1032.321777" style="stroke: green; stroke-width: 0.200000"/>
   <line x1="917.482910" y1="1031.321777" x2="903.096252" y2="1031.321777" style="stroke: green; stroke-width: 0.200000"/>
   <line x1="918.378784" y1="1030.321777" x2="903.744446" y2="1030.321777" style="stroke: green; stroke-width: 0.200000"/>
   <line x1="919.276062" y1="1029.321777" x2="904.430664" y2="1029.321777" style="stroke: green; stroke-width: 0.200000"/>
   <line x1="920.203369" y1="1028.321777" x2="905.203308" y2="1028.321777" style="stroke: green; stroke-width: 0.200000"/>
   <line x1="921.244019" y1="1027.321777" x2="905.987793" y2="1027.321777" style="stroke: green; stroke-width: 0.200000"/>
   <line x1="922.311096" y1="1026.321777" x2="906.772217" y2="1026.321777" style="stroke: green; stroke-width: 0.200000"/>
   <line x1="946.682190" y1="1025.321777" x2="945.062134" y2="1025.321777" style="stroke: green; stroke-width: 0.200000"/>
   <line x1="923.378052" y1="1025.321777" x2="907.559692" y2="1025.321777" style="stroke: green; stroke-width: 0.200000"/>
   <line x1="946.682190" y1="1024.321777" x2="941.654053" y2="1024.321777" style="stroke: green; stroke-width: 0.200000"/>
   <line x1="924.445068" y1="1024.321777" x2="908.414795" y2="1024.321777" style="stroke: green; stroke-width: 0.200000"/>
   <line x1="946.682190" y1="1023.321777" x2="937.721252" y2="1023.321777" style="stroke: green; stroke-width: 0.200000"/>
   <line x1="925.513550" y1="1023.321777" x2="909.356934" y2="1023.321777" style="stroke: green; stroke-width: 0.200000"/>
   <line x1="946.682190" y1="1022.321777" x2="932.760864" y2="1022.321777" style="stroke: green; stroke-width: 0.200000"/>
   <line x1="927.070007" y1="1022.321777" x2="910.299133" y2="1022.321777" style="stroke: green; stroke-width: 0.200000"/>
   <line x1="946.682190" y1="1021.321716" x2="911.241394" y2="1021.321716" style="stroke: green; stroke-width: 0.200000"/>
   <line x1="946.682190" y1="1020.321716" x2="912.183594" y2="1020.321716" style="stroke: green; stroke-width: 0.200000"/>
   <line x1="946.682190" y1="1019.321777" x2="913.212646" y2="1019.321777" style="stroke: green; stroke-width: 0.200000"/>
   <line x1="946.682190" y1="1018.321777" x2="914.294373" y2="1018.321777" style="stroke: green; stroke-width: 0.200000"/>
   <line x1="946.682190" y1="1017.321777" x2="915.376038" y2="1017.321777" style="stroke: green; stroke-width: 0.200000"/>
   <line x1="946.682190" y1="1016.321716" x2="916.457764" y2="1016.321716" style="stroke: green; stroke-width: 0.200000"/>
   <line x1="946.682190" y1="1015.321716" x2="917.539429" y2="1015.321716" style="stroke: green; stroke-width: 0.200000"/>
   <line x1="946.400269" y1="1014.321777" x2="918.627319" y2="1014.321777" style="stroke: green; stroke-width: 0.200000"/>
   <line x1="942.492798" y1="1013.321777" x2="920.167236" y2="1013.321777" style="stroke: green; stroke-width: 0.200000"/>
   <line x1="937.245422" y1="1012.321777" x2="922.106934" y2="1012.321777" style="stroke: green; stroke-width: 0.200000"/>
   <line x1="929.984619" y1="1011.321716" x2="928.669983" y2="1011.321716" style="stroke: green; stroke-width: 0.200000"/>
   <line x1="996.782227" y1="1060.321777" x2="985.821655" y2="1060.321777" style="stroke: green; stroke-width: 0.200000"/>
   <line x1="996.782227" y1="1059.321777" x2="985.286316" y2="1059.321777" style="stroke: green; stroke-width: 0.200000"/>
   <line x1="996.782227" y1="1058.321777" x2="984.754639" y2="1058.321777" style="stroke: green; stroke-width: 0.200000"/>
   <line x1="996.782227" y1="1057.321777" x2="984.140381" y2="1057.321777" style="stroke: green; stroke-width: 0.200000"/>
   <line x1="996.562622" y1="1056.321777" x2="983.452698" y2="1056.321777" style="stroke: green; stroke-width: 0.200000"/>
   <line x1="996.015015" y1="1055.321777" x2="982.755981" y2="1055.321777" style="stroke: green; stroke-width: 0.200000"/>
   <line x1="995.467407" y1="1054.321777" x2="982.059326" y2="1054.321777" style="stroke: green; stroke-width: 0.200000"/>
   <line x1="994.919800" y1="1053.321777" x2="981.362671" y2="1053.321777" style="stroke: green; stroke-width: 0.200000"/>
   <line x1="994.372192" y1="1052.321777" x2="980.648254" y2="1052.321777" style="stroke: green; stroke-width: 0.200000"/>
   <line x1="993.735962" y1="1051.321777" x2="979.830383" y2="1051.321777" style="stroke: green; stroke-width: 0.200000"/>
   <line x1="993.060364" y1="1050.321777" x2="978.994385" y2="1050.321777" style="stroke: green; stroke-width: 0.200000"/>
   <line x1="992.364380" y1="1049.321777" x2="978.158325" y2="1049.321777" style="stroke: green; stroke-width: 0.200000"/>
   <line x1="991.668030" y1="1048.321777" x2="977.294861" y2="1048.321777" style="stroke: green; stroke-width: 0.200000"/>
   <line x1="990.971619" y1="1047.321777" x2="976.388855" y2="1047.321777" style="stroke: green; stroke-width: 0.200000"/>
   <line x1="990.267700" y1="1046.321777" x2="975.482849" y2="1046.321777" style="stroke: green; stroke-width: 0.200000"/>
   <line x1="989.510986" y1="1045.321777" x2="974.528564" y2="1045.321777" style="stroke: green; stroke-width: 0.200000"/>
   <line x1="988.675171" y1="1044.321777" x2="973.571411" y2="1044.321777" style="stroke: green; stroke-width: 0.200000"/>
   <line x1="987.839294" y1="1043.321777" x2="972.562500" y2="1043.321777" style="stroke: green; stroke-width: 0.200000"/>
   <line x1="987.003479" y1="1042.321777" x2="971.528076" y2="1042.321777" style="stroke: green; stroke-width: 0.200000"/>
   <line x1="986.167603" y1="1041.321777" x2="970.468018" y2="1041.321777" style="stroke: green; stroke-width: 0.200000"/>
   <line x1="985.297546" y1="1040.321777" x2="969.372620" y2="1040.321777" style="stroke: green; stroke-width: 0.200000"/>
   <line x1="984.376770" y1="1039.321777" x2="968.205444" y2="1039.321777" style="stroke: green; stroke-width: 0.200000"/>
   <line x1="983.419556" y1="1038.321777" x2="967.033081" y2="1038.321777" style="stroke: green; stroke-width: 0.200000"/>
   <line x1="982.462402" y1="1037.321777" x2="965.860657" y2="1037.321777" style="stroke: green; stroke-width: 0.200000"/>
   <line x1="981.505127" y1="1036.321777" x2="964.630066" y2="1036.321777" style="stroke: green; stroke-width: 0.200000"/>
   <line x1="980.520996" y1="1035.321777" x2="963.321167" y2="1035.321777" style="stroke: green; stroke-width: 0.200000"/>
   <line x1="979.469482" y1="1034.321777" x2="961.975708" y2="1034.321777" style="stroke: green; stroke-width: 0.200000"/>
   <line x1="978.374146" y1="1033.321777" x2="960.603088" y2="1033.321777" style="stroke: green; stroke-width: 0.200000"/>
   <line x1="977.278809" y1="1032.321777" x2="959.098450" y2="1032.321777" style="stroke: green; stroke-width: 0.200000"/>
   <line x1="976.183533" y1="1031.321777" x2="957.517212" y2="1031.321777" style="stroke: green; stroke-width: 0.200000"/>
   <line x1="974.969482" y1="1030.321777" x2="955.936035" y2="1030.321777" style="stroke: green; stroke-width: 0.200000"/>
   <line x1="973.793213" y1="1029.321777" x2="954.169067" y2="1029.321777" style="stroke: green; stroke-width: 0.200000"/>
   <line x1="972.554871" y1="1028.321777" x2="952.239685" y2="1028.321777" style="stroke: green; stroke-width: 0.200000"/>
   <line x1="971.296387" y1="1027.321777" x2="950.310303" y2="1027.321777" style="stroke: green; stroke-width: 0.200000"/>
   <line x1="969.984802" y1="1026.321777" x2="947.791687" y2="1026.321777" style="stroke: green; stroke-width: 0.200000"/>
   <line x1="968.607300" y1="1025.321777" x2="946.782227" y2="1025.321777" style="stroke: green; stroke-width: 0.200000"/>
   <line x1="967.148376" y1="1024.321777" x2="946.782227" y2="1024.321777" style="stroke: green; stroke-width: 0.200000"/>
   <line x1="965.664673" y1="1023.321777" x2="946.782227" y2="1023.321777" style="stroke: green; stroke-width: 0.200000"/>
   <line x1="964.075562" y1="1022.321777" x2="946.782227" y2="1022.321777" style="stroke: green; stroke-width: 0.200000"/>
   <line x1="962.424805" y1="1021.321716" x2="946.782227" y2="1021.321716" style="stroke: green; stroke-width: 0.200000"/>
   <line x1="960.674500" y1="1020.321716" x2="946.782227" y2="1020.321716" style="stroke: green; stroke-width: 0.200000"/>
   <line x1="958.736328" y1="1019.321777" x2="946.782227" y2="1019.321777" style="stroke: green; stroke-width: 0.200000"/>
   <line x1="956.787476" y1="1018.321777" x2="946.782227" y2="1018.321777" style="stroke: green; stroke-width: 0.200000"/>
   <line x1="954.552124" y1="1017.321777" x2="946.782227" y2="1017.321777" style="stroke: green; stroke-width: 0.200000"/>
   <line x1="952.291870" y1="1016.321716" x2="946.782227" y2="1016.321716" style="stroke: green; stroke-width: 0.200000"/>
   <line x1="949.801025" y1="1015.321716" x2="946.782227" y2="1015.321716" style="stroke: green; stroke-width: 0.200000"/>
   <line x1="998.316711" y1="1060.321777" x2="996.882263" y2="1060.321777" style="stroke: green; stroke-width: 0.200000"/>
   <line x1="997.920410" y1="1059.321777" x2="996.882263" y2="1059.321777" style="stroke: green; stroke-width: 0.200000"/>
   <line x1="997.524109" y1="1058.321777" x2="996.882263" y2="1058.321777" style="stroke: green; stroke-width: 0.200000"/>
   <line x1="997.110229" y1="1057.321777" x2="996.882263" y2="1057.321777" style="stroke: green; stroke-width: 0.200000"/>
   <line x1="973.778076" y1="1097.321777" x2="960.279053" y2="1097.321777" style="stroke: green; stroke-width: 0.200000"/>
   <line x1="976.610107" y1="1096.321777" x2="956.382080" y2="1096.321777" style="stroke: green; stroke-width: 0.200000"/>
   <line x1="978.512634" y1="1095.321777" x2="953.163330" y2="1095.321777" style="stroke: green; stroke-width: 0.200000"/>
   <line x1="980.173645" y1="1094.321777" x2="953.257568" y2="1094.321777" style="stroke: green; stroke-width: 0.200000"/>
   <line x1="981.834656" y1="1093.321777" x2="953.351929" y2="1093.321777" style="stroke: green; stroke-width: 0.200000"/>
   <line x1="983.495605" y1="1092.321777" x2="953.446167" y2="1092.321777" style="stroke: green; stroke-width: 0.200000"/>
   <line x1="985.012756" y1="1091.321777" x2="953.540588" y2="1091.321777" style="stroke: green; stroke-width: 0.200000"/>
   <line x1="986.405701" y1="1090.321777" x2="953.634888" y2="1090.321777" style="stroke: green; stroke-width: 0.200000"/>
   <line x1="987.776001" y1="1089.321777" x2="953.729187" y2="1089.321777" style="stroke: green; stroke-width: 0.200000"/>
   <line x1="989.146362" y1="1088.321777" x2="953.823547" y2="1088.321777" style="stroke: green; stroke-width: 0.200000"/>
   <line x1="990.454468" y1="1087.321777" x2="968.394043" y2="1087.321777" style="stroke: green; stroke-width: 0.200000"/>
   <line x1="957.476807" y1="1087.321777" x2="953.917847" y2="1087.321777" style="stroke: green; stroke-width: 0.200000"/>
   <line x1="991.659485" y1="1086.321777" x2="970.384277" y2="1086.321777" style="stroke: green; stroke-width: 0.200000"/>
   <line x1="992.812988" y1="1085.321777" x2="972.179443" y2="1085.321777" style="stroke: green; stroke-width: 0.200000"/>
   <line x1="993.963745" y1="1084.321777" x2="973.935486" y2="1084.321777" style="stroke: green; stroke-width: 0.200000"/>
   <line x1="995.114502" y1="1083.321777" x2="975.668640" y2="1083.321777" style="stroke: green; stroke-width: 0.200000"/>
   <line x1="996.239746" y1="1082.321777" x2="977.304199" y2="1082.321777" style="stroke: green; stroke-width: 0.200000"/>
   <line x1="996.782227" y1="1081.321777" x2="978.713684" y2="1081.321777" style="stroke: green; stroke-width: 0.200000"/>
   <line x1="996.782227" y1="1080.321777" x2="980.123230" y2="1080.321777" style="stroke: green; stroke-width: 0.200000"/>
   <line x1="996.782227" y1="1079.321777" x2="981.518250" y2="1079.321777" style="stroke: green; stroke-width: 0.200000"/>
   <line x1="996.782227" y1="1078.321777" x2="982.782043" y2="1078.321777" style="stroke: green; stroke-width: 0.200000"/>
   <line x1="996.782227" y1="1077.321777" x2="983.941162" y2="1077.321777" style="stroke: green; stroke-width: 0.200000"/>
   <line x1="996.782227" y1="1076.321777" x2="985.100220" y2="1076.321777" style="stroke: green; stroke-width: 0.200000"/>
   <line x1="996.782227" y1="1075.321777" x2="986.259399" y2="1075.321777" style="stroke: green; stroke-width: 0.200000"/>
   <line x1="996.782227" y1="1074.321777" x2="987.353210" y2="1074.321777" style="stroke: green; stroke-width: 0.200000"/>
   <line x1="996.782227" y1="1073.321777" x2="988.447144" y2="1073.321777" style="stroke: green; stroke-width: 0.200000"/>
   <line x1="996.782227" y1="1072.321777" x2="989.376526" y2="1072.321777" style="stroke: green; stroke-width: 0.200000"/>
   <line x1="996.782227" y1="1071.321777" x2="989.796692" y2="1071.321777" style="stroke: green; stroke-width: 0.200000"/>
   <line x1="996.782227" y1="1070.321777" x2="989.776550" y2="1070.321777" style="stroke: green; stroke-width: 0.200000"/>
   <line x1="996.782227" y1="1069.321777" x2="989.586060" y2="1069.321777" style="stroke: green; stroke-width: 0.200000"/>
   <line x1="996.782227" y1="1068.321777" x2="989.306396" y2="1068.321777" style="stroke: green; stroke-width: 0.200000"/>
   <line x1="996.782227" y1="1067.321777" x2="988.921509" y2="1067.321777" style="stroke: green; stroke-width: 0.200000"/>
   <line x1="996.782227" y1="1066.321777" x2="988.536499" y2="1066.321777" style="stroke: green; stroke-width: 0.200000"/>
   <line x1="996.782227" y1="1065.321777" x2="988.151794" y2="1065.321777" style="stroke: green; stroke-width: 0.200000"/>
   <line x1="996.782227" y1="1064.321777" x2="987.767029" y2="1064.321777" style="stroke: green; stroke-width: 0.200000"/>
   <line x1="996.782227" y1="1063.321777" x2="987.398376" y2="1063.321777" style="stroke: green; stroke-width: 0.200000"/>
   <line x1="996.782227" y1="1062.321777" x2="986.892334" y2="1062.321777" style="stroke: green; stroke-width: 0.200000"/>
   <line x1="997.345581" y1="1081.321777" x2="996.882263" y2="1081.321777" style="stroke: green; stroke-width: 0.200000"/>
   <line x1="998.393677" y1="1080.321777" x2="996.882263" y2="1080.321777" style="stroke: green; stroke-width: 0.200000"/>
   <line x1="999.205994" y1="1079.321777" x2="996.882263" y2="1079.321777" style="stroke: green; stroke-width: 0.200000"/>
   <line x1="999.965881" y1="1078.321777" x2="996.882263" y2="1078.321777" style="stroke: green; stroke-width: 0.200000"/>
   <line x1="1000.481873" y1="1077.321777" x2="996.882263" y2="1077.321777" style="stroke: green; stroke-width: 0.200000"/>
   <line x1="1000.889282" y1="1076.321777" x2="996.882263" y2="1076.321777" style="stroke: green; stroke-width: 0.200000"/>
   <line x1="1001.217712" y1="1075.321777" x2="996.882263" y2="1075.321777" style="stroke: green; stroke-width: 0.200000"/>
   <line x1="1001.365112" y1="1074.321777" x2="996.882263" y2="1074.321777" style="stroke: green; stroke-width: 0.200000"/>
   <line x1="1001.506470" y1="1073.321777" x2="996.882263" y2="1073.321777" style="stroke: green; stroke-width: 0.200000"/>
   <line x1="1001.527344" y1="1072.321777" x2="996.882263" y2="1072.321777" style="stroke: green; stroke-width: 0.200000"/>
   <line x1="1001.416016" y1="1071.321777" x2="996.882263" y2="1071.321777" style="stroke: green; stroke-width: 0.200000"/>
   <line x1="1001.304688" y1="1070.321777" x2="996.882263" y2="1070.321777" style="stroke: green; stroke-width: 0.200000"/>
   <line x1="1001.179321" y1="1069.321777" x2="996.882263" y2="1069.321777" style="stroke: green; stroke-width: 0.200000"/>
   <line x1="1000.928894" y1="1068.321777" x2="996.882263" y2="1068.321777" style="stroke: green; stroke-width: 0.200000"/>
   <line x1="1000.655396" y1="1067.321777" x2="996.882263" y2="1067.321777" style="stroke: green; stroke-width: 0.200000"/>
   <line x1="1000.381836" y1="1066.321777" x2="996.882263" y2="1066.321777" style="stroke: green; stroke-width: 0.200000"/>
   <line x1="1000.108398" y1="1065.321777" x2="996.882263" y2="1065.321777" style="stroke: green; stroke-width: 0.200000"/>
   <line x1="999.834900" y1="1064.321777" x2="996.882263" y2="1064.321777" style="stroke: green; stroke-width: 0.200000"/>
   <line x1="999.505615" y1="1063.321777" x2="996.882263" y2="1063.321777" style="stroke: green; stroke-width: 0.200000"/>
   <line x1="999.109375" y1="1062.321777" x2="996.882263" y2="1062.321777" style="stroke: green; stroke-width: 0.200000"/>
   <line x1="1010.764160" y1="955.430054" x2="999.656250" y2="955.430054" style="stroke: green; stroke-width: 0.200000"/>
   <line x1="1010.473572" y1="954.429993" x2="999.389771" y2="954.429993" style="stroke: green; stroke-width: 0.200000"/>
   <line x1="1010.183411" y1="953.430054" x2="999.187622" y2="953.430054" style="stroke: green; stroke-width: 0.200000"/>
   <line x1="1009.893250" y1="952.430054" x2="998.994446" y2="952.430054" style="stroke: green; stroke-width: 0.200000"/>
   <line x1="1009.606445" y1="951.430054" x2="998.801758" y2="951.430054" style="stroke: green; stroke-width: 0.200000"/>
   <line x1="1009.340088" y1="950.430054" x2="998.616943" y2="950.430054" style="stroke: green; stroke-width: 0.200000"/>
   <line x1="1009.073547" y1="949.429993" x2="998.432129" y2="949.429993" style="stroke: green; stroke-width: 0.200000"/>
   <line x1="1008.846130" y1="948.430054" x2="998.247437" y2="948.430054" style="stroke: green; stroke-width: 0.200000"/>
   <line x1="1008.652954" y1="947.430054" x2="998.062683" y2="947.430054" style="stroke: green; stroke-width: 0.200000"/>
   <line x1="1008.459778" y1="946.430054" x2="997.925476" y2="946.430054" style="stroke: green; stroke-width: 0.200000"/>
   <line x1="1008.266541" y1="945.430054" x2="997.803284" y2="945.430054" style="stroke: green; stroke-width: 0.200000"/>
   <line x1="1008.073425" y1="944.429993" x2="997.681030" y2="944.429993" style="stroke: green; stroke-width: 0.200000"/>
   <line x1="1007.880249" y1="943.430054" x2="997.558838" y2="943.430054" style="stroke: green; stroke-width: 0.200000"/>
   <line x1="1007.785889" y1="942.430054" x2="997.436523" y2="942.430054" style="stroke: green; stroke-width: 0.200000"/>
   <line x1="1007.701782" y1="941.430054" x2="997.340454" y2="941.430054" style="stroke: green; stroke-width: 0.200000"/>
   <line x1="1007.673218" y1="940.430054" x2="997.294067" y2="940.430054" style="stroke: green; stroke-width: 0.200000"/>
   <line x1="1007.776855" y1="939.429993" x2="997.253479" y2="939.429993" style="stroke: green; stroke-width: 0.200000"/>
   <line x1="1007.951660" y1="938.430054" x2="997.296021" y2="938.430054" style="stroke: green; stroke-width: 0.200000"/>
   <line x1="1008.399658" y1="937.430054" x2="997.344727" y2="937.430054" style="stroke: green; stroke-width: 0.200000"/>
   <line x1="1009.089233" y1="936.430054" x2="997.503723" y2="936.430054" style="stroke: green; stroke-width: 0.200000"/>
   <line x1="1009.869690" y1="935.430054" x2="997.688904" y2="935.430054" style="stroke: green; stroke-width: 0.200000"/>
   <line x1="1010.779663" y1="934.429993" x2="997.954407" y2="934.429993" style="stroke: green; stroke-width: 0.200000"/>
   <line x1="1011.686646" y1="933.430054" x2="998.293518" y2="933.430054" style="stroke: green; stroke-width: 0.200000"/>
   <line x1="1012.593506" y1="932.430054" x2="998.649658" y2="932.430054" style="stroke: green; stroke-width: 0.200000"/>
   <line x1="1013.392212" y1="931.430054" x2="999.226196" y2="931.430054" style="stroke: green; stroke-width: 0.200000"/>
   <line x1="1014.295715" y1="930.430054" x2="999.812927" y2="930.430054" style="stroke: green; stroke-width: 0.200000"/>
   <line x1="1015.264771" y1="929.429993" x2="1000.682434" y2="929.429993" style="stroke: green; stroke-width: 0.200000"/>
   <line x1="1016.169434" y1="928.430054" x2="1001.622192" y2="928.430054" style="stroke: green; stroke-width: 0.200000"/>
   <line x1="1017.074036" y1="927.430054" x2="1002.466187" y2="927.430054" style="stroke: green; stroke-width: 0.200000"/>
   <line x1="1017.989868" y1="926.430054" x2="1003.264221" y2="926.430054" style="stroke: green; stroke-width: 0.200000"/>
   <line x1="1019.161743" y1="925.430054" x2="1004.062195" y2="925.430054" style="stroke: green; stroke-width: 0.200000"/>
   <line x1="1020.330566" y1="924.429993" x2="1004.860229" y2="924.429993" style="stroke: green; stroke-width: 0.200000"/>
   <line x1="1021.502563" y1="923.430054" x2="1005.661987" y2="923.430054" style="stroke: green; stroke-width: 0.200000"/>
   <line x1="1022.712280" y1="922.430054" x2="1006.636475" y2="922.430054" style="stroke: green; stroke-width: 0.200000"/>
   <line x1="1023.960083" y1="921.430054" x2="1007.611023" y2="921.430054" style="stroke: green; stroke-width: 0.200000"/>
   <line x1="1025.425659" y1="920.430054" x2="1008.585510" y2="920.430054" style="stroke: green; stroke-width: 0.200000"/>
   <line x1="1027.040894" y1="919.429993" x2="1009.559937" y2="919.429993" style="stroke: green; stroke-width: 0.200000"/>
   <line x1="1043.201660" y1="918.430054" x2="1043.103271" y2="918.430054" style="stroke: green; stroke-width: 0.200000"/>
   <line x1="1028.682129" y1="918.430054" x2="1010.534424" y2="918.430054" style="stroke: green; stroke-width: 0.200000"/>
   <line x1="1043.450928" y1="917.430054" x2="1036.928955" y2="917.430054" style="stroke: green; stroke-width: 0.200000"/>
   <line x1="1030.323364" y1="917.430054" x2="1011.450928" y2="917.430054" style="stroke: green; stroke-width: 0.200000"/>
   <line x1="1043.700684" y1="916.430054" x2="1012.620300" y2="916.430054" style="stroke: green; stroke-width: 0.200000"/>
   <line x1="1043.950195" y1="915.430054" x2="1013.789612" y2="915.430054" style="stroke: green; stroke-width: 0.200000"/>
   <line x1="1044.199829" y1="914.429993" x2="1014.958862" y2="914.429993" style="stroke: green; stroke-width: 0.200000"/>
   <line x1="1044.449585" y1="913.430054" x2="1016.255493" y2="913.430054" style="stroke: green; stroke-width: 0.200000"/>
   <line x1="1044.699219" y1="912.430054" x2="1017.597900" y2="912.430054" style="stroke: green; stroke-width: 0.200000"/>
   <line x1="1044.088013" y1="911.430054" x2="1018.954407" y2="911.430054" style="stroke: green; stroke-width: 0.200000"/>
   <line x1="1042.633911" y1="910.430054" x2="1020.529419" y2="910.430054" style="stroke: green; stroke-width: 0.200000"/>
   <line x1="1040.926270" y1="909.429993" x2="1022.125610" y2="909.429993" style="stroke: green; stroke-width: 0.200000"/>
   <line x1="1039.022705" y1="908.430054" x2="1023.751465" y2="908.430054" style="stroke: green; stroke-width: 0.200000"/>
   <line x1="1036.674805" y1="907.430054" x2="1025.520996" y2="907.430054" style="stroke: green; stroke-width: 0.200000"/>
   <line x1="1033.153320" y1="906.430054" x2="1028.587769" y2="906.430054" style="stroke: green; stroke-width: 0.200000"/>
   <line x1="1047.249634" y1="1005.430054" x2="1036.893433" y2="1005.430054" style="stroke: green; stroke-width: 0.200000"/>
   <line x1="1047.249634" y1="1004.429993" x2="1035.364624" y2="1004.429993" style="stroke: green; stroke-width: 0.200000"/>
   <line x1="1047.249634" y1="1003.430054" x2="1033.831299" y2="1003.430054" style="stroke: green; stroke-width: 0.200000"/>
   <line x1="1047.249634" y1="1002.430054" x2="1032.481934" y2="1002.430054" style="stroke: green; stroke-width: 0.200000"/>
   <line x1="1047.249634" y1="1001.430054" x2="1031.227173" y2="1001.430054" style="stroke: green; stroke-width: 0.200000"/>
   <line x1="1047.249634" y1="1000.430054" x2="1029.940918" y2="1000.430054" style="stroke: green; stroke-width: 0.200000"/>
   <line x1="1047.249634" y1="999.429993" x2="1028.731079" y2="999.429993" style="stroke: green; stroke-width: 0.200000"/>
   <line x1="1046.846069" y1="998.430054" x2="1027.574707" y2="998.430054" style="stroke: green; stroke-width: 0.200000"/>
   <line x1="1044.975220" y1="997.430054" x2="1026.466064" y2="997.430054" style="stroke: green; stroke-width: 0.200000"/>
   <line x1="1043.397461" y1="996.430054" x2="1025.393188" y2="996.430054" style="stroke: green; stroke-width: 0.200000"/>
   <line x1="1041.864136" y1="995.430054" x2="1024.320312" y2="995.430054" style="stroke: green; stroke-width: 0.200000"/>
   <line x1="1040.330688" y1="994.429993" x2="1023.342529" y2="994.429993" style="stroke: green; stroke-width: 0.200000"/>
   <line x1="1038.960449" y1="993.430054" x2="1022.406372" y2="993.430054" style="stroke: green; stroke-width: 0.200000"/>
   <line x1="1037.641479" y1="992.430054" x2="1021.442505" y2="992.430054" style="stroke: green; stroke-width: 0.200000"/>
   <line x1="1036.367920" y1="991.430054" x2="1020.447388" y2="991.430054" style="stroke: green; stroke-width: 0.200000"/>
   <line x1="1035.204102" y1="990.430054" x2="1019.507080" y2="990.430054" style="stroke: green; stroke-width: 0.200000"/>
   <line x1="1034.042725" y1="989.429993" x2="1018.634277" y2="989.429993" style="stroke: green; stroke-width: 0.200000"/>
   <line x1="1032.912109" y1="988.430054" x2="1017.816101" y2="988.430054" style="stroke: green; stroke-width: 0.200000"/>
   <line x1="1031.839233" y1="987.430054" x2="1016.961121" y2="987.430054" style="stroke: green; stroke-width: 0.200000"/>
   <line x1="1030.886475" y1="986.430054" x2="1016.107483" y2="986.430054" style="stroke: green; stroke-width: 0.200000"/>
   <line x1="1029.913940" y1="985.430054" x2="1015.286926" y2="985.430054" style="stroke: green; stroke-width: 0.200000"/>
   <line x1="1028.918823" y1="984.429993" x2="1014.477478" y2="984.429993" style="stroke: green; stroke-width: 0.200000"/>
   <line x1="1027.923828" y1="983.430054" x2="1013.750305" y2="983.430054" style="stroke: green; stroke-width: 0.200000"/>
   <line x1="1027.003906" y1="982.430054" x2="1013.023132" y2="982.430054" style="stroke: green; stroke-width: 0.200000"/>
   <line x1="1026.171021" y1="981.430054" x2="1012.296082" y2="981.430054" style="stroke: green; stroke-width: 0.200000"/>
   <line x1="1025.312256" y1="980.430054" x2="1011.568909" y2="980.430054" style="stroke: green; stroke-width: 0.200000"/>
   <line x1="1024.453247" y1="979.429993" x2="1010.841736" y2="979.429993" style="stroke: green; stroke-width: 0.200000"/>
   <line x1="1023.604736" y1="978.430054" x2="1010.127625" y2="978.430054" style="stroke: green; stroke-width: 0.200000"/>
   <line x1="1022.819946" y1="977.430054" x2="1009.431824" y2="977.430054" style="stroke: green; stroke-width: 0.200000"/>
   <line x1="1022.089111" y1="976.430054" x2="1008.736023" y2="976.430054" style="stroke: green; stroke-width: 0.200000"/>
   <line x1="1021.348877" y1="975.430054" x2="1008.047852" y2="975.430054" style="stroke: green; stroke-width: 0.200000"/>
   <line x1="1020.608582" y1="974.429993" x2="1007.492371" y2="974.429993" style="stroke: green; stroke-width: 0.200000"/>
   <line x1="1019.868286" y1="973.430054" x2="1006.949951" y2="973.430054" style="stroke: green; stroke-width: 0.200000"/>
   <line x1="1019.150330" y1="972.430054" x2="1006.403748" y2="972.430054" style="stroke: green; stroke-width: 0.200000"/>
   <line x1="1018.454529" y1="971.430054" x2="1005.857605" y2="971.430054" style="stroke: green; stroke-width: 0.200000"/>
   <line x1="1017.797241" y1="970.430054" x2="1005.311523" y2="970.430054" style="stroke: green; stroke-width: 0.200000"/>
   <line x1="1017.175781" y1="969.429993" x2="1004.765381" y2="969.429993" style="stroke: green; stroke-width: 0.200000"/>
   <line x1="1016.554260" y1="968.430054" x2="1004.279419" y2="968.430054" style="stroke: green; stroke-width: 0.200000"/>
   <line x1="1016.025452" y1="967.430054" x2="1003.857483" y2="967.430054" style="stroke: green; stroke-width: 0.200000"/>
   <line x1="1015.497925" y1="966.430054" x2="1003.435608" y2="966.430054" style="stroke: green; stroke-width: 0.200000"/>
   <line x1="1014.970337" y1="965.430054" x2="1003.013794" y2="965.430054" style="stroke: green; stroke-width: 0.200000"/>
   <line x1="1014.442749" y1="964.429993" x2="1002.591858" y2="964.429993" style="stroke: green; stroke-width: 0.200000"/>
   <line x1="1013.915161" y1="963.430054" x2="1002.167847" y2="963.430054" style="stroke: green; stroke-width: 0.200000"/>
   <line x1="1013.424133" y1="962.430054" x2="1001.732422" y2="962.430054" style="stroke: green; stroke-width: 0.200000"/>
   <line x1="1013.032837" y1="961.430054" x2="1001.393982" y2="961.430054" style="stroke: green; stroke-width: 0.200000"/>
   <line x1="1012.641357" y1="960.430054" x2="1001.103455" y2="960.430054" style="stroke: green; stroke-width: 0.200000"/>
   <line x1="1012.250000" y1="959.429993" x2="1000.812927" y2="959.429993" style="stroke: green; stroke-width: 0.200000"/>
   <line x1="1011.858582" y1="958.430054" x2="1000.522400" y2="958.430054" style="stroke: green; stroke-width: 0.200000"/>
   <line x1="1011.467224" y1="957.430054" x2="1000.231873" y2="957.430054" style="stroke: green; stroke-width: 0.200000"/>
   <line x1="1011.083374" y1="956.430054" x2="999.941345" y2="956.430054" style="stroke: green; stroke-width: 0.200000"/>
   <line x1="1083.152344" y1="1005.430054" x2="1047.349609" y2="1005.430054" style="stroke: green; stroke-width: 0.200000"/>
   <line x1="1084.169434" y1="1004.429993" x2="1066.032471" y2="1004.429993" style="stroke: green; stroke-width: 0.200000"/>
   <line x1="1062.098877" y1="1004.429993" x2="1047.349609" y2="1004.429993" style="stroke: green; stroke-width: 0.200000"/>
   <line x1="1085.186646" y1="1003.430054" x2="1067.547729" y2="1003.430054" style="stroke: green; stroke-width: 0.200000"/>
   <line x1="1058.289551" y1="1003.430054" x2="1047.349609" y2="1003.430054" style="stroke: green; stroke-width: 0.200000"/>
   <line x1="1086.192139" y1="1002.430054" x2="1068.832031" y2="1002.430054" style="stroke: green; stroke-width: 0.200000"/>
   <line x1="1055.459473" y1="1002.430054" x2="1047.349609" y2="1002.430054" style="stroke: green; stroke-width: 0.200000"/>
   <line x1="1086.990234" y1="1001.430054" x2="1070.116211" y2="1001.430054" style="stroke: green; stroke-width: 0.200000"/>
   <line x1="1052.980713" y1="1001.430054" x2="1047.349609" y2="1001.430054" style="stroke: green; stroke-width: 0.200000"/>
   <line x1="1087.788452" y1="1000.430054" x2="1071.400513" y2="1000.430054" style="stroke: green; stroke-width: 0.200000"/>
   <line x1="1050.651367" y1="1000.430054" x2="1047.349609" y2="1000.430054" style="stroke: green; stroke-width: 0.200000"/>
   <line x1="1088.586548" y1="999.429993" x2="1072.621948" y2="999.429993" style="stroke: green; stroke-width: 0.200000"/>
   <line x1="1048.700073" y1="999.429993" x2="1047.349609" y2="999.429993" style="stroke: green; stroke-width: 0.200000"/>
   <line x1="1089.384766" y1="998.430054" x2="1073.645264" y2="998.430054" style="stroke: green; stroke-width: 0.200000"/>
   <line x1="1090.182861" y1="997.430054" x2="1074.668457" y2="997.430054" style="stroke: green; stroke-width: 0.200000"/>
   <line x1="1090.981079" y1="996.430054" x2="1075.691772" y2="996.430054" style="stroke: green; stroke-width: 0.200000"/>
   <line x1="1091.714355" y1="995.430054" x2="1076.715088" y2="995.430054" style="stroke: green; stroke-width: 0.200000"/>
   <line x1="1092.335449" y1="994.429993" x2="1077.740723" y2="994.429993" style="stroke: green; stroke-width: 0.200000"/>
   <line x1="1092.966309" y1="993.430054" x2="1078.524536" y2="993.430054" style="stroke: green; stroke-width: 0.200000"/>
   <line x1="1093.659302" y1="992.430054" x2="1079.308350" y2="992.430054" style="stroke: green; stroke-width: 0.200000"/>
   <line x1="1094.267456" y1="991.430054" x2="1080.092041" y2="991.430054" style="stroke: green; stroke-width: 0.200000"/>
   <line x1="1094.832642" y1="990.430054" x2="1080.875854" y2="990.430054" style="stroke: green; stroke-width: 0.200000"/>
   <line x1="1095.298584" y1="989.429993" x2="1081.663330" y2="989.429993" style="stroke: green; stroke-width: 0.200000"/>
   <line x1="1095.647339" y1="988.430054" x2="1082.433472" y2="988.430054" style="stroke: green; stroke-width: 0.200000"/>
   <line x1="1095.941284" y1="987.430054" x2="1083.026001" y2="987.430054" style="stroke: green; stroke-width: 0.200000"/>
   <line x1="1096.122192" y1="986.430054" x2="1083.618652" y2="986.430054" style="stroke: green; stroke-width: 0.200000"/>
   <line x1="1096.284302" y1="985.430054" x2="1084.255493" y2="985.430054" style="stroke: green; stroke-width: 0.200000"/>
   <line x1="1096.355591" y1="984.429993" x2="1084.912231" y2="984.429993" style="stroke: green; stroke-width: 0.200000"/>
   <line x1="1096.374023" y1="983.430054" x2="1085.397461" y2="983.430054" style="stroke: green; stroke-width: 0.200000"/>
   <line x1="1096.324829" y1="982.430054" x2="1085.625977" y2="982.430054" style="stroke: green; stroke-width: 0.200000"/>
   <line x1="1096.218506" y1="981.430054" x2="1085.740479" y2="981.430054" style="stroke: green; stroke-width: 0.200000"/>
   <line x1="1096.064819" y1="980.430054" x2="1085.683716" y2="980.430054" style="stroke: green; stroke-width: 0.200000"/>
   <line x1="1095.881226" y1="979.429993" x2="1085.509277" y2="979.429993" style="stroke: green; stroke-width: 0.200000"/>
   <line x1="1095.693115" y1="978.430054" x2="1085.402832" y2="978.430054" style="stroke: green; stroke-width: 0.200000"/>
   <line x1="1095.492554" y1="977.430054" x2="1085.296509" y2="977.430054" style="stroke: green; stroke-width: 0.200000"/>
   <line x1="1095.234497" y1="976.430054" x2="1085.190186" y2="976.430054" style="stroke: green; stroke-width: 0.200000"/>
   <line x1="1094.976318" y1="975.430054" x2="1085.083740" y2="975.430054" style="stroke: green; stroke-width: 0.200000"/>
   <line x1="1094.698853" y1="974.429993" x2="1084.977295" y2="974.429993" style="stroke: green; stroke-width: 0.200000"/>
   <line x1="1094.376709" y1="973.430054" x2="1084.870850" y2="973.430054" style="stroke: green; stroke-width: 0.200000"/>
   <line x1="1094.030029" y1="972.430054" x2="1084.764526" y2="972.430054" style="stroke: green; stroke-width: 0.200000"/>
   <line x1="1093.610352" y1="971.430054" x2="1084.658081" y2="971.430054" style="stroke: green; stroke-width: 0.200000"/>
   <line x1="1093.159302" y1="970.430054" x2="1084.551270" y2="970.430054" style="stroke: green; stroke-width: 0.200000"/>
   <line x1="1092.708252" y1="969.429993" x2="1084.444824" y2="969.429993" style="stroke: green; stroke-width: 0.200000"/>
   <line x1="1092.257202" y1="968.430054" x2="1084.338501" y2="968.430054" style="stroke: green; stroke-width: 0.200000"/>
   <line x1="1091.768433" y1="967.430054" x2="1089.257690" y2="967.430054" style="stroke: green; stroke-width: 0.200000"/>
   <line x1="1047.249634" y1="1010.430054" x2="1046.303711" y2="1010.430054" style="stroke: green; stroke-width: 0.200000"/>
   <line x1="1047.249634" y1="1009.429993" x2="1043.956909" y2="1009.429993" style="stroke: green; stroke-width: 0.200000"/>
   <line x1="1047.249634" y1="1008.430054" x2="1042.059814" y2="1008.430054" style="stroke: green; stroke-width: 0.200000"/>
   <line x1="1047.249634" y1="1007.430054" x2="1040.139282" y2="1007.430054" style="stroke: green; stroke-width: 0.200000"/>
   <line x1="1047.249634" y1="1006.430054" x2="1038.390625" y2="1006.430054" style="stroke: green; stroke-width: 0.200000"/>
   <line x1="1069.416016" y1="1015.430054" x2="1062.526733" y2="1015.430054" style="stroke: green; stroke-width: 0.200000"/>
   <line x1="1072.120605" y1="1014.429993" x2="1057.847046" y2="1014.429993" style="stroke: green; stroke-width: 0.200000"/>
   <line x1="1073.842773" y1="1013.430054" x2="1054.327026" y2="1013.430054" style="stroke: green; stroke-width: 0.200000"/>
   <line x1="1075.093506" y1="1012.430054" x2="1051.202148" y2="1012.430054" style="stroke: green; stroke-width: 0.200000"/>
   <line x1="1076.344360" y1="1011.430054" x2="1048.727051" y2="1011.430054" style="stroke: green; stroke-width: 0.200000"/>
   <line x1="1077.595093" y1="1010.430054" x2="1047.349609" y2="1010.430054" style="stroke: green; stroke-width: 0.200000"/>
   <line x1="1078.845947" y1="1009.429993" x2="1047.349609" y2="1009.429993" style="stroke: green; stroke-width: 0.200000"/>
   <line x1="1080.096680" y1="1008.430054" x2="1047.349609" y2="1008.430054" style="stroke: green; stroke-width: 0.200000"/>
   <line x1="1081.118042" y1="1007.430054" x2="1047.349609" y2="1007.430054" style="stroke: green; stroke-width: 0.200000"/>
   <line x1="1082.135132" y1="1006.430054" x2="1047.349609" y2="1006.430054" style="stroke: green; stroke-width: 0.200000"/>
   <line x1="1044.800659" y1="912.024536" x2="1044.800415" y2="912.024536" style="stroke: green; stroke-width: 0.200000"/>
   <path d="M 943.875  1093.19  942.079  1092.39  935.68  1088.98  934.566  1088.36  927.543  1084.03  920.885  1079.4  918.167  1077.29  914.462  1074.37  909.42  1069.83  908.221  1068.71  906.694  1067.11  " style="fill: none; stroke: darkmagenta; stroke-width: 0.200000; fill-type: evenodd"  fill-opacity="1.000000" />
   <path d="M 906.694  1067.11  905.188  1065.54  903.409  1063.43  902.546  1062.31  901.086  1060.32  899.988  1058.78  899.274  1057.66  898.411  1056.11  897.158  1053.55  896.556  1052.1  896.227  1051.14  895.665  1048.98  895.315  1046.92  895.18  1044.97  895.195  1044.64  895.378  1043.1  895.684  1041.83  896.208  1040.31  896.313  1040.09  896.802  1039.16  899.022  1035.12  899.711  1033.79  902.715  1029.15  903.332  1028.28  906.301  1024.49  906.975  1023.66  911.483  1018.88  917.682  1013.15  919.483  1011.98  920.829  1011.14  921.063  1011.05  924.392  1010.1  925.571  1009.91  929.716  1009.79  930.006  1009.81  935.478  1010.52  939.427  1011.15  941.926  1011.63  948.856  1013.4  949.617  1013.63  953.925  1015.36  954.887  1015.84  955.988  1016.27  957.624  1017.06  961.718  1019.17  964.055  1020.54  966.79  1022.26  969.891  1024.38  971.72  1025.74  974.472  1027.93  975.868  1029.12  976.827  1029.88  980.805  1033.51  981.945  1034.61  985.751  1038.59  986.871  1039.82  990.798  1044.52  991.601  1045.6  994.286  1049.46  995.223  1050.84  995.61  1051.46  998.534  1056.8  1001.11  1063.3  1002.61  1068.77  1002.7  1069.34  1003.07  1072.59  1003.08  1072.93  1002.73  1075.39  1002.61  1076.08  1001.81  1078.04  1001.44  1078.86  1000.78  1079.74  999.705  1081.14  998.261  1082.52  996.496  1084.11  992.691  1087.41  990.924  1088.88  986.41  1092.18  984.929  1093.21  978.418  1097.13  976.692  1097.94  975.015  1098.54  974.161  1098.77  973.049  1099.1  970.844  1099.51  969.15  1099.69  968.3  1099.69  966.211  1099.55  965.518  1099.53  961.122  1099  960.486  1098.89  958.927  1098.58  955.134  1097.53  951.09  1096.23  950.144  1095.9  946.818  1094.5  943.875  1093.19  " style="fill: none; stroke: red; stroke-width: 0.200000; fill-type: evenodd"  fill-opacity="1.000000" />
   <path d="M 962.933  1098.21  961.264  1098.01  960.665  1097.91  959.159  1097.61  955.42  1096.57  951.409  1095.28  950.504  1094.96  947.216  1093.58  942.518  1091.49  936.157  1088.1  935.07  1087.5  928.091  1083.2  921.478  1078.59  918.783  1076.5  915.107  1073.6  910.096  1069.09  908.924  1068  905.932  1064.87  904.188  1062.81  903.345  1061.71  901.897  1059.74  900.818  1058.22  900.133  1057.14  899.297  1055.65  898.081  1053.17  " style="fill: none; stroke: black; stroke-width: 0.200000; fill-type: evenodd"  fill-opacity="1.000000" />
   <path d="M 898.081  1053.17  898.069  1053.14  897.492  1051.75  897.186  1050.86  896.644  1048.77  896.31  1046.8  896.182  1044.96  896.193  1044.72  896.364  1043.27  896.645  1042.11  897.136  1040.69  897.209  1040.53  897.682  1039.63  899.905  1035.59  900.577  1034.29  903.544  1029.71  904.134  1028.87  907.082  1025.12  907.728  1024.32  912.188  1019.59  918.299  1013.94  920.02  1012.82  921.276  1012.04  921.379  1012  924.611  1011.08  925.667  1010.91  929.695  1010.79  929.907  1010.81  935.334  1011.51  939.254  1012.14  941.709  1012.61  948.587  1014.37  949.286  1014.58  953.514  1016.27  954.481  1016.76  955.589  1017.19  957.177  1017.95  961.236  1020.05  963.537  1021.39  966.241  1023.09  969.31  1025.2  971.11  1026.54  973.836  1028.7  975.233  1029.89  976.179  1030.64  980.121  1034.24  981.236  1035.32  985.019  1039.27  986.116  1040.48  990.013  1045.14  990.79  1046.19  993.462  1050.02  994.385  1051.39  994.747  1051.97  997.627  1057.22  1000.16  1063.62  1001.63  1068.99  1001.71  1069.48  1002.07  1072.66  1002.07  1072.87  1001.74  1075.23  1001.64  1075.8  1000.89  1077.65  1000.57  1078.35  999.982  1079.13  998.958  1080.47  997.581  1081.79  995.833  1083.36  992.044  1086.65  990.309  1088.09  985.829  1091.36  984.384  1092.37  977.946  1096.25  976.31  1097.01  974.716  1097.59  973.887  1097.81  972.814  1098.13  970.701  1098.52  969.099  1098.69  968.333  1098.69  966.255  1098.55  965.589  1098.53  962.933  1098.21  " style="fill: none; stroke: red; stroke-width: 0.200000; fill-type: evenodd"  fill-opacity="1.000000" />
   <path d="M 1049.68  913.749  1050.51  914.431  1052.89  916.484  1056.37  919.759  1057.17  920.554  1061.93  925.451  1067.19  931.199  1072.27  937.042  1077.24  943.063  1082.13  949.338  1085.86  954.549  1086.86  956.003  1088.36  958.373  " style="fill: none; stroke: darkmagenta; stroke-width: 0.200000; fill-type: evenodd"  fill-opacity="1.000000" />
   <path d="M 1088.36  958.373  1089  959.387  1090.56  961.896  1091.15  962.949  1093.43  967.382  1095.17  971.242  1095.57  972.241  1096.24  974.314  1097  977.279  1097.54  980.155  1097.61  980.792  1097.73  981.331  1097.88  982.956  1097.87  984.194  1097.81  985.414  1097.45  987.62  1096.85  989.643  1096.02  991.44  1094.85  993.364  1094.13  994.377  1092.71  996.662  1087.27  1003.49  1081.12  1009.54  1074.52  1014.81  1073.81  1015.18  1071.93  1016.29  1068.84  1017.15  1065.35  1017.38  1065.01  1017.35  1061.47  1016.78  1060.13  1016.53  1059.13  1016.32  1055.26  1015.29  1051.2  1014.02  1049.87  1013.54  1046.57  1012.14  1044.9  1011.49  1043.41  1010.85  1043.01  1010.62  1038.23  1008.13  1035.88  1006.56  1032.73  1004.51  1031.64  1003.68  1030.78  1002.98  1029.39  1001.92  1027.84  1000.64  1026.08  999.116  1022.93  996.188  1020.83  993.943  1019.32  992.422  1017.95  990.961  1016.59  989.296  1015.07  987.532  1013.38  985.466  1009.19  979.714  1006.86  976.358  1006.56  975.879  1006.07  974.942  1003.13  969.567  1000.86  964.18  1000.23  962.73  1000.04  962.155  998.272  956.059  997.894  954.643  997.338  951.76  996.536  947.419  995.861  941.901  995.747  939.435  995.786  939.02  995.812  937.538  995.98  936.42  996.322  934.573  997.051  932.425  997.308  931.736  998.796  929.199  998.864  929.112  999.897  928.1  1000.86  927.035  1004.52  922.458  1009.48  917.362  1010.36  916.387  1014.33  912.993  1017.04  910.973  1017.52  910.562  1020.65  908.577  1024.92  905.95  1025.19  905.822  1025.33  905.867  1025.98  905.564  1026.98  905.23  1027.81  905.013  1030.13  904.735  1030.61  904.729  1032.87  904.865  1033.32  904.924  1036.09  905.647  1037.59  906.158  1038.52  906.53  1040.23  907.344  1042.78  908.733  1043.07  908.911  1045.36  910.483  1049.07  913.247  1049.68  913.749  " style="fill: none; stroke: red; stroke-width: 0.200000; fill-type: evenodd"  fill-opacity="1.000000" />
   <path d="M 1035.84  906.619  1037.24  907.095  1038.12  907.447  1039.78  908.236  1042.28  909.599  1042.53  909.75  1044.78  911.297  1048.46  914.035  1049.87  915.196  1052.22  917.227  1055.68  920.477  1056.46  921.256  1061.2  926.137  1066.44  931.864  1071.5  937.689  1076.46  943.69  1081.33  949.937  1085.04  955.123  1086.02  956.553  1088.16  959.918  1089.7  962.406  1090.27  963.425  1092.53  967.817  1094.25  971.633  1094.63  972.58  1095.28  974.592  1095.74  976.403  " style="fill: none; stroke: black; stroke-width: 0.200000; fill-type: evenodd"  fill-opacity="1.000000" />
   <path d="M 1095.74  976.403  1096.03  977.497  1096.55  980.301  1096.62  980.956  1096.74  981.486  1096.88  982.997  1096.87  984.165  1096.81  985.307  1096.47  987.398  1095.92  989.289  1095.13  990.968  1094.01  992.816  1093.3  993.825  1091.9  996.084  1086.52  1002.82  1080.45  1008.79  1073.98  1013.96  1073.32  1014.3  1071.53  1015.36  1068.67  1016.16  1065.36  1016.37  1065.13  1016.35  1061.64  1015.79  1060.32  1015.55  1059.36  1015.35  1055.54  1014.33  1051.52  1013.07  1050.23  1012.61  1046.95  1011.22  1045.28  1010.57  1043.86  1009.95  1043.49  1009.74  1038.74  1007.27  1036.43  1005.72  1033.31  1003.69  1032.26  1002.89  1031.4  1002.19  1030.01  1001.13  1028.48  999.876  1026.74  998.372  1023.64  995.48  1021.55  993.249  1020.04  991.727  1018.7  990.302  1017.35  988.654  1015.84  986.889  1014.17  984.854  1010.01  979.134  1007.69  975.808  1007.43  975.381  1006.95  974.469  1004.03  969.132  1001.78  963.786  1001.16  962.377  1001  961.863  999.235  955.791  998.87  954.419  998.32  951.575  997.524  947.268  996.858  941.817  996.749  939.459  996.785  939.076  996.81  937.622  996.967  936.586  997.292  934.826  997.993  932.76  998.214  932.167  999.62  929.772  1000.62  928.794  1001.62  927.684  1005.27  923.12  1010.21  918.046  1011.06  917.105  1014.96  913.775  1017.67  911.754  1018.12  911.368  1021.18  909.424  1025.28  906.905  1025.39  906.941  1026.35  906.495  1027.27  906.189  1028  905.997  1030.19  905.734  1030.59  905.729  1032.78  905.862  1033.13  905.908  1035.81  906.605  1035.84  906.619  " style="fill: none; stroke: red; stroke-width: 0.200000; fill-type: evenodd"  fill-opacity="1.000000" />
   <path d="M 999.333  1109.96  998.601  1110.7  997.601  1110.96  997.207  1110.86  998.903  1109.67  999.534  1109.21  999.333  1109.96  " style="fill: none; stroke: purple; stroke-width: 0.500000; fill-type: evenodd"  fill-opacity="1.000000" />
   <path d="M 1038.71  1067.04  1039.53  1067.85  1039.82  1068.96  1039.53  1070.08  1038.71  1070.89  1037.6  1071.19  1036.49  1070.89  1035.68  1070.08  1035.38  1068.96  1035.68  1067.85  1036.49  1067.04  1037.6  1066.74  1038.71  1067.04  " style="fill: none; stroke: purple; stroke-width: 0.500000; fill-type: evenodd"  fill-opacity="1.000000" />
   <path d="M 1058.71  1047.04  1059.53  1047.85  1059.82  1048.96  1059.53  1050.08  1058.71  1050.89  1057.6  1051.19  1056.49  1050.89  1055.68  1050.08  1055.38  1048.96  1055.68  1047.85  1056.49  1047.04  1057.6  1046.74  1058.71  1047.04  " style="fill: none; stroke: purple; stroke-width: 0.500000; fill-type: evenodd"  fill-opacity="1.000000" />
   <path d="M 1038.6  1047.23  1039.33  1047.96  1039.6  1048.96  1039.33  1049.96  1038.6  1050.7  1037.6  1050.96  1036.6  1050.7  1035.87  1049.96  1035.6  1048.96  1035.87  1047.96  1036.6  1047.23  1037.6  1046.96  1038.6  1047.23  " style="fill: none; stroke: purple; stroke-width: 0.500000; fill-type: evenodd"  fill-opacity="1.000000" />
   <path d="M 1018.6  1047.23  1019.33  1047.96  1019.6  1048.96  1019.33  1049.96  1019.06  1050.24  1018.03  1047.64  1017.67  1046.98  1018.6  1047.23  " style="fill: none; stroke: purple; stroke-width: 0.500000; fill-type: evenodd"  fill-opacity="1.000000" />
   <path d="M 1098.6  1027.23  1099.33  1027.96  1099.6  1028.96  1099.33  1029.96  1098.6  1030.7  1097.6  1030.96  1096.6  1030.7  1095.87  1029.96  1095.6  1028.96  1095.87  1027.96  1096.6  1027.23  1097.6  1026.96  1098.6  1027.23  " style="fill: none; stroke: purple; stroke-width: 0.500000; fill-type: evenodd"  fill-opacity="1.000000" />
   <path d="M 938.624  987.194  939.372  987.942  939.646  988.965  939.531  989.393  938.566  989.237  935.586  988.853  935.83  987.942  936.578  987.194  937.601  986.92  938.624  987.194  " style="fill: none; stroke: purple; stroke-width: 0.500000; fill-type: evenodd"  fill-opacity="1.000000" />
   <path d="M 958.749  965.432  960.086  966.205  960.994  967.454  961.315  968.965  960.994  970.476  960.086  971.725  958.749  972.497  957.213  972.659  955.744  972.181  954.596  971.148  953.968  969.737  953.968  968.193  954.596  966.782  955.744  965.748  957.213  965.271  958.749  965.432  " style="fill: none; stroke: purple; stroke-width: 0.500000; fill-type: evenodd"  fill-opacity="1.000000" />
</svg>
