<?xml version="1.0" encoding="UTF-8" standalone="yes"?>
<!DOCTYPE svg PUBLIC "-//W3C//DTD SVG 1.0//EN" "http://www.w3.org/TR/2001/REC-SVG-20010904/DTD/svg10.dtd">
<svg height="2000" width="2000" xmlns="http://www.w3.org/2000/svg" xmlns:svg="http://www.w3.org/2000/svg" xmlns:xlink="http://www.w3.org/1999/xlink">
   <marker id="endArrow" markerHeight="8" markerUnits="strokeWidth" markerWidth="10" orient="auto" refX="1" refY="5" viewBox="0 0 1000 1000">
      <polyline fill="darkblue" points="0,0 10,5 0,10 1,5" />
   </marker>
   <circle cx="1000" cy="1000" r="1" style="stroke:black; fill: red" />
   <circle cx="1000" cy="1000" r="800" style="stroke:black; fill: none" />
   <line x1="1086.615479" y1="1033.865967" x2="1060.443237" y2="1033.865967" style="stroke: green; stroke-width: 0.200000"/>
   <line x1="1086.615479" y1="1032.865967" x2="1061.443237" y2="1032.865967" style="stroke: green; stroke-width: 0.200000"/>
   <line x1="1086.615479" y1="1031.865967" x2="1068.664673" y2="1031.865967" style="stroke: green; stroke-width: 0.200000"/>
   <line x1="1067.556519" y1="1031.865967" x2="1062.443237" y2="1031.865967" style="stroke: green; stroke-width: 0.200000"/>
   <line x1="1066.556519" y1="1030.865967" x2="1063.443359" y2="1030.865967" style="stroke: green; stroke-width: 0.200000"/>
   <line x1="1086.615479" y1="1030.865967" x2="1069.664551" y2="1030.865967" style="stroke: green; stroke-width: 0.200000"/>
   <line x1="1065.556519" y1="1029.865967" x2="1064.443237" y2="1029.865967" style="stroke: green; stroke-width: 0.200000"/>
   <line x1="1086.615479" y1="1029.865967" x2="1070.664551" y2="1029.865967" style="stroke: green; stroke-width: 0.200000"/>
   <line x1="1086.615479" y1="1028.865967" x2="1071.664673" y2="1028.865967" style="stroke: green; stroke-width: 0.200000"/>
   <line x1="1086.615479" y1="1027.865967" x2="1072.664673" y2="1027.865967" style="stroke: green; stroke-width: 0.200000"/>
   <line x1="1086.615479" y1="1026.865967" x2="1073.664673" y2="1026.865967" style="stroke: green; stroke-width: 0.200000"/>
   <line x1="1086.615479" y1="1025.865967" x2="1074.664551" y2="1025.865967" style="stroke: green; stroke-width: 0.200000"/>
   <line x1="1086.615479" y1="1024.865967" x2="1075.664673" y2="1024.865967" style="stroke: green; stroke-width: 0.200000"/>
   <line x1="1086.615479" y1="1023.865967" x2="1076.664673" y2="1023.865967" style="stroke: green; stroke-width: 0.200000"/>
   <line x1="1086.615479" y1="1022.865967" x2="1077.664673" y2="1022.865967" style="stroke: green; stroke-width: 0.200000"/>
   <line x1="1086.615479" y1="1021.865967" x2="1078.664673" y2="1021.865967" style="stroke: green; stroke-width: 0.200000"/>
   <line x1="1086.615479" y1="1020.865967" x2="1079.664673" y2="1020.865967" style="stroke: green; stroke-width: 0.200000"/>
   <line x1="1086.615479" y1="1019.865967" x2="1080.664673" y2="1019.865967" style="stroke: green; stroke-width: 0.200000"/>
   <line x1="1086.615479" y1="1018.865967" x2="1081.664673" y2="1018.865967" style="stroke: green; stroke-width: 0.200000"/>
   <line x1="1086.615479" y1="1017.865967" x2="1082.664673" y2="1017.865967" style="stroke: green; stroke-width: 0.200000"/>
   <line x1="1086.615479" y1="1016.865967" x2="1083.664673" y2="1016.865967" style="stroke: green; stroke-width: 0.200000"/>
   <line x1="1086.615479" y1="1015.865967" x2="1084.664673" y2="1015.865967" style="stroke: green; stroke-width: 0.200000"/>
   <line x1="1086.615479" y1="1014.865967" x2="1085.664673" y2="1014.865967" style="stroke: green; stroke-width: 0.200000"/>
   <line x1="1109.960693" y1="1033.865967" x2="1086.715332" y2="1033.865967" style="stroke: green; stroke-width: 0.200000"/>
   <line x1="1110.899902" y1="1032.865967" x2="1086.715332" y2="1032.865967" style="stroke: green; stroke-width: 0.200000"/>
   <line x1="1111.839355" y1="1031.865967" x2="1086.715332" y2="1031.865967" style="stroke: green; stroke-width: 0.200000"/>
   <line x1="1112.750244" y1="1030.865967" x2="1086.715332" y2="1030.865967" style="stroke: green; stroke-width: 0.200000"/>
   <line x1="1113.588623" y1="1029.865967" x2="1086.715332" y2="1029.865967" style="stroke: green; stroke-width: 0.200000"/>
   <line x1="1114.427124" y1="1028.865967" x2="1086.715332" y2="1028.865967" style="stroke: green; stroke-width: 0.200000"/>
   <line x1="1115.265381" y1="1027.865967" x2="1086.715332" y2="1027.865967" style="stroke: green; stroke-width: 0.200000"/>
   <line x1="1116.103760" y1="1026.865967" x2="1086.715332" y2="1026.865967" style="stroke: green; stroke-width: 0.200000"/>
   <line x1="1116.942261" y1="1025.865967" x2="1086.715332" y2="1025.865967" style="stroke: green; stroke-width: 0.200000"/>
   <line x1="1117.684082" y1="1024.865967" x2="1086.715332" y2="1024.865967" style="stroke: green; stroke-width: 0.200000"/>
   <line x1="1118.334961" y1="1023.865967" x2="1086.715332" y2="1023.865967" style="stroke: green; stroke-width: 0.200000"/>
   <line x1="1118.921387" y1="1022.865967" x2="1086.715332" y2="1022.865967" style="stroke: green; stroke-width: 0.200000"/>
   <line x1="1119.415039" y1="1021.865967" x2="1086.715332" y2="1021.865967" style="stroke: green; stroke-width: 0.200000"/>
   <line x1="1119.880859" y1="1020.865967" x2="1086.715332" y2="1020.865967" style="stroke: green; stroke-width: 0.200000"/>
   <line x1="1120.254150" y1="1019.865967" x2="1086.715332" y2="1019.865967" style="stroke: green; stroke-width: 0.200000"/>
   <line x1="1120.605713" y1="1018.865967" x2="1086.715332" y2="1018.865967" style="stroke: green; stroke-width: 0.200000"/>
   <line x1="1120.887573" y1="1017.865967" x2="1086.715332" y2="1017.865967" style="stroke: green; stroke-width: 0.200000"/>
   <line x1="1121.114014" y1="1016.865967" x2="1086.715332" y2="1016.865967" style="stroke: green; stroke-width: 0.200000"/>
   <line x1="1121.322754" y1="1015.865967" x2="1086.715332" y2="1015.865967" style="stroke: green; stroke-width: 0.200000"/>
   <line x1="1121.490356" y1="1014.865967" x2="1086.715332" y2="1014.865967" style="stroke: green; stroke-width: 0.200000"/>
   <line x1="1121.575684" y1="1013.865967" x2="1086.715332" y2="1013.865967" style="stroke: green; stroke-width: 0.200000"/>
   <line x1="1121.642334" y1="1012.865967" x2="1087.664673" y2="1012.865967" style="stroke: green; stroke-width: 0.200000"/>
   <line x1="1121.650879" y1="1011.865967" x2="1088.664673" y2="1011.865967" style="stroke: green; stroke-width: 0.200000"/>
   <line x1="1121.652222" y1="1010.865967" x2="1089.664673" y2="1010.865967" style="stroke: green; stroke-width: 0.200000"/>
   <line x1="1121.586060" y1="1009.865967" x2="1090.664673" y2="1009.865967" style="stroke: green; stroke-width: 0.200000"/>
   <line x1="1121.519653" y1="1008.865967" x2="1091.664673" y2="1008.865967" style="stroke: green; stroke-width: 0.200000"/>
   <line x1="1121.385254" y1="1007.865967" x2="1092.664673" y2="1007.865967" style="stroke: green; stroke-width: 0.200000"/>
   <line x1="1121.244995" y1="1006.865967" x2="1093.664673" y2="1006.865967" style="stroke: green; stroke-width: 0.200000"/>
   <line x1="1121.050049" y1="1005.865967" x2="1094.664673" y2="1005.865967" style="stroke: green; stroke-width: 0.200000"/>
   <line x1="1120.835449" y1="1004.865967" x2="1095.664673" y2="1004.865967" style="stroke: green; stroke-width: 0.200000"/>
   <line x1="1120.578735" y1="1003.865967" x2="1096.664673" y2="1003.865967" style="stroke: green; stroke-width: 0.200000"/>
   <line x1="1120.288208" y1="1002.865967" x2="1097.664673" y2="1002.865967" style="stroke: green; stroke-width: 0.200000"/>
   <line x1="1119.966431" y1="1001.865967" x2="1098.664673" y2="1001.865967" style="stroke: green; stroke-width: 0.200000"/>
   <line x1="1119.597046" y1="1000.865967" x2="1099.664673" y2="1000.865967" style="stroke: green; stroke-width: 0.200000"/>
   <line x1="1119.193970" y1="999.865967" x2="1100.664673" y2="999.865967" style="stroke: green; stroke-width: 0.200000"/>
   <line x1="1118.711914" y1="998.865967" x2="1101.664795" y2="998.865967" style="stroke: green; stroke-width: 0.200000"/>
   <line x1="1118.214844" y1="997.865967" x2="1102.664673" y2="997.865967" style="stroke: green; stroke-width: 0.200000"/>
   <line x1="1117.641968" y1="996.865967" x2="1103.664673" y2="996.865967" style="stroke: green; stroke-width: 0.200000"/>
   <line x1="1117.062622" y1="995.865967" x2="1104.664673" y2="995.865967" style="stroke: green; stroke-width: 0.200000"/>
   <line x1="1116.418701" y1="994.865967" x2="1105.664673" y2="994.865967" style="stroke: green; stroke-width: 0.200000"/>
   <line x1="1115.752319" y1="993.865967" x2="1106.664795" y2="993.865967" style="stroke: green; stroke-width: 0.200000"/>
   <line x1="1115.021606" y1="992.865967" x2="1107.664673" y2="992.865967" style="stroke: green; stroke-width: 0.200000"/>
   <line x1="1114.290771" y1="991.865967" x2="1108.664673" y2="991.865967" style="stroke: green; stroke-width: 0.200000"/>
   <line x1="1113.559937" y1="990.865967" x2="1109.664795" y2="990.865967" style="stroke: green; stroke-width: 0.200000"/>
   <line x1="1112.823975" y1="989.865967" x2="1109.522949" y2="989.865967" style="stroke: green; stroke-width: 0.200000"/>
   <line x1="1112.083374" y1="988.865967" x2="1108.917969" y2="988.865967" style="stroke: green; stroke-width: 0.200000"/>
   <line x1="1111.342651" y1="987.865967" x2="1108.311279" y2="987.865967" style="stroke: green; stroke-width: 0.200000"/>
   <line x1="1110.602051" y1="986.865967" x2="1107.652222" y2="986.865967" style="stroke: green; stroke-width: 0.200000"/>
   <line x1="1109.850098" y1="985.865967" x2="1107.877686" y2="985.865967" style="stroke: green; stroke-width: 0.200000"/>
   <line x1="1109.092163" y1="984.865967" x2="1108.877686" y2="984.865967" style="stroke: green; stroke-width: 0.200000"/>
   <line x1="1036.515381" y1="1083.865967" x2="1016.664673" y2="1083.865967" style="stroke: green; stroke-width: 0.200000"/>
   <line x1="1036.515381" y1="1082.865967" x2="1017.664734" y2="1082.865967" style="stroke: green; stroke-width: 0.200000"/>
   <line x1="1036.515381" y1="1081.865967" x2="1018.664673" y2="1081.865967" style="stroke: green; stroke-width: 0.200000"/>
   <line x1="1036.515381" y1="1080.865967" x2="1019.227295" y2="1080.865967" style="stroke: green; stroke-width: 0.200000"/>
   <line x1="1036.515381" y1="1079.865967" x2="1018.227295" y2="1079.865967" style="stroke: green; stroke-width: 0.200000"/>
   <line x1="1036.515381" y1="1078.865967" x2="1017.227295" y2="1078.865967" style="stroke: green; stroke-width: 0.200000"/>
   <line x1="1036.515381" y1="1077.865967" x2="1016.443237" y2="1077.865967" style="stroke: green; stroke-width: 0.200000"/>
   <line x1="1036.515381" y1="1076.865967" x2="1017.443237" y2="1076.865967" style="stroke: green; stroke-width: 0.200000"/>
   <line x1="1036.515381" y1="1075.865967" x2="1018.443237" y2="1075.865967" style="stroke: green; stroke-width: 0.200000"/>
   <line x1="1036.515381" y1="1074.865967" x2="1019.443298" y2="1074.865967" style="stroke: green; stroke-width: 0.200000"/>
   <line x1="1036.515381" y1="1073.865967" x2="1020.443237" y2="1073.865967" style="stroke: green; stroke-width: 0.200000"/>
   <line x1="1036.515381" y1="1072.865967" x2="1021.443237" y2="1072.865967" style="stroke: green; stroke-width: 0.200000"/>
   <line x1="1036.515381" y1="1071.865967" x2="1022.443237" y2="1071.865967" style="stroke: green; stroke-width: 0.200000"/>
   <line x1="1036.515381" y1="1070.865967" x2="1023.443237" y2="1070.865967" style="stroke: green; stroke-width: 0.200000"/>
   <line x1="1036.515381" y1="1069.865967" x2="1024.443237" y2="1069.865967" style="stroke: green; stroke-width: 0.200000"/>
   <line x1="1036.515381" y1="1068.865967" x2="1025.443237" y2="1068.865967" style="stroke: green; stroke-width: 0.200000"/>
   <line x1="1036.515381" y1="1067.865967" x2="1026.443237" y2="1067.865967" style="stroke: green; stroke-width: 0.200000"/>
   <line x1="1036.515381" y1="1066.865967" x2="1027.443237" y2="1066.865967" style="stroke: green; stroke-width: 0.200000"/>
   <line x1="1036.515381" y1="1065.865967" x2="1028.443237" y2="1065.865967" style="stroke: green; stroke-width: 0.200000"/>
   <line x1="1036.515381" y1="1064.865967" x2="1029.443237" y2="1064.865967" style="stroke: green; stroke-width: 0.200000"/>
   <line x1="1036.515381" y1="1063.865967" x2="1030.443237" y2="1063.865967" style="stroke: green; stroke-width: 0.200000"/>
   <line x1="1036.515381" y1="1062.865967" x2="1031.443237" y2="1062.865967" style="stroke: green; stroke-width: 0.200000"/>
   <line x1="1036.515381" y1="1061.865967" x2="1032.443237" y2="1061.865967" style="stroke: green; stroke-width: 0.200000"/>
   <line x1="1036.515381" y1="1060.865967" x2="1033.443237" y2="1060.865967" style="stroke: green; stroke-width: 0.200000"/>
   <line x1="1036.515381" y1="1059.865967" x2="1034.443237" y2="1059.865967" style="stroke: green; stroke-width: 0.200000"/>
   <line x1="1036.515381" y1="1058.865967" x2="1035.443237" y2="1058.865967" style="stroke: green; stroke-width: 0.200000"/>
   <line x1="1036.515381" y1="1057.865967" x2="1036.443237" y2="1057.865967" style="stroke: green; stroke-width: 0.200000"/>
   <line x1="1044.243408" y1="1083.865967" x2="1036.615479" y2="1083.865967" style="stroke: green; stroke-width: 0.200000"/>
   <line x1="1044.721069" y1="1082.865967" x2="1036.615479" y2="1082.865967" style="stroke: green; stroke-width: 0.200000"/>
   <line x1="1045.141479" y1="1081.865967" x2="1036.615479" y2="1081.865967" style="stroke: green; stroke-width: 0.200000"/>
   <line x1="1045.561768" y1="1080.865967" x2="1036.615479" y2="1080.865967" style="stroke: green; stroke-width: 0.200000"/>
   <line x1="1046.082153" y1="1079.865967" x2="1036.615479" y2="1079.865967" style="stroke: green; stroke-width: 0.200000"/>
   <line x1="1046.654785" y1="1078.865967" x2="1036.615479" y2="1078.865967" style="stroke: green; stroke-width: 0.200000"/>
   <line x1="1047.195312" y1="1077.865967" x2="1036.615479" y2="1077.865967" style="stroke: green; stroke-width: 0.200000"/>
   <line x1="1047.711060" y1="1076.865967" x2="1036.615479" y2="1076.865967" style="stroke: green; stroke-width: 0.200000"/>
   <line x1="1048.270020" y1="1075.865967" x2="1036.615479" y2="1075.865967" style="stroke: green; stroke-width: 0.200000"/>
   <line x1="1048.946045" y1="1074.865967" x2="1036.615479" y2="1074.865967" style="stroke: green; stroke-width: 0.200000"/>
   <line x1="1049.611938" y1="1073.865967" x2="1036.615479" y2="1073.865967" style="stroke: green; stroke-width: 0.200000"/>
   <line x1="1050.244019" y1="1072.865967" x2="1036.615479" y2="1072.865967" style="stroke: green; stroke-width: 0.200000"/>
   <line x1="1050.900269" y1="1071.865967" x2="1036.615479" y2="1071.865967" style="stroke: green; stroke-width: 0.200000"/>
   <line x1="1051.689453" y1="1070.865967" x2="1036.615479" y2="1070.865967" style="stroke: green; stroke-width: 0.200000"/>
   <line x1="1052.475708" y1="1069.865967" x2="1036.615479" y2="1069.865967" style="stroke: green; stroke-width: 0.200000"/>
   <line x1="1053.239136" y1="1068.865967" x2="1036.615479" y2="1068.865967" style="stroke: green; stroke-width: 0.200000"/>
   <line x1="1054.045166" y1="1067.865967" x2="1036.615479" y2="1067.865967" style="stroke: green; stroke-width: 0.200000"/>
   <line x1="1054.943970" y1="1066.865967" x2="1036.615479" y2="1066.865967" style="stroke: green; stroke-width: 0.200000"/>
   <line x1="1055.843018" y1="1065.865967" x2="1036.615479" y2="1065.865967" style="stroke: green; stroke-width: 0.200000"/>
   <line x1="1056.741821" y1="1064.865967" x2="1036.615479" y2="1064.865967" style="stroke: green; stroke-width: 0.200000"/>
   <line x1="1057.728149" y1="1063.865967" x2="1036.615479" y2="1063.865967" style="stroke: green; stroke-width: 0.200000"/>
   <line x1="1058.750610" y1="1062.865967" x2="1036.615479" y2="1062.865967" style="stroke: green; stroke-width: 0.200000"/>
   <line x1="1059.773071" y1="1061.865967" x2="1036.615479" y2="1061.865967" style="stroke: green; stroke-width: 0.200000"/>
   <line x1="1060.852905" y1="1060.865967" x2="1036.615479" y2="1060.865967" style="stroke: green; stroke-width: 0.200000"/>
   <line x1="1062.044922" y1="1059.865967" x2="1036.615479" y2="1059.865967" style="stroke: green; stroke-width: 0.200000"/>
   <line x1="1063.216675" y1="1058.865967" x2="1036.615479" y2="1058.865967" style="stroke: green; stroke-width: 0.200000"/>
   <line x1="1064.426758" y1="1057.865967" x2="1036.615479" y2="1057.865967" style="stroke: green; stroke-width: 0.200000"/>
   <line x1="1065.843140" y1="1056.865967" x2="1037.443237" y2="1056.865967" style="stroke: green; stroke-width: 0.200000"/>
   <line x1="1067.259644" y1="1055.865967" x2="1038.443237" y2="1055.865967" style="stroke: green; stroke-width: 0.200000"/>
   <line x1="1068.773438" y1="1054.865967" x2="1039.443237" y2="1054.865967" style="stroke: green; stroke-width: 0.200000"/>
   <line x1="1070.539673" y1="1053.865967" x2="1040.443237" y2="1053.865967" style="stroke: green; stroke-width: 0.200000"/>
   <line x1="1072.306030" y1="1052.865967" x2="1041.443237" y2="1052.865967" style="stroke: green; stroke-width: 0.200000"/>
   <line x1="1074.360840" y1="1051.865967" x2="1042.443237" y2="1051.865967" style="stroke: green; stroke-width: 0.200000"/>
   <line x1="1076.511475" y1="1050.865967" x2="1043.443359" y2="1050.865967" style="stroke: green; stroke-width: 0.200000"/>
   <line x1="1078.987549" y1="1049.865967" x2="1044.443237" y2="1049.865967" style="stroke: green; stroke-width: 0.200000"/>
   <line x1="1081.745483" y1="1048.865967" x2="1045.443237" y2="1048.865967" style="stroke: green; stroke-width: 0.200000"/>
   <line x1="1084.980957" y1="1047.865967" x2="1046.443237" y2="1047.865967" style="stroke: green; stroke-width: 0.200000"/>
   <line x1="1086.615479" y1="1046.865967" x2="1047.443237" y2="1046.865967" style="stroke: green; stroke-width: 0.200000"/>
   <line x1="1086.615479" y1="1045.865967" x2="1048.443359" y2="1045.865967" style="stroke: green; stroke-width: 0.200000"/>
   <line x1="1086.615479" y1="1044.865967" x2="1049.443237" y2="1044.865967" style="stroke: green; stroke-width: 0.200000"/>
   <line x1="1086.615479" y1="1043.865967" x2="1050.443237" y2="1043.865967" style="stroke: green; stroke-width: 0.200000"/>
   <line x1="1086.615479" y1="1042.865967" x2="1051.443237" y2="1042.865967" style="stroke: green; stroke-width: 0.200000"/>
   <line x1="1086.615479" y1="1041.865967" x2="1052.443237" y2="1041.865967" style="stroke: green; stroke-width: 0.200000"/>
   <line x1="1086.615479" y1="1040.865967" x2="1053.443359" y2="1040.865967" style="stroke: green; stroke-width: 0.200000"/>
   <line x1="1086.615479" y1="1039.865967" x2="1054.443237" y2="1039.865967" style="stroke: green; stroke-width: 0.200000"/>
   <line x1="1086.615479" y1="1038.865967" x2="1055.443237" y2="1038.865967" style="stroke: green; stroke-width: 0.200000"/>
   <line x1="1086.615479" y1="1037.865967" x2="1056.443237" y2="1037.865967" style="stroke: green; stroke-width: 0.200000"/>
   <line x1="1086.615479" y1="1036.865967" x2="1057.443237" y2="1036.865967" style="stroke: green; stroke-width: 0.200000"/>
   <line x1="1086.615479" y1="1035.865967" x2="1058.443359" y2="1035.865967" style="stroke: green; stroke-width: 0.200000"/>
   <line x1="1086.615479" y1="1034.865967" x2="1059.443237" y2="1034.865967" style="stroke: green; stroke-width: 0.200000"/>
   <line x1="1088.523682" y1="1046.865967" x2="1086.715332" y2="1046.865967" style="stroke: green; stroke-width: 0.200000"/>
   <line x1="1092.856201" y1="1045.865967" x2="1086.715332" y2="1045.865967" style="stroke: green; stroke-width: 0.200000"/>
   <line x1="1096.465820" y1="1044.865967" x2="1086.715332" y2="1044.865967" style="stroke: green; stroke-width: 0.200000"/>
   <line x1="1098.746216" y1="1043.865967" x2="1086.715332" y2="1043.865967" style="stroke: green; stroke-width: 0.200000"/>
   <line x1="1100.422852" y1="1042.865967" x2="1086.715332" y2="1042.865967" style="stroke: green; stroke-width: 0.200000"/>
   <line x1="1101.842896" y1="1041.865967" x2="1086.715332" y2="1041.865967" style="stroke: green; stroke-width: 0.200000"/>
   <line x1="1103.046875" y1="1040.865967" x2="1086.715332" y2="1040.865967" style="stroke: green; stroke-width: 0.200000"/>
   <line x1="1104.144775" y1="1039.865967" x2="1086.715332" y2="1039.865967" style="stroke: green; stroke-width: 0.200000"/>
   <line x1="1105.156372" y1="1038.865967" x2="1086.715332" y2="1038.865967" style="stroke: green; stroke-width: 0.200000"/>
   <line x1="1106.168091" y1="1037.865967" x2="1086.715332" y2="1037.865967" style="stroke: green; stroke-width: 0.200000"/>
   <line x1="1107.142822" y1="1036.865967" x2="1086.715332" y2="1036.865967" style="stroke: green; stroke-width: 0.200000"/>
   <line x1="1108.082153" y1="1035.865967" x2="1086.715332" y2="1035.865967" style="stroke: green; stroke-width: 0.200000"/>
   <line x1="1109.021362" y1="1034.865967" x2="1086.715332" y2="1034.865967" style="stroke: green; stroke-width: 0.200000"/>
   <line x1="1017.289368" y1="1113.865967" x2="1004.718384" y2="1113.865967" style="stroke: green; stroke-width: 0.200000"/>
   <line x1="1020.563599" y1="1112.865967" x2="1001.081299" y2="1112.865967" style="stroke: green; stroke-width: 0.200000"/>
   <line x1="1022.877136" y1="1111.865967" x2="998.373047" y2="1111.865967" style="stroke: green; stroke-width: 0.200000"/>
   <line x1="1024.658936" y1="1110.865967" x2="995.797119" y2="1110.865967" style="stroke: green; stroke-width: 0.200000"/>
   <line x1="1026.131714" y1="1109.865967" x2="993.245605" y2="1109.865967" style="stroke: green; stroke-width: 0.200000"/>
   <line x1="1027.345947" y1="1108.865967" x2="990.694092" y2="1108.865967" style="stroke: green; stroke-width: 0.200000"/>
   <line x1="1028.361450" y1="1107.865967" x2="988.142639" y2="1107.865967" style="stroke: green; stroke-width: 0.200000"/>
   <line x1="1029.326172" y1="1106.865967" x2="986.877686" y2="1106.865967" style="stroke: green; stroke-width: 0.200000"/>
   <line x1="993.795044" y1="1105.865967" x2="987.877747" y2="1105.865967" style="stroke: green; stroke-width: 0.200000"/>
   <line x1="1030.264648" y1="1105.865967" x2="994.664673" y2="1105.865967" style="stroke: green; stroke-width: 0.200000"/>
   <line x1="1031.203003" y1="1104.865967" x2="995.664673" y2="1104.865967" style="stroke: green; stroke-width: 0.200000"/>
   <line x1="1032.141479" y1="1103.865967" x2="996.664734" y2="1103.865967" style="stroke: green; stroke-width: 0.200000"/>
   <line x1="1033.079956" y1="1102.865967" x2="997.664734" y2="1102.865967" style="stroke: green; stroke-width: 0.200000"/>
   <line x1="1034.054810" y1="1101.865967" x2="998.664673" y2="1101.865967" style="stroke: green; stroke-width: 0.200000"/>
   <line x1="1035.040894" y1="1100.865967" x2="999.664673" y2="1100.865967" style="stroke: green; stroke-width: 0.200000"/>
   <line x1="1036.026855" y1="1099.865967" x2="1000.664673" y2="1099.865967" style="stroke: green; stroke-width: 0.200000"/>
   <line x1="1036.515381" y1="1098.865967" x2="1001.664734" y2="1098.865967" style="stroke: green; stroke-width: 0.200000"/>
   <line x1="1036.515381" y1="1097.865967" x2="1002.664734" y2="1097.865967" style="stroke: green; stroke-width: 0.200000"/>
   <line x1="1036.515381" y1="1096.865967" x2="1003.664673" y2="1096.865967" style="stroke: green; stroke-width: 0.200000"/>
   <line x1="1036.515381" y1="1095.865967" x2="1004.664673" y2="1095.865967" style="stroke: green; stroke-width: 0.200000"/>
   <line x1="1036.515381" y1="1094.865967" x2="1005.664673" y2="1094.865967" style="stroke: green; stroke-width: 0.200000"/>
   <line x1="1036.515381" y1="1093.865967" x2="1006.664734" y2="1093.865967" style="stroke: green; stroke-width: 0.200000"/>
   <line x1="1036.515381" y1="1092.865967" x2="1007.664734" y2="1092.865967" style="stroke: green; stroke-width: 0.200000"/>
   <line x1="1036.515381" y1="1091.865967" x2="1008.664673" y2="1091.865967" style="stroke: green; stroke-width: 0.200000"/>
   <line x1="1036.515381" y1="1090.865967" x2="1009.664673" y2="1090.865967" style="stroke: green; stroke-width: 0.200000"/>
   <line x1="1036.515381" y1="1089.865967" x2="1010.664673" y2="1089.865967" style="stroke: green; stroke-width: 0.200000"/>
   <line x1="1036.515381" y1="1088.865967" x2="1011.664673" y2="1088.865967" style="stroke: green; stroke-width: 0.200000"/>
   <line x1="1036.515381" y1="1087.865967" x2="1012.664734" y2="1087.865967" style="stroke: green; stroke-width: 0.200000"/>
   <line x1="1036.515381" y1="1086.865967" x2="1013.664673" y2="1086.865967" style="stroke: green; stroke-width: 0.200000"/>
   <line x1="1036.515381" y1="1085.865967" x2="1014.664673" y2="1085.865967" style="stroke: green; stroke-width: 0.200000"/>
   <line x1="1036.895142" y1="1098.865967" x2="1036.615479" y2="1098.865967" style="stroke: green; stroke-width: 0.200000"/>
   <line x1="1037.745850" y1="1097.865967" x2="1036.615479" y2="1097.865967" style="stroke: green; stroke-width: 0.200000"/>
   <line x1="1038.460449" y1="1096.865967" x2="1036.615479" y2="1096.865967" style="stroke: green; stroke-width: 0.200000"/>
   <line x1="1039.139526" y1="1095.865967" x2="1036.615479" y2="1095.865967" style="stroke: green; stroke-width: 0.200000"/>
   <line x1="1039.751465" y1="1094.865967" x2="1036.615479" y2="1094.865967" style="stroke: green; stroke-width: 0.200000"/>
   <line x1="1040.280884" y1="1093.865967" x2="1036.615479" y2="1093.865967" style="stroke: green; stroke-width: 0.200000"/>
   <line x1="1040.781860" y1="1092.865967" x2="1036.615479" y2="1092.865967" style="stroke: green; stroke-width: 0.200000"/>
   <line x1="1041.196533" y1="1091.865967" x2="1036.615479" y2="1091.865967" style="stroke: green; stroke-width: 0.200000"/>
   <line x1="1041.577881" y1="1090.865967" x2="1036.615479" y2="1090.865967" style="stroke: green; stroke-width: 0.200000"/>
   <line x1="1041.860596" y1="1089.865967" x2="1036.615479" y2="1089.865967" style="stroke: green; stroke-width: 0.200000"/>
   <line x1="1042.265381" y1="1088.865967" x2="1036.615479" y2="1088.865967" style="stroke: green; stroke-width: 0.200000"/>
   <line x1="1042.670044" y1="1087.865967" x2="1036.615479" y2="1087.865967" style="stroke: green; stroke-width: 0.200000"/>
   <line x1="1043.030762" y1="1086.865967" x2="1036.615479" y2="1086.865967" style="stroke: green; stroke-width: 0.200000"/>
   <line x1="1043.375488" y1="1085.865967" x2="1036.615479" y2="1085.865967" style="stroke: green; stroke-width: 0.200000"/>
   <line x1="963.984985" y1="1059.814941" x2="958.170105" y2="1059.814941" style="stroke: green; stroke-width: 0.200000"/>
   <line x1="965.384644" y1="1058.814941" x2="956.787964" y2="1058.814941" style="stroke: green; stroke-width: 0.200000"/>
   <line x1="966.240234" y1="1057.814941" x2="955.934143" y2="1057.814941" style="stroke: green; stroke-width: 0.200000"/>
   <line x1="966.805908" y1="1056.814941" x2="955.378662" y2="1056.814941" style="stroke: green; stroke-width: 0.200000"/>
   <line x1="967.151367" y1="1055.814941" x2="955.031982" y2="1055.814941" style="stroke: green; stroke-width: 0.200000"/>
   <line x1="967.319946" y1="1054.814941" x2="954.861389" y2="1054.814941" style="stroke: green; stroke-width: 0.200000"/>
   <line x1="967.325439" y1="1053.814941" x2="954.852661" y2="1053.814941" style="stroke: green; stroke-width: 0.200000"/>
   <line x1="967.169128" y1="1052.814941" x2="955.006775" y2="1052.814941" style="stroke: green; stroke-width: 0.200000"/>
   <line x1="966.839844" y1="1051.814941" x2="955.337891" y2="1051.814941" style="stroke: green; stroke-width: 0.200000"/>
   <line x1="966.296387" y1="1050.814941" x2="955.881409" y2="1050.814941" style="stroke: green; stroke-width: 0.200000"/>
   <line x1="965.501160" y1="1049.814941" x2="956.709961" y2="1049.814941" style="stroke: green; stroke-width: 0.200000"/>
   <line x1="964.148560" y1="1048.814941" x2="958.022705" y2="1048.814941" style="stroke: green; stroke-width: 0.200000"/>
   <line x1="888.058960" y1="1032.589722" x2="874.370178" y2="1032.589722" style="stroke: green; stroke-width: 0.200000"/>
   <line x1="889.058960" y1="1031.589722" x2="874.143677" y2="1031.589722" style="stroke: green; stroke-width: 0.200000"/>
   <line x1="890.058960" y1="1030.589722" x2="874.047241" y2="1030.589722" style="stroke: green; stroke-width: 0.200000"/>
   <line x1="891.058960" y1="1029.589722" x2="874.010620" y2="1029.589722" style="stroke: green; stroke-width: 0.200000"/>
   <line x1="892.058960" y1="1028.589722" x2="874.066162" y2="1028.589722" style="stroke: green; stroke-width: 0.200000"/>
   <line x1="893.058960" y1="1027.589722" x2="874.220581" y2="1027.589722" style="stroke: green; stroke-width: 0.200000"/>
   <line x1="894.058960" y1="1026.589722" x2="874.431885" y2="1026.589722" style="stroke: green; stroke-width: 0.200000"/>
   <line x1="895.058960" y1="1025.589722" x2="874.800293" y2="1025.589722" style="stroke: green; stroke-width: 0.200000"/>
   <line x1="896.058960" y1="1024.589722" x2="875.222534" y2="1024.589722" style="stroke: green; stroke-width: 0.200000"/>
   <line x1="897.058960" y1="1023.589722" x2="875.758118" y2="1023.589722" style="stroke: green; stroke-width: 0.200000"/>
   <line x1="898.058960" y1="1022.589722" x2="876.293823" y2="1022.589722" style="stroke: green; stroke-width: 0.200000"/>
   <line x1="899.058899" y1="1021.589722" x2="876.829346" y2="1021.589722" style="stroke: green; stroke-width: 0.200000"/>
   <line x1="900.058960" y1="1020.589722" x2="877.364990" y2="1020.589722" style="stroke: green; stroke-width: 0.200000"/>
   <line x1="901.058960" y1="1019.589783" x2="877.932068" y2="1019.589783" style="stroke: green; stroke-width: 0.200000"/>
   <line x1="902.058960" y1="1018.589722" x2="878.536682" y2="1018.589722" style="stroke: green; stroke-width: 0.200000"/>
   <line x1="903.058960" y1="1017.589722" x2="879.141296" y2="1017.589722" style="stroke: green; stroke-width: 0.200000"/>
   <line x1="904.058899" y1="1016.589722" x2="879.785034" y2="1016.589722" style="stroke: green; stroke-width: 0.200000"/>
   <line x1="905.058960" y1="1015.589722" x2="880.485779" y2="1015.589722" style="stroke: green; stroke-width: 0.200000"/>
   <line x1="906.058960" y1="1014.589783" x2="881.189880" y2="1014.589783" style="stroke: green; stroke-width: 0.200000"/>
   <line x1="907.058960" y1="1013.589722" x2="881.892822" y2="1013.589722" style="stroke: green; stroke-width: 0.200000"/>
   <line x1="908.058960" y1="1012.589722" x2="882.569214" y2="1012.589722" style="stroke: green; stroke-width: 0.200000"/>
   <line x1="909.058899" y1="1011.589722" x2="883.338501" y2="1011.589722" style="stroke: green; stroke-width: 0.200000"/>
   <line x1="910.058960" y1="1010.589722" x2="884.148010" y2="1010.589722" style="stroke: green; stroke-width: 0.200000"/>
   <line x1="911.058960" y1="1009.589783" x2="884.957581" y2="1009.589783" style="stroke: green; stroke-width: 0.200000"/>
   <line x1="912.058960" y1="1008.589722" x2="885.767212" y2="1008.589722" style="stroke: green; stroke-width: 0.200000"/>
   <line x1="913.058960" y1="1007.589722" x2="886.578979" y2="1007.589722" style="stroke: green; stroke-width: 0.200000"/>
   <line x1="914.058899" y1="1006.589722" x2="887.471313" y2="1006.589722" style="stroke: green; stroke-width: 0.200000"/>
   <line x1="915.058960" y1="1005.589722" x2="888.363647" y2="1005.589722" style="stroke: green; stroke-width: 0.200000"/>
   <line x1="916.058960" y1="1004.589783" x2="889.294189" y2="1004.589783" style="stroke: green; stroke-width: 0.200000"/>
   <line x1="917.058960" y1="1003.589722" x2="890.259888" y2="1003.589722" style="stroke: green; stroke-width: 0.200000"/>
   <line x1="918.058960" y1="1002.589722" x2="891.225525" y2="1002.589722" style="stroke: green; stroke-width: 0.200000"/>
   <line x1="919.058899" y1="1001.589722" x2="892.191223" y2="1001.589722" style="stroke: green; stroke-width: 0.200000"/>
   <line x1="920.058960" y1="1000.589722" x2="893.156860" y2="1000.589722" style="stroke: green; stroke-width: 0.200000"/>
   <line x1="921.058960" y1="999.589783" x2="894.157043" y2="999.589783" style="stroke: green; stroke-width: 0.200000"/>
   <line x1="922.058960" y1="998.589722" x2="895.199951" y2="998.589722" style="stroke: green; stroke-width: 0.200000"/>
   <line x1="923.058960" y1="997.589722" x2="896.242920" y2="997.589722" style="stroke: green; stroke-width: 0.200000"/>
   <line x1="923.988770" y1="996.589722" x2="897.285889" y2="996.589722" style="stroke: green; stroke-width: 0.200000"/>
   <line x1="923.988770" y1="995.589722" x2="898.328857" y2="995.589722" style="stroke: green; stroke-width: 0.200000"/>
   <line x1="923.988770" y1="994.589783" x2="899.371826" y2="994.589783" style="stroke: green; stroke-width: 0.200000"/>
   <line x1="923.988770" y1="993.589722" x2="900.491272" y2="993.589722" style="stroke: green; stroke-width: 0.200000"/>
   <line x1="923.988770" y1="992.589722" x2="901.723022" y2="992.589722" style="stroke: green; stroke-width: 0.200000"/>
   <line x1="923.988770" y1="991.589722" x2="903.255676" y2="991.589722" style="stroke: green; stroke-width: 0.200000"/>
   <line x1="923.988770" y1="990.589722" x2="905.107422" y2="990.589722" style="stroke: green; stroke-width: 0.200000"/>
   <line x1="923.988770" y1="989.589783" x2="907.707214" y2="989.589783" style="stroke: green; stroke-width: 0.200000"/>
   <line x1="923.988770" y1="988.589722" x2="911.663452" y2="988.589722" style="stroke: green; stroke-width: 0.200000"/>
   <line x1="923.988770" y1="987.589722" x2="915.929077" y2="987.589722" style="stroke: green; stroke-width: 0.200000"/>
   <line x1="923.988770" y1="986.589722" x2="920.231812" y2="986.589722" style="stroke: green; stroke-width: 0.200000"/>
   <line x1="925.058960" y1="995.589722" x2="924.088745" y2="995.589722" style="stroke: green; stroke-width: 0.200000"/>
   <line x1="926.058960" y1="994.589783" x2="924.088745" y2="994.589783" style="stroke: green; stroke-width: 0.200000"/>
   <line x1="927.058960" y1="993.589722" x2="924.088745" y2="993.589722" style="stroke: green; stroke-width: 0.200000"/>
   <line x1="931.623657" y1="992.589722" x2="930.951233" y2="992.589722" style="stroke: green; stroke-width: 0.200000"/>
   <line x1="928.058960" y1="992.589722" x2="924.088745" y2="992.589722" style="stroke: green; stroke-width: 0.200000"/>
   <line x1="932.623657" y1="991.589722" x2="929.951233" y2="991.589722" style="stroke: green; stroke-width: 0.200000"/>
   <line x1="929.058899" y1="991.589722" x2="924.088745" y2="991.589722" style="stroke: green; stroke-width: 0.200000"/>
   <line x1="933.623657" y1="990.589722" x2="924.088745" y2="990.589722" style="stroke: green; stroke-width: 0.200000"/>
   <line x1="934.623657" y1="989.589783" x2="924.088745" y2="989.589783" style="stroke: green; stroke-width: 0.200000"/>
   <line x1="935.623657" y1="988.589722" x2="924.088745" y2="988.589722" style="stroke: green; stroke-width: 0.200000"/>
   <line x1="936.623596" y1="987.589722" x2="924.088745" y2="987.589722" style="stroke: green; stroke-width: 0.200000"/>
   <line x1="937.565247" y1="986.589722" x2="924.088745" y2="986.589722" style="stroke: green; stroke-width: 0.200000"/>
   <line x1="936.538025" y1="985.589722" x2="924.129150" y2="985.589722" style="stroke: green; stroke-width: 0.200000"/>
   <line x1="935.482178" y1="984.589783" x2="927.569824" y2="984.589783" style="stroke: green; stroke-width: 0.200000"/>
   <line x1="934.447021" y1="983.589722" x2="930.980591" y2="983.589722" style="stroke: green; stroke-width: 0.200000"/>
   <line x1="882.623657" y1="1041.589722" x2="880.748596" y2="1041.589722" style="stroke: green; stroke-width: 0.200000"/>
   <line x1="882.644531" y1="1040.589722" x2="879.786987" y2="1040.589722" style="stroke: green; stroke-width: 0.200000"/>
   <line x1="881.644531" y1="1039.589722" x2="878.825317" y2="1039.589722" style="stroke: green; stroke-width: 0.200000"/>
   <line x1="882.058960" y1="1038.589722" x2="877.863708" y2="1038.589722" style="stroke: green; stroke-width: 0.200000"/>
   <line x1="883.058960" y1="1037.589722" x2="876.967651" y2="1037.589722" style="stroke: green; stroke-width: 0.200000"/>
   <line x1="884.058960" y1="1036.589722" x2="876.155151" y2="1036.589722" style="stroke: green; stroke-width: 0.200000"/>
   <line x1="885.058960" y1="1035.589722" x2="875.541443" y2="1035.589722" style="stroke: green; stroke-width: 0.200000"/>
   <line x1="886.058960" y1="1034.589722" x2="875.041443" y2="1034.589722" style="stroke: green; stroke-width: 0.200000"/>
   <line x1="887.058960" y1="1033.589722" x2="874.632324" y2="1033.589722" style="stroke: green; stroke-width: 0.200000"/>
   <line x1="1044.658936" y1="979.186340" x2="1038.844604" y2="979.186340" style="stroke: green; stroke-width: 0.200000"/>
   <line x1="1046.058838" y1="978.186340" x2="1037.451782" y2="978.186340" style="stroke: green; stroke-width: 0.200000"/>
   <line x1="1046.914429" y1="977.186340" x2="1036.608643" y2="977.186340" style="stroke: green; stroke-width: 0.200000"/>
   <line x1="1047.480103" y1="976.186401" x2="1036.053101" y2="976.186401" style="stroke: green; stroke-width: 0.200000"/>
   <line x1="1047.825684" y1="975.186401" x2="1035.706421" y2="975.186401" style="stroke: green; stroke-width: 0.200000"/>
   <line x1="1047.994263" y1="974.186340" x2="1035.535767" y2="974.186340" style="stroke: green; stroke-width: 0.200000"/>
   <line x1="1047.999756" y1="973.186340" x2="1035.527100" y2="973.186340" style="stroke: green; stroke-width: 0.200000"/>
   <line x1="1047.843506" y1="972.186340" x2="1035.681030" y2="972.186340" style="stroke: green; stroke-width: 0.200000"/>
   <line x1="1047.514282" y1="971.186401" x2="1036.012085" y2="971.186401" style="stroke: green; stroke-width: 0.200000"/>
   <line x1="1046.970581" y1="970.186401" x2="1036.555664" y2="970.186401" style="stroke: green; stroke-width: 0.200000"/>
   <line x1="1046.175659" y1="969.186340" x2="1037.384155" y2="969.186340" style="stroke: green; stroke-width: 0.200000"/>
   <line x1="1044.823120" y1="968.186340" x2="1038.696777" y2="968.186340" style="stroke: green; stroke-width: 0.200000"/>
   <line x1="985.892090" y1="934.756531" x2="973.510437" y2="934.756531" style="stroke: green; stroke-width: 0.200000"/>
   <line x1="986.892151" y1="933.756592" x2="973.767395" y2="933.756592" style="stroke: green; stroke-width: 0.200000"/>
   <line x1="987.892151" y1="932.756470" x2="974.041687" y2="932.756470" style="stroke: green; stroke-width: 0.200000"/>
   <line x1="988.892151" y1="931.756531" x2="974.316040" y2="931.756531" style="stroke: green; stroke-width: 0.200000"/>
   <line x1="989.892090" y1="930.756531" x2="974.590332" y2="930.756531" style="stroke: green; stroke-width: 0.200000"/>
   <line x1="990.892090" y1="929.756531" x2="974.864624" y2="929.756531" style="stroke: green; stroke-width: 0.200000"/>
   <line x1="991.892151" y1="928.756592" x2="975.138916" y2="928.756592" style="stroke: green; stroke-width: 0.200000"/>
   <line x1="992.892151" y1="927.756470" x2="975.398071" y2="927.756470" style="stroke: green; stroke-width: 0.200000"/>
   <line x1="993.892151" y1="926.756531" x2="975.611450" y2="926.756531" style="stroke: green; stroke-width: 0.200000"/>
   <line x1="994.892090" y1="925.756531" x2="975.824829" y2="925.756531" style="stroke: green; stroke-width: 0.200000"/>
   <line x1="995.892090" y1="924.756531" x2="976.038147" y2="924.756531" style="stroke: green; stroke-width: 0.200000"/>
   <line x1="996.892090" y1="923.756592" x2="976.251465" y2="923.756592" style="stroke: green; stroke-width: 0.200000"/>
   <line x1="997.892151" y1="922.756470" x2="976.464844" y2="922.756470" style="stroke: green; stroke-width: 0.200000"/>
   <line x1="998.892151" y1="921.756531" x2="976.678162" y2="921.756531" style="stroke: green; stroke-width: 0.200000"/>
   <line x1="999.892090" y1="920.756531" x2="976.903625" y2="920.756531" style="stroke: green; stroke-width: 0.200000"/>
   <line x1="1000.892090" y1="919.756531" x2="977.209106" y2="919.756531" style="stroke: green; stroke-width: 0.200000"/>
   <line x1="1001.892090" y1="918.756592" x2="977.498535" y2="918.756592" style="stroke: green; stroke-width: 0.200000"/>
   <line x1="1002.892151" y1="917.756470" x2="977.850464" y2="917.756470" style="stroke: green; stroke-width: 0.200000"/>
   <line x1="1003.892151" y1="916.756531" x2="978.302856" y2="916.756531" style="stroke: green; stroke-width: 0.200000"/>
   <line x1="1004.892090" y1="915.756531" x2="978.809143" y2="915.756531" style="stroke: green; stroke-width: 0.200000"/>
   <line x1="1005.892090" y1="914.756531" x2="979.382202" y2="914.756531" style="stroke: green; stroke-width: 0.200000"/>
   <line x1="1006.892090" y1="913.756592" x2="980.026855" y2="913.756592" style="stroke: green; stroke-width: 0.200000"/>
   <line x1="1007.892151" y1="912.756470" x2="980.783386" y2="912.756470" style="stroke: green; stroke-width: 0.200000"/>
   <line x1="1008.892151" y1="911.756531" x2="981.589050" y2="911.756531" style="stroke: green; stroke-width: 0.200000"/>
   <line x1="1009.892090" y1="910.756531" x2="982.548706" y2="910.756531" style="stroke: green; stroke-width: 0.200000"/>
   <line x1="1010.892090" y1="909.756531" x2="983.508240" y2="909.756531" style="stroke: green; stroke-width: 0.200000"/>
   <line x1="1011.892090" y1="908.756592" x2="984.467834" y2="908.756592" style="stroke: green; stroke-width: 0.200000"/>
   <line x1="1012.892151" y1="907.756470" x2="985.427368" y2="907.756470" style="stroke: green; stroke-width: 0.200000"/>
   <line x1="1013.892151" y1="906.756531" x2="986.386963" y2="906.756531" style="stroke: green; stroke-width: 0.200000"/>
   <line x1="1014.892090" y1="905.756531" x2="987.346558" y2="905.756531" style="stroke: green; stroke-width: 0.200000"/>
   <line x1="1015.892090" y1="904.756531" x2="988.306152" y2="904.756531" style="stroke: green; stroke-width: 0.200000"/>
   <line x1="1016.892090" y1="903.756592" x2="989.265747" y2="903.756592" style="stroke: green; stroke-width: 0.200000"/>
   <line x1="1017.892090" y1="902.756470" x2="990.256226" y2="902.756470" style="stroke: green; stroke-width: 0.200000"/>
   <line x1="1018.892151" y1="901.756531" x2="991.301514" y2="901.756531" style="stroke: green; stroke-width: 0.200000"/>
   <line x1="1019.617920" y1="900.756531" x2="992.405945" y2="900.756531" style="stroke: green; stroke-width: 0.200000"/>
   <line x1="1019.617920" y1="899.756531" x2="993.510254" y2="899.756531" style="stroke: green; stroke-width: 0.200000"/>
   <line x1="1019.617920" y1="898.756592" x2="994.662964" y2="898.756592" style="stroke: green; stroke-width: 0.200000"/>
   <line x1="1019.617920" y1="897.756470" x2="995.844116" y2="897.756470" style="stroke: green; stroke-width: 0.200000"/>
   <line x1="1019.617920" y1="896.756531" x2="996.954712" y2="896.756531" style="stroke: green; stroke-width: 0.200000"/>
   <line x1="1019.617920" y1="895.756531" x2="998.065186" y2="895.756531" style="stroke: green; stroke-width: 0.200000"/>
   <line x1="1019.617920" y1="894.756531" x2="999.255310" y2="894.756531" style="stroke: green; stroke-width: 0.200000"/>
   <line x1="1019.617920" y1="893.756592" x2="1000.552490" y2="893.756592" style="stroke: green; stroke-width: 0.200000"/>
   <line x1="1019.617920" y1="892.756470" x2="1001.849670" y2="892.756470" style="stroke: green; stroke-width: 0.200000"/>
   <line x1="1019.617920" y1="891.756531" x2="1003.146851" y2="891.756531" style="stroke: green; stroke-width: 0.200000"/>
   <line x1="1019.617920" y1="890.756531" x2="1004.444031" y2="890.756531" style="stroke: green; stroke-width: 0.200000"/>
   <line x1="1019.617920" y1="889.756531" x2="1005.840698" y2="889.756531" style="stroke: green; stroke-width: 0.200000"/>
   <line x1="1019.617920" y1="888.756592" x2="1007.243286" y2="888.756592" style="stroke: green; stroke-width: 0.200000"/>
   <line x1="1019.617920" y1="887.756470" x2="1008.787170" y2="887.756470" style="stroke: green; stroke-width: 0.200000"/>
   <line x1="1019.617920" y1="886.756531" x2="1010.899719" y2="886.756531" style="stroke: green; stroke-width: 0.200000"/>
   <line x1="1017.245728" y1="885.756531" x2="1015.423584" y2="885.756531" style="stroke: green; stroke-width: 0.200000"/>
   <line x1="1019.892090" y1="900.756531" x2="1019.717957" y2="900.756531" style="stroke: green; stroke-width: 0.200000"/>
   <line x1="1020.892090" y1="899.756531" x2="1019.717957" y2="899.756531" style="stroke: green; stroke-width: 0.200000"/>
   <line x1="1021.892090" y1="898.756592" x2="1019.717957" y2="898.756592" style="stroke: green; stroke-width: 0.200000"/>
   <line x1="1022.892090" y1="897.756470" x2="1019.717957" y2="897.756470" style="stroke: green; stroke-width: 0.200000"/>
   <line x1="1023.892151" y1="896.756531" x2="1019.717957" y2="896.756531" style="stroke: green; stroke-width: 0.200000"/>
   <line x1="1024.892090" y1="895.756531" x2="1019.717957" y2="895.756531" style="stroke: green; stroke-width: 0.200000"/>
   <line x1="1029.456909" y1="894.756531" x2="1028.571655" y2="894.756531" style="stroke: green; stroke-width: 0.200000"/>
   <line x1="1025.892090" y1="894.756531" x2="1019.717957" y2="894.756531" style="stroke: green; stroke-width: 0.200000"/>
   <line x1="1030.456787" y1="893.756592" x2="1027.572266" y2="893.756592" style="stroke: green; stroke-width: 0.200000"/>
   <line x1="1026.892090" y1="893.756592" x2="1019.717957" y2="893.756592" style="stroke: green; stroke-width: 0.200000"/>
   <line x1="1029.724854" y1="892.756470" x2="1019.717957" y2="892.756470" style="stroke: green; stroke-width: 0.200000"/>
   <line x1="1028.774902" y1="891.756531" x2="1019.717957" y2="891.756531" style="stroke: green; stroke-width: 0.200000"/>
   <line x1="1027.825195" y1="890.756531" x2="1019.717957" y2="890.756531" style="stroke: green; stroke-width: 0.200000"/>
   <line x1="1026.777710" y1="889.756531" x2="1019.717957" y2="889.756531" style="stroke: green; stroke-width: 0.200000"/>
   <line x1="1025.582764" y1="888.756592" x2="1019.717957" y2="888.756592" style="stroke: green; stroke-width: 0.200000"/>
   <line x1="1024.056152" y1="887.756470" x2="1019.717957" y2="887.756470" style="stroke: green; stroke-width: 0.200000"/>
   <line x1="1021.935913" y1="886.756531" x2="1019.717957" y2="886.756531" style="stroke: green; stroke-width: 0.200000"/>
   <line x1="973.456787" y1="950.756531" x2="972.988037" y2="950.756531" style="stroke: green; stroke-width: 0.200000"/>
   <line x1="974.456848" y1="949.756531" x2="972.021423" y2="949.756531" style="stroke: green; stroke-width: 0.200000"/>
   <line x1="975.456848" y1="948.756592" x2="971.054810" y2="948.756592" style="stroke: green; stroke-width: 0.200000"/>
   <line x1="976.456848" y1="947.756470" x2="970.121155" y2="947.756470" style="stroke: green; stroke-width: 0.200000"/>
   <line x1="977.456909" y1="946.756531" x2="969.635132" y2="946.756531" style="stroke: green; stroke-width: 0.200000"/>
   <line x1="978.456909" y1="945.756531" x2="969.776001" y2="945.756531" style="stroke: green; stroke-width: 0.200000"/>
   <line x1="979.456848" y1="944.756531" x2="970.147827" y2="944.756531" style="stroke: green; stroke-width: 0.200000"/>
   <line x1="979.446960" y1="943.756592" x2="970.519714" y2="943.756592" style="stroke: green; stroke-width: 0.200000"/>
   <line x1="978.446899" y1="942.756470" x2="970.891602" y2="942.756470" style="stroke: green; stroke-width: 0.200000"/>
   <line x1="978.892151" y1="941.756531" x2="971.263428" y2="941.756531" style="stroke: green; stroke-width: 0.200000"/>
   <line x1="979.892090" y1="940.756531" x2="971.564819" y2="940.756531" style="stroke: green; stroke-width: 0.200000"/>
   <line x1="980.892090" y1="939.756531" x2="971.887573" y2="939.756531" style="stroke: green; stroke-width: 0.200000"/>
   <line x1="981.892151" y1="938.756592" x2="972.214355" y2="938.756592" style="stroke: green; stroke-width: 0.200000"/>
   <line x1="982.892151" y1="937.756470" x2="972.541138" y2="937.756470" style="stroke: green; stroke-width: 0.200000"/>
   <line x1="983.892151" y1="936.756531" x2="972.867920" y2="936.756531" style="stroke: green; stroke-width: 0.200000"/>
   <path d="M 1024.84  1112.51  1023.38  1113.3  1021.64  1114.07  1019.82  1114.73  1017.93  1115.26  1016  1115.67  1014.04  1115.95  1011.93  1116.06  1009.8  1116.03  1007.69  1115.87  1005.6  1115.58  1003.56  1115.16  1001.57  1114.62  999.521  1113.91  996.847  1112.89  983.834  1107.79  988.175  1103.45  994.026  1104.38  1017.32  1081.08  1014.21  1077.97  1065  1027.19  1068.11  1030.3  1108.06  990.348  1107.06  988.699  1105.42  986.203  1109.15  982.476  1109.87  983.404  1111.54  985.613  1114.42  989.501  1117.18  993.275  1118.4  995.177  1119.64  997.332  1120.72  999.58  1121.54  1001.79  1122.2  1004.06  1122.69  1006.34  1123.01  1008.63  1123.16  1010.92  1123.14  1013.18  1122.95  1015.4  1122.91  1015.64  1122.41  1017.98  1121.97  1019.57  1121.23  1021.53  1120.69  1022.69  1120.46  1023.16  " style="fill: none; stroke: darkmagenta; stroke-width: 0.200000; fill-type: evenodd"  fill-opacity="1.000000" />
   <path d="M 1120.46  1023.16  1120.35  1023.39  1119.32  1025.15  1119.11  1025.43  1118.8  1025.9  1118.14  1026.77  1113.64  1032.14  1107.74  1038.42  1105.07  1041.06  1104.33  1041.75  1102.12  1043.59  1099.59  1045.14  1096.84  1046.34  1096.75  1046.36  " style="fill: none; stroke: red; stroke-width: 0.200000; fill-type: evenodd"  fill-opacity="1.000000" />
   <path d="M 1096.75  1046.36  1093.91  1047.18  1092  1047.58  1088.49  1048.42  1083.12  1049.96  1083.11  1049.97  " style="fill: none; stroke: darkmagenta; stroke-width: 0.200000; fill-type: evenodd"  fill-opacity="1.000000" />
   <path d="M 1083.11  1049.97  1078.08  1051.79  1073.43  1053.95  1069.08  1056.41  1065.13  1059.21  1062.54  1061.41  1061.48  1062.29  1058.09  1065.61  1054.92  1069.14  1053.57  1070.9  1052  1072.89  1050.72  1074.92  1049.38  1076.9  1048.22  1079.14  1047.05  1081.19  1046.06  1083.55  1045.01  1085.74  1044.18  1088.13  1043.23  1090.47  1043.12  1091.02  1042.56  1092.49  1042.06  1093.69  1041.22  1095.31  1040.73  1096.2  1039.12  1098.57  1037.26  1100.75  1034.38  1103.67  1030.13  1108.2  1029.12  1109.23  1028.2  1110.13  1027.77  1110.5  1026.58  1111.41  1025.03  1112.41  1024.84  1112.51  " style="fill: none; stroke: red; stroke-width: 0.200000; fill-type: evenodd"  fill-opacity="1.000000" />
   <path d="M 1110.74  986.212  1113.61  990.094  1116.35  993.841  1117.55  995.697  1118.75  997.798  1119.8  999.971  1120.59  1002.11  1121.22  1004.3  1121.7  1006.52  1122.01  1008.74  1122.16  1010.95  1122.14  1013.13  1121.96  1015.27  1121.93  1015.45  1121.44  1017.74  1121.01  1019.26  1120.31  1021.14  1119.78  1022.26  1119.47  1022.92  1118.49  1024.6  1118.29  1024.85  1117.98  1025.32  1117.36  1026.15  1112.89  1031.48  1107.02  1037.72  1104.38  1040.33  1103.67  1040.99  1101.53  1042.77  1099.12  1044.25  1096.5  1045.4  1093.67  1046.21  1091.78  1046.6  1088.24  1047.45  1082.81  1049.01  1077.7  1050.86  1072.98  1053.06  1068.55  1055.57  1064.51  1058.42  1061.9  1060.65  1060.81  1061.55  1057.37  1064.92  1054.15  1068.5  1052.78  1070.28  1051.19  1072.31  1049.88  1074.37  1048.52  1076.39  1047.34  1078.67  1046.15  1080.74  1045.15  1083.14  1044.08  1085.35  1043.24  1087.78  1042.27  1090.18  1042.16  1090.75  1041.63  1092.12  1041.16  1093.26  1040.34  1094.84  1039.87  1095.67  1038.32  1097.96  1036.52  1100.07  1033.66  1102.97  1029.41  1107.5  1028.42  1108.52  1027.52  1109.39  1027.14  1109.72  1026  1110.59  1024.53  1111.55  1022.94  1112.4  1021.27  1113.14  1019.51  1113.78  1017.69  1114.29  1015.83  1114.68  1013.94  1114.95  1011.91  1115.06  1009.85  1115.03  1007.8  1114.87  1005.77  1114.59  1003.79  1114.19  1001.86  1113.67  999.865  1112.97  997.208  1111.96  985.622  1107.41  988.521  1104.52  994.372  1105.45  1018.74  1081.08  1015.63  1077.97  1065  1028.6  1068.11  1031.71  1109.32  990.501  1107.91  988.165  1106.7  986.334  1109.05  983.985  1110.74  986.212  " style="fill: none; stroke: black; stroke-width: 0.200000; fill-type: evenodd"  fill-opacity="1.000000" />
   <path d="M 961.813  1046.55  962.129  1046.57  963.398  1046.85  964.604  1047.33  965.706  1048.01  966.59  1048.77  967.312  1049.61  967.982  1050.68  968.033  1050.77  968.484  1051.88  968.52  1051.97  968.8  1053.25  968.862  1054.55  968.707  1055.84  968.338  1057.09  967.82  1058.16  967.772  1058.25  967.008  1059.32  966.084  1060.23  965.02  1060.98  963.844  1061.54  962.704  1061.88  962.605  1061.9  961.301  1062.04  960.001  1061.97  958.733  1061.68  957.53  1061.18  956.429  1060.49  955.548  1059.72  954.851  1058.91  954.165  1057.81  953.673  1056.61  953.388  1055.34  953.318  1054.04  953.417  1053.17  953.465  1052.75  953.826  1051.5  954.391  1050.33  955.142  1049.26  956.06  1048.34  957.119  1047.59  958.289  1047.02  959.537  1046.65  960.828  1046.5  961.813  1046.55  " style="fill: none; stroke: darkmagenta; stroke-width: 0.200000; fill-type: evenodd"  fill-opacity="1.000000" />
   <path d="M 961.764  1047.55  961.997  1047.56  963.1  1047.8  964.151  1048.23  965.114  1048.82  965.881  1049.48  966.505  1050.21  967.133  1051.21  967.558  1052.25  967.805  1053.38  967.859  1054.51  967.724  1055.64  967.403  1056.73  966.922  1057.72  966.245  1058.67  965.44  1059.46  964.513  1060.12  963.487  1060.61  962.438  1060.91  961.274  1061.04  960.142  1060.98  959.037  1060.72  957.989  1060.29  957.028  1059.69  956.26  1059.02  955.659  1058.32  955.059  1057.35  954.63  1056.31  954.382  1055.2  954.321  1054.07  954.41  1053.28  954.449  1052.95  954.764  1051.86  955.255  1050.83  955.91  1049.91  956.709  1049.11  957.632  1048.45  958.65  1047.95  959.737  1047.64  960.862  1047.5  961.764  1047.55  " style="fill: none; stroke: black; stroke-width: 0.200000; fill-type: evenodd"  fill-opacity="1.000000" />
   <path d="M 933.328  981.551  933.468  981.555  933.872  981.626  934.356  981.784  934.537  981.864  934.923  982.081  935.484  982.49  936.644  983.628  938.027  984.932  939.717  986.617  931.287  995.047  929.505  993.265  883.473  1039.3  885.255  1041.08  881.647  1044.69  876.252  1039.08  875  1037.56  874.471  1036.75  873.93  1035.78  873.436  1034.68  873.165  1033.95  872.677  1032.01  872.485  1030.01  872.595  1028.03  872.856  1026.77  873.006  1026.09  873.712  1024.23  876.352  1019.3  878.15  1016.33  878.633  1015.62  880.629  1012.78  881.568  1011.39  885.412  1006.64  887.692  1004.09  892.633  998.973  898.999  992.87  901.22  991.067  903.73  989.552  906.417  988.388  909.174  987.633  919.308  985.257  921.607  984.752  924.988  983.784  932.211  981.666  932.614  981.576  933.034  981.536  933.328  981.551  " style="fill: none; stroke: darkmagenta; stroke-width: 0.200000; fill-type: evenodd"  fill-opacity="1.000000" />
   <path d="M 933.29  982.55  933.367  982.552  933.629  982.599  933.998  982.718  934.087  982.758  934.381  982.924  934.836  983.255  935.95  984.349  937.331  985.65  938.302  986.618  931.287  993.633  929.505  991.851  882.059  1039.3  883.841  1041.08  881.661  1043.26  876.999  1038.41  875.807  1036.97  875.328  1036.24  874.825  1035.33  874.362  1034.3  874.121  1033.65  873.665  1031.84  873.488  1029.99  873.589  1028.16  873.834  1026.98  873.967  1026.37  874.624  1024.65  877.222  1019.8  878.993  1016.87  879.456  1016.18  881.452  1013.35  882.372  1011.99  886.174  1007.29  888.425  1004.77  893.339  999.682  899.661  993.62  901.796  991.887  904.189  990.443  906.749  989.334  909.42  988.602  919.53  986.232  921.852  985.722  925.267  984.744  932.461  982.635  932.771  982.566  933.057  982.538  933.29  982.55  " style="fill: none; stroke: black; stroke-width: 0.200000; fill-type: evenodd"  fill-opacity="1.000000" />
   <path d="M 1042.48  965.922  1042.8  965.936  1044.07  966.217  1045.28  966.705  1046.38  967.384  1047.26  968.145  1047.98  968.98  1048.65  970.049  1048.71  970.138  1049.16  971.246  1049.19  971.344  1049.47  972.621  1049.54  973.921  1049.38  975.213  1049.01  976.463  1048.49  977.533  1048.45  977.624  1047.68  978.689  1046.76  979.605  1045.69  980.354  1044.52  980.916  1043.38  981.247  1043.28  981.271  1041.97  981.416  1040.67  981.342  1039.41  981.052  1038.2  980.555  1037.1  979.864  1036.29  979.164  1035.53  978.285  1034.84  977.182  1034.35  975.979  1034.06  974.71  1033.99  973.411  1034.09  972.537  1034.14  972.119  1034.5  970.869  1035.06  969.697  1035.82  968.635  1036.73  967.714  1037.79  966.958  1038.96  966.39  1040.21  966.024  1041.5  965.871  1042.48  965.922  " style="fill: none; stroke: darkmagenta; stroke-width: 0.200000; fill-type: evenodd"  fill-opacity="1.000000" />
   <path d="M 1042.44  966.921  1042.67  966.931  1043.77  967.175  1044.82  967.6  1045.79  968.193  1046.56  968.854  1047.18  969.576  1047.81  970.579  1048.23  971.626  1048.48  972.753  1048.53  973.885  1048.4  975.011  1048.08  976.101  1047.6  977.093  1046.92  978.038  1046.11  978.836  1045.19  979.488  1044.16  979.979  1043.11  980.284  1041.95  980.413  1040.82  980.348  1039.71  980.096  1038.66  979.663  1037.7  979.057  1037  978.454  1036.33  977.689  1035.73  976.726  1035.3  975.677  1035.06  974.572  1035  973.44  1035.08  972.651  1035.12  972.317  1035.44  971.227  1035.93  970.206  1036.58  969.282  1037.38  968.479  1038.31  967.821  1039.32  967.326  1040.41  967.007  1041.54  966.874  1042.44  966.921  " style="fill: none; stroke: black; stroke-width: 0.200000; fill-type: evenodd"  fill-opacity="1.000000" />
   <path d="M 1017.52  884.264  1018.13  884.307  1020.14  884.639  1020.62  884.76  1022.58  885.388  1024.57  886.32  1024.8  886.448  1026.64  887.654  1028.35  889.135  1030.79  891.687  1032.66  893.676  1029.01  897.321  1027.23  895.538  980.291  942.479  982.073  944.261  973.217  953.118  972.285  952.187  969.315  949.115  968.787  948.508  968.472  947.994  968.252  947.449  968.145  946.967  968.119  946.652  968.11  946.427  968.144  946.058  968.174  945.885  968.308  945.401  969.847  941.261  970.178  940.159  972.031  934.488  972.261  933.58  973.887  927.649  975.417  920.479  975.658  919.731  976.053  918.327  976.184  918.012  976.407  917.308  977.168  915.626  977.403  915.225  977.595  914.806  978.624  913.119  979.05  912.567  979.16  912.389  980.395  910.835  988.786  902.091  990.158  900.769  992.94  898.249  994.846  896.637  997.741  894.03  1004  889.203  1005.56  888.125  1007.08  887.02  1008.54  886.16  1009.31  885.781  1011.02  885.092  1011.79  884.869  1012.86  884.594  1013.61  884.447  1015.51  884.238  1016.19  884.227  1017.52  884.264  " style="fill: none; stroke: darkmagenta; stroke-width: 0.200000; fill-type: evenodd"  fill-opacity="1.000000" />
   <path d="M 1017.47  885.263  1018.01  885.301  1019.93  885.619  1020.34  885.723  1022.21  886.321  1024.11  887.211  1024.28  887.304  1026.03  888.455  1027.66  889.861  1030.07  892.374  1031.27  893.654  1029.01  895.906  1027.23  894.123  978.876  942.479  980.659  944.261  973.212  951.708  970.052  948.438  969.596  947.914  969.368  947.543  969.211  947.152  969.136  946.815  969.117  946.591  969.112  946.454  969.136  946.189  969.151  946.105  969.26  945.71  970.796  941.58  971.132  940.458  972.993  934.766  973.228  933.834  974.859  927.886  976.384  920.738  976.616  920.02  976.999  918.656  977.124  918.356  977.343  917.667  978.058  916.086  978.291  915.687  978.479  915.276  979.45  913.687  979.874  913.136  979.98  912.964  981.148  911.494  989.494  902.797  990.84  901.5  993.599  899.002  995.504  897.391  998.382  894.799  1004.59  890.011  1006.14  888.941  1007.63  887.857  1009.02  887.04  1009.72  886.694  1011.34  886.039  1012.05  885.833  1013.08  885.57  1013.76  885.437  1015.57  885.237  1016.18  885.227  1017.47  885.263  " style="fill: none; stroke: black; stroke-width: 0.200000; fill-type: evenodd"  fill-opacity="1.000000" />
   <path d="M 959.384  969.776  959.333  969.965  958.601  970.697  957.601  970.965  956.601  970.697  955.869  969.965  955.601  968.965  955.869  967.965  956.601  967.233  956.859  967.164  959.384  969.776  " style="fill: none; stroke: purple; stroke-width: 0.500000; fill-type: evenodd"  fill-opacity="1.000000" />
</svg>
