<?xml version="1.0" encoding="UTF-8" standalone="yes"?>
<!DOCTYPE svg PUBLIC "-//W3C//DTD SVG 1.0//EN" "http://www.w3.org/TR/2001/REC-SVG-20010904/DTD/svg10.dtd">
<svg height="2000" width="2000" xmlns="http://www.w3.org/2000/svg" xmlns:svg="http://www.w3.org/2000/svg" xmlns:xlink="http://www.w3.org/1999/xlink">
   <marker id="endArrow" markerHeight="8" markerUnits="strokeWidth" markerWidth="10" orient="auto" refX="1" refY="5" viewBox="0 0 1000 1000">
      <polyline fill="darkblue" points="0,0 10,5 0,10 1,5" />
   </marker>
   <circle cx="1000" cy="1000" r="1" style="stroke:black; fill: red" />
   <circle cx="1000" cy="1000" r="800" style="stroke:black; fill: none" />
   <line x1="843.627197" y1="1277.396851" x2="796.922668" y2="1277.396851" style="stroke: green; stroke-width: 0.200000"/>
   <line x1="843.471313" y1="1276.396851" x2="796.821411" y2="1276.396851" style="stroke: green; stroke-width: 0.200000"/>
   <line x1="843.318970" y1="1275.396851" x2="796.719849" y2="1275.396851" style="stroke: green; stroke-width: 0.200000"/>
   <line x1="843.181274" y1="1274.396851" x2="796.618408" y2="1274.396851" style="stroke: green; stroke-width: 0.200000"/>
   <line x1="842.967224" y1="1273.396851" x2="796.517029" y2="1273.396851" style="stroke: green; stroke-width: 0.200000"/>
   <line x1="842.719360" y1="1272.396851" x2="796.415100" y2="1272.396851" style="stroke: green; stroke-width: 0.200000"/>
   <line x1="842.471558" y1="1271.396851" x2="796.313721" y2="1271.396851" style="stroke: green; stroke-width: 0.200000"/>
   <line x1="842.223633" y1="1270.396851" x2="796.225891" y2="1270.396851" style="stroke: green; stroke-width: 0.200000"/>
   <line x1="841.975830" y1="1269.396851" x2="796.146851" y2="1269.396851" style="stroke: green; stroke-width: 0.200000"/>
   <line x1="841.727966" y1="1268.396851" x2="796.067749" y2="1268.396851" style="stroke: green; stroke-width: 0.200000"/>
   <line x1="841.475464" y1="1267.396851" x2="795.988708" y2="1267.396851" style="stroke: green; stroke-width: 0.200000"/>
   <line x1="841.212463" y1="1266.396851" x2="795.909546" y2="1266.396851" style="stroke: green; stroke-width: 0.200000"/>
   <line x1="840.949585" y1="1265.396851" x2="795.906738" y2="1265.396851" style="stroke: green; stroke-width: 0.200000"/>
   <line x1="840.686646" y1="1264.396851" x2="796.197632" y2="1264.396851" style="stroke: green; stroke-width: 0.200000"/>
   <line x1="840.423645" y1="1263.396851" x2="796.488647" y2="1263.396851" style="stroke: green; stroke-width: 0.200000"/>
   <line x1="840.160767" y1="1262.396851" x2="796.779541" y2="1262.396851" style="stroke: green; stroke-width: 0.200000"/>
   <line x1="839.897766" y1="1261.396851" x2="797.070435" y2="1261.396851" style="stroke: green; stroke-width: 0.200000"/>
   <line x1="839.634888" y1="1260.396851" x2="797.276489" y2="1260.396851" style="stroke: green; stroke-width: 0.200000"/>
   <line x1="839.371948" y1="1259.396851" x2="797.476135" y2="1259.396851" style="stroke: green; stroke-width: 0.200000"/>
   <line x1="839.108948" y1="1258.396851" x2="797.675781" y2="1258.396851" style="stroke: green; stroke-width: 0.200000"/>
   <line x1="838.816833" y1="1257.396851" x2="797.875427" y2="1257.396851" style="stroke: green; stroke-width: 0.200000"/>
   <line x1="838.516846" y1="1256.396851" x2="798.075256" y2="1256.396851" style="stroke: green; stroke-width: 0.200000"/>
   <line x1="838.166138" y1="1255.396851" x2="798.274902" y2="1255.396851" style="stroke: green; stroke-width: 0.200000"/>
   <line x1="837.775024" y1="1254.396851" x2="798.474609" y2="1254.396851" style="stroke: green; stroke-width: 0.200000"/>
   <line x1="837.383972" y1="1253.396851" x2="798.674255" y2="1253.396851" style="stroke: green; stroke-width: 0.200000"/>
   <line x1="836.992798" y1="1252.396851" x2="798.873962" y2="1252.396851" style="stroke: green; stroke-width: 0.200000"/>
   <line x1="836.601685" y1="1251.396851" x2="799.073730" y2="1251.396851" style="stroke: green; stroke-width: 0.200000"/>
   <line x1="836.210632" y1="1250.396851" x2="799.273438" y2="1250.396851" style="stroke: green; stroke-width: 0.200000"/>
   <line x1="835.819458" y1="1249.396851" x2="799.720093" y2="1249.396851" style="stroke: green; stroke-width: 0.200000"/>
   <line x1="835.428406" y1="1248.396851" x2="800.171204" y2="1248.396851" style="stroke: green; stroke-width: 0.200000"/>
   <line x1="835.037292" y1="1247.396851" x2="800.622437" y2="1247.396851" style="stroke: green; stroke-width: 0.200000"/>
   <line x1="834.646118" y1="1246.396851" x2="801.073608" y2="1246.396851" style="stroke: green; stroke-width: 0.200000"/>
   <line x1="834.255066" y1="1245.396851" x2="801.524780" y2="1245.396851" style="stroke: green; stroke-width: 0.200000"/>
   <line x1="833.864014" y1="1244.396851" x2="801.975952" y2="1244.396851" style="stroke: green; stroke-width: 0.200000"/>
   <line x1="833.472900" y1="1243.396851" x2="802.427124" y2="1243.396851" style="stroke: green; stroke-width: 0.200000"/>
   <line x1="833.081726" y1="1242.396851" x2="802.878357" y2="1242.396851" style="stroke: green; stroke-width: 0.200000"/>
   <line x1="832.690674" y1="1241.396851" x2="803.329529" y2="1241.396851" style="stroke: green; stroke-width: 0.200000"/>
   <line x1="832.273010" y1="1240.396851" x2="803.683350" y2="1240.396851" style="stroke: green; stroke-width: 0.200000"/>
   <line x1="831.592285" y1="1239.396851" x2="803.985962" y2="1239.396851" style="stroke: green; stroke-width: 0.200000"/>
   <line x1="830.878418" y1="1238.396851" x2="804.609436" y2="1238.396851" style="stroke: green; stroke-width: 0.200000"/>
   <line x1="830.164551" y1="1237.396851" x2="805.458130" y2="1237.396851" style="stroke: green; stroke-width: 0.200000"/>
   <line x1="829.450684" y1="1236.396851" x2="806.306824" y2="1236.396851" style="stroke: green; stroke-width: 0.200000"/>
   <line x1="828.736877" y1="1235.396851" x2="807.155518" y2="1235.396851" style="stroke: green; stroke-width: 0.200000"/>
   <line x1="828.023010" y1="1234.396851" x2="808.004150" y2="1234.396851" style="stroke: green; stroke-width: 0.200000"/>
   <line x1="827.309082" y1="1233.396851" x2="808.849121" y2="1233.396851" style="stroke: green; stroke-width: 0.200000"/>
   <line x1="826.595337" y1="1232.396851" x2="809.623657" y2="1232.396851" style="stroke: green; stroke-width: 0.200000"/>
   <line x1="825.881409" y1="1231.396851" x2="810.560913" y2="1231.396851" style="stroke: green; stroke-width: 0.200000"/>
   <line x1="825.156250" y1="1230.396851" x2="812.509277" y2="1230.396851" style="stroke: green; stroke-width: 0.200000"/>
   <line x1="822.023071" y1="1229.396851" x2="814.457764" y2="1229.396851" style="stroke: green; stroke-width: 0.200000"/>
   <line x1="818.890015" y1="1228.396851" x2="816.406250" y2="1228.396851" style="stroke: green; stroke-width: 0.200000"/>
   <line x1="845.846802" y1="1327.396851" x2="817.852173" y2="1327.396851" style="stroke: green; stroke-width: 0.200000"/>
   <line x1="845.846802" y1="1326.396973" x2="817.527832" y2="1326.396973" style="stroke: green; stroke-width: 0.200000"/>
   <line x1="845.846802" y1="1325.396851" x2="817.203613" y2="1325.396851" style="stroke: green; stroke-width: 0.200000"/>
   <line x1="845.846802" y1="1324.396851" x2="816.879272" y2="1324.396851" style="stroke: green; stroke-width: 0.200000"/>
   <line x1="845.846802" y1="1323.396973" x2="816.554932" y2="1323.396973" style="stroke: green; stroke-width: 0.200000"/>
   <line x1="845.846802" y1="1322.396851" x2="816.230713" y2="1322.396851" style="stroke: green; stroke-width: 0.200000"/>
   <line x1="845.846802" y1="1321.396973" x2="815.906372" y2="1321.396973" style="stroke: green; stroke-width: 0.200000"/>
   <line x1="845.846802" y1="1320.396851" x2="815.582031" y2="1320.396851" style="stroke: green; stroke-width: 0.200000"/>
   <line x1="845.846802" y1="1319.396851" x2="815.268921" y2="1319.396851" style="stroke: green; stroke-width: 0.200000"/>
   <line x1="845.846802" y1="1318.396973" x2="814.990601" y2="1318.396973" style="stroke: green; stroke-width: 0.200000"/>
   <line x1="845.846802" y1="1317.396851" x2="814.712280" y2="1317.396851" style="stroke: green; stroke-width: 0.200000"/>
   <line x1="845.846802" y1="1316.396973" x2="814.433899" y2="1316.396973" style="stroke: green; stroke-width: 0.200000"/>
   <line x1="845.846802" y1="1315.396851" x2="814.155579" y2="1315.396851" style="stroke: green; stroke-width: 0.200000"/>
   <line x1="845.846802" y1="1314.396851" x2="813.877258" y2="1314.396851" style="stroke: green; stroke-width: 0.200000"/>
   <line x1="845.846802" y1="1313.396973" x2="813.598877" y2="1313.396973" style="stroke: green; stroke-width: 0.200000"/>
   <line x1="845.846802" y1="1312.396851" x2="813.320557" y2="1312.396851" style="stroke: green; stroke-width: 0.200000"/>
   <line x1="845.846802" y1="1311.396973" x2="813.024902" y2="1311.396973" style="stroke: green; stroke-width: 0.200000"/>
   <line x1="845.846802" y1="1310.396851" x2="812.656494" y2="1310.396851" style="stroke: green; stroke-width: 0.200000"/>
   <line x1="845.846802" y1="1309.396851" x2="812.288086" y2="1309.396851" style="stroke: green; stroke-width: 0.200000"/>
   <line x1="845.846802" y1="1308.396973" x2="811.917664" y2="1308.396973" style="stroke: green; stroke-width: 0.200000"/>
   <line x1="845.846802" y1="1307.396851" x2="811.410583" y2="1307.396851" style="stroke: green; stroke-width: 0.200000"/>
   <line x1="845.846802" y1="1306.396973" x2="810.988464" y2="1306.396973" style="stroke: green; stroke-width: 0.200000"/>
   <line x1="845.846802" y1="1305.396851" x2="810.621033" y2="1305.396851" style="stroke: green; stroke-width: 0.200000"/>
   <line x1="845.846802" y1="1304.396851" x2="810.253601" y2="1304.396851" style="stroke: green; stroke-width: 0.200000"/>
   <line x1="845.846802" y1="1303.396973" x2="809.886108" y2="1303.396973" style="stroke: green; stroke-width: 0.200000"/>
   <line x1="845.846802" y1="1302.396851" x2="809.518677" y2="1302.396851" style="stroke: green; stroke-width: 0.200000"/>
   <line x1="845.846802" y1="1301.396973" x2="809.151245" y2="1301.396973" style="stroke: green; stroke-width: 0.200000"/>
   <line x1="845.846802" y1="1300.396851" x2="808.783630" y2="1300.396851" style="stroke: green; stroke-width: 0.200000"/>
   <line x1="845.846802" y1="1299.396851" x2="808.416199" y2="1299.396851" style="stroke: green; stroke-width: 0.200000"/>
   <line x1="845.846802" y1="1298.396973" x2="807.957886" y2="1298.396973" style="stroke: green; stroke-width: 0.200000"/>
   <line x1="845.846802" y1="1297.396851" x2="807.308411" y2="1297.396851" style="stroke: green; stroke-width: 0.200000"/>
   <line x1="845.846802" y1="1296.396973" x2="806.658936" y2="1296.396973" style="stroke: green; stroke-width: 0.200000"/>
   <line x1="845.846802" y1="1295.396851" x2="806.009460" y2="1295.396851" style="stroke: green; stroke-width: 0.200000"/>
   <line x1="845.846802" y1="1294.396851" x2="805.359985" y2="1294.396851" style="stroke: green; stroke-width: 0.200000"/>
   <line x1="845.754333" y1="1293.396973" x2="804.790405" y2="1293.396973" style="stroke: green; stroke-width: 0.200000"/>
   <line x1="845.643005" y1="1292.396851" x2="804.226196" y2="1292.396851" style="stroke: green; stroke-width: 0.200000"/>
   <line x1="845.531738" y1="1291.396973" x2="803.662048" y2="1291.396973" style="stroke: green; stroke-width: 0.200000"/>
   <line x1="845.420471" y1="1290.396851" x2="803.097900" y2="1290.396851" style="stroke: green; stroke-width: 0.200000"/>
   <line x1="845.309143" y1="1289.396851" x2="802.527405" y2="1289.396851" style="stroke: green; stroke-width: 0.200000"/>
   <line x1="845.197876" y1="1288.396973" x2="801.955627" y2="1288.396973" style="stroke: green; stroke-width: 0.200000"/>
   <line x1="845.086609" y1="1287.396851" x2="801.383911" y2="1287.396851" style="stroke: green; stroke-width: 0.200000"/>
   <line x1="844.975342" y1="1286.396973" x2="800.812134" y2="1286.396973" style="stroke: green; stroke-width: 0.200000"/>
   <line x1="844.864014" y1="1285.396851" x2="800.239868" y2="1285.396851" style="stroke: green; stroke-width: 0.200000"/>
   <line x1="844.718262" y1="1284.396851" x2="799.668091" y2="1284.396851" style="stroke: green; stroke-width: 0.200000"/>
   <line x1="844.562378" y1="1283.396973" x2="799.096375" y2="1283.396973" style="stroke: green; stroke-width: 0.200000"/>
   <line x1="844.406494" y1="1282.396851" x2="798.524536" y2="1282.396851" style="stroke: green; stroke-width: 0.200000"/>
   <line x1="844.250610" y1="1281.396973" x2="797.909790" y2="1281.396973" style="stroke: green; stroke-width: 0.200000"/>
   <line x1="844.094788" y1="1280.396851" x2="797.286987" y2="1280.396851" style="stroke: green; stroke-width: 0.200000"/>
   <line x1="843.938904" y1="1279.396851" x2="797.124878" y2="1279.396851" style="stroke: green; stroke-width: 0.200000"/>
   <line x1="843.783020" y1="1278.396851" x2="797.024048" y2="1278.396851" style="stroke: green; stroke-width: 0.200000"/>
   <line x1="846.141846" y1="1327.396851" x2="845.946777" y2="1327.396851" style="stroke: green; stroke-width: 0.200000"/>
   <line x1="846.161499" y1="1326.396973" x2="845.946777" y2="1326.396973" style="stroke: green; stroke-width: 0.200000"/>
   <line x1="846.154907" y1="1325.396851" x2="845.946777" y2="1325.396851" style="stroke: green; stroke-width: 0.200000"/>
   <line x1="846.148315" y1="1324.396851" x2="845.946777" y2="1324.396851" style="stroke: green; stroke-width: 0.200000"/>
   <line x1="846.141724" y1="1323.396973" x2="845.946777" y2="1323.396973" style="stroke: green; stroke-width: 0.200000"/>
   <line x1="846.135132" y1="1322.396851" x2="845.946777" y2="1322.396851" style="stroke: green; stroke-width: 0.200000"/>
   <line x1="846.128479" y1="1321.396973" x2="845.946777" y2="1321.396973" style="stroke: green; stroke-width: 0.200000"/>
   <line x1="846.121887" y1="1320.396851" x2="845.946777" y2="1320.396851" style="stroke: green; stroke-width: 0.200000"/>
   <line x1="846.115173" y1="1319.396851" x2="845.946777" y2="1319.396851" style="stroke: green; stroke-width: 0.200000"/>
   <line x1="846.108521" y1="1318.396973" x2="845.946777" y2="1318.396973" style="stroke: green; stroke-width: 0.200000"/>
   <line x1="846.158752" y1="1317.396851" x2="845.946777" y2="1317.396851" style="stroke: green; stroke-width: 0.200000"/>
   <line x1="846.238037" y1="1316.396973" x2="845.946777" y2="1316.396973" style="stroke: green; stroke-width: 0.200000"/>
   <line x1="846.317261" y1="1315.396851" x2="845.946777" y2="1315.396851" style="stroke: green; stroke-width: 0.200000"/>
   <line x1="846.396545" y1="1314.396851" x2="845.946777" y2="1314.396851" style="stroke: green; stroke-width: 0.200000"/>
   <line x1="846.455566" y1="1313.396973" x2="845.946777" y2="1313.396973" style="stroke: green; stroke-width: 0.200000"/>
   <line x1="846.429443" y1="1312.396851" x2="845.946777" y2="1312.396851" style="stroke: green; stroke-width: 0.200000"/>
   <line x1="846.403442" y1="1311.396973" x2="845.946777" y2="1311.396973" style="stroke: green; stroke-width: 0.200000"/>
   <line x1="846.377319" y1="1310.396851" x2="845.946777" y2="1310.396851" style="stroke: green; stroke-width: 0.200000"/>
   <line x1="846.351257" y1="1309.396851" x2="845.946777" y2="1309.396851" style="stroke: green; stroke-width: 0.200000"/>
   <line x1="846.325134" y1="1308.396973" x2="845.946777" y2="1308.396973" style="stroke: green; stroke-width: 0.200000"/>
   <line x1="846.299072" y1="1307.396851" x2="845.946777" y2="1307.396851" style="stroke: green; stroke-width: 0.200000"/>
   <line x1="846.337769" y1="1306.396973" x2="845.946777" y2="1306.396973" style="stroke: green; stroke-width: 0.200000"/>
   <line x1="846.381958" y1="1305.396851" x2="845.946777" y2="1305.396851" style="stroke: green; stroke-width: 0.200000"/>
   <line x1="846.426270" y1="1304.396851" x2="845.946777" y2="1304.396851" style="stroke: green; stroke-width: 0.200000"/>
   <line x1="846.424255" y1="1303.396973" x2="845.946777" y2="1303.396973" style="stroke: green; stroke-width: 0.200000"/>
   <line x1="846.363892" y1="1302.396851" x2="845.946777" y2="1302.396851" style="stroke: green; stroke-width: 0.200000"/>
   <line x1="846.303650" y1="1301.396973" x2="845.946777" y2="1301.396973" style="stroke: green; stroke-width: 0.200000"/>
   <line x1="846.243347" y1="1300.396851" x2="845.946777" y2="1300.396851" style="stroke: green; stroke-width: 0.200000"/>
   <line x1="846.182983" y1="1299.396851" x2="845.946777" y2="1299.396851" style="stroke: green; stroke-width: 0.200000"/>
   <line x1="846.122742" y1="1298.396973" x2="845.946777" y2="1298.396973" style="stroke: green; stroke-width: 0.200000"/>
   <line x1="846.062378" y1="1297.396851" x2="845.946777" y2="1297.396851" style="stroke: green; stroke-width: 0.200000"/>
   <line x1="846.002136" y1="1296.396973" x2="845.946777" y2="1296.396973" style="stroke: green; stroke-width: 0.200000"/>
   <line x1="839.944336" y1="1371.396973" x2="837.832397" y2="1371.396973" style="stroke: green; stroke-width: 0.200000"/>
   <line x1="841.914673" y1="1370.396851" x2="836.773315" y2="1370.396851" style="stroke: green; stroke-width: 0.200000"/>
   <line x1="843.885254" y1="1369.396851" x2="835.714172" y2="1369.396851" style="stroke: green; stroke-width: 0.200000"/>
   <line x1="845.437012" y1="1368.396973" x2="834.655151" y2="1368.396973" style="stroke: green; stroke-width: 0.200000"/>
   <line x1="845.512451" y1="1367.396851" x2="833.596069" y2="1367.396851" style="stroke: green; stroke-width: 0.200000"/>
   <line x1="845.586182" y1="1366.396973" x2="832.529236" y2="1366.396973" style="stroke: green; stroke-width: 0.200000"/>
   <line x1="845.659729" y1="1365.396851" x2="831.735596" y2="1365.396851" style="stroke: green; stroke-width: 0.200000"/>
   <line x1="845.733337" y1="1364.396851" x2="831.338562" y2="1364.396851" style="stroke: green; stroke-width: 0.200000"/>
   <line x1="845.807007" y1="1363.396973" x2="830.941467" y2="1363.396973" style="stroke: green; stroke-width: 0.200000"/>
   <line x1="845.846802" y1="1362.396851" x2="830.544434" y2="1362.396851" style="stroke: green; stroke-width: 0.200000"/>
   <line x1="845.846802" y1="1361.396973" x2="830.147339" y2="1361.396973" style="stroke: green; stroke-width: 0.200000"/>
   <line x1="845.846802" y1="1360.396851" x2="829.750244" y2="1360.396851" style="stroke: green; stroke-width: 0.200000"/>
   <line x1="845.846802" y1="1359.396851" x2="829.353149" y2="1359.396851" style="stroke: green; stroke-width: 0.200000"/>
   <line x1="845.846802" y1="1358.396973" x2="828.956177" y2="1358.396973" style="stroke: green; stroke-width: 0.200000"/>
   <line x1="845.846802" y1="1357.396851" x2="828.559021" y2="1357.396851" style="stroke: green; stroke-width: 0.200000"/>
   <line x1="845.846802" y1="1356.396973" x2="828.180786" y2="1356.396973" style="stroke: green; stroke-width: 0.200000"/>
   <line x1="845.846802" y1="1355.396851" x2="827.814331" y2="1355.396851" style="stroke: green; stroke-width: 0.200000"/>
   <line x1="845.846802" y1="1354.396851" x2="827.447998" y2="1354.396851" style="stroke: green; stroke-width: 0.200000"/>
   <line x1="845.846802" y1="1353.396973" x2="827.081543" y2="1353.396973" style="stroke: green; stroke-width: 0.200000"/>
   <line x1="845.846802" y1="1352.396851" x2="826.724731" y2="1352.396851" style="stroke: green; stroke-width: 0.200000"/>
   <line x1="845.846802" y1="1351.396973" x2="826.378479" y2="1351.396973" style="stroke: green; stroke-width: 0.200000"/>
   <line x1="845.846802" y1="1350.396851" x2="826.032166" y2="1350.396851" style="stroke: green; stroke-width: 0.200000"/>
   <line x1="845.846802" y1="1349.396851" x2="825.685974" y2="1349.396851" style="stroke: green; stroke-width: 0.200000"/>
   <line x1="845.846802" y1="1348.396973" x2="825.339722" y2="1348.396973" style="stroke: green; stroke-width: 0.200000"/>
   <line x1="845.846802" y1="1347.396851" x2="824.981079" y2="1347.396851" style="stroke: green; stroke-width: 0.200000"/>
   <line x1="845.846802" y1="1346.396973" x2="824.600586" y2="1346.396973" style="stroke: green; stroke-width: 0.200000"/>
   <line x1="845.846802" y1="1345.396851" x2="824.220093" y2="1345.396851" style="stroke: green; stroke-width: 0.200000"/>
   <line x1="845.846802" y1="1344.396851" x2="823.839722" y2="1344.396851" style="stroke: green; stroke-width: 0.200000"/>
   <line x1="845.846802" y1="1343.396973" x2="823.459229" y2="1343.396973" style="stroke: green; stroke-width: 0.200000"/>
   <line x1="845.846802" y1="1342.396851" x2="823.078735" y2="1342.396851" style="stroke: green; stroke-width: 0.200000"/>
   <line x1="845.846802" y1="1341.396973" x2="822.698303" y2="1341.396973" style="stroke: green; stroke-width: 0.200000"/>
   <line x1="845.846802" y1="1340.396851" x2="822.370667" y2="1340.396851" style="stroke: green; stroke-width: 0.200000"/>
   <line x1="845.846802" y1="1339.396851" x2="822.044617" y2="1339.396851" style="stroke: green; stroke-width: 0.200000"/>
   <line x1="845.846802" y1="1338.396973" x2="821.718628" y2="1338.396973" style="stroke: green; stroke-width: 0.200000"/>
   <line x1="845.846802" y1="1337.396851" x2="821.355530" y2="1337.396851" style="stroke: green; stroke-width: 0.200000"/>
   <line x1="845.846802" y1="1336.396973" x2="820.972351" y2="1336.396973" style="stroke: green; stroke-width: 0.200000"/>
   <line x1="845.846802" y1="1335.396851" x2="820.589111" y2="1335.396851" style="stroke: green; stroke-width: 0.200000"/>
   <line x1="845.846802" y1="1334.396851" x2="820.205994" y2="1334.396851" style="stroke: green; stroke-width: 0.200000"/>
   <line x1="845.846802" y1="1333.396973" x2="819.822876" y2="1333.396973" style="stroke: green; stroke-width: 0.200000"/>
   <line x1="845.846802" y1="1332.396851" x2="819.439697" y2="1332.396851" style="stroke: green; stroke-width: 0.200000"/>
   <line x1="845.846802" y1="1331.396973" x2="819.069702" y2="1331.396973" style="stroke: green; stroke-width: 0.200000"/>
   <line x1="845.846802" y1="1330.396851" x2="818.768555" y2="1330.396851" style="stroke: green; stroke-width: 0.200000"/>
   <line x1="845.846802" y1="1329.396851" x2="818.467346" y2="1329.396851" style="stroke: green; stroke-width: 0.200000"/>
   <line x1="845.846802" y1="1328.396973" x2="818.166199" y2="1328.396973" style="stroke: green; stroke-width: 0.200000"/>
   <line x1="845.954285" y1="1361.396973" x2="845.946777" y2="1361.396973" style="stroke: green; stroke-width: 0.200000"/>
   <line x1="846.027954" y1="1360.396851" x2="845.946777" y2="1360.396851" style="stroke: green; stroke-width: 0.200000"/>
   <line x1="846.101624" y1="1359.396851" x2="845.946777" y2="1359.396851" style="stroke: green; stroke-width: 0.200000"/>
   <line x1="846.175293" y1="1358.396973" x2="845.946777" y2="1358.396973" style="stroke: green; stroke-width: 0.200000"/>
   <line x1="846.261475" y1="1357.396851" x2="845.946777" y2="1357.396851" style="stroke: green; stroke-width: 0.200000"/>
   <line x1="846.355469" y1="1356.396973" x2="845.946777" y2="1356.396973" style="stroke: green; stroke-width: 0.200000"/>
   <line x1="846.320251" y1="1355.396851" x2="845.946777" y2="1355.396851" style="stroke: green; stroke-width: 0.200000"/>
   <line x1="846.275269" y1="1354.396851" x2="845.946777" y2="1354.396851" style="stroke: green; stroke-width: 0.200000"/>
   <line x1="846.230164" y1="1353.396973" x2="845.946777" y2="1353.396973" style="stroke: green; stroke-width: 0.200000"/>
   <line x1="846.185059" y1="1352.396851" x2="845.946777" y2="1352.396851" style="stroke: green; stroke-width: 0.200000"/>
   <line x1="846.140076" y1="1351.396973" x2="845.946777" y2="1351.396973" style="stroke: green; stroke-width: 0.200000"/>
   <line x1="846.094971" y1="1350.396851" x2="845.946777" y2="1350.396851" style="stroke: green; stroke-width: 0.200000"/>
   <line x1="846.049866" y1="1349.396851" x2="845.946777" y2="1349.396851" style="stroke: green; stroke-width: 0.200000"/>
   <line x1="846.004883" y1="1348.396973" x2="845.946777" y2="1348.396973" style="stroke: green; stroke-width: 0.200000"/>
   <line x1="845.975708" y1="1347.396851" x2="845.946777" y2="1347.396851" style="stroke: green; stroke-width: 0.200000"/>
   <line x1="846.005310" y1="1346.396973" x2="845.946777" y2="1346.396973" style="stroke: green; stroke-width: 0.200000"/>
   <line x1="846.034912" y1="1345.396851" x2="845.946777" y2="1345.396851" style="stroke: green; stroke-width: 0.200000"/>
   <line x1="846.064453" y1="1344.396851" x2="845.946777" y2="1344.396851" style="stroke: green; stroke-width: 0.200000"/>
   <line x1="846.094055" y1="1343.396973" x2="845.946777" y2="1343.396973" style="stroke: green; stroke-width: 0.200000"/>
   <line x1="846.123657" y1="1342.396851" x2="845.946777" y2="1342.396851" style="stroke: green; stroke-width: 0.200000"/>
   <line x1="846.141907" y1="1341.396973" x2="845.946777" y2="1341.396973" style="stroke: green; stroke-width: 0.200000"/>
   <line x1="846.092163" y1="1340.396851" x2="845.946777" y2="1340.396851" style="stroke: green; stroke-width: 0.200000"/>
   <line x1="846.042419" y1="1339.396851" x2="845.946777" y2="1339.396851" style="stroke: green; stroke-width: 0.200000"/>
   <line x1="845.992737" y1="1338.396973" x2="845.946777" y2="1338.396973" style="stroke: green; stroke-width: 0.200000"/>
   <line x1="845.996094" y1="1337.396851" x2="845.946777" y2="1337.396851" style="stroke: green; stroke-width: 0.200000"/>
   <line x1="846.012634" y1="1336.396973" x2="845.946777" y2="1336.396973" style="stroke: green; stroke-width: 0.200000"/>
   <line x1="846.029297" y1="1335.396851" x2="845.946777" y2="1335.396851" style="stroke: green; stroke-width: 0.200000"/>
   <line x1="846.045898" y1="1334.396851" x2="845.946777" y2="1334.396851" style="stroke: green; stroke-width: 0.200000"/>
   <line x1="846.062561" y1="1333.396973" x2="845.946777" y2="1333.396973" style="stroke: green; stroke-width: 0.200000"/>
   <line x1="846.079102" y1="1332.396851" x2="845.946777" y2="1332.396851" style="stroke: green; stroke-width: 0.200000"/>
   <line x1="846.082214" y1="1331.396973" x2="845.946777" y2="1331.396973" style="stroke: green; stroke-width: 0.200000"/>
   <line x1="846.077942" y1="1330.396851" x2="845.946777" y2="1330.396851" style="stroke: green; stroke-width: 0.200000"/>
   <line x1="846.073730" y1="1329.396851" x2="845.946777" y2="1329.396851" style="stroke: green; stroke-width: 0.200000"/>
   <line x1="846.091431" y1="1328.396973" x2="845.946777" y2="1328.396973" style="stroke: green; stroke-width: 0.200000"/>
   <line x1="933.643860" y1="1209.446045" x2="912.254883" y2="1209.446045" style="stroke: green; stroke-width: 0.200000"/>
   <line x1="933.643860" y1="1208.446045" x2="910.868408" y2="1208.446045" style="stroke: green; stroke-width: 0.200000"/>
   <line x1="933.643860" y1="1207.446045" x2="909.481873" y2="1207.446045" style="stroke: green; stroke-width: 0.200000"/>
   <line x1="933.643860" y1="1206.446045" x2="908.153198" y2="1206.446045" style="stroke: green; stroke-width: 0.200000"/>
   <line x1="933.643860" y1="1205.446045" x2="906.893555" y2="1205.446045" style="stroke: green; stroke-width: 0.200000"/>
   <line x1="933.643860" y1="1204.446045" x2="905.627686" y2="1204.446045" style="stroke: green; stroke-width: 0.200000"/>
   <line x1="933.643860" y1="1203.446045" x2="904.291382" y2="1203.446045" style="stroke: green; stroke-width: 0.200000"/>
   <line x1="933.643860" y1="1202.446045" x2="902.955078" y2="1202.446045" style="stroke: green; stroke-width: 0.200000"/>
   <line x1="933.643860" y1="1201.446045" x2="901.618774" y2="1201.446045" style="stroke: green; stroke-width: 0.200000"/>
   <line x1="933.643860" y1="1200.446045" x2="900.468140" y2="1200.446045" style="stroke: green; stroke-width: 0.200000"/>
   <line x1="933.643860" y1="1199.446045" x2="899.556946" y2="1199.446045" style="stroke: green; stroke-width: 0.200000"/>
   <line x1="933.643860" y1="1198.446045" x2="898.645752" y2="1198.446045" style="stroke: green; stroke-width: 0.200000"/>
   <line x1="933.643860" y1="1197.446045" x2="897.682373" y2="1197.446045" style="stroke: green; stroke-width: 0.200000"/>
   <line x1="933.643860" y1="1196.446045" x2="896.599365" y2="1196.446045" style="stroke: green; stroke-width: 0.200000"/>
   <line x1="933.643860" y1="1195.446045" x2="895.516357" y2="1195.446045" style="stroke: green; stroke-width: 0.200000"/>
   <line x1="933.643860" y1="1194.446045" x2="894.433289" y2="1194.446045" style="stroke: green; stroke-width: 0.200000"/>
   <line x1="933.643860" y1="1193.446045" x2="893.354248" y2="1193.446045" style="stroke: green; stroke-width: 0.200000"/>
   <line x1="933.643860" y1="1192.446045" x2="892.610229" y2="1192.446045" style="stroke: green; stroke-width: 0.200000"/>
   <line x1="933.643860" y1="1191.446045" x2="891.861938" y2="1191.446045" style="stroke: green; stroke-width: 0.200000"/>
   <line x1="933.643860" y1="1190.446045" x2="891.030151" y2="1190.446045" style="stroke: green; stroke-width: 0.200000"/>
   <line x1="933.643860" y1="1189.446045" x2="890.198242" y2="1189.446045" style="stroke: green; stroke-width: 0.200000"/>
   <line x1="933.643860" y1="1188.446045" x2="889.366455" y2="1188.446045" style="stroke: green; stroke-width: 0.200000"/>
   <line x1="933.643860" y1="1187.446045" x2="888.534607" y2="1187.446045" style="stroke: green; stroke-width: 0.200000"/>
   <line x1="933.643860" y1="1186.446045" x2="887.943420" y2="1186.446045" style="stroke: green; stroke-width: 0.200000"/>
   <line x1="933.643860" y1="1185.446045" x2="887.530029" y2="1185.446045" style="stroke: green; stroke-width: 0.200000"/>
   <line x1="933.643860" y1="1184.446045" x2="887.116699" y2="1184.446045" style="stroke: green; stroke-width: 0.200000"/>
   <line x1="933.643860" y1="1183.446045" x2="886.703369" y2="1183.446045" style="stroke: green; stroke-width: 0.200000"/>
   <line x1="933.643860" y1="1182.446045" x2="886.290039" y2="1182.446045" style="stroke: green; stroke-width: 0.200000"/>
   <line x1="933.393799" y1="1181.446045" x2="885.737549" y2="1181.446045" style="stroke: green; stroke-width: 0.200000"/>
   <line x1="932.215942" y1="1180.446045" x2="885.152710" y2="1180.446045" style="stroke: green; stroke-width: 0.200000"/>
   <line x1="931.038086" y1="1179.446045" x2="884.567932" y2="1179.446045" style="stroke: green; stroke-width: 0.200000"/>
   <line x1="929.711060" y1="1178.446045" x2="884.279114" y2="1178.446045" style="stroke: green; stroke-width: 0.200000"/>
   <line x1="928.230347" y1="1177.446045" x2="884.080566" y2="1177.446045" style="stroke: green; stroke-width: 0.200000"/>
   <line x1="927.432373" y1="1176.446045" x2="883.881958" y2="1176.446045" style="stroke: green; stroke-width: 0.200000"/>
   <line x1="926.634644" y1="1175.446045" x2="883.683472" y2="1175.446045" style="stroke: green; stroke-width: 0.200000"/>
   <line x1="925.836670" y1="1174.446045" x2="883.755554" y2="1174.446045" style="stroke: green; stroke-width: 0.200000"/>
   <line x1="925.038696" y1="1173.446045" x2="883.895142" y2="1173.446045" style="stroke: green; stroke-width: 0.200000"/>
   <line x1="924.240723" y1="1172.446045" x2="884.034668" y2="1172.446045" style="stroke: green; stroke-width: 0.200000"/>
   <line x1="923.308167" y1="1171.446045" x2="884.255066" y2="1171.446045" style="stroke: green; stroke-width: 0.200000"/>
   <line x1="922.232544" y1="1170.446045" x2="884.593018" y2="1170.446045" style="stroke: green; stroke-width: 0.200000"/>
   <line x1="921.156860" y1="1169.446045" x2="884.931030" y2="1169.446045" style="stroke: green; stroke-width: 0.200000"/>
   <line x1="920.081177" y1="1168.446045" x2="885.269043" y2="1168.446045" style="stroke: green; stroke-width: 0.200000"/>
   <line x1="919.004883" y1="1167.446045" x2="885.606995" y2="1167.446045" style="stroke: green; stroke-width: 0.200000"/>
   <line x1="917.939697" y1="1166.446045" x2="886.366516" y2="1166.446045" style="stroke: green; stroke-width: 0.200000"/>
   <line x1="916.812805" y1="1165.446045" x2="887.595276" y2="1165.446045" style="stroke: green; stroke-width: 0.200000"/>
   <line x1="914.660767" y1="1164.446045" x2="888.823975" y2="1164.446045" style="stroke: green; stroke-width: 0.200000"/>
   <line x1="912.074707" y1="1163.446045" x2="890.052795" y2="1163.446045" style="stroke: green; stroke-width: 0.200000"/>
   <line x1="909.488586" y1="1162.446045" x2="891.196411" y2="1162.446045" style="stroke: green; stroke-width: 0.200000"/>
   <line x1="905.355835" y1="1161.446045" x2="894.379883" y2="1161.446045" style="stroke: green; stroke-width: 0.200000"/>
   <line x1="901.202271" y1="1160.446045" x2="898.896179" y2="1160.446045" style="stroke: green; stroke-width: 0.200000"/>
   <line x1="983.743835" y1="1209.446045" x2="933.743835" y2="1209.446045" style="stroke: green; stroke-width: 0.200000"/>
   <line x1="983.743835" y1="1208.446045" x2="933.743835" y2="1208.446045" style="stroke: green; stroke-width: 0.200000"/>
   <line x1="983.743835" y1="1207.446045" x2="933.743835" y2="1207.446045" style="stroke: green; stroke-width: 0.200000"/>
   <line x1="983.743835" y1="1206.446045" x2="933.743835" y2="1206.446045" style="stroke: green; stroke-width: 0.200000"/>
   <line x1="983.743835" y1="1205.446045" x2="933.743835" y2="1205.446045" style="stroke: green; stroke-width: 0.200000"/>
   <line x1="983.019409" y1="1204.446045" x2="933.743835" y2="1204.446045" style="stroke: green; stroke-width: 0.200000"/>
   <line x1="980.279663" y1="1203.446045" x2="933.743835" y2="1203.446045" style="stroke: green; stroke-width: 0.200000"/>
   <line x1="977.601562" y1="1202.446045" x2="933.743835" y2="1202.446045" style="stroke: green; stroke-width: 0.200000"/>
   <line x1="975.207825" y1="1201.446045" x2="933.743835" y2="1201.446045" style="stroke: green; stroke-width: 0.200000"/>
   <line x1="972.523499" y1="1200.446045" x2="933.743835" y2="1200.446045" style="stroke: green; stroke-width: 0.200000"/>
   <line x1="969.713135" y1="1199.446045" x2="933.743835" y2="1199.446045" style="stroke: green; stroke-width: 0.200000"/>
   <line x1="966.902771" y1="1198.446045" x2="933.743835" y2="1198.446045" style="stroke: green; stroke-width: 0.200000"/>
   <line x1="964.778748" y1="1197.446045" x2="933.743835" y2="1197.446045" style="stroke: green; stroke-width: 0.200000"/>
   <line x1="962.419556" y1="1196.446045" x2="933.743835" y2="1196.446045" style="stroke: green; stroke-width: 0.200000"/>
   <line x1="959.848877" y1="1195.446045" x2="933.743835" y2="1195.446045" style="stroke: green; stroke-width: 0.200000"/>
   <line x1="957.278198" y1="1194.446045" x2="933.743835" y2="1194.446045" style="stroke: green; stroke-width: 0.200000"/>
   <line x1="955.081726" y1="1193.446045" x2="933.743835" y2="1193.446045" style="stroke: green; stroke-width: 0.200000"/>
   <line x1="953.004517" y1="1192.446045" x2="933.743835" y2="1192.446045" style="stroke: green; stroke-width: 0.200000"/>
   <line x1="950.799622" y1="1191.446045" x2="933.743835" y2="1191.446045" style="stroke: green; stroke-width: 0.200000"/>
   <line x1="948.594727" y1="1190.446045" x2="933.743835" y2="1190.446045" style="stroke: green; stroke-width: 0.200000"/>
   <line x1="946.569946" y1="1189.446045" x2="933.743835" y2="1189.446045" style="stroke: green; stroke-width: 0.200000"/>
   <line x1="945.034058" y1="1188.446045" x2="933.743835" y2="1188.446045" style="stroke: green; stroke-width: 0.200000"/>
   <line x1="943.343506" y1="1187.446045" x2="933.743835" y2="1187.446045" style="stroke: green; stroke-width: 0.200000"/>
   <line x1="941.547180" y1="1186.446045" x2="933.743835" y2="1186.446045" style="stroke: green; stroke-width: 0.200000"/>
   <line x1="939.607910" y1="1185.446045" x2="933.743835" y2="1185.446045" style="stroke: green; stroke-width: 0.200000"/>
   <line x1="937.668762" y1="1184.446045" x2="933.743835" y2="1184.446045" style="stroke: green; stroke-width: 0.200000"/>
   <line x1="935.749512" y1="1183.446045" x2="933.743835" y2="1183.446045" style="stroke: green; stroke-width: 0.200000"/>
   <line x1="934.571655" y1="1182.446045" x2="933.743835" y2="1182.446045" style="stroke: green; stroke-width: 0.200000"/>
   <line x1="995.281738" y1="1209.446045" x2="983.843872" y2="1209.446045" style="stroke: green; stroke-width: 0.200000"/>
   <line x1="993.018860" y1="1208.446045" x2="983.843872" y2="1208.446045" style="stroke: green; stroke-width: 0.200000"/>
   <line x1="990.755920" y1="1207.446045" x2="983.843872" y2="1207.446045" style="stroke: green; stroke-width: 0.200000"/>
   <line x1="988.492981" y1="1206.446045" x2="983.843872" y2="1206.446045" style="stroke: green; stroke-width: 0.200000"/>
   <line x1="985.759155" y1="1205.446045" x2="983.843872" y2="1205.446045" style="stroke: green; stroke-width: 0.200000"/>
   <line x1="933.643860" y1="1221.446045" x2="931.444031" y2="1221.446045" style="stroke: green; stroke-width: 0.200000"/>
   <line x1="933.643860" y1="1220.446045" x2="929.343994" y2="1220.446045" style="stroke: green; stroke-width: 0.200000"/>
   <line x1="933.643860" y1="1219.446045" x2="927.827271" y2="1219.446045" style="stroke: green; stroke-width: 0.200000"/>
   <line x1="933.643860" y1="1218.446045" x2="926.310547" y2="1218.446045" style="stroke: green; stroke-width: 0.200000"/>
   <line x1="933.643860" y1="1217.446045" x2="924.784790" y2="1217.446045" style="stroke: green; stroke-width: 0.200000"/>
   <line x1="933.643860" y1="1216.446045" x2="923.234375" y2="1216.446045" style="stroke: green; stroke-width: 0.200000"/>
   <line x1="933.643860" y1="1215.446045" x2="921.684631" y2="1215.446045" style="stroke: green; stroke-width: 0.200000"/>
   <line x1="933.643860" y1="1214.446045" x2="920.126343" y2="1214.446045" style="stroke: green; stroke-width: 0.200000"/>
   <line x1="933.643860" y1="1213.446045" x2="918.541260" y2="1213.446045" style="stroke: green; stroke-width: 0.200000"/>
   <line x1="933.643860" y1="1212.446045" x2="916.956299" y2="1212.446045" style="stroke: green; stroke-width: 0.200000"/>
   <line x1="933.643860" y1="1211.446045" x2="915.346313" y2="1211.446045" style="stroke: green; stroke-width: 0.200000"/>
   <line x1="933.643860" y1="1210.446045" x2="913.731628" y2="1210.446045" style="stroke: green; stroke-width: 0.200000"/>
   <line x1="983.743835" y1="1229.446045" x2="973.792969" y2="1229.446045" style="stroke: green; stroke-width: 0.200000"/>
   <line x1="983.743835" y1="1228.446045" x2="962.994507" y2="1228.446045" style="stroke: green; stroke-width: 0.200000"/>
   <line x1="983.743835" y1="1227.446045" x2="954.716431" y2="1227.446045" style="stroke: green; stroke-width: 0.200000"/>
   <line x1="983.743835" y1="1226.446045" x2="948.809082" y2="1226.446045" style="stroke: green; stroke-width: 0.200000"/>
   <line x1="983.743835" y1="1225.446045" x2="943.755188" y2="1225.446045" style="stroke: green; stroke-width: 0.200000"/>
   <line x1="983.743835" y1="1224.446045" x2="940.069580" y2="1224.446045" style="stroke: green; stroke-width: 0.200000"/>
   <line x1="983.743835" y1="1223.446045" x2="937.039795" y2="1223.446045" style="stroke: green; stroke-width: 0.200000"/>
   <line x1="983.743835" y1="1222.446045" x2="933.955139" y2="1222.446045" style="stroke: green; stroke-width: 0.200000"/>
   <line x1="983.743835" y1="1221.446045" x2="933.743835" y2="1221.446045" style="stroke: green; stroke-width: 0.200000"/>
   <line x1="983.743835" y1="1220.446045" x2="933.743835" y2="1220.446045" style="stroke: green; stroke-width: 0.200000"/>
   <line x1="983.743835" y1="1219.446045" x2="933.743835" y2="1219.446045" style="stroke: green; stroke-width: 0.200000"/>
   <line x1="983.743835" y1="1218.446045" x2="933.743835" y2="1218.446045" style="stroke: green; stroke-width: 0.200000"/>
   <line x1="983.743835" y1="1217.446045" x2="933.743835" y2="1217.446045" style="stroke: green; stroke-width: 0.200000"/>
   <line x1="983.743835" y1="1216.446045" x2="933.743835" y2="1216.446045" style="stroke: green; stroke-width: 0.200000"/>
   <line x1="983.743835" y1="1215.446045" x2="933.743835" y2="1215.446045" style="stroke: green; stroke-width: 0.200000"/>
   <line x1="983.743835" y1="1214.446045" x2="933.743835" y2="1214.446045" style="stroke: green; stroke-width: 0.200000"/>
   <line x1="983.743835" y1="1213.446045" x2="933.743835" y2="1213.446045" style="stroke: green; stroke-width: 0.200000"/>
   <line x1="983.743835" y1="1212.446045" x2="933.743835" y2="1212.446045" style="stroke: green; stroke-width: 0.200000"/>
   <line x1="983.743835" y1="1211.446045" x2="933.743835" y2="1211.446045" style="stroke: green; stroke-width: 0.200000"/>
   <line x1="983.743835" y1="1210.446045" x2="933.743835" y2="1210.446045" style="stroke: green; stroke-width: 0.200000"/>
   <line x1="983.869690" y1="1228.446045" x2="983.843872" y2="1228.446045" style="stroke: green; stroke-width: 0.200000"/>
   <line x1="983.984741" y1="1227.446045" x2="983.843872" y2="1227.446045" style="stroke: green; stroke-width: 0.200000"/>
   <line x1="984.100037" y1="1226.446045" x2="983.843872" y2="1226.446045" style="stroke: green; stroke-width: 0.200000"/>
   <line x1="984.215149" y1="1225.446045" x2="983.843872" y2="1225.446045" style="stroke: green; stroke-width: 0.200000"/>
   <line x1="984.330322" y1="1224.446045" x2="983.843872" y2="1224.446045" style="stroke: green; stroke-width: 0.200000"/>
   <line x1="984.445312" y1="1223.446045" x2="983.843872" y2="1223.446045" style="stroke: green; stroke-width: 0.200000"/>
   <line x1="1002.472595" y1="1222.446045" x2="998.655884" y2="1222.446045" style="stroke: green; stroke-width: 0.200000"/>
   <line x1="984.560486" y1="1222.446045" x2="983.843872" y2="1222.446045" style="stroke: green; stroke-width: 0.200000"/>
   <line x1="1004.061157" y1="1221.446045" x2="983.843872" y2="1221.446045" style="stroke: green; stroke-width: 0.200000"/>
   <line x1="1005.598389" y1="1220.446045" x2="983.843872" y2="1220.446045" style="stroke: green; stroke-width: 0.200000"/>
   <line x1="1006.955322" y1="1219.446045" x2="983.843872" y2="1219.446045" style="stroke: green; stroke-width: 0.200000"/>
   <line x1="1006.487793" y1="1218.446045" x2="983.843872" y2="1218.446045" style="stroke: green; stroke-width: 0.200000"/>
   <line x1="1006.020386" y1="1217.446045" x2="983.843872" y2="1217.446045" style="stroke: green; stroke-width: 0.200000"/>
   <line x1="1005.557190" y1="1216.446045" x2="983.843872" y2="1216.446045" style="stroke: green; stroke-width: 0.200000"/>
   <line x1="1005.145813" y1="1215.446045" x2="983.843872" y2="1215.446045" style="stroke: green; stroke-width: 0.200000"/>
   <line x1="1004.734497" y1="1214.446045" x2="983.843872" y2="1214.446045" style="stroke: green; stroke-width: 0.200000"/>
   <line x1="1003.423584" y1="1213.446045" x2="983.843872" y2="1213.446045" style="stroke: green; stroke-width: 0.200000"/>
   <line x1="1001.500244" y1="1212.446045" x2="983.843872" y2="1212.446045" style="stroke: green; stroke-width: 0.200000"/>
   <line x1="999.575806" y1="1211.446045" x2="983.843872" y2="1211.446045" style="stroke: green; stroke-width: 0.200000"/>
   <line x1="997.546265" y1="1210.446045" x2="983.843872" y2="1210.446045" style="stroke: green; stroke-width: 0.200000"/>
   <line x1="1006.315186" y1="1233.675781" x2="1002.265259" y2="1233.675781" style="stroke: green; stroke-width: 0.200000"/>
   <line x1="1007.855347" y1="1232.675903" x2="997.731567" y2="1232.675903" style="stroke: green; stroke-width: 0.200000"/>
   <line x1="1009.395691" y1="1231.675903" x2="991.765076" y2="1231.675903" style="stroke: green; stroke-width: 0.200000"/>
   <line x1="1010.935913" y1="1230.675903" x2="985.994568" y2="1230.675903" style="stroke: green; stroke-width: 0.200000"/>
   <line x1="1012.021851" y1="1229.675903" x2="983.728333" y2="1229.675903" style="stroke: green; stroke-width: 0.200000"/>
   <line x1="1011.272461" y1="1228.675781" x2="983.843384" y2="1228.675781" style="stroke: green; stroke-width: 0.200000"/>
   <line x1="1010.522949" y1="1227.675903" x2="983.958374" y2="1227.675903" style="stroke: green; stroke-width: 0.200000"/>
   <line x1="1009.773499" y1="1226.675903" x2="984.073608" y2="1226.675903" style="stroke: green; stroke-width: 0.200000"/>
   <line x1="1009.229492" y1="1225.675903" x2="984.188843" y2="1225.675903" style="stroke: green; stroke-width: 0.200000"/>
   <line x1="1008.865723" y1="1224.675903" x2="984.303955" y2="1224.675903" style="stroke: green; stroke-width: 0.200000"/>
   <line x1="1008.502075" y1="1223.675781" x2="984.419006" y2="1223.675781" style="stroke: green; stroke-width: 0.200000"/>
   <line x1="1008.138306" y1="1222.675903" x2="1002.097839" y2="1222.675903" style="stroke: green; stroke-width: 0.200000"/>
   <line x1="999.697205" y1="1222.675903" x2="984.534058" y2="1222.675903" style="stroke: green; stroke-width: 0.200000"/>
   <line x1="1007.774597" y1="1221.675903" x2="1003.708008" y2="1221.675903" style="stroke: green; stroke-width: 0.200000"/>
   <line x1="987.429565" y1="1221.675903" x2="984.649170" y2="1221.675903" style="stroke: green; stroke-width: 0.200000"/>
   <line x1="1007.410828" y1="1220.675903" x2="1005.245300" y2="1220.675903" style="stroke: green; stroke-width: 0.200000"/>
   <line x1="1007.047058" y1="1219.675903" x2="1006.782227" y2="1219.675903" style="stroke: green; stroke-width: 0.200000"/>
   <line x1="845.582825" y1="1366.442993" x2="845.582581" y2="1366.442993" style="stroke: green; stroke-width: 0.200000"/>
   <line x1="918.639526" y1="1167.105713" x2="918.638855" y2="1167.105713" style="stroke: green; stroke-width: 0.200000"/>
   <path d="M 845.455  1370.28  838.308  1373.91  831.604  1367.58  830.739  1366.95  827.004  1357.55  825.477  1353.38  823.709  1348.27  821.273  1341.87  820.19  1338.55  817.698  1332.04  816.601  1328.4  813.9  1320.07  811.667  1312.05  810.548  1309.01  809.982  1307.9  " style="fill: none; stroke: darkmagenta; stroke-width: 0.200000; fill-type: evenodd"  fill-opacity="1.000000" />
   <path d="M 809.982  1307.9  809.835  1307.61  806.818  1299.39  804.036  1295.11  801.703  1290.98  797.147  1283.01  795.758  1280.78  795.592  1279.14  " style="fill: none; stroke: red; stroke-width: 0.200000; fill-type: evenodd"  fill-opacity="1.000000" />
   <path d="M 795.592  1279.14  794.781  1271.14  794.331  1265.45  795.633  1260.97  797.544  1251.34  797.842  1249.91  802.078  1240.52  802.766  1238.25  807.645  1232.5  809.309  1230.35  816.079  1226.88  817.315  1226.3  818.248  1226.62  826.102  1229.12  833.539  1239.54  833.975  1240.56  839.803  1255.46  840.497  1257.78  843.011  1267.34  844.614  1273.81  844.829  1275.37  846.326  1284.97  847.395  1294.58  847.953  1303.83  847.798  1307.33  847.962  1313.63  847.606  1318.12  847.665  1326.97  847.571  1328.83  847.585  1332.05  847.483  1338.17  847.65  1341.52  847.47  1347.6  847.865  1356.36  847.698  1358.14  846.956  1368.21  " style="fill: none; stroke: darkmagenta; stroke-width: 0.200000; fill-type: evenodd"  fill-opacity="1.000000" />
   <path d="M 846.956  1368.21  846.948  1368.32  846.837  1369.66  846.358  1369.82  845.455  1370.28  " style="fill: none; stroke: red; stroke-width: 0.200000; fill-type: evenodd"  fill-opacity="1.000000" />
   <path d="M 817.936  1227.57  825.481  1229.98  832.662  1240.04  833.049  1240.94  838.857  1255.79  839.534  1258.05  842.042  1267.59  843.631  1274  843.84  1275.52  845.334  1285.1  846.399  1294.67  846.951  1303.83  846.797  1307.32  846.961  1313.6  846.606  1318.08  846.665  1326.95  846.571  1328.81  846.585  1332.05  846.483  1338.19  846.649  1341.53  846.47  1347.61  846.863  1356.34  846.702  1358.05  845.951  1368.24  845.894  1368.94  838.483  1372.7  832.243  1366.81  831.562  1366.31  827.939  1357.19  826.419  1353.04  824.649  1347.93  822.216  1341.54  821.133  1338.21  818.645  1331.72  817.555  1328.1  814.858  1319.78  812.62  1311.74  811.466  1308.61  810.753  1307.21  807.718  1298.94  804.892  1294.59  802.572  1290.48  798.006  1282.5  796.729  1280.45  795.777  1271.05  795.342  1265.55  796.605  1261.21  798.524  1251.54  798.799  1250.22  803.016  1240.88  803.663  1238.74  808.422  1233.13  809.964  1231.14  816.519  1227.78  817.375  1227.38  817.936  1227.57  " style="fill: none; stroke: black; stroke-width: 0.200000; fill-type: evenodd"  fill-opacity="1.000000" />
   <path d="M 957.054  1229.37  950.309  1228.21  945.882  1227.49  941.069  1226.36  936.083  1224.71  932.361  1223.51  928.858  1221.92  924.388  1218.98  919.693  1215.95  915.915  1213.56  912.258  1211.3  907.822  1208.1  904.82  1205.72  899.853  1202  896.947  1198.81  892.243  1194.47  890.724  1192.42  886.882  1187.8  884.865  1182.93  883.009  1179.75  882.123  1175.29  882.651  1171.51  884.503  1166.03  889.503  1161.96  890.91  1160.68  899.569  1158.75  900.129  1158.65  909.902  1161  917.132  1163.79  918.319  1164.72  919.171  1165.55  924.932  1170.91  929.399  1176.51  931.105  1177.54  936.62  1182.22  942.64  1185.32  945.33  1186.85  947.707  1188.4  953.927  1191.22  957.185  1192.8  964.591  1195.68  967.146  1196.94  975.025  1199.74  978.574  1201.23  989.026  1205.04  998.896  1209.4  1005.75  1212.96  1006.97  1215.93  1008.38  1218.96  1010.76  1225.49  1012.84  1228.26  " style="fill: none; stroke: darkmagenta; stroke-width: 0.200000; fill-type: evenodd"  fill-opacity="1.000000" />
   <path d="M 1012.84  1228.26  1014.33  1230.26  1006.19  1235.55  1005.56  1235.94  995.065  1233.62  993.739  1233.56  987.086  1232.35  981.734  1231.56  976.721  1231.22  969.487  1230.56  968.486  1230.53  960.08  1229.65  957.57  1229.46  957.054  1229.37  " style="fill: none; stroke: red; stroke-width: 0.200000; fill-type: evenodd"  fill-opacity="1.000000" />
   <path d="M 993.469  1232.49  987.248  1231.37  981.842  1230.56  976.8  1230.22  969.55  1229.57  968.556  1229.53  960.17  1228.65  957.693  1228.46  950.475  1227.23  946.078  1226.51  941.341  1225.39  936.393  1223.76  932.722  1222.57  929.343  1221.04  924.935  1218.14  920.231  1215.1  916.445  1212.71  912.815  1210.47  908.426  1207.3  905.431  1204.92  900.528  1201.25  897.657  1198.1  892.99  1193.79  891.51  1191.8  887.748  1187.28  885.763  1182.48  883.957  1179.39  883.137  1175.26  883.629  1171.74  885.358  1166.62  890.155  1162.72  891.387  1161.6  899.769  1159.73  900.102  1159.67  909.603  1161.95  916.634  1164.67  917.66  1165.47  918.481  1166.28  924.196  1171.59  928.729  1177.27  930.519  1178.35  936.06  1183.05  942.163  1186.2  944.81  1187.7  947.225  1189.28  953.502  1192.12  956.785  1193.72  964.188  1196.6  966.756  1197.86  974.664  1200.68  978.21  1202.16  988.651  1205.97  998.463  1210.31  1004.96  1213.68  1006.05  1216.34  1007.46  1219.34  1009.87  1225.97  1012  1228.81  " style="fill: none; stroke: black; stroke-width: 0.200000; fill-type: evenodd"  fill-opacity="1.000000" />
   <path d="M 1012  1228.81  1012.89  1230  1005.66  1234.71  1005.38  1234.88  995.199  1232.63  993.854  1232.56  993.469  1232.49  " style="fill: none; stroke: red; stroke-width: 0.200000; fill-type: evenodd"  fill-opacity="1.000000" />
</svg>
