<?xml version="1.0" encoding="UTF-8" standalone="yes"?>
<!DOCTYPE svg PUBLIC "-//W3C//DTD SVG 1.0//EN" "http://www.w3.org/TR/2001/REC-SVG-20010904/DTD/svg10.dtd">
<svg height="2000" width="2000" xmlns="http://www.w3.org/2000/svg" xmlns:svg="http://www.w3.org/2000/svg" xmlns:xlink="http://www.w3.org/1999/xlink">
   <marker id="endArrow" markerHeight="8" markerUnits="strokeWidth" markerWidth="10" orient="auto" refX="1" refY="5" viewBox="0 0 1000 1000">
      <polyline fill="darkblue" points="0,0 10,5 0,10 1,5" />
   </marker>
   <circle cx="1000" cy="1000" r="1" style="stroke:black; fill: red" />
   <circle cx="1000" cy="1000" r="800" style="stroke:black; fill: none" />
   <path d="M 1000.55  1102.51  1002.24  1103.61  1003.57  1105.13  1004.4  1106.97  1004.69  1108.96  1004.4  1110.96  1003.57  1112.8  1002.24  1114.32  1000.55  1115.41  998.61  1115.98  996.592  1115.98  994.655  1115.41  992.957  1114.32  991.636  1112.8  990.797  1110.96  990.51  1108.96  990.797  1106.97  991.636  1105.13  992.957  1103.61  994.655  1102.51  996.592  1101.95  998.61  1101.95  1000.55  1102.51  " style="fill: none; stroke: purple; stroke-width: 0.500000; fill-type: evenodd"  fill-opacity="1.000000" />
   <path d="M 1020.15  1082.46  1021.96  1083.5  1023.37  1085.03  1024.28  1086.91  1024.59  1088.96  1024.28  1091.02  1023.37  1092.9  1021.96  1094.43  1020.15  1095.47  1018.12  1095.93  1016.05  1095.78  1014.11  1095.02  1012.48  1093.72  1011.31  1092  1010.69  1090.01  1010.69  1087.92  1011.31  1085.93  1012.48  1084.21  1014.11  1082.91  1016.05  1082.15  1018.12  1082  1020.15  1082.46  " style="fill: none; stroke: purple; stroke-width: 0.500000; fill-type: evenodd"  fill-opacity="1.000000" />
   <path d="M 939.541  1082.99  941.291  1083.89  942.68  1085.27  943.571  1087.02  943.879  1088.96  943.571  1090.9  942.68  1092.65  941.291  1094.04  939.541  1094.94  937.601  1095.24  935.661  1094.94  933.911  1094.04  932.522  1092.65  931.63  1090.9  931.323  1088.96  931.63  1087.02  932.522  1085.27  933.911  1083.89  935.661  1082.99  937.601  1082.69  939.541  1082.99  " style="fill: none; stroke: purple; stroke-width: 0.500000; fill-type: evenodd"  fill-opacity="1.000000" />
   <path d="M 999.541  1082.99  1001.29  1083.89  1002.68  1085.27  1003.57  1087.02  1003.88  1088.96  1003.57  1090.9  1002.68  1092.65  1001.29  1094.04  999.541  1094.94  997.601  1095.24  995.661  1094.94  993.911  1094.04  992.522  1092.65  991.63  1090.9  991.323  1088.96  991.63  1087.02  992.522  1085.27  993.911  1083.89  995.661  1082.99  997.601  1082.69  999.541  1082.99  " style="fill: none; stroke: purple; stroke-width: 0.500000; fill-type: evenodd"  fill-opacity="1.000000" />
   <path d="M 979.037  1083.29  980.802  1084.07  982.219  1085.37  983.136  1087.06  983.453  1088.96  983.136  1090.86  982.219  1092.56  980.802  1093.86  979.037  1094.64  977.118  1094.8  975.25  1094.32  973.638  1093.27  972.454  1091.75  971.829  1089.93  971.829  1088  972.454  1086.18  973.638  1084.66  975.25  1083.61  977.118  1083.13  979.037  1083.29  " style="fill: none; stroke: purple; stroke-width: 0.500000; fill-type: evenodd"  fill-opacity="1.000000" />
   <path d="M 958.96  1083.6  960.628  1084.33  961.969  1085.57  962.836  1087.17  963.136  1088.96  962.836  1090.76  961.969  1092.36  960.628  1093.6  958.96  1094.33  957.144  1094.48  955.378  1094.03  953.852  1093.04  952.733  1091.6  952.141  1089.88  952.141  1088.05  952.733  1086.33  953.852  1084.89  955.378  1083.9  957.144  1083.45  958.96  1083.6  " style="fill: none; stroke: purple; stroke-width: 0.500000; fill-type: evenodd"  fill-opacity="1.000000" />
   <path d="M 1039.14  1061.57  1041.08  1062.26  1042.76  1063.44  1044.06  1065.04  1044.88  1066.93  1045.16  1068.96  1044.88  1071  1044.06  1072.89  1042.76  1074.49  1041.08  1075.67  1039.14  1076.36  1037.09  1076.5  1035.07  1076.08  1033.24  1075.14  1031.74  1073.73  1030.67  1071.97  1030.12  1069.99  1030.12  1067.94  1030.67  1065.95  1031.74  1064.2  1033.24  1062.79  1035.07  1061.85  1037.09  1061.43  1039.14  1061.57  " style="fill: none; stroke: purple; stroke-width: 0.500000; fill-type: evenodd"  fill-opacity="1.000000" />
   <path d="M 1020.07  1062.66  1021.82  1063.67  1023.19  1065.15  1024.07  1066.97  1024.37  1068.96  1024.07  1070.96  1023.19  1072.78  1021.82  1074.26  1020.07  1075.27  1018.11  1075.72  1016.09  1075.56  1014.22  1074.83  1012.64  1073.57  1011.5  1071.9  1010.91  1069.97  1010.91  1067.96  1011.5  1066.03  1012.64  1064.36  1014.22  1063.1  1016.09  1062.37  1018.11  1062.21  1020.07  1062.66  " style="fill: none; stroke: purple; stroke-width: 0.500000; fill-type: evenodd"  fill-opacity="1.000000" />
   <path d="M 999.037  1063.29  1000.8  1064.07  1002.22  1065.37  1003.14  1067.06  1003.45  1068.96  1003.14  1070.86  1002.22  1072.56  1000.8  1073.86  999.037  1074.64  997.118  1074.8  995.25  1074.32  993.638  1073.27  992.454  1071.75  991.829  1069.93  991.829  1068  992.454  1066.18  993.638  1064.66  995.25  1063.61  997.118  1063.13  999.037  1063.29  " style="fill: none; stroke: purple; stroke-width: 0.500000; fill-type: evenodd"  fill-opacity="1.000000" />
   <path d="M 918.96  1063.6  920.628  1064.33  921.969  1065.57  922.836  1067.17  923.136  1068.96  922.836  1070.76  921.969  1072.36  920.628  1073.6  918.96  1074.33  917.144  1074.48  915.378  1074.03  913.852  1073.04  912.733  1071.6  912.141  1069.88  912.141  1068.05  912.733  1066.33  913.852  1064.89  915.378  1063.9  917.144  1063.45  918.96  1063.6  " style="fill: none; stroke: purple; stroke-width: 0.500000; fill-type: evenodd"  fill-opacity="1.000000" />
   <path d="M 980.283  1064.32  981.711  1065.52  982.642  1067.13  982.966  1068.96  982.642  1070.8  981.711  1072.41  980.283  1073.61  978.532  1074.25  976.669  1074.25  974.918  1073.61  973.491  1072.41  972.559  1070.8  972.236  1068.96  972.559  1067.13  973.491  1065.52  974.918  1064.32  976.669  1063.68  978.532  1063.68  980.283  1064.32  " style="fill: none; stroke: purple; stroke-width: 0.500000; fill-type: evenodd"  fill-opacity="1.000000" />
   <path d="M 960.194  1064.47  961.574  1065.63  962.475  1067.19  962.788  1068.96  962.475  1070.74  961.574  1072.3  960.194  1073.46  958.502  1074.07  956.7  1074.07  955.007  1073.46  953.627  1072.3  952.727  1070.74  952.414  1068.96  952.727  1067.19  953.627  1065.63  955.007  1064.47  956.7  1063.86  958.502  1063.86  960.194  1064.47  " style="fill: none; stroke: purple; stroke-width: 0.500000; fill-type: evenodd"  fill-opacity="1.000000" />
   <path d="M 940.101  1064.63  941.431  1065.75  942.299  1067.25  942.601  1068.96  942.299  1070.67  941.431  1072.18  940.101  1073.29  938.469  1073.89  936.733  1073.89  935.101  1073.29  933.771  1072.18  932.902  1070.67  932.601  1068.96  932.902  1067.25  933.771  1065.75  935.101  1064.63  936.733  1064.04  938.469  1064.04  940.101  1064.63  " style="fill: none; stroke: purple; stroke-width: 0.500000; fill-type: evenodd"  fill-opacity="1.000000" />
   <path d="M 1059.14  1041.57  1061.08  1042.26  1062.76  1043.44  1064.06  1045.04  1064.88  1046.93  1065.16  1048.96  1064.88  1051  1064.06  1052.89  1062.76  1054.49  1061.08  1055.67  1059.14  1056.36  1057.09  1056.5  1055.07  1056.08  1053.24  1055.14  1051.74  1053.73  1050.67  1051.97  1050.12  1049.99  1050.12  1047.94  1050.67  1045.95  1051.74  1044.2  1053.24  1042.79  1055.07  1041.85  1057.09  1041.43  1059.14  1041.57  " style="fill: none; stroke: purple; stroke-width: 0.500000; fill-type: evenodd"  fill-opacity="1.000000" />
   <path d="M 1040.59  1042.42  1042.31  1043.53  1043.65  1045.08  1044.5  1046.94  1044.79  1048.96  1044.5  1050.99  1043.65  1052.85  1042.31  1054.4  1040.59  1055.51  1038.62  1056.08  1036.58  1056.08  1034.61  1055.51  1032.89  1054.4  1031.55  1052.85  1030.7  1050.99  1030.41  1048.96  1030.7  1046.94  1031.55  1045.08  1032.89  1043.53  1034.61  1042.42  1036.58  1041.85  1038.62  1041.85  1040.59  1042.42  " style="fill: none; stroke: purple; stroke-width: 0.500000; fill-type: evenodd"  fill-opacity="1.000000" />
   <path d="M 1020.11  1042.56  1021.89  1043.59  1023.29  1045.09  1024.18  1046.94  1024.48  1048.96  1024.18  1050.99  1023.29  1052.84  1021.89  1054.34  1020.11  1055.37  1018.12  1055.83  1016.07  1055.67  1014.16  1054.92  1012.56  1053.64  1011.4  1051.95  1010.8  1049.99  1010.8  1047.94  1011.4  1045.98  1012.56  1044.28  1014.16  1043.01  1016.07  1042.26  1018.12  1042.1  1020.11  1042.56  " style="fill: none; stroke: purple; stroke-width: 0.500000; fill-type: evenodd"  fill-opacity="1.000000" />
   <path d="M 999.541  1042.99  1001.29  1043.89  1002.68  1045.27  1003.57  1047.02  1003.88  1048.96  1003.57  1050.9  1002.68  1052.65  1001.29  1054.04  999.541  1054.94  997.601  1055.24  995.661  1054.94  993.911  1054.04  992.522  1052.65  991.63  1050.9  991.323  1048.96  991.63  1047.02  992.522  1045.27  993.911  1043.89  995.661  1042.99  997.601  1042.69  999.541  1042.99  " style="fill: none; stroke: purple; stroke-width: 0.500000; fill-type: evenodd"  fill-opacity="1.000000" />
   <path d="M 899.455  1043.26  901.128  1044.11  902.455  1045.44  903.307  1047.11  903.601  1048.96  903.307  1050.82  902.455  1052.49  901.128  1053.82  899.455  1054.67  897.601  1054.96  895.747  1054.67  894.074  1053.82  892.747  1052.49  891.895  1050.82  891.601  1048.96  891.895  1047.11  892.747  1045.44  894.074  1044.11  895.747  1043.26  897.601  1042.96  899.455  1043.26  " style="fill: none; stroke: purple; stroke-width: 0.500000; fill-type: evenodd"  fill-opacity="1.000000" />
   <path d="M 978.96  1043.6  980.628  1044.33  981.969  1045.57  982.836  1047.17  983.136  1048.96  982.836  1050.76  981.969  1052.36  980.628  1053.6  978.96  1054.33  977.144  1054.48  975.378  1054.03  973.852  1053.04  972.733  1051.6  972.141  1049.88  972.141  1048.05  972.733  1046.33  973.852  1044.89  975.378  1043.9  977.144  1043.45  978.96  1043.6  " style="fill: none; stroke: purple; stroke-width: 0.500000; fill-type: evenodd"  fill-opacity="1.000000" />
   <path d="M 920.283  1044.32  921.711  1045.52  922.642  1047.13  922.966  1048.96  922.642  1050.8  921.711  1052.41  920.283  1053.61  918.532  1054.25  916.669  1054.25  914.918  1053.61  913.491  1052.41  912.559  1050.8  912.236  1048.96  912.559  1047.13  913.491  1045.52  914.918  1044.32  916.669  1043.68  918.532  1043.68  920.283  1044.32  " style="fill: none; stroke: purple; stroke-width: 0.500000; fill-type: evenodd"  fill-opacity="1.000000" />
   <path d="M 960.101  1044.63  961.431  1045.75  962.299  1047.25  962.601  1048.96  962.299  1050.67  961.431  1052.18  960.101  1053.29  958.469  1053.89  956.733  1053.89  955.101  1053.29  953.771  1052.18  952.902  1050.67  952.601  1048.96  952.902  1047.25  953.771  1045.75  955.101  1044.63  956.733  1044.04  958.469  1044.04  960.101  1044.63  " style="fill: none; stroke: purple; stroke-width: 0.500000; fill-type: evenodd"  fill-opacity="1.000000" />
   <path d="M 940.101  1044.63  941.431  1045.75  942.299  1047.25  942.601  1048.96  942.299  1050.67  941.431  1052.18  940.101  1053.29  938.469  1053.89  936.733  1053.89  935.101  1053.29  933.771  1052.18  932.902  1050.67  932.601  1048.96  932.902  1047.25  933.771  1045.75  935.101  1044.63  936.733  1044.04  938.469  1044.04  940.101  1044.63  " style="fill: none; stroke: purple; stroke-width: 0.500000; fill-type: evenodd"  fill-opacity="1.000000" />
   <path d="M 1100.67  1022.25  1102.43  1023.39  1103.81  1024.98  1104.68  1026.89  1104.98  1028.96  1104.68  1031.04  1103.81  1032.95  1102.43  1034.54  1100.67  1035.68  1098.65  1036.27  1096.55  1036.27  1094.54  1035.68  1092.77  1034.54  1091.39  1032.95  1090.52  1031.04  1090.22  1028.96  1090.52  1026.89  1091.39  1024.98  1092.77  1023.39  1094.54  1022.25  1096.55  1021.66  1098.65  1021.66  1100.67  1022.25  " style="fill: none; stroke: purple; stroke-width: 0.500000; fill-type: evenodd"  fill-opacity="1.000000" />
   <path d="M 1080.07  1022.66  1081.82  1023.67  1083.19  1025.15  1084.07  1026.97  1084.37  1028.96  1084.07  1030.96  1083.19  1032.78  1081.82  1034.26  1080.07  1035.27  1078.11  1035.72  1076.09  1035.56  1074.22  1034.83  1072.64  1033.57  1071.5  1031.9  1070.91  1029.97  1070.91  1027.96  1071.5  1026.03  1072.64  1024.36  1074.22  1023.1  1076.09  1022.37  1078.11  1022.21  1080.07  1022.66  " style="fill: none; stroke: purple; stroke-width: 0.500000; fill-type: evenodd"  fill-opacity="1.000000" />
   <path d="M 1040.07  1022.66  1041.82  1023.67  1043.19  1025.15  1044.07  1026.97  1044.37  1028.96  1044.07  1030.96  1043.19  1032.78  1041.82  1034.26  1040.07  1035.27  1038.11  1035.72  1036.09  1035.56  1034.22  1034.83  1032.64  1033.57  1031.5  1031.9  1030.91  1029.97  1030.91  1027.96  1031.5  1026.03  1032.64  1024.36  1034.22  1023.1  1036.09  1022.37  1038.11  1022.21  1040.07  1022.66  " style="fill: none; stroke: purple; stroke-width: 0.500000; fill-type: evenodd"  fill-opacity="1.000000" />
   <path d="M 1060.07  1022.66  1061.82  1023.67  1063.19  1025.15  1064.07  1026.97  1064.37  1028.96  1064.07  1030.96  1063.19  1032.78  1061.82  1034.26  1060.07  1035.27  1058.11  1035.72  1056.09  1035.56  1054.22  1034.83  1052.64  1033.57  1051.5  1031.9  1050.91  1029.97  1050.91  1027.96  1051.5  1026.03  1052.64  1024.36  1054.22  1023.1  1056.09  1022.37  1058.11  1022.21  1060.07  1022.66  " style="fill: none; stroke: purple; stroke-width: 0.500000; fill-type: evenodd"  fill-opacity="1.000000" />
   <path d="M 899.581  1022.87  901.367  1023.78  902.785  1025.2  903.695  1026.98  904.009  1028.96  903.695  1030.95  902.785  1032.73  901.367  1034.15  899.581  1035.06  897.601  1035.37  895.621  1035.06  893.834  1034.15  892.417  1032.73  891.506  1030.95  891.193  1028.96  891.506  1026.98  892.417  1025.2  893.834  1023.78  895.621  1022.87  897.601  1022.56  899.581  1022.87  " style="fill: none; stroke: purple; stroke-width: 0.500000; fill-type: evenodd"  fill-opacity="1.000000" />
   <path d="M 979.499  1023.12  981.211  1024  982.57  1025.35  983.442  1027.07  983.743  1028.96  983.442  1030.86  982.57  1032.57  981.211  1033.93  979.499  1034.81  977.601  1035.11  975.703  1034.81  973.991  1033.93  972.632  1032.57  971.76  1030.86  971.459  1028.96  971.76  1027.07  972.632  1025.35  973.991  1024  975.703  1023.12  977.601  1022.82  979.499  1023.12  " style="fill: none; stroke: purple; stroke-width: 0.500000; fill-type: evenodd"  fill-opacity="1.000000" />
   <path d="M 958.999  1023.44  960.717  1024.2  962.097  1025.47  962.989  1027.11  963.298  1028.96  962.989  1030.81  962.097  1032.46  960.717  1033.73  958.999  1034.49  957.13  1034.64  955.312  1034.18  953.742  1033.16  952.591  1031.68  951.982  1029.9  951.982  1028.03  952.591  1026.25  953.742  1024.77  955.312  1023.75  957.13  1023.29  958.999  1023.44  " style="fill: none; stroke: purple; stroke-width: 0.500000; fill-type: evenodd"  fill-opacity="1.000000" />
   <path d="M 918.999  1023.44  920.717  1024.2  922.097  1025.47  922.989  1027.11  923.298  1028.96  922.989  1030.81  922.097  1032.46  920.717  1033.73  918.999  1034.49  917.13  1034.64  915.312  1034.18  913.742  1033.16  912.591  1031.68  911.982  1029.9  911.982  1028.03  912.591  1026.25  913.742  1024.77  915.312  1023.75  917.13  1023.29  918.999  1023.44  " style="fill: none; stroke: purple; stroke-width: 0.500000; fill-type: evenodd"  fill-opacity="1.000000" />
   <path d="M 940.283  1024.32  941.711  1025.52  942.642  1027.13  942.966  1028.96  942.642  1030.8  941.711  1032.41  940.283  1033.61  938.532  1034.25  936.669  1034.25  934.918  1033.61  933.491  1032.41  932.559  1030.8  932.236  1028.96  932.559  1027.13  933.491  1025.52  934.918  1024.32  936.669  1023.68  938.532  1023.68  940.283  1024.32  " style="fill: none; stroke: purple; stroke-width: 0.500000; fill-type: evenodd"  fill-opacity="1.000000" />
   <path d="M 900.547  1002.51  902.244  1003.61  903.566  1005.13  904.405  1006.97  904.692  1008.96  904.405  1010.96  903.566  1012.8  902.244  1014.32  900.547  1015.41  898.61  1015.98  896.592  1015.98  894.655  1015.41  892.957  1014.32  891.636  1012.8  890.797  1010.96  890.51  1008.96  890.797  1006.97  891.636  1005.13  892.957  1003.61  894.655  1002.51  896.592  1001.95  898.61  1001.95  900.547  1002.51  " style="fill: none; stroke: purple; stroke-width: 0.500000; fill-type: evenodd"  fill-opacity="1.000000" />
   <path d="M 1100.03  1002.77  1101.75  1003.76  1103.1  1005.22  1103.96  1007  1104.25  1008.96  1103.96  1010.93  1103.1  1012.71  1101.75  1014.17  1100.03  1015.16  1098.1  1015.6  1096.12  1015.45  1094.27  1014.73  1092.72  1013.49  1091.61  1011.85  1091.02  1009.96  1091.02  1007.97  1091.61  1006.08  1092.72  1004.44  1094.27  1003.2  1096.12  1002.48  1098.1  1002.33  1100.03  1002.77  " style="fill: none; stroke: purple; stroke-width: 0.500000; fill-type: evenodd"  fill-opacity="1.000000" />
   <path d="M 959.988  1002.88  961.674  1003.86  962.999  1005.28  963.844  1007.04  964.134  1008.96  963.844  1010.89  962.999  1012.65  961.674  1014.07  959.988  1015.05  958.089  1015.48  956.147  1015.33  954.334  1014.62  952.812  1013.41  951.715  1011.8  951.141  1009.94  951.141  1007.99  951.715  1006.13  952.812  1004.52  954.334  1003.31  956.147  1002.6  958.089  1002.45  959.988  1002.88  " style="fill: none; stroke: purple; stroke-width: 0.500000; fill-type: evenodd"  fill-opacity="1.000000" />
   <path d="M 939.541  1002.99  941.291  1003.89  942.68  1005.27  943.571  1007.02  943.879  1008.96  943.571  1010.9  942.68  1012.65  941.291  1014.04  939.541  1014.94  937.601  1015.24  935.661  1014.94  933.911  1014.04  932.522  1012.65  931.63  1010.9  931.323  1008.96  931.63  1007.02  932.522  1005.27  933.911  1003.89  935.661  1002.99  937.601  1002.69  939.541  1002.99  " style="fill: none; stroke: purple; stroke-width: 0.500000; fill-type: evenodd"  fill-opacity="1.000000" />
   <path d="M 919.541  1002.99  921.291  1003.89  922.68  1005.27  923.571  1007.02  923.879  1008.96  923.571  1010.9  922.68  1012.65  921.291  1014.04  919.541  1014.94  917.601  1015.24  915.661  1014.94  913.911  1014.04  912.522  1012.65  911.63  1010.9  911.323  1008.96  911.63  1007.02  912.522  1005.27  913.911  1003.89  915.661  1002.99  917.601  1002.69  919.541  1002.99  " style="fill: none; stroke: purple; stroke-width: 0.500000; fill-type: evenodd"  fill-opacity="1.000000" />
   <path d="M 1039.5  1003.12  1041.21  1004  1042.57  1005.35  1043.44  1007.07  1043.74  1008.96  1043.44  1010.86  1042.57  1012.57  1041.21  1013.93  1039.5  1014.81  1037.6  1015.11  1035.7  1014.81  1033.99  1013.93  1032.63  1012.57  1031.76  1010.86  1031.46  1008.96  1031.76  1007.07  1032.63  1005.35  1033.99  1004  1035.7  1003.12  1037.6  1002.82  1039.5  1003.12  " style="fill: none; stroke: purple; stroke-width: 0.500000; fill-type: evenodd"  fill-opacity="1.000000" />
   <path d="M 1079.45  1003.26  1081.13  1004.11  1082.45  1005.44  1083.31  1007.11  1083.6  1008.96  1083.31  1010.82  1082.45  1012.49  1081.13  1013.82  1079.45  1014.67  1077.6  1014.96  1075.75  1014.67  1074.07  1013.82  1072.75  1012.49  1071.89  1010.82  1071.6  1008.96  1071.89  1007.11  1072.75  1005.44  1074.07  1004.11  1075.75  1003.26  1077.6  1002.96  1079.45  1003.26  " style="fill: none; stroke: purple; stroke-width: 0.500000; fill-type: evenodd"  fill-opacity="1.000000" />
   <path d="M 1059.04  1003.29  1060.8  1004.07  1062.22  1005.37  1063.14  1007.06  1063.45  1008.96  1063.14  1010.86  1062.22  1012.56  1060.8  1013.86  1059.04  1014.64  1057.12  1014.8  1055.25  1014.32  1053.64  1013.27  1052.45  1011.75  1051.83  1009.93  1051.83  1008  1052.45  1006.18  1053.64  1004.66  1055.25  1003.61  1057.12  1003.13  1059.04  1003.29  " style="fill: none; stroke: purple; stroke-width: 0.500000; fill-type: evenodd"  fill-opacity="1.000000" />
   <path d="M 940.704  982.171  942.492  983.32  943.884  984.927  944.767  986.861  945.07  988.965  944.767  991.069  943.884  993.003  942.492  994.609  940.704  995.759  938.664  996.358  936.538  996.358  934.498  995.759  932.71  994.609  931.318  993.003  930.435  991.069  930.132  988.965  930.435  986.861  931.318  984.927  932.71  983.32  934.498  982.171  936.538  981.572  938.664  981.572  940.704  982.171  " style="fill: none; stroke: purple; stroke-width: 0.500000; fill-type: evenodd"  fill-opacity="1.000000" />
   <path d="M 1099.5  983.124  1101.21  983.996  1102.57  985.355  1103.44  987.067  1103.74  988.965  1103.44  990.863  1102.57  992.575  1101.21  993.934  1099.5  994.806  1097.6  995.107  1095.7  994.806  1093.99  993.934  1092.63  992.575  1091.76  990.863  1091.46  988.965  1091.76  987.067  1092.63  985.355  1093.99  983.996  1095.7  983.124  1097.6  982.823  1099.5  983.124  " style="fill: none; stroke: purple; stroke-width: 0.500000; fill-type: evenodd"  fill-opacity="1.000000" />
   <path d="M 1019.5  983.124  1021.21  983.996  1022.57  985.355  1023.44  987.067  1023.74  988.965  1023.44  990.863  1022.57  992.575  1021.21  993.934  1019.5  994.806  1017.6  995.107  1015.7  994.806  1013.99  993.934  1012.63  992.575  1011.76  990.863  1011.46  988.965  1011.76  987.067  1012.63  985.355  1013.99  983.996  1015.7  983.124  1017.6  982.823  1019.5  983.124  " style="fill: none; stroke: purple; stroke-width: 0.500000; fill-type: evenodd"  fill-opacity="1.000000" />
   <path d="M 1078.96  983.599  1080.63  984.331  1081.97  985.565  1082.84  987.168  1083.14  988.965  1082.84  990.762  1081.97  992.364  1080.63  993.598  1078.96  994.33  1077.14  994.481  1075.38  994.034  1073.85  993.037  1072.73  991.599  1072.14  989.876  1072.14  988.054  1072.73  986.331  1073.85  984.893  1075.38  983.896  1077.14  983.449  1078.96  983.599  " style="fill: none; stroke: purple; stroke-width: 0.500000; fill-type: evenodd"  fill-opacity="1.000000" />
   <path d="M 1040.28  984.318  1041.71  985.516  1042.64  987.13  1042.97  988.965  1042.64  990.8  1041.71  992.413  1040.28  993.611  1038.53  994.248  1036.67  994.248  1034.92  993.611  1033.49  992.413  1032.56  990.8  1032.24  988.965  1032.56  987.13  1033.49  985.516  1034.92  984.318  1036.67  983.681  1038.53  983.681  1040.28  984.318  " style="fill: none; stroke: purple; stroke-width: 0.500000; fill-type: evenodd"  fill-opacity="1.000000" />
   <path d="M 1060.19  984.473  1061.57  985.631  1062.48  987.191  1062.79  988.965  1062.48  990.739  1061.57  992.299  1060.19  993.457  1058.5  994.073  1056.7  994.073  1055.01  993.457  1053.63  992.299  1052.73  990.739  1052.41  988.965  1052.73  987.191  1053.63  985.631  1055.01  984.473  1056.7  983.857  1058.5  983.857  1060.19  984.473  " style="fill: none; stroke: purple; stroke-width: 0.500000; fill-type: evenodd"  fill-opacity="1.000000" />
   <path d="M 959.745  960.961  961.744  961.789  963.46  963.106  964.777  964.822  965.604  966.82  965.887  968.965  965.604  971.109  964.777  973.108  963.46  974.824  961.744  976.14  959.745  976.968  957.601  977.25  955.456  976.968  953.458  976.14  951.742  974.824  950.425  973.108  949.597  971.109  949.315  968.965  949.597  966.82  950.425  964.822  951.742  963.106  953.458  961.789  955.456  960.961  957.601  960.679  959.745  960.961  " style="fill: none; stroke: purple; stroke-width: 0.500000; fill-type: evenodd"  fill-opacity="1.000000" />
   <path d="M 999.581  962.87  1001.37  963.781  1002.79  965.198  1003.7  966.985  1004.01  968.965  1003.7  970.945  1002.79  972.731  1001.37  974.149  999.581  975.059  997.601  975.373  995.621  975.059  993.834  974.149  992.417  972.731  991.506  970.945  991.193  968.965  991.506  966.985  992.417  965.198  993.834  963.781  995.621  962.87  997.601  962.557  999.581  962.87  " style="fill: none; stroke: purple; stroke-width: 0.500000; fill-type: evenodd"  fill-opacity="1.000000" />
   <path d="M 1018.96  963.599  1020.63  964.331  1021.97  965.565  1022.84  967.168  1023.14  968.965  1022.84  970.762  1021.97  972.364  1020.63  973.598  1018.96  974.33  1017.14  974.481  1015.38  974.034  1013.85  973.037  1012.73  971.599  1012.14  969.876  1012.14  968.054  1012.73  966.331  1013.85  964.893  1015.38  963.896  1017.14  963.449  1018.96  963.599  " style="fill: none; stroke: purple; stroke-width: 0.500000; fill-type: evenodd"  fill-opacity="1.000000" />
   <path d="M 1080.19  964.473  1081.57  965.631  1082.48  967.191  1082.79  968.965  1082.48  970.739  1081.57  972.299  1080.19  973.457  1078.5  974.073  1076.7  974.073  1075.01  973.457  1073.63  972.299  1072.73  970.739  1072.41  968.965  1072.73  967.191  1073.63  965.631  1075.01  964.473  1076.7  963.857  1078.5  963.857  1080.19  964.473  " style="fill: none; stroke: purple; stroke-width: 0.500000; fill-type: evenodd"  fill-opacity="1.000000" />
   <path d="M 1060.1  964.635  1061.43  965.751  1062.3  967.255  1062.6  968.965  1062.3  970.675  1061.43  972.179  1060.1  973.295  1058.47  973.889  1056.73  973.889  1055.1  973.295  1053.77  972.179  1052.9  970.675  1052.6  968.965  1052.9  967.255  1053.77  965.751  1055.1  964.635  1056.73  964.041  1058.47  964.041  1060.1  964.635  " style="fill: none; stroke: purple; stroke-width: 0.500000; fill-type: evenodd"  fill-opacity="1.000000" />
   <path d="M 1039.74  964.665  1041.15  965.729  1042.08  967.23  1042.4  968.965  1042.08  970.7  1041.15  972.201  1039.74  973.265  1038.04  973.748  1036.29  973.585  1034.71  972.798  1033.52  971.493  1032.88  969.847  1032.88  968.082  1033.52  966.436  1034.71  965.132  1036.29  964.345  1038.04  964.182  1039.74  964.665  " style="fill: none; stroke: purple; stroke-width: 0.500000; fill-type: evenodd"  fill-opacity="1.000000" />
   <path d="M 980.666  942.252  982.433  943.388  983.809  944.975  984.681  946.886  984.98  948.965  984.681  951.044  983.809  952.954  982.433  954.542  980.666  955.677  978.651  956.269  976.551  956.269  974.535  955.677  972.768  954.542  971.393  952.954  970.521  951.044  970.222  948.965  970.521  946.886  971.393  944.975  972.768  943.388  974.535  942.252  976.551  941.661  978.651  941.661  980.666  942.252  " style="fill: none; stroke: purple; stroke-width: 0.500000; fill-type: evenodd"  fill-opacity="1.000000" />
   <path d="M 999.499  943.124  1001.21  943.996  1002.57  945.355  1003.44  947.067  1003.74  948.965  1003.44  950.863  1002.57  952.575  1001.21  953.934  999.499  954.806  997.601  955.107  995.703  954.806  993.991  953.934  992.632  952.575  991.76  950.863  991.459  948.965  991.76  947.067  992.632  945.355  993.991  943.996  995.703  943.124  997.601  942.823  999.499  943.124  " style="fill: none; stroke: purple; stroke-width: 0.500000; fill-type: evenodd"  fill-opacity="1.000000" />
   <path d="M 1079  943.442  1080.72  944.195  1082.1  945.466  1082.99  947.115  1083.3  948.965  1082.99  950.815  1082.1  952.464  1080.72  953.734  1079  954.487  1077.13  954.642  1075.31  954.182  1073.74  953.156  1072.59  951.676  1071.98  949.902  1071.98  948.027  1072.59  946.253  1073.74  944.773  1075.31  943.748  1077.13  943.287  1079  943.442  " style="fill: none; stroke: purple; stroke-width: 0.500000; fill-type: evenodd"  fill-opacity="1.000000" />
   <path d="M 1020.19  944.473  1021.57  945.631  1022.48  947.191  1022.79  948.965  1022.48  950.739  1021.57  952.299  1020.19  953.457  1018.5  954.073  1016.7  954.073  1015.01  953.457  1013.63  952.299  1012.73  950.739  1012.41  948.965  1012.73  947.191  1013.63  945.631  1015.01  944.473  1016.7  943.857  1018.5  943.857  1020.19  944.473  " style="fill: none; stroke: purple; stroke-width: 0.500000; fill-type: evenodd"  fill-opacity="1.000000" />
   <path d="M 1060.1  944.635  1061.43  945.751  1062.3  947.255  1062.6  948.965  1062.3  950.675  1061.43  952.179  1060.1  953.295  1058.47  953.889  1056.73  953.889  1055.1  953.295  1053.77  952.179  1052.9  950.675  1052.6  948.965  1052.9  947.255  1053.77  945.751  1055.1  944.635  1056.73  944.041  1058.47  944.041  1060.1  944.635  " style="fill: none; stroke: purple; stroke-width: 0.500000; fill-type: evenodd"  fill-opacity="1.000000" />
   <path d="M 1039.74  944.665  1041.15  945.729  1042.08  947.23  1042.4  948.965  1042.08  950.7  1041.15  952.201  1039.74  953.265  1038.04  953.748  1036.29  953.585  1034.71  952.798  1033.52  951.493  1032.88  949.847  1032.88  948.082  1033.52  946.436  1034.71  945.132  1036.29  944.345  1038.04  944.182  1039.74  944.665  " style="fill: none; stroke: purple; stroke-width: 0.500000; fill-type: evenodd"  fill-opacity="1.000000" />
   <path d="M 999.541  922.994  1001.29  923.886  1002.68  925.275  1003.57  927.025  1003.88  928.965  1003.57  930.905  1002.68  932.655  1001.29  934.044  999.541  934.935  997.601  935.243  995.661  934.935  993.911  934.044  992.522  932.655  991.63  930.905  991.323  928.965  991.63  927.025  992.522  925.275  993.911  923.886  995.661  922.994  997.601  922.687  999.541  922.994  " style="fill: none; stroke: purple; stroke-width: 0.500000; fill-type: evenodd"  fill-opacity="1.000000" />
   <path d="M 1058.96  923.599  1060.63  924.331  1061.97  925.565  1062.84  927.168  1063.14  928.965  1062.84  930.762  1061.97  932.364  1060.63  933.598  1058.96  934.33  1057.14  934.481  1055.38  934.034  1053.85  933.037  1052.73  931.599  1052.14  929.876  1052.14  928.054  1052.73  926.331  1053.85  924.893  1055.38  923.896  1057.14  923.449  1058.96  923.599  " style="fill: none; stroke: purple; stroke-width: 0.500000; fill-type: evenodd"  fill-opacity="1.000000" />
   <path d="M 1018.96  923.599  1020.63  924.331  1021.97  925.565  1022.84  927.168  1023.14  928.965  1022.84  930.762  1021.97  932.364  1020.63  933.598  1018.96  934.33  1017.14  934.481  1015.38  934.034  1013.85  933.037  1012.73  931.599  1012.14  929.876  1012.14  928.054  1012.73  926.331  1013.85  924.893  1015.38  923.896  1017.14  923.449  1018.96  923.599  " style="fill: none; stroke: purple; stroke-width: 0.500000; fill-type: evenodd"  fill-opacity="1.000000" />
   <path d="M 1040.19  924.473  1041.57  925.631  1042.48  927.191  1042.79  928.965  1042.48  930.739  1041.57  932.299  1040.19  933.457  1038.5  934.073  1036.7  934.073  1035.01  933.457  1033.63  932.299  1032.73  930.739  1032.41  928.965  1032.73  927.191  1033.63  925.631  1035.01  924.473  1036.7  923.857  1038.5  923.857  1040.19  924.473  " style="fill: none; stroke: purple; stroke-width: 0.500000; fill-type: evenodd"  fill-opacity="1.000000" />
   <path d="M 1000.15  902.46  1001.96  903.502  1003.37  905.029  1004.28  906.905  1004.59  908.965  1004.28  911.024  1003.37  912.901  1001.96  914.428  1000.15  915.469  998.123  915.933  996.046  915.777  994.107  915.016  992.479  913.718  991.305  911.997  990.691  910.006  990.691  907.923  991.305  905.933  992.479  904.212  994.107  902.913  996.046  902.152  998.123  901.997  1000.15  902.46  " style="fill: none; stroke: purple; stroke-width: 0.500000; fill-type: evenodd"  fill-opacity="1.000000" />
   <path d="M 1019.54  902.994  1021.29  903.886  1022.68  905.275  1023.57  907.025  1023.88  908.965  1023.57  910.905  1022.68  912.655  1021.29  914.044  1019.54  914.935  1017.6  915.243  1015.66  914.935  1013.91  914.044  1012.52  912.655  1011.63  910.905  1011.32  908.965  1011.63  907.025  1012.52  905.275  1013.91  903.886  1015.66  902.994  1017.6  902.687  1019.54  902.994  " style="fill: none; stroke: purple; stroke-width: 0.500000; fill-type: evenodd"  fill-opacity="1.000000" />
   <path d="M 1039.45  903.258  1041.13  904.111  1042.45  905.438  1043.31  907.111  1043.6  908.965  1043.31  910.819  1042.45  912.492  1041.13  913.819  1039.45  914.671  1037.6  914.965  1035.75  914.671  1034.07  913.819  1032.75  912.492  1031.89  910.819  1031.6  908.965  1031.89  907.111  1032.75  905.438  1034.07  904.111  1035.75  903.258  1037.6  902.965  1039.45  903.258  " style="fill: none; stroke: purple; stroke-width: 0.500000; fill-type: evenodd"  fill-opacity="1.000000" />
</svg>
