<?xml version="1.0" encoding="UTF-8" standalone="yes"?>
<!DOCTYPE svg PUBLIC "-//W3C//DTD SVG 1.0//EN" "http://www.w3.org/TR/2001/REC-SVG-20010904/DTD/svg10.dtd">
<svg height="2000" width="2000" xmlns="http://www.w3.org/2000/svg" xmlns:svg="http://www.w3.org/2000/svg" xmlns:xlink="http://www.w3.org/1999/xlink">
   <marker id="endArrow" markerHeight="8" markerUnits="strokeWidth" markerWidth="10" orient="auto" refX="1" refY="5" viewBox="0 0 1000 1000">
      <polyline fill="darkblue" points="0,0 10,5 0,10 1,5" />
   </marker>
   <circle cx="1000" cy="1000" r="1" style="stroke:black; fill: red" />
   <circle cx="1000" cy="1000" r="800" style="stroke:black; fill: none" />
   <line x1="975.729858" y1="1093.070557" x2="975.729858" y2="1093.245728" style="stroke: green; stroke-width: 0.200000"/>
   <line x1="976.729797" y1="1092.070557" x2="976.729797" y2="1093.245728" style="stroke: green; stroke-width: 0.200000"/>
   <line x1="977.729797" y1="1091.070679" x2="977.729797" y2="1093.245728" style="stroke: green; stroke-width: 0.200000"/>
   <line x1="978.729797" y1="1090.070557" x2="978.729797" y2="1093.245728" style="stroke: green; stroke-width: 0.200000"/>
   <line x1="979.729736" y1="1089.070557" x2="979.729736" y2="1093.245728" style="stroke: green; stroke-width: 0.200000"/>
   <line x1="980.729858" y1="1088.070557" x2="980.729858" y2="1093.245728" style="stroke: green; stroke-width: 0.200000"/>
   <line x1="981.729797" y1="1087.070557" x2="981.729797" y2="1093.245728" style="stroke: green; stroke-width: 0.200000"/>
   <line x1="982.729797" y1="1086.070679" x2="982.729797" y2="1093.245728" style="stroke: green; stroke-width: 0.200000"/>
   <line x1="983.729797" y1="1085.070557" x2="983.729797" y2="1093.245728" style="stroke: green; stroke-width: 0.200000"/>
   <line x1="984.729736" y1="1084.070557" x2="984.729736" y2="1093.245728" style="stroke: green; stroke-width: 0.200000"/>
   <line x1="985.729858" y1="1083.070557" x2="985.729858" y2="1093.245728" style="stroke: green; stroke-width: 0.200000"/>
   <line x1="986.729797" y1="1082.070557" x2="986.729797" y2="1093.245728" style="stroke: green; stroke-width: 0.200000"/>
   <line x1="987.729797" y1="1081.070679" x2="987.729797" y2="1093.245728" style="stroke: green; stroke-width: 0.200000"/>
   <line x1="988.729797" y1="1080.070557" x2="988.729797" y2="1093.245728" style="stroke: green; stroke-width: 0.200000"/>
   <line x1="989.729736" y1="1079.070557" x2="989.729736" y2="1093.245728" style="stroke: green; stroke-width: 0.200000"/>
   <line x1="990.729858" y1="1078.070557" x2="990.729858" y2="1093.245728" style="stroke: green; stroke-width: 0.200000"/>
   <line x1="991.729797" y1="1077.070557" x2="991.729797" y2="1093.245728" style="stroke: green; stroke-width: 0.200000"/>
   <line x1="992.729797" y1="1076.070557" x2="992.729797" y2="1093.245728" style="stroke: green; stroke-width: 0.200000"/>
   <line x1="993.729797" y1="1075.070557" x2="993.729797" y2="1093.245728" style="stroke: green; stroke-width: 0.200000"/>
   <line x1="994.729736" y1="1074.070557" x2="994.729736" y2="1093.245728" style="stroke: green; stroke-width: 0.200000"/>
   <line x1="995.729858" y1="1073.070557" x2="995.729858" y2="1093.245728" style="stroke: green; stroke-width: 0.200000"/>
   <line x1="996.729797" y1="1072.070557" x2="996.729797" y2="1093.245728" style="stroke: green; stroke-width: 0.200000"/>
   <line x1="997.729797" y1="1071.070557" x2="997.729797" y2="1093.245728" style="stroke: green; stroke-width: 0.200000"/>
   <line x1="998.729797" y1="1070.070557" x2="998.729797" y2="1093.245728" style="stroke: green; stroke-width: 0.200000"/>
   <line x1="999.729736" y1="1069.070557" x2="999.729736" y2="1093.245728" style="stroke: green; stroke-width: 0.200000"/>
   <line x1="1000.729858" y1="1068.070557" x2="1000.729858" y2="1093.245728" style="stroke: green; stroke-width: 0.200000"/>
   <line x1="1001.729797" y1="1067.070557" x2="1001.729797" y2="1093.245728" style="stroke: green; stroke-width: 0.200000"/>
   <line x1="1002.729797" y1="1066.070557" x2="1002.729797" y2="1093.245728" style="stroke: green; stroke-width: 0.200000"/>
   <line x1="1003.729797" y1="1058.849121" x2="1003.729797" y2="1093.245728" style="stroke: green; stroke-width: 0.200000"/>
   <line x1="1004.729736" y1="1057.849243" x2="1004.729736" y2="1093.245728" style="stroke: green; stroke-width: 0.200000"/>
   <line x1="1005.729858" y1="1056.849243" x2="1005.729858" y2="1092.401855" style="stroke: green; stroke-width: 0.200000"/>
   <line x1="1006.729797" y1="1055.849121" x2="1006.729797" y2="1091.472412" style="stroke: green; stroke-width: 0.200000"/>
   <line x1="1007.729797" y1="1054.849121" x2="1007.729797" y2="1090.541748" style="stroke: green; stroke-width: 0.200000"/>
   <line x1="1008.729797" y1="1053.849121" x2="1008.729797" y2="1089.610962" style="stroke: green; stroke-width: 0.200000"/>
   <line x1="1009.729736" y1="1052.849243" x2="1009.729736" y2="1088.680176" style="stroke: green; stroke-width: 0.200000"/>
   <line x1="1010.729858" y1="1051.849243" x2="1010.729858" y2="1087.726685" style="stroke: green; stroke-width: 0.200000"/>
   <line x1="1002.729797" y1="1059.849121" x2="1002.729797" y2="1064.368408" style="stroke: green; stroke-width: 0.200000"/>
   <line x1="1001.729797" y1="1060.849243" x2="1001.729797" y2="1063.368408" style="stroke: green; stroke-width: 0.200000"/>
   <line x1="1000.729858" y1="1061.849243" x2="1000.729858" y2="1062.368408" style="stroke: green; stroke-width: 0.200000"/>
   <line x1="1011.729797" y1="1050.849121" x2="1011.729797" y2="1086.759888" style="stroke: green; stroke-width: 0.200000"/>
   <line x1="1012.729797" y1="1050.356323" x2="1012.729797" y2="1085.660156" style="stroke: green; stroke-width: 0.200000"/>
   <line x1="1013.729797" y1="1049.858276" x2="1013.729797" y2="1084.122559" style="stroke: green; stroke-width: 0.200000"/>
   <line x1="1014.729736" y1="1049.294312" x2="1014.729736" y2="1079.410889" style="stroke: green; stroke-width: 0.200000"/>
   <line x1="1015.729858" y1="1048.730347" x2="1015.729858" y2="1071.406128" style="stroke: green; stroke-width: 0.200000"/>
   <line x1="1016.729797" y1="1048.166382" x2="1016.729797" y2="1065.498047" style="stroke: green; stroke-width: 0.200000"/>
   <line x1="1017.729797" y1="1047.598022" x2="1017.729797" y2="1060.788086" style="stroke: green; stroke-width: 0.200000"/>
   <line x1="1018.729797" y1="1046.960327" x2="1018.729797" y2="1056.338135" style="stroke: green; stroke-width: 0.200000"/>
   <line x1="1019.729736" y1="1046.265381" x2="1019.729736" y2="1053.192993" style="stroke: green; stroke-width: 0.200000"/>
   <line x1="1020.729858" y1="1045.570557" x2="1020.729858" y2="1050.034424" style="stroke: green; stroke-width: 0.200000"/>
   <line x1="1021.729797" y1="1044.843018" x2="1021.729797" y2="1047.787842" style="stroke: green; stroke-width: 0.200000"/>
   <line x1="1022.729797" y1="1044.052856" x2="1022.729797" y2="1045.541260" style="stroke: green; stroke-width: 0.200000"/>
   <line x1="1023.729797" y1="1043.262695" x2="1023.729797" y2="1043.294434" style="stroke: green; stroke-width: 0.200000"/>
   <line x1="989.729736" y1="1093.345703" x2="989.729736" y2="1110.091309" style="stroke: green; stroke-width: 0.200000"/>
   <line x1="990.729858" y1="1093.345703" x2="990.729858" y2="1110.086792" style="stroke: green; stroke-width: 0.200000"/>
   <line x1="988.729797" y1="1093.345703" x2="988.729797" y2="1110.074707" style="stroke: green; stroke-width: 0.200000"/>
   <line x1="991.729797" y1="1104.783203" x2="991.729797" y2="1110.050537" style="stroke: green; stroke-width: 0.200000"/>
   <line x1="987.729797" y1="1093.345703" x2="987.729797" y2="1110.047363" style="stroke: green; stroke-width: 0.200000"/>
   <line x1="992.729797" y1="1106.173828" x2="992.729797" y2="1110.011108" style="stroke: green; stroke-width: 0.200000"/>
   <line x1="986.729797" y1="1093.345703" x2="986.729797" y2="1109.956665" style="stroke: green; stroke-width: 0.200000"/>
   <line x1="993.729797" y1="1107.564575" x2="993.729797" y2="1109.918335" style="stroke: green; stroke-width: 0.200000"/>
   <line x1="985.729858" y1="1093.345703" x2="985.729858" y2="1109.836304" style="stroke: green; stroke-width: 0.200000"/>
   <line x1="994.729736" y1="1108.955811" x2="994.729736" y2="1109.825562" style="stroke: green; stroke-width: 0.200000"/>
   <line x1="984.729736" y1="1093.345703" x2="984.729736" y2="1109.683960" style="stroke: green; stroke-width: 0.200000"/>
   <line x1="983.729797" y1="1093.345703" x2="983.729797" y2="1109.517578" style="stroke: green; stroke-width: 0.200000"/>
   <line x1="982.729797" y1="1093.345703" x2="982.729797" y2="1109.349854" style="stroke: green; stroke-width: 0.200000"/>
   <line x1="981.729797" y1="1093.345703" x2="981.729797" y2="1109.138794" style="stroke: green; stroke-width: 0.200000"/>
   <line x1="980.729858" y1="1093.345703" x2="980.729858" y2="1108.927734" style="stroke: green; stroke-width: 0.200000"/>
   <line x1="979.729736" y1="1093.345703" x2="979.729736" y2="1108.699341" style="stroke: green; stroke-width: 0.200000"/>
   <line x1="978.729797" y1="1093.345703" x2="978.729797" y2="1108.440674" style="stroke: green; stroke-width: 0.200000"/>
   <line x1="977.729797" y1="1093.345703" x2="977.729797" y2="1108.181885" style="stroke: green; stroke-width: 0.200000"/>
   <line x1="976.729797" y1="1093.345703" x2="976.729797" y2="1107.863525" style="stroke: green; stroke-width: 0.200000"/>
   <line x1="975.729858" y1="1093.345703" x2="975.729858" y2="1107.518799" style="stroke: green; stroke-width: 0.200000"/>
   <line x1="974.729736" y1="1094.070557" x2="974.729736" y2="1107.174316" style="stroke: green; stroke-width: 0.200000"/>
   <line x1="973.729797" y1="1095.070679" x2="973.729797" y2="1106.793701" style="stroke: green; stroke-width: 0.200000"/>
   <line x1="972.729797" y1="1096.070679" x2="972.729797" y2="1106.407227" style="stroke: green; stroke-width: 0.200000"/>
   <line x1="971.729797" y1="1097.070557" x2="971.729797" y2="1106.019531" style="stroke: green; stroke-width: 0.200000"/>
   <line x1="970.729858" y1="1098.070557" x2="970.729858" y2="1105.598022" style="stroke: green; stroke-width: 0.200000"/>
   <line x1="969.729736" y1="1099.070679" x2="969.729736" y2="1105.160156" style="stroke: green; stroke-width: 0.200000"/>
   <line x1="968.729797" y1="1100.070679" x2="968.729797" y2="1104.688965" style="stroke: green; stroke-width: 0.200000"/>
   <line x1="967.729797" y1="1100.518066" x2="967.729797" y2="1104.217773" style="stroke: green; stroke-width: 0.200000"/>
   <line x1="991.729797" y1="1093.345703" x2="991.729797" y2="1103.966797" style="stroke: green; stroke-width: 0.200000"/>
   <line x1="966.729797" y1="1100.231567" x2="966.729797" y2="1103.746582" style="stroke: green; stroke-width: 0.200000"/>
   <line x1="965.729858" y1="1099.945068" x2="965.729858" y2="1103.275391" style="stroke: green; stroke-width: 0.200000"/>
   <line x1="992.729797" y1="1093.345703" x2="992.729797" y2="1103.151489" style="stroke: green; stroke-width: 0.200000"/>
   <line x1="964.729736" y1="1099.658569" x2="964.729736" y2="1102.802612" style="stroke: green; stroke-width: 0.200000"/>
   <line x1="993.729797" y1="1093.345703" x2="993.729797" y2="1102.335938" style="stroke: green; stroke-width: 0.200000"/>
   <line x1="963.729797" y1="1099.334961" x2="963.729797" y2="1102.309326" style="stroke: green; stroke-width: 0.200000"/>
   <line x1="962.729797" y1="1099.283569" x2="962.729797" y2="1101.815918" style="stroke: green; stroke-width: 0.200000"/>
   <line x1="994.729736" y1="1093.345703" x2="994.729736" y2="1101.520630" style="stroke: green; stroke-width: 0.200000"/>
   <line x1="961.729797" y1="1100.283569" x2="961.729797" y2="1101.322510" style="stroke: green; stroke-width: 0.200000"/>
   <line x1="995.729858" y1="1093.345703" x2="995.729858" y2="1100.705322" style="stroke: green; stroke-width: 0.200000"/>
   <line x1="996.729797" y1="1093.345703" x2="996.729797" y2="1099.889893" style="stroke: green; stroke-width: 0.200000"/>
   <line x1="997.729797" y1="1093.345703" x2="997.729797" y2="1099.074463" style="stroke: green; stroke-width: 0.200000"/>
   <line x1="998.729797" y1="1093.345703" x2="998.729797" y2="1098.259155" style="stroke: green; stroke-width: 0.200000"/>
   <line x1="999.729736" y1="1093.345703" x2="999.729736" y2="1097.441895" style="stroke: green; stroke-width: 0.200000"/>
   <line x1="1000.729858" y1="1093.345703" x2="1000.729858" y2="1096.612671" style="stroke: green; stroke-width: 0.200000"/>
   <line x1="1001.729797" y1="1093.345703" x2="1001.729797" y2="1095.783447" style="stroke: green; stroke-width: 0.200000"/>
   <line x1="1002.729797" y1="1093.345703" x2="1002.729797" y2="1094.954102" style="stroke: green; stroke-width: 0.200000"/>
   <line x1="1003.729797" y1="1093.345703" x2="1003.729797" y2="1094.125366" style="stroke: green; stroke-width: 0.200000"/>
   <line x1="961.304321" y1="1047.189697" x2="961.304321" y2="1061.367920" style="stroke: green; stroke-width: 0.200000"/>
   <line x1="960.304321" y1="1047.223145" x2="960.304321" y2="1061.320923" style="stroke: green; stroke-width: 0.200000"/>
   <line x1="962.304382" y1="1047.282227" x2="962.304382" y2="1061.278687" style="stroke: green; stroke-width: 0.200000"/>
   <line x1="959.304321" y1="1047.400879" x2="959.304321" y2="1061.144165" style="stroke: green; stroke-width: 0.200000"/>
   <line x1="963.304382" y1="1047.524902" x2="963.304382" y2="1061.028931" style="stroke: green; stroke-width: 0.200000"/>
   <line x1="958.304382" y1="1047.732300" x2="958.304382" y2="1060.808350" style="stroke: green; stroke-width: 0.200000"/>
   <line x1="964.304321" y1="1047.931763" x2="964.304321" y2="1060.606445" style="stroke: green; stroke-width: 0.200000"/>
   <line x1="957.304382" y1="1048.249390" x2="957.304382" y2="1060.289062" style="stroke: green; stroke-width: 0.200000"/>
   <line x1="965.304321" y1="1048.544678" x2="965.304321" y2="1059.988770" style="stroke: green; stroke-width: 0.200000"/>
   <line x1="956.304321" y1="1049.010986" x2="956.304321" y2="1059.525391" style="stroke: green; stroke-width: 0.200000"/>
   <line x1="966.304321" y1="1049.456543" x2="966.304321" y2="1059.112549" style="stroke: green; stroke-width: 0.200000"/>
   <line x1="955.304321" y1="1050.171631" x2="955.304321" y2="1058.368164" style="stroke: green; stroke-width: 0.200000"/>
   <line x1="967.304382" y1="1050.847656" x2="967.304382" y2="1057.691650" style="stroke: green; stroke-width: 0.200000"/>
   <line x1="954.304321" y1="1052.196777" x2="954.304321" y2="1056.336792" style="stroke: green; stroke-width: 0.200000"/>
   <line x1="884.549622" y1="1025.708252" x2="884.549622" y2="1043.882568" style="stroke: green; stroke-width: 0.200000"/>
   <line x1="885.549622" y1="1024.128296" x2="885.549622" y2="1043.882568" style="stroke: green; stroke-width: 0.200000"/>
   <line x1="886.549622" y1="1022.577271" x2="886.549622" y2="1043.882568" style="stroke: green; stroke-width: 0.200000"/>
   <line x1="887.549561" y1="1021.014404" x2="887.549561" y2="1043.882568" style="stroke: green; stroke-width: 0.200000"/>
   <line x1="888.549683" y1="1019.668579" x2="888.549683" y2="1043.882568" style="stroke: green; stroke-width: 0.200000"/>
   <line x1="889.549622" y1="1018.309265" x2="889.549622" y2="1043.882568" style="stroke: green; stroke-width: 0.200000"/>
   <line x1="890.549622" y1="1016.949951" x2="890.549622" y2="1043.882568" style="stroke: green; stroke-width: 0.200000"/>
   <line x1="891.549622" y1="1015.734314" x2="891.549622" y2="1043.882568" style="stroke: green; stroke-width: 0.200000"/>
   <line x1="892.549561" y1="1014.537842" x2="892.549561" y2="1043.882568" style="stroke: green; stroke-width: 0.200000"/>
   <line x1="893.549683" y1="1013.341309" x2="893.549683" y2="1043.882568" style="stroke: green; stroke-width: 0.200000"/>
   <line x1="894.549622" y1="1012.216187" x2="894.549622" y2="1043.882568" style="stroke: green; stroke-width: 0.200000"/>
   <line x1="895.549622" y1="1011.136536" x2="895.549622" y2="1043.882568" style="stroke: green; stroke-width: 0.200000"/>
   <line x1="896.549622" y1="1010.057007" x2="896.549622" y2="1043.882568" style="stroke: green; stroke-width: 0.200000"/>
   <line x1="897.549561" y1="1008.987915" x2="897.549561" y2="1043.882568" style="stroke: green; stroke-width: 0.200000"/>
   <line x1="898.549683" y1="1007.995544" x2="898.549683" y2="1043.882568" style="stroke: green; stroke-width: 0.200000"/>
   <line x1="899.549622" y1="1007.003174" x2="899.549622" y2="1043.882568" style="stroke: green; stroke-width: 0.200000"/>
   <line x1="900.549622" y1="1006.010864" x2="900.549622" y2="1043.882568" style="stroke: green; stroke-width: 0.200000"/>
   <line x1="901.549622" y1="1005.043579" x2="901.549622" y2="1043.882568" style="stroke: green; stroke-width: 0.200000"/>
   <line x1="902.549561" y1="1004.104126" x2="902.549561" y2="1043.882568" style="stroke: green; stroke-width: 0.200000"/>
   <line x1="903.549683" y1="1003.164734" x2="903.549683" y2="1043.882568" style="stroke: green; stroke-width: 0.200000"/>
   <line x1="904.549622" y1="1002.225281" x2="904.549622" y2="1043.054688" style="stroke: green; stroke-width: 0.200000"/>
   <line x1="883.549683" y1="1027.440552" x2="883.549683" y2="1042.924316" style="stroke: green; stroke-width: 0.200000"/>
   <line x1="905.549622" y1="1001.285889" x2="905.549622" y2="1042.054688" style="stroke: green; stroke-width: 0.200000"/>
   <line x1="906.549622" y1="1000.535889" x2="906.549622" y2="1041.054688" style="stroke: green; stroke-width: 0.200000"/>
   <line x1="882.549561" y1="1029.180420" x2="882.549561" y2="1040.850098" style="stroke: green; stroke-width: 0.200000"/>
   <line x1="907.549561" y1="999.799683" x2="907.549561" y2="1040.054688" style="stroke: green; stroke-width: 0.200000"/>
   <line x1="908.549683" y1="999.203430" x2="908.549683" y2="1039.054688" style="stroke: green; stroke-width: 0.200000"/>
   <line x1="909.549622" y1="998.657837" x2="909.549622" y2="1038.054688" style="stroke: green; stroke-width: 0.200000"/>
   <line x1="881.549622" y1="1031.979004" x2="881.549622" y2="1037.586060" style="stroke: green; stroke-width: 0.200000"/>
   <line x1="910.549622" y1="998.176147" x2="910.549622" y2="1037.054688" style="stroke: green; stroke-width: 0.200000"/>
   <line x1="911.549622" y1="997.811157" x2="911.549622" y2="1036.054688" style="stroke: green; stroke-width: 0.200000"/>
   <line x1="912.549561" y1="997.445984" x2="912.549561" y2="1035.054688" style="stroke: green; stroke-width: 0.200000"/>
   <line x1="913.549683" y1="997.195679" x2="913.549683" y2="1034.054688" style="stroke: green; stroke-width: 0.200000"/>
   <line x1="914.549622" y1="996.980530" x2="914.549622" y2="1033.054688" style="stroke: green; stroke-width: 0.200000"/>
   <line x1="915.549622" y1="996.765503" x2="915.549622" y2="1032.054688" style="stroke: green; stroke-width: 0.200000"/>
   <line x1="916.549622" y1="996.624390" x2="916.549622" y2="1031.054688" style="stroke: green; stroke-width: 0.200000"/>
   <line x1="917.549561" y1="996.483154" x2="917.549561" y2="1030.054688" style="stroke: green; stroke-width: 0.200000"/>
   <line x1="918.549683" y1="996.342041" x2="918.549683" y2="1029.054688" style="stroke: green; stroke-width: 0.200000"/>
   <line x1="919.549622" y1="996.200806" x2="919.549622" y2="1028.054688" style="stroke: green; stroke-width: 0.200000"/>
   <line x1="920.549622" y1="996.059570" x2="920.549622" y2="1027.054688" style="stroke: green; stroke-width: 0.200000"/>
   <line x1="921.549622" y1="995.910339" x2="921.549622" y2="1026.054688" style="stroke: green; stroke-width: 0.200000"/>
   <line x1="922.549561" y1="995.753296" x2="922.549561" y2="1025.054688" style="stroke: green; stroke-width: 0.200000"/>
   <line x1="923.549683" y1="995.596313" x2="923.549683" y2="1024.054688" style="stroke: green; stroke-width: 0.200000"/>
   <line x1="924.549622" y1="995.445801" x2="924.549622" y2="1023.054688" style="stroke: green; stroke-width: 0.200000"/>
   <line x1="925.549622" y1="995.328857" x2="925.549622" y2="1022.054688" style="stroke: green; stroke-width: 0.200000"/>
   <line x1="926.549622" y1="995.209351" x2="926.549622" y2="1021.054626" style="stroke: green; stroke-width: 0.200000"/>
   <line x1="927.549561" y1="995.082031" x2="927.549561" y2="1020.054626" style="stroke: green; stroke-width: 0.200000"/>
   <line x1="928.549683" y1="994.954590" x2="928.549683" y2="1019.054626" style="stroke: green; stroke-width: 0.200000"/>
   <line x1="929.549622" y1="994.827209" x2="929.549622" y2="1018.054688" style="stroke: green; stroke-width: 0.200000"/>
   <line x1="930.549622" y1="994.699829" x2="930.549622" y2="1017.054565" style="stroke: green; stroke-width: 0.200000"/>
   <line x1="931.549622" y1="994.582642" x2="931.549622" y2="1016.054626" style="stroke: green; stroke-width: 0.200000"/>
   <line x1="932.549561" y1="994.509644" x2="932.549561" y2="1015.054626" style="stroke: green; stroke-width: 0.200000"/>
   <line x1="933.549683" y1="994.436707" x2="933.549683" y2="1014.054626" style="stroke: green; stroke-width: 0.200000"/>
   <line x1="934.549622" y1="994.363647" x2="934.549622" y2="1013.054688" style="stroke: green; stroke-width: 0.200000"/>
   <line x1="935.549622" y1="994.290649" x2="935.549622" y2="1012.054565" style="stroke: green; stroke-width: 0.200000"/>
   <line x1="936.549622" y1="994.218018" x2="936.549622" y2="1011.054626" style="stroke: green; stroke-width: 0.200000"/>
   <line x1="937.549561" y1="994.144897" x2="937.549561" y2="1010.054626" style="stroke: green; stroke-width: 0.200000"/>
   <line x1="938.549683" y1="994.071777" x2="938.549683" y2="1009.054626" style="stroke: green; stroke-width: 0.200000"/>
   <line x1="939.549622" y1="993.998962" x2="939.549622" y2="1008.054688" style="stroke: green; stroke-width: 0.200000"/>
   <line x1="945.549622" y1="994.816772" x2="945.549622" y2="1007.188232" style="stroke: green; stroke-width: 0.200000"/>
   <line x1="940.549622" y1="993.946838" x2="940.549622" y2="1007.054565" style="stroke: green; stroke-width: 0.200000"/>
   <line x1="946.549622" y1="995.737427" x2="946.549622" y2="1006.822266" style="stroke: green; stroke-width: 0.200000"/>
   <line x1="944.549622" y1="994.209045" x2="944.549622" y2="1006.188293" style="stroke: green; stroke-width: 0.200000"/>
   <line x1="941.549622" y1="993.901855" x2="941.549622" y2="1006.054626" style="stroke: green; stroke-width: 0.200000"/>
   <line x1="947.549561" y1="996.737427" x2="947.549561" y2="1005.822266" style="stroke: green; stroke-width: 0.200000"/>
   <line x1="943.549683" y1="993.940979" x2="943.549683" y2="1005.188232" style="stroke: green; stroke-width: 0.200000"/>
   <line x1="942.549561" y1="993.886841" x2="942.549561" y2="1005.054626" style="stroke: green; stroke-width: 0.200000"/>
   <line x1="948.549683" y1="997.737427" x2="948.549683" y2="1004.822327" style="stroke: green; stroke-width: 0.200000"/>
   <line x1="949.549622" y1="998.737427" x2="949.549622" y2="1003.822266" style="stroke: green; stroke-width: 0.200000"/>
   <line x1="950.549622" y1="999.737427" x2="950.549622" y2="1002.822266" style="stroke: green; stroke-width: 0.200000"/>
   <line x1="951.549622" y1="1000.737366" x2="951.549622" y2="1001.822266" style="stroke: green; stroke-width: 0.200000"/>
   <line x1="896.549622" y1="1054.612427" x2="896.549622" y2="1057.736694" style="stroke: green; stroke-width: 0.200000"/>
   <line x1="897.549561" y1="1055.570557" x2="897.549561" y2="1056.975830" style="stroke: green; stroke-width: 0.200000"/>
   <line x1="895.549622" y1="1053.654297" x2="895.549622" y2="1056.789307" style="stroke: green; stroke-width: 0.200000"/>
   <line x1="894.549622" y1="1043.982544" x2="894.549622" y2="1055.818970" style="stroke: green; stroke-width: 0.200000"/>
   <line x1="893.549683" y1="1043.982544" x2="893.549683" y2="1054.823853" style="stroke: green; stroke-width: 0.200000"/>
   <line x1="892.549561" y1="1043.982544" x2="892.549561" y2="1053.828735" style="stroke: green; stroke-width: 0.200000"/>
   <line x1="891.549622" y1="1043.982544" x2="891.549622" y2="1052.833618" style="stroke: green; stroke-width: 0.200000"/>
   <line x1="895.549622" y1="1043.982544" x2="895.549622" y2="1052.054688" style="stroke: green; stroke-width: 0.200000"/>
   <line x1="890.549622" y1="1043.982544" x2="890.549622" y2="1051.838501" style="stroke: green; stroke-width: 0.200000"/>
   <line x1="896.549622" y1="1043.982544" x2="896.549622" y2="1051.054688" style="stroke: green; stroke-width: 0.200000"/>
   <line x1="889.549622" y1="1043.982544" x2="889.549622" y2="1050.806396" style="stroke: green; stroke-width: 0.200000"/>
   <line x1="897.549561" y1="1043.982544" x2="897.549561" y2="1050.054688" style="stroke: green; stroke-width: 0.200000"/>
   <line x1="888.549683" y1="1043.982544" x2="888.549683" y2="1049.759644" style="stroke: green; stroke-width: 0.200000"/>
   <line x1="898.549683" y1="1043.982544" x2="898.549683" y2="1049.054688" style="stroke: green; stroke-width: 0.200000"/>
   <line x1="887.549561" y1="1043.982544" x2="887.549561" y2="1048.654663" style="stroke: green; stroke-width: 0.200000"/>
   <line x1="899.549622" y1="1043.982544" x2="899.549622" y2="1048.054688" style="stroke: green; stroke-width: 0.200000"/>
   <line x1="886.549622" y1="1043.982544" x2="886.549622" y2="1047.417236" style="stroke: green; stroke-width: 0.200000"/>
   <line x1="900.549622" y1="1043.982544" x2="900.549622" y2="1047.054688" style="stroke: green; stroke-width: 0.200000"/>
   <line x1="885.549622" y1="1043.982544" x2="885.549622" y2="1046.150146" style="stroke: green; stroke-width: 0.200000"/>
   <line x1="901.549622" y1="1043.982544" x2="901.549622" y2="1046.054688" style="stroke: green; stroke-width: 0.200000"/>
   <line x1="902.549561" y1="1043.982544" x2="902.549561" y2="1045.054688" style="stroke: green; stroke-width: 0.200000"/>
   <line x1="884.549622" y1="1043.982544" x2="884.549622" y2="1044.630493" style="stroke: green; stroke-width: 0.200000"/>
   <line x1="903.549683" y1="1043.982544" x2="903.549683" y2="1044.054688" style="stroke: green; stroke-width: 0.200000"/>
   <line x1="1046.749756" y1="1015.829163" x2="1046.749756" y2="1016.652222" style="stroke: green; stroke-width: 0.200000"/>
   <line x1="1047.749878" y1="1014.829163" x2="1047.749878" y2="1016.652222" style="stroke: green; stroke-width: 0.200000"/>
   <line x1="1048.749878" y1="1013.829224" x2="1048.749878" y2="1016.652222" style="stroke: green; stroke-width: 0.200000"/>
   <line x1="1049.749878" y1="1014.059326" x2="1049.749878" y2="1016.652222" style="stroke: green; stroke-width: 0.200000"/>
   <line x1="1050.749756" y1="1015.059265" x2="1050.749756" y2="1016.652222" style="stroke: green; stroke-width: 0.200000"/>
   <line x1="1051.749756" y1="1016.059265" x2="1051.749756" y2="1016.652222" style="stroke: green; stroke-width: 0.200000"/>
   <line x1="1052.749878" y1="1016.050537" x2="1052.749878" y2="1016.652222" style="stroke: green; stroke-width: 0.200000"/>
   <line x1="1053.749878" y1="1015.050537" x2="1053.749878" y2="1016.652222" style="stroke: green; stroke-width: 0.200000"/>
   <line x1="1054.749878" y1="1014.050537" x2="1054.749878" y2="1016.652222" style="stroke: green; stroke-width: 0.200000"/>
   <line x1="1055.749756" y1="1013.050537" x2="1055.749756" y2="1016.652222" style="stroke: green; stroke-width: 0.200000"/>
   <line x1="1056.749756" y1="1012.050537" x2="1056.749756" y2="1016.652222" style="stroke: green; stroke-width: 0.200000"/>
   <line x1="1057.749878" y1="1011.050476" x2="1057.749878" y2="1016.652222" style="stroke: green; stroke-width: 0.200000"/>
   <line x1="1058.749878" y1="1010.050537" x2="1058.749878" y2="1016.652222" style="stroke: green; stroke-width: 0.200000"/>
   <line x1="1059.749878" y1="1009.050537" x2="1059.749878" y2="1016.652222" style="stroke: green; stroke-width: 0.200000"/>
   <line x1="1060.749756" y1="1008.050537" x2="1060.749756" y2="1016.652222" style="stroke: green; stroke-width: 0.200000"/>
   <line x1="1061.749756" y1="1007.050537" x2="1061.749756" y2="1016.652222" style="stroke: green; stroke-width: 0.200000"/>
   <line x1="1062.749878" y1="1006.050537" x2="1062.749878" y2="1016.652222" style="stroke: green; stroke-width: 0.200000"/>
   <line x1="1063.749878" y1="1005.050537" x2="1063.749878" y2="1016.652222" style="stroke: green; stroke-width: 0.200000"/>
   <line x1="1064.749878" y1="1004.050537" x2="1064.749878" y2="1016.652222" style="stroke: green; stroke-width: 0.200000"/>
   <line x1="1065.749756" y1="1003.050537" x2="1065.749756" y2="1016.652222" style="stroke: green; stroke-width: 0.200000"/>
   <line x1="1066.749756" y1="1002.050537" x2="1066.749756" y2="1016.652222" style="stroke: green; stroke-width: 0.200000"/>
   <line x1="1067.749878" y1="1001.050537" x2="1067.749878" y2="1016.652222" style="stroke: green; stroke-width: 0.200000"/>
   <line x1="1068.749878" y1="1000.050598" x2="1068.749878" y2="1016.652222" style="stroke: green; stroke-width: 0.200000"/>
   <line x1="1069.749878" y1="999.050598" x2="1069.749878" y2="1016.652222" style="stroke: green; stroke-width: 0.200000"/>
   <line x1="1070.749756" y1="998.050537" x2="1070.749756" y2="1016.652222" style="stroke: green; stroke-width: 0.200000"/>
   <line x1="1071.749756" y1="997.050537" x2="1071.749756" y2="1016.652222" style="stroke: green; stroke-width: 0.200000"/>
   <line x1="1072.749878" y1="996.050537" x2="1072.749878" y2="1016.652222" style="stroke: green; stroke-width: 0.200000"/>
   <line x1="1073.749878" y1="995.050598" x2="1073.749878" y2="1016.652222" style="stroke: green; stroke-width: 0.200000"/>
   <line x1="1074.749878" y1="994.050598" x2="1074.749878" y2="1016.652222" style="stroke: green; stroke-width: 0.200000"/>
   <line x1="1075.749756" y1="993.050598" x2="1075.749756" y2="1016.652222" style="stroke: green; stroke-width: 0.200000"/>
   <line x1="1076.749756" y1="992.050537" x2="1076.749756" y2="1016.652222" style="stroke: green; stroke-width: 0.200000"/>
   <line x1="1077.749878" y1="991.050537" x2="1077.749878" y2="1016.652222" style="stroke: green; stroke-width: 0.200000"/>
   <line x1="1078.749878" y1="990.050598" x2="1078.749878" y2="1016.652222" style="stroke: green; stroke-width: 0.200000"/>
   <line x1="1079.749878" y1="989.050598" x2="1079.749878" y2="1016.652222" style="stroke: green; stroke-width: 0.200000"/>
   <line x1="1080.749756" y1="988.050598" x2="1080.749756" y2="1016.652222" style="stroke: green; stroke-width: 0.200000"/>
   <line x1="1081.749756" y1="987.050659" x2="1081.749756" y2="1016.652222" style="stroke: green; stroke-width: 0.200000"/>
   <line x1="1082.749878" y1="986.050537" x2="1082.749878" y2="1016.652222" style="stroke: green; stroke-width: 0.200000"/>
   <line x1="1083.749878" y1="985.050598" x2="1083.749878" y2="1016.652222" style="stroke: green; stroke-width: 0.200000"/>
   <line x1="1084.749878" y1="984.050598" x2="1084.749878" y2="1016.652222" style="stroke: green; stroke-width: 0.200000"/>
   <line x1="1085.749756" y1="983.050598" x2="1085.749756" y2="1016.652222" style="stroke: green; stroke-width: 0.200000"/>
   <line x1="1086.749756" y1="982.050659" x2="1086.749756" y2="1016.652222" style="stroke: green; stroke-width: 0.200000"/>
   <line x1="1087.749878" y1="981.050659" x2="1087.749878" y2="1016.652222" style="stroke: green; stroke-width: 0.200000"/>
   <line x1="1088.749878" y1="980.050598" x2="1088.749878" y2="1016.652222" style="stroke: green; stroke-width: 0.200000"/>
   <line x1="1089.749878" y1="979.050598" x2="1089.749878" y2="1016.652222" style="stroke: green; stroke-width: 0.200000"/>
   <line x1="1100.749756" y1="973.232727" x2="1100.749756" y2="1016.652222" style="stroke: green; stroke-width: 0.200000"/>
   <line x1="1101.749756" y1="974.435059" x2="1101.749756" y2="1016.652222" style="stroke: green; stroke-width: 0.200000"/>
   <line x1="1102.749878" y1="975.684509" x2="1102.749878" y2="1016.652222" style="stroke: green; stroke-width: 0.200000"/>
   <line x1="1103.749878" y1="976.973755" x2="1103.749878" y2="1016.652222" style="stroke: green; stroke-width: 0.200000"/>
   <line x1="1090.749756" y1="978.050598" x2="1090.749756" y2="1016.634277" style="stroke: green; stroke-width: 0.200000"/>
   <line x1="1099.749878" y1="972.030334" x2="1099.749878" y2="1016.396545" style="stroke: green; stroke-width: 0.200000"/>
   <line x1="1091.749756" y1="977.050659" x2="1091.749756" y2="1015.764526" style="stroke: green; stroke-width: 0.200000"/>
   <line x1="1104.749878" y1="978.349365" x2="1104.749878" y2="1015.640808" style="stroke: green; stroke-width: 0.200000"/>
   <line x1="1098.749878" y1="970.828003" x2="1098.749878" y2="1015.284546" style="stroke: green; stroke-width: 0.200000"/>
   <line x1="1092.749878" y1="976.050659" x2="1092.749878" y2="1014.894897" style="stroke: green; stroke-width: 0.200000"/>
   <line x1="1105.749756" y1="979.826599" x2="1105.749756" y2="1014.435669" style="stroke: green; stroke-width: 0.200000"/>
   <line x1="1097.749878" y1="969.618652" x2="1097.749878" y2="1014.172424" style="stroke: green; stroke-width: 0.200000"/>
   <line x1="1093.749878" y1="975.050659" x2="1093.749878" y2="1014.025146" style="stroke: green; stroke-width: 0.200000"/>
   <line x1="1106.749756" y1="981.478333" x2="1106.749756" y2="1013.230530" style="stroke: green; stroke-width: 0.200000"/>
   <line x1="1094.749878" y1="974.050659" x2="1094.749878" y2="1013.155457" style="stroke: green; stroke-width: 0.200000"/>
   <line x1="1096.749756" y1="972.050659" x2="1096.749756" y2="1013.060425" style="stroke: green; stroke-width: 0.200000"/>
   <line x1="1095.749756" y1="973.050598" x2="1095.749756" y2="1012.285767" style="stroke: green; stroke-width: 0.200000"/>
   <line x1="1107.749878" y1="983.252869" x2="1107.749878" y2="1011.916382" style="stroke: green; stroke-width: 0.200000"/>
   <line x1="1108.749878" y1="985.191895" x2="1108.749878" y2="1010.534790" style="stroke: green; stroke-width: 0.200000"/>
   <line x1="1109.749878" y1="987.345276" x2="1109.749878" y2="1009.031494" style="stroke: green; stroke-width: 0.200000"/>
   <line x1="1110.749756" y1="990.350830" x2="1110.749756" y2="1006.822876" style="stroke: green; stroke-width: 0.200000"/>
   <line x1="1111.749756" y1="994.756775" x2="1111.749756" y2="1003.399658" style="stroke: green; stroke-width: 0.200000"/>
   <line x1="1096.749756" y1="968.376770" x2="1096.749756" y2="971.909485" style="stroke: green; stroke-width: 0.200000"/>
   <line x1="1095.749756" y1="967.134888" x2="1095.749756" y2="970.675293" style="stroke: green; stroke-width: 0.200000"/>
   <line x1="1094.749878" y1="967.263550" x2="1094.749878" y2="969.441040" style="stroke: green; stroke-width: 0.200000"/>
   <line x1="1031.749756" y1="1034.935547" x2="1031.749756" y2="1035.402588" style="stroke: green; stroke-width: 0.200000"/>
   <line x1="1032.749878" y1="1033.686035" x2="1032.749878" y2="1034.789062" style="stroke: green; stroke-width: 0.200000"/>
   <line x1="1033.749878" y1="1032.319824" x2="1033.749878" y2="1034.170532" style="stroke: green; stroke-width: 0.200000"/>
   <line x1="1034.749878" y1="1030.738647" x2="1034.749878" y2="1033.551880" style="stroke: green; stroke-width: 0.200000"/>
   <line x1="1035.749756" y1="1029.122070" x2="1035.749756" y2="1032.933350" style="stroke: green; stroke-width: 0.200000"/>
   <line x1="1036.749756" y1="1027.473267" x2="1036.749756" y2="1032.437500" style="stroke: green; stroke-width: 0.200000"/>
   <line x1="1037.749878" y1="1025.160889" x2="1037.749878" y2="1032.218140" style="stroke: green; stroke-width: 0.200000"/>
   <line x1="1038.749878" y1="1023.829224" x2="1038.749878" y2="1031.989868" style="stroke: green; stroke-width: 0.200000"/>
   <line x1="1039.749878" y1="1022.829102" x2="1039.749878" y2="1031.641968" style="stroke: green; stroke-width: 0.200000"/>
   <line x1="1040.749756" y1="1021.829163" x2="1040.749756" y2="1031.241943" style="stroke: green; stroke-width: 0.200000"/>
   <line x1="1041.749756" y1="1020.829163" x2="1041.749756" y2="1030.835938" style="stroke: green; stroke-width: 0.200000"/>
   <line x1="1042.749878" y1="1019.829163" x2="1042.749878" y2="1030.423462" style="stroke: green; stroke-width: 0.200000"/>
   <line x1="1043.749878" y1="1018.829224" x2="1043.749878" y2="1030.144897" style="stroke: green; stroke-width: 0.200000"/>
   <line x1="1044.749878" y1="1017.829102" x2="1044.749878" y2="1029.916748" style="stroke: green; stroke-width: 0.200000"/>
   <line x1="1045.749756" y1="1016.829163" x2="1045.749756" y2="1029.688599" style="stroke: green; stroke-width: 0.200000"/>
   <line x1="1046.749756" y1="1016.752258" x2="1046.749756" y2="1029.458496" style="stroke: green; stroke-width: 0.200000"/>
   <line x1="1047.749878" y1="1016.752258" x2="1047.749878" y2="1029.218994" style="stroke: green; stroke-width: 0.200000"/>
   <line x1="1075.749756" y1="1016.752258" x2="1075.749756" y2="1029.099731" style="stroke: green; stroke-width: 0.200000"/>
   <line x1="1048.749878" y1="1016.752258" x2="1048.749878" y2="1028.979492" style="stroke: green; stroke-width: 0.200000"/>
   <line x1="1049.749878" y1="1016.752258" x2="1049.749878" y2="1028.739990" style="stroke: green; stroke-width: 0.200000"/>
   <line x1="1050.749756" y1="1016.752258" x2="1050.749756" y2="1028.528442" style="stroke: green; stroke-width: 0.200000"/>
   <line x1="1051.749756" y1="1016.752258" x2="1051.749756" y2="1028.401611" style="stroke: green; stroke-width: 0.200000"/>
   <line x1="1076.749756" y1="1016.752258" x2="1076.749756" y2="1028.313110" style="stroke: green; stroke-width: 0.200000"/>
   <line x1="1052.749878" y1="1016.752258" x2="1052.749878" y2="1028.161499" style="stroke: green; stroke-width: 0.200000"/>
   <line x1="1053.749878" y1="1016.752258" x2="1053.749878" y2="1027.922241" style="stroke: green; stroke-width: 0.200000"/>
   <line x1="1054.749878" y1="1016.752258" x2="1054.749878" y2="1027.690552" style="stroke: green; stroke-width: 0.200000"/>
   <line x1="1077.749878" y1="1016.752258" x2="1077.749878" y2="1027.525757" style="stroke: green; stroke-width: 0.200000"/>
   <line x1="1055.749756" y1="1016.752258" x2="1055.749756" y2="1027.488281" style="stroke: green; stroke-width: 0.200000"/>
   <line x1="1056.749756" y1="1016.752258" x2="1056.749756" y2="1027.285889" style="stroke: green; stroke-width: 0.200000"/>
   <line x1="1057.749878" y1="1016.752258" x2="1057.749878" y2="1027.130005" style="stroke: green; stroke-width: 0.200000"/>
   <line x1="1058.749878" y1="1016.752258" x2="1058.749878" y2="1026.989746" style="stroke: green; stroke-width: 0.200000"/>
   <line x1="1059.749878" y1="1016.752258" x2="1059.749878" y2="1026.867065" style="stroke: green; stroke-width: 0.200000"/>
   <line x1="1060.749756" y1="1016.752258" x2="1060.749756" y2="1026.770508" style="stroke: green; stroke-width: 0.200000"/>
   <line x1="1078.749878" y1="1016.752258" x2="1078.749878" y2="1026.738525" style="stroke: green; stroke-width: 0.200000"/>
   <line x1="1061.749756" y1="1016.752258" x2="1061.749756" y2="1026.670776" style="stroke: green; stroke-width: 0.200000"/>
   <line x1="1062.749878" y1="1016.752258" x2="1062.749878" y2="1026.482178" style="stroke: green; stroke-width: 0.200000"/>
   <line x1="1063.749878" y1="1016.752258" x2="1063.749878" y2="1026.293457" style="stroke: green; stroke-width: 0.200000"/>
   <line x1="1064.749878" y1="1016.752258" x2="1064.749878" y2="1026.193359" style="stroke: green; stroke-width: 0.200000"/>
   <line x1="1065.749756" y1="1016.752258" x2="1065.749756" y2="1026.101562" style="stroke: green; stroke-width: 0.200000"/>
   <line x1="1066.749756" y1="1016.752258" x2="1066.749756" y2="1026.009766" style="stroke: green; stroke-width: 0.200000"/>
   <line x1="1079.749878" y1="1016.752258" x2="1079.749878" y2="1025.951294" style="stroke: green; stroke-width: 0.200000"/>
   <line x1="1067.749878" y1="1016.752258" x2="1067.749878" y2="1025.917847" style="stroke: green; stroke-width: 0.200000"/>
   <line x1="1068.749878" y1="1016.752258" x2="1068.749878" y2="1025.825928" style="stroke: green; stroke-width: 0.200000"/>
   <line x1="1069.749878" y1="1016.752258" x2="1069.749878" y2="1025.734131" style="stroke: green; stroke-width: 0.200000"/>
   <line x1="1070.749756" y1="1016.752258" x2="1070.749756" y2="1025.642212" style="stroke: green; stroke-width: 0.200000"/>
   <line x1="1071.749756" y1="1016.752258" x2="1071.749756" y2="1025.550415" style="stroke: green; stroke-width: 0.200000"/>
   <line x1="1072.749878" y1="1016.752258" x2="1072.749878" y2="1025.458496" style="stroke: green; stroke-width: 0.200000"/>
   <line x1="1073.749878" y1="1016.752258" x2="1073.749878" y2="1025.366699" style="stroke: green; stroke-width: 0.200000"/>
   <line x1="1074.749878" y1="1016.752258" x2="1074.749878" y2="1025.274780" style="stroke: green; stroke-width: 0.200000"/>
   <line x1="1080.749756" y1="1016.752258" x2="1080.749756" y2="1025.164062" style="stroke: green; stroke-width: 0.200000"/>
   <line x1="1081.749756" y1="1016.752258" x2="1081.749756" y2="1024.376831" style="stroke: green; stroke-width: 0.200000"/>
   <line x1="1082.749878" y1="1016.752258" x2="1082.749878" y2="1023.589539" style="stroke: green; stroke-width: 0.200000"/>
   <line x1="1083.749878" y1="1016.752258" x2="1083.749878" y2="1022.792297" style="stroke: green; stroke-width: 0.200000"/>
   <line x1="1084.749878" y1="1016.752258" x2="1084.749878" y2="1021.906189" style="stroke: green; stroke-width: 0.200000"/>
   <line x1="1085.749756" y1="1016.752258" x2="1085.749756" y2="1021.020203" style="stroke: green; stroke-width: 0.200000"/>
   <line x1="1086.749756" y1="1016.752258" x2="1086.749756" y2="1020.134155" style="stroke: green; stroke-width: 0.200000"/>
   <line x1="1087.749878" y1="1016.752258" x2="1087.749878" y2="1019.248108" style="stroke: green; stroke-width: 0.200000"/>
   <line x1="1101.749756" y1="1016.752258" x2="1101.749756" y2="1018.620728" style="stroke: green; stroke-width: 0.200000"/>
   <line x1="1088.749878" y1="1016.752258" x2="1088.749878" y2="1018.373657" style="stroke: green; stroke-width: 0.200000"/>
   <line x1="1102.749878" y1="1016.752258" x2="1102.749878" y2="1018.051147" style="stroke: green; stroke-width: 0.200000"/>
   <line x1="1100.749756" y1="1016.752258" x2="1100.749756" y2="1017.508545" style="stroke: green; stroke-width: 0.200000"/>
   <line x1="1089.749878" y1="1016.752258" x2="1089.749878" y2="1017.503967" style="stroke: green; stroke-width: 0.200000"/>
   <line x1="1103.749878" y1="1016.752258" x2="1103.749878" y2="1016.845947" style="stroke: green; stroke-width: 0.200000"/>
   <line x1="1077.345703" y1="1034.104126" x2="1077.345703" y2="1034.893066" style="stroke: green; stroke-width: 0.200000"/>
   <line x1="1076.345581" y1="1032.535278" x2="1076.345581" y2="1033.502075" style="stroke: green; stroke-width: 0.200000"/>
   <line x1="1041.978516" y1="966.560913" x2="1041.978516" y2="980.739136" style="stroke: green; stroke-width: 0.200000"/>
   <line x1="1040.978516" y1="966.594482" x2="1040.978516" y2="980.692078" style="stroke: green; stroke-width: 0.200000"/>
   <line x1="1042.978516" y1="966.653442" x2="1042.978516" y2="980.649963" style="stroke: green; stroke-width: 0.200000"/>
   <line x1="1039.978516" y1="966.772156" x2="1039.978516" y2="980.515381" style="stroke: green; stroke-width: 0.200000"/>
   <line x1="1043.978516" y1="966.896118" x2="1043.978516" y2="980.400146" style="stroke: green; stroke-width: 0.200000"/>
   <line x1="1038.978516" y1="967.103577" x2="1038.978516" y2="980.179504" style="stroke: green; stroke-width: 0.200000"/>
   <line x1="1044.978516" y1="967.302917" x2="1044.978516" y2="979.977783" style="stroke: green; stroke-width: 0.200000"/>
   <line x1="1037.978516" y1="967.620728" x2="1037.978516" y2="979.660095" style="stroke: green; stroke-width: 0.200000"/>
   <line x1="1045.978516" y1="967.915894" x2="1045.978516" y2="979.360046" style="stroke: green; stroke-width: 0.200000"/>
   <line x1="1036.978516" y1="968.382324" x2="1036.978516" y2="978.890503" style="stroke: green; stroke-width: 0.200000"/>
   <line x1="1046.978516" y1="968.827576" x2="1046.978516" y2="978.483948" style="stroke: green; stroke-width: 0.200000"/>
   <line x1="1035.978516" y1="969.543091" x2="1035.978516" y2="977.739258" style="stroke: green; stroke-width: 0.200000"/>
   <line x1="1047.978516" y1="970.218628" x2="1047.978516" y2="977.063110" style="stroke: green; stroke-width: 0.200000"/>
   <line x1="1034.978516" y1="971.568542" x2="1034.978516" y2="975.679016" style="stroke: green; stroke-width: 0.200000"/>
   <line x1="982.541382" y1="938.822510" x2="982.541382" y2="941.867920" style="stroke: green; stroke-width: 0.200000"/>
   <line x1="983.541321" y1="930.068604" x2="983.541321" y2="941.867920" style="stroke: green; stroke-width: 0.200000"/>
   <line x1="984.541321" y1="923.619873" x2="984.541321" y2="941.867920" style="stroke: green; stroke-width: 0.200000"/>
   <line x1="985.541321" y1="920.850769" x2="985.541321" y2="941.867920" style="stroke: green; stroke-width: 0.200000"/>
   <line x1="986.541382" y1="919.007263" x2="986.541382" y2="941.867920" style="stroke: green; stroke-width: 0.200000"/>
   <line x1="987.541382" y1="917.559204" x2="987.541382" y2="941.867920" style="stroke: green; stroke-width: 0.200000"/>
   <line x1="988.541321" y1="916.418091" x2="988.541321" y2="941.867920" style="stroke: green; stroke-width: 0.200000"/>
   <line x1="989.541321" y1="915.311035" x2="989.541321" y2="941.867920" style="stroke: green; stroke-width: 0.200000"/>
   <line x1="990.541321" y1="914.229492" x2="990.541321" y2="941.867920" style="stroke: green; stroke-width: 0.200000"/>
   <line x1="991.541382" y1="913.148071" x2="991.541382" y2="941.867920" style="stroke: green; stroke-width: 0.200000"/>
   <line x1="992.541382" y1="912.066589" x2="992.541382" y2="941.867920" style="stroke: green; stroke-width: 0.200000"/>
   <line x1="993.541321" y1="911.026367" x2="993.541321" y2="941.867920" style="stroke: green; stroke-width: 0.200000"/>
   <line x1="994.541321" y1="909.995239" x2="994.541321" y2="941.867920" style="stroke: green; stroke-width: 0.200000"/>
   <line x1="995.541321" y1="908.964172" x2="995.541321" y2="941.867920" style="stroke: green; stroke-width: 0.200000"/>
   <line x1="996.541382" y1="907.933044" x2="996.541382" y2="941.867920" style="stroke: green; stroke-width: 0.200000"/>
   <line x1="997.541382" y1="906.919250" x2="997.541382" y2="941.867920" style="stroke: green; stroke-width: 0.200000"/>
   <line x1="998.541321" y1="905.911621" x2="998.541321" y2="941.867920" style="stroke: green; stroke-width: 0.200000"/>
   <line x1="999.541321" y1="904.958740" x2="999.541321" y2="941.867920" style="stroke: green; stroke-width: 0.200000"/>
   <line x1="1000.541321" y1="904.084839" x2="1000.541321" y2="941.867920" style="stroke: green; stroke-width: 0.200000"/>
   <line x1="1001.541382" y1="903.211060" x2="1001.541382" y2="941.867920" style="stroke: green; stroke-width: 0.200000"/>
   <line x1="1002.541382" y1="902.337280" x2="1002.541382" y2="941.867920" style="stroke: green; stroke-width: 0.200000"/>
   <line x1="1003.541321" y1="901.463501" x2="1003.541321" y2="941.867920" style="stroke: green; stroke-width: 0.200000"/>
   <line x1="1004.541321" y1="900.589661" x2="1004.541321" y2="941.867920" style="stroke: green; stroke-width: 0.200000"/>
   <line x1="1005.541321" y1="899.715881" x2="1005.541321" y2="941.867920" style="stroke: green; stroke-width: 0.200000"/>
   <line x1="1006.541382" y1="898.890686" x2="1006.541382" y2="941.062927" style="stroke: green; stroke-width: 0.200000"/>
   <line x1="1007.541382" y1="898.112915" x2="1007.541382" y2="940.062927" style="stroke: green; stroke-width: 0.200000"/>
   <line x1="1008.541321" y1="897.364624" x2="1008.541321" y2="939.062866" style="stroke: green; stroke-width: 0.200000"/>
   <line x1="1009.541321" y1="896.631348" x2="1009.541321" y2="938.062866" style="stroke: green; stroke-width: 0.200000"/>
   <line x1="1010.541321" y1="895.897949" x2="1010.541321" y2="937.062927" style="stroke: green; stroke-width: 0.200000"/>
   <line x1="1011.541382" y1="895.164551" x2="1011.541382" y2="936.062927" style="stroke: green; stroke-width: 0.200000"/>
   <line x1="1012.541382" y1="894.431091" x2="1012.541382" y2="935.062927" style="stroke: green; stroke-width: 0.200000"/>
   <line x1="1013.541321" y1="893.806030" x2="1013.541321" y2="934.062866" style="stroke: green; stroke-width: 0.200000"/>
   <line x1="1014.541321" y1="893.291016" x2="1014.541321" y2="933.062866" style="stroke: green; stroke-width: 0.200000"/>
   <line x1="1015.541321" y1="892.840454" x2="1015.541321" y2="932.062927" style="stroke: green; stroke-width: 0.200000"/>
   <line x1="1016.541382" y1="892.494507" x2="1016.541382" y2="931.062927" style="stroke: green; stroke-width: 0.200000"/>
   <line x1="1017.541382" y1="892.239868" x2="1017.541382" y2="930.062866" style="stroke: green; stroke-width: 0.200000"/>
   <line x1="1018.541321" y1="892.051392" x2="1018.541321" y2="929.062866" style="stroke: green; stroke-width: 0.200000"/>
   <line x1="1019.541321" y1="891.922241" x2="1019.541321" y2="928.062866" style="stroke: green; stroke-width: 0.200000"/>
   <line x1="1020.541321" y1="891.883301" x2="1020.541321" y2="927.062927" style="stroke: green; stroke-width: 0.200000"/>
   <line x1="1021.541382" y1="891.899902" x2="1021.541382" y2="926.062927" style="stroke: green; stroke-width: 0.200000"/>
   <line x1="1022.541382" y1="891.963989" x2="1022.541382" y2="925.062866" style="stroke: green; stroke-width: 0.200000"/>
   <line x1="1023.541321" y1="892.106689" x2="1023.541321" y2="924.062866" style="stroke: green; stroke-width: 0.200000"/>
   <line x1="1024.541260" y1="892.304810" x2="1024.541260" y2="923.062866" style="stroke: green; stroke-width: 0.200000"/>
   <line x1="1025.541260" y1="892.555603" x2="1025.541260" y2="922.062927" style="stroke: green; stroke-width: 0.200000"/>
   <line x1="1026.541382" y1="892.913818" x2="1026.541382" y2="921.062927" style="stroke: green; stroke-width: 0.200000"/>
   <line x1="1027.541382" y1="893.325317" x2="1027.541382" y2="920.062866" style="stroke: green; stroke-width: 0.200000"/>
   <line x1="1028.541382" y1="893.779358" x2="1028.541382" y2="919.062866" style="stroke: green; stroke-width: 0.200000"/>
   <line x1="1029.541260" y1="894.321777" x2="1029.541260" y2="918.062866" style="stroke: green; stroke-width: 0.200000"/>
   <line x1="1030.541260" y1="894.905457" x2="1030.541260" y2="917.062927" style="stroke: green; stroke-width: 0.200000"/>
   <line x1="1031.541382" y1="895.546753" x2="1031.541382" y2="916.062927" style="stroke: green; stroke-width: 0.200000"/>
   <line x1="1032.541382" y1="896.276367" x2="1032.541382" y2="915.062866" style="stroke: green; stroke-width: 0.200000"/>
   <line x1="1033.541382" y1="897.097107" x2="1033.541382" y2="914.062866" style="stroke: green; stroke-width: 0.200000"/>
   <line x1="1034.541260" y1="898.015381" x2="1034.541260" y2="913.062866" style="stroke: green; stroke-width: 0.200000"/>
   <line x1="1035.541260" y1="898.933716" x2="1035.541260" y2="912.062927" style="stroke: green; stroke-width: 0.200000"/>
   <line x1="1036.541382" y1="899.906311" x2="1036.541382" y2="911.062927" style="stroke: green; stroke-width: 0.200000"/>
   <line x1="1043.541382" y1="907.242188" x2="1043.541382" y2="910.479370" style="stroke: green; stroke-width: 0.200000"/>
   <line x1="1037.541382" y1="900.949341" x2="1037.541382" y2="910.062866" style="stroke: green; stroke-width: 0.200000"/>
   <line x1="1044.541260" y1="908.304077" x2="1044.541260" y2="909.984070" style="stroke: green; stroke-width: 0.200000"/>
   <line x1="1042.541382" y1="906.180298" x2="1042.541382" y2="909.420837" style="stroke: green; stroke-width: 0.200000"/>
   <line x1="1038.541382" y1="901.992432" x2="1038.541382" y2="909.062866" style="stroke: green; stroke-width: 0.200000"/>
   <line x1="1041.541382" y1="905.121521" x2="1041.541382" y2="908.362305" style="stroke: green; stroke-width: 0.200000"/>
   <line x1="1039.541260" y1="903.035400" x2="1039.541260" y2="908.062866" style="stroke: green; stroke-width: 0.200000"/>
   <line x1="1040.541260" y1="904.078491" x2="1040.541260" y2="907.303711" style="stroke: green; stroke-width: 0.200000"/>
   <line x1="987.541382" y1="941.967896" x2="987.541382" y2="965.198853" style="stroke: green; stroke-width: 0.200000"/>
   <line x1="988.541321" y1="941.967896" x2="988.541321" y2="964.830566" style="stroke: green; stroke-width: 0.200000"/>
   <line x1="986.541382" y1="941.967896" x2="986.541382" y2="964.198730" style="stroke: green; stroke-width: 0.200000"/>
   <line x1="989.541321" y1="941.967896" x2="989.541321" y2="963.830566" style="stroke: green; stroke-width: 0.200000"/>
   <line x1="985.541321" y1="941.967896" x2="985.541321" y2="963.198792" style="stroke: green; stroke-width: 0.200000"/>
   <line x1="990.541321" y1="941.967896" x2="990.541321" y2="962.830566" style="stroke: green; stroke-width: 0.200000"/>
   <line x1="984.541321" y1="941.967896" x2="984.541321" y2="962.198792" style="stroke: green; stroke-width: 0.200000"/>
   <line x1="991.541382" y1="941.967896" x2="991.541382" y2="961.830566" style="stroke: green; stroke-width: 0.200000"/>
   <line x1="983.541321" y1="941.967896" x2="983.541321" y2="961.198792" style="stroke: green; stroke-width: 0.200000"/>
   <line x1="992.541382" y1="956.850830" x2="992.541382" y2="960.830566" style="stroke: green; stroke-width: 0.200000"/>
   <line x1="982.541382" y1="941.967896" x2="982.541382" y2="960.198853" style="stroke: green; stroke-width: 0.200000"/>
   <line x1="993.541321" y1="957.850830" x2="993.541321" y2="959.830566" style="stroke: green; stroke-width: 0.200000"/>
   <line x1="981.541382" y1="946.073242" x2="981.541382" y2="959.198853" style="stroke: green; stroke-width: 0.200000"/>
   <line x1="980.541321" y1="952.443542" x2="980.541321" y2="957.899902" style="stroke: green; stroke-width: 0.200000"/>
   <line x1="992.541382" y1="941.967896" x2="992.541382" y2="955.062866" style="stroke: green; stroke-width: 0.200000"/>
   <line x1="993.541321" y1="941.967896" x2="993.541321" y2="954.062866" style="stroke: green; stroke-width: 0.200000"/>
   <line x1="994.541321" y1="941.967896" x2="994.541321" y2="953.062866" style="stroke: green; stroke-width: 0.200000"/>
   <line x1="995.541321" y1="941.967896" x2="995.541321" y2="952.062927" style="stroke: green; stroke-width: 0.200000"/>
   <line x1="996.541382" y1="941.967896" x2="996.541382" y2="951.062927" style="stroke: green; stroke-width: 0.200000"/>
   <line x1="997.541382" y1="941.967896" x2="997.541382" y2="950.062927" style="stroke: green; stroke-width: 0.200000"/>
   <line x1="998.541321" y1="941.967896" x2="998.541321" y2="949.062866" style="stroke: green; stroke-width: 0.200000"/>
   <line x1="999.541321" y1="941.967896" x2="999.541321" y2="948.062866" style="stroke: green; stroke-width: 0.200000"/>
   <line x1="1000.541321" y1="941.967896" x2="1000.541321" y2="947.062927" style="stroke: green; stroke-width: 0.200000"/>
   <line x1="1001.541382" y1="941.967896" x2="1001.541382" y2="946.062927" style="stroke: green; stroke-width: 0.200000"/>
   <line x1="1002.541382" y1="941.967896" x2="1002.541382" y2="945.062927" style="stroke: green; stroke-width: 0.200000"/>
   <line x1="1003.541321" y1="941.967896" x2="1003.541321" y2="944.062866" style="stroke: green; stroke-width: 0.200000"/>
   <line x1="1004.541321" y1="941.967896" x2="1004.541321" y2="943.062866" style="stroke: green; stroke-width: 0.200000"/>
   <line x1="1005.541321" y1="941.967896" x2="1005.541321" y2="942.062927" style="stroke: green; stroke-width: 0.200000"/>
   <line x1="1017.817505" y1="1060.354248" x2="1017.817505" y2="1062.137939" style="stroke: green; stroke-width: 0.200000"/>
   <line x1="1018.817505" y1="1055.953125" x2="1018.817505" y2="1062.137939" style="stroke: green; stroke-width: 0.200000"/>
   <line x1="1019.817505" y1="1052.941162" x2="1019.817505" y2="1062.137939" style="stroke: green; stroke-width: 0.200000"/>
   <line x1="1020.817505" y1="1049.837646" x2="1020.817505" y2="1062.137939" style="stroke: green; stroke-width: 0.200000"/>
   <line x1="1021.817505" y1="1047.591064" x2="1021.817505" y2="1062.137939" style="stroke: green; stroke-width: 0.200000"/>
   <line x1="1022.817505" y1="1045.344482" x2="1022.817505" y2="1062.137939" style="stroke: green; stroke-width: 0.200000"/>
   <line x1="1023.817505" y1="1043.193359" x2="1023.817505" y2="1062.137939" style="stroke: green; stroke-width: 0.200000"/>
   <line x1="1024.817505" y1="1042.312744" x2="1024.817505" y2="1062.137939" style="stroke: green; stroke-width: 0.200000"/>
   <line x1="1025.817505" y1="1041.422363" x2="1025.817505" y2="1062.137939" style="stroke: green; stroke-width: 0.200000"/>
   <line x1="1026.817505" y1="1040.474121" x2="1026.817505" y2="1062.137939" style="stroke: green; stroke-width: 0.200000"/>
   <line x1="1027.817505" y1="1039.473389" x2="1027.817505" y2="1062.137939" style="stroke: green; stroke-width: 0.200000"/>
   <line x1="1028.817505" y1="1038.442871" x2="1028.817505" y2="1062.137939" style="stroke: green; stroke-width: 0.200000"/>
   <line x1="1029.817505" y1="1037.328735" x2="1029.817505" y2="1059.729980" style="stroke: green; stroke-width: 0.200000"/>
   <line x1="1030.817505" y1="1036.160400" x2="1030.817505" y2="1057.232178" style="stroke: green; stroke-width: 0.200000"/>
   <line x1="1031.817505" y1="1035.363037" x2="1031.817505" y2="1054.729736" style="stroke: green; stroke-width: 0.200000"/>
   <line x1="1032.817505" y1="1034.747314" x2="1032.817505" y2="1052.959961" style="stroke: green; stroke-width: 0.200000"/>
   <line x1="1033.817505" y1="1034.128784" x2="1033.817505" y2="1051.331177" style="stroke: green; stroke-width: 0.200000"/>
   <line x1="1034.817505" y1="1033.510132" x2="1034.817505" y2="1049.871460" style="stroke: green; stroke-width: 0.200000"/>
   <line x1="1035.817505" y1="1032.891602" x2="1035.817505" y2="1048.776611" style="stroke: green; stroke-width: 0.200000"/>
   <line x1="1036.817505" y1="1032.422852" x2="1036.817505" y2="1047.687256" style="stroke: green; stroke-width: 0.200000"/>
   <line x1="1037.817505" y1="1032.203369" x2="1037.817505" y2="1046.658203" style="stroke: green; stroke-width: 0.200000"/>
   <line x1="1038.817505" y1="1031.972290" x2="1038.817505" y2="1045.813477" style="stroke: green; stroke-width: 0.200000"/>
   <line x1="1039.817505" y1="1031.614990" x2="1039.817505" y2="1045.150635" style="stroke: green; stroke-width: 0.200000"/>
   <line x1="1040.817505" y1="1031.215088" x2="1040.817505" y2="1044.487549" style="stroke: green; stroke-width: 0.200000"/>
   <line x1="1041.817505" y1="1030.808105" x2="1041.817505" y2="1043.824585" style="stroke: green; stroke-width: 0.200000"/>
   <line x1="1042.817505" y1="1030.395630" x2="1042.817505" y2="1043.161621" style="stroke: green; stroke-width: 0.200000"/>
   <line x1="1043.817505" y1="1030.129517" x2="1043.817505" y2="1042.679199" style="stroke: green; stroke-width: 0.200000"/>
   <line x1="1044.817505" y1="1029.901367" x2="1044.817505" y2="1042.279175" style="stroke: green; stroke-width: 0.200000"/>
   <line x1="1045.817505" y1="1029.673218" x2="1045.817505" y2="1041.865601" style="stroke: green; stroke-width: 0.200000"/>
   <line x1="1046.817505" y1="1029.442383" x2="1046.817505" y2="1041.452026" style="stroke: green; stroke-width: 0.200000"/>
   <line x1="1047.817505" y1="1029.203003" x2="1047.817505" y2="1041.038330" style="stroke: green; stroke-width: 0.200000"/>
   <line x1="1048.817505" y1="1028.963379" x2="1048.817505" y2="1040.624756" style="stroke: green; stroke-width: 0.200000"/>
   <line x1="1049.817505" y1="1028.723877" x2="1049.817505" y2="1040.260742" style="stroke: green; stroke-width: 0.200000"/>
   <line x1="1050.817505" y1="1028.520752" x2="1050.817505" y2="1039.897583" style="stroke: green; stroke-width: 0.200000"/>
   <line x1="1051.817505" y1="1028.385498" x2="1051.817505" y2="1039.534424" style="stroke: green; stroke-width: 0.200000"/>
   <line x1="1052.817505" y1="1028.145508" x2="1052.817505" y2="1039.173706" style="stroke: green; stroke-width: 0.200000"/>
   <line x1="1053.817505" y1="1027.906250" x2="1053.817505" y2="1038.835571" style="stroke: green; stroke-width: 0.200000"/>
   <line x1="1054.817505" y1="1027.676880" x2="1054.817505" y2="1038.513184" style="stroke: green; stroke-width: 0.200000"/>
   <line x1="1055.817505" y1="1027.474609" x2="1055.817505" y2="1038.273926" style="stroke: green; stroke-width: 0.200000"/>
   <line x1="1056.817505" y1="1027.272217" x2="1056.817505" y2="1038.036377" style="stroke: green; stroke-width: 0.200000"/>
   <line x1="1057.817505" y1="1027.120605" x2="1057.817505" y2="1037.833862" style="stroke: green; stroke-width: 0.200000"/>
   <line x1="1058.817505" y1="1026.980347" x2="1058.817505" y2="1037.631470" style="stroke: green; stroke-width: 0.200000"/>
   <line x1="1059.817505" y1="1026.860596" x2="1059.817505" y2="1037.429077" style="stroke: green; stroke-width: 0.200000"/>
   <line x1="1060.817505" y1="1026.764160" x2="1060.817505" y2="1037.174438" style="stroke: green; stroke-width: 0.200000"/>
   <line x1="1061.817505" y1="1026.658081" x2="1061.817505" y2="1036.966064" style="stroke: green; stroke-width: 0.200000"/>
   <line x1="1062.817505" y1="1026.469482" x2="1062.817505" y2="1036.777832" style="stroke: green; stroke-width: 0.200000"/>
   <line x1="1063.817505" y1="1026.280762" x2="1063.817505" y2="1036.589478" style="stroke: green; stroke-width: 0.200000"/>
   <line x1="1064.817505" y1="1026.187256" x2="1064.817505" y2="1036.401123" style="stroke: green; stroke-width: 0.200000"/>
   <line x1="1065.817505" y1="1026.095459" x2="1065.817505" y2="1036.212891" style="stroke: green; stroke-width: 0.200000"/>
   <line x1="1066.817505" y1="1026.003662" x2="1066.817505" y2="1036.024414" style="stroke: green; stroke-width: 0.200000"/>
   <line x1="1067.817505" y1="1025.911621" x2="1067.817505" y2="1035.898193" style="stroke: green; stroke-width: 0.200000"/>
   <line x1="1068.817505" y1="1025.819824" x2="1068.817505" y2="1035.806274" style="stroke: green; stroke-width: 0.200000"/>
   <line x1="1069.817505" y1="1025.728027" x2="1069.817505" y2="1035.701904" style="stroke: green; stroke-width: 0.200000"/>
   <line x1="1070.817505" y1="1025.636108" x2="1070.817505" y2="1035.558350" style="stroke: green; stroke-width: 0.200000"/>
   <line x1="1071.817505" y1="1025.544312" x2="1071.817505" y2="1035.414795" style="stroke: green; stroke-width: 0.200000"/>
   <line x1="1072.817505" y1="1025.452393" x2="1072.817505" y2="1035.300537" style="stroke: green; stroke-width: 0.200000"/>
   <line x1="1073.817505" y1="1025.360596" x2="1073.817505" y2="1035.216553" style="stroke: green; stroke-width: 0.200000"/>
   <line x1="1074.817505" y1="1025.268677" x2="1074.817505" y2="1035.132568" style="stroke: green; stroke-width: 0.200000"/>
   <line x1="1075.817505" y1="1029.046509" x2="1075.817505" y2="1035.048584" style="stroke: green; stroke-width: 0.200000"/>
   <line x1="1077.817505" y1="1027.472656" x2="1077.817505" y2="1034.839966" style="stroke: green; stroke-width: 0.200000"/>
   <line x1="1078.817505" y1="1026.685425" x2="1078.817505" y2="1034.756836" style="stroke: green; stroke-width: 0.200000"/>
   <line x1="1079.817505" y1="1025.898193" x2="1079.817505" y2="1034.684082" style="stroke: green; stroke-width: 0.200000"/>
   <line x1="1080.817505" y1="1025.110840" x2="1080.817505" y2="1034.548950" style="stroke: green; stroke-width: 0.200000"/>
   <line x1="1081.817505" y1="1024.323608" x2="1081.817505" y2="1034.409912" style="stroke: green; stroke-width: 0.200000"/>
   <line x1="1082.817505" y1="1023.536377" x2="1082.817505" y2="1034.267090" style="stroke: green; stroke-width: 0.200000"/>
   <line x1="1083.817505" y1="1022.732483" x2="1083.817505" y2="1033.960571" style="stroke: green; stroke-width: 0.200000"/>
   <line x1="1084.817505" y1="1021.846375" x2="1084.817505" y2="1033.644287" style="stroke: green; stroke-width: 0.200000"/>
   <line x1="1085.817505" y1="1020.960388" x2="1085.817505" y2="1033.289307" style="stroke: green; stroke-width: 0.200000"/>
   <line x1="1076.817505" y1="1028.259888" x2="1076.817505" y2="1033.275879" style="stroke: green; stroke-width: 0.200000"/>
   <line x1="1086.817505" y1="1020.074341" x2="1086.817505" y2="1032.784180" style="stroke: green; stroke-width: 0.200000"/>
   <line x1="1087.817505" y1="1019.188293" x2="1087.817505" y2="1032.278931" style="stroke: green; stroke-width: 0.200000"/>
   <line x1="1088.817505" y1="1018.314941" x2="1088.817505" y2="1031.550415" style="stroke: green; stroke-width: 0.200000"/>
   <line x1="1089.817505" y1="1017.445190" x2="1089.817505" y2="1030.902100" style="stroke: green; stroke-width: 0.200000"/>
   <line x1="1090.817505" y1="1016.575562" x2="1090.817505" y2="1030.063354" style="stroke: green; stroke-width: 0.200000"/>
   <line x1="1091.817505" y1="1015.705811" x2="1091.817505" y2="1029.152100" style="stroke: green; stroke-width: 0.200000"/>
   <line x1="1092.817505" y1="1014.836121" x2="1092.817505" y2="1028.222534" style="stroke: green; stroke-width: 0.200000"/>
   <line x1="1093.817505" y1="1013.966431" x2="1093.817505" y2="1027.292969" style="stroke: green; stroke-width: 0.200000"/>
   <line x1="1094.817505" y1="1013.096680" x2="1094.817505" y2="1026.363525" style="stroke: green; stroke-width: 0.200000"/>
   <line x1="1095.817505" y1="1012.227051" x2="1095.817505" y2="1025.424927" style="stroke: green; stroke-width: 0.200000"/>
   <line x1="1096.817505" y1="1013.135864" x2="1096.817505" y2="1024.378906" style="stroke: green; stroke-width: 0.200000"/>
   <line x1="1097.817505" y1="1014.247925" x2="1097.817505" y2="1023.333008" style="stroke: green; stroke-width: 0.200000"/>
   <line x1="1098.817505" y1="1015.360046" x2="1098.817505" y2="1022.298340" style="stroke: green; stroke-width: 0.200000"/>
   <line x1="1099.817505" y1="1016.472046" x2="1099.817505" y2="1021.266418" style="stroke: green; stroke-width: 0.200000"/>
   <line x1="1100.817505" y1="1017.583984" x2="1100.817505" y2="1020.234497" style="stroke: green; stroke-width: 0.200000"/>
   <line x1="1101.817505" y1="1018.696167" x2="1101.817505" y2="1019.174744" style="stroke: green; stroke-width: 0.200000"/>
   <line x1="995.817505" y1="1100.633789" x2="995.817505" y2="1109.671387" style="stroke: green; stroke-width: 0.200000"/>
   <line x1="996.817505" y1="1099.818481" x2="996.817505" y2="1109.517944" style="stroke: green; stroke-width: 0.200000"/>
   <line x1="997.817505" y1="1099.003174" x2="997.817505" y2="1109.317017" style="stroke: green; stroke-width: 0.200000"/>
   <line x1="994.817505" y1="1101.449219" x2="994.817505" y2="1109.077515" style="stroke: green; stroke-width: 0.200000"/>
   <line x1="998.817505" y1="1098.187744" x2="998.817505" y2="1109.030640" style="stroke: green; stroke-width: 0.200000"/>
   <line x1="999.817505" y1="1097.369263" x2="999.817505" y2="1108.678711" style="stroke: green; stroke-width: 0.200000"/>
   <line x1="1000.817505" y1="1096.540039" x2="1000.817505" y2="1108.310059" style="stroke: green; stroke-width: 0.200000"/>
   <line x1="1001.817505" y1="1095.710938" x2="1001.817505" y2="1107.850464" style="stroke: green; stroke-width: 0.200000"/>
   <line x1="993.817505" y1="1102.264648" x2="993.817505" y2="1107.686401" style="stroke: green; stroke-width: 0.200000"/>
   <line x1="1002.817505" y1="1094.881470" x2="1002.817505" y2="1107.355103" style="stroke: green; stroke-width: 0.200000"/>
   <line x1="1003.817505" y1="1094.053101" x2="1003.817505" y2="1106.786377" style="stroke: green; stroke-width: 0.200000"/>
   <line x1="992.817505" y1="1103.080078" x2="992.817505" y2="1106.295410" style="stroke: green; stroke-width: 0.200000"/>
   <line x1="1004.817505" y1="1093.228271" x2="1004.817505" y2="1106.169189" style="stroke: green; stroke-width: 0.200000"/>
   <line x1="1005.817505" y1="1092.320557" x2="1005.817505" y2="1105.488037" style="stroke: green; stroke-width: 0.200000"/>
   <line x1="991.817505" y1="1103.895386" x2="991.817505" y2="1104.905029" style="stroke: green; stroke-width: 0.200000"/>
   <line x1="1006.817505" y1="1091.390991" x2="1006.817505" y2="1104.692017" style="stroke: green; stroke-width: 0.200000"/>
   <line x1="1007.817505" y1="1090.460205" x2="1007.817505" y2="1103.860596" style="stroke: green; stroke-width: 0.200000"/>
   <line x1="1008.817505" y1="1089.529541" x2="1008.817505" y2="1103.029053" style="stroke: green; stroke-width: 0.200000"/>
   <line x1="1009.817505" y1="1088.598755" x2="1009.817505" y2="1102.197632" style="stroke: green; stroke-width: 0.200000"/>
   <line x1="1010.817505" y1="1087.642090" x2="1010.817505" y2="1101.364258" style="stroke: green; stroke-width: 0.200000"/>
   <line x1="1011.817505" y1="1086.675293" x2="1011.817505" y2="1100.482910" style="stroke: green; stroke-width: 0.200000"/>
   <line x1="1012.817505" y1="1085.553955" x2="1012.817505" y2="1099.551880" style="stroke: green; stroke-width: 0.200000"/>
   <line x1="1013.817505" y1="1083.888672" x2="1013.817505" y2="1098.620850" style="stroke: green; stroke-width: 0.200000"/>
   <line x1="1014.817505" y1="1078.728760" x2="1014.817505" y2="1097.689941" style="stroke: green; stroke-width: 0.200000"/>
   <line x1="1015.817505" y1="1070.813110" x2="1015.817505" y2="1096.758911" style="stroke: green; stroke-width: 0.200000"/>
   <line x1="1016.817505" y1="1065.134155" x2="1016.817505" y2="1095.827881" style="stroke: green; stroke-width: 0.200000"/>
   <line x1="1017.817505" y1="1062.237793" x2="1017.817505" y2="1094.815308" style="stroke: green; stroke-width: 0.200000"/>
   <line x1="1018.817505" y1="1062.237793" x2="1018.817505" y2="1093.785767" style="stroke: green; stroke-width: 0.200000"/>
   <line x1="1019.817505" y1="1062.237793" x2="1019.817505" y2="1092.750610" style="stroke: green; stroke-width: 0.200000"/>
   <line x1="1020.817505" y1="1062.237793" x2="1020.817505" y2="1091.591797" style="stroke: green; stroke-width: 0.200000"/>
   <line x1="1021.817505" y1="1062.237793" x2="1021.817505" y2="1090.281250" style="stroke: green; stroke-width: 0.200000"/>
   <line x1="1022.817505" y1="1062.237793" x2="1022.817505" y2="1088.579346" style="stroke: green; stroke-width: 0.200000"/>
   <line x1="1023.817505" y1="1062.237793" x2="1023.817505" y2="1085.730103" style="stroke: green; stroke-width: 0.200000"/>
   <line x1="1024.817505" y1="1062.237793" x2="1024.817505" y2="1080.381348" style="stroke: green; stroke-width: 0.200000"/>
   <line x1="1025.817505" y1="1062.237793" x2="1025.817505" y2="1074.265015" style="stroke: green; stroke-width: 0.200000"/>
   <line x1="1026.817505" y1="1062.237793" x2="1026.817505" y2="1069.433350" style="stroke: green; stroke-width: 0.200000"/>
   <line x1="1027.817505" y1="1062.237793" x2="1027.817505" y2="1065.303345" style="stroke: green; stroke-width: 0.200000"/>
   <line x1="1028.817505" y1="1062.237793" x2="1028.817505" y2="1062.412231" style="stroke: green; stroke-width: 0.200000"/>
   <line x1="1023.052979" y1="1043.797363" x2="1023.052979" y2="1044.715088" style="stroke: green; stroke-width: 0.200000"/>
   <line x1="1031.274292" y1="1035.546265" x2="1031.274292" y2="1035.681519" style="stroke: green; stroke-width: 0.200000"/>
   <line x1="1032.274292" y1="1034.280029" x2="1032.274292" y2="1035.083130" style="stroke: green; stroke-width: 0.200000"/>
   <line x1="1033.274414" y1="1034.464355" x2="1033.274414" y2="1034.464722" style="stroke: green; stroke-width: 0.200000"/>
   <line x1="1076.760742" y1="1033.186768" x2="1076.760742" y2="1034.959106" style="stroke: green; stroke-width: 0.200000"/>
   <line x1="1077.760742" y1="1034.755615" x2="1077.760742" y2="1034.846802" style="stroke: green; stroke-width: 0.200000"/>
   <line x1="1059.032715" y1="1026.950073" x2="1059.032715" y2="1026.950806" style="stroke: green; stroke-width: 0.200000"/>
   <line x1="1108.879761" y1="1010.341064" x2="1108.879761" y2="1010.341431" style="stroke: green; stroke-width: 0.200000"/>
   <line x1="1024.127930" y1="892.208801" x2="1024.127930" y2="892.209106" style="stroke: green; stroke-width: 0.200000"/>
   <path d="M 992.565  1111.52  990.348  1111.6  987.874  1111.56  987.017  1111.5  985.209  1111.28  982.481  1110.83  979.748  1110.25  976.991  1109.54  974.077  1108.54  971.202  1107.42  969.445  1106.68  964.145  1104.19  958.494  1101.4  962.557  1097.34  964.767  1098.11  967.723  1098.96  1001.46  1065.22  998.349  1062.11  1011.05  1049.41  1011.46  1049.27  1012.57  1048.79  1016.89  1046.35  1017.74  1045.82  1020.5  1043.91  1022.95  1041.97  1025.26  1039.91  1027.44  1037.72  1028.5  1036.56  1029.56  1035.34  1030.26  1034.39  1031.67  1032.63  1032.65  1031.28  1035.2  1027.16  1035.48  1026.67  1035.95  1025.71  1036.27  1024.88  1036.51  1024.06  1036.54  1023.92  1049.13  1011.32  1052.25  1014.43  1094.8  971.882  1091.76  968.133  1095.48  964.411  1099.09  968.889  1103.38  974.045  1105.23  976.441  1106.05  977.588  1106.96  978.935  1108.46  981.413  1109.3  982.964  1109.84  983.98  1111.07  986.617  1111.23  987.018  1111.97  989.159  1112.14  989.767  1112.67  991.675  1112.91  992.869  " style="fill: none; stroke: darkmagenta; stroke-width: 0.200000; fill-type: evenodd"  fill-opacity="1.000000" />
   <path d="M 1112.91  992.869  1113.19  994.193  1113.52  996.692  1113.55  997.161  1113.61  997.556  1113.68  999.167  1113.64  1000.32  1113.56  1001.51  1113.22  1003.74  1112.68  1005.86  1111.97  1007.87  1111.06  1009.76  1110.94  1009.96  1109.97  1011.41  1108.31  1013.69  1102.77  1020.37  1099.09  1024.17  1096.79  1026.58  1092.25  1030.8  1091.22  1031.71  1090.72  1032.1  1089.64  1032.81  1088.86  1033.43  1086.18  1034.79  1083.21  1035.72  1082.57  1035.82  1080.04  1036.17  1078.22  1036.3  1076.54  1036.49  1072.49  1036.83  1069.75  1037.23  1067.38  1037.44  1061.39  1038.57  1060.45  1038.83  1057.1  1039.51  1055.07  1039.99  1053.22  1040.62  1049.38  1042.02  1045.39  1043.67  1043.83  1044.29  1039.28  1047.31  1037.82  1048.8  1035.74  1051.09  1034.27  1053.43  1033.1  1055.5  1031.32  1060.08  1031.1  1060.52  1029.36  1065.32  1028.11  1070.47  1028  1071.18  1027.51  1073.45  1027.05  1075.78  1026.93  1076.72  1026.28  1080.71  1025.84  1083.64  1025.56  1085.05  1025.17  1086.45  1024.62  1088.06  1024.22  1089.15  1023.59  1090.25  1022.76  1091.62  1021.16  1093.51  1020.79  1093.91  1018.04  1096.74  1012.68  1101.73  1011.74  1102.55  1007.05  1106.45  1006.08  1107.15  1004.81  1107.95  1003.18  1108.87  1001.4  1109.69  999.491  1110.4  998.212  1110.77  997.389  1110.95  995.127  1111.29  992.772  1111.51  992.565  1111.52  " style="fill: none; stroke: red; stroke-width: 0.200000; fill-type: evenodd"  fill-opacity="1.000000" />
   <path d="M 1005.26  1106.48  1004.29  1107.09  1002.72  1107.98  1001.02  1108.77  999.179  1109.45  997.965  1109.8  997.206  1109.96  995.005  1110.3  992.708  1110.51  990.338  1110.6  987.916  1110.56  987.111  1110.51  985.351  1110.29  982.666  1109.85  979.977  1109.28  977.28  1108.58  974.42  1107.6  971.577  1106.5  969.853  1105.77  964.579  1103.29  960.188  1101.12  962.82  1098.49  964.464  1099.06  968.014  1100.08  1002.87  1065.22  999.763  1062.11  1011.59  1050.28  1011.81  1050.21  1013.02  1049.69  1017.41  1047.21  1018.29  1046.66  1021.09  1044.71  1023.59  1042.73  1025.95  1040.63  1028.17  1038.41  1029.25  1037.22  1030.33  1035.97  1031.06  1035  1032.47  1033.24  1033.49  1031.83  1036.06  1027.67  1036.37  1027.13  1036.86  1026.11  1037.22  1025.2  1037.45  1024.42  1049.13  1012.74  1052.25  1015.85  1096.14  971.952  1093.1  968.203  1095.4  965.905  1098.31  969.522  1102.6  974.672  1104.43  977.037  1105.23  978.158  1106.12  979.475  1107.59  981.909  1108.42  983.436  1108.94  984.427  1110.16  987.015  1110.3  987.367  1111.02  989.458  1111.18  990.034  1111.7  991.909  1112.2  994.36  1112.52  996.785  1112.55  997.268  1112.61  997.659  1112.68  999.17  1112.64  1000.27  1112.56  1001.4  1112.23  1003.54  1111.73  1005.57  1111.04  1007.49  1110.18  1009.28  1110.1  1009.42  1109.15  1010.84  1107.52  1013.08  1102.03  1019.7  1098.37  1023.48  1096.09  1025.86  1095.4  1026.51  " style="fill: none; stroke: black; stroke-width: 0.200000; fill-type: evenodd"  fill-opacity="1.000000" />
   <path d="M 1095.4  1026.51  1091.57  1030.06  1090.57  1030.95  1090.14  1031.29  1089.05  1032  1088.32  1032.59  1088.26  1032.62  " style="fill: none; stroke: red; stroke-width: 0.200000; fill-type: evenodd"  fill-opacity="1.000000" />
   <path d="M 1088.26  1032.62  1085.8  1033.86  1082.99  1034.75  1082.43  1034.83  1079.93  1035.18  1078.12  1035.31  1076.45  1035.5  1072.38  1035.84  1069.63  1036.23  1067.24  1036.45  1066.68  1036.56  " style="fill: none; stroke: black; stroke-width: 0.200000; fill-type: evenodd"  fill-opacity="1.000000" />
   <path d="M 1066.68  1036.56  1061.16  1037.6  1060.21  1037.86  1056.88  1038.53  1054.8  1039.03  1052.89  1039.68  1049.01  1041.08  1045.01  1042.74  1043.36  1043.4  1038.63  1046.53  1037.1  1048.12  1034.94  1050.48  1033.42  1052.92  1032.2  1055.07  1030.4  1059.68  1030.18  1060.13  1028.4  1065.03  1027.13  1070.28  1027.02  1071  1026.53  1073.25  1026.06  1075.62  1025.94  1076.58  1025.3  1080.56  1024.86  1083.47  1024.59  1084.82  1024.22  1086.16  1023.68  1087.72  1023.31  1088.73  1022.73  1089.75  1021.95  1091.03  1020.49  1092.75  " style="fill: none; stroke: red; stroke-width: 0.200000; fill-type: evenodd"  fill-opacity="1.000000" />
   <path d="M 1020.49  1092.75  1020.41  1092.85  1020.06  1093.22  1018.69  1094.63  " style="fill: none; stroke: black; stroke-width: 0.200000; fill-type: evenodd"  fill-opacity="1.000000" />
   <path d="M 1018.69  1094.63  1017.34  1096.03  1012.01  1100.99  1011.1  1101.79  1006.44  1105.66  1005.52  1106.32  1005.26  1106.48  " style="fill: none; stroke: red; stroke-width: 0.200000; fill-type: evenodd"  fill-opacity="1.000000" />
   <path d="M 960.931  1045.68  962.088  1045.71  963.403  1045.97  963.508  1046  964.772  1046.48  964.866  1046.52  966.108  1047.26  967.184  1048.17  968.122  1049.29  968.848  1050.51  968.989  1050.86  969.368  1051.86  969.656  1053.29  969.699  1054.75  969.496  1056.19  969.053  1057.58  968.383  1058.87  967.501  1060.04  967.236  1060.3  966.441  1061.03  966.134  1061.25  965.226  1061.84  964.887  1062  963.894  1062.42  963.532  1062.53  962.481  1062.78  962.107  1062.82  961.029  1062.89  960.653  1062.87  959.579  1062.76  959.211  1062.68  958.172  1062.38  957.823  1062.24  956.849  1061.78  956.528  1061.58  955.648  1060.95  955.391  1060.73  954.631  1059.97  954.392  1059.7  953.571  1058.48  952.97  1057.16  952.6  1055.75  952.472  1054.3  952.589  1052.85  952.949  1051.44  953.54  1050.11  954.348  1048.9  955.239  1047.95  955.341  1047.85  956.509  1046.97  957.803  1046.3  959.19  1045.86  960.626  1045.66  960.931  1045.68  " style="fill: none; stroke: darkmagenta; stroke-width: 0.200000; fill-type: evenodd"  fill-opacity="1.000000" />
   <path d="M 960.893  1046.68  961.976  1046.71  963.216  1046.96  964.418  1047.42  965.525  1048.08  966.472  1048.88  967.304  1049.87  967.949  1050.95  968.058  1051.22  968.404  1052.14  968.659  1053.41  968.697  1054.69  968.518  1055.97  968.126  1057.19  967.534  1058.33  966.745  1059.38  966.544  1059.58  965.81  1060.25  965.572  1060.42  964.736  1060.96  964.473  1061.09  963.557  1061.48  963.276  1061.56  962.307  1061.79  962.017  1061.83  961.023  1061.89  960.731  1061.88  959.741  1061.77  959.456  1061.71  958.498  1061.44  958.227  1061.33  957.328  1060.9  957.08  1060.74  956.265  1060.17  956.072  1060  955.364  1059.29  955.188  1059.09  954.447  1057.99  953.915  1056.82  953.588  1055.58  953.475  1054.3  953.579  1053.02  953.897  1051.77  954.419  1050.6  955.134  1049.53  955.957  1048.65  955.998  1048.61  957.043  1047.82  958.186  1047.23  959.411  1046.84  960.67  1046.67  960.893  1046.68  " style="fill: none; stroke: black; stroke-width: 0.200000; fill-type: evenodd"  fill-opacity="1.000000" />
   <path d="M 946.07  993.338  946.298  993.494  946.791  993.89  947.238  994.304  954.213  1001.28  945.867  1009.63  942.983  1006.74  896.877  1052.85  900.411  1056.24  896.706  1059.94  895.382  1058.71  893.985  1057.37  889.435  1052.84  887.635  1050.98  886.041  1049.22  885.641  1048.67  884.733  1047.59  884.219  1046.87  882.563  1044.33  881.098  1041.29  880.331  1038.92  880.192  1038.46  " style="fill: none; stroke: darkmagenta; stroke-width: 0.200000; fill-type: evenodd"  fill-opacity="1.000000" />
   <path d="M 880.192  1038.46  880.161  1038.35  879.918  1036.96  879.88  1036.58  879.79  1035.6  879.773  1034.27  879.866  1032.97  880  1032.12  880.067  1031.73  880.375  1030.52  880.883  1029.13  881.277  1028.38  883.579  1024.39  884.529  1022.95  886.394  1020.04  887.276  1018.87  889.486  1015.86  892.815  1011.88  896.35  1008.07  899.38  1005.05  900.038  1004.41  904.655  1000.07  907.008  998.336  909.576  996.935  912.368  995.916  915.285  995.289  920.821  994.507  924.182  993.979  926.129  993.752  931.212  993.104  939.711  992.483  941.95  992.383  943.314  992.393  943.536  992.397  943.611  992.422  944.308  992.548  944.809  992.695  945.304  992.897  945.788  993.152  945.968  993.268  946.07  993.338  " style="fill: none; stroke: red; stroke-width: 0.200000; fill-type: evenodd"  fill-opacity="1.000000" />
   <path d="M 943.301  993.393  943.368  993.394  944.077  993.522  944.478  993.64  944.881  993.805  945.283  994.016  945.414  994.101  945.701  994.298  946.137  994.647  946.544  995.025  952.799  1001.28  945.867  1008.21  942.983  1005.33  895.447  1052.86  898.982  1056.25  896.682  1058.55  896.068  1057.98  894.683  1056.66  890.147  1052.14  888.365  1050.3  886.82  1048.59  886.43  1048.05  885.524  1046.97  885.045  1046.3  883.436  1043.84  882.029  1040.92  881.286  1038.63  881.136  1038.12  880.909  1036.82  880.876  1036.48  880.789  1035.55  880.774  1034.3  880.861  1033.09  880.987  1032.28  881.046  1031.93  881.331  1030.82  881.799  1029.54  882.154  1028.86  884.43  1024.92  885.368  1023.5  887.215  1020.61  888.078  1019.47  890.273  1016.48  893.566  1012.54  897.07  1008.76  900.082  1005.76  900.729  1005.13  905.297  1000.84  907.546  999.182  909.989  997.849  912.646  996.879  915.46  996.274  920.968  995.496  924.318  994.97  926.25  994.744  931.312  994.1  939.77  993.482  941.969  993.383  943.301  993.393  " style="fill: none; stroke: black; stroke-width: 0.200000; fill-type: evenodd"  fill-opacity="1.000000" />
   <path d="M 1041.6  965.051  1042.76  965.08  1044.08  965.344  1044.18  965.367  1045.45  965.854  1045.54  965.892  1046.78  966.631  1047.86  967.543  1048.8  968.659  1049.52  969.88  1049.66  970.227  1050.04  971.233  1050.33  972.663  1050.37  974.118  1050.17  975.56  1049.73  976.948  1049.06  978.241  1048.17  979.409  1047.91  979.673  1047.11  980.404  1046.81  980.622  1045.9  981.208  1045.56  981.372  1044.57  981.796  1044.21  981.901  1043.16  982.151  1042.78  982.195  1041.7  982.263  1041.33  982.244  1040.25  982.13  1039.89  982.048  1038.85  981.754  1038.5  981.612  1037.52  981.146  1037.2  980.948  1036.32  980.326  1036.05  980.093  1035.93  979.95  1035.19  979.216  1035.07  979.067  1034.25  977.864  1034.16  977.648  1033.72  976.711  1033.65  976.541  1033.27  975.124  1033.15  973.675  1033.26  972.225  1033.62  970.815  1034.21  969.485  1035.02  968.274  1035.91  967.323  1036.01  967.221  1037.18  966.342  1038.48  965.675  1039.86  965.235  1041.3  965.035  1041.6  965.051  " style="fill: none; stroke: darkmagenta; stroke-width: 0.200000; fill-type: evenodd"  fill-opacity="1.000000" />
   <path d="M 1041.57  966.05  1042.65  966.078  1043.89  966.327  1045.09  966.789  1046.2  967.448  1047.15  968.251  1047.98  969.24  1048.62  970.326  1048.73  970.592  1049.08  971.51  1049.33  972.777  1049.37  974.063  1049.19  975.337  1048.8  976.563  1048.21  977.706  1047.42  978.751  1047.22  978.951  1046.48  979.625  1046.25  979.794  1045.41  980.334  1045.15  980.461  1044.23  980.852  1043.95  980.934  1042.98  981.165  1042.69  981.198  1041.7  981.262  1041.41  981.247  1040.42  981.141  1040.13  981.078  1039.17  980.807  1038.9  980.697  1038  980.267  1037.75  980.114  1036.94  979.537  1036.76  979.383  1036.66  979.269  1035.93  978.535  1035.86  978.459  1035.14  977.39  1035.08  977.244  1034.63  976.307  1034.6  976.224  1034.26  974.952  1034.15  973.671  1034.25  972.39  1034.57  971.144  1035.09  969.969  1035.81  968.897  1036.63  968.018  1036.67  967.978  1037.72  967.192  1038.86  966.602  1040.09  966.214  1041.34  966.039  1041.57  966.05  " style="fill: none; stroke: black; stroke-width: 0.200000; fill-type: evenodd"  fill-opacity="1.000000" />
   <path d="M 1021.31  890.386  1022.57  890.453  1024.19  890.685  1025.81  891.06  1027.55  891.681  1029.24  892.451  1030.91  893.359  1032.53  894.396  1033.48  895.109  1034.15  895.619  1037.16  898.38  1042.8  904.267  1047.45  909.201  1043.76  912.891  1040.39  909.332  993.768  955.957  996.652  958.841  987.857  967.636  980.419  960.197  979.961  959.705  979.585  959.214  979.409  958.931  " style="fill: none; stroke: darkmagenta; stroke-width: 0.200000; fill-type: evenodd"  fill-opacity="1.000000" />
   <path d="M 979.409  958.931  979.262  958.696  978.998  958.162  978.796  957.61  978.715  957.278  978.629  956.786  978.608  956.26  978.536  956.111  978.566  955.941  978.649  955.016  978.995  952.575  979.658  948.845  979.979  946.517  980.389  943.056  980.667  941.455  981.679  934.076  981.817  932.289  982.12  929.207  982.396  926.778  982.877  923.902  983.786  921.057  984.529  919.481  985.13  918.413  986.34  916.656  986.867  916.039  988.214  914.538  991.632  910.841  995.733  906.612  998.106  904.221  1005.08  898.127  1006.97  896.654  1012.16  892.851  1013.48  892.131  1014.84  891.495  1016.29  890.995  1017.8  890.639  1019.35  890.429  1020.95  890.367  1021.31  890.386  " style="fill: none; stroke: red; stroke-width: 0.200000; fill-type: evenodd"  fill-opacity="1.000000" />
   <path d="M 1022.47  891.449  1024.01  891.669  1025.53  892.021  1027.17  892.608  1028.8  893.347  1030.4  894.22  1031.96  895.22  1032.88  895.907  1033.5  896.385  1036.46  899.095  1042.07  904.956  1046.05  909.18  1043.78  911.456  1040.41  907.897  992.354  955.957  995.238  958.841  987.857  966.221  981.139  959.503  980.726  959.059  980.408  958.644  980.137  958.209  979.919  957.767  979.754  957.318  979.694  957.073  979.626  956.68  979.599  956.011  979.57  955.95  979.642  955.13  979.982  952.732  980.646  949.001  980.971  946.644  981.379  943.201  981.656  941.609  982.673  934.183  982.813  932.377  983.114  929.312  983.387  926.917  983.851  924.138  984.719  921.424  985.418  919.94  985.979  918.943  987.135  917.266  987.619  916.698  988.953  915.211  992.359  911.528  996.447  907.312  998.791  904.951  1005.72  898.899  1007.58  897.452  1012.7  893.697  1013.93  893.024  1015.22  892.423  1016.57  891.956  1017.98  891.623  1019.44  891.426  1020.94  891.368  1022.47  891.449  " style="fill: none; stroke: black; stroke-width: 0.200000; fill-type: evenodd"  fill-opacity="1.000000" />
   <path d="M 957.943  967.075  958.25  970.761  958.327  970.799  957.316  970.944  956.291  970.476  956.291  970.475  956.291  969.714  955.823  969.748  955.682  969.528  955.682  968.401  956.291  967.453  957.316  966.985  957.943  967.075  " style="fill: none; stroke: purple; stroke-width: 0.500000; fill-type: evenodd"  fill-opacity="1.000000" />
</svg>
