<?xml version="1.0" encoding="UTF-8" standalone="yes"?>
<!DOCTYPE svg PUBLIC "-//W3C//DTD SVG 1.0//EN" "http://www.w3.org/TR/2001/REC-SVG-20010904/DTD/svg10.dtd">
<svg height="2000" width="2000" xmlns="http://www.w3.org/2000/svg" xmlns:svg="http://www.w3.org/2000/svg" xmlns:xlink="http://www.w3.org/1999/xlink">
   <marker id="endArrow" markerHeight="8" markerUnits="strokeWidth" markerWidth="10" orient="auto" refX="1" refY="5" viewBox="0 0 1000 1000">
      <polyline fill="darkblue" points="0,0 10,5 0,10 1,5" />
   </marker>
   <circle cx="1000" cy="1000" r="1" style="stroke:black; fill: red" />
   <circle cx="1000" cy="1000" r="800" style="stroke:black; fill: none" />
   <path d="M 999.826  1099.22  1001.94  1099.96  1003.84  1101.15  1005.42  1102.73  1006.61  1104.63  1007.35  1106.74  1007.6  1108.96  1007.35  1111.19  1006.61  1113.3  1005.42  1115.2  1003.84  1116.78  1001.94  1117.97  999.826  1118.71  997.601  1118.96  995.376  1118.71  993.262  1117.97  991.366  1116.78  989.783  1115.2  988.591  1113.3  987.852  1111.19  987.601  1108.96  987.852  1106.74  988.591  1104.63  989.783  1102.73  991.366  1101.15  993.262  1099.96  995.376  1099.22  997.601  1098.96  999.826  1099.22  " style="fill: none; stroke: purple; stroke-width: 0.500000; fill-type: evenodd"  fill-opacity="1.000000" />
   <path d="M 1019.83  1079.22  1021.94  1079.96  1023.84  1081.15  1025.42  1082.73  1026.61  1084.63  1027.35  1086.74  1027.6  1088.96  1027.35  1091.19  1026.61  1093.3  1025.42  1095.2  1023.84  1096.78  1021.94  1097.97  1019.83  1098.71  1017.6  1098.96  1015.38  1098.71  1013.26  1097.97  1011.37  1096.78  1009.78  1095.2  1008.59  1093.3  1007.85  1091.19  1007.6  1088.96  1007.85  1086.74  1008.59  1084.63  1009.78  1082.73  1011.37  1081.15  1013.26  1079.96  1015.38  1079.22  1017.6  1078.96  1019.83  1079.22  " style="fill: none; stroke: purple; stroke-width: 0.500000; fill-type: evenodd"  fill-opacity="1.000000" />
   <path d="M 999.826  1079.22  1001.94  1079.96  1003.84  1081.15  1005.42  1082.73  1006.61  1084.63  1007.35  1086.74  1007.6  1088.96  1007.35  1091.19  1006.61  1093.3  1005.42  1095.2  1003.84  1096.78  1001.94  1097.97  999.826  1098.71  997.601  1098.96  995.376  1098.71  993.262  1097.97  991.366  1096.78  989.783  1095.2  988.591  1093.3  987.852  1091.19  987.601  1088.96  987.852  1086.74  988.591  1084.63  989.783  1082.73  991.366  1081.15  993.262  1079.96  995.376  1079.22  997.601  1078.96  999.826  1079.22  " style="fill: none; stroke: purple; stroke-width: 0.500000; fill-type: evenodd"  fill-opacity="1.000000" />
   <path d="M 979.826  1079.22  981.94  1079.96  983.836  1081.15  985.419  1082.73  986.611  1084.63  987.35  1086.74  987.601  1088.96  987.35  1091.19  986.611  1093.3  985.419  1095.2  983.836  1096.78  981.94  1097.97  979.826  1098.71  977.601  1098.96  975.376  1098.71  973.262  1097.97  971.366  1096.78  969.783  1095.2  968.591  1093.3  967.852  1091.19  967.601  1088.96  967.852  1086.74  968.591  1084.63  969.783  1082.73  971.366  1081.15  973.262  1079.96  975.376  1079.22  977.601  1078.96  979.826  1079.22  " style="fill: none; stroke: purple; stroke-width: 0.500000; fill-type: evenodd"  fill-opacity="1.000000" />
   <path d="M 959.826  1079.22  961.94  1079.96  963.836  1081.15  965.419  1082.73  966.611  1084.63  967.35  1086.74  967.601  1088.96  967.35  1091.19  966.611  1093.3  965.419  1095.2  963.836  1096.78  961.94  1097.97  959.826  1098.71  957.601  1098.96  955.376  1098.71  953.262  1097.97  951.366  1096.78  949.783  1095.2  948.591  1093.3  947.852  1091.19  947.601  1088.96  947.852  1086.74  948.591  1084.63  949.783  1082.73  951.366  1081.15  953.262  1079.96  955.376  1079.22  957.601  1078.96  959.826  1079.22  " style="fill: none; stroke: purple; stroke-width: 0.500000; fill-type: evenodd"  fill-opacity="1.000000" />
   <path d="M 939.826  1079.22  941.94  1079.96  943.836  1081.15  945.419  1082.73  946.611  1084.63  947.35  1086.74  947.601  1088.96  947.35  1091.19  946.611  1093.3  945.419  1095.2  943.836  1096.78  941.94  1097.97  939.826  1098.71  937.601  1098.96  935.376  1098.71  933.262  1097.97  931.366  1096.78  929.783  1095.2  928.591  1093.3  927.852  1091.19  927.601  1088.96  927.852  1086.74  928.591  1084.63  929.783  1082.73  931.366  1081.15  933.262  1079.96  935.376  1079.22  937.601  1078.96  939.826  1079.22  " style="fill: none; stroke: purple; stroke-width: 0.500000; fill-type: evenodd"  fill-opacity="1.000000" />
   <path d="M 939.826  1059.22  941.94  1059.96  943.836  1061.15  945.419  1062.73  946.611  1064.63  947.35  1066.74  947.601  1068.96  947.35  1071.19  946.611  1073.3  945.419  1075.2  943.836  1076.78  941.94  1077.97  939.826  1078.71  937.601  1078.96  935.376  1078.71  933.262  1077.97  931.366  1076.78  929.783  1075.2  928.591  1073.3  927.852  1071.19  927.601  1068.96  927.852  1066.74  928.591  1064.63  929.783  1062.73  931.366  1061.15  933.262  1059.96  935.376  1059.22  937.601  1058.96  939.826  1059.22  " style="fill: none; stroke: purple; stroke-width: 0.500000; fill-type: evenodd"  fill-opacity="1.000000" />
   <path d="M 959.826  1059.22  961.94  1059.96  963.836  1061.15  965.419  1062.73  966.611  1064.63  967.35  1066.74  967.601  1068.96  967.35  1071.19  966.611  1073.3  965.419  1075.2  963.836  1076.78  961.94  1077.97  959.826  1078.71  957.601  1078.96  955.376  1078.71  953.262  1077.97  951.366  1076.78  949.783  1075.2  948.591  1073.3  947.852  1071.19  947.601  1068.96  947.852  1066.74  948.591  1064.63  949.783  1062.73  951.366  1061.15  953.262  1059.96  955.376  1059.22  957.601  1058.96  959.826  1059.22  " style="fill: none; stroke: purple; stroke-width: 0.500000; fill-type: evenodd"  fill-opacity="1.000000" />
   <path d="M 1039.83  1059.22  1041.94  1059.96  1043.84  1061.15  1045.42  1062.73  1046.61  1064.63  1047.35  1066.74  1047.6  1068.96  1047.35  1071.19  1046.61  1073.3  1045.42  1075.2  1043.84  1076.78  1041.94  1077.97  1039.83  1078.71  1037.6  1078.96  1035.38  1078.71  1033.26  1077.97  1031.37  1076.78  1029.78  1075.2  1028.59  1073.3  1027.85  1071.19  1027.6  1068.96  1027.85  1066.74  1028.59  1064.63  1029.78  1062.73  1031.37  1061.15  1033.26  1059.96  1035.38  1059.22  1037.6  1058.96  1039.83  1059.22  " style="fill: none; stroke: purple; stroke-width: 0.500000; fill-type: evenodd"  fill-opacity="1.000000" />
   <path d="M 1019.83  1059.22  1021.94  1059.96  1023.84  1061.15  1025.42  1062.73  1026.61  1064.63  1027.35  1066.74  1027.6  1068.96  1027.35  1071.19  1026.61  1073.3  1025.42  1075.2  1023.84  1076.78  1021.94  1077.97  1019.83  1078.71  1017.6  1078.96  1015.38  1078.71  1013.26  1077.97  1011.37  1076.78  1009.78  1075.2  1008.59  1073.3  1007.85  1071.19  1007.6  1068.96  1007.85  1066.74  1008.59  1064.63  1009.78  1062.73  1011.37  1061.15  1013.26  1059.96  1015.38  1059.22  1017.6  1058.96  1019.83  1059.22  " style="fill: none; stroke: purple; stroke-width: 0.500000; fill-type: evenodd"  fill-opacity="1.000000" />
   <path d="M 919.826  1059.22  921.94  1059.96  923.836  1061.15  925.419  1062.73  926.611  1064.63  927.35  1066.74  927.601  1068.96  927.35  1071.19  926.611  1073.3  925.419  1075.2  923.836  1076.78  921.94  1077.97  919.826  1078.71  917.601  1078.96  915.376  1078.71  913.262  1077.97  911.366  1076.78  909.783  1075.2  908.591  1073.3  907.852  1071.19  907.601  1068.96  907.852  1066.74  908.591  1064.63  909.783  1062.73  911.366  1061.15  913.262  1059.96  915.376  1059.22  917.601  1058.96  919.826  1059.22  " style="fill: none; stroke: purple; stroke-width: 0.500000; fill-type: evenodd"  fill-opacity="1.000000" />
   <path d="M 999.826  1059.22  1001.94  1059.96  1003.84  1061.15  1005.42  1062.73  1006.61  1064.63  1007.35  1066.74  1007.6  1068.96  1007.35  1071.19  1006.61  1073.3  1005.42  1075.2  1003.84  1076.78  1001.94  1077.97  999.826  1078.71  997.601  1078.96  995.376  1078.71  993.262  1077.97  991.366  1076.78  989.783  1075.2  988.591  1073.3  987.852  1071.19  987.601  1068.96  987.852  1066.74  988.591  1064.63  989.783  1062.73  991.366  1061.15  993.262  1059.96  995.376  1059.22  997.601  1058.96  999.826  1059.22  " style="fill: none; stroke: purple; stroke-width: 0.500000; fill-type: evenodd"  fill-opacity="1.000000" />
   <path d="M 979.826  1059.22  981.94  1059.96  983.836  1061.15  985.419  1062.73  986.611  1064.63  987.35  1066.74  987.601  1068.96  987.35  1071.19  986.611  1073.3  985.419  1075.2  983.836  1076.78  981.94  1077.97  979.826  1078.71  977.601  1078.96  975.376  1078.71  973.262  1077.97  971.366  1076.78  969.783  1075.2  968.591  1073.3  967.852  1071.19  967.601  1068.96  967.852  1066.74  968.591  1064.63  969.783  1062.73  971.366  1061.15  973.262  1059.96  975.376  1059.22  977.601  1058.96  979.826  1059.22  " style="fill: none; stroke: purple; stroke-width: 0.500000; fill-type: evenodd"  fill-opacity="1.000000" />
   <path d="M 939.826  1039.22  941.94  1039.96  943.836  1041.15  945.419  1042.73  946.611  1044.63  947.35  1046.74  947.601  1048.96  947.35  1051.19  946.611  1053.3  945.419  1055.2  943.836  1056.78  941.94  1057.97  939.826  1058.71  937.601  1058.96  935.376  1058.71  933.262  1057.97  931.366  1056.78  929.783  1055.2  928.591  1053.3  927.852  1051.19  927.601  1048.96  927.852  1046.74  928.591  1044.63  929.783  1042.73  931.366  1041.15  933.262  1039.96  935.376  1039.22  937.601  1038.96  939.826  1039.22  " style="fill: none; stroke: purple; stroke-width: 0.500000; fill-type: evenodd"  fill-opacity="1.000000" />
   <path d="M 959.826  1039.22  961.94  1039.96  963.836  1041.15  965.419  1042.73  966.611  1044.63  967.35  1046.74  967.601  1048.96  967.35  1051.19  966.611  1053.3  965.419  1055.2  963.836  1056.78  961.94  1057.97  959.826  1058.71  957.601  1058.96  955.376  1058.71  953.262  1057.97  951.366  1056.78  949.783  1055.2  948.591  1053.3  947.852  1051.19  947.601  1048.96  947.852  1046.74  948.591  1044.63  949.783  1042.73  951.366  1041.15  953.262  1039.96  955.376  1039.22  957.601  1038.96  959.826  1039.22  " style="fill: none; stroke: purple; stroke-width: 0.500000; fill-type: evenodd"  fill-opacity="1.000000" />
   <path d="M 1059.83  1039.22  1061.94  1039.96  1063.84  1041.15  1065.42  1042.73  1066.61  1044.63  1067.35  1046.74  1067.6  1048.96  1067.35  1051.19  1066.61  1053.3  1065.42  1055.2  1063.84  1056.78  1061.94  1057.97  1059.83  1058.71  1057.6  1058.96  1055.38  1058.71  1053.26  1057.97  1051.37  1056.78  1049.78  1055.2  1048.59  1053.3  1047.85  1051.19  1047.6  1048.96  1047.85  1046.74  1048.59  1044.63  1049.78  1042.73  1051.37  1041.15  1053.26  1039.96  1055.38  1039.22  1057.6  1038.96  1059.83  1039.22  " style="fill: none; stroke: purple; stroke-width: 0.500000; fill-type: evenodd"  fill-opacity="1.000000" />
   <path d="M 1039.83  1039.22  1041.94  1039.96  1043.84  1041.15  1045.42  1042.73  1046.61  1044.63  1047.35  1046.74  1047.6  1048.96  1047.35  1051.19  1046.61  1053.3  1045.42  1055.2  1043.84  1056.78  1041.94  1057.97  1039.83  1058.71  1037.6  1058.96  1035.38  1058.71  1033.26  1057.97  1031.37  1056.78  1029.78  1055.2  1028.59  1053.3  1027.85  1051.19  1027.6  1048.96  1027.85  1046.74  1028.59  1044.63  1029.78  1042.73  1031.37  1041.15  1033.26  1039.96  1035.38  1039.22  1037.6  1038.96  1039.83  1039.22  " style="fill: none; stroke: purple; stroke-width: 0.500000; fill-type: evenodd"  fill-opacity="1.000000" />
   <path d="M 999.826  1039.22  1001.94  1039.96  1003.84  1041.15  1005.42  1042.73  1006.61  1044.63  1007.35  1046.74  1007.6  1048.96  1007.35  1051.19  1006.61  1053.3  1005.42  1055.2  1003.84  1056.78  1001.94  1057.97  999.826  1058.71  997.601  1058.96  995.376  1058.71  993.262  1057.97  991.366  1056.78  989.783  1055.2  988.591  1053.3  987.852  1051.19  987.601  1048.96  987.852  1046.74  988.591  1044.63  989.783  1042.73  991.366  1041.15  993.262  1039.96  995.376  1039.22  997.601  1038.96  999.826  1039.22  " style="fill: none; stroke: purple; stroke-width: 0.500000; fill-type: evenodd"  fill-opacity="1.000000" />
   <path d="M 919.826  1039.22  921.94  1039.96  923.836  1041.15  925.419  1042.73  926.611  1044.63  927.35  1046.74  927.601  1048.96  927.35  1051.19  926.611  1053.3  925.419  1055.2  923.836  1056.78  921.94  1057.97  919.826  1058.71  917.601  1058.96  915.376  1058.71  913.262  1057.97  911.366  1056.78  909.783  1055.2  908.591  1053.3  907.852  1051.19  907.601  1048.96  907.852  1046.74  908.591  1044.63  909.783  1042.73  911.366  1041.15  913.262  1039.96  915.376  1039.22  917.601  1038.96  919.826  1039.22  " style="fill: none; stroke: purple; stroke-width: 0.500000; fill-type: evenodd"  fill-opacity="1.000000" />
   <path d="M 899.826  1039.22  901.94  1039.96  903.836  1041.15  905.419  1042.73  906.611  1044.63  907.35  1046.74  907.601  1048.96  907.35  1051.19  906.611  1053.3  905.419  1055.2  903.836  1056.78  901.94  1057.97  899.826  1058.71  897.601  1058.96  895.376  1058.71  893.262  1057.97  891.366  1056.78  889.783  1055.2  888.591  1053.3  887.852  1051.19  887.601  1048.96  887.852  1046.74  888.591  1044.63  889.783  1042.73  891.366  1041.15  893.262  1039.96  895.376  1039.22  897.601  1038.96  899.826  1039.22  " style="fill: none; stroke: purple; stroke-width: 0.500000; fill-type: evenodd"  fill-opacity="1.000000" />
   <path d="M 1019.83  1039.22  1021.94  1039.96  1023.84  1041.15  1025.42  1042.73  1026.61  1044.63  1027.35  1046.74  1027.6  1048.96  1027.35  1051.19  1026.61  1053.3  1025.42  1055.2  1023.84  1056.78  1021.94  1057.97  1019.83  1058.71  1017.6  1058.96  1015.38  1058.71  1013.26  1057.97  1011.37  1056.78  1009.78  1055.2  1008.59  1053.3  1007.85  1051.19  1007.6  1048.96  1007.85  1046.74  1008.59  1044.63  1009.78  1042.73  1011.37  1041.15  1013.26  1039.96  1015.38  1039.22  1017.6  1038.96  1019.83  1039.22  " style="fill: none; stroke: purple; stroke-width: 0.500000; fill-type: evenodd"  fill-opacity="1.000000" />
   <path d="M 979.826  1039.22  981.94  1039.96  983.836  1041.15  985.419  1042.73  986.611  1044.63  987.35  1046.74  987.601  1048.96  987.35  1051.19  986.611  1053.3  985.419  1055.2  983.836  1056.78  981.94  1057.97  979.826  1058.71  977.601  1058.96  975.376  1058.71  973.262  1057.97  971.366  1056.78  969.783  1055.2  968.591  1053.3  967.852  1051.19  967.601  1048.96  967.852  1046.74  968.591  1044.63  969.783  1042.73  971.366  1041.15  973.262  1039.96  975.376  1039.22  977.601  1038.96  979.826  1039.22  " style="fill: none; stroke: purple; stroke-width: 0.500000; fill-type: evenodd"  fill-opacity="1.000000" />
   <path d="M 1039.83  1019.22  1041.94  1019.96  1043.84  1021.15  1045.42  1022.73  1046.61  1024.63  1047.35  1026.74  1047.6  1028.96  1047.35  1031.19  1046.61  1033.3  1045.42  1035.2  1043.84  1036.78  1041.94  1037.97  1039.83  1038.71  1037.6  1038.96  1035.38  1038.71  1033.26  1037.97  1031.37  1036.78  1029.78  1035.2  1028.59  1033.3  1027.85  1031.19  1027.6  1028.96  1027.85  1026.74  1028.59  1024.63  1029.78  1022.73  1031.37  1021.15  1033.26  1019.96  1035.38  1019.22  1037.6  1018.96  1039.83  1019.22  " style="fill: none; stroke: purple; stroke-width: 0.500000; fill-type: evenodd"  fill-opacity="1.000000" />
   <path d="M 979.826  1019.22  981.94  1019.96  983.836  1021.15  985.419  1022.73  986.611  1024.63  987.35  1026.74  987.601  1028.96  987.35  1031.19  986.611  1033.3  985.419  1035.2  983.836  1036.78  981.94  1037.97  979.826  1038.71  977.601  1038.96  975.376  1038.71  973.262  1037.97  971.366  1036.78  969.783  1035.2  968.591  1033.3  967.852  1031.19  967.601  1028.96  967.852  1026.74  968.591  1024.63  969.783  1022.73  971.366  1021.15  973.262  1019.96  975.376  1019.22  977.601  1018.96  979.826  1019.22  " style="fill: none; stroke: purple; stroke-width: 0.500000; fill-type: evenodd"  fill-opacity="1.000000" />
   <path d="M 899.826  1019.22  901.94  1019.96  903.836  1021.15  905.419  1022.73  906.611  1024.63  907.35  1026.74  907.601  1028.96  907.35  1031.19  906.611  1033.3  905.419  1035.2  903.836  1036.78  901.94  1037.97  899.826  1038.71  897.601  1038.96  895.376  1038.71  893.262  1037.97  891.366  1036.78  889.783  1035.2  888.591  1033.3  887.852  1031.19  887.601  1028.96  887.852  1026.74  888.591  1024.63  889.783  1022.73  891.366  1021.15  893.262  1019.96  895.376  1019.22  897.601  1018.96  899.826  1019.22  " style="fill: none; stroke: purple; stroke-width: 0.500000; fill-type: evenodd"  fill-opacity="1.000000" />
   <path d="M 919.826  1019.22  921.94  1019.96  923.836  1021.15  925.419  1022.73  926.611  1024.63  927.35  1026.74  927.601  1028.96  927.35  1031.19  926.611  1033.3  925.419  1035.2  923.836  1036.78  921.94  1037.97  919.826  1038.71  917.601  1038.96  915.376  1038.71  913.262  1037.97  911.366  1036.78  909.783  1035.2  908.591  1033.3  907.852  1031.19  907.601  1028.96  907.852  1026.74  908.591  1024.63  909.783  1022.73  911.366  1021.15  913.262  1019.96  915.376  1019.22  917.601  1018.96  919.826  1019.22  " style="fill: none; stroke: purple; stroke-width: 0.500000; fill-type: evenodd"  fill-opacity="1.000000" />
   <path d="M 939.826  1019.22  941.94  1019.96  943.836  1021.15  945.419  1022.73  946.611  1024.63  947.35  1026.74  947.601  1028.96  947.35  1031.19  946.611  1033.3  945.419  1035.2  943.836  1036.78  941.94  1037.97  939.826  1038.71  937.601  1038.96  935.376  1038.71  933.262  1037.97  931.366  1036.78  929.783  1035.2  928.591  1033.3  927.852  1031.19  927.601  1028.96  927.852  1026.74  928.591  1024.63  929.783  1022.73  931.366  1021.15  933.262  1019.96  935.376  1019.22  937.601  1018.96  939.826  1019.22  " style="fill: none; stroke: purple; stroke-width: 0.500000; fill-type: evenodd"  fill-opacity="1.000000" />
   <path d="M 1059.83  1019.22  1061.94  1019.96  1063.84  1021.15  1065.42  1022.73  1066.61  1024.63  1067.35  1026.74  1067.6  1028.96  1067.35  1031.19  1066.61  1033.3  1065.42  1035.2  1063.84  1036.78  1061.94  1037.97  1059.83  1038.71  1057.6  1038.96  1055.38  1038.71  1053.26  1037.97  1051.37  1036.78  1049.78  1035.2  1048.59  1033.3  1047.85  1031.19  1047.6  1028.96  1047.85  1026.74  1048.59  1024.63  1049.78  1022.73  1051.37  1021.15  1053.26  1019.96  1055.38  1019.22  1057.6  1018.96  1059.83  1019.22  " style="fill: none; stroke: purple; stroke-width: 0.500000; fill-type: evenodd"  fill-opacity="1.000000" />
   <path d="M 1079.83  1019.22  1081.94  1019.96  1083.84  1021.15  1085.42  1022.73  1086.61  1024.63  1087.35  1026.74  1087.6  1028.96  1087.35  1031.19  1086.61  1033.3  1085.42  1035.2  1083.84  1036.78  1081.94  1037.97  1079.83  1038.71  1077.6  1038.96  1075.38  1038.71  1073.26  1037.97  1071.37  1036.78  1069.78  1035.2  1068.59  1033.3  1067.85  1031.19  1067.6  1028.96  1067.85  1026.74  1068.59  1024.63  1069.78  1022.73  1071.37  1021.15  1073.26  1019.96  1075.38  1019.22  1077.6  1018.96  1079.83  1019.22  " style="fill: none; stroke: purple; stroke-width: 0.500000; fill-type: evenodd"  fill-opacity="1.000000" />
   <path d="M 1099.83  1019.22  1101.94  1019.96  1103.84  1021.15  1105.42  1022.73  1106.61  1024.63  1107.35  1026.74  1107.6  1028.96  1107.35  1031.19  1106.61  1033.3  1105.42  1035.2  1103.84  1036.78  1101.94  1037.97  1099.83  1038.71  1097.6  1038.96  1095.38  1038.71  1093.26  1037.97  1091.37  1036.78  1089.78  1035.2  1088.59  1033.3  1087.85  1031.19  1087.6  1028.96  1087.85  1026.74  1088.59  1024.63  1089.78  1022.73  1091.37  1021.15  1093.26  1019.96  1095.38  1019.22  1097.6  1018.96  1099.83  1019.22  " style="fill: none; stroke: purple; stroke-width: 0.500000; fill-type: evenodd"  fill-opacity="1.000000" />
   <path d="M 959.826  1019.22  961.94  1019.96  963.836  1021.15  965.419  1022.73  966.611  1024.63  967.35  1026.74  967.601  1028.96  967.35  1031.19  966.611  1033.3  965.419  1035.2  963.836  1036.78  961.94  1037.97  959.826  1038.71  957.601  1038.96  955.376  1038.71  953.262  1037.97  951.366  1036.78  949.783  1035.2  948.591  1033.3  947.852  1031.19  947.601  1028.96  947.852  1026.74  948.591  1024.63  949.783  1022.73  951.366  1021.15  953.262  1019.96  955.376  1019.22  957.601  1018.96  959.826  1019.22  " style="fill: none; stroke: purple; stroke-width: 0.500000; fill-type: evenodd"  fill-opacity="1.000000" />
   <path d="M 959.826  999.216  961.94  999.955  963.836  1001.15  965.419  1002.73  966.611  1004.63  967.35  1006.74  967.601  1008.96  967.35  1011.19  966.611  1013.3  965.419  1015.2  963.836  1016.78  961.94  1017.97  959.826  1018.71  957.601  1018.96  955.376  1018.71  953.262  1017.97  951.366  1016.78  949.783  1015.2  948.591  1013.3  947.852  1011.19  947.601  1008.96  947.852  1006.74  948.591  1004.63  949.783  1002.73  951.366  1001.15  953.262  999.955  955.376  999.216  957.601  998.965  959.826  999.216  " style="fill: none; stroke: purple; stroke-width: 0.500000; fill-type: evenodd"  fill-opacity="1.000000" />
   <path d="M 1039.83  999.216  1041.94  999.955  1043.84  1001.15  1045.42  1002.73  1046.61  1004.63  1047.35  1006.74  1047.6  1008.96  1047.35  1011.19  1046.61  1013.3  1045.42  1015.2  1043.84  1016.78  1041.94  1017.97  1039.83  1018.71  1037.6  1018.96  1035.38  1018.71  1033.26  1017.97  1031.37  1016.78  1029.78  1015.2  1028.59  1013.3  1027.85  1011.19  1027.6  1008.96  1027.85  1006.74  1028.59  1004.63  1029.78  1002.73  1031.37  1001.15  1033.26  999.955  1035.38  999.216  1037.6  998.965  1039.83  999.216  " style="fill: none; stroke: purple; stroke-width: 0.500000; fill-type: evenodd"  fill-opacity="1.000000" />
   <path d="M 1079.83  999.216  1081.94  999.955  1083.84  1001.15  1085.42  1002.73  1086.61  1004.63  1087.35  1006.74  1087.6  1008.96  1087.35  1011.19  1086.61  1013.3  1085.42  1015.2  1083.84  1016.78  1081.94  1017.97  1079.83  1018.71  1077.6  1018.96  1075.38  1018.71  1073.26  1017.97  1071.37  1016.78  1069.78  1015.2  1068.59  1013.3  1067.85  1011.19  1067.6  1008.96  1067.85  1006.74  1068.59  1004.63  1069.78  1002.73  1071.37  1001.15  1073.26  999.955  1075.38  999.216  1077.6  998.965  1079.83  999.216  " style="fill: none; stroke: purple; stroke-width: 0.500000; fill-type: evenodd"  fill-opacity="1.000000" />
   <path d="M 919.826  999.216  921.94  999.955  923.836  1001.15  925.419  1002.73  926.611  1004.63  927.35  1006.74  927.601  1008.96  927.35  1011.19  926.611  1013.3  925.419  1015.2  923.836  1016.78  921.94  1017.97  919.826  1018.71  917.601  1018.96  915.376  1018.71  913.262  1017.97  911.366  1016.78  909.783  1015.2  908.591  1013.3  907.852  1011.19  907.601  1008.96  907.852  1006.74  908.591  1004.63  909.783  1002.73  911.366  1001.15  913.262  999.955  915.376  999.216  917.601  998.965  919.826  999.216  " style="fill: none; stroke: purple; stroke-width: 0.500000; fill-type: evenodd"  fill-opacity="1.000000" />
   <path d="M 1059.83  999.216  1061.94  999.955  1063.84  1001.15  1065.42  1002.73  1066.61  1004.63  1067.35  1006.74  1067.6  1008.96  1067.35  1011.19  1066.61  1013.3  1065.42  1015.2  1063.84  1016.78  1061.94  1017.97  1059.83  1018.71  1057.6  1018.96  1055.38  1018.71  1053.26  1017.97  1051.37  1016.78  1049.78  1015.2  1048.59  1013.3  1047.85  1011.19  1047.6  1008.96  1047.85  1006.74  1048.59  1004.63  1049.78  1002.73  1051.37  1001.15  1053.26  999.955  1055.38  999.216  1057.6  998.965  1059.83  999.216  " style="fill: none; stroke: purple; stroke-width: 0.500000; fill-type: evenodd"  fill-opacity="1.000000" />
   <path d="M 1099.83  999.216  1101.94  999.955  1103.84  1001.15  1105.42  1002.73  1106.61  1004.63  1107.35  1006.74  1107.6  1008.96  1107.35  1011.19  1106.61  1013.3  1105.42  1015.2  1103.84  1016.78  1101.94  1017.97  1099.83  1018.71  1097.6  1018.96  1095.38  1018.71  1093.26  1017.97  1091.37  1016.78  1089.78  1015.2  1088.59  1013.3  1087.85  1011.19  1087.6  1008.96  1087.85  1006.74  1088.59  1004.63  1089.78  1002.73  1091.37  1001.15  1093.26  999.955  1095.38  999.216  1097.6  998.965  1099.83  999.216  " style="fill: none; stroke: purple; stroke-width: 0.500000; fill-type: evenodd"  fill-opacity="1.000000" />
   <path d="M 899.826  999.216  901.94  999.955  903.836  1001.15  905.419  1002.73  906.611  1004.63  907.35  1006.74  907.601  1008.96  907.35  1011.19  906.611  1013.3  905.419  1015.2  903.836  1016.78  901.94  1017.97  899.826  1018.71  897.601  1018.96  895.376  1018.71  893.262  1017.97  891.366  1016.78  889.783  1015.2  888.591  1013.3  887.852  1011.19  887.601  1008.96  887.852  1006.74  888.591  1004.63  889.783  1002.73  891.366  1001.15  893.262  999.955  895.376  999.216  897.601  998.965  899.826  999.216  " style="fill: none; stroke: purple; stroke-width: 0.500000; fill-type: evenodd"  fill-opacity="1.000000" />
   <path d="M 939.826  999.216  941.94  999.955  943.836  1001.15  945.419  1002.73  946.611  1004.63  947.35  1006.74  947.601  1008.96  947.35  1011.19  946.611  1013.3  945.419  1015.2  943.836  1016.78  941.94  1017.97  939.826  1018.71  937.601  1018.96  935.376  1018.71  933.262  1017.97  931.366  1016.78  929.783  1015.2  928.591  1013.3  927.852  1011.19  927.601  1008.96  927.852  1006.74  928.591  1004.63  929.783  1002.73  931.366  1001.15  933.262  999.955  935.376  999.216  937.601  998.965  939.826  999.216  " style="fill: none; stroke: purple; stroke-width: 0.500000; fill-type: evenodd"  fill-opacity="1.000000" />
   <path d="M 1099.83  979.216  1101.94  979.955  1103.84  981.146  1105.42  982.73  1106.61  984.626  1107.35  986.74  1107.6  988.965  1107.35  991.19  1106.61  993.304  1105.42  995.2  1103.84  996.783  1101.94  997.974  1099.83  998.714  1097.6  998.965  1095.38  998.714  1093.26  997.974  1091.37  996.783  1089.78  995.2  1088.59  993.304  1087.85  991.19  1087.6  988.965  1087.85  986.74  1088.59  984.626  1089.78  982.73  1091.37  981.146  1093.26  979.955  1095.38  979.216  1097.6  978.965  1099.83  979.216  " style="fill: none; stroke: purple; stroke-width: 0.500000; fill-type: evenodd"  fill-opacity="1.000000" />
   <path d="M 939.826  979.216  941.94  979.955  943.836  981.146  945.419  982.73  946.611  984.626  947.35  986.74  947.601  988.965  947.35  991.19  946.611  993.304  945.419  995.2  943.836  996.783  941.94  997.974  939.826  998.714  937.601  998.965  935.376  998.714  933.262  997.974  931.366  996.783  929.783  995.2  928.591  993.304  927.852  991.19  927.601  988.965  927.852  986.74  928.591  984.626  929.783  982.73  931.366  981.146  933.262  979.955  935.376  979.216  937.601  978.965  939.826  979.216  " style="fill: none; stroke: purple; stroke-width: 0.500000; fill-type: evenodd"  fill-opacity="1.000000" />
   <path d="M 1019.83  979.216  1021.94  979.955  1023.84  981.146  1025.42  982.73  1026.61  984.626  1027.35  986.74  1027.6  988.965  1027.35  991.19  1026.61  993.304  1025.42  995.2  1023.84  996.783  1021.94  997.974  1019.83  998.714  1017.6  998.965  1015.38  998.714  1013.26  997.974  1011.37  996.783  1009.78  995.2  1008.59  993.304  1007.85  991.19  1007.6  988.965  1007.85  986.74  1008.59  984.626  1009.78  982.73  1011.37  981.146  1013.26  979.955  1015.38  979.216  1017.6  978.965  1019.83  979.216  " style="fill: none; stroke: purple; stroke-width: 0.500000; fill-type: evenodd"  fill-opacity="1.000000" />
   <path d="M 1039.83  979.216  1041.94  979.955  1043.84  981.146  1045.42  982.73  1046.61  984.626  1047.35  986.74  1047.6  988.965  1047.35  991.19  1046.61  993.304  1045.42  995.2  1043.84  996.783  1041.94  997.974  1039.83  998.714  1037.6  998.965  1035.38  998.714  1033.26  997.974  1031.37  996.783  1029.78  995.2  1028.59  993.304  1027.85  991.19  1027.6  988.965  1027.85  986.74  1028.59  984.626  1029.78  982.73  1031.37  981.146  1033.26  979.955  1035.38  979.216  1037.6  978.965  1039.83  979.216  " style="fill: none; stroke: purple; stroke-width: 0.500000; fill-type: evenodd"  fill-opacity="1.000000" />
   <path d="M 1059.83  979.216  1061.94  979.955  1063.84  981.146  1065.42  982.73  1066.61  984.626  1067.35  986.74  1067.6  988.965  1067.35  991.19  1066.61  993.304  1065.42  995.2  1063.84  996.783  1061.94  997.974  1059.83  998.714  1057.6  998.965  1055.38  998.714  1053.26  997.974  1051.37  996.783  1049.78  995.2  1048.59  993.304  1047.85  991.19  1047.6  988.965  1047.85  986.74  1048.59  984.626  1049.78  982.73  1051.37  981.146  1053.26  979.955  1055.38  979.216  1057.6  978.965  1059.83  979.216  " style="fill: none; stroke: purple; stroke-width: 0.500000; fill-type: evenodd"  fill-opacity="1.000000" />
   <path d="M 1079.83  979.216  1081.94  979.955  1083.84  981.146  1085.42  982.73  1086.61  984.626  1087.35  986.74  1087.6  988.965  1087.35  991.19  1086.61  993.304  1085.42  995.2  1083.84  996.783  1081.94  997.974  1079.83  998.714  1077.6  998.965  1075.38  998.714  1073.26  997.974  1071.37  996.783  1069.78  995.2  1068.59  993.304  1067.85  991.19  1067.6  988.965  1067.85  986.74  1068.59  984.626  1069.78  982.73  1071.37  981.146  1073.26  979.955  1075.38  979.216  1077.6  978.965  1079.83  979.216  " style="fill: none; stroke: purple; stroke-width: 0.500000; fill-type: evenodd"  fill-opacity="1.000000" />
   <path d="M 1079.83  959.216  1081.94  959.955  1083.84  961.146  1085.42  962.73  1086.61  964.626  1087.35  966.74  1087.6  968.965  1087.35  971.19  1086.61  973.304  1085.42  975.2  1083.84  976.783  1081.94  977.974  1079.83  978.714  1077.6  978.965  1075.38  978.714  1073.26  977.974  1071.37  976.783  1069.78  975.2  1068.59  973.304  1067.85  971.19  1067.6  968.965  1067.85  966.74  1068.59  964.626  1069.78  962.73  1071.37  961.146  1073.26  959.955  1075.38  959.216  1077.6  958.965  1079.83  959.216  " style="fill: none; stroke: purple; stroke-width: 0.500000; fill-type: evenodd"  fill-opacity="1.000000" />
   <path d="M 1059.83  959.216  1061.94  959.955  1063.84  961.146  1065.42  962.73  1066.61  964.626  1067.35  966.74  1067.6  968.965  1067.35  971.19  1066.61  973.304  1065.42  975.2  1063.84  976.783  1061.94  977.974  1059.83  978.714  1057.6  978.965  1055.38  978.714  1053.26  977.974  1051.37  976.783  1049.78  975.2  1048.59  973.304  1047.85  971.19  1047.6  968.965  1047.85  966.74  1048.59  964.626  1049.78  962.73  1051.37  961.146  1053.26  959.955  1055.38  959.216  1057.6  958.965  1059.83  959.216  " style="fill: none; stroke: purple; stroke-width: 0.500000; fill-type: evenodd"  fill-opacity="1.000000" />
   <path d="M 1019.83  959.216  1021.94  959.955  1023.84  961.146  1025.42  962.73  1026.61  964.626  1027.35  966.74  1027.6  968.965  1027.35  971.19  1026.61  973.304  1025.42  975.2  1023.84  976.783  1021.94  977.974  1019.83  978.714  1017.6  978.965  1015.38  978.714  1013.26  977.974  1011.37  976.783  1009.78  975.2  1008.59  973.304  1007.85  971.19  1007.6  968.965  1007.85  966.74  1008.59  964.626  1009.78  962.73  1011.37  961.146  1013.26  959.955  1015.38  959.216  1017.6  958.965  1019.83  959.216  " style="fill: none; stroke: purple; stroke-width: 0.500000; fill-type: evenodd"  fill-opacity="1.000000" />
   <path d="M 999.826  959.216  1001.94  959.955  1003.84  961.146  1005.42  962.73  1006.61  964.626  1007.35  966.74  1007.6  968.965  1007.35  971.19  1006.61  973.304  1005.42  975.2  1003.84  976.783  1001.94  977.974  999.826  978.714  997.601  978.965  995.376  978.714  993.262  977.974  991.366  976.783  989.783  975.2  988.591  973.304  987.852  971.19  987.601  968.965  987.852  966.74  988.591  964.626  989.783  962.73  991.366  961.146  993.262  959.955  995.376  959.216  997.601  958.965  999.826  959.216  " style="fill: none; stroke: purple; stroke-width: 0.500000; fill-type: evenodd"  fill-opacity="1.000000" />
   <path d="M 1039.83  959.216  1041.94  959.955  1043.84  961.146  1045.42  962.73  1046.61  964.626  1047.35  966.74  1047.6  968.965  1047.35  971.19  1046.61  973.304  1045.42  975.2  1043.84  976.783  1041.94  977.974  1039.83  978.714  1037.6  978.965  1035.38  978.714  1033.26  977.974  1031.37  976.783  1029.78  975.2  1028.59  973.304  1027.85  971.19  1027.6  968.965  1027.85  966.74  1028.59  964.626  1029.78  962.73  1031.37  961.146  1033.26  959.955  1035.38  959.216  1037.6  958.965  1039.83  959.216  " style="fill: none; stroke: purple; stroke-width: 0.500000; fill-type: evenodd"  fill-opacity="1.000000" />
   <path d="M 959.826  959.216  961.94  959.955  963.836  961.146  965.419  962.73  966.611  964.626  967.35  966.74  967.601  968.965  967.35  971.19  966.611  973.304  965.419  975.2  963.836  976.783  961.94  977.974  959.826  978.714  957.601  978.965  955.376  978.714  953.262  977.974  951.366  976.783  949.783  975.2  948.591  973.304  947.852  971.19  947.601  968.965  947.852  966.74  948.591  964.626  949.783  962.73  951.366  961.146  953.262  959.955  955.376  959.216  957.601  958.965  959.826  959.216  " style="fill: none; stroke: purple; stroke-width: 0.500000; fill-type: evenodd"  fill-opacity="1.000000" />
   <path d="M 1079.83  939.216  1081.94  939.955  1083.84  941.146  1085.42  942.73  1086.61  944.626  1087.35  946.74  1087.6  948.965  1087.35  951.19  1086.61  953.304  1085.42  955.2  1083.84  956.783  1081.94  957.974  1079.83  958.714  1077.6  958.965  1075.38  958.714  1073.26  957.974  1071.37  956.783  1069.78  955.2  1068.59  953.304  1067.85  951.19  1067.6  948.965  1067.85  946.74  1068.59  944.626  1069.78  942.73  1071.37  941.146  1073.26  939.955  1075.38  939.216  1077.6  938.965  1079.83  939.216  " style="fill: none; stroke: purple; stroke-width: 0.500000; fill-type: evenodd"  fill-opacity="1.000000" />
   <path d="M 1059.83  939.216  1061.94  939.955  1063.84  941.146  1065.42  942.73  1066.61  944.626  1067.35  946.74  1067.6  948.965  1067.35  951.19  1066.61  953.304  1065.42  955.2  1063.84  956.783  1061.94  957.974  1059.83  958.714  1057.6  958.965  1055.38  958.714  1053.26  957.974  1051.37  956.783  1049.78  955.2  1048.59  953.304  1047.85  951.19  1047.6  948.965  1047.85  946.74  1048.59  944.626  1049.78  942.73  1051.37  941.146  1053.26  939.955  1055.38  939.216  1057.6  938.965  1059.83  939.216  " style="fill: none; stroke: purple; stroke-width: 0.500000; fill-type: evenodd"  fill-opacity="1.000000" />
   <path d="M 1039.83  939.216  1041.94  939.955  1043.84  941.146  1045.42  942.73  1046.61  944.626  1047.35  946.74  1047.6  948.965  1047.35  951.19  1046.61  953.304  1045.42  955.2  1043.84  956.783  1041.94  957.974  1039.83  958.714  1037.6  958.965  1035.38  958.714  1033.26  957.974  1031.37  956.783  1029.78  955.2  1028.59  953.304  1027.85  951.19  1027.6  948.965  1027.85  946.74  1028.59  944.626  1029.78  942.73  1031.37  941.146  1033.26  939.955  1035.38  939.216  1037.6  938.965  1039.83  939.216  " style="fill: none; stroke: purple; stroke-width: 0.500000; fill-type: evenodd"  fill-opacity="1.000000" />
   <path d="M 1019.83  939.216  1021.94  939.955  1023.84  941.146  1025.42  942.73  1026.61  944.626  1027.35  946.74  1027.6  948.965  1027.35  951.19  1026.61  953.304  1025.42  955.2  1023.84  956.783  1021.94  957.974  1019.83  958.714  1017.6  958.965  1015.38  958.714  1013.26  957.974  1011.37  956.783  1009.78  955.2  1008.59  953.304  1007.85  951.19  1007.6  948.965  1007.85  946.74  1008.59  944.626  1009.78  942.73  1011.37  941.146  1013.26  939.955  1015.38  939.216  1017.6  938.965  1019.83  939.216  " style="fill: none; stroke: purple; stroke-width: 0.500000; fill-type: evenodd"  fill-opacity="1.000000" />
   <path d="M 999.826  939.216  1001.94  939.955  1003.84  941.146  1005.42  942.73  1006.61  944.626  1007.35  946.74  1007.6  948.965  1007.35  951.19  1006.61  953.304  1005.42  955.2  1003.84  956.783  1001.94  957.974  999.826  958.714  997.601  958.965  995.376  958.714  993.262  957.974  991.366  956.783  989.783  955.2  988.591  953.304  987.852  951.19  987.601  948.965  987.852  946.74  988.591  944.626  989.783  942.73  991.366  941.146  993.262  939.955  995.376  939.216  997.601  938.965  999.826  939.216  " style="fill: none; stroke: purple; stroke-width: 0.500000; fill-type: evenodd"  fill-opacity="1.000000" />
   <path d="M 979.826  939.216  981.94  939.955  983.836  941.146  985.419  942.73  986.611  944.626  987.35  946.74  987.601  948.965  987.35  951.19  986.611  953.304  985.419  955.2  983.836  956.783  981.94  957.974  979.826  958.714  977.601  958.965  975.376  958.714  973.262  957.974  971.366  956.783  969.783  955.2  968.591  953.304  967.852  951.19  967.601  948.965  967.852  946.74  968.591  944.626  969.783  942.73  971.366  941.146  973.262  939.955  975.376  939.216  977.601  938.965  979.826  939.216  " style="fill: none; stroke: purple; stroke-width: 0.500000; fill-type: evenodd"  fill-opacity="1.000000" />
   <path d="M 1059.83  919.216  1061.94  919.955  1063.84  921.146  1065.42  922.73  1066.61  924.626  1067.35  926.74  1067.6  928.965  1067.35  931.19  1066.61  933.304  1065.42  935.2  1063.84  936.783  1061.94  937.974  1059.83  938.714  1057.6  938.965  1055.38  938.714  1053.26  937.974  1051.37  936.783  1049.78  935.2  1048.59  933.304  1047.85  931.19  1047.6  928.965  1047.85  926.74  1048.59  924.626  1049.78  922.73  1051.37  921.146  1053.26  919.955  1055.38  919.216  1057.6  918.965  1059.83  919.216  " style="fill: none; stroke: purple; stroke-width: 0.500000; fill-type: evenodd"  fill-opacity="1.000000" />
   <path d="M 1039.83  919.216  1041.94  919.955  1043.84  921.146  1045.42  922.73  1046.61  924.626  1047.35  926.74  1047.6  928.965  1047.35  931.19  1046.61  933.304  1045.42  935.2  1043.84  936.783  1041.94  937.974  1039.83  938.714  1037.6  938.965  1035.38  938.714  1033.26  937.974  1031.37  936.783  1029.78  935.2  1028.59  933.304  1027.85  931.19  1027.6  928.965  1027.85  926.74  1028.59  924.626  1029.78  922.73  1031.37  921.146  1033.26  919.955  1035.38  919.216  1037.6  918.965  1039.83  919.216  " style="fill: none; stroke: purple; stroke-width: 0.500000; fill-type: evenodd"  fill-opacity="1.000000" />
   <path d="M 1019.83  919.216  1021.94  919.955  1023.84  921.146  1025.42  922.73  1026.61  924.626  1027.35  926.74  1027.6  928.965  1027.35  931.19  1026.61  933.304  1025.42  935.2  1023.84  936.783  1021.94  937.974  1019.83  938.714  1017.6  938.965  1015.38  938.714  1013.26  937.974  1011.37  936.783  1009.78  935.2  1008.59  933.304  1007.85  931.19  1007.6  928.965  1007.85  926.74  1008.59  924.626  1009.78  922.73  1011.37  921.146  1013.26  919.955  1015.38  919.216  1017.6  918.965  1019.83  919.216  " style="fill: none; stroke: purple; stroke-width: 0.500000; fill-type: evenodd"  fill-opacity="1.000000" />
   <path d="M 999.826  919.216  1001.94  919.955  1003.84  921.146  1005.42  922.73  1006.61  924.626  1007.35  926.74  1007.6  928.965  1007.35  931.19  1006.61  933.304  1005.42  935.2  1003.84  936.783  1001.94  937.974  999.826  938.714  997.601  938.965  995.376  938.714  993.262  937.974  991.366  936.783  989.783  935.2  988.591  933.304  987.852  931.19  987.601  928.965  987.852  926.74  988.591  924.626  989.783  922.73  991.366  921.146  993.262  919.955  995.376  919.216  997.601  918.965  999.826  919.216  " style="fill: none; stroke: purple; stroke-width: 0.500000; fill-type: evenodd"  fill-opacity="1.000000" />
   <path d="M 999.826  899.216  1001.94  899.955  1003.84  901.146  1005.42  902.73  1006.61  904.626  1007.35  906.74  1007.6  908.965  1007.35  911.19  1006.61  913.304  1005.42  915.2  1003.84  916.783  1001.94  917.974  999.826  918.714  997.601  918.965  995.376  918.714  993.262  917.974  991.366  916.783  989.783  915.2  988.591  913.304  987.852  911.19  987.601  908.965  987.852  906.74  988.591  904.626  989.783  902.73  991.366  901.146  993.262  899.955  995.376  899.216  997.601  898.965  999.826  899.216  " style="fill: none; stroke: purple; stroke-width: 0.500000; fill-type: evenodd"  fill-opacity="1.000000" />
   <path d="M 1039.83  899.216  1041.94  899.955  1043.84  901.146  1045.42  902.73  1046.61  904.626  1047.35  906.74  1047.6  908.965  1047.35  911.19  1046.61  913.304  1045.42  915.2  1043.84  916.783  1041.94  917.974  1039.83  918.714  1037.6  918.965  1035.38  918.714  1033.26  917.974  1031.37  916.783  1029.78  915.2  1028.59  913.304  1027.85  911.19  1027.6  908.965  1027.85  906.74  1028.59  904.626  1029.78  902.73  1031.37  901.146  1033.26  899.955  1035.38  899.216  1037.6  898.965  1039.83  899.216  " style="fill: none; stroke: purple; stroke-width: 0.500000; fill-type: evenodd"  fill-opacity="1.000000" />
   <path d="M 1019.83  899.216  1021.94  899.955  1023.84  901.146  1025.42  902.73  1026.61  904.626  1027.35  906.74  1027.6  908.965  1027.35  911.19  1026.61  913.304  1025.42  915.2  1023.84  916.783  1021.94  917.974  1019.83  918.714  1017.6  918.965  1015.38  918.714  1013.26  917.974  1011.37  916.783  1009.78  915.2  1008.59  913.304  1007.85  911.19  1007.6  908.965  1007.85  906.74  1008.59  904.626  1009.78  902.73  1011.37  901.146  1013.26  899.955  1015.38  899.216  1017.6  898.965  1019.83  899.216  " style="fill: none; stroke: purple; stroke-width: 0.500000; fill-type: evenodd"  fill-opacity="1.000000" />
</svg>
