<?xml version="1.0" encoding="UTF-8" standalone="yes"?>
<!DOCTYPE svg PUBLIC "-//W3C//DTD SVG 1.0//EN" "http://www.w3.org/TR/2001/REC-SVG-20010904/DTD/svg10.dtd">
<svg height="2000" width="2000" xmlns="http://www.w3.org/2000/svg" xmlns:svg="http://www.w3.org/2000/svg" xmlns:xlink="http://www.w3.org/1999/xlink">
   <marker id="endArrow" markerHeight="8" markerUnits="strokeWidth" markerWidth="10" orient="auto" refX="1" refY="5" viewBox="0 0 1000 1000">
      <polyline fill="darkblue" points="0,0 10,5 0,10 1,5" />
   </marker>
   <circle cx="1000" cy="1000" r="1" style="stroke:black; fill: red" />
   <circle cx="1000" cy="1000" r="800" style="stroke:black; fill: none" />
   <line x1="1080.834106" y1="1066.027710" x2="1075.244629" y2="1066.027710" style="stroke: green; stroke-width: 0.200000"/>
   <line x1="1080.834106" y1="1065.027710" x2="1076.244629" y2="1065.027710" style="stroke: green; stroke-width: 0.200000"/>
   <line x1="1080.834106" y1="1064.027710" x2="1077.244629" y2="1064.027710" style="stroke: green; stroke-width: 0.200000"/>
   <line x1="1080.834106" y1="1063.027710" x2="1078.244629" y2="1063.027710" style="stroke: green; stroke-width: 0.200000"/>
   <line x1="1080.834106" y1="1062.027710" x2="1079.244629" y2="1062.027710" style="stroke: green; stroke-width: 0.200000"/>
   <line x1="1080.834106" y1="1061.027710" x2="1080.244873" y2="1061.027710" style="stroke: green; stroke-width: 0.200000"/>
   <line x1="1084.654663" y1="1066.027710" x2="1080.934082" y2="1066.027710" style="stroke: green; stroke-width: 0.200000"/>
   <line x1="1085.824219" y1="1065.027710" x2="1080.934082" y2="1065.027710" style="stroke: green; stroke-width: 0.200000"/>
   <line x1="1086.993774" y1="1064.027710" x2="1080.934082" y2="1064.027710" style="stroke: green; stroke-width: 0.200000"/>
   <line x1="1088.283813" y1="1063.027710" x2="1080.934082" y2="1063.027710" style="stroke: green; stroke-width: 0.200000"/>
   <line x1="1089.633301" y1="1062.027710" x2="1080.934082" y2="1062.027710" style="stroke: green; stroke-width: 0.200000"/>
   <line x1="1090.982666" y1="1061.027710" x2="1080.934082" y2="1061.027710" style="stroke: green; stroke-width: 0.200000"/>
   <line x1="1092.452515" y1="1060.027710" x2="1081.244873" y2="1060.027710" style="stroke: green; stroke-width: 0.200000"/>
   <line x1="1093.999268" y1="1059.027710" x2="1082.244751" y2="1059.027710" style="stroke: green; stroke-width: 0.200000"/>
   <line x1="1095.580322" y1="1058.027710" x2="1083.244751" y2="1058.027710" style="stroke: green; stroke-width: 0.200000"/>
   <line x1="1097.241699" y1="1057.027710" x2="1084.244873" y2="1057.027710" style="stroke: green; stroke-width: 0.200000"/>
   <line x1="1098.990601" y1="1056.027710" x2="1085.244873" y2="1056.027710" style="stroke: green; stroke-width: 0.200000"/>
   <line x1="1100.802368" y1="1055.027710" x2="1086.244873" y2="1055.027710" style="stroke: green; stroke-width: 0.200000"/>
   <line x1="1102.637695" y1="1054.027710" x2="1087.244751" y2="1054.027710" style="stroke: green; stroke-width: 0.200000"/>
   <line x1="1104.601807" y1="1053.027710" x2="1088.244751" y2="1053.027710" style="stroke: green; stroke-width: 0.200000"/>
   <line x1="1106.624268" y1="1052.027710" x2="1089.244873" y2="1052.027710" style="stroke: green; stroke-width: 0.200000"/>
   <line x1="1108.646851" y1="1051.027710" x2="1090.244873" y2="1051.027710" style="stroke: green; stroke-width: 0.200000"/>
   <line x1="1110.647827" y1="1050.027710" x2="1091.244873" y2="1050.027710" style="stroke: green; stroke-width: 0.200000"/>
   <line x1="1112.518188" y1="1049.027710" x2="1092.244751" y2="1049.027710" style="stroke: green; stroke-width: 0.200000"/>
   <line x1="1114.079834" y1="1048.027710" x2="1093.244873" y2="1048.027710" style="stroke: green; stroke-width: 0.200000"/>
   <line x1="1115.504272" y1="1047.027710" x2="1094.244873" y2="1047.027710" style="stroke: green; stroke-width: 0.200000"/>
   <line x1="1116.743774" y1="1046.027710" x2="1095.244873" y2="1046.027710" style="stroke: green; stroke-width: 0.200000"/>
   <line x1="1117.887085" y1="1045.027710" x2="1096.244873" y2="1045.027710" style="stroke: green; stroke-width: 0.200000"/>
   <line x1="1118.917969" y1="1044.027710" x2="1097.244751" y2="1044.027710" style="stroke: green; stroke-width: 0.200000"/>
   <line x1="1119.897705" y1="1043.027710" x2="1098.244873" y2="1043.027710" style="stroke: green; stroke-width: 0.200000"/>
   <line x1="1120.822998" y1="1042.027710" x2="1099.244873" y2="1042.027710" style="stroke: green; stroke-width: 0.200000"/>
   <line x1="1121.726196" y1="1041.027710" x2="1100.244873" y2="1041.027710" style="stroke: green; stroke-width: 0.200000"/>
   <line x1="1122.649536" y1="1040.027710" x2="1101.244873" y2="1040.027710" style="stroke: green; stroke-width: 0.200000"/>
   <line x1="1123.416016" y1="1039.027710" x2="1102.244751" y2="1039.027710" style="stroke: green; stroke-width: 0.200000"/>
   <line x1="1124.140747" y1="1038.027710" x2="1103.244873" y2="1038.027710" style="stroke: green; stroke-width: 0.200000"/>
   <line x1="1124.669434" y1="1037.027710" x2="1104.244873" y2="1037.027710" style="stroke: green; stroke-width: 0.200000"/>
   <line x1="1125.198120" y1="1036.027710" x2="1105.244873" y2="1036.027710" style="stroke: green; stroke-width: 0.200000"/>
   <line x1="1125.623413" y1="1035.027710" x2="1106.244873" y2="1035.027710" style="stroke: green; stroke-width: 0.200000"/>
   <line x1="1125.960449" y1="1034.027710" x2="1107.244751" y2="1034.027710" style="stroke: green; stroke-width: 0.200000"/>
   <line x1="1126.297363" y1="1033.027710" x2="1108.244873" y2="1033.027710" style="stroke: green; stroke-width: 0.200000"/>
   <line x1="1126.486206" y1="1032.027710" x2="1109.244873" y2="1032.027710" style="stroke: green; stroke-width: 0.200000"/>
   <line x1="1126.652344" y1="1031.027710" x2="1110.244873" y2="1031.027710" style="stroke: green; stroke-width: 0.200000"/>
   <line x1="1126.807373" y1="1030.027710" x2="1111.244873" y2="1030.027710" style="stroke: green; stroke-width: 0.200000"/>
   <line x1="1126.796509" y1="1029.027710" x2="1112.244751" y2="1029.027710" style="stroke: green; stroke-width: 0.200000"/>
   <line x1="1126.785645" y1="1028.027710" x2="1113.244873" y2="1028.027710" style="stroke: green; stroke-width: 0.200000"/>
   <line x1="1126.758667" y1="1027.027710" x2="1114.244873" y2="1027.027710" style="stroke: green; stroke-width: 0.200000"/>
   <line x1="1126.602661" y1="1026.027710" x2="1115.244873" y2="1026.027710" style="stroke: green; stroke-width: 0.200000"/>
   <line x1="1126.446777" y1="1025.027710" x2="1116.244873" y2="1025.027710" style="stroke: green; stroke-width: 0.200000"/>
   <line x1="1126.253418" y1="1024.027710" x2="1117.244751" y2="1024.027710" style="stroke: green; stroke-width: 0.200000"/>
   <line x1="1125.929443" y1="1023.027710" x2="1118.244873" y2="1023.027710" style="stroke: green; stroke-width: 0.200000"/>
   <line x1="1125.605591" y1="1022.027649" x2="1119.244873" y2="1022.027649" style="stroke: green; stroke-width: 0.200000"/>
   <line x1="1125.203491" y1="1021.027710" x2="1120.244873" y2="1021.027710" style="stroke: green; stroke-width: 0.200000"/>
   <line x1="1124.694336" y1="1020.027710" x2="1121.244873" y2="1020.027710" style="stroke: green; stroke-width: 0.200000"/>
   <line x1="1124.185059" y1="1019.027710" x2="1121.399292" y2="1019.027710" style="stroke: green; stroke-width: 0.200000"/>
   <line x1="1123.595459" y1="1018.027710" x2="1120.753906" y2="1018.027710" style="stroke: green; stroke-width: 0.200000"/>
   <line x1="1122.979858" y1="1017.027649" x2="1121.449097" y2="1017.027649" style="stroke: green; stroke-width: 0.200000"/>
   <line x1="1047.452637" y1="1111.027710" x2="1039.411743" y2="1111.027710" style="stroke: green; stroke-width: 0.200000"/>
   <line x1="1049.793213" y1="1110.027710" x2="1036.805298" y2="1110.027710" style="stroke: green; stroke-width: 0.200000"/>
   <line x1="1051.325562" y1="1109.027710" x2="1034.301880" y2="1109.027710" style="stroke: green; stroke-width: 0.200000"/>
   <line x1="1052.509888" y1="1108.027710" x2="1031.798462" y2="1108.027710" style="stroke: green; stroke-width: 0.200000"/>
   <line x1="1053.431763" y1="1107.027710" x2="1031.449097" y2="1107.027710" style="stroke: green; stroke-width: 0.200000"/>
   <line x1="1033.174683" y1="1106.027710" x2="1032.448975" y2="1106.027710" style="stroke: green; stroke-width: 0.200000"/>
   <line x1="1054.215088" y1="1106.027710" x2="1035.244751" y2="1106.027710" style="stroke: green; stroke-width: 0.200000"/>
   <line x1="1054.967896" y1="1105.027710" x2="1036.244873" y2="1105.027710" style="stroke: green; stroke-width: 0.200000"/>
   <line x1="1055.726196" y1="1104.027710" x2="1037.244751" y2="1104.027710" style="stroke: green; stroke-width: 0.200000"/>
   <line x1="1056.431274" y1="1103.027710" x2="1038.244751" y2="1103.027710" style="stroke: green; stroke-width: 0.200000"/>
   <line x1="1057.100586" y1="1102.027710" x2="1039.244751" y2="1102.027710" style="stroke: green; stroke-width: 0.200000"/>
   <line x1="1057.741577" y1="1101.027710" x2="1040.244751" y2="1101.027710" style="stroke: green; stroke-width: 0.200000"/>
   <line x1="1058.313965" y1="1100.027710" x2="1041.244873" y2="1100.027710" style="stroke: green; stroke-width: 0.200000"/>
   <line x1="1058.886475" y1="1099.027710" x2="1042.244751" y2="1099.027710" style="stroke: green; stroke-width: 0.200000"/>
   <line x1="1059.458862" y1="1098.027710" x2="1043.244751" y2="1098.027710" style="stroke: green; stroke-width: 0.200000"/>
   <line x1="1060.031250" y1="1097.027710" x2="1044.244751" y2="1097.027710" style="stroke: green; stroke-width: 0.200000"/>
   <line x1="1060.592285" y1="1096.027710" x2="1045.244751" y2="1096.027710" style="stroke: green; stroke-width: 0.200000"/>
   <line x1="1061.135498" y1="1095.027710" x2="1046.244873" y2="1095.027710" style="stroke: green; stroke-width: 0.200000"/>
   <line x1="1061.675781" y1="1094.027710" x2="1047.244751" y2="1094.027710" style="stroke: green; stroke-width: 0.200000"/>
   <line x1="1062.217163" y1="1093.027710" x2="1048.244751" y2="1093.027710" style="stroke: green; stroke-width: 0.200000"/>
   <line x1="1062.825195" y1="1092.027710" x2="1049.244751" y2="1092.027710" style="stroke: green; stroke-width: 0.200000"/>
   <line x1="1063.433472" y1="1091.027710" x2="1050.244751" y2="1091.027710" style="stroke: green; stroke-width: 0.200000"/>
   <line x1="1064.041504" y1="1090.027710" x2="1051.244873" y2="1090.027710" style="stroke: green; stroke-width: 0.200000"/>
   <line x1="1064.652832" y1="1089.027710" x2="1052.244751" y2="1089.027710" style="stroke: green; stroke-width: 0.200000"/>
   <line x1="1065.337402" y1="1088.027710" x2="1053.244751" y2="1088.027710" style="stroke: green; stroke-width: 0.200000"/>
   <line x1="1066.022095" y1="1087.027710" x2="1054.244751" y2="1087.027710" style="stroke: green; stroke-width: 0.200000"/>
   <line x1="1066.706787" y1="1086.027710" x2="1055.244873" y2="1086.027710" style="stroke: green; stroke-width: 0.200000"/>
   <line x1="1067.393066" y1="1085.027710" x2="1056.244873" y2="1085.027710" style="stroke: green; stroke-width: 0.200000"/>
   <line x1="1068.190186" y1="1084.027710" x2="1057.244751" y2="1084.027710" style="stroke: green; stroke-width: 0.200000"/>
   <line x1="1068.987305" y1="1083.027710" x2="1058.244629" y2="1083.027710" style="stroke: green; stroke-width: 0.200000"/>
   <line x1="1069.784424" y1="1082.027710" x2="1059.244629" y2="1082.027710" style="stroke: green; stroke-width: 0.200000"/>
   <line x1="1070.581421" y1="1081.027710" x2="1060.244629" y2="1081.027710" style="stroke: green; stroke-width: 0.200000"/>
   <line x1="1071.378540" y1="1080.027710" x2="1061.244629" y2="1080.027710" style="stroke: green; stroke-width: 0.200000"/>
   <line x1="1072.175537" y1="1079.027710" x2="1062.244629" y2="1079.027710" style="stroke: green; stroke-width: 0.200000"/>
   <line x1="1072.972656" y1="1078.027710" x2="1063.244629" y2="1078.027710" style="stroke: green; stroke-width: 0.200000"/>
   <line x1="1073.830200" y1="1077.027710" x2="1064.244629" y2="1077.027710" style="stroke: green; stroke-width: 0.200000"/>
   <line x1="1074.754517" y1="1076.027710" x2="1065.244629" y2="1076.027710" style="stroke: green; stroke-width: 0.200000"/>
   <line x1="1075.678833" y1="1075.027710" x2="1066.244629" y2="1075.027710" style="stroke: green; stroke-width: 0.200000"/>
   <line x1="1076.603027" y1="1074.027710" x2="1067.244629" y2="1074.027710" style="stroke: green; stroke-width: 0.200000"/>
   <line x1="1077.527466" y1="1073.027710" x2="1068.244629" y2="1073.027710" style="stroke: green; stroke-width: 0.200000"/>
   <line x1="1078.451782" y1="1072.027710" x2="1069.244629" y2="1072.027710" style="stroke: green; stroke-width: 0.200000"/>
   <line x1="1079.376099" y1="1071.027710" x2="1070.244629" y2="1071.027710" style="stroke: green; stroke-width: 0.200000"/>
   <line x1="1080.349121" y1="1070.027710" x2="1071.244629" y2="1070.027710" style="stroke: green; stroke-width: 0.200000"/>
   <line x1="1080.834106" y1="1069.027710" x2="1072.244629" y2="1069.027710" style="stroke: green; stroke-width: 0.200000"/>
   <line x1="1080.834106" y1="1068.027710" x2="1073.244629" y2="1068.027710" style="stroke: green; stroke-width: 0.200000"/>
   <line x1="1080.834106" y1="1067.027710" x2="1074.244629" y2="1067.027710" style="stroke: green; stroke-width: 0.200000"/>
   <line x1="1081.392090" y1="1069.027710" x2="1080.934082" y2="1069.027710" style="stroke: green; stroke-width: 0.200000"/>
   <line x1="1082.435059" y1="1068.027710" x2="1080.934082" y2="1068.027710" style="stroke: green; stroke-width: 0.200000"/>
   <line x1="1083.485107" y1="1067.027710" x2="1080.934082" y2="1067.027710" style="stroke: green; stroke-width: 0.200000"/>
   <line x1="897.489685" y1="1025.081177" x2="897.170044" y2="1025.081177" style="stroke: green; stroke-width: 0.200000"/>
   <line x1="898.489685" y1="1024.081177" x2="896.967285" y2="1024.081177" style="stroke: green; stroke-width: 0.200000"/>
   <line x1="899.489685" y1="1023.081177" x2="896.891541" y2="1023.081177" style="stroke: green; stroke-width: 0.200000"/>
   <line x1="900.489746" y1="1022.081177" x2="896.987000" y2="1022.081177" style="stroke: green; stroke-width: 0.200000"/>
   <line x1="901.489746" y1="1021.081177" x2="897.327820" y2="1021.081177" style="stroke: green; stroke-width: 0.200000"/>
   <line x1="902.489685" y1="1020.081177" x2="897.801880" y2="1020.081177" style="stroke: green; stroke-width: 0.200000"/>
   <line x1="903.489685" y1="1019.081177" x2="898.306030" y2="1019.081177" style="stroke: green; stroke-width: 0.200000"/>
   <line x1="904.489685" y1="1018.081177" x2="898.836365" y2="1018.081177" style="stroke: green; stroke-width: 0.200000"/>
   <line x1="905.489746" y1="1017.081177" x2="899.423706" y2="1017.081177" style="stroke: green; stroke-width: 0.200000"/>
   <line x1="906.489746" y1="1016.081177" x2="900.193237" y2="1016.081177" style="stroke: green; stroke-width: 0.200000"/>
   <line x1="907.489685" y1="1015.081177" x2="900.968079" y2="1015.081177" style="stroke: green; stroke-width: 0.200000"/>
   <line x1="908.489685" y1="1014.081177" x2="901.743042" y2="1014.081177" style="stroke: green; stroke-width: 0.200000"/>
   <line x1="909.489685" y1="1013.081177" x2="902.524719" y2="1013.081177" style="stroke: green; stroke-width: 0.200000"/>
   <line x1="910.489624" y1="1012.081177" x2="903.503357" y2="1012.081177" style="stroke: green; stroke-width: 0.200000"/>
   <line x1="911.489746" y1="1011.081177" x2="904.481873" y2="1011.081177" style="stroke: green; stroke-width: 0.200000"/>
   <line x1="912.489685" y1="1010.081177" x2="905.460449" y2="1010.081177" style="stroke: green; stroke-width: 0.200000"/>
   <line x1="913.489685" y1="1009.081177" x2="906.537170" y2="1009.081177" style="stroke: green; stroke-width: 0.200000"/>
   <line x1="914.489685" y1="1008.081177" x2="907.741760" y2="1008.081177" style="stroke: green; stroke-width: 0.200000"/>
   <line x1="915.489624" y1="1007.081177" x2="908.946289" y2="1007.081177" style="stroke: green; stroke-width: 0.200000"/>
   <line x1="916.489746" y1="1006.081177" x2="910.375061" y2="1006.081177" style="stroke: green; stroke-width: 0.200000"/>
   <line x1="915.119568" y1="1005.081177" x2="912.815613" y2="1005.081177" style="stroke: green; stroke-width: 0.200000"/>
   <path d="M 1123.87  1015.61  1125.37  1018.05  1126.81  1020.87  1127.79  1023.9  1128.27  1027.02  1128.31  1030.21  1127.8  1033.26  1126.82  1036.16  1125.42  1038.82  1125.05  1039.36  1123.91  1040.87  1123.6  1041.22  1123.28  1041.54  1121.27  1043.77  1120.43  1044.63  1119.64  1045.43  1118.32  1046.68  1116.03  1048.53  1113.87  1049.97  1112.94  1050.52  1110.96  1051.56  1104.78  1054.61  1103.38  1055.33  1100.33  1056.99  1098.3  1058.14  1096.03  1059.51  1093.52  1061.12  1091.93  1062.19  1089.1  1064.29  1088.06  1065.09  1084.43  1068.2  1080.99  1071.49  1074.53  1078.48  1068.59  1085.94  1065.88  1089.88  1063.79  1093.31  1063.37  1094.01  1062.94  1094.86  1061.69  1097.15  1058.85  1102.11  1057.25  1104.5  1055.54  1106.75  1054.89  1107.65  1053.82  1108.83  1053.46  1109.2  1052.6  1109.95  1051.68  1110.63  1050.7  1111.25  1049.67  1111.79  1048.57  1112.25  1047.45  1112.6  1046.29  1112.87  1045.1  1113.05  1044.39  1113.1  1042.66  1113.08  1040.67  1112.88  1040.31  1112.82  1039.14  1112.52  1038.01  1112.13  1028.16  1108.19  1032.47  1103.89  1034.24  1104.91  1119.81  1019.34  1118.72  1017.64  1122.66  1013.69  1123.87  1015.61  " style="fill: none; stroke: darkmagenta; stroke-width: 0.200000; fill-type: evenodd"  fill-opacity="1.000000" />
   <path d="M 1123.02  1016.14  1124.5  1018.54  1125.88  1021.26  1126.81  1024.13  1127.28  1027.1  1127.31  1030.13  1126.83  1033.02  1125.9  1035.77  1124.56  1038.3  1124.24  1038.77  1123.13  1040.24  1122.86  1040.54  1122.56  1040.86  1120.54  1043.08  1119.71  1043.93  1118.94  1044.72  1117.66  1045.93  1115.44  1047.72  1113.34  1049.12  1112.45  1049.65  1110.5  1050.67  1104.33  1053.72  1102.91  1054.45  1099.85  1056.12  1097.79  1057.28  1095.5  1058.66  1092.97  1060.28  1091.35  1061.38  1088.5  1063.49  1087.43  1064.31  1083.76  1067.45  1080.28  1070.79  1073.77  1077.83  1067.78  1085.34  1065.04  1089.34  1062.94  1092.79  1062.5  1093.53  1062.05  1094.39  1060.82  1096.66  1058  1101.58  1056.44  1103.92  1054.74  1106.15  1054.11  1107.02  1053.09  1108.15  1052.77  1108.47  1051.97  1109.17  1051.11  1109.81  1050.2  1110.38  1049.24  1110.88  1048.22  1111.31  1047.18  1111.64  1046.1  1111.89  1044.99  1112.05  1044.36  1112.1  1042.72  1112.08  1040.8  1111.89  1040.52  1111.84  1039.43  1111.56  1038.36  1111.19  1029.94  1107.83  1032.63  1105.14  1034.4  1106.16  1121.09  1019.47  1120  1017.77  1122.48  1015.29  1123.02  1016.14  " style="fill: none; stroke: black; stroke-width: 0.200000; fill-type: evenodd"  fill-opacity="1.000000" />
   <path d="M 914.746  1003.45  914.961  1003.47  915.755  1003.72  916.324  1003.86  917.073  1004.26  917.692  1004.72  917.983  1005.14  918.668  1006.02  897.49  1027.2  896.745  1026.43  896.266  1026.09  895.932  1025.74  895.621  1024.99  895.365  1023.73  895.424  1022.23  895.606  1021.36  896.066  1020.19  897.334  1017.68  898.195  1016.21  900.951  1012.64  901.361  1012.13  901.888  1011.58  904.997  1008.41  908.344  1005.63  908.8  1005.28  909.27  1004.96  910.383  1004.39  911.633  1003.79  913.031  1003.51  914.38  1003.41  914.746  1003.45  " style="fill: none; stroke: darkmagenta; stroke-width: 0.200000; fill-type: evenodd"  fill-opacity="1.000000" />
   <path d="M 914.637  1004.45  914.764  1004.46  915.482  1004.68  915.96  1004.8  916.537  1005.11  916.963  1005.43  917.327  1005.95  897.522  1025.76  896.919  1025.32  896.783  1025.18  896.582  1024.7  896.369  1023.65  896.42  1022.35  896.567  1021.65  896.979  1020.6  898.213  1018.16  899.026  1016.77  901.737  1013.26  902.114  1012.79  902.607  1012.27  905.675  1009.15  908.971  1006.41  909.387  1006.09  909.779  1005.82  910.827  1005.29  911.955  1004.75  913.168  1004.5  914.356  1004.41  914.637  1004.45  " style="fill: none; stroke: black; stroke-width: 0.200000; fill-type: evenodd"  fill-opacity="1.000000" />
</svg>
