<?xml version="1.0" encoding="UTF-8" standalone="yes"?>
<!DOCTYPE svg PUBLIC "-//W3C//DTD SVG 1.0//EN" "http://www.w3.org/TR/2001/REC-SVG-20010904/DTD/svg10.dtd">
<svg height="2000" width="2000" xmlns="http://www.w3.org/2000/svg" xmlns:svg="http://www.w3.org/2000/svg" xmlns:xlink="http://www.w3.org/1999/xlink">
   <marker id="endArrow" markerHeight="8" markerUnits="strokeWidth" markerWidth="10" orient="auto" refX="1" refY="5" viewBox="0 0 1000 1000">
      <polyline fill="darkblue" points="0,0 10,5 0,10 1,5" />
   </marker>
   <circle cx="1000" cy="1000" r="1" style="stroke:black; fill: red" />
   <circle cx="1000" cy="1000" r="800" style="stroke:black; fill: none" />
   <line x1="1082.716064" y1="1065.816406" x2="1082.716064" y2="1067.466309" style="stroke: green; stroke-width: 0.200000"/>
   <line x1="1081.716064" y1="1066.816284" x2="1081.716064" y2="1067.137817" style="stroke: green; stroke-width: 0.200000"/>
   <line x1="1083.716064" y1="1064.816284" x2="1083.716064" y2="1067.060303" style="stroke: green; stroke-width: 0.200000"/>
   <line x1="1084.716064" y1="1063.816284" x2="1084.716064" y2="1066.427979" style="stroke: green; stroke-width: 0.200000"/>
   <line x1="1085.716064" y1="1062.816284" x2="1085.716064" y2="1065.635254" style="stroke: green; stroke-width: 0.200000"/>
   <line x1="1086.716064" y1="1061.816284" x2="1086.716064" y2="1064.778809" style="stroke: green; stroke-width: 0.200000"/>
   <line x1="1087.716064" y1="1060.816406" x2="1087.716064" y2="1063.916992" style="stroke: green; stroke-width: 0.200000"/>
   <line x1="1088.716064" y1="1059.816406" x2="1088.716064" y2="1063.055176" style="stroke: green; stroke-width: 0.200000"/>
   <line x1="1089.716064" y1="1058.981201" x2="1089.716064" y2="1062.191040" style="stroke: green; stroke-width: 0.200000"/>
   <line x1="1090.716064" y1="1059.055908" x2="1090.716064" y2="1061.306274" style="stroke: green; stroke-width: 0.200000"/>
   <line x1="1091.716064" y1="1059.130615" x2="1091.716064" y2="1060.421631" style="stroke: green; stroke-width: 0.200000"/>
   <line x1="1109.837891" y1="1038.694458" x2="1109.837891" y2="1043.362061" style="stroke: green; stroke-width: 0.200000"/>
   <line x1="1110.837891" y1="1037.694458" x2="1110.837891" y2="1042.455811" style="stroke: green; stroke-width: 0.200000"/>
   <line x1="1108.837891" y1="1039.694580" x2="1108.837891" y2="1042.334839" style="stroke: green; stroke-width: 0.200000"/>
   <line x1="1111.837891" y1="1036.694458" x2="1111.837891" y2="1041.451294" style="stroke: green; stroke-width: 0.200000"/>
   <line x1="1112.837891" y1="1037.186035" x2="1112.837891" y2="1039.936279" style="stroke: green; stroke-width: 0.200000"/>
   <path d="M 1107.58  1038.83  1112.19  1034.22  1112.64  1034.68  1113.27  1035.47  1113.63  1035.77  1113.71  1035.88  1113.98  1036.18  1114.24  1036.6  1114.45  1037.04  1114.52  1037.23  1114.59  1037.5  1114.67  1037.89  1114.72  1038.43  1114.67  1039.04  1114.28  1040.42  1113.75  1041.42  1113.29  1042.08  1112.55  1042.9  1107.03  1048.13  1101.41  1053.56  1098.62  1056.19  1095.73  1058.87  1090.6  1063.41  1086.8  1066.69  1085.96  1067.37  1085.58  1067.66  1084.79  1068.18  1084.41  1068.39  1084.04  1068.58  1083.67  1068.74  1083.31  1068.87  1082.97  1068.96  1082.64  1069.02  1082.31  1069.04  1082  1069.01  1081.7  1068.94  1081.5  1068.84  1081.28  1068.77  1081.16  1068.68  1079.99  1067.57  1079.83  1067.35  1079.45  1066.96  1086.19  1060.22  " style="fill: none; stroke: darkmagenta; stroke-width: 0.200000; fill-type: evenodd"  fill-opacity="1.000000" />
   <path d="M 1086.19  1060.22  1088.95  1057.47  1089.81  1057.48  1089.93  1057.49  " style="fill: none; stroke: red; stroke-width: 0.200000; fill-type: evenodd"  fill-opacity="1.000000" />
   <path d="M 1089.93  1057.49  1091.59  1057.62  1107.14  1042.07  1106.74  1040.68  " style="fill: none; stroke: darkmagenta; stroke-width: 0.200000; fill-type: evenodd"  fill-opacity="1.000000" />
   <path d="M 1106.74  1040.68  1106.52  1039.89  1107.58  1038.83  " style="fill: none; stroke: red; stroke-width: 0.200000; fill-type: evenodd"  fill-opacity="1.000000" />
   <path d="M 1112.56  1036.17  1112.88  1036.44  1112.92  1036.5  1113.18  1036.79  1113.36  1037.08  1113.53  1037.44  1113.57  1037.53  1113.62  1037.73  1113.68  1038.04  1113.72  1038.44  1113.68  1038.86  1113.34  1040.05  1112.9  1040.9  1112.51  1041.45  1111.84  1042.2  1106.34  1047.41  1100.72  1052.83  1097.94  1055.46  1095.06  1058.13  1089.94  1062.66  1086.15  1065.92  1085.35  1066.58  1085  1066.84  1084.27  1067.32  1083.94  1067.51  1083.61  1067.67  1083.3  1067.81  1083.01  1067.91  1082.75  1067.98  1082.52  1068.02  1082.32  1068.04  1082.16  1068.02  1082.04  1067.99  1081.88  1067.92  1081.77  1067.88  1080.84  1066.99  1089.35  1058.47  1089.76  1058.48  1091.97  1058.65  1108.26  1042.36  1107.64  1040.18  1112.15  1035.67  1112.56  1036.17  " style="fill: none; stroke: black; stroke-width: 0.200000; fill-type: evenodd"  fill-opacity="1.000000" />
   <path d="M 1109.03  1043.25  1105.57  1046.61  1105.57  1046.61  1100  1052.08  1097.27  1054.74  1094.45  1057.46  " style="fill: none; stroke: grey; stroke-width: 0.200000; fill-type: evenodd"  fill-opacity="1.000000" />
   <path d="M 1094.45  1057.46  1092.6  1059.2  " style="fill: none; stroke: grey; stroke-width: 0.200000; fill-type: evenodd"  fill-opacity="1.000000" />
</svg>
