<?xml version="1.0" encoding="UTF-8" standalone="yes"?>
<!DOCTYPE svg PUBLIC "-//W3C//DTD SVG 1.0//EN" "http://www.w3.org/TR/2001/REC-SVG-20010904/DTD/svg10.dtd">
<svg height="2000" width="2000" xmlns="http://www.w3.org/2000/svg" xmlns:svg="http://www.w3.org/2000/svg" xmlns:xlink="http://www.w3.org/1999/xlink">
   <marker id="endArrow" markerHeight="8" markerUnits="strokeWidth" markerWidth="10" orient="auto" refX="1" refY="5" viewBox="0 0 1000 1000">
      <polyline fill="darkblue" points="0,0 10,5 0,10 1,5" />
   </marker>
   <circle cx="1000" cy="1000" r="1" style="stroke:black; fill: red" />
   <circle cx="1000" cy="1000" r="800" style="stroke:black; fill: none" />
   <line x1="758.114075" y1="1077.687744" x2="758.114075" y2="1079.075195" style="stroke: green; stroke-width: 0.200000"/>
   <line x1="759.114075" y1="1074.588745" x2="759.114075" y2="1079.075195" style="stroke: green; stroke-width: 0.200000"/>
   <line x1="760.114075" y1="1071.104004" x2="760.114075" y2="1079.075195" style="stroke: green; stroke-width: 0.200000"/>
   <line x1="761.114014" y1="1068.563843" x2="761.114014" y2="1079.075195" style="stroke: green; stroke-width: 0.200000"/>
   <line x1="762.114136" y1="1066.023682" x2="762.114136" y2="1079.075195" style="stroke: green; stroke-width: 0.200000"/>
   <line x1="763.114075" y1="1063.624878" x2="763.114075" y2="1079.075195" style="stroke: green; stroke-width: 0.200000"/>
   <line x1="764.114075" y1="1061.462402" x2="764.114075" y2="1079.075195" style="stroke: green; stroke-width: 0.200000"/>
   <line x1="765.114075" y1="1059.553955" x2="765.114075" y2="1079.075195" style="stroke: green; stroke-width: 0.200000"/>
   <line x1="766.114014" y1="1057.992065" x2="766.114014" y2="1079.075195" style="stroke: green; stroke-width: 0.200000"/>
   <line x1="767.114136" y1="1056.477539" x2="767.114136" y2="1079.075195" style="stroke: green; stroke-width: 0.200000"/>
   <line x1="768.114075" y1="1055.155518" x2="768.114075" y2="1079.075195" style="stroke: green; stroke-width: 0.200000"/>
   <line x1="769.114075" y1="1053.833496" x2="769.114075" y2="1079.075195" style="stroke: green; stroke-width: 0.200000"/>
   <line x1="770.114075" y1="1052.486084" x2="770.114075" y2="1079.075195" style="stroke: green; stroke-width: 0.200000"/>
   <line x1="771.114014" y1="1051.128174" x2="771.114014" y2="1079.075195" style="stroke: green; stroke-width: 0.200000"/>
   <line x1="772.114136" y1="1049.770264" x2="772.114136" y2="1079.075195" style="stroke: green; stroke-width: 0.200000"/>
   <line x1="773.114075" y1="1048.652954" x2="773.114075" y2="1079.075195" style="stroke: green; stroke-width: 0.200000"/>
   <line x1="774.114075" y1="1047.600586" x2="774.114075" y2="1079.075195" style="stroke: green; stroke-width: 0.200000"/>
   <line x1="775.114075" y1="1046.548096" x2="775.114075" y2="1079.075195" style="stroke: green; stroke-width: 0.200000"/>
   <line x1="776.114014" y1="1045.495728" x2="776.114014" y2="1079.075195" style="stroke: green; stroke-width: 0.200000"/>
   <line x1="777.114136" y1="1044.443359" x2="777.114136" y2="1079.075195" style="stroke: green; stroke-width: 0.200000"/>
   <line x1="778.114075" y1="1043.495361" x2="778.114075" y2="1079.075195" style="stroke: green; stroke-width: 0.200000"/>
   <line x1="779.114075" y1="1042.651001" x2="779.114075" y2="1079.075195" style="stroke: green; stroke-width: 0.200000"/>
   <line x1="780.114075" y1="1041.902344" x2="780.114075" y2="1079.075195" style="stroke: green; stroke-width: 0.200000"/>
   <line x1="781.114014" y1="1041.119141" x2="781.114014" y2="1079.075195" style="stroke: green; stroke-width: 0.200000"/>
   <line x1="782.114136" y1="1040.335815" x2="782.114136" y2="1079.075195" style="stroke: green; stroke-width: 0.200000"/>
   <line x1="783.114075" y1="1039.552612" x2="783.114075" y2="1079.075195" style="stroke: green; stroke-width: 0.200000"/>
   <line x1="784.114075" y1="1038.769409" x2="784.114075" y2="1079.075195" style="stroke: green; stroke-width: 0.200000"/>
   <line x1="785.114075" y1="1037.986084" x2="785.114075" y2="1079.075195" style="stroke: green; stroke-width: 0.200000"/>
   <line x1="786.114014" y1="1037.203003" x2="786.114014" y2="1079.075195" style="stroke: green; stroke-width: 0.200000"/>
   <line x1="787.114136" y1="1036.494873" x2="787.114136" y2="1079.075195" style="stroke: green; stroke-width: 0.200000"/>
   <line x1="788.114075" y1="1035.866821" x2="788.114075" y2="1079.075195" style="stroke: green; stroke-width: 0.200000"/>
   <line x1="789.114075" y1="1035.238525" x2="789.114075" y2="1079.075195" style="stroke: green; stroke-width: 0.200000"/>
   <line x1="790.114075" y1="1034.610352" x2="790.114075" y2="1079.075195" style="stroke: green; stroke-width: 0.200000"/>
   <line x1="791.114014" y1="1033.982178" x2="791.114014" y2="1079.075195" style="stroke: green; stroke-width: 0.200000"/>
   <line x1="792.114136" y1="1033.357422" x2="792.114136" y2="1079.075195" style="stroke: green; stroke-width: 0.200000"/>
   <line x1="793.114075" y1="1032.841919" x2="793.114075" y2="1079.075195" style="stroke: green; stroke-width: 0.200000"/>
   <line x1="794.114075" y1="1032.326416" x2="794.114075" y2="1079.075195" style="stroke: green; stroke-width: 0.200000"/>
   <line x1="795.114075" y1="1031.913574" x2="795.114075" y2="1079.075195" style="stroke: green; stroke-width: 0.200000"/>
   <line x1="796.114014" y1="1031.509155" x2="796.114014" y2="1079.075195" style="stroke: green; stroke-width: 0.200000"/>
   <line x1="797.114136" y1="1031.104858" x2="797.114136" y2="1079.075195" style="stroke: green; stroke-width: 0.200000"/>
   <line x1="798.114075" y1="1030.700439" x2="798.114075" y2="1079.075195" style="stroke: green; stroke-width: 0.200000"/>
   <line x1="799.114075" y1="1030.296143" x2="799.114075" y2="1079.075195" style="stroke: green; stroke-width: 0.200000"/>
   <line x1="800.114075" y1="1029.891602" x2="800.114075" y2="1079.075195" style="stroke: green; stroke-width: 0.200000"/>
   <line x1="801.114014" y1="1029.658447" x2="801.114014" y2="1079.075195" style="stroke: green; stroke-width: 0.200000"/>
   <line x1="802.114136" y1="1029.446533" x2="802.114136" y2="1079.075195" style="stroke: green; stroke-width: 0.200000"/>
   <line x1="803.114075" y1="1029.234741" x2="803.114075" y2="1079.075195" style="stroke: green; stroke-width: 0.200000"/>
   <line x1="804.114075" y1="1029.081787" x2="804.114075" y2="1079.075195" style="stroke: green; stroke-width: 0.200000"/>
   <line x1="805.114075" y1="1029.107788" x2="805.114075" y2="1079.075195" style="stroke: green; stroke-width: 0.200000"/>
   <line x1="806.114014" y1="1029.133789" x2="806.114014" y2="1079.075195" style="stroke: green; stroke-width: 0.200000"/>
   <line x1="807.114136" y1="1029.159912" x2="807.114136" y2="1079.075195" style="stroke: green; stroke-width: 0.200000"/>
   <line x1="808.114075" y1="1029.186035" x2="808.114075" y2="1079.075195" style="stroke: green; stroke-width: 0.200000"/>
   <line x1="809.114075" y1="1029.212158" x2="809.114075" y2="1079.075195" style="stroke: green; stroke-width: 0.200000"/>
   <line x1="810.114075" y1="1029.394165" x2="810.114075" y2="1079.075195" style="stroke: green; stroke-width: 0.200000"/>
   <line x1="811.114014" y1="1029.649902" x2="811.114014" y2="1079.075195" style="stroke: green; stroke-width: 0.200000"/>
   <line x1="812.114136" y1="1029.905640" x2="812.114136" y2="1079.075195" style="stroke: green; stroke-width: 0.200000"/>
   <line x1="813.114075" y1="1030.161377" x2="813.114075" y2="1079.075195" style="stroke: green; stroke-width: 0.200000"/>
   <line x1="814.114075" y1="1030.417114" x2="814.114075" y2="1079.075195" style="stroke: green; stroke-width: 0.200000"/>
   <line x1="815.114075" y1="1030.672852" x2="815.114075" y2="1079.075195" style="stroke: green; stroke-width: 0.200000"/>
   <line x1="816.114014" y1="1030.928711" x2="816.114014" y2="1079.075195" style="stroke: green; stroke-width: 0.200000"/>
   <line x1="817.114136" y1="1031.168457" x2="817.114136" y2="1079.075195" style="stroke: green; stroke-width: 0.200000"/>
   <line x1="818.114075" y1="1031.402832" x2="818.114075" y2="1079.075195" style="stroke: green; stroke-width: 0.200000"/>
   <line x1="819.114075" y1="1031.639526" x2="819.114075" y2="1079.075195" style="stroke: green; stroke-width: 0.200000"/>
   <line x1="820.114075" y1="1032.082764" x2="820.114075" y2="1079.075195" style="stroke: green; stroke-width: 0.200000"/>
   <line x1="821.114014" y1="1032.530518" x2="821.114014" y2="1079.075195" style="stroke: green; stroke-width: 0.200000"/>
   <line x1="822.114136" y1="1033.168457" x2="822.114136" y2="1079.075195" style="stroke: green; stroke-width: 0.200000"/>
   <line x1="823.114075" y1="1033.806396" x2="823.114075" y2="1079.075195" style="stroke: green; stroke-width: 0.200000"/>
   <line x1="824.114075" y1="1034.444336" x2="824.114075" y2="1079.075195" style="stroke: green; stroke-width: 0.200000"/>
   <line x1="825.114075" y1="1035.082275" x2="825.114075" y2="1079.075195" style="stroke: green; stroke-width: 0.200000"/>
   <line x1="826.114014" y1="1035.720337" x2="826.114014" y2="1079.075195" style="stroke: green; stroke-width: 0.200000"/>
   <line x1="827.114136" y1="1036.398315" x2="827.114136" y2="1079.075195" style="stroke: green; stroke-width: 0.200000"/>
   <line x1="828.114075" y1="1037.279907" x2="828.114075" y2="1079.075195" style="stroke: green; stroke-width: 0.200000"/>
   <line x1="829.114075" y1="1038.161499" x2="829.114075" y2="1079.075195" style="stroke: green; stroke-width: 0.200000"/>
   <line x1="830.114075" y1="1039.043091" x2="830.114075" y2="1079.075195" style="stroke: green; stroke-width: 0.200000"/>
   <line x1="831.114014" y1="1039.839111" x2="831.114014" y2="1079.075195" style="stroke: green; stroke-width: 0.200000"/>
   <line x1="832.114136" y1="1040.614868" x2="832.114136" y2="1079.075195" style="stroke: green; stroke-width: 0.200000"/>
   <line x1="833.114075" y1="1041.390625" x2="833.114075" y2="1079.075195" style="stroke: green; stroke-width: 0.200000"/>
   <line x1="834.114075" y1="1042.166382" x2="834.114075" y2="1079.075195" style="stroke: green; stroke-width: 0.200000"/>
   <line x1="835.114075" y1="1043.011230" x2="835.114075" y2="1079.075195" style="stroke: green; stroke-width: 0.200000"/>
   <line x1="836.114014" y1="1044.052612" x2="836.114014" y2="1079.075195" style="stroke: green; stroke-width: 0.200000"/>
   <line x1="837.114136" y1="1045.094238" x2="837.114136" y2="1079.075195" style="stroke: green; stroke-width: 0.200000"/>
   <line x1="838.114075" y1="1046.135742" x2="838.114075" y2="1079.075195" style="stroke: green; stroke-width: 0.200000"/>
   <line x1="839.114075" y1="1047.109375" x2="839.114075" y2="1079.075195" style="stroke: green; stroke-width: 0.200000"/>
   <line x1="840.114075" y1="1047.771240" x2="840.114075" y2="1079.075195" style="stroke: green; stroke-width: 0.200000"/>
   <line x1="841.114014" y1="1048.433105" x2="841.114014" y2="1079.075195" style="stroke: green; stroke-width: 0.200000"/>
   <line x1="842.114136" y1="1049.094971" x2="842.114136" y2="1079.075195" style="stroke: green; stroke-width: 0.200000"/>
   <line x1="843.114075" y1="1049.756714" x2="843.114075" y2="1079.075195" style="stroke: green; stroke-width: 0.200000"/>
   <line x1="844.114075" y1="1050.732178" x2="844.114075" y2="1079.075195" style="stroke: green; stroke-width: 0.200000"/>
   <line x1="845.114075" y1="1051.736572" x2="845.114075" y2="1079.075195" style="stroke: green; stroke-width: 0.200000"/>
   <line x1="846.114014" y1="1052.741089" x2="846.114014" y2="1079.075195" style="stroke: green; stroke-width: 0.200000"/>
   <line x1="847.114136" y1="1053.745483" x2="847.114136" y2="1079.075195" style="stroke: green; stroke-width: 0.200000"/>
   <line x1="848.114075" y1="1054.705566" x2="848.114075" y2="1079.075195" style="stroke: green; stroke-width: 0.200000"/>
   <line x1="849.114075" y1="1055.585205" x2="849.114075" y2="1079.075195" style="stroke: green; stroke-width: 0.200000"/>
   <line x1="850.114075" y1="1056.464844" x2="850.114075" y2="1079.075195" style="stroke: green; stroke-width: 0.200000"/>
   <line x1="851.114014" y1="1057.344482" x2="851.114014" y2="1079.075195" style="stroke: green; stroke-width: 0.200000"/>
   <line x1="852.114136" y1="1058.307129" x2="852.114136" y2="1079.075195" style="stroke: green; stroke-width: 0.200000"/>
   <line x1="853.114075" y1="1059.395264" x2="853.114075" y2="1079.075195" style="stroke: green; stroke-width: 0.200000"/>
   <line x1="854.114075" y1="1060.483276" x2="854.114075" y2="1079.075195" style="stroke: green; stroke-width: 0.200000"/>
   <line x1="855.114075" y1="1061.612793" x2="855.114075" y2="1079.075195" style="stroke: green; stroke-width: 0.200000"/>
   <line x1="856.114014" y1="1062.973022" x2="856.114014" y2="1079.075195" style="stroke: green; stroke-width: 0.200000"/>
   <line x1="857.114136" y1="1064.332886" x2="857.114136" y2="1079.075195" style="stroke: green; stroke-width: 0.200000"/>
   <line x1="858.114075" y1="1065.692871" x2="858.114075" y2="1079.075195" style="stroke: green; stroke-width: 0.200000"/>
   <line x1="859.114075" y1="1067.038696" x2="859.114075" y2="1079.075195" style="stroke: green; stroke-width: 0.200000"/>
   <line x1="860.114075" y1="1068.069580" x2="860.114075" y2="1079.075195" style="stroke: green; stroke-width: 0.200000"/>
   <line x1="861.114014" y1="1069.100464" x2="861.114014" y2="1079.075195" style="stroke: green; stroke-width: 0.200000"/>
   <line x1="862.114136" y1="1070.158936" x2="862.114136" y2="1079.075195" style="stroke: green; stroke-width: 0.200000"/>
   <line x1="863.114075" y1="1071.281250" x2="863.114075" y2="1079.075195" style="stroke: green; stroke-width: 0.200000"/>
   <line x1="864.114075" y1="1072.403320" x2="864.114075" y2="1079.075195" style="stroke: green; stroke-width: 0.200000"/>
   <line x1="865.114075" y1="1073.525513" x2="865.114075" y2="1079.075195" style="stroke: green; stroke-width: 0.200000"/>
   <line x1="866.114014" y1="1074.647705" x2="866.114014" y2="1079.075195" style="stroke: green; stroke-width: 0.200000"/>
   <line x1="867.114136" y1="1075.918945" x2="867.114136" y2="1079.075195" style="stroke: green; stroke-width: 0.200000"/>
   <line x1="868.114075" y1="1077.234741" x2="868.114075" y2="1079.075195" style="stroke: green; stroke-width: 0.200000"/>
   <line x1="869.114075" y1="1078.550537" x2="869.114075" y2="1079.075195" style="stroke: green; stroke-width: 0.200000"/>
   <line x1="756.114014" y1="1085.814331" x2="756.114014" y2="1129.175293" style="stroke: green; stroke-width: 0.200000"/>
   <line x1="757.114136" y1="1080.786865" x2="757.114136" y2="1129.175293" style="stroke: green; stroke-width: 0.200000"/>
   <line x1="758.114075" y1="1079.175293" x2="758.114075" y2="1129.175293" style="stroke: green; stroke-width: 0.200000"/>
   <line x1="759.114075" y1="1079.175293" x2="759.114075" y2="1129.175293" style="stroke: green; stroke-width: 0.200000"/>
   <line x1="760.114075" y1="1079.175293" x2="760.114075" y2="1129.175293" style="stroke: green; stroke-width: 0.200000"/>
   <line x1="761.114014" y1="1079.175293" x2="761.114014" y2="1129.175293" style="stroke: green; stroke-width: 0.200000"/>
   <line x1="762.114136" y1="1079.175293" x2="762.114136" y2="1129.175293" style="stroke: green; stroke-width: 0.200000"/>
   <line x1="763.114075" y1="1079.175293" x2="763.114075" y2="1129.175293" style="stroke: green; stroke-width: 0.200000"/>
   <line x1="764.114075" y1="1079.175293" x2="764.114075" y2="1129.175293" style="stroke: green; stroke-width: 0.200000"/>
   <line x1="765.114075" y1="1079.175293" x2="765.114075" y2="1129.175293" style="stroke: green; stroke-width: 0.200000"/>
   <line x1="766.114014" y1="1079.175293" x2="766.114014" y2="1129.175293" style="stroke: green; stroke-width: 0.200000"/>
   <line x1="767.114136" y1="1079.175293" x2="767.114136" y2="1129.175293" style="stroke: green; stroke-width: 0.200000"/>
   <line x1="768.114075" y1="1079.175293" x2="768.114075" y2="1129.175293" style="stroke: green; stroke-width: 0.200000"/>
   <line x1="769.114075" y1="1079.175293" x2="769.114075" y2="1129.175293" style="stroke: green; stroke-width: 0.200000"/>
   <line x1="770.114075" y1="1079.175293" x2="770.114075" y2="1129.175293" style="stroke: green; stroke-width: 0.200000"/>
   <line x1="771.114014" y1="1079.175293" x2="771.114014" y2="1129.175293" style="stroke: green; stroke-width: 0.200000"/>
   <line x1="772.114136" y1="1079.175293" x2="772.114136" y2="1129.175293" style="stroke: green; stroke-width: 0.200000"/>
   <line x1="773.114075" y1="1079.175293" x2="773.114075" y2="1129.175293" style="stroke: green; stroke-width: 0.200000"/>
   <line x1="774.114075" y1="1079.175293" x2="774.114075" y2="1129.175293" style="stroke: green; stroke-width: 0.200000"/>
   <line x1="775.114075" y1="1079.175293" x2="775.114075" y2="1129.175293" style="stroke: green; stroke-width: 0.200000"/>
   <line x1="776.114014" y1="1079.175293" x2="776.114014" y2="1129.175293" style="stroke: green; stroke-width: 0.200000"/>
   <line x1="777.114136" y1="1079.175293" x2="777.114136" y2="1129.175293" style="stroke: green; stroke-width: 0.200000"/>
   <line x1="778.114075" y1="1079.175293" x2="778.114075" y2="1129.175293" style="stroke: green; stroke-width: 0.200000"/>
   <line x1="779.114075" y1="1079.175293" x2="779.114075" y2="1129.175293" style="stroke: green; stroke-width: 0.200000"/>
   <line x1="780.114075" y1="1079.175293" x2="780.114075" y2="1129.175293" style="stroke: green; stroke-width: 0.200000"/>
   <line x1="781.114014" y1="1079.175293" x2="781.114014" y2="1129.175293" style="stroke: green; stroke-width: 0.200000"/>
   <line x1="782.114136" y1="1079.175293" x2="782.114136" y2="1129.175293" style="stroke: green; stroke-width: 0.200000"/>
   <line x1="783.114075" y1="1079.175293" x2="783.114075" y2="1129.175293" style="stroke: green; stroke-width: 0.200000"/>
   <line x1="784.114075" y1="1079.175293" x2="784.114075" y2="1129.175293" style="stroke: green; stroke-width: 0.200000"/>
   <line x1="785.114075" y1="1079.175293" x2="785.114075" y2="1129.175293" style="stroke: green; stroke-width: 0.200000"/>
   <line x1="786.114014" y1="1079.175293" x2="786.114014" y2="1129.175293" style="stroke: green; stroke-width: 0.200000"/>
   <line x1="787.114136" y1="1079.175293" x2="787.114136" y2="1129.175293" style="stroke: green; stroke-width: 0.200000"/>
   <line x1="788.114075" y1="1079.175293" x2="788.114075" y2="1129.175293" style="stroke: green; stroke-width: 0.200000"/>
   <line x1="789.114075" y1="1079.175293" x2="789.114075" y2="1129.175293" style="stroke: green; stroke-width: 0.200000"/>
   <line x1="790.114075" y1="1079.175293" x2="790.114075" y2="1129.175293" style="stroke: green; stroke-width: 0.200000"/>
   <line x1="791.114014" y1="1079.175293" x2="791.114014" y2="1129.175293" style="stroke: green; stroke-width: 0.200000"/>
   <line x1="792.114136" y1="1079.175293" x2="792.114136" y2="1129.175293" style="stroke: green; stroke-width: 0.200000"/>
   <line x1="793.114075" y1="1079.175293" x2="793.114075" y2="1129.175293" style="stroke: green; stroke-width: 0.200000"/>
   <line x1="794.114075" y1="1079.175293" x2="794.114075" y2="1129.175293" style="stroke: green; stroke-width: 0.200000"/>
   <line x1="795.114075" y1="1079.175293" x2="795.114075" y2="1129.175293" style="stroke: green; stroke-width: 0.200000"/>
   <line x1="796.114014" y1="1079.175293" x2="796.114014" y2="1129.175293" style="stroke: green; stroke-width: 0.200000"/>
   <line x1="797.114136" y1="1079.175293" x2="797.114136" y2="1129.175293" style="stroke: green; stroke-width: 0.200000"/>
   <line x1="798.114075" y1="1079.175293" x2="798.114075" y2="1129.175293" style="stroke: green; stroke-width: 0.200000"/>
   <line x1="799.114075" y1="1079.175293" x2="799.114075" y2="1129.175293" style="stroke: green; stroke-width: 0.200000"/>
   <line x1="800.114075" y1="1079.175293" x2="800.114075" y2="1129.175293" style="stroke: green; stroke-width: 0.200000"/>
   <line x1="801.114014" y1="1079.175293" x2="801.114014" y2="1129.175293" style="stroke: green; stroke-width: 0.200000"/>
   <line x1="755.114075" y1="1089.188477" x2="755.114075" y2="1128.905518" style="stroke: green; stroke-width: 0.200000"/>
   <line x1="754.114075" y1="1093.660767" x2="754.114075" y2="1126.566895" style="stroke: green; stroke-width: 0.200000"/>
   <line x1="753.114075" y1="1100.815552" x2="753.114075" y2="1124.227783" style="stroke: green; stroke-width: 0.200000"/>
   <line x1="752.114136" y1="1107.324585" x2="752.114136" y2="1121.889160" style="stroke: green; stroke-width: 0.200000"/>
   <line x1="802.114136" y1="1079.175293" x2="802.114136" y2="1129.175293" style="stroke: green; stroke-width: 0.200000"/>
   <line x1="803.114075" y1="1079.175293" x2="803.114075" y2="1129.175293" style="stroke: green; stroke-width: 0.200000"/>
   <line x1="804.114075" y1="1079.175293" x2="804.114075" y2="1129.175293" style="stroke: green; stroke-width: 0.200000"/>
   <line x1="805.114075" y1="1079.175293" x2="805.114075" y2="1129.175293" style="stroke: green; stroke-width: 0.200000"/>
   <line x1="806.114014" y1="1079.175293" x2="806.114014" y2="1129.175293" style="stroke: green; stroke-width: 0.200000"/>
   <line x1="807.114136" y1="1079.175293" x2="807.114136" y2="1129.175293" style="stroke: green; stroke-width: 0.200000"/>
   <line x1="808.114075" y1="1079.175293" x2="808.114075" y2="1129.175293" style="stroke: green; stroke-width: 0.200000"/>
   <line x1="809.114075" y1="1079.175293" x2="809.114075" y2="1129.175293" style="stroke: green; stroke-width: 0.200000"/>
   <line x1="810.114075" y1="1079.175293" x2="810.114075" y2="1129.175293" style="stroke: green; stroke-width: 0.200000"/>
   <line x1="811.114014" y1="1079.175293" x2="811.114014" y2="1129.175293" style="stroke: green; stroke-width: 0.200000"/>
   <line x1="812.114136" y1="1079.175293" x2="812.114136" y2="1129.175293" style="stroke: green; stroke-width: 0.200000"/>
   <line x1="813.114075" y1="1079.175293" x2="813.114075" y2="1129.175293" style="stroke: green; stroke-width: 0.200000"/>
   <line x1="814.114075" y1="1079.175293" x2="814.114075" y2="1129.175293" style="stroke: green; stroke-width: 0.200000"/>
   <line x1="815.114075" y1="1079.175293" x2="815.114075" y2="1129.175293" style="stroke: green; stroke-width: 0.200000"/>
   <line x1="816.114014" y1="1079.175293" x2="816.114014" y2="1129.175293" style="stroke: green; stroke-width: 0.200000"/>
   <line x1="817.114136" y1="1079.175293" x2="817.114136" y2="1129.175293" style="stroke: green; stroke-width: 0.200000"/>
   <line x1="818.114075" y1="1079.175293" x2="818.114075" y2="1129.175293" style="stroke: green; stroke-width: 0.200000"/>
   <line x1="819.114075" y1="1079.175293" x2="819.114075" y2="1129.175293" style="stroke: green; stroke-width: 0.200000"/>
   <line x1="820.114075" y1="1079.175293" x2="820.114075" y2="1129.175293" style="stroke: green; stroke-width: 0.200000"/>
   <line x1="821.114014" y1="1079.175293" x2="821.114014" y2="1129.175293" style="stroke: green; stroke-width: 0.200000"/>
   <line x1="822.114136" y1="1079.175293" x2="822.114136" y2="1129.175293" style="stroke: green; stroke-width: 0.200000"/>
   <line x1="823.114075" y1="1079.175293" x2="823.114075" y2="1129.175293" style="stroke: green; stroke-width: 0.200000"/>
   <line x1="824.114075" y1="1079.175293" x2="824.114075" y2="1129.175293" style="stroke: green; stroke-width: 0.200000"/>
   <line x1="825.114075" y1="1079.175293" x2="825.114075" y2="1129.175293" style="stroke: green; stroke-width: 0.200000"/>
   <line x1="826.114014" y1="1079.175293" x2="826.114014" y2="1129.175293" style="stroke: green; stroke-width: 0.200000"/>
   <line x1="827.114136" y1="1079.175293" x2="827.114136" y2="1129.175293" style="stroke: green; stroke-width: 0.200000"/>
   <line x1="828.114075" y1="1079.175293" x2="828.114075" y2="1129.175293" style="stroke: green; stroke-width: 0.200000"/>
   <line x1="829.114075" y1="1079.175293" x2="829.114075" y2="1129.175293" style="stroke: green; stroke-width: 0.200000"/>
   <line x1="830.114075" y1="1079.175293" x2="830.114075" y2="1129.175293" style="stroke: green; stroke-width: 0.200000"/>
   <line x1="831.114014" y1="1079.175293" x2="831.114014" y2="1129.175293" style="stroke: green; stroke-width: 0.200000"/>
   <line x1="832.114136" y1="1079.175293" x2="832.114136" y2="1129.175293" style="stroke: green; stroke-width: 0.200000"/>
   <line x1="833.114075" y1="1079.175293" x2="833.114075" y2="1129.175293" style="stroke: green; stroke-width: 0.200000"/>
   <line x1="834.114075" y1="1079.175293" x2="834.114075" y2="1129.175293" style="stroke: green; stroke-width: 0.200000"/>
   <line x1="835.114075" y1="1079.175293" x2="835.114075" y2="1129.175293" style="stroke: green; stroke-width: 0.200000"/>
   <line x1="836.114014" y1="1079.175293" x2="836.114014" y2="1129.175293" style="stroke: green; stroke-width: 0.200000"/>
   <line x1="837.114136" y1="1079.175293" x2="837.114136" y2="1129.175293" style="stroke: green; stroke-width: 0.200000"/>
   <line x1="838.114075" y1="1079.175293" x2="838.114075" y2="1129.175293" style="stroke: green; stroke-width: 0.200000"/>
   <line x1="839.114075" y1="1079.175293" x2="839.114075" y2="1129.175293" style="stroke: green; stroke-width: 0.200000"/>
   <line x1="840.114075" y1="1079.175293" x2="840.114075" y2="1129.175293" style="stroke: green; stroke-width: 0.200000"/>
   <line x1="841.114014" y1="1079.175293" x2="841.114014" y2="1129.175293" style="stroke: green; stroke-width: 0.200000"/>
   <line x1="842.114136" y1="1079.175293" x2="842.114136" y2="1129.175293" style="stroke: green; stroke-width: 0.200000"/>
   <line x1="843.114075" y1="1079.175293" x2="843.114075" y2="1129.175293" style="stroke: green; stroke-width: 0.200000"/>
   <line x1="844.114075" y1="1079.175293" x2="844.114075" y2="1129.175293" style="stroke: green; stroke-width: 0.200000"/>
   <line x1="845.114075" y1="1079.175293" x2="845.114075" y2="1129.175293" style="stroke: green; stroke-width: 0.200000"/>
   <line x1="846.114014" y1="1079.175293" x2="846.114014" y2="1129.175293" style="stroke: green; stroke-width: 0.200000"/>
   <line x1="847.114136" y1="1079.175293" x2="847.114136" y2="1129.175293" style="stroke: green; stroke-width: 0.200000"/>
   <line x1="848.114075" y1="1079.175293" x2="848.114075" y2="1129.175293" style="stroke: green; stroke-width: 0.200000"/>
   <line x1="849.114075" y1="1079.175293" x2="849.114075" y2="1129.175293" style="stroke: green; stroke-width: 0.200000"/>
   <line x1="850.114075" y1="1079.175293" x2="850.114075" y2="1129.175293" style="stroke: green; stroke-width: 0.200000"/>
   <line x1="851.114014" y1="1079.175293" x2="851.114014" y2="1129.175293" style="stroke: green; stroke-width: 0.200000"/>
   <line x1="852.114136" y1="1079.175293" x2="852.114136" y2="1129.175293" style="stroke: green; stroke-width: 0.200000"/>
   <line x1="853.114075" y1="1079.175293" x2="853.114075" y2="1129.175293" style="stroke: green; stroke-width: 0.200000"/>
   <line x1="854.114075" y1="1079.175293" x2="854.114075" y2="1129.175293" style="stroke: green; stroke-width: 0.200000"/>
   <line x1="855.114075" y1="1079.175293" x2="855.114075" y2="1129.175293" style="stroke: green; stroke-width: 0.200000"/>
   <line x1="856.114014" y1="1079.175293" x2="856.114014" y2="1129.175293" style="stroke: green; stroke-width: 0.200000"/>
   <line x1="857.114136" y1="1079.175293" x2="857.114136" y2="1129.175293" style="stroke: green; stroke-width: 0.200000"/>
   <line x1="858.114075" y1="1079.175293" x2="858.114075" y2="1129.175293" style="stroke: green; stroke-width: 0.200000"/>
   <line x1="859.114075" y1="1079.175293" x2="859.114075" y2="1129.175293" style="stroke: green; stroke-width: 0.200000"/>
   <line x1="860.114075" y1="1079.175293" x2="860.114075" y2="1129.175293" style="stroke: green; stroke-width: 0.200000"/>
   <line x1="861.114014" y1="1079.175293" x2="861.114014" y2="1129.175293" style="stroke: green; stroke-width: 0.200000"/>
   <line x1="862.114136" y1="1079.175293" x2="862.114136" y2="1129.175293" style="stroke: green; stroke-width: 0.200000"/>
   <line x1="863.114075" y1="1079.175293" x2="863.114075" y2="1129.175293" style="stroke: green; stroke-width: 0.200000"/>
   <line x1="864.114075" y1="1079.175293" x2="864.114075" y2="1129.175293" style="stroke: green; stroke-width: 0.200000"/>
   <line x1="865.114075" y1="1079.175293" x2="865.114075" y2="1129.175293" style="stroke: green; stroke-width: 0.200000"/>
   <line x1="866.114014" y1="1079.175293" x2="866.114014" y2="1129.175293" style="stroke: green; stroke-width: 0.200000"/>
   <line x1="867.114136" y1="1079.175293" x2="867.114136" y2="1129.175293" style="stroke: green; stroke-width: 0.200000"/>
   <line x1="868.114075" y1="1079.175293" x2="868.114075" y2="1129.175293" style="stroke: green; stroke-width: 0.200000"/>
   <line x1="869.114075" y1="1079.175293" x2="869.114075" y2="1129.175293" style="stroke: green; stroke-width: 0.200000"/>
   <line x1="870.114075" y1="1080.129883" x2="870.114075" y2="1129.175293" style="stroke: green; stroke-width: 0.200000"/>
   <line x1="871.114014" y1="1081.828857" x2="871.114014" y2="1129.175293" style="stroke: green; stroke-width: 0.200000"/>
   <line x1="872.114136" y1="1083.527832" x2="872.114136" y2="1129.175293" style="stroke: green; stroke-width: 0.200000"/>
   <line x1="873.114075" y1="1086.696167" x2="873.114075" y2="1129.175293" style="stroke: green; stroke-width: 0.200000"/>
   <line x1="874.114075" y1="1089.977905" x2="874.114075" y2="1129.175293" style="stroke: green; stroke-width: 0.200000"/>
   <line x1="875.114075" y1="1092.704468" x2="875.114075" y2="1129.175293" style="stroke: green; stroke-width: 0.200000"/>
   <line x1="876.114014" y1="1096.193359" x2="876.114014" y2="1129.175293" style="stroke: green; stroke-width: 0.200000"/>
   <line x1="877.114136" y1="1099.536865" x2="877.114136" y2="1129.175293" style="stroke: green; stroke-width: 0.200000"/>
   <line x1="878.114075" y1="1103.461426" x2="878.114075" y2="1129.175293" style="stroke: green; stroke-width: 0.200000"/>
   <line x1="879.114075" y1="1107.289795" x2="879.114075" y2="1129.175293" style="stroke: green; stroke-width: 0.200000"/>
   <line x1="880.114075" y1="1110.892456" x2="880.114075" y2="1129.175293" style="stroke: green; stroke-width: 0.200000"/>
   <line x1="881.114014" y1="1114.937500" x2="881.114014" y2="1129.175293" style="stroke: green; stroke-width: 0.200000"/>
   <line x1="882.114136" y1="1118.869873" x2="882.114136" y2="1129.175293" style="stroke: green; stroke-width: 0.200000"/>
   <line x1="883.114075" y1="1122.859863" x2="883.114075" y2="1129.175293" style="stroke: green; stroke-width: 0.200000"/>
   <line x1="884.114075" y1="1126.849731" x2="884.114075" y2="1129.175293" style="stroke: green; stroke-width: 0.200000"/>
   <line x1="786.114014" y1="1129.275146" x2="786.114014" y2="1179.275146" style="stroke: green; stroke-width: 0.200000"/>
   <line x1="787.114136" y1="1129.275146" x2="787.114136" y2="1179.275146" style="stroke: green; stroke-width: 0.200000"/>
   <line x1="788.114075" y1="1129.275146" x2="788.114075" y2="1179.275146" style="stroke: green; stroke-width: 0.200000"/>
   <line x1="789.114075" y1="1129.275146" x2="789.114075" y2="1179.275146" style="stroke: green; stroke-width: 0.200000"/>
   <line x1="790.114075" y1="1129.275146" x2="790.114075" y2="1179.275146" style="stroke: green; stroke-width: 0.200000"/>
   <line x1="791.114014" y1="1129.275146" x2="791.114014" y2="1179.275146" style="stroke: green; stroke-width: 0.200000"/>
   <line x1="792.114136" y1="1129.275146" x2="792.114136" y2="1179.275146" style="stroke: green; stroke-width: 0.200000"/>
   <line x1="793.114075" y1="1129.275146" x2="793.114075" y2="1179.275146" style="stroke: green; stroke-width: 0.200000"/>
   <line x1="794.114075" y1="1129.275146" x2="794.114075" y2="1179.275146" style="stroke: green; stroke-width: 0.200000"/>
   <line x1="795.114075" y1="1129.275146" x2="795.114075" y2="1179.275146" style="stroke: green; stroke-width: 0.200000"/>
   <line x1="796.114014" y1="1129.275146" x2="796.114014" y2="1179.275146" style="stroke: green; stroke-width: 0.200000"/>
   <line x1="797.114136" y1="1129.275146" x2="797.114136" y2="1179.275146" style="stroke: green; stroke-width: 0.200000"/>
   <line x1="798.114075" y1="1129.275146" x2="798.114075" y2="1179.275146" style="stroke: green; stroke-width: 0.200000"/>
   <line x1="799.114075" y1="1129.275146" x2="799.114075" y2="1179.275146" style="stroke: green; stroke-width: 0.200000"/>
   <line x1="800.114075" y1="1129.275146" x2="800.114075" y2="1179.275146" style="stroke: green; stroke-width: 0.200000"/>
   <line x1="801.114014" y1="1129.275146" x2="801.114014" y2="1179.275146" style="stroke: green; stroke-width: 0.200000"/>
   <line x1="785.114075" y1="1129.275146" x2="785.114075" y2="1179.074829" style="stroke: green; stroke-width: 0.200000"/>
   <line x1="784.114075" y1="1129.275146" x2="784.114075" y2="1177.626587" style="stroke: green; stroke-width: 0.200000"/>
   <line x1="783.114075" y1="1129.275146" x2="783.114075" y2="1176.178345" style="stroke: green; stroke-width: 0.200000"/>
   <line x1="782.114136" y1="1129.275146" x2="782.114136" y2="1174.640625" style="stroke: green; stroke-width: 0.200000"/>
   <line x1="781.114014" y1="1129.275146" x2="781.114014" y2="1173.095703" style="stroke: green; stroke-width: 0.200000"/>
   <line x1="780.114075" y1="1129.275146" x2="780.114075" y2="1171.485840" style="stroke: green; stroke-width: 0.200000"/>
   <line x1="779.114075" y1="1129.275146" x2="779.114075" y2="1169.829834" style="stroke: green; stroke-width: 0.200000"/>
   <line x1="778.114075" y1="1129.275146" x2="778.114075" y2="1168.173828" style="stroke: green; stroke-width: 0.200000"/>
   <line x1="777.114136" y1="1129.275146" x2="777.114136" y2="1166.517822" style="stroke: green; stroke-width: 0.200000"/>
   <line x1="776.114014" y1="1129.275146" x2="776.114014" y2="1164.861816" style="stroke: green; stroke-width: 0.200000"/>
   <line x1="775.114075" y1="1129.275146" x2="775.114075" y2="1163.453613" style="stroke: green; stroke-width: 0.200000"/>
   <line x1="774.114075" y1="1129.275146" x2="774.114075" y2="1161.459839" style="stroke: green; stroke-width: 0.200000"/>
   <line x1="773.114075" y1="1129.275146" x2="773.114075" y2="1159.890869" style="stroke: green; stroke-width: 0.200000"/>
   <line x1="772.114136" y1="1129.275146" x2="772.114136" y2="1158.321899" style="stroke: green; stroke-width: 0.200000"/>
   <line x1="771.114014" y1="1129.275146" x2="771.114014" y2="1156.752930" style="stroke: green; stroke-width: 0.200000"/>
   <line x1="770.114075" y1="1129.275146" x2="770.114075" y2="1155.183960" style="stroke: green; stroke-width: 0.200000"/>
   <line x1="769.114075" y1="1129.275146" x2="769.114075" y2="1153.459961" style="stroke: green; stroke-width: 0.200000"/>
   <line x1="768.114075" y1="1129.275146" x2="768.114075" y2="1151.573364" style="stroke: green; stroke-width: 0.200000"/>
   <line x1="767.114136" y1="1129.275146" x2="767.114136" y2="1149.686646" style="stroke: green; stroke-width: 0.200000"/>
   <line x1="766.114014" y1="1129.275146" x2="766.114014" y2="1147.800171" style="stroke: green; stroke-width: 0.200000"/>
   <line x1="765.114075" y1="1129.275146" x2="765.114075" y2="1145.986328" style="stroke: green; stroke-width: 0.200000"/>
   <line x1="764.114075" y1="1129.275146" x2="764.114075" y2="1144.437500" style="stroke: green; stroke-width: 0.200000"/>
   <line x1="763.114075" y1="1129.275146" x2="763.114075" y2="1142.888672" style="stroke: green; stroke-width: 0.200000"/>
   <line x1="762.114136" y1="1129.275146" x2="762.114136" y2="1141.339844" style="stroke: green; stroke-width: 0.200000"/>
   <line x1="761.114014" y1="1129.275146" x2="761.114014" y2="1139.791016" style="stroke: green; stroke-width: 0.200000"/>
   <line x1="760.114075" y1="1129.275146" x2="760.114075" y2="1138.242065" style="stroke: green; stroke-width: 0.200000"/>
   <line x1="759.114075" y1="1129.275146" x2="759.114075" y2="1136.402466" style="stroke: green; stroke-width: 0.200000"/>
   <line x1="758.114075" y1="1129.275146" x2="758.114075" y2="1134.558228" style="stroke: green; stroke-width: 0.200000"/>
   <line x1="757.114136" y1="1129.275146" x2="757.114136" y2="1132.714111" style="stroke: green; stroke-width: 0.200000"/>
   <line x1="756.114014" y1="1129.275146" x2="756.114014" y2="1130.869873" style="stroke: green; stroke-width: 0.200000"/>
   <line x1="802.114136" y1="1129.275146" x2="802.114136" y2="1179.275146" style="stroke: green; stroke-width: 0.200000"/>
   <line x1="803.114075" y1="1129.275146" x2="803.114075" y2="1179.275146" style="stroke: green; stroke-width: 0.200000"/>
   <line x1="804.114075" y1="1129.275146" x2="804.114075" y2="1179.275146" style="stroke: green; stroke-width: 0.200000"/>
   <line x1="805.114075" y1="1129.275146" x2="805.114075" y2="1179.275146" style="stroke: green; stroke-width: 0.200000"/>
   <line x1="806.114014" y1="1129.275146" x2="806.114014" y2="1179.275146" style="stroke: green; stroke-width: 0.200000"/>
   <line x1="807.114136" y1="1129.275146" x2="807.114136" y2="1179.275146" style="stroke: green; stroke-width: 0.200000"/>
   <line x1="808.114075" y1="1129.275146" x2="808.114075" y2="1179.275146" style="stroke: green; stroke-width: 0.200000"/>
   <line x1="809.114075" y1="1129.275146" x2="809.114075" y2="1179.275146" style="stroke: green; stroke-width: 0.200000"/>
   <line x1="810.114075" y1="1129.275146" x2="810.114075" y2="1179.275146" style="stroke: green; stroke-width: 0.200000"/>
   <line x1="811.114014" y1="1129.275146" x2="811.114014" y2="1179.275146" style="stroke: green; stroke-width: 0.200000"/>
   <line x1="812.114136" y1="1129.275146" x2="812.114136" y2="1179.275146" style="stroke: green; stroke-width: 0.200000"/>
   <line x1="813.114075" y1="1129.275146" x2="813.114075" y2="1179.275146" style="stroke: green; stroke-width: 0.200000"/>
   <line x1="814.114075" y1="1129.275146" x2="814.114075" y2="1179.275146" style="stroke: green; stroke-width: 0.200000"/>
   <line x1="815.114075" y1="1129.275146" x2="815.114075" y2="1179.275146" style="stroke: green; stroke-width: 0.200000"/>
   <line x1="816.114014" y1="1129.275146" x2="816.114014" y2="1179.275146" style="stroke: green; stroke-width: 0.200000"/>
   <line x1="817.114136" y1="1129.275146" x2="817.114136" y2="1179.275146" style="stroke: green; stroke-width: 0.200000"/>
   <line x1="818.114075" y1="1129.275146" x2="818.114075" y2="1179.275146" style="stroke: green; stroke-width: 0.200000"/>
   <line x1="819.114075" y1="1129.275146" x2="819.114075" y2="1179.275146" style="stroke: green; stroke-width: 0.200000"/>
   <line x1="820.114075" y1="1129.275146" x2="820.114075" y2="1179.275146" style="stroke: green; stroke-width: 0.200000"/>
   <line x1="821.114014" y1="1129.275146" x2="821.114014" y2="1179.275146" style="stroke: green; stroke-width: 0.200000"/>
   <line x1="822.114136" y1="1129.275146" x2="822.114136" y2="1179.275146" style="stroke: green; stroke-width: 0.200000"/>
   <line x1="823.114075" y1="1129.275146" x2="823.114075" y2="1179.275146" style="stroke: green; stroke-width: 0.200000"/>
   <line x1="824.114075" y1="1129.275146" x2="824.114075" y2="1179.275146" style="stroke: green; stroke-width: 0.200000"/>
   <line x1="825.114075" y1="1129.275146" x2="825.114075" y2="1179.275146" style="stroke: green; stroke-width: 0.200000"/>
   <line x1="826.114014" y1="1129.275146" x2="826.114014" y2="1179.275146" style="stroke: green; stroke-width: 0.200000"/>
   <line x1="827.114136" y1="1129.275146" x2="827.114136" y2="1179.275146" style="stroke: green; stroke-width: 0.200000"/>
   <line x1="828.114075" y1="1129.275146" x2="828.114075" y2="1179.275146" style="stroke: green; stroke-width: 0.200000"/>
   <line x1="829.114075" y1="1129.275146" x2="829.114075" y2="1179.275146" style="stroke: green; stroke-width: 0.200000"/>
   <line x1="830.114075" y1="1129.275146" x2="830.114075" y2="1179.275146" style="stroke: green; stroke-width: 0.200000"/>
   <line x1="831.114014" y1="1129.275146" x2="831.114014" y2="1179.275146" style="stroke: green; stroke-width: 0.200000"/>
   <line x1="832.114136" y1="1129.275146" x2="832.114136" y2="1179.275146" style="stroke: green; stroke-width: 0.200000"/>
   <line x1="833.114075" y1="1129.275146" x2="833.114075" y2="1179.275146" style="stroke: green; stroke-width: 0.200000"/>
   <line x1="834.114075" y1="1129.275146" x2="834.114075" y2="1179.275146" style="stroke: green; stroke-width: 0.200000"/>
   <line x1="835.114075" y1="1129.275146" x2="835.114075" y2="1179.275146" style="stroke: green; stroke-width: 0.200000"/>
   <line x1="836.114014" y1="1129.275146" x2="836.114014" y2="1179.275146" style="stroke: green; stroke-width: 0.200000"/>
   <line x1="837.114136" y1="1129.275146" x2="837.114136" y2="1179.275146" style="stroke: green; stroke-width: 0.200000"/>
   <line x1="838.114075" y1="1129.275146" x2="838.114075" y2="1179.275146" style="stroke: green; stroke-width: 0.200000"/>
   <line x1="839.114075" y1="1129.275146" x2="839.114075" y2="1179.275146" style="stroke: green; stroke-width: 0.200000"/>
   <line x1="840.114075" y1="1129.275146" x2="840.114075" y2="1179.275146" style="stroke: green; stroke-width: 0.200000"/>
   <line x1="841.114014" y1="1129.275146" x2="841.114014" y2="1179.275146" style="stroke: green; stroke-width: 0.200000"/>
   <line x1="842.114136" y1="1129.275146" x2="842.114136" y2="1179.275146" style="stroke: green; stroke-width: 0.200000"/>
   <line x1="843.114075" y1="1129.275146" x2="843.114075" y2="1179.275146" style="stroke: green; stroke-width: 0.200000"/>
   <line x1="844.114075" y1="1129.275146" x2="844.114075" y2="1179.275146" style="stroke: green; stroke-width: 0.200000"/>
   <line x1="845.114075" y1="1129.275146" x2="845.114075" y2="1179.275146" style="stroke: green; stroke-width: 0.200000"/>
   <line x1="846.114014" y1="1129.275146" x2="846.114014" y2="1179.275146" style="stroke: green; stroke-width: 0.200000"/>
   <line x1="847.114136" y1="1129.275146" x2="847.114136" y2="1179.275146" style="stroke: green; stroke-width: 0.200000"/>
   <line x1="848.114075" y1="1129.275146" x2="848.114075" y2="1179.275146" style="stroke: green; stroke-width: 0.200000"/>
   <line x1="849.114075" y1="1129.275146" x2="849.114075" y2="1179.275146" style="stroke: green; stroke-width: 0.200000"/>
   <line x1="850.114075" y1="1129.275146" x2="850.114075" y2="1179.275146" style="stroke: green; stroke-width: 0.200000"/>
   <line x1="851.114014" y1="1129.275146" x2="851.114014" y2="1179.275146" style="stroke: green; stroke-width: 0.200000"/>
   <line x1="852.114136" y1="1129.275146" x2="852.114136" y2="1179.275146" style="stroke: green; stroke-width: 0.200000"/>
   <line x1="853.114075" y1="1129.275146" x2="853.114075" y2="1179.275146" style="stroke: green; stroke-width: 0.200000"/>
   <line x1="854.114075" y1="1129.275146" x2="854.114075" y2="1179.275146" style="stroke: green; stroke-width: 0.200000"/>
   <line x1="855.114075" y1="1129.275146" x2="855.114075" y2="1179.275146" style="stroke: green; stroke-width: 0.200000"/>
   <line x1="856.114014" y1="1129.275146" x2="856.114014" y2="1179.275146" style="stroke: green; stroke-width: 0.200000"/>
   <line x1="857.114136" y1="1129.275146" x2="857.114136" y2="1179.275146" style="stroke: green; stroke-width: 0.200000"/>
   <line x1="858.114075" y1="1129.275146" x2="858.114075" y2="1179.275146" style="stroke: green; stroke-width: 0.200000"/>
   <line x1="859.114075" y1="1129.275146" x2="859.114075" y2="1179.275146" style="stroke: green; stroke-width: 0.200000"/>
   <line x1="860.114075" y1="1129.275146" x2="860.114075" y2="1179.275146" style="stroke: green; stroke-width: 0.200000"/>
   <line x1="861.114014" y1="1129.275146" x2="861.114014" y2="1179.275146" style="stroke: green; stroke-width: 0.200000"/>
   <line x1="862.114136" y1="1129.275146" x2="862.114136" y2="1179.275146" style="stroke: green; stroke-width: 0.200000"/>
   <line x1="863.114075" y1="1129.275146" x2="863.114075" y2="1179.275146" style="stroke: green; stroke-width: 0.200000"/>
   <line x1="864.114075" y1="1129.275146" x2="864.114075" y2="1179.275146" style="stroke: green; stroke-width: 0.200000"/>
   <line x1="865.114075" y1="1129.275146" x2="865.114075" y2="1179.275146" style="stroke: green; stroke-width: 0.200000"/>
   <line x1="866.114014" y1="1129.275146" x2="866.114014" y2="1179.275146" style="stroke: green; stroke-width: 0.200000"/>
   <line x1="867.114136" y1="1129.275146" x2="867.114136" y2="1179.275146" style="stroke: green; stroke-width: 0.200000"/>
   <line x1="868.114075" y1="1129.275146" x2="868.114075" y2="1179.275146" style="stroke: green; stroke-width: 0.200000"/>
   <line x1="869.114075" y1="1129.275146" x2="869.114075" y2="1179.275146" style="stroke: green; stroke-width: 0.200000"/>
   <line x1="870.114075" y1="1129.275146" x2="870.114075" y2="1179.275146" style="stroke: green; stroke-width: 0.200000"/>
   <line x1="871.114014" y1="1129.275146" x2="871.114014" y2="1179.275146" style="stroke: green; stroke-width: 0.200000"/>
   <line x1="872.114136" y1="1129.275146" x2="872.114136" y2="1179.275146" style="stroke: green; stroke-width: 0.200000"/>
   <line x1="873.114075" y1="1129.275146" x2="873.114075" y2="1179.275146" style="stroke: green; stroke-width: 0.200000"/>
   <line x1="874.114075" y1="1129.275146" x2="874.114075" y2="1179.275146" style="stroke: green; stroke-width: 0.200000"/>
   <line x1="875.114075" y1="1129.275146" x2="875.114075" y2="1179.275146" style="stroke: green; stroke-width: 0.200000"/>
   <line x1="876.114014" y1="1129.275146" x2="876.114014" y2="1179.275146" style="stroke: green; stroke-width: 0.200000"/>
   <line x1="877.114136" y1="1129.275146" x2="877.114136" y2="1179.275146" style="stroke: green; stroke-width: 0.200000"/>
   <line x1="878.114075" y1="1129.275146" x2="878.114075" y2="1179.194092" style="stroke: green; stroke-width: 0.200000"/>
   <line x1="879.114075" y1="1129.275146" x2="879.114075" y2="1178.804810" style="stroke: green; stroke-width: 0.200000"/>
   <line x1="880.114075" y1="1129.275146" x2="880.114075" y2="1178.415405" style="stroke: green; stroke-width: 0.200000"/>
   <line x1="881.114014" y1="1129.275146" x2="881.114014" y2="1178.026123" style="stroke: green; stroke-width: 0.200000"/>
   <line x1="882.114136" y1="1129.275146" x2="882.114136" y2="1177.636841" style="stroke: green; stroke-width: 0.200000"/>
   <line x1="883.114075" y1="1129.275146" x2="883.114075" y2="1177.247437" style="stroke: green; stroke-width: 0.200000"/>
   <line x1="884.114075" y1="1129.275146" x2="884.114075" y2="1176.523926" style="stroke: green; stroke-width: 0.200000"/>
   <line x1="885.114075" y1="1130.633789" x2="885.114075" y2="1175.378906" style="stroke: green; stroke-width: 0.200000"/>
   <line x1="886.114014" y1="1133.840454" x2="886.114014" y2="1173.485718" style="stroke: green; stroke-width: 0.200000"/>
   <line x1="887.114136" y1="1137.004272" x2="887.114136" y2="1171.592407" style="stroke: green; stroke-width: 0.200000"/>
   <line x1="888.114075" y1="1139.811157" x2="888.114075" y2="1169.699097" style="stroke: green; stroke-width: 0.200000"/>
   <line x1="889.114075" y1="1142.485229" x2="889.114075" y2="1168.322998" style="stroke: green; stroke-width: 0.200000"/>
   <line x1="890.114075" y1="1145.159180" x2="890.114075" y2="1165.894531" style="stroke: green; stroke-width: 0.200000"/>
   <line x1="891.114014" y1="1147.833252" x2="891.114014" y2="1163.247803" style="stroke: green; stroke-width: 0.200000"/>
   <line x1="892.114136" y1="1151.411011" x2="892.114136" y2="1160.600830" style="stroke: green; stroke-width: 0.200000"/>
   <line x1="893.114075" y1="1157.927979" x2="893.114075" y2="1157.953857" style="stroke: green; stroke-width: 0.200000"/>
   <line x1="801.114014" y1="1179.375244" x2="801.114014" y2="1194.852173" style="stroke: green; stroke-width: 0.200000"/>
   <line x1="800.114075" y1="1179.375244" x2="800.114075" y2="1194.153809" style="stroke: green; stroke-width: 0.200000"/>
   <line x1="799.114075" y1="1179.375244" x2="799.114075" y2="1193.183716" style="stroke: green; stroke-width: 0.200000"/>
   <line x1="798.114075" y1="1179.375244" x2="798.114075" y2="1192.230347" style="stroke: green; stroke-width: 0.200000"/>
   <line x1="797.114136" y1="1179.375244" x2="797.114136" y2="1191.472900" style="stroke: green; stroke-width: 0.200000"/>
   <line x1="796.114014" y1="1179.375244" x2="796.114014" y2="1190.715454" style="stroke: green; stroke-width: 0.200000"/>
   <line x1="795.114075" y1="1179.375244" x2="795.114075" y2="1189.958008" style="stroke: green; stroke-width: 0.200000"/>
   <line x1="794.114075" y1="1179.375244" x2="794.114075" y2="1189.200684" style="stroke: green; stroke-width: 0.200000"/>
   <line x1="793.114075" y1="1179.375244" x2="793.114075" y2="1188.443237" style="stroke: green; stroke-width: 0.200000"/>
   <line x1="792.114136" y1="1179.375244" x2="792.114136" y2="1187.579468" style="stroke: green; stroke-width: 0.200000"/>
   <line x1="791.114014" y1="1179.375244" x2="791.114014" y2="1186.487549" style="stroke: green; stroke-width: 0.200000"/>
   <line x1="790.114075" y1="1179.375244" x2="790.114075" y2="1185.366333" style="stroke: green; stroke-width: 0.200000"/>
   <line x1="789.114075" y1="1179.375244" x2="789.114075" y2="1184.177979" style="stroke: green; stroke-width: 0.200000"/>
   <line x1="788.114075" y1="1179.375244" x2="788.114075" y2="1182.989624" style="stroke: green; stroke-width: 0.200000"/>
   <line x1="787.114136" y1="1179.375244" x2="787.114136" y2="1181.801270" style="stroke: green; stroke-width: 0.200000"/>
   <line x1="786.114014" y1="1179.375244" x2="786.114014" y2="1180.522949" style="stroke: green; stroke-width: 0.200000"/>
   <line x1="827.114136" y1="1179.375244" x2="827.114136" y2="1213.626221" style="stroke: green; stroke-width: 0.200000"/>
   <line x1="828.114075" y1="1179.375244" x2="828.114075" y2="1213.223999" style="stroke: green; stroke-width: 0.200000"/>
   <line x1="826.114014" y1="1179.375244" x2="826.114014" y2="1212.448975" style="stroke: green; stroke-width: 0.200000"/>
   <line x1="829.114075" y1="1179.375244" x2="829.114075" y2="1211.552002" style="stroke: green; stroke-width: 0.200000"/>
   <line x1="825.114075" y1="1179.375244" x2="825.114075" y2="1211.271729" style="stroke: green; stroke-width: 0.200000"/>
   <line x1="830.114075" y1="1179.375244" x2="830.114075" y2="1209.879761" style="stroke: green; stroke-width: 0.200000"/>
   <line x1="824.114075" y1="1179.375244" x2="824.114075" y2="1208.735474" style="stroke: green; stroke-width: 0.200000"/>
   <line x1="831.114014" y1="1179.375244" x2="831.114014" y2="1208.207764" style="stroke: green; stroke-width: 0.200000"/>
   <line x1="832.114136" y1="1179.375244" x2="832.114136" y2="1206.535522" style="stroke: green; stroke-width: 0.200000"/>
   <line x1="833.114075" y1="1179.375244" x2="833.114075" y2="1205.737793" style="stroke: green; stroke-width: 0.200000"/>
   <line x1="823.114075" y1="1179.375244" x2="823.114075" y2="1205.209229" style="stroke: green; stroke-width: 0.200000"/>
   <line x1="834.114075" y1="1179.375244" x2="834.114075" y2="1204.963379" style="stroke: green; stroke-width: 0.200000"/>
   <line x1="835.114075" y1="1179.375244" x2="835.114075" y2="1204.188843" style="stroke: green; stroke-width: 0.200000"/>
   <line x1="836.114014" y1="1179.375244" x2="836.114014" y2="1203.414429" style="stroke: green; stroke-width: 0.200000"/>
   <line x1="837.114136" y1="1179.375244" x2="837.114136" y2="1202.639893" style="stroke: green; stroke-width: 0.200000"/>
   <line x1="844.114075" y1="1179.375244" x2="844.114075" y2="1202.445312" style="stroke: green; stroke-width: 0.200000"/>
   <line x1="845.114075" y1="1179.375244" x2="845.114075" y2="1202.127808" style="stroke: green; stroke-width: 0.200000"/>
   <line x1="822.114136" y1="1179.375244" x2="822.114136" y2="1201.974854" style="stroke: green; stroke-width: 0.200000"/>
   <line x1="838.114075" y1="1179.375244" x2="838.114075" y2="1201.865479" style="stroke: green; stroke-width: 0.200000"/>
   <line x1="843.114075" y1="1179.375244" x2="843.114075" y2="1201.737915" style="stroke: green; stroke-width: 0.200000"/>
   <line x1="839.114075" y1="1179.375244" x2="839.114075" y2="1201.091064" style="stroke: green; stroke-width: 0.200000"/>
   <line x1="842.114136" y1="1179.375244" x2="842.114136" y2="1201.030273" style="stroke: green; stroke-width: 0.200000"/>
   <line x1="846.114014" y1="1179.375244" x2="846.114014" y2="1200.696045" style="stroke: green; stroke-width: 0.200000"/>
   <line x1="841.114014" y1="1179.375244" x2="841.114014" y2="1200.322510" style="stroke: green; stroke-width: 0.200000"/>
   <line x1="840.114075" y1="1179.375244" x2="840.114075" y2="1200.316650" style="stroke: green; stroke-width: 0.200000"/>
   <line x1="821.114014" y1="1179.375244" x2="821.114014" y2="1199.981812" style="stroke: green; stroke-width: 0.200000"/>
   <line x1="820.114075" y1="1179.375244" x2="820.114075" y2="1199.299072" style="stroke: green; stroke-width: 0.200000"/>
   <line x1="847.114136" y1="1179.375244" x2="847.114136" y2="1199.264282" style="stroke: green; stroke-width: 0.200000"/>
   <line x1="806.114014" y1="1179.375244" x2="806.114014" y2="1199.103149" style="stroke: green; stroke-width: 0.200000"/>
   <line x1="819.114075" y1="1179.375244" x2="819.114075" y2="1198.616211" style="stroke: green; stroke-width: 0.200000"/>
   <line x1="807.114136" y1="1179.375244" x2="807.114136" y2="1198.513062" style="stroke: green; stroke-width: 0.200000"/>
   <line x1="818.114075" y1="1179.375244" x2="818.114075" y2="1197.933472" style="stroke: green; stroke-width: 0.200000"/>
   <line x1="848.114075" y1="1179.375244" x2="848.114075" y2="1197.831909" style="stroke: green; stroke-width: 0.200000"/>
   <line x1="808.114075" y1="1179.375244" x2="808.114075" y2="1197.765747" style="stroke: green; stroke-width: 0.200000"/>
   <line x1="805.114075" y1="1179.375244" x2="805.114075" y2="1197.645996" style="stroke: green; stroke-width: 0.200000"/>
   <line x1="817.114136" y1="1179.375244" x2="817.114136" y2="1197.250610" style="stroke: green; stroke-width: 0.200000"/>
   <line x1="809.114075" y1="1179.375244" x2="809.114075" y2="1197.018555" style="stroke: green; stroke-width: 0.200000"/>
   <line x1="804.114075" y1="1179.375244" x2="804.114075" y2="1196.947510" style="stroke: green; stroke-width: 0.200000"/>
   <line x1="816.114014" y1="1179.375244" x2="816.114014" y2="1196.567749" style="stroke: green; stroke-width: 0.200000"/>
   <line x1="849.114075" y1="1179.375244" x2="849.114075" y2="1196.280518" style="stroke: green; stroke-width: 0.200000"/>
   <line x1="810.114075" y1="1179.375244" x2="810.114075" y2="1196.271240" style="stroke: green; stroke-width: 0.200000"/>
   <line x1="803.114075" y1="1179.375244" x2="803.114075" y2="1196.249146" style="stroke: green; stroke-width: 0.200000"/>
   <line x1="815.114075" y1="1179.375244" x2="815.114075" y2="1195.884888" style="stroke: green; stroke-width: 0.200000"/>
   <line x1="802.114136" y1="1179.375244" x2="802.114136" y2="1195.550659" style="stroke: green; stroke-width: 0.200000"/>
   <line x1="811.114014" y1="1179.375244" x2="811.114014" y2="1195.523926" style="stroke: green; stroke-width: 0.200000"/>
   <line x1="850.114075" y1="1179.375244" x2="850.114075" y2="1195.259521" style="stroke: green; stroke-width: 0.200000"/>
   <line x1="814.114075" y1="1179.375244" x2="814.114075" y2="1195.202148" style="stroke: green; stroke-width: 0.200000"/>
   <line x1="812.114136" y1="1179.375244" x2="812.114136" y2="1194.776611" style="stroke: green; stroke-width: 0.200000"/>
   <line x1="813.114075" y1="1179.375244" x2="813.114075" y2="1194.519287" style="stroke: green; stroke-width: 0.200000"/>
   <line x1="851.114014" y1="1179.375244" x2="851.114014" y2="1194.261353" style="stroke: green; stroke-width: 0.200000"/>
   <line x1="852.114136" y1="1179.375244" x2="852.114136" y2="1193.263184" style="stroke: green; stroke-width: 0.200000"/>
   <line x1="853.114075" y1="1179.375244" x2="853.114075" y2="1192.265137" style="stroke: green; stroke-width: 0.200000"/>
   <line x1="854.114075" y1="1179.375244" x2="854.114075" y2="1191.266968" style="stroke: green; stroke-width: 0.200000"/>
   <line x1="855.114075" y1="1179.375244" x2="855.114075" y2="1190.303955" style="stroke: green; stroke-width: 0.200000"/>
   <line x1="856.114014" y1="1179.375244" x2="856.114014" y2="1189.691040" style="stroke: green; stroke-width: 0.200000"/>
   <line x1="857.114136" y1="1179.375244" x2="857.114136" y2="1189.078125" style="stroke: green; stroke-width: 0.200000"/>
   <line x1="858.114075" y1="1179.375244" x2="858.114075" y2="1188.505615" style="stroke: green; stroke-width: 0.200000"/>
   <line x1="859.114075" y1="1179.375244" x2="859.114075" y2="1187.973755" style="stroke: green; stroke-width: 0.200000"/>
   <line x1="860.114075" y1="1179.375244" x2="860.114075" y2="1187.441895" style="stroke: green; stroke-width: 0.200000"/>
   <line x1="861.114014" y1="1179.375244" x2="861.114014" y2="1186.910034" style="stroke: green; stroke-width: 0.200000"/>
   <line x1="862.114136" y1="1179.375244" x2="862.114136" y2="1186.378052" style="stroke: green; stroke-width: 0.200000"/>
   <line x1="863.114075" y1="1179.375244" x2="863.114075" y2="1185.846191" style="stroke: green; stroke-width: 0.200000"/>
   <line x1="864.114075" y1="1179.375244" x2="864.114075" y2="1185.383423" style="stroke: green; stroke-width: 0.200000"/>
   <line x1="865.114075" y1="1179.375244" x2="865.114075" y2="1184.925537" style="stroke: green; stroke-width: 0.200000"/>
   <line x1="866.114014" y1="1179.375244" x2="866.114014" y2="1184.467651" style="stroke: green; stroke-width: 0.200000"/>
   <line x1="867.114136" y1="1179.375244" x2="867.114136" y2="1184.009888" style="stroke: green; stroke-width: 0.200000"/>
   <line x1="868.114075" y1="1179.375244" x2="868.114075" y2="1183.552002" style="stroke: green; stroke-width: 0.200000"/>
   <line x1="869.114075" y1="1179.375244" x2="869.114075" y2="1183.239258" style="stroke: green; stroke-width: 0.200000"/>
   <line x1="870.114075" y1="1179.375244" x2="870.114075" y2="1183.005371" style="stroke: green; stroke-width: 0.200000"/>
   <line x1="871.114014" y1="1179.375244" x2="871.114014" y2="1182.771484" style="stroke: green; stroke-width: 0.200000"/>
   <line x1="872.114136" y1="1179.375244" x2="872.114136" y2="1182.387939" style="stroke: green; stroke-width: 0.200000"/>
   <line x1="873.114075" y1="1179.375244" x2="873.114075" y2="1181.811279" style="stroke: green; stroke-width: 0.200000"/>
   <line x1="874.114075" y1="1179.375244" x2="874.114075" y2="1181.234253" style="stroke: green; stroke-width: 0.200000"/>
   <line x1="875.114075" y1="1179.375244" x2="875.114075" y2="1180.657104" style="stroke: green; stroke-width: 0.200000"/>
   <line x1="876.114014" y1="1179.375244" x2="876.114014" y2="1180.079712" style="stroke: green; stroke-width: 0.200000"/>
   <line x1="877.114136" y1="1179.375244" x2="877.114136" y2="1179.583496" style="stroke: green; stroke-width: 0.200000"/>
   <line x1="826.969238" y1="1213.455811" x2="826.969238" y2="1230.423462" style="stroke: green; stroke-width: 0.200000"/>
   <line x1="825.969177" y1="1212.278564" x2="825.969177" y2="1229.738403" style="stroke: green; stroke-width: 0.200000"/>
   <line x1="827.969238" y1="1213.466553" x2="827.969238" y2="1229.581543" style="stroke: green; stroke-width: 0.200000"/>
   <line x1="824.969177" y1="1211.127197" x2="824.969177" y2="1229.023071" style="stroke: green; stroke-width: 0.200000"/>
   <line x1="828.969177" y1="1211.794434" x2="828.969177" y2="1228.739746" style="stroke: green; stroke-width: 0.200000"/>
   <line x1="823.969177" y1="1208.224731" x2="823.969177" y2="1228.307861" style="stroke: green; stroke-width: 0.200000"/>
   <line x1="829.969177" y1="1210.122192" x2="829.969177" y2="1227.958984" style="stroke: green; stroke-width: 0.200000"/>
   <line x1="822.969238" y1="1204.698730" x2="822.969238" y2="1227.719849" style="stroke: green; stroke-width: 0.200000"/>
   <line x1="830.969177" y1="1208.450195" x2="830.969177" y2="1227.222656" style="stroke: green; stroke-width: 0.200000"/>
   <line x1="821.969238" y1="1201.525635" x2="821.969238" y2="1227.148193" style="stroke: green; stroke-width: 0.200000"/>
   <line x1="820.969177" y1="1199.883057" x2="820.969177" y2="1226.576538" style="stroke: green; stroke-width: 0.200000"/>
   <line x1="831.969238" y1="1206.777954" x2="831.969238" y2="1226.486328" style="stroke: green; stroke-width: 0.200000"/>
   <line x1="832.969238" y1="1205.850098" x2="832.969238" y2="1225.750122" style="stroke: green; stroke-width: 0.200000"/>
   <line x1="819.969177" y1="1199.200195" x2="819.969177" y2="1225.661499" style="stroke: green; stroke-width: 0.200000"/>
   <line x1="833.969177" y1="1205.075684" x2="833.969177" y2="1225.013794" style="stroke: green; stroke-width: 0.200000"/>
   <line x1="818.969177" y1="1198.517456" x2="818.969177" y2="1224.484131" style="stroke: green; stroke-width: 0.200000"/>
   <line x1="817.969238" y1="1197.834595" x2="817.969238" y2="1222.906006" style="stroke: green; stroke-width: 0.200000"/>
   <line x1="834.969177" y1="1204.301270" x2="834.969177" y2="1222.602783" style="stroke: green; stroke-width: 0.200000"/>
   <line x1="835.969177" y1="1203.526733" x2="835.969177" y2="1220.313721" style="stroke: green; stroke-width: 0.200000"/>
   <line x1="816.969238" y1="1197.151855" x2="816.969238" y2="1220.098633" style="stroke: green; stroke-width: 0.200000"/>
   <line x1="836.969238" y1="1202.752197" x2="836.969238" y2="1218.836914" style="stroke: green; stroke-width: 0.200000"/>
   <line x1="837.969238" y1="1201.977783" x2="837.969238" y2="1217.360229" style="stroke: green; stroke-width: 0.200000"/>
   <line x1="815.969177" y1="1196.468994" x2="815.969177" y2="1216.639160" style="stroke: green; stroke-width: 0.200000"/>
   <line x1="838.969177" y1="1201.203369" x2="838.969177" y2="1215.883545" style="stroke: green; stroke-width: 0.200000"/>
   <line x1="839.969177" y1="1200.428955" x2="839.969177" y2="1214.406616" style="stroke: green; stroke-width: 0.200000"/>
   <line x1="814.969177" y1="1195.786133" x2="814.969177" y2="1213.056763" style="stroke: green; stroke-width: 0.200000"/>
   <line x1="840.969177" y1="1200.220215" x2="840.969177" y2="1212.048462" style="stroke: green; stroke-width: 0.200000"/>
   <line x1="813.969177" y1="1195.103271" x2="813.969177" y2="1209.530884" style="stroke: green; stroke-width: 0.200000"/>
   <line x1="841.969238" y1="1200.927856" x2="841.969238" y2="1209.029541" style="stroke: green; stroke-width: 0.200000"/>
   <line x1="812.969238" y1="1194.420410" x2="812.969238" y2="1206.373901" style="stroke: green; stroke-width: 0.200000"/>
   <line x1="842.969238" y1="1201.635498" x2="842.969238" y2="1206.010620" style="stroke: green; stroke-width: 0.200000"/>
   <line x1="811.969238" y1="1194.885010" x2="811.969238" y2="1204.639160" style="stroke: green; stroke-width: 0.200000"/>
   <line x1="810.969177" y1="1195.632324" x2="810.969177" y2="1203.956421" style="stroke: green; stroke-width: 0.200000"/>
   <line x1="843.969177" y1="1202.343140" x2="843.969177" y2="1203.766602" style="stroke: green; stroke-width: 0.200000"/>
   <line x1="809.969177" y1="1196.379517" x2="809.969177" y2="1203.273682" style="stroke: green; stroke-width: 0.200000"/>
   <line x1="808.969177" y1="1197.126831" x2="808.969177" y2="1202.590820" style="stroke: green; stroke-width: 0.200000"/>
   <line x1="807.969238" y1="1197.874146" x2="807.969238" y2="1201.907959" style="stroke: green; stroke-width: 0.200000"/>
   <line x1="806.969238" y1="1198.621460" x2="806.969238" y2="1200.466553" style="stroke: green; stroke-width: 0.200000"/>
   <path d="M 883.977  1178.52  877.334  1181.11  872.236  1184.05  868.954  1184.82  863.847  1187.16  858.359  1190.07  855.957  1191.55  850.484  1197.01  849.708  1197.84  849.478  1198.5  844.836  1205.14  842.7  1211.59  " style="fill: none; stroke: darkmagenta; stroke-width: 0.200000; fill-type: evenodd"  fill-opacity="1.000000" />
   <path d="M 842.7  1211.59  842.033  1213.61  841.927  1214.19  837.022  1221.43  835.322  1225.88  830.319  1229.56  827.025  1232.34  823.045  1229.49  819.563  1227.5  816.894  1224.36  815.017  1219.09  814.427  1216.64  812.405  1209.51  811.265  1205.97  806.697  1202.86  806.693  1202.85  " style="fill: none; stroke: red; stroke-width: 0.200000; fill-type: evenodd"  fill-opacity="1.000000" />
   <path d="M 806.693  1202.85  804.158  1198.81  798.937  1195.16  797.416  1193.58  791.418  1189.04  789.291  1186.72  785.266  1181.93  781.792  1176.9  779.426  1173.25  774.63  1165.31  773.763  1164.15  772.947  1162.42  768.305  1155.14  764.035  1147.08  758.808  1138.98  754.005  1130.13  750.144  1121.1  750.073  1114.8  750.3  1109.22  751.546  1101.26  752.166  1096.4  753.013  1091  754.69  1085.34  755.331  1081.43  757.96  1073.28  758.241  1072.25  758.425  1071.3  761.359  1063.85  763.373  1059.49  765.685  1055.88  768.204  1052.55  771.174  1048.52  776.12  1043.31  777.652  1041.87  779.143  1040.76  785.766  1035.57  791.34  1032.07  793.563  1030.92  799.785  1028.41  803.729  1027.57  809.643  1027.73  816.729  1029.54  819.583  1030.21  821.803  1031.19  827.854  1035.05  831.263  1038.06  835.86  1041.62  839.902  1045.83  844.154  1048.65  848.786  1053.3  852.766  1056.8  856.121  1060.45  860.219  1066.02  862.909  1068.8  867.504  1073.95  870.674  1078.12  873.569  1083.04  875.924  1090.77  876.595  1092.36  877.084  1094.2  879.021  1100.68  880.049  1105.21  881.139  1108.79  883.373  1117.82  883.525  1118.33  886.296  1129.39  888.274  1135.73  889.186  1138.51  889.285  1138.66  892.91  1148.35  893.258  1148.78  893.452  1150.22  " style="fill: none; stroke: darkmagenta; stroke-width: 0.200000; fill-type: evenodd"  fill-opacity="1.000000" />
   <path d="M 893.452  1150.22  893.477  1150.41  894.659  1158.11  891.497  1166.48  891.346  1167.83  890.934  1168.53  890.451  1169.08  " style="fill: none; stroke: red; stroke-width: 0.200000; fill-type: evenodd"  fill-opacity="1.000000" />
   <path d="M 890.451  1169.08  889.679  1169.95  885.962  1176.98  " style="fill: none; stroke: darkmagenta; stroke-width: 0.200000; fill-type: evenodd"  fill-opacity="1.000000" />
   <path d="M 885.962  1176.98  885.957  1176.99  883.991  1178.52  883.977  1178.52  " style="fill: none; stroke: red; stroke-width: 0.200000; fill-type: evenodd"  fill-opacity="1.000000" />
   <path d="M 812.61  1206.89  812.111  1205.34  807.434  1202.15  804.898  1198.1  799.589  1194.4  798.082  1192.83  792.094  1188.3  790.043  1186.06  786.062  1181.33  782.624  1176.35  780.274  1172.72  775.46  1164.75  774.624  1163.63  773.824  1161.94  769.17  1154.63  764.898  1146.57  759.669  1138.47  754.907  1129.69  751.141  1120.89  751.073  1114.82  751.297  1109.31  752.536  1101.4  753.156  1096.54  753.991  1091.22  755.667  1085.56  756.306  1081.66  758.919  1073.57  759.215  1072.48  759.39  1071.58  762.279  1064.24  764.252  1059.97  766.506  1056.45  769.005  1053.15  771.943  1049.16  776.825  1044.02  778.295  1042.64  779.751  1041.55  786.341  1036.39  791.836  1032.94  793.981  1031.83  800.078  1029.37  803.821  1028.57  809.505  1028.72  816.491  1030.51  819.264  1031.16  821.329  1032.07  827.251  1035.85  830.625  1038.83  835.189  1042.37  839.258  1046.6  843.517  1049.42  848.1  1054.03  852.066  1057.52  855.348  1061.09  859.454  1066.67  862.177  1069.48  866.731  1074.59  869.843  1078.68  872.647  1083.45  874.983  1091.12  875.647  1092.68  876.121  1094.47  878.054  1100.93  879.082  1105.47  880.174  1109.05  882.408  1118.09  882.561  1118.6  885.333  1129.66  887.322  1136.03  888.276  1138.94  888.386  1139.11  892.032  1148.86  892.305  1149.19  892.487  1150.55  893.631  1158  890.518  1166.24  890.376  1167.51  890.121  1167.94  888.85  1169.38  885.174  1176.34  883.493  1177.64  876.901  1180.2  871.864  1183.11  868.629  1183.87  863.404  1186.26  857.863  1189.21  855.334  1190.76  849.764  1196.32  848.834  1197.32  848.58  1198.04  843.933  1204.69  841.283  1212.69  " style="fill: none; stroke: black; stroke-width: 0.200000; fill-type: evenodd"  fill-opacity="1.000000" />
   <path d="M 841.283  1212.69  841.061  1213.36  840.981  1213.8  836.129  1220.97  834.492  1225.25  829.7  1228.78  826.975  1231.07  823.586  1228.65  820.212  1226.72  817.775  1223.85  815.977  1218.8  815.394  1216.39  814.302  1212.54  " style="fill: none; stroke: red; stroke-width: 0.200000; fill-type: evenodd"  fill-opacity="1.000000" />
   <path d="M 814.302  1212.54  813.362  1209.22  813.164  1208.61  " style="fill: none; stroke: black; stroke-width: 0.200000; fill-type: evenodd"  fill-opacity="1.000000" />
   <path d="M 813.164  1208.61  812.61  1206.89  " style="fill: none; stroke: red; stroke-width: 0.200000; fill-type: evenodd"  fill-opacity="1.000000" />
   <path d="M 823.099  1348.83  823.831  1349.56  824.099  1350.56  823.831  1351.56  823.099  1352.29  822.099  1352.56  821.099  1352.29  820.367  1351.56  820.099  1350.56  820.367  1349.56  821.099  1348.83  822.099  1348.56  823.099  1348.83  " style="fill: none; stroke: purple; stroke-width: 0.500000; fill-type: evenodd"  fill-opacity="1.000000" />
   <path d="M 843.099  1348.83  843.831  1349.56  844.099  1350.56  843.831  1351.56  843.099  1352.29  842.099  1352.56  841.099  1352.29  840.367  1351.56  840.099  1350.56  840.367  1349.56  841.099  1348.83  842.099  1348.56  843.099  1348.83  " style="fill: none; stroke: purple; stroke-width: 0.500000; fill-type: evenodd"  fill-opacity="1.000000" />
   <path d="M 823.099  1328.83  823.831  1329.56  824.099  1330.56  823.831  1331.56  823.099  1332.29  822.099  1332.56  821.099  1332.29  820.367  1331.56  820.099  1330.56  820.367  1329.56  821.099  1328.83  822.099  1328.56  823.099  1328.83  " style="fill: none; stroke: purple; stroke-width: 0.500000; fill-type: evenodd"  fill-opacity="1.000000" />
   <path d="M 823.099  1308.83  823.831  1309.56  824.099  1310.56  823.831  1311.56  823.099  1312.29  822.099  1312.56  821.099  1312.29  820.367  1311.56  820.099  1310.56  820.367  1309.56  821.099  1308.83  822.099  1308.56  823.099  1308.83  " style="fill: none; stroke: purple; stroke-width: 0.500000; fill-type: evenodd"  fill-opacity="1.000000" />
   <path d="M 803.099  1308.83  803.831  1309.56  804.099  1310.56  803.831  1311.56  803.099  1312.29  802.099  1312.56  801.099  1312.29  800.367  1311.56  800.099  1310.56  800.367  1309.56  801.099  1308.83  802.099  1308.56  803.099  1308.83  " style="fill: none; stroke: purple; stroke-width: 0.500000; fill-type: evenodd"  fill-opacity="1.000000" />
   <path d="M 843.099  1288.83  843.831  1289.56  844.099  1290.56  843.831  1291.56  843.099  1292.29  842.099  1292.56  841.099  1292.29  840.367  1291.56  840.099  1290.56  840.367  1289.56  841.099  1288.83  842.099  1288.56  843.099  1288.83  " style="fill: none; stroke: purple; stroke-width: 0.500000; fill-type: evenodd"  fill-opacity="1.000000" />
   <path d="M 823.099  1288.83  823.831  1289.56  824.099  1290.56  823.831  1291.56  823.099  1292.29  822.099  1292.56  821.099  1292.29  820.367  1291.56  820.099  1290.56  820.367  1289.56  821.099  1288.83  822.099  1288.56  823.099  1288.83  " style="fill: none; stroke: purple; stroke-width: 0.500000; fill-type: evenodd"  fill-opacity="1.000000" />
   <path d="M 803.099  1288.83  803.831  1289.56  804.099  1290.56  803.831  1291.56  803.099  1292.29  802.099  1292.56  801.099  1292.29  800.367  1291.56  800.099  1290.56  800.367  1289.56  801.099  1288.83  802.099  1288.56  803.099  1288.83  " style="fill: none; stroke: purple; stroke-width: 0.500000; fill-type: evenodd"  fill-opacity="1.000000" />
   <path d="M 843.099  1268.83  843.831  1269.56  844.099  1270.56  843.831  1271.56  843.099  1272.29  842.099  1272.56  841.099  1272.29  840.367  1271.56  840.099  1270.56  840.367  1269.56  841.099  1268.83  842.099  1268.56  843.099  1268.83  " style="fill: none; stroke: purple; stroke-width: 0.500000; fill-type: evenodd"  fill-opacity="1.000000" />
   <path d="M 823.099  1268.83  823.831  1269.56  824.099  1270.56  823.831  1271.56  823.099  1272.29  822.099  1272.56  821.099  1272.29  820.367  1271.56  820.099  1270.56  820.367  1269.56  821.099  1268.83  822.099  1268.56  823.099  1268.83  " style="fill: none; stroke: purple; stroke-width: 0.500000; fill-type: evenodd"  fill-opacity="1.000000" />
   <path d="M 1004.2  1246.34  1005.59  1247.38  1006.5  1248.85  1006.82  1250.56  1006.5  1252.26  1005.59  1253.74  1004.2  1254.78  1002.53  1255.26  1000.81  1255.1  999.256  1254.32  998.088  1253.04  997.462  1251.43  997.462  1249.69  998.088  1248.08  999.256  1246.79  1000.81  1246.02  1002.53  1245.86  1004.2  1246.34  " style="fill: none; stroke: purple; stroke-width: 0.500000; fill-type: evenodd"  fill-opacity="1.000000" />
   <path d="M 843.099  1248.83  843.831  1249.56  844.099  1250.56  843.831  1251.56  843.099  1252.29  842.099  1252.56  841.099  1252.29  840.367  1251.56  840.099  1250.56  840.367  1249.56  841.099  1248.83  842.099  1248.56  843.099  1248.83  " style="fill: none; stroke: purple; stroke-width: 0.500000; fill-type: evenodd"  fill-opacity="1.000000" />
   <path d="M 803.099  1248.83  803.831  1249.56  804.099  1250.56  803.831  1251.56  803.099  1252.29  802.099  1252.56  801.099  1252.29  800.367  1251.56  800.099  1250.56  800.367  1249.56  801.099  1248.83  802.099  1248.56  803.099  1248.83  " style="fill: none; stroke: purple; stroke-width: 0.500000; fill-type: evenodd"  fill-opacity="1.000000" />
   <path d="M 964.237  1226.27  965.643  1227.33  966.571  1228.83  966.895  1230.56  966.571  1232.29  965.643  1233.79  964.237  1234.85  962.542  1235.33  960.787  1235.17  959.21  1234.39  958.022  1233.08  957.386  1231.44  957.386  1229.68  958.022  1228.03  959.21  1226.73  960.787  1225.95  962.542  1225.78  964.237  1226.27  " style="fill: none; stroke: purple; stroke-width: 0.500000; fill-type: evenodd"  fill-opacity="1.000000" />
   <path d="M 984.224  1226.29  985.621  1227.35  986.543  1228.84  986.865  1230.56  986.543  1232.28  985.621  1233.77  984.224  1234.83  982.539  1235.3  980.795  1235.14  979.228  1234.36  978.048  1233.07  977.415  1231.43  977.415  1229.68  978.048  1228.05  979.228  1226.76  980.795  1225.98  982.539  1225.81  984.224  1226.29  " style="fill: none; stroke: purple; stroke-width: 0.500000; fill-type: evenodd"  fill-opacity="1.000000" />
   <path d="M 1004.19  1226.35  1005.57  1227.39  1006.48  1228.86  1006.8  1230.56  1006.48  1232.26  1005.57  1233.73  1004.19  1234.77  1002.53  1235.24  1000.81  1235.08  999.266  1234.31  998.102  1233.03  997.478  1231.42  997.478  1229.7  998.102  1228.08  999.266  1226.81  1000.81  1226.04  1002.53  1225.88  1004.19  1226.35  " style="fill: none; stroke: purple; stroke-width: 0.500000; fill-type: evenodd"  fill-opacity="1.000000" />
   <path d="M 1004.76  1205.95  1006.18  1207.14  1007.1  1208.74  1007.42  1210.56  1007.1  1212.38  1006.18  1213.98  1004.76  1215.17  1003.02  1215.8  1001.17  1215.8  999.438  1215.17  998.021  1213.98  997.097  1212.38  996.776  1210.56  997.097  1208.74  998.021  1207.14  999.438  1205.95  1001.17  1205.32  1003.02  1205.32  1004.76  1205.95  " style="fill: none; stroke: purple; stroke-width: 0.500000; fill-type: evenodd"  fill-opacity="1.000000" />
   <path d="M 923.78  1206.5  925.204  1207.45  926.156  1208.88  926.49  1210.56  926.156  1212.24  925.204  1213.66  923.78  1214.62  922.099  1214.95  920.419  1214.62  918.995  1213.66  918.043  1212.24  917.709  1210.56  918.043  1208.88  918.995  1207.45  920.419  1206.5  922.099  1206.17  923.78  1206.5  " style="fill: none; stroke: purple; stroke-width: 0.500000; fill-type: evenodd"  fill-opacity="1.000000" />
   <path d="M 983.758  1206.56  985.164  1207.49  986.103  1208.9  986.433  1210.56  986.103  1212.22  985.164  1213.62  983.758  1214.56  982.099  1214.89  980.441  1214.56  979.035  1213.62  978.096  1212.22  977.766  1210.56  978.096  1208.9  979.035  1207.49  980.441  1206.56  982.099  1206.23  983.758  1206.56  " style="fill: none; stroke: purple; stroke-width: 0.500000; fill-type: evenodd"  fill-opacity="1.000000" />
   <path d="M 963.655  1206.8  964.973  1207.69  965.854  1209  966.164  1210.56  965.854  1212.11  964.973  1213.43  963.655  1214.31  962.099  1214.62  960.544  1214.31  959.225  1213.43  958.344  1212.11  958.035  1210.56  958.344  1209  959.225  1207.69  960.544  1206.8  962.099  1206.49  963.655  1206.8  " style="fill: none; stroke: purple; stroke-width: 0.500000; fill-type: evenodd"  fill-opacity="1.000000" />
   <path d="M 943.267  1206.97  944.627  1207.75  945.551  1209.02  945.877  1210.56  945.551  1212.1  944.627  1213.37  943.267  1214.15  941.704  1214.32  940.211  1213.83  939.043  1212.78  938.404  1211.34  938.404  1209.77  939.043  1208.34  940.211  1207.29  941.704  1206.8  943.267  1206.97  " style="fill: none; stroke: purple; stroke-width: 0.500000; fill-type: evenodd"  fill-opacity="1.000000" />
   <path d="M 963.673  1186.76  965.008  1187.65  965.9  1188.99  966.213  1190.56  965.9  1192.13  965.008  1193.47  963.673  1194.36  962.099  1194.67  960.525  1194.36  959.191  1193.47  958.299  1192.13  957.986  1190.56  958.299  1188.99  959.191  1187.65  960.525  1186.76  962.099  1186.45  963.673  1186.76  " style="fill: none; stroke: purple; stroke-width: 0.500000; fill-type: evenodd"  fill-opacity="1.000000" />
   <path d="M 944.16  1187.98  945.077  1189.13  945.404  1190.56  945.077  1191.99  944.16  1193.14  942.835  1193.78  941.364  1193.78  940.039  1193.14  939.122  1191.99  938.794  1190.56  939.122  1189.13  940.039  1187.98  941.364  1187.34  942.835  1187.34  944.16  1187.98  " style="fill: none; stroke: purple; stroke-width: 0.500000; fill-type: evenodd"  fill-opacity="1.000000" />
   <path d="M 923.663  1188.29  924.536  1189.28  924.852  1190.56  924.536  1191.84  923.663  1192.82  922.431  1193.29  921.123  1193.13  920.039  1192.38  919.427  1191.22  919.427  1189.9  920.039  1188.73  921.123  1187.99  922.431  1187.83  923.663  1188.29  " style="fill: none; stroke: purple; stroke-width: 0.500000; fill-type: evenodd"  fill-opacity="1.000000" />
   <path d="M 902.537  1193.16  902.421  1193.21  901.752  1193.13  901.823  1192.99  902.537  1193.16  " style="fill: none; stroke: purple; stroke-width: 0.500000; fill-type: evenodd"  fill-opacity="1.000000" />
   <path d="M 944.715  1166.03  946.106  1167.2  947.015  1168.77  947.33  1170.56  947.015  1172.35  946.106  1173.92  944.715  1175.09  943.008  1175.71  941.191  1175.71  939.484  1175.09  938.092  1173.92  937.694  1173.23  941.267  1173.31  941.267  1173.31  937.328  1168.52  938.092  1167.2  939.484  1166.03  941.191  1165.41  943.008  1165.41  944.715  1166.03  " style="fill: none; stroke: purple; stroke-width: 0.500000; fill-type: evenodd"  fill-opacity="1.000000" />
   <path d="M 924.002  1172.92  923.993  1172.93  922.775  1173.52  921.424  1173.52  920.206  1172.93  920.127  1172.84  924.002  1172.92  " style="fill: none; stroke: purple; stroke-width: 0.500000; fill-type: evenodd"  fill-opacity="1.000000" />
</svg>
