<?xml version="1.0" encoding="UTF-8" standalone="yes"?>
<!DOCTYPE svg PUBLIC "-//W3C//DTD SVG 1.0//EN" "http://www.w3.org/TR/2001/REC-SVG-20010904/DTD/svg10.dtd">
<svg height="2000" width="2000" xmlns="http://www.w3.org/2000/svg" xmlns:svg="http://www.w3.org/2000/svg" xmlns:xlink="http://www.w3.org/1999/xlink">
   <marker id="endArrow" markerHeight="8" markerUnits="strokeWidth" markerWidth="10" orient="auto" refX="1" refY="5" viewBox="0 0 1000 1000">
      <polyline fill="darkblue" points="0,0 10,5 0,10 1,5" />
   </marker>
   <circle cx="1000" cy="1000" r="1" style="stroke:black; fill: red" />
   <circle cx="1000" cy="1000" r="800" style="stroke:black; fill: none" />
   <line x1="1072.903931" y1="1062.965088" x2="1072.903931" y2="1063.068604" style="stroke: green; stroke-width: 0.200000"/>
   <line x1="1073.903931" y1="1061.965088" x2="1073.903931" y2="1063.068604" style="stroke: green; stroke-width: 0.200000"/>
   <line x1="1074.903931" y1="1060.965088" x2="1074.903931" y2="1063.068604" style="stroke: green; stroke-width: 0.200000"/>
   <line x1="1075.903931" y1="1059.965088" x2="1075.903931" y2="1063.068604" style="stroke: green; stroke-width: 0.200000"/>
   <line x1="1076.904053" y1="1058.965088" x2="1076.904053" y2="1063.068604" style="stroke: green; stroke-width: 0.200000"/>
   <line x1="1077.903931" y1="1057.965088" x2="1077.903931" y2="1063.068604" style="stroke: green; stroke-width: 0.200000"/>
   <line x1="1078.903931" y1="1056.965210" x2="1078.903931" y2="1063.068604" style="stroke: green; stroke-width: 0.200000"/>
   <line x1="1079.903931" y1="1055.965210" x2="1079.903931" y2="1063.068604" style="stroke: green; stroke-width: 0.200000"/>
   <line x1="1080.903931" y1="1054.965210" x2="1080.903931" y2="1063.068604" style="stroke: green; stroke-width: 0.200000"/>
   <line x1="1081.904053" y1="1053.965210" x2="1081.904053" y2="1063.068604" style="stroke: green; stroke-width: 0.200000"/>
   <line x1="1082.903931" y1="1052.965210" x2="1082.903931" y2="1063.068604" style="stroke: green; stroke-width: 0.200000"/>
   <line x1="1083.903931" y1="1051.965088" x2="1083.903931" y2="1063.068604" style="stroke: green; stroke-width: 0.200000"/>
   <line x1="1084.903931" y1="1050.965332" x2="1084.903931" y2="1063.068604" style="stroke: green; stroke-width: 0.200000"/>
   <line x1="1085.903931" y1="1052.085083" x2="1085.903931" y2="1062.400635" style="stroke: green; stroke-width: 0.200000"/>
   <line x1="1086.904053" y1="1051.761353" x2="1086.904053" y2="1061.723755" style="stroke: green; stroke-width: 0.200000"/>
   <line x1="1087.903931" y1="1050.761353" x2="1087.903931" y2="1061.046875" style="stroke: green; stroke-width: 0.200000"/>
   <line x1="1088.903931" y1="1049.761353" x2="1088.903931" y2="1060.427368" style="stroke: green; stroke-width: 0.200000"/>
   <line x1="1089.903931" y1="1048.761230" x2="1089.903931" y2="1059.858276" style="stroke: green; stroke-width: 0.200000"/>
   <line x1="1090.903931" y1="1047.761353" x2="1090.903931" y2="1059.289062" style="stroke: green; stroke-width: 0.200000"/>
   <line x1="1091.904053" y1="1046.761353" x2="1091.904053" y2="1058.719849" style="stroke: green; stroke-width: 0.200000"/>
   <line x1="1092.903931" y1="1045.761353" x2="1092.903931" y2="1058.158936" style="stroke: green; stroke-width: 0.200000"/>
   <line x1="1093.903931" y1="1044.761475" x2="1093.903931" y2="1057.666870" style="stroke: green; stroke-width: 0.200000"/>
   <line x1="1094.903931" y1="1043.761475" x2="1094.903931" y2="1057.174927" style="stroke: green; stroke-width: 0.200000"/>
   <line x1="1095.903931" y1="1042.761475" x2="1095.903931" y2="1056.673218" style="stroke: green; stroke-width: 0.200000"/>
   <line x1="1096.904053" y1="1041.761475" x2="1096.904053" y2="1056.154785" style="stroke: green; stroke-width: 0.200000"/>
   <line x1="1097.903931" y1="1040.761475" x2="1097.903931" y2="1055.660522" style="stroke: green; stroke-width: 0.200000"/>
   <line x1="1098.903931" y1="1039.761475" x2="1098.903931" y2="1055.190674" style="stroke: green; stroke-width: 0.200000"/>
   <line x1="1099.903931" y1="1038.761475" x2="1099.903931" y2="1054.720703" style="stroke: green; stroke-width: 0.200000"/>
   <line x1="1100.903931" y1="1037.761475" x2="1100.903931" y2="1054.250854" style="stroke: green; stroke-width: 0.200000"/>
   <line x1="1101.904053" y1="1036.761475" x2="1101.904053" y2="1053.781006" style="stroke: green; stroke-width: 0.200000"/>
   <line x1="1102.903931" y1="1035.761475" x2="1102.903931" y2="1053.341187" style="stroke: green; stroke-width: 0.200000"/>
   <line x1="1103.903931" y1="1034.761475" x2="1103.903931" y2="1052.909058" style="stroke: green; stroke-width: 0.200000"/>
   <line x1="1104.903931" y1="1033.761475" x2="1104.903931" y2="1052.476929" style="stroke: green; stroke-width: 0.200000"/>
   <line x1="1105.903931" y1="1032.761475" x2="1105.903931" y2="1052.044922" style="stroke: green; stroke-width: 0.200000"/>
   <line x1="1106.904053" y1="1031.761597" x2="1106.904053" y2="1051.601074" style="stroke: green; stroke-width: 0.200000"/>
   <line x1="1107.903931" y1="1030.761475" x2="1107.903931" y2="1051.121582" style="stroke: green; stroke-width: 0.200000"/>
   <line x1="1108.903931" y1="1029.761475" x2="1108.903931" y2="1050.641968" style="stroke: green; stroke-width: 0.200000"/>
   <line x1="1109.903931" y1="1028.761475" x2="1109.903931" y2="1050.075562" style="stroke: green; stroke-width: 0.200000"/>
   <line x1="1110.903931" y1="1027.761475" x2="1110.903931" y2="1049.465210" style="stroke: green; stroke-width: 0.200000"/>
   <line x1="1111.904053" y1="1026.761597" x2="1111.904053" y2="1048.821045" style="stroke: green; stroke-width: 0.200000"/>
   <line x1="1112.903931" y1="1025.761597" x2="1112.903931" y2="1048.070679" style="stroke: green; stroke-width: 0.200000"/>
   <line x1="1113.903931" y1="1024.761475" x2="1113.903931" y2="1047.320435" style="stroke: green; stroke-width: 0.200000"/>
   <line x1="1114.903931" y1="1023.761536" x2="1114.903931" y2="1046.358276" style="stroke: green; stroke-width: 0.200000"/>
   <line x1="1115.903931" y1="1022.761536" x2="1115.903931" y2="1045.371704" style="stroke: green; stroke-width: 0.200000"/>
   <line x1="1116.904053" y1="1021.761536" x2="1116.904053" y2="1044.337769" style="stroke: green; stroke-width: 0.200000"/>
   <line x1="1117.903931" y1="1020.761597" x2="1117.903931" y2="1043.301758" style="stroke: green; stroke-width: 0.200000"/>
   <line x1="1118.903931" y1="1019.761475" x2="1118.903931" y2="1042.265625" style="stroke: green; stroke-width: 0.200000"/>
   <line x1="1119.903931" y1="1018.761536" x2="1119.903931" y2="1041.229492" style="stroke: green; stroke-width: 0.200000"/>
   <line x1="1120.903931" y1="1017.761536" x2="1120.903931" y2="1040.193481" style="stroke: green; stroke-width: 0.200000"/>
   <line x1="1121.904053" y1="1016.761536" x2="1121.904053" y2="1039.041992" style="stroke: green; stroke-width: 0.200000"/>
   <line x1="1122.903931" y1="1013.236206" x2="1122.903931" y2="1037.705566" style="stroke: green; stroke-width: 0.200000"/>
   <line x1="1123.903931" y1="1015.006775" x2="1123.903931" y2="1036.252563" style="stroke: green; stroke-width: 0.200000"/>
   <line x1="1124.903931" y1="1016.969360" x2="1124.903931" y2="1034.316040" style="stroke: green; stroke-width: 0.200000"/>
   <line x1="1121.904053" y1="1013.965698" x2="1121.904053" y2="1016.084534" style="stroke: green; stroke-width: 0.200000"/>
   <line x1="1125.903931" y1="1019.825562" x2="1125.903931" y2="1031.536011" style="stroke: green; stroke-width: 0.200000"/>
   <line x1="1032.903931" y1="1105.761597" x2="1032.903931" y2="1113.168701" style="stroke: green; stroke-width: 0.200000"/>
   <line x1="1033.903931" y1="1104.761353" x2="1033.903931" y2="1113.168701" style="stroke: green; stroke-width: 0.200000"/>
   <line x1="1034.903931" y1="1103.761353" x2="1034.903931" y2="1113.168701" style="stroke: green; stroke-width: 0.200000"/>
   <line x1="1035.903931" y1="1102.761353" x2="1035.903931" y2="1113.168701" style="stroke: green; stroke-width: 0.200000"/>
   <line x1="1036.904053" y1="1101.761353" x2="1036.904053" y2="1113.168701" style="stroke: green; stroke-width: 0.200000"/>
   <line x1="1037.903931" y1="1100.761475" x2="1037.903931" y2="1113.168701" style="stroke: green; stroke-width: 0.200000"/>
   <line x1="1038.903931" y1="1099.761353" x2="1038.903931" y2="1113.168701" style="stroke: green; stroke-width: 0.200000"/>
   <line x1="1039.903931" y1="1098.761353" x2="1039.903931" y2="1113.168701" style="stroke: green; stroke-width: 0.200000"/>
   <line x1="1040.903931" y1="1094.965576" x2="1040.903931" y2="1113.160278" style="stroke: green; stroke-width: 0.200000"/>
   <line x1="1031.904053" y1="1106.761597" x2="1031.904053" y2="1113.147705" style="stroke: green; stroke-width: 0.200000"/>
   <line x1="1030.903931" y1="1107.760986" x2="1030.903931" y2="1112.875244" style="stroke: green; stroke-width: 0.200000"/>
   <line x1="1041.904053" y1="1093.965576" x2="1041.904053" y2="1112.873047" style="stroke: green; stroke-width: 0.200000"/>
   <line x1="1029.903931" y1="1108.760986" x2="1029.903931" y2="1112.520508" style="stroke: green; stroke-width: 0.200000"/>
   <line x1="1042.903931" y1="1092.965576" x2="1042.903931" y2="1112.513062" style="stroke: green; stroke-width: 0.200000"/>
   <line x1="1028.903931" y1="1109.760376" x2="1028.903931" y2="1112.140747" style="stroke: green; stroke-width: 0.200000"/>
   <line x1="1043.903931" y1="1091.965576" x2="1043.903931" y2="1112.069946" style="stroke: green; stroke-width: 0.200000"/>
   <line x1="1027.903931" y1="1109.451172" x2="1027.903931" y2="1111.743652" style="stroke: green; stroke-width: 0.200000"/>
   <line x1="1044.903931" y1="1090.965576" x2="1044.903931" y2="1111.544189" style="stroke: green; stroke-width: 0.200000"/>
   <line x1="1026.904053" y1="1108.965820" x2="1026.904053" y2="1111.346558" style="stroke: green; stroke-width: 0.200000"/>
   <line x1="1025.903931" y1="1109.965454" x2="1025.903931" y2="1110.949463" style="stroke: green; stroke-width: 0.200000"/>
   <line x1="1045.903931" y1="1089.965576" x2="1045.903931" y2="1110.921021" style="stroke: green; stroke-width: 0.200000"/>
   <line x1="1046.904053" y1="1088.965210" x2="1046.904053" y2="1110.180298" style="stroke: green; stroke-width: 0.200000"/>
   <line x1="1047.903931" y1="1087.965332" x2="1047.903931" y2="1109.284302" style="stroke: green; stroke-width: 0.200000"/>
   <line x1="1048.903931" y1="1086.965454" x2="1048.903931" y2="1108.264893" style="stroke: green; stroke-width: 0.200000"/>
   <line x1="1049.903931" y1="1085.965454" x2="1049.903931" y2="1107.051880" style="stroke: green; stroke-width: 0.200000"/>
   <line x1="1050.903931" y1="1084.965332" x2="1050.903931" y2="1105.838867" style="stroke: green; stroke-width: 0.200000"/>
   <line x1="1051.904053" y1="1083.965332" x2="1051.904053" y2="1104.674194" style="stroke: green; stroke-width: 0.200000"/>
   <line x1="1052.903931" y1="1082.965332" x2="1052.903931" y2="1103.399414" style="stroke: green; stroke-width: 0.200000"/>
   <line x1="1053.903931" y1="1081.965454" x2="1053.903931" y2="1101.977661" style="stroke: green; stroke-width: 0.200000"/>
   <line x1="1054.903931" y1="1080.965454" x2="1054.903931" y2="1100.442993" style="stroke: green; stroke-width: 0.200000"/>
   <line x1="1055.903931" y1="1079.965332" x2="1055.903931" y2="1098.783203" style="stroke: green; stroke-width: 0.200000"/>
   <line x1="1039.903931" y1="1095.965576" x2="1039.903931" y2="1098.155151" style="stroke: green; stroke-width: 0.200000"/>
   <line x1="1038.903931" y1="1096.965576" x2="1038.903931" y2="1097.407471" style="stroke: green; stroke-width: 0.200000"/>
   <line x1="1056.904053" y1="1078.965210" x2="1056.904053" y2="1096.865723" style="stroke: green; stroke-width: 0.200000"/>
   <line x1="1057.903931" y1="1077.965210" x2="1057.903931" y2="1094.948120" style="stroke: green; stroke-width: 0.200000"/>
   <line x1="1058.903931" y1="1076.965210" x2="1058.903931" y2="1093.030396" style="stroke: green; stroke-width: 0.200000"/>
   <line x1="1059.903931" y1="1075.965088" x2="1059.903931" y2="1091.316650" style="stroke: green; stroke-width: 0.200000"/>
   <line x1="1060.903931" y1="1074.965088" x2="1060.903931" y2="1089.629639" style="stroke: green; stroke-width: 0.200000"/>
   <line x1="1061.904053" y1="1073.965088" x2="1061.904053" y2="1088.016846" style="stroke: green; stroke-width: 0.200000"/>
   <line x1="1062.903931" y1="1072.965088" x2="1062.903931" y2="1086.530640" style="stroke: green; stroke-width: 0.200000"/>
   <line x1="1063.903931" y1="1071.965088" x2="1063.903931" y2="1085.044678" style="stroke: green; stroke-width: 0.200000"/>
   <line x1="1064.903931" y1="1070.965088" x2="1064.903931" y2="1083.707764" style="stroke: green; stroke-width: 0.200000"/>
   <line x1="1065.903931" y1="1069.965088" x2="1065.903931" y2="1082.455811" style="stroke: green; stroke-width: 0.200000"/>
   <line x1="1066.904053" y1="1068.965088" x2="1066.904053" y2="1081.188965" style="stroke: green; stroke-width: 0.200000"/>
   <line x1="1067.903931" y1="1067.965088" x2="1067.903931" y2="1079.917603" style="stroke: green; stroke-width: 0.200000"/>
   <line x1="1068.903931" y1="1066.965088" x2="1068.903931" y2="1078.646362" style="stroke: green; stroke-width: 0.200000"/>
   <line x1="1069.903931" y1="1065.965088" x2="1069.903931" y2="1077.375000" style="stroke: green; stroke-width: 0.200000"/>
   <line x1="1070.903931" y1="1064.965332" x2="1070.903931" y2="1076.239746" style="stroke: green; stroke-width: 0.200000"/>
   <line x1="1071.904053" y1="1063.965088" x2="1071.904053" y2="1075.177124" style="stroke: green; stroke-width: 0.200000"/>
   <line x1="1072.903931" y1="1063.168701" x2="1072.903931" y2="1074.114746" style="stroke: green; stroke-width: 0.200000"/>
   <line x1="1073.903931" y1="1063.168701" x2="1073.903931" y2="1073.040649" style="stroke: green; stroke-width: 0.200000"/>
   <line x1="1074.903931" y1="1063.168701" x2="1074.903931" y2="1071.964844" style="stroke: green; stroke-width: 0.200000"/>
   <line x1="1075.903931" y1="1063.168701" x2="1075.903931" y2="1070.888794" style="stroke: green; stroke-width: 0.200000"/>
   <line x1="1076.904053" y1="1063.168701" x2="1076.904053" y2="1069.824829" style="stroke: green; stroke-width: 0.200000"/>
   <line x1="1077.903931" y1="1063.168701" x2="1077.903931" y2="1068.902832" style="stroke: green; stroke-width: 0.200000"/>
   <line x1="1078.903931" y1="1063.168701" x2="1078.903931" y2="1067.980957" style="stroke: green; stroke-width: 0.200000"/>
   <line x1="1079.903931" y1="1063.168701" x2="1079.903931" y2="1067.059082" style="stroke: green; stroke-width: 0.200000"/>
   <line x1="1080.903931" y1="1063.168701" x2="1080.903931" y2="1066.197388" style="stroke: green; stroke-width: 0.200000"/>
   <line x1="1081.904053" y1="1063.168701" x2="1081.904053" y2="1065.396851" style="stroke: green; stroke-width: 0.200000"/>
   <line x1="1082.903931" y1="1063.168701" x2="1082.903931" y2="1064.596191" style="stroke: green; stroke-width: 0.200000"/>
   <line x1="1083.903931" y1="1063.168701" x2="1083.903931" y2="1063.795654" style="stroke: green; stroke-width: 0.200000"/>
   <line x1="1036.904053" y1="1113.268555" x2="1036.904053" y2="1113.730835" style="stroke: green; stroke-width: 0.200000"/>
   <line x1="1035.903931" y1="1113.268555" x2="1035.903931" y2="1113.725342" style="stroke: green; stroke-width: 0.200000"/>
   <line x1="1037.903931" y1="1113.268555" x2="1037.903931" y2="1113.682373" style="stroke: green; stroke-width: 0.200000"/>
   <line x1="1034.903931" y1="1113.268555" x2="1034.903931" y2="1113.668701" style="stroke: green; stroke-width: 0.200000"/>
   <line x1="1038.903931" y1="1113.268555" x2="1038.903931" y2="1113.562744" style="stroke: green; stroke-width: 0.200000"/>
   <line x1="1033.903931" y1="1113.268555" x2="1033.903931" y2="1113.548462" style="stroke: green; stroke-width: 0.200000"/>
   <line x1="1039.903931" y1="1113.268555" x2="1039.903931" y2="1113.388306" style="stroke: green; stroke-width: 0.200000"/>
   <line x1="1032.903931" y1="1113.268555" x2="1032.903931" y2="1113.370483" style="stroke: green; stroke-width: 0.200000"/>
   <line x1="883.467773" y1="1037.156006" x2="883.467773" y2="1039.545410" style="stroke: green; stroke-width: 0.200000"/>
   <line x1="882.467773" y1="1020.942749" x2="882.467773" y2="1038.604004" style="stroke: green; stroke-width: 0.200000"/>
   <line x1="884.467834" y1="1038.203247" x2="884.467834" y2="1038.545410" style="stroke: green; stroke-width: 0.200000"/>
   <line x1="881.467834" y1="1022.790405" x2="881.467834" y2="1037.537354" style="stroke: green; stroke-width: 0.200000"/>
   <line x1="880.467834" y1="1024.847290" x2="880.467834" y2="1036.134155" style="stroke: green; stroke-width: 0.200000"/>
   <line x1="883.467773" y1="1019.095093" x2="883.467773" y2="1035.980469" style="stroke: green; stroke-width: 0.200000"/>
   <line x1="884.467834" y1="1017.422119" x2="884.467834" y2="1034.980469" style="stroke: green; stroke-width: 0.200000"/>
   <line x1="885.467834" y1="1015.904541" x2="885.467834" y2="1033.980469" style="stroke: green; stroke-width: 0.200000"/>
   <line x1="879.467834" y1="1027.171631" x2="879.467834" y2="1033.732422" style="stroke: green; stroke-width: 0.200000"/>
   <line x1="886.467834" y1="1014.353943" x2="886.467834" y2="1032.980469" style="stroke: green; stroke-width: 0.200000"/>
   <line x1="887.467773" y1="1012.988892" x2="887.467773" y2="1031.980469" style="stroke: green; stroke-width: 0.200000"/>
   <line x1="888.467773" y1="1011.694336" x2="888.467773" y2="1030.980469" style="stroke: green; stroke-width: 0.200000"/>
   <line x1="889.467834" y1="1010.368591" x2="889.467834" y2="1029.980469" style="stroke: green; stroke-width: 0.200000"/>
   <line x1="890.467834" y1="1009.146790" x2="890.467834" y2="1028.980469" style="stroke: green; stroke-width: 0.200000"/>
   <line x1="891.467834" y1="1007.988770" x2="891.467834" y2="1027.980469" style="stroke: green; stroke-width: 0.200000"/>
   <line x1="892.467773" y1="1006.852173" x2="892.467773" y2="1026.980469" style="stroke: green; stroke-width: 0.200000"/>
   <line x1="893.467773" y1="1005.733276" x2="893.467773" y2="1025.980469" style="stroke: green; stroke-width: 0.200000"/>
   <line x1="894.467834" y1="1004.650940" x2="894.467834" y2="1024.980469" style="stroke: green; stroke-width: 0.200000"/>
   <line x1="895.467834" y1="1003.568665" x2="895.467834" y2="1023.980469" style="stroke: green; stroke-width: 0.200000"/>
   <line x1="896.467834" y1="1002.486328" x2="896.467834" y2="1022.980469" style="stroke: green; stroke-width: 0.200000"/>
   <line x1="897.467773" y1="1001.532837" x2="897.467773" y2="1021.980469" style="stroke: green; stroke-width: 0.200000"/>
   <line x1="898.467773" y1="1000.596069" x2="898.467773" y2="1020.980469" style="stroke: green; stroke-width: 0.200000"/>
   <line x1="899.467834" y1="999.659363" x2="899.467834" y2="1019.980469" style="stroke: green; stroke-width: 0.200000"/>
   <line x1="900.467834" y1="998.722595" x2="900.467834" y2="1018.980469" style="stroke: green; stroke-width: 0.200000"/>
   <line x1="901.467834" y1="997.785767" x2="901.467834" y2="1017.980469" style="stroke: green; stroke-width: 0.200000"/>
   <line x1="902.467773" y1="996.878723" x2="902.467773" y2="1016.980469" style="stroke: green; stroke-width: 0.200000"/>
   <line x1="903.467773" y1="996.130127" x2="903.467773" y2="1015.980469" style="stroke: green; stroke-width: 0.200000"/>
   <line x1="904.467834" y1="995.388916" x2="904.467834" y2="1014.980469" style="stroke: green; stroke-width: 0.200000"/>
   <line x1="905.467834" y1="994.842407" x2="905.467834" y2="1013.980469" style="stroke: green; stroke-width: 0.200000"/>
   <line x1="906.467834" y1="994.295898" x2="906.467834" y2="1012.980469" style="stroke: green; stroke-width: 0.200000"/>
   <line x1="907.467773" y1="993.874451" x2="907.467773" y2="1011.980469" style="stroke: green; stroke-width: 0.200000"/>
   <line x1="908.467773" y1="993.526123" x2="908.467773" y2="1010.980469" style="stroke: green; stroke-width: 0.200000"/>
   <line x1="909.467834" y1="993.188843" x2="909.467834" y2="1009.980469" style="stroke: green; stroke-width: 0.200000"/>
   <line x1="910.467834" y1="993.010010" x2="910.467834" y2="1008.980469" style="stroke: green; stroke-width: 0.200000"/>
   <line x1="911.467834" y1="992.831177" x2="911.467834" y2="1007.980469" style="stroke: green; stroke-width: 0.200000"/>
   <line x1="912.467773" y1="992.664062" x2="912.467773" y2="1006.980530" style="stroke: green; stroke-width: 0.200000"/>
   <line x1="913.467773" y1="992.521423" x2="913.467773" y2="1005.980469" style="stroke: green; stroke-width: 0.200000"/>
   <line x1="914.467834" y1="992.392700" x2="914.467834" y2="1004.980469" style="stroke: green; stroke-width: 0.200000"/>
   <line x1="915.467834" y1="992.274780" x2="915.467834" y2="1003.980469" style="stroke: green; stroke-width: 0.200000"/>
   <line x1="916.467834" y1="992.156921" x2="916.467834" y2="1002.980469" style="stroke: green; stroke-width: 0.200000"/>
   <line x1="917.467773" y1="992.038940" x2="917.467773" y2="1001.980530" style="stroke: green; stroke-width: 0.200000"/>
   <line x1="918.467773" y1="991.921021" x2="918.467773" y2="1000.980469" style="stroke: green; stroke-width: 0.200000"/>
   <line x1="919.467834" y1="991.803040" x2="919.467834" y2="999.980469" style="stroke: green; stroke-width: 0.200000"/>
   <line x1="920.467834" y1="991.685120" x2="920.467834" y2="998.980469" style="stroke: green; stroke-width: 0.200000"/>
   <line x1="921.467834" y1="991.557922" x2="921.467834" y2="997.980591" style="stroke: green; stroke-width: 0.200000"/>
   <line x1="922.467773" y1="991.367554" x2="922.467773" y2="996.980591" style="stroke: green; stroke-width: 0.200000"/>
   <line x1="923.467773" y1="991.177246" x2="923.467773" y2="995.980591" style="stroke: green; stroke-width: 0.200000"/>
   <line x1="924.467834" y1="990.986877" x2="924.467834" y2="994.980591" style="stroke: green; stroke-width: 0.200000"/>
   <line x1="928.467773" y1="990.261597" x2="928.467773" y2="994.545349" style="stroke: green; stroke-width: 0.200000"/>
   <line x1="925.467834" y1="990.796509" x2="925.467834" y2="993.980652" style="stroke: green; stroke-width: 0.200000"/>
   <line x1="927.467773" y1="990.426941" x2="927.467773" y2="993.872375" style="stroke: green; stroke-width: 0.200000"/>
   <line x1="926.467834" y1="990.606140" x2="926.467834" y2="992.980652" style="stroke: green; stroke-width: 0.200000"/>
   <line x1="929.467834" y1="990.133362" x2="929.467834" y2="993.545288" style="stroke: green; stroke-width: 0.200000"/>
   <line x1="930.467834" y1="990.063477" x2="930.467834" y2="992.545410" style="stroke: green; stroke-width: 0.200000"/>
   <line x1="931.467834" y1="990.076782" x2="931.467834" y2="991.545349" style="stroke: green; stroke-width: 0.200000"/>
   <line x1="932.467773" y1="990.074829" x2="932.467773" y2="990.545349" style="stroke: green; stroke-width: 0.200000"/>
   <line x1="981.540161" y1="941.118164" x2="981.540161" y2="941.473022" style="stroke: green; stroke-width: 0.200000"/>
   <line x1="980.540100" y1="940.064453" x2="980.540100" y2="941.318420" style="stroke: green; stroke-width: 0.200000"/>
   <line x1="982.534119" y1="923.227295" x2="982.534119" y2="936.914368" style="stroke: green; stroke-width: 0.200000"/>
   <line x1="981.534119" y1="932.092957" x2="981.534119" y2="936.289368" style="stroke: green; stroke-width: 0.200000"/>
   <line x1="983.534058" y1="919.292358" x2="983.534058" y2="935.914368" style="stroke: green; stroke-width: 0.200000"/>
   <line x1="984.534058" y1="917.199036" x2="984.534058" y2="934.914429" style="stroke: green; stroke-width: 0.200000"/>
   <line x1="985.534119" y1="915.728394" x2="985.534119" y2="933.914307" style="stroke: green; stroke-width: 0.200000"/>
   <line x1="986.534119" y1="914.446777" x2="986.534119" y2="932.914368" style="stroke: green; stroke-width: 0.200000"/>
   <line x1="987.534119" y1="913.371216" x2="987.534119" y2="931.914307" style="stroke: green; stroke-width: 0.200000"/>
   <line x1="988.534058" y1="912.342529" x2="988.534058" y2="930.914246" style="stroke: green; stroke-width: 0.200000"/>
   <line x1="989.534058" y1="911.313843" x2="989.534058" y2="929.914246" style="stroke: green; stroke-width: 0.200000"/>
   <line x1="990.534119" y1="910.285278" x2="990.534119" y2="928.914246" style="stroke: green; stroke-width: 0.200000"/>
   <line x1="991.534119" y1="909.256592" x2="991.534119" y2="927.914307" style="stroke: green; stroke-width: 0.200000"/>
   <line x1="992.534119" y1="908.248291" x2="992.534119" y2="926.914185" style="stroke: green; stroke-width: 0.200000"/>
   <line x1="993.534058" y1="907.335266" x2="993.534058" y2="925.914246" style="stroke: green; stroke-width: 0.200000"/>
   <line x1="994.534058" y1="906.422363" x2="994.534058" y2="924.914246" style="stroke: green; stroke-width: 0.200000"/>
   <line x1="995.534119" y1="905.509399" x2="995.534119" y2="923.914246" style="stroke: green; stroke-width: 0.200000"/>
   <line x1="996.534119" y1="904.596436" x2="996.534119" y2="922.914307" style="stroke: green; stroke-width: 0.200000"/>
   <line x1="997.534119" y1="903.683472" x2="997.534119" y2="921.914185" style="stroke: green; stroke-width: 0.200000"/>
   <line x1="998.534058" y1="902.770508" x2="998.534058" y2="920.914246" style="stroke: green; stroke-width: 0.200000"/>
   <line x1="999.534058" y1="901.961731" x2="999.534058" y2="919.914246" style="stroke: green; stroke-width: 0.200000"/>
   <line x1="1000.534119" y1="901.235107" x2="1000.534119" y2="918.914246" style="stroke: green; stroke-width: 0.200000"/>
   <line x1="1001.534119" y1="900.441956" x2="1001.534119" y2="917.914307" style="stroke: green; stroke-width: 0.200000"/>
   <line x1="1002.534119" y1="899.630005" x2="1002.534119" y2="916.914185" style="stroke: green; stroke-width: 0.200000"/>
   <line x1="1003.534058" y1="898.885742" x2="1003.534058" y2="915.914246" style="stroke: green; stroke-width: 0.200000"/>
   <line x1="1004.534058" y1="898.145996" x2="1004.534058" y2="914.914246" style="stroke: green; stroke-width: 0.200000"/>
   <line x1="1005.534119" y1="897.406311" x2="1005.534119" y2="913.914246" style="stroke: green; stroke-width: 0.200000"/>
   <line x1="1006.534119" y1="896.683838" x2="1006.534119" y2="912.914185" style="stroke: green; stroke-width: 0.200000"/>
   <line x1="1007.534119" y1="896.005005" x2="1007.534119" y2="911.914185" style="stroke: green; stroke-width: 0.200000"/>
   <line x1="1008.534058" y1="895.326233" x2="1008.534058" y2="910.914246" style="stroke: green; stroke-width: 0.200000"/>
   <line x1="1009.534058" y1="894.647522" x2="1009.534058" y2="909.914246" style="stroke: green; stroke-width: 0.200000"/>
   <line x1="1010.534119" y1="893.946289" x2="1010.534119" y2="908.914185" style="stroke: green; stroke-width: 0.200000"/>
   <line x1="1011.534119" y1="893.344360" x2="1011.534119" y2="907.914185" style="stroke: green; stroke-width: 0.200000"/>
   <line x1="1012.534119" y1="892.848389" x2="1012.534119" y2="906.914185" style="stroke: green; stroke-width: 0.200000"/>
   <line x1="1013.534058" y1="892.453918" x2="1013.534058" y2="905.914246" style="stroke: green; stroke-width: 0.200000"/>
   <line x1="1014.534058" y1="892.117432" x2="1014.534058" y2="904.914246" style="stroke: green; stroke-width: 0.200000"/>
   <line x1="1015.534119" y1="891.911987" x2="1015.534119" y2="903.914185" style="stroke: green; stroke-width: 0.200000"/>
   <line x1="1016.534119" y1="891.739197" x2="1016.534119" y2="902.914185" style="stroke: green; stroke-width: 0.200000"/>
   <line x1="1017.534119" y1="891.690979" x2="1017.534119" y2="901.914185" style="stroke: green; stroke-width: 0.200000"/>
   <line x1="1018.534058" y1="891.684082" x2="1018.534058" y2="900.914246" style="stroke: green; stroke-width: 0.200000"/>
   <line x1="1019.534058" y1="891.773682" x2="1019.534058" y2="899.914185" style="stroke: green; stroke-width: 0.200000"/>
   <line x1="1020.534119" y1="891.914551" x2="1020.534119" y2="898.914185" style="stroke: green; stroke-width: 0.200000"/>
   <line x1="1021.534119" y1="892.170166" x2="1021.534119" y2="897.914185" style="stroke: green; stroke-width: 0.200000"/>
   <line x1="1025.534180" y1="894.011719" x2="1025.534180" y2="897.479004" style="stroke: green; stroke-width: 0.200000"/>
   <line x1="1022.534119" y1="892.514587" x2="1022.534119" y2="896.914185" style="stroke: green; stroke-width: 0.200000"/>
   <line x1="1024.534058" y1="893.405029" x2="1024.534058" y2="896.743652" style="stroke: green; stroke-width: 0.200000"/>
   <line x1="1026.534180" y1="894.740967" x2="1026.534180" y2="896.478882" style="stroke: green; stroke-width: 0.200000"/>
   <line x1="1023.534058" y1="892.877747" x2="1023.534058" y2="895.914246" style="stroke: green; stroke-width: 0.200000"/>
   <line x1="981.540771" y1="941.118713" x2="981.540771" y2="941.472473" style="stroke: green; stroke-width: 0.200000"/>
   <line x1="980.540771" y1="940.065002" x2="980.540771" y2="941.332642" style="stroke: green; stroke-width: 0.200000"/>
   <line x1="1025.799316" y1="897.213745" x2="1025.799316" y2="897.213989" style="stroke: green; stroke-width: 0.200000"/>
   <path d="M 1123.65  1011.59  1124.79  1013.44  1126.47  1016.74  1127.63  1020.28  1128.21  1023.89  1128.21  1027.47  1127.65  1030.96  1127.12  1032.68  1126.58  1034.35  1124.99  1037.43  1122.95  1040.15  1122.36  1040.85  1117.01  1046.38  1115.85  1047.54  1114.89  1048.46  1112.51  1050.25  1109.96  1051.8  1107.28  1053.08  1102.73  1055.05  1098.07  1057.24  1096.21  1058.2  1093.5  1059.54  1089.16  1062.01  1085.13  1064.74  1081.38  1067.73  1077.89  1070.96  1074.15  1074.98  1071.39  1077.91  1067.31  1083.09  1065.48  1085.39  1062.8  1089.37  1060.33  1093.54  1058.43  1097.21  1057.1  1099.73  1055.62  1102.15  1053.98  1104.47  1053.2  1105.47  1052.17  1106.66  1049.69  1109.67  1048.11  1111.14  1047.09  1111.94  1045.98  1112.67  1044.79  1113.31  1043.54  1113.88  1042.22  1114.35  1040.85  1114.73  1039.43  1115.01  1037.98  1115.18  1036.5  1115.25  1035.98  1115.23  1034.97  1115.19  1033.44  1115  1031.92  1114.71  1030.42  1114.3  1028.94  1113.77  1022.53  1111.22  1026.76  1106.99  1028.49  1108.05  1037.97  1098.58  1036.37  1097.38  1085.13  1048.62  1086.34  1050.2  1120.24  1016.3  1119.13  1014.62  1123.08  1010.66  1123.65  1011.59  " style="fill: none; stroke: darkmagenta; stroke-width: 0.200000; fill-type: evenodd"  fill-opacity="1.000000" />
   <path d="M 1123.91  1013.93  1125.54  1017.12  1126.66  1020.51  1127.21  1023.97  1127.21  1027.39  1126.67  1030.73  1126.17  1032.38  1125.65  1033.96  1124.14  1036.89  1122.17  1039.53  1121.62  1040.18  1116.3  1045.68  1115.15  1046.82  1114.24  1047.69  1111.94  1049.42  1109.48  1050.92  1106.87  1052.17  1102.32  1054.14  1097.63  1056.34  1095.76  1057.31  1093.03  1058.65  1088.64  1061.16  1084.53  1063.93  1080.73  1066.98  1077.18  1070.25  1073.42  1074.3  1070.63  1077.26  1066.53  1082.47  1064.67  1084.8  1061.96  1088.83  1059.46  1093.05  1057.54  1096.75  1056.23  1099.23  1054.78  1101.6  1053.18  1103.88  1052.43  1104.83  1051.4  1106.02  1048.96  1108.98  1047.46  1110.38  1046.51  1111.12  1045.46  1111.81  1044.35  1112.42  1043.16  1112.95  1041.92  1113.4  1040.62  1113.76  1039.28  1114.02  1037.9  1114.19  1036.49  1114.25  1036.02  1114.24  1035.05  1114.19  1033.6  1114.02  1032.15  1113.73  1030.72  1113.34  1029.29  1112.83  1024.31  1110.85  1026.91  1108.25  1028.64  1109.32  1039.49  1098.47  1037.89  1097.27  1085.03  1050.13  1086.25  1051.71  1121.53  1016.43  1120.41  1014.75  1122.9  1012.27  1123.91  1013.93  " style="fill: none; stroke: black; stroke-width: 0.200000; fill-type: evenodd"  fill-opacity="1.000000" />
   <path d="M 886.573  1038.56  883.392  1041.74  882.873  1041.18  882.06  1040.36  881.066  1039.31  880.187  1038.36  879.888  1037.99  879.69  1037.72  879.192  1036.93  878.978  1036.54  878.459  1035.5  878.218  1034.79  877.803  1033.4  877.515  1031.46  877.495  1030.26  877.505  1029.53  877.579  1028.79  877.786  1027.63  877.999  1026.81  878.156  1026.29  878.366  1025.78  878.719  1025.02  880.111  1022.15  882.651  1017.45  884.258  1015.02  885.515  1013.06  887.306  1010.74  888.656  1008.95  890.129  1007.24  892.029  1005.08  895.518  1001.3  901.345  995.846  903.618  994.144  906.112  992.781  906.443  992.643  909.022  991.745  911.907  991.229  913.71  990.972  921.111  990.099  926.398  989.093  928.001  988.81  929.281  988.643  930.427  988.563  931.37  988.563  931.672  988.589  932.017  988.583  932.907  988.665  933.414  988.74  935.836  989.298  928.901  996.233  " style="fill: none; stroke: darkmagenta; stroke-width: 0.200000; fill-type: evenodd"  fill-opacity="1.000000" />
   <path d="M 928.901  996.233  928.354  996.781  927.283  995.764  " style="fill: none; stroke: red; stroke-width: 0.200000; fill-type: evenodd"  fill-opacity="1.000000" />
   <path d="M 927.283  995.764  926.525  995.045  884.991  1036.58  885.712  1037.33  " style="fill: none; stroke: darkmagenta; stroke-width: 0.200000; fill-type: evenodd"  fill-opacity="1.000000" />
   <path d="M 885.712  1037.33  886.732  1038.4  886.573  1038.56  " style="fill: none; stroke: red; stroke-width: 0.200000; fill-type: evenodd"  fill-opacity="1.000000" />
   <path d="M 931.638  989.59  931.98  989.584  932.787  989.658  933.897  989.823  928.335  995.385  926.506  993.649  883.593  1036.56  885.334  1038.39  883.415  1040.31  882.778  1039.67  881.795  1038.62  880.945  1037.71  880.683  1037.38  880.518  1037.16  880.053  1036.42  879.863  1036.07  879.384  1035.12  879.171  1034.49  878.782  1033.18  878.513  1031.37  878.495  1030.26  878.505  1029.59  878.57  1028.93  878.764  1027.84  878.962  1027.08  879.099  1026.63  879.283  1026.18  879.623  1025.44  881.001  1022.6  883.51  1017.97  885.096  1015.56  886.333  1013.64  888.101  1011.35  889.435  1009.58  890.884  1007.9  892.772  1005.75  896.228  1002.01  901.989  996.613  904.161  994.987  906.545  993.684  906.8  993.578  909.276  992.715  912.066  992.216  913.839  991.964  921.263  991.088  926.578  990.076  928.153  989.799  929.38  989.639  930.462  989.563  931.326  989.563  931.638  989.59  " style="fill: none; stroke: black; stroke-width: 0.200000; fill-type: evenodd"  fill-opacity="1.000000" />
   <path d="M 983.259  941.875  979.495  945.639  979.121  943.346  979.094  942.372  978.979  940.206  979.14  938.45  979.147  937.825  979.307  936.886  979.456  935.667  979.75  933.957  980.271  930.348  980.646  926.406  980.945  923.648  981.42  920.76  982.394  918.023  983.08  916.699  983.854  915.444  985.587  913.222  991.314  907.331  998.025  901.204  999.84  899.885  1001.68  898.392  1005.39  895.651  1009.21  893.057  1010.13  892.385  1011.72  891.553  1012.38  891.302  1012.64  891.175  1014  890.712  1014.46  890.576  1016.44  890.234  1018.19  890.164  1019.14  890.215  1020.62  890.396  1021.69  890.644  1022.52  890.913  1024.23  891.537  1025.65  892.302  1026.17  892.614  1026.64  892.966  1027.03  893.228  1027.41  893.513  1028.24  894.228  1029.08  895.117  1029.23  895.243  1029.45  895.689  1025.83  899.307  " style="fill: none; stroke: darkmagenta; stroke-width: 0.200000; fill-type: evenodd"  fill-opacity="1.000000" />
   <path d="M 1025.83  899.307  1025.45  899.688  1024.38  898.668  " style="fill: none; stroke: red; stroke-width: 0.200000; fill-type: evenodd"  fill-opacity="1.000000" />
   <path d="M 1024.38  898.668  1023.62  897.947  982.071  939.499  982.79  940.257  " style="fill: none; stroke: darkmagenta; stroke-width: 0.200000; fill-type: evenodd"  fill-opacity="1.000000" />
   <path d="M 982.79  940.257  983.807  941.328  983.259  941.875  " style="fill: none; stroke: red; stroke-width: 0.200000; fill-type: evenodd"  fill-opacity="1.000000" />
   <path d="M 1019.05  891.212  1020.45  891.382  1021.42  891.608  1022.19  891.859  1023.82  892.451  1025.15  893.172  1025.61  893.445  1026.05  893.78  1026.45  894.043  1026.78  894.291  1027.54  894.952  1028.14  895.581  1025.43  898.29  1023.61  896.549  980.675  939.48  982.411  941.309  980.128  943.592  980.093  942.331  979.981  940.225  980.105  938.88  980.139  938.501  980.146  937.915  980.297  937.031  980.446  935.813  980.738  934.113  981.264  930.467  981.641  926.507  981.936  923.783  982.392  921.011  983.313  918.423  983.951  917.192  984.676  916.016  986.342  913.88  992.011  908.049  998.658  901.98  1000.45  900.679  1002.29  899.183  1005.96  896.467  1009.78  893.875  1010.66  893.237  1012.14  892.466  1012.78  892.22  1013.02  892.102  1014.3  891.665  1014.69  891.551  1016.54  891.23  1018.19  891.165  1019.05  891.212  " style="fill: none; stroke: black; stroke-width: 0.200000; fill-type: evenodd"  fill-opacity="1.000000" />
   <path d="M 981.504  937.944  980.849  936.704  " style="fill: none; stroke: grey; stroke-width: 0.200000; fill-type: evenodd"  fill-opacity="1.000000" />
</svg>
