<?xml version="1.0" encoding="UTF-8" standalone="yes"?>
<!DOCTYPE svg PUBLIC "-//W3C//DTD SVG 1.0//EN" "http://www.w3.org/TR/2001/REC-SVG-20010904/DTD/svg10.dtd">
<svg height="2000" width="2000" xmlns="http://www.w3.org/2000/svg" xmlns:svg="http://www.w3.org/2000/svg" xmlns:xlink="http://www.w3.org/1999/xlink">
   <marker id="endArrow" markerHeight="8" markerUnits="strokeWidth" markerWidth="10" orient="auto" refX="1" refY="5" viewBox="0 0 1000 1000">
      <polyline fill="darkblue" points="0,0 10,5 0,10 1,5" />
   </marker>
   <circle cx="1000" cy="1000" r="1" style="stroke:black; fill: red" />
   <circle cx="1000" cy="1000" r="800" style="stroke:black; fill: none" />
   <line x1="842.428955" y1="1285.359985" x2="807.094727" y2="1285.359985" style="stroke: green; stroke-width: 0.200000"/>
   <line x1="796.942200" y1="1284.359863" x2="796.344971" y2="1284.359863" style="stroke: green; stroke-width: 0.200000"/>
   <line x1="842.221558" y1="1284.359863" x2="806.445251" y2="1284.359863" style="stroke: green; stroke-width: 0.200000"/>
   <line x1="798.846497" y1="1283.359863" x2="796.591492" y2="1283.359863" style="stroke: green; stroke-width: 0.200000"/>
   <line x1="842.014160" y1="1283.359863" x2="805.795776" y2="1283.359863" style="stroke: green; stroke-width: 0.200000"/>
   <line x1="800.749207" y1="1282.359863" x2="796.838074" y2="1282.359863" style="stroke: green; stroke-width: 0.200000"/>
   <line x1="841.832275" y1="1282.359863" x2="805.146240" y2="1282.359863" style="stroke: green; stroke-width: 0.200000"/>
   <line x1="802.651917" y1="1281.359863" x2="796.940552" y2="1281.359863" style="stroke: green; stroke-width: 0.200000"/>
   <line x1="841.687988" y1="1281.359863" x2="804.496765" y2="1281.359863" style="stroke: green; stroke-width: 0.200000"/>
   <line x1="841.543640" y1="1280.359985" x2="796.892029" y2="1280.359985" style="stroke: green; stroke-width: 0.200000"/>
   <line x1="841.399414" y1="1279.359863" x2="796.843506" y2="1279.359863" style="stroke: green; stroke-width: 0.200000"/>
   <line x1="841.255005" y1="1278.359863" x2="796.795044" y2="1278.359863" style="stroke: green; stroke-width: 0.200000"/>
   <line x1="841.099854" y1="1277.359863" x2="796.746521" y2="1277.359863" style="stroke: green; stroke-width: 0.200000"/>
   <line x1="840.851990" y1="1276.359863" x2="796.697998" y2="1276.359863" style="stroke: green; stroke-width: 0.200000"/>
   <line x1="840.604187" y1="1275.359863" x2="796.649475" y2="1275.359863" style="stroke: green; stroke-width: 0.200000"/>
   <line x1="840.356323" y1="1274.359863" x2="796.601318" y2="1274.359863" style="stroke: green; stroke-width: 0.200000"/>
   <line x1="840.108398" y1="1273.359863" x2="796.552429" y2="1273.359863" style="stroke: green; stroke-width: 0.200000"/>
   <line x1="839.860535" y1="1272.359863" x2="796.489197" y2="1272.359863" style="stroke: green; stroke-width: 0.200000"/>
   <line x1="839.612732" y1="1271.359863" x2="796.388184" y2="1271.359863" style="stroke: green; stroke-width: 0.200000"/>
   <line x1="839.364868" y1="1270.359863" x2="796.286926" y2="1270.359863" style="stroke: green; stroke-width: 0.200000"/>
   <line x1="839.116943" y1="1269.359863" x2="796.291992" y2="1269.359863" style="stroke: green; stroke-width: 0.200000"/>
   <line x1="838.869080" y1="1268.359863" x2="796.582886" y2="1268.359863" style="stroke: green; stroke-width: 0.200000"/>
   <line x1="838.610962" y1="1267.359863" x2="796.873779" y2="1267.359863" style="stroke: green; stroke-width: 0.200000"/>
   <line x1="838.349487" y1="1266.359863" x2="797.164673" y2="1266.359863" style="stroke: green; stroke-width: 0.200000"/>
   <line x1="838.087830" y1="1265.359863" x2="797.455566" y2="1265.359863" style="stroke: green; stroke-width: 0.200000"/>
   <line x1="837.787781" y1="1264.359863" x2="797.746643" y2="1264.359863" style="stroke: green; stroke-width: 0.200000"/>
   <line x1="837.444336" y1="1263.359863" x2="798.037598" y2="1263.359863" style="stroke: green; stroke-width: 0.200000"/>
   <line x1="837.100830" y1="1262.359863" x2="798.328552" y2="1262.359863" style="stroke: green; stroke-width: 0.200000"/>
   <line x1="836.757324" y1="1261.359863" x2="798.619385" y2="1261.359863" style="stroke: green; stroke-width: 0.200000"/>
   <line x1="836.413879" y1="1260.359863" x2="798.893372" y2="1260.359863" style="stroke: green; stroke-width: 0.200000"/>
   <line x1="836.069580" y1="1259.359863" x2="799.091736" y2="1259.359863" style="stroke: green; stroke-width: 0.200000"/>
   <line x1="835.685547" y1="1258.359863" x2="799.290100" y2="1258.359863" style="stroke: green; stroke-width: 0.200000"/>
   <line x1="835.301575" y1="1257.359863" x2="799.488525" y2="1257.359863" style="stroke: green; stroke-width: 0.200000"/>
   <line x1="834.917603" y1="1256.359863" x2="799.798706" y2="1256.359863" style="stroke: green; stroke-width: 0.200000"/>
   <line x1="834.533630" y1="1255.359863" x2="800.344360" y2="1255.359863" style="stroke: green; stroke-width: 0.200000"/>
   <line x1="834.149658" y1="1254.359863" x2="800.889343" y2="1254.359863" style="stroke: green; stroke-width: 0.200000"/>
   <line x1="833.765625" y1="1253.359863" x2="801.434387" y2="1253.359863" style="stroke: green; stroke-width: 0.200000"/>
   <line x1="833.376587" y1="1252.359863" x2="801.979431" y2="1252.359863" style="stroke: green; stroke-width: 0.200000"/>
   <line x1="832.985535" y1="1251.359863" x2="802.524475" y2="1251.359863" style="stroke: green; stroke-width: 0.200000"/>
   <line x1="832.594543" y1="1250.359863" x2="802.975708" y2="1250.359863" style="stroke: green; stroke-width: 0.200000"/>
   <line x1="832.203491" y1="1249.359863" x2="803.397766" y2="1249.359863" style="stroke: green; stroke-width: 0.200000"/>
   <line x1="831.812500" y1="1248.359863" x2="803.819824" y2="1248.359863" style="stroke: green; stroke-width: 0.200000"/>
   <line x1="831.150879" y1="1247.359863" x2="804.241821" y2="1247.359863" style="stroke: green; stroke-width: 0.200000"/>
   <line x1="830.390930" y1="1246.359863" x2="804.663818" y2="1246.359863" style="stroke: green; stroke-width: 0.200000"/>
   <line x1="829.630981" y1="1245.359863" x2="805.273499" y2="1245.359863" style="stroke: green; stroke-width: 0.200000"/>
   <line x1="828.870911" y1="1244.359863" x2="806.388184" y2="1244.359863" style="stroke: green; stroke-width: 0.200000"/>
   <line x1="828.110962" y1="1243.359863" x2="807.502930" y2="1243.359863" style="stroke: green; stroke-width: 0.200000"/>
   <line x1="827.371704" y1="1242.359863" x2="808.543030" y2="1242.359863" style="stroke: green; stroke-width: 0.200000"/>
   <line x1="826.706055" y1="1241.359863" x2="809.391418" y2="1241.359863" style="stroke: green; stroke-width: 0.200000"/>
   <line x1="826.040527" y1="1240.359863" x2="810.239807" y2="1240.359863" style="stroke: green; stroke-width: 0.200000"/>
   <line x1="825.374878" y1="1239.359863" x2="811.088257" y2="1239.359863" style="stroke: green; stroke-width: 0.200000"/>
   <line x1="824.709351" y1="1238.359863" x2="812.742249" y2="1238.359863" style="stroke: green; stroke-width: 0.200000"/>
   <line x1="822.403870" y1="1237.359863" x2="815.460815" y2="1237.359863" style="stroke: green; stroke-width: 0.200000"/>
   <line x1="819.364258" y1="1236.359863" x2="818.106323" y2="1236.359863" style="stroke: green; stroke-width: 0.200000"/>
   <line x1="846.179504" y1="1335.359985" x2="819.961243" y2="1335.359985" style="stroke: green; stroke-width: 0.200000"/>
   <line x1="846.196167" y1="1334.359863" x2="819.586121" y2="1334.359863" style="stroke: green; stroke-width: 0.200000"/>
   <line x1="846.212646" y1="1333.359863" x2="819.210938" y2="1333.359863" style="stroke: green; stroke-width: 0.200000"/>
   <line x1="846.225281" y1="1332.359863" x2="818.835754" y2="1332.359863" style="stroke: green; stroke-width: 0.200000"/>
   <line x1="846.166382" y1="1331.359863" x2="818.460632" y2="1331.359863" style="stroke: green; stroke-width: 0.200000"/>
   <line x1="846.074951" y1="1330.359985" x2="818.085388" y2="1330.359985" style="stroke: green; stroke-width: 0.200000"/>
   <line x1="845.983521" y1="1329.359863" x2="817.694458" y2="1329.359863" style="stroke: green; stroke-width: 0.200000"/>
   <line x1="845.892029" y1="1328.359863" x2="817.328552" y2="1328.359863" style="stroke: green; stroke-width: 0.200000"/>
   <line x1="845.876221" y1="1327.359863" x2="816.962769" y2="1327.359863" style="stroke: green; stroke-width: 0.200000"/>
   <line x1="845.897461" y1="1326.359863" x2="816.596924" y2="1326.359863" style="stroke: green; stroke-width: 0.200000"/>
   <line x1="845.918579" y1="1325.359985" x2="816.231079" y2="1325.359985" style="stroke: green; stroke-width: 0.200000"/>
   <line x1="845.939697" y1="1324.359863" x2="815.865234" y2="1324.359863" style="stroke: green; stroke-width: 0.200000"/>
   <line x1="845.960938" y1="1323.359863" x2="815.499390" y2="1323.359863" style="stroke: green; stroke-width: 0.200000"/>
   <line x1="845.982056" y1="1322.359863" x2="815.133606" y2="1322.359863" style="stroke: green; stroke-width: 0.200000"/>
   <line x1="846.003296" y1="1321.359863" x2="814.767761" y2="1321.359863" style="stroke: green; stroke-width: 0.200000"/>
   <line x1="846.024414" y1="1320.359985" x2="814.401917" y2="1320.359985" style="stroke: green; stroke-width: 0.200000"/>
   <line x1="846.045532" y1="1319.359863" x2="814.036133" y2="1319.359863" style="stroke: green; stroke-width: 0.200000"/>
   <line x1="846.066772" y1="1318.359863" x2="813.561523" y2="1318.359863" style="stroke: green; stroke-width: 0.200000"/>
   <line x1="846.030823" y1="1317.359863" x2="813.081665" y2="1317.359863" style="stroke: green; stroke-width: 0.200000"/>
   <line x1="845.973267" y1="1316.359863" x2="812.626892" y2="1316.359863" style="stroke: green; stroke-width: 0.200000"/>
   <line x1="845.929810" y1="1315.359985" x2="812.258667" y2="1315.359985" style="stroke: green; stroke-width: 0.200000"/>
   <line x1="845.886230" y1="1314.359863" x2="811.890259" y2="1314.359863" style="stroke: green; stroke-width: 0.200000"/>
   <line x1="845.842773" y1="1313.359863" x2="811.521851" y2="1313.359863" style="stroke: green; stroke-width: 0.200000"/>
   <line x1="845.799194" y1="1312.359863" x2="811.153320" y2="1312.359863" style="stroke: green; stroke-width: 0.200000"/>
   <line x1="845.755676" y1="1311.359863" x2="810.784912" y2="1311.359863" style="stroke: green; stroke-width: 0.200000"/>
   <line x1="845.712219" y1="1310.359985" x2="810.379333" y2="1310.359985" style="stroke: green; stroke-width: 0.200000"/>
   <line x1="845.668640" y1="1309.359863" x2="809.872314" y2="1309.359863" style="stroke: green; stroke-width: 0.200000"/>
   <line x1="845.625122" y1="1308.359863" x2="809.365234" y2="1308.359863" style="stroke: green; stroke-width: 0.200000"/>
   <line x1="845.581604" y1="1307.359863" x2="808.858154" y2="1307.359863" style="stroke: green; stroke-width: 0.200000"/>
   <line x1="845.445312" y1="1306.359863" x2="808.351135" y2="1306.359863" style="stroke: green; stroke-width: 0.200000"/>
   <line x1="845.262756" y1="1305.359985" x2="807.843994" y2="1305.359985" style="stroke: green; stroke-width: 0.200000"/>
   <line x1="845.123962" y1="1304.359863" x2="807.336975" y2="1304.359863" style="stroke: green; stroke-width: 0.200000"/>
   <line x1="844.992737" y1="1303.359863" x2="807.327881" y2="1303.359863" style="stroke: green; stroke-width: 0.200000"/>
   <line x1="844.861511" y1="1302.359863" x2="808.731323" y2="1302.359863" style="stroke: green; stroke-width: 0.200000"/>
   <line x1="844.730225" y1="1301.359863" x2="810.135742" y2="1301.359863" style="stroke: green; stroke-width: 0.200000"/>
   <line x1="844.598999" y1="1300.359985" x2="811.540405" y2="1300.359985" style="stroke: green; stroke-width: 0.200000"/>
   <line x1="844.467712" y1="1299.359863" x2="812.944885" y2="1299.359863" style="stroke: green; stroke-width: 0.200000"/>
   <line x1="844.336487" y1="1298.359863" x2="814.348755" y2="1298.359863" style="stroke: green; stroke-width: 0.200000"/>
   <line x1="844.198914" y1="1297.359863" x2="814.889404" y2="1297.359863" style="stroke: green; stroke-width: 0.200000"/>
   <line x1="844.054932" y1="1296.359863" x2="814.239868" y2="1296.359863" style="stroke: green; stroke-width: 0.200000"/>
   <line x1="843.911011" y1="1295.359985" x2="813.590210" y2="1295.359985" style="stroke: green; stroke-width: 0.200000"/>
   <line x1="843.767029" y1="1294.359863" x2="812.940674" y2="1294.359863" style="stroke: green; stroke-width: 0.200000"/>
   <line x1="843.623108" y1="1293.359863" x2="812.291199" y2="1293.359863" style="stroke: green; stroke-width: 0.200000"/>
   <line x1="843.503906" y1="1292.359863" x2="811.641602" y2="1292.359863" style="stroke: green; stroke-width: 0.200000"/>
   <line x1="843.392883" y1="1291.359863" x2="810.992126" y2="1291.359863" style="stroke: green; stroke-width: 0.200000"/>
   <line x1="843.281799" y1="1290.359985" x2="810.342468" y2="1290.359985" style="stroke: green; stroke-width: 0.200000"/>
   <line x1="843.170776" y1="1289.359863" x2="809.692993" y2="1289.359863" style="stroke: green; stroke-width: 0.200000"/>
   <line x1="843.051147" y1="1288.359863" x2="809.043335" y2="1288.359863" style="stroke: green; stroke-width: 0.200000"/>
   <line x1="842.843750" y1="1287.359863" x2="808.393860" y2="1287.359863" style="stroke: green; stroke-width: 0.200000"/>
   <line x1="842.636353" y1="1286.359863" x2="807.744202" y2="1286.359863" style="stroke: green; stroke-width: 0.200000"/>
   <line x1="839.919556" y1="1373.359863" x2="838.307129" y2="1373.359863" style="stroke: green; stroke-width: 0.200000"/>
   <line x1="842.901306" y1="1372.359863" x2="837.349304" y2="1372.359863" style="stroke: green; stroke-width: 0.200000"/>
   <line x1="845.882629" y1="1371.359863" x2="836.391602" y2="1371.359863" style="stroke: green; stroke-width: 0.200000"/>
   <line x1="846.225281" y1="1370.359985" x2="835.433899" y2="1370.359985" style="stroke: green; stroke-width: 0.200000"/>
   <line x1="846.225281" y1="1369.359863" x2="834.476074" y2="1369.359863" style="stroke: green; stroke-width: 0.200000"/>
   <line x1="846.225281" y1="1368.359863" x2="833.518372" y2="1368.359863" style="stroke: green; stroke-width: 0.200000"/>
   <line x1="846.225281" y1="1367.359863" x2="832.560669" y2="1367.359863" style="stroke: green; stroke-width: 0.200000"/>
   <line x1="846.225281" y1="1366.359863" x2="832.071594" y2="1366.359863" style="stroke: green; stroke-width: 0.200000"/>
   <line x1="846.225281" y1="1365.359985" x2="831.646484" y2="1365.359985" style="stroke: green; stroke-width: 0.200000"/>
   <line x1="846.225281" y1="1364.359863" x2="831.221313" y2="1364.359863" style="stroke: green; stroke-width: 0.200000"/>
   <line x1="846.225281" y1="1363.359863" x2="830.796204" y2="1363.359863" style="stroke: green; stroke-width: 0.200000"/>
   <line x1="846.225281" y1="1362.359863" x2="830.389893" y2="1362.359863" style="stroke: green; stroke-width: 0.200000"/>
   <line x1="846.225281" y1="1361.359863" x2="829.991577" y2="1361.359863" style="stroke: green; stroke-width: 0.200000"/>
   <line x1="846.225281" y1="1360.359985" x2="829.593384" y2="1360.359985" style="stroke: green; stroke-width: 0.200000"/>
   <line x1="846.225281" y1="1359.359863" x2="829.195068" y2="1359.359863" style="stroke: green; stroke-width: 0.200000"/>
   <line x1="846.225281" y1="1358.359863" x2="828.796936" y2="1358.359863" style="stroke: green; stroke-width: 0.200000"/>
   <line x1="846.225281" y1="1357.359863" x2="828.431702" y2="1357.359863" style="stroke: green; stroke-width: 0.200000"/>
   <line x1="846.225281" y1="1356.359863" x2="828.066711" y2="1356.359863" style="stroke: green; stroke-width: 0.200000"/>
   <line x1="846.225281" y1="1355.359985" x2="827.701721" y2="1355.359985" style="stroke: green; stroke-width: 0.200000"/>
   <line x1="846.225281" y1="1354.359863" x2="827.336731" y2="1354.359863" style="stroke: green; stroke-width: 0.200000"/>
   <line x1="846.225281" y1="1353.359863" x2="826.971741" y2="1353.359863" style="stroke: green; stroke-width: 0.200000"/>
   <line x1="846.225281" y1="1352.359863" x2="826.606750" y2="1352.359863" style="stroke: green; stroke-width: 0.200000"/>
   <line x1="846.225281" y1="1351.359863" x2="826.241821" y2="1351.359863" style="stroke: green; stroke-width: 0.200000"/>
   <line x1="846.225281" y1="1350.359985" x2="825.876831" y2="1350.359985" style="stroke: green; stroke-width: 0.200000"/>
   <line x1="846.225281" y1="1349.359863" x2="825.511841" y2="1349.359863" style="stroke: green; stroke-width: 0.200000"/>
   <line x1="846.225281" y1="1348.359863" x2="825.136658" y2="1348.359863" style="stroke: green; stroke-width: 0.200000"/>
   <line x1="846.225281" y1="1347.359863" x2="824.756165" y2="1347.359863" style="stroke: green; stroke-width: 0.200000"/>
   <line x1="846.225281" y1="1346.359863" x2="824.356445" y2="1346.359863" style="stroke: green; stroke-width: 0.200000"/>
   <line x1="846.225281" y1="1345.359985" x2="823.939453" y2="1345.359985" style="stroke: green; stroke-width: 0.200000"/>
   <line x1="846.225281" y1="1344.359863" x2="823.522461" y2="1344.359863" style="stroke: green; stroke-width: 0.200000"/>
   <line x1="846.225281" y1="1343.359863" x2="823.105530" y2="1343.359863" style="stroke: green; stroke-width: 0.200000"/>
   <line x1="846.225281" y1="1342.359863" x2="822.688538" y2="1342.359863" style="stroke: green; stroke-width: 0.200000"/>
   <line x1="846.225281" y1="1341.359863" x2="822.271606" y2="1341.359863" style="stroke: green; stroke-width: 0.200000"/>
   <line x1="846.225281" y1="1340.359985" x2="821.854614" y2="1340.359985" style="stroke: green; stroke-width: 0.200000"/>
   <line x1="846.225281" y1="1339.359863" x2="821.462158" y2="1339.359863" style="stroke: green; stroke-width: 0.200000"/>
   <line x1="846.186462" y1="1338.359863" x2="821.086975" y2="1338.359863" style="stroke: green; stroke-width: 0.200000"/>
   <line x1="846.146301" y1="1337.359863" x2="820.711609" y2="1337.359863" style="stroke: green; stroke-width: 0.200000"/>
   <line x1="846.162842" y1="1336.359863" x2="820.336426" y2="1336.359863" style="stroke: green; stroke-width: 0.200000"/>
   <line x1="846.465820" y1="1370.359985" x2="846.325317" y2="1370.359985" style="stroke: green; stroke-width: 0.200000"/>
   <line x1="846.556396" y1="1369.359863" x2="846.325317" y2="1369.359863" style="stroke: green; stroke-width: 0.200000"/>
   <line x1="846.646973" y1="1368.359863" x2="846.325317" y2="1368.359863" style="stroke: green; stroke-width: 0.200000"/>
   <line x1="846.737610" y1="1367.359863" x2="846.325317" y2="1367.359863" style="stroke: green; stroke-width: 0.200000"/>
   <line x1="846.817505" y1="1366.359863" x2="846.325317" y2="1366.359863" style="stroke: green; stroke-width: 0.200000"/>
   <line x1="846.894226" y1="1365.359985" x2="846.325317" y2="1365.359985" style="stroke: green; stroke-width: 0.200000"/>
   <line x1="846.970947" y1="1364.359863" x2="846.325317" y2="1364.359863" style="stroke: green; stroke-width: 0.200000"/>
   <line x1="847.047729" y1="1363.359863" x2="846.325317" y2="1363.359863" style="stroke: green; stroke-width: 0.200000"/>
   <line x1="847.124512" y1="1362.359863" x2="846.325317" y2="1362.359863" style="stroke: green; stroke-width: 0.200000"/>
   <line x1="847.200073" y1="1361.359863" x2="846.325317" y2="1361.359863" style="stroke: green; stroke-width: 0.200000"/>
   <line x1="847.137512" y1="1360.359985" x2="846.325317" y2="1360.359985" style="stroke: green; stroke-width: 0.200000"/>
   <line x1="847.075073" y1="1359.359863" x2="846.325317" y2="1359.359863" style="stroke: green; stroke-width: 0.200000"/>
   <line x1="847.012451" y1="1358.359863" x2="846.325317" y2="1358.359863" style="stroke: green; stroke-width: 0.200000"/>
   <line x1="846.950745" y1="1357.359863" x2="846.325317" y2="1357.359863" style="stroke: green; stroke-width: 0.200000"/>
   <line x1="846.909790" y1="1356.359863" x2="846.325317" y2="1356.359863" style="stroke: green; stroke-width: 0.200000"/>
   <line x1="846.868835" y1="1355.359985" x2="846.325317" y2="1355.359985" style="stroke: green; stroke-width: 0.200000"/>
   <line x1="846.827881" y1="1354.359863" x2="846.325317" y2="1354.359863" style="stroke: green; stroke-width: 0.200000"/>
   <line x1="846.786865" y1="1353.359863" x2="846.325317" y2="1353.359863" style="stroke: green; stroke-width: 0.200000"/>
   <line x1="846.745911" y1="1352.359863" x2="846.325317" y2="1352.359863" style="stroke: green; stroke-width: 0.200000"/>
   <line x1="846.704956" y1="1351.359863" x2="846.325317" y2="1351.359863" style="stroke: green; stroke-width: 0.200000"/>
   <line x1="846.663940" y1="1350.359985" x2="846.325317" y2="1350.359985" style="stroke: green; stroke-width: 0.200000"/>
   <line x1="846.622986" y1="1349.359863" x2="846.325317" y2="1349.359863" style="stroke: green; stroke-width: 0.200000"/>
   <line x1="846.582031" y1="1348.359863" x2="846.325317" y2="1348.359863" style="stroke: green; stroke-width: 0.200000"/>
   <line x1="846.541077" y1="1347.359863" x2="846.325317" y2="1347.359863" style="stroke: green; stroke-width: 0.200000"/>
   <line x1="846.548706" y1="1346.359863" x2="846.325317" y2="1346.359863" style="stroke: green; stroke-width: 0.200000"/>
   <line x1="846.534485" y1="1345.359985" x2="846.325317" y2="1345.359985" style="stroke: green; stroke-width: 0.200000"/>
   <line x1="846.484741" y1="1344.359863" x2="846.325317" y2="1344.359863" style="stroke: green; stroke-width: 0.200000"/>
   <line x1="846.434998" y1="1343.359863" x2="846.325317" y2="1343.359863" style="stroke: green; stroke-width: 0.200000"/>
   <line x1="846.385376" y1="1342.359863" x2="846.325317" y2="1342.359863" style="stroke: green; stroke-width: 0.200000"/>
   <line x1="846.335693" y1="1341.359863" x2="846.325317" y2="1341.359863" style="stroke: green; stroke-width: 0.200000"/>
   <line x1="938.223267" y1="1212.231201" x2="917.209534" y2="1212.231201" style="stroke: green; stroke-width: 0.200000"/>
   <line x1="938.223267" y1="1211.231201" x2="915.801392" y2="1211.231201" style="stroke: green; stroke-width: 0.200000"/>
   <line x1="938.223267" y1="1210.231201" x2="914.410522" y2="1210.231201" style="stroke: green; stroke-width: 0.200000"/>
   <line x1="938.223267" y1="1209.231201" x2="913.023987" y2="1209.231201" style="stroke: green; stroke-width: 0.200000"/>
   <line x1="938.223267" y1="1208.231079" x2="911.637512" y2="1208.231079" style="stroke: green; stroke-width: 0.200000"/>
   <line x1="938.223267" y1="1207.231201" x2="910.250977" y2="1207.231201" style="stroke: green; stroke-width: 0.200000"/>
   <line x1="938.223267" y1="1206.231201" x2="908.969788" y2="1206.231201" style="stroke: green; stroke-width: 0.200000"/>
   <line x1="938.223267" y1="1205.231201" x2="907.707825" y2="1205.231201" style="stroke: green; stroke-width: 0.200000"/>
   <line x1="938.223267" y1="1204.231201" x2="906.445923" y2="1204.231201" style="stroke: green; stroke-width: 0.200000"/>
   <line x1="938.223267" y1="1203.231079" x2="905.183960" y2="1203.231079" style="stroke: green; stroke-width: 0.200000"/>
   <line x1="938.223267" y1="1202.231201" x2="903.922058" y2="1202.231201" style="stroke: green; stroke-width: 0.200000"/>
   <line x1="938.223267" y1="1201.231201" x2="902.951172" y2="1201.231201" style="stroke: green; stroke-width: 0.200000"/>
   <line x1="938.223267" y1="1200.231201" x2="902.040039" y2="1200.231201" style="stroke: green; stroke-width: 0.200000"/>
   <line x1="938.223267" y1="1199.231201" x2="901.128906" y2="1199.231201" style="stroke: green; stroke-width: 0.200000"/>
   <line x1="938.223267" y1="1198.231079" x2="900.217773" y2="1198.231079" style="stroke: green; stroke-width: 0.200000"/>
   <line x1="938.223267" y1="1197.231201" x2="899.306580" y2="1197.231201" style="stroke: green; stroke-width: 0.200000"/>
   <line x1="938.223267" y1="1196.231201" x2="898.395386" y2="1196.231201" style="stroke: green; stroke-width: 0.200000"/>
   <line x1="938.223267" y1="1195.231201" x2="897.381592" y2="1195.231201" style="stroke: green; stroke-width: 0.200000"/>
   <line x1="938.223267" y1="1194.231201" x2="896.305237" y2="1194.231201" style="stroke: green; stroke-width: 0.200000"/>
   <line x1="938.223267" y1="1193.231079" x2="895.561218" y2="1193.231079" style="stroke: green; stroke-width: 0.200000"/>
   <line x1="938.223267" y1="1192.231201" x2="894.817200" y2="1192.231201" style="stroke: green; stroke-width: 0.200000"/>
   <line x1="938.223267" y1="1191.231201" x2="894.073120" y2="1191.231201" style="stroke: green; stroke-width: 0.200000"/>
   <line x1="938.223267" y1="1190.231201" x2="893.329102" y2="1190.231201" style="stroke: green; stroke-width: 0.200000"/>
   <line x1="938.223267" y1="1189.231201" x2="892.585083" y2="1189.231201" style="stroke: green; stroke-width: 0.200000"/>
   <line x1="938.223267" y1="1188.231079" x2="891.839355" y2="1188.231079" style="stroke: green; stroke-width: 0.200000"/>
   <line x1="938.223267" y1="1187.231201" x2="891.007629" y2="1187.231201" style="stroke: green; stroke-width: 0.200000"/>
   <line x1="937.248291" y1="1186.231201" x2="890.377441" y2="1186.231201" style="stroke: green; stroke-width: 0.200000"/>
   <line x1="935.812927" y1="1185.231201" x2="889.964050" y2="1185.231201" style="stroke: green; stroke-width: 0.200000"/>
   <line x1="934.963501" y1="1184.231201" x2="889.550720" y2="1184.231201" style="stroke: green; stroke-width: 0.200000"/>
   <line x1="934.114868" y1="1183.231079" x2="889.137329" y2="1183.231079" style="stroke: green; stroke-width: 0.200000"/>
   <line x1="933.266357" y1="1182.231201" x2="888.723999" y2="1182.231201" style="stroke: green; stroke-width: 0.200000"/>
   <line x1="932.417847" y1="1181.231201" x2="888.511353" y2="1181.231201" style="stroke: green; stroke-width: 0.200000"/>
   <line x1="931.569153" y1="1180.231201" x2="888.365967" y2="1180.231201" style="stroke: green; stroke-width: 0.200000"/>
   <line x1="930.720581" y1="1179.231201" x2="888.226379" y2="1179.231201" style="stroke: green; stroke-width: 0.200000"/>
   <line x1="929.872803" y1="1178.231079" x2="888.388306" y2="1178.231079" style="stroke: green; stroke-width: 0.200000"/>
   <line x1="929.030518" y1="1177.231201" x2="888.550171" y2="1177.231201" style="stroke: green; stroke-width: 0.200000"/>
   <line x1="928.188171" y1="1176.231201" x2="888.712097" y2="1176.231201" style="stroke: green; stroke-width: 0.200000"/>
   <line x1="927.345886" y1="1175.231201" x2="888.873962" y2="1175.231201" style="stroke: green; stroke-width: 0.200000"/>
   <line x1="926.503540" y1="1174.231201" x2="889.035889" y2="1174.231201" style="stroke: green; stroke-width: 0.200000"/>
   <line x1="925.661316" y1="1173.231079" x2="889.197693" y2="1173.231079" style="stroke: green; stroke-width: 0.200000"/>
   <line x1="924.818970" y1="1172.231201" x2="889.359619" y2="1172.231201" style="stroke: green; stroke-width: 0.200000"/>
   <line x1="923.992432" y1="1171.231201" x2="889.521484" y2="1171.231201" style="stroke: green; stroke-width: 0.200000"/>
   <line x1="922.658752" y1="1170.231201" x2="889.852539" y2="1170.231201" style="stroke: green; stroke-width: 0.200000"/>
   <line x1="921.013245" y1="1169.231201" x2="890.939453" y2="1169.231201" style="stroke: green; stroke-width: 0.200000"/>
   <line x1="919.367737" y1="1168.231079" x2="892.037598" y2="1168.231079" style="stroke: green; stroke-width: 0.200000"/>
   <line x1="917.722229" y1="1167.231201" x2="893.135620" y2="1167.231201" style="stroke: green; stroke-width: 0.200000"/>
   <line x1="914.973999" y1="1166.231201" x2="894.233704" y2="1166.231201" style="stroke: green; stroke-width: 0.200000"/>
   <line x1="911.899963" y1="1165.231201" x2="895.331726" y2="1165.231201" style="stroke: green; stroke-width: 0.200000"/>
   <line x1="909.314087" y1="1164.231201" x2="899.931885" y2="1164.231201" style="stroke: green; stroke-width: 0.200000"/>
   <line x1="905.529175" y1="1163.231079" x2="905.330139" y2="1163.231079" style="stroke: green; stroke-width: 0.200000"/>
   <line x1="988.323303" y1="1212.231201" x2="938.323303" y2="1212.231201" style="stroke: green; stroke-width: 0.200000"/>
   <line x1="988.323303" y1="1211.231201" x2="938.323303" y2="1211.231201" style="stroke: green; stroke-width: 0.200000"/>
   <line x1="987.249390" y1="1210.231201" x2="938.323303" y2="1210.231201" style="stroke: green; stroke-width: 0.200000"/>
   <line x1="984.479614" y1="1209.231201" x2="938.323303" y2="1209.231201" style="stroke: green; stroke-width: 0.200000"/>
   <line x1="981.709839" y1="1208.231079" x2="938.323303" y2="1208.231079" style="stroke: green; stroke-width: 0.200000"/>
   <line x1="979.385864" y1="1207.231201" x2="938.323303" y2="1207.231201" style="stroke: green; stroke-width: 0.200000"/>
   <line x1="976.898743" y1="1206.231201" x2="938.323303" y2="1206.231201" style="stroke: green; stroke-width: 0.200000"/>
   <line x1="974.353149" y1="1205.231201" x2="938.323303" y2="1205.231201" style="stroke: green; stroke-width: 0.200000"/>
   <line x1="971.867615" y1="1204.231201" x2="938.323303" y2="1204.231201" style="stroke: green; stroke-width: 0.200000"/>
   <line x1="969.416626" y1="1203.231079" x2="938.323303" y2="1203.231079" style="stroke: green; stroke-width: 0.200000"/>
   <line x1="967.268066" y1="1202.231201" x2="938.323303" y2="1202.231201" style="stroke: green; stroke-width: 0.200000"/>
   <line x1="965.239014" y1="1201.231201" x2="938.323303" y2="1201.231201" style="stroke: green; stroke-width: 0.200000"/>
   <line x1="963.209961" y1="1200.231201" x2="938.323303" y2="1200.231201" style="stroke: green; stroke-width: 0.200000"/>
   <line x1="961.180969" y1="1199.231201" x2="938.323303" y2="1199.231201" style="stroke: green; stroke-width: 0.200000"/>
   <line x1="958.695435" y1="1198.231079" x2="938.323303" y2="1198.231079" style="stroke: green; stroke-width: 0.200000"/>
   <line x1="956.628052" y1="1197.231201" x2="938.323303" y2="1197.231201" style="stroke: green; stroke-width: 0.200000"/>
   <line x1="954.569763" y1="1196.231201" x2="938.323303" y2="1196.231201" style="stroke: green; stroke-width: 0.200000"/>
   <line x1="952.511353" y1="1195.231201" x2="938.323303" y2="1195.231201" style="stroke: green; stroke-width: 0.200000"/>
   <line x1="950.483032" y1="1194.231201" x2="938.323303" y2="1194.231201" style="stroke: green; stroke-width: 0.200000"/>
   <line x1="948.860840" y1="1193.231079" x2="938.323303" y2="1193.231079" style="stroke: green; stroke-width: 0.200000"/>
   <line x1="947.323059" y1="1192.231201" x2="938.323303" y2="1192.231201" style="stroke: green; stroke-width: 0.200000"/>
   <line x1="945.785217" y1="1191.231201" x2="938.323303" y2="1191.231201" style="stroke: green; stroke-width: 0.200000"/>
   <line x1="944.247437" y1="1190.231201" x2="938.323303" y2="1190.231201" style="stroke: green; stroke-width: 0.200000"/>
   <line x1="942.533569" y1="1189.231201" x2="938.323303" y2="1189.231201" style="stroke: green; stroke-width: 0.200000"/>
   <line x1="940.771790" y1="1188.231079" x2="938.323303" y2="1188.231079" style="stroke: green; stroke-width: 0.200000"/>
   <line x1="939.010071" y1="1187.231201" x2="938.323303" y2="1187.231201" style="stroke: green; stroke-width: 0.200000"/>
   <line x1="991.783997" y1="1212.231201" x2="988.423340" y2="1212.231201" style="stroke: green; stroke-width: 0.200000"/>
   <line x1="989.519165" y1="1211.231201" x2="988.423340" y2="1211.231201" style="stroke: green; stroke-width: 0.200000"/>
   <line x1="938.223267" y1="1224.231201" x2="935.923706" y2="1224.231201" style="stroke: green; stroke-width: 0.200000"/>
   <line x1="938.223267" y1="1223.231079" x2="933.991089" y2="1223.231079" style="stroke: green; stroke-width: 0.200000"/>
   <line x1="938.223267" y1="1222.231201" x2="932.263550" y2="1222.231201" style="stroke: green; stroke-width: 0.200000"/>
   <line x1="938.223267" y1="1221.231201" x2="930.653137" y2="1221.231201" style="stroke: green; stroke-width: 0.200000"/>
   <line x1="938.223267" y1="1220.231201" x2="929.136292" y2="1220.231201" style="stroke: green; stroke-width: 0.200000"/>
   <line x1="938.223267" y1="1219.231201" x2="927.619690" y2="1219.231201" style="stroke: green; stroke-width: 0.200000"/>
   <line x1="938.223267" y1="1218.231079" x2="926.103027" y2="1218.231079" style="stroke: green; stroke-width: 0.200000"/>
   <line x1="938.223267" y1="1217.231201" x2="924.561462" y2="1217.231201" style="stroke: green; stroke-width: 0.200000"/>
   <line x1="938.223267" y1="1216.231201" x2="923.011230" y2="1216.231201" style="stroke: green; stroke-width: 0.200000"/>
   <line x1="938.223267" y1="1215.231201" x2="921.461487" y2="1215.231201" style="stroke: green; stroke-width: 0.200000"/>
   <line x1="938.223267" y1="1214.231201" x2="919.911438" y2="1214.231201" style="stroke: green; stroke-width: 0.200000"/>
   <line x1="988.323303" y1="1233.231079" x2="981.800903" y2="1233.231079" style="stroke: green; stroke-width: 0.200000"/>
   <line x1="988.323303" y1="1232.231201" x2="976.228333" y2="1232.231201" style="stroke: green; stroke-width: 0.200000"/>
   <line x1="988.323303" y1="1231.231201" x2="968.299194" y2="1231.231201" style="stroke: green; stroke-width: 0.200000"/>
   <line x1="988.323303" y1="1230.231201" x2="960.529297" y2="1230.231201" style="stroke: green; stroke-width: 0.200000"/>
   <line x1="988.323303" y1="1229.231201" x2="955.044495" y2="1229.231201" style="stroke: green; stroke-width: 0.200000"/>
   <line x1="988.323303" y1="1228.231079" x2="950.291077" y2="1228.231079" style="stroke: green; stroke-width: 0.200000"/>
   <line x1="988.323303" y1="1227.231201" x2="946.011658" y2="1227.231201" style="stroke: green; stroke-width: 0.200000"/>
   <line x1="988.323303" y1="1226.231201" x2="941.724854" y2="1226.231201" style="stroke: green; stroke-width: 0.200000"/>
   <line x1="988.323303" y1="1225.231201" x2="938.693787" y2="1225.231201" style="stroke: green; stroke-width: 0.200000"/>
   <line x1="988.323303" y1="1224.231201" x2="938.323303" y2="1224.231201" style="stroke: green; stroke-width: 0.200000"/>
   <line x1="988.323303" y1="1223.231079" x2="938.323303" y2="1223.231079" style="stroke: green; stroke-width: 0.200000"/>
   <line x1="988.323303" y1="1222.231201" x2="938.323303" y2="1222.231201" style="stroke: green; stroke-width: 0.200000"/>
   <line x1="988.323303" y1="1221.231201" x2="938.323303" y2="1221.231201" style="stroke: green; stroke-width: 0.200000"/>
   <line x1="988.323303" y1="1220.231201" x2="938.323303" y2="1220.231201" style="stroke: green; stroke-width: 0.200000"/>
   <line x1="988.323303" y1="1219.231201" x2="938.323303" y2="1219.231201" style="stroke: green; stroke-width: 0.200000"/>
   <line x1="988.323303" y1="1218.231079" x2="938.323303" y2="1218.231079" style="stroke: green; stroke-width: 0.200000"/>
   <line x1="988.323303" y1="1217.231201" x2="938.323303" y2="1217.231201" style="stroke: green; stroke-width: 0.200000"/>
   <line x1="988.323303" y1="1216.231201" x2="938.323303" y2="1216.231201" style="stroke: green; stroke-width: 0.200000"/>
   <line x1="988.323303" y1="1215.231201" x2="938.323303" y2="1215.231201" style="stroke: green; stroke-width: 0.200000"/>
   <line x1="988.323303" y1="1214.231201" x2="938.323303" y2="1214.231201" style="stroke: green; stroke-width: 0.200000"/>
   <line x1="997.752014" y1="1235.231201" x2="992.886841" y2="1235.231201" style="stroke: green; stroke-width: 0.200000"/>
   <line x1="999.041687" y1="1234.231201" x2="988.423340" y2="1234.231201" style="stroke: green; stroke-width: 0.200000"/>
   <line x1="1000.331482" y1="1233.231079" x2="988.423340" y2="1233.231079" style="stroke: green; stroke-width: 0.200000"/>
   <line x1="1001.621094" y1="1232.231201" x2="988.423340" y2="1232.231201" style="stroke: green; stroke-width: 0.200000"/>
   <line x1="1002.910706" y1="1231.231201" x2="988.423340" y2="1231.231201" style="stroke: green; stroke-width: 0.200000"/>
   <line x1="1004.199341" y1="1230.231201" x2="988.423340" y2="1230.231201" style="stroke: green; stroke-width: 0.200000"/>
   <line x1="1005.490112" y1="1229.231201" x2="988.423340" y2="1229.231201" style="stroke: green; stroke-width: 0.200000"/>
   <line x1="1006.779785" y1="1228.231079" x2="988.423340" y2="1228.231079" style="stroke: green; stroke-width: 0.200000"/>
   <line x1="1008.069519" y1="1227.231201" x2="988.423340" y2="1227.231201" style="stroke: green; stroke-width: 0.200000"/>
   <line x1="1009.499451" y1="1226.231201" x2="988.423340" y2="1226.231201" style="stroke: green; stroke-width: 0.200000"/>
   <line x1="1010.172424" y1="1225.231201" x2="988.423340" y2="1225.231201" style="stroke: green; stroke-width: 0.200000"/>
   <line x1="1009.808716" y1="1224.231201" x2="988.423340" y2="1224.231201" style="stroke: green; stroke-width: 0.200000"/>
   <line x1="1009.444946" y1="1223.231079" x2="988.423340" y2="1223.231079" style="stroke: green; stroke-width: 0.200000"/>
   <line x1="1009.080505" y1="1222.231201" x2="988.423340" y2="1222.231201" style="stroke: green; stroke-width: 0.200000"/>
   <line x1="1008.716736" y1="1221.231201" x2="988.423340" y2="1221.231201" style="stroke: green; stroke-width: 0.200000"/>
   <line x1="1008.077271" y1="1220.231201" x2="988.423340" y2="1220.231201" style="stroke: green; stroke-width: 0.200000"/>
   <line x1="1006.351868" y1="1219.231201" x2="988.423340" y2="1219.231201" style="stroke: green; stroke-width: 0.200000"/>
   <line x1="1004.519348" y1="1218.231079" x2="988.423340" y2="1218.231079" style="stroke: green; stroke-width: 0.200000"/>
   <line x1="1002.466125" y1="1217.231201" x2="988.423340" y2="1217.231201" style="stroke: green; stroke-width: 0.200000"/>
   <line x1="1000.413086" y1="1216.231201" x2="988.423340" y2="1216.231201" style="stroke: green; stroke-width: 0.200000"/>
   <line x1="998.360046" y1="1215.231201" x2="988.423340" y2="1215.231201" style="stroke: green; stroke-width: 0.200000"/>
   <line x1="996.307007" y1="1214.231201" x2="988.423340" y2="1214.231201" style="stroke: green; stroke-width: 0.200000"/>
   <line x1="807.191467" y1="1303.456909" x2="806.879028" y2="1303.456909" style="stroke: green; stroke-width: 0.200000"/>
   <line x1="808.594910" y1="1302.456787" x2="806.503845" y2="1302.456787" style="stroke: green; stroke-width: 0.200000"/>
   <line x1="809.999329" y1="1301.456909" x2="806.078552" y2="1301.456909" style="stroke: green; stroke-width: 0.200000"/>
   <line x1="811.403931" y1="1300.456787" x2="805.429077" y2="1300.456787" style="stroke: green; stroke-width: 0.200000"/>
   <line x1="812.808472" y1="1299.456909" x2="804.779602" y2="1299.456909" style="stroke: green; stroke-width: 0.200000"/>
   <line x1="814.212341" y1="1298.456909" x2="804.099609" y2="1298.456909" style="stroke: green; stroke-width: 0.200000"/>
   <line x1="814.952271" y1="1297.456787" x2="803.321045" y2="1297.456787" style="stroke: green; stroke-width: 0.200000"/>
   <line x1="814.302734" y1="1296.456909" x2="802.542664" y2="1296.456909" style="stroke: green; stroke-width: 0.200000"/>
   <line x1="813.653198" y1="1295.456787" x2="801.764221" y2="1295.456787" style="stroke: green; stroke-width: 0.200000"/>
   <line x1="813.003540" y1="1294.456909" x2="800.985718" y2="1294.456909" style="stroke: green; stroke-width: 0.200000"/>
   <line x1="812.354065" y1="1293.456909" x2="800.495544" y2="1293.456909" style="stroke: green; stroke-width: 0.200000"/>
   <line x1="811.704468" y1="1292.456787" x2="800.082458" y2="1292.456787" style="stroke: green; stroke-width: 0.200000"/>
   <line x1="811.054993" y1="1291.456909" x2="799.644043" y2="1291.456909" style="stroke: green; stroke-width: 0.200000"/>
   <line x1="810.405334" y1="1290.456787" x2="799.083130" y2="1290.456787" style="stroke: green; stroke-width: 0.200000"/>
   <line x1="809.755859" y1="1289.456909" x2="798.522217" y2="1289.456909" style="stroke: green; stroke-width: 0.200000"/>
   <line x1="809.106323" y1="1288.456909" x2="797.961182" y2="1288.456909" style="stroke: green; stroke-width: 0.200000"/>
   <line x1="808.456726" y1="1287.456787" x2="797.400269" y2="1287.456787" style="stroke: green; stroke-width: 0.200000"/>
   <line x1="807.807068" y1="1286.456909" x2="796.839294" y2="1286.456909" style="stroke: green; stroke-width: 0.200000"/>
   <line x1="807.157593" y1="1285.456787" x2="796.278381" y2="1285.456787" style="stroke: green; stroke-width: 0.200000"/>
   <line x1="806.508118" y1="1284.456909" x2="796.757812" y2="1284.456909" style="stroke: green; stroke-width: 0.200000"/>
   <line x1="805.858643" y1="1283.456909" x2="798.662170" y2="1283.456909" style="stroke: green; stroke-width: 0.200000"/>
   <line x1="805.209106" y1="1282.456787" x2="800.564880" y2="1282.456787" style="stroke: green; stroke-width: 0.200000"/>
   <line x1="804.559631" y1="1281.456909" x2="802.467529" y2="1281.456909" style="stroke: green; stroke-width: 0.200000"/>
   <line x1="1012.084106" y1="1239.527344" x2="1010.144592" y2="1239.527344" style="stroke: green; stroke-width: 0.200000"/>
   <line x1="1013.173157" y1="1238.527344" x2="1005.910889" y2="1238.527344" style="stroke: green; stroke-width: 0.200000"/>
   <line x1="1014.241211" y1="1237.527344" x2="1002.686401" y2="1237.527344" style="stroke: green; stroke-width: 0.200000"/>
   <line x1="1015.309204" y1="1236.527344" x2="998.693848" y2="1236.527344" style="stroke: green; stroke-width: 0.200000"/>
   <line x1="1016.377258" y1="1235.527344" x2="997.370117" y2="1235.527344" style="stroke: green; stroke-width: 0.200000"/>
   <line x1="1016.373047" y1="1234.527344" x2="998.659790" y2="1234.527344" style="stroke: green; stroke-width: 0.200000"/>
   <line x1="1015.797607" y1="1233.527344" x2="999.949463" y2="1233.527344" style="stroke: green; stroke-width: 0.200000"/>
   <line x1="1015.255981" y1="1232.527344" x2="1001.239258" y2="1232.527344" style="stroke: green; stroke-width: 0.200000"/>
   <line x1="1014.674744" y1="1231.527344" x2="1002.528809" y2="1231.527344" style="stroke: green; stroke-width: 0.200000"/>
   <line x1="1013.925232" y1="1230.527344" x2="1003.817505" y2="1230.527344" style="stroke: green; stroke-width: 0.200000"/>
   <line x1="1013.175781" y1="1229.527344" x2="1005.108276" y2="1229.527344" style="stroke: green; stroke-width: 0.200000"/>
   <line x1="1012.426392" y1="1228.527344" x2="1006.397827" y2="1228.527344" style="stroke: green; stroke-width: 0.200000"/>
   <line x1="1011.676941" y1="1227.527344" x2="1007.687500" y2="1227.527344" style="stroke: green; stroke-width: 0.200000"/>
   <line x1="1010.927490" y1="1226.527344" x2="1009.044312" y2="1226.527344" style="stroke: green; stroke-width: 0.200000"/>
   <line x1="796.705444" y1="1284.484375" x2="796.704956" y2="1284.484375" style="stroke: green; stroke-width: 0.200000"/>
   <path d="M 840.518  1374.74  838.838  1375.3  838.368  1375.54  837.886  1375.09  831.173  1368.08  829.28  1363.63  827.393  1358.89  823.981  1349.54  823.183  1347.44  820.288  1340.5  816.579  1330.61  816.467  1330.37  812.635  1319.9  811.532  1317.6  " style="fill: none; stroke: darkmagenta; stroke-width: 0.200000; fill-type: evenodd"  fill-opacity="1.000000" />
   <path d="M 811.532  1317.6  811.327  1317.17  809.138  1311.23  805.473  1304  804.862  1302.34  803.061  1299.56  799.513  1295.01  798.388  1292.28  794.539  1285.42  794.782  1284.43  " style="fill: none; stroke: red; stroke-width: 0.200000; fill-type: evenodd"  fill-opacity="1.000000" />
   <path d="M 794.782  1284.43  795.456  1281.7  795.022  1272.75  794.791  1270.47  794.709  1269.43  797.399  1260.19  798.197  1256.17  801.301  1250.47  803.72  1244.74  807.228  1241.59  810.683  1237.52  817.256  1235.1  818.545  1234.5  820.129  1235.04  825.463  1236.79  828.74  1241.71  833.029  1247.35  835.056  1252.54  837.488  1258.87  839.386  1264.4  840.26  1267.74  842.6  1277.18  843.369  1282.51  844.552  1288.21  845.075  1292.92  845.756  1297.65  846.718  1304.98  847.061  1306.86  847.506  1317.08  847.582  1317.63  847.363  1327.98  847.735  1332.04  847.644  1337.48  848.063  1345.9  848.029  1347.04  848.45  1357.32  848.704  1361.38  848.253  1367.26  847.836  1371.86  " style="fill: none; stroke: darkmagenta; stroke-width: 0.200000; fill-type: evenodd"  fill-opacity="1.000000" />
   <path d="M 847.836  1371.86  847.796  1372.3  840.518  1374.74  " style="fill: none; stroke: red; stroke-width: 0.200000; fill-type: evenodd"  fill-opacity="1.000000" />
   <path d="M 800.164  1293.96  799.29  1291.85  795.605  1285.28  796.462  1281.8  796.019  1272.67  795.787  1270.38  795.721  1269.54  798.372  1260.42  799.148  1256.51  802.203  1250.91  804.555  1245.33  807.946  1242.29  811.275  1238.37  817.64  1236.03  818.605  1235.58  819.813  1235.98  824.822  1237.63  827.925  1242.29  832.148  1247.85  834.124  1252.9  836.548  1259.21  838.428  1264.69  839.291  1267.99  841.617  1277.37  842.383  1282.68  843.564  1288.37  844.083  1293.05  844.766  1297.79  845.73  1305.13  846.065  1306.97  846.509  1317.17  846.581  1317.69  846.362  1328.02  846.734  1332.08  846.644  1337.5  847.062  1345.91  847.029  1347.05  847.452  1357.37  847.702  1361.37  847.257  1367.17  846.859  1371.56  838.557  1374.34  832.021  1367.52  830.205  1363.25  828.327  1358.53  824.918  1349.19  824.112  1347.07  821.218  1340.13  817.503  1330.23  817.393  1329.99  813.558  1319.51  812.249  1316.78  810.056  1310.83  806.392  1303.6  805.762  1301.89  803.876  1298.98  801.151  1295.48  " style="fill: none; stroke: black; stroke-width: 0.200000; fill-type: evenodd"  fill-opacity="1.000000" />
   <path d="M 801.151  1295.48  800.385  1294.5  800.164  1293.96  " style="fill: none; stroke: red; stroke-width: 0.200000; fill-type: evenodd"  fill-opacity="1.000000" />
   <path d="M 960.768  1231.82  958.811  1231.4  951.503  1230.15  949.881  1229.67  941.314  1227.68  935.798  1225.85  932.631  1224.22  930.111  1222.67  924.9  1219.23  918.668  1215.21  916.616  1213.65  914.646  1212.25  909.131  1208.27  902.681  1203.16  896.964  1196.89  895.2  1195.26  890.676  1189.18  889.278  1187.5  887.163  1182.38  886.706  1179.24  888.237  1169.78  888.844  1169.11  894.643  1163.83  898.486  1162.97  905.483  1161.68  909.154  1162.56  912.751  1163.95  917.907  1165.59  924.426  1169.55  924.983  1170.07  925.453  1170.66  931.135  1177.4  936.875  1184.17  937.4  1184.61  937.755  1184.79  944.698  1188.74  950.79  1192.7  951.495  1193.07  959.252  1196.84  961.467  1197.7  969.572  1201.69  970.345  1201.97  973.377  1203.24  979.622  1205.69  981.611  1206.6  987.835  1208.85  996.856  1212.83  1005.89  1217.23  1009.65  1219.41  1011.71  1225.07  1016.08  1230.91  1017.42  1233.37  1017.52  1233.54  " style="fill: none; stroke: darkmagenta; stroke-width: 0.200000; fill-type: evenodd"  fill-opacity="1.000000" />
   <path d="M 1017.52  1233.54  1018.7  1235.41  1013.18  1240.58  1011.98  1241.5  1005.32  1239.93  1000.82  1238.51  995.556  1237.39  989.21  1235.91  987.227  1235.55  981.595  1234.72  975.935  1233.7  968.409  1232.75  961.824  1232.04  960.768  1231.82  " style="fill: none; stroke: red; stroke-width: 0.200000; fill-type: evenodd"  fill-opacity="1.000000" />
   <path d="M 1009.02  1239.78  1005.58  1238.96  1001.08  1237.54  995.774  1236.42  989.412  1234.93  987.39  1234.57  981.757  1233.73  976.086  1232.71  968.525  1231.76  961.983  1231.06  959.001  1230.41  951.728  1229.17  950.135  1228.71  941.585  1226.71  936.187  1224.93  933.123  1223.34  930.648  1221.83  925.446  1218.4  919.243  1214.39  917.209  1212.84  915.228  1211.44  909.735  1207.48  903.365  1202.43  897.674  1196.18  895.947  1194.59  891.462  1188.56  890.144  1186.97  888.135  1182.11  887.718  1179.25  889.177  1170.23  889.552  1169.82  895.12  1164.75  898.686  1163.95  905.456  1162.7  908.855  1163.52  912.42  1164.9  917.49  1166.51  923.82  1170.35  924.248  1170.75  924.68  1171.29  930.371  1178.05  936.165  1184.87  936.84  1185.45  937.279  1185.67  944.178  1189.59  950.282  1193.56  951.042  1193.96  958.851  1197.76  961.063  1198.62  969.182  1202.62  969.984  1202.9  973.001  1204.16  979.23  1206.61  981.232  1207.53  987.463  1209.78  996.435  1213.74  1005.42  1218.12  1008.83  1220.09  1010.82  1225.55  1015.24  1231.45  1016.55  1233.87  1016.68  1234.08  " style="fill: none; stroke: black; stroke-width: 0.200000; fill-type: evenodd"  fill-opacity="1.000000" />
   <path d="M 1016.68  1234.08  1017.41  1235.24  1012.53  1239.81  1011.75  1240.42  1009.02  1239.78  " style="fill: none; stroke: red; stroke-width: 0.200000; fill-type: evenodd"  fill-opacity="1.000000" />
</svg>
