<?xml version="1.0" encoding="UTF-8" standalone="yes"?>
<!DOCTYPE svg PUBLIC "-//W3C//DTD SVG 1.0//EN" "http://www.w3.org/TR/2001/REC-SVG-20010904/DTD/svg10.dtd">
<svg height="2000" width="2000" xmlns="http://www.w3.org/2000/svg" xmlns:svg="http://www.w3.org/2000/svg" xmlns:xlink="http://www.w3.org/1999/xlink">
   <marker id="endArrow" markerHeight="8" markerUnits="strokeWidth" markerWidth="10" orient="auto" refX="1" refY="5" viewBox="0 0 1000 1000">
      <polyline fill="darkblue" points="0,0 10,5 0,10 1,5" />
   </marker>
   <circle cx="1000" cy="1000" r="1" style="stroke:black; fill: red" />
   <circle cx="1000" cy="1000" r="800" style="stroke:black; fill: none" />
   <line x1="839.602722" y1="1311.458252" x2="798.585938" y2="1311.458252" style="stroke: green; stroke-width: 0.200000"/>
   <line x1="839.325562" y1="1310.458252" x2="797.699890" y2="1310.458252" style="stroke: green; stroke-width: 0.200000"/>
   <line x1="839.076050" y1="1309.458252" x2="797.109375" y2="1309.458252" style="stroke: green; stroke-width: 0.200000"/>
   <line x1="838.879456" y1="1308.458252" x2="796.649475" y2="1308.458252" style="stroke: green; stroke-width: 0.200000"/>
   <line x1="838.682800" y1="1307.458374" x2="796.189880" y2="1307.458374" style="stroke: green; stroke-width: 0.200000"/>
   <line x1="838.445190" y1="1306.458252" x2="795.730286" y2="1306.458252" style="stroke: green; stroke-width: 0.200000"/>
   <line x1="838.204712" y1="1305.458252" x2="795.270691" y2="1305.458252" style="stroke: green; stroke-width: 0.200000"/>
   <line x1="837.964233" y1="1304.458252" x2="794.811279" y2="1304.458252" style="stroke: green; stroke-width: 0.200000"/>
   <line x1="837.723755" y1="1303.458252" x2="794.351501" y2="1303.458252" style="stroke: green; stroke-width: 0.200000"/>
   <line x1="837.483276" y1="1302.458374" x2="793.891907" y2="1302.458374" style="stroke: green; stroke-width: 0.200000"/>
   <line x1="837.242737" y1="1301.458252" x2="793.432129" y2="1301.458252" style="stroke: green; stroke-width: 0.200000"/>
   <line x1="837.002258" y1="1300.458252" x2="793.207153" y2="1300.458252" style="stroke: green; stroke-width: 0.200000"/>
   <line x1="836.761780" y1="1299.458252" x2="793.483215" y2="1299.458252" style="stroke: green; stroke-width: 0.200000"/>
   <line x1="836.568359" y1="1298.458252" x2="793.767456" y2="1298.458252" style="stroke: green; stroke-width: 0.200000"/>
   <line x1="836.355286" y1="1297.458374" x2="794.052124" y2="1297.458374" style="stroke: green; stroke-width: 0.200000"/>
   <line x1="836.135864" y1="1296.458252" x2="794.336792" y2="1296.458252" style="stroke: green; stroke-width: 0.200000"/>
   <line x1="835.881958" y1="1295.458252" x2="794.621460" y2="1295.458252" style="stroke: green; stroke-width: 0.200000"/>
   <line x1="835.595703" y1="1294.458252" x2="794.905640" y2="1294.458252" style="stroke: green; stroke-width: 0.200000"/>
   <line x1="835.309387" y1="1293.458252" x2="795.190308" y2="1293.458252" style="stroke: green; stroke-width: 0.200000"/>
   <line x1="835.023132" y1="1292.458374" x2="795.474854" y2="1292.458374" style="stroke: green; stroke-width: 0.200000"/>
   <line x1="834.736816" y1="1291.458252" x2="795.759521" y2="1291.458252" style="stroke: green; stroke-width: 0.200000"/>
   <line x1="834.450562" y1="1290.458252" x2="795.936646" y2="1290.458252" style="stroke: green; stroke-width: 0.200000"/>
   <line x1="834.164307" y1="1289.458252" x2="796.082397" y2="1289.458252" style="stroke: green; stroke-width: 0.200000"/>
   <line x1="833.877930" y1="1288.458252" x2="796.228149" y2="1288.458252" style="stroke: green; stroke-width: 0.200000"/>
   <line x1="833.591675" y1="1287.458374" x2="796.668579" y2="1287.458374" style="stroke: green; stroke-width: 0.200000"/>
   <line x1="833.305420" y1="1286.458252" x2="797.144165" y2="1286.458252" style="stroke: green; stroke-width: 0.200000"/>
   <line x1="833.019104" y1="1285.458252" x2="797.619019" y2="1285.458252" style="stroke: green; stroke-width: 0.200000"/>
   <line x1="832.732849" y1="1284.458252" x2="798.093872" y2="1284.458252" style="stroke: green; stroke-width: 0.200000"/>
   <line x1="832.446533" y1="1283.458252" x2="798.568787" y2="1283.458252" style="stroke: green; stroke-width: 0.200000"/>
   <line x1="832.160278" y1="1282.458374" x2="799.043640" y2="1282.458374" style="stroke: green; stroke-width: 0.200000"/>
   <line x1="831.822571" y1="1281.458252" x2="799.518494" y2="1281.458252" style="stroke: green; stroke-width: 0.200000"/>
   <line x1="831.413086" y1="1280.458252" x2="799.938599" y2="1280.458252" style="stroke: green; stroke-width: 0.200000"/>
   <line x1="831.003662" y1="1279.458252" x2="800.292664" y2="1279.458252" style="stroke: green; stroke-width: 0.200000"/>
   <line x1="830.594177" y1="1278.458252" x2="800.646667" y2="1278.458252" style="stroke: green; stroke-width: 0.200000"/>
   <line x1="830.184692" y1="1277.458252" x2="801.000732" y2="1277.458252" style="stroke: green; stroke-width: 0.200000"/>
   <line x1="829.775269" y1="1276.458252" x2="801.354736" y2="1276.458252" style="stroke: green; stroke-width: 0.200000"/>
   <line x1="829.365784" y1="1275.458252" x2="801.896118" y2="1275.458252" style="stroke: green; stroke-width: 0.200000"/>
   <line x1="828.956238" y1="1274.458252" x2="802.658630" y2="1274.458252" style="stroke: green; stroke-width: 0.200000"/>
   <line x1="828.528564" y1="1273.458252" x2="803.421021" y2="1273.458252" style="stroke: green; stroke-width: 0.200000"/>
   <line x1="828.052856" y1="1272.458252" x2="804.183472" y2="1272.458252" style="stroke: green; stroke-width: 0.200000"/>
   <line x1="827.576965" y1="1271.458252" x2="804.937195" y2="1271.458252" style="stroke: green; stroke-width: 0.200000"/>
   <line x1="827.101196" y1="1270.458252" x2="805.589722" y2="1270.458252" style="stroke: green; stroke-width: 0.200000"/>
   <line x1="826.625366" y1="1269.458252" x2="806.242188" y2="1269.458252" style="stroke: green; stroke-width: 0.200000"/>
   <line x1="826.149597" y1="1268.458252" x2="806.894653" y2="1268.458252" style="stroke: green; stroke-width: 0.200000"/>
   <line x1="825.673828" y1="1267.458252" x2="807.547119" y2="1267.458252" style="stroke: green; stroke-width: 0.200000"/>
   <line x1="825.197998" y1="1266.458252" x2="808.199585" y2="1266.458252" style="stroke: green; stroke-width: 0.200000"/>
   <line x1="823.561035" y1="1265.458252" x2="810.002197" y2="1265.458252" style="stroke: green; stroke-width: 0.200000"/>
   <line x1="821.770691" y1="1264.458252" x2="811.883850" y2="1264.458252" style="stroke: green; stroke-width: 0.200000"/>
   <line x1="819.980469" y1="1263.458252" x2="813.765564" y2="1263.458252" style="stroke: green; stroke-width: 0.200000"/>
   <line x1="818.190186" y1="1262.458252" x2="815.248352" y2="1262.458252" style="stroke: green; stroke-width: 0.200000"/>
   <line x1="843.128052" y1="1361.458252" x2="829.320801" y2="1361.458252" style="stroke: green; stroke-width: 0.200000"/>
   <line x1="843.128052" y1="1360.458252" x2="828.873047" y2="1360.458252" style="stroke: green; stroke-width: 0.200000"/>
   <line x1="843.128052" y1="1359.458252" x2="828.430786" y2="1359.458252" style="stroke: green; stroke-width: 0.200000"/>
   <line x1="843.128052" y1="1358.458252" x2="827.988403" y2="1358.458252" style="stroke: green; stroke-width: 0.200000"/>
   <line x1="843.128052" y1="1357.458374" x2="827.546021" y2="1357.458374" style="stroke: green; stroke-width: 0.200000"/>
   <line x1="843.128052" y1="1356.458252" x2="827.103638" y2="1356.458252" style="stroke: green; stroke-width: 0.200000"/>
   <line x1="843.128052" y1="1355.458252" x2="826.661316" y2="1355.458252" style="stroke: green; stroke-width: 0.200000"/>
   <line x1="843.128052" y1="1354.458252" x2="826.219116" y2="1354.458252" style="stroke: green; stroke-width: 0.200000"/>
   <line x1="843.128052" y1="1353.458252" x2="825.708313" y2="1353.458252" style="stroke: green; stroke-width: 0.200000"/>
   <line x1="843.128052" y1="1352.458374" x2="825.187622" y2="1352.458374" style="stroke: green; stroke-width: 0.200000"/>
   <line x1="843.128052" y1="1351.458252" x2="824.644409" y2="1351.458252" style="stroke: green; stroke-width: 0.200000"/>
   <line x1="843.128052" y1="1350.458252" x2="824.086060" y2="1350.458252" style="stroke: green; stroke-width: 0.200000"/>
   <line x1="843.128052" y1="1349.458252" x2="823.539368" y2="1349.458252" style="stroke: green; stroke-width: 0.200000"/>
   <line x1="843.128052" y1="1348.458252" x2="823.008118" y2="1348.458252" style="stroke: green; stroke-width: 0.200000"/>
   <line x1="843.128052" y1="1347.458374" x2="822.476868" y2="1347.458374" style="stroke: green; stroke-width: 0.200000"/>
   <line x1="843.128052" y1="1346.458252" x2="821.945557" y2="1346.458252" style="stroke: green; stroke-width: 0.200000"/>
   <line x1="843.128052" y1="1345.458252" x2="821.414307" y2="1345.458252" style="stroke: green; stroke-width: 0.200000"/>
   <line x1="843.128052" y1="1344.458252" x2="820.883118" y2="1344.458252" style="stroke: green; stroke-width: 0.200000"/>
   <line x1="843.128052" y1="1343.458252" x2="820.351807" y2="1343.458252" style="stroke: green; stroke-width: 0.200000"/>
   <line x1="843.128052" y1="1342.458374" x2="819.821228" y2="1342.458374" style="stroke: green; stroke-width: 0.200000"/>
   <line x1="843.128052" y1="1341.458252" x2="819.353271" y2="1341.458252" style="stroke: green; stroke-width: 0.200000"/>
   <line x1="843.128052" y1="1340.458252" x2="818.885498" y2="1340.458252" style="stroke: green; stroke-width: 0.200000"/>
   <line x1="843.128052" y1="1339.458252" x2="818.417725" y2="1339.458252" style="stroke: green; stroke-width: 0.200000"/>
   <line x1="843.128052" y1="1338.458252" x2="817.949951" y2="1338.458252" style="stroke: green; stroke-width: 0.200000"/>
   <line x1="843.128052" y1="1337.458374" x2="817.482239" y2="1337.458374" style="stroke: green; stroke-width: 0.200000"/>
   <line x1="843.128052" y1="1336.458252" x2="817.014465" y2="1336.458252" style="stroke: green; stroke-width: 0.200000"/>
   <line x1="843.128052" y1="1335.458252" x2="816.445190" y2="1335.458252" style="stroke: green; stroke-width: 0.200000"/>
   <line x1="843.128052" y1="1334.458252" x2="815.815308" y2="1334.458252" style="stroke: green; stroke-width: 0.200000"/>
   <line x1="843.128052" y1="1333.458252" x2="815.176025" y2="1333.458252" style="stroke: green; stroke-width: 0.200000"/>
   <line x1="843.128052" y1="1332.458374" x2="814.464600" y2="1332.458374" style="stroke: green; stroke-width: 0.200000"/>
   <line x1="843.128052" y1="1331.458252" x2="813.753052" y2="1331.458252" style="stroke: green; stroke-width: 0.200000"/>
   <line x1="843.128052" y1="1330.458252" x2="813.143860" y2="1330.458252" style="stroke: green; stroke-width: 0.200000"/>
   <line x1="843.128052" y1="1329.458252" x2="812.546448" y2="1329.458252" style="stroke: green; stroke-width: 0.200000"/>
   <line x1="843.128052" y1="1328.458252" x2="811.949158" y2="1328.458252" style="stroke: green; stroke-width: 0.200000"/>
   <line x1="843.128052" y1="1327.458374" x2="811.351868" y2="1327.458374" style="stroke: green; stroke-width: 0.200000"/>
   <line x1="843.075500" y1="1326.458252" x2="810.754456" y2="1326.458252" style="stroke: green; stroke-width: 0.200000"/>
   <line x1="842.867920" y1="1325.458252" x2="810.157166" y2="1325.458252" style="stroke: green; stroke-width: 0.200000"/>
   <line x1="842.660278" y1="1324.458252" x2="809.496155" y2="1324.458252" style="stroke: green; stroke-width: 0.200000"/>
   <line x1="842.452698" y1="1323.458252" x2="808.695801" y2="1323.458252" style="stroke: green; stroke-width: 0.200000"/>
   <line x1="842.245178" y1="1322.458374" x2="807.895508" y2="1322.458374" style="stroke: green; stroke-width: 0.200000"/>
   <line x1="842.037476" y1="1321.458252" x2="807.095276" y2="1321.458252" style="stroke: green; stroke-width: 0.200000"/>
   <line x1="841.840515" y1="1320.458252" x2="806.294800" y2="1320.458252" style="stroke: green; stroke-width: 0.200000"/>
   <line x1="841.680237" y1="1319.458252" x2="805.494446" y2="1319.458252" style="stroke: green; stroke-width: 0.200000"/>
   <line x1="841.519897" y1="1318.458252" x2="804.694153" y2="1318.458252" style="stroke: green; stroke-width: 0.200000"/>
   <line x1="841.265747" y1="1317.458374" x2="803.893799" y2="1317.458374" style="stroke: green; stroke-width: 0.200000"/>
   <line x1="840.988647" y1="1316.458252" x2="803.016479" y2="1316.458252" style="stroke: green; stroke-width: 0.200000"/>
   <line x1="840.711426" y1="1315.458252" x2="802.130249" y2="1315.458252" style="stroke: green; stroke-width: 0.200000"/>
   <line x1="840.434265" y1="1314.458252" x2="801.244202" y2="1314.458252" style="stroke: green; stroke-width: 0.200000"/>
   <line x1="840.157104" y1="1313.458252" x2="800.358154" y2="1313.458252" style="stroke: green; stroke-width: 0.200000"/>
   <line x1="839.879883" y1="1312.458374" x2="799.472046" y2="1312.458374" style="stroke: green; stroke-width: 0.200000"/>
   <line x1="848.532593" y1="1361.458252" x2="843.228027" y2="1361.458252" style="stroke: green; stroke-width: 0.200000"/>
   <line x1="848.424133" y1="1360.458252" x2="843.228027" y2="1360.458252" style="stroke: green; stroke-width: 0.200000"/>
   <line x1="848.315735" y1="1359.458252" x2="843.228027" y2="1359.458252" style="stroke: green; stroke-width: 0.200000"/>
   <line x1="848.207336" y1="1358.458252" x2="843.228027" y2="1358.458252" style="stroke: green; stroke-width: 0.200000"/>
   <line x1="848.098999" y1="1357.458374" x2="843.228027" y2="1357.458374" style="stroke: green; stroke-width: 0.200000"/>
   <line x1="847.984741" y1="1356.458252" x2="843.228027" y2="1356.458252" style="stroke: green; stroke-width: 0.200000"/>
   <line x1="847.853882" y1="1355.458252" x2="843.228027" y2="1355.458252" style="stroke: green; stroke-width: 0.200000"/>
   <line x1="847.723022" y1="1354.458252" x2="843.228027" y2="1354.458252" style="stroke: green; stroke-width: 0.200000"/>
   <line x1="847.592163" y1="1353.458252" x2="843.228027" y2="1353.458252" style="stroke: green; stroke-width: 0.200000"/>
   <line x1="847.461426" y1="1352.458374" x2="843.228027" y2="1352.458374" style="stroke: green; stroke-width: 0.200000"/>
   <line x1="847.330383" y1="1351.458252" x2="843.228027" y2="1351.458252" style="stroke: green; stroke-width: 0.200000"/>
   <line x1="847.199585" y1="1350.458252" x2="843.228027" y2="1350.458252" style="stroke: green; stroke-width: 0.200000"/>
   <line x1="847.068604" y1="1349.458252" x2="843.228027" y2="1349.458252" style="stroke: green; stroke-width: 0.200000"/>
   <line x1="846.937805" y1="1348.458252" x2="843.228027" y2="1348.458252" style="stroke: green; stroke-width: 0.200000"/>
   <line x1="846.691345" y1="1347.458374" x2="843.228027" y2="1347.458374" style="stroke: green; stroke-width: 0.200000"/>
   <line x1="846.506836" y1="1346.458252" x2="843.228027" y2="1346.458252" style="stroke: green; stroke-width: 0.200000"/>
   <line x1="846.357727" y1="1345.458252" x2="843.228027" y2="1345.458252" style="stroke: green; stroke-width: 0.200000"/>
   <line x1="846.208740" y1="1344.458252" x2="843.228027" y2="1344.458252" style="stroke: green; stroke-width: 0.200000"/>
   <line x1="846.047668" y1="1343.458252" x2="843.228027" y2="1343.458252" style="stroke: green; stroke-width: 0.200000"/>
   <line x1="845.885010" y1="1342.458374" x2="843.228027" y2="1342.458374" style="stroke: green; stroke-width: 0.200000"/>
   <line x1="845.722412" y1="1341.458252" x2="843.228027" y2="1341.458252" style="stroke: green; stroke-width: 0.200000"/>
   <line x1="845.559753" y1="1340.458252" x2="843.228027" y2="1340.458252" style="stroke: green; stroke-width: 0.200000"/>
   <line x1="845.397217" y1="1339.458252" x2="843.228027" y2="1339.458252" style="stroke: green; stroke-width: 0.200000"/>
   <line x1="845.234497" y1="1338.458252" x2="843.228027" y2="1338.458252" style="stroke: green; stroke-width: 0.200000"/>
   <line x1="845.071960" y1="1337.458374" x2="843.228027" y2="1337.458374" style="stroke: green; stroke-width: 0.200000"/>
   <line x1="844.909302" y1="1336.458252" x2="843.228027" y2="1336.458252" style="stroke: green; stroke-width: 0.200000"/>
   <line x1="844.821838" y1="1335.458252" x2="843.228027" y2="1335.458252" style="stroke: green; stroke-width: 0.200000"/>
   <line x1="844.757080" y1="1334.458252" x2="843.228027" y2="1334.458252" style="stroke: green; stroke-width: 0.200000"/>
   <line x1="844.692383" y1="1333.458252" x2="843.228027" y2="1333.458252" style="stroke: green; stroke-width: 0.200000"/>
   <line x1="844.534668" y1="1332.458374" x2="843.228027" y2="1332.458374" style="stroke: green; stroke-width: 0.200000"/>
   <line x1="844.290283" y1="1331.458252" x2="843.228027" y2="1331.458252" style="stroke: green; stroke-width: 0.200000"/>
   <line x1="844.045959" y1="1330.458252" x2="843.228027" y2="1330.458252" style="stroke: green; stroke-width: 0.200000"/>
   <line x1="843.801514" y1="1329.458252" x2="843.228027" y2="1329.458252" style="stroke: green; stroke-width: 0.200000"/>
   <line x1="843.557129" y1="1328.458252" x2="843.228027" y2="1328.458252" style="stroke: green; stroke-width: 0.200000"/>
   <line x1="843.312683" y1="1327.458374" x2="843.228027" y2="1327.458374" style="stroke: green; stroke-width: 0.200000"/>
   <line x1="843.128052" y1="1376.458252" x2="839.231262" y2="1376.458252" style="stroke: green; stroke-width: 0.200000"/>
   <line x1="843.128052" y1="1375.458252" x2="838.294189" y2="1375.458252" style="stroke: green; stroke-width: 0.200000"/>
   <line x1="843.128052" y1="1374.458252" x2="837.357239" y2="1374.458252" style="stroke: green; stroke-width: 0.200000"/>
   <line x1="843.128052" y1="1373.458252" x2="836.420288" y2="1373.458252" style="stroke: green; stroke-width: 0.200000"/>
   <line x1="843.128052" y1="1372.458374" x2="835.483337" y2="1372.458374" style="stroke: green; stroke-width: 0.200000"/>
   <line x1="843.128052" y1="1371.458252" x2="834.546387" y2="1371.458252" style="stroke: green; stroke-width: 0.200000"/>
   <line x1="843.128052" y1="1370.458252" x2="833.609314" y2="1370.458252" style="stroke: green; stroke-width: 0.200000"/>
   <line x1="843.128052" y1="1369.458252" x2="833.085205" y2="1369.458252" style="stroke: green; stroke-width: 0.200000"/>
   <line x1="843.128052" y1="1368.458252" x2="832.603088" y2="1368.458252" style="stroke: green; stroke-width: 0.200000"/>
   <line x1="843.128052" y1="1367.458374" x2="832.121033" y2="1367.458374" style="stroke: green; stroke-width: 0.200000"/>
   <line x1="843.128052" y1="1366.458252" x2="831.639038" y2="1366.458252" style="stroke: green; stroke-width: 0.200000"/>
   <line x1="843.128052" y1="1365.458252" x2="831.156982" y2="1365.458252" style="stroke: green; stroke-width: 0.200000"/>
   <line x1="843.128052" y1="1364.458252" x2="830.690002" y2="1364.458252" style="stroke: green; stroke-width: 0.200000"/>
   <line x1="843.128052" y1="1363.458252" x2="830.233521" y2="1363.458252" style="stroke: green; stroke-width: 0.200000"/>
   <line x1="843.128052" y1="1362.458374" x2="829.777222" y2="1362.458374" style="stroke: green; stroke-width: 0.200000"/>
   <line x1="848.786316" y1="1376.458252" x2="843.228027" y2="1376.458252" style="stroke: green; stroke-width: 0.200000"/>
   <line x1="848.827515" y1="1375.458252" x2="843.228027" y2="1375.458252" style="stroke: green; stroke-width: 0.200000"/>
   <line x1="848.868652" y1="1374.458252" x2="843.228027" y2="1374.458252" style="stroke: green; stroke-width: 0.200000"/>
   <line x1="848.909851" y1="1373.458252" x2="843.228027" y2="1373.458252" style="stroke: green; stroke-width: 0.200000"/>
   <line x1="848.951050" y1="1372.458374" x2="843.228027" y2="1372.458374" style="stroke: green; stroke-width: 0.200000"/>
   <line x1="848.992249" y1="1371.458252" x2="843.228027" y2="1371.458252" style="stroke: green; stroke-width: 0.200000"/>
   <line x1="849.033447" y1="1370.458252" x2="843.228027" y2="1370.458252" style="stroke: green; stroke-width: 0.200000"/>
   <line x1="849.074646" y1="1369.458252" x2="843.228027" y2="1369.458252" style="stroke: green; stroke-width: 0.200000"/>
   <line x1="849.115845" y1="1368.458252" x2="843.228027" y2="1368.458252" style="stroke: green; stroke-width: 0.200000"/>
   <line x1="849.156799" y1="1367.458374" x2="843.228027" y2="1367.458374" style="stroke: green; stroke-width: 0.200000"/>
   <line x1="849.074585" y1="1366.458252" x2="843.228027" y2="1366.458252" style="stroke: green; stroke-width: 0.200000"/>
   <line x1="848.966125" y1="1365.458252" x2="843.228027" y2="1365.458252" style="stroke: green; stroke-width: 0.200000"/>
   <line x1="848.857727" y1="1364.458252" x2="843.228027" y2="1364.458252" style="stroke: green; stroke-width: 0.200000"/>
   <line x1="848.749329" y1="1363.458252" x2="843.228027" y2="1363.458252" style="stroke: green; stroke-width: 0.200000"/>
   <line x1="848.640991" y1="1362.458374" x2="843.228027" y2="1362.458374" style="stroke: green; stroke-width: 0.200000"/>
   <line x1="951.999878" y1="1221.566650" x2="933.554199" y2="1221.566650" style="stroke: green; stroke-width: 0.200000"/>
   <line x1="951.999878" y1="1220.566528" x2="932.125549" y2="1220.566528" style="stroke: green; stroke-width: 0.200000"/>
   <line x1="951.999878" y1="1219.566528" x2="930.696777" y2="1219.566528" style="stroke: green; stroke-width: 0.200000"/>
   <line x1="951.999878" y1="1218.566650" x2="929.268066" y2="1218.566650" style="stroke: green; stroke-width: 0.200000"/>
   <line x1="951.999878" y1="1217.566650" x2="927.911255" y2="1217.566650" style="stroke: green; stroke-width: 0.200000"/>
   <line x1="951.999878" y1="1216.566650" x2="926.575928" y2="1216.566650" style="stroke: green; stroke-width: 0.200000"/>
   <line x1="951.999878" y1="1215.566528" x2="925.283752" y2="1215.566528" style="stroke: green; stroke-width: 0.200000"/>
   <line x1="951.999878" y1="1214.566528" x2="924.088135" y2="1214.566528" style="stroke: green; stroke-width: 0.200000"/>
   <line x1="951.999878" y1="1213.566650" x2="922.892517" y2="1213.566650" style="stroke: green; stroke-width: 0.200000"/>
   <line x1="951.999878" y1="1212.566650" x2="921.696899" y2="1212.566650" style="stroke: green; stroke-width: 0.200000"/>
   <line x1="951.999878" y1="1211.566650" x2="920.556885" y2="1211.566650" style="stroke: green; stroke-width: 0.200000"/>
   <line x1="951.999878" y1="1210.566528" x2="919.426636" y2="1210.566528" style="stroke: green; stroke-width: 0.200000"/>
   <line x1="951.999878" y1="1209.566528" x2="918.296448" y2="1209.566528" style="stroke: green; stroke-width: 0.200000"/>
   <line x1="951.999878" y1="1208.566650" x2="917.166199" y2="1208.566650" style="stroke: green; stroke-width: 0.200000"/>
   <line x1="951.999878" y1="1207.566650" x2="916.036011" y2="1207.566650" style="stroke: green; stroke-width: 0.200000"/>
   <line x1="951.999878" y1="1206.566650" x2="914.857422" y2="1206.566650" style="stroke: green; stroke-width: 0.200000"/>
   <line x1="951.999878" y1="1205.566528" x2="913.769043" y2="1205.566528" style="stroke: green; stroke-width: 0.200000"/>
   <line x1="951.999878" y1="1204.566528" x2="912.776367" y2="1204.566528" style="stroke: green; stroke-width: 0.200000"/>
   <line x1="951.999878" y1="1203.566650" x2="911.859802" y2="1203.566650" style="stroke: green; stroke-width: 0.200000"/>
   <line x1="951.999878" y1="1202.566650" x2="910.951294" y2="1202.566650" style="stroke: green; stroke-width: 0.200000"/>
   <line x1="951.999878" y1="1201.566650" x2="910.042969" y2="1201.566650" style="stroke: green; stroke-width: 0.200000"/>
   <line x1="951.999878" y1="1200.566528" x2="909.134644" y2="1200.566528" style="stroke: green; stroke-width: 0.200000"/>
   <line x1="951.620850" y1="1199.566528" x2="908.226318" y2="1199.566528" style="stroke: green; stroke-width: 0.200000"/>
   <line x1="950.630737" y1="1198.566650" x2="907.670959" y2="1198.566650" style="stroke: green; stroke-width: 0.200000"/>
   <line x1="949.833496" y1="1197.566650" x2="907.197815" y2="1197.566650" style="stroke: green; stroke-width: 0.200000"/>
   <line x1="949.036377" y1="1196.566650" x2="906.724548" y2="1196.566650" style="stroke: green; stroke-width: 0.200000"/>
   <line x1="948.225098" y1="1195.566528" x2="906.251099" y2="1195.566528" style="stroke: green; stroke-width: 0.200000"/>
   <line x1="947.227661" y1="1194.566528" x2="905.564209" y2="1194.566528" style="stroke: green; stroke-width: 0.200000"/>
   <line x1="946.230164" y1="1193.566650" x2="904.877319" y2="1193.566650" style="stroke: green; stroke-width: 0.200000"/>
   <line x1="945.232605" y1="1192.566650" x2="904.190430" y2="1192.566650" style="stroke: green; stroke-width: 0.200000"/>
   <line x1="944.303467" y1="1191.566650" x2="903.503540" y2="1191.566650" style="stroke: green; stroke-width: 0.200000"/>
   <line x1="943.474060" y1="1190.566528" x2="902.816711" y2="1190.566528" style="stroke: green; stroke-width: 0.200000"/>
   <line x1="942.644653" y1="1189.566528" x2="902.129822" y2="1189.566528" style="stroke: green; stroke-width: 0.200000"/>
   <line x1="941.815247" y1="1188.566650" x2="902.073486" y2="1188.566650" style="stroke: green; stroke-width: 0.200000"/>
   <line x1="940.985962" y1="1187.566650" x2="902.164246" y2="1187.566650" style="stroke: green; stroke-width: 0.200000"/>
   <line x1="940.156555" y1="1186.566650" x2="902.255005" y2="1186.566650" style="stroke: green; stroke-width: 0.200000"/>
   <line x1="939.336914" y1="1185.566528" x2="902.345703" y2="1185.566528" style="stroke: green; stroke-width: 0.200000"/>
   <line x1="938.437439" y1="1184.566528" x2="902.436523" y2="1184.566528" style="stroke: green; stroke-width: 0.200000"/>
   <line x1="937.475891" y1="1183.566650" x2="902.500977" y2="1183.566650" style="stroke: green; stroke-width: 0.200000"/>
   <line x1="936.558533" y1="1182.566650" x2="902.548706" y2="1182.566650" style="stroke: green; stroke-width: 0.200000"/>
   <line x1="935.641235" y1="1181.566650" x2="902.596375" y2="1181.566650" style="stroke: green; stroke-width: 0.200000"/>
   <line x1="934.723755" y1="1180.566528" x2="902.644043" y2="1180.566528" style="stroke: green; stroke-width: 0.200000"/>
   <line x1="933.806091" y1="1179.566528" x2="903.389160" y2="1179.566528" style="stroke: green; stroke-width: 0.200000"/>
   <line x1="932.888733" y1="1178.566650" x2="904.293152" y2="1178.566650" style="stroke: green; stroke-width: 0.200000"/>
   <line x1="931.692383" y1="1177.566650" x2="905.216614" y2="1177.566650" style="stroke: green; stroke-width: 0.200000"/>
   <line x1="930.477051" y1="1176.566650" x2="906.251282" y2="1176.566650" style="stroke: green; stroke-width: 0.200000"/>
   <line x1="929.262329" y1="1175.566528" x2="907.286011" y2="1175.566528" style="stroke: green; stroke-width: 0.200000"/>
   <line x1="927.322266" y1="1174.566528" x2="908.320679" y2="1174.566528" style="stroke: green; stroke-width: 0.200000"/>
   <line x1="924.442688" y1="1173.566650" x2="912.257202" y2="1173.566650" style="stroke: green; stroke-width: 0.200000"/>
   <line x1="920.784851" y1="1172.566650" x2="918.034302" y2="1172.566650" style="stroke: green; stroke-width: 0.200000"/>
   <line x1="988.928955" y1="1221.566650" x2="952.099915" y2="1221.566650" style="stroke: green; stroke-width: 0.200000"/>
   <line x1="986.687500" y1="1220.566528" x2="952.099915" y2="1220.566528" style="stroke: green; stroke-width: 0.200000"/>
   <line x1="984.446411" y1="1219.566528" x2="952.099915" y2="1219.566528" style="stroke: green; stroke-width: 0.200000"/>
   <line x1="982.313110" y1="1218.566650" x2="952.099915" y2="1218.566650" style="stroke: green; stroke-width: 0.200000"/>
   <line x1="980.425903" y1="1217.566650" x2="952.099915" y2="1217.566650" style="stroke: green; stroke-width: 0.200000"/>
   <line x1="978.612610" y1="1216.566650" x2="952.099915" y2="1216.566650" style="stroke: green; stroke-width: 0.200000"/>
   <line x1="976.799072" y1="1215.566528" x2="952.099915" y2="1215.566528" style="stroke: green; stroke-width: 0.200000"/>
   <line x1="974.985962" y1="1214.566528" x2="952.099915" y2="1214.566528" style="stroke: green; stroke-width: 0.200000"/>
   <line x1="973.090759" y1="1213.566650" x2="952.099915" y2="1213.566650" style="stroke: green; stroke-width: 0.200000"/>
   <line x1="970.910156" y1="1212.566650" x2="952.099915" y2="1212.566650" style="stroke: green; stroke-width: 0.200000"/>
   <line x1="968.980164" y1="1211.566650" x2="952.099915" y2="1211.566650" style="stroke: green; stroke-width: 0.200000"/>
   <line x1="967.616577" y1="1210.566528" x2="952.099915" y2="1210.566528" style="stroke: green; stroke-width: 0.200000"/>
   <line x1="966.252991" y1="1209.566528" x2="952.099915" y2="1209.566528" style="stroke: green; stroke-width: 0.200000"/>
   <line x1="964.527100" y1="1208.566650" x2="952.099915" y2="1208.566650" style="stroke: green; stroke-width: 0.200000"/>
   <line x1="962.699707" y1="1207.566650" x2="952.099915" y2="1207.566650" style="stroke: green; stroke-width: 0.200000"/>
   <line x1="960.872253" y1="1206.566650" x2="952.099915" y2="1206.566650" style="stroke: green; stroke-width: 0.200000"/>
   <line x1="959.182007" y1="1205.566528" x2="952.099915" y2="1205.566528" style="stroke: green; stroke-width: 0.200000"/>
   <line x1="957.463379" y1="1204.566528" x2="952.099915" y2="1204.566528" style="stroke: green; stroke-width: 0.200000"/>
   <line x1="956.254822" y1="1203.566650" x2="952.099915" y2="1203.566650" style="stroke: green; stroke-width: 0.200000"/>
   <line x1="955.096313" y1="1202.566650" x2="952.099915" y2="1202.566650" style="stroke: green; stroke-width: 0.200000"/>
   <line x1="953.937744" y1="1201.566650" x2="952.099915" y2="1201.566650" style="stroke: green; stroke-width: 0.200000"/>
   <line x1="952.779236" y1="1200.566528" x2="952.099915" y2="1200.566528" style="stroke: green; stroke-width: 0.200000"/>
   <line x1="951.999878" y1="1231.566650" x2="951.511719" y2="1231.566650" style="stroke: green; stroke-width: 0.200000"/>
   <line x1="951.999878" y1="1230.566528" x2="949.597900" y2="1230.566528" style="stroke: green; stroke-width: 0.200000"/>
   <line x1="951.999878" y1="1229.566528" x2="947.685181" y2="1229.566528" style="stroke: green; stroke-width: 0.200000"/>
   <line x1="951.999878" y1="1228.566650" x2="945.656433" y2="1228.566650" style="stroke: green; stroke-width: 0.200000"/>
   <line x1="951.999878" y1="1227.566650" x2="943.586792" y2="1227.566650" style="stroke: green; stroke-width: 0.200000"/>
   <line x1="951.999878" y1="1226.566650" x2="941.668579" y2="1226.566650" style="stroke: green; stroke-width: 0.200000"/>
   <line x1="951.999878" y1="1225.566528" x2="939.750305" y2="1225.566528" style="stroke: green; stroke-width: 0.200000"/>
   <line x1="951.999878" y1="1224.566528" x2="938.093384" y2="1224.566528" style="stroke: green; stroke-width: 0.200000"/>
   <line x1="951.999878" y1="1223.566650" x2="936.447205" y2="1223.566650" style="stroke: green; stroke-width: 0.200000"/>
   <line x1="951.999878" y1="1222.566650" x2="934.982971" y2="1222.566650" style="stroke: green; stroke-width: 0.200000"/>
   <line x1="1002.099915" y1="1247.566650" x2="1000.809937" y2="1247.566650" style="stroke: green; stroke-width: 0.200000"/>
   <line x1="1002.099915" y1="1246.566650" x2="998.450562" y2="1246.566650" style="stroke: green; stroke-width: 0.200000"/>
   <line x1="1002.099915" y1="1245.566528" x2="995.825745" y2="1245.566528" style="stroke: green; stroke-width: 0.200000"/>
   <line x1="1002.099915" y1="1244.566528" x2="993.274902" y2="1244.566528" style="stroke: green; stroke-width: 0.200000"/>
   <line x1="1002.099915" y1="1243.566650" x2="990.724121" y2="1243.566650" style="stroke: green; stroke-width: 0.200000"/>
   <line x1="1002.099915" y1="1242.566650" x2="987.946045" y2="1242.566650" style="stroke: green; stroke-width: 0.200000"/>
   <line x1="1002.099915" y1="1241.566650" x2="984.629883" y2="1241.566650" style="stroke: green; stroke-width: 0.200000"/>
   <line x1="1002.099915" y1="1240.566528" x2="981.219543" y2="1240.566528" style="stroke: green; stroke-width: 0.200000"/>
   <line x1="1002.099915" y1="1239.566528" x2="977.210571" y2="1239.566528" style="stroke: green; stroke-width: 0.200000"/>
   <line x1="1002.099915" y1="1238.566650" x2="972.822937" y2="1238.566650" style="stroke: green; stroke-width: 0.200000"/>
   <line x1="1002.099915" y1="1237.566650" x2="969.591736" y2="1237.566650" style="stroke: green; stroke-width: 0.200000"/>
   <line x1="1002.099915" y1="1236.566650" x2="966.544312" y2="1236.566650" style="stroke: green; stroke-width: 0.200000"/>
   <line x1="1002.099915" y1="1235.566528" x2="962.507263" y2="1235.566528" style="stroke: green; stroke-width: 0.200000"/>
   <line x1="1002.099915" y1="1234.566528" x2="960.027771" y2="1234.566528" style="stroke: green; stroke-width: 0.200000"/>
   <line x1="1002.099915" y1="1233.566650" x2="957.799194" y2="1233.566650" style="stroke: green; stroke-width: 0.200000"/>
   <line x1="1002.099915" y1="1232.566650" x2="955.190369" y2="1232.566650" style="stroke: green; stroke-width: 0.200000"/>
   <line x1="1002.099915" y1="1231.566650" x2="952.099915" y2="1231.566650" style="stroke: green; stroke-width: 0.200000"/>
   <line x1="1002.099915" y1="1230.566528" x2="952.099915" y2="1230.566528" style="stroke: green; stroke-width: 0.200000"/>
   <line x1="1002.099915" y1="1229.566528" x2="952.099915" y2="1229.566528" style="stroke: green; stroke-width: 0.200000"/>
   <line x1="1002.099915" y1="1228.566650" x2="952.099915" y2="1228.566650" style="stroke: green; stroke-width: 0.200000"/>
   <line x1="1000.915466" y1="1227.566650" x2="952.099915" y2="1227.566650" style="stroke: green; stroke-width: 0.200000"/>
   <line x1="999.064880" y1="1226.566650" x2="952.099915" y2="1226.566650" style="stroke: green; stroke-width: 0.200000"/>
   <line x1="996.845947" y1="1225.566528" x2="952.099915" y2="1225.566528" style="stroke: green; stroke-width: 0.200000"/>
   <line x1="994.768311" y1="1224.566528" x2="952.099915" y2="1224.566528" style="stroke: green; stroke-width: 0.200000"/>
   <line x1="992.909058" y1="1223.566650" x2="952.099915" y2="1223.566650" style="stroke: green; stroke-width: 0.200000"/>
   <line x1="991.049805" y1="1222.566650" x2="952.099915" y2="1222.566650" style="stroke: green; stroke-width: 0.200000"/>
   <line x1="1003.507019" y1="1248.566650" x2="1003.169312" y2="1248.566650" style="stroke: green; stroke-width: 0.200000"/>
   <line x1="1005.894836" y1="1247.566650" x2="1002.199951" y2="1247.566650" style="stroke: green; stroke-width: 0.200000"/>
   <line x1="1008.283020" y1="1246.566650" x2="1002.199951" y2="1246.566650" style="stroke: green; stroke-width: 0.200000"/>
   <line x1="1010.671326" y1="1245.566528" x2="1002.199951" y2="1245.566528" style="stroke: green; stroke-width: 0.200000"/>
   <line x1="1013.059692" y1="1244.566528" x2="1002.199951" y2="1244.566528" style="stroke: green; stroke-width: 0.200000"/>
   <line x1="1015.447327" y1="1243.566650" x2="1002.199951" y2="1243.566650" style="stroke: green; stroke-width: 0.200000"/>
   <line x1="1017.834961" y1="1242.566650" x2="1002.199951" y2="1242.566650" style="stroke: green; stroke-width: 0.200000"/>
   <line x1="1019.030823" y1="1241.566650" x2="1002.199951" y2="1241.566650" style="stroke: green; stroke-width: 0.200000"/>
   <line x1="1018.480225" y1="1240.566528" x2="1002.199951" y2="1240.566528" style="stroke: green; stroke-width: 0.200000"/>
   <line x1="1017.929565" y1="1239.566528" x2="1002.199951" y2="1239.566528" style="stroke: green; stroke-width: 0.200000"/>
   <line x1="1017.209839" y1="1238.566650" x2="1002.199951" y2="1238.566650" style="stroke: green; stroke-width: 0.200000"/>
   <line x1="1016.240906" y1="1237.566650" x2="1002.199951" y2="1237.566650" style="stroke: green; stroke-width: 0.200000"/>
   <line x1="1015.272095" y1="1236.566650" x2="1002.199951" y2="1236.566650" style="stroke: green; stroke-width: 0.200000"/>
   <line x1="1014.013062" y1="1235.566528" x2="1002.199951" y2="1235.566528" style="stroke: green; stroke-width: 0.200000"/>
   <line x1="1012.511108" y1="1234.566528" x2="1002.199951" y2="1234.566528" style="stroke: green; stroke-width: 0.200000"/>
   <line x1="1011.009460" y1="1233.566650" x2="1002.199951" y2="1233.566650" style="stroke: green; stroke-width: 0.200000"/>
   <line x1="1009.507751" y1="1232.566650" x2="1002.199951" y2="1232.566650" style="stroke: green; stroke-width: 0.200000"/>
   <line x1="1008.006042" y1="1231.566650" x2="1002.199951" y2="1231.566650" style="stroke: green; stroke-width: 0.200000"/>
   <line x1="1006.489624" y1="1230.566528" x2="1002.199951" y2="1230.566528" style="stroke: green; stroke-width: 0.200000"/>
   <line x1="1004.616577" y1="1229.566528" x2="1002.199951" y2="1229.566528" style="stroke: green; stroke-width: 0.200000"/>
   <line x1="1002.765991" y1="1228.566650" x2="1002.199951" y2="1228.566650" style="stroke: green; stroke-width: 0.200000"/>
   <line x1="1017.624817" y1="1253.697754" x2="1017.588379" y2="1253.697754" style="stroke: green; stroke-width: 0.200000"/>
   <line x1="1017.683105" y1="1252.697754" x2="1014.480042" y2="1252.697754" style="stroke: green; stroke-width: 0.200000"/>
   <line x1="1017.967834" y1="1251.697754" x2="1011.460938" y2="1251.697754" style="stroke: green; stroke-width: 0.200000"/>
   <line x1="1018.252563" y1="1250.697754" x2="1008.419678" y2="1250.697754" style="stroke: green; stroke-width: 0.200000"/>
   <line x1="1018.537292" y1="1249.697754" x2="1005.838135" y2="1249.697754" style="stroke: green; stroke-width: 0.200000"/>
   <line x1="1018.822083" y1="1248.697754" x2="1003.478760" y2="1248.697754" style="stroke: green; stroke-width: 0.200000"/>
   <line x1="1019.106812" y1="1247.697754" x2="1005.581909" y2="1247.697754" style="stroke: green; stroke-width: 0.200000"/>
   <line x1="1019.391541" y1="1246.697754" x2="1007.969971" y2="1246.697754" style="stroke: green; stroke-width: 0.200000"/>
   <line x1="1019.676270" y1="1245.697754" x2="1010.358337" y2="1245.697754" style="stroke: green; stroke-width: 0.200000"/>
   <line x1="1019.960999" y1="1244.697754" x2="1012.746704" y2="1244.697754" style="stroke: green; stroke-width: 0.200000"/>
   <line x1="1020.204407" y1="1243.697754" x2="1015.134338" y2="1243.697754" style="stroke: green; stroke-width: 0.200000"/>
   <line x1="1019.653809" y1="1242.697754" x2="1017.521973" y2="1242.697754" style="stroke: green; stroke-width: 0.200000"/>
   <path d="M 791.725  1300.21  791.795  1299.91  794.355  1290.92  794.793  1287.91  798.39  1280.34  800.211  1275.19  803.66  1270.67  807.197  1265.25  813.285  1262.02  815.952  1260.12  818.255  1260.78  825.701  1264.94  826.158  1265.19  826.354  1265.4  830.031  1273.13  833.413  1281.38  837.485  1295.61  838.009  1298  838.181  1298.95  840.135  1307.07  840.604  1309.46  842.956  1317.94  843.352  1320.41  844.579  1326.32  846.149  1332.75  846.364  1336.06  847.673  1344.11  848.081  1346.84  848.397  1348.05  849.508  1356.54  850.618  1366.78  850.659  1367.45  850.216  1378.2  839.562  1378.23  838.841  1378.21  838.45  1377.82  832.271  1371.22  829.599  1365.68  827.775  1361.68  824.811  1354.98  823.659  1352.77  822.451  1350.61  818.484  1343.14  815.521  1336.8  814.012  1334.41  813.763  1334.06  " style="fill: none; stroke: darkmagenta; stroke-width: 0.200000; fill-type: evenodd"  fill-opacity="1.000000" />
   <path d="M 813.763  1334.06  812.422  1332.17  808.513  1325.63  802.665  1318.32  796.159  1310.98  791.64  1301.15  791.642  1300.57  791.725  1300.21  " style="fill: none; stroke: red; stroke-width: 0.200000; fill-type: evenodd"  fill-opacity="1.000000" />
   <path d="M 817.867  1261.71  825.223  1265.82  825.525  1265.98  829.116  1273.53  832.466  1281.71  836.515  1295.85  837.029  1298.19  837.202  1299.15  839.158  1307.29  839.63  1309.69  841.978  1318.16  842.368  1320.59  843.604  1326.54  845.157  1332.9  845.369  1336.17  846.685  1344.27  847.1  1347.04  847.414  1348.24  848.515  1356.66  849.621  1366.86  849.657  1367.46  849.256  1377.2  839.576  1377.23  839.261  1377.22  833.105  1370.65  830.504  1365.26  828.687  1361.27  825.713  1354.55  824.539  1352.29  823.329  1350.13  819.379  1342.69  816.4  1336.32  814.844  1333.85  813.26  1331.63  809.336  1325.06  803.43  1317.68  797.005  1310.43  792.641  1300.93  792.641  1300.68  792.763  1300.16  795.335  1291.13  795.76  1288.21  799.316  1280.72  801.101  1275.68  804.477  1271.25  807.893  1266.01  813.812  1262.87  816.14  1261.21  817.867  1261.71  " style="fill: none; stroke: black; stroke-width: 0.200000; fill-type: evenodd"  fill-opacity="1.000000" />
   <path d="M 974.525  1240.47  974.113  1240.37  971.912  1239.91  964.798  1237.57  961.577  1236.91  955.643  1234.24  950.978  1232.98  946.166  1230.46  943.408  1229.16  938.936  1226.83  935.358  1224.66  928.059  1219.55  924.721  1217.05  920.538  1213.55  914.861  1208.53  913.261  1207.18  911.592  1205.5  906.795  1200.22  904.948  1196.32  900.457  1189.78  900.975  1184.07  901.18  1179.77  903.983  1176.67  908.132  1172.66  914.727  1171.68  919.697  1170.71  925.283  1172.24  929.36  1173.7  933.865  1177.41  939.019  1183.03  940.042  1184.05  940.758  1184.94  945.751  1190.96  949.416  1194.64  952.087  1197.99  958.186  1203.25  959.404  1203.92  960.639  1204.73  966.762  1208.08  970.162  1210.57  974.252  1212.45  981.833  1216.63  982.765  1217.07  983.275  1217.4  991.126  1220.9  996.296  1223.69  999.505  1225.1  1006.96  1229.13  1007.29  1229.29  1015.8  1234.95  1018.82  1238.07  1021.84  1243.56  1019.14  1253.08  1019.13  1253.41  " style="fill: none; stroke: darkmagenta; stroke-width: 0.200000; fill-type: evenodd"  fill-opacity="1.000000" />
   <path d="M 1019.13  1253.41  1019.11  1254.76  1017.89  1255.37  1014.68  1254.35  1008.49  1252.29  1007.01  1251.83  997.814  1247.93  997.134  1247.69  988.929  1244.47  986.793  1243.76  979.951  1241.76  974.525  1240.47  " style="fill: none; stroke: red; stroke-width: 0.200000; fill-type: evenodd"  fill-opacity="1.000000" />
   <path d="M 1017.36  1254.15  1014.99  1253.39  1008.8  1251.34  1007.36  1250.89  998.173  1246.99  997.48  1246.75  989.269  1243.53  987.091  1242.81  980.207  1240.79  974.332  1239.4  972.172  1238.94  965.056  1236.6  961.887  1235.95  955.981  1233.3  951.345  1232.04  946.611  1229.57  943.852  1228.27  939.427  1225.96  935.905  1223.82  928.646  1218.74  925.342  1216.27  921.19  1212.79  915.515  1207.77  913.939  1206.45  912.318  1204.81  907.635  1199.66  905.817  1195.82  901.486  1189.51  901.973  1184.14  902.162  1180.18  904.703  1177.37  908.596  1173.61  914.896  1172.67  919.659  1171.74  924.982  1173.2  928.859  1174.59  933.176  1178.14  938.298  1183.72  939.297  1184.72  939.982  1185.57  945.01  1191.64  948.669  1195.3  951.363  1198.68  957.613  1204.08  958.889  1204.78  960.123  1205.59  966.224  1208.93  969.653  1211.44  973.801  1213.34  981.376  1217.52  982.278  1217.95  982.799  1218.28  990.684  1221.8  995.857  1224.58  999.065  1226  1006.5  1230.02  1006.79  1230.16  1015.15  1235.73  1018.01  1238.67  1020.77  1243.69  1018.14  1252.93  1018.12  1253.83  " style="fill: none; stroke: black; stroke-width: 0.200000; fill-type: evenodd"  fill-opacity="1.000000" />
   <path d="M 1018.12  1253.83  1018.11  1254.39  1017.36  1254.15  " style="fill: none; stroke: red; stroke-width: 0.200000; fill-type: evenodd"  fill-opacity="1.000000" />
</svg>
