<?xml version="1.0" encoding="UTF-8" standalone="yes"?>
<!DOCTYPE svg PUBLIC "-//W3C//DTD SVG 1.0//EN" "http://www.w3.org/TR/2001/REC-SVG-20010904/DTD/svg10.dtd">
<svg height="2000" width="2000" xmlns="http://www.w3.org/2000/svg" xmlns:svg="http://www.w3.org/2000/svg" xmlns:xlink="http://www.w3.org/1999/xlink">
   <marker id="endArrow" markerHeight="8" markerUnits="strokeWidth" markerWidth="10" orient="auto" refX="1" refY="5" viewBox="0 0 1000 1000">
      <polyline fill="darkblue" points="0,0 10,5 0,10 1,5" />
   </marker>
   <circle cx="1000" cy="1000" r="1" style="stroke:black; fill: red" />
   <circle cx="1000" cy="1000" r="800" style="stroke:black; fill: none" />
   <line x1="1061.482666" y1="1035.711060" x2="1061.482666" y2="1036.504150" style="stroke: green; stroke-width: 0.200000"/>
   <line x1="1062.482788" y1="1034.711060" x2="1062.482788" y2="1036.504150" style="stroke: green; stroke-width: 0.200000"/>
   <line x1="1063.482788" y1="1033.711060" x2="1063.482788" y2="1036.504150" style="stroke: green; stroke-width: 0.200000"/>
   <line x1="1064.482666" y1="1032.711060" x2="1064.482666" y2="1036.504150" style="stroke: green; stroke-width: 0.200000"/>
   <line x1="1065.482666" y1="1031.711060" x2="1065.482666" y2="1036.504150" style="stroke: green; stroke-width: 0.200000"/>
   <line x1="1066.482666" y1="1030.792114" x2="1066.482666" y2="1036.504150" style="stroke: green; stroke-width: 0.200000"/>
   <line x1="1067.482788" y1="1031.792114" x2="1067.482788" y2="1036.504150" style="stroke: green; stroke-width: 0.200000"/>
   <line x1="1068.482788" y1="1032.792236" x2="1068.482788" y2="1036.504150" style="stroke: green; stroke-width: 0.200000"/>
   <line x1="1069.482666" y1="1033.792236" x2="1069.482666" y2="1036.504150" style="stroke: green; stroke-width: 0.200000"/>
   <line x1="1070.482666" y1="1032.932373" x2="1070.482666" y2="1036.504150" style="stroke: green; stroke-width: 0.200000"/>
   <line x1="1071.482666" y1="1031.932373" x2="1071.482666" y2="1036.504150" style="stroke: green; stroke-width: 0.200000"/>
   <line x1="1072.482788" y1="1030.932373" x2="1072.482788" y2="1036.504150" style="stroke: green; stroke-width: 0.200000"/>
   <line x1="1073.482788" y1="1029.932373" x2="1073.482788" y2="1036.504150" style="stroke: green; stroke-width: 0.200000"/>
   <line x1="1074.482666" y1="1028.932373" x2="1074.482666" y2="1036.504150" style="stroke: green; stroke-width: 0.200000"/>
   <line x1="1075.482666" y1="1027.932373" x2="1075.482666" y2="1036.504150" style="stroke: green; stroke-width: 0.200000"/>
   <line x1="1076.482666" y1="1026.932495" x2="1076.482666" y2="1036.504150" style="stroke: green; stroke-width: 0.200000"/>
   <line x1="1077.482788" y1="1025.932373" x2="1077.482788" y2="1036.504150" style="stroke: green; stroke-width: 0.200000"/>
   <line x1="1078.482788" y1="1024.932373" x2="1078.482788" y2="1036.504150" style="stroke: green; stroke-width: 0.200000"/>
   <line x1="1079.482666" y1="1023.932434" x2="1079.482666" y2="1036.504150" style="stroke: green; stroke-width: 0.200000"/>
   <line x1="1080.482666" y1="1022.932434" x2="1080.482666" y2="1036.504150" style="stroke: green; stroke-width: 0.200000"/>
   <line x1="1081.482666" y1="1021.932434" x2="1081.482666" y2="1036.504150" style="stroke: green; stroke-width: 0.200000"/>
   <line x1="1082.482788" y1="1020.932495" x2="1082.482788" y2="1036.504150" style="stroke: green; stroke-width: 0.200000"/>
   <line x1="1083.482788" y1="1019.932373" x2="1083.482788" y2="1036.504150" style="stroke: green; stroke-width: 0.200000"/>
   <line x1="1084.482666" y1="1018.932434" x2="1084.482666" y2="1036.504150" style="stroke: green; stroke-width: 0.200000"/>
   <line x1="1085.482666" y1="1017.932434" x2="1085.482666" y2="1036.504150" style="stroke: green; stroke-width: 0.200000"/>
   <line x1="1086.482666" y1="1016.932434" x2="1086.482666" y2="1036.504150" style="stroke: green; stroke-width: 0.200000"/>
   <line x1="1087.482788" y1="1015.932495" x2="1087.482788" y2="1036.504150" style="stroke: green; stroke-width: 0.200000"/>
   <line x1="1088.482788" y1="1014.932495" x2="1088.482788" y2="1036.504150" style="stroke: green; stroke-width: 0.200000"/>
   <line x1="1089.482666" y1="1013.932434" x2="1089.482666" y2="1036.504150" style="stroke: green; stroke-width: 0.200000"/>
   <line x1="1090.482666" y1="1012.932434" x2="1090.482666" y2="1036.504150" style="stroke: green; stroke-width: 0.200000"/>
   <line x1="1091.482666" y1="1011.932434" x2="1091.482666" y2="1036.504150" style="stroke: green; stroke-width: 0.200000"/>
   <line x1="1092.482788" y1="1010.932495" x2="1092.482788" y2="1036.504150" style="stroke: green; stroke-width: 0.200000"/>
   <line x1="1093.482788" y1="1009.932495" x2="1093.482788" y2="1036.504150" style="stroke: green; stroke-width: 0.200000"/>
   <line x1="1094.482666" y1="1008.932495" x2="1094.482666" y2="1036.504150" style="stroke: green; stroke-width: 0.200000"/>
   <line x1="1095.482666" y1="1007.932434" x2="1095.482666" y2="1036.504150" style="stroke: green; stroke-width: 0.200000"/>
   <line x1="1096.482666" y1="1006.932434" x2="1096.482666" y2="1036.504150" style="stroke: green; stroke-width: 0.200000"/>
   <line x1="1097.482788" y1="1005.932495" x2="1097.482788" y2="1036.504150" style="stroke: green; stroke-width: 0.200000"/>
   <line x1="1098.482788" y1="1004.932495" x2="1098.482788" y2="1036.504150" style="stroke: green; stroke-width: 0.200000"/>
   <line x1="1099.482666" y1="1003.932495" x2="1099.482666" y2="1036.504150" style="stroke: green; stroke-width: 0.200000"/>
   <line x1="1100.482666" y1="1002.932434" x2="1100.482666" y2="1036.504150" style="stroke: green; stroke-width: 0.200000"/>
   <line x1="1101.482666" y1="1001.932434" x2="1101.482666" y2="1036.504150" style="stroke: green; stroke-width: 0.200000"/>
   <line x1="1102.482788" y1="1000.932495" x2="1102.482788" y2="1036.504150" style="stroke: green; stroke-width: 0.200000"/>
   <line x1="1103.482788" y1="999.932495" x2="1103.482788" y2="1036.504150" style="stroke: green; stroke-width: 0.200000"/>
   <line x1="1104.482666" y1="998.932495" x2="1104.482666" y2="1036.504150" style="stroke: green; stroke-width: 0.200000"/>
   <line x1="1105.482666" y1="997.932495" x2="1105.482666" y2="1036.504150" style="stroke: green; stroke-width: 0.200000"/>
   <line x1="1106.482666" y1="996.932434" x2="1106.482666" y2="1036.504150" style="stroke: green; stroke-width: 0.200000"/>
   <line x1="1107.482788" y1="995.932495" x2="1107.482788" y2="1036.504150" style="stroke: green; stroke-width: 0.200000"/>
   <line x1="1108.482788" y1="994.932495" x2="1108.482788" y2="1036.504150" style="stroke: green; stroke-width: 0.200000"/>
   <line x1="1109.482666" y1="993.932495" x2="1109.482666" y2="1035.947510" style="stroke: green; stroke-width: 0.200000"/>
   <line x1="1110.482666" y1="992.932495" x2="1110.482666" y2="1034.879272" style="stroke: green; stroke-width: 0.200000"/>
   <line x1="1111.482666" y1="988.338623" x2="1111.482666" y2="1033.811035" style="stroke: green; stroke-width: 0.200000"/>
   <line x1="1112.482788" y1="989.688782" x2="1112.482788" y2="1032.742798" style="stroke: green; stroke-width: 0.200000"/>
   <line x1="1113.482788" y1="991.050110" x2="1113.482788" y2="1031.642944" style="stroke: green; stroke-width: 0.200000"/>
   <line x1="1114.482666" y1="992.412354" x2="1114.482666" y2="1030.445068" style="stroke: green; stroke-width: 0.200000"/>
   <line x1="1115.482666" y1="993.791626" x2="1115.482666" y2="1029.247070" style="stroke: green; stroke-width: 0.200000"/>
   <line x1="1116.482666" y1="995.206970" x2="1116.482666" y2="1028.049194" style="stroke: green; stroke-width: 0.200000"/>
   <line x1="1117.482788" y1="996.706421" x2="1117.482788" y2="1026.834839" style="stroke: green; stroke-width: 0.200000"/>
   <line x1="1118.482788" y1="998.397278" x2="1118.482788" y2="1025.489502" style="stroke: green; stroke-width: 0.200000"/>
   <line x1="1119.482666" y1="1000.408264" x2="1119.482666" y2="1023.850952" style="stroke: green; stroke-width: 0.200000"/>
   <line x1="1120.482666" y1="1002.888184" x2="1120.482666" y2="1021.739624" style="stroke: green; stroke-width: 0.200000"/>
   <line x1="1121.482666" y1="1006.304260" x2="1121.482666" y2="1018.421265" style="stroke: green; stroke-width: 0.200000"/>
   <line x1="1110.482666" y1="986.988525" x2="1110.482666" y2="991.452637" style="stroke: green; stroke-width: 0.200000"/>
   <line x1="1109.482666" y1="987.145447" x2="1109.482666" y2="989.799561" style="stroke: green; stroke-width: 0.200000"/>
   <line x1="1108.482788" y1="988.145447" x2="1108.482788" y2="988.146484" style="stroke: green; stroke-width: 0.200000"/>
   <line x1="1017.482788" y1="1085.932495" x2="1017.482788" y2="1086.604126" style="stroke: green; stroke-width: 0.200000"/>
   <line x1="1018.482727" y1="1084.932495" x2="1018.482727" y2="1086.604126" style="stroke: green; stroke-width: 0.200000"/>
   <line x1="1019.482727" y1="1083.932495" x2="1019.482727" y2="1086.604126" style="stroke: green; stroke-width: 0.200000"/>
   <line x1="1020.482727" y1="1082.932373" x2="1020.482727" y2="1086.604126" style="stroke: green; stroke-width: 0.200000"/>
   <line x1="1021.482666" y1="1075.711060" x2="1021.482666" y2="1086.604126" style="stroke: green; stroke-width: 0.200000"/>
   <line x1="1022.482788" y1="1074.711060" x2="1022.482788" y2="1086.604126" style="stroke: green; stroke-width: 0.200000"/>
   <line x1="1023.482727" y1="1073.711060" x2="1023.482727" y2="1086.604126" style="stroke: green; stroke-width: 0.200000"/>
   <line x1="1024.482666" y1="1072.711060" x2="1024.482666" y2="1086.604126" style="stroke: green; stroke-width: 0.200000"/>
   <line x1="1025.482666" y1="1071.711060" x2="1025.482666" y2="1086.604126" style="stroke: green; stroke-width: 0.200000"/>
   <line x1="1026.482666" y1="1070.711060" x2="1026.482666" y2="1086.604126" style="stroke: green; stroke-width: 0.200000"/>
   <line x1="1027.482788" y1="1069.711060" x2="1027.482788" y2="1086.604126" style="stroke: green; stroke-width: 0.200000"/>
   <line x1="1028.482788" y1="1068.711060" x2="1028.482788" y2="1086.604126" style="stroke: green; stroke-width: 0.200000"/>
   <line x1="1029.482666" y1="1067.711060" x2="1029.482666" y2="1086.604126" style="stroke: green; stroke-width: 0.200000"/>
   <line x1="1030.482666" y1="1066.711060" x2="1030.482666" y2="1086.604126" style="stroke: green; stroke-width: 0.200000"/>
   <line x1="1031.482666" y1="1065.711060" x2="1031.482666" y2="1086.604126" style="stroke: green; stroke-width: 0.200000"/>
   <line x1="1032.482788" y1="1064.711060" x2="1032.482788" y2="1086.604126" style="stroke: green; stroke-width: 0.200000"/>
   <line x1="1033.482788" y1="1063.711060" x2="1033.482788" y2="1086.604126" style="stroke: green; stroke-width: 0.200000"/>
   <line x1="1034.482666" y1="1062.711060" x2="1034.482666" y2="1086.604126" style="stroke: green; stroke-width: 0.200000"/>
   <line x1="1035.482666" y1="1061.711060" x2="1035.482666" y2="1086.604126" style="stroke: green; stroke-width: 0.200000"/>
   <line x1="1036.482666" y1="1060.711060" x2="1036.482666" y2="1086.604126" style="stroke: green; stroke-width: 0.200000"/>
   <line x1="1037.482788" y1="1059.711060" x2="1037.482788" y2="1086.604126" style="stroke: green; stroke-width: 0.200000"/>
   <line x1="1038.482788" y1="1058.711060" x2="1038.482788" y2="1086.604126" style="stroke: green; stroke-width: 0.200000"/>
   <line x1="1020.482727" y1="1076.711060" x2="1020.482727" y2="1082.121338" style="stroke: green; stroke-width: 0.200000"/>
   <line x1="1019.482727" y1="1077.711060" x2="1019.482727" y2="1081.121338" style="stroke: green; stroke-width: 0.200000"/>
   <line x1="1018.482727" y1="1078.711060" x2="1018.482727" y2="1080.121338" style="stroke: green; stroke-width: 0.200000"/>
   <line x1="1039.482666" y1="1057.711060" x2="1039.482666" y2="1086.604126" style="stroke: green; stroke-width: 0.200000"/>
   <line x1="1040.482666" y1="1056.711060" x2="1040.482666" y2="1086.604126" style="stroke: green; stroke-width: 0.200000"/>
   <line x1="1041.482666" y1="1055.711060" x2="1041.482666" y2="1086.604126" style="stroke: green; stroke-width: 0.200000"/>
   <line x1="1042.482788" y1="1054.711060" x2="1042.482788" y2="1086.604126" style="stroke: green; stroke-width: 0.200000"/>
   <line x1="1043.482788" y1="1053.711060" x2="1043.482788" y2="1086.604126" style="stroke: green; stroke-width: 0.200000"/>
   <line x1="1044.482666" y1="1052.711060" x2="1044.482666" y2="1086.604126" style="stroke: green; stroke-width: 0.200000"/>
   <line x1="1045.482666" y1="1051.711060" x2="1045.482666" y2="1084.650024" style="stroke: green; stroke-width: 0.200000"/>
   <line x1="1046.482666" y1="1050.711060" x2="1046.482666" y2="1082.575806" style="stroke: green; stroke-width: 0.200000"/>
   <line x1="1047.482788" y1="1049.711060" x2="1047.482788" y2="1080.516479" style="stroke: green; stroke-width: 0.200000"/>
   <line x1="1048.482788" y1="1048.711060" x2="1048.482788" y2="1078.769653" style="stroke: green; stroke-width: 0.200000"/>
   <line x1="1049.482666" y1="1047.711060" x2="1049.482666" y2="1076.934692" style="stroke: green; stroke-width: 0.200000"/>
   <line x1="1050.482666" y1="1046.711060" x2="1050.482666" y2="1075.455688" style="stroke: green; stroke-width: 0.200000"/>
   <line x1="1051.482666" y1="1045.711060" x2="1051.482666" y2="1073.976562" style="stroke: green; stroke-width: 0.200000"/>
   <line x1="1052.482788" y1="1044.711060" x2="1052.482788" y2="1072.509033" style="stroke: green; stroke-width: 0.200000"/>
   <line x1="1053.482788" y1="1043.711060" x2="1053.482788" y2="1071.234985" style="stroke: green; stroke-width: 0.200000"/>
   <line x1="1054.482666" y1="1042.711060" x2="1054.482666" y2="1069.960815" style="stroke: green; stroke-width: 0.200000"/>
   <line x1="1055.482666" y1="1041.711060" x2="1055.482666" y2="1068.739990" style="stroke: green; stroke-width: 0.200000"/>
   <line x1="1056.482666" y1="1040.711060" x2="1056.482666" y2="1067.630127" style="stroke: green; stroke-width: 0.200000"/>
   <line x1="1057.482788" y1="1039.711060" x2="1057.482788" y2="1066.520264" style="stroke: green; stroke-width: 0.200000"/>
   <line x1="1058.482788" y1="1038.711060" x2="1058.482788" y2="1065.421631" style="stroke: green; stroke-width: 0.200000"/>
   <line x1="1059.482666" y1="1037.711060" x2="1059.482666" y2="1064.439819" style="stroke: green; stroke-width: 0.200000"/>
   <line x1="1060.482666" y1="1036.711060" x2="1060.482666" y2="1063.457886" style="stroke: green; stroke-width: 0.200000"/>
   <line x1="1061.482666" y1="1036.604126" x2="1061.482666" y2="1062.475952" style="stroke: green; stroke-width: 0.200000"/>
   <line x1="1062.482788" y1="1036.604126" x2="1062.482788" y2="1061.576416" style="stroke: green; stroke-width: 0.200000"/>
   <line x1="1063.482788" y1="1036.604126" x2="1063.482788" y2="1060.712524" style="stroke: green; stroke-width: 0.200000"/>
   <line x1="1064.482666" y1="1036.604126" x2="1064.482666" y2="1059.826416" style="stroke: green; stroke-width: 0.200000"/>
   <line x1="1065.482666" y1="1036.604126" x2="1065.482666" y2="1058.940186" style="stroke: green; stroke-width: 0.200000"/>
   <line x1="1066.482666" y1="1036.604126" x2="1066.482666" y2="1058.191528" style="stroke: green; stroke-width: 0.200000"/>
   <line x1="1067.482788" y1="1036.604126" x2="1067.482788" y2="1057.447998" style="stroke: green; stroke-width: 0.200000"/>
   <line x1="1068.482788" y1="1036.604126" x2="1068.482788" y2="1056.704346" style="stroke: green; stroke-width: 0.200000"/>
   <line x1="1069.482666" y1="1036.604126" x2="1069.482666" y2="1055.960815" style="stroke: green; stroke-width: 0.200000"/>
   <line x1="1070.482666" y1="1036.604126" x2="1070.482666" y2="1055.361450" style="stroke: green; stroke-width: 0.200000"/>
   <line x1="1071.482666" y1="1036.604126" x2="1071.482666" y2="1054.764404" style="stroke: green; stroke-width: 0.200000"/>
   <line x1="1072.482788" y1="1036.604126" x2="1072.482788" y2="1054.167358" style="stroke: green; stroke-width: 0.200000"/>
   <line x1="1073.482788" y1="1036.604126" x2="1073.482788" y2="1053.570435" style="stroke: green; stroke-width: 0.200000"/>
   <line x1="1074.482666" y1="1036.604126" x2="1074.482666" y2="1053.054443" style="stroke: green; stroke-width: 0.200000"/>
   <line x1="1075.482666" y1="1036.604126" x2="1075.482666" y2="1052.589478" style="stroke: green; stroke-width: 0.200000"/>
   <line x1="1076.482666" y1="1036.604126" x2="1076.482666" y2="1052.124756" style="stroke: green; stroke-width: 0.200000"/>
   <line x1="1077.482788" y1="1036.604126" x2="1077.482788" y2="1051.659912" style="stroke: green; stroke-width: 0.200000"/>
   <line x1="1078.482788" y1="1036.604126" x2="1078.482788" y2="1051.195190" style="stroke: green; stroke-width: 0.200000"/>
   <line x1="1079.482666" y1="1036.604126" x2="1079.482666" y2="1050.814697" style="stroke: green; stroke-width: 0.200000"/>
   <line x1="1080.482666" y1="1036.604126" x2="1080.482666" y2="1050.451782" style="stroke: green; stroke-width: 0.200000"/>
   <line x1="1081.482666" y1="1036.604126" x2="1081.482666" y2="1050.088867" style="stroke: green; stroke-width: 0.200000"/>
   <line x1="1082.482788" y1="1036.604126" x2="1082.482788" y2="1049.725830" style="stroke: green; stroke-width: 0.200000"/>
   <line x1="1083.482788" y1="1036.604126" x2="1083.482788" y2="1049.362915" style="stroke: green; stroke-width: 0.200000"/>
   <line x1="1084.482666" y1="1036.604126" x2="1084.482666" y2="1049.050171" style="stroke: green; stroke-width: 0.200000"/>
   <line x1="1085.482666" y1="1036.604126" x2="1085.482666" y2="1048.760864" style="stroke: green; stroke-width: 0.200000"/>
   <line x1="1086.482666" y1="1036.604126" x2="1086.482666" y2="1048.471558" style="stroke: green; stroke-width: 0.200000"/>
   <line x1="1087.482788" y1="1036.604126" x2="1087.482788" y2="1048.182373" style="stroke: green; stroke-width: 0.200000"/>
   <line x1="1088.482788" y1="1036.604126" x2="1088.482788" y2="1047.893188" style="stroke: green; stroke-width: 0.200000"/>
   <line x1="1089.482666" y1="1036.604126" x2="1089.482666" y2="1047.615845" style="stroke: green; stroke-width: 0.200000"/>
   <line x1="1090.482666" y1="1036.604126" x2="1090.482666" y2="1047.377075" style="stroke: green; stroke-width: 0.200000"/>
   <line x1="1091.482666" y1="1036.604126" x2="1091.482666" y2="1047.138306" style="stroke: green; stroke-width: 0.200000"/>
   <line x1="1092.482788" y1="1036.604126" x2="1092.482788" y2="1046.899536" style="stroke: green; stroke-width: 0.200000"/>
   <line x1="1093.482788" y1="1036.604126" x2="1093.482788" y2="1046.660645" style="stroke: green; stroke-width: 0.200000"/>
   <line x1="1094.482666" y1="1036.604126" x2="1094.482666" y2="1046.421875" style="stroke: green; stroke-width: 0.200000"/>
   <line x1="1095.482666" y1="1036.604126" x2="1095.482666" y2="1046.134155" style="stroke: green; stroke-width: 0.200000"/>
   <line x1="1096.482666" y1="1036.604126" x2="1096.482666" y2="1045.829956" style="stroke: green; stroke-width: 0.200000"/>
   <line x1="1097.482788" y1="1036.604126" x2="1097.482788" y2="1045.484497" style="stroke: green; stroke-width: 0.200000"/>
   <line x1="1098.482788" y1="1036.604126" x2="1098.482788" y2="1045.035889" style="stroke: green; stroke-width: 0.200000"/>
   <line x1="1099.482666" y1="1036.604126" x2="1099.482666" y2="1044.587646" style="stroke: green; stroke-width: 0.200000"/>
   <line x1="1100.482666" y1="1036.604126" x2="1100.482666" y2="1044.016724" style="stroke: green; stroke-width: 0.200000"/>
   <line x1="1101.482666" y1="1036.604126" x2="1101.482666" y2="1043.391479" style="stroke: green; stroke-width: 0.200000"/>
   <line x1="1102.482788" y1="1036.604126" x2="1102.482788" y2="1042.689941" style="stroke: green; stroke-width: 0.200000"/>
   <line x1="1103.482788" y1="1036.604126" x2="1103.482788" y2="1041.862915" style="stroke: green; stroke-width: 0.200000"/>
   <line x1="1104.482666" y1="1036.604126" x2="1104.482666" y2="1040.929077" style="stroke: green; stroke-width: 0.200000"/>
   <line x1="1105.482666" y1="1036.604126" x2="1105.482666" y2="1039.993774" style="stroke: green; stroke-width: 0.200000"/>
   <line x1="1106.482666" y1="1036.604126" x2="1106.482666" y2="1039.058594" style="stroke: green; stroke-width: 0.200000"/>
   <line x1="1107.482788" y1="1036.604126" x2="1107.482788" y2="1038.083984" style="stroke: green; stroke-width: 0.200000"/>
   <line x1="1108.482788" y1="1036.604126" x2="1108.482788" y2="1037.015747" style="stroke: green; stroke-width: 0.200000"/>
   <line x1="1012.482788" y1="1090.932495" x2="1012.482788" y2="1114.688232" style="stroke: green; stroke-width: 0.200000"/>
   <line x1="1013.482727" y1="1089.932495" x2="1013.482727" y2="1114.678833" style="stroke: green; stroke-width: 0.200000"/>
   <line x1="1011.482666" y1="1091.932495" x2="1011.482666" y2="1114.671875" style="stroke: green; stroke-width: 0.200000"/>
   <line x1="1014.482727" y1="1088.932495" x2="1014.482727" y2="1114.616821" style="stroke: green; stroke-width: 0.200000"/>
   <line x1="1010.482727" y1="1092.932373" x2="1010.482727" y2="1114.598511" style="stroke: green; stroke-width: 0.200000"/>
   <line x1="1015.482727" y1="1087.932373" x2="1015.482727" y2="1114.542236" style="stroke: green; stroke-width: 0.200000"/>
   <line x1="1009.482727" y1="1093.932495" x2="1009.482727" y2="1114.505249" style="stroke: green; stroke-width: 0.200000"/>
   <line x1="1016.482666" y1="1086.932495" x2="1016.482666" y2="1114.407349" style="stroke: green; stroke-width: 0.200000"/>
   <line x1="1008.482727" y1="1094.932495" x2="1008.482727" y2="1114.365723" style="stroke: green; stroke-width: 0.200000"/>
   <line x1="1017.482788" y1="1086.704224" x2="1017.482788" y2="1114.264282" style="stroke: green; stroke-width: 0.200000"/>
   <line x1="1007.482788" y1="1095.932495" x2="1007.482788" y2="1114.206787" style="stroke: green; stroke-width: 0.200000"/>
   <line x1="1018.482727" y1="1086.704224" x2="1018.482727" y2="1114.054810" style="stroke: green; stroke-width: 0.200000"/>
   <line x1="1006.482666" y1="1096.932495" x2="1006.482666" y2="1114.003296" style="stroke: green; stroke-width: 0.200000"/>
   <line x1="1019.482727" y1="1086.704224" x2="1019.482727" y2="1113.831665" style="stroke: green; stroke-width: 0.200000"/>
   <line x1="1005.482727" y1="1097.932495" x2="1005.482727" y2="1113.777588" style="stroke: green; stroke-width: 0.200000"/>
   <line x1="1020.482727" y1="1086.704224" x2="1020.482727" y2="1113.549927" style="stroke: green; stroke-width: 0.200000"/>
   <line x1="1004.482727" y1="1098.932495" x2="1004.482727" y2="1113.507568" style="stroke: green; stroke-width: 0.200000"/>
   <line x1="1021.482666" y1="1086.704224" x2="1021.482666" y2="1113.237549" style="stroke: green; stroke-width: 0.200000"/>
   <line x1="1003.482727" y1="1099.932495" x2="1003.482727" y2="1113.208130" style="stroke: green; stroke-width: 0.200000"/>
   <line x1="1022.482788" y1="1086.704224" x2="1022.482788" y2="1112.878662" style="stroke: green; stroke-width: 0.200000"/>
   <line x1="1002.482788" y1="1100.932495" x2="1002.482788" y2="1112.870483" style="stroke: green; stroke-width: 0.200000"/>
   <line x1="1001.482666" y1="1101.932495" x2="1001.482666" y2="1112.504639" style="stroke: green; stroke-width: 0.200000"/>
   <line x1="1023.482727" y1="1086.704224" x2="1023.482727" y2="1112.459839" style="stroke: green; stroke-width: 0.200000"/>
   <line x1="1000.482727" y1="1102.932495" x2="1000.482727" y2="1112.122314" style="stroke: green; stroke-width: 0.200000"/>
   <line x1="1024.482666" y1="1086.704224" x2="1024.482666" y2="1112.011841" style="stroke: green; stroke-width: 0.200000"/>
   <line x1="999.482727" y1="1103.932495" x2="999.482727" y2="1111.739990" style="stroke: green; stroke-width: 0.200000"/>
   <line x1="1025.482666" y1="1086.704224" x2="1025.482666" y2="1111.434204" style="stroke: green; stroke-width: 0.200000"/>
   <line x1="998.482727" y1="1104.932495" x2="998.482727" y2="1111.357666" style="stroke: green; stroke-width: 0.200000"/>
   <line x1="997.482788" y1="1105.932495" x2="997.482788" y2="1110.975220" style="stroke: green; stroke-width: 0.200000"/>
   <line x1="1026.482666" y1="1086.704224" x2="1026.482666" y2="1110.785156" style="stroke: green; stroke-width: 0.200000"/>
   <line x1="996.482666" y1="1106.295776" x2="996.482666" y2="1110.593018" style="stroke: green; stroke-width: 0.200000"/>
   <line x1="995.482727" y1="1106.135864" x2="995.482727" y2="1110.202881" style="stroke: green; stroke-width: 0.200000"/>
   <line x1="1027.482788" y1="1086.704224" x2="1027.482788" y2="1110.061890" style="stroke: green; stroke-width: 0.200000"/>
   <line x1="994.482727" y1="1105.975952" x2="994.482727" y2="1109.812622" style="stroke: green; stroke-width: 0.200000"/>
   <line x1="993.482727" y1="1105.816040" x2="993.482727" y2="1109.422363" style="stroke: green; stroke-width: 0.200000"/>
   <line x1="1028.482788" y1="1086.704224" x2="1028.482788" y2="1109.238647" style="stroke: green; stroke-width: 0.200000"/>
   <line x1="992.482788" y1="1105.656128" x2="992.482788" y2="1109.032227" style="stroke: green; stroke-width: 0.200000"/>
   <line x1="991.482666" y1="1105.496216" x2="991.482666" y2="1108.641968" style="stroke: green; stroke-width: 0.200000"/>
   <line x1="1029.482666" y1="1086.704224" x2="1029.482666" y2="1108.337769" style="stroke: green; stroke-width: 0.200000"/>
   <line x1="990.482727" y1="1106.145508" x2="990.482727" y2="1108.251831" style="stroke: green; stroke-width: 0.200000"/>
   <line x1="989.482727" y1="1107.145508" x2="989.482727" y2="1107.861572" style="stroke: green; stroke-width: 0.200000"/>
   <line x1="1030.482666" y1="1086.704224" x2="1030.482666" y2="1107.314697" style="stroke: green; stroke-width: 0.200000"/>
   <line x1="1031.482666" y1="1086.704224" x2="1031.482666" y2="1106.265381" style="stroke: green; stroke-width: 0.200000"/>
   <line x1="1032.482788" y1="1086.704224" x2="1032.482788" y2="1105.199707" style="stroke: green; stroke-width: 0.200000"/>
   <line x1="1033.482788" y1="1086.704224" x2="1033.482788" y2="1104.134277" style="stroke: green; stroke-width: 0.200000"/>
   <line x1="1034.482666" y1="1086.704224" x2="1034.482666" y2="1103.085083" style="stroke: green; stroke-width: 0.200000"/>
   <line x1="1035.482666" y1="1086.704224" x2="1035.482666" y2="1102.061646" style="stroke: green; stroke-width: 0.200000"/>
   <line x1="1036.482666" y1="1086.704224" x2="1036.482666" y2="1101.038086" style="stroke: green; stroke-width: 0.200000"/>
   <line x1="1037.482788" y1="1086.704224" x2="1037.482788" y2="1099.974731" style="stroke: green; stroke-width: 0.200000"/>
   <line x1="1038.482788" y1="1086.704224" x2="1038.482788" y2="1098.792236" style="stroke: green; stroke-width: 0.200000"/>
   <line x1="1039.482666" y1="1086.704224" x2="1039.482666" y2="1097.496826" style="stroke: green; stroke-width: 0.200000"/>
   <line x1="1040.482666" y1="1086.704224" x2="1040.482666" y2="1096.058228" style="stroke: green; stroke-width: 0.200000"/>
   <line x1="1041.482666" y1="1086.704224" x2="1041.482666" y2="1094.288818" style="stroke: green; stroke-width: 0.200000"/>
   <line x1="1042.482788" y1="1086.704224" x2="1042.482788" y2="1092.137573" style="stroke: green; stroke-width: 0.200000"/>
   <line x1="1043.482788" y1="1086.704224" x2="1043.482788" y2="1089.508057" style="stroke: green; stroke-width: 0.200000"/>
   <line x1="1044.482666" y1="1086.704224" x2="1044.482666" y2="1087.028931" style="stroke: green; stroke-width: 0.200000"/>
   <line x1="960.658447" y1="1048.721802" x2="960.658447" y2="1059.821655" style="stroke: green; stroke-width: 0.200000"/>
   <line x1="961.658386" y1="1048.730957" x2="961.658386" y2="1059.808105" style="stroke: green; stroke-width: 0.200000"/>
   <line x1="959.658447" y1="1048.895264" x2="959.658447" y2="1059.653931" style="stroke: green; stroke-width: 0.200000"/>
   <line x1="962.658386" y1="1048.921631" x2="962.658386" y2="1059.611328" style="stroke: green; stroke-width: 0.200000"/>
   <line x1="958.658447" y1="1049.269165" x2="958.658447" y2="1059.289795" style="stroke: green; stroke-width: 0.200000"/>
   <line x1="963.658447" y1="1049.319092" x2="963.658447" y2="1059.211548" style="stroke: green; stroke-width: 0.200000"/>
   <line x1="957.658386" y1="1049.886841" x2="957.658386" y2="1058.665649" style="stroke: green; stroke-width: 0.200000"/>
   <line x1="964.658447" y1="1049.995850" x2="964.658447" y2="1058.563232" style="stroke: green; stroke-width: 0.200000"/>
   <line x1="956.658386" y1="1050.905884" x2="956.658386" y2="1057.659180" style="stroke: green; stroke-width: 0.200000"/>
   <line x1="965.658447" y1="1051.079712" x2="965.658447" y2="1057.450684" style="stroke: green; stroke-width: 0.200000"/>
   <line x1="955.658447" y1="1053.029419" x2="955.658447" y2="1055.473022" style="stroke: green; stroke-width: 0.200000"/>
   <line x1="966.658386" y1="1054.197754" x2="966.658386" y2="1054.566528" style="stroke: green; stroke-width: 0.200000"/>
   <line x1="875.040283" y1="1024.204346" x2="875.040283" y2="1032.441040" style="stroke: green; stroke-width: 0.200000"/>
   <line x1="876.040283" y1="1022.337036" x2="876.040283" y2="1032.441040" style="stroke: green; stroke-width: 0.200000"/>
   <line x1="877.040283" y1="1020.469666" x2="877.040283" y2="1032.441040" style="stroke: green; stroke-width: 0.200000"/>
   <line x1="878.040222" y1="1018.651062" x2="878.040222" y2="1032.441040" style="stroke: green; stroke-width: 0.200000"/>
   <line x1="879.040283" y1="1017.036499" x2="879.040283" y2="1032.441040" style="stroke: green; stroke-width: 0.200000"/>
   <line x1="880.040283" y1="1015.579163" x2="880.040283" y2="1032.441040" style="stroke: green; stroke-width: 0.200000"/>
   <line x1="881.040283" y1="1014.146667" x2="881.040283" y2="1032.441040" style="stroke: green; stroke-width: 0.200000"/>
   <line x1="882.040283" y1="1012.668213" x2="882.040283" y2="1032.441040" style="stroke: green; stroke-width: 0.200000"/>
   <line x1="883.040222" y1="1011.321411" x2="883.040222" y2="1032.441040" style="stroke: green; stroke-width: 0.200000"/>
   <line x1="884.040283" y1="1010.093140" x2="884.040283" y2="1032.441040" style="stroke: green; stroke-width: 0.200000"/>
   <line x1="885.040283" y1="1008.864990" x2="885.040283" y2="1032.441040" style="stroke: green; stroke-width: 0.200000"/>
   <line x1="886.040283" y1="1007.636719" x2="886.040283" y2="1032.441040" style="stroke: green; stroke-width: 0.200000"/>
   <line x1="887.040283" y1="1006.439819" x2="887.040283" y2="1032.441040" style="stroke: green; stroke-width: 0.200000"/>
   <line x1="888.040222" y1="1005.319214" x2="888.040222" y2="1032.441040" style="stroke: green; stroke-width: 0.200000"/>
   <line x1="874.040283" y1="1026.850586" x2="874.040283" y2="1032.122925" style="stroke: green; stroke-width: 0.200000"/>
   <line x1="889.040283" y1="1004.280762" x2="889.040283" y2="1031.545288" style="stroke: green; stroke-width: 0.200000"/>
   <line x1="890.040283" y1="1003.242493" x2="890.040283" y2="1030.545288" style="stroke: green; stroke-width: 0.200000"/>
   <line x1="891.040283" y1="1002.204102" x2="891.040283" y2="1029.545166" style="stroke: green; stroke-width: 0.200000"/>
   <line x1="892.040283" y1="1001.165833" x2="892.040283" y2="1028.545166" style="stroke: green; stroke-width: 0.200000"/>
   <line x1="893.040222" y1="1000.127563" x2="893.040222" y2="1027.545288" style="stroke: green; stroke-width: 0.200000"/>
   <line x1="894.040283" y1="999.100708" x2="894.040283" y2="1026.545288" style="stroke: green; stroke-width: 0.200000"/>
   <line x1="895.040283" y1="998.142822" x2="895.040283" y2="1025.545166" style="stroke: green; stroke-width: 0.200000"/>
   <line x1="896.040283" y1="997.184937" x2="896.040283" y2="1024.545166" style="stroke: green; stroke-width: 0.200000"/>
   <line x1="897.040283" y1="996.227051" x2="897.040283" y2="1023.545227" style="stroke: green; stroke-width: 0.200000"/>
   <line x1="898.040222" y1="995.277649" x2="898.040222" y2="1022.545227" style="stroke: green; stroke-width: 0.200000"/>
   <line x1="899.040283" y1="994.336426" x2="899.040283" y2="1021.545288" style="stroke: green; stroke-width: 0.200000"/>
   <line x1="900.040283" y1="993.412476" x2="900.040283" y2="1020.545166" style="stroke: green; stroke-width: 0.200000"/>
   <line x1="901.040283" y1="992.649902" x2="901.040283" y2="1019.545227" style="stroke: green; stroke-width: 0.200000"/>
   <line x1="902.040283" y1="991.845337" x2="902.040283" y2="1018.545227" style="stroke: green; stroke-width: 0.200000"/>
   <line x1="903.040222" y1="991.225464" x2="903.040222" y2="1017.545227" style="stroke: green; stroke-width: 0.200000"/>
   <line x1="904.040283" y1="990.650024" x2="904.040283" y2="1016.545288" style="stroke: green; stroke-width: 0.200000"/>
   <line x1="905.040283" y1="990.165527" x2="905.040283" y2="1015.545166" style="stroke: green; stroke-width: 0.200000"/>
   <line x1="906.040283" y1="989.738281" x2="906.040283" y2="1014.545227" style="stroke: green; stroke-width: 0.200000"/>
   <line x1="907.040283" y1="989.349976" x2="907.040283" y2="1013.545227" style="stroke: green; stroke-width: 0.200000"/>
   <line x1="908.040222" y1="989.058533" x2="908.040222" y2="1012.545410" style="stroke: green; stroke-width: 0.200000"/>
   <line x1="909.040283" y1="988.767090" x2="909.040283" y2="1011.545349" style="stroke: green; stroke-width: 0.200000"/>
   <line x1="910.040283" y1="988.519043" x2="910.040283" y2="1010.545349" style="stroke: green; stroke-width: 0.200000"/>
   <line x1="911.040283" y1="988.287354" x2="911.040283" y2="1009.545349" style="stroke: green; stroke-width: 0.200000"/>
   <line x1="912.040283" y1="988.055542" x2="912.040283" y2="1008.545410" style="stroke: green; stroke-width: 0.200000"/>
   <line x1="913.040222" y1="987.823853" x2="913.040222" y2="1007.545410" style="stroke: green; stroke-width: 0.200000"/>
   <line x1="914.040283" y1="987.592102" x2="914.040283" y2="1006.545349" style="stroke: green; stroke-width: 0.200000"/>
   <line x1="915.040283" y1="987.360352" x2="915.040283" y2="1005.545349" style="stroke: green; stroke-width: 0.200000"/>
   <line x1="916.040283" y1="987.128662" x2="916.040283" y2="1004.545349" style="stroke: green; stroke-width: 0.200000"/>
   <line x1="917.040283" y1="986.896912" x2="917.040283" y2="1003.545410" style="stroke: green; stroke-width: 0.200000"/>
   <line x1="918.040222" y1="986.665161" x2="918.040222" y2="1002.545288" style="stroke: green; stroke-width: 0.200000"/>
   <line x1="919.040283" y1="986.433411" x2="919.040283" y2="1001.545349" style="stroke: green; stroke-width: 0.200000"/>
   <line x1="920.040283" y1="986.201721" x2="920.040283" y2="1000.545349" style="stroke: green; stroke-width: 0.200000"/>
   <line x1="921.040283" y1="985.969971" x2="921.040283" y2="999.545349" style="stroke: green; stroke-width: 0.200000"/>
   <line x1="922.040283" y1="985.723938" x2="922.040283" y2="998.545227" style="stroke: green; stroke-width: 0.200000"/>
   <line x1="923.040222" y1="985.438110" x2="923.040222" y2="997.545227" style="stroke: green; stroke-width: 0.200000"/>
   <line x1="924.040283" y1="985.152222" x2="924.040283" y2="996.545166" style="stroke: green; stroke-width: 0.200000"/>
   <line x1="925.040283" y1="984.866333" x2="925.040283" y2="995.545166" style="stroke: green; stroke-width: 0.200000"/>
   <line x1="926.040283" y1="984.580444" x2="926.040283" y2="994.545227" style="stroke: green; stroke-width: 0.200000"/>
   <line x1="927.040283" y1="984.288879" x2="927.040283" y2="993.545227" style="stroke: green; stroke-width: 0.200000"/>
   <line x1="931.040283" y1="982.996094" x2="931.040283" y2="992.678772" style="stroke: green; stroke-width: 0.200000"/>
   <line x1="928.040222" y1="983.988098" x2="928.040222" y2="992.545227" style="stroke: green; stroke-width: 0.200000"/>
   <line x1="932.040283" y1="982.685425" x2="932.040283" y2="992.109924" style="stroke: green; stroke-width: 0.200000"/>
   <line x1="930.040283" y1="983.326965" x2="930.040283" y2="991.678772" style="stroke: green; stroke-width: 0.200000"/>
   <line x1="929.040283" y1="983.657776" x2="929.040283" y2="991.545288" style="stroke: green; stroke-width: 0.200000"/>
   <line x1="933.040222" y1="982.442688" x2="933.040222" y2="991.109924" style="stroke: green; stroke-width: 0.200000"/>
   <line x1="934.040283" y1="982.723999" x2="934.040283" y2="990.109924" style="stroke: green; stroke-width: 0.200000"/>
   <line x1="935.040283" y1="983.463806" x2="935.040283" y2="989.109985" style="stroke: green; stroke-width: 0.200000"/>
   <line x1="936.040283" y1="984.190002" x2="936.040283" y2="988.109863" style="stroke: green; stroke-width: 0.200000"/>
   <line x1="937.040283" y1="984.994263" x2="937.040283" y2="987.109924" style="stroke: green; stroke-width: 0.200000"/>
   <line x1="938.040222" y1="985.943054" x2="938.040222" y2="986.109924" style="stroke: green; stroke-width: 0.200000"/>
   <line x1="882.040283" y1="1039.985474" x2="882.040283" y2="1042.109863" style="stroke: green; stroke-width: 0.200000"/>
   <line x1="881.040283" y1="1032.541016" x2="881.040283" y2="1041.839600" style="stroke: green; stroke-width: 0.200000"/>
   <line x1="883.040222" y1="1040.985474" x2="883.040222" y2="1041.109985" style="stroke: green; stroke-width: 0.200000"/>
   <line x1="880.040283" y1="1032.541016" x2="880.040283" y2="1040.802734" style="stroke: green; stroke-width: 0.200000"/>
   <line x1="879.040283" y1="1032.541016" x2="879.040283" y2="1039.765869" style="stroke: green; stroke-width: 0.200000"/>
   <line x1="878.040222" y1="1032.541016" x2="878.040222" y2="1038.729126" style="stroke: green; stroke-width: 0.200000"/>
   <line x1="882.040283" y1="1032.541016" x2="882.040283" y2="1038.545166" style="stroke: green; stroke-width: 0.200000"/>
   <line x1="877.040283" y1="1032.541016" x2="877.040283" y2="1037.686523" style="stroke: green; stroke-width: 0.200000"/>
   <line x1="883.040222" y1="1032.541016" x2="883.040222" y2="1037.545288" style="stroke: green; stroke-width: 0.200000"/>
   <line x1="884.040283" y1="1032.541016" x2="884.040283" y2="1036.545288" style="stroke: green; stroke-width: 0.200000"/>
   <line x1="876.040283" y1="1032.541016" x2="876.040283" y2="1036.452515" style="stroke: green; stroke-width: 0.200000"/>
   <line x1="885.040283" y1="1032.541016" x2="885.040283" y2="1035.545288" style="stroke: green; stroke-width: 0.200000"/>
   <line x1="875.040283" y1="1032.541016" x2="875.040283" y2="1034.814575" style="stroke: green; stroke-width: 0.200000"/>
   <line x1="886.040283" y1="1032.541016" x2="886.040283" y2="1034.545166" style="stroke: green; stroke-width: 0.200000"/>
   <line x1="887.040283" y1="1032.541016" x2="887.040283" y2="1033.545166" style="stroke: green; stroke-width: 0.200000"/>
   <line x1="888.040222" y1="1032.541016" x2="888.040222" y2="1032.545288" style="stroke: green; stroke-width: 0.200000"/>
   <line x1="1041.380493" y1="968.079102" x2="1041.380493" y2="979.203857" style="stroke: green; stroke-width: 0.200000"/>
   <line x1="1042.380493" y1="968.096191" x2="1042.380493" y2="979.182251" style="stroke: green; stroke-width: 0.200000"/>
   <line x1="1040.380493" y1="968.243896" x2="1040.380493" y2="979.044434" style="stroke: green; stroke-width: 0.200000"/>
   <line x1="1043.380371" y1="968.294800" x2="1043.380371" y2="978.977417" style="stroke: green; stroke-width: 0.200000"/>
   <line x1="1039.380493" y1="968.607910" x2="1039.380493" y2="978.689575" style="stroke: green; stroke-width: 0.200000"/>
   <line x1="1044.380493" y1="968.709961" x2="1044.380493" y2="978.568970" style="stroke: green; stroke-width: 0.200000"/>
   <line x1="1038.380371" y1="969.213867" x2="1038.380371" y2="978.089233" style="stroke: green; stroke-width: 0.200000"/>
   <line x1="1045.380493" y1="969.397095" x2="1045.380493" y2="977.909424" style="stroke: green; stroke-width: 0.200000"/>
   <line x1="1037.380493" y1="970.195435" x2="1037.380493" y2="977.098877" style="stroke: green; stroke-width: 0.200000"/>
   <line x1="1046.380493" y1="970.512207" x2="1046.380493" y2="976.769409" style="stroke: green; stroke-width: 0.200000"/>
   <line x1="1036.380493" y1="972.206665" x2="1036.380493" y2="975.097900" style="stroke: green; stroke-width: 0.200000"/>
   <line x1="973.097900" y1="934.747864" x2="973.097900" y2="935.483887" style="stroke: green; stroke-width: 0.200000"/>
   <line x1="974.097961" y1="931.202881" x2="974.097961" y2="935.483887" style="stroke: green; stroke-width: 0.200000"/>
   <line x1="975.097961" y1="927.606812" x2="975.097961" y2="935.483887" style="stroke: green; stroke-width: 0.200000"/>
   <line x1="976.097961" y1="923.019897" x2="976.097961" y2="935.483887" style="stroke: green; stroke-width: 0.200000"/>
   <line x1="977.097900" y1="919.075623" x2="977.097900" y2="935.483887" style="stroke: green; stroke-width: 0.200000"/>
   <line x1="978.097900" y1="916.405334" x2="978.097900" y2="935.483887" style="stroke: green; stroke-width: 0.200000"/>
   <line x1="979.097961" y1="914.609436" x2="979.097961" y2="935.483887" style="stroke: green; stroke-width: 0.200000"/>
   <line x1="980.097961" y1="913.079102" x2="980.097961" y2="935.483887" style="stroke: green; stroke-width: 0.200000"/>
   <line x1="981.097961" y1="911.783508" x2="981.097961" y2="935.483887" style="stroke: green; stroke-width: 0.200000"/>
   <line x1="982.097900" y1="910.691223" x2="982.097900" y2="935.483887" style="stroke: green; stroke-width: 0.200000"/>
   <line x1="983.097900" y1="909.652405" x2="983.097900" y2="935.483887" style="stroke: green; stroke-width: 0.200000"/>
   <line x1="984.097961" y1="908.613647" x2="984.097961" y2="935.483887" style="stroke: green; stroke-width: 0.200000"/>
   <line x1="985.097961" y1="907.574951" x2="985.097961" y2="935.483887" style="stroke: green; stroke-width: 0.200000"/>
   <line x1="986.097961" y1="906.536194" x2="986.097961" y2="934.487854" style="stroke: green; stroke-width: 0.200000"/>
   <line x1="987.097900" y1="905.497375" x2="987.097900" y2="933.487854" style="stroke: green; stroke-width: 0.200000"/>
   <line x1="988.097900" y1="904.458618" x2="988.097900" y2="932.487732" style="stroke: green; stroke-width: 0.200000"/>
   <line x1="989.097961" y1="903.443542" x2="989.097961" y2="931.487732" style="stroke: green; stroke-width: 0.200000"/>
   <line x1="990.097961" y1="902.480225" x2="990.097961" y2="930.487671" style="stroke: green; stroke-width: 0.200000"/>
   <line x1="991.097961" y1="901.516968" x2="991.097961" y2="929.487549" style="stroke: green; stroke-width: 0.200000"/>
   <line x1="992.097900" y1="900.554871" x2="992.097900" y2="928.487549" style="stroke: green; stroke-width: 0.200000"/>
   <line x1="993.097900" y1="899.649353" x2="993.097900" y2="927.487549" style="stroke: green; stroke-width: 0.200000"/>
   <line x1="994.097961" y1="898.765625" x2="994.097961" y2="926.487549" style="stroke: green; stroke-width: 0.200000"/>
   <line x1="995.097961" y1="897.919617" x2="995.097961" y2="925.487610" style="stroke: green; stroke-width: 0.200000"/>
   <line x1="996.097961" y1="897.073608" x2="996.097961" y2="924.487549" style="stroke: green; stroke-width: 0.200000"/>
   <line x1="997.097900" y1="896.227539" x2="997.097900" y2="923.487671" style="stroke: green; stroke-width: 0.200000"/>
   <line x1="998.097900" y1="895.371582" x2="998.097900" y2="922.487732" style="stroke: green; stroke-width: 0.200000"/>
   <line x1="999.097961" y1="894.471069" x2="999.097961" y2="921.487732" style="stroke: green; stroke-width: 0.200000"/>
   <line x1="1000.097961" y1="893.654663" x2="1000.097961" y2="920.487671" style="stroke: green; stroke-width: 0.200000"/>
   <line x1="1001.097961" y1="892.889282" x2="1001.097961" y2="919.487671" style="stroke: green; stroke-width: 0.200000"/>
   <line x1="1002.097900" y1="892.123962" x2="1002.097900" y2="918.487671" style="stroke: green; stroke-width: 0.200000"/>
   <line x1="1003.097900" y1="891.358643" x2="1003.097900" y2="917.487732" style="stroke: green; stroke-width: 0.200000"/>
   <line x1="1004.097961" y1="890.593262" x2="1004.097961" y2="916.487671" style="stroke: green; stroke-width: 0.200000"/>
   <line x1="1005.097961" y1="889.874573" x2="1005.097961" y2="915.487671" style="stroke: green; stroke-width: 0.200000"/>
   <line x1="1006.097961" y1="889.151123" x2="1006.097961" y2="914.487671" style="stroke: green; stroke-width: 0.200000"/>
   <line x1="1007.097900" y1="888.421753" x2="1007.097900" y2="913.487671" style="stroke: green; stroke-width: 0.200000"/>
   <line x1="1008.097900" y1="887.758484" x2="1008.097900" y2="912.487549" style="stroke: green; stroke-width: 0.200000"/>
   <line x1="1009.097961" y1="887.193604" x2="1009.097961" y2="911.487549" style="stroke: green; stroke-width: 0.200000"/>
   <line x1="1010.097961" y1="886.717224" x2="1010.097961" y2="910.487610" style="stroke: green; stroke-width: 0.200000"/>
   <line x1="1011.097961" y1="886.325195" x2="1011.097961" y2="909.487549" style="stroke: green; stroke-width: 0.200000"/>
   <line x1="1012.097900" y1="886.030029" x2="1012.097900" y2="908.487549" style="stroke: green; stroke-width: 0.200000"/>
   <line x1="1013.097900" y1="885.789307" x2="1013.097900" y2="907.487549" style="stroke: green; stroke-width: 0.200000"/>
   <line x1="1014.097961" y1="885.622681" x2="1014.097961" y2="906.487549" style="stroke: green; stroke-width: 0.200000"/>
   <line x1="1015.097961" y1="885.516113" x2="1015.097961" y2="905.487610" style="stroke: green; stroke-width: 0.200000"/>
   <line x1="1016.097961" y1="885.488220" x2="1016.097961" y2="904.487549" style="stroke: green; stroke-width: 0.200000"/>
   <line x1="1017.097900" y1="885.520691" x2="1017.097900" y2="903.487549" style="stroke: green; stroke-width: 0.200000"/>
   <line x1="1018.097900" y1="885.617432" x2="1018.097900" y2="902.487549" style="stroke: green; stroke-width: 0.200000"/>
   <line x1="1019.097961" y1="885.780701" x2="1019.097961" y2="901.487549" style="stroke: green; stroke-width: 0.200000"/>
   <line x1="1020.097961" y1="886.008606" x2="1020.097961" y2="900.487610" style="stroke: green; stroke-width: 0.200000"/>
   <line x1="1021.097961" y1="886.325134" x2="1021.097961" y2="899.487549" style="stroke: green; stroke-width: 0.200000"/>
   <line x1="1022.097900" y1="886.695618" x2="1022.097900" y2="898.487549" style="stroke: green; stroke-width: 0.200000"/>
   <line x1="1023.097900" y1="887.156006" x2="1023.097900" y2="897.487549" style="stroke: green; stroke-width: 0.200000"/>
   <line x1="1024.098022" y1="887.697083" x2="1024.098022" y2="896.487549" style="stroke: green; stroke-width: 0.200000"/>
   <line x1="1025.097900" y1="888.361084" x2="1025.097900" y2="895.487610" style="stroke: green; stroke-width: 0.200000"/>
   <line x1="1029.098022" y1="892.121887" x2="1029.098022" y2="895.052246" style="stroke: green; stroke-width: 0.200000"/>
   <line x1="1026.097900" y1="889.127441" x2="1026.097900" y2="894.487549" style="stroke: green; stroke-width: 0.200000"/>
   <line x1="1028.097900" y1="891.054688" x2="1028.097900" y2="894.282776" style="stroke: green; stroke-width: 0.200000"/>
   <line x1="1030.097900" y1="893.189026" x2="1030.097900" y2="894.052246" style="stroke: green; stroke-width: 0.200000"/>
   <line x1="1027.097900" y1="890.021973" x2="1027.097900" y2="893.487549" style="stroke: green; stroke-width: 0.200000"/>
   <line x1="973.097900" y1="935.583862" x2="973.097900" y2="951.052246" style="stroke: green; stroke-width: 0.200000"/>
   <line x1="972.097900" y1="937.734619" x2="972.097900" y2="950.850769" style="stroke: green; stroke-width: 0.200000"/>
   <line x1="974.097961" y1="935.583862" x2="974.097961" y2="950.052246" style="stroke: green; stroke-width: 0.200000"/>
   <line x1="971.097961" y1="940.770874" x2="971.097961" y2="949.610107" style="stroke: green; stroke-width: 0.200000"/>
   <line x1="975.097961" y1="935.583862" x2="975.097961" y2="949.052246" style="stroke: green; stroke-width: 0.200000"/>
   <line x1="970.097961" y1="943.511902" x2="970.097961" y2="948.293396" style="stroke: green; stroke-width: 0.200000"/>
   <line x1="976.097961" y1="935.583862" x2="976.097961" y2="948.052307" style="stroke: green; stroke-width: 0.200000"/>
   <line x1="977.097900" y1="935.583862" x2="977.097900" y2="947.052307" style="stroke: green; stroke-width: 0.200000"/>
   <line x1="978.097900" y1="935.583862" x2="978.097900" y2="946.052246" style="stroke: green; stroke-width: 0.200000"/>
   <line x1="979.097961" y1="943.407532" x2="979.097961" y2="945.052246" style="stroke: green; stroke-width: 0.200000"/>
   <line x1="979.097961" y1="935.583862" x2="979.097961" y2="941.487915" style="stroke: green; stroke-width: 0.200000"/>
   <line x1="980.097961" y1="935.583862" x2="980.097961" y2="940.487793" style="stroke: green; stroke-width: 0.200000"/>
   <line x1="981.097961" y1="935.583862" x2="981.097961" y2="939.487854" style="stroke: green; stroke-width: 0.200000"/>
   <line x1="982.097900" y1="935.583862" x2="982.097900" y2="938.487854" style="stroke: green; stroke-width: 0.200000"/>
   <line x1="983.097900" y1="935.583862" x2="983.097900" y2="937.487854" style="stroke: green; stroke-width: 0.200000"/>
   <line x1="984.097961" y1="935.583862" x2="984.097961" y2="936.487793" style="stroke: green; stroke-width: 0.200000"/>
   <line x1="1095.906006" y1="1046.010010" x2="1095.906006" y2="1046.010254" style="stroke: green; stroke-width: 0.200000"/>
   <path d="M 1028.92  1110.82  1028.16  1111.44  1026.7  1112.46  1025.21  1113.33  1023.37  1114.15  1021.54  1114.81  1019.65  1115.34  1017.71  1115.75  1015.73  1116.03  1013.73  1116.18  1011.74  1116.19  1009.62  1116.04  1007.53  1115.75  1005.47  1115.33  1003.47  1114.79  1001.6  1114.16  995.927  1111.99  986.284  1108.22  990.661  1103.85  996.513  1104.78  1018.77  1082.53  1015.66  1079.42  1066.44  1028.63  1069.55  1031.74  1109.15  992.145  1107.06  988.699  1106.57  987.942  1110.29  984.214  1113.77  988.9  1116.38  992.459  1117.86  994.557  1119.22  996.609  1120.37  998.719  1121.34  1000.88  1122.16  1003.1  1122.81  1005.36  1123.3  1007.64  1123.62  1009.93  1123.77  1012.23  1123.67  1014.41  1123.4  1016.55  1122.97  1018.63  1122.57  1020.35  1122.46  1020.74  1121.81  1022.48  1121.72  1022.7  1120.82  1024.54  1119.95  1025.97  " style="fill: none; stroke: darkmagenta; stroke-width: 0.200000; fill-type: evenodd"  fill-opacity="1.000000" />
   <path d="M 1119.95  1025.97  1119.77  1026.27  1119.59  1026.51  " style="fill: none; stroke: red; stroke-width: 0.200000; fill-type: evenodd"  fill-opacity="1.000000" />
   <path d="M 1119.59  1026.51  1119  1027.29  1118.94  1027.37  " style="fill: none; stroke: darkmagenta; stroke-width: 0.200000; fill-type: evenodd"  fill-opacity="1.000000" />
   <path d="M 1118.94  1027.37  1118.59  1027.86  1114.36  1032.93  1108.47  1039.22  1107.91  1039.78  1105.18  1042.34  1104.48  1042.98  1102.98  1044.22  1102.72  1044.39  " style="fill: none; stroke: red; stroke-width: 0.200000; fill-type: evenodd"  fill-opacity="1.000000" />
   <path d="M 1102.72  1044.39  1102.38  1044.6  " style="fill: none; stroke: darkmagenta; stroke-width: 0.200000; fill-type: evenodd"  fill-opacity="1.000000" />
   <path d="M 1102.38  1044.6  1100.5  1045.78  1100.34  1045.85  " style="fill: none; stroke: red; stroke-width: 0.200000; fill-type: evenodd"  fill-opacity="1.000000" />
   <path d="M 1100.34  1045.85  1097.77  1047  1096.28  1047.46  1094.9  1047.86  1089.63  1049.12  1084.27  1050.67  1084.25  1050.68  " style="fill: none; stroke: darkmagenta; stroke-width: 0.200000; fill-type: evenodd"  fill-opacity="1.000000" />
   <path d="M 1084.25  1050.68  1079.23  1052.5  1074.57  1054.67  1070.33  1057.2  1066.47  1060.07  1064.12  1062.15  1062.86  1063.22  1059.48  1066.55  1056.31  1070.07  1053.37  1073.8  1052.84  1074.65  1050.72  1077.79  1050.2  1078.79  1048.34  1082.03  1047.89  1083.12  1046.24  1086.53  1045.87  1087.61  1044.41  1091.21  1044.35  1091.54  1044.3  1091.67  1043.26  1094.18  1041.88  1096.68  1040.24  1099.03  1038.65  1100.92  1038  1101.63  1035.17  1104.52  1032.39  1107.49  1030.69  1109.27  1029.5  1110.34  1028.92  1110.82  " style="fill: none; stroke: red; stroke-width: 0.200000; fill-type: evenodd"  fill-opacity="1.000000" />
   <path d="M 1112.96  989.494  1115.57  993.044  1117.03  995.122  1118.36  997.125  1119.47  999.165  1120.42  1001.26  1121.21  1003.41  1121.84  1005.6  1122.32  1007.82  1122.63  1010.03  1122.76  1012.24  1122.67  1014.33  1122.41  1016.39  1122  1018.42  1121.6  1020.1  1121.51  1020.43  1120.88  1022.12  1120.81  1022.3  1119.94  1024.06  1118.94  1025.71  1118.19  1026.69  1117.8  1027.25  1113.61  1032.27  1107.76  1038.52  1107.21  1039.06  1104.5  1041.61  1103.83  1042.23  1102.4  1043.41  1100.03  1044.89  1097.42  1046.06  1095.99  1046.51  1094.65  1046.9  1089.37  1048.16  1083.96  1049.72  1078.85  1051.58  1074.1  1053.78  1069.78  1056.36  1065.83  1059.3  1063.46  1061.4  1062.19  1062.49  1058.76  1065.85  1055.54  1069.42  1052.55  1073.23  1052  1074.1  1049.85  1077.28  1049.32  1078.31  1047.44  1081.59  1046.97  1082.7  1045.31  1086.15  1044.93  1087.26  1043.44  1090.94  1043.38  1091.28  1042.35  1093.74  1041.03  1096.15  1039.45  1098.42  1037.9  1100.26  1037.28  1100.94  1034.45  1103.83  1031.66  1106.8  1029.99  1108.55  1028.85  1109.58  1027.56  1110.65  1026.16  1111.62  1024.75  1112.44  1023  1113.23  1021.24  1113.86  1019.41  1114.37  1017.54  1114.76  1015.63  1115.03  1013.69  1115.18  1011.77  1115.19  1009.73  1115.04  1007.7  1114.76  1005.7  1114.35  1003.77  1113.83  1001.94  1113.22  996.288  1111.05  988.073  1107.85  991.007  1104.91  996.859  1105.85  1020.18  1082.53  1017.07  1079.42  1066.44  1030.04  1069.55  1033.16  1110.41  992.298  1107.85  988.069  1110.18  985.741  1112.96  989.494  " style="fill: none; stroke: black; stroke-width: 0.200000; fill-type: evenodd"  fill-opacity="1.000000" />
   <path d="M 962.045  1047.25  963.201  1047.51  964.299  1047.95  965.305  1048.57  966.103  1049.26  966.791  1050.06  967.412  1051.07  967.858  1052.16  968.115  1053.32  968.176  1054.5  968.039  1055.68  967.707  1056.82  967.191  1057.88  966.505  1058.85  965.667  1059.69  964.702  1060.37  963.635  1060.89  962.498  1061.22  961.321  1061.36  960.138  1061.3  958.981  1061.04  957.884  1060.59  956.878  1059.97  956.079  1059.28  955.391  1058.49  954.77  1057.48  954.324  1056.38  954.067  1055.23  954.007  1054.04  954.144  1052.87  954.475  1051.73  954.991  1050.66  955.678  1049.7  956.515  1048.86  957.481  1048.17  958.547  1047.66  959.685  1047.33  960.862  1047.19  962.045  1047.25  " style="fill: none; stroke: darkmagenta; stroke-width: 0.200000; fill-type: evenodd"  fill-opacity="1.000000" />
   <path d="M 961.91  1048.24  962.903  1048.46  963.845  1048.85  964.712  1049.38  965.394  1049.97  965.982  1050.65  966.517  1051.52  966.9  1052.46  967.121  1053.45  967.173  1054.47  967.055  1055.48  966.771  1056.46  966.328  1057.37  965.738  1058.2  965.019  1058.92  964.19  1059.51  963.275  1059.95  962.299  1060.24  961.288  1060.35  960.273  1060.3  959.28  1060.08  958.338  1059.7  957.47  1059.16  956.788  1058.58  956.201  1057.89  955.665  1057.03  955.282  1056.08  955.062  1055.09  955.01  1054.08  955.127  1053.07  955.412  1052.09  955.855  1051.17  956.444  1050.34  957.163  1049.63  957.992  1049.04  958.907  1048.59  959.884  1048.31  960.894  1048.19  961.91  1048.24  " style="fill: none; stroke: black; stroke-width: 0.200000; fill-type: evenodd"  fill-opacity="1.000000" />
   <path d="M 933.415  980.96  933.607  980.975  933.945  981.05  934.233  981.145  934.581  981.303  934.88  981.478  935.76  982.138  936.497  982.647  937.682  983.564  938.299  984.102  938.89  984.659  940.251  986.021  931.256  995.016  929.474  993.233  883.441  1039.27  885.224  1041.05  881.645  1044.63  875.945  1038.72  874.717  1037.2  874.354  1036.64  873.639  1035.38  873.552  1035.16  872.88  1033.65  872.388  1031.7  872.216  1029.93  872.207  1029.64  872.298  1028  872.358  1027.56  872.669  1026.09  872.742  1025.85  873.237  1024.61  873.426  1024.04  876.508  1018.29  877.55  1016.56  878.434  1015.26  879.594  1013.61  881.309  1011.07  885.607  1005.79  886.941  1004.3  892.838  998.176  896.494  994.673  898.785  992.516  899.146  992.203  899.848  991.686  901.003  990.746  901.339  990.5  902.614  989.731  903.766  989.084  905.153  988.481  906.349  987.989  908.447  987.372  908.939  987.235  921.401  984.347  926.238  982.964  927.606  982.552  930.693  981.531  932.133  981.087  932.514  980.993  932.914  980.94  933.224  980.938  933.415  980.96  " style="fill: none; stroke: darkmagenta; stroke-width: 0.200000; fill-type: evenodd"  fill-opacity="1.000000" />
   <path d="M 933.316  981.956  933.459  981.967  933.68  982.016  933.869  982.078  934.122  982.193  934.327  982.312  935.175  982.95  935.906  983.455  937.047  984.337  937.627  984.843  938.193  985.377  938.837  986.021  931.256  993.601  929.474  991.819  882.027  1039.27  883.81  1041.05  881.658  1043.2  876.695  1038.05  875.526  1036.61  875.209  1036.12  874.546  1034.96  874.476  1034.77  873.828  1033.32  873.376  1031.53  873.214  1029.86  873.207  1029.66  873.294  1028.1  873.344  1027.73  873.638  1026.34  873.686  1026.18  874.177  1024.96  874.348  1024.44  877.377  1018.78  878.393  1017.1  879.257  1015.82  880.417  1014.18  882.112  1011.67  886.368  1006.44  887.674  1004.98  893.544  998.884  897.183  995.398  899.457  993.258  899.771  992.984  900.46  992.478  901.615  991.538  901.894  991.333  903.117  990.595  904.211  989.98  905.543  989.402  906.681  988.934  908.723  988.333  909.186  988.204  921.652  985.315  926.519  983.924  927.907  983.506  930.998  982.484  932.401  982.051  932.7  981.977  932.984  981.94  933.169  981.938  933.316  981.956  " style="fill: none; stroke: black; stroke-width: 0.200000; fill-type: evenodd"  fill-opacity="1.000000" />
   <path d="M 1042.72  966.612  1043.88  966.869  1044.98  967.316  1045.98  967.938  1046.78  968.626  1047.47  969.426  1048.09  970.433  1048.54  971.532  1048.8  972.69  1048.86  973.874  1048.72  975.052  1048.39  976.191  1047.87  977.259  1047.19  978.225  1046.35  979.064  1045.38  979.751  1044.31  980.268  1043.17  980.6  1042  980.737  1040.81  980.676  1039.65  980.419  1038.55  979.973  1037.55  979.351  1036.75  978.662  1036.06  977.863  1035.44  976.856  1034.99  975.757  1034.73  974.599  1034.67  973.414  1034.81  972.236  1035.14  971.097  1035.66  970.03  1036.35  969.063  1037.18  968.224  1038.15  967.537  1039.22  967.02  1040.36  966.688  1041.54  966.551  1042.72  966.612  " style="fill: none; stroke: darkmagenta; stroke-width: 0.200000; fill-type: evenodd"  fill-opacity="1.000000" />
   <path d="M 1042.59  967.606  1043.58  967.827  1044.52  968.21  1045.39  968.747  1046.07  969.335  1046.66  970.018  1047.2  970.887  1047.58  971.83  1047.8  972.824  1047.86  973.842  1047.74  974.853  1047.45  975.831  1047.01  976.748  1046.42  977.578  1045.7  978.298  1044.87  978.888  1043.95  979.332  1042.97  979.616  1041.96  979.734  1040.95  979.682  1039.95  979.461  1039.01  979.078  1038.14  978.542  1037.46  977.953  1036.87  977.27  1036.33  976.401  1035.95  975.458  1035.73  974.464  1035.68  973.447  1035.79  972.435  1036.08  971.457  1036.52  970.541  1037.11  969.711  1037.83  968.991  1038.66  968.4  1039.58  967.957  1040.56  967.672  1041.57  967.554  1042.59  967.606  " style="fill: none; stroke: black; stroke-width: 0.200000; fill-type: evenodd"  fill-opacity="1.000000" />
   <path d="M 1016.8  883.996  1018  884.081  1019.67  884.354  1020.72  884.618  1022.35  885.162  1024.03  885.934  1024.8  886.364  1026.35  887.392  1026.93  887.86  1027.82  888.634  1028.37  889.166  1029.03  889.861  1032.6  893.669  1028.98  897.289  1027.2  895.506  980.259  942.448  982.042  944.23  972.672  953.6  972.029  952.973  971.104  951.998  970.418  951.187  969.07  949.431  968.544  948.705  968.245  948.336  968.024  947.968  967.815  947.544  967.684  947.123  967.609  946.625  967.598  946.294  967.62  945.997  967.695  945.605  967.807  945.249  968.068  944.655  969.487  940.868  971.235  935.56  971.73  934.112  973.634  927.28  975.048  920.795  975.449  919.463  975.821  918.021  976.459  916.49  976.566  916.152  976.94  915.325  977.841  913.788  977.927  913.599  978.402  912.821  980.169  910.532  987.723  902.685  991.054  899.477  992.744  897.946  996.927  894.407  998.517  892.976  1003.59  889.091  1004.38  888.547  1006.46  887.031  1007.44  886.396  1008.04  886.044  1009.3  885.42  1010.72  884.864  1012.25  884.427  1013.54  884.174  1015.13  884.005  1016.36  883.984  1016.8  883.996  " style="fill: none; stroke: darkmagenta; stroke-width: 0.200000; fill-type: evenodd"  fill-opacity="1.000000" />
   <path d="M 1016.75  884.995  1017.88  885.075  1019.47  885.335  1020.44  885.578  1021.99  886.094  1023.58  886.826  1024.28  887.219  1025.76  888.198  1026.28  888.626  1027.15  889.372  1027.66  889.871  1028.31  890.548  1031.21  893.646  1028.98  895.875  1027.2  894.092  978.845  942.448  980.627  944.23  972.666  952.191  971.848  951.33  971.196  950.56  969.872  948.833  969.338  948.096  969.067  947.762  968.903  947.488  968.746  947.172  968.661  946.899  968.606  946.534  968.599  946.314  968.613  946.127  968.666  945.85  968.744  945.602  968.994  945.032  970.43  941.2  972.183  935.879  972.686  934.408  974.605  927.521  976.017  921.046  976.413  919.732  976.771  918.34  977.399  916.835  977.502  916.51  977.83  915.785  978.729  914.25  978.812  914.07  979.227  913.389  980.928  911.186  988.431  903.392  991.737  900.208  993.403  898.699  997.585  895.161  999.156  893.746  1004.18  889.9  1004.96  889.363  1007.03  887.855  1007.97  887.248  1008.52  886.923  1009.7  886.335  1011.04  885.813  1012.48  885.4  1013.69  885.163  1015.19  885.004  1016.36  884.984  1016.75  884.995  " style="fill: none; stroke: black; stroke-width: 0.200000; fill-type: evenodd"  fill-opacity="1.000000" />
   <path d="M 958.913  970.384  958.601  970.697  957.601  970.965  956.601  970.697  955.869  969.965  955.601  968.965  955.848  968.044  956.692  968.044  958.913  970.384  " style="fill: none; stroke: purple; stroke-width: 0.500000; fill-type: evenodd"  fill-opacity="1.000000" />
</svg>
