<?xml version="1.0" encoding="UTF-8" standalone="yes"?>
<!DOCTYPE svg PUBLIC "-//W3C//DTD SVG 1.0//EN" "http://www.w3.org/TR/2001/REC-SVG-20010904/DTD/svg10.dtd">
<svg height="2000" width="2000" xmlns="http://www.w3.org/2000/svg" xmlns:svg="http://www.w3.org/2000/svg" xmlns:xlink="http://www.w3.org/1999/xlink">
   <marker id="endArrow" markerHeight="8" markerUnits="strokeWidth" markerWidth="10" orient="auto" refX="1" refY="5" viewBox="0 0 1000 1000">
      <polyline fill="darkblue" points="0,0 10,5 0,10 1,5" />
   </marker>
   <circle cx="1000" cy="1000" r="1" style="stroke:black; fill: red" />
   <circle cx="1000" cy="1000" r="800" style="stroke:black; fill: none" />
   <line x1="796.966797" y1="1246.478882" x2="796.966797" y2="1258.146240" style="stroke: green; stroke-width: 0.200000"/>
   <line x1="797.966797" y1="1241.958252" x2="797.966797" y2="1258.146240" style="stroke: green; stroke-width: 0.200000"/>
   <line x1="798.966736" y1="1235.568115" x2="798.966736" y2="1258.146240" style="stroke: green; stroke-width: 0.200000"/>
   <line x1="799.966736" y1="1232.688232" x2="799.966736" y2="1258.146240" style="stroke: green; stroke-width: 0.200000"/>
   <line x1="800.966797" y1="1229.721436" x2="800.966797" y2="1258.146240" style="stroke: green; stroke-width: 0.200000"/>
   <line x1="801.966797" y1="1226.279419" x2="801.966797" y2="1258.146240" style="stroke: green; stroke-width: 0.200000"/>
   <line x1="802.966797" y1="1222.837524" x2="802.966797" y2="1258.146240" style="stroke: green; stroke-width: 0.200000"/>
   <line x1="803.966736" y1="1220.967529" x2="803.966736" y2="1258.146240" style="stroke: green; stroke-width: 0.200000"/>
   <line x1="804.966736" y1="1219.524536" x2="804.966736" y2="1258.146240" style="stroke: green; stroke-width: 0.200000"/>
   <line x1="805.966797" y1="1218.060547" x2="805.966797" y2="1258.146240" style="stroke: green; stroke-width: 0.200000"/>
   <line x1="806.966797" y1="1216.596558" x2="806.966797" y2="1258.146240" style="stroke: green; stroke-width: 0.200000"/>
   <line x1="807.966797" y1="1215.132690" x2="807.966797" y2="1258.146240" style="stroke: green; stroke-width: 0.200000"/>
   <line x1="808.966736" y1="1213.668701" x2="808.966736" y2="1258.146240" style="stroke: green; stroke-width: 0.200000"/>
   <line x1="809.966736" y1="1212.394775" x2="809.966736" y2="1258.146240" style="stroke: green; stroke-width: 0.200000"/>
   <line x1="810.966797" y1="1211.845215" x2="810.966797" y2="1258.146240" style="stroke: green; stroke-width: 0.200000"/>
   <line x1="811.966797" y1="1211.295776" x2="811.966797" y2="1258.146240" style="stroke: green; stroke-width: 0.200000"/>
   <line x1="812.966797" y1="1210.746338" x2="812.966797" y2="1258.146240" style="stroke: green; stroke-width: 0.200000"/>
   <line x1="813.966736" y1="1210.196777" x2="813.966736" y2="1258.146240" style="stroke: green; stroke-width: 0.200000"/>
   <line x1="814.966736" y1="1209.647339" x2="814.966736" y2="1258.146240" style="stroke: green; stroke-width: 0.200000"/>
   <line x1="815.966797" y1="1209.097900" x2="815.966797" y2="1258.146240" style="stroke: green; stroke-width: 0.200000"/>
   <line x1="816.966797" y1="1208.548462" x2="816.966797" y2="1258.146240" style="stroke: green; stroke-width: 0.200000"/>
   <line x1="817.966797" y1="1208.244873" x2="817.966797" y2="1258.146240" style="stroke: green; stroke-width: 0.200000"/>
   <line x1="818.966736" y1="1208.613159" x2="818.966736" y2="1258.146240" style="stroke: green; stroke-width: 0.200000"/>
   <line x1="819.966736" y1="1208.981323" x2="819.966736" y2="1258.146240" style="stroke: green; stroke-width: 0.200000"/>
   <line x1="820.966797" y1="1209.372803" x2="820.966797" y2="1258.146240" style="stroke: green; stroke-width: 0.200000"/>
   <line x1="821.966797" y1="1209.828369" x2="821.966797" y2="1258.146240" style="stroke: green; stroke-width: 0.200000"/>
   <line x1="822.966797" y1="1210.284180" x2="822.966797" y2="1258.146240" style="stroke: green; stroke-width: 0.200000"/>
   <line x1="823.966736" y1="1210.739746" x2="823.966736" y2="1258.146240" style="stroke: green; stroke-width: 0.200000"/>
   <line x1="824.966736" y1="1211.195435" x2="824.966736" y2="1258.146240" style="stroke: green; stroke-width: 0.200000"/>
   <line x1="825.966797" y1="1212.607178" x2="825.966797" y2="1258.146240" style="stroke: green; stroke-width: 0.200000"/>
   <line x1="826.966797" y1="1214.008545" x2="826.966797" y2="1258.146240" style="stroke: green; stroke-width: 0.200000"/>
   <line x1="827.966797" y1="1215.364014" x2="827.966797" y2="1258.146240" style="stroke: green; stroke-width: 0.200000"/>
   <line x1="828.966736" y1="1216.719482" x2="828.966736" y2="1258.146240" style="stroke: green; stroke-width: 0.200000"/>
   <line x1="829.966736" y1="1218.074951" x2="829.966736" y2="1258.146240" style="stroke: green; stroke-width: 0.200000"/>
   <line x1="830.966797" y1="1219.430420" x2="830.966797" y2="1258.146240" style="stroke: green; stroke-width: 0.200000"/>
   <line x1="831.966797" y1="1220.996338" x2="831.966797" y2="1258.146240" style="stroke: green; stroke-width: 0.200000"/>
   <line x1="832.966797" y1="1223.113281" x2="832.966797" y2="1258.146240" style="stroke: green; stroke-width: 0.200000"/>
   <line x1="833.966736" y1="1225.230225" x2="833.966736" y2="1258.146240" style="stroke: green; stroke-width: 0.200000"/>
   <line x1="834.966736" y1="1227.374268" x2="834.966736" y2="1258.146240" style="stroke: green; stroke-width: 0.200000"/>
   <line x1="835.966797" y1="1229.726440" x2="835.966797" y2="1258.146240" style="stroke: green; stroke-width: 0.200000"/>
   <line x1="836.966797" y1="1232.078613" x2="836.966797" y2="1258.146240" style="stroke: green; stroke-width: 0.200000"/>
   <line x1="837.966797" y1="1234.430908" x2="837.966797" y2="1258.146240" style="stroke: green; stroke-width: 0.200000"/>
   <line x1="838.966736" y1="1236.880493" x2="838.966736" y2="1258.146240" style="stroke: green; stroke-width: 0.200000"/>
   <line x1="839.966736" y1="1239.708740" x2="839.966736" y2="1258.146240" style="stroke: green; stroke-width: 0.200000"/>
   <line x1="840.966797" y1="1242.619751" x2="840.966797" y2="1258.146240" style="stroke: green; stroke-width: 0.200000"/>
   <line x1="841.966797" y1="1245.530762" x2="841.966797" y2="1258.146240" style="stroke: green; stroke-width: 0.200000"/>
   <line x1="842.966797" y1="1248.513062" x2="842.966797" y2="1258.146240" style="stroke: green; stroke-width: 0.200000"/>
   <line x1="843.966736" y1="1251.648682" x2="843.966736" y2="1258.146240" style="stroke: green; stroke-width: 0.200000"/>
   <line x1="844.966736" y1="1256.770630" x2="844.966736" y2="1258.146240" style="stroke: green; stroke-width: 0.200000"/>
   <line x1="814.966736" y1="1258.246216" x2="814.966736" y2="1308.246094" style="stroke: green; stroke-width: 0.200000"/>
   <line x1="815.966797" y1="1258.246216" x2="815.966797" y2="1308.246094" style="stroke: green; stroke-width: 0.200000"/>
   <line x1="816.966797" y1="1258.246216" x2="816.966797" y2="1308.246094" style="stroke: green; stroke-width: 0.200000"/>
   <line x1="817.966797" y1="1258.246216" x2="817.966797" y2="1308.246094" style="stroke: green; stroke-width: 0.200000"/>
   <line x1="818.966736" y1="1258.246216" x2="818.966736" y2="1308.246094" style="stroke: green; stroke-width: 0.200000"/>
   <line x1="819.966736" y1="1258.246216" x2="819.966736" y2="1308.246094" style="stroke: green; stroke-width: 0.200000"/>
   <line x1="820.966797" y1="1258.246216" x2="820.966797" y2="1308.246094" style="stroke: green; stroke-width: 0.200000"/>
   <line x1="821.966797" y1="1258.246216" x2="821.966797" y2="1308.246094" style="stroke: green; stroke-width: 0.200000"/>
   <line x1="822.966797" y1="1258.246216" x2="822.966797" y2="1308.246094" style="stroke: green; stroke-width: 0.200000"/>
   <line x1="823.966736" y1="1258.246216" x2="823.966736" y2="1308.246094" style="stroke: green; stroke-width: 0.200000"/>
   <line x1="824.966736" y1="1258.246216" x2="824.966736" y2="1308.246094" style="stroke: green; stroke-width: 0.200000"/>
   <line x1="825.966797" y1="1258.246216" x2="825.966797" y2="1308.246094" style="stroke: green; stroke-width: 0.200000"/>
   <line x1="826.966797" y1="1258.246216" x2="826.966797" y2="1308.246094" style="stroke: green; stroke-width: 0.200000"/>
   <line x1="827.966797" y1="1258.246216" x2="827.966797" y2="1308.246094" style="stroke: green; stroke-width: 0.200000"/>
   <line x1="828.966736" y1="1258.246216" x2="828.966736" y2="1308.246094" style="stroke: green; stroke-width: 0.200000"/>
   <line x1="829.966736" y1="1258.246216" x2="829.966736" y2="1308.246094" style="stroke: green; stroke-width: 0.200000"/>
   <line x1="830.966797" y1="1258.246216" x2="830.966797" y2="1308.246094" style="stroke: green; stroke-width: 0.200000"/>
   <line x1="831.966797" y1="1258.246216" x2="831.966797" y2="1308.246094" style="stroke: green; stroke-width: 0.200000"/>
   <line x1="832.966797" y1="1258.246216" x2="832.966797" y2="1308.246094" style="stroke: green; stroke-width: 0.200000"/>
   <line x1="833.966736" y1="1258.246216" x2="833.966736" y2="1308.246094" style="stroke: green; stroke-width: 0.200000"/>
   <line x1="834.966736" y1="1258.246216" x2="834.966736" y2="1308.246094" style="stroke: green; stroke-width: 0.200000"/>
   <line x1="835.966797" y1="1258.246216" x2="835.966797" y2="1308.246094" style="stroke: green; stroke-width: 0.200000"/>
   <line x1="836.966797" y1="1258.246216" x2="836.966797" y2="1308.246094" style="stroke: green; stroke-width: 0.200000"/>
   <line x1="837.966797" y1="1258.246216" x2="837.966797" y2="1308.246094" style="stroke: green; stroke-width: 0.200000"/>
   <line x1="838.966736" y1="1258.246216" x2="838.966736" y2="1308.246094" style="stroke: green; stroke-width: 0.200000"/>
   <line x1="839.966736" y1="1258.246216" x2="839.966736" y2="1308.246094" style="stroke: green; stroke-width: 0.200000"/>
   <line x1="840.966797" y1="1258.246216" x2="840.966797" y2="1308.246094" style="stroke: green; stroke-width: 0.200000"/>
   <line x1="841.966797" y1="1258.246216" x2="841.966797" y2="1308.246094" style="stroke: green; stroke-width: 0.200000"/>
   <line x1="842.966797" y1="1258.246216" x2="842.966797" y2="1308.246094" style="stroke: green; stroke-width: 0.200000"/>
   <line x1="843.966736" y1="1258.246216" x2="843.966736" y2="1308.246094" style="stroke: green; stroke-width: 0.200000"/>
   <line x1="844.966736" y1="1258.246216" x2="844.966736" y2="1308.246094" style="stroke: green; stroke-width: 0.200000"/>
   <line x1="845.966797" y1="1261.983154" x2="845.966797" y2="1308.246094" style="stroke: green; stroke-width: 0.200000"/>
   <line x1="813.966736" y1="1258.246216" x2="813.966736" y2="1305.584106" style="stroke: green; stroke-width: 0.200000"/>
   <line x1="812.966797" y1="1258.246216" x2="812.966797" y2="1300.597168" style="stroke: green; stroke-width: 0.200000"/>
   <line x1="811.966797" y1="1258.246216" x2="811.966797" y2="1296.026489" style="stroke: green; stroke-width: 0.200000"/>
   <line x1="810.966797" y1="1258.246216" x2="810.966797" y2="1292.180664" style="stroke: green; stroke-width: 0.200000"/>
   <line x1="809.966736" y1="1258.246216" x2="809.966736" y2="1289.805298" style="stroke: green; stroke-width: 0.200000"/>
   <line x1="808.966736" y1="1258.246216" x2="808.966736" y2="1286.479492" style="stroke: green; stroke-width: 0.200000"/>
   <line x1="807.966797" y1="1258.246216" x2="807.966797" y2="1283.154053" style="stroke: green; stroke-width: 0.200000"/>
   <line x1="806.966797" y1="1258.246216" x2="806.966797" y2="1281.231689" style="stroke: green; stroke-width: 0.200000"/>
   <line x1="805.966797" y1="1258.246216" x2="805.966797" y2="1279.379272" style="stroke: green; stroke-width: 0.200000"/>
   <line x1="804.966736" y1="1258.246216" x2="804.966736" y2="1277.454346" style="stroke: green; stroke-width: 0.200000"/>
   <line x1="803.966736" y1="1258.246216" x2="803.966736" y2="1275.117920" style="stroke: green; stroke-width: 0.200000"/>
   <line x1="802.966797" y1="1258.246216" x2="802.966797" y2="1273.337769" style="stroke: green; stroke-width: 0.200000"/>
   <line x1="801.966797" y1="1258.246216" x2="801.966797" y2="1271.557495" style="stroke: green; stroke-width: 0.200000"/>
   <line x1="800.966797" y1="1258.246216" x2="800.966797" y2="1269.832520" style="stroke: green; stroke-width: 0.200000"/>
   <line x1="799.966736" y1="1258.246216" x2="799.966736" y2="1268.175903" style="stroke: green; stroke-width: 0.200000"/>
   <line x1="798.966736" y1="1258.246216" x2="798.966736" y2="1264.187866" style="stroke: green; stroke-width: 0.200000"/>
   <line x1="797.966797" y1="1258.246216" x2="797.966797" y2="1261.566406" style="stroke: green; stroke-width: 0.200000"/>
   <line x1="796.966797" y1="1258.246216" x2="796.966797" y2="1258.945190" style="stroke: green; stroke-width: 0.200000"/>
   <line x1="846.966797" y1="1268.156494" x2="846.966797" y2="1303.822510" style="stroke: green; stroke-width: 0.200000"/>
   <line x1="847.966797" y1="1281.868652" x2="847.966797" y2="1293.552979" style="stroke: green; stroke-width: 0.200000"/>
   <line x1="829.966736" y1="1308.346191" x2="829.966736" y2="1358.346191" style="stroke: green; stroke-width: 0.200000"/>
   <line x1="830.966797" y1="1308.346191" x2="830.966797" y2="1358.346191" style="stroke: green; stroke-width: 0.200000"/>
   <line x1="831.966797" y1="1308.346191" x2="831.966797" y2="1358.346191" style="stroke: green; stroke-width: 0.200000"/>
   <line x1="832.966797" y1="1308.346191" x2="832.966797" y2="1358.346191" style="stroke: green; stroke-width: 0.200000"/>
   <line x1="833.966736" y1="1308.346191" x2="833.966736" y2="1358.346191" style="stroke: green; stroke-width: 0.200000"/>
   <line x1="834.966736" y1="1308.346191" x2="834.966736" y2="1358.346191" style="stroke: green; stroke-width: 0.200000"/>
   <line x1="835.966797" y1="1308.346191" x2="835.966797" y2="1358.346191" style="stroke: green; stroke-width: 0.200000"/>
   <line x1="836.966797" y1="1308.346191" x2="836.966797" y2="1358.346191" style="stroke: green; stroke-width: 0.200000"/>
   <line x1="837.966797" y1="1308.346191" x2="837.966797" y2="1358.346191" style="stroke: green; stroke-width: 0.200000"/>
   <line x1="838.966736" y1="1308.346191" x2="838.966736" y2="1358.346191" style="stroke: green; stroke-width: 0.200000"/>
   <line x1="839.966736" y1="1308.346191" x2="839.966736" y2="1358.346191" style="stroke: green; stroke-width: 0.200000"/>
   <line x1="840.966797" y1="1308.346191" x2="840.966797" y2="1358.346191" style="stroke: green; stroke-width: 0.200000"/>
   <line x1="841.966797" y1="1308.346191" x2="841.966797" y2="1358.346191" style="stroke: green; stroke-width: 0.200000"/>
   <line x1="828.966736" y1="1308.346191" x2="828.966736" y2="1357.664917" style="stroke: green; stroke-width: 0.200000"/>
   <line x1="842.966797" y1="1308.346191" x2="842.966797" y2="1356.287231" style="stroke: green; stroke-width: 0.200000"/>
   <line x1="827.966797" y1="1308.346191" x2="827.966797" y2="1355.071777" style="stroke: green; stroke-width: 0.200000"/>
   <line x1="826.966797" y1="1308.346191" x2="826.966797" y2="1352.466064" style="stroke: green; stroke-width: 0.200000"/>
   <line x1="825.966797" y1="1308.346191" x2="825.966797" y2="1349.660034" style="stroke: green; stroke-width: 0.200000"/>
   <line x1="824.966736" y1="1308.346191" x2="824.966736" y2="1346.607666" style="stroke: green; stroke-width: 0.200000"/>
   <line x1="843.966736" y1="1308.346191" x2="843.966736" y2="1346.100830" style="stroke: green; stroke-width: 0.200000"/>
   <line x1="823.966736" y1="1308.346191" x2="823.966736" y2="1343.287842" style="stroke: green; stroke-width: 0.200000"/>
   <line x1="822.966797" y1="1308.346191" x2="822.966797" y2="1340.107178" style="stroke: green; stroke-width: 0.200000"/>
   <line x1="821.966797" y1="1308.346191" x2="821.966797" y2="1337.044800" style="stroke: green; stroke-width: 0.200000"/>
   <line x1="820.966797" y1="1308.346191" x2="820.966797" y2="1333.546143" style="stroke: green; stroke-width: 0.200000"/>
   <line x1="819.966736" y1="1308.346191" x2="819.966736" y2="1330.045410" style="stroke: green; stroke-width: 0.200000"/>
   <line x1="844.966736" y1="1308.346191" x2="844.966736" y2="1328.776978" style="stroke: green; stroke-width: 0.200000"/>
   <line x1="818.966736" y1="1308.346191" x2="818.966736" y2="1326.544434" style="stroke: green; stroke-width: 0.200000"/>
   <line x1="817.966797" y1="1308.346191" x2="817.966797" y2="1322.326904" style="stroke: green; stroke-width: 0.200000"/>
   <line x1="816.966797" y1="1308.346191" x2="816.966797" y2="1318.647339" style="stroke: green; stroke-width: 0.200000"/>
   <line x1="815.966797" y1="1308.346191" x2="815.966797" y2="1314.811768" style="stroke: green; stroke-width: 0.200000"/>
   <line x1="845.966797" y1="1308.346191" x2="845.966797" y2="1314.751587" style="stroke: green; stroke-width: 0.200000"/>
   <line x1="814.966736" y1="1308.346191" x2="814.966736" y2="1310.197876" style="stroke: green; stroke-width: 0.200000"/>
   <line x1="837.966797" y1="1358.446167" x2="837.966797" y2="1365.743652" style="stroke: green; stroke-width: 0.200000"/>
   <line x1="836.966797" y1="1358.446167" x2="836.966797" y2="1365.658691" style="stroke: green; stroke-width: 0.200000"/>
   <line x1="835.966797" y1="1358.446167" x2="835.966797" y2="1365.139160" style="stroke: green; stroke-width: 0.200000"/>
   <line x1="834.966736" y1="1358.446167" x2="834.966736" y2="1364.619629" style="stroke: green; stroke-width: 0.200000"/>
   <line x1="838.966736" y1="1358.446167" x2="838.966736" y2="1364.304321" style="stroke: green; stroke-width: 0.200000"/>
   <line x1="833.966736" y1="1358.446167" x2="833.966736" y2="1364.099854" style="stroke: green; stroke-width: 0.200000"/>
   <line x1="832.966797" y1="1358.446167" x2="832.966797" y2="1363.580322" style="stroke: green; stroke-width: 0.200000"/>
   <line x1="831.966797" y1="1358.446167" x2="831.966797" y2="1363.060547" style="stroke: green; stroke-width: 0.200000"/>
   <line x1="839.966736" y1="1358.446167" x2="839.966736" y2="1362.865112" style="stroke: green; stroke-width: 0.200000"/>
   <line x1="830.966797" y1="1358.446167" x2="830.966797" y2="1362.760132" style="stroke: green; stroke-width: 0.200000"/>
   <line x1="840.966797" y1="1358.446167" x2="840.966797" y2="1361.425903" style="stroke: green; stroke-width: 0.200000"/>
   <line x1="829.966736" y1="1358.446167" x2="829.966736" y2="1360.239014" style="stroke: green; stroke-width: 0.200000"/>
   <line x1="841.966797" y1="1358.446167" x2="841.966797" y2="1359.901001" style="stroke: green; stroke-width: 0.200000"/>
   <line x1="902.342773" y1="1155.777466" x2="902.342773" y2="1203.028198" style="stroke: green; stroke-width: 0.200000"/>
   <line x1="903.342773" y1="1156.462646" x2="903.342773" y2="1203.028198" style="stroke: green; stroke-width: 0.200000"/>
   <line x1="904.342773" y1="1157.088745" x2="904.342773" y2="1203.028198" style="stroke: green; stroke-width: 0.200000"/>
   <line x1="905.342773" y1="1157.662476" x2="905.342773" y2="1203.028198" style="stroke: green; stroke-width: 0.200000"/>
   <line x1="906.342773" y1="1158.236206" x2="906.342773" y2="1203.028198" style="stroke: green; stroke-width: 0.200000"/>
   <line x1="907.342773" y1="1158.810059" x2="907.342773" y2="1203.028198" style="stroke: green; stroke-width: 0.200000"/>
   <line x1="908.342773" y1="1159.383789" x2="908.342773" y2="1203.028198" style="stroke: green; stroke-width: 0.200000"/>
   <line x1="909.342773" y1="1160.110352" x2="909.342773" y2="1203.028198" style="stroke: green; stroke-width: 0.200000"/>
   <line x1="910.342773" y1="1161.060547" x2="910.342773" y2="1203.028198" style="stroke: green; stroke-width: 0.200000"/>
   <line x1="911.342773" y1="1162.010742" x2="911.342773" y2="1203.028198" style="stroke: green; stroke-width: 0.200000"/>
   <line x1="912.342773" y1="1162.960938" x2="912.342773" y2="1203.028198" style="stroke: green; stroke-width: 0.200000"/>
   <line x1="913.342773" y1="1163.910889" x2="913.342773" y2="1203.028198" style="stroke: green; stroke-width: 0.200000"/>
   <line x1="914.342773" y1="1164.861084" x2="914.342773" y2="1203.028198" style="stroke: green; stroke-width: 0.200000"/>
   <line x1="915.342773" y1="1165.744141" x2="915.342773" y2="1203.028198" style="stroke: green; stroke-width: 0.200000"/>
   <line x1="916.342773" y1="1166.666504" x2="916.342773" y2="1203.028198" style="stroke: green; stroke-width: 0.200000"/>
   <line x1="917.342773" y1="1167.461060" x2="917.342773" y2="1203.028198" style="stroke: green; stroke-width: 0.200000"/>
   <line x1="918.342773" y1="1168.043213" x2="918.342773" y2="1203.028198" style="stroke: green; stroke-width: 0.200000"/>
   <line x1="919.342773" y1="1168.625000" x2="919.342773" y2="1203.028198" style="stroke: green; stroke-width: 0.200000"/>
   <line x1="920.342773" y1="1169.206909" x2="920.342773" y2="1203.028198" style="stroke: green; stroke-width: 0.200000"/>
   <line x1="921.342773" y1="1169.788696" x2="921.342773" y2="1203.028198" style="stroke: green; stroke-width: 0.200000"/>
   <line x1="922.342773" y1="1170.370605" x2="922.342773" y2="1203.028198" style="stroke: green; stroke-width: 0.200000"/>
   <line x1="901.342773" y1="1155.290771" x2="901.342773" y2="1203.020142" style="stroke: green; stroke-width: 0.200000"/>
   <line x1="900.342773" y1="1155.065796" x2="900.342773" y2="1202.276611" style="stroke: green; stroke-width: 0.200000"/>
   <line x1="899.342773" y1="1154.840942" x2="899.342773" y2="1201.533081" style="stroke: green; stroke-width: 0.200000"/>
   <line x1="898.342773" y1="1154.615967" x2="898.342773" y2="1200.770142" style="stroke: green; stroke-width: 0.200000"/>
   <line x1="897.342773" y1="1154.391113" x2="897.342773" y2="1199.998901" style="stroke: green; stroke-width: 0.200000"/>
   <line x1="896.342773" y1="1154.166138" x2="896.342773" y2="1199.227905" style="stroke: green; stroke-width: 0.200000"/>
   <line x1="895.342773" y1="1153.941162" x2="895.342773" y2="1198.456787" style="stroke: green; stroke-width: 0.200000"/>
   <line x1="894.342773" y1="1153.699829" x2="894.342773" y2="1197.685791" style="stroke: green; stroke-width: 0.200000"/>
   <line x1="893.342773" y1="1153.374390" x2="893.342773" y2="1196.914795" style="stroke: green; stroke-width: 0.200000"/>
   <line x1="892.342773" y1="1153.048828" x2="892.342773" y2="1196.143677" style="stroke: green; stroke-width: 0.200000"/>
   <line x1="891.342773" y1="1153.189819" x2="891.342773" y2="1195.239502" style="stroke: green; stroke-width: 0.200000"/>
   <line x1="890.342773" y1="1153.362305" x2="890.342773" y2="1194.243652" style="stroke: green; stroke-width: 0.200000"/>
   <line x1="889.342773" y1="1153.534912" x2="889.342773" y2="1193.231567" style="stroke: green; stroke-width: 0.200000"/>
   <line x1="888.342773" y1="1153.707397" x2="888.342773" y2="1192.257568" style="stroke: green; stroke-width: 0.200000"/>
   <line x1="887.342773" y1="1153.880005" x2="887.342773" y2="1191.283447" style="stroke: green; stroke-width: 0.200000"/>
   <line x1="886.342773" y1="1154.052490" x2="886.342773" y2="1190.309448" style="stroke: green; stroke-width: 0.200000"/>
   <line x1="885.342773" y1="1154.225098" x2="885.342773" y2="1189.335327" style="stroke: green; stroke-width: 0.200000"/>
   <line x1="884.342773" y1="1154.397583" x2="884.342773" y2="1188.361328" style="stroke: green; stroke-width: 0.200000"/>
   <line x1="883.342773" y1="1154.527710" x2="883.342773" y2="1187.387207" style="stroke: green; stroke-width: 0.200000"/>
   <line x1="882.342773" y1="1155.035156" x2="882.342773" y2="1186.131714" style="stroke: green; stroke-width: 0.200000"/>
   <line x1="881.342773" y1="1155.691406" x2="881.342773" y2="1184.720093" style="stroke: green; stroke-width: 0.200000"/>
   <line x1="880.342773" y1="1156.347534" x2="880.342773" y2="1183.308594" style="stroke: green; stroke-width: 0.200000"/>
   <line x1="879.342773" y1="1157.003662" x2="879.342773" y2="1182.021606" style="stroke: green; stroke-width: 0.200000"/>
   <line x1="878.342773" y1="1157.659790" x2="878.342773" y2="1180.916626" style="stroke: green; stroke-width: 0.200000"/>
   <line x1="877.342773" y1="1158.315918" x2="877.342773" y2="1179.811890" style="stroke: green; stroke-width: 0.200000"/>
   <line x1="876.342773" y1="1158.972168" x2="876.342773" y2="1178.443848" style="stroke: green; stroke-width: 0.200000"/>
   <line x1="875.342773" y1="1159.989502" x2="875.342773" y2="1176.882080" style="stroke: green; stroke-width: 0.200000"/>
   <line x1="874.342773" y1="1162.747314" x2="874.342773" y2="1173.456543" style="stroke: green; stroke-width: 0.200000"/>
   <line x1="873.342773" y1="1165.505127" x2="873.342773" y2="1170.031006" style="stroke: green; stroke-width: 0.200000"/>
   <line x1="923.342773" y1="1170.952393" x2="923.342773" y2="1203.028198" style="stroke: green; stroke-width: 0.200000"/>
   <line x1="924.342773" y1="1171.460449" x2="924.342773" y2="1203.028198" style="stroke: green; stroke-width: 0.200000"/>
   <line x1="925.342773" y1="1171.810181" x2="925.342773" y2="1203.028198" style="stroke: green; stroke-width: 0.200000"/>
   <line x1="926.342773" y1="1172.159912" x2="926.342773" y2="1203.028198" style="stroke: green; stroke-width: 0.200000"/>
   <line x1="927.342773" y1="1172.509644" x2="927.342773" y2="1203.028198" style="stroke: green; stroke-width: 0.200000"/>
   <line x1="928.342773" y1="1172.859375" x2="928.342773" y2="1203.028198" style="stroke: green; stroke-width: 0.200000"/>
   <line x1="929.342773" y1="1173.209106" x2="929.342773" y2="1203.028198" style="stroke: green; stroke-width: 0.200000"/>
   <line x1="930.342773" y1="1173.724243" x2="930.342773" y2="1203.028198" style="stroke: green; stroke-width: 0.200000"/>
   <line x1="931.342773" y1="1174.265381" x2="931.342773" y2="1203.028198" style="stroke: green; stroke-width: 0.200000"/>
   <line x1="932.342773" y1="1174.806641" x2="932.342773" y2="1203.028198" style="stroke: green; stroke-width: 0.200000"/>
   <line x1="933.342773" y1="1175.347778" x2="933.342773" y2="1203.028198" style="stroke: green; stroke-width: 0.200000"/>
   <line x1="934.342773" y1="1175.692261" x2="934.342773" y2="1203.028198" style="stroke: green; stroke-width: 0.200000"/>
   <line x1="935.342773" y1="1176.019043" x2="935.342773" y2="1203.028198" style="stroke: green; stroke-width: 0.200000"/>
   <line x1="936.342773" y1="1176.345581" x2="936.342773" y2="1203.028198" style="stroke: green; stroke-width: 0.200000"/>
   <line x1="937.342773" y1="1176.672241" x2="937.342773" y2="1203.028198" style="stroke: green; stroke-width: 0.200000"/>
   <line x1="938.342773" y1="1176.998901" x2="938.342773" y2="1203.028198" style="stroke: green; stroke-width: 0.200000"/>
   <line x1="939.342773" y1="1177.325562" x2="939.342773" y2="1203.028198" style="stroke: green; stroke-width: 0.200000"/>
   <line x1="940.342773" y1="1177.652222" x2="940.342773" y2="1203.028198" style="stroke: green; stroke-width: 0.200000"/>
   <line x1="941.342773" y1="1177.978760" x2="941.342773" y2="1203.028198" style="stroke: green; stroke-width: 0.200000"/>
   <line x1="942.342773" y1="1178.305542" x2="942.342773" y2="1203.028198" style="stroke: green; stroke-width: 0.200000"/>
   <line x1="943.342773" y1="1178.551758" x2="943.342773" y2="1203.028198" style="stroke: green; stroke-width: 0.200000"/>
   <line x1="944.342773" y1="1178.810303" x2="944.342773" y2="1203.028198" style="stroke: green; stroke-width: 0.200000"/>
   <line x1="945.342773" y1="1179.095703" x2="945.342773" y2="1203.028198" style="stroke: green; stroke-width: 0.200000"/>
   <line x1="946.342773" y1="1179.380981" x2="946.342773" y2="1203.028198" style="stroke: green; stroke-width: 0.200000"/>
   <line x1="947.342773" y1="1179.666382" x2="947.342773" y2="1203.028198" style="stroke: green; stroke-width: 0.200000"/>
   <line x1="948.342773" y1="1179.951660" x2="948.342773" y2="1203.028198" style="stroke: green; stroke-width: 0.200000"/>
   <line x1="949.342773" y1="1180.237061" x2="949.342773" y2="1203.028198" style="stroke: green; stroke-width: 0.200000"/>
   <line x1="950.342773" y1="1180.522461" x2="950.342773" y2="1203.028198" style="stroke: green; stroke-width: 0.200000"/>
   <line x1="951.342773" y1="1180.807861" x2="951.342773" y2="1203.028198" style="stroke: green; stroke-width: 0.200000"/>
   <line x1="952.342773" y1="1181.093262" x2="952.342773" y2="1203.028198" style="stroke: green; stroke-width: 0.200000"/>
   <line x1="953.342773" y1="1182.165039" x2="953.342773" y2="1203.028198" style="stroke: green; stroke-width: 0.200000"/>
   <line x1="954.342773" y1="1182.698120" x2="954.342773" y2="1203.028198" style="stroke: green; stroke-width: 0.200000"/>
   <line x1="955.342773" y1="1183.021118" x2="955.342773" y2="1203.028198" style="stroke: green; stroke-width: 0.200000"/>
   <line x1="956.342773" y1="1183.343994" x2="956.342773" y2="1203.028198" style="stroke: green; stroke-width: 0.200000"/>
   <line x1="957.342773" y1="1183.666870" x2="957.342773" y2="1203.028198" style="stroke: green; stroke-width: 0.200000"/>
   <line x1="958.342773" y1="1183.989746" x2="958.342773" y2="1203.028198" style="stroke: green; stroke-width: 0.200000"/>
   <line x1="959.342773" y1="1184.312622" x2="959.342773" y2="1203.028198" style="stroke: green; stroke-width: 0.200000"/>
   <line x1="960.342773" y1="1184.635620" x2="960.342773" y2="1203.028198" style="stroke: green; stroke-width: 0.200000"/>
   <line x1="961.342773" y1="1184.958496" x2="961.342773" y2="1203.028198" style="stroke: green; stroke-width: 0.200000"/>
   <line x1="962.342773" y1="1185.244873" x2="962.342773" y2="1203.028198" style="stroke: green; stroke-width: 0.200000"/>
   <line x1="963.342773" y1="1185.525391" x2="963.342773" y2="1203.028198" style="stroke: green; stroke-width: 0.200000"/>
   <line x1="964.342773" y1="1185.847656" x2="964.342773" y2="1203.028198" style="stroke: green; stroke-width: 0.200000"/>
   <line x1="965.342773" y1="1186.220825" x2="965.342773" y2="1203.028198" style="stroke: green; stroke-width: 0.200000"/>
   <line x1="966.342773" y1="1186.594116" x2="966.342773" y2="1203.028198" style="stroke: green; stroke-width: 0.200000"/>
   <line x1="967.342773" y1="1186.967285" x2="967.342773" y2="1203.028198" style="stroke: green; stroke-width: 0.200000"/>
   <line x1="968.342773" y1="1187.340332" x2="968.342773" y2="1203.028198" style="stroke: green; stroke-width: 0.200000"/>
   <line x1="969.342773" y1="1187.713501" x2="969.342773" y2="1203.028198" style="stroke: green; stroke-width: 0.200000"/>
   <line x1="970.342773" y1="1188.086792" x2="970.342773" y2="1203.028198" style="stroke: green; stroke-width: 0.200000"/>
   <line x1="971.342773" y1="1188.448242" x2="971.342773" y2="1203.028198" style="stroke: green; stroke-width: 0.200000"/>
   <line x1="972.342773" y1="1188.726318" x2="972.342773" y2="1203.028198" style="stroke: green; stroke-width: 0.200000"/>
   <line x1="973.342773" y1="1189.004395" x2="973.342773" y2="1203.028198" style="stroke: green; stroke-width: 0.200000"/>
   <line x1="974.342773" y1="1189.282349" x2="974.342773" y2="1203.028198" style="stroke: green; stroke-width: 0.200000"/>
   <line x1="975.342773" y1="1189.560303" x2="975.342773" y2="1203.028198" style="stroke: green; stroke-width: 0.200000"/>
   <line x1="976.342773" y1="1189.843750" x2="976.342773" y2="1203.028198" style="stroke: green; stroke-width: 0.200000"/>
   <line x1="977.342773" y1="1190.182739" x2="977.342773" y2="1203.028198" style="stroke: green; stroke-width: 0.200000"/>
   <line x1="978.342773" y1="1190.521729" x2="978.342773" y2="1203.028198" style="stroke: green; stroke-width: 0.200000"/>
   <line x1="979.342773" y1="1190.860840" x2="979.342773" y2="1203.028198" style="stroke: green; stroke-width: 0.200000"/>
   <line x1="980.342773" y1="1198.232544" x2="980.342773" y2="1203.028198" style="stroke: green; stroke-width: 0.200000"/>
   <line x1="981.342773" y1="1200.157227" x2="981.342773" y2="1203.028198" style="stroke: green; stroke-width: 0.200000"/>
   <line x1="982.342773" y1="1202.081787" x2="982.342773" y2="1203.028198" style="stroke: green; stroke-width: 0.200000"/>
   <line x1="980.342773" y1="1191.200195" x2="980.342773" y2="1197.934448" style="stroke: green; stroke-width: 0.200000"/>
   <line x1="981.342773" y1="1192.407715" x2="981.342773" y2="1197.183105" style="stroke: green; stroke-width: 0.200000"/>
   <line x1="982.342773" y1="1193.853149" x2="982.342773" y2="1196.431885" style="stroke: green; stroke-width: 0.200000"/>
   <line x1="983.342773" y1="1195.298584" x2="983.342773" y2="1195.680664" style="stroke: green; stroke-width: 0.200000"/>
   <line x1="922.342773" y1="1203.128174" x2="922.342773" y2="1214.674805" style="stroke: green; stroke-width: 0.200000"/>
   <line x1="921.342773" y1="1203.128174" x2="921.342773" y2="1214.185303" style="stroke: green; stroke-width: 0.200000"/>
   <line x1="920.342773" y1="1203.128174" x2="920.342773" y2="1213.695801" style="stroke: green; stroke-width: 0.200000"/>
   <line x1="919.342773" y1="1203.128174" x2="919.342773" y2="1213.206299" style="stroke: green; stroke-width: 0.200000"/>
   <line x1="918.342773" y1="1203.128174" x2="918.342773" y2="1212.725952" style="stroke: green; stroke-width: 0.200000"/>
   <line x1="917.342773" y1="1203.128174" x2="917.342773" y2="1212.259644" style="stroke: green; stroke-width: 0.200000"/>
   <line x1="916.342773" y1="1203.128174" x2="916.342773" y2="1211.793213" style="stroke: green; stroke-width: 0.200000"/>
   <line x1="915.342773" y1="1203.128174" x2="915.342773" y2="1211.323486" style="stroke: green; stroke-width: 0.200000"/>
   <line x1="914.342773" y1="1203.128174" x2="914.342773" y2="1210.837524" style="stroke: green; stroke-width: 0.200000"/>
   <line x1="913.342773" y1="1203.128174" x2="913.342773" y2="1210.351440" style="stroke: green; stroke-width: 0.200000"/>
   <line x1="912.342773" y1="1203.128174" x2="912.342773" y2="1209.819580" style="stroke: green; stroke-width: 0.200000"/>
   <line x1="911.342773" y1="1203.128174" x2="911.342773" y2="1209.184814" style="stroke: green; stroke-width: 0.200000"/>
   <line x1="910.342773" y1="1203.128174" x2="910.342773" y2="1208.550049" style="stroke: green; stroke-width: 0.200000"/>
   <line x1="909.342773" y1="1203.128174" x2="909.342773" y2="1207.915405" style="stroke: green; stroke-width: 0.200000"/>
   <line x1="908.342773" y1="1203.128174" x2="908.342773" y2="1207.280640" style="stroke: green; stroke-width: 0.200000"/>
   <line x1="907.342773" y1="1203.128174" x2="907.342773" y2="1206.666992" style="stroke: green; stroke-width: 0.200000"/>
   <line x1="906.342773" y1="1203.128174" x2="906.342773" y2="1206.083618" style="stroke: green; stroke-width: 0.200000"/>
   <line x1="905.342773" y1="1203.128174" x2="905.342773" y2="1205.500244" style="stroke: green; stroke-width: 0.200000"/>
   <line x1="904.342773" y1="1203.128174" x2="904.342773" y2="1204.916748" style="stroke: green; stroke-width: 0.200000"/>
   <line x1="903.342773" y1="1203.128174" x2="903.342773" y2="1204.333374" style="stroke: green; stroke-width: 0.200000"/>
   <line x1="902.342773" y1="1203.128174" x2="902.342773" y2="1203.749878" style="stroke: green; stroke-width: 0.200000"/>
   <line x1="961.342773" y1="1203.128174" x2="961.342773" y2="1222.459595" style="stroke: green; stroke-width: 0.200000"/>
   <line x1="962.342773" y1="1203.128174" x2="962.342773" y2="1222.453369" style="stroke: green; stroke-width: 0.200000"/>
   <line x1="969.342773" y1="1220.741333" x2="969.342773" y2="1222.453125" style="stroke: green; stroke-width: 0.200000"/>
   <line x1="963.342773" y1="1203.128174" x2="963.342773" y2="1222.447021" style="stroke: green; stroke-width: 0.200000"/>
   <line x1="960.342773" y1="1203.128174" x2="960.342773" y2="1222.442383" style="stroke: green; stroke-width: 0.200000"/>
   <line x1="964.342773" y1="1203.128174" x2="964.342773" y2="1222.440674" style="stroke: green; stroke-width: 0.200000"/>
   <line x1="965.342773" y1="1203.128174" x2="965.342773" y2="1222.434448" style="stroke: green; stroke-width: 0.200000"/>
   <line x1="966.342773" y1="1203.128174" x2="966.342773" y2="1222.428101" style="stroke: green; stroke-width: 0.200000"/>
   <line x1="968.342773" y1="1203.128174" x2="968.342773" y2="1222.427246" style="stroke: green; stroke-width: 0.200000"/>
   <line x1="967.342773" y1="1203.128174" x2="967.342773" y2="1222.421753" style="stroke: green; stroke-width: 0.200000"/>
   <line x1="959.342773" y1="1203.128174" x2="959.342773" y2="1222.382690" style="stroke: green; stroke-width: 0.200000"/>
   <line x1="958.342773" y1="1203.128174" x2="958.342773" y2="1222.323120" style="stroke: green; stroke-width: 0.200000"/>
   <line x1="957.342773" y1="1203.128174" x2="957.342773" y2="1222.263428" style="stroke: green; stroke-width: 0.200000"/>
   <line x1="956.342773" y1="1203.128174" x2="956.342773" y2="1222.203857" style="stroke: green; stroke-width: 0.200000"/>
   <line x1="955.342773" y1="1203.128174" x2="955.342773" y2="1222.144165" style="stroke: green; stroke-width: 0.200000"/>
   <line x1="954.342773" y1="1203.128174" x2="954.342773" y2="1222.084473" style="stroke: green; stroke-width: 0.200000"/>
   <line x1="953.342773" y1="1203.128174" x2="953.342773" y2="1222.024902" style="stroke: green; stroke-width: 0.200000"/>
   <line x1="952.342773" y1="1203.128174" x2="952.342773" y2="1221.965210" style="stroke: green; stroke-width: 0.200000"/>
   <line x1="951.342773" y1="1203.128174" x2="951.342773" y2="1221.905640" style="stroke: green; stroke-width: 0.200000"/>
   <line x1="950.342773" y1="1203.128174" x2="950.342773" y2="1221.843018" style="stroke: green; stroke-width: 0.200000"/>
   <line x1="949.342773" y1="1203.128174" x2="949.342773" y2="1221.767456" style="stroke: green; stroke-width: 0.200000"/>
   <line x1="948.342773" y1="1203.128174" x2="948.342773" y2="1221.692017" style="stroke: green; stroke-width: 0.200000"/>
   <line x1="947.342773" y1="1203.128174" x2="947.342773" y2="1221.616455" style="stroke: green; stroke-width: 0.200000"/>
   <line x1="946.342773" y1="1203.128174" x2="946.342773" y2="1221.540894" style="stroke: green; stroke-width: 0.200000"/>
   <line x1="945.342773" y1="1203.128174" x2="945.342773" y2="1221.414673" style="stroke: green; stroke-width: 0.200000"/>
   <line x1="944.342773" y1="1203.128174" x2="944.342773" y2="1221.244141" style="stroke: green; stroke-width: 0.200000"/>
   <line x1="943.342773" y1="1203.128174" x2="943.342773" y2="1221.073730" style="stroke: green; stroke-width: 0.200000"/>
   <line x1="942.342773" y1="1203.128174" x2="942.342773" y2="1220.903320" style="stroke: green; stroke-width: 0.200000"/>
   <line x1="941.342773" y1="1203.128174" x2="941.342773" y2="1220.722656" style="stroke: green; stroke-width: 0.200000"/>
   <line x1="940.342773" y1="1203.128174" x2="940.342773" y2="1220.503296" style="stroke: green; stroke-width: 0.200000"/>
   <line x1="939.342773" y1="1203.128174" x2="939.342773" y2="1220.283691" style="stroke: green; stroke-width: 0.200000"/>
   <line x1="938.342773" y1="1203.128174" x2="938.342773" y2="1220.064453" style="stroke: green; stroke-width: 0.200000"/>
   <line x1="937.342773" y1="1203.128174" x2="937.342773" y2="1219.844971" style="stroke: green; stroke-width: 0.200000"/>
   <line x1="936.342773" y1="1203.128174" x2="936.342773" y2="1219.623535" style="stroke: green; stroke-width: 0.200000"/>
   <line x1="935.342773" y1="1203.128174" x2="935.342773" y2="1219.392334" style="stroke: green; stroke-width: 0.200000"/>
   <line x1="934.342773" y1="1203.128174" x2="934.342773" y2="1219.161133" style="stroke: green; stroke-width: 0.200000"/>
   <line x1="933.342773" y1="1203.128174" x2="933.342773" y2="1218.929932" style="stroke: green; stroke-width: 0.200000"/>
   <line x1="932.342773" y1="1203.128174" x2="932.342773" y2="1218.679932" style="stroke: green; stroke-width: 0.200000"/>
   <line x1="931.342773" y1="1203.128174" x2="931.342773" y2="1218.411865" style="stroke: green; stroke-width: 0.200000"/>
   <line x1="930.342773" y1="1203.128174" x2="930.342773" y2="1218.143799" style="stroke: green; stroke-width: 0.200000"/>
   <line x1="929.342773" y1="1203.128174" x2="929.342773" y2="1217.727295" style="stroke: green; stroke-width: 0.200000"/>
   <line x1="928.342773" y1="1203.128174" x2="928.342773" y2="1217.311035" style="stroke: green; stroke-width: 0.200000"/>
   <line x1="927.342773" y1="1203.128174" x2="927.342773" y2="1216.894653" style="stroke: green; stroke-width: 0.200000"/>
   <line x1="926.342773" y1="1203.128174" x2="926.342773" y2="1216.478271" style="stroke: green; stroke-width: 0.200000"/>
   <line x1="925.342773" y1="1203.128174" x2="925.342773" y2="1216.061890" style="stroke: green; stroke-width: 0.200000"/>
   <line x1="924.342773" y1="1203.128174" x2="924.342773" y2="1215.645508" style="stroke: green; stroke-width: 0.200000"/>
   <line x1="923.342773" y1="1203.128174" x2="923.342773" y2="1215.164185" style="stroke: green; stroke-width: 0.200000"/>
   <line x1="969.342773" y1="1203.128174" x2="969.342773" y2="1212.806152" style="stroke: green; stroke-width: 0.200000"/>
   <line x1="970.342773" y1="1203.128174" x2="970.342773" y2="1212.699219" style="stroke: green; stroke-width: 0.200000"/>
   <line x1="971.342773" y1="1203.128174" x2="971.342773" y2="1212.592529" style="stroke: green; stroke-width: 0.200000"/>
   <line x1="972.342773" y1="1203.128174" x2="972.342773" y2="1212.485596" style="stroke: green; stroke-width: 0.200000"/>
   <line x1="973.342773" y1="1203.128174" x2="973.342773" y2="1212.378662" style="stroke: green; stroke-width: 0.200000"/>
   <line x1="974.342773" y1="1203.128174" x2="974.342773" y2="1212.271729" style="stroke: green; stroke-width: 0.200000"/>
   <line x1="975.342773" y1="1203.128174" x2="975.342773" y2="1212.164795" style="stroke: green; stroke-width: 0.200000"/>
   <line x1="976.342773" y1="1203.128174" x2="976.342773" y2="1212.057861" style="stroke: green; stroke-width: 0.200000"/>
   <line x1="977.342773" y1="1203.128174" x2="977.342773" y2="1211.951050" style="stroke: green; stroke-width: 0.200000"/>
   <line x1="978.342773" y1="1203.128174" x2="978.342773" y2="1211.796875" style="stroke: green; stroke-width: 0.200000"/>
   <line x1="979.342773" y1="1203.128174" x2="979.342773" y2="1211.411621" style="stroke: green; stroke-width: 0.200000"/>
   <line x1="980.342773" y1="1203.128174" x2="980.342773" y2="1211.163330" style="stroke: green; stroke-width: 0.200000"/>
   <line x1="981.342773" y1="1203.128174" x2="981.342773" y2="1210.917725" style="stroke: green; stroke-width: 0.200000"/>
   <line x1="982.342773" y1="1203.128174" x2="982.342773" y2="1210.672119" style="stroke: green; stroke-width: 0.200000"/>
   <line x1="983.342773" y1="1204.006470" x2="983.342773" y2="1210.426636" style="stroke: green; stroke-width: 0.200000"/>
   <line x1="984.342773" y1="1205.930054" x2="984.342773" y2="1210.181030" style="stroke: green; stroke-width: 0.200000"/>
   <line x1="985.342773" y1="1207.854736" x2="985.342773" y2="1209.828735" style="stroke: green; stroke-width: 0.200000"/>
   <line x1="970.927124" y1="1212.636963" x2="970.927124" y2="1222.493530" style="stroke: green; stroke-width: 0.200000"/>
   <line x1="969.927124" y1="1212.743896" x2="969.927124" y2="1222.467773" style="stroke: green; stroke-width: 0.200000"/>
   <line x1="971.927124" y1="1212.530151" x2="971.927124" y2="1222.431763" style="stroke: green; stroke-width: 0.200000"/>
   <line x1="972.927124" y1="1212.423218" x2="972.927124" y2="1222.345337" style="stroke: green; stroke-width: 0.200000"/>
   <line x1="973.927124" y1="1212.316284" x2="973.927124" y2="1222.258789" style="stroke: green; stroke-width: 0.200000"/>
   <line x1="974.927124" y1="1212.209351" x2="974.927124" y2="1222.172363" style="stroke: green; stroke-width: 0.200000"/>
   <line x1="975.927124" y1="1212.102417" x2="975.927124" y2="1222.085938" style="stroke: green; stroke-width: 0.200000"/>
   <line x1="976.927124" y1="1211.995605" x2="976.927124" y2="1221.999390" style="stroke: green; stroke-width: 0.200000"/>
   <line x1="977.927124" y1="1211.888672" x2="977.927124" y2="1221.912964" style="stroke: green; stroke-width: 0.200000"/>
   <line x1="978.927124" y1="1211.571777" x2="978.927124" y2="1221.826416" style="stroke: green; stroke-width: 0.200000"/>
   <line x1="981.927124" y1="1210.774292" x2="981.927124" y2="1221.778931" style="stroke: green; stroke-width: 0.200000"/>
   <line x1="979.927124" y1="1211.265503" x2="979.927124" y2="1221.739990" style="stroke: green; stroke-width: 0.200000"/>
   <line x1="980.927124" y1="1211.019897" x2="980.927124" y2="1221.729492" style="stroke: green; stroke-width: 0.200000"/>
   <line x1="982.927124" y1="1210.528809" x2="982.927124" y2="1221.661621" style="stroke: green; stroke-width: 0.200000"/>
   <line x1="983.927124" y1="1210.283081" x2="983.927124" y2="1221.482178" style="stroke: green; stroke-width: 0.200000"/>
   <line x1="984.927124" y1="1210.037720" x2="984.927124" y2="1221.302612" style="stroke: green; stroke-width: 0.200000"/>
   <line x1="985.927124" y1="1209.329346" x2="985.927124" y2="1221.123169" style="stroke: green; stroke-width: 0.200000"/>
   <line x1="986.927124" y1="1197.562744" x2="986.927124" y2="1220.943604" style="stroke: green; stroke-width: 0.200000"/>
   <line x1="987.927124" y1="1198.102295" x2="987.927124" y2="1220.764038" style="stroke: green; stroke-width: 0.200000"/>
   <line x1="988.927124" y1="1198.641968" x2="988.927124" y2="1220.584595" style="stroke: green; stroke-width: 0.200000"/>
   <line x1="989.927124" y1="1199.181641" x2="989.927124" y2="1220.405151" style="stroke: green; stroke-width: 0.200000"/>
   <line x1="990.927124" y1="1199.721191" x2="990.927124" y2="1220.225586" style="stroke: green; stroke-width: 0.200000"/>
   <line x1="991.927124" y1="1200.260864" x2="991.927124" y2="1219.983154" style="stroke: green; stroke-width: 0.200000"/>
   <line x1="992.927124" y1="1200.845093" x2="992.927124" y2="1219.197021" style="stroke: green; stroke-width: 0.200000"/>
   <line x1="993.927124" y1="1203.015625" x2="993.927124" y2="1218.411133" style="stroke: green; stroke-width: 0.200000"/>
   <line x1="994.927124" y1="1205.803955" x2="994.927124" y2="1217.625000" style="stroke: green; stroke-width: 0.200000"/>
   <line x1="995.927124" y1="1208.592407" x2="995.927124" y2="1216.838989" style="stroke: green; stroke-width: 0.200000"/>
   <line x1="968.927124" y1="1212.850708" x2="968.927124" y2="1216.440308" style="stroke: green; stroke-width: 0.200000"/>
   <line x1="996.927124" y1="1210.746094" x2="996.927124" y2="1216.052979" style="stroke: green; stroke-width: 0.200000"/>
   <line x1="997.927124" y1="1212.609741" x2="997.927124" y2="1215.266968" style="stroke: green; stroke-width: 0.200000"/>
   <line x1="998.927124" y1="1214.473267" x2="998.927124" y2="1214.480957" style="stroke: green; stroke-width: 0.200000"/>
   <line x1="985.927124" y1="1197.023071" x2="985.927124" y2="1208.979004" style="stroke: green; stroke-width: 0.200000"/>
   <line x1="984.927124" y1="1196.483398" x2="984.927124" y2="1207.054565" style="stroke: green; stroke-width: 0.200000"/>
   <line x1="983.927124" y1="1195.943848" x2="983.927124" y2="1205.129883" style="stroke: green; stroke-width: 0.200000"/>
   <line x1="982.927124" y1="1195.993042" x2="982.927124" y2="1203.206299" style="stroke: green; stroke-width: 0.200000"/>
   <line x1="981.927124" y1="1196.744263" x2="981.927124" y2="1201.281616" style="stroke: green; stroke-width: 0.200000"/>
   <line x1="980.927124" y1="1197.495605" x2="980.927124" y2="1199.356934" style="stroke: green; stroke-width: 0.200000"/>
   <line x1="983.394897" y1="1195.641357" x2="983.394897" y2="1195.656616" style="stroke: green; stroke-width: 0.200000"/>
   <path d="M 829.629  1363.51  827.179  1357.21  825.122  1351.85  823.787  1347.89  822.076  1342.21  820.527  1337.47  817.422  1326.6  816.633  1323.14  814.676  1315.94  811.983  1303.51  811.275  1299.7  809.775  1293.19  809.09  1291.64  " style="fill: none; stroke: darkmagenta; stroke-width: 0.200000; fill-type: evenodd"  fill-opacity="1.000000" />
   <path d="M 809.09  1291.64  808.66  1290.67  806.527  1283.57  803.762  1278.45  802.633  1275.81  800.119  1271.33  797.961  1267.75  797.902  1266.14  " style="fill: none; stroke: red; stroke-width: 0.200000; fill-type: evenodd"  fill-opacity="1.000000" />
   <path d="M 797.902  1266.14  797.881  1265.55  795.38  1258.99  795.032  1252.25  794.716  1249.71  796.602  1241.18  796.715  1239.38  797.205  1236.07  799.38  1229.81  801.878  1221.21  802.871  1219.93  807.836  1212.65  808.509  1211.7  808.675  1211.4  809.884  1210.72  817.576  1206.5  821.272  1207.86  826.234  1210.12  827.359  1212.01  832.984  1219.64  836.22  1226.49  840.136  1235.7  840.466  1236.59  841.038  1238.21  844.073  1247.05  845.61  1251.86  846.452  1256.56  847.402  1261.47  848.277  1266.83  849.09  1271.99  849.104  1277.43  849.886  1286.87  849.928  1288.34  849  1298.95  847.917  1309.01  847.634  1313.35  847.029  1318.72  846.718  1326.71  846.43  1329.18  846.272  1332.44  845.804  1339.22  845.791  1343.52  845.051  1349.61  844.433  1356.74  " style="fill: none; stroke: darkmagenta; stroke-width: 0.200000; fill-type: evenodd"  fill-opacity="1.000000" />
   <path d="M 844.433  1356.74  844.299  1358.28  843.187  1360.86  838.224  1368  831.302  1364.41  829.82  1364  829.629  1363.51  " style="fill: none; stroke: red; stroke-width: 0.200000; fill-type: evenodd"  fill-opacity="1.000000" />
   <path d="M 820.891  1208.79  825.535  1210.91  826.526  1212.57  832.122  1220.15  835.307  1226.9  839.207  1236.07  839.526  1236.93  840.093  1238.54  843.124  1247.36  844.637  1252.11  845.469  1256.74  846.418  1261.64  847.289  1266.99  848.09  1272.07  848.104  1277.47  848.887  1286.92  848.927  1288.32  848.004  1298.86  846.92  1308.93  846.638  1313.26  846.032  1318.64  845.72  1326.63  845.433  1329.1  845.274  1332.38  844.804  1339.19  844.792  1343.46  844.056  1349.51  843.317  1358.03  842.309  1360.37  837.904  1366.71  831.668  1363.47  830.569  1363.17  828.112  1356.85  826.063  1351.51  824.74  1347.59  823.03  1341.91  821.484  1337.18  818.391  1326.35  817.603  1322.9  815.648  1315.7  812.964  1303.32  812.254  1299.5  810.728  1292.88  809.6  1290.32  807.456  1283.19  804.663  1278.02  803.532  1275.36  800.983  1270.83  798.951  1267.46  798.874  1265.34  796.371  1258.78  796.028  1252.16  795.73  1249.76  797.596  1241.32  797.71  1239.49  798.181  1236.31  800.333  1230.11  802.785  1221.67  803.68  1220.52  808.658  1213.22  809.358  1212.23  809.414  1212.13  810.369  1211.59  817.658  1207.6  820.891  1208.79  " style="fill: none; stroke: black; stroke-width: 0.200000; fill-type: evenodd"  fill-opacity="1.000000" />
   <path d="M 942.793  1222.5  941.263  1222.24  936.182  1221.13  932.491  1220.27  929.859  1219.57  923.612  1216.97  918.089  1214.26  914.865  1212.76  911.918  1211.33  906.975  1208.19  901.429  1204.95  898.146  1202.51  891.015  1197.01  889.759  1195.79  888.46  1194.47  881.841  1188.02  878.577  1183.41  875.961  1180.52  874.035  1177.75  871.034  1167.47  874.275  1158.54  882.526  1153.12  884.102  1152.92  892.39  1151.49  894.902  1152.3  902.384  1153.99  904.612  1155.51  909.839  1158.51  915.93  1164.3  916.616  1164.83  917.794  1165.99  924.655  1169.98  930.087  1171.88  934.021  1174.01  942.897  1176.91  944.221  1177.22  953.162  1179.77  954.455  1181.16  961.903  1183.56  964.36  1184.25  971.684  1186.99  976.702  1188.38  981.509  1190.01  984.736  1194.68  992.516  1198.87  " style="fill: none; stroke: darkmagenta; stroke-width: 0.200000; fill-type: evenodd"  fill-opacity="1.000000" />
   <path d="M 992.516  1198.87  993.708  1199.52  994.028  1199.82  994.423  1199.96  997.615  1208.86  1000.85  1214.88  992.356  1221.55  992.145  1221.53  982.296  1223.3  980.396  1223.2  971.194  1224  967.958  1223.92  960.661  1223.96  950.43  1223.35  945.695  1223  942.793  1222.5  " style="fill: none; stroke: red; stroke-width: 0.200000; fill-type: evenodd"  fill-opacity="1.000000" />
   <path d="M 979.532  1222.28  971.163  1223  967.968  1222.92  960.687  1222.96  950.497  1222.36  945.817  1222  941.455  1221.26  936.402  1220.15  932.733  1219.3  930.182  1218.62  924.025  1216.05  918.52  1213.36  915.295  1211.86  912.406  1210.45  907.496  1207.33  901.981  1204.12  898.75  1201.71  891.671  1196.26  890.465  1195.08  889.167  1193.76  882.605  1187.37  879.358  1182.78  876.746  1179.9  874.949  1177.32  872.085  1167.51  875.101  1159.19  882.883  1154.08  884.251  1153.91  892.316  1152.51  894.637  1153.27  901.977  1154.92  904.079  1156.36  909.238  1159.32  915.276  1165.06  915.957  1165.59  917.183  1166.79  924.235  1170.89  929.681  1172.8  933.624  1174.93  942.628  1177.87  943.971  1178.18  952.62  1180.65  953.899  1182.03  961.614  1184.52  964.049  1185.21  971.374  1187.94  976.407  1189.34  980.875  1190.85  984.05  1195.44  993.116  1200.33  993.416  1200.62  " style="fill: none; stroke: black; stroke-width: 0.200000; fill-type: evenodd"  fill-opacity="1.000000" />
   <path d="M 993.416  1200.62  993.498  1200.7  993.645  1200.75  994.008  1201.76  " style="fill: none; stroke: red; stroke-width: 0.200000; fill-type: evenodd"  fill-opacity="1.000000" />
   <path d="M 994.008  1201.76  996.699  1209.26  998.499  1212.62  " style="fill: none; stroke: black; stroke-width: 0.200000; fill-type: evenodd"  fill-opacity="1.000000" />
   <path d="M 998.499  1212.62  999.569  1214.61  992.034  1220.53  982.231  1222.29  980.378  1222.2  979.532  1222.28  " style="fill: none; stroke: red; stroke-width: 0.200000; fill-type: evenodd"  fill-opacity="1.000000" />
   <path d="M 1003.1  1248.83  1003.83  1249.56  1004.1  1250.56  1003.83  1251.56  1003.1  1252.29  1002.1  1252.56  1001.1  1252.29  1000.37  1251.56  1000.1  1250.56  1000.37  1249.56  1001.1  1248.83  1002.1  1248.56  1003.1  1248.83  " style="fill: none; stroke: purple; stroke-width: 0.500000; fill-type: evenodd"  fill-opacity="1.000000" />
</svg>
