<?xml version="1.0" encoding="UTF-8" standalone="yes"?>
<!DOCTYPE svg PUBLIC "-//W3C//DTD SVG 1.0//EN" "http://www.w3.org/TR/2001/REC-SVG-20010904/DTD/svg10.dtd">
<svg height="2000" width="2000" xmlns="http://www.w3.org/2000/svg" xmlns:svg="http://www.w3.org/2000/svg" xmlns:xlink="http://www.w3.org/1999/xlink">
   <marker id="endArrow" markerHeight="8" markerUnits="strokeWidth" markerWidth="10" orient="auto" refX="1" refY="5" viewBox="0 0 1000 1000">
      <polyline fill="darkblue" points="0,0 10,5 0,10 1,5" />
   </marker>
   <circle cx="1000" cy="1000" r="1" style="stroke:black; fill: red" />
   <circle cx="1000" cy="1000" r="800" style="stroke:black; fill: none" />
   <line x1="1073.028198" y1="1058.780518" x2="1073.028198" y2="1059.039429" style="stroke: green; stroke-width: 0.200000"/>
   <line x1="1074.028198" y1="1057.780518" x2="1074.028198" y2="1059.039429" style="stroke: green; stroke-width: 0.200000"/>
   <line x1="1075.028198" y1="1056.780518" x2="1075.028198" y2="1059.039429" style="stroke: green; stroke-width: 0.200000"/>
   <line x1="1076.028198" y1="1055.780518" x2="1076.028198" y2="1059.039429" style="stroke: green; stroke-width: 0.200000"/>
   <line x1="1077.028198" y1="1054.780518" x2="1077.028198" y2="1059.039429" style="stroke: green; stroke-width: 0.200000"/>
   <line x1="1078.028198" y1="1053.780518" x2="1078.028198" y2="1059.039429" style="stroke: green; stroke-width: 0.200000"/>
   <line x1="1079.028198" y1="1052.780518" x2="1079.028198" y2="1059.039429" style="stroke: green; stroke-width: 0.200000"/>
   <line x1="1080.028198" y1="1051.780518" x2="1080.028198" y2="1059.039429" style="stroke: green; stroke-width: 0.200000"/>
   <line x1="1081.028198" y1="1050.780518" x2="1081.028198" y2="1059.039429" style="stroke: green; stroke-width: 0.200000"/>
   <line x1="1082.028198" y1="1049.780518" x2="1082.028198" y2="1059.039429" style="stroke: green; stroke-width: 0.200000"/>
   <line x1="1083.028198" y1="1048.780518" x2="1083.028198" y2="1059.039429" style="stroke: green; stroke-width: 0.200000"/>
   <line x1="1084.028198" y1="1048.337769" x2="1084.028198" y2="1059.039429" style="stroke: green; stroke-width: 0.200000"/>
   <line x1="1085.028198" y1="1049.337769" x2="1085.028198" y2="1059.039429" style="stroke: green; stroke-width: 0.200000"/>
   <line x1="1086.028198" y1="1050.337769" x2="1086.028198" y2="1059.036621" style="stroke: green; stroke-width: 0.200000"/>
   <line x1="1087.028198" y1="1049.402588" x2="1087.028198" y2="1058.511475" style="stroke: green; stroke-width: 0.200000"/>
   <line x1="1088.028198" y1="1048.402588" x2="1088.028198" y2="1058.034058" style="stroke: green; stroke-width: 0.200000"/>
   <line x1="1089.028198" y1="1047.402588" x2="1089.028198" y2="1057.556641" style="stroke: green; stroke-width: 0.200000"/>
   <line x1="1090.028198" y1="1046.402588" x2="1090.028198" y2="1057.088379" style="stroke: green; stroke-width: 0.200000"/>
   <line x1="1091.028198" y1="1045.402588" x2="1091.028198" y2="1056.635742" style="stroke: green; stroke-width: 0.200000"/>
   <line x1="1092.028198" y1="1044.402588" x2="1092.028198" y2="1056.183228" style="stroke: green; stroke-width: 0.200000"/>
   <line x1="1093.028198" y1="1043.402588" x2="1093.028198" y2="1055.730713" style="stroke: green; stroke-width: 0.200000"/>
   <line x1="1094.028198" y1="1042.402588" x2="1094.028198" y2="1055.278198" style="stroke: green; stroke-width: 0.200000"/>
   <line x1="1095.028198" y1="1041.402588" x2="1095.028198" y2="1054.857056" style="stroke: green; stroke-width: 0.200000"/>
   <line x1="1096.028198" y1="1040.402588" x2="1096.028198" y2="1054.457520" style="stroke: green; stroke-width: 0.200000"/>
   <line x1="1097.028198" y1="1039.402588" x2="1097.028198" y2="1054.057861" style="stroke: green; stroke-width: 0.200000"/>
   <line x1="1098.028198" y1="1038.402588" x2="1098.028198" y2="1053.658325" style="stroke: green; stroke-width: 0.200000"/>
   <line x1="1099.028198" y1="1037.402588" x2="1099.028198" y2="1053.258789" style="stroke: green; stroke-width: 0.200000"/>
   <line x1="1100.028198" y1="1036.402588" x2="1100.028198" y2="1052.881470" style="stroke: green; stroke-width: 0.200000"/>
   <line x1="1101.028198" y1="1035.402588" x2="1101.028198" y2="1052.517334" style="stroke: green; stroke-width: 0.200000"/>
   <line x1="1102.028198" y1="1034.402588" x2="1102.028198" y2="1052.153198" style="stroke: green; stroke-width: 0.200000"/>
   <line x1="1103.028198" y1="1033.402588" x2="1103.028198" y2="1051.763672" style="stroke: green; stroke-width: 0.200000"/>
   <line x1="1104.028198" y1="1032.402588" x2="1104.028198" y2="1051.331543" style="stroke: green; stroke-width: 0.200000"/>
   <line x1="1105.028198" y1="1031.402588" x2="1105.028198" y2="1050.899414" style="stroke: green; stroke-width: 0.200000"/>
   <line x1="1106.028198" y1="1030.402588" x2="1106.028198" y2="1050.391357" style="stroke: green; stroke-width: 0.200000"/>
   <line x1="1107.028198" y1="1029.402588" x2="1107.028198" y2="1049.825928" style="stroke: green; stroke-width: 0.200000"/>
   <line x1="1108.028198" y1="1028.402588" x2="1108.028198" y2="1049.251587" style="stroke: green; stroke-width: 0.200000"/>
   <line x1="1109.028198" y1="1027.402588" x2="1109.028198" y2="1048.540283" style="stroke: green; stroke-width: 0.200000"/>
   <line x1="1110.028198" y1="1026.402588" x2="1110.028198" y2="1047.828857" style="stroke: green; stroke-width: 0.200000"/>
   <line x1="1111.028198" y1="1025.402588" x2="1111.028198" y2="1046.943726" style="stroke: green; stroke-width: 0.200000"/>
   <line x1="1112.028198" y1="1024.402588" x2="1112.028198" y2="1046.069336" style="stroke: green; stroke-width: 0.200000"/>
   <line x1="1113.028198" y1="1023.402588" x2="1113.028198" y2="1045.153198" style="stroke: green; stroke-width: 0.200000"/>
   <line x1="1114.028198" y1="1022.402588" x2="1114.028198" y2="1044.149902" style="stroke: green; stroke-width: 0.200000"/>
   <line x1="1115.028198" y1="1021.402588" x2="1115.028198" y2="1043.091553" style="stroke: green; stroke-width: 0.200000"/>
   <line x1="1116.028198" y1="1020.402588" x2="1116.028198" y2="1042.033203" style="stroke: green; stroke-width: 0.200000"/>
   <line x1="1117.028198" y1="1019.402588" x2="1117.028198" y2="1040.974854" style="stroke: green; stroke-width: 0.200000"/>
   <line x1="1118.028198" y1="1018.402649" x2="1118.028198" y2="1039.916504" style="stroke: green; stroke-width: 0.200000"/>
   <line x1="1119.028198" y1="1017.402588" x2="1119.028198" y2="1038.858032" style="stroke: green; stroke-width: 0.200000"/>
   <line x1="1120.028198" y1="1016.402588" x2="1120.028198" y2="1037.727173" style="stroke: green; stroke-width: 0.200000"/>
   <line x1="1121.028198" y1="1015.402588" x2="1121.028198" y2="1036.521973" style="stroke: green; stroke-width: 0.200000"/>
   <line x1="1122.028198" y1="1014.402588" x2="1122.028198" y2="1035.150879" style="stroke: green; stroke-width: 0.200000"/>
   <line x1="1123.028198" y1="1010.626465" x2="1123.028198" y2="1033.710327" style="stroke: green; stroke-width: 0.200000"/>
   <line x1="1124.028198" y1="1012.550903" x2="1124.028198" y2="1031.720825" style="stroke: green; stroke-width: 0.200000"/>
   <line x1="1125.028198" y1="1015.450989" x2="1125.028198" y2="1029.309204" style="stroke: green; stroke-width: 0.200000"/>
   <line x1="1126.028198" y1="1023.302063" x2="1126.028198" y2="1023.849731" style="stroke: green; stroke-width: 0.200000"/>
   <line x1="1122.028198" y1="1009.214783" x2="1122.028198" y2="1013.354553" style="stroke: green; stroke-width: 0.200000"/>
   <line x1="1121.028198" y1="1010.214783" x2="1121.028198" y2="1012.354492" style="stroke: green; stroke-width: 0.200000"/>
   <line x1="1028.028198" y1="1108.402588" x2="1028.028198" y2="1109.139404" style="stroke: green; stroke-width: 0.200000"/>
   <line x1="1029.028198" y1="1107.402588" x2="1029.028198" y2="1109.139404" style="stroke: green; stroke-width: 0.200000"/>
   <line x1="1030.028198" y1="1106.402710" x2="1030.028198" y2="1109.139404" style="stroke: green; stroke-width: 0.200000"/>
   <line x1="1031.028198" y1="1105.402588" x2="1031.028198" y2="1109.139404" style="stroke: green; stroke-width: 0.200000"/>
   <line x1="1032.028198" y1="1104.402588" x2="1032.028198" y2="1109.139404" style="stroke: green; stroke-width: 0.200000"/>
   <line x1="1033.028198" y1="1103.402588" x2="1033.028198" y2="1109.139404" style="stroke: green; stroke-width: 0.200000"/>
   <line x1="1034.028198" y1="1102.402588" x2="1034.028198" y2="1109.139404" style="stroke: green; stroke-width: 0.200000"/>
   <line x1="1035.028198" y1="1101.402588" x2="1035.028198" y2="1109.139404" style="stroke: green; stroke-width: 0.200000"/>
   <line x1="1036.028198" y1="1100.402588" x2="1036.028198" y2="1109.139404" style="stroke: green; stroke-width: 0.200000"/>
   <line x1="1037.028198" y1="1099.402588" x2="1037.028198" y2="1109.139404" style="stroke: green; stroke-width: 0.200000"/>
   <line x1="1038.028198" y1="1093.780518" x2="1038.028198" y2="1109.139404" style="stroke: green; stroke-width: 0.200000"/>
   <line x1="1039.028198" y1="1092.780518" x2="1039.028198" y2="1109.139404" style="stroke: green; stroke-width: 0.200000"/>
   <line x1="1040.028198" y1="1091.780518" x2="1040.028198" y2="1109.139404" style="stroke: green; stroke-width: 0.200000"/>
   <line x1="1041.028198" y1="1090.780518" x2="1041.028198" y2="1109.139404" style="stroke: green; stroke-width: 0.200000"/>
   <line x1="1042.028198" y1="1089.780518" x2="1042.028198" y2="1109.139404" style="stroke: green; stroke-width: 0.200000"/>
   <line x1="1043.028198" y1="1088.780518" x2="1043.028198" y2="1109.139404" style="stroke: green; stroke-width: 0.200000"/>
   <line x1="1044.028198" y1="1087.780518" x2="1044.028198" y2="1108.469116" style="stroke: green; stroke-width: 0.200000"/>
   <line x1="1045.028198" y1="1086.780518" x2="1045.028198" y2="1107.311768" style="stroke: green; stroke-width: 0.200000"/>
   <line x1="1046.028198" y1="1085.780518" x2="1046.028198" y2="1106.154541" style="stroke: green; stroke-width: 0.200000"/>
   <line x1="1047.028198" y1="1084.780518" x2="1047.028198" y2="1104.997192" style="stroke: green; stroke-width: 0.200000"/>
   <line x1="1048.028198" y1="1083.780518" x2="1048.028198" y2="1103.899658" style="stroke: green; stroke-width: 0.200000"/>
   <line x1="1049.028198" y1="1082.780518" x2="1049.028198" y2="1102.805664" style="stroke: green; stroke-width: 0.200000"/>
   <line x1="1050.028198" y1="1081.780518" x2="1050.028198" y2="1101.539185" style="stroke: green; stroke-width: 0.200000"/>
   <line x1="1051.028198" y1="1080.780518" x2="1051.028198" y2="1100.161377" style="stroke: green; stroke-width: 0.200000"/>
   <line x1="1037.028198" y1="1094.780518" x2="1037.028198" y2="1098.666870" style="stroke: green; stroke-width: 0.200000"/>
   <line x1="1052.028198" y1="1079.780518" x2="1052.028198" y2="1098.546753" style="stroke: green; stroke-width: 0.200000"/>
   <line x1="1036.028198" y1="1095.780518" x2="1036.028198" y2="1097.666748" style="stroke: green; stroke-width: 0.200000"/>
   <line x1="1053.028198" y1="1078.780518" x2="1053.028198" y2="1096.752808" style="stroke: green; stroke-width: 0.200000"/>
   <line x1="1054.028198" y1="1077.780518" x2="1054.028198" y2="1094.818359" style="stroke: green; stroke-width: 0.200000"/>
   <line x1="1055.028198" y1="1076.780518" x2="1055.028198" y2="1092.850098" style="stroke: green; stroke-width: 0.200000"/>
   <line x1="1056.028198" y1="1075.780518" x2="1056.028198" y2="1090.929932" style="stroke: green; stroke-width: 0.200000"/>
   <line x1="1057.028198" y1="1074.780518" x2="1057.028198" y2="1089.208740" style="stroke: green; stroke-width: 0.200000"/>
   <line x1="1058.028198" y1="1073.780518" x2="1058.028198" y2="1087.487183" style="stroke: green; stroke-width: 0.200000"/>
   <line x1="1059.028198" y1="1072.780518" x2="1059.028198" y2="1085.967773" style="stroke: green; stroke-width: 0.200000"/>
   <line x1="1060.028198" y1="1071.780518" x2="1060.028198" y2="1084.460327" style="stroke: green; stroke-width: 0.200000"/>
   <line x1="1061.028198" y1="1070.780518" x2="1061.028198" y2="1082.983765" style="stroke: green; stroke-width: 0.200000"/>
   <line x1="1062.028198" y1="1069.780518" x2="1062.028198" y2="1081.700073" style="stroke: green; stroke-width: 0.200000"/>
   <line x1="1063.028198" y1="1068.780518" x2="1063.028198" y2="1080.431396" style="stroke: green; stroke-width: 0.200000"/>
   <line x1="1064.028198" y1="1067.780518" x2="1064.028198" y2="1079.162720" style="stroke: green; stroke-width: 0.200000"/>
   <line x1="1065.028198" y1="1066.780518" x2="1065.028198" y2="1077.894043" style="stroke: green; stroke-width: 0.200000"/>
   <line x1="1066.028198" y1="1065.780518" x2="1066.028198" y2="1076.625488" style="stroke: green; stroke-width: 0.200000"/>
   <line x1="1067.028198" y1="1064.780518" x2="1067.028198" y2="1075.412354" style="stroke: green; stroke-width: 0.200000"/>
   <line x1="1068.028198" y1="1063.780518" x2="1068.028198" y2="1074.344238" style="stroke: green; stroke-width: 0.200000"/>
   <line x1="1069.028198" y1="1062.780518" x2="1069.028198" y2="1073.276001" style="stroke: green; stroke-width: 0.200000"/>
   <line x1="1070.028198" y1="1061.780518" x2="1070.028198" y2="1072.190430" style="stroke: green; stroke-width: 0.200000"/>
   <line x1="1071.028198" y1="1060.780518" x2="1071.028198" y2="1071.103027" style="stroke: green; stroke-width: 0.200000"/>
   <line x1="1072.028198" y1="1059.780518" x2="1072.028198" y2="1070.015625" style="stroke: green; stroke-width: 0.200000"/>
   <line x1="1073.028198" y1="1059.139404" x2="1073.028198" y2="1068.928101" style="stroke: green; stroke-width: 0.200000"/>
   <line x1="1074.028198" y1="1059.139404" x2="1074.028198" y2="1067.962524" style="stroke: green; stroke-width: 0.200000"/>
   <line x1="1075.028198" y1="1059.139404" x2="1075.028198" y2="1067.040039" style="stroke: green; stroke-width: 0.200000"/>
   <line x1="1076.028198" y1="1059.139404" x2="1076.028198" y2="1066.117432" style="stroke: green; stroke-width: 0.200000"/>
   <line x1="1077.028198" y1="1059.139404" x2="1077.028198" y2="1065.228027" style="stroke: green; stroke-width: 0.200000"/>
   <line x1="1078.028198" y1="1059.139404" x2="1078.028198" y2="1064.446533" style="stroke: green; stroke-width: 0.200000"/>
   <line x1="1079.028198" y1="1059.139404" x2="1079.028198" y2="1063.664917" style="stroke: green; stroke-width: 0.200000"/>
   <line x1="1080.028198" y1="1059.139404" x2="1080.028198" y2="1062.883301" style="stroke: green; stroke-width: 0.200000"/>
   <line x1="1081.028198" y1="1059.139404" x2="1081.028198" y2="1062.138184" style="stroke: green; stroke-width: 0.200000"/>
   <line x1="1082.028198" y1="1059.139404" x2="1082.028198" y2="1061.493408" style="stroke: green; stroke-width: 0.200000"/>
   <line x1="1083.028198" y1="1059.139404" x2="1083.028198" y2="1060.848633" style="stroke: green; stroke-width: 0.200000"/>
   <line x1="1084.028198" y1="1059.139404" x2="1084.028198" y2="1060.203735" style="stroke: green; stroke-width: 0.200000"/>
   <line x1="1085.028198" y1="1059.139404" x2="1085.028198" y2="1059.563232" style="stroke: green; stroke-width: 0.200000"/>
   <line x1="1029.028198" y1="1109.239380" x2="1029.028198" y2="1114.516846" style="stroke: green; stroke-width: 0.200000"/>
   <line x1="1030.028198" y1="1109.239380" x2="1030.028198" y2="1114.505493" style="stroke: green; stroke-width: 0.200000"/>
   <line x1="1028.028198" y1="1109.239380" x2="1028.028198" y2="1114.473267" style="stroke: green; stroke-width: 0.200000"/>
   <line x1="1031.028198" y1="1109.239380" x2="1031.028198" y2="1114.468018" style="stroke: green; stroke-width: 0.200000"/>
   <line x1="1027.028198" y1="1109.402588" x2="1027.028198" y2="1114.388916" style="stroke: green; stroke-width: 0.200000"/>
   <line x1="1032.028198" y1="1109.239380" x2="1032.028198" y2="1114.369873" style="stroke: green; stroke-width: 0.200000"/>
   <line x1="1026.028198" y1="1110.402588" x2="1026.028198" y2="1114.274048" style="stroke: green; stroke-width: 0.200000"/>
   <line x1="1033.028198" y1="1109.239380" x2="1033.028198" y2="1114.233154" style="stroke: green; stroke-width: 0.200000"/>
   <line x1="1025.028198" y1="1111.402100" x2="1025.028198" y2="1114.092285" style="stroke: green; stroke-width: 0.200000"/>
   <line x1="1034.028198" y1="1109.239380" x2="1034.028198" y2="1114.062378" style="stroke: green; stroke-width: 0.200000"/>
   <line x1="1024.028198" y1="1110.810669" x2="1024.028198" y2="1113.876465" style="stroke: green; stroke-width: 0.200000"/>
   <line x1="1035.028198" y1="1109.239380" x2="1035.028198" y2="1113.818848" style="stroke: green; stroke-width: 0.200000"/>
   <line x1="1023.028198" y1="1110.131714" x2="1023.028198" y2="1113.592529" style="stroke: green; stroke-width: 0.200000"/>
   <line x1="1036.028198" y1="1109.239380" x2="1036.028198" y2="1113.538208" style="stroke: green; stroke-width: 0.200000"/>
   <line x1="1022.028198" y1="1109.918701" x2="1022.028198" y2="1113.270996" style="stroke: green; stroke-width: 0.200000"/>
   <line x1="1037.028198" y1="1109.239380" x2="1037.028198" y2="1113.213379" style="stroke: green; stroke-width: 0.200000"/>
   <line x1="1021.028198" y1="1110.214722" x2="1021.028198" y2="1112.926147" style="stroke: green; stroke-width: 0.200000"/>
   <line x1="1038.028198" y1="1109.239380" x2="1038.028198" y2="1112.802246" style="stroke: green; stroke-width: 0.200000"/>
   <line x1="1020.028198" y1="1111.214722" x2="1020.028198" y2="1112.549561" style="stroke: green; stroke-width: 0.200000"/>
   <line x1="1039.028198" y1="1109.239380" x2="1039.028198" y2="1112.321411" style="stroke: green; stroke-width: 0.200000"/>
   <line x1="1040.028198" y1="1109.239380" x2="1040.028198" y2="1111.758911" style="stroke: green; stroke-width: 0.200000"/>
   <line x1="1041.028198" y1="1109.239380" x2="1041.028198" y2="1111.108887" style="stroke: green; stroke-width: 0.200000"/>
   <line x1="1042.028198" y1="1109.239380" x2="1042.028198" y2="1110.350464" style="stroke: green; stroke-width: 0.200000"/>
   <line x1="1043.028198" y1="1109.239380" x2="1043.028198" y2="1109.457275" style="stroke: green; stroke-width: 0.200000"/>
   <line x1="974.764771" y1="933.969482" x2="974.764771" y2="937.014465" style="stroke: green; stroke-width: 0.200000"/>
   <line x1="975.764771" y1="930.409607" x2="975.764771" y2="937.014465" style="stroke: green; stroke-width: 0.200000"/>
   <line x1="976.764771" y1="925.938232" x2="976.764771" y2="937.014465" style="stroke: green; stroke-width: 0.200000"/>
   <line x1="977.764771" y1="920.502441" x2="977.764771" y2="937.014465" style="stroke: green; stroke-width: 0.200000"/>
   <line x1="978.764709" y1="917.324829" x2="978.764709" y2="937.014465" style="stroke: green; stroke-width: 0.200000"/>
   <line x1="979.764771" y1="915.191650" x2="979.764771" y2="937.014465" style="stroke: green; stroke-width: 0.200000"/>
   <line x1="980.764771" y1="913.516235" x2="980.764771" y2="937.014465" style="stroke: green; stroke-width: 0.200000"/>
   <line x1="981.764771" y1="912.258545" x2="981.764771" y2="937.014465" style="stroke: green; stroke-width: 0.200000"/>
   <line x1="982.764771" y1="911.097107" x2="982.764771" y2="937.014465" style="stroke: green; stroke-width: 0.200000"/>
   <line x1="983.764709" y1="910.051514" x2="983.764709" y2="936.062622" style="stroke: green; stroke-width: 0.200000"/>
   <line x1="984.764771" y1="909.005859" x2="984.764771" y2="935.062622" style="stroke: green; stroke-width: 0.200000"/>
   <line x1="985.764771" y1="907.960266" x2="985.764771" y2="934.062622" style="stroke: green; stroke-width: 0.200000"/>
   <line x1="986.764771" y1="906.914673" x2="986.764771" y2="933.062622" style="stroke: green; stroke-width: 0.200000"/>
   <line x1="987.764771" y1="905.869080" x2="987.764771" y2="932.062622" style="stroke: green; stroke-width: 0.200000"/>
   <line x1="988.764709" y1="904.863220" x2="988.764709" y2="931.062622" style="stroke: green; stroke-width: 0.200000"/>
   <line x1="989.764771" y1="903.934204" x2="989.764771" y2="930.062622" style="stroke: green; stroke-width: 0.200000"/>
   <line x1="990.764771" y1="903.005249" x2="990.764771" y2="929.062622" style="stroke: green; stroke-width: 0.200000"/>
   <line x1="991.764771" y1="902.076172" x2="991.764771" y2="928.062622" style="stroke: green; stroke-width: 0.200000"/>
   <line x1="992.764771" y1="901.147217" x2="992.764771" y2="927.062622" style="stroke: green; stroke-width: 0.200000"/>
   <line x1="993.764709" y1="900.218262" x2="993.764709" y2="926.062622" style="stroke: green; stroke-width: 0.200000"/>
   <line x1="994.764771" y1="899.289246" x2="994.764771" y2="925.062622" style="stroke: green; stroke-width: 0.200000"/>
   <line x1="995.764771" y1="898.433533" x2="995.764771" y2="924.062622" style="stroke: green; stroke-width: 0.200000"/>
   <line x1="996.764771" y1="897.635254" x2="996.764771" y2="923.062622" style="stroke: green; stroke-width: 0.200000"/>
   <line x1="997.764771" y1="896.843018" x2="997.764771" y2="922.062622" style="stroke: green; stroke-width: 0.200000"/>
   <line x1="998.764709" y1="896.057800" x2="998.764709" y2="921.062622" style="stroke: green; stroke-width: 0.200000"/>
   <line x1="999.764771" y1="895.296570" x2="999.764771" y2="920.062622" style="stroke: green; stroke-width: 0.200000"/>
   <line x1="1000.764771" y1="894.535278" x2="1000.764771" y2="919.062561" style="stroke: green; stroke-width: 0.200000"/>
   <line x1="1001.764771" y1="893.773926" x2="1001.764771" y2="918.062622" style="stroke: green; stroke-width: 0.200000"/>
   <line x1="1002.764771" y1="893.052429" x2="1002.764771" y2="917.062622" style="stroke: green; stroke-width: 0.200000"/>
   <line x1="1003.764709" y1="892.356079" x2="1003.764709" y2="916.062622" style="stroke: green; stroke-width: 0.200000"/>
   <line x1="1004.764771" y1="891.659790" x2="1004.764771" y2="915.062622" style="stroke: green; stroke-width: 0.200000"/>
   <line x1="1005.764771" y1="890.963440" x2="1005.764771" y2="914.062561" style="stroke: green; stroke-width: 0.200000"/>
   <line x1="1006.764771" y1="890.278870" x2="1006.764771" y2="913.062622" style="stroke: green; stroke-width: 0.200000"/>
   <line x1="1007.764771" y1="889.596436" x2="1007.764771" y2="912.062622" style="stroke: green; stroke-width: 0.200000"/>
   <line x1="1008.764709" y1="888.969055" x2="1008.764709" y2="911.062622" style="stroke: green; stroke-width: 0.200000"/>
   <line x1="1009.764771" y1="888.438965" x2="1009.764771" y2="910.062561" style="stroke: green; stroke-width: 0.200000"/>
   <line x1="1010.764771" y1="888.006897" x2="1010.764771" y2="909.062561" style="stroke: green; stroke-width: 0.200000"/>
   <line x1="1011.764771" y1="887.651978" x2="1011.764771" y2="908.062622" style="stroke: green; stroke-width: 0.200000"/>
   <line x1="1012.764771" y1="887.395264" x2="1012.764771" y2="907.062622" style="stroke: green; stroke-width: 0.200000"/>
   <line x1="1013.764709" y1="887.207703" x2="1013.764709" y2="906.062561" style="stroke: green; stroke-width: 0.200000"/>
   <line x1="1014.764771" y1="887.082031" x2="1014.764771" y2="905.062561" style="stroke: green; stroke-width: 0.200000"/>
   <line x1="1015.764771" y1="887.015320" x2="1015.764771" y2="904.062561" style="stroke: green; stroke-width: 0.200000"/>
   <line x1="1016.764771" y1="887.033997" x2="1016.764771" y2="903.062622" style="stroke: green; stroke-width: 0.200000"/>
   <line x1="1017.764771" y1="887.113586" x2="1017.764771" y2="902.062622" style="stroke: green; stroke-width: 0.200000"/>
   <line x1="1018.764709" y1="887.274109" x2="1018.764709" y2="901.062561" style="stroke: green; stroke-width: 0.200000"/>
   <line x1="1019.764771" y1="887.473083" x2="1019.764771" y2="900.062561" style="stroke: green; stroke-width: 0.200000"/>
   <line x1="1020.764771" y1="887.754456" x2="1020.764771" y2="899.062561" style="stroke: green; stroke-width: 0.200000"/>
   <line x1="1021.764771" y1="888.100952" x2="1021.764771" y2="898.062622" style="stroke: green; stroke-width: 0.200000"/>
   <line x1="1022.764771" y1="888.518005" x2="1022.764771" y2="897.062622" style="stroke: green; stroke-width: 0.200000"/>
   <line x1="1023.764709" y1="889.014038" x2="1023.764709" y2="896.062561" style="stroke: green; stroke-width: 0.200000"/>
   <line x1="1024.764771" y1="889.618835" x2="1024.764771" y2="895.062561" style="stroke: green; stroke-width: 0.200000"/>
   <line x1="1027.764771" y1="892.126404" x2="1027.764771" y2="894.749146" style="stroke: green; stroke-width: 0.200000"/>
   <line x1="1028.764771" y1="893.204712" x2="1028.764771" y2="894.627319" style="stroke: green; stroke-width: 0.200000"/>
   <line x1="1025.764771" y1="890.336914" x2="1025.764771" y2="894.062561" style="stroke: green; stroke-width: 0.200000"/>
   <line x1="1026.764771" y1="891.166077" x2="1026.764771" y2="893.756836" style="stroke: green; stroke-width: 0.200000"/>
   <line x1="918.764709" y1="986.909424" x2="918.764709" y2="987.114502" style="stroke: green; stroke-width: 0.200000"/>
   <line x1="919.764771" y1="986.693176" x2="919.764771" y2="987.114502" style="stroke: green; stroke-width: 0.200000"/>
   <line x1="920.764771" y1="986.476807" x2="920.764771" y2="987.114502" style="stroke: green; stroke-width: 0.200000"/>
   <line x1="921.764771" y1="986.260620" x2="921.764771" y2="987.114502" style="stroke: green; stroke-width: 0.200000"/>
   <line x1="922.764771" y1="985.953064" x2="922.764771" y2="987.114502" style="stroke: green; stroke-width: 0.200000"/>
   <line x1="923.764709" y1="985.630005" x2="923.764709" y2="987.114502" style="stroke: green; stroke-width: 0.200000"/>
   <line x1="925.764771" y1="984.613037" x2="925.764771" y2="987.114502" style="stroke: green; stroke-width: 0.200000"/>
   <line x1="926.764771" y1="983.687378" x2="926.764771" y2="987.114502" style="stroke: green; stroke-width: 0.200000"/>
   <line x1="927.764771" y1="982.724121" x2="927.764771" y2="987.114502" style="stroke: green; stroke-width: 0.200000"/>
   <line x1="928.764709" y1="981.760925" x2="928.764709" y2="987.114502" style="stroke: green; stroke-width: 0.200000"/>
   <line x1="929.764771" y1="980.976013" x2="929.764771" y2="987.114502" style="stroke: green; stroke-width: 0.200000"/>
   <line x1="930.764771" y1="980.216614" x2="930.764771" y2="987.114502" style="stroke: green; stroke-width: 0.200000"/>
   <line x1="931.764771" y1="979.457275" x2="931.764771" y2="987.114502" style="stroke: green; stroke-width: 0.200000"/>
   <line x1="932.764771" y1="978.814331" x2="932.764771" y2="987.114502" style="stroke: green; stroke-width: 0.200000"/>
   <line x1="933.764709" y1="978.204895" x2="933.764709" y2="987.114502" style="stroke: green; stroke-width: 0.200000"/>
   <line x1="934.764771" y1="977.595459" x2="934.764771" y2="987.114502" style="stroke: green; stroke-width: 0.200000"/>
   <line x1="935.764771" y1="977.009155" x2="935.764771" y2="987.114502" style="stroke: green; stroke-width: 0.200000"/>
   <line x1="936.764771" y1="976.462341" x2="936.764771" y2="987.114502" style="stroke: green; stroke-width: 0.200000"/>
   <line x1="937.764771" y1="975.915588" x2="937.764771" y2="987.114502" style="stroke: green; stroke-width: 0.200000"/>
   <line x1="938.764709" y1="975.368774" x2="938.764709" y2="987.114502" style="stroke: green; stroke-width: 0.200000"/>
   <line x1="939.764771" y1="974.807983" x2="939.764771" y2="987.114502" style="stroke: green; stroke-width: 0.200000"/>
   <line x1="940.764771" y1="974.242920" x2="940.764771" y2="987.114502" style="stroke: green; stroke-width: 0.200000"/>
   <line x1="941.764771" y1="973.677979" x2="941.764771" y2="987.114502" style="stroke: green; stroke-width: 0.200000"/>
   <line x1="942.764771" y1="973.097900" x2="942.764771" y2="987.114502" style="stroke: green; stroke-width: 0.200000"/>
   <line x1="943.764709" y1="972.446655" x2="943.764709" y2="987.114502" style="stroke: green; stroke-width: 0.200000"/>
   <line x1="944.764771" y1="971.795410" x2="944.764771" y2="987.114502" style="stroke: green; stroke-width: 0.200000"/>
   <line x1="945.764771" y1="971.144165" x2="945.764771" y2="987.114502" style="stroke: green; stroke-width: 0.200000"/>
   <line x1="946.764771" y1="970.408997" x2="946.764771" y2="987.114502" style="stroke: green; stroke-width: 0.200000"/>
   <line x1="947.764771" y1="969.642456" x2="947.764771" y2="986.410767" style="stroke: green; stroke-width: 0.200000"/>
   <line x1="948.764709" y1="968.876038" x2="948.764709" y2="985.408691" style="stroke: green; stroke-width: 0.200000"/>
   <line x1="949.764771" y1="968.053711" x2="949.764771" y2="984.406677" style="stroke: green; stroke-width: 0.200000"/>
   <line x1="950.764771" y1="967.175232" x2="950.764771" y2="983.404602" style="stroke: green; stroke-width: 0.200000"/>
   <line x1="951.764771" y1="966.296692" x2="951.764771" y2="982.402710" style="stroke: green; stroke-width: 0.200000"/>
   <line x1="952.764771" y1="965.366516" x2="952.764771" y2="981.400696" style="stroke: green; stroke-width: 0.200000"/>
   <line x1="953.764709" y1="964.376770" x2="953.764709" y2="980.398621" style="stroke: green; stroke-width: 0.200000"/>
   <line x1="954.764771" y1="963.387085" x2="954.764771" y2="979.396606" style="stroke: green; stroke-width: 0.200000"/>
   <line x1="955.764771" y1="962.311523" x2="955.764771" y2="978.403442" style="stroke: green; stroke-width: 0.200000"/>
   <line x1="956.764771" y1="961.178650" x2="956.764771" y2="977.411011" style="stroke: green; stroke-width: 0.200000"/>
   <line x1="957.764771" y1="960.045776" x2="957.764771" y2="976.418701" style="stroke: green; stroke-width: 0.200000"/>
   <line x1="958.764709" y1="958.714478" x2="958.764709" y2="975.426514" style="stroke: green; stroke-width: 0.200000"/>
   <line x1="959.764771" y1="957.363525" x2="959.764771" y2="974.434204" style="stroke: green; stroke-width: 0.200000"/>
   <line x1="960.764771" y1="955.891602" x2="960.764771" y2="973.441895" style="stroke: green; stroke-width: 0.200000"/>
   <line x1="961.764771" y1="954.278809" x2="961.764771" y2="972.443848" style="stroke: green; stroke-width: 0.200000"/>
   <line x1="962.764771" y1="952.653259" x2="962.764771" y2="971.443481" style="stroke: green; stroke-width: 0.200000"/>
   <line x1="963.764709" y1="950.992798" x2="963.764709" y2="970.443115" style="stroke: green; stroke-width: 0.200000"/>
   <line x1="964.764771" y1="949.332397" x2="964.764771" y2="969.442749" style="stroke: green; stroke-width: 0.200000"/>
   <line x1="965.764771" y1="947.671997" x2="965.764771" y2="968.442383" style="stroke: green; stroke-width: 0.200000"/>
   <line x1="966.764771" y1="946.032776" x2="966.764771" y2="967.442017" style="stroke: green; stroke-width: 0.200000"/>
   <line x1="967.764771" y1="944.787048" x2="967.764771" y2="966.441650" style="stroke: green; stroke-width: 0.200000"/>
   <line x1="968.764709" y1="943.541321" x2="968.764709" y2="965.441284" style="stroke: green; stroke-width: 0.200000"/>
   <line x1="969.764771" y1="942.511292" x2="969.764771" y2="964.440918" style="stroke: green; stroke-width: 0.200000"/>
   <line x1="970.764771" y1="941.604736" x2="970.764771" y2="963.440552" style="stroke: green; stroke-width: 0.200000"/>
   <line x1="971.764771" y1="940.698303" x2="971.764771" y2="962.440186" style="stroke: green; stroke-width: 0.200000"/>
   <line x1="972.764771" y1="939.592773" x2="972.764771" y2="961.439758" style="stroke: green; stroke-width: 0.200000"/>
   <line x1="973.764709" y1="937.529785" x2="973.764709" y2="960.439392" style="stroke: green; stroke-width: 0.200000"/>
   <line x1="974.764771" y1="937.114502" x2="974.764771" y2="959.439026" style="stroke: green; stroke-width: 0.200000"/>
   <line x1="975.764771" y1="937.114502" x2="975.764771" y2="958.438660" style="stroke: green; stroke-width: 0.200000"/>
   <line x1="976.764771" y1="937.114502" x2="976.764771" y2="957.438293" style="stroke: green; stroke-width: 0.200000"/>
   <line x1="977.764771" y1="942.074036" x2="977.764771" y2="956.437927" style="stroke: green; stroke-width: 0.200000"/>
   <line x1="978.764709" y1="944.806580" x2="978.764709" y2="955.436707" style="stroke: green; stroke-width: 0.200000"/>
   <line x1="979.764771" y1="945.886597" x2="979.764771" y2="954.426514" style="stroke: green; stroke-width: 0.200000"/>
   <line x1="980.764771" y1="946.966675" x2="980.764771" y2="953.416443" style="stroke: green; stroke-width: 0.200000"/>
   <line x1="981.764771" y1="948.046570" x2="981.764771" y2="952.406311" style="stroke: green; stroke-width: 0.200000"/>
   <line x1="982.764771" y1="949.126526" x2="982.764771" y2="951.396179" style="stroke: green; stroke-width: 0.200000"/>
   <line x1="978.764709" y1="943.074097" x2="978.764709" y2="944.627441" style="stroke: green; stroke-width: 0.200000"/>
   <line x1="977.764771" y1="937.114502" x2="977.764771" y2="942.062744" style="stroke: green; stroke-width: 0.200000"/>
   <line x1="978.764709" y1="937.114502" x2="978.764709" y2="941.062927" style="stroke: green; stroke-width: 0.200000"/>
   <line x1="979.764771" y1="937.114502" x2="979.764771" y2="940.062927" style="stroke: green; stroke-width: 0.200000"/>
   <line x1="980.764771" y1="937.114502" x2="980.764771" y2="939.062805" style="stroke: green; stroke-width: 0.200000"/>
   <line x1="981.764771" y1="937.114502" x2="981.764771" y2="938.062744" style="stroke: green; stroke-width: 0.200000"/>
   <line x1="878.764709" y1="1017.815186" x2="878.764709" y2="1037.214478" style="stroke: green; stroke-width: 0.200000"/>
   <line x1="879.764771" y1="1016.070496" x2="879.764771" y2="1037.214478" style="stroke: green; stroke-width: 0.200000"/>
   <line x1="880.764771" y1="1014.475647" x2="880.764771" y2="1037.214478" style="stroke: green; stroke-width: 0.200000"/>
   <line x1="881.764771" y1="1013.011963" x2="881.764771" y2="1037.214478" style="stroke: green; stroke-width: 0.200000"/>
   <line x1="882.764771" y1="1011.548218" x2="882.764771" y2="1037.062622" style="stroke: green; stroke-width: 0.200000"/>
   <line x1="877.764771" y1="1019.559814" x2="877.764771" y2="1036.447021" style="stroke: green; stroke-width: 0.200000"/>
   <line x1="883.764709" y1="1010.214844" x2="883.764709" y2="1036.062622" style="stroke: green; stroke-width: 0.200000"/>
   <line x1="876.764771" y1="1021.564575" x2="876.764771" y2="1035.196167" style="stroke: green; stroke-width: 0.200000"/>
   <line x1="884.764771" y1="1008.950806" x2="884.764771" y2="1035.062622" style="stroke: green; stroke-width: 0.200000"/>
   <line x1="885.764771" y1="1007.686768" x2="885.764771" y2="1034.062622" style="stroke: green; stroke-width: 0.200000"/>
   <line x1="875.764771" y1="1023.604370" x2="875.764771" y2="1033.403687" style="stroke: green; stroke-width: 0.200000"/>
   <line x1="886.764771" y1="1006.494385" x2="886.764771" y2="1033.062622" style="stroke: green; stroke-width: 0.200000"/>
   <line x1="887.764771" y1="1005.371094" x2="887.764771" y2="1032.062744" style="stroke: green; stroke-width: 0.200000"/>
   <line x1="888.764709" y1="1004.247803" x2="888.764709" y2="1031.062622" style="stroke: green; stroke-width: 0.200000"/>
   <line x1="889.764771" y1="1003.139587" x2="889.764771" y2="1030.062622" style="stroke: green; stroke-width: 0.200000"/>
   <line x1="874.764771" y1="1027.073975" x2="874.764771" y2="1029.761353" style="stroke: green; stroke-width: 0.200000"/>
   <line x1="890.764771" y1="1002.118225" x2="890.764771" y2="1029.062622" style="stroke: green; stroke-width: 0.200000"/>
   <line x1="891.764771" y1="1001.096863" x2="891.764771" y2="1028.062622" style="stroke: green; stroke-width: 0.200000"/>
   <line x1="892.764771" y1="999.988281" x2="892.764771" y2="1027.062744" style="stroke: green; stroke-width: 0.200000"/>
   <line x1="893.764709" y1="998.985046" x2="893.764709" y2="1026.062622" style="stroke: green; stroke-width: 0.200000"/>
   <line x1="894.764771" y1="998.043091" x2="894.764771" y2="1025.062622" style="stroke: green; stroke-width: 0.200000"/>
   <line x1="895.764771" y1="997.101074" x2="895.764771" y2="1024.062622" style="stroke: green; stroke-width: 0.200000"/>
   <line x1="896.764771" y1="996.168823" x2="896.764771" y2="1023.062683" style="stroke: green; stroke-width: 0.200000"/>
   <line x1="897.764771" y1="995.239990" x2="897.764771" y2="1022.062683" style="stroke: green; stroke-width: 0.200000"/>
   <line x1="898.764709" y1="994.311218" x2="898.764709" y2="1021.062622" style="stroke: green; stroke-width: 0.200000"/>
   <line x1="899.764771" y1="993.382507" x2="899.764771" y2="1020.062622" style="stroke: green; stroke-width: 0.200000"/>
   <line x1="900.764771" y1="992.605347" x2="900.764771" y2="1019.062622" style="stroke: green; stroke-width: 0.200000"/>
   <line x1="901.764771" y1="991.830811" x2="901.764771" y2="1018.062683" style="stroke: green; stroke-width: 0.200000"/>
   <line x1="902.764771" y1="991.236511" x2="902.764771" y2="1017.062683" style="stroke: green; stroke-width: 0.200000"/>
   <line x1="903.764709" y1="990.662903" x2="903.764709" y2="1016.062622" style="stroke: green; stroke-width: 0.200000"/>
   <line x1="904.764771" y1="990.184204" x2="904.764771" y2="1015.062622" style="stroke: green; stroke-width: 0.200000"/>
   <line x1="905.764771" y1="989.784790" x2="905.764771" y2="1014.062622" style="stroke: green; stroke-width: 0.200000"/>
   <line x1="906.764771" y1="989.387695" x2="906.764771" y2="1013.062683" style="stroke: green; stroke-width: 0.200000"/>
   <line x1="907.764771" y1="989.127930" x2="907.764771" y2="1012.062683" style="stroke: green; stroke-width: 0.200000"/>
   <line x1="908.764709" y1="988.929382" x2="908.764709" y2="1011.062683" style="stroke: green; stroke-width: 0.200000"/>
   <line x1="909.764771" y1="988.732239" x2="909.764771" y2="1010.062622" style="stroke: green; stroke-width: 0.200000"/>
   <line x1="910.764771" y1="988.538452" x2="910.764771" y2="1009.062622" style="stroke: green; stroke-width: 0.200000"/>
   <line x1="911.764771" y1="988.344666" x2="911.764771" y2="1008.062683" style="stroke: green; stroke-width: 0.200000"/>
   <line x1="912.764771" y1="988.165222" x2="912.764771" y2="1007.062683" style="stroke: green; stroke-width: 0.200000"/>
   <line x1="913.764709" y1="987.987000" x2="913.764709" y2="1006.062683" style="stroke: green; stroke-width: 0.200000"/>
   <line x1="914.764771" y1="987.808716" x2="914.764771" y2="1005.062744" style="stroke: green; stroke-width: 0.200000"/>
   <line x1="915.764771" y1="987.611389" x2="915.764771" y2="1004.062622" style="stroke: green; stroke-width: 0.200000"/>
   <line x1="916.764771" y1="987.370728" x2="916.764771" y2="1003.062683" style="stroke: green; stroke-width: 0.200000"/>
   <line x1="917.764771" y1="987.214478" x2="917.764771" y2="1002.062683" style="stroke: green; stroke-width: 0.200000"/>
   <line x1="918.764709" y1="987.214478" x2="918.764709" y2="1001.062683" style="stroke: green; stroke-width: 0.200000"/>
   <line x1="919.764771" y1="987.214478" x2="919.764771" y2="1000.062744" style="stroke: green; stroke-width: 0.200000"/>
   <line x1="920.764771" y1="987.214478" x2="920.764771" y2="999.062622" style="stroke: green; stroke-width: 0.200000"/>
   <line x1="921.764771" y1="987.214478" x2="921.764771" y2="998.062683" style="stroke: green; stroke-width: 0.200000"/>
   <line x1="922.764771" y1="987.214478" x2="922.764771" y2="997.062683" style="stroke: green; stroke-width: 0.200000"/>
   <line x1="923.764709" y1="987.214478" x2="923.764709" y2="996.062683" style="stroke: green; stroke-width: 0.200000"/>
   <line x1="937.764771" y1="987.214478" x2="937.764771" y2="995.581543" style="stroke: green; stroke-width: 0.200000"/>
   <line x1="938.764709" y1="987.214478" x2="938.764709" y2="995.358582" style="stroke: green; stroke-width: 0.200000"/>
   <line x1="936.764771" y1="987.214478" x2="936.764771" y2="994.893799" style="stroke: green; stroke-width: 0.200000"/>
   <line x1="939.764771" y1="987.214478" x2="939.764771" y2="994.427002" style="stroke: green; stroke-width: 0.200000"/>
   <line x1="925.764771" y1="987.214478" x2="925.764771" y2="994.062622" style="stroke: green; stroke-width: 0.200000"/>
   <line x1="935.764771" y1="987.214478" x2="935.764771" y2="993.970703" style="stroke: green; stroke-width: 0.200000"/>
   <line x1="940.764771" y1="987.214478" x2="940.764771" y2="993.424988" style="stroke: green; stroke-width: 0.200000"/>
   <line x1="926.764771" y1="987.214478" x2="926.764771" y2="993.062805" style="stroke: green; stroke-width: 0.200000"/>
   <line x1="934.764771" y1="987.214478" x2="934.764771" y2="993.047241" style="stroke: green; stroke-width: 0.200000"/>
   <line x1="941.764771" y1="987.214478" x2="941.764771" y2="992.422974" style="stroke: green; stroke-width: 0.200000"/>
   <line x1="930.764771" y1="987.214478" x2="930.764771" y2="992.403442" style="stroke: green; stroke-width: 0.200000"/>
   <line x1="933.764709" y1="987.214478" x2="933.764709" y2="992.124023" style="stroke: green; stroke-width: 0.200000"/>
   <line x1="927.764771" y1="987.214478" x2="927.764771" y2="992.062927" style="stroke: green; stroke-width: 0.200000"/>
   <line x1="931.764771" y1="987.214478" x2="931.764771" y2="991.627441" style="stroke: green; stroke-width: 0.200000"/>
   <line x1="942.764771" y1="987.214478" x2="942.764771" y2="991.420898" style="stroke: green; stroke-width: 0.200000"/>
   <line x1="929.764771" y1="987.214478" x2="929.764771" y2="991.403320" style="stroke: green; stroke-width: 0.200000"/>
   <line x1="932.764771" y1="987.214478" x2="932.764771" y2="991.200684" style="stroke: green; stroke-width: 0.200000"/>
   <line x1="928.764709" y1="987.214478" x2="928.764709" y2="991.062927" style="stroke: green; stroke-width: 0.200000"/>
   <line x1="943.764709" y1="987.214478" x2="943.764709" y2="990.418823" style="stroke: green; stroke-width: 0.200000"/>
   <line x1="944.764771" y1="987.214478" x2="944.764771" y2="989.416870" style="stroke: green; stroke-width: 0.200000"/>
   <line x1="945.764771" y1="987.214478" x2="945.764771" y2="988.414856" style="stroke: green; stroke-width: 0.200000"/>
   <line x1="946.764771" y1="987.214478" x2="946.764771" y2="987.412781" style="stroke: green; stroke-width: 0.200000"/>
   <line x1="879.764771" y1="1037.314453" x2="879.764771" y2="1038.467407" style="stroke: green; stroke-width: 0.200000"/>
   <line x1="880.764771" y1="1037.314453" x2="880.764771" y2="1038.364502" style="stroke: green; stroke-width: 0.200000"/>
   <line x1="881.764771" y1="1037.314453" x2="881.764771" y2="1038.062622" style="stroke: green; stroke-width: 0.200000"/>
   <line x1="878.764709" y1="1037.314453" x2="878.764709" y2="1037.447021" style="stroke: green; stroke-width: 0.200000"/>
   <line x1="1080.472534" y1="1062.536133" x2="1080.472534" y2="1062.536377" style="stroke: green; stroke-width: 0.200000"/>
   <path d="M 1123.55  1008.38  1125.48  1012.1  1126.77  1015.93  1127.46  1019.89  1127.54  1023.85  1127.51  1024.15  1127.01  1027.74  1126.47  1029.74  1125.88  1031.38  1124.2  1034.72  1122.03  1037.7  1120.49  1039.49  1114.56  1045.77  1113.36  1046.9  1112.22  1047.88  1111.18  1048.85  1108.77  1050.56  1106.2  1052.02  1105.7  1052.24  1103.48  1053.2  1102.8  1053.47  1099.94  1054.51  1095.02  1056.47  1090.3  1058.61  1087.67  1059.87  1085.75  1060.88  1081.63  1063.53  1077.85  1066.49  1077.34  1066.94  1074.35  1069.71  1070.23  1074.19  1067.89  1076.69  1062.36  1083.7  1062.02  1084.18  1059.36  1088.18  1056.92  1092.38  1056.61  1093  1056.24  1093.81  1053.77  1098.57  1052.28  1100.99  1050.58  1103.33  1048.21  1105.93  1044.98  1109.66  1044.03  1110.57  1042.94  1111.55  1041.74  1112.45  1040.45  1113.27  1039.07  1113.99  1037.57  1114.62  1036  1115.13  1034.37  1115.53  1032.69  1115.81  1030.98  1115.98  1029.24  1116.03  1027.48  1115.95  1025.72  1115.75  1023.98  1115.42  1022.22  1114.92  1020.59  1114.36  1016.35  1112.77  1020.83  1108.29  1023.37  1108.55  1024.79  1109.52  1035.27  1099.03  1032.96  1096.72  1083.75  1045.94  1086.06  1048.25  1120.43  1013.88  1119.53  1012.98  1119.49  1012.83  1118.59  1010.53  1122.46  1006.67  1123.55  1008.38  " style="fill: none; stroke: darkmagenta; stroke-width: 0.200000; fill-type: evenodd"  fill-opacity="1.000000" />
   <path d="M 1122.69  1008.89  1124.56  1012.49  1125.8  1016.18  1126.46  1019.98  1126.54  1023.81  1126.52  1024.04  1126.03  1027.54  1125.51  1029.44  1124.96  1030.99  1123.34  1034.19  1121.24  1037.08  1119.75  1038.83  1113.86  1045.06  1112.69  1046.16  1111.55  1047.14  1110.55  1048.07  1108.24  1049.72  1105.75  1051.12  1105.29  1051.33  1103.1  1052.28  1102.45  1052.53  1099.58  1053.58  1094.63  1055.55  1089.87  1057.71  1087.22  1058.97  1085.24  1060.01  1081.05  1062.72  1077.21  1065.72  1076.67  1066.2  1073.64  1069  1069.49  1073.51  1067.13  1076.03  1061.56  1083.1  1061.19  1083.61  1058.51  1087.65  1056.04  1091.91  1055.71  1092.57  1055.34  1093.37  1052.9  1098.08  1051.45  1100.43  1049.81  1102.69  1047.46  1105.26  1044.26  1108.97  1043.35  1109.84  1042.31  1110.77  1041.17  1111.63  1039.95  1112.4  1038.65  1113.09  1037.22  1113.68  1035.72  1114.16  1034.16  1114.55  1032.56  1114.82  1030.92  1114.98  1029.25  1115.03  1027.56  1114.95  1025.87  1114.76  1024.21  1114.45  1022.52  1113.97  1020.93  1113.42  1018.16  1112.38  1021.2  1109.33  1023.01  1109.52  1024.91  1110.81  1036.69  1099.03  1034.38  1096.72  1083.75  1047.35  1086.06  1049.66  1121.85  1013.88  1120.41  1012.44  1119.76  1010.78  1122.28  1008.25  1122.69  1008.89  " style="fill: none; stroke: black; stroke-width: 0.200000; fill-type: evenodd"  fill-opacity="1.000000" />
   <path d="M 1017.18  885.542  1018.68  885.704  1019.17  885.83  1020.16  886.022  1021.61  886.435  1023.02  886.973  1024.38  887.632  1024.9  887.941  1025.7  888.434  1026.97  889.358  1028.16  890.385  1029.25  891.496  1030.11  892.478  1031.51  894.008  1028.21  897.304  1026.42  895.528  979.88  942.068  981.662  943.851  980.76  944.754  984.122  948.385  984.432  948.797  984.554  949.016  984.659  949.257  984.741  949.506  984.798  949.761  984.83  950.021  984.838  950.283  984.82  950.545  984.778  950.803  984.711  951.057  984.62  951.302  984.51  951.532  984.244  951.942  984.19  952.122  984.051  952.229  979.745  956.578  962.113  974.217  955.907  980.375  940.05  996.265  940.012  996.348  939.74  996.508  939.326  996.784  939.099  996.894  938.852  996.986  938.599  997.053  938.339  997.096  938.078  997.114  937.815  997.107  937.554  997.075  937.298  997.018  937.048  996.937  936.808  996.832  936.581  996.707  936.304  996.509  932.508  993.005  930.877  994.636  929.094  992.854  883.232  1038.72  885.012  1040.5  882.236  1043.28  877.982  1038.76  877.017  1037.89  875.703  1036.33  874.677  1034.67  873.902  1032.88  873.398  1031  873.175  1029.07  873.238  1027.15  873.379  1026.18  873.589  1025.24  874.102  1023.6  874.186  1023.39  875.379  1021.01  876.319  1019.07  878.96  1014.46  881.904  1010.15  885.107  1006.1  888.521  1002.27  890.774  999.965  892.035  998.554  895.002  995.759  898.81  992.222  901.032  990.501  903.566  989.048  906.28  987.964  907.423  987.667  909.15  987.324  911.562  986.856  915.153  986.216  917.622  985.622  921.521  984.779  923.827  984.034  924.406  983.734  924.952  983.351  927.913  980.499  931.142  978.047  934.646  975.912  938.261  973.935  941.812  971.929  945.17  969.742  948.315  967.332  951.277  964.729  954.075  961.96  956.687  959.001  959.061  955.794  961.218  952.315  965.481  945.237  968.034  942.056  970.783  939.565  971.293  939.04  971.669  938.559  971.996  937.987  972.223  937.473  974.442  929.575  975.364  925.323  976.174  920.808  976.393  919.715  976.878  917.988  977.92  915.415  978.044  915.159  979.449  912.767  979.904  912.173  981.245  910.516  987.371  904.111  994.035  897.92  994.979  897.137  997.616  895.048  1001.27  892.266  1005.06  889.624  1007.3  888.095  1008.56  887.343  1009.9  886.723  1011.29  886.224  1012.73  885.856  1014.2  885.619  1015.68  885.514  1017.18  885.542  " style="fill: none; stroke: darkmagenta; stroke-width: 0.200000; fill-type: evenodd"  fill-opacity="1.000000" />
   <path d="M 1017.11  886.541  1018.5  886.69  1018.95  886.806  1019.93  886.995  1021.29  887.384  1022.62  887.892  1023.9  888.514  1024.38  888.797  1025.15  889.265  1026.34  890.141  1027.47  891.116  1028.52  892.178  1029.37  893.145  1030.12  893.975  1028.21  895.892  1026.42  894.116  978.466  942.068  980.248  943.851  979.372  944.727  983.354  949.027  983.592  949.343  983.657  949.46  983.723  949.612  983.775  949.77  983.811  949.933  983.832  950.098  983.837  950.264  983.825  950.43  983.799  950.594  983.756  950.755  983.699  950.911  983.636  951.041  983.289  951.577  979.036  955.873  961.407  973.508  955.201  979.667  939.283  995.617  939.209  995.661  938.829  995.913  938.705  995.974  938.549  996.032  938.388  996.075  938.223  996.102  938.057  996.114  937.89  996.109  937.724  996.089  937.562  996.052  937.403  996.001  937.251  995.935  937.116  995.86  936.936  995.731  932.48  991.619  930.877  993.222  929.094  991.44  881.819  1038.72  883.599  1040.5  882.257  1041.84  878.683  1038.05  877.738  1037.19  876.515  1035.74  875.566  1034.2  874.849  1032.55  874.383  1030.81  874.177  1029.03  874.236  1027.24  874.363  1026.36  874.555  1025.5  875.046  1023.94  875.1  1023.8  876.276  1021.45  877.204  1019.53  879.807  1014.99  882.71  1010.74  885.873  1006.74  889.252  1002.95  891.505  1000.65  892.752  999.252  895.685  996.49  899.458  992.985  901.59  991.334  904.003  989.95  906.592  988.916  907.647  988.642  909.342  988.305  911.745  987.839  915.358  987.195  917.844  986.597  921.781  985.746  924.213  984.96  924.925  984.592  925.59  984.125  928.565  981.26  931.706  978.875  935.146  976.778  938.747  974.809  942.331  972.784  945.748  970.559  948.95  968.105  951.96  965.461  954.802  962.647  957.466  959.63  959.889  956.356  962.071  952.836  966.303  945.81  968.764  942.744  971.478  940.284  972.047  939.699  972.502  939.119  972.89  938.438  973.167  937.812  975.412  929.816  976.345  925.517  977.156  920.995  977.366  919.948  977.825  918.312  978.834  915.822  978.927  915.632  980.28  913.326  980.69  912.792  981.997  911.177  988.073  904.823  994.695  898.672  995.609  897.913  998.229  895.837  1001.86  893.074  1005.63  890.448  1007.84  888.938  1009.03  888.229  1010.28  887.649  1011.59  887.181  1012.93  886.836  1014.31  886.613  1015.71  886.514  1017.11  886.541  " style="fill: none; stroke: black; stroke-width: 0.200000; fill-type: evenodd"  fill-opacity="1.000000" />
   <path d="M 882.58  1040.81  880.825  1039  " style="fill: none; stroke: grey; stroke-width: 0.200000; fill-type: evenodd"  fill-opacity="1.000000" />
</svg>
