<?xml version="1.0" encoding="UTF-8" standalone="yes"?>
<!DOCTYPE svg PUBLIC "-//W3C//DTD SVG 1.0//EN" "http://www.w3.org/TR/2001/REC-SVG-20010904/DTD/svg10.dtd">
<svg height="2000" width="2000" xmlns="http://www.w3.org/2000/svg" xmlns:svg="http://www.w3.org/2000/svg" xmlns:xlink="http://www.w3.org/1999/xlink">
   <marker id="endArrow" markerHeight="8" markerUnits="strokeWidth" markerWidth="10" orient="auto" refX="1" refY="5" viewBox="0 0 1000 1000">
      <polyline fill="darkblue" points="0,0 10,5 0,10 1,5" />
   </marker>
   <circle cx="1000" cy="1000" r="1" style="stroke:black; fill: red" />
   <circle cx="1000" cy="1000" r="800" style="stroke:black; fill: none" />
   <line x1="1084.833740" y1="1060.373901" x2="1073.633545" y2="1060.373901" style="stroke: green; stroke-width: 0.200000"/>
   <line x1="1086.552612" y1="1059.373901" x2="1074.633545" y2="1059.373901" style="stroke: green; stroke-width: 0.200000"/>
   <line x1="1088.451782" y1="1058.373901" x2="1075.633545" y2="1058.373901" style="stroke: green; stroke-width: 0.200000"/>
   <line x1="1090.511230" y1="1057.373901" x2="1076.633545" y2="1057.373901" style="stroke: green; stroke-width: 0.200000"/>
   <line x1="1092.715332" y1="1056.373901" x2="1077.633545" y2="1056.373901" style="stroke: green; stroke-width: 0.200000"/>
   <line x1="1094.919434" y1="1055.373901" x2="1078.633545" y2="1055.373901" style="stroke: green; stroke-width: 0.200000"/>
   <line x1="1097.397095" y1="1054.373901" x2="1079.633545" y2="1054.373901" style="stroke: green; stroke-width: 0.200000"/>
   <line x1="1099.753662" y1="1053.373901" x2="1080.633545" y2="1053.373901" style="stroke: green; stroke-width: 0.200000"/>
   <line x1="1102.337158" y1="1052.373901" x2="1081.633545" y2="1052.373901" style="stroke: green; stroke-width: 0.200000"/>
   <line x1="1104.734863" y1="1051.373901" x2="1082.633545" y2="1051.373901" style="stroke: green; stroke-width: 0.200000"/>
   <line x1="1086.064331" y1="1050.373901" x2="1083.633545" y2="1050.373901" style="stroke: green; stroke-width: 0.200000"/>
   <line x1="1106.810547" y1="1050.373901" x2="1086.429321" y2="1050.373901" style="stroke: green; stroke-width: 0.200000"/>
   <line x1="1108.572632" y1="1049.373901" x2="1087.429321" y2="1049.373901" style="stroke: green; stroke-width: 0.200000"/>
   <line x1="1085.064331" y1="1049.373901" x2="1084.633545" y2="1049.373901" style="stroke: green; stroke-width: 0.200000"/>
   <line x1="1109.983032" y1="1048.373901" x2="1088.429321" y2="1048.373901" style="stroke: green; stroke-width: 0.200000"/>
   <line x1="1111.268677" y1="1047.373901" x2="1089.429321" y2="1047.373901" style="stroke: green; stroke-width: 0.200000"/>
   <line x1="1112.350830" y1="1046.373901" x2="1090.429443" y2="1046.373901" style="stroke: green; stroke-width: 0.200000"/>
   <line x1="1113.432983" y1="1045.373901" x2="1091.429321" y2="1045.373901" style="stroke: green; stroke-width: 0.200000"/>
   <line x1="1114.427368" y1="1044.373901" x2="1092.429321" y2="1044.373901" style="stroke: green; stroke-width: 0.200000"/>
   <line x1="1115.373657" y1="1043.373901" x2="1093.429321" y2="1043.373901" style="stroke: green; stroke-width: 0.200000"/>
   <line x1="1116.319702" y1="1042.373901" x2="1094.429443" y2="1042.373901" style="stroke: green; stroke-width: 0.200000"/>
   <line x1="1117.265869" y1="1041.373901" x2="1095.429443" y2="1041.373901" style="stroke: green; stroke-width: 0.200000"/>
   <line x1="1118.212036" y1="1040.373901" x2="1096.429321" y2="1040.373901" style="stroke: green; stroke-width: 0.200000"/>
   <line x1="1119.158203" y1="1039.373901" x2="1097.429321" y2="1039.373901" style="stroke: green; stroke-width: 0.200000"/>
   <line x1="1120.061523" y1="1038.373901" x2="1098.429321" y2="1038.373901" style="stroke: green; stroke-width: 0.200000"/>
   <line x1="1120.975098" y1="1037.373901" x2="1099.429443" y2="1037.373901" style="stroke: green; stroke-width: 0.200000"/>
   <line x1="1121.605347" y1="1036.373901" x2="1100.429443" y2="1036.373901" style="stroke: green; stroke-width: 0.200000"/>
   <line x1="1121.605347" y1="1035.373901" x2="1101.429321" y2="1035.373901" style="stroke: green; stroke-width: 0.200000"/>
   <line x1="1121.605347" y1="1034.373901" x2="1102.429321" y2="1034.373901" style="stroke: green; stroke-width: 0.200000"/>
   <line x1="1121.605347" y1="1033.373901" x2="1103.429321" y2="1033.373901" style="stroke: green; stroke-width: 0.200000"/>
   <line x1="1121.605347" y1="1032.373901" x2="1104.429443" y2="1032.373901" style="stroke: green; stroke-width: 0.200000"/>
   <line x1="1121.605347" y1="1031.373901" x2="1105.429443" y2="1031.373901" style="stroke: green; stroke-width: 0.200000"/>
   <line x1="1121.605347" y1="1030.373901" x2="1106.429321" y2="1030.373901" style="stroke: green; stroke-width: 0.200000"/>
   <line x1="1121.605347" y1="1029.373901" x2="1107.429321" y2="1029.373901" style="stroke: green; stroke-width: 0.200000"/>
   <line x1="1121.605347" y1="1028.373901" x2="1108.429321" y2="1028.373901" style="stroke: green; stroke-width: 0.200000"/>
   <line x1="1121.605347" y1="1027.373901" x2="1109.429443" y2="1027.373901" style="stroke: green; stroke-width: 0.200000"/>
   <line x1="1121.605347" y1="1026.373901" x2="1110.429443" y2="1026.373901" style="stroke: green; stroke-width: 0.200000"/>
   <line x1="1121.605347" y1="1025.373901" x2="1111.429321" y2="1025.373901" style="stroke: green; stroke-width: 0.200000"/>
   <line x1="1121.605347" y1="1024.373901" x2="1112.429321" y2="1024.373901" style="stroke: green; stroke-width: 0.200000"/>
   <line x1="1121.605347" y1="1023.373901" x2="1113.429321" y2="1023.373901" style="stroke: green; stroke-width: 0.200000"/>
   <line x1="1121.605347" y1="1022.373901" x2="1114.429443" y2="1022.373901" style="stroke: green; stroke-width: 0.200000"/>
   <line x1="1121.605347" y1="1021.373901" x2="1115.429443" y2="1021.373901" style="stroke: green; stroke-width: 0.200000"/>
   <line x1="1121.605347" y1="1020.373901" x2="1116.429321" y2="1020.373901" style="stroke: green; stroke-width: 0.200000"/>
   <line x1="1121.605347" y1="1019.373901" x2="1117.429321" y2="1019.373901" style="stroke: green; stroke-width: 0.200000"/>
   <line x1="1121.605347" y1="1018.373901" x2="1118.429321" y2="1018.373901" style="stroke: green; stroke-width: 0.200000"/>
   <line x1="1121.605347" y1="1017.373901" x2="1119.429443" y2="1017.373901" style="stroke: green; stroke-width: 0.200000"/>
   <line x1="1121.605347" y1="1016.373901" x2="1120.429443" y2="1016.373901" style="stroke: green; stroke-width: 0.200000"/>
   <line x1="1121.605347" y1="1015.373901" x2="1121.429321" y2="1015.373901" style="stroke: green; stroke-width: 0.200000"/>
   <line x1="1121.712769" y1="1036.373901" x2="1121.705322" y2="1036.373901" style="stroke: green; stroke-width: 0.200000"/>
   <line x1="1122.440918" y1="1035.373901" x2="1121.705322" y2="1035.373901" style="stroke: green; stroke-width: 0.200000"/>
   <line x1="1123.140625" y1="1034.373901" x2="1121.705322" y2="1034.373901" style="stroke: green; stroke-width: 0.200000"/>
   <line x1="1123.641968" y1="1033.373901" x2="1121.705322" y2="1033.373901" style="stroke: green; stroke-width: 0.200000"/>
   <line x1="1124.143311" y1="1032.373901" x2="1121.705322" y2="1032.373901" style="stroke: green; stroke-width: 0.200000"/>
   <line x1="1124.643799" y1="1031.373901" x2="1121.705322" y2="1031.373901" style="stroke: green; stroke-width: 0.200000"/>
   <line x1="1124.979980" y1="1030.373901" x2="1121.705322" y2="1030.373901" style="stroke: green; stroke-width: 0.200000"/>
   <line x1="1125.269287" y1="1029.373901" x2="1121.705322" y2="1029.373901" style="stroke: green; stroke-width: 0.200000"/>
   <line x1="1125.582642" y1="1028.373901" x2="1121.705322" y2="1028.373901" style="stroke: green; stroke-width: 0.200000"/>
   <line x1="1125.783813" y1="1027.373901" x2="1121.705322" y2="1027.373901" style="stroke: green; stroke-width: 0.200000"/>
   <line x1="1125.928589" y1="1026.373901" x2="1121.705322" y2="1026.373901" style="stroke: green; stroke-width: 0.200000"/>
   <line x1="1126.073364" y1="1025.373901" x2="1121.705322" y2="1025.373901" style="stroke: green; stroke-width: 0.200000"/>
   <line x1="1126.201416" y1="1024.373901" x2="1121.705322" y2="1024.373901" style="stroke: green; stroke-width: 0.200000"/>
   <line x1="1126.189087" y1="1023.373901" x2="1121.705322" y2="1023.373901" style="stroke: green; stroke-width: 0.200000"/>
   <line x1="1126.176880" y1="1022.373901" x2="1121.705322" y2="1022.373901" style="stroke: green; stroke-width: 0.200000"/>
   <line x1="1126.164429" y1="1021.373901" x2="1121.705322" y2="1021.373901" style="stroke: green; stroke-width: 0.200000"/>
   <line x1="1126.078125" y1="1020.373901" x2="1121.705322" y2="1020.373901" style="stroke: green; stroke-width: 0.200000"/>
   <line x1="1125.904663" y1="1019.373901" x2="1121.705322" y2="1019.373901" style="stroke: green; stroke-width: 0.200000"/>
   <line x1="1125.731201" y1="1018.373901" x2="1121.705322" y2="1018.373901" style="stroke: green; stroke-width: 0.200000"/>
   <line x1="1125.557739" y1="1017.373901" x2="1121.705322" y2="1017.373901" style="stroke: green; stroke-width: 0.200000"/>
   <line x1="1125.261230" y1="1016.373901" x2="1121.705322" y2="1016.373901" style="stroke: green; stroke-width: 0.200000"/>
   <line x1="1124.925903" y1="1015.373901" x2="1121.705322" y2="1015.373901" style="stroke: green; stroke-width: 0.200000"/>
   <line x1="1124.590576" y1="1014.373901" x2="1122.429321" y2="1014.373901" style="stroke: green; stroke-width: 0.200000"/>
   <line x1="1124.225342" y1="1013.373901" x2="1121.784912" y2="1013.373901" style="stroke: green; stroke-width: 0.200000"/>
   <line x1="1123.711182" y1="1012.373901" x2="1121.705322" y2="1012.373901" style="stroke: green; stroke-width: 0.200000"/>
   <line x1="1123.196899" y1="1011.373901" x2="1122.633545" y2="1011.373901" style="stroke: green; stroke-width: 0.200000"/>
   <line x1="1023.705566" y1="1110.373901" x2="1023.633545" y2="1110.373901" style="stroke: green; stroke-width: 0.200000"/>
   <line x1="1042.881958" y1="1110.373901" x2="1026.429321" y2="1110.373901" style="stroke: green; stroke-width: 0.200000"/>
   <line x1="1044.000122" y1="1109.373901" x2="1027.429321" y2="1109.373901" style="stroke: green; stroke-width: 0.200000"/>
   <line x1="1044.978638" y1="1108.373901" x2="1028.429443" y2="1108.373901" style="stroke: green; stroke-width: 0.200000"/>
   <line x1="1045.850952" y1="1107.373901" x2="1029.429443" y2="1107.373901" style="stroke: green; stroke-width: 0.200000"/>
   <line x1="1046.723389" y1="1106.373901" x2="1030.429443" y2="1106.373901" style="stroke: green; stroke-width: 0.200000"/>
   <line x1="1047.595703" y1="1105.373901" x2="1031.429321" y2="1105.373901" style="stroke: green; stroke-width: 0.200000"/>
   <line x1="1048.472412" y1="1104.373901" x2="1032.429321" y2="1104.373901" style="stroke: green; stroke-width: 0.200000"/>
   <line x1="1049.358276" y1="1103.373901" x2="1033.429443" y2="1103.373901" style="stroke: green; stroke-width: 0.200000"/>
   <line x1="1050.206665" y1="1102.373901" x2="1034.429443" y2="1102.373901" style="stroke: green; stroke-width: 0.200000"/>
   <line x1="1050.929688" y1="1101.373901" x2="1035.429443" y2="1101.373901" style="stroke: green; stroke-width: 0.200000"/>
   <line x1="1051.650635" y1="1100.373901" x2="1036.429321" y2="1100.373901" style="stroke: green; stroke-width: 0.200000"/>
   <line x1="1052.270386" y1="1099.373901" x2="1037.429321" y2="1099.373901" style="stroke: green; stroke-width: 0.200000"/>
   <line x1="1052.890259" y1="1098.373901" x2="1036.735352" y2="1098.373901" style="stroke: green; stroke-width: 0.200000"/>
   <line x1="1053.453491" y1="1097.373901" x2="1036.633545" y2="1097.373901" style="stroke: green; stroke-width: 0.200000"/>
   <line x1="1053.988159" y1="1096.373901" x2="1037.633545" y2="1096.373901" style="stroke: green; stroke-width: 0.200000"/>
   <line x1="1054.506958" y1="1095.373901" x2="1038.633545" y2="1095.373901" style="stroke: green; stroke-width: 0.200000"/>
   <line x1="1055.025879" y1="1094.373901" x2="1039.633545" y2="1094.373901" style="stroke: green; stroke-width: 0.200000"/>
   <line x1="1055.544922" y1="1093.373901" x2="1040.633545" y2="1093.373901" style="stroke: green; stroke-width: 0.200000"/>
   <line x1="1056.047607" y1="1092.373901" x2="1041.633545" y2="1092.373901" style="stroke: green; stroke-width: 0.200000"/>
   <line x1="1056.593750" y1="1091.373901" x2="1042.633545" y2="1091.373901" style="stroke: green; stroke-width: 0.200000"/>
   <line x1="1057.176270" y1="1090.373901" x2="1043.633545" y2="1090.373901" style="stroke: green; stroke-width: 0.200000"/>
   <line x1="1057.758789" y1="1089.373901" x2="1044.633545" y2="1089.373901" style="stroke: green; stroke-width: 0.200000"/>
   <line x1="1058.341187" y1="1088.373901" x2="1045.633545" y2="1088.373901" style="stroke: green; stroke-width: 0.200000"/>
   <line x1="1058.947754" y1="1087.373901" x2="1046.633545" y2="1087.373901" style="stroke: green; stroke-width: 0.200000"/>
   <line x1="1059.609741" y1="1086.373901" x2="1047.633545" y2="1086.373901" style="stroke: green; stroke-width: 0.200000"/>
   <line x1="1060.271729" y1="1085.373901" x2="1048.633545" y2="1085.373901" style="stroke: green; stroke-width: 0.200000"/>
   <line x1="1060.933716" y1="1084.373901" x2="1049.633545" y2="1084.373901" style="stroke: green; stroke-width: 0.200000"/>
   <line x1="1061.621216" y1="1083.373901" x2="1050.633545" y2="1083.373901" style="stroke: green; stroke-width: 0.200000"/>
   <line x1="1062.398560" y1="1082.373901" x2="1051.633545" y2="1082.373901" style="stroke: green; stroke-width: 0.200000"/>
   <line x1="1063.176147" y1="1081.373901" x2="1052.633545" y2="1081.373901" style="stroke: green; stroke-width: 0.200000"/>
   <line x1="1063.953613" y1="1080.373901" x2="1053.633545" y2="1080.373901" style="stroke: green; stroke-width: 0.200000"/>
   <line x1="1064.731079" y1="1079.373901" x2="1054.633545" y2="1079.373901" style="stroke: green; stroke-width: 0.200000"/>
   <line x1="1065.508545" y1="1078.373901" x2="1055.633545" y2="1078.373901" style="stroke: green; stroke-width: 0.200000"/>
   <line x1="1066.286133" y1="1077.373901" x2="1056.633545" y2="1077.373901" style="stroke: green; stroke-width: 0.200000"/>
   <line x1="1067.063477" y1="1076.373901" x2="1057.633545" y2="1076.373901" style="stroke: green; stroke-width: 0.200000"/>
   <line x1="1067.938110" y1="1075.373901" x2="1058.633545" y2="1075.373901" style="stroke: green; stroke-width: 0.200000"/>
   <line x1="1068.880981" y1="1074.373901" x2="1059.633545" y2="1074.373901" style="stroke: green; stroke-width: 0.200000"/>
   <line x1="1069.800537" y1="1073.373901" x2="1060.633667" y2="1073.373901" style="stroke: green; stroke-width: 0.200000"/>
   <line x1="1070.720215" y1="1072.373901" x2="1061.633545" y2="1072.373901" style="stroke: green; stroke-width: 0.200000"/>
   <line x1="1071.505371" y1="1071.373901" x2="1062.633545" y2="1071.373901" style="stroke: green; stroke-width: 0.200000"/>
   <line x1="1071.505371" y1="1070.373901" x2="1063.633545" y2="1070.373901" style="stroke: green; stroke-width: 0.200000"/>
   <line x1="1071.505371" y1="1069.373901" x2="1064.633545" y2="1069.373901" style="stroke: green; stroke-width: 0.200000"/>
   <line x1="1071.505371" y1="1068.373901" x2="1065.633545" y2="1068.373901" style="stroke: green; stroke-width: 0.200000"/>
   <line x1="1071.505371" y1="1067.373901" x2="1066.633545" y2="1067.373901" style="stroke: green; stroke-width: 0.200000"/>
   <line x1="1071.505371" y1="1066.373901" x2="1067.633545" y2="1066.373901" style="stroke: green; stroke-width: 0.200000"/>
   <line x1="1071.505371" y1="1065.373901" x2="1068.633545" y2="1065.373901" style="stroke: green; stroke-width: 0.200000"/>
   <line x1="1071.505371" y1="1064.373901" x2="1069.633545" y2="1064.373901" style="stroke: green; stroke-width: 0.200000"/>
   <line x1="1071.505371" y1="1063.373901" x2="1070.633545" y2="1063.373901" style="stroke: green; stroke-width: 0.200000"/>
   <line x1="1071.639771" y1="1071.373901" x2="1071.605347" y2="1071.373901" style="stroke: green; stroke-width: 0.200000"/>
   <line x1="1072.559326" y1="1070.373901" x2="1071.605347" y2="1070.373901" style="stroke: green; stroke-width: 0.200000"/>
   <line x1="1073.478882" y1="1069.373901" x2="1071.605347" y2="1069.373901" style="stroke: green; stroke-width: 0.200000"/>
   <line x1="1074.483765" y1="1068.373901" x2="1071.605347" y2="1068.373901" style="stroke: green; stroke-width: 0.200000"/>
   <line x1="1075.567749" y1="1067.373901" x2="1071.605347" y2="1067.373901" style="stroke: green; stroke-width: 0.200000"/>
   <line x1="1076.663818" y1="1066.373901" x2="1071.605347" y2="1066.373901" style="stroke: green; stroke-width: 0.200000"/>
   <line x1="1077.814453" y1="1065.373901" x2="1071.605347" y2="1065.373901" style="stroke: green; stroke-width: 0.200000"/>
   <line x1="1079.099609" y1="1064.373901" x2="1071.605347" y2="1064.373901" style="stroke: green; stroke-width: 0.200000"/>
   <line x1="1080.384644" y1="1063.373901" x2="1071.605347" y2="1063.373901" style="stroke: green; stroke-width: 0.200000"/>
   <line x1="1081.722900" y1="1062.373901" x2="1071.633545" y2="1062.373901" style="stroke: green; stroke-width: 0.200000"/>
   <line x1="1083.278320" y1="1061.373901" x2="1072.633545" y2="1061.373901" style="stroke: green; stroke-width: 0.200000"/>
   <line x1="1032.314941" y1="1114.373901" x2="1029.231201" y2="1114.373901" style="stroke: green; stroke-width: 0.200000"/>
   <line x1="1037.361816" y1="1113.373901" x2="1023.941895" y2="1113.373901" style="stroke: green; stroke-width: 0.200000"/>
   <line x1="1039.758179" y1="1112.373901" x2="1021.633606" y2="1112.373901" style="stroke: green; stroke-width: 0.200000"/>
   <line x1="1025.179688" y1="1111.373901" x2="1022.633606" y2="1111.373901" style="stroke: green; stroke-width: 0.200000"/>
   <line x1="1041.495605" y1="1111.373901" x2="1025.428711" y2="1111.373901" style="stroke: green; stroke-width: 0.200000"/>
   <line x1="975.232300" y1="936.715210" x2="974.744629" y2="936.715210" style="stroke: green; stroke-width: 0.200000"/>
   <line x1="975.232300" y1="935.715271" x2="975.016235" y2="935.715271" style="stroke: green; stroke-width: 0.200000"/>
   <line x1="983.049072" y1="936.715210" x2="975.332336" y2="936.715210" style="stroke: green; stroke-width: 0.200000"/>
   <line x1="984.049072" y1="935.715271" x2="975.332336" y2="935.715271" style="stroke: green; stroke-width: 0.200000"/>
   <line x1="985.048950" y1="934.715271" x2="975.332336" y2="934.715271" style="stroke: green; stroke-width: 0.200000"/>
   <line x1="986.048950" y1="933.715271" x2="975.559631" y2="933.715271" style="stroke: green; stroke-width: 0.200000"/>
   <line x1="987.048950" y1="932.715332" x2="975.831299" y2="932.715332" style="stroke: green; stroke-width: 0.200000"/>
   <line x1="988.048950" y1="931.715210" x2="976.059448" y2="931.715210" style="stroke: green; stroke-width: 0.200000"/>
   <line x1="989.049011" y1="930.715271" x2="976.276245" y2="930.715271" style="stroke: green; stroke-width: 0.200000"/>
   <line x1="990.048950" y1="929.715271" x2="976.493042" y2="929.715271" style="stroke: green; stroke-width: 0.200000"/>
   <line x1="991.048950" y1="928.715271" x2="976.710083" y2="928.715271" style="stroke: green; stroke-width: 0.200000"/>
   <line x1="992.048950" y1="927.715332" x2="976.926880" y2="927.715332" style="stroke: green; stroke-width: 0.200000"/>
   <line x1="993.048950" y1="926.715210" x2="977.143860" y2="926.715210" style="stroke: green; stroke-width: 0.200000"/>
   <line x1="994.048950" y1="925.715271" x2="977.360107" y2="925.715271" style="stroke: green; stroke-width: 0.200000"/>
   <line x1="995.048950" y1="924.715271" x2="977.539429" y2="924.715271" style="stroke: green; stroke-width: 0.200000"/>
   <line x1="996.048950" y1="923.715271" x2="977.718811" y2="923.715271" style="stroke: green; stroke-width: 0.200000"/>
   <line x1="997.048950" y1="922.715332" x2="977.898254" y2="922.715332" style="stroke: green; stroke-width: 0.200000"/>
   <line x1="998.048950" y1="921.715210" x2="978.077637" y2="921.715210" style="stroke: green; stroke-width: 0.200000"/>
   <line x1="999.048950" y1="920.715271" x2="978.304504" y2="920.715271" style="stroke: green; stroke-width: 0.200000"/>
   <line x1="1000.048889" y1="919.715271" x2="978.569580" y2="919.715271" style="stroke: green; stroke-width: 0.200000"/>
   <line x1="1001.048950" y1="918.715271" x2="978.861816" y2="918.715271" style="stroke: green; stroke-width: 0.200000"/>
   <line x1="1002.048950" y1="917.715332" x2="979.241272" y2="917.715332" style="stroke: green; stroke-width: 0.200000"/>
   <line x1="1003.048950" y1="916.715210" x2="979.659119" y2="916.715210" style="stroke: green; stroke-width: 0.200000"/>
   <line x1="1004.048950" y1="915.715271" x2="980.154297" y2="915.715271" style="stroke: green; stroke-width: 0.200000"/>
   <line x1="1005.048889" y1="914.715271" x2="980.738586" y2="914.715271" style="stroke: green; stroke-width: 0.200000"/>
   <line x1="1006.048950" y1="913.715271" x2="981.400879" y2="913.715271" style="stroke: green; stroke-width: 0.200000"/>
   <line x1="1007.048950" y1="912.715332" x2="982.167969" y2="912.715332" style="stroke: green; stroke-width: 0.200000"/>
   <line x1="1008.048950" y1="911.715210" x2="982.987122" y2="911.715210" style="stroke: green; stroke-width: 0.200000"/>
   <line x1="1009.048950" y1="910.715271" x2="983.942017" y2="910.715271" style="stroke: green; stroke-width: 0.200000"/>
   <line x1="1010.048889" y1="909.715271" x2="984.896912" y2="909.715271" style="stroke: green; stroke-width: 0.200000"/>
   <line x1="1011.048889" y1="908.715271" x2="985.851746" y2="908.715271" style="stroke: green; stroke-width: 0.200000"/>
   <line x1="1012.048950" y1="907.715332" x2="986.806641" y2="907.715332" style="stroke: green; stroke-width: 0.200000"/>
   <line x1="1013.048950" y1="906.715210" x2="987.761475" y2="906.715210" style="stroke: green; stroke-width: 0.200000"/>
   <line x1="1014.048950" y1="905.715271" x2="988.716370" y2="905.715271" style="stroke: green; stroke-width: 0.200000"/>
   <line x1="1015.048889" y1="904.715271" x2="989.775269" y2="904.715271" style="stroke: green; stroke-width: 0.200000"/>
   <line x1="1016.048889" y1="903.715271" x2="990.857422" y2="903.715271" style="stroke: green; stroke-width: 0.200000"/>
   <line x1="1017.048950" y1="902.715332" x2="991.939636" y2="902.715332" style="stroke: green; stroke-width: 0.200000"/>
   <line x1="1018.048950" y1="901.715210" x2="993.021790" y2="901.715210" style="stroke: green; stroke-width: 0.200000"/>
   <line x1="1019.048950" y1="900.715271" x2="994.104004" y2="900.715271" style="stroke: green; stroke-width: 0.200000"/>
   <line x1="1020.048889" y1="899.715271" x2="995.186157" y2="899.715271" style="stroke: green; stroke-width: 0.200000"/>
   <line x1="1021.048889" y1="898.715271" x2="996.358032" y2="898.715271" style="stroke: green; stroke-width: 0.200000"/>
   <line x1="1022.048889" y1="897.715332" x2="997.591553" y2="897.715332" style="stroke: green; stroke-width: 0.200000"/>
   <line x1="1023.048950" y1="896.715210" x2="998.853821" y2="896.715210" style="stroke: green; stroke-width: 0.200000"/>
   <line x1="1024.048950" y1="895.715271" x2="1000.158813" y2="895.715271" style="stroke: green; stroke-width: 0.200000"/>
   <line x1="1025.048950" y1="894.715271" x2="1001.469971" y2="894.715271" style="stroke: green; stroke-width: 0.200000"/>
   <line x1="1025.332275" y1="893.715271" x2="1002.795898" y2="893.715271" style="stroke: green; stroke-width: 0.200000"/>
   <line x1="1025.332275" y1="892.715332" x2="1004.231689" y2="892.715332" style="stroke: green; stroke-width: 0.200000"/>
   <line x1="1025.332275" y1="891.715210" x2="1005.667603" y2="891.715210" style="stroke: green; stroke-width: 0.200000"/>
   <line x1="1025.332275" y1="890.715271" x2="1007.103394" y2="890.715271" style="stroke: green; stroke-width: 0.200000"/>
   <line x1="1024.211304" y1="889.715271" x2="1008.750671" y2="889.715271" style="stroke: green; stroke-width: 0.200000"/>
   <line x1="1022.110840" y1="888.715271" x2="1010.651855" y2="888.715271" style="stroke: green; stroke-width: 0.200000"/>
   <line x1="1018.416687" y1="887.715332" x2="1014.326782" y2="887.715332" style="stroke: green; stroke-width: 0.200000"/>
   <line x1="1027.544678" y1="893.715271" x2="1026.255981" y2="893.715271" style="stroke: green; stroke-width: 0.200000"/>
   <line x1="1026.049316" y1="893.715271" x2="1025.432373" y2="893.715271" style="stroke: green; stroke-width: 0.200000"/>
   <line x1="1028.085205" y1="892.715332" x2="1025.432373" y2="892.715332" style="stroke: green; stroke-width: 0.200000"/>
   <line x1="1027.022583" y1="891.715210" x2="1025.432373" y2="891.715210" style="stroke: green; stroke-width: 0.200000"/>
   <line x1="1025.756958" y1="890.715271" x2="1025.432373" y2="890.715271" style="stroke: green; stroke-width: 0.200000"/>
   <line x1="925.132385" y1="986.715210" x2="922.134399" y2="986.715210" style="stroke: green; stroke-width: 0.200000"/>
   <line x1="947.339355" y1="986.715210" x2="925.232300" y2="986.715210" style="stroke: green; stroke-width: 0.200000"/>
   <line x1="948.347290" y1="985.715271" x2="925.536865" y2="985.715271" style="stroke: green; stroke-width: 0.200000"/>
   <line x1="949.355347" y1="984.715271" x2="927.071777" y2="984.715271" style="stroke: green; stroke-width: 0.200000"/>
   <line x1="950.363281" y1="983.715271" x2="928.143799" y2="983.715271" style="stroke: green; stroke-width: 0.200000"/>
   <line x1="951.371338" y1="982.715332" x2="929.215698" y2="982.715332" style="stroke: green; stroke-width: 0.200000"/>
   <line x1="952.379456" y1="981.715210" x2="930.465759" y2="981.715210" style="stroke: green; stroke-width: 0.200000"/>
   <line x1="953.387451" y1="980.715271" x2="931.820923" y2="980.715271" style="stroke: green; stroke-width: 0.200000"/>
   <line x1="954.395447" y1="979.715271" x2="933.278259" y2="979.715271" style="stroke: green; stroke-width: 0.200000"/>
   <line x1="955.403503" y1="978.715271" x2="934.966797" y2="978.715271" style="stroke: green; stroke-width: 0.200000"/>
   <line x1="956.411499" y1="977.715332" x2="936.749023" y2="977.715332" style="stroke: green; stroke-width: 0.200000"/>
   <line x1="957.419495" y1="976.715210" x2="938.664856" y2="976.715210" style="stroke: green; stroke-width: 0.200000"/>
   <line x1="958.427490" y1="975.715271" x2="940.572998" y2="975.715271" style="stroke: green; stroke-width: 0.200000"/>
   <line x1="959.429565" y1="974.715271" x2="942.461609" y2="974.715271" style="stroke: green; stroke-width: 0.200000"/>
   <line x1="960.429321" y1="973.715271" x2="944.219971" y2="973.715271" style="stroke: green; stroke-width: 0.200000"/>
   <line x1="961.428955" y1="972.715332" x2="945.916443" y2="972.715332" style="stroke: green; stroke-width: 0.200000"/>
   <line x1="962.427124" y1="971.715210" x2="947.466675" y2="971.715210" style="stroke: green; stroke-width: 0.200000"/>
   <line x1="963.416626" y1="970.715271" x2="948.917297" y2="970.715271" style="stroke: green; stroke-width: 0.200000"/>
   <line x1="964.406006" y1="969.715271" x2="950.268677" y2="969.715271" style="stroke: green; stroke-width: 0.200000"/>
   <line x1="965.395447" y1="968.715271" x2="951.469788" y2="968.715271" style="stroke: green; stroke-width: 0.200000"/>
   <line x1="966.384888" y1="967.715332" x2="952.655334" y2="967.715332" style="stroke: green; stroke-width: 0.200000"/>
   <line x1="967.374268" y1="966.715210" x2="953.777405" y2="966.715210" style="stroke: green; stroke-width: 0.200000"/>
   <line x1="968.363708" y1="965.715271" x2="954.745972" y2="965.715271" style="stroke: green; stroke-width: 0.200000"/>
   <line x1="969.353149" y1="964.715271" x2="955.749451" y2="964.715271" style="stroke: green; stroke-width: 0.200000"/>
   <line x1="970.342651" y1="963.715271" x2="956.693604" y2="963.715271" style="stroke: green; stroke-width: 0.200000"/>
   <line x1="971.332031" y1="962.715332" x2="957.551147" y2="962.715332" style="stroke: green; stroke-width: 0.200000"/>
   <line x1="972.321472" y1="961.715210" x2="958.392883" y2="961.715210" style="stroke: green; stroke-width: 0.200000"/>
   <line x1="973.310913" y1="960.715271" x2="959.192017" y2="960.715271" style="stroke: green; stroke-width: 0.200000"/>
   <line x1="974.300415" y1="959.715271" x2="959.903076" y2="959.715271" style="stroke: green; stroke-width: 0.200000"/>
   <line x1="975.232300" y1="958.715271" x2="960.614075" y2="958.715271" style="stroke: green; stroke-width: 0.200000"/>
   <line x1="975.232300" y1="957.715332" x2="961.325073" y2="957.715332" style="stroke: green; stroke-width: 0.200000"/>
   <line x1="975.232300" y1="956.715210" x2="961.902527" y2="956.715210" style="stroke: green; stroke-width: 0.200000"/>
   <line x1="975.232300" y1="955.715271" x2="962.493286" y2="955.715271" style="stroke: green; stroke-width: 0.200000"/>
   <line x1="975.232300" y1="954.715271" x2="963.084045" y2="954.715271" style="stroke: green; stroke-width: 0.200000"/>
   <line x1="975.232300" y1="953.715271" x2="963.663269" y2="953.715271" style="stroke: green; stroke-width: 0.200000"/>
   <line x1="975.232300" y1="952.715332" x2="964.216980" y2="952.715332" style="stroke: green; stroke-width: 0.200000"/>
   <line x1="975.232300" y1="951.715210" x2="964.791992" y2="951.715210" style="stroke: green; stroke-width: 0.200000"/>
   <line x1="975.232300" y1="950.715271" x2="965.368958" y2="950.715271" style="stroke: green; stroke-width: 0.200000"/>
   <line x1="975.232300" y1="949.715271" x2="965.945679" y2="949.715271" style="stroke: green; stroke-width: 0.200000"/>
   <line x1="975.232300" y1="948.715271" x2="966.522583" y2="948.715271" style="stroke: green; stroke-width: 0.200000"/>
   <line x1="975.232300" y1="947.715332" x2="967.099548" y2="947.715332" style="stroke: green; stroke-width: 0.200000"/>
   <line x1="975.232300" y1="946.715210" x2="967.710449" y2="946.715210" style="stroke: green; stroke-width: 0.200000"/>
   <line x1="975.232300" y1="945.715271" x2="968.482544" y2="945.715271" style="stroke: green; stroke-width: 0.200000"/>
   <line x1="975.232300" y1="944.715271" x2="969.254639" y2="944.715271" style="stroke: green; stroke-width: 0.200000"/>
   <line x1="975.232300" y1="943.715271" x2="970.057312" y2="943.715271" style="stroke: green; stroke-width: 0.200000"/>
   <line x1="975.232300" y1="942.715332" x2="971.109070" y2="942.715332" style="stroke: green; stroke-width: 0.200000"/>
   <line x1="975.232300" y1="941.715210" x2="972.161011" y2="941.715210" style="stroke: green; stroke-width: 0.200000"/>
   <line x1="975.232300" y1="940.715271" x2="973.115906" y2="940.715271" style="stroke: green; stroke-width: 0.200000"/>
   <line x1="975.232300" y1="939.715271" x2="973.766113" y2="939.715271" style="stroke: green; stroke-width: 0.200000"/>
   <line x1="975.232300" y1="938.715271" x2="974.190369" y2="938.715271" style="stroke: green; stroke-width: 0.200000"/>
   <line x1="975.232300" y1="937.715332" x2="974.472961" y2="937.715332" style="stroke: green; stroke-width: 0.200000"/>
   <line x1="976.279236" y1="957.715332" x2="975.332336" y2="957.715332" style="stroke: green; stroke-width: 0.200000"/>
   <line x1="977.268677" y1="956.715210" x2="975.332336" y2="956.715210" style="stroke: green; stroke-width: 0.200000"/>
   <line x1="978.258118" y1="955.715271" x2="975.332336" y2="955.715271" style="stroke: green; stroke-width: 0.200000"/>
   <line x1="979.247498" y1="954.715271" x2="975.332336" y2="954.715271" style="stroke: green; stroke-width: 0.200000"/>
   <line x1="980.236938" y1="953.715271" x2="975.332336" y2="953.715271" style="stroke: green; stroke-width: 0.200000"/>
   <line x1="981.226257" y1="952.715332" x2="975.332336" y2="952.715332" style="stroke: green; stroke-width: 0.200000"/>
   <line x1="982.215698" y1="951.715210" x2="975.332336" y2="951.715210" style="stroke: green; stroke-width: 0.200000"/>
   <line x1="983.159851" y1="950.715271" x2="975.332336" y2="950.715271" style="stroke: green; stroke-width: 0.200000"/>
   <line x1="983.184265" y1="949.715271" x2="975.332336" y2="949.715271" style="stroke: green; stroke-width: 0.200000"/>
   <line x1="982.372070" y1="948.715271" x2="975.332336" y2="948.715271" style="stroke: green; stroke-width: 0.200000"/>
   <line x1="981.449890" y1="947.715332" x2="975.332336" y2="947.715332" style="stroke: green; stroke-width: 0.200000"/>
   <line x1="980.527344" y1="946.715210" x2="975.332336" y2="946.715210" style="stroke: green; stroke-width: 0.200000"/>
   <line x1="979.605042" y1="945.715271" x2="975.332336" y2="945.715271" style="stroke: green; stroke-width: 0.200000"/>
   <line x1="978.682556" y1="944.715271" x2="975.332336" y2="944.715271" style="stroke: green; stroke-width: 0.200000"/>
   <line x1="979.406006" y1="943.715271" x2="975.332336" y2="943.715271" style="stroke: green; stroke-width: 0.200000"/>
   <line x1="978.405884" y1="942.715332" x2="975.332336" y2="942.715332" style="stroke: green; stroke-width: 0.200000"/>
   <line x1="978.049255" y1="941.715210" x2="975.332336" y2="941.715210" style="stroke: green; stroke-width: 0.200000"/>
   <line x1="979.049194" y1="940.715271" x2="975.332336" y2="940.715271" style="stroke: green; stroke-width: 0.200000"/>
   <line x1="980.049194" y1="939.715271" x2="975.332336" y2="939.715271" style="stroke: green; stroke-width: 0.200000"/>
   <line x1="981.049194" y1="938.715271" x2="975.332336" y2="938.715271" style="stroke: green; stroke-width: 0.200000"/>
   <line x1="982.049255" y1="937.715332" x2="975.332336" y2="937.715332" style="stroke: green; stroke-width: 0.200000"/>
   <line x1="882.048950" y1="1037.715332" x2="879.267212" y2="1037.715332" style="stroke: green; stroke-width: 0.200000"/>
   <line x1="883.048950" y1="1036.715210" x2="878.309021" y2="1036.715210" style="stroke: green; stroke-width: 0.200000"/>
   <line x1="884.049011" y1="1035.715210" x2="877.468323" y2="1035.715210" style="stroke: green; stroke-width: 0.200000"/>
   <line x1="885.048950" y1="1034.715332" x2="876.841370" y2="1034.715332" style="stroke: green; stroke-width: 0.200000"/>
   <line x1="886.048950" y1="1033.715332" x2="876.309082" y2="1033.715332" style="stroke: green; stroke-width: 0.200000"/>
   <line x1="887.048950" y1="1032.715332" x2="875.863770" y2="1032.715332" style="stroke: green; stroke-width: 0.200000"/>
   <line x1="888.048950" y1="1031.715210" x2="875.564514" y2="1031.715210" style="stroke: green; stroke-width: 0.200000"/>
   <line x1="889.049011" y1="1030.715210" x2="875.315918" y2="1030.715210" style="stroke: green; stroke-width: 0.200000"/>
   <line x1="890.048950" y1="1029.715332" x2="875.193848" y2="1029.715332" style="stroke: green; stroke-width: 0.200000"/>
   <line x1="891.048950" y1="1028.715332" x2="875.148315" y2="1028.715332" style="stroke: green; stroke-width: 0.200000"/>
   <line x1="892.048950" y1="1027.715332" x2="875.180542" y2="1027.715332" style="stroke: green; stroke-width: 0.200000"/>
   <line x1="893.048950" y1="1026.715210" x2="875.299805" y2="1026.715210" style="stroke: green; stroke-width: 0.200000"/>
   <line x1="894.049011" y1="1025.715210" x2="875.527832" y2="1025.715210" style="stroke: green; stroke-width: 0.200000"/>
   <line x1="895.048950" y1="1024.715332" x2="875.845459" y2="1024.715332" style="stroke: green; stroke-width: 0.200000"/>
   <line x1="896.048950" y1="1023.715271" x2="876.286133" y2="1023.715271" style="stroke: green; stroke-width: 0.200000"/>
   <line x1="897.048950" y1="1022.715332" x2="876.773071" y2="1022.715332" style="stroke: green; stroke-width: 0.200000"/>
   <line x1="898.049011" y1="1021.715210" x2="877.259888" y2="1021.715210" style="stroke: green; stroke-width: 0.200000"/>
   <line x1="899.049011" y1="1020.715271" x2="877.746826" y2="1020.715271" style="stroke: green; stroke-width: 0.200000"/>
   <line x1="900.048950" y1="1019.715271" x2="878.263611" y2="1019.715271" style="stroke: green; stroke-width: 0.200000"/>
   <line x1="901.048950" y1="1018.715271" x2="878.835449" y2="1018.715271" style="stroke: green; stroke-width: 0.200000"/>
   <line x1="902.048950" y1="1017.715332" x2="879.407288" y2="1017.715332" style="stroke: green; stroke-width: 0.200000"/>
   <line x1="903.049011" y1="1016.715210" x2="879.979126" y2="1016.715210" style="stroke: green; stroke-width: 0.200000"/>
   <line x1="904.049011" y1="1015.715271" x2="880.550903" y2="1015.715271" style="stroke: green; stroke-width: 0.200000"/>
   <line x1="905.048950" y1="1014.715271" x2="881.213867" y2="1014.715271" style="stroke: green; stroke-width: 0.200000"/>
   <line x1="906.048950" y1="1013.715271" x2="881.894775" y2="1013.715271" style="stroke: green; stroke-width: 0.200000"/>
   <line x1="907.048950" y1="1012.715332" x2="882.575623" y2="1012.715332" style="stroke: green; stroke-width: 0.200000"/>
   <line x1="908.049011" y1="1011.715210" x2="883.256531" y2="1011.715210" style="stroke: green; stroke-width: 0.200000"/>
   <line x1="909.049011" y1="1010.715271" x2="884.003052" y2="1010.715271" style="stroke: green; stroke-width: 0.200000"/>
   <line x1="910.048950" y1="1009.715271" x2="884.791199" y2="1009.715271" style="stroke: green; stroke-width: 0.200000"/>
   <line x1="911.048950" y1="1008.715271" x2="885.579285" y2="1008.715271" style="stroke: green; stroke-width: 0.200000"/>
   <line x1="912.049011" y1="1007.715332" x2="886.367432" y2="1007.715332" style="stroke: green; stroke-width: 0.200000"/>
   <line x1="913.049011" y1="1006.715210" x2="887.218079" y2="1006.715210" style="stroke: green; stroke-width: 0.200000"/>
   <line x1="914.049011" y1="1005.715271" x2="888.105103" y2="1005.715271" style="stroke: green; stroke-width: 0.200000"/>
   <line x1="915.048950" y1="1004.715271" x2="888.992065" y2="1004.715271" style="stroke: green; stroke-width: 0.200000"/>
   <line x1="916.048950" y1="1003.715271" x2="889.879089" y2="1003.715271" style="stroke: green; stroke-width: 0.200000"/>
   <line x1="917.049011" y1="1002.715332" x2="890.844421" y2="1002.715332" style="stroke: green; stroke-width: 0.200000"/>
   <line x1="918.049011" y1="1001.715210" x2="891.760193" y2="1001.715210" style="stroke: green; stroke-width: 0.200000"/>
   <line x1="919.049011" y1="1000.715271" x2="892.702576" y2="1000.715271" style="stroke: green; stroke-width: 0.200000"/>
   <line x1="920.048950" y1="999.715271" x2="893.692383" y2="999.715271" style="stroke: green; stroke-width: 0.200000"/>
   <line x1="921.048950" y1="998.715271" x2="894.760132" y2="998.715271" style="stroke: green; stroke-width: 0.200000"/>
   <line x1="922.048950" y1="997.715332" x2="895.827881" y2="997.715332" style="stroke: green; stroke-width: 0.200000"/>
   <line x1="923.049072" y1="996.715210" x2="896.895630" y2="996.715210" style="stroke: green; stroke-width: 0.200000"/>
   <line x1="924.049072" y1="995.715271" x2="897.963318" y2="995.715271" style="stroke: green; stroke-width: 0.200000"/>
   <line x1="925.049133" y1="994.715271" x2="899.031067" y2="994.715271" style="stroke: green; stroke-width: 0.200000"/>
   <line x1="925.132385" y1="993.715271" x2="900.106750" y2="993.715271" style="stroke: green; stroke-width: 0.200000"/>
   <line x1="925.132385" y1="992.715332" x2="901.397034" y2="992.715332" style="stroke: green; stroke-width: 0.200000"/>
   <line x1="925.132385" y1="991.715210" x2="902.915527" y2="991.715210" style="stroke: green; stroke-width: 0.200000"/>
   <line x1="925.132385" y1="990.715271" x2="904.742981" y2="990.715271" style="stroke: green; stroke-width: 0.200000"/>
   <line x1="925.132385" y1="989.715271" x2="907.544006" y2="989.715271" style="stroke: green; stroke-width: 0.200000"/>
   <line x1="925.132385" y1="988.715271" x2="912.597107" y2="988.715271" style="stroke: green; stroke-width: 0.200000"/>
   <line x1="939.275208" y1="994.715271" x2="936.566101" y2="994.715271" style="stroke: green; stroke-width: 0.200000"/>
   <line x1="940.283203" y1="993.715271" x2="935.486145" y2="993.715271" style="stroke: green; stroke-width: 0.200000"/>
   <line x1="926.049133" y1="993.715271" x2="925.232300" y2="993.715271" style="stroke: green; stroke-width: 0.200000"/>
   <line x1="941.291260" y1="992.715332" x2="934.406250" y2="992.715332" style="stroke: green; stroke-width: 0.200000"/>
   <line x1="927.049072" y1="992.715332" x2="925.232300" y2="992.715332" style="stroke: green; stroke-width: 0.200000"/>
   <line x1="931.613647" y1="991.715210" x2="930.076660" y2="991.715210" style="stroke: green; stroke-width: 0.200000"/>
   <line x1="942.299255" y1="991.715210" x2="933.326416" y2="991.715210" style="stroke: green; stroke-width: 0.200000"/>
   <line x1="928.049255" y1="991.715210" x2="925.232300" y2="991.715210" style="stroke: green; stroke-width: 0.200000"/>
   <line x1="943.307251" y1="990.715271" x2="929.076477" y2="990.715271" style="stroke: green; stroke-width: 0.200000"/>
   <line x1="929.049316" y1="990.715271" x2="925.232300" y2="990.715271" style="stroke: green; stroke-width: 0.200000"/>
   <line x1="944.315247" y1="989.715271" x2="925.232300" y2="989.715271" style="stroke: green; stroke-width: 0.200000"/>
   <line x1="945.323242" y1="988.715271" x2="925.232300" y2="988.715271" style="stroke: green; stroke-width: 0.200000"/>
   <line x1="880.335022" y1="1038.715332" x2="880.293030" y2="1038.715332" style="stroke: green; stroke-width: 0.200000"/>
   <line x1="946.703247" y1="972.222046" x2="946.697754" y2="972.222046" style="stroke: green; stroke-width: 0.200000"/>
   <path d="M 1123.87  1009.41  1125.7  1012.95  1126.1  1014.15  1126.97  1016.77  1127.66  1020.69  1127.7  1024.58  1127.15  1028.37  1126.62  1030.07  1126.33  1031.13  1126.02  1031.97  1124.36  1035.28  1122.22  1038.22  1121.78  1038.74  1121.17  1039.39  1120.8  1039.82  1114.87  1046.09  1111.82  1048.91  1109.41  1050.62  1106.84  1052.08  1104.12  1053.29  1101.37  1054.36  1100.5  1054.68  1098.27  1055.64  1095.63  1056.7  1090.91  1058.84  1089.58  1059.47  1086.4  1061.15  1082.28  1063.8  1078.49  1066.75  1077.2  1067.91  1074.98  1069.95  1069.97  1075.41  1068.53  1076.94  1062.67  1084.47  1060.02  1088.47  1057.58  1092.66  1057.03  1093.77  1055.25  1097.21  1054.38  1098.81  1052.89  1101.23  1051.21  1103.54  1049.31  1105.69  1045.84  1109.66  1044.92  1110.57  1043.85  1111.52  1042.67  1112.4  1041.4  1113.2  1040.05  1113.91  1038.62  1114.53  1037.11  1115.04  1035.54  1115.45  1033.89  1115.73  1032.2  1115.89  1030.49  1115.93  1028.76  1115.85  1027.03  1115.65  1025.31  1115.32  1023.6  1114.84  1021.97  1114.28  1019.6  1113.39  1018.81  1113.08  1023.48  1108.41  1025.14  1109.54  1035.46  1099.22  1034.06  1097.82  1084.85  1047.04  1086.25  1048.44  1120.51  1014.17  1120.09  1013.54  1119.53  1012.98  1119.38  1012.5  1123.34  1008.54  1123.87  1009.41  " style="fill: none; stroke: darkmagenta; stroke-width: 0.200000; fill-type: evenodd"  fill-opacity="1.000000" />
   <path d="M 1124.77  1013.35  1125.15  1014.47  1126  1017.01  1126.66  1020.79  1126.7  1024.51  1126.18  1028.15  1125.67  1029.78  1125.37  1030.82  1125.1  1031.58  1123.51  1034.76  1121.43  1037.61  1121.04  1038.07  1120.42  1038.72  1120.05  1039.16  1114.17  1045.37  1111.19  1048.13  1108.87  1049.78  1106.39  1051.19  1103.74  1052.36  1101.01  1053.43  1100.13  1053.76  1097.89  1054.71  1095.24  1055.78  1090.48  1057.93  1089.13  1058.58  1085.9  1060.28  1081.7  1062.98  1077.85  1065.98  1076.52  1067.17  1074.28  1069.25  1069.23  1074.73  1067.77  1076.29  1061.86  1083.89  1059.17  1087.94  1056.7  1092.19  1056.14  1093.32  1054.36  1096.74  1053.52  1098.31  1052.05  1100.67  1050.43  1102.92  1048.56  1105.03  1045.11  1108.98  1044.24  1109.84  1043.22  1110.75  1042.11  1111.58  1040.9  1112.34  1039.62  1113.01  1038.26  1113.6  1036.82  1114.09  1035.33  1114.47  1033.76  1114.74  1032.14  1114.89  1030.5  1114.93  1028.84  1114.86  1027.18  1114.66  1025.54  1114.35  1023.9  1113.89  1022.31  1113.34  1020.6  1112.7  1023.6  1109.7  1025.27  1110.83  1036.88  1099.22  1035.48  1097.82  1084.85  1048.45  1086.25  1049.85  1121.8  1014.3  1120.68  1012.62  1123.14  1010.16  1124.77  1013.35  " style="fill: none; stroke: black; stroke-width: 0.200000; fill-type: evenodd"  fill-opacity="1.000000" />
   <path d="M 1016.31  886.067  1017.51  886.1  1019.01  886.275  1020.51  886.602  1021.98  887.048  1023.41  887.621  1024.8  888.316  1026.13  889.129  1027.39  890.052  1028.58  891.079  1029.68  892.203  1031.37  894.078  1027.95  897.505  1026.16  895.729  979.849  942.037  981.631  943.819  980.729  944.721  984.177  948.46  984.37  948.729  984.5  948.964  984.603  949.202  984.683  949.446  984.742  949.706  984.775  949.966  984.783  950.229  984.766  950.49  984.724  950.749  984.658  951.002  984.567  951.25  984.456  951.481  984.152  951.953  983.938  952.118  983.772  952.275  963.336  972.929  959.767  976.499  939.911  996.197  939.77  996.406  939.51  996.6  939.285  996.737  939.048  996.851  938.799  996.942  938.546  997.008  938.286  997.05  938.023  997.067  937.76  997.059  937.502  997.026  937.243  996.967  936.992  996.885  936.752  996.78  936.522  996.652  936.307  996.502  936.105  996.332  932.477  992.973  930.845  994.605  929.063  992.823  883.273  1038.61  885.054  1040.4  882.354  1043.1  878.751  1039.27  878.192  1038.77  877.617  1038.22  876.28  1036.64  875.214  1034.94  874.403  1033.12  873.867  1031.22  873.63  1029.28  873.691  1027.36  873.831  1026.39  874.04  1025.45  874.375  1024.36  874.665  1023.62  876.735  1019.37  879.372  1014.76  882.31  1010.44  885.506  1006.38  888.914  1002.54  890.001  1001.43  891  1000.32  892.442  998.831  899.072  992.622  899.89  991.97  901.323  990.896  903.863  989.449  906.596  988.378  909.479  987.789  915.338  986.659  921.703  985.277  924.084  984.684  924.709  984.453  925.318  984.145  925.899  983.758  928.654  981.189  931.924  978.776  934.051  977.512  935.478  976.693  937.146  975.805  939.159  974.781  940.242  974.186  942.786  972.852  943.709  972.262  944.823  971.632  946.226  970.747  947.887  969.612  949.465  968.444  952.478  965.903  953.506  964.833  955.244  963.101  956.664  961.446  957.798  960.088  960.115  956.83  960.474  956.185  962.19  953.28  962.957  951.894  966.327  946.053  968.826  942.817  971.378  940.391  971.868  939.88  972.248  939.37  972.564  938.785  972.801  938.148  974.43  932.154  975.886  925.44  976.669  921.073  976.995  919.77  977.392  918.37  977.67  917.596  978.156  916.406  978.48  915.673  978.85  914.972  979.522  913.824  979.94  913.155  981.04  911.722  981.712  910.879  987.839  904.462  994.52  898.288  996.078  897.001  998.091  895.406  1001.74  892.622  1006.33  889.423  1007.75  888.547  1009.87  887.423  1010.23  887.259  1011.62  886.765  1013.06  886.4  1014.53  886.164  1016.01  886.061  1016.31  886.067  " style="fill: none; stroke: darkmagenta; stroke-width: 0.200000; fill-type: evenodd"  fill-opacity="1.000000" />
   <path d="M 1016.29  887.067  1017.44  887.098  1018.85  887.262  1020.26  887.57  1021.65  887.992  1023  888.534  1024.31  889.191  1025.57  889.961  1026.77  890.836  1027.9  891.809  1028.96  892.888  1029.99  894.042  1027.94  896.093  1026.15  894.318  978.434  942.037  980.217  943.819  979.342  944.693  983.4  949.092  983.523  949.265  983.601  949.406  983.667  949.558  983.718  949.712  983.756  949.88  983.777  950.045  983.782  950.212  983.771  950.378  983.744  950.543  983.703  950.702  983.645  950.86  983.582  950.992  983.405  951.266  983.287  951.357  983.072  951.56  962.627  972.224  959.061  975.791  939.138  995.556  939.022  995.727  938.808  995.856  938.657  995.929  938.5  995.987  938.339  996.029  938.174  996.055  938.007  996.066  937.839  996.061  937.676  996.04  937.509  996.003  937.35  995.95  937.198  995.883  937.051  995.802  936.915  995.707  936.767  995.583  932.45  991.585  930.845  993.191  929.063  991.408  881.86  1038.61  883.64  1040.4  882.376  1041.66  879.45  1038.55  878.87  1038.03  878.345  1037.53  877.089  1036.05  876.099  1034.47  875.346  1032.78  874.85  1031.02  874.631  1029.23  874.689  1027.45  874.815  1026.57  875.007  1025.71  875.32  1024.69  875.581  1024.02  877.62  1019.83  880.221  1015.29  883.117  1011.03  886.274  1007.03  889.646  1003.23  890.732  1002.12  891.732  1001  893.143  999.545  899.727  993.379  900.502  992.762  901.872  991.734  904.296  990.354  906.88  989.341  909.674  988.77  915.539  987.638  921.93  986.251  924.379  985.641  925.109  985.372  925.823  985.01  926.522  984.545  929.294  981.959  932.477  979.61  934.556  978.375  935.962  977.568  937.608  976.692  939.627  975.665  940.715  975.067  943.289  973.717  944.225  973.119  945.337  972.49  946.775  971.583  948.466  970.427  950.085  969.229  953.163  966.633  954.22  965.534  955.978  963.782  957.427  962.092  958.59  960.699  960.961  957.364  961.341  956.682  963.058  953.777  963.828  952.386  967.16  946.611  969.57  943.489  972.083  941.1  972.632  940.528  973.094  939.909  973.477  939.199  973.755  938.454  975.401  932.391  976.867  925.634  977.647  921.282  977.961  920.028  978.345  918.676  978.604  917.954  979.077  916.797  979.38  916.109  979.724  915.459  980.378  914.342  980.763  913.726  981.828  912.338  982.466  911.537  988.541  905.176  995.179  899.042  996.707  897.778  998.704  896.196  1002.33  893.43  1006.88  890.26  1008.25  889.415  1010.32  888.32  1010.61  888.186  1011.91  887.723  1013.26  887.38  1014.64  887.159  1016.04  887.062  1016.29  887.067  " style="fill: none; stroke: black; stroke-width: 0.200000; fill-type: evenodd"  fill-opacity="1.000000" />
   <path d="M 882.66  1040.67  880.906  1038.86  " style="fill: none; stroke: grey; stroke-width: 0.200000; fill-type: evenodd"  fill-opacity="1.000000" />
   <path d="M 1028.98  893.667  1027.6  895.048  " style="fill: none; stroke: grey; stroke-width: 0.200000; fill-type: evenodd"  fill-opacity="1.000000" />
</svg>
