<?xml version="1.0" encoding="UTF-8" standalone="yes"?>
<!DOCTYPE svg PUBLIC "-//W3C//DTD SVG 1.0//EN" "http://www.w3.org/TR/2001/REC-SVG-20010904/DTD/svg10.dtd">
<svg height="2000" width="2000" xmlns="http://www.w3.org/2000/svg" xmlns:svg="http://www.w3.org/2000/svg" xmlns:xlink="http://www.w3.org/1999/xlink">
   <marker id="endArrow" markerHeight="8" markerUnits="strokeWidth" markerWidth="10" orient="auto" refX="1" refY="5" viewBox="0 0 1000 1000">
      <polyline fill="darkblue" points="0,0 10,5 0,10 1,5" />
   </marker>
   <circle cx="1000" cy="1000" r="1" style="stroke:black; fill: red" />
   <circle cx="1000" cy="1000" r="800" style="stroke:black; fill: none" />
   <line x1="1073.667114" y1="1079.600464" x2="1067.069824" y2="1079.600464" style="stroke: green; stroke-width: 0.200000"/>
   <line x1="1074.640503" y1="1078.600342" x2="1068.069824" y2="1078.600342" style="stroke: green; stroke-width: 0.200000"/>
   <line x1="1075.613892" y1="1077.600342" x2="1069.069824" y2="1077.600342" style="stroke: green; stroke-width: 0.200000"/>
   <line x1="1076.608276" y1="1076.600464" x2="1070.069824" y2="1076.600464" style="stroke: green; stroke-width: 0.200000"/>
   <line x1="1072.062256" y1="1075.600464" x2="1071.069824" y2="1075.600464" style="stroke: green; stroke-width: 0.200000"/>
   <line x1="1077.614990" y1="1075.600464" x2="1073.865601" y2="1075.600464" style="stroke: green; stroke-width: 0.200000"/>
   <line x1="1078.621826" y1="1074.600464" x2="1074.865601" y2="1074.600464" style="stroke: green; stroke-width: 0.200000"/>
   <line x1="1079.618408" y1="1073.600342" x2="1075.865601" y2="1073.600342" style="stroke: green; stroke-width: 0.200000"/>
   <line x1="1080.606445" y1="1072.600342" x2="1076.865723" y2="1072.600342" style="stroke: green; stroke-width: 0.200000"/>
   <line x1="1081.594360" y1="1071.600464" x2="1077.865723" y2="1071.600464" style="stroke: green; stroke-width: 0.200000"/>
   <line x1="1082.669312" y1="1070.600464" x2="1078.865723" y2="1070.600464" style="stroke: green; stroke-width: 0.200000"/>
   <line x1="1083.744995" y1="1069.600464" x2="1079.865723" y2="1069.600464" style="stroke: green; stroke-width: 0.200000"/>
   <line x1="1084.787598" y1="1068.600342" x2="1080.865723" y2="1068.600342" style="stroke: green; stroke-width: 0.200000"/>
   <line x1="1085.814331" y1="1067.600342" x2="1081.865723" y2="1067.600342" style="stroke: green; stroke-width: 0.200000"/>
   <line x1="1086.841064" y1="1066.600464" x2="1082.865723" y2="1066.600464" style="stroke: green; stroke-width: 0.200000"/>
   <line x1="1087.867676" y1="1065.600464" x2="1083.865723" y2="1065.600464" style="stroke: green; stroke-width: 0.200000"/>
   <line x1="1088.894409" y1="1064.600464" x2="1084.865723" y2="1064.600464" style="stroke: green; stroke-width: 0.200000"/>
   <line x1="1089.947632" y1="1063.600342" x2="1085.865723" y2="1063.600342" style="stroke: green; stroke-width: 0.200000"/>
   <line x1="1091.006958" y1="1062.600342" x2="1086.865723" y2="1062.600342" style="stroke: green; stroke-width: 0.200000"/>
   <line x1="1092.066406" y1="1061.600464" x2="1087.865723" y2="1061.600464" style="stroke: green; stroke-width: 0.200000"/>
   <line x1="1093.125732" y1="1060.600464" x2="1088.865723" y2="1060.600464" style="stroke: green; stroke-width: 0.200000"/>
   <line x1="1094.168823" y1="1059.600464" x2="1089.865723" y2="1059.600464" style="stroke: green; stroke-width: 0.200000"/>
   <line x1="1095.178833" y1="1058.600342" x2="1090.865723" y2="1058.600342" style="stroke: green; stroke-width: 0.200000"/>
   <line x1="1096.230591" y1="1057.600342" x2="1091.865723" y2="1057.600342" style="stroke: green; stroke-width: 0.200000"/>
   <line x1="1097.250854" y1="1056.600464" x2="1092.865723" y2="1056.600464" style="stroke: green; stroke-width: 0.200000"/>
   <line x1="1098.271118" y1="1055.600464" x2="1093.865723" y2="1055.600464" style="stroke: green; stroke-width: 0.200000"/>
   <line x1="1099.291382" y1="1054.600464" x2="1094.865845" y2="1054.600464" style="stroke: green; stroke-width: 0.200000"/>
   <line x1="1100.311523" y1="1053.600342" x2="1095.865723" y2="1053.600342" style="stroke: green; stroke-width: 0.200000"/>
   <line x1="1101.445679" y1="1052.600342" x2="1096.865723" y2="1052.600342" style="stroke: green; stroke-width: 0.200000"/>
   <line x1="1102.527588" y1="1051.600464" x2="1097.865723" y2="1051.600464" style="stroke: green; stroke-width: 0.200000"/>
   <line x1="1103.650513" y1="1050.600464" x2="1098.865845" y2="1050.600464" style="stroke: green; stroke-width: 0.200000"/>
   <line x1="1104.852173" y1="1049.600464" x2="1099.865845" y2="1049.600464" style="stroke: green; stroke-width: 0.200000"/>
   <line x1="1105.918213" y1="1048.600342" x2="1100.865723" y2="1048.600342" style="stroke: green; stroke-width: 0.200000"/>
   <line x1="1107.014404" y1="1047.600342" x2="1101.865723" y2="1047.600342" style="stroke: green; stroke-width: 0.200000"/>
   <line x1="1108.137939" y1="1046.600464" x2="1102.865723" y2="1046.600464" style="stroke: green; stroke-width: 0.200000"/>
   <line x1="1109.458862" y1="1045.600464" x2="1103.865845" y2="1045.600464" style="stroke: green; stroke-width: 0.200000"/>
   <line x1="1110.737427" y1="1044.600464" x2="1104.865845" y2="1044.600464" style="stroke: green; stroke-width: 0.200000"/>
   <line x1="1112.032471" y1="1043.600342" x2="1105.865723" y2="1043.600342" style="stroke: green; stroke-width: 0.200000"/>
   <line x1="1113.291748" y1="1042.600342" x2="1106.865723" y2="1042.600342" style="stroke: green; stroke-width: 0.200000"/>
   <line x1="1114.533936" y1="1041.600464" x2="1107.865723" y2="1041.600464" style="stroke: green; stroke-width: 0.200000"/>
   <line x1="1115.580933" y1="1040.600464" x2="1108.865845" y2="1040.600464" style="stroke: green; stroke-width: 0.200000"/>
   <line x1="1115.580933" y1="1039.600464" x2="1109.865845" y2="1039.600464" style="stroke: green; stroke-width: 0.200000"/>
   <line x1="1115.580933" y1="1038.600342" x2="1110.865723" y2="1038.600342" style="stroke: green; stroke-width: 0.200000"/>
   <line x1="1115.580933" y1="1037.600342" x2="1111.865723" y2="1037.600342" style="stroke: green; stroke-width: 0.200000"/>
   <line x1="1115.580933" y1="1036.600464" x2="1112.865845" y2="1036.600464" style="stroke: green; stroke-width: 0.200000"/>
   <line x1="1115.580933" y1="1035.600464" x2="1113.865845" y2="1035.600464" style="stroke: green; stroke-width: 0.200000"/>
   <line x1="1115.580933" y1="1034.600464" x2="1114.864990" y2="1034.600464" style="stroke: green; stroke-width: 0.200000"/>
   <line x1="1115.580933" y1="1033.600342" x2="1114.910767" y2="1033.600342" style="stroke: green; stroke-width: 0.200000"/>
   <line x1="1115.580933" y1="1032.600342" x2="1114.370117" y2="1032.600342" style="stroke: green; stroke-width: 0.200000"/>
   <line x1="1115.580933" y1="1031.600464" x2="1115.069946" y2="1031.600464" style="stroke: green; stroke-width: 0.200000"/>
   <line x1="1115.684570" y1="1040.600464" x2="1115.680908" y2="1040.600464" style="stroke: green; stroke-width: 0.200000"/>
   <line x1="1116.783691" y1="1039.600464" x2="1115.680908" y2="1039.600464" style="stroke: green; stroke-width: 0.200000"/>
   <line x1="1117.595093" y1="1038.600342" x2="1115.680908" y2="1038.600342" style="stroke: green; stroke-width: 0.200000"/>
   <line x1="1118.126099" y1="1037.600342" x2="1115.680908" y2="1037.600342" style="stroke: green; stroke-width: 0.200000"/>
   <line x1="1118.450928" y1="1036.600464" x2="1115.680908" y2="1036.600464" style="stroke: green; stroke-width: 0.200000"/>
   <line x1="1118.580566" y1="1035.600464" x2="1115.680908" y2="1035.600464" style="stroke: green; stroke-width: 0.200000"/>
   <line x1="1118.533569" y1="1034.600464" x2="1115.680908" y2="1034.600464" style="stroke: green; stroke-width: 0.200000"/>
   <line x1="1118.299316" y1="1033.600342" x2="1115.680908" y2="1033.600342" style="stroke: green; stroke-width: 0.200000"/>
   <line x1="1117.883545" y1="1032.600342" x2="1115.680908" y2="1032.600342" style="stroke: green; stroke-width: 0.200000"/>
   <line x1="1117.317749" y1="1031.600464" x2="1115.680908" y2="1031.600464" style="stroke: green; stroke-width: 0.200000"/>
   <line x1="1116.713013" y1="1030.600464" x2="1116.069946" y2="1030.600464" style="stroke: green; stroke-width: 0.200000"/>
   <line x1="1070.683716" y1="1082.600342" x2="1067.074219" y2="1082.600342" style="stroke: green; stroke-width: 0.200000"/>
   <line x1="1071.827637" y1="1081.600464" x2="1066.086060" y2="1081.600464" style="stroke: green; stroke-width: 0.200000"/>
   <line x1="1072.739502" y1="1080.600464" x2="1066.069824" y2="1080.600464" style="stroke: green; stroke-width: 0.200000"/>
   <path d="M 1112.48  1032.07  1116.86  1027.68  1117.22  1028.32  1118.11  1030.02  1118.29  1030.36  1118.43  1030.52  1119.24  1031.96  1119.34  1032.18  1119.72  1033.1  1119.89  1033.71  1120.01  1034.31  1120.08  1034.92  1120.09  1035.54  1120.05  1036.16  1119.95  1036.77  1119.81  1037.37  1119.61  1037.97  1119.08  1039.09  1118.4  1040.08  1117.57  1040.95  1115.43  1042.81  1113.26  1044.55  1111.73  1045.73  1110.8  1046.49  1109.59  1047.34  1109.14  1047.72  1107.44  1049.23  1105.39  1051.15  1104.19  1052.08  1102.8  1053.43  1101.69  1054.35  1097.03  1058.92  1096.67  1059.23  1094.88  1061.01  1090.13  1065.49  1085.13  1070.36  1082.65  1072.67  1080.15  1075.19  1077.05  1078.28  1074.51  1080.88  1072.91  1082.64  1072.58  1082.99  1072.25  1083.3  1071.92  1083.57  1071.2  1084.07  1070.41  1084.46  1069.57  1084.74  1069  1084.84  1068.74  1084.88  1067.92  1084.84  1067.22  1084.64  1066.6  1084.26  1063.47  1081.08  1068.96  1075.59  " style="fill: none; stroke: darkmagenta; stroke-width: 0.200000; fill-type: evenodd"  fill-opacity="1.000000" />
   <path d="M 1068.96  1075.59  1070.78  1073.77  1071.61  1073.95  " style="fill: none; stroke: red; stroke-width: 0.200000; fill-type: evenodd"  fill-opacity="1.000000" />
   <path d="M 1071.61  1073.95  1072.01  1074.04  1073.04  1074.3  1113.4  1033.95  1112.77  1032.79  " style="fill: none; stroke: darkmagenta; stroke-width: 0.200000; fill-type: evenodd"  fill-opacity="1.000000" />
   <path d="M 1112.77  1032.79  1112.41  1032.14  1112.48  1032.07  " style="fill: none; stroke: red; stroke-width: 0.200000; fill-type: evenodd"  fill-opacity="1.000000" />
   <path d="M 1117.23  1030.5  1117.47  1030.93  1117.61  1031.1  1118.35  1032.4  1118.42  1032.57  1118.77  1033.43  1118.92  1033.94  1119.02  1034.46  1119.08  1034.98  1119.09  1035.52  1119.05  1036.05  1118.97  1036.58  1118.85  1037.1  1118.68  1037.6  1118.21  1038.59  1117.62  1039.45  1116.88  1040.22  1114.79  1042.04  1112.64  1043.76  1111.1  1044.95  1110.2  1045.69  1108.98  1046.55  1108.48  1046.96  1106.76  1048.49  1104.74  1050.39  1103.54  1051.32  1102.13  1052.68  1101.02  1053.6  1096.35  1058.19  1095.99  1058.5  1094.19  1060.29  1089.43  1064.77  1084.44  1069.64  1081.95  1071.95  1079.45  1074.49  1076.33  1077.58  1073.78  1080.2  1072.18  1081.95  1071.88  1082.28  1071.59  1082.55  1071.32  1082.77  1070.69  1083.2  1070.02  1083.54  1069.33  1083.77  1068.85  1083.85  1068.7  1083.87  1068.08  1083.84  1067.63  1083.72  1067.23  1083.47  1064.88  1081.09  1071.1  1074.86  1071.77  1075.01  1073.35  1075.41  1114.63  1034.13  1113.65  1032.32  1116.62  1029.34  1117.23  1030.5  " style="fill: none; stroke: black; stroke-width: 0.200000; fill-type: evenodd"  fill-opacity="1.000000" />
</svg>
