<?xml version="1.0" encoding="UTF-8" standalone="yes"?>
<!DOCTYPE svg PUBLIC "-//W3C//DTD SVG 1.0//EN" "http://www.w3.org/TR/2001/REC-SVG-20010904/DTD/svg10.dtd">
<svg height="2000" width="2000" xmlns="http://www.w3.org/2000/svg" xmlns:svg="http://www.w3.org/2000/svg" xmlns:xlink="http://www.w3.org/1999/xlink">
   <marker id="endArrow" markerHeight="8" markerUnits="strokeWidth" markerWidth="10" orient="auto" refX="1" refY="5" viewBox="0 0 1000 1000">
      <polyline fill="darkblue" points="0,0 10,5 0,10 1,5" />
   </marker>
   <circle cx="1000" cy="1000" r="1" style="stroke:black; fill: red" />
   <circle cx="1000" cy="1000" r="800" style="stroke:black; fill: none" />
   <line x1="658.012329" y1="951.465149" x2="658.012329" y2="956.173401" style="stroke: green; stroke-width: 0.200000"/>
   <line x1="672.012329" y1="949.927246" x2="672.012329" y2="956.173401" style="stroke: green; stroke-width: 0.200000"/>
   <line x1="671.012268" y1="950.035095" x2="671.012268" y2="956.173401" style="stroke: green; stroke-width: 0.200000"/>
   <line x1="670.012268" y1="950.142944" x2="670.012268" y2="956.173401" style="stroke: green; stroke-width: 0.200000"/>
   <line x1="669.012329" y1="950.250916" x2="669.012329" y2="956.173401" style="stroke: green; stroke-width: 0.200000"/>
   <line x1="668.012329" y1="950.358826" x2="668.012329" y2="956.173401" style="stroke: green; stroke-width: 0.200000"/>
   <line x1="667.012329" y1="950.466675" x2="667.012329" y2="956.173401" style="stroke: green; stroke-width: 0.200000"/>
   <line x1="666.012268" y1="950.574585" x2="666.012268" y2="956.173401" style="stroke: green; stroke-width: 0.200000"/>
   <line x1="665.012268" y1="950.682434" x2="665.012268" y2="956.173401" style="stroke: green; stroke-width: 0.200000"/>
   <line x1="664.012329" y1="950.790405" x2="664.012329" y2="956.173401" style="stroke: green; stroke-width: 0.200000"/>
   <line x1="663.012329" y1="950.898315" x2="663.012329" y2="956.173401" style="stroke: green; stroke-width: 0.200000"/>
   <line x1="662.012329" y1="951.006165" x2="662.012329" y2="956.173401" style="stroke: green; stroke-width: 0.200000"/>
   <line x1="661.012268" y1="951.114014" x2="661.012268" y2="956.173401" style="stroke: green; stroke-width: 0.200000"/>
   <line x1="660.012268" y1="951.221924" x2="660.012268" y2="956.173401" style="stroke: green; stroke-width: 0.200000"/>
   <line x1="659.012329" y1="951.329834" x2="659.012329" y2="956.173401" style="stroke: green; stroke-width: 0.200000"/>
   <line x1="673.012329" y1="949.819336" x2="673.012329" y2="956.173401" style="stroke: green; stroke-width: 0.200000"/>
   <line x1="657.012329" y1="951.645996" x2="657.012329" y2="956.173401" style="stroke: green; stroke-width: 0.200000"/>
   <line x1="656.012268" y1="951.826782" x2="656.012268" y2="956.173401" style="stroke: green; stroke-width: 0.200000"/>
   <line x1="655.012268" y1="952.007568" x2="655.012268" y2="956.173401" style="stroke: green; stroke-width: 0.200000"/>
   <line x1="654.012329" y1="952.188416" x2="654.012329" y2="956.173401" style="stroke: green; stroke-width: 0.200000"/>
   <line x1="653.012329" y1="952.369263" x2="653.012329" y2="956.173401" style="stroke: green; stroke-width: 0.200000"/>
   <line x1="652.012329" y1="952.550049" x2="652.012329" y2="956.173401" style="stroke: green; stroke-width: 0.200000"/>
   <line x1="651.012268" y1="952.730835" x2="651.012268" y2="956.173401" style="stroke: green; stroke-width: 0.200000"/>
   <line x1="650.012268" y1="952.911682" x2="650.012268" y2="956.173401" style="stroke: green; stroke-width: 0.200000"/>
   <line x1="649.012329" y1="953.092529" x2="649.012329" y2="956.173401" style="stroke: green; stroke-width: 0.200000"/>
   <line x1="648.012329" y1="953.273315" x2="648.012329" y2="956.173401" style="stroke: green; stroke-width: 0.200000"/>
   <line x1="647.012329" y1="953.454102" x2="647.012329" y2="956.173401" style="stroke: green; stroke-width: 0.200000"/>
   <line x1="646.012268" y1="953.634949" x2="646.012268" y2="956.173401" style="stroke: green; stroke-width: 0.200000"/>
   <line x1="645.012268" y1="953.815796" x2="645.012268" y2="956.173401" style="stroke: green; stroke-width: 0.200000"/>
   <line x1="644.012329" y1="953.996582" x2="644.012329" y2="956.173401" style="stroke: green; stroke-width: 0.200000"/>
   <line x1="688.012329" y1="948.748108" x2="688.012329" y2="956.173401" style="stroke: green; stroke-width: 0.200000"/>
   <line x1="692.012329" y1="948.604675" x2="692.012329" y2="956.173401" style="stroke: green; stroke-width: 0.200000"/>
   <line x1="691.012268" y1="948.640503" x2="691.012268" y2="956.173401" style="stroke: green; stroke-width: 0.200000"/>
   <line x1="690.012268" y1="948.676392" x2="690.012268" y2="956.173401" style="stroke: green; stroke-width: 0.200000"/>
   <line x1="689.012329" y1="948.712219" x2="689.012329" y2="956.173401" style="stroke: green; stroke-width: 0.200000"/>
   <line x1="643.012329" y1="954.177368" x2="643.012329" y2="956.173401" style="stroke: green; stroke-width: 0.200000"/>
   <line x1="687.012329" y1="948.784058" x2="687.012329" y2="956.173401" style="stroke: green; stroke-width: 0.200000"/>
   <line x1="686.012268" y1="948.819885" x2="686.012268" y2="956.173401" style="stroke: green; stroke-width: 0.200000"/>
   <line x1="685.012268" y1="948.855713" x2="685.012268" y2="956.173401" style="stroke: green; stroke-width: 0.200000"/>
   <line x1="684.012329" y1="948.891602" x2="684.012329" y2="956.173401" style="stroke: green; stroke-width: 0.200000"/>
   <line x1="683.012329" y1="948.927490" x2="683.012329" y2="956.173401" style="stroke: green; stroke-width: 0.200000"/>
   <line x1="682.012329" y1="948.963318" x2="682.012329" y2="956.173401" style="stroke: green; stroke-width: 0.200000"/>
   <line x1="681.012268" y1="948.999146" x2="681.012268" y2="956.173401" style="stroke: green; stroke-width: 0.200000"/>
   <line x1="680.012268" y1="949.064087" x2="680.012268" y2="956.173401" style="stroke: green; stroke-width: 0.200000"/>
   <line x1="679.012329" y1="949.171997" x2="679.012329" y2="956.173401" style="stroke: green; stroke-width: 0.200000"/>
   <line x1="678.012329" y1="949.279846" x2="678.012329" y2="956.173401" style="stroke: green; stroke-width: 0.200000"/>
   <line x1="677.012329" y1="949.387756" x2="677.012329" y2="956.173401" style="stroke: green; stroke-width: 0.200000"/>
   <line x1="676.012268" y1="949.495605" x2="676.012268" y2="956.173401" style="stroke: green; stroke-width: 0.200000"/>
   <line x1="675.012268" y1="949.603516" x2="675.012268" y2="956.173401" style="stroke: green; stroke-width: 0.200000"/>
   <line x1="674.012329" y1="949.711426" x2="674.012329" y2="956.173401" style="stroke: green; stroke-width: 0.200000"/>
   <line x1="732.012329" y1="949.815186" x2="732.012329" y2="956.173401" style="stroke: green; stroke-width: 0.200000"/>
   <line x1="704.012329" y1="948.280518" x2="704.012329" y2="956.173401" style="stroke: green; stroke-width: 0.200000"/>
   <line x1="731.012268" y1="949.707336" x2="731.012268" y2="956.173401" style="stroke: green; stroke-width: 0.200000"/>
   <line x1="730.012268" y1="949.599487" x2="730.012268" y2="956.173401" style="stroke: green; stroke-width: 0.200000"/>
   <line x1="729.012329" y1="949.491577" x2="729.012329" y2="956.173401" style="stroke: green; stroke-width: 0.200000"/>
   <line x1="728.012329" y1="949.383606" x2="728.012329" y2="956.173401" style="stroke: green; stroke-width: 0.200000"/>
   <line x1="727.012329" y1="949.275757" x2="727.012329" y2="956.173401" style="stroke: green; stroke-width: 0.200000"/>
   <line x1="726.012268" y1="949.167847" x2="726.012268" y2="956.173401" style="stroke: green; stroke-width: 0.200000"/>
   <line x1="725.012268" y1="949.059998" x2="725.012268" y2="956.173401" style="stroke: green; stroke-width: 0.200000"/>
   <line x1="724.012329" y1="948.997803" x2="724.012329" y2="956.173401" style="stroke: green; stroke-width: 0.200000"/>
   <line x1="723.012329" y1="948.961914" x2="723.012329" y2="956.173401" style="stroke: green; stroke-width: 0.200000"/>
   <line x1="722.012329" y1="948.926086" x2="722.012329" y2="956.173401" style="stroke: green; stroke-width: 0.200000"/>
   <line x1="721.012268" y1="948.890259" x2="721.012268" y2="956.173401" style="stroke: green; stroke-width: 0.200000"/>
   <line x1="720.012268" y1="948.854370" x2="720.012268" y2="956.173401" style="stroke: green; stroke-width: 0.200000"/>
   <line x1="719.012329" y1="948.818481" x2="719.012329" y2="956.173401" style="stroke: green; stroke-width: 0.200000"/>
   <line x1="718.012329" y1="948.782654" x2="718.012329" y2="956.173401" style="stroke: green; stroke-width: 0.200000"/>
   <line x1="717.012329" y1="948.746826" x2="717.012329" y2="956.173401" style="stroke: green; stroke-width: 0.200000"/>
   <line x1="716.012268" y1="948.710938" x2="716.012268" y2="956.173401" style="stroke: green; stroke-width: 0.200000"/>
   <line x1="715.012268" y1="948.674988" x2="715.012268" y2="956.173401" style="stroke: green; stroke-width: 0.200000"/>
   <line x1="714.012329" y1="948.639160" x2="714.012329" y2="956.173401" style="stroke: green; stroke-width: 0.200000"/>
   <line x1="713.012329" y1="948.603271" x2="713.012329" y2="956.173401" style="stroke: green; stroke-width: 0.200000"/>
   <line x1="712.012329" y1="948.567444" x2="712.012329" y2="956.173401" style="stroke: green; stroke-width: 0.200000"/>
   <line x1="711.012268" y1="948.531555" x2="711.012268" y2="956.173401" style="stroke: green; stroke-width: 0.200000"/>
   <line x1="710.012268" y1="948.495728" x2="710.012268" y2="956.173401" style="stroke: green; stroke-width: 0.200000"/>
   <line x1="709.012329" y1="948.459839" x2="709.012329" y2="956.173401" style="stroke: green; stroke-width: 0.200000"/>
   <line x1="708.012329" y1="948.424011" x2="708.012329" y2="956.173401" style="stroke: green; stroke-width: 0.200000"/>
   <line x1="707.012329" y1="948.388123" x2="707.012329" y2="956.173401" style="stroke: green; stroke-width: 0.200000"/>
   <line x1="706.012268" y1="948.352173" x2="706.012268" y2="956.173401" style="stroke: green; stroke-width: 0.200000"/>
   <line x1="705.012268" y1="948.316345" x2="705.012268" y2="956.173401" style="stroke: green; stroke-width: 0.200000"/>
   <line x1="703.012329" y1="948.244629" x2="703.012329" y2="956.173401" style="stroke: green; stroke-width: 0.200000"/>
   <line x1="733.012329" y1="949.923096" x2="733.012329" y2="956.173401" style="stroke: green; stroke-width: 0.200000"/>
   <line x1="742.012329" y1="950.894165" x2="742.012329" y2="956.173401" style="stroke: green; stroke-width: 0.200000"/>
   <line x1="741.012268" y1="950.786255" x2="741.012268" y2="956.173401" style="stroke: green; stroke-width: 0.200000"/>
   <line x1="740.012268" y1="950.678406" x2="740.012268" y2="956.173401" style="stroke: green; stroke-width: 0.200000"/>
   <line x1="739.012329" y1="950.570435" x2="739.012329" y2="956.173401" style="stroke: green; stroke-width: 0.200000"/>
   <line x1="738.012329" y1="950.462585" x2="738.012329" y2="956.173401" style="stroke: green; stroke-width: 0.200000"/>
   <line x1="737.012329" y1="950.354675" x2="737.012329" y2="956.173401" style="stroke: green; stroke-width: 0.200000"/>
   <line x1="736.012268" y1="950.246826" x2="736.012268" y2="956.173401" style="stroke: green; stroke-width: 0.200000"/>
   <line x1="735.012268" y1="950.138916" x2="735.012268" y2="956.173401" style="stroke: green; stroke-width: 0.200000"/>
   <line x1="734.012329" y1="950.031006" x2="734.012329" y2="956.173401" style="stroke: green; stroke-width: 0.200000"/>
   <line x1="702.012329" y1="948.245972" x2="702.012329" y2="956.173401" style="stroke: green; stroke-width: 0.200000"/>
   <line x1="701.012268" y1="948.281860" x2="701.012268" y2="956.173401" style="stroke: green; stroke-width: 0.200000"/>
   <line x1="700.012268" y1="948.317749" x2="700.012268" y2="956.173401" style="stroke: green; stroke-width: 0.200000"/>
   <line x1="699.012329" y1="948.353577" x2="699.012329" y2="956.173401" style="stroke: green; stroke-width: 0.200000"/>
   <line x1="698.012329" y1="948.389404" x2="698.012329" y2="956.173401" style="stroke: green; stroke-width: 0.200000"/>
   <line x1="697.012329" y1="948.425293" x2="697.012329" y2="956.173401" style="stroke: green; stroke-width: 0.200000"/>
   <line x1="696.012268" y1="948.461243" x2="696.012268" y2="956.173401" style="stroke: green; stroke-width: 0.200000"/>
   <line x1="695.012268" y1="948.497070" x2="695.012268" y2="956.173401" style="stroke: green; stroke-width: 0.200000"/>
   <line x1="694.012329" y1="948.532959" x2="694.012329" y2="956.173401" style="stroke: green; stroke-width: 0.200000"/>
   <line x1="693.012329" y1="948.568787" x2="693.012329" y2="956.173401" style="stroke: green; stroke-width: 0.200000"/>
   <line x1="748.012329" y1="951.639099" x2="748.012329" y2="956.173401" style="stroke: green; stroke-width: 0.200000"/>
   <line x1="762.012329" y1="954.170532" x2="762.012329" y2="956.173401" style="stroke: green; stroke-width: 0.200000"/>
   <line x1="761.012268" y1="953.989746" x2="761.012268" y2="956.173401" style="stroke: green; stroke-width: 0.200000"/>
   <line x1="760.012268" y1="953.808899" x2="760.012268" y2="956.173401" style="stroke: green; stroke-width: 0.200000"/>
   <line x1="759.012329" y1="953.628052" x2="759.012329" y2="956.173401" style="stroke: green; stroke-width: 0.200000"/>
   <line x1="758.012329" y1="953.447266" x2="758.012329" y2="956.173401" style="stroke: green; stroke-width: 0.200000"/>
   <line x1="757.012329" y1="953.266479" x2="757.012329" y2="956.173401" style="stroke: green; stroke-width: 0.200000"/>
   <line x1="756.012268" y1="953.085632" x2="756.012268" y2="956.173401" style="stroke: green; stroke-width: 0.200000"/>
   <line x1="755.012268" y1="952.904785" x2="755.012268" y2="956.173401" style="stroke: green; stroke-width: 0.200000"/>
   <line x1="754.012329" y1="952.723999" x2="754.012329" y2="956.173401" style="stroke: green; stroke-width: 0.200000"/>
   <line x1="753.012329" y1="952.543213" x2="753.012329" y2="956.173401" style="stroke: green; stroke-width: 0.200000"/>
   <line x1="752.012329" y1="952.362366" x2="752.012329" y2="956.173401" style="stroke: green; stroke-width: 0.200000"/>
   <line x1="751.012268" y1="952.181519" x2="751.012268" y2="956.173401" style="stroke: green; stroke-width: 0.200000"/>
   <line x1="750.012268" y1="952.000732" x2="750.012268" y2="956.173401" style="stroke: green; stroke-width: 0.200000"/>
   <line x1="749.012329" y1="951.819946" x2="749.012329" y2="956.173401" style="stroke: green; stroke-width: 0.200000"/>
   <line x1="747.012329" y1="951.458252" x2="747.012329" y2="956.173401" style="stroke: green; stroke-width: 0.200000"/>
   <line x1="746.012268" y1="951.325745" x2="746.012268" y2="956.173401" style="stroke: green; stroke-width: 0.200000"/>
   <line x1="745.012268" y1="951.217773" x2="745.012268" y2="956.173401" style="stroke: green; stroke-width: 0.200000"/>
   <line x1="744.012329" y1="951.109924" x2="744.012329" y2="956.173401" style="stroke: green; stroke-width: 0.200000"/>
   <line x1="743.012329" y1="951.002075" x2="743.012329" y2="956.173401" style="stroke: green; stroke-width: 0.200000"/>
   <line x1="661.788208" y1="905.882080" x2="661.788208" y2="912.119507" style="stroke: green; stroke-width: 0.200000"/>
   <line x1="653.788147" y1="907.012878" x2="653.788147" y2="912.119507" style="stroke: green; stroke-width: 0.200000"/>
   <line x1="654.788147" y1="906.871460" x2="654.788147" y2="912.119507" style="stroke: green; stroke-width: 0.200000"/>
   <line x1="655.788208" y1="906.730103" x2="655.788208" y2="912.119507" style="stroke: green; stroke-width: 0.200000"/>
   <line x1="656.788208" y1="906.588806" x2="656.788208" y2="912.119507" style="stroke: green; stroke-width: 0.200000"/>
   <line x1="657.788147" y1="906.447449" x2="657.788147" y2="912.119507" style="stroke: green; stroke-width: 0.200000"/>
   <line x1="658.788147" y1="906.306152" x2="658.788147" y2="912.119507" style="stroke: green; stroke-width: 0.200000"/>
   <line x1="659.788147" y1="906.164795" x2="659.788147" y2="912.119507" style="stroke: green; stroke-width: 0.200000"/>
   <line x1="660.788208" y1="906.023438" x2="660.788208" y2="912.119507" style="stroke: green; stroke-width: 0.200000"/>
   <line x1="652.788147" y1="907.154175" x2="652.788147" y2="912.119507" style="stroke: green; stroke-width: 0.200000"/>
   <line x1="662.788147" y1="905.740723" x2="662.788147" y2="912.119507" style="stroke: green; stroke-width: 0.200000"/>
   <line x1="663.788147" y1="905.599365" x2="663.788147" y2="912.119507" style="stroke: green; stroke-width: 0.200000"/>
   <line x1="664.788147" y1="905.458069" x2="664.788147" y2="912.119507" style="stroke: green; stroke-width: 0.200000"/>
   <line x1="665.788208" y1="905.316711" x2="665.788208" y2="912.119507" style="stroke: green; stroke-width: 0.200000"/>
   <line x1="666.788208" y1="905.211304" x2="666.788208" y2="912.119507" style="stroke: green; stroke-width: 0.200000"/>
   <line x1="667.788147" y1="905.140930" x2="667.788147" y2="912.119507" style="stroke: green; stroke-width: 0.200000"/>
   <line x1="668.788147" y1="905.070557" x2="668.788147" y2="912.119507" style="stroke: green; stroke-width: 0.200000"/>
   <line x1="644.788147" y1="908.284912" x2="644.788147" y2="912.119507" style="stroke: green; stroke-width: 0.200000"/>
   <line x1="636.788208" y1="909.810913" x2="636.788208" y2="912.119507" style="stroke: green; stroke-width: 0.200000"/>
   <line x1="637.788147" y1="909.597534" x2="637.788147" y2="912.119507" style="stroke: green; stroke-width: 0.200000"/>
   <line x1="638.788147" y1="909.384094" x2="638.788147" y2="912.119507" style="stroke: green; stroke-width: 0.200000"/>
   <line x1="639.788147" y1="909.170654" x2="639.788147" y2="912.119507" style="stroke: green; stroke-width: 0.200000"/>
   <line x1="640.788208" y1="908.957275" x2="640.788208" y2="912.119507" style="stroke: green; stroke-width: 0.200000"/>
   <line x1="641.788208" y1="908.743835" x2="641.788208" y2="912.119507" style="stroke: green; stroke-width: 0.200000"/>
   <line x1="642.788147" y1="908.567627" x2="642.788147" y2="912.119507" style="stroke: green; stroke-width: 0.200000"/>
   <line x1="643.788147" y1="908.426270" x2="643.788147" y2="912.119507" style="stroke: green; stroke-width: 0.200000"/>
   <line x1="669.788147" y1="905.000122" x2="669.788147" y2="912.119507" style="stroke: green; stroke-width: 0.200000"/>
   <line x1="645.788208" y1="908.143616" x2="645.788208" y2="912.119507" style="stroke: green; stroke-width: 0.200000"/>
   <line x1="646.788208" y1="908.002258" x2="646.788208" y2="912.119507" style="stroke: green; stroke-width: 0.200000"/>
   <line x1="647.788147" y1="907.860962" x2="647.788147" y2="912.119507" style="stroke: green; stroke-width: 0.200000"/>
   <line x1="648.788147" y1="907.719604" x2="648.788147" y2="912.119507" style="stroke: green; stroke-width: 0.200000"/>
   <line x1="649.788147" y1="907.578186" x2="649.788147" y2="912.119507" style="stroke: green; stroke-width: 0.200000"/>
   <line x1="650.788208" y1="907.436890" x2="650.788208" y2="912.119507" style="stroke: green; stroke-width: 0.200000"/>
   <line x1="651.788208" y1="907.295532" x2="651.788208" y2="912.119507" style="stroke: green; stroke-width: 0.200000"/>
   <line x1="678.788147" y1="904.366577" x2="678.788147" y2="912.119507" style="stroke: green; stroke-width: 0.200000"/>
   <line x1="670.788208" y1="904.929749" x2="670.788208" y2="912.119507" style="stroke: green; stroke-width: 0.200000"/>
   <line x1="671.788208" y1="904.859375" x2="671.788208" y2="912.119507" style="stroke: green; stroke-width: 0.200000"/>
   <line x1="672.788147" y1="904.788940" x2="672.788147" y2="912.119507" style="stroke: green; stroke-width: 0.200000"/>
   <line x1="673.788147" y1="904.718628" x2="673.788147" y2="912.119507" style="stroke: green; stroke-width: 0.200000"/>
   <line x1="674.788147" y1="904.648193" x2="674.788147" y2="912.119507" style="stroke: green; stroke-width: 0.200000"/>
   <line x1="675.788208" y1="904.577759" x2="675.788208" y2="912.119507" style="stroke: green; stroke-width: 0.200000"/>
   <line x1="676.788208" y1="904.507446" x2="676.788208" y2="912.119507" style="stroke: green; stroke-width: 0.200000"/>
   <line x1="677.788147" y1="904.437012" x2="677.788147" y2="912.119507" style="stroke: green; stroke-width: 0.200000"/>
   <line x1="635.788147" y1="910.024353" x2="635.788147" y2="912.119507" style="stroke: green; stroke-width: 0.200000"/>
   <line x1="679.788147" y1="904.296265" x2="679.788147" y2="912.119507" style="stroke: green; stroke-width: 0.200000"/>
   <line x1="680.788208" y1="904.225830" x2="680.788208" y2="912.119507" style="stroke: green; stroke-width: 0.200000"/>
   <line x1="681.788208" y1="904.155518" x2="681.788208" y2="912.119507" style="stroke: green; stroke-width: 0.200000"/>
   <line x1="682.788147" y1="904.085083" x2="682.788147" y2="912.119507" style="stroke: green; stroke-width: 0.200000"/>
   <line x1="683.788147" y1="904.014648" x2="683.788147" y2="912.119507" style="stroke: green; stroke-width: 0.200000"/>
   <line x1="684.788147" y1="903.944336" x2="684.788147" y2="912.119507" style="stroke: green; stroke-width: 0.200000"/>
   <line x1="721.788208" y1="904.050842" x2="721.788208" y2="912.119507" style="stroke: green; stroke-width: 0.200000"/>
   <line x1="722.788147" y1="904.121216" x2="722.788147" y2="912.119507" style="stroke: green; stroke-width: 0.200000"/>
   <line x1="723.788147" y1="904.191650" x2="723.788147" y2="912.119507" style="stroke: green; stroke-width: 0.200000"/>
   <line x1="724.788147" y1="904.262024" x2="724.788147" y2="912.119507" style="stroke: green; stroke-width: 0.200000"/>
   <line x1="725.788208" y1="904.332397" x2="725.788208" y2="912.119507" style="stroke: green; stroke-width: 0.200000"/>
   <line x1="726.788208" y1="904.402771" x2="726.788208" y2="912.119507" style="stroke: green; stroke-width: 0.200000"/>
   <line x1="727.788147" y1="904.473206" x2="727.788147" y2="912.119507" style="stroke: green; stroke-width: 0.200000"/>
   <line x1="728.788147" y1="904.543579" x2="728.788147" y2="912.119507" style="stroke: green; stroke-width: 0.200000"/>
   <line x1="729.788147" y1="904.613953" x2="729.788147" y2="912.119507" style="stroke: green; stroke-width: 0.200000"/>
   <line x1="730.788208" y1="904.684387" x2="730.788208" y2="912.119507" style="stroke: green; stroke-width: 0.200000"/>
   <line x1="731.788208" y1="904.754761" x2="731.788208" y2="912.119507" style="stroke: green; stroke-width: 0.200000"/>
   <line x1="732.788147" y1="904.825134" x2="732.788147" y2="912.119507" style="stroke: green; stroke-width: 0.200000"/>
   <line x1="733.788147" y1="904.895569" x2="733.788147" y2="912.119507" style="stroke: green; stroke-width: 0.200000"/>
   <line x1="734.788147" y1="904.965881" x2="734.788147" y2="912.119507" style="stroke: green; stroke-width: 0.200000"/>
   <line x1="704.788147" y1="903.546997" x2="704.788147" y2="912.119507" style="stroke: green; stroke-width: 0.200000"/>
   <line x1="712.788147" y1="903.546997" x2="712.788147" y2="912.119507" style="stroke: green; stroke-width: 0.200000"/>
   <line x1="703.788147" y1="903.546997" x2="703.788147" y2="912.119507" style="stroke: green; stroke-width: 0.200000"/>
   <line x1="705.788208" y1="903.546997" x2="705.788208" y2="912.119507" style="stroke: green; stroke-width: 0.200000"/>
   <line x1="706.788208" y1="903.546997" x2="706.788208" y2="912.119507" style="stroke: green; stroke-width: 0.200000"/>
   <line x1="707.788147" y1="903.546997" x2="707.788147" y2="912.119507" style="stroke: green; stroke-width: 0.200000"/>
   <line x1="708.788147" y1="903.546997" x2="708.788147" y2="912.119507" style="stroke: green; stroke-width: 0.200000"/>
   <line x1="709.788147" y1="903.546997" x2="709.788147" y2="912.119507" style="stroke: green; stroke-width: 0.200000"/>
   <line x1="710.788208" y1="903.546997" x2="710.788208" y2="912.119507" style="stroke: green; stroke-width: 0.200000"/>
   <line x1="711.788208" y1="903.546997" x2="711.788208" y2="912.119507" style="stroke: green; stroke-width: 0.200000"/>
   <line x1="720.788208" y1="903.980469" x2="720.788208" y2="912.119507" style="stroke: green; stroke-width: 0.200000"/>
   <line x1="713.788147" y1="903.546997" x2="713.788147" y2="912.119507" style="stroke: green; stroke-width: 0.200000"/>
   <line x1="714.788147" y1="903.558105" x2="714.788147" y2="912.119507" style="stroke: green; stroke-width: 0.200000"/>
   <line x1="715.788208" y1="903.628479" x2="715.788208" y2="912.119507" style="stroke: green; stroke-width: 0.200000"/>
   <line x1="716.788208" y1="903.698853" x2="716.788208" y2="912.119507" style="stroke: green; stroke-width: 0.200000"/>
   <line x1="717.788147" y1="903.769287" x2="717.788147" y2="912.119507" style="stroke: green; stroke-width: 0.200000"/>
   <line x1="718.788147" y1="903.839661" x2="718.788147" y2="912.119507" style="stroke: green; stroke-width: 0.200000"/>
   <line x1="719.788147" y1="903.910034" x2="719.788147" y2="912.119507" style="stroke: green; stroke-width: 0.200000"/>
   <line x1="695.788208" y1="903.546997" x2="695.788208" y2="912.119507" style="stroke: green; stroke-width: 0.200000"/>
   <line x1="687.788147" y1="903.733154" x2="687.788147" y2="912.119507" style="stroke: green; stroke-width: 0.200000"/>
   <line x1="688.788147" y1="903.662720" x2="688.788147" y2="912.119507" style="stroke: green; stroke-width: 0.200000"/>
   <line x1="689.788147" y1="903.592407" x2="689.788147" y2="912.119507" style="stroke: green; stroke-width: 0.200000"/>
   <line x1="690.788208" y1="903.546997" x2="690.788208" y2="912.119507" style="stroke: green; stroke-width: 0.200000"/>
   <line x1="691.788208" y1="903.546997" x2="691.788208" y2="912.119507" style="stroke: green; stroke-width: 0.200000"/>
   <line x1="692.788147" y1="903.546997" x2="692.788147" y2="912.119507" style="stroke: green; stroke-width: 0.200000"/>
   <line x1="693.788147" y1="903.546997" x2="693.788147" y2="912.119507" style="stroke: green; stroke-width: 0.200000"/>
   <line x1="694.788147" y1="903.546997" x2="694.788147" y2="912.119507" style="stroke: green; stroke-width: 0.200000"/>
   <line x1="686.788208" y1="903.803467" x2="686.788208" y2="912.119507" style="stroke: green; stroke-width: 0.200000"/>
   <line x1="696.788208" y1="903.546997" x2="696.788208" y2="912.119507" style="stroke: green; stroke-width: 0.200000"/>
   <line x1="697.788147" y1="903.546997" x2="697.788147" y2="912.119507" style="stroke: green; stroke-width: 0.200000"/>
   <line x1="698.788147" y1="903.546997" x2="698.788147" y2="912.119507" style="stroke: green; stroke-width: 0.200000"/>
   <line x1="699.788147" y1="903.546997" x2="699.788147" y2="912.119507" style="stroke: green; stroke-width: 0.200000"/>
   <line x1="700.788208" y1="903.546997" x2="700.788208" y2="912.119507" style="stroke: green; stroke-width: 0.200000"/>
   <line x1="701.788208" y1="903.546997" x2="701.788208" y2="912.119507" style="stroke: green; stroke-width: 0.200000"/>
   <line x1="702.788147" y1="903.546997" x2="702.788147" y2="912.119507" style="stroke: green; stroke-width: 0.200000"/>
   <line x1="685.788208" y1="903.873901" x2="685.788208" y2="912.119507" style="stroke: green; stroke-width: 0.200000"/>
   <line x1="736.788208" y1="905.106750" x2="736.788208" y2="912.119507" style="stroke: green; stroke-width: 0.200000"/>
   <line x1="735.788208" y1="905.036316" x2="735.788208" y2="912.119507" style="stroke: green; stroke-width: 0.200000"/>
   <line x1="762.788147" y1="908.640198" x2="762.788147" y2="912.119507" style="stroke: green; stroke-width: 0.200000"/>
   <line x1="754.788147" y1="907.509460" x2="754.788147" y2="912.119507" style="stroke: green; stroke-width: 0.200000"/>
   <line x1="755.788208" y1="907.650818" x2="755.788208" y2="912.119507" style="stroke: green; stroke-width: 0.200000"/>
   <line x1="756.788208" y1="907.792236" x2="756.788208" y2="912.119507" style="stroke: green; stroke-width: 0.200000"/>
   <line x1="757.788147" y1="907.933472" x2="757.788147" y2="912.119507" style="stroke: green; stroke-width: 0.200000"/>
   <line x1="758.788147" y1="908.074890" x2="758.788147" y2="912.119507" style="stroke: green; stroke-width: 0.200000"/>
   <line x1="759.788147" y1="908.216187" x2="759.788147" y2="912.119507" style="stroke: green; stroke-width: 0.200000"/>
   <line x1="760.788208" y1="908.357544" x2="760.788208" y2="912.119507" style="stroke: green; stroke-width: 0.200000"/>
   <line x1="761.788208" y1="908.498901" x2="761.788208" y2="912.119507" style="stroke: green; stroke-width: 0.200000"/>
   <line x1="753.788147" y1="907.368164" x2="753.788147" y2="912.119507" style="stroke: green; stroke-width: 0.200000"/>
   <line x1="763.788147" y1="908.853516" x2="763.788147" y2="912.119507" style="stroke: green; stroke-width: 0.200000"/>
   <line x1="764.788147" y1="909.066895" x2="764.788147" y2="912.119507" style="stroke: green; stroke-width: 0.200000"/>
   <line x1="765.788208" y1="909.280396" x2="765.788208" y2="912.119507" style="stroke: green; stroke-width: 0.200000"/>
   <line x1="766.788208" y1="909.493896" x2="766.788208" y2="912.119507" style="stroke: green; stroke-width: 0.200000"/>
   <line x1="767.788147" y1="909.707336" x2="767.788147" y2="912.119507" style="stroke: green; stroke-width: 0.200000"/>
   <line x1="768.788147" y1="909.920776" x2="768.788147" y2="912.119507" style="stroke: green; stroke-width: 0.200000"/>
   <line x1="769.788147" y1="910.134277" x2="769.788147" y2="912.119507" style="stroke: green; stroke-width: 0.200000"/>
   <line x1="737.788147" y1="905.177063" x2="737.788147" y2="912.119507" style="stroke: green; stroke-width: 0.200000"/>
   <line x1="752.788147" y1="907.226807" x2="752.788147" y2="912.119507" style="stroke: green; stroke-width: 0.200000"/>
   <line x1="751.788208" y1="907.085449" x2="751.788208" y2="912.119507" style="stroke: green; stroke-width: 0.200000"/>
   <line x1="750.788208" y1="906.944092" x2="750.788208" y2="912.119507" style="stroke: green; stroke-width: 0.200000"/>
   <line x1="749.788147" y1="906.802734" x2="749.788147" y2="912.119507" style="stroke: green; stroke-width: 0.200000"/>
   <line x1="748.788147" y1="906.661377" x2="748.788147" y2="912.119507" style="stroke: green; stroke-width: 0.200000"/>
   <line x1="747.788147" y1="906.520081" x2="747.788147" y2="912.119507" style="stroke: green; stroke-width: 0.200000"/>
   <line x1="746.788208" y1="906.378723" x2="746.788208" y2="912.119507" style="stroke: green; stroke-width: 0.200000"/>
   <line x1="745.788208" y1="906.237427" x2="745.788208" y2="912.119507" style="stroke: green; stroke-width: 0.200000"/>
   <line x1="744.788147" y1="906.096069" x2="744.788147" y2="912.119507" style="stroke: green; stroke-width: 0.200000"/>
   <line x1="743.788147" y1="905.954651" x2="743.788147" y2="912.119507" style="stroke: green; stroke-width: 0.200000"/>
   <line x1="742.788147" y1="905.813354" x2="742.788147" y2="912.119507" style="stroke: green; stroke-width: 0.200000"/>
   <line x1="741.788208" y1="905.671997" x2="741.788208" y2="912.119507" style="stroke: green; stroke-width: 0.200000"/>
   <line x1="740.788208" y1="905.530640" x2="740.788208" y2="912.119507" style="stroke: green; stroke-width: 0.200000"/>
   <line x1="739.788147" y1="905.389343" x2="739.788147" y2="912.119507" style="stroke: green; stroke-width: 0.200000"/>
   <line x1="738.788147" y1="905.247925" x2="738.788147" y2="912.119507" style="stroke: green; stroke-width: 0.200000"/>
   <path d="M 724.755  947.524  746.888  949.912  768.84  953.881  780.267  956.798  780.157  957.673  624.905  957.673  624.795  956.798  636.223  953.881  658.175  949.912  680.308  947.524  702.531  946.727  724.755  947.524  " style="fill: none; stroke: darkmagenta; stroke-width: 0.200000; fill-type: evenodd"  fill-opacity="1.000000" />
   <path d="M 724.683  948.522  746.745  950.902  768.627  954.859  772.306  955.798  772.196  956.673  632.866  956.673  632.756  955.798  636.436  954.859  658.317  950.902  680.379  948.522  702.531  947.727  724.683  948.522  " style="fill: none; stroke: black; stroke-width: 0.200000; fill-type: evenodd"  fill-opacity="1.000000" />
   <path d="M 738.939  903.755  763.052  907.163  786.939  912.262  788.67  912.759  788.549  913.619  616.514  913.619  616.393  912.758  618.146  912.256  642.01  907.163  666.123  903.755  690.379  902.047  714.683  902.047  738.939  903.755  " style="fill: none; stroke: darkmagenta; stroke-width: 0.200000; fill-type: evenodd"  fill-opacity="1.000000" />
   <path d="M 738.834  904.75  762.878  908.148  779.632  911.724  779.537  912.619  625.523  912.619  625.428  911.724  642.185  908.148  666.229  904.75  690.415  903.047  714.648  903.047  738.834  904.75  " style="fill: none; stroke: black; stroke-width: 0.200000; fill-type: evenodd"  fill-opacity="1.000000" />
   <path d="M 779.047  957.089  776.947  956.825  774.847  956.562  " style="fill: none; stroke: grey; stroke-width: 0.200000; fill-type: evenodd"  fill-opacity="1.000000" />
   <path d="M 774.847  956.562  772.747  956.298  " style="fill: none; stroke: grey; stroke-width: 0.200000; fill-type: evenodd"  fill-opacity="1.000000" />
   <path d="M 632.315  956.298  630.215  956.562  628.115  956.825  " style="fill: none; stroke: grey; stroke-width: 0.200000; fill-type: evenodd"  fill-opacity="1.000000" />
   <path d="M 628.115  956.825  626.016  957.089  " style="fill: none; stroke: grey; stroke-width: 0.200000; fill-type: evenodd"  fill-opacity="1.000000" />
   <path d="M 771.086  956.089  769.759  955.922  768.432  955.756  " style="fill: none; stroke: grey; stroke-width: 0.200000; fill-type: evenodd"  fill-opacity="1.000000" />
   <path d="M 768.432  955.756  765.682  955.509  762.932  955.263  " style="fill: none; stroke: grey; stroke-width: 0.200000; fill-type: evenodd"  fill-opacity="1.000000" />
   <path d="M 642.13  955.263  639.381  955.509  636.631  955.756  " style="fill: none; stroke: grey; stroke-width: 0.200000; fill-type: evenodd"  fill-opacity="1.000000" />
   <path d="M 636.631  955.756  635.304  955.922  633.977  956.089  " style="fill: none; stroke: grey; stroke-width: 0.200000; fill-type: evenodd"  fill-opacity="1.000000" />
   <path d="M 786.772  912.93  784.542  912.695  782.312  912.46  " style="fill: none; stroke: grey; stroke-width: 0.200000; fill-type: evenodd"  fill-opacity="1.000000" />
   <path d="M 782.312  912.46  780.082  912.224  " style="fill: none; stroke: grey; stroke-width: 0.200000; fill-type: evenodd"  fill-opacity="1.000000" />
   <path d="M 624.978  912.224  622.757  912.459  620.536  912.693  " style="fill: none; stroke: grey; stroke-width: 0.200000; fill-type: evenodd"  fill-opacity="1.000000" />
   <path d="M 620.536  912.693  618.314  912.928  617.537  913.037  " style="fill: none; stroke: grey; stroke-width: 0.200000; fill-type: evenodd"  fill-opacity="1.000000" />
   <path d="M 778.273  912.033  775.717  911.764  773.162  911.494  " style="fill: none; stroke: grey; stroke-width: 0.200000; fill-type: evenodd"  fill-opacity="1.000000" />
   <path d="M 773.162  911.494  770.607  911.224  " style="fill: none; stroke: grey; stroke-width: 0.200000; fill-type: evenodd"  fill-opacity="1.000000" />
   <path d="M 634.455  911.224  631.899  911.494  629.343  911.764  " style="fill: none; stroke: grey; stroke-width: 0.200000; fill-type: evenodd"  fill-opacity="1.000000" />
   <path d="M 629.343  911.764  626.787  912.033  " style="fill: none; stroke: grey; stroke-width: 0.200000; fill-type: evenodd"  fill-opacity="1.000000" />
</svg>
