<?xml version="1.0" encoding="UTF-8" standalone="yes"?>
<!DOCTYPE svg PUBLIC "-//W3C//DTD SVG 1.0//EN" "http://www.w3.org/TR/2001/REC-SVG-20010904/DTD/svg10.dtd">
<svg height="2000" width="2000" xmlns="http://www.w3.org/2000/svg" xmlns:svg="http://www.w3.org/2000/svg" xmlns:xlink="http://www.w3.org/1999/xlink">
   <marker id="endArrow" markerHeight="8" markerUnits="strokeWidth" markerWidth="10" orient="auto" refX="1" refY="5" viewBox="0 0 1000 1000">
      <polyline fill="darkblue" points="0,0 10,5 0,10 1,5" />
   </marker>
   <circle cx="1000" cy="1000" r="1" style="stroke:black; fill: red" />
   <circle cx="1000" cy="1000" r="800" style="stroke:black; fill: none" />
   <line x1="946.227173" y1="1065.954834" x2="905.931030" y2="1065.954834" style="stroke: green; stroke-width: 0.200000"/>
   <line x1="946.227173" y1="1064.954834" x2="904.946167" y2="1064.954834" style="stroke: green; stroke-width: 0.200000"/>
   <line x1="946.227173" y1="1063.954834" x2="903.975098" y2="1063.954834" style="stroke: green; stroke-width: 0.200000"/>
   <line x1="946.227173" y1="1062.954834" x2="903.012451" y2="1062.954834" style="stroke: green; stroke-width: 0.200000"/>
   <line x1="946.227173" y1="1061.954834" x2="902.049866" y2="1061.954834" style="stroke: green; stroke-width: 0.200000"/>
   <line x1="946.227173" y1="1060.954834" x2="901.158081" y2="1060.954834" style="stroke: green; stroke-width: 0.200000"/>
   <line x1="946.227173" y1="1059.954834" x2="900.284302" y2="1059.954834" style="stroke: green; stroke-width: 0.200000"/>
   <line x1="946.227173" y1="1058.954834" x2="899.476929" y2="1058.954834" style="stroke: green; stroke-width: 0.200000"/>
   <line x1="946.227173" y1="1057.954834" x2="898.721008" y2="1057.954834" style="stroke: green; stroke-width: 0.200000"/>
   <line x1="946.227173" y1="1056.954834" x2="897.965088" y2="1056.954834" style="stroke: green; stroke-width: 0.200000"/>
   <line x1="946.227173" y1="1055.954834" x2="897.267517" y2="1055.954834" style="stroke: green; stroke-width: 0.200000"/>
   <line x1="946.227173" y1="1054.954834" x2="896.592773" y2="1054.954834" style="stroke: green; stroke-width: 0.200000"/>
   <line x1="946.227173" y1="1053.954834" x2="899.793762" y2="1053.954834" style="stroke: green; stroke-width: 0.200000"/>
   <line x1="946.227173" y1="1052.954834" x2="902.733826" y2="1052.954834" style="stroke: green; stroke-width: 0.200000"/>
   <line x1="946.227173" y1="1051.954834" x2="902.688904" y2="1051.954834" style="stroke: green; stroke-width: 0.200000"/>
   <line x1="946.227173" y1="1050.954834" x2="902.643982" y2="1050.954834" style="stroke: green; stroke-width: 0.200000"/>
   <line x1="946.227173" y1="1049.954834" x2="902.598999" y2="1049.954834" style="stroke: green; stroke-width: 0.200000"/>
   <line x1="946.227173" y1="1048.954834" x2="902.553345" y2="1048.954834" style="stroke: green; stroke-width: 0.200000"/>
   <line x1="946.227173" y1="1047.954834" x2="902.508484" y2="1047.954834" style="stroke: green; stroke-width: 0.200000"/>
   <line x1="946.227173" y1="1046.954834" x2="902.463440" y2="1046.954834" style="stroke: green; stroke-width: 0.200000"/>
   <line x1="946.227173" y1="1045.954834" x2="902.418518" y2="1045.954834" style="stroke: green; stroke-width: 0.200000"/>
   <line x1="946.227173" y1="1044.954834" x2="902.373657" y2="1044.954834" style="stroke: green; stroke-width: 0.200000"/>
   <line x1="946.227173" y1="1043.954834" x2="902.328735" y2="1043.954834" style="stroke: green; stroke-width: 0.200000"/>
   <line x1="946.227173" y1="1042.954834" x2="902.354187" y2="1042.954834" style="stroke: green; stroke-width: 0.200000"/>
   <line x1="946.227173" y1="1041.954834" x2="902.596191" y2="1041.954834" style="stroke: green; stroke-width: 0.200000"/>
   <line x1="946.227173" y1="1040.954834" x2="903.165833" y2="1040.954834" style="stroke: green; stroke-width: 0.200000"/>
   <line x1="946.227173" y1="1039.954834" x2="903.736633" y2="1039.954834" style="stroke: green; stroke-width: 0.200000"/>
   <line x1="946.227173" y1="1038.954834" x2="904.318115" y2="1038.954834" style="stroke: green; stroke-width: 0.200000"/>
   <line x1="946.227173" y1="1037.954834" x2="904.915649" y2="1037.954834" style="stroke: green; stroke-width: 0.200000"/>
   <line x1="946.227173" y1="1036.954834" x2="905.492554" y2="1036.954834" style="stroke: green; stroke-width: 0.200000"/>
   <line x1="946.227173" y1="1035.954834" x2="906.137329" y2="1035.954834" style="stroke: green; stroke-width: 0.200000"/>
   <line x1="946.227173" y1="1034.954834" x2="906.833496" y2="1034.954834" style="stroke: green; stroke-width: 0.200000"/>
   <line x1="946.227173" y1="1033.954834" x2="907.543884" y2="1033.954834" style="stroke: green; stroke-width: 0.200000"/>
   <line x1="946.227173" y1="1032.954834" x2="908.230835" y2="1032.954834" style="stroke: green; stroke-width: 0.200000"/>
   <line x1="946.227173" y1="1031.954834" x2="908.917786" y2="1031.954834" style="stroke: green; stroke-width: 0.200000"/>
   <line x1="946.227173" y1="1030.954834" x2="909.724121" y2="1030.954834" style="stroke: green; stroke-width: 0.200000"/>
   <line x1="946.227173" y1="1029.954834" x2="910.539185" y2="1029.954834" style="stroke: green; stroke-width: 0.200000"/>
   <line x1="946.227173" y1="1028.954834" x2="911.357910" y2="1028.954834" style="stroke: green; stroke-width: 0.200000"/>
   <line x1="946.227173" y1="1027.954834" x2="912.171997" y2="1027.954834" style="stroke: green; stroke-width: 0.200000"/>
   <line x1="946.227173" y1="1026.954834" x2="913.097290" y2="1026.954834" style="stroke: green; stroke-width: 0.200000"/>
   <line x1="946.227173" y1="1025.954834" x2="914.030518" y2="1025.954834" style="stroke: green; stroke-width: 0.200000"/>
   <line x1="946.227173" y1="1024.954834" x2="914.972839" y2="1024.954834" style="stroke: green; stroke-width: 0.200000"/>
   <line x1="946.227173" y1="1023.954834" x2="915.926636" y2="1023.954834" style="stroke: green; stroke-width: 0.200000"/>
   <line x1="946.227173" y1="1022.954834" x2="916.958984" y2="1022.954834" style="stroke: green; stroke-width: 0.200000"/>
   <line x1="946.227173" y1="1021.954895" x2="918.020386" y2="1021.954895" style="stroke: green; stroke-width: 0.200000"/>
   <line x1="946.227173" y1="1020.954834" x2="919.107361" y2="1020.954834" style="stroke: green; stroke-width: 0.200000"/>
   <line x1="946.227173" y1="1019.954834" x2="920.194397" y2="1019.954834" style="stroke: green; stroke-width: 0.200000"/>
   <line x1="943.641357" y1="1018.954834" x2="921.218628" y2="1018.954834" style="stroke: green; stroke-width: 0.200000"/>
   <line x1="938.059631" y1="1017.954834" x2="922.453125" y2="1017.954834" style="stroke: green; stroke-width: 0.200000"/>
   <line x1="928.119141" y1="1016.954895" x2="926.093994" y2="1016.954895" style="stroke: green; stroke-width: 0.200000"/>
   <line x1="995.265564" y1="1065.954834" x2="946.327209" y2="1065.954834" style="stroke: green; stroke-width: 0.200000"/>
   <line x1="994.990540" y1="1064.954834" x2="946.327209" y2="1064.954834" style="stroke: green; stroke-width: 0.200000"/>
   <line x1="994.715820" y1="1063.954834" x2="946.327209" y2="1063.954834" style="stroke: green; stroke-width: 0.200000"/>
   <line x1="994.321411" y1="1062.954834" x2="946.327209" y2="1062.954834" style="stroke: green; stroke-width: 0.200000"/>
   <line x1="993.904053" y1="1061.954834" x2="946.327209" y2="1061.954834" style="stroke: green; stroke-width: 0.200000"/>
   <line x1="993.486633" y1="1060.954834" x2="946.327209" y2="1060.954834" style="stroke: green; stroke-width: 0.200000"/>
   <line x1="993.069153" y1="1059.954834" x2="946.327209" y2="1059.954834" style="stroke: green; stroke-width: 0.200000"/>
   <line x1="992.651733" y1="1058.954834" x2="946.327209" y2="1058.954834" style="stroke: green; stroke-width: 0.200000"/>
   <line x1="992.134521" y1="1057.954834" x2="946.327209" y2="1057.954834" style="stroke: green; stroke-width: 0.200000"/>
   <line x1="991.554504" y1="1056.954834" x2="946.327209" y2="1056.954834" style="stroke: green; stroke-width: 0.200000"/>
   <line x1="991.002808" y1="1055.954834" x2="946.327209" y2="1055.954834" style="stroke: green; stroke-width: 0.200000"/>
   <line x1="990.452759" y1="1054.954834" x2="946.327209" y2="1054.954834" style="stroke: green; stroke-width: 0.200000"/>
   <line x1="989.821167" y1="1053.954834" x2="946.327209" y2="1053.954834" style="stroke: green; stroke-width: 0.200000"/>
   <line x1="989.145508" y1="1052.954834" x2="946.327209" y2="1052.954834" style="stroke: green; stroke-width: 0.200000"/>
   <line x1="988.469910" y1="1051.954834" x2="946.327209" y2="1051.954834" style="stroke: green; stroke-width: 0.200000"/>
   <line x1="987.794312" y1="1050.954834" x2="946.327209" y2="1050.954834" style="stroke: green; stroke-width: 0.200000"/>
   <line x1="987.118652" y1="1049.954834" x2="946.327209" y2="1049.954834" style="stroke: green; stroke-width: 0.200000"/>
   <line x1="986.443115" y1="1048.954834" x2="946.327209" y2="1048.954834" style="stroke: green; stroke-width: 0.200000"/>
   <line x1="985.767517" y1="1047.954834" x2="946.327209" y2="1047.954834" style="stroke: green; stroke-width: 0.200000"/>
   <line x1="985.091919" y1="1046.954834" x2="946.327209" y2="1046.954834" style="stroke: green; stroke-width: 0.200000"/>
   <line x1="984.416260" y1="1045.954834" x2="946.327209" y2="1045.954834" style="stroke: green; stroke-width: 0.200000"/>
   <line x1="983.740723" y1="1044.954834" x2="946.327209" y2="1044.954834" style="stroke: green; stroke-width: 0.200000"/>
   <line x1="983.065125" y1="1043.954834" x2="946.327209" y2="1043.954834" style="stroke: green; stroke-width: 0.200000"/>
   <line x1="983.911438" y1="1042.954834" x2="946.327209" y2="1042.954834" style="stroke: green; stroke-width: 0.200000"/>
   <line x1="985.173279" y1="1041.954834" x2="946.327209" y2="1041.954834" style="stroke: green; stroke-width: 0.200000"/>
   <line x1="986.434998" y1="1040.954834" x2="946.327209" y2="1040.954834" style="stroke: green; stroke-width: 0.200000"/>
   <line x1="987.696594" y1="1039.954834" x2="946.327209" y2="1039.954834" style="stroke: green; stroke-width: 0.200000"/>
   <line x1="988.958374" y1="1038.954834" x2="946.327209" y2="1038.954834" style="stroke: green; stroke-width: 0.200000"/>
   <line x1="988.745178" y1="1037.954834" x2="946.327209" y2="1037.954834" style="stroke: green; stroke-width: 0.200000"/>
   <line x1="987.753235" y1="1036.954834" x2="946.327209" y2="1036.954834" style="stroke: green; stroke-width: 0.200000"/>
   <line x1="986.761169" y1="1035.954834" x2="946.327209" y2="1035.954834" style="stroke: green; stroke-width: 0.200000"/>
   <line x1="985.766113" y1="1034.954834" x2="946.327209" y2="1034.954834" style="stroke: green; stroke-width: 0.200000"/>
   <line x1="984.762634" y1="1033.954834" x2="974.644714" y2="1033.954834" style="stroke: green; stroke-width: 0.200000"/>
   <line x1="972.579102" y1="1033.954834" x2="946.327209" y2="1033.954834" style="stroke: green; stroke-width: 0.200000"/>
   <line x1="983.759155" y1="1032.954834" x2="975.448059" y2="1032.954834" style="stroke: green; stroke-width: 0.200000"/>
   <line x1="971.120239" y1="1032.954834" x2="946.327209" y2="1032.954834" style="stroke: green; stroke-width: 0.200000"/>
   <line x1="982.755676" y1="1031.954834" x2="976.251465" y2="1031.954834" style="stroke: green; stroke-width: 0.200000"/>
   <line x1="969.661255" y1="1031.954834" x2="946.327209" y2="1031.954834" style="stroke: green; stroke-width: 0.200000"/>
   <line x1="981.752197" y1="1030.954834" x2="977.054688" y2="1030.954834" style="stroke: green; stroke-width: 0.200000"/>
   <line x1="968.202271" y1="1030.954834" x2="946.327209" y2="1030.954834" style="stroke: green; stroke-width: 0.200000"/>
   <line x1="980.748657" y1="1029.954834" x2="977.858032" y2="1029.954834" style="stroke: green; stroke-width: 0.200000"/>
   <line x1="966.743286" y1="1029.954834" x2="946.327209" y2="1029.954834" style="stroke: green; stroke-width: 0.200000"/>
   <line x1="979.745178" y1="1028.954834" x2="978.661560" y2="1028.954834" style="stroke: green; stroke-width: 0.200000"/>
   <line x1="965.284363" y1="1028.954834" x2="946.327209" y2="1028.954834" style="stroke: green; stroke-width: 0.200000"/>
   <line x1="963.825378" y1="1027.954834" x2="946.327209" y2="1027.954834" style="stroke: green; stroke-width: 0.200000"/>
   <line x1="962.207581" y1="1026.954834" x2="946.327209" y2="1026.954834" style="stroke: green; stroke-width: 0.200000"/>
   <line x1="960.494629" y1="1025.954834" x2="946.327209" y2="1025.954834" style="stroke: green; stroke-width: 0.200000"/>
   <line x1="958.680664" y1="1024.954834" x2="946.327209" y2="1024.954834" style="stroke: green; stroke-width: 0.200000"/>
   <line x1="956.700195" y1="1023.954834" x2="946.327209" y2="1023.954834" style="stroke: green; stroke-width: 0.200000"/>
   <line x1="954.628174" y1="1022.954834" x2="946.327209" y2="1022.954834" style="stroke: green; stroke-width: 0.200000"/>
   <line x1="952.114746" y1="1021.954895" x2="946.327209" y2="1021.954895" style="stroke: green; stroke-width: 0.200000"/>
   <line x1="950.069580" y1="1020.954834" x2="946.327209" y2="1020.954834" style="stroke: green; stroke-width: 0.200000"/>
   <line x1="946.955200" y1="1019.954834" x2="946.327209" y2="1019.954834" style="stroke: green; stroke-width: 0.200000"/>
   <line x1="946.227173" y1="1093.954834" x2="946.125610" y2="1093.954834" style="stroke: green; stroke-width: 0.200000"/>
   <line x1="946.227173" y1="1092.954834" x2="944.205200" y2="1092.954834" style="stroke: green; stroke-width: 0.200000"/>
   <line x1="946.227173" y1="1091.954834" x2="942.284668" y2="1091.954834" style="stroke: green; stroke-width: 0.200000"/>
   <line x1="946.227173" y1="1090.954834" x2="940.508972" y2="1090.954834" style="stroke: green; stroke-width: 0.200000"/>
   <line x1="946.227173" y1="1089.954834" x2="938.811584" y2="1089.954834" style="stroke: green; stroke-width: 0.200000"/>
   <line x1="946.227173" y1="1088.954834" x2="937.114197" y2="1088.954834" style="stroke: green; stroke-width: 0.200000"/>
   <line x1="946.227173" y1="1087.954834" x2="935.416809" y2="1087.954834" style="stroke: green; stroke-width: 0.200000"/>
   <line x1="946.227173" y1="1086.954834" x2="933.802795" y2="1086.954834" style="stroke: green; stroke-width: 0.200000"/>
   <line x1="946.227173" y1="1085.954834" x2="932.264038" y2="1085.954834" style="stroke: green; stroke-width: 0.200000"/>
   <line x1="946.227173" y1="1084.954834" x2="930.725342" y2="1084.954834" style="stroke: green; stroke-width: 0.200000"/>
   <line x1="946.227173" y1="1083.954834" x2="929.192139" y2="1083.954834" style="stroke: green; stroke-width: 0.200000"/>
   <line x1="946.227173" y1="1082.954834" x2="927.737915" y2="1082.954834" style="stroke: green; stroke-width: 0.200000"/>
   <line x1="946.227173" y1="1081.954834" x2="926.283691" y2="1081.954834" style="stroke: green; stroke-width: 0.200000"/>
   <line x1="946.227173" y1="1080.954834" x2="924.829468" y2="1080.954834" style="stroke: green; stroke-width: 0.200000"/>
   <line x1="946.227173" y1="1079.954834" x2="923.375244" y2="1079.954834" style="stroke: green; stroke-width: 0.200000"/>
   <line x1="946.227173" y1="1078.954834" x2="921.991943" y2="1078.954834" style="stroke: green; stroke-width: 0.200000"/>
   <line x1="946.227173" y1="1077.954834" x2="920.641479" y2="1077.954834" style="stroke: green; stroke-width: 0.200000"/>
   <line x1="946.227173" y1="1076.954834" x2="919.291077" y2="1076.954834" style="stroke: green; stroke-width: 0.200000"/>
   <line x1="946.227173" y1="1075.954834" x2="917.940613" y2="1075.954834" style="stroke: green; stroke-width: 0.200000"/>
   <line x1="946.227173" y1="1074.954834" x2="916.609741" y2="1074.954834" style="stroke: green; stroke-width: 0.200000"/>
   <line x1="946.227173" y1="1073.954834" x2="915.334351" y2="1073.954834" style="stroke: green; stroke-width: 0.200000"/>
   <line x1="946.227173" y1="1072.954834" x2="914.084595" y2="1072.954834" style="stroke: green; stroke-width: 0.200000"/>
   <line x1="946.227173" y1="1071.954834" x2="912.854309" y2="1071.954834" style="stroke: green; stroke-width: 0.200000"/>
   <line x1="946.227173" y1="1070.954834" x2="911.630127" y2="1070.954834" style="stroke: green; stroke-width: 0.200000"/>
   <line x1="946.227173" y1="1069.954834" x2="910.418213" y2="1069.954834" style="stroke: green; stroke-width: 0.200000"/>
   <line x1="946.227173" y1="1068.954834" x2="909.231445" y2="1068.954834" style="stroke: green; stroke-width: 0.200000"/>
   <line x1="946.227173" y1="1067.954834" x2="908.128357" y2="1067.954834" style="stroke: green; stroke-width: 0.200000"/>
   <line x1="964.001709" y1="1099.954834" x2="961.019653" y2="1099.954834" style="stroke: green; stroke-width: 0.200000"/>
   <line x1="963.975586" y1="1098.954834" x2="957.776123" y2="1098.954834" style="stroke: green; stroke-width: 0.200000"/>
   <line x1="963.949341" y1="1097.954834" x2="955.077026" y2="1097.954834" style="stroke: green; stroke-width: 0.200000"/>
   <line x1="963.923218" y1="1096.954834" x2="952.698914" y2="1096.954834" style="stroke: green; stroke-width: 0.200000"/>
   <line x1="963.897034" y1="1095.954834" x2="950.261536" y2="1095.954834" style="stroke: green; stroke-width: 0.200000"/>
   <line x1="963.870850" y1="1094.954834" x2="948.127319" y2="1094.954834" style="stroke: green; stroke-width: 0.200000"/>
   <line x1="963.844666" y1="1093.954834" x2="946.327209" y2="1093.954834" style="stroke: green; stroke-width: 0.200000"/>
   <line x1="963.818604" y1="1092.954834" x2="946.327209" y2="1092.954834" style="stroke: green; stroke-width: 0.200000"/>
   <line x1="973.571106" y1="1091.954834" x2="946.327209" y2="1091.954834" style="stroke: green; stroke-width: 0.200000"/>
   <line x1="976.749390" y1="1090.954834" x2="946.327209" y2="1090.954834" style="stroke: green; stroke-width: 0.200000"/>
   <line x1="978.415039" y1="1089.954834" x2="946.327209" y2="1089.954834" style="stroke: green; stroke-width: 0.200000"/>
   <line x1="980.080688" y1="1088.954834" x2="946.327209" y2="1088.954834" style="stroke: green; stroke-width: 0.200000"/>
   <line x1="981.746338" y1="1087.954834" x2="946.327209" y2="1087.954834" style="stroke: green; stroke-width: 0.200000"/>
   <line x1="983.224426" y1="1086.954834" x2="946.327209" y2="1086.954834" style="stroke: green; stroke-width: 0.200000"/>
   <line x1="984.656494" y1="1085.954834" x2="946.327209" y2="1085.954834" style="stroke: green; stroke-width: 0.200000"/>
   <line x1="986.088501" y1="1084.954834" x2="946.327209" y2="1084.954834" style="stroke: green; stroke-width: 0.200000"/>
   <line x1="987.472473" y1="1083.954834" x2="946.327209" y2="1083.954834" style="stroke: green; stroke-width: 0.200000"/>
   <line x1="988.677368" y1="1082.954834" x2="946.327209" y2="1082.954834" style="stroke: green; stroke-width: 0.200000"/>
   <line x1="989.882324" y1="1081.954834" x2="946.327209" y2="1081.954834" style="stroke: green; stroke-width: 0.200000"/>
   <line x1="991.087341" y1="1080.954834" x2="946.327209" y2="1080.954834" style="stroke: green; stroke-width: 0.200000"/>
   <line x1="992.270630" y1="1079.954834" x2="946.327209" y2="1079.954834" style="stroke: green; stroke-width: 0.200000"/>
   <line x1="993.395020" y1="1078.954834" x2="946.327209" y2="1078.954834" style="stroke: green; stroke-width: 0.200000"/>
   <line x1="994.494751" y1="1077.954834" x2="946.327209" y2="1077.954834" style="stroke: green; stroke-width: 0.200000"/>
   <line x1="995.521973" y1="1076.954834" x2="946.327209" y2="1076.954834" style="stroke: green; stroke-width: 0.200000"/>
   <line x1="996.327209" y1="1075.954834" x2="946.327209" y2="1075.954834" style="stroke: green; stroke-width: 0.200000"/>
   <line x1="996.327209" y1="1074.954834" x2="946.327209" y2="1074.954834" style="stroke: green; stroke-width: 0.200000"/>
   <line x1="996.327209" y1="1073.954834" x2="946.327209" y2="1073.954834" style="stroke: green; stroke-width: 0.200000"/>
   <line x1="996.327209" y1="1072.954834" x2="946.327209" y2="1072.954834" style="stroke: green; stroke-width: 0.200000"/>
   <line x1="996.327209" y1="1071.954834" x2="946.327209" y2="1071.954834" style="stroke: green; stroke-width: 0.200000"/>
   <line x1="996.327209" y1="1070.954834" x2="946.327209" y2="1070.954834" style="stroke: green; stroke-width: 0.200000"/>
   <line x1="996.258911" y1="1069.954834" x2="946.327209" y2="1069.954834" style="stroke: green; stroke-width: 0.200000"/>
   <line x1="996.086365" y1="1068.954834" x2="946.327209" y2="1068.954834" style="stroke: green; stroke-width: 0.200000"/>
   <line x1="995.815674" y1="1067.954834" x2="946.327209" y2="1067.954834" style="stroke: green; stroke-width: 0.200000"/>
   <line x1="996.716858" y1="1074.954834" x2="996.427246" y2="1074.954834" style="stroke: green; stroke-width: 0.200000"/>
   <line x1="996.773010" y1="1073.954834" x2="996.427246" y2="1073.954834" style="stroke: green; stroke-width: 0.200000"/>
   <line x1="996.740112" y1="1072.954834" x2="996.427246" y2="1072.954834" style="stroke: green; stroke-width: 0.200000"/>
   <line x1="996.603882" y1="1071.954834" x2="996.427246" y2="1071.954834" style="stroke: green; stroke-width: 0.200000"/>
   <line x1="996.431519" y1="1070.954834" x2="996.427246" y2="1070.954834" style="stroke: green; stroke-width: 0.200000"/>
   <line x1="1052.959717" y1="955.024963" x2="1005.181580" y2="955.024963" style="stroke: green; stroke-width: 0.200000"/>
   <line x1="1052.959717" y1="954.024902" x2="1004.996887" y2="954.024902" style="stroke: green; stroke-width: 0.200000"/>
   <line x1="1052.959717" y1="953.024902" x2="1004.812073" y2="953.024902" style="stroke: green; stroke-width: 0.200000"/>
   <line x1="1052.959717" y1="952.024902" x2="1004.627319" y2="952.024902" style="stroke: green; stroke-width: 0.200000"/>
   <line x1="1052.959717" y1="951.024902" x2="1004.442505" y2="951.024902" style="stroke: green; stroke-width: 0.200000"/>
   <line x1="1052.959717" y1="950.024963" x2="1004.257751" y2="950.024963" style="stroke: green; stroke-width: 0.200000"/>
   <line x1="1052.959717" y1="949.024902" x2="1004.072266" y2="949.024902" style="stroke: green; stroke-width: 0.200000"/>
   <line x1="1052.959717" y1="948.024902" x2="1003.929077" y2="948.024902" style="stroke: green; stroke-width: 0.200000"/>
   <line x1="1052.959717" y1="947.024902" x2="1003.806824" y2="947.024902" style="stroke: green; stroke-width: 0.200000"/>
   <line x1="1052.959717" y1="946.024902" x2="1003.684631" y2="946.024902" style="stroke: green; stroke-width: 0.200000"/>
   <line x1="1052.959717" y1="945.024963" x2="1003.592041" y2="945.024963" style="stroke: green; stroke-width: 0.200000"/>
   <line x1="1052.959717" y1="944.024902" x2="1003.502258" y2="944.024902" style="stroke: green; stroke-width: 0.200000"/>
   <line x1="1052.959717" y1="943.024902" x2="1003.415039" y2="943.024902" style="stroke: green; stroke-width: 0.200000"/>
   <line x1="1052.959717" y1="942.024902" x2="1003.327698" y2="942.024902" style="stroke: green; stroke-width: 0.200000"/>
   <line x1="1052.959717" y1="941.024902" x2="1003.240356" y2="941.024902" style="stroke: green; stroke-width: 0.200000"/>
   <line x1="1052.959717" y1="940.024963" x2="1003.153015" y2="940.024963" style="stroke: green; stroke-width: 0.200000"/>
   <line x1="1052.959717" y1="939.024902" x2="1003.065674" y2="939.024902" style="stroke: green; stroke-width: 0.200000"/>
   <line x1="1052.959717" y1="938.024902" x2="1002.978271" y2="938.024902" style="stroke: green; stroke-width: 0.200000"/>
   <line x1="1052.959717" y1="937.024902" x2="1003.119263" y2="937.024902" style="stroke: green; stroke-width: 0.200000"/>
   <line x1="1052.959717" y1="936.024902" x2="1003.322144" y2="936.024902" style="stroke: green; stroke-width: 0.200000"/>
   <line x1="1052.959717" y1="935.024963" x2="1003.574951" y2="935.024963" style="stroke: green; stroke-width: 0.200000"/>
   <line x1="1052.959717" y1="934.024902" x2="1003.959290" y2="934.024902" style="stroke: green; stroke-width: 0.200000"/>
   <line x1="1052.959717" y1="933.024902" x2="1004.550537" y2="933.024902" style="stroke: green; stroke-width: 0.200000"/>
   <line x1="1052.959717" y1="932.024902" x2="1005.282715" y2="932.024902" style="stroke: green; stroke-width: 0.200000"/>
   <line x1="1052.959717" y1="931.024902" x2="1006.096497" y2="931.024902" style="stroke: green; stroke-width: 0.200000"/>
   <line x1="1052.959717" y1="930.024963" x2="1006.925354" y2="930.024963" style="stroke: green; stroke-width: 0.200000"/>
   <line x1="1052.959717" y1="929.024902" x2="1007.793213" y2="929.024902" style="stroke: green; stroke-width: 0.200000"/>
   <line x1="1052.959717" y1="928.024902" x2="1008.658081" y2="928.024902" style="stroke: green; stroke-width: 0.200000"/>
   <line x1="1052.959717" y1="927.024902" x2="1009.504028" y2="927.024902" style="stroke: green; stroke-width: 0.200000"/>
   <line x1="1052.959717" y1="926.024902" x2="1010.482666" y2="926.024902" style="stroke: green; stroke-width: 0.200000"/>
   <line x1="1052.959717" y1="925.024963" x2="1011.469971" y2="925.024963" style="stroke: green; stroke-width: 0.200000"/>
   <line x1="1052.959717" y1="924.024902" x2="1012.457336" y2="924.024902" style="stroke: green; stroke-width: 0.200000"/>
   <line x1="1052.959717" y1="923.024902" x2="1013.444702" y2="923.024902" style="stroke: green; stroke-width: 0.200000"/>
   <line x1="1052.959717" y1="922.024902" x2="1014.427734" y2="922.024902" style="stroke: green; stroke-width: 0.200000"/>
   <line x1="1052.959717" y1="921.024902" x2="1015.405212" y2="921.024902" style="stroke: green; stroke-width: 0.200000"/>
   <line x1="1052.959717" y1="920.024963" x2="1016.540222" y2="920.024963" style="stroke: green; stroke-width: 0.200000"/>
   <line x1="1052.959717" y1="919.024902" x2="1017.698669" y2="919.024902" style="stroke: green; stroke-width: 0.200000"/>
   <line x1="1052.959717" y1="918.024902" x2="1018.903076" y2="918.024902" style="stroke: green; stroke-width: 0.200000"/>
   <line x1="1052.552246" y1="917.024902" x2="1020.207458" y2="917.024902" style="stroke: green; stroke-width: 0.200000"/>
   <line x1="1051.554565" y1="916.024902" x2="1021.517639" y2="916.024902" style="stroke: green; stroke-width: 0.200000"/>
   <line x1="1050.556885" y1="915.024963" x2="1022.985901" y2="915.024963" style="stroke: green; stroke-width: 0.200000"/>
   <line x1="1049.519287" y1="914.024902" x2="1024.484985" y2="914.024902" style="stroke: green; stroke-width: 0.200000"/>
   <line x1="1048.431152" y1="913.024902" x2="1026.046265" y2="913.024902" style="stroke: green; stroke-width: 0.200000"/>
   <line x1="1047.342896" y1="912.024902" x2="1028.093994" y2="912.024902" style="stroke: green; stroke-width: 0.200000"/>
   <line x1="1046.254761" y1="911.024902" x2="1038.160889" y2="911.024902" style="stroke: green; stroke-width: 0.200000"/>
   <line x1="1045.094482" y1="910.024963" x2="1038.170288" y2="910.024963" style="stroke: green; stroke-width: 0.200000"/>
   <line x1="1043.870605" y1="909.024902" x2="1038.179565" y2="909.024902" style="stroke: green; stroke-width: 0.200000"/>
   <line x1="1042.545654" y1="908.024902" x2="1038.188965" y2="908.024902" style="stroke: green; stroke-width: 0.200000"/>
   <line x1="1041.191650" y1="907.024902" x2="1038.198364" y2="907.024902" style="stroke: green; stroke-width: 0.200000"/>
   <line x1="1039.607910" y1="906.024902" x2="1038.207764" y2="906.024902" style="stroke: green; stroke-width: 0.200000"/>
   <line x1="1085.545288" y1="955.024963" x2="1053.059692" y2="955.024963" style="stroke: green; stroke-width: 0.200000"/>
   <line x1="1084.767578" y1="954.024902" x2="1053.059692" y2="954.024902" style="stroke: green; stroke-width: 0.200000"/>
   <line x1="1083.989746" y1="953.024902" x2="1053.059692" y2="953.024902" style="stroke: green; stroke-width: 0.200000"/>
   <line x1="1083.187988" y1="952.024902" x2="1053.059692" y2="952.024902" style="stroke: green; stroke-width: 0.200000"/>
   <line x1="1082.379639" y1="951.024902" x2="1053.059692" y2="951.024902" style="stroke: green; stroke-width: 0.200000"/>
   <line x1="1081.563843" y1="950.024963" x2="1053.059692" y2="950.024963" style="stroke: green; stroke-width: 0.200000"/>
   <line x1="1080.743286" y1="949.024902" x2="1053.059692" y2="949.024902" style="stroke: green; stroke-width: 0.200000"/>
   <line x1="1079.922852" y1="948.024902" x2="1053.059692" y2="948.024902" style="stroke: green; stroke-width: 0.200000"/>
   <line x1="1079.100464" y1="947.024902" x2="1053.059692" y2="947.024902" style="stroke: green; stroke-width: 0.200000"/>
   <line x1="1078.258667" y1="946.024902" x2="1053.059692" y2="946.024902" style="stroke: green; stroke-width: 0.200000"/>
   <line x1="1077.416992" y1="945.024963" x2="1053.059692" y2="945.024963" style="stroke: green; stroke-width: 0.200000"/>
   <line x1="1076.574951" y1="944.024902" x2="1053.059692" y2="944.024902" style="stroke: green; stroke-width: 0.200000"/>
   <line x1="1075.722412" y1="943.024902" x2="1053.059692" y2="943.024902" style="stroke: green; stroke-width: 0.200000"/>
   <line x1="1074.869873" y1="942.024902" x2="1053.059692" y2="942.024902" style="stroke: green; stroke-width: 0.200000"/>
   <line x1="1074.017456" y1="941.024902" x2="1053.059692" y2="941.024902" style="stroke: green; stroke-width: 0.200000"/>
   <line x1="1073.164795" y1="940.024963" x2="1053.059692" y2="940.024963" style="stroke: green; stroke-width: 0.200000"/>
   <line x1="1072.311279" y1="939.024902" x2="1053.059692" y2="939.024902" style="stroke: green; stroke-width: 0.200000"/>
   <line x1="1071.447754" y1="938.024902" x2="1053.059692" y2="938.024902" style="stroke: green; stroke-width: 0.200000"/>
   <line x1="1070.584106" y1="937.024902" x2="1053.059692" y2="937.024902" style="stroke: green; stroke-width: 0.200000"/>
   <line x1="1069.720459" y1="936.024902" x2="1053.059692" y2="936.024902" style="stroke: green; stroke-width: 0.200000"/>
   <line x1="1068.851074" y1="935.024963" x2="1053.059692" y2="935.024963" style="stroke: green; stroke-width: 0.200000"/>
   <line x1="1067.973877" y1="934.024902" x2="1053.059692" y2="934.024902" style="stroke: green; stroke-width: 0.200000"/>
   <line x1="1067.096680" y1="933.024902" x2="1053.059692" y2="933.024902" style="stroke: green; stroke-width: 0.200000"/>
   <line x1="1066.219604" y1="932.024902" x2="1053.059692" y2="932.024902" style="stroke: green; stroke-width: 0.200000"/>
   <line x1="1065.342529" y1="931.024902" x2="1053.059692" y2="931.024902" style="stroke: green; stroke-width: 0.200000"/>
   <line x1="1064.459961" y1="930.024963" x2="1053.059692" y2="930.024963" style="stroke: green; stroke-width: 0.200000"/>
   <line x1="1063.571655" y1="929.024902" x2="1053.059692" y2="929.024902" style="stroke: green; stroke-width: 0.200000"/>
   <line x1="1062.683350" y1="928.024902" x2="1053.059692" y2="928.024902" style="stroke: green; stroke-width: 0.200000"/>
   <line x1="1061.794434" y1="927.024902" x2="1053.059692" y2="927.024902" style="stroke: green; stroke-width: 0.200000"/>
   <line x1="1060.894165" y1="926.024902" x2="1053.059692" y2="926.024902" style="stroke: green; stroke-width: 0.200000"/>
   <line x1="1059.993652" y1="925.024963" x2="1053.059692" y2="925.024963" style="stroke: green; stroke-width: 0.200000"/>
   <line x1="1059.093262" y1="924.024902" x2="1053.059692" y2="924.024902" style="stroke: green; stroke-width: 0.200000"/>
   <line x1="1058.187988" y1="923.024902" x2="1053.059692" y2="923.024902" style="stroke: green; stroke-width: 0.200000"/>
   <line x1="1057.265381" y1="922.024902" x2="1053.059692" y2="922.024902" style="stroke: green; stroke-width: 0.200000"/>
   <line x1="1056.342896" y1="921.024902" x2="1053.059692" y2="921.024902" style="stroke: green; stroke-width: 0.200000"/>
   <line x1="1055.407593" y1="920.024963" x2="1053.059692" y2="920.024963" style="stroke: green; stroke-width: 0.200000"/>
   <line x1="1054.471313" y1="919.024902" x2="1053.059692" y2="919.024902" style="stroke: green; stroke-width: 0.200000"/>
   <line x1="1053.535034" y1="918.024902" x2="1053.059692" y2="918.024902" style="stroke: green; stroke-width: 0.200000"/>
   <line x1="1052.959717" y1="1005.024963" x2="1046.276367" y2="1005.024963" style="stroke: green; stroke-width: 0.200000"/>
   <line x1="1052.959717" y1="1004.024902" x2="1044.110352" y2="1004.024902" style="stroke: green; stroke-width: 0.200000"/>
   <line x1="1052.959717" y1="1003.024902" x2="1042.281982" y2="1003.024902" style="stroke: green; stroke-width: 0.200000"/>
   <line x1="1052.959717" y1="1002.024902" x2="1040.572998" y2="1002.024902" style="stroke: green; stroke-width: 0.200000"/>
   <line x1="1052.959717" y1="1001.024902" x2="1039.083130" y2="1001.024902" style="stroke: green; stroke-width: 0.200000"/>
   <line x1="1052.959717" y1="1000.024963" x2="1037.593262" y2="1000.024963" style="stroke: green; stroke-width: 0.200000"/>
   <line x1="1052.959717" y1="999.024902" x2="1036.143066" y2="999.024902" style="stroke: green; stroke-width: 0.200000"/>
   <line x1="1052.959717" y1="998.024902" x2="1034.859131" y2="998.024902" style="stroke: green; stroke-width: 0.200000"/>
   <line x1="1052.959717" y1="997.024902" x2="1033.614380" y2="997.024902" style="stroke: green; stroke-width: 0.200000"/>
   <line x1="1052.959717" y1="996.024902" x2="1032.295410" y2="996.024902" style="stroke: green; stroke-width: 0.200000"/>
   <line x1="1052.959717" y1="995.024963" x2="1030.976318" y2="995.024963" style="stroke: green; stroke-width: 0.200000"/>
   <line x1="1052.959717" y1="994.024902" x2="1029.657349" y2="994.024902" style="stroke: green; stroke-width: 0.200000"/>
   <line x1="1052.959717" y1="993.024902" x2="1028.338379" y2="993.024902" style="stroke: green; stroke-width: 0.200000"/>
   <line x1="1052.959717" y1="992.024902" x2="1027.364990" y2="992.024902" style="stroke: green; stroke-width: 0.200000"/>
   <line x1="1052.959717" y1="991.024902" x2="1026.542480" y2="991.024902" style="stroke: green; stroke-width: 0.200000"/>
   <line x1="1052.959717" y1="990.024963" x2="1025.719971" y2="990.024963" style="stroke: green; stroke-width: 0.200000"/>
   <line x1="1052.959717" y1="989.024902" x2="1024.897339" y2="989.024902" style="stroke: green; stroke-width: 0.200000"/>
   <line x1="1052.959717" y1="988.024902" x2="1024.074707" y2="988.024902" style="stroke: green; stroke-width: 0.200000"/>
   <line x1="1052.959717" y1="987.024902" x2="1023.252075" y2="987.024902" style="stroke: green; stroke-width: 0.200000"/>
   <line x1="1052.959717" y1="986.024902" x2="1022.429565" y2="986.024902" style="stroke: green; stroke-width: 0.200000"/>
   <line x1="1052.959717" y1="985.024963" x2="1021.606995" y2="985.024963" style="stroke: green; stroke-width: 0.200000"/>
   <line x1="1052.959717" y1="984.024902" x2="1020.768677" y2="984.024902" style="stroke: green; stroke-width: 0.200000"/>
   <line x1="1052.959717" y1="983.024902" x2="1019.948120" y2="983.024902" style="stroke: green; stroke-width: 0.200000"/>
   <line x1="1052.959717" y1="982.024902" x2="1019.127563" y2="982.024902" style="stroke: green; stroke-width: 0.200000"/>
   <line x1="1052.959717" y1="981.024902" x2="1018.363953" y2="981.024902" style="stroke: green; stroke-width: 0.200000"/>
   <line x1="1052.959717" y1="980.024963" x2="1017.646240" y2="980.024963" style="stroke: green; stroke-width: 0.200000"/>
   <line x1="1052.959717" y1="979.024902" x2="1016.916870" y2="979.024902" style="stroke: green; stroke-width: 0.200000"/>
   <line x1="1052.959717" y1="978.024902" x2="1016.189331" y2="978.024902" style="stroke: green; stroke-width: 0.200000"/>
   <line x1="1052.959717" y1="977.024902" x2="1015.469604" y2="977.024902" style="stroke: green; stroke-width: 0.200000"/>
   <line x1="1052.959717" y1="976.024902" x2="1014.749817" y2="976.024902" style="stroke: green; stroke-width: 0.200000"/>
   <line x1="1052.959717" y1="975.024963" x2="1014.052246" y2="975.024963" style="stroke: green; stroke-width: 0.200000"/>
   <line x1="1052.959717" y1="974.024902" x2="1013.369995" y2="974.024902" style="stroke: green; stroke-width: 0.200000"/>
   <line x1="1052.959717" y1="973.024902" x2="1012.730957" y2="973.024902" style="stroke: green; stroke-width: 0.200000"/>
   <line x1="1052.959717" y1="972.024902" x2="1012.098877" y2="972.024902" style="stroke: green; stroke-width: 0.200000"/>
   <line x1="1052.959717" y1="971.024902" x2="1011.533142" y2="971.024902" style="stroke: green; stroke-width: 0.200000"/>
   <line x1="1052.959717" y1="970.024963" x2="1010.967407" y2="970.024963" style="stroke: green; stroke-width: 0.200000"/>
   <line x1="1052.959717" y1="969.024902" x2="1010.401672" y2="969.024902" style="stroke: green; stroke-width: 0.200000"/>
   <line x1="1052.959717" y1="968.024902" x2="1009.835938" y2="968.024902" style="stroke: green; stroke-width: 0.200000"/>
   <line x1="1052.959717" y1="967.024902" x2="1009.355164" y2="967.024902" style="stroke: green; stroke-width: 0.200000"/>
   <line x1="1052.959717" y1="966.024902" x2="1008.909668" y2="966.024902" style="stroke: green; stroke-width: 0.200000"/>
   <line x1="1052.959717" y1="965.024963" x2="1008.474243" y2="965.024963" style="stroke: green; stroke-width: 0.200000"/>
   <line x1="1052.959717" y1="964.024902" x2="1008.038940" y2="964.024902" style="stroke: green; stroke-width: 0.200000"/>
   <line x1="1052.959717" y1="963.024902" x2="1007.603516" y2="963.024902" style="stroke: green; stroke-width: 0.200000"/>
   <line x1="1052.959717" y1="962.024902" x2="1007.191833" y2="962.024902" style="stroke: green; stroke-width: 0.200000"/>
   <line x1="1052.959717" y1="961.024902" x2="1006.870972" y2="961.024902" style="stroke: green; stroke-width: 0.200000"/>
   <line x1="1052.959717" y1="960.024963" x2="1006.549988" y2="960.024963" style="stroke: green; stroke-width: 0.200000"/>
   <line x1="1052.959717" y1="959.024902" x2="1006.246277" y2="959.024902" style="stroke: green; stroke-width: 0.200000"/>
   <line x1="1052.959717" y1="958.024902" x2="1005.954651" y2="958.024902" style="stroke: green; stroke-width: 0.200000"/>
   <line x1="1052.959717" y1="957.024902" x2="1005.663086" y2="957.024902" style="stroke: green; stroke-width: 0.200000"/>
   <line x1="1052.959717" y1="956.024902" x2="1005.371460" y2="956.024902" style="stroke: green; stroke-width: 0.200000"/>
   <line x1="1076.916260" y1="1005.024963" x2="1053.059692" y2="1005.024963" style="stroke: green; stroke-width: 0.200000"/>
   <line x1="1077.931763" y1="1004.024902" x2="1053.059692" y2="1004.024902" style="stroke: green; stroke-width: 0.200000"/>
   <line x1="1078.937134" y1="1003.024902" x2="1053.059692" y2="1003.024902" style="stroke: green; stroke-width: 0.200000"/>
   <line x1="1079.942505" y1="1002.024902" x2="1053.059692" y2="1002.024902" style="stroke: green; stroke-width: 0.200000"/>
   <line x1="1080.950195" y1="1001.024902" x2="1053.059692" y2="1001.024902" style="stroke: green; stroke-width: 0.200000"/>
   <line x1="1081.969727" y1="1000.024963" x2="1053.059692" y2="1000.024963" style="stroke: green; stroke-width: 0.200000"/>
   <line x1="1082.876953" y1="999.024902" x2="1053.059692" y2="999.024902" style="stroke: green; stroke-width: 0.200000"/>
   <line x1="1083.680908" y1="998.024902" x2="1053.059692" y2="998.024902" style="stroke: green; stroke-width: 0.200000"/>
   <line x1="1084.484985" y1="997.024902" x2="1053.059692" y2="997.024902" style="stroke: green; stroke-width: 0.200000"/>
   <line x1="1085.291504" y1="996.024902" x2="1053.059692" y2="996.024902" style="stroke: green; stroke-width: 0.200000"/>
   <line x1="1086.104614" y1="995.024963" x2="1053.059692" y2="995.024963" style="stroke: green; stroke-width: 0.200000"/>
   <line x1="1086.917603" y1="994.024902" x2="1053.059692" y2="994.024902" style="stroke: green; stroke-width: 0.200000"/>
   <line x1="1087.654785" y1="993.024902" x2="1053.059692" y2="993.024902" style="stroke: green; stroke-width: 0.200000"/>
   <line x1="1088.315918" y1="992.024902" x2="1053.059692" y2="992.024902" style="stroke: green; stroke-width: 0.200000"/>
   <line x1="1088.964355" y1="991.024902" x2="1053.059692" y2="991.024902" style="stroke: green; stroke-width: 0.200000"/>
   <line x1="1089.603149" y1="990.024963" x2="1053.059692" y2="990.024963" style="stroke: green; stroke-width: 0.200000"/>
   <line x1="1090.167969" y1="989.024902" x2="1053.059692" y2="989.024902" style="stroke: green; stroke-width: 0.200000"/>
   <line x1="1090.507568" y1="988.024902" x2="1053.059692" y2="988.024902" style="stroke: green; stroke-width: 0.200000"/>
   <line x1="1090.688965" y1="987.024902" x2="1053.059692" y2="987.024902" style="stroke: green; stroke-width: 0.200000"/>
   <line x1="1090.647461" y1="986.024902" x2="1053.059692" y2="986.024902" style="stroke: green; stroke-width: 0.200000"/>
   <line x1="1090.614258" y1="985.024963" x2="1053.059692" y2="985.024963" style="stroke: green; stroke-width: 0.200000"/>
   <line x1="1090.594604" y1="984.024902" x2="1053.059692" y2="984.024902" style="stroke: green; stroke-width: 0.200000"/>
   <line x1="1090.574829" y1="983.024902" x2="1053.059692" y2="983.024902" style="stroke: green; stroke-width: 0.200000"/>
   <line x1="1090.555176" y1="982.024902" x2="1053.059692" y2="982.024902" style="stroke: green; stroke-width: 0.200000"/>
   <line x1="1090.535645" y1="981.024902" x2="1053.059692" y2="981.024902" style="stroke: green; stroke-width: 0.200000"/>
   <line x1="1090.515869" y1="980.024963" x2="1053.059692" y2="980.024963" style="stroke: green; stroke-width: 0.200000"/>
   <line x1="1090.496094" y1="979.024902" x2="1053.059692" y2="979.024902" style="stroke: green; stroke-width: 0.200000"/>
   <line x1="1090.476318" y1="978.024902" x2="1053.059692" y2="978.024902" style="stroke: green; stroke-width: 0.200000"/>
   <line x1="1090.456543" y1="977.024902" x2="1053.059692" y2="977.024902" style="stroke: green; stroke-width: 0.200000"/>
   <line x1="1090.436768" y1="976.024902" x2="1053.059692" y2="976.024902" style="stroke: green; stroke-width: 0.200000"/>
   <line x1="1097.895752" y1="975.024963" x2="1053.059692" y2="975.024963" style="stroke: green; stroke-width: 0.200000"/>
   <line x1="1097.454590" y1="974.024902" x2="1053.059692" y2="974.024902" style="stroke: green; stroke-width: 0.200000"/>
   <line x1="1097.013184" y1="973.024902" x2="1053.059692" y2="973.024902" style="stroke: green; stroke-width: 0.200000"/>
   <line x1="1096.552368" y1="972.024902" x2="1053.059692" y2="972.024902" style="stroke: green; stroke-width: 0.200000"/>
   <line x1="1096.056274" y1="971.024902" x2="1053.059692" y2="971.024902" style="stroke: green; stroke-width: 0.200000"/>
   <line x1="1095.560303" y1="970.024963" x2="1053.059692" y2="970.024963" style="stroke: green; stroke-width: 0.200000"/>
   <line x1="1095.005005" y1="969.024902" x2="1053.059692" y2="969.024902" style="stroke: green; stroke-width: 0.200000"/>
   <line x1="1094.409302" y1="968.024902" x2="1053.059692" y2="968.024902" style="stroke: green; stroke-width: 0.200000"/>
   <line x1="1093.813354" y1="967.024902" x2="1053.059692" y2="967.024902" style="stroke: green; stroke-width: 0.200000"/>
   <line x1="1093.217529" y1="966.024902" x2="1053.059692" y2="966.024902" style="stroke: green; stroke-width: 0.200000"/>
   <line x1="1092.593872" y1="965.024963" x2="1053.059692" y2="965.024963" style="stroke: green; stroke-width: 0.200000"/>
   <line x1="1091.938965" y1="964.024902" x2="1053.059692" y2="964.024902" style="stroke: green; stroke-width: 0.200000"/>
   <line x1="1091.284058" y1="963.024902" x2="1053.059692" y2="963.024902" style="stroke: green; stroke-width: 0.200000"/>
   <line x1="1090.629150" y1="962.024902" x2="1053.059692" y2="962.024902" style="stroke: green; stroke-width: 0.200000"/>
   <line x1="1089.937866" y1="961.024902" x2="1053.059692" y2="961.024902" style="stroke: green; stroke-width: 0.200000"/>
   <line x1="1089.236328" y1="960.024963" x2="1053.059692" y2="960.024963" style="stroke: green; stroke-width: 0.200000"/>
   <line x1="1088.534912" y1="959.024902" x2="1053.059692" y2="959.024902" style="stroke: green; stroke-width: 0.200000"/>
   <line x1="1087.803467" y1="958.024902" x2="1053.059692" y2="958.024902" style="stroke: green; stroke-width: 0.200000"/>
   <line x1="1087.056152" y1="957.024902" x2="1053.059692" y2="957.024902" style="stroke: green; stroke-width: 0.200000"/>
   <line x1="1086.308716" y1="956.024902" x2="1053.059692" y2="956.024902" style="stroke: green; stroke-width: 0.200000"/>
   <line x1="1052.959717" y1="1007.024902" x2="1051.182007" y2="1007.024902" style="stroke: green; stroke-width: 0.200000"/>
   <line x1="1052.959717" y1="1006.024902" x2="1048.633057" y2="1006.024902" style="stroke: green; stroke-width: 0.200000"/>
   <line x1="1070.528687" y1="1010.024963" x2="1063.137939" y2="1010.024963" style="stroke: green; stroke-width: 0.200000"/>
   <line x1="1072.100952" y1="1009.024902" x2="1058.113770" y2="1009.024902" style="stroke: green; stroke-width: 0.200000"/>
   <line x1="1073.316406" y1="1008.024902" x2="1054.708130" y2="1008.024902" style="stroke: green; stroke-width: 0.200000"/>
   <line x1="1074.516357" y1="1007.024902" x2="1053.059692" y2="1007.024902" style="stroke: green; stroke-width: 0.200000"/>
   <line x1="1075.716309" y1="1006.024902" x2="1053.059692" y2="1006.024902" style="stroke: green; stroke-width: 0.200000"/>
   <line x1="1000.045654" y1="1088.014404" x2="981.647461" y2="1088.014404" style="stroke: green; stroke-width: 0.200000"/>
   <line x1="1001.156982" y1="1087.014282" x2="983.139404" y2="1087.014282" style="stroke: green; stroke-width: 0.200000"/>
   <line x1="1002.265259" y1="1086.014282" x2="984.571533" y2="1086.014282" style="stroke: green; stroke-width: 0.200000"/>
   <line x1="1003.373535" y1="1085.014404" x2="986.003418" y2="1085.014404" style="stroke: green; stroke-width: 0.200000"/>
   <line x1="1004.441467" y1="1084.014404" x2="987.393311" y2="1084.014404" style="stroke: green; stroke-width: 0.200000"/>
   <line x1="1005.190491" y1="1083.014404" x2="988.605835" y2="1083.014404" style="stroke: green; stroke-width: 0.200000"/>
   <line x1="1005.982910" y1="1082.014282" x2="989.810791" y2="1082.014282" style="stroke: green; stroke-width: 0.200000"/>
   <line x1="1006.488525" y1="1081.014282" x2="991.015747" y2="1081.014282" style="stroke: green; stroke-width: 0.200000"/>
   <line x1="1006.971069" y1="1080.014404" x2="992.202271" y2="1080.014404" style="stroke: green; stroke-width: 0.200000"/>
   <line x1="1007.293945" y1="1079.014404" x2="993.328918" y2="1079.014404" style="stroke: green; stroke-width: 0.200000"/>
   <line x1="1007.530212" y1="1078.014404" x2="994.433838" y2="1078.014404" style="stroke: green; stroke-width: 0.200000"/>
   <line x1="1007.734375" y1="1077.014282" x2="995.461060" y2="1077.014282" style="stroke: green; stroke-width: 0.200000"/>
   <line x1="1007.757812" y1="1076.014282" x2="996.330017" y2="1076.014282" style="stroke: green; stroke-width: 0.200000"/>
   <line x1="1007.796936" y1="1075.014404" x2="996.706482" y2="1075.014404" style="stroke: green; stroke-width: 0.200000"/>
   <line x1="1007.798096" y1="1074.014404" x2="996.775024" y2="1074.014404" style="stroke: green; stroke-width: 0.200000"/>
   <line x1="1007.714966" y1="1073.014404" x2="996.742188" y2="1073.014404" style="stroke: green; stroke-width: 0.200000"/>
   <line x1="1007.616089" y1="1072.014282" x2="996.614258" y2="1072.014282" style="stroke: green; stroke-width: 0.200000"/>
   <line x1="1007.473267" y1="1071.014282" x2="996.441772" y2="1071.014282" style="stroke: green; stroke-width: 0.200000"/>
   <line x1="1007.330383" y1="1070.014404" x2="996.269226" y2="1070.014404" style="stroke: green; stroke-width: 0.200000"/>
   <line x1="1007.195984" y1="1069.014404" x2="996.096680" y2="1069.014404" style="stroke: green; stroke-width: 0.200000"/>
   <line x1="1007.074341" y1="1068.014404" x2="995.832153" y2="1068.014404" style="stroke: green; stroke-width: 0.200000"/>
   <line x1="1006.952637" y1="1067.014282" x2="995.557129" y2="1067.014282" style="stroke: green; stroke-width: 0.200000"/>
   <line x1="1006.784668" y1="1066.014282" x2="995.282043" y2="1066.014282" style="stroke: green; stroke-width: 0.200000"/>
   <line x1="1006.589966" y1="1065.014404" x2="995.007019" y2="1065.014404" style="stroke: green; stroke-width: 0.200000"/>
   <line x1="1006.316223" y1="1064.014404" x2="994.732178" y2="1064.014404" style="stroke: green; stroke-width: 0.200000"/>
   <line x1="1006.042419" y1="1063.014404" x2="994.346375" y2="1063.014404" style="stroke: green; stroke-width: 0.200000"/>
   <line x1="1005.768677" y1="1062.014282" x2="993.928955" y2="1062.014282" style="stroke: green; stroke-width: 0.200000"/>
   <line x1="1005.494934" y1="1061.014282" x2="993.511475" y2="1061.014282" style="stroke: green; stroke-width: 0.200000"/>
   <line x1="1005.221191" y1="1060.014404" x2="993.094116" y2="1060.014404" style="stroke: green; stroke-width: 0.200000"/>
   <line x1="1004.947449" y1="1059.014404" x2="992.676697" y2="1059.014404" style="stroke: green; stroke-width: 0.200000"/>
   <line x1="1004.570007" y1="1058.014404" x2="992.169189" y2="1058.014404" style="stroke: green; stroke-width: 0.200000"/>
   <line x1="1004.163879" y1="1057.014282" x2="991.589111" y2="1057.014282" style="stroke: green; stroke-width: 0.200000"/>
   <line x1="1003.694519" y1="1056.014282" x2="991.035522" y2="1056.014282" style="stroke: green; stroke-width: 0.200000"/>
   <line x1="1003.225159" y1="1055.014404" x2="990.487183" y2="1055.014404" style="stroke: green; stroke-width: 0.200000"/>
   <line x1="1002.770874" y1="1054.014404" x2="989.861450" y2="1054.014404" style="stroke: green; stroke-width: 0.200000"/>
   <line x1="1002.353394" y1="1053.014404" x2="989.185852" y2="1053.014404" style="stroke: green; stroke-width: 0.200000"/>
   <line x1="1001.823730" y1="1052.014282" x2="988.510193" y2="1052.014282" style="stroke: green; stroke-width: 0.200000"/>
   <line x1="1001.184143" y1="1051.014282" x2="987.834595" y2="1051.014282" style="stroke: green; stroke-width: 0.200000"/>
   <line x1="1000.289978" y1="1050.014404" x2="987.159058" y2="1050.014404" style="stroke: green; stroke-width: 0.200000"/>
   <line x1="999.346313" y1="1049.014404" x2="986.483459" y2="1049.014404" style="stroke: green; stroke-width: 0.200000"/>
   <line x1="998.421753" y1="1048.014404" x2="985.807800" y2="1048.014404" style="stroke: green; stroke-width: 0.200000"/>
   <line x1="997.497253" y1="1047.014282" x2="985.132202" y2="1047.014282" style="stroke: green; stroke-width: 0.200000"/>
   <line x1="996.572815" y1="1046.014282" x2="984.456665" y2="1046.014282" style="stroke: green; stroke-width: 0.200000"/>
   <line x1="995.640930" y1="1045.014404" x2="983.781067" y2="1045.014404" style="stroke: green; stroke-width: 0.200000"/>
   <line x1="994.690796" y1="1044.014404" x2="983.105408" y2="1044.014404" style="stroke: green; stroke-width: 0.200000"/>
   <line x1="993.740601" y1="1043.014404" x2="983.836548" y2="1043.014404" style="stroke: green; stroke-width: 0.200000"/>
   <line x1="992.772095" y1="1042.014282" x2="985.098267" y2="1042.014282" style="stroke: green; stroke-width: 0.200000"/>
   <line x1="991.780029" y1="1041.014282" x2="986.359985" y2="1041.014282" style="stroke: green; stroke-width: 0.200000"/>
   <line x1="990.788025" y1="1040.014404" x2="987.621704" y2="1040.014404" style="stroke: green; stroke-width: 0.200000"/>
   <line x1="989.796082" y1="1039.014404" x2="988.883423" y2="1039.014404" style="stroke: green; stroke-width: 0.200000"/>
   <line x1="980.626526" y1="1101.014282" x2="965.100952" y2="1101.014282" style="stroke: green; stroke-width: 0.200000"/>
   <line x1="983.321228" y1="1100.014404" x2="964.003357" y2="1100.014404" style="stroke: green; stroke-width: 0.200000"/>
   <line x1="985.127075" y1="1099.014404" x2="963.977173" y2="1099.014404" style="stroke: green; stroke-width: 0.200000"/>
   <line x1="986.743164" y1="1098.014404" x2="963.951050" y2="1098.014404" style="stroke: green; stroke-width: 0.200000"/>
   <line x1="988.334045" y1="1097.014282" x2="963.924866" y2="1097.014282" style="stroke: green; stroke-width: 0.200000"/>
   <line x1="989.774719" y1="1096.014282" x2="963.898682" y2="1096.014282" style="stroke: green; stroke-width: 0.200000"/>
   <line x1="991.169800" y1="1095.014404" x2="963.872559" y2="1095.014404" style="stroke: green; stroke-width: 0.200000"/>
   <line x1="992.565002" y1="1094.014404" x2="963.846375" y2="1094.014404" style="stroke: green; stroke-width: 0.200000"/>
   <line x1="993.960083" y1="1093.014404" x2="963.820190" y2="1093.014404" style="stroke: green; stroke-width: 0.200000"/>
   <line x1="995.253357" y1="1092.014282" x2="972.966431" y2="1092.014282" style="stroke: green; stroke-width: 0.200000"/>
   <line x1="996.467163" y1="1091.014282" x2="976.650452" y2="1091.014282" style="stroke: green; stroke-width: 0.200000"/>
   <line x1="997.659973" y1="1090.014404" x2="978.316101" y2="1090.014404" style="stroke: green; stroke-width: 0.200000"/>
   <line x1="998.852783" y1="1089.014404" x2="979.981812" y2="1089.014404" style="stroke: green; stroke-width: 0.200000"/>
   <line x1="898.348694" y1="1054.124634" x2="896.084290" y2="1054.124634" style="stroke: green; stroke-width: 0.200000"/>
   <line x1="902.741394" y1="1053.124634" x2="895.522766" y2="1053.124634" style="stroke: green; stroke-width: 0.200000"/>
   <line x1="902.696472" y1="1052.124634" x2="894.961182" y2="1052.124634" style="stroke: green; stroke-width: 0.200000"/>
   <line x1="902.651489" y1="1051.124634" x2="894.458496" y2="1051.124634" style="stroke: green; stroke-width: 0.200000"/>
   <line x1="902.606567" y1="1050.124634" x2="893.967041" y2="1050.124634" style="stroke: green; stroke-width: 0.200000"/>
   <line x1="902.560913" y1="1049.124634" x2="893.577637" y2="1049.124634" style="stroke: green; stroke-width: 0.200000"/>
   <line x1="902.515930" y1="1048.124634" x2="893.223389" y2="1048.124634" style="stroke: green; stroke-width: 0.200000"/>
   <line x1="902.471008" y1="1047.124634" x2="892.898254" y2="1047.124634" style="stroke: green; stroke-width: 0.200000"/>
   <line x1="902.426025" y1="1046.124634" x2="892.617432" y2="1046.124634" style="stroke: green; stroke-width: 0.200000"/>
   <line x1="902.381226" y1="1045.124634" x2="892.425232" y2="1045.124634" style="stroke: green; stroke-width: 0.200000"/>
   <line x1="902.336304" y1="1044.124634" x2="892.233032" y2="1044.124634" style="stroke: green; stroke-width: 0.200000"/>
   <line x1="902.331543" y1="1043.124634" x2="892.107666" y2="1043.124634" style="stroke: green; stroke-width: 0.200000"/>
   <line x1="902.521606" y1="1042.124634" x2="892.101318" y2="1042.124634" style="stroke: green; stroke-width: 0.200000"/>
   <line x1="903.068787" y1="1041.124634" x2="892.105713" y2="1041.124634" style="stroke: green; stroke-width: 0.200000"/>
   <line x1="903.639587" y1="1040.124634" x2="892.258789" y2="1040.124634" style="stroke: green; stroke-width: 0.200000"/>
   <line x1="904.214111" y1="1039.124634" x2="892.414246" y2="1039.124634" style="stroke: green; stroke-width: 0.200000"/>
   <line x1="904.817566" y1="1038.124634" x2="892.706238" y2="1038.124634" style="stroke: green; stroke-width: 0.200000"/>
   <line x1="905.394409" y1="1037.124634" x2="893.100952" y2="1037.124634" style="stroke: green; stroke-width: 0.200000"/>
   <line x1="906.021057" y1="1036.124634" x2="893.652588" y2="1036.124634" style="stroke: green; stroke-width: 0.200000"/>
   <line x1="906.712585" y1="1035.124634" x2="894.222107" y2="1035.124634" style="stroke: green; stroke-width: 0.200000"/>
   <line x1="907.424072" y1="1034.124634" x2="894.791748" y2="1034.124634" style="stroke: green; stroke-width: 0.200000"/>
   <line x1="908.114014" y1="1033.124634" x2="895.363220" y2="1033.124634" style="stroke: green; stroke-width: 0.200000"/>
   <line x1="908.800964" y1="1032.124634" x2="895.975098" y2="1032.124634" style="stroke: green; stroke-width: 0.200000"/>
   <line x1="909.586121" y1="1031.124634" x2="896.586975" y2="1031.124634" style="stroke: green; stroke-width: 0.200000"/>
   <line x1="910.399902" y1="1030.124634" x2="897.198853" y2="1030.124634" style="stroke: green; stroke-width: 0.200000"/>
   <line x1="911.218750" y1="1029.124634" x2="897.800171" y2="1029.124634" style="stroke: green; stroke-width: 0.200000"/>
   <line x1="912.033997" y1="1028.124634" x2="898.500977" y2="1028.124634" style="stroke: green; stroke-width: 0.200000"/>
   <line x1="912.939697" y1="1027.124634" x2="899.209290" y2="1027.124634" style="stroke: green; stroke-width: 0.200000"/>
   <line x1="913.870300" y1="1026.124634" x2="899.917603" y2="1026.124634" style="stroke: green; stroke-width: 0.200000"/>
   <line x1="914.812683" y1="1025.124634" x2="900.625916" y2="1025.124634" style="stroke: green; stroke-width: 0.200000"/>
   <line x1="915.755066" y1="1024.124634" x2="901.401855" y2="1024.124634" style="stroke: green; stroke-width: 0.200000"/>
   <line x1="916.783508" y1="1023.124634" x2="902.220398" y2="1023.124634" style="stroke: green; stroke-width: 0.200000"/>
   <line x1="917.835632" y1="1022.124634" x2="903.038940" y2="1022.124634" style="stroke: green; stroke-width: 0.200000"/>
   <line x1="918.922668" y1="1021.124634" x2="903.857483" y2="1021.124634" style="stroke: green; stroke-width: 0.200000"/>
   <line x1="920.009644" y1="1020.124634" x2="904.742920" y2="1020.124634" style="stroke: green; stroke-width: 0.200000"/>
   <line x1="921.048340" y1="1019.124695" x2="905.670898" y2="1019.124695" style="stroke: green; stroke-width: 0.200000"/>
   <line x1="942.096436" y1="1018.124634" x2="939.111328" y2="1018.124634" style="stroke: green; stroke-width: 0.200000"/>
   <line x1="922.201782" y1="1018.124634" x2="906.598999" y2="1018.124634" style="stroke: green; stroke-width: 0.200000"/>
   <line x1="942.096436" y1="1017.124634" x2="930.462646" y2="1017.124634" style="stroke: green; stroke-width: 0.200000"/>
   <line x1="924.445190" y1="1017.124634" x2="907.526917" y2="1017.124634" style="stroke: green; stroke-width: 0.200000"/>
   <line x1="942.096436" y1="1016.124634" x2="908.546692" y2="1016.124634" style="stroke: green; stroke-width: 0.200000"/>
   <line x1="942.096436" y1="1015.124634" x2="909.580078" y2="1015.124634" style="stroke: green; stroke-width: 0.200000"/>
   <line x1="942.096436" y1="1014.124695" x2="910.613464" y2="1014.124695" style="stroke: green; stroke-width: 0.200000"/>
   <line x1="942.096436" y1="1013.124634" x2="911.666565" y2="1013.124634" style="stroke: green; stroke-width: 0.200000"/>
   <line x1="942.096436" y1="1012.124634" x2="912.809204" y2="1012.124634" style="stroke: green; stroke-width: 0.200000"/>
   <line x1="942.096436" y1="1011.124634" x2="913.951782" y2="1011.124634" style="stroke: green; stroke-width: 0.200000"/>
   <line x1="942.096436" y1="1010.124634" x2="915.171875" y2="1010.124634" style="stroke: green; stroke-width: 0.200000"/>
   <line x1="942.096436" y1="1009.124695" x2="916.609497" y2="1009.124695" style="stroke: green; stroke-width: 0.200000"/>
   <line x1="942.096436" y1="1008.124634" x2="918.593201" y2="1008.124634" style="stroke: green; stroke-width: 0.200000"/>
   <line x1="934.322998" y1="1007.124634" x2="921.704163" y2="1007.124634" style="stroke: green; stroke-width: 0.200000"/>
   <line x1="974.508179" y1="1034.124634" x2="972.827087" y2="1034.124634" style="stroke: green; stroke-width: 0.200000"/>
   <line x1="975.311584" y1="1033.124634" x2="971.368103" y2="1033.124634" style="stroke: green; stroke-width: 0.200000"/>
   <line x1="976.114868" y1="1032.124634" x2="969.909119" y2="1032.124634" style="stroke: green; stroke-width: 0.200000"/>
   <line x1="976.918213" y1="1031.124634" x2="968.450195" y2="1031.124634" style="stroke: green; stroke-width: 0.200000"/>
   <line x1="977.721558" y1="1030.124634" x2="966.991211" y2="1030.124634" style="stroke: green; stroke-width: 0.200000"/>
   <line x1="978.524902" y1="1029.124634" x2="965.532227" y2="1029.124634" style="stroke: green; stroke-width: 0.200000"/>
   <line x1="978.911865" y1="1028.124634" x2="964.073364" y2="1028.124634" style="stroke: green; stroke-width: 0.200000"/>
   <line x1="977.908386" y1="1027.124634" x2="962.498657" y2="1027.124634" style="stroke: green; stroke-width: 0.200000"/>
   <line x1="976.904907" y1="1026.124634" x2="960.785645" y2="1026.124634" style="stroke: green; stroke-width: 0.200000"/>
   <line x1="975.872437" y1="1025.124634" x2="959.008484" y2="1025.124634" style="stroke: green; stroke-width: 0.200000"/>
   <line x1="974.833130" y1="1024.124634" x2="957.052246" y2="1024.124634" style="stroke: green; stroke-width: 0.200000"/>
   <line x1="973.782898" y1="1023.124634" x2="954.980225" y2="1023.124634" style="stroke: green; stroke-width: 0.200000"/>
   <line x1="972.715393" y1="1022.124634" x2="952.495667" y2="1022.124634" style="stroke: green; stroke-width: 0.200000"/>
   <line x1="971.644653" y1="1021.124634" x2="950.456421" y2="1021.124634" style="stroke: green; stroke-width: 0.200000"/>
   <line x1="970.544739" y1="1020.124634" x2="947.518250" y2="1020.124634" style="stroke: green; stroke-width: 0.200000"/>
   <line x1="969.444824" y1="1019.124695" x2="944.204407" y2="1019.124695" style="stroke: green; stroke-width: 0.200000"/>
   <line x1="968.211670" y1="1018.124634" x2="942.196411" y2="1018.124634" style="stroke: green; stroke-width: 0.200000"/>
   <line x1="966.893860" y1="1017.124634" x2="942.196411" y2="1017.124634" style="stroke: green; stroke-width: 0.200000"/>
   <line x1="965.439148" y1="1016.124634" x2="942.196411" y2="1016.124634" style="stroke: green; stroke-width: 0.200000"/>
   <line x1="963.437561" y1="1015.124634" x2="942.196411" y2="1015.124634" style="stroke: green; stroke-width: 0.200000"/>
   <line x1="961.376404" y1="1014.124695" x2="942.196411" y2="1014.124695" style="stroke: green; stroke-width: 0.200000"/>
   <line x1="959.091736" y1="1013.124634" x2="942.196411" y2="1013.124634" style="stroke: green; stroke-width: 0.200000"/>
   <line x1="956.586304" y1="1012.124634" x2="942.196411" y2="1012.124634" style="stroke: green; stroke-width: 0.200000"/>
   <line x1="954.408264" y1="1011.124634" x2="942.196411" y2="1011.124634" style="stroke: green; stroke-width: 0.200000"/>
   <line x1="951.310425" y1="1010.124634" x2="942.196411" y2="1010.124634" style="stroke: green; stroke-width: 0.200000"/>
   <line x1="947.987183" y1="1009.124695" x2="942.196411" y2="1009.124695" style="stroke: green; stroke-width: 0.200000"/>
   <line x1="943.125549" y1="1008.124634" x2="942.196411" y2="1008.124634" style="stroke: green; stroke-width: 0.200000"/>
   <line x1="1004.497314" y1="951.321777" x2="994.049072" y2="951.321777" style="stroke: green; stroke-width: 0.200000"/>
   <line x1="1004.312500" y1="950.321777" x2="993.961548" y2="950.321777" style="stroke: green; stroke-width: 0.200000"/>
   <line x1="1004.127075" y1="949.321777" x2="993.874146" y2="949.321777" style="stroke: green; stroke-width: 0.200000"/>
   <line x1="1003.965332" y1="948.321777" x2="993.786621" y2="948.321777" style="stroke: green; stroke-width: 0.200000"/>
   <line x1="1003.843018" y1="947.321777" x2="993.699219" y2="947.321777" style="stroke: green; stroke-width: 0.200000"/>
   <line x1="1003.720764" y1="946.321777" x2="993.611694" y2="946.321777" style="stroke: green; stroke-width: 0.200000"/>
   <line x1="1003.618713" y1="945.321777" x2="993.524170" y2="945.321777" style="stroke: green; stroke-width: 0.200000"/>
   <line x1="1003.528687" y1="944.321777" x2="993.449707" y2="944.321777" style="stroke: green; stroke-width: 0.200000"/>
   <line x1="1003.440857" y1="943.321777" x2="993.406372" y2="943.321777" style="stroke: green; stroke-width: 0.200000"/>
   <line x1="1003.353516" y1="942.321777" x2="993.363037" y2="942.321777" style="stroke: green; stroke-width: 0.200000"/>
   <line x1="1003.266113" y1="941.321777" x2="993.319641" y2="941.321777" style="stroke: green; stroke-width: 0.200000"/>
   <line x1="1003.178833" y1="940.321777" x2="993.276306" y2="940.321777" style="stroke: green; stroke-width: 0.200000"/>
   <line x1="1003.091492" y1="939.321777" x2="993.249512" y2="939.321777" style="stroke: green; stroke-width: 0.200000"/>
   <line x1="1003.004150" y1="938.321777" x2="993.249878" y2="938.321777" style="stroke: green; stroke-width: 0.200000"/>
   <line x1="1003.058960" y1="937.321777" x2="993.254456" y2="937.321777" style="stroke: green; stroke-width: 0.200000"/>
   <line x1="1003.261780" y1="936.321777" x2="993.303711" y2="936.321777" style="stroke: green; stroke-width: 0.200000"/>
   <line x1="1003.464661" y1="935.321777" x2="993.352783" y2="935.321777" style="stroke: green; stroke-width: 0.200000"/>
   <line x1="1003.847107" y1="934.321777" x2="993.402039" y2="934.321777" style="stroke: green; stroke-width: 0.200000"/>
   <line x1="1004.366577" y1="933.321777" x2="993.564758" y2="933.321777" style="stroke: green; stroke-width: 0.200000"/>
   <line x1="1005.041016" y1="932.321777" x2="993.760742" y2="932.321777" style="stroke: green; stroke-width: 0.200000"/>
   <line x1="1005.854797" y1="931.321777" x2="993.956787" y2="931.321777" style="stroke: green; stroke-width: 0.200000"/>
   <line x1="1006.668457" y1="930.321777" x2="994.288086" y2="930.321777" style="stroke: green; stroke-width: 0.200000"/>
   <line x1="1007.535400" y1="929.321777" x2="994.711365" y2="929.321777" style="stroke: green; stroke-width: 0.200000"/>
   <line x1="1008.403320" y1="928.321777" x2="995.154297" y2="928.321777" style="stroke: green; stroke-width: 0.200000"/>
   <line x1="1009.252686" y1="927.321777" x2="995.800659" y2="927.321777" style="stroke: green; stroke-width: 0.200000"/>
   <line x1="1010.189331" y1="926.321777" x2="996.447083" y2="926.321777" style="stroke: green; stroke-width: 0.200000"/>
   <line x1="1011.176758" y1="925.321777" x2="997.261963" y2="925.321777" style="stroke: green; stroke-width: 0.200000"/>
   <line x1="1012.164062" y1="924.321777" x2="998.129822" y2="924.321777" style="stroke: green; stroke-width: 0.200000"/>
   <line x1="1013.151367" y1="923.321777" x2="998.980591" y2="923.321777" style="stroke: green; stroke-width: 0.200000"/>
   <line x1="1014.137329" y1="922.321777" x2="999.826416" y2="922.321777" style="stroke: green; stroke-width: 0.200000"/>
   <line x1="1015.114807" y1="921.321777" x2="1000.672302" y2="921.321777" style="stroke: green; stroke-width: 0.200000"/>
   <line x1="1016.196167" y1="920.321777" x2="1001.518250" y2="920.321777" style="stroke: green; stroke-width: 0.200000"/>
   <line x1="1017.354614" y1="919.321777" x2="1002.440430" y2="919.321777" style="stroke: green; stroke-width: 0.200000"/>
   <line x1="1018.522705" y1="918.321777" x2="1003.420715" y2="918.321777" style="stroke: green; stroke-width: 0.200000"/>
   <line x1="1019.818359" y1="917.321777" x2="1004.401001" y2="917.321777" style="stroke: green; stroke-width: 0.200000"/>
   <line x1="1021.128540" y1="916.321777" x2="1005.381348" y2="916.321777" style="stroke: green; stroke-width: 0.200000"/>
   <line x1="1022.540771" y1="915.321777" x2="1006.361572" y2="915.321777" style="stroke: green; stroke-width: 0.200000"/>
   <line x1="1024.039795" y1="914.321777" x2="1007.341858" y2="914.321777" style="stroke: green; stroke-width: 0.200000"/>
   <line x1="1025.560181" y1="913.321777" x2="1008.343018" y2="913.321777" style="stroke: green; stroke-width: 0.200000"/>
   <line x1="1027.318237" y1="912.321777" x2="1009.487427" y2="912.321777" style="stroke: green; stroke-width: 0.200000"/>
   <line x1="1038.158081" y1="911.321777" x2="1010.631775" y2="911.321777" style="stroke: green; stroke-width: 0.200000"/>
   <line x1="1038.167480" y1="910.321777" x2="1011.801636" y2="910.321777" style="stroke: green; stroke-width: 0.200000"/>
   <line x1="1038.176636" y1="909.321777" x2="1013.090454" y2="909.321777" style="stroke: green; stroke-width: 0.200000"/>
   <line x1="1038.186035" y1="908.321777" x2="1014.379272" y2="908.321777" style="stroke: green; stroke-width: 0.200000"/>
   <line x1="1038.195435" y1="907.321777" x2="1015.736633" y2="907.321777" style="stroke: green; stroke-width: 0.200000"/>
   <line x1="1038.204834" y1="906.321777" x2="1017.190552" y2="906.321777" style="stroke: green; stroke-width: 0.200000"/>
   <line x1="1038.214233" y1="905.321777" x2="1018.674255" y2="905.321777" style="stroke: green; stroke-width: 0.200000"/>
   <line x1="1036.537964" y1="904.321777" x2="1020.230103" y2="904.321777" style="stroke: green; stroke-width: 0.200000"/>
   <line x1="1034.258057" y1="903.321777" x2="1021.870178" y2="903.321777" style="stroke: green; stroke-width: 0.200000"/>
   <line x1="1031.083862" y1="902.321777" x2="1024.587524" y2="902.321777" style="stroke: green; stroke-width: 0.200000"/>
   <line x1="1039.525269" y1="1001.321777" x2="1023.789368" y2="1001.321777" style="stroke: green; stroke-width: 0.200000"/>
   <line x1="1038.035400" y1="1000.321777" x2="1022.777588" y2="1000.321777" style="stroke: green; stroke-width: 0.200000"/>
   <line x1="1036.536255" y1="999.321777" x2="1021.765808" y2="999.321777" style="stroke: green; stroke-width: 0.200000"/>
   <line x1="1035.220459" y1="998.321777" x2="1020.767822" y2="998.321777" style="stroke: green; stroke-width: 0.200000"/>
   <line x1="1034.002930" y1="997.321777" x2="1019.784790" y2="997.321777" style="stroke: green; stroke-width: 0.200000"/>
   <line x1="1032.686768" y1="996.321777" x2="1018.801758" y2="996.321777" style="stroke: green; stroke-width: 0.200000"/>
   <line x1="1031.367676" y1="995.321777" x2="1017.818665" y2="995.321777" style="stroke: green; stroke-width: 0.200000"/>
   <line x1="1030.048706" y1="994.321777" x2="1016.835571" y2="994.321777" style="stroke: green; stroke-width: 0.200000"/>
   <line x1="1028.729736" y1="993.321777" x2="1015.852539" y2="993.321777" style="stroke: green; stroke-width: 0.200000"/>
   <line x1="1027.410767" y1="992.321777" x2="1014.869446" y2="992.321777" style="stroke: green; stroke-width: 0.200000"/>
   <line x1="1026.786621" y1="991.321777" x2="1013.886414" y2="991.321777" style="stroke: green; stroke-width: 0.200000"/>
   <line x1="1025.963989" y1="990.321777" x2="1012.944092" y2="990.321777" style="stroke: green; stroke-width: 0.200000"/>
   <line x1="1025.141357" y1="989.321777" x2="1012.024658" y2="989.321777" style="stroke: green; stroke-width: 0.200000"/>
   <line x1="1024.318726" y1="988.321777" x2="1011.105286" y2="988.321777" style="stroke: green; stroke-width: 0.200000"/>
   <line x1="1023.496155" y1="987.321777" x2="1010.215393" y2="987.321777" style="stroke: green; stroke-width: 0.200000"/>
   <line x1="1022.673645" y1="986.321777" x2="1009.327454" y2="986.321777" style="stroke: green; stroke-width: 0.200000"/>
   <line x1="1021.851074" y1="985.321777" x2="1008.462769" y2="985.321777" style="stroke: green; stroke-width: 0.200000"/>
   <line x1="1021.018799" y1="984.321777" x2="1007.605713" y2="984.321777" style="stroke: green; stroke-width: 0.200000"/>
   <line x1="1020.191589" y1="983.321777" x2="1006.774414" y2="983.321777" style="stroke: green; stroke-width: 0.200000"/>
   <line x1="1019.371033" y1="982.321777" x2="1006.006531" y2="982.321777" style="stroke: green; stroke-width: 0.200000"/>
   <line x1="1018.576965" y1="981.321777" x2="1005.307922" y2="981.321777" style="stroke: green; stroke-width: 0.200000"/>
   <line x1="1017.859192" y1="980.321777" x2="1004.665222" y2="980.321777" style="stroke: green; stroke-width: 0.200000"/>
   <line x1="1017.136475" y1="979.321777" x2="1004.026184" y2="979.321777" style="stroke: green; stroke-width: 0.200000"/>
   <line x1="1016.402832" y1="978.321777" x2="1003.387207" y2="978.321777" style="stroke: green; stroke-width: 0.200000"/>
   <line x1="1015.683105" y1="977.321777" x2="1002.748169" y2="977.321777" style="stroke: green; stroke-width: 0.200000"/>
   <line x1="1014.963379" y1="976.321777" x2="1002.169067" y2="976.321777" style="stroke: green; stroke-width: 0.200000"/>
   <line x1="1014.258728" y1="975.321777" x2="1001.613525" y2="975.321777" style="stroke: green; stroke-width: 0.200000"/>
   <line x1="1013.562927" y1="974.321777" x2="1001.058044" y2="974.321777" style="stroke: green; stroke-width: 0.200000"/>
   <line x1="1012.920532" y1="973.321777" x2="1000.502563" y2="973.321777" style="stroke: green; stroke-width: 0.200000"/>
   <line x1="1012.281494" y1="972.321777" x2="999.973694" y2="972.321777" style="stroke: green; stroke-width: 0.200000"/>
   <line x1="1011.700989" y1="971.321777" x2="999.520569" y2="971.321777" style="stroke: green; stroke-width: 0.200000"/>
   <line x1="1011.135254" y1="970.321777" x2="999.067444" y2="970.321777" style="stroke: green; stroke-width: 0.200000"/>
   <line x1="1010.569519" y1="969.321777" x2="998.614258" y2="969.321777" style="stroke: green; stroke-width: 0.200000"/>
   <line x1="1010.003784" y1="968.321777" x2="998.161133" y2="968.321777" style="stroke: green; stroke-width: 0.200000"/>
   <line x1="1009.490479" y1="967.321777" x2="997.720581" y2="967.321777" style="stroke: green; stroke-width: 0.200000"/>
   <line x1="1009.038818" y1="966.321777" x2="997.396484" y2="966.321777" style="stroke: green; stroke-width: 0.200000"/>
   <line x1="1008.603455" y1="965.321777" x2="997.072266" y2="965.321777" style="stroke: green; stroke-width: 0.200000"/>
   <line x1="1008.168030" y1="964.321777" x2="996.748169" y2="964.321777" style="stroke: green; stroke-width: 0.200000"/>
   <line x1="1007.732666" y1="963.321777" x2="996.424072" y2="963.321777" style="stroke: green; stroke-width: 0.200000"/>
   <line x1="1007.297302" y1="962.321777" x2="996.099915" y2="962.321777" style="stroke: green; stroke-width: 0.200000"/>
   <line x1="1006.966064" y1="961.321777" x2="995.804138" y2="961.321777" style="stroke: green; stroke-width: 0.200000"/>
   <line x1="1006.645142" y1="960.321777" x2="995.550476" y2="960.321777" style="stroke: green; stroke-width: 0.200000"/>
   <line x1="1006.332764" y1="959.321777" x2="995.363708" y2="959.321777" style="stroke: green; stroke-width: 0.200000"/>
   <line x1="1006.041138" y1="958.321777" x2="995.176941" y2="958.321777" style="stroke: green; stroke-width: 0.200000"/>
   <line x1="1005.749512" y1="957.321777" x2="994.997498" y2="957.321777" style="stroke: green; stroke-width: 0.200000"/>
   <line x1="1005.457886" y1="956.321777" x2="994.828613" y2="956.321777" style="stroke: green; stroke-width: 0.200000"/>
   <line x1="1005.236328" y1="955.321777" x2="994.659912" y2="955.321777" style="stroke: green; stroke-width: 0.200000"/>
   <line x1="1005.051575" y1="954.321777" x2="994.491089" y2="954.321777" style="stroke: green; stroke-width: 0.200000"/>
   <line x1="1004.866821" y1="953.321777" x2="994.312134" y2="953.321777" style="stroke: green; stroke-width: 0.200000"/>
   <line x1="1004.682007" y1="952.321777" x2="994.145630" y2="952.321777" style="stroke: green; stroke-width: 0.200000"/>
   <line x1="1093.349365" y1="1001.321777" x2="1080.649658" y2="1001.321777" style="stroke: green; stroke-width: 0.200000"/>
   <line x1="1093.349365" y1="1000.321777" x2="1081.667236" y2="1000.321777" style="stroke: green; stroke-width: 0.200000"/>
   <line x1="1093.349365" y1="999.321777" x2="1082.638428" y2="999.321777" style="stroke: green; stroke-width: 0.200000"/>
   <line x1="1093.349365" y1="998.321777" x2="1083.442383" y2="998.321777" style="stroke: green; stroke-width: 0.200000"/>
   <line x1="1093.349365" y1="997.321777" x2="1084.246338" y2="997.321777" style="stroke: green; stroke-width: 0.200000"/>
   <line x1="1093.349365" y1="996.321777" x2="1085.050415" y2="996.321777" style="stroke: green; stroke-width: 0.200000"/>
   <line x1="1093.349365" y1="995.321777" x2="1085.863281" y2="995.321777" style="stroke: green; stroke-width: 0.200000"/>
   <line x1="1093.349365" y1="994.321777" x2="1086.676392" y2="994.321777" style="stroke: green; stroke-width: 0.200000"/>
   <line x1="1093.349365" y1="993.321777" x2="1087.458618" y2="993.321777" style="stroke: green; stroke-width: 0.200000"/>
   <line x1="1093.349365" y1="992.321777" x2="1088.119873" y2="992.321777" style="stroke: green; stroke-width: 0.200000"/>
   <line x1="1093.349365" y1="991.321777" x2="1088.774902" y2="991.321777" style="stroke: green; stroke-width: 0.200000"/>
   <line x1="1093.349365" y1="990.321777" x2="1089.413696" y2="990.321777" style="stroke: green; stroke-width: 0.200000"/>
   <line x1="1093.349365" y1="989.321777" x2="1090.019287" y2="989.321777" style="stroke: green; stroke-width: 0.200000"/>
   <line x1="1093.349365" y1="988.321777" x2="1090.422852" y2="988.321777" style="stroke: green; stroke-width: 0.200000"/>
   <line x1="1093.349365" y1="987.321777" x2="1090.651489" y2="987.321777" style="stroke: green; stroke-width: 0.200000"/>
   <line x1="1093.349365" y1="986.321777" x2="1090.691772" y2="986.321777" style="stroke: green; stroke-width: 0.200000"/>
   <line x1="1093.349365" y1="985.321777" x2="1090.620239" y2="985.321777" style="stroke: green; stroke-width: 0.200000"/>
   <line x1="1093.349365" y1="984.321777" x2="1090.600464" y2="984.321777" style="stroke: green; stroke-width: 0.200000"/>
   <line x1="1093.349365" y1="983.321777" x2="1090.580811" y2="983.321777" style="stroke: green; stroke-width: 0.200000"/>
   <line x1="1093.349365" y1="982.321777" x2="1090.561157" y2="982.321777" style="stroke: green; stroke-width: 0.200000"/>
   <line x1="1093.349365" y1="981.321777" x2="1090.541504" y2="981.321777" style="stroke: green; stroke-width: 0.200000"/>
   <line x1="1093.349365" y1="980.321777" x2="1090.521851" y2="980.321777" style="stroke: green; stroke-width: 0.200000"/>
   <line x1="1093.349365" y1="979.321777" x2="1090.501953" y2="979.321777" style="stroke: green; stroke-width: 0.200000"/>
   <line x1="1093.349365" y1="978.321777" x2="1090.482300" y2="978.321777" style="stroke: green; stroke-width: 0.200000"/>
   <line x1="1093.349365" y1="977.321777" x2="1090.462524" y2="977.321777" style="stroke: green; stroke-width: 0.200000"/>
   <line x1="1093.349365" y1="976.321777" x2="1090.442749" y2="976.321777" style="stroke: green; stroke-width: 0.200000"/>
   <line x1="1095.256226" y1="1001.321777" x2="1093.449341" y2="1001.321777" style="stroke: green; stroke-width: 0.200000"/>
   <line x1="1096.038818" y1="1000.321777" x2="1093.449341" y2="1000.321777" style="stroke: green; stroke-width: 0.200000"/>
   <line x1="1096.711182" y1="999.321777" x2="1093.449341" y2="999.321777" style="stroke: green; stroke-width: 0.200000"/>
   <line x1="1097.383545" y1="998.321777" x2="1093.449341" y2="998.321777" style="stroke: green; stroke-width: 0.200000"/>
   <line x1="1098.055908" y1="997.321777" x2="1093.449341" y2="997.321777" style="stroke: green; stroke-width: 0.200000"/>
   <line x1="1098.728271" y1="996.321777" x2="1093.449341" y2="996.321777" style="stroke: green; stroke-width: 0.200000"/>
   <line x1="1099.262085" y1="995.321777" x2="1093.449341" y2="995.321777" style="stroke: green; stroke-width: 0.200000"/>
   <line x1="1099.737061" y1="994.321777" x2="1093.449341" y2="994.321777" style="stroke: green; stroke-width: 0.200000"/>
   <line x1="1100.110229" y1="993.321777" x2="1093.449341" y2="993.321777" style="stroke: green; stroke-width: 0.200000"/>
   <line x1="1100.408936" y1="992.321777" x2="1093.449341" y2="992.321777" style="stroke: green; stroke-width: 0.200000"/>
   <line x1="1100.614624" y1="991.321777" x2="1093.449341" y2="991.321777" style="stroke: green; stroke-width: 0.200000"/>
   <line x1="1100.747437" y1="990.321777" x2="1093.449341" y2="990.321777" style="stroke: green; stroke-width: 0.200000"/>
   <line x1="1100.839355" y1="989.321777" x2="1093.449341" y2="989.321777" style="stroke: green; stroke-width: 0.200000"/>
   <line x1="1100.886353" y1="988.321777" x2="1093.449341" y2="988.321777" style="stroke: green; stroke-width: 0.200000"/>
   <line x1="1100.800415" y1="987.321777" x2="1093.449341" y2="987.321777" style="stroke: green; stroke-width: 0.200000"/>
   <line x1="1100.761230" y1="986.321777" x2="1093.449341" y2="986.321777" style="stroke: green; stroke-width: 0.200000"/>
   <line x1="1100.653809" y1="985.321777" x2="1093.449341" y2="985.321777" style="stroke: green; stroke-width: 0.200000"/>
   <line x1="1100.546509" y1="984.321777" x2="1093.449341" y2="984.321777" style="stroke: green; stroke-width: 0.200000"/>
   <line x1="1100.399048" y1="983.321777" x2="1093.449341" y2="983.321777" style="stroke: green; stroke-width: 0.200000"/>
   <line x1="1100.216309" y1="982.321777" x2="1093.449341" y2="982.321777" style="stroke: green; stroke-width: 0.200000"/>
   <line x1="1100.033569" y1="981.321777" x2="1093.449341" y2="981.321777" style="stroke: green; stroke-width: 0.200000"/>
   <line x1="1099.784302" y1="980.321777" x2="1093.449341" y2="980.321777" style="stroke: green; stroke-width: 0.200000"/>
   <line x1="1099.531372" y1="979.321777" x2="1093.449341" y2="979.321777" style="stroke: green; stroke-width: 0.200000"/>
   <line x1="1099.190186" y1="978.321777" x2="1093.449341" y2="978.321777" style="stroke: green; stroke-width: 0.200000"/>
   <line x1="1098.805298" y1="977.321777" x2="1093.449341" y2="977.321777" style="stroke: green; stroke-width: 0.200000"/>
   <line x1="1098.420410" y1="976.321777" x2="1093.449341" y2="976.321777" style="stroke: green; stroke-width: 0.200000"/>
   <line x1="1098.026001" y1="975.321777" x2="1094.479858" y2="975.321777" style="stroke: green; stroke-width: 0.200000"/>
   <line x1="1043.249390" y1="1015.321777" x2="1042.110718" y2="1015.321777" style="stroke: green; stroke-width: 0.200000"/>
   <line x1="1043.249390" y1="1014.321777" x2="1039.676392" y2="1014.321777" style="stroke: green; stroke-width: 0.200000"/>
   <line x1="1043.249390" y1="1013.321777" x2="1037.774048" y2="1013.321777" style="stroke: green; stroke-width: 0.200000"/>
   <line x1="1043.249390" y1="1012.321777" x2="1036.087769" y2="1012.321777" style="stroke: green; stroke-width: 0.200000"/>
   <line x1="1043.249390" y1="1011.321777" x2="1034.790039" y2="1011.321777" style="stroke: green; stroke-width: 0.200000"/>
   <line x1="1043.249390" y1="1010.321777" x2="1033.553833" y2="1010.321777" style="stroke: green; stroke-width: 0.200000"/>
   <line x1="1043.249390" y1="1009.321777" x2="1032.365234" y2="1009.321777" style="stroke: green; stroke-width: 0.200000"/>
   <line x1="1043.249390" y1="1008.321777" x2="1031.207397" y2="1008.321777" style="stroke: green; stroke-width: 0.200000"/>
   <line x1="1043.249390" y1="1007.321777" x2="1030.084106" y2="1007.321777" style="stroke: green; stroke-width: 0.200000"/>
   <line x1="1043.249390" y1="1006.321777" x2="1028.976318" y2="1006.321777" style="stroke: green; stroke-width: 0.200000"/>
   <line x1="1043.249390" y1="1005.321777" x2="1027.923584" y2="1005.321777" style="stroke: green; stroke-width: 0.200000"/>
   <line x1="1043.249390" y1="1004.321777" x2="1026.878540" y2="1004.321777" style="stroke: green; stroke-width: 0.200000"/>
   <line x1="1042.852051" y1="1003.321777" x2="1025.833618" y2="1003.321777" style="stroke: green; stroke-width: 0.200000"/>
   <line x1="1041.015137" y1="1002.321777" x2="1024.801147" y2="1002.321777" style="stroke: green; stroke-width: 0.200000"/>
   <line x1="1074.698730" y1="1020.321777" x2="1060.788086" y2="1020.321777" style="stroke: green; stroke-width: 0.200000"/>
   <line x1="1076.810791" y1="1019.321777" x2="1055.769531" y2="1019.321777" style="stroke: green; stroke-width: 0.200000"/>
   <line x1="1078.328369" y1="1018.321777" x2="1051.001709" y2="1018.321777" style="stroke: green; stroke-width: 0.200000"/>
   <line x1="1079.550415" y1="1017.321777" x2="1047.438599" y2="1017.321777" style="stroke: green; stroke-width: 0.200000"/>
   <line x1="1080.769775" y1="1016.321777" x2="1044.624634" y2="1016.321777" style="stroke: green; stroke-width: 0.200000"/>
   <line x1="1081.941895" y1="1015.321777" x2="1043.349365" y2="1015.321777" style="stroke: green; stroke-width: 0.200000"/>
   <line x1="1083.114136" y1="1014.321777" x2="1043.349365" y2="1014.321777" style="stroke: green; stroke-width: 0.200000"/>
   <line x1="1084.286377" y1="1013.321777" x2="1043.349365" y2="1013.321777" style="stroke: green; stroke-width: 0.200000"/>
   <line x1="1085.307983" y1="1012.321777" x2="1043.349365" y2="1012.321777" style="stroke: green; stroke-width: 0.200000"/>
   <line x1="1086.304199" y1="1011.321777" x2="1043.349365" y2="1011.321777" style="stroke: green; stroke-width: 0.200000"/>
   <line x1="1087.300415" y1="1010.321777" x2="1069.868042" y2="1010.321777" style="stroke: green; stroke-width: 0.200000"/>
   <line x1="1064.735474" y1="1010.321777" x2="1043.349365" y2="1010.321777" style="stroke: green; stroke-width: 0.200000"/>
   <line x1="1088.309570" y1="1009.321777" x2="1071.738281" y2="1009.321777" style="stroke: green; stroke-width: 0.200000"/>
   <line x1="1059.545166" y1="1009.321777" x2="1043.349365" y2="1009.321777" style="stroke: green; stroke-width: 0.200000"/>
   <line x1="1089.320312" y1="1008.321777" x2="1072.960205" y2="1008.321777" style="stroke: green; stroke-width: 0.200000"/>
   <line x1="1055.656494" y1="1008.321777" x2="1043.349365" y2="1008.321777" style="stroke: green; stroke-width: 0.200000"/>
   <line x1="1090.331055" y1="1007.321777" x2="1074.160278" y2="1007.321777" style="stroke: green; stroke-width: 0.200000"/>
   <line x1="1052.249512" y1="1007.321777" x2="1043.349365" y2="1007.321777" style="stroke: green; stroke-width: 0.200000"/>
   <line x1="1091.174316" y1="1006.321777" x2="1075.360229" y2="1006.321777" style="stroke: green; stroke-width: 0.200000"/>
   <line x1="1049.375488" y1="1006.321777" x2="1043.349365" y2="1006.321777" style="stroke: green; stroke-width: 0.200000"/>
   <line x1="1091.990723" y1="1005.321777" x2="1076.560181" y2="1005.321777" style="stroke: green; stroke-width: 0.200000"/>
   <line x1="1046.975708" y1="1005.321777" x2="1043.349365" y2="1005.321777" style="stroke: green; stroke-width: 0.200000"/>
   <line x1="1092.807129" y1="1004.321777" x2="1077.633423" y2="1004.321777" style="stroke: green; stroke-width: 0.200000"/>
   <line x1="1044.677856" y1="1004.321777" x2="1043.349365" y2="1004.321777" style="stroke: green; stroke-width: 0.200000"/>
   <line x1="1093.349365" y1="1003.321777" x2="1078.638794" y2="1003.321777" style="stroke: green; stroke-width: 0.200000"/>
   <line x1="1093.349365" y1="1002.321777" x2="1079.644287" y2="1002.321777" style="stroke: green; stroke-width: 0.200000"/>
   <line x1="1093.623413" y1="1003.321777" x2="1093.449341" y2="1003.321777" style="stroke: green; stroke-width: 0.200000"/>
   <line x1="1094.439819" y1="1002.321777" x2="1093.449341" y2="1002.321777" style="stroke: green; stroke-width: 0.200000"/>
   <line x1="995.988831" y1="1068.583008" x2="995.988403" y2="1068.583008" style="stroke: green; stroke-width: 0.200000"/>
   <path d="M 959.249  1101.01  959.206  1100.99  956.696  1100.18  953.74  1099.05  952.387  1098.45  949.673  1097.33  948.493  1096.81  945.536  1095.34  940.881  1092.92  934.081  1088.91  933.295  1088.41  928.453  1085.27  922.044  1080.86  916.588  1076.82  915.211  1075.78  912.841  1073.88  909.874  1071.46  908.266  1070.1  904.966  1067.11  903.499  1065.62  900.749  1062.77  898.74  1060.47  896.809  1057.91  " style="fill: none; stroke: darkmagenta; stroke-width: 0.200000; fill-type: evenodd"  fill-opacity="1.000000" />
   <path d="M 896.809  1057.91  896.673  1057.73  895.518  1056.06  894.908  1055.09  893.543  1052.66  892.606  1050.75  892.407  1050.3  891.865  1048.8  891.435  1047.48  891.171  1046.54  890.611  1043.63  890.596  1041.33  890.62  1040.76  890.786  1039.84  890.953  1038.76  891.209  1037.83  891.786  1036.37  894.044  1032.41  896.061  1029.11  896.43  1028.47  896.778  1027.96  899.689  1023.85  900.019  1023.45  903.045  1019.75  906.575  1015.95  910.445  1012.2  913.869  1009.2  916.274  1007.53  919.035  1006.28  922.098  1005.47  925.483  1005.27  927.784  1005.26  929.902  1005.32  939.405  1005.97  940.188  1006.07  941.945  1006.36  948.115  1007.6  952.684  1008.97  955.452  1009.89  957.444  1010.88  960.813  1012.18  965.993  1014.7  966.552  1015.06  967.736  1015.88  969.016  1016.85  970.352  1017.92  972.769  1020.12  975.23  1022.42  977.764  1024.86  981.697  1028.78  " style="fill: none; stroke: red; stroke-width: 0.200000; fill-type: evenodd"  fill-opacity="1.000000" />
   <path d="M 981.697  1028.78  987.098  1034.16  989.034  1036.12  " style="fill: none; stroke: darkmagenta; stroke-width: 0.200000; fill-type: evenodd"  fill-opacity="1.000000" />
   <path d="M 989.034  1036.12  994.284  1041.41  997.006  1044.27  1001.01  1048.61  1001.85  1049.46  1002.48  1050.22  1002.89  1050.85  1003.62  1052.15  1004.26  1053.69  1005.56  1056.45  1006.32  1058.33  1008.12  1064.91  1008.43  1066.71  1008.73  1069.21  1009.14  1072.05  1009.29  1073.82  1009.32  1074.59  1009.26  1075.68  1009.25  1077.1  1008.99  1078.38  1008.57  1080.12  1008.14  1081.05  1007.28  1082.8  1006.48  1083.8  1005.53  1085.06  1005.15  1085.43  1001.07  1089.11  997.004  1092.52  995.432  1093.8  990.62  1097.25  989.422  1098.09  988.82  1098.49  984.561  1101.13  984.473  1101.18  984.234  1101.26  982.906  1101.79  981.055  1102.45  978.978  1102.99  976.749  1103.38  976.401  1103.41  974.141  1103.46  971.391  1103.36  968.512  1103.1  966.016  1102.77  965.411  1102.64  962.936  1102.01  960.558  1101.38  959.249  1101.01  " style="fill: none; stroke: red; stroke-width: 0.200000; fill-type: evenodd"  fill-opacity="1.000000" />
   <path d="M 974.07  1102.46  971.454  1102.36  968.622  1102.11  966.186  1101.78  965.637  1101.67  963.187  1101.04  960.824  1100.42  959.498  1100.04  957.029  1099.24  954.122  1098.12  952.779  1097.53  950.065  1096.41  948.918  1095.91  945.99  1094.45  941.366  1092.04  934.601  1088.05  933.834  1087.57  929.009  1084.44  922.625  1080.05  917.187  1076.02  915.825  1074.99  913.47  1073.1  910.512  1070.69  908.924  1069.35  905.659  1066.39  904.215  1064.92  901.486  1062.09  899.516  1059.84  897.483  1057.15  896.353  1055.51  895.768  1054.58  894.429  1052.2  893.513  1050.33  893.336  1049.93  892.811  1048.47  892.392  1047.18  892.145  1046.31  891.858  1044.82  " style="fill: none; stroke: black; stroke-width: 0.200000; fill-type: evenodd"  fill-opacity="1.000000" />
   <path d="M 891.858  1044.82  891.61  1043.53  891.597  1041.35  891.616  1040.87  891.772  1040.01  891.932  1038.97  892.159  1038.15  892.69  1036.81  894.905  1032.92  896.921  1029.62  897.277  1029  897.599  1028.53  900.486  1024.46  900.794  1024.08  903.799  1020.41  907.29  1016.65  911.122  1012.94  914.486  1009.99  916.771  1008.4  919.371  1007.22  922.256  1006.46  925.516  1006.27  927.774  1006.26  929.854  1006.31  939.306  1006.97  940.044  1007.06  941.767  1007.34  947.872  1008.57  952.382  1009.93  955.071  1010.82  957.04  1011.79  960.413  1013.1  965.503  1015.57  965.996  1015.89  967.149  1016.69  968.401  1017.64  969.702  1018.68  972.091  1020.85  972.235  1020.99  " style="fill: none; stroke: red; stroke-width: 0.200000; fill-type: evenodd"  fill-opacity="1.000000" />
   <path d="M 972.235  1020.99  974.541  1023.15  977.065  1025.58  986.39  1034.87  993.566  1042.11  996.276  1044.96  996.787  1045.51  " style="fill: none; stroke: black; stroke-width: 0.200000; fill-type: evenodd"  fill-opacity="1.000000" />
   <path d="M 996.787  1045.51  1000.29  1049.3  1001.11  1050.13  1001.67  1050.82  1002.04  1051.37  1002.72  1052.58  1003.35  1054.1  1004.64  1056.85  1005.37  1058.65  1007.14  1065.13  1007.44  1066.85  1007.74  1069.34  1008.14  1072.17  1008.29  1073.89  1008.32  1074.58  1008.26  1075.64  1008.25  1077  1008.01  1078.16  1007.62  1079.79  1007.24  1080.62  1006.43  1082.26  1005.69  1083.19  1004.78  1084.4  1004.47  1084.7  1000.42  1088.35  996.367  1091.75  994.824  1093.01  990.042  1096.44  988.858  1097.27  988.28  1097.65  984.066  1100.26  983.894  1100.31  982.55  1100.85  980.761  1101.5  978.767  1102.01  976.612  1102.39  976.34  1102.42  974.15  1102.46  974.07  1102.46  " style="fill: none; stroke: red; stroke-width: 0.200000; fill-type: evenodd"  fill-opacity="1.000000" />
   <path d="M 1041.01  905.134  1041.92  905.697  1044.49  907.597  1045.83  908.676  1047.16  909.817  1051.04  913.384  1054.39  916.743  1057.38  919.937  1059.5  922.239  1062.97  926.087  1066.01  929.516  1070.37  934.477  1073.53  938.135  1077.74  943.081  1080.32  946.147  1083.24  949.698  1085  951.883  1087.15  954.645  1089.51  957.799  1091.73  960.967  1094.17  964.701  1096.33  968.316  " style="fill: none; stroke: darkmagenta; stroke-width: 0.200000; fill-type: evenodd"  fill-opacity="1.000000" />
   <path d="M 1096.33  968.316  1096.49  968.595  1096.81  969.171  1098.09  971.748  1099.49  974.917  1100.71  978.092  1100.98  978.913  1101.49  980.955  1101.98  983.637  1102.26  986.247  1102.28  987.059  1102.38  987.769  1102.39  988.845  1102.18  991.168  1101.89  992.562  1101.71  993.332  1100.99  995.263  1100.06  997.029  1097.09  1001.45  1091.58  1008.19  1088.47  1011.28  1085.48  1014.28  1081.67  1017.53  1079.09  1019.64  1076.95  1021.03  1076.6  1021.24  1075.83  1021.52  1073.61  1022.27  1070.26  1022.69  1067.61  1022.62  1066.66  1022.53  1060.75  1021.84  1058.65  1021.45  1054.6  1020.61  1052.81  1020.34  1049.73  1019.54  1045.87  1018.43  1039.3  1015.82  1036.55  1014.37  1036.2  1014.17  1035.18  1013.52  1034.47  1012.99  1033.23  1012.01  1031.33  1010.41  1029.85  1009.13  1027.82  1007.3  1024.14  1003.78  1020.18  999.862  1012.45  991.996  1009.93  989.263  1007.98  987.062  1006.21  985.003  1005.11  983.663  1004.02  982.094  1001.28  977.808  998.751  973.256  996.351  967.962  994.624  962.633  994.157  961.032  993.59  957.993  992.953  954.219  992.698  952.842  992.622  952.215  991.965  944.713  991.75  939.732  991.75  937.372  991.92  933.913  992.565  930.624  992.856  929.857  993.764  927.711  994.252  926.934  995.401  925.178  997.184  923.124  1000.77  918.879  1007.17  912.358  1010.62  909.34  1014.25  906.525  1016.84  904.74  1018.07  903.919  1019.85  902.782  1021.11  902.029  1021.7  901.708  1022.55  901.379  1024.05  900.897  1025.68  900.588  1027.4  900.461  1027.94  900.476  1029.19  900.515  1030.93  900.734  1031.1  900.766  1032.87  901.246  1035.26  902.085  1038.04  903.364  1038.89  903.81  1041.01  905.134  " style="fill: none; stroke: red; stroke-width: 0.200000; fill-type: evenodd"  fill-opacity="1.000000" />
   <path d="M 1027.28  1005.4  1024.84  1003.06  1020.89  999.156  1013.22  991.357  " style="fill: none; stroke: black; stroke-width: 0.200000; fill-type: evenodd"  fill-opacity="1.000000" />
   <path d="M 1013.22  991.357  1013.17  991.306  1010.68  988.593  1008.73  986.404  1006.98  984.36  1005.91  983.059  1004.85  981.538  1002.14  977.295  999.645  972.807  997.285  967.6  995.58  962.339  995.131  960.8  994.574  957.818  993.938  954.045  993.687  952.69  993.616  952.111  992.964  944.648  992.91  943.414  " style="fill: none; stroke: red; stroke-width: 0.200000; fill-type: evenodd"  fill-opacity="1.000000" />
   <path d="M 992.91  943.414  992.75  939.71  992.75  937.396  992.885  934.668  " style="fill: none; stroke: black; stroke-width: 0.200000; fill-type: evenodd"  fill-opacity="1.000000" />
   <path d="M 992.885  934.668  992.916  934.035  993.53  930.9  993.785  930.229  994.654  928.175  995.094  927.473  996.201  925.782  997.943  923.774  1001.51  919.553  1007.85  913.086  1011.26  910.112  1014.84  907.333  1017.4  905.568  1018.62  904.756  1020.38  903.633  1021.6  902.898  1022.12  902.617  1022.88  902.322  1024.3  901.868  1025.81  901.581  1027.42  901.462  1027.91  901.475  1028.25  901.486  " style="fill: none; stroke: red; stroke-width: 0.200000; fill-type: evenodd"  fill-opacity="1.000000" />
   <path d="M 1028.25  901.486  1029.11  901.513  1030.77  901.722  1030.87  901.741  1032.57  902.202  1034.89  903.013  1037.6  904.26  1038.39  904.677  1041.35  906.525  1043.88  908.388  1045.19  909.445  1046.49  910.565  1050.35  914.106  1053.67  917.438  1056.65  920.618  1058.76  922.913  1062.22  926.754  1065.26  930.178  1069.61  935.133  1072.77  938.787  1076.98  943.727  1079.55  946.786  1082.46  950.329  1084.22  952.504  1086.35  955.251  1088.7  958.385  1090.9  961.528  1093.33  965.231  1095.63  969.091  1095.92  969.634  1097.18  972.172  1098.56  975.299  1099.77  978.427  1100.01  979.19  1100.51  981.167  1100.99  983.78  1101.11  984.919  " style="fill: none; stroke: black; stroke-width: 0.200000; fill-type: evenodd"  fill-opacity="1.000000" />
   <path d="M 1101.11  984.919  1101.15  985.302  " style="fill: none; stroke: red; stroke-width: 0.200000; fill-type: evenodd"  fill-opacity="1.000000" />
   <path d="M 1101.15  985.302  1101.25  986.15  " style="fill: none; stroke: black; stroke-width: 0.200000; fill-type: evenodd"  fill-opacity="1.000000" />
   <path d="M 1101.25  986.15  1101.26  986.31  1101.28  987.142  1101.38  987.845  1101.39  988.802  1101.19  991.023  1100.92  992.345  1100.75  993.038  1100.07  994.854  1099.2  996.516  1096.28  1000.85  1090.84  1007.52  1087.76  1010.57  1084.8  1013.54  1081.03  1016.76  1078.5  1018.83  1076.42  1020.18  1076.16  1020.34  1075.5  1020.58  1073.39  1021.29  1070.21  1021.69  1067.67  1021.62  1066.77  1021.53  1060.9  1020.85  1058.84  1020.47  1054.78  1019.63  1053.01  1019.36  1049.99  1018.58  1046.2  1017.49  1039.71  1014.91  1037.04  1013.5  1036.71  1013.31  1035.75  1012.7  1035.08  1012.2  1033.86  1011.23  1031.98  1009.65  1030.51  1008.38  1028.5  1006.57  1027.28  1005.4  " style="fill: none; stroke: red; stroke-width: 0.200000; fill-type: evenodd"  fill-opacity="1.000000" />
   <path d="M 1038.6  1067.23  1039.33  1067.96  1039.6  1068.96  1039.33  1069.96  1038.6  1070.7  1037.6  1070.96  1036.6  1070.7  1035.87  1069.96  1035.6  1068.96  1035.87  1067.96  1036.6  1067.23  1037.6  1066.96  1038.6  1067.23  " style="fill: none; stroke: purple; stroke-width: 0.500000; fill-type: evenodd"  fill-opacity="1.000000" />
   <path d="M 1058.6  1047.23  1059.33  1047.96  1059.6  1048.96  1059.33  1049.96  1058.6  1050.7  1057.6  1050.96  1056.6  1050.7  1055.87  1049.96  1055.6  1048.96  1055.87  1047.96  1056.6  1047.23  1057.6  1046.96  1058.6  1047.23  " style="fill: none; stroke: purple; stroke-width: 0.500000; fill-type: evenodd"  fill-opacity="1.000000" />
   <path d="M 1038.6  1047.23  1039.33  1047.96  1039.6  1048.96  1039.33  1049.96  1038.6  1050.7  1037.6  1050.96  1036.6  1050.7  1035.87  1049.96  1035.6  1048.96  1035.87  1047.96  1036.6  1047.23  1037.6  1046.96  1038.6  1047.23  " style="fill: none; stroke: purple; stroke-width: 0.500000; fill-type: evenodd"  fill-opacity="1.000000" />
   <path d="M 959.679  966.359  960.604  967.519  960.934  968.965  960.604  970.411  959.679  971.571  958.343  972.215  956.859  972.215  955.523  971.571  954.598  970.411  954.268  968.965  954.598  967.519  955.523  966.359  956.859  965.715  958.343  965.715  959.679  966.359  " style="fill: none; stroke: purple; stroke-width: 0.500000; fill-type: evenodd"  fill-opacity="1.000000" />
</svg>
