<?xml version="1.0" encoding="UTF-8" standalone="yes"?>
<!DOCTYPE svg PUBLIC "-//W3C//DTD SVG 1.0//EN" "http://www.w3.org/TR/2001/REC-SVG-20010904/DTD/svg10.dtd">
<svg height="2000" width="2000" xmlns="http://www.w3.org/2000/svg" xmlns:svg="http://www.w3.org/2000/svg" xmlns:xlink="http://www.w3.org/1999/xlink">
   <marker id="endArrow" markerHeight="8" markerUnits="strokeWidth" markerWidth="10" orient="auto" refX="1" refY="5" viewBox="0 0 1000 1000">
      <polyline fill="darkblue" points="0,0 10,5 0,10 1,5" />
   </marker>
   <circle cx="1000" cy="1000" r="1" style="stroke:black; fill: red" />
   <circle cx="1000" cy="1000" r="800" style="stroke:black; fill: none" />
   <line x1="1071.696289" y1="1054.343140" x2="1071.696289" y2="1055.127441" style="stroke: green; stroke-width: 0.200000"/>
   <line x1="1072.696289" y1="1053.343262" x2="1072.696289" y2="1055.127441" style="stroke: green; stroke-width: 0.200000"/>
   <line x1="1073.696167" y1="1052.343262" x2="1073.696167" y2="1055.127441" style="stroke: green; stroke-width: 0.200000"/>
   <line x1="1074.696167" y1="1051.343262" x2="1074.696167" y2="1055.127441" style="stroke: green; stroke-width: 0.200000"/>
   <line x1="1075.696289" y1="1050.343140" x2="1075.696289" y2="1055.127441" style="stroke: green; stroke-width: 0.200000"/>
   <line x1="1076.696289" y1="1049.343140" x2="1076.696289" y2="1055.127441" style="stroke: green; stroke-width: 0.200000"/>
   <line x1="1077.696289" y1="1048.343262" x2="1077.696289" y2="1055.127441" style="stroke: green; stroke-width: 0.200000"/>
   <line x1="1078.696167" y1="1047.343262" x2="1078.696167" y2="1055.127441" style="stroke: green; stroke-width: 0.200000"/>
   <line x1="1079.696167" y1="1046.343140" x2="1079.696167" y2="1055.127441" style="stroke: green; stroke-width: 0.200000"/>
   <line x1="1080.696289" y1="1045.343140" x2="1080.696289" y2="1055.127441" style="stroke: green; stroke-width: 0.200000"/>
   <line x1="1081.696289" y1="1046.005737" x2="1081.696289" y2="1055.127441" style="stroke: green; stroke-width: 0.200000"/>
   <line x1="1082.696289" y1="1047.005737" x2="1082.696289" y2="1055.127441" style="stroke: green; stroke-width: 0.200000"/>
   <line x1="1083.696167" y1="1048.005615" x2="1083.696167" y2="1055.127441" style="stroke: green; stroke-width: 0.200000"/>
   <line x1="1084.696167" y1="1047.564575" x2="1084.696167" y2="1055.127441" style="stroke: green; stroke-width: 0.200000"/>
   <line x1="1085.696289" y1="1046.564575" x2="1085.696289" y2="1055.127441" style="stroke: green; stroke-width: 0.200000"/>
   <line x1="1086.696289" y1="1045.564575" x2="1086.696289" y2="1055.127441" style="stroke: green; stroke-width: 0.200000"/>
   <line x1="1087.696289" y1="1044.564575" x2="1087.696289" y2="1055.127441" style="stroke: green; stroke-width: 0.200000"/>
   <line x1="1088.696167" y1="1043.564575" x2="1088.696167" y2="1055.127441" style="stroke: green; stroke-width: 0.200000"/>
   <line x1="1089.696167" y1="1042.564575" x2="1089.696167" y2="1055.127441" style="stroke: green; stroke-width: 0.200000"/>
   <line x1="1090.696289" y1="1041.564575" x2="1090.696289" y2="1055.127441" style="stroke: green; stroke-width: 0.200000"/>
   <line x1="1091.696289" y1="1040.564575" x2="1091.696289" y2="1055.127441" style="stroke: green; stroke-width: 0.200000"/>
   <line x1="1092.696289" y1="1039.564575" x2="1092.696289" y2="1054.707153" style="stroke: green; stroke-width: 0.200000"/>
   <line x1="1093.696167" y1="1038.564575" x2="1093.696167" y2="1054.305908" style="stroke: green; stroke-width: 0.200000"/>
   <line x1="1094.696167" y1="1037.564575" x2="1094.696167" y2="1053.928467" style="stroke: green; stroke-width: 0.200000"/>
   <line x1="1095.696289" y1="1036.564575" x2="1095.696289" y2="1053.550903" style="stroke: green; stroke-width: 0.200000"/>
   <line x1="1096.696289" y1="1035.564575" x2="1096.696289" y2="1053.173462" style="stroke: green; stroke-width: 0.200000"/>
   <line x1="1097.696289" y1="1034.564575" x2="1097.696289" y2="1052.795898" style="stroke: green; stroke-width: 0.200000"/>
   <line x1="1098.696167" y1="1033.564575" x2="1098.696167" y2="1052.440063" style="stroke: green; stroke-width: 0.200000"/>
   <line x1="1099.696167" y1="1032.564575" x2="1099.696167" y2="1052.103638" style="stroke: green; stroke-width: 0.200000"/>
   <line x1="1100.696289" y1="1031.564575" x2="1100.696289" y2="1051.745361" style="stroke: green; stroke-width: 0.200000"/>
   <line x1="1101.696289" y1="1030.564575" x2="1101.696289" y2="1051.373535" style="stroke: green; stroke-width: 0.200000"/>
   <line x1="1102.696289" y1="1029.564575" x2="1102.696289" y2="1050.960449" style="stroke: green; stroke-width: 0.200000"/>
   <line x1="1103.696167" y1="1028.564575" x2="1103.696167" y2="1050.547241" style="stroke: green; stroke-width: 0.200000"/>
   <line x1="1104.696167" y1="1027.564575" x2="1104.696167" y2="1050.079834" style="stroke: green; stroke-width: 0.200000"/>
   <line x1="1105.696289" y1="1026.564575" x2="1105.696289" y2="1049.537476" style="stroke: green; stroke-width: 0.200000"/>
   <line x1="1106.696289" y1="1025.564575" x2="1106.696289" y2="1048.994995" style="stroke: green; stroke-width: 0.200000"/>
   <line x1="1107.696289" y1="1024.564575" x2="1107.696289" y2="1048.305176" style="stroke: green; stroke-width: 0.200000"/>
   <line x1="1108.696167" y1="1023.564575" x2="1108.696167" y2="1047.612305" style="stroke: green; stroke-width: 0.200000"/>
   <line x1="1109.696167" y1="1022.564575" x2="1109.696167" y2="1046.776855" style="stroke: green; stroke-width: 0.200000"/>
   <line x1="1110.696289" y1="1021.564575" x2="1110.696289" y2="1045.874756" style="stroke: green; stroke-width: 0.200000"/>
   <line x1="1111.696289" y1="1020.564575" x2="1111.696289" y2="1044.955322" style="stroke: green; stroke-width: 0.200000"/>
   <line x1="1112.696289" y1="1019.564575" x2="1112.696289" y2="1043.996338" style="stroke: green; stroke-width: 0.200000"/>
   <line x1="1113.696167" y1="1018.564575" x2="1113.696167" y2="1042.942505" style="stroke: green; stroke-width: 0.200000"/>
   <line x1="1114.696167" y1="1017.564636" x2="1114.696167" y2="1041.883179" style="stroke: green; stroke-width: 0.200000"/>
   <line x1="1115.696289" y1="1016.564575" x2="1115.696289" y2="1040.823853" style="stroke: green; stroke-width: 0.200000"/>
   <line x1="1116.696289" y1="1015.564575" x2="1116.696289" y2="1039.764526" style="stroke: green; stroke-width: 0.200000"/>
   <line x1="1117.696289" y1="1014.564575" x2="1117.696289" y2="1038.705078" style="stroke: green; stroke-width: 0.200000"/>
   <line x1="1118.696167" y1="1013.564575" x2="1118.696167" y2="1037.643066" style="stroke: green; stroke-width: 0.200000"/>
   <line x1="1119.696167" y1="1012.564636" x2="1119.696167" y2="1036.504761" style="stroke: green; stroke-width: 0.200000"/>
   <line x1="1120.696289" y1="1005.677185" x2="1120.696289" y2="1035.282349" style="stroke: green; stroke-width: 0.200000"/>
   <line x1="1121.696289" y1="1007.248901" x2="1121.696289" y2="1033.883911" style="stroke: green; stroke-width: 0.200000"/>
   <line x1="1122.696289" y1="1009.135681" x2="1122.696289" y2="1032.391968" style="stroke: green; stroke-width: 0.200000"/>
   <line x1="1123.696167" y1="1011.082031" x2="1123.696167" y2="1030.360229" style="stroke: green; stroke-width: 0.200000"/>
   <line x1="1124.696167" y1="1014.008484" x2="1124.696167" y2="1027.657349" style="stroke: green; stroke-width: 0.200000"/>
   <line x1="1119.696167" y1="1005.777588" x2="1119.696167" y2="1009.262695" style="stroke: green; stroke-width: 0.200000"/>
   <line x1="1118.696167" y1="1006.777588" x2="1118.696167" y2="1007.163391" style="stroke: green; stroke-width: 0.200000"/>
   <line x1="1027.696289" y1="1104.564575" x2="1027.696289" y2="1105.227417" style="stroke: green; stroke-width: 0.200000"/>
   <line x1="1028.696167" y1="1103.564575" x2="1028.696167" y2="1105.227417" style="stroke: green; stroke-width: 0.200000"/>
   <line x1="1029.696167" y1="1102.564575" x2="1029.696167" y2="1105.227417" style="stroke: green; stroke-width: 0.200000"/>
   <line x1="1030.696289" y1="1101.564697" x2="1030.696289" y2="1105.227417" style="stroke: green; stroke-width: 0.200000"/>
   <line x1="1031.696289" y1="1100.564575" x2="1031.696289" y2="1105.227417" style="stroke: green; stroke-width: 0.200000"/>
   <line x1="1032.696289" y1="1099.564575" x2="1032.696289" y2="1105.227417" style="stroke: green; stroke-width: 0.200000"/>
   <line x1="1033.696167" y1="1098.564575" x2="1033.696167" y2="1105.227417" style="stroke: green; stroke-width: 0.200000"/>
   <line x1="1034.696167" y1="1097.564575" x2="1034.696167" y2="1105.227417" style="stroke: green; stroke-width: 0.200000"/>
   <line x1="1035.696289" y1="1090.343262" x2="1035.696289" y2="1105.227417" style="stroke: green; stroke-width: 0.200000"/>
   <line x1="1036.696289" y1="1089.343262" x2="1036.696289" y2="1105.227417" style="stroke: green; stroke-width: 0.200000"/>
   <line x1="1037.696289" y1="1088.343262" x2="1037.696289" y2="1105.227417" style="stroke: green; stroke-width: 0.200000"/>
   <line x1="1038.696167" y1="1087.343262" x2="1038.696167" y2="1105.227417" style="stroke: green; stroke-width: 0.200000"/>
   <line x1="1039.696167" y1="1086.343262" x2="1039.696167" y2="1105.227417" style="stroke: green; stroke-width: 0.200000"/>
   <line x1="1040.696289" y1="1085.343262" x2="1040.696289" y2="1105.227417" style="stroke: green; stroke-width: 0.200000"/>
   <line x1="1041.696289" y1="1084.343140" x2="1041.696289" y2="1105.227417" style="stroke: green; stroke-width: 0.200000"/>
   <line x1="1042.696289" y1="1083.343262" x2="1042.696289" y2="1105.227417" style="stroke: green; stroke-width: 0.200000"/>
   <line x1="1043.696167" y1="1082.343262" x2="1043.696167" y2="1105.227417" style="stroke: green; stroke-width: 0.200000"/>
   <line x1="1044.696167" y1="1081.343262" x2="1044.696167" y2="1105.227417" style="stroke: green; stroke-width: 0.200000"/>
   <line x1="1045.696289" y1="1080.343262" x2="1045.696289" y2="1104.502197" style="stroke: green; stroke-width: 0.200000"/>
   <line x1="1046.696289" y1="1079.343140" x2="1046.696289" y2="1103.390259" style="stroke: green; stroke-width: 0.200000"/>
   <line x1="1047.696289" y1="1078.343262" x2="1047.696289" y2="1102.140869" style="stroke: green; stroke-width: 0.200000"/>
   <line x1="1048.696167" y1="1077.343262" x2="1048.696167" y2="1100.798950" style="stroke: green; stroke-width: 0.200000"/>
   <line x1="1049.696167" y1="1076.343262" x2="1049.696167" y2="1099.395752" style="stroke: green; stroke-width: 0.200000"/>
   <line x1="1050.696289" y1="1075.343262" x2="1050.696289" y2="1097.770874" style="stroke: green; stroke-width: 0.200000"/>
   <line x1="1034.696167" y1="1091.343262" x2="1034.696167" y2="1096.334961" style="stroke: green; stroke-width: 0.200000"/>
   <line x1="1051.696289" y1="1074.343140" x2="1051.696289" y2="1096.022461" style="stroke: green; stroke-width: 0.200000"/>
   <line x1="1033.696167" y1="1092.343262" x2="1033.696167" y2="1095.334839" style="stroke: green; stroke-width: 0.200000"/>
   <line x1="1032.696289" y1="1093.343262" x2="1032.696289" y2="1094.334839" style="stroke: green; stroke-width: 0.200000"/>
   <line x1="1052.696289" y1="1073.343262" x2="1052.696289" y2="1094.086914" style="stroke: green; stroke-width: 0.200000"/>
   <line x1="1053.696167" y1="1072.343262" x2="1053.696167" y2="1092.045654" style="stroke: green; stroke-width: 0.200000"/>
   <line x1="1054.696167" y1="1071.343262" x2="1054.696167" y2="1090.191895" style="stroke: green; stroke-width: 0.200000"/>
   <line x1="1055.696289" y1="1070.343262" x2="1055.696289" y2="1088.440918" style="stroke: green; stroke-width: 0.200000"/>
   <line x1="1056.696289" y1="1069.343140" x2="1056.696289" y2="1086.680420" style="stroke: green; stroke-width: 0.200000"/>
   <line x1="1057.696289" y1="1068.343262" x2="1057.696289" y2="1085.176514" style="stroke: green; stroke-width: 0.200000"/>
   <line x1="1058.696167" y1="1067.343262" x2="1058.696167" y2="1083.623535" style="stroke: green; stroke-width: 0.200000"/>
   <line x1="1059.696167" y1="1066.343262" x2="1059.696167" y2="1082.135498" style="stroke: green; stroke-width: 0.200000"/>
   <line x1="1060.696289" y1="1065.343262" x2="1060.696289" y2="1080.754272" style="stroke: green; stroke-width: 0.200000"/>
   <line x1="1061.696289" y1="1064.343140" x2="1061.696289" y2="1079.461792" style="stroke: green; stroke-width: 0.200000"/>
   <line x1="1062.696289" y1="1063.343262" x2="1062.696289" y2="1078.216309" style="stroke: green; stroke-width: 0.200000"/>
   <line x1="1063.696167" y1="1062.343262" x2="1063.696167" y2="1076.946289" style="stroke: green; stroke-width: 0.200000"/>
   <line x1="1064.696167" y1="1061.343262" x2="1064.696167" y2="1075.676147" style="stroke: green; stroke-width: 0.200000"/>
   <line x1="1065.696289" y1="1060.343140" x2="1065.696289" y2="1074.498413" style="stroke: green; stroke-width: 0.200000"/>
   <line x1="1066.696289" y1="1059.343140" x2="1066.696289" y2="1073.430176" style="stroke: green; stroke-width: 0.200000"/>
   <line x1="1067.696289" y1="1058.343262" x2="1067.696289" y2="1072.362061" style="stroke: green; stroke-width: 0.200000"/>
   <line x1="1068.696167" y1="1057.343262" x2="1068.696167" y2="1071.293823" style="stroke: green; stroke-width: 0.200000"/>
   <line x1="1069.696167" y1="1056.343262" x2="1069.696167" y2="1070.196045" style="stroke: green; stroke-width: 0.200000"/>
   <line x1="1070.696289" y1="1055.343140" x2="1070.696289" y2="1069.097778" style="stroke: green; stroke-width: 0.200000"/>
   <line x1="1071.696289" y1="1055.227417" x2="1071.696289" y2="1067.999512" style="stroke: green; stroke-width: 0.200000"/>
   <line x1="1072.696289" y1="1055.227417" x2="1072.696289" y2="1067.054688" style="stroke: green; stroke-width: 0.200000"/>
   <line x1="1073.696167" y1="1055.227417" x2="1073.696167" y2="1066.142822" style="stroke: green; stroke-width: 0.200000"/>
   <line x1="1074.696167" y1="1055.227417" x2="1074.696167" y2="1065.248779" style="stroke: green; stroke-width: 0.200000"/>
   <line x1="1075.696289" y1="1055.227417" x2="1075.696289" y2="1064.387939" style="stroke: green; stroke-width: 0.200000"/>
   <line x1="1076.696289" y1="1055.227417" x2="1076.696289" y2="1063.604248" style="stroke: green; stroke-width: 0.200000"/>
   <line x1="1077.696289" y1="1055.227417" x2="1077.696289" y2="1062.850220" style="stroke: green; stroke-width: 0.200000"/>
   <line x1="1078.696167" y1="1055.227417" x2="1078.696167" y2="1062.096191" style="stroke: green; stroke-width: 0.200000"/>
   <line x1="1079.696167" y1="1055.227417" x2="1079.696167" y2="1061.386475" style="stroke: green; stroke-width: 0.200000"/>
   <line x1="1080.696289" y1="1055.227417" x2="1080.696289" y2="1060.759399" style="stroke: green; stroke-width: 0.200000"/>
   <line x1="1081.696289" y1="1055.227417" x2="1081.696289" y2="1060.144897" style="stroke: green; stroke-width: 0.200000"/>
   <line x1="1082.696289" y1="1055.227417" x2="1082.696289" y2="1059.530273" style="stroke: green; stroke-width: 0.200000"/>
   <line x1="1083.696167" y1="1055.227417" x2="1083.696167" y2="1058.923706" style="stroke: green; stroke-width: 0.200000"/>
   <line x1="1084.696167" y1="1055.227417" x2="1084.696167" y2="1058.427246" style="stroke: green; stroke-width: 0.200000"/>
   <line x1="1085.696289" y1="1055.227417" x2="1085.696289" y2="1057.930664" style="stroke: green; stroke-width: 0.200000"/>
   <line x1="1086.696289" y1="1055.227417" x2="1086.696289" y2="1057.433960" style="stroke: green; stroke-width: 0.200000"/>
   <line x1="1087.696289" y1="1055.227417" x2="1087.696289" y2="1056.926025" style="stroke: green; stroke-width: 0.200000"/>
   <line x1="1088.696167" y1="1055.227417" x2="1088.696167" y2="1056.443970" style="stroke: green; stroke-width: 0.200000"/>
   <line x1="1089.696167" y1="1055.227417" x2="1089.696167" y2="1056.009766" style="stroke: green; stroke-width: 0.200000"/>
   <line x1="1090.696289" y1="1055.227417" x2="1090.696289" y2="1055.575439" style="stroke: green; stroke-width: 0.200000"/>
   <line x1="1026.696289" y1="1105.564697" x2="1026.696289" y2="1114.702271" style="stroke: green; stroke-width: 0.200000"/>
   <line x1="1027.696289" y1="1105.327393" x2="1027.696289" y2="1114.678589" style="stroke: green; stroke-width: 0.200000"/>
   <line x1="1025.696289" y1="1106.564697" x2="1025.696289" y2="1114.656494" style="stroke: green; stroke-width: 0.200000"/>
   <line x1="1028.696167" y1="1105.327393" x2="1028.696167" y2="1114.632446" style="stroke: green; stroke-width: 0.200000"/>
   <line x1="1024.696167" y1="1107.564575" x2="1024.696167" y2="1114.589600" style="stroke: green; stroke-width: 0.200000"/>
   <line x1="1029.696167" y1="1105.327393" x2="1029.696167" y2="1114.529419" style="stroke: green; stroke-width: 0.200000"/>
   <line x1="1023.696228" y1="1108.564575" x2="1023.696228" y2="1114.473755" style="stroke: green; stroke-width: 0.200000"/>
   <line x1="1030.696289" y1="1105.327393" x2="1030.696289" y2="1114.381348" style="stroke: green; stroke-width: 0.200000"/>
   <line x1="1022.696228" y1="1109.564697" x2="1022.696228" y2="1114.315918" style="stroke: green; stroke-width: 0.200000"/>
   <line x1="1031.696289" y1="1105.327393" x2="1031.696289" y2="1114.205444" style="stroke: green; stroke-width: 0.200000"/>
   <line x1="1021.696228" y1="1109.901855" x2="1021.696228" y2="1114.128174" style="stroke: green; stroke-width: 0.200000"/>
   <line x1="1032.696289" y1="1105.327393" x2="1032.696289" y2="1113.954224" style="stroke: green; stroke-width: 0.200000"/>
   <line x1="1020.696289" y1="1109.793823" x2="1020.696289" y2="1113.874878" style="stroke: green; stroke-width: 0.200000"/>
   <line x1="1033.696167" y1="1105.327393" x2="1033.696167" y2="1113.668457" style="stroke: green; stroke-width: 0.200000"/>
   <line x1="1019.696167" y1="1109.682739" x2="1019.696167" y2="1113.578125" style="stroke: green; stroke-width: 0.200000"/>
   <line x1="1034.696167" y1="1105.327393" x2="1034.696167" y2="1113.337524" style="stroke: green; stroke-width: 0.200000"/>
   <line x1="1018.696228" y1="1109.540894" x2="1018.696228" y2="1113.243530" style="stroke: green; stroke-width: 0.200000"/>
   <line x1="1035.696289" y1="1105.327393" x2="1035.696289" y2="1112.928223" style="stroke: green; stroke-width: 0.200000"/>
   <line x1="1017.696228" y1="1109.399170" x2="1017.696228" y2="1112.880615" style="stroke: green; stroke-width: 0.200000"/>
   <line x1="1016.696228" y1="1109.257324" x2="1016.696228" y2="1112.499390" style="stroke: green; stroke-width: 0.200000"/>
   <line x1="1036.696289" y1="1105.327393" x2="1036.696289" y2="1112.467529" style="stroke: green; stroke-width: 0.200000"/>
   <line x1="1015.696289" y1="1109.777710" x2="1015.696289" y2="1112.118164" style="stroke: green; stroke-width: 0.200000"/>
   <line x1="1037.696289" y1="1105.327393" x2="1037.696289" y2="1111.946777" style="stroke: green; stroke-width: 0.200000"/>
   <line x1="1014.696167" y1="1110.777710" x2="1014.696167" y2="1111.737183" style="stroke: green; stroke-width: 0.200000"/>
   <line x1="1038.696167" y1="1105.327393" x2="1038.696167" y2="1111.336670" style="stroke: green; stroke-width: 0.200000"/>
   <line x1="1039.696167" y1="1105.327393" x2="1039.696167" y2="1110.628906" style="stroke: green; stroke-width: 0.200000"/>
   <line x1="1040.696289" y1="1105.327393" x2="1040.696289" y2="1109.815430" style="stroke: green; stroke-width: 0.200000"/>
   <line x1="1041.696289" y1="1105.327393" x2="1041.696289" y2="1108.889404" style="stroke: green; stroke-width: 0.200000"/>
   <line x1="1042.696289" y1="1105.327393" x2="1042.696289" y2="1107.805664" style="stroke: green; stroke-width: 0.200000"/>
   <line x1="1043.696167" y1="1105.327393" x2="1043.696167" y2="1106.722046" style="stroke: green; stroke-width: 0.200000"/>
   <line x1="1044.696167" y1="1105.327393" x2="1044.696167" y2="1105.613647" style="stroke: green; stroke-width: 0.200000"/>
   <line x1="973.682922" y1="933.727295" x2="973.682922" y2="936.143188" style="stroke: green; stroke-width: 0.200000"/>
   <line x1="974.682922" y1="930.080566" x2="974.682922" y2="936.143188" style="stroke: green; stroke-width: 0.200000"/>
   <line x1="975.682922" y1="926.077393" x2="975.682922" y2="936.143188" style="stroke: green; stroke-width: 0.200000"/>
   <line x1="976.682861" y1="921.408752" x2="976.682861" y2="936.143188" style="stroke: green; stroke-width: 0.200000"/>
   <line x1="977.682861" y1="917.631226" x2="977.682861" y2="936.143188" style="stroke: green; stroke-width: 0.200000"/>
   <line x1="978.682922" y1="915.288757" x2="978.682922" y2="936.143188" style="stroke: green; stroke-width: 0.200000"/>
   <line x1="979.682922" y1="913.598083" x2="979.682922" y2="936.143188" style="stroke: green; stroke-width: 0.200000"/>
   <line x1="980.682922" y1="912.186829" x2="980.682922" y2="936.143188" style="stroke: green; stroke-width: 0.200000"/>
   <line x1="981.682861" y1="910.962646" x2="981.682861" y2="936.143188" style="stroke: green; stroke-width: 0.200000"/>
   <line x1="982.682861" y1="909.926758" x2="982.682861" y2="936.143188" style="stroke: green; stroke-width: 0.200000"/>
   <line x1="983.682922" y1="908.890747" x2="983.682922" y2="936.143188" style="stroke: green; stroke-width: 0.200000"/>
   <line x1="984.682922" y1="907.854858" x2="984.682922" y2="935.270996" style="stroke: green; stroke-width: 0.200000"/>
   <line x1="985.682922" y1="906.818909" x2="985.682922" y2="934.270874" style="stroke: green; stroke-width: 0.200000"/>
   <line x1="986.682861" y1="905.783020" x2="986.682861" y2="933.270874" style="stroke: green; stroke-width: 0.200000"/>
   <line x1="987.682861" y1="904.747070" x2="987.682861" y2="932.270874" style="stroke: green; stroke-width: 0.200000"/>
   <line x1="988.682922" y1="903.807312" x2="988.682922" y2="931.270874" style="stroke: green; stroke-width: 0.200000"/>
   <line x1="989.682922" y1="902.871399" x2="989.682922" y2="930.270874" style="stroke: green; stroke-width: 0.200000"/>
   <line x1="990.682922" y1="901.935486" x2="990.682922" y2="929.270874" style="stroke: green; stroke-width: 0.200000"/>
   <line x1="991.682861" y1="900.999695" x2="991.682861" y2="928.270874" style="stroke: green; stroke-width: 0.200000"/>
   <line x1="992.682861" y1="900.063782" x2="992.682861" y2="927.270874" style="stroke: green; stroke-width: 0.200000"/>
   <line x1="993.682922" y1="899.127869" x2="993.682922" y2="926.270813" style="stroke: green; stroke-width: 0.200000"/>
   <line x1="994.682922" y1="898.228455" x2="994.682922" y2="925.270874" style="stroke: green; stroke-width: 0.200000"/>
   <line x1="995.682922" y1="897.388367" x2="995.682922" y2="924.270874" style="stroke: green; stroke-width: 0.200000"/>
   <line x1="996.682861" y1="896.548401" x2="996.682861" y2="923.270874" style="stroke: green; stroke-width: 0.200000"/>
   <line x1="997.682861" y1="895.708374" x2="997.682861" y2="922.270813" style="stroke: green; stroke-width: 0.200000"/>
   <line x1="998.682922" y1="894.929260" x2="998.682922" y2="921.270813" style="stroke: green; stroke-width: 0.200000"/>
   <line x1="999.682922" y1="894.154724" x2="999.682922" y2="920.270874" style="stroke: green; stroke-width: 0.200000"/>
   <line x1="1000.682922" y1="893.380188" x2="1000.682922" y2="919.270874" style="stroke: green; stroke-width: 0.200000"/>
   <line x1="1001.682861" y1="892.629150" x2="1001.682861" y2="918.270874" style="stroke: green; stroke-width: 0.200000"/>
   <line x1="1002.682861" y1="891.921448" x2="1002.682861" y2="917.270813" style="stroke: green; stroke-width: 0.200000"/>
   <line x1="1003.682922" y1="891.213745" x2="1003.682922" y2="916.270813" style="stroke: green; stroke-width: 0.200000"/>
   <line x1="1004.682922" y1="890.506042" x2="1004.682922" y2="915.270874" style="stroke: green; stroke-width: 0.200000"/>
   <line x1="1005.682922" y1="889.798462" x2="1005.682922" y2="914.270874" style="stroke: green; stroke-width: 0.200000"/>
   <line x1="1006.682861" y1="889.146484" x2="1006.682861" y2="913.270874" style="stroke: green; stroke-width: 0.200000"/>
   <line x1="1007.682861" y1="888.495544" x2="1007.682861" y2="912.270813" style="stroke: green; stroke-width: 0.200000"/>
   <line x1="1008.682922" y1="887.910522" x2="1008.682922" y2="911.270813" style="stroke: green; stroke-width: 0.200000"/>
   <line x1="1009.682922" y1="887.431274" x2="1009.682922" y2="910.270874" style="stroke: green; stroke-width: 0.200000"/>
   <line x1="1010.682922" y1="887.035522" x2="1010.682922" y2="909.270874" style="stroke: green; stroke-width: 0.200000"/>
   <line x1="1011.682861" y1="886.713623" x2="1011.682861" y2="908.270874" style="stroke: green; stroke-width: 0.200000"/>
   <line x1="1012.682861" y1="886.459595" x2="1012.682861" y2="907.270813" style="stroke: green; stroke-width: 0.200000"/>
   <line x1="1013.682922" y1="886.286072" x2="1013.682922" y2="906.270813" style="stroke: green; stroke-width: 0.200000"/>
   <line x1="1014.682922" y1="886.185242" x2="1014.682922" y2="905.270874" style="stroke: green; stroke-width: 0.200000"/>
   <line x1="1015.682922" y1="886.165283" x2="1015.682922" y2="904.270874" style="stroke: green; stroke-width: 0.200000"/>
   <line x1="1016.682861" y1="886.177612" x2="1016.682861" y2="903.270813" style="stroke: green; stroke-width: 0.200000"/>
   <line x1="1017.682861" y1="886.268372" x2="1017.682861" y2="902.270813" style="stroke: green; stroke-width: 0.200000"/>
   <line x1="1018.682922" y1="886.426392" x2="1018.682922" y2="901.270813" style="stroke: green; stroke-width: 0.200000"/>
   <line x1="1019.682922" y1="886.645203" x2="1019.682922" y2="900.270874" style="stroke: green; stroke-width: 0.200000"/>
   <line x1="1020.682922" y1="886.928162" x2="1020.682922" y2="899.270874" style="stroke: green; stroke-width: 0.200000"/>
   <line x1="1021.682861" y1="887.296692" x2="1021.682861" y2="898.270813" style="stroke: green; stroke-width: 0.200000"/>
   <line x1="1022.682861" y1="887.753784" x2="1022.682861" y2="897.270813" style="stroke: green; stroke-width: 0.200000"/>
   <line x1="1023.682922" y1="888.299500" x2="1023.682922" y2="896.270813" style="stroke: green; stroke-width: 0.200000"/>
   <line x1="1024.682861" y1="888.942383" x2="1024.682861" y2="895.270874" style="stroke: green; stroke-width: 0.200000"/>
   <line x1="1028.682983" y1="892.713684" x2="1028.682983" y2="894.835510" style="stroke: green; stroke-width: 0.200000"/>
   <line x1="1025.682861" y1="889.718323" x2="1025.682861" y2="894.270752" style="stroke: green; stroke-width: 0.200000"/>
   <line x1="1027.682861" y1="891.602905" x2="1027.682861" y2="894.267822" style="stroke: green; stroke-width: 0.200000"/>
   <line x1="1029.682861" y1="893.824463" x2="1029.682861" y2="893.835510" style="stroke: green; stroke-width: 0.200000"/>
   <line x1="1026.682861" y1="890.640625" x2="1026.682861" y2="893.271118" style="stroke: green; stroke-width: 0.200000"/>
   <line x1="917.682861" y1="986.235291" x2="917.682861" y2="986.243225" style="stroke: green; stroke-width: 0.200000"/>
   <line x1="918.682922" y1="985.993774" x2="918.682922" y2="986.243225" style="stroke: green; stroke-width: 0.200000"/>
   <line x1="919.682922" y1="985.752197" x2="919.682922" y2="986.243225" style="stroke: green; stroke-width: 0.200000"/>
   <line x1="920.682922" y1="985.510803" x2="920.682922" y2="986.243225" style="stroke: green; stroke-width: 0.200000"/>
   <line x1="921.682861" y1="985.256348" x2="921.682861" y2="986.243225" style="stroke: green; stroke-width: 0.200000"/>
   <line x1="922.682861" y1="984.981201" x2="922.682861" y2="986.243225" style="stroke: green; stroke-width: 0.200000"/>
   <line x1="923.682922" y1="984.571472" x2="923.682922" y2="986.243225" style="stroke: green; stroke-width: 0.200000"/>
   <line x1="924.682922" y1="983.952698" x2="924.682922" y2="986.243225" style="stroke: green; stroke-width: 0.200000"/>
   <line x1="925.682922" y1="983.040710" x2="925.682922" y2="986.243225" style="stroke: green; stroke-width: 0.200000"/>
   <line x1="926.682861" y1="982.012390" x2="926.682861" y2="986.243225" style="stroke: green; stroke-width: 0.200000"/>
   <line x1="927.682861" y1="980.983887" x2="927.682861" y2="986.243225" style="stroke: green; stroke-width: 0.200000"/>
   <line x1="928.682922" y1="980.116821" x2="928.682922" y2="986.243225" style="stroke: green; stroke-width: 0.200000"/>
   <line x1="929.682922" y1="979.299988" x2="929.682922" y2="986.243225" style="stroke: green; stroke-width: 0.200000"/>
   <line x1="930.682922" y1="978.483276" x2="930.682922" y2="986.243225" style="stroke: green; stroke-width: 0.200000"/>
   <line x1="931.682861" y1="977.795715" x2="931.682861" y2="986.243225" style="stroke: green; stroke-width: 0.200000"/>
   <line x1="932.682861" y1="977.148499" x2="932.682861" y2="986.243225" style="stroke: green; stroke-width: 0.200000"/>
   <line x1="933.682922" y1="976.501221" x2="933.682922" y2="986.243225" style="stroke: green; stroke-width: 0.200000"/>
   <line x1="934.682922" y1="975.886230" x2="934.682922" y2="986.243225" style="stroke: green; stroke-width: 0.200000"/>
   <line x1="935.682922" y1="975.313354" x2="935.682922" y2="986.243225" style="stroke: green; stroke-width: 0.200000"/>
   <line x1="936.682861" y1="974.740479" x2="936.682861" y2="986.243225" style="stroke: green; stroke-width: 0.200000"/>
   <line x1="937.682861" y1="974.167542" x2="937.682861" y2="986.243225" style="stroke: green; stroke-width: 0.200000"/>
   <line x1="938.682922" y1="973.581421" x2="938.682922" y2="986.243225" style="stroke: green; stroke-width: 0.200000"/>
   <line x1="939.682922" y1="972.993774" x2="939.682922" y2="986.243225" style="stroke: green; stroke-width: 0.200000"/>
   <line x1="940.682922" y1="972.406128" x2="940.682922" y2="986.243225" style="stroke: green; stroke-width: 0.200000"/>
   <line x1="941.682861" y1="971.786377" x2="941.682861" y2="986.243225" style="stroke: green; stroke-width: 0.200000"/>
   <line x1="942.682861" y1="971.107056" x2="942.682861" y2="986.243225" style="stroke: green; stroke-width: 0.200000"/>
   <line x1="943.682922" y1="970.427612" x2="943.682922" y2="986.243225" style="stroke: green; stroke-width: 0.200000"/>
   <line x1="944.682922" y1="969.748291" x2="944.682922" y2="986.243225" style="stroke: green; stroke-width: 0.200000"/>
   <line x1="945.682922" y1="968.955750" x2="945.682922" y2="986.243225" style="stroke: green; stroke-width: 0.200000"/>
   <line x1="946.682861" y1="968.158569" x2="946.682861" y2="986.243225" style="stroke: green; stroke-width: 0.200000"/>
   <line x1="947.682861" y1="967.361389" x2="947.682861" y2="986.243225" style="stroke: green; stroke-width: 0.200000"/>
   <line x1="948.682922" y1="966.485046" x2="948.682922" y2="985.559143" style="stroke: green; stroke-width: 0.200000"/>
   <line x1="949.682922" y1="965.587891" x2="949.682922" y2="984.566895" style="stroke: green; stroke-width: 0.200000"/>
   <line x1="950.682922" y1="964.690491" x2="950.682922" y2="983.574524" style="stroke: green; stroke-width: 0.200000"/>
   <line x1="951.682861" y1="963.668335" x2="951.682861" y2="982.582275" style="stroke: green; stroke-width: 0.200000"/>
   <line x1="952.682861" y1="962.610718" x2="952.682861" y2="981.589722" style="stroke: green; stroke-width: 0.200000"/>
   <line x1="953.682922" y1="961.553040" x2="953.682922" y2="980.597473" style="stroke: green; stroke-width: 0.200000"/>
   <line x1="954.682922" y1="960.495544" x2="954.682922" y2="979.605103" style="stroke: green; stroke-width: 0.200000"/>
   <line x1="955.682922" y1="959.459839" x2="955.682922" y2="978.612793" style="stroke: green; stroke-width: 0.200000"/>
   <line x1="956.682861" y1="958.316345" x2="956.682861" y2="977.620483" style="stroke: green; stroke-width: 0.200000"/>
   <line x1="957.682861" y1="957.012695" x2="957.682861" y2="976.628174" style="stroke: green; stroke-width: 0.200000"/>
   <line x1="958.682922" y1="955.709229" x2="958.682922" y2="975.635986" style="stroke: green; stroke-width: 0.200000"/>
   <line x1="959.682922" y1="954.235901" x2="959.682922" y2="974.643677" style="stroke: green; stroke-width: 0.200000"/>
   <line x1="960.682922" y1="952.704712" x2="960.682922" y2="973.651367" style="stroke: green; stroke-width: 0.200000"/>
   <line x1="961.682861" y1="951.173584" x2="961.682861" y2="972.653442" style="stroke: green; stroke-width: 0.200000"/>
   <line x1="962.682861" y1="949.633118" x2="962.682861" y2="971.651733" style="stroke: green; stroke-width: 0.200000"/>
   <line x1="963.682922" y1="948.064941" x2="963.682922" y2="970.650085" style="stroke: green; stroke-width: 0.200000"/>
   <line x1="964.682922" y1="946.496826" x2="964.682922" y2="969.648438" style="stroke: green; stroke-width: 0.200000"/>
   <line x1="965.682922" y1="944.958984" x2="965.682922" y2="968.646790" style="stroke: green; stroke-width: 0.200000"/>
   <line x1="966.682861" y1="943.689026" x2="966.682861" y2="967.645020" style="stroke: green; stroke-width: 0.200000"/>
   <line x1="967.682861" y1="942.575073" x2="967.682861" y2="966.643372" style="stroke: green; stroke-width: 0.200000"/>
   <line x1="968.682922" y1="941.577026" x2="968.682922" y2="965.641968" style="stroke: green; stroke-width: 0.200000"/>
   <line x1="969.682922" y1="940.664612" x2="969.682922" y2="964.640259" style="stroke: green; stroke-width: 0.200000"/>
   <line x1="970.682922" y1="939.870117" x2="970.682922" y2="963.638672" style="stroke: green; stroke-width: 0.200000"/>
   <line x1="971.682861" y1="938.937439" x2="971.682861" y2="962.637024" style="stroke: green; stroke-width: 0.200000"/>
   <line x1="972.682861" y1="936.981262" x2="972.682861" y2="961.635376" style="stroke: green; stroke-width: 0.200000"/>
   <line x1="973.682922" y1="936.243225" x2="973.682922" y2="960.633667" style="stroke: green; stroke-width: 0.200000"/>
   <line x1="974.682922" y1="936.243225" x2="974.682922" y2="959.632019" style="stroke: green; stroke-width: 0.200000"/>
   <line x1="975.682922" y1="936.243225" x2="975.682922" y2="958.630249" style="stroke: green; stroke-width: 0.200000"/>
   <line x1="976.682861" y1="936.243225" x2="976.682861" y2="957.628540" style="stroke: green; stroke-width: 0.200000"/>
   <line x1="977.682861" y1="936.243225" x2="977.682861" y2="956.626892" style="stroke: green; stroke-width: 0.200000"/>
   <line x1="978.682922" y1="942.992249" x2="978.682922" y2="955.625244" style="stroke: green; stroke-width: 0.200000"/>
   <line x1="979.682922" y1="945.792969" x2="979.682922" y2="954.623535" style="stroke: green; stroke-width: 0.200000"/>
   <line x1="980.682922" y1="946.872925" x2="980.682922" y2="953.621887" style="stroke: green; stroke-width: 0.200000"/>
   <line x1="981.682861" y1="947.952820" x2="981.682861" y2="952.620117" style="stroke: green; stroke-width: 0.200000"/>
   <line x1="982.682861" y1="949.032715" x2="982.682861" y2="951.618408" style="stroke: green; stroke-width: 0.200000"/>
   <line x1="978.682922" y1="936.243225" x2="978.682922" y2="941.271301" style="stroke: green; stroke-width: 0.200000"/>
   <line x1="979.682922" y1="936.243225" x2="979.682922" y2="940.271240" style="stroke: green; stroke-width: 0.200000"/>
   <line x1="980.682922" y1="936.243225" x2="980.682922" y2="939.270996" style="stroke: green; stroke-width: 0.200000"/>
   <line x1="981.682861" y1="936.243225" x2="981.682861" y2="938.270996" style="stroke: green; stroke-width: 0.200000"/>
   <line x1="982.682861" y1="936.243225" x2="982.682861" y2="937.270996" style="stroke: green; stroke-width: 0.200000"/>
   <line x1="983.682922" y1="936.243225" x2="983.682922" y2="936.270996" style="stroke: green; stroke-width: 0.200000"/>
   <line x1="877.682861" y1="1018.142334" x2="877.682861" y2="1036.343140" style="stroke: green; stroke-width: 0.200000"/>
   <line x1="878.682922" y1="1016.424622" x2="878.682922" y2="1036.343140" style="stroke: green; stroke-width: 0.200000"/>
   <line x1="879.682922" y1="1014.729980" x2="879.682922" y2="1036.343140" style="stroke: green; stroke-width: 0.200000"/>
   <line x1="880.682922" y1="1013.280579" x2="880.682922" y2="1036.343140" style="stroke: green; stroke-width: 0.200000"/>
   <line x1="881.682861" y1="1011.831055" x2="881.682861" y2="1036.343140" style="stroke: green; stroke-width: 0.200000"/>
   <line x1="882.682861" y1="1010.417358" x2="882.682861" y2="1036.343140" style="stroke: green; stroke-width: 0.200000"/>
   <line x1="883.682922" y1="1009.159241" x2="883.682922" y2="1036.270752" style="stroke: green; stroke-width: 0.200000"/>
   <line x1="876.682861" y1="1019.942261" x2="876.682861" y2="1035.796143" style="stroke: green; stroke-width: 0.200000"/>
   <line x1="884.682922" y1="1007.901123" x2="884.682922" y2="1035.270752" style="stroke: green; stroke-width: 0.200000"/>
   <line x1="875.682922" y1="1021.933716" x2="875.682922" y2="1034.432983" style="stroke: green; stroke-width: 0.200000"/>
   <line x1="885.682922" y1="1006.647583" x2="885.682922" y2="1034.270752" style="stroke: green; stroke-width: 0.200000"/>
   <line x1="886.682861" y1="1005.524597" x2="886.682861" y2="1033.270752" style="stroke: green; stroke-width: 0.200000"/>
   <line x1="874.682922" y1="1024.102295" x2="874.682922" y2="1032.429932" style="stroke: green; stroke-width: 0.200000"/>
   <line x1="887.682861" y1="1004.401550" x2="887.682861" y2="1032.270752" style="stroke: green; stroke-width: 0.200000"/>
   <line x1="888.682922" y1="1003.278503" x2="888.682922" y2="1031.270874" style="stroke: green; stroke-width: 0.200000"/>
   <line x1="889.682922" y1="1002.218628" x2="889.682922" y2="1030.270752" style="stroke: green; stroke-width: 0.200000"/>
   <line x1="890.682922" y1="1001.189819" x2="890.682922" y2="1029.270752" style="stroke: green; stroke-width: 0.200000"/>
   <line x1="891.682861" y1="1000.160889" x2="891.682861" y2="1028.270752" style="stroke: green; stroke-width: 0.200000"/>
   <line x1="892.682861" y1="999.142212" x2="892.682861" y2="1027.270752" style="stroke: green; stroke-width: 0.200000"/>
   <line x1="893.682922" y1="998.184875" x2="893.682922" y2="1026.270874" style="stroke: green; stroke-width: 0.200000"/>
   <line x1="894.682922" y1="997.227478" x2="894.682922" y2="1025.270874" style="stroke: green; stroke-width: 0.200000"/>
   <line x1="895.682922" y1="996.270081" x2="895.682922" y2="1024.270752" style="stroke: green; stroke-width: 0.200000"/>
   <line x1="896.682861" y1="995.312744" x2="896.682861" y2="1023.270813" style="stroke: green; stroke-width: 0.200000"/>
   <line x1="897.682861" y1="994.358826" x2="897.682861" y2="1022.270813" style="stroke: green; stroke-width: 0.200000"/>
   <line x1="898.682922" y1="993.427246" x2="898.682922" y2="1021.270813" style="stroke: green; stroke-width: 0.200000"/>
   <line x1="899.682922" y1="992.538330" x2="899.682922" y2="1020.270874" style="stroke: green; stroke-width: 0.200000"/>
   <line x1="900.682922" y1="991.760254" x2="900.682922" y2="1019.270752" style="stroke: green; stroke-width: 0.200000"/>
   <line x1="901.682861" y1="991.040344" x2="901.682861" y2="1018.270813" style="stroke: green; stroke-width: 0.200000"/>
   <line x1="902.682861" y1="990.458252" x2="902.682861" y2="1017.270813" style="stroke: green; stroke-width: 0.200000"/>
   <line x1="903.682922" y1="989.876099" x2="903.682922" y2="1016.270813" style="stroke: green; stroke-width: 0.200000"/>
   <line x1="904.682922" y1="989.445801" x2="904.682922" y2="1015.270874" style="stroke: green; stroke-width: 0.200000"/>
   <line x1="905.682922" y1="989.035156" x2="905.682922" y2="1014.270752" style="stroke: green; stroke-width: 0.200000"/>
   <line x1="906.682861" y1="988.694336" x2="906.682861" y2="1013.270813" style="stroke: green; stroke-width: 0.200000"/>
   <line x1="907.682861" y1="988.464478" x2="907.682861" y2="1012.270813" style="stroke: green; stroke-width: 0.200000"/>
   <line x1="908.682922" y1="988.234619" x2="908.682922" y2="1011.270813" style="stroke: green; stroke-width: 0.200000"/>
   <line x1="909.682922" y1="988.015686" x2="909.682922" y2="1010.270874" style="stroke: green; stroke-width: 0.200000"/>
   <line x1="910.682922" y1="987.802002" x2="910.682922" y2="1009.270874" style="stroke: green; stroke-width: 0.200000"/>
   <line x1="911.682861" y1="987.588379" x2="911.682861" y2="1008.270813" style="stroke: green; stroke-width: 0.200000"/>
   <line x1="912.682861" y1="987.374634" x2="912.682861" y2="1007.270813" style="stroke: green; stroke-width: 0.200000"/>
   <line x1="913.682922" y1="987.161133" x2="913.682922" y2="1006.270813" style="stroke: green; stroke-width: 0.200000"/>
   <line x1="914.682922" y1="986.947510" x2="914.682922" y2="1005.270874" style="stroke: green; stroke-width: 0.200000"/>
   <line x1="915.682922" y1="986.718201" x2="915.682922" y2="1004.270874" style="stroke: green; stroke-width: 0.200000"/>
   <line x1="916.682861" y1="986.476746" x2="916.682861" y2="1003.270874" style="stroke: green; stroke-width: 0.200000"/>
   <line x1="917.682861" y1="986.343140" x2="917.682861" y2="1002.270813" style="stroke: green; stroke-width: 0.200000"/>
   <line x1="918.682922" y1="986.343140" x2="918.682922" y2="1001.270813" style="stroke: green; stroke-width: 0.200000"/>
   <line x1="919.682922" y1="986.343140" x2="919.682922" y2="1000.270874" style="stroke: green; stroke-width: 0.200000"/>
   <line x1="920.682922" y1="986.343140" x2="920.682922" y2="999.270996" style="stroke: green; stroke-width: 0.200000"/>
   <line x1="921.682861" y1="986.343140" x2="921.682861" y2="998.270996" style="stroke: green; stroke-width: 0.200000"/>
   <line x1="922.682861" y1="986.343140" x2="922.682861" y2="997.270996" style="stroke: green; stroke-width: 0.200000"/>
   <line x1="923.682922" y1="986.343140" x2="923.682922" y2="996.271118" style="stroke: green; stroke-width: 0.200000"/>
   <line x1="937.682861" y1="986.343140" x2="937.682861" y2="995.610596" style="stroke: green; stroke-width: 0.200000"/>
   <line x1="938.682922" y1="986.343140" x2="938.682922" y2="995.524902" style="stroke: green; stroke-width: 0.200000"/>
   <line x1="924.682922" y1="986.343140" x2="924.682922" y2="995.271118" style="stroke: green; stroke-width: 0.200000"/>
   <line x1="936.682861" y1="986.343140" x2="936.682861" y2="994.823303" style="stroke: green; stroke-width: 0.200000"/>
   <line x1="939.682922" y1="986.343140" x2="939.682922" y2="994.525513" style="stroke: green; stroke-width: 0.200000"/>
   <line x1="925.682922" y1="986.343140" x2="925.682922" y2="994.271118" style="stroke: green; stroke-width: 0.200000"/>
   <line x1="935.682922" y1="986.343140" x2="935.682922" y2="993.900208" style="stroke: green; stroke-width: 0.200000"/>
   <line x1="940.682922" y1="986.343140" x2="940.682922" y2="993.523499" style="stroke: green; stroke-width: 0.200000"/>
   <line x1="926.682861" y1="986.343140" x2="926.682861" y2="993.271240" style="stroke: green; stroke-width: 0.200000"/>
   <line x1="934.682922" y1="986.343140" x2="934.682922" y2="992.976746" style="stroke: green; stroke-width: 0.200000"/>
   <line x1="941.682861" y1="986.343140" x2="941.682861" y2="992.521423" style="stroke: green; stroke-width: 0.200000"/>
   <line x1="930.682922" y1="986.343140" x2="930.682922" y2="992.321533" style="stroke: green; stroke-width: 0.200000"/>
   <line x1="927.682861" y1="986.343140" x2="927.682861" y2="992.271240" style="stroke: green; stroke-width: 0.200000"/>
   <line x1="933.682922" y1="986.343140" x2="933.682922" y2="992.053528" style="stroke: green; stroke-width: 0.200000"/>
   <line x1="931.682861" y1="986.343140" x2="931.682861" y2="991.835938" style="stroke: green; stroke-width: 0.200000"/>
   <line x1="942.682861" y1="986.343140" x2="942.682861" y2="991.519409" style="stroke: green; stroke-width: 0.200000"/>
   <line x1="929.682922" y1="986.343140" x2="929.682922" y2="991.321472" style="stroke: green; stroke-width: 0.200000"/>
   <line x1="928.682922" y1="986.343140" x2="928.682922" y2="991.271301" style="stroke: green; stroke-width: 0.200000"/>
   <line x1="932.682861" y1="986.343140" x2="932.682861" y2="991.130005" style="stroke: green; stroke-width: 0.200000"/>
   <line x1="943.682922" y1="986.343140" x2="943.682922" y2="990.520752" style="stroke: green; stroke-width: 0.200000"/>
   <line x1="944.682922" y1="986.343140" x2="944.682922" y2="989.528442" style="stroke: green; stroke-width: 0.200000"/>
   <line x1="945.682922" y1="986.343140" x2="945.682922" y2="988.536133" style="stroke: green; stroke-width: 0.200000"/>
   <line x1="946.682861" y1="986.343140" x2="946.682861" y2="987.543823" style="stroke: green; stroke-width: 0.200000"/>
   <line x1="947.682861" y1="986.343140" x2="947.682861" y2="986.551514" style="stroke: green; stroke-width: 0.200000"/>
   <line x1="879.682922" y1="1036.443115" x2="879.682922" y2="1038.988525" style="stroke: green; stroke-width: 0.200000"/>
   <line x1="880.682922" y1="1036.443115" x2="880.682922" y2="1038.569824" style="stroke: green; stroke-width: 0.200000"/>
   <line x1="881.682861" y1="1036.443115" x2="881.682861" y2="1038.270752" style="stroke: green; stroke-width: 0.200000"/>
   <line x1="878.682922" y1="1036.443115" x2="878.682922" y2="1037.945801" style="stroke: green; stroke-width: 0.200000"/>
   <line x1="882.682861" y1="1036.443115" x2="882.682861" y2="1037.270752" style="stroke: green; stroke-width: 0.200000"/>
   <line x1="877.682861" y1="1036.443115" x2="877.682861" y2="1036.885132" style="stroke: green; stroke-width: 0.200000"/>
   <path d="M 1123.05  1006.58  1125  1010.29  1125.09  1010.54  1126.37  1014.27  1127.07  1018.27  1127.15  1022.28  1127.04  1023.4  1126.79  1025.24  1126.62  1026.21  1126.13  1028.1  1125.73  1029.44  1125.53  1030.04  1123.84  1033.46  1121.66  1036.52  1120.47  1037.91  1119.76  1038.71  1113.84  1044.98  1113.11  1045.7  1111.33  1047.33  1109.91  1048.6  1107.5  1050.26  1104.92  1051.66  1102.2  1052.79  1100.54  1053.4  1098.68  1054.03  1093.68  1055.92  1088.9  1057.99  1087.88  1058.52  1084.36  1060.27  1081.03  1062.32  1080.17  1062.86  1077.5  1064.88  1076.35  1065.78  1074.17  1067.73  1072.83  1068.98  1069.81  1072.3  1066.38  1075.97  1063.88  1079.14  1062.23  1081.19  1060.56  1083.51  1058.89  1086.09  1057.93  1087.54  1056.36  1090.31  1055.52  1091.76  1054.29  1094.2  1053.7  1095.49  1052.33  1097.98  1050.84  1100.4  1049.16  1102.71  1047.84  1104.37  1044.91  1107.62  1042.55  1110.17  1042.13  1110.56  1040.96  1111.56  1039.68  1112.49  1038.3  1113.33  1036.84  1114.08  1035.3  1114.72  1033.68  1115.25  1032.01  1115.67  1030.29  1115.98  1028.53  1116.16  1026.71  1116.2  1024.88  1116.12  1023.06  1115.91  1021.26  1115.57  1020.39  1115.35  1019.48  1115.09  1017.8  1114.52  1011.3  1112.05  1015.75  1107.61  1019.97  1108.21  1021.74  1108.4  1033.19  1096.95  1030.08  1093.84  1080.86  1043.05  1083.98  1046.16  1118.88  1011.26  1118.38  1009.98  1116.76  1006.59  1120.61  1002.74  1123.05  1006.58  " style="fill: none; stroke: darkmagenta; stroke-width: 0.200000; fill-type: evenodd"  fill-opacity="1.000000" />
   <path d="M 1122.18  1007.08  1124.09  1010.71  1124.16  1010.88  1125.4  1014.51  1126.07  1018.37  1126.15  1022.24  1126.05  1023.28  1125.8  1025.08  1125.64  1026  1125.17  1027.83  1124.78  1029.14  1124.6  1029.65  1122.98  1032.95  1120.87  1035.9  1119.72  1037.25  1119.02  1038.03  1113.12  1044.28  1112.42  1044.97  1110.66  1046.59  1109.29  1047.81  1106.98  1049.41  1104.49  1050.76  1101.84  1051.86  1100.21  1052.46  1098.34  1053.09  1093.3  1054.99  1088.47  1057.09  1087.43  1057.63  1083.87  1059.4  1080.5  1061.47  1079.6  1062.04  1076.89  1064.09  1075.71  1065.02  1073.49  1067  1072.12  1068.27  1069.08  1071.62  1065.62  1075.31  1063.09  1078.52  1061.44  1080.58  1059.73  1082.94  1058.06  1085.54  1057.07  1087.01  1055.5  1089.81  1054.64  1091.29  1053.39  1093.77  1052.81  1095.04  1051.46  1097.48  1050  1099.85  1048.37  1102.1  1047.07  1103.72  1044.17  1106.94  1041.84  1109.47  1041.47  1109.81  1040.34  1110.78  1039.13  1111.66  1037.82  1112.46  1036.42  1113.17  1034.95  1113.78  1033.4  1114.29  1031.8  1114.69  1030.15  1114.99  1028.47  1115.16  1026.72  1115.2  1024.96  1115.12  1023.21  1114.92  1021.48  1114.6  1020.65  1114.38  1019.77  1114.13  1018.14  1113.58  1013.1  1111.66  1016.1  1108.67  1019.85  1109.2  1022.11  1109.44  1034.6  1096.95  1031.49  1093.84  1080.86  1044.47  1083.98  1047.58  1120.04  1011.51  1119.3  1009.58  1117.97  1006.8  1120.43  1004.33  1122.18  1007.08  " style="fill: none; stroke: black; stroke-width: 0.200000; fill-type: evenodd"  fill-opacity="1.000000" />
   <path d="M 1015.55  884.665  1016.66  884.669  1018.13  884.803  1019.59  885.066  1021.03  885.457  1022.42  885.971  1023.78  886.615  1025.09  887.388  1026.33  888.278  1028.54  890.312  1031.76  893.885  1028.47  897.17  1026.68  895.39  979.943  942.132  981.726  943.914  980.823  944.817  984.207  948.472  984.512  948.878  984.635  949.098  984.739  949.339  984.821  949.588  984.878  949.844  984.91  950.104  984.917  950.366  984.9  950.628  984.857  950.887  984.79  951.14  984.699  951.386  984.585  951.622  984.448  951.847  984.257  952.102  984.231  952.191  962.141  974.317  944.393  991.929  940.057  996.274  939.96  996.489  939.399  996.846  939.166  996.959  938.92  997.051  938.666  997.118  938.407  997.162  938.145  997.18  937.882  997.173  937.621  997.141  937.365  997.084  937.115  997.003  936.874  996.898  936.647  996.773  936.369  996.574  932.571  993.068  930.94  994.7  929.158  992.917  883.149  1038.93  884.929  1040.71  882.052  1043.59  877.976  1039.38  876.438  1037.75  876.176  1037.52  874.865  1035.97  873.856  1034.32  873.1  1032.54  872.614  1030.67  872.407  1028.75  872.485  1026.84  872.573  1026.25  872.713  1025.53  872.76  1025.13  872.811  1024.9  873.446  1023.1  873.816  1022.31  875.664  1018.63  878.33  1014.05  881.291  1009.76  884.501  1005.72  887.914  1001.89  891.484  998.214  896.519  993.393  898.375  991.664  899.163  991.033  900.615  989.927  903.132  988.461  905.841  987.349  908.689  986.694  914.787  985.392  921.138  983.858  921.47  983.743  922.329  983.524  922.87  983.306  923.445  983  923.957  982.626  924.451  982.157  926.905  979.633  930.036  977.075  933.471  974.852  937.026  972.816  940.53  970.757  943.833  968.513  946.925  966.047  949.858  963.416  954.194  958.83  954.79  958.232  955.287  957.673  957.713  954.511  961.172  949.214  964.357  944.219  965.627  942.606  966.993  941.106  968.47  939.722  969.293  939.042  969.905  938.578  970.136  938.355  970.312  938.242  970.675  937.803  970.859  937.524  971.137  936.98  971.213  936.628  971.246  936.569  972.637  932.026  972.807  931.402  974.379  925.111  974.741  923.313  975.411  920.187  976.155  917.398  977.276  914.722  978.75  912.229  979.304  911.504  980.56  909.967  986.669  903.638  993.307  897.425  996.81  894.483  1000.44  891.672  1004.86  888.546  1006.92  887.205  1008.08  886.526  1009.41  885.903  1010.8  885.397  1012.23  885.017  1013.68  884.764  1015.18  884.639  1015.55  884.665  " style="fill: none; stroke: darkmagenta; stroke-width: 0.200000; fill-type: evenodd"  fill-opacity="1.000000" />
   <path d="M 1015.51  885.665  1016.61  885.669  1018  885.795  1019.37  886.043  1020.72  886.41  1022.04  886.894  1023.31  887.499  1024.54  888.227  1025.7  889.055  1027.83  891.016  1030.38  893.848  1028.47  895.757  1026.68  893.977  978.529  942.132  980.311  943.914  979.435  944.79  983.438  949.113  983.671  949.423  983.737  949.542  983.803  949.694  983.855  949.852  983.891  950.015  983.912  950.18  983.916  950.346  983.905  950.513  983.878  950.677  983.835  950.838  983.778  950.994  983.705  951.144  983.619  951.286  983.315  951.693  961.435  973.609  943.686  991.221  939.221  995.696  939.172  995.805  938.91  995.971  938.772  996.039  938.615  996.097  938.454  996.14  938.29  996.167  938.123  996.179  937.956  996.175  937.791  996.154  937.628  996.118  937.469  996.067  937.317  996  937.182  995.925  937  995.796  932.544  991.682  930.94  993.285  929.158  991.503  881.736  1038.92  883.516  1040.71  882.063  1042.16  878.699  1038.69  877.136  1037.03  876.894  1036.82  875.678  1035.38  874.748  1033.86  874.049  1032.22  873.6  1030.49  873.41  1028.72  873.482  1026.93  873.559  1026.42  873.702  1025.68  873.747  1025.3  873.774  1025.18  874.373  1023.48  874.715  1022.75  876.544  1019.11  879.175  1014.59  882.094  1010.35  885.267  1006.36  888.646  1002.57  892.188  998.924  897.206  994.12  899.029  992.422  899.779  991.821  901.171  990.76  903.576  989.36  906.145  988.305  908.906  987.671  915.009  986.367  921.421  984.819  921.759  984.701  922.641  984.476  923.293  984.213  923.977  983.85  924.599  983.396  925.154  982.868  927.582  980.371  930.626  977.885  933.992  975.707  937.528  973.68  941.065  971.602  944.427  969.318  947.572  966.811  950.556  964.133  954.912  959.526  955.518  958.917  956.058  958.31  958.529  955.089  962.012  949.756  965.174  944.798  966.39  943.253  967.706  941.808  969.131  940.473  969.913  939.826  970.557  939.339  970.76  939.143  970.983  939.001  971.48  938.399  971.725  938.028  972.086  937.319  972.159  936.987  972.171  936.966  973.598  932.304  973.775  931.654  975.354  925.331  975.72  923.517  976.384  920.421  977.103  917.721  978.171  915.172  979.58  912.789  980.089  912.124  981.308  910.631  987.371  904.35  993.971  898.174  997.438  895.261  1001.03  892.476  1005.42  889.373  1007.44  888.056  1008.54  887.412  1009.79  886.827  1011.1  886.352  1012.44  885.994  1013.81  885.756  1015.18  885.642  1015.51  885.665  " style="fill: none; stroke: black; stroke-width: 0.200000; fill-type: evenodd"  fill-opacity="1.000000" />
   <path d="M 882.439  1041.08  880.672  1039.28  " style="fill: none; stroke: grey; stroke-width: 0.200000; fill-type: evenodd"  fill-opacity="1.000000" />
</svg>
