<?xml version="1.0" encoding="UTF-8" standalone="yes"?>
<!DOCTYPE svg PUBLIC "-//W3C//DTD SVG 1.0//EN" "http://www.w3.org/TR/2001/REC-SVG-20010904/DTD/svg10.dtd">
<svg height="2000" width="2000" xmlns="http://www.w3.org/2000/svg" xmlns:svg="http://www.w3.org/2000/svg" xmlns:xlink="http://www.w3.org/1999/xlink">
   <marker id="endArrow" markerHeight="8" markerUnits="strokeWidth" markerWidth="10" orient="auto" refX="1" refY="5" viewBox="0 0 1000 1000">
      <polyline fill="darkblue" points="0,0 10,5 0,10 1,5" />
   </marker>
   <circle cx="1000" cy="1000" r="1" style="stroke:black; fill: red" />
   <circle cx="1000" cy="1000" r="800" style="stroke:black; fill: none" />
   <line x1="839.550842" y1="1321.352417" x2="802.443542" y2="1321.352417" style="stroke: green; stroke-width: 0.200000"/>
   <line x1="839.177979" y1="1320.352539" x2="801.484497" y2="1320.352539" style="stroke: green; stroke-width: 0.200000"/>
   <line x1="838.805237" y1="1319.352417" x2="800.558838" y2="1319.352417" style="stroke: green; stroke-width: 0.200000"/>
   <line x1="838.432495" y1="1318.352295" x2="799.687805" y2="1318.352295" style="stroke: green; stroke-width: 0.200000"/>
   <line x1="838.149414" y1="1317.352417" x2="798.816833" y2="1317.352417" style="stroke: green; stroke-width: 0.200000"/>
   <line x1="837.880493" y1="1316.352417" x2="797.945862" y2="1316.352417" style="stroke: green; stroke-width: 0.200000"/>
   <line x1="837.611328" y1="1315.352539" x2="797.074707" y2="1315.352539" style="stroke: green; stroke-width: 0.200000"/>
   <line x1="837.342285" y1="1314.352417" x2="796.203735" y2="1314.352417" style="stroke: green; stroke-width: 0.200000"/>
   <line x1="837.073242" y1="1313.352295" x2="795.333008" y2="1313.352295" style="stroke: green; stroke-width: 0.200000"/>
   <line x1="836.804199" y1="1312.352417" x2="794.849609" y2="1312.352417" style="stroke: green; stroke-width: 0.200000"/>
   <line x1="836.484070" y1="1311.352417" x2="794.953491" y2="1311.352417" style="stroke: green; stroke-width: 0.200000"/>
   <line x1="836.115051" y1="1310.352539" x2="794.956116" y2="1310.352539" style="stroke: green; stroke-width: 0.200000"/>
   <line x1="835.745972" y1="1309.352417" x2="794.958862" y2="1309.352417" style="stroke: green; stroke-width: 0.200000"/>
   <line x1="835.376953" y1="1308.352295" x2="794.961182" y2="1308.352295" style="stroke: green; stroke-width: 0.200000"/>
   <line x1="835.026184" y1="1307.352417" x2="794.963867" y2="1307.352417" style="stroke: green; stroke-width: 0.200000"/>
   <line x1="834.758667" y1="1306.352417" x2="794.966370" y2="1306.352417" style="stroke: green; stroke-width: 0.200000"/>
   <line x1="834.491211" y1="1305.352539" x2="794.968994" y2="1305.352539" style="stroke: green; stroke-width: 0.200000"/>
   <line x1="834.223694" y1="1304.352417" x2="794.971558" y2="1304.352417" style="stroke: green; stroke-width: 0.200000"/>
   <line x1="833.956299" y1="1303.352295" x2="794.974243" y2="1303.352295" style="stroke: green; stroke-width: 0.200000"/>
   <line x1="833.688843" y1="1302.352417" x2="794.976868" y2="1302.352417" style="stroke: green; stroke-width: 0.200000"/>
   <line x1="833.411316" y1="1301.352417" x2="795.014648" y2="1301.352417" style="stroke: green; stroke-width: 0.200000"/>
   <line x1="833.117188" y1="1300.352539" x2="795.249329" y2="1300.352539" style="stroke: green; stroke-width: 0.200000"/>
   <line x1="832.823120" y1="1299.352417" x2="795.483276" y2="1299.352417" style="stroke: green; stroke-width: 0.200000"/>
   <line x1="832.528992" y1="1298.352295" x2="795.717163" y2="1298.352295" style="stroke: green; stroke-width: 0.200000"/>
   <line x1="832.234863" y1="1297.352417" x2="795.951050" y2="1297.352417" style="stroke: green; stroke-width: 0.200000"/>
   <line x1="831.940796" y1="1296.352417" x2="796.185059" y2="1296.352417" style="stroke: green; stroke-width: 0.200000"/>
   <line x1="831.646667" y1="1295.352539" x2="796.419006" y2="1295.352539" style="stroke: green; stroke-width: 0.200000"/>
   <line x1="831.352539" y1="1294.352417" x2="796.731873" y2="1294.352417" style="stroke: green; stroke-width: 0.200000"/>
   <line x1="831.063904" y1="1293.352295" x2="797.348633" y2="1293.352295" style="stroke: green; stroke-width: 0.200000"/>
   <line x1="830.777954" y1="1292.352417" x2="797.965393" y2="1292.352417" style="stroke: green; stroke-width: 0.200000"/>
   <line x1="830.491943" y1="1291.352417" x2="798.509644" y2="1291.352417" style="stroke: green; stroke-width: 0.200000"/>
   <line x1="830.051575" y1="1290.352539" x2="798.969360" y2="1290.352539" style="stroke: green; stroke-width: 0.200000"/>
   <line x1="829.609131" y1="1289.352417" x2="799.429016" y2="1289.352417" style="stroke: green; stroke-width: 0.200000"/>
   <line x1="829.166809" y1="1288.352295" x2="799.888611" y2="1288.352295" style="stroke: green; stroke-width: 0.200000"/>
   <line x1="828.724365" y1="1287.352417" x2="800.348267" y2="1287.352417" style="stroke: green; stroke-width: 0.200000"/>
   <line x1="828.281921" y1="1286.352417" x2="800.807861" y2="1286.352417" style="stroke: green; stroke-width: 0.200000"/>
   <line x1="827.839478" y1="1285.352539" x2="801.267578" y2="1285.352539" style="stroke: green; stroke-width: 0.200000"/>
   <line x1="827.397156" y1="1284.352417" x2="801.727173" y2="1284.352417" style="stroke: green; stroke-width: 0.200000"/>
   <line x1="826.975342" y1="1283.352295" x2="802.186829" y2="1283.352295" style="stroke: green; stroke-width: 0.200000"/>
   <line x1="826.596130" y1="1282.352417" x2="803.014160" y2="1282.352417" style="stroke: green; stroke-width: 0.200000"/>
   <line x1="826.216980" y1="1281.352417" x2="803.855896" y2="1281.352417" style="stroke: green; stroke-width: 0.200000"/>
   <line x1="825.837708" y1="1280.352539" x2="804.603638" y2="1280.352539" style="stroke: green; stroke-width: 0.200000"/>
   <line x1="825.458496" y1="1279.352417" x2="805.351501" y2="1279.352417" style="stroke: green; stroke-width: 0.200000"/>
   <line x1="824.686218" y1="1278.352417" x2="806.099243" y2="1278.352417" style="stroke: green; stroke-width: 0.200000"/>
   <line x1="823.730347" y1="1277.352417" x2="806.846985" y2="1277.352417" style="stroke: green; stroke-width: 0.200000"/>
   <line x1="822.774536" y1="1276.352417" x2="807.594727" y2="1276.352417" style="stroke: green; stroke-width: 0.200000"/>
   <line x1="821.818604" y1="1275.352417" x2="808.342590" y2="1275.352417" style="stroke: green; stroke-width: 0.200000"/>
   <line x1="820.882019" y1="1274.352417" x2="809.090332" y2="1274.352417" style="stroke: green; stroke-width: 0.200000"/>
   <line x1="819.952271" y1="1273.352417" x2="812.884644" y2="1273.352417" style="stroke: green; stroke-width: 0.200000"/>
   <line x1="818.504089" y1="1272.352417" x2="816.032837" y2="1272.352417" style="stroke: green; stroke-width: 0.200000"/>
   <line x1="844.818665" y1="1371.352417" x2="833.893738" y2="1371.352417" style="stroke: green; stroke-width: 0.200000"/>
   <line x1="844.818665" y1="1370.352539" x2="833.303528" y2="1370.352539" style="stroke: green; stroke-width: 0.200000"/>
   <line x1="844.818665" y1="1369.352417" x2="832.821533" y2="1369.352417" style="stroke: green; stroke-width: 0.200000"/>
   <line x1="844.818665" y1="1368.352295" x2="832.339478" y2="1368.352295" style="stroke: green; stroke-width: 0.200000"/>
   <line x1="844.818665" y1="1367.352417" x2="831.857422" y2="1367.352417" style="stroke: green; stroke-width: 0.200000"/>
   <line x1="844.818665" y1="1366.352417" x2="831.375427" y2="1366.352417" style="stroke: green; stroke-width: 0.200000"/>
   <line x1="844.818665" y1="1365.352539" x2="830.893311" y2="1365.352539" style="stroke: green; stroke-width: 0.200000"/>
   <line x1="844.818665" y1="1364.352417" x2="830.411316" y2="1364.352417" style="stroke: green; stroke-width: 0.200000"/>
   <line x1="844.818665" y1="1363.352295" x2="829.895508" y2="1363.352295" style="stroke: green; stroke-width: 0.200000"/>
   <line x1="844.818665" y1="1362.352417" x2="829.365906" y2="1362.352417" style="stroke: green; stroke-width: 0.200000"/>
   <line x1="844.818665" y1="1361.352417" x2="828.813965" y2="1361.352417" style="stroke: green; stroke-width: 0.200000"/>
   <line x1="844.818665" y1="1360.352539" x2="828.238831" y2="1360.352539" style="stroke: green; stroke-width: 0.200000"/>
   <line x1="844.818665" y1="1359.352417" x2="827.718140" y2="1359.352417" style="stroke: green; stroke-width: 0.200000"/>
   <line x1="844.818665" y1="1358.352295" x2="827.197388" y2="1358.352295" style="stroke: green; stroke-width: 0.200000"/>
   <line x1="844.818665" y1="1357.352417" x2="826.676697" y2="1357.352417" style="stroke: green; stroke-width: 0.200000"/>
   <line x1="844.818665" y1="1356.352417" x2="826.156006" y2="1356.352417" style="stroke: green; stroke-width: 0.200000"/>
   <line x1="844.818665" y1="1355.352539" x2="825.635254" y2="1355.352539" style="stroke: green; stroke-width: 0.200000"/>
   <line x1="844.818665" y1="1354.352417" x2="825.114502" y2="1354.352417" style="stroke: green; stroke-width: 0.200000"/>
   <line x1="844.818665" y1="1353.352295" x2="824.593872" y2="1353.352295" style="stroke: green; stroke-width: 0.200000"/>
   <line x1="844.818665" y1="1352.352417" x2="824.053223" y2="1352.352417" style="stroke: green; stroke-width: 0.200000"/>
   <line x1="844.818665" y1="1351.352417" x2="823.494812" y2="1351.352417" style="stroke: green; stroke-width: 0.200000"/>
   <line x1="844.818665" y1="1350.352539" x2="822.936462" y2="1350.352539" style="stroke: green; stroke-width: 0.200000"/>
   <line x1="844.818665" y1="1349.352417" x2="822.378052" y2="1349.352417" style="stroke: green; stroke-width: 0.200000"/>
   <line x1="844.818665" y1="1348.352295" x2="821.819763" y2="1348.352295" style="stroke: green; stroke-width: 0.200000"/>
   <line x1="844.818665" y1="1347.352417" x2="821.261475" y2="1347.352417" style="stroke: green; stroke-width: 0.200000"/>
   <line x1="844.818665" y1="1346.352417" x2="820.703125" y2="1346.352417" style="stroke: green; stroke-width: 0.200000"/>
   <line x1="844.818665" y1="1345.352539" x2="820.144714" y2="1345.352539" style="stroke: green; stroke-width: 0.200000"/>
   <line x1="844.818665" y1="1344.352417" x2="819.586426" y2="1344.352417" style="stroke: green; stroke-width: 0.200000"/>
   <line x1="844.818665" y1="1343.352295" x2="818.899170" y2="1343.352295" style="stroke: green; stroke-width: 0.200000"/>
   <line x1="844.818665" y1="1342.352417" x2="818.203796" y2="1342.352417" style="stroke: green; stroke-width: 0.200000"/>
   <line x1="844.818665" y1="1341.352417" x2="817.570068" y2="1341.352417" style="stroke: green; stroke-width: 0.200000"/>
   <line x1="844.708191" y1="1340.352539" x2="816.940186" y2="1340.352539" style="stroke: green; stroke-width: 0.200000"/>
   <line x1="844.497742" y1="1339.352417" x2="816.310303" y2="1339.352417" style="stroke: green; stroke-width: 0.200000"/>
   <line x1="844.194275" y1="1338.352295" x2="815.680481" y2="1338.352295" style="stroke: green; stroke-width: 0.200000"/>
   <line x1="843.890747" y1="1337.352417" x2="815.050659" y2="1337.352417" style="stroke: green; stroke-width: 0.200000"/>
   <line x1="843.587280" y1="1336.352417" x2="814.420776" y2="1336.352417" style="stroke: green; stroke-width: 0.200000"/>
   <line x1="843.344788" y1="1335.352539" x2="813.790955" y2="1335.352539" style="stroke: green; stroke-width: 0.200000"/>
   <line x1="843.102356" y1="1334.352417" x2="813.113342" y2="1334.352417" style="stroke: green; stroke-width: 0.200000"/>
   <line x1="842.859985" y1="1333.352295" x2="812.401978" y2="1333.352295" style="stroke: green; stroke-width: 0.200000"/>
   <line x1="842.617493" y1="1332.352417" x2="811.690552" y2="1332.352417" style="stroke: green; stroke-width: 0.200000"/>
   <line x1="842.375122" y1="1331.352417" x2="810.978760" y2="1331.352417" style="stroke: green; stroke-width: 0.200000"/>
   <line x1="842.132690" y1="1330.352539" x2="810.267334" y2="1330.352539" style="stroke: green; stroke-width: 0.200000"/>
   <line x1="841.890320" y1="1329.352417" x2="809.555908" y2="1329.352417" style="stroke: green; stroke-width: 0.200000"/>
   <line x1="841.647888" y1="1328.352295" x2="808.844482" y2="1328.352295" style="stroke: green; stroke-width: 0.200000"/>
   <line x1="841.405518" y1="1327.352417" x2="808.133057" y2="1327.352417" style="stroke: green; stroke-width: 0.200000"/>
   <line x1="841.195435" y1="1326.352417" x2="807.249390" y2="1326.352417" style="stroke: green; stroke-width: 0.200000"/>
   <line x1="840.987854" y1="1325.352539" x2="806.278809" y2="1325.352539" style="stroke: green; stroke-width: 0.200000"/>
   <line x1="840.669189" y1="1324.352417" x2="805.319946" y2="1324.352417" style="stroke: green; stroke-width: 0.200000"/>
   <line x1="840.296387" y1="1323.352295" x2="804.361206" y2="1323.352295" style="stroke: green; stroke-width: 0.200000"/>
   <line x1="839.923645" y1="1322.352417" x2="803.402344" y2="1322.352417" style="stroke: green; stroke-width: 0.200000"/>
   <line x1="849.295349" y1="1371.352417" x2="844.918579" y2="1371.352417" style="stroke: green; stroke-width: 0.200000"/>
   <line x1="849.264282" y1="1370.352539" x2="844.918579" y2="1370.352539" style="stroke: green; stroke-width: 0.200000"/>
   <line x1="849.233276" y1="1369.352417" x2="844.918579" y2="1369.352417" style="stroke: green; stroke-width: 0.200000"/>
   <line x1="849.202209" y1="1368.352295" x2="844.918579" y2="1368.352295" style="stroke: green; stroke-width: 0.200000"/>
   <line x1="849.159790" y1="1367.352417" x2="844.918579" y2="1367.352417" style="stroke: green; stroke-width: 0.200000"/>
   <line x1="849.065918" y1="1366.352417" x2="844.918579" y2="1366.352417" style="stroke: green; stroke-width: 0.200000"/>
   <line x1="848.972107" y1="1365.352539" x2="844.918579" y2="1365.352539" style="stroke: green; stroke-width: 0.200000"/>
   <line x1="848.878235" y1="1364.352417" x2="844.918579" y2="1364.352417" style="stroke: green; stroke-width: 0.200000"/>
   <line x1="848.784424" y1="1363.352295" x2="844.918579" y2="1363.352295" style="stroke: green; stroke-width: 0.200000"/>
   <line x1="848.690125" y1="1362.352417" x2="844.918579" y2="1362.352417" style="stroke: green; stroke-width: 0.200000"/>
   <line x1="848.596252" y1="1361.352417" x2="844.918579" y2="1361.352417" style="stroke: green; stroke-width: 0.200000"/>
   <line x1="848.502441" y1="1360.352539" x2="844.918579" y2="1360.352539" style="stroke: green; stroke-width: 0.200000"/>
   <line x1="848.408569" y1="1359.352417" x2="844.918579" y2="1359.352417" style="stroke: green; stroke-width: 0.200000"/>
   <line x1="848.311707" y1="1358.352295" x2="844.918579" y2="1358.352295" style="stroke: green; stroke-width: 0.200000"/>
   <line x1="848.203247" y1="1357.352417" x2="844.918579" y2="1357.352417" style="stroke: green; stroke-width: 0.200000"/>
   <line x1="848.081055" y1="1356.352417" x2="844.918579" y2="1356.352417" style="stroke: green; stroke-width: 0.200000"/>
   <line x1="847.880920" y1="1355.352539" x2="844.918579" y2="1355.352539" style="stroke: green; stroke-width: 0.200000"/>
   <line x1="847.619019" y1="1354.352417" x2="844.918579" y2="1354.352417" style="stroke: green; stroke-width: 0.200000"/>
   <line x1="847.357117" y1="1353.352295" x2="844.918579" y2="1353.352295" style="stroke: green; stroke-width: 0.200000"/>
   <line x1="847.095276" y1="1352.352417" x2="844.918579" y2="1352.352417" style="stroke: green; stroke-width: 0.200000"/>
   <line x1="846.833374" y1="1351.352417" x2="844.918579" y2="1351.352417" style="stroke: green; stroke-width: 0.200000"/>
   <line x1="846.571411" y1="1350.352539" x2="844.918579" y2="1350.352539" style="stroke: green; stroke-width: 0.200000"/>
   <line x1="846.309509" y1="1349.352417" x2="844.918579" y2="1349.352417" style="stroke: green; stroke-width: 0.200000"/>
   <line x1="846.047668" y1="1348.352295" x2="844.918579" y2="1348.352295" style="stroke: green; stroke-width: 0.200000"/>
   <line x1="845.785767" y1="1347.352417" x2="844.918579" y2="1347.352417" style="stroke: green; stroke-width: 0.200000"/>
   <line x1="845.602661" y1="1346.352417" x2="844.918579" y2="1346.352417" style="stroke: green; stroke-width: 0.200000"/>
   <line x1="845.453552" y1="1345.352539" x2="844.918579" y2="1345.352539" style="stroke: green; stroke-width: 0.200000"/>
   <line x1="845.304504" y1="1344.352417" x2="844.918579" y2="1344.352417" style="stroke: green; stroke-width: 0.200000"/>
   <line x1="845.155334" y1="1343.352295" x2="844.918579" y2="1343.352295" style="stroke: green; stroke-width: 0.200000"/>
   <line x1="845.006226" y1="1342.352417" x2="844.918579" y2="1342.352417" style="stroke: green; stroke-width: 0.200000"/>
   <line x1="844.818665" y1="1377.352417" x2="839.743652" y2="1377.352417" style="stroke: green; stroke-width: 0.200000"/>
   <line x1="844.818665" y1="1376.352417" x2="838.743530" y2="1376.352417" style="stroke: green; stroke-width: 0.200000"/>
   <line x1="844.818665" y1="1375.352539" x2="837.743469" y2="1375.352539" style="stroke: green; stroke-width: 0.200000"/>
   <line x1="844.818665" y1="1374.352417" x2="836.743408" y2="1374.352417" style="stroke: green; stroke-width: 0.200000"/>
   <line x1="844.818665" y1="1373.352295" x2="835.767700" y2="1373.352295" style="stroke: green; stroke-width: 0.200000"/>
   <line x1="844.818665" y1="1372.352417" x2="834.830688" y2="1372.352417" style="stroke: green; stroke-width: 0.200000"/>
   <line x1="849.432373" y1="1377.352417" x2="844.918579" y2="1377.352417" style="stroke: green; stroke-width: 0.200000"/>
   <line x1="849.450134" y1="1376.352417" x2="844.918579" y2="1376.352417" style="stroke: green; stroke-width: 0.200000"/>
   <line x1="849.419067" y1="1375.352539" x2="844.918579" y2="1375.352539" style="stroke: green; stroke-width: 0.200000"/>
   <line x1="849.388062" y1="1374.352417" x2="844.918579" y2="1374.352417" style="stroke: green; stroke-width: 0.200000"/>
   <line x1="849.356995" y1="1373.352295" x2="844.918579" y2="1373.352295" style="stroke: green; stroke-width: 0.200000"/>
   <line x1="849.325928" y1="1372.352417" x2="844.918579" y2="1372.352417" style="stroke: green; stroke-width: 0.200000"/>
   <line x1="956.629333" y1="1225.010864" x2="940.078369" y2="1225.010864" style="stroke: green; stroke-width: 0.200000"/>
   <line x1="956.629333" y1="1224.010864" x2="938.432068" y2="1224.010864" style="stroke: green; stroke-width: 0.200000"/>
   <line x1="956.629333" y1="1223.010864" x2="936.884277" y2="1223.010864" style="stroke: green; stroke-width: 0.200000"/>
   <line x1="956.629333" y1="1222.010864" x2="935.455627" y2="1222.010864" style="stroke: green; stroke-width: 0.200000"/>
   <line x1="956.629333" y1="1221.010864" x2="934.026978" y2="1221.010864" style="stroke: green; stroke-width: 0.200000"/>
   <line x1="956.629333" y1="1220.010864" x2="932.598328" y2="1220.010864" style="stroke: green; stroke-width: 0.200000"/>
   <line x1="956.629333" y1="1219.010864" x2="931.292969" y2="1219.010864" style="stroke: green; stroke-width: 0.200000"/>
   <line x1="956.629333" y1="1218.010864" x2="930.083923" y2="1218.010864" style="stroke: green; stroke-width: 0.200000"/>
   <line x1="956.629333" y1="1217.010864" x2="928.851685" y2="1217.010864" style="stroke: green; stroke-width: 0.200000"/>
   <line x1="956.629333" y1="1216.010864" x2="927.626343" y2="1216.010864" style="stroke: green; stroke-width: 0.200000"/>
   <line x1="956.629333" y1="1215.010864" x2="926.430725" y2="1215.010864" style="stroke: green; stroke-width: 0.200000"/>
   <line x1="956.629333" y1="1214.010864" x2="925.235229" y2="1214.010864" style="stroke: green; stroke-width: 0.200000"/>
   <line x1="956.629333" y1="1213.010864" x2="924.039612" y2="1213.010864" style="stroke: green; stroke-width: 0.200000"/>
   <line x1="956.629333" y1="1212.010864" x2="922.854065" y2="1212.010864" style="stroke: green; stroke-width: 0.200000"/>
   <line x1="956.629333" y1="1211.010864" x2="921.723938" y2="1211.010864" style="stroke: green; stroke-width: 0.200000"/>
   <line x1="956.629333" y1="1210.010864" x2="920.593750" y2="1210.010864" style="stroke: green; stroke-width: 0.200000"/>
   <line x1="956.629333" y1="1209.010864" x2="919.500854" y2="1209.010864" style="stroke: green; stroke-width: 0.200000"/>
   <line x1="956.629333" y1="1208.010864" x2="918.585754" y2="1208.010864" style="stroke: green; stroke-width: 0.200000"/>
   <line x1="956.629333" y1="1207.010864" x2="917.670593" y2="1207.010864" style="stroke: green; stroke-width: 0.200000"/>
   <line x1="956.629333" y1="1206.010864" x2="916.755371" y2="1206.010864" style="stroke: green; stroke-width: 0.200000"/>
   <line x1="956.629333" y1="1205.010864" x2="915.833862" y2="1205.010864" style="stroke: green; stroke-width: 0.200000"/>
   <line x1="956.629333" y1="1204.010864" x2="914.900146" y2="1204.010864" style="stroke: green; stroke-width: 0.200000"/>
   <line x1="955.759277" y1="1203.010864" x2="913.966309" y2="1203.010864" style="stroke: green; stroke-width: 0.200000"/>
   <line x1="954.621216" y1="1202.010864" x2="913.032593" y2="1202.010864" style="stroke: green; stroke-width: 0.200000"/>
   <line x1="953.474670" y1="1201.010864" x2="912.107300" y2="1201.010864" style="stroke: green; stroke-width: 0.200000"/>
   <line x1="952.316162" y1="1200.010864" x2="911.198975" y2="1200.010864" style="stroke: green; stroke-width: 0.200000"/>
   <line x1="951.413330" y1="1199.010864" x2="910.632324" y2="1199.010864" style="stroke: green; stroke-width: 0.200000"/>
   <line x1="950.616150" y1="1198.010864" x2="910.159180" y2="1198.010864" style="stroke: green; stroke-width: 0.200000"/>
   <line x1="949.819031" y1="1197.010864" x2="909.685913" y2="1197.010864" style="stroke: green; stroke-width: 0.200000"/>
   <line x1="949.021851" y1="1196.010864" x2="909.212708" y2="1196.010864" style="stroke: green; stroke-width: 0.200000"/>
   <line x1="948.224731" y1="1195.010864" x2="908.739502" y2="1195.010864" style="stroke: green; stroke-width: 0.200000"/>
   <line x1="947.427673" y1="1194.010864" x2="908.266296" y2="1194.010864" style="stroke: green; stroke-width: 0.200000"/>
   <line x1="946.630615" y1="1193.010864" x2="907.793030" y2="1193.010864" style="stroke: green; stroke-width: 0.200000"/>
   <line x1="945.687927" y1="1192.010864" x2="907.319885" y2="1192.010864" style="stroke: green; stroke-width: 0.200000"/>
   <line x1="944.840759" y1="1191.010864" x2="906.716003" y2="1191.010864" style="stroke: green; stroke-width: 0.200000"/>
   <line x1="944.025757" y1="1190.010864" x2="906.708618" y2="1190.010864" style="stroke: green; stroke-width: 0.200000"/>
   <line x1="943.226624" y1="1189.010864" x2="906.799377" y2="1189.010864" style="stroke: green; stroke-width: 0.200000"/>
   <line x1="942.427490" y1="1188.010864" x2="906.938232" y2="1188.010864" style="stroke: green; stroke-width: 0.200000"/>
   <line x1="941.628479" y1="1187.010864" x2="907.079529" y2="1187.010864" style="stroke: green; stroke-width: 0.200000"/>
   <line x1="940.829407" y1="1186.010864" x2="907.220825" y2="1186.010864" style="stroke: green; stroke-width: 0.200000"/>
   <line x1="940.030273" y1="1185.010864" x2="907.362122" y2="1185.010864" style="stroke: green; stroke-width: 0.200000"/>
   <line x1="939.146423" y1="1184.010864" x2="907.503418" y2="1184.010864" style="stroke: green; stroke-width: 0.200000"/>
   <line x1="938.139771" y1="1183.010864" x2="907.644714" y2="1183.010864" style="stroke: green; stroke-width: 0.200000"/>
   <line x1="937.132935" y1="1182.010864" x2="908.508667" y2="1182.010864" style="stroke: green; stroke-width: 0.200000"/>
   <line x1="936.126221" y1="1181.010864" x2="909.531006" y2="1181.010864" style="stroke: green; stroke-width: 0.200000"/>
   <line x1="935.119263" y1="1180.010864" x2="910.553467" y2="1180.010864" style="stroke: green; stroke-width: 0.200000"/>
   <line x1="934.112671" y1="1179.010864" x2="911.575867" y2="1179.010864" style="stroke: green; stroke-width: 0.200000"/>
   <line x1="931.239990" y1="1178.010864" x2="912.598267" y2="1178.010864" style="stroke: green; stroke-width: 0.200000"/>
   <line x1="928.289734" y1="1177.010864" x2="913.620605" y2="1177.010864" style="stroke: green; stroke-width: 0.200000"/>
   <line x1="925.502930" y1="1176.010864" x2="918.318604" y2="1176.010864" style="stroke: green; stroke-width: 0.200000"/>
   <line x1="990.047852" y1="1225.010864" x2="956.729370" y2="1225.010864" style="stroke: green; stroke-width: 0.200000"/>
   <line x1="988.131042" y1="1224.010864" x2="956.729370" y2="1224.010864" style="stroke: green; stroke-width: 0.200000"/>
   <line x1="986.039978" y1="1223.010864" x2="956.729370" y2="1223.010864" style="stroke: green; stroke-width: 0.200000"/>
   <line x1="984.478088" y1="1222.010864" x2="956.729370" y2="1222.010864" style="stroke: green; stroke-width: 0.200000"/>
   <line x1="982.916199" y1="1221.010864" x2="956.729370" y2="1221.010864" style="stroke: green; stroke-width: 0.200000"/>
   <line x1="981.354126" y1="1220.010864" x2="956.729370" y2="1220.010864" style="stroke: green; stroke-width: 0.200000"/>
   <line x1="979.461975" y1="1219.010864" x2="956.729370" y2="1219.010864" style="stroke: green; stroke-width: 0.200000"/>
   <line x1="977.368286" y1="1218.010864" x2="956.729370" y2="1218.010864" style="stroke: green; stroke-width: 0.200000"/>
   <line x1="975.274719" y1="1217.010864" x2="956.729370" y2="1217.010864" style="stroke: green; stroke-width: 0.200000"/>
   <line x1="973.197876" y1="1216.010864" x2="956.729370" y2="1216.010864" style="stroke: green; stroke-width: 0.200000"/>
   <line x1="971.722534" y1="1215.010864" x2="956.729370" y2="1215.010864" style="stroke: green; stroke-width: 0.200000"/>
   <line x1="970.292969" y1="1214.010864" x2="956.729370" y2="1214.010864" style="stroke: green; stroke-width: 0.200000"/>
   <line x1="968.929382" y1="1213.010864" x2="956.729370" y2="1213.010864" style="stroke: green; stroke-width: 0.200000"/>
   <line x1="967.565857" y1="1212.010864" x2="956.729370" y2="1212.010864" style="stroke: green; stroke-width: 0.200000"/>
   <line x1="966.202393" y1="1211.010864" x2="956.729370" y2="1211.010864" style="stroke: green; stroke-width: 0.200000"/>
   <line x1="964.637512" y1="1210.010864" x2="956.729370" y2="1210.010864" style="stroke: green; stroke-width: 0.200000"/>
   <line x1="962.809814" y1="1209.010864" x2="956.729370" y2="1209.010864" style="stroke: green; stroke-width: 0.200000"/>
   <line x1="961.297119" y1="1208.010864" x2="956.729370" y2="1208.010864" style="stroke: green; stroke-width: 0.200000"/>
   <line x1="960.220093" y1="1207.010864" x2="956.729370" y2="1207.010864" style="stroke: green; stroke-width: 0.200000"/>
   <line x1="959.142944" y1="1206.010864" x2="956.729370" y2="1206.010864" style="stroke: green; stroke-width: 0.200000"/>
   <line x1="958.035645" y1="1205.010864" x2="956.729370" y2="1205.010864" style="stroke: green; stroke-width: 0.200000"/>
   <line x1="956.897583" y1="1204.010864" x2="956.729370" y2="1204.010864" style="stroke: green; stroke-width: 0.200000"/>
   <line x1="956.629333" y1="1233.010864" x2="954.732300" y2="1233.010864" style="stroke: green; stroke-width: 0.200000"/>
   <line x1="956.629333" y1="1232.010864" x2="952.423706" y2="1232.010864" style="stroke: green; stroke-width: 0.200000"/>
   <line x1="956.629333" y1="1231.010864" x2="950.510559" y2="1231.010864" style="stroke: green; stroke-width: 0.200000"/>
   <line x1="956.629333" y1="1230.010864" x2="948.627869" y2="1230.010864" style="stroke: green; stroke-width: 0.200000"/>
   <line x1="956.629333" y1="1229.010864" x2="946.778687" y2="1229.010864" style="stroke: green; stroke-width: 0.200000"/>
   <line x1="956.629333" y1="1228.010864" x2="944.965088" y2="1228.010864" style="stroke: green; stroke-width: 0.200000"/>
   <line x1="956.629333" y1="1227.010864" x2="943.370361" y2="1227.010864" style="stroke: green; stroke-width: 0.200000"/>
   <line x1="956.629333" y1="1226.010864" x2="941.724548" y2="1226.010864" style="stroke: green; stroke-width: 0.200000"/>
   <line x1="1006.729370" y1="1253.010864" x2="1006.659668" y2="1253.010864" style="stroke: green; stroke-width: 0.200000"/>
   <line x1="1006.729370" y1="1252.010864" x2="1004.596802" y2="1252.010864" style="stroke: green; stroke-width: 0.200000"/>
   <line x1="1006.729370" y1="1251.010864" x2="1002.361145" y2="1251.010864" style="stroke: green; stroke-width: 0.200000"/>
   <line x1="1006.729370" y1="1250.010864" x2="1000.125427" y2="1250.010864" style="stroke: green; stroke-width: 0.200000"/>
   <line x1="1006.729370" y1="1249.010864" x2="997.988586" y2="1249.010864" style="stroke: green; stroke-width: 0.200000"/>
   <line x1="1006.729370" y1="1248.010864" x2="995.877808" y2="1248.010864" style="stroke: green; stroke-width: 0.200000"/>
   <line x1="1006.729370" y1="1247.010864" x2="993.748535" y2="1247.010864" style="stroke: green; stroke-width: 0.200000"/>
   <line x1="1006.729370" y1="1246.010864" x2="991.197754" y2="1246.010864" style="stroke: green; stroke-width: 0.200000"/>
   <line x1="1006.729370" y1="1245.010864" x2="988.424133" y2="1245.010864" style="stroke: green; stroke-width: 0.200000"/>
   <line x1="1006.729370" y1="1244.010864" x2="985.415588" y2="1244.010864" style="stroke: green; stroke-width: 0.200000"/>
   <line x1="1006.729370" y1="1243.010864" x2="982.368103" y2="1243.010864" style="stroke: green; stroke-width: 0.200000"/>
   <line x1="1006.729370" y1="1242.010864" x2="978.513123" y2="1242.010864" style="stroke: green; stroke-width: 0.200000"/>
   <line x1="1006.729370" y1="1241.010864" x2="975.758606" y2="1241.010864" style="stroke: green; stroke-width: 0.200000"/>
   <line x1="1006.729370" y1="1240.010864" x2="973.082214" y2="1240.010864" style="stroke: green; stroke-width: 0.200000"/>
   <line x1="1006.729370" y1="1239.010864" x2="969.817017" y2="1239.010864" style="stroke: green; stroke-width: 0.200000"/>
   <line x1="1006.729370" y1="1238.010864" x2="966.481873" y2="1238.010864" style="stroke: green; stroke-width: 0.200000"/>
   <line x1="1006.729370" y1="1237.010864" x2="964.034973" y2="1237.010864" style="stroke: green; stroke-width: 0.200000"/>
   <line x1="1006.729370" y1="1236.010864" x2="961.677124" y2="1236.010864" style="stroke: green; stroke-width: 0.200000"/>
   <line x1="1006.729370" y1="1235.010864" x2="959.272156" y2="1235.010864" style="stroke: green; stroke-width: 0.200000"/>
   <line x1="1006.729370" y1="1234.010864" x2="956.960754" y2="1234.010864" style="stroke: green; stroke-width: 0.200000"/>
   <line x1="1005.622192" y1="1233.010864" x2="956.729370" y2="1233.010864" style="stroke: green; stroke-width: 0.200000"/>
   <line x1="1003.890320" y1="1232.010864" x2="956.729370" y2="1232.010864" style="stroke: green; stroke-width: 0.200000"/>
   <line x1="1001.825500" y1="1231.010864" x2="956.729370" y2="1231.010864" style="stroke: green; stroke-width: 0.200000"/>
   <line x1="999.760620" y1="1230.010864" x2="956.729370" y2="1230.010864" style="stroke: green; stroke-width: 0.200000"/>
   <line x1="997.915100" y1="1229.010864" x2="956.729370" y2="1229.010864" style="stroke: green; stroke-width: 0.200000"/>
   <line x1="996.062744" y1="1228.010864" x2="956.729370" y2="1228.010864" style="stroke: green; stroke-width: 0.200000"/>
   <line x1="993.953247" y1="1227.010864" x2="956.729370" y2="1227.010864" style="stroke: green; stroke-width: 0.200000"/>
   <line x1="991.907288" y1="1226.010864" x2="956.729370" y2="1226.010864" style="stroke: green; stroke-width: 0.200000"/>
   <line x1="1015.115112" y1="1256.010864" x2="1014.297852" y2="1256.010864" style="stroke: green; stroke-width: 0.200000"/>
   <line x1="1017.120483" y1="1255.010864" x2="1011.164185" y2="1255.010864" style="stroke: green; stroke-width: 0.200000"/>
   <line x1="1019.126038" y1="1254.010864" x2="1008.568848" y2="1254.010864" style="stroke: green; stroke-width: 0.200000"/>
   <line x1="1019.812866" y1="1253.010864" x2="1006.829285" y2="1253.010864" style="stroke: green; stroke-width: 0.200000"/>
   <line x1="1019.829163" y1="1252.010864" x2="1006.829285" y2="1252.010864" style="stroke: green; stroke-width: 0.200000"/>
   <line x1="1019.845581" y1="1251.010864" x2="1006.829285" y2="1251.010864" style="stroke: green; stroke-width: 0.200000"/>
   <line x1="1019.861938" y1="1250.010864" x2="1006.829285" y2="1250.010864" style="stroke: green; stroke-width: 0.200000"/>
   <line x1="1019.878296" y1="1249.010864" x2="1006.829285" y2="1249.010864" style="stroke: green; stroke-width: 0.200000"/>
   <line x1="1019.894775" y1="1248.010864" x2="1006.829285" y2="1248.010864" style="stroke: green; stroke-width: 0.200000"/>
   <line x1="1019.911194" y1="1247.010864" x2="1006.829285" y2="1247.010864" style="stroke: green; stroke-width: 0.200000"/>
   <line x1="1019.927429" y1="1246.010864" x2="1006.829285" y2="1246.010864" style="stroke: green; stroke-width: 0.200000"/>
   <line x1="1019.910278" y1="1245.010864" x2="1006.829285" y2="1245.010864" style="stroke: green; stroke-width: 0.200000"/>
   <line x1="1018.915527" y1="1244.010864" x2="1006.829285" y2="1244.010864" style="stroke: green; stroke-width: 0.200000"/>
   <line x1="1017.937927" y1="1243.010864" x2="1006.829285" y2="1243.010864" style="stroke: green; stroke-width: 0.200000"/>
   <line x1="1016.969604" y1="1242.010864" x2="1006.829285" y2="1242.010864" style="stroke: green; stroke-width: 0.200000"/>
   <line x1="1016.000671" y1="1241.010864" x2="1006.829285" y2="1241.010864" style="stroke: green; stroke-width: 0.200000"/>
   <line x1="1015.031860" y1="1240.010864" x2="1006.829285" y2="1240.010864" style="stroke: green; stroke-width: 0.200000"/>
   <line x1="1014.062988" y1="1239.010864" x2="1006.829285" y2="1239.010864" style="stroke: green; stroke-width: 0.200000"/>
   <line x1="1013.094116" y1="1238.010864" x2="1006.829285" y2="1238.010864" style="stroke: green; stroke-width: 0.200000"/>
   <line x1="1011.688843" y1="1237.010864" x2="1006.829285" y2="1237.010864" style="stroke: green; stroke-width: 0.200000"/>
   <line x1="1010.187439" y1="1236.010864" x2="1006.829285" y2="1236.010864" style="stroke: green; stroke-width: 0.200000"/>
   <line x1="1008.668762" y1="1235.010864" x2="1006.829285" y2="1235.010864" style="stroke: green; stroke-width: 0.200000"/>
   <line x1="1007.145386" y1="1234.010864" x2="1006.829285" y2="1234.010864" style="stroke: green; stroke-width: 0.200000"/>
   <line x1="794.978149" y1="1301.871460" x2="794.977905" y2="1301.871460" style="stroke: green; stroke-width: 0.200000"/>
   <path d="M 793.423  1311.83  793.453  1311.68  793.48  1301.33  795.2  1293.98  796.973  1291.1  800.936  1282.48  802.629  1280.49  808.454  1272.7  811.874  1272.1  817.722  1270.24  820.45  1271.68  822.66  1274.06  826.632  1278.22  828.487  1283.11  831.902  1290.83  832.698  1293.61  834.966  1301.32  836.505  1307.08  838.103  1311.41  839.812  1317.76  842.365  1324.61  842.853  1326.96  845.035  1335.96  846.086  1339.42  847.178  1346.75  849.495  1355.59  849.651  1356.79  849.827  1358.41  850.674  1367.44  850.961  1376.68  850.852  1379.35  848.349  1379.36  839.361  1379.09  835.052  1374.78  832.419  1371.97  828.934  1364.74  827.767  1362.54  826.956  1361.14  823.028  1353.59  818.281  1345.09  816.91  1343.12  816.31  1342.17  " style="fill: none; stroke: darkmagenta; stroke-width: 0.200000; fill-type: evenodd"  fill-opacity="1.000000" />
   <path d="M 816.31  1342.17  812.284  1335.77  806.798  1328.06  806.409  1327.63  806.021  1327.25  799.781  1320.74  793.633  1313.68  793.27  1312.62  793.423  1311.83  " style="fill: none; stroke: red; stroke-width: 0.200000; fill-type: evenodd"  fill-opacity="1.000000" />
   <path d="M 819.832  1272.49  821.932  1274.75  825.769  1278.76  827.562  1283.49  830.959  1291.17  831.737  1293.89  834.003  1301.59  835.551  1307.38  837.149  1311.71  838.859  1318.07  841.401  1324.89  841.877  1327.18  844.07  1336.22  845.107  1339.64  846.197  1346.95  848.511  1355.79  848.658  1356.91  848.832  1358.51  849.676  1367.5  849.96  1376.67  849.892  1378.36  848.362  1378.36  839.787  1378.1  835.771  1374.09  833.254  1371.4  829.826  1364.29  828.642  1362.05  827.832  1360.65  823.909  1353.12  819.13  1344.56  817.744  1342.57  813.115  1335.22  807.581  1327.44  807.131  1326.93  806.73  1326.54  800.52  1320.07  794.516  1313.17  794.303  1312.55  794.453  1311.78  794.48  1301.45  796.137  1294.37  797.856  1291.58  801.787  1283.03  803.411  1281.11  809.017  1273.62  812.112  1273.07  817.625  1271.32  819.832  1272.49  " style="fill: none; stroke: black; stroke-width: 0.200000; fill-type: evenodd"  fill-opacity="1.000000" />
   <path d="M 1021.2  1254.65  1015.69  1257.4  " style="fill: none; stroke: darkmagenta; stroke-width: 0.200000; fill-type: evenodd"  fill-opacity="1.000000" />
   <path d="M 1015.69  1257.4  1014.92  1257.78  1008.83  1255.84  1004.99  1253.83  999.033  1251.17  993.26  1248.43  989.377  1246.91  982.25  1244.54  980.45  1244.01  977.861  1243.4  977.568  1243.29  " style="fill: none; stroke: red; stroke-width: 0.200000; fill-type: evenodd"  fill-opacity="1.000000" />
   <path d="M 977.568  1243.29  972.319  1241.33  964.859  1239.09  963.162  1238.25  957.546  1235.92  953.99  1234.32  953.196  1234.11  948.806  1231.81  944.394  1229.43  943.251  1228.69  936.71  1224.72  931.043  1220.75  929.352  1219.35  926.898  1217.36  922.05  1213.3  918.607  1210.26  915.053  1206.37  911.307  1202.36  909.744  1200.64  905.832  1192.37  905.087  1191.29  905.313  1188.79  906.256  1182.12  912.974  1175.55  915.146  1175.1  922.949  1173.58  923.873  1173.83  929.369  1175.8  934.1  1177.38  934.945  1177.72  940.676  1183.42  945.566  1189.54  946.693  1190.9  947.533  1191.74  953.063  1198.67  954.937  1200.29  959.603  1204.39  962.632  1207.2  966.238  1209.18  972.036  1213.43  973.226  1214.19  973.994  1214.74  981.493  1218.32  987.099  1221.91  989.131  1222.81  993.052  1224.92  997.684  1227.12  999.523  1228.23  1005.43  1231.09  1010.7  1234.55  1013.88  1236.67  1019.88  1242.86  1020.98  1243.87  1021.45  1244.67  1021.4  1247.93  " style="fill: none; stroke: darkmagenta; stroke-width: 0.200000; fill-type: evenodd"  fill-opacity="1.000000" />
   <path d="M 1021.4  1247.93  1021.29  1254.61  1021.2  1254.65  " style="fill: none; stroke: red; stroke-width: 0.200000; fill-type: evenodd"  fill-opacity="1.000000" />
   <path d="M 923.572  1174.79  929.042  1176.75  933.755  1178.32  934.384  1178.58  939.93  1184.09  944.79  1190.17  945.952  1191.57  946.786  1192.4  952.339  1199.37  954.28  1201.05  958.933  1205.13  962.043  1208.02  965.7  1210.02  971.47  1214.25  972.667  1215.02  973.486  1215.6  981.006  1219.19  986.623  1222.79  988.689  1223.71  992.601  1225.82  997.21  1228  999.045  1229.11  1004.93  1231.96  1010.15  1235.38  1013.24  1237.44  1019.18  1243.58  1020.19  1244.51  1020.45  1244.93  1020.3  1253.99  1014.84  1256.71  1009.22  1254.91  1005.43  1252.93  999.451  1250.26  993.657  1247.51  989.718  1245.97  982.549  1243.58  980.706  1243.04  978.153  1242.44  972.638  1240.38  965.226  1238.16  963.576  1237.34  957.943  1235  954.327  1233.38  953.562  1233.17  949.275  1230.93  944.902  1228.56  943.781  1227.84  937.257  1223.88  931.651  1219.96  929.987  1218.58  927.534  1216.58  922.702  1212.54  919.309  1209.54  915.788  1205.69  912.042  1201.68  910.584  1200.08  906.701  1191.87  906.115  1191.02  906.307  1188.91  907.199  1182.59  913.463  1176.47  915.342  1176.08  922.911  1174.61  923.572  1174.79  " style="fill: none; stroke: black; stroke-width: 0.200000; fill-type: evenodd"  fill-opacity="1.000000" />
</svg>
