<?xml version="1.0" encoding="UTF-8" standalone="yes"?>
<!DOCTYPE svg PUBLIC "-//W3C//DTD SVG 1.0//EN" "http://www.w3.org/TR/2001/REC-SVG-20010904/DTD/svg10.dtd">
<svg height="2000" width="2000" xmlns="http://www.w3.org/2000/svg" xmlns:svg="http://www.w3.org/2000/svg" xmlns:xlink="http://www.w3.org/1999/xlink">
   <marker id="endArrow" markerHeight="8" markerUnits="strokeWidth" markerWidth="10" orient="auto" refX="1" refY="5" viewBox="0 0 1000 1000">
      <polyline fill="darkblue" points="0,0 10,5 0,10 1,5" />
   </marker>
   <circle cx="1000" cy="1000" r="1" style="stroke:black; fill: red" />
   <circle cx="1000" cy="1000" r="800" style="stroke:black; fill: none" />
   <line x1="1059.102051" y1="1032.322754" x2="1059.102051" y2="1033.030762" style="stroke: green; stroke-width: 0.200000"/>
   <line x1="1060.102051" y1="1031.322632" x2="1060.102051" y2="1033.030762" style="stroke: green; stroke-width: 0.200000"/>
   <line x1="1061.102051" y1="1030.322632" x2="1061.102051" y2="1033.030762" style="stroke: green; stroke-width: 0.200000"/>
   <line x1="1062.101929" y1="1029.322632" x2="1062.101929" y2="1033.030762" style="stroke: green; stroke-width: 0.200000"/>
   <line x1="1063.102051" y1="1028.322632" x2="1063.102051" y2="1033.030762" style="stroke: green; stroke-width: 0.200000"/>
   <line x1="1064.102051" y1="1028.411499" x2="1064.102051" y2="1033.030762" style="stroke: green; stroke-width: 0.200000"/>
   <line x1="1065.102051" y1="1029.411499" x2="1065.102051" y2="1033.030762" style="stroke: green; stroke-width: 0.200000"/>
   <line x1="1066.102051" y1="1030.411499" x2="1066.102051" y2="1033.030762" style="stroke: green; stroke-width: 0.200000"/>
   <line x1="1067.101929" y1="1030.544067" x2="1067.101929" y2="1033.030762" style="stroke: green; stroke-width: 0.200000"/>
   <line x1="1068.102051" y1="1029.543945" x2="1068.102051" y2="1033.030762" style="stroke: green; stroke-width: 0.200000"/>
   <line x1="1069.102051" y1="1028.543945" x2="1069.102051" y2="1033.030762" style="stroke: green; stroke-width: 0.200000"/>
   <line x1="1070.102051" y1="1027.544067" x2="1070.102051" y2="1033.030762" style="stroke: green; stroke-width: 0.200000"/>
   <line x1="1071.102051" y1="1026.544067" x2="1071.102051" y2="1033.030762" style="stroke: green; stroke-width: 0.200000"/>
   <line x1="1072.101929" y1="1025.544067" x2="1072.101929" y2="1033.030762" style="stroke: green; stroke-width: 0.200000"/>
   <line x1="1073.102051" y1="1024.543945" x2="1073.102051" y2="1033.030762" style="stroke: green; stroke-width: 0.200000"/>
   <line x1="1074.102051" y1="1023.544006" x2="1074.102051" y2="1033.030762" style="stroke: green; stroke-width: 0.200000"/>
   <line x1="1075.102051" y1="1022.544006" x2="1075.102051" y2="1033.030762" style="stroke: green; stroke-width: 0.200000"/>
   <line x1="1076.102051" y1="1021.544067" x2="1076.102051" y2="1033.030762" style="stroke: green; stroke-width: 0.200000"/>
   <line x1="1077.101929" y1="1020.544067" x2="1077.101929" y2="1033.030762" style="stroke: green; stroke-width: 0.200000"/>
   <line x1="1078.102051" y1="1019.544067" x2="1078.102051" y2="1033.030762" style="stroke: green; stroke-width: 0.200000"/>
   <line x1="1079.102051" y1="1018.544006" x2="1079.102051" y2="1033.030762" style="stroke: green; stroke-width: 0.200000"/>
   <line x1="1080.102051" y1="1017.544006" x2="1080.102051" y2="1033.030762" style="stroke: green; stroke-width: 0.200000"/>
   <line x1="1081.102051" y1="1016.544067" x2="1081.102051" y2="1033.030762" style="stroke: green; stroke-width: 0.200000"/>
   <line x1="1082.101929" y1="1015.544067" x2="1082.101929" y2="1033.030762" style="stroke: green; stroke-width: 0.200000"/>
   <line x1="1083.102051" y1="1014.544067" x2="1083.102051" y2="1033.030762" style="stroke: green; stroke-width: 0.200000"/>
   <line x1="1084.102051" y1="1013.544067" x2="1084.102051" y2="1033.030762" style="stroke: green; stroke-width: 0.200000"/>
   <line x1="1085.102051" y1="1012.544067" x2="1085.102051" y2="1033.030762" style="stroke: green; stroke-width: 0.200000"/>
   <line x1="1086.102051" y1="1011.544067" x2="1086.102051" y2="1033.030762" style="stroke: green; stroke-width: 0.200000"/>
   <line x1="1087.101929" y1="1010.544067" x2="1087.101929" y2="1033.030762" style="stroke: green; stroke-width: 0.200000"/>
   <line x1="1088.102051" y1="1009.544067" x2="1088.102051" y2="1033.030762" style="stroke: green; stroke-width: 0.200000"/>
   <line x1="1089.102051" y1="1008.544067" x2="1089.102051" y2="1033.030762" style="stroke: green; stroke-width: 0.200000"/>
   <line x1="1090.102051" y1="1007.544067" x2="1090.102051" y2="1033.030762" style="stroke: green; stroke-width: 0.200000"/>
   <line x1="1091.102051" y1="1006.544067" x2="1091.102051" y2="1033.030762" style="stroke: green; stroke-width: 0.200000"/>
   <line x1="1092.101929" y1="1005.544067" x2="1092.101929" y2="1033.030762" style="stroke: green; stroke-width: 0.200000"/>
   <line x1="1093.102051" y1="1004.544067" x2="1093.102051" y2="1033.030762" style="stroke: green; stroke-width: 0.200000"/>
   <line x1="1094.102051" y1="1003.544067" x2="1094.102051" y2="1033.030762" style="stroke: green; stroke-width: 0.200000"/>
   <line x1="1095.102051" y1="1002.544067" x2="1095.102051" y2="1033.030762" style="stroke: green; stroke-width: 0.200000"/>
   <line x1="1096.102051" y1="1001.544128" x2="1096.102051" y2="1033.030762" style="stroke: green; stroke-width: 0.200000"/>
   <line x1="1097.101929" y1="1000.544067" x2="1097.101929" y2="1033.030762" style="stroke: green; stroke-width: 0.200000"/>
   <line x1="1098.102051" y1="999.544067" x2="1098.102051" y2="1033.030762" style="stroke: green; stroke-width: 0.200000"/>
   <line x1="1099.102051" y1="998.544067" x2="1099.102051" y2="1033.030762" style="stroke: green; stroke-width: 0.200000"/>
   <line x1="1100.102051" y1="997.544067" x2="1100.102051" y2="1033.030762" style="stroke: green; stroke-width: 0.200000"/>
   <line x1="1101.102051" y1="996.544128" x2="1101.102051" y2="1033.030762" style="stroke: green; stroke-width: 0.200000"/>
   <line x1="1102.101929" y1="995.544128" x2="1102.101929" y2="1033.030762" style="stroke: green; stroke-width: 0.200000"/>
   <line x1="1103.102051" y1="994.544128" x2="1103.102051" y2="1033.030762" style="stroke: green; stroke-width: 0.200000"/>
   <line x1="1104.102051" y1="993.544067" x2="1104.102051" y2="1033.030762" style="stroke: green; stroke-width: 0.200000"/>
   <line x1="1105.102051" y1="992.544067" x2="1105.102051" y2="1033.030762" style="stroke: green; stroke-width: 0.200000"/>
   <line x1="1106.102051" y1="991.544128" x2="1106.102051" y2="1033.030762" style="stroke: green; stroke-width: 0.200000"/>
   <line x1="1107.101929" y1="990.544128" x2="1107.101929" y2="1033.030762" style="stroke: green; stroke-width: 0.200000"/>
   <line x1="1108.102051" y1="989.544128" x2="1108.102051" y2="1033.030762" style="stroke: green; stroke-width: 0.200000"/>
   <line x1="1109.102051" y1="984.696289" x2="1109.102051" y2="1033.030762" style="stroke: green; stroke-width: 0.200000"/>
   <line x1="1110.102051" y1="986.015564" x2="1110.102051" y2="1032.109375" style="stroke: green; stroke-width: 0.200000"/>
   <line x1="1111.102051" y1="987.334900" x2="1111.102051" y2="1031.042358" style="stroke: green; stroke-width: 0.200000"/>
   <line x1="1112.101929" y1="988.654175" x2="1112.101929" y2="1029.929199" style="stroke: green; stroke-width: 0.200000"/>
   <line x1="1113.102051" y1="989.973450" x2="1113.102051" y2="1028.726685" style="stroke: green; stroke-width: 0.200000"/>
   <line x1="1114.102051" y1="991.323303" x2="1114.102051" y2="1027.524292" style="stroke: green; stroke-width: 0.200000"/>
   <line x1="1115.102051" y1="992.711731" x2="1115.102051" y2="1026.321777" style="stroke: green; stroke-width: 0.200000"/>
   <line x1="1116.102051" y1="994.205627" x2="1116.102051" y2="1025.119385" style="stroke: green; stroke-width: 0.200000"/>
   <line x1="1117.101929" y1="995.910706" x2="1117.101929" y2="1023.760864" style="stroke: green; stroke-width: 0.200000"/>
   <line x1="1118.102051" y1="997.840332" x2="1118.102051" y2="1022.238708" style="stroke: green; stroke-width: 0.200000"/>
   <line x1="1119.102051" y1="1000.118896" x2="1119.102051" y2="1020.309387" style="stroke: green; stroke-width: 0.200000"/>
   <line x1="1120.102051" y1="1003.051270" x2="1120.102051" y2="1017.612244" style="stroke: green; stroke-width: 0.200000"/>
   <line x1="1108.102051" y1="983.383301" x2="1108.102051" y2="987.548462" style="stroke: green; stroke-width: 0.200000"/>
   <line x1="1107.101929" y1="983.757019" x2="1107.101929" y2="986.031189" style="stroke: green; stroke-width: 0.200000"/>
   <line x1="1015.101990" y1="1082.544067" x2="1015.101990" y2="1083.130615" style="stroke: green; stroke-width: 0.200000"/>
   <line x1="1016.101990" y1="1081.544067" x2="1016.101990" y2="1083.130615" style="stroke: green; stroke-width: 0.200000"/>
   <line x1="1017.101990" y1="1080.544067" x2="1017.101990" y2="1083.130615" style="stroke: green; stroke-width: 0.200000"/>
   <line x1="1018.102051" y1="1073.322632" x2="1018.102051" y2="1083.130615" style="stroke: green; stroke-width: 0.200000"/>
   <line x1="1019.102051" y1="1072.322632" x2="1019.102051" y2="1083.130615" style="stroke: green; stroke-width: 0.200000"/>
   <line x1="1020.101990" y1="1071.322632" x2="1020.101990" y2="1083.130615" style="stroke: green; stroke-width: 0.200000"/>
   <line x1="1021.101990" y1="1070.322632" x2="1021.101990" y2="1083.130615" style="stroke: green; stroke-width: 0.200000"/>
   <line x1="1022.101990" y1="1069.322632" x2="1022.101990" y2="1083.130615" style="stroke: green; stroke-width: 0.200000"/>
   <line x1="1023.102051" y1="1068.322632" x2="1023.102051" y2="1083.130615" style="stroke: green; stroke-width: 0.200000"/>
   <line x1="1024.102051" y1="1067.322632" x2="1024.102051" y2="1083.130615" style="stroke: green; stroke-width: 0.200000"/>
   <line x1="1025.102051" y1="1066.322632" x2="1025.102051" y2="1083.130615" style="stroke: green; stroke-width: 0.200000"/>
   <line x1="1026.102051" y1="1065.322632" x2="1026.102051" y2="1083.130615" style="stroke: green; stroke-width: 0.200000"/>
   <line x1="1027.101929" y1="1064.322632" x2="1027.101929" y2="1083.130615" style="stroke: green; stroke-width: 0.200000"/>
   <line x1="1028.102051" y1="1063.322632" x2="1028.102051" y2="1083.130615" style="stroke: green; stroke-width: 0.200000"/>
   <line x1="1029.102051" y1="1062.322632" x2="1029.102051" y2="1083.130615" style="stroke: green; stroke-width: 0.200000"/>
   <line x1="1030.102051" y1="1061.322632" x2="1030.102051" y2="1083.130615" style="stroke: green; stroke-width: 0.200000"/>
   <line x1="1031.102051" y1="1060.322632" x2="1031.102051" y2="1083.130615" style="stroke: green; stroke-width: 0.200000"/>
   <line x1="1032.101929" y1="1059.322632" x2="1032.101929" y2="1083.130615" style="stroke: green; stroke-width: 0.200000"/>
   <line x1="1033.102051" y1="1058.322632" x2="1033.102051" y2="1083.130615" style="stroke: green; stroke-width: 0.200000"/>
   <line x1="1017.101990" y1="1074.322632" x2="1017.101990" y2="1078.740723" style="stroke: green; stroke-width: 0.200000"/>
   <line x1="1016.101990" y1="1075.322632" x2="1016.101990" y2="1077.740723" style="stroke: green; stroke-width: 0.200000"/>
   <line x1="1015.101990" y1="1076.322632" x2="1015.101990" y2="1076.740723" style="stroke: green; stroke-width: 0.200000"/>
   <line x1="1035.102051" y1="1056.322632" x2="1035.102051" y2="1083.130615" style="stroke: green; stroke-width: 0.200000"/>
   <line x1="1036.102051" y1="1055.322632" x2="1036.102051" y2="1083.130615" style="stroke: green; stroke-width: 0.200000"/>
   <line x1="1037.101929" y1="1054.322632" x2="1037.101929" y2="1083.130615" style="stroke: green; stroke-width: 0.200000"/>
   <line x1="1038.102051" y1="1053.322632" x2="1038.102051" y2="1083.130615" style="stroke: green; stroke-width: 0.200000"/>
   <line x1="1039.102051" y1="1052.322632" x2="1039.102051" y2="1083.130615" style="stroke: green; stroke-width: 0.200000"/>
   <line x1="1040.102051" y1="1051.322632" x2="1040.102051" y2="1083.130615" style="stroke: green; stroke-width: 0.200000"/>
   <line x1="1041.102051" y1="1050.322632" x2="1041.102051" y2="1083.130615" style="stroke: green; stroke-width: 0.200000"/>
   <line x1="1042.101929" y1="1049.322632" x2="1042.101929" y2="1083.130615" style="stroke: green; stroke-width: 0.200000"/>
   <line x1="1043.102051" y1="1048.322632" x2="1043.102051" y2="1082.805420" style="stroke: green; stroke-width: 0.200000"/>
   <line x1="1044.102051" y1="1047.322754" x2="1044.102051" y2="1080.426758" style="stroke: green; stroke-width: 0.200000"/>
   <line x1="1045.102051" y1="1046.322632" x2="1045.102051" y2="1078.447876" style="stroke: green; stroke-width: 0.200000"/>
   <line x1="1046.102051" y1="1045.322632" x2="1046.102051" y2="1076.509155" style="stroke: green; stroke-width: 0.200000"/>
   <line x1="1047.101929" y1="1044.322632" x2="1047.101929" y2="1074.731201" style="stroke: green; stroke-width: 0.200000"/>
   <line x1="1048.102051" y1="1043.322632" x2="1048.102051" y2="1073.173706" style="stroke: green; stroke-width: 0.200000"/>
   <line x1="1049.102051" y1="1042.322754" x2="1049.102051" y2="1071.591553" style="stroke: green; stroke-width: 0.200000"/>
   <line x1="1050.102051" y1="1041.322632" x2="1050.102051" y2="1070.227295" style="stroke: green; stroke-width: 0.200000"/>
   <line x1="1051.102051" y1="1040.322632" x2="1051.102051" y2="1068.919189" style="stroke: green; stroke-width: 0.200000"/>
   <line x1="1052.101929" y1="1039.322632" x2="1052.101929" y2="1067.609375" style="stroke: green; stroke-width: 0.200000"/>
   <line x1="1053.102051" y1="1038.322632" x2="1053.102051" y2="1066.440674" style="stroke: green; stroke-width: 0.200000"/>
   <line x1="1054.102051" y1="1037.322754" x2="1054.102051" y2="1065.325806" style="stroke: green; stroke-width: 0.200000"/>
   <line x1="1055.102051" y1="1036.322632" x2="1055.102051" y2="1064.210815" style="stroke: green; stroke-width: 0.200000"/>
   <line x1="1056.102051" y1="1035.322632" x2="1056.102051" y2="1063.164185" style="stroke: green; stroke-width: 0.200000"/>
   <line x1="1057.101929" y1="1034.322632" x2="1057.101929" y2="1062.190186" style="stroke: green; stroke-width: 0.200000"/>
   <line x1="1058.102051" y1="1033.322632" x2="1058.102051" y2="1061.216064" style="stroke: green; stroke-width: 0.200000"/>
   <line x1="1059.102051" y1="1033.130615" x2="1059.102051" y2="1060.243164" style="stroke: green; stroke-width: 0.200000"/>
   <line x1="1060.102051" y1="1033.130615" x2="1060.102051" y2="1059.413574" style="stroke: green; stroke-width: 0.200000"/>
   <line x1="1061.102051" y1="1033.130615" x2="1061.102051" y2="1058.583984" style="stroke: green; stroke-width: 0.200000"/>
   <line x1="1062.101929" y1="1033.130615" x2="1062.101929" y2="1057.732178" style="stroke: green; stroke-width: 0.200000"/>
   <line x1="1063.102051" y1="1033.130615" x2="1063.102051" y2="1056.920898" style="stroke: green; stroke-width: 0.200000"/>
   <line x1="1064.102051" y1="1033.130615" x2="1064.102051" y2="1056.230713" style="stroke: green; stroke-width: 0.200000"/>
   <line x1="1065.102051" y1="1033.130615" x2="1065.102051" y2="1055.533325" style="stroke: green; stroke-width: 0.200000"/>
   <line x1="1066.102051" y1="1033.130615" x2="1066.102051" y2="1054.823364" style="stroke: green; stroke-width: 0.200000"/>
   <line x1="1067.101929" y1="1033.130615" x2="1067.101929" y2="1054.139648" style="stroke: green; stroke-width: 0.200000"/>
   <line x1="1068.102051" y1="1033.130615" x2="1068.102051" y2="1053.579346" style="stroke: green; stroke-width: 0.200000"/>
   <line x1="1069.102051" y1="1033.130615" x2="1069.102051" y2="1053.019043" style="stroke: green; stroke-width: 0.200000"/>
   <line x1="1070.102051" y1="1033.130615" x2="1070.102051" y2="1052.458740" style="stroke: green; stroke-width: 0.200000"/>
   <line x1="1071.102051" y1="1033.130615" x2="1071.102051" y2="1051.898438" style="stroke: green; stroke-width: 0.200000"/>
   <line x1="1072.101929" y1="1033.130615" x2="1072.101929" y2="1051.426636" style="stroke: green; stroke-width: 0.200000"/>
   <line x1="1073.102051" y1="1033.130615" x2="1073.102051" y2="1050.994629" style="stroke: green; stroke-width: 0.200000"/>
   <line x1="1074.102051" y1="1033.130615" x2="1074.102051" y2="1050.562500" style="stroke: green; stroke-width: 0.200000"/>
   <line x1="1075.102051" y1="1033.130615" x2="1075.102051" y2="1050.130493" style="stroke: green; stroke-width: 0.200000"/>
   <line x1="1076.102051" y1="1033.130615" x2="1076.102051" y2="1049.698364" style="stroke: green; stroke-width: 0.200000"/>
   <line x1="1077.101929" y1="1033.130615" x2="1077.101929" y2="1049.346558" style="stroke: green; stroke-width: 0.200000"/>
   <line x1="1078.102051" y1="1033.130615" x2="1078.102051" y2="1049.016113" style="stroke: green; stroke-width: 0.200000"/>
   <line x1="1079.102051" y1="1033.130615" x2="1079.102051" y2="1048.685669" style="stroke: green; stroke-width: 0.200000"/>
   <line x1="1080.102051" y1="1033.130615" x2="1080.102051" y2="1048.334717" style="stroke: green; stroke-width: 0.200000"/>
   <line x1="1081.102051" y1="1033.130615" x2="1081.102051" y2="1047.972290" style="stroke: green; stroke-width: 0.200000"/>
   <line x1="1082.101929" y1="1033.130615" x2="1082.101929" y2="1047.654175" style="stroke: green; stroke-width: 0.200000"/>
   <line x1="1083.102051" y1="1033.130615" x2="1083.102051" y2="1047.367432" style="stroke: green; stroke-width: 0.200000"/>
   <line x1="1084.102051" y1="1033.130615" x2="1084.102051" y2="1047.080688" style="stroke: green; stroke-width: 0.200000"/>
   <line x1="1085.102051" y1="1033.130615" x2="1085.102051" y2="1046.793945" style="stroke: green; stroke-width: 0.200000"/>
   <line x1="1086.102051" y1="1033.130615" x2="1086.102051" y2="1046.507202" style="stroke: green; stroke-width: 0.200000"/>
   <line x1="1087.101929" y1="1033.130615" x2="1087.101929" y2="1046.226562" style="stroke: green; stroke-width: 0.200000"/>
   <line x1="1088.102051" y1="1033.130615" x2="1088.102051" y2="1045.987793" style="stroke: green; stroke-width: 0.200000"/>
   <line x1="1089.102051" y1="1033.130615" x2="1089.102051" y2="1045.759033" style="stroke: green; stroke-width: 0.200000"/>
   <line x1="1090.102051" y1="1033.130615" x2="1090.102051" y2="1045.549072" style="stroke: green; stroke-width: 0.200000"/>
   <line x1="1091.102051" y1="1033.130615" x2="1091.102051" y2="1045.339111" style="stroke: green; stroke-width: 0.200000"/>
   <line x1="1092.101929" y1="1033.130615" x2="1092.101929" y2="1045.129028" style="stroke: green; stroke-width: 0.200000"/>
   <line x1="1093.102051" y1="1033.130615" x2="1093.102051" y2="1044.881836" style="stroke: green; stroke-width: 0.200000"/>
   <line x1="1094.102051" y1="1033.130615" x2="1094.102051" y2="1044.601807" style="stroke: green; stroke-width: 0.200000"/>
   <line x1="1095.102051" y1="1033.130615" x2="1095.102051" y2="1044.321167" style="stroke: green; stroke-width: 0.200000"/>
   <line x1="1096.102051" y1="1033.130615" x2="1096.102051" y2="1043.922119" style="stroke: green; stroke-width: 0.200000"/>
   <line x1="1097.101929" y1="1033.130615" x2="1097.101929" y2="1043.485840" style="stroke: green; stroke-width: 0.200000"/>
   <line x1="1098.102051" y1="1033.130615" x2="1098.102051" y2="1043.018555" style="stroke: green; stroke-width: 0.200000"/>
   <line x1="1099.102051" y1="1033.130615" x2="1099.102051" y2="1042.408691" style="stroke: green; stroke-width: 0.200000"/>
   <line x1="1100.102051" y1="1033.130615" x2="1100.102051" y2="1041.799072" style="stroke: green; stroke-width: 0.200000"/>
   <line x1="1101.102051" y1="1033.130615" x2="1101.102051" y2="1040.977539" style="stroke: green; stroke-width: 0.200000"/>
   <line x1="1102.101929" y1="1033.130615" x2="1102.101929" y2="1040.116333" style="stroke: green; stroke-width: 0.200000"/>
   <line x1="1103.102051" y1="1033.130615" x2="1103.102051" y2="1039.199707" style="stroke: green; stroke-width: 0.200000"/>
   <line x1="1104.102051" y1="1033.130615" x2="1104.102051" y2="1038.266846" style="stroke: green; stroke-width: 0.200000"/>
   <line x1="1105.102051" y1="1033.130615" x2="1105.102051" y2="1037.333862" style="stroke: green; stroke-width: 0.200000"/>
   <line x1="1106.102051" y1="1033.130615" x2="1106.102051" y2="1036.377686" style="stroke: green; stroke-width: 0.200000"/>
   <line x1="1107.101929" y1="1033.130615" x2="1107.101929" y2="1035.310547" style="stroke: green; stroke-width: 0.200000"/>
   <line x1="1108.102051" y1="1033.130615" x2="1108.102051" y2="1034.243530" style="stroke: green; stroke-width: 0.200000"/>
   <line x1="1109.102051" y1="1033.130615" x2="1109.102051" y2="1033.176514" style="stroke: green; stroke-width: 0.200000"/>
   <line x1="1010.101990" y1="1087.544067" x2="1010.101990" y2="1114.375977" style="stroke: green; stroke-width: 0.200000"/>
   <line x1="1009.102051" y1="1088.544067" x2="1009.102051" y2="1114.370361" style="stroke: green; stroke-width: 0.200000"/>
   <line x1="1008.102051" y1="1089.544067" x2="1008.102051" y2="1114.355347" style="stroke: green; stroke-width: 0.200000"/>
   <line x1="1011.101990" y1="1086.544067" x2="1011.101990" y2="1114.329346" style="stroke: green; stroke-width: 0.200000"/>
   <line x1="1007.101990" y1="1090.544067" x2="1007.101990" y2="1114.289795" style="stroke: green; stroke-width: 0.200000"/>
   <line x1="1012.101990" y1="1085.544067" x2="1012.101990" y2="1114.273926" style="stroke: green; stroke-width: 0.200000"/>
   <line x1="1006.101990" y1="1091.544067" x2="1006.101990" y2="1114.213745" style="stroke: green; stroke-width: 0.200000"/>
   <line x1="1013.102051" y1="1084.544067" x2="1013.102051" y2="1114.164429" style="stroke: green; stroke-width: 0.200000"/>
   <line x1="1005.101990" y1="1092.544067" x2="1005.101990" y2="1114.087036" style="stroke: green; stroke-width: 0.200000"/>
   <line x1="1014.102051" y1="1083.544067" x2="1014.102051" y2="1114.045654" style="stroke: green; stroke-width: 0.200000"/>
   <line x1="1004.102051" y1="1093.544067" x2="1004.102051" y2="1113.948730" style="stroke: green; stroke-width: 0.200000"/>
   <line x1="1015.101990" y1="1083.230713" x2="1015.101990" y2="1113.870972" style="stroke: green; stroke-width: 0.200000"/>
   <line x1="1003.102051" y1="1094.544067" x2="1003.102051" y2="1113.742554" style="stroke: green; stroke-width: 0.200000"/>
   <line x1="1016.101990" y1="1083.230713" x2="1016.101990" y2="1113.656372" style="stroke: green; stroke-width: 0.200000"/>
   <line x1="1002.101990" y1="1095.544067" x2="1002.101990" y2="1113.523438" style="stroke: green; stroke-width: 0.200000"/>
   <line x1="1017.101990" y1="1083.230713" x2="1017.101990" y2="1113.371460" style="stroke: green; stroke-width: 0.200000"/>
   <line x1="1001.101990" y1="1096.544067" x2="1001.101990" y2="1113.255127" style="stroke: green; stroke-width: 0.200000"/>
   <line x1="1018.102051" y1="1083.230713" x2="1018.102051" y2="1113.050415" style="stroke: green; stroke-width: 0.200000"/>
   <line x1="1000.101990" y1="1097.544067" x2="1000.101990" y2="1112.971558" style="stroke: green; stroke-width: 0.200000"/>
   <line x1="1019.102051" y1="1083.230713" x2="1019.102051" y2="1112.688110" style="stroke: green; stroke-width: 0.200000"/>
   <line x1="999.102051" y1="1098.544067" x2="999.102051" y2="1112.646118" style="stroke: green; stroke-width: 0.200000"/>
   <line x1="998.102051" y1="1099.544067" x2="998.102051" y2="1112.304810" style="stroke: green; stroke-width: 0.200000"/>
   <line x1="1020.101990" y1="1083.230713" x2="1020.101990" y2="1112.262085" style="stroke: green; stroke-width: 0.200000"/>
   <line x1="997.101990" y1="1100.544189" x2="997.101990" y2="1111.915161" style="stroke: green; stroke-width: 0.200000"/>
   <line x1="1021.101990" y1="1083.230713" x2="1021.101990" y2="1111.804077" style="stroke: green; stroke-width: 0.200000"/>
   <line x1="996.101990" y1="1101.544067" x2="996.101990" y2="1111.523193" style="stroke: green; stroke-width: 0.200000"/>
   <line x1="1022.101990" y1="1083.230713" x2="1022.101990" y2="1111.263916" style="stroke: green; stroke-width: 0.200000"/>
   <line x1="995.101990" y1="1102.544067" x2="995.101990" y2="1111.131104" style="stroke: green; stroke-width: 0.200000"/>
   <line x1="994.102051" y1="1103.544067" x2="994.102051" y2="1110.739136" style="stroke: green; stroke-width: 0.200000"/>
   <line x1="1023.102051" y1="1083.230713" x2="1023.102051" y2="1110.662109" style="stroke: green; stroke-width: 0.200000"/>
   <line x1="993.102051" y1="1104.544189" x2="993.102051" y2="1110.347046" style="stroke: green; stroke-width: 0.200000"/>
   <line x1="1024.102051" y1="1083.230713" x2="1024.102051" y2="1109.998169" style="stroke: green; stroke-width: 0.200000"/>
   <line x1="992.101990" y1="1105.544189" x2="992.101990" y2="1109.955078" style="stroke: green; stroke-width: 0.200000"/>
   <line x1="991.101990" y1="1105.435303" x2="991.101990" y2="1109.563110" style="stroke: green; stroke-width: 0.200000"/>
   <line x1="1025.102051" y1="1083.230713" x2="1025.102051" y2="1109.227539" style="stroke: green; stroke-width: 0.200000"/>
   <line x1="990.101990" y1="1105.275391" x2="990.101990" y2="1109.171021" style="stroke: green; stroke-width: 0.200000"/>
   <line x1="989.102051" y1="1105.115479" x2="989.102051" y2="1108.779053" style="stroke: green; stroke-width: 0.200000"/>
   <line x1="1026.102051" y1="1083.230713" x2="1026.102051" y2="1108.397949" style="stroke: green; stroke-width: 0.200000"/>
   <line x1="988.102051" y1="1104.952881" x2="988.102051" y2="1108.387085" style="stroke: green; stroke-width: 0.200000"/>
   <line x1="987.101990" y1="1104.769409" x2="987.101990" y2="1107.995117" style="stroke: green; stroke-width: 0.200000"/>
   <line x1="986.101990" y1="1104.757080" x2="986.101990" y2="1107.603027" style="stroke: green; stroke-width: 0.200000"/>
   <line x1="1027.101929" y1="1083.230713" x2="1027.101929" y2="1107.404907" style="stroke: green; stroke-width: 0.200000"/>
   <line x1="985.101990" y1="1105.757080" x2="985.101990" y2="1107.203125" style="stroke: green; stroke-width: 0.200000"/>
   <line x1="984.102051" y1="1106.757080" x2="984.102051" y2="1106.799683" style="stroke: green; stroke-width: 0.200000"/>
   <line x1="1028.102051" y1="1083.230713" x2="1028.102051" y2="1106.382935" style="stroke: green; stroke-width: 0.200000"/>
   <line x1="1029.102051" y1="1083.230713" x2="1029.102051" y2="1105.350830" style="stroke: green; stroke-width: 0.200000"/>
   <line x1="1030.102051" y1="1083.230713" x2="1030.102051" y2="1104.318848" style="stroke: green; stroke-width: 0.200000"/>
   <line x1="1031.102051" y1="1083.230713" x2="1031.102051" y2="1103.275269" style="stroke: green; stroke-width: 0.200000"/>
   <line x1="1032.101929" y1="1083.230713" x2="1032.101929" y2="1102.210327" style="stroke: green; stroke-width: 0.200000"/>
   <line x1="1033.102051" y1="1083.230713" x2="1033.102051" y2="1101.177490" style="stroke: green; stroke-width: 0.200000"/>
   <line x1="1035.102051" y1="1083.230713" x2="1035.102051" y2="1099.008057" style="stroke: green; stroke-width: 0.200000"/>
   <line x1="1036.102051" y1="1083.230713" x2="1036.102051" y2="1097.843994" style="stroke: green; stroke-width: 0.200000"/>
   <line x1="1037.101929" y1="1083.230713" x2="1037.101929" y2="1096.573730" style="stroke: green; stroke-width: 0.200000"/>
   <line x1="1038.102051" y1="1083.230713" x2="1038.102051" y2="1095.145386" style="stroke: green; stroke-width: 0.200000"/>
   <line x1="1039.102051" y1="1083.230713" x2="1039.102051" y2="1093.308228" style="stroke: green; stroke-width: 0.200000"/>
   <line x1="1040.102051" y1="1083.230713" x2="1040.102051" y2="1090.986816" style="stroke: green; stroke-width: 0.200000"/>
   <line x1="1041.102051" y1="1083.230713" x2="1041.102051" y2="1088.084717" style="stroke: green; stroke-width: 0.200000"/>
   <line x1="1042.101929" y1="1083.230713" x2="1042.101929" y2="1085.185181" style="stroke: green; stroke-width: 0.200000"/>
   <line x1="960.979919" y1="1047.934692" x2="960.979919" y2="1060.603638" style="stroke: green; stroke-width: 0.200000"/>
   <line x1="961.979919" y1="1047.990967" x2="961.979919" y2="1060.537354" style="stroke: green; stroke-width: 0.200000"/>
   <line x1="959.979919" y1="1048.034424" x2="959.979919" y2="1060.506470" style="stroke: green; stroke-width: 0.200000"/>
   <line x1="962.979980" y1="1048.213013" x2="962.979980" y2="1060.310791" style="stroke: green; stroke-width: 0.200000"/>
   <line x1="958.979980" y1="1048.299805" x2="958.979980" y2="1060.243652" style="stroke: green; stroke-width: 0.200000"/>
   <line x1="963.979980" y1="1048.622437" x2="963.979980" y2="1059.902100" style="stroke: green; stroke-width: 0.200000"/>
   <line x1="957.979980" y1="1048.752197" x2="957.979980" y2="1059.786499" style="stroke: green; stroke-width: 0.200000"/>
   <line x1="964.979919" y1="1049.266113" x2="964.979919" y2="1059.270508" style="stroke: green; stroke-width: 0.200000"/>
   <line x1="956.979919" y1="1049.436523" x2="956.979919" y2="1059.087891" style="stroke: green; stroke-width: 0.200000"/>
   <line x1="965.979919" y1="1050.245605" x2="965.979919" y2="1058.306641" style="stroke: green; stroke-width: 0.200000"/>
   <line x1="955.979919" y1="1050.543823" x2="955.979919" y2="1058.028198" style="stroke: green; stroke-width: 0.200000"/>
   <line x1="966.979919" y1="1051.954224" x2="966.979919" y2="1056.633667" style="stroke: green; stroke-width: 0.200000"/>
   <line x1="954.979919" y1="1052.635986" x2="954.979919" y2="1055.923950" style="stroke: green; stroke-width: 0.200000"/>
   <line x1="875.097351" y1="1025.923096" x2="875.097351" y2="1033.607300" style="stroke: green; stroke-width: 0.200000"/>
   <line x1="876.097412" y1="1023.766479" x2="876.097412" y2="1033.607300" style="stroke: green; stroke-width: 0.200000"/>
   <line x1="877.097412" y1="1021.815857" x2="877.097412" y2="1033.607300" style="stroke: green; stroke-width: 0.200000"/>
   <line x1="878.097412" y1="1020.079834" x2="878.097412" y2="1033.607300" style="stroke: green; stroke-width: 0.200000"/>
   <line x1="879.097351" y1="1018.431885" x2="879.097351" y2="1033.607300" style="stroke: green; stroke-width: 0.200000"/>
   <line x1="880.097351" y1="1016.784363" x2="880.097351" y2="1033.607300" style="stroke: green; stroke-width: 0.200000"/>
   <line x1="881.097412" y1="1015.361389" x2="881.097412" y2="1033.607300" style="stroke: green; stroke-width: 0.200000"/>
   <line x1="882.097412" y1="1013.938477" x2="882.097412" y2="1033.607300" style="stroke: green; stroke-width: 0.200000"/>
   <line x1="883.097412" y1="1012.527161" x2="883.097412" y2="1033.607300" style="stroke: green; stroke-width: 0.200000"/>
   <line x1="884.097351" y1="1011.282288" x2="884.097351" y2="1033.607300" style="stroke: green; stroke-width: 0.200000"/>
   <line x1="885.097351" y1="1010.037354" x2="885.097351" y2="1033.607300" style="stroke: green; stroke-width: 0.200000"/>
   <line x1="886.097412" y1="1008.792480" x2="886.097412" y2="1033.607300" style="stroke: green; stroke-width: 0.200000"/>
   <line x1="887.097412" y1="1007.650452" x2="887.097412" y2="1033.607300" style="stroke: green; stroke-width: 0.200000"/>
   <line x1="888.097412" y1="1006.526367" x2="888.097412" y2="1032.614502" style="stroke: green; stroke-width: 0.200000"/>
   <line x1="889.097351" y1="1005.402161" x2="889.097351" y2="1031.614502" style="stroke: green; stroke-width: 0.200000"/>
   <line x1="890.097351" y1="1004.329468" x2="890.097351" y2="1030.614502" style="stroke: green; stroke-width: 0.200000"/>
   <line x1="891.097412" y1="1003.297974" x2="891.097412" y2="1029.614502" style="stroke: green; stroke-width: 0.200000"/>
   <line x1="892.097412" y1="1002.266541" x2="892.097412" y2="1028.614502" style="stroke: green; stroke-width: 0.200000"/>
   <line x1="893.097412" y1="1001.235107" x2="893.097412" y2="1027.614502" style="stroke: green; stroke-width: 0.200000"/>
   <line x1="894.097351" y1="1000.246094" x2="894.097351" y2="1026.614502" style="stroke: green; stroke-width: 0.200000"/>
   <line x1="895.097351" y1="999.284180" x2="895.097351" y2="1025.614502" style="stroke: green; stroke-width: 0.200000"/>
   <line x1="896.097412" y1="998.322266" x2="896.097412" y2="1024.614502" style="stroke: green; stroke-width: 0.200000"/>
   <line x1="897.097412" y1="997.375122" x2="897.097412" y2="1023.614502" style="stroke: green; stroke-width: 0.200000"/>
   <line x1="898.097412" y1="996.431030" x2="898.097412" y2="1022.614441" style="stroke: green; stroke-width: 0.200000"/>
   <line x1="899.097351" y1="995.487000" x2="899.097351" y2="1021.614441" style="stroke: green; stroke-width: 0.200000"/>
   <line x1="900.097351" y1="994.542847" x2="900.097351" y2="1020.614502" style="stroke: green; stroke-width: 0.200000"/>
   <line x1="901.097412" y1="993.741211" x2="901.097412" y2="1019.614502" style="stroke: green; stroke-width: 0.200000"/>
   <line x1="902.097412" y1="992.930054" x2="902.097412" y2="1018.614502" style="stroke: green; stroke-width: 0.200000"/>
   <line x1="903.097412" y1="992.277466" x2="903.097412" y2="1017.614441" style="stroke: green; stroke-width: 0.200000"/>
   <line x1="904.097351" y1="991.676331" x2="904.097351" y2="1016.614441" style="stroke: green; stroke-width: 0.200000"/>
   <line x1="905.097351" y1="991.146851" x2="905.097351" y2="1015.614502" style="stroke: green; stroke-width: 0.200000"/>
   <line x1="906.097412" y1="990.715942" x2="906.097412" y2="1014.614502" style="stroke: green; stroke-width: 0.200000"/>
   <line x1="907.097412" y1="990.285034" x2="907.097412" y2="1013.614441" style="stroke: green; stroke-width: 0.200000"/>
   <line x1="908.097412" y1="989.989319" x2="908.097412" y2="1012.614441" style="stroke: green; stroke-width: 0.200000"/>
   <line x1="909.097351" y1="989.706726" x2="909.097351" y2="1011.614441" style="stroke: green; stroke-width: 0.200000"/>
   <line x1="910.097351" y1="989.438538" x2="910.097351" y2="1010.614502" style="stroke: green; stroke-width: 0.200000"/>
   <line x1="911.097412" y1="989.204102" x2="911.097412" y2="1009.614502" style="stroke: green; stroke-width: 0.200000"/>
   <line x1="912.097412" y1="988.969666" x2="912.097412" y2="1008.614441" style="stroke: green; stroke-width: 0.200000"/>
   <line x1="913.097412" y1="988.736633" x2="913.097412" y2="1007.614441" style="stroke: green; stroke-width: 0.200000"/>
   <line x1="914.097351" y1="988.516907" x2="914.097351" y2="1006.614441" style="stroke: green; stroke-width: 0.200000"/>
   <line x1="915.097351" y1="988.297119" x2="915.097351" y2="1005.614502" style="stroke: green; stroke-width: 0.200000"/>
   <line x1="916.097412" y1="988.077332" x2="916.097412" y2="1004.614502" style="stroke: green; stroke-width: 0.200000"/>
   <line x1="917.097412" y1="987.857544" x2="917.097412" y2="1003.614441" style="stroke: green; stroke-width: 0.200000"/>
   <line x1="918.097412" y1="987.637817" x2="918.097412" y2="1002.614441" style="stroke: green; stroke-width: 0.200000"/>
   <line x1="919.097351" y1="987.417969" x2="919.097351" y2="1001.614441" style="stroke: green; stroke-width: 0.200000"/>
   <line x1="920.097351" y1="987.198181" x2="920.097351" y2="1000.614502" style="stroke: green; stroke-width: 0.200000"/>
   <line x1="921.097412" y1="986.978455" x2="921.097412" y2="999.614502" style="stroke: green; stroke-width: 0.200000"/>
   <line x1="922.097412" y1="986.758667" x2="922.097412" y2="998.614441" style="stroke: green; stroke-width: 0.200000"/>
   <line x1="923.097412" y1="986.481689" x2="923.097412" y2="997.614441" style="stroke: green; stroke-width: 0.200000"/>
   <line x1="924.097351" y1="986.195374" x2="924.097351" y2="996.614441" style="stroke: green; stroke-width: 0.200000"/>
   <line x1="925.097351" y1="985.909058" x2="925.097351" y2="995.614502" style="stroke: green; stroke-width: 0.200000"/>
   <line x1="926.097412" y1="985.622620" x2="926.097412" y2="994.614502" style="stroke: green; stroke-width: 0.200000"/>
   <line x1="927.097412" y1="985.336304" x2="927.097412" y2="993.614441" style="stroke: green; stroke-width: 0.200000"/>
   <line x1="931.097412" y1="984.190918" x2="931.097412" y2="992.735840" style="stroke: green; stroke-width: 0.200000"/>
   <line x1="928.097412" y1="985.049988" x2="928.097412" y2="992.614441" style="stroke: green; stroke-width: 0.200000"/>
   <line x1="932.097412" y1="983.934326" x2="932.097412" y2="992.179199" style="stroke: green; stroke-width: 0.200000"/>
   <line x1="930.097351" y1="984.477295" x2="930.097351" y2="991.735840" style="stroke: green; stroke-width: 0.200000"/>
   <line x1="929.097351" y1="984.763672" x2="929.097351" y2="991.614441" style="stroke: green; stroke-width: 0.200000"/>
   <line x1="933.097412" y1="983.685059" x2="933.097412" y2="991.179199" style="stroke: green; stroke-width: 0.200000"/>
   <line x1="934.097351" y1="983.705139" x2="934.097351" y2="990.179199" style="stroke: green; stroke-width: 0.200000"/>
   <line x1="935.097351" y1="984.286499" x2="935.097351" y2="989.179138" style="stroke: green; stroke-width: 0.200000"/>
   <line x1="936.097412" y1="985.285339" x2="936.097412" y2="988.179199" style="stroke: green; stroke-width: 0.200000"/>
   <line x1="937.097412" y1="986.285339" x2="937.097412" y2="987.179199" style="stroke: green; stroke-width: 0.200000"/>
   <line x1="882.097412" y1="1040.042603" x2="882.097412" y2="1042.474121" style="stroke: green; stroke-width: 0.200000"/>
   <line x1="881.097412" y1="1033.707275" x2="881.097412" y2="1041.988525" style="stroke: green; stroke-width: 0.200000"/>
   <line x1="883.097412" y1="1041.042603" x2="883.097412" y2="1041.474121" style="stroke: green; stroke-width: 0.200000"/>
   <line x1="880.097351" y1="1033.707275" x2="880.097351" y2="1040.944092" style="stroke: green; stroke-width: 0.200000"/>
   <line x1="879.097351" y1="1033.707275" x2="879.097351" y2="1039.899780" style="stroke: green; stroke-width: 0.200000"/>
   <line x1="878.097412" y1="1033.707275" x2="878.097412" y2="1038.855469" style="stroke: green; stroke-width: 0.200000"/>
   <line x1="882.097412" y1="1033.707275" x2="882.097412" y2="1038.614502" style="stroke: green; stroke-width: 0.200000"/>
   <line x1="877.097412" y1="1033.707275" x2="877.097412" y2="1037.675293" style="stroke: green; stroke-width: 0.200000"/>
   <line x1="883.097412" y1="1033.707275" x2="883.097412" y2="1037.614502" style="stroke: green; stroke-width: 0.200000"/>
   <line x1="884.097351" y1="1033.707275" x2="884.097351" y2="1036.614502" style="stroke: green; stroke-width: 0.200000"/>
   <line x1="876.097412" y1="1033.707275" x2="876.097412" y2="1036.253784" style="stroke: green; stroke-width: 0.200000"/>
   <line x1="885.097351" y1="1033.707275" x2="885.097351" y2="1035.614502" style="stroke: green; stroke-width: 0.200000"/>
   <line x1="886.097412" y1="1033.707275" x2="886.097412" y2="1034.614502" style="stroke: green; stroke-width: 0.200000"/>
   <line x1="875.097351" y1="1033.707275" x2="875.097351" y2="1034.217285" style="stroke: green; stroke-width: 0.200000"/>
   <line x1="1041.654175" y1="967.305908" x2="1041.654175" y2="979.974915" style="stroke: green; stroke-width: 0.200000"/>
   <line x1="1042.654175" y1="967.362305" x2="1042.654175" y2="979.908691" style="stroke: green; stroke-width: 0.200000"/>
   <line x1="1040.654175" y1="967.405762" x2="1040.654175" y2="979.877625" style="stroke: green; stroke-width: 0.200000"/>
   <line x1="1043.654175" y1="967.584167" x2="1043.654175" y2="979.682007" style="stroke: green; stroke-width: 0.200000"/>
   <line x1="1039.654175" y1="967.671204" x2="1039.654175" y2="979.614929" style="stroke: green; stroke-width: 0.200000"/>
   <line x1="1044.654175" y1="967.993713" x2="1044.654175" y2="979.273438" style="stroke: green; stroke-width: 0.200000"/>
   <line x1="1038.654175" y1="968.123413" x2="1038.654175" y2="979.157715" style="stroke: green; stroke-width: 0.200000"/>
   <line x1="1045.654175" y1="968.637329" x2="1045.654175" y2="978.641907" style="stroke: green; stroke-width: 0.200000"/>
   <line x1="1037.654175" y1="968.807922" x2="1037.654175" y2="978.463623" style="stroke: green; stroke-width: 0.200000"/>
   <line x1="1046.654175" y1="969.616760" x2="1046.654175" y2="977.677917" style="stroke: green; stroke-width: 0.200000"/>
   <line x1="1036.654175" y1="969.915222" x2="1036.654175" y2="977.399292" style="stroke: green; stroke-width: 0.200000"/>
   <line x1="1047.654175" y1="971.325195" x2="1047.654175" y2="976.005127" style="stroke: green; stroke-width: 0.200000"/>
   <line x1="1035.654175" y1="972.007446" x2="1035.654175" y2="975.294800" style="stroke: green; stroke-width: 0.200000"/>
   <line x1="974.200745" y1="934.149780" x2="974.200745" y2="935.974854" style="stroke: green; stroke-width: 0.200000"/>
   <line x1="975.200745" y1="930.334167" x2="975.200745" y2="935.974854" style="stroke: green; stroke-width: 0.200000"/>
   <line x1="976.200684" y1="926.089966" x2="976.200684" y2="935.974854" style="stroke: green; stroke-width: 0.200000"/>
   <line x1="977.200684" y1="921.339966" x2="977.200684" y2="935.974854" style="stroke: green; stroke-width: 0.200000"/>
   <line x1="978.200745" y1="918.066345" x2="978.200745" y2="935.974854" style="stroke: green; stroke-width: 0.200000"/>
   <line x1="979.200745" y1="915.885376" x2="979.200745" y2="935.974854" style="stroke: green; stroke-width: 0.200000"/>
   <line x1="980.200745" y1="914.229736" x2="980.200745" y2="935.974854" style="stroke: green; stroke-width: 0.200000"/>
   <line x1="981.200684" y1="912.886719" x2="981.200684" y2="935.974854" style="stroke: green; stroke-width: 0.200000"/>
   <line x1="982.200684" y1="911.712708" x2="982.200684" y2="935.974854" style="stroke: green; stroke-width: 0.200000"/>
   <line x1="983.200745" y1="910.667419" x2="983.200745" y2="935.974854" style="stroke: green; stroke-width: 0.200000"/>
   <line x1="984.200745" y1="909.622131" x2="984.200745" y2="935.974854" style="stroke: green; stroke-width: 0.200000"/>
   <line x1="985.200745" y1="908.576904" x2="985.200745" y2="935.511108" style="stroke: green; stroke-width: 0.200000"/>
   <line x1="986.200684" y1="907.531616" x2="986.200684" y2="934.511108" style="stroke: green; stroke-width: 0.200000"/>
   <line x1="987.200684" y1="906.486328" x2="987.200684" y2="933.511108" style="stroke: green; stroke-width: 0.200000"/>
   <line x1="988.200745" y1="905.441040" x2="988.200745" y2="932.511108" style="stroke: green; stroke-width: 0.200000"/>
   <line x1="989.200745" y1="904.395813" x2="989.200745" y2="931.511108" style="stroke: green; stroke-width: 0.200000"/>
   <line x1="990.200745" y1="903.350525" x2="990.200745" y2="930.511108" style="stroke: green; stroke-width: 0.200000"/>
   <line x1="991.200684" y1="902.376465" x2="991.200684" y2="929.511108" style="stroke: green; stroke-width: 0.200000"/>
   <line x1="992.200684" y1="901.464233" x2="992.200684" y2="928.511108" style="stroke: green; stroke-width: 0.200000"/>
   <line x1="993.200745" y1="900.552002" x2="993.200745" y2="927.511108" style="stroke: green; stroke-width: 0.200000"/>
   <line x1="994.200745" y1="899.639771" x2="994.200745" y2="926.511108" style="stroke: green; stroke-width: 0.200000"/>
   <line x1="995.200745" y1="898.727478" x2="995.200745" y2="925.511108" style="stroke: green; stroke-width: 0.200000"/>
   <line x1="996.200684" y1="897.815247" x2="996.200684" y2="924.511108" style="stroke: green; stroke-width: 0.200000"/>
   <line x1="997.200684" y1="896.903015" x2="997.200684" y2="923.511108" style="stroke: green; stroke-width: 0.200000"/>
   <line x1="998.200745" y1="896.025635" x2="998.200745" y2="922.511108" style="stroke: green; stroke-width: 0.200000"/>
   <line x1="999.200745" y1="895.250732" x2="999.200745" y2="921.511108" style="stroke: green; stroke-width: 0.200000"/>
   <line x1="1000.200745" y1="894.475830" x2="1000.200745" y2="920.511108" style="stroke: green; stroke-width: 0.200000"/>
   <line x1="1001.200684" y1="893.700928" x2="1001.200684" y2="919.511108" style="stroke: green; stroke-width: 0.200000"/>
   <line x1="1002.200684" y1="892.926086" x2="1002.200684" y2="918.511108" style="stroke: green; stroke-width: 0.200000"/>
   <line x1="1003.200745" y1="892.151184" x2="1003.200745" y2="917.511047" style="stroke: green; stroke-width: 0.200000"/>
   <line x1="1004.200745" y1="891.376343" x2="1004.200745" y2="916.511108" style="stroke: green; stroke-width: 0.200000"/>
   <line x1="1005.200745" y1="890.601440" x2="1005.200745" y2="915.511108" style="stroke: green; stroke-width: 0.200000"/>
   <line x1="1006.200684" y1="889.902710" x2="1006.200684" y2="914.511108" style="stroke: green; stroke-width: 0.200000"/>
   <line x1="1007.200684" y1="889.212280" x2="1007.200684" y2="913.511108" style="stroke: green; stroke-width: 0.200000"/>
   <line x1="1008.200745" y1="888.509644" x2="1008.200745" y2="912.511047" style="stroke: green; stroke-width: 0.200000"/>
   <line x1="1009.200745" y1="887.924438" x2="1009.200745" y2="911.511108" style="stroke: green; stroke-width: 0.200000"/>
   <line x1="1010.200745" y1="887.400024" x2="1010.200745" y2="910.511108" style="stroke: green; stroke-width: 0.200000"/>
   <line x1="1011.200684" y1="886.989746" x2="1011.200684" y2="909.511108" style="stroke: green; stroke-width: 0.200000"/>
   <line x1="1012.200684" y1="886.643005" x2="1012.200684" y2="908.511108" style="stroke: green; stroke-width: 0.200000"/>
   <line x1="1013.200745" y1="886.385803" x2="1013.200745" y2="907.511047" style="stroke: green; stroke-width: 0.200000"/>
   <line x1="1014.200745" y1="886.170288" x2="1014.200745" y2="906.511108" style="stroke: green; stroke-width: 0.200000"/>
   <line x1="1015.200745" y1="886.058350" x2="1015.200745" y2="905.511108" style="stroke: green; stroke-width: 0.200000"/>
   <line x1="1016.200684" y1="885.981140" x2="1016.200684" y2="904.511108" style="stroke: green; stroke-width: 0.200000"/>
   <line x1="1017.200684" y1="886.005737" x2="1017.200684" y2="903.511108" style="stroke: green; stroke-width: 0.200000"/>
   <line x1="1018.200745" y1="886.045288" x2="1018.200745" y2="902.511047" style="stroke: green; stroke-width: 0.200000"/>
   <line x1="1019.200745" y1="886.221680" x2="1019.200745" y2="901.511108" style="stroke: green; stroke-width: 0.200000"/>
   <line x1="1021.200684" y1="886.709656" x2="1021.200684" y2="899.511108" style="stroke: green; stroke-width: 0.200000"/>
   <line x1="1022.200684" y1="887.032471" x2="1022.200684" y2="898.511108" style="stroke: green; stroke-width: 0.200000"/>
   <line x1="1023.200745" y1="887.489624" x2="1023.200745" y2="897.511047" style="stroke: green; stroke-width: 0.200000"/>
   <line x1="1024.200684" y1="887.970215" x2="1024.200684" y2="896.511108" style="stroke: green; stroke-width: 0.200000"/>
   <line x1="1025.200684" y1="888.614197" x2="1025.200684" y2="895.511108" style="stroke: green; stroke-width: 0.200000"/>
   <line x1="1029.200684" y1="892.178650" x2="1029.200684" y2="895.370728" style="stroke: green; stroke-width: 0.200000"/>
   <line x1="1026.200684" y1="889.312744" x2="1026.200684" y2="894.511108" style="stroke: green; stroke-width: 0.200000"/>
   <line x1="1028.200806" y1="891.132507" x2="1028.200806" y2="894.385498" style="stroke: green; stroke-width: 0.200000"/>
   <line x1="1030.200684" y1="893.224792" x2="1030.200684" y2="894.370728" style="stroke: green; stroke-width: 0.200000"/>
   <line x1="1027.200684" y1="890.187622" x2="1027.200684" y2="893.511108" style="stroke: green; stroke-width: 0.200000"/>
   <line x1="973.200745" y1="937.469971" x2="973.200745" y2="950.858032" style="stroke: green; stroke-width: 0.200000"/>
   <line x1="974.200745" y1="936.074890" x2="974.200745" y2="950.075806" style="stroke: green; stroke-width: 0.200000"/>
   <line x1="972.200684" y1="940.693420" x2="972.200684" y2="949.858032" style="stroke: green; stroke-width: 0.200000"/>
   <line x1="975.200745" y1="936.074890" x2="975.200745" y2="949.075867" style="stroke: green; stroke-width: 0.200000"/>
   <line x1="971.200684" y1="943.644409" x2="971.200684" y2="948.858032" style="stroke: green; stroke-width: 0.200000"/>
   <line x1="976.200684" y1="936.074890" x2="976.200684" y2="948.075867" style="stroke: green; stroke-width: 0.200000"/>
   <line x1="970.200745" y1="946.538940" x2="970.200745" y2="947.362427" style="stroke: green; stroke-width: 0.200000"/>
   <line x1="977.200684" y1="936.074890" x2="977.200684" y2="947.075806" style="stroke: green; stroke-width: 0.200000"/>
   <line x1="978.200745" y1="936.074890" x2="978.200745" y2="946.075806" style="stroke: green; stroke-width: 0.200000"/>
   <line x1="979.200745" y1="943.510376" x2="979.200745" y2="945.075806" style="stroke: green; stroke-width: 0.200000"/>
   <line x1="979.200745" y1="936.074890" x2="979.200745" y2="941.511169" style="stroke: green; stroke-width: 0.200000"/>
   <line x1="980.200745" y1="936.074890" x2="980.200745" y2="940.511108" style="stroke: green; stroke-width: 0.200000"/>
   <line x1="981.200684" y1="936.074890" x2="981.200684" y2="939.511108" style="stroke: green; stroke-width: 0.200000"/>
   <line x1="982.200684" y1="936.074890" x2="982.200684" y2="938.511108" style="stroke: green; stroke-width: 0.200000"/>
   <line x1="983.200745" y1="936.074890" x2="983.200745" y2="937.511108" style="stroke: green; stroke-width: 0.200000"/>
   <line x1="984.200745" y1="936.074890" x2="984.200745" y2="936.511169" style="stroke: green; stroke-width: 0.200000"/>
   <line x1="1092.222656" y1="1045.103638" x2="1092.222656" y2="1045.103882" style="stroke: green; stroke-width: 0.200000"/>
   <path d="M 1023.06  1112.45  1021.64  1113.22  1019.91  1113.99  1018.1  1114.65  1016.22  1115.18  1015.79  1115.27  1014.17  1115.56  1012.08  1115.78  1009.97  1115.88  1007.86  1115.85  1005.76  1115.69  1003.68  1115.41  1001.5  1114.93  999.376  1114.32  997.538  1113.7  985.235  1108.87  982.285  1107.68  981.437  1107.3  985.743  1103  988.466  1103.49  991.539  1103.99  1015.88  1079.64  1012.77  1076.53  1063.56  1025.75  1066.67  1028.86  1106.97  988.556  1104.27  984.465  1107.97  980.768  1109.5  982.735  1114.81  989.745  1116.22  991.686  1116.92  992.708  1117.59  993.743  1118.82  995.895  1119.91  998.13  1120.85  1000.43  1121.3  1001.8  1121.58  1002.75  1122.07  1005.04  1122.39  1007.33  1122.54  1009.62  1122.52  1011.88  1122.33  1014.1  1121.97  1016.25  1121.85  1016.85  1121.45  1018.37  1120.9  1019.9  " style="fill: none; stroke: darkmagenta; stroke-width: 0.200000; fill-type: evenodd"  fill-opacity="1.000000" />
   <path d="M 1120.9  1019.9  1120.74  1020.36  1119.85  1022.22  1118.81  1023.98  1118.09  1024.94  1117.65  1025.6  1112.89  1031.33  1106.99  1037.62  1103.33  1041.04  1101.14  1042.92  1098.62  1044.46  1095.87  1045.66  1095.45  1045.78  1095.23  1045.84  " style="fill: none; stroke: red; stroke-width: 0.200000; fill-type: evenodd"  fill-opacity="1.000000" />
   <path d="M 1095.23  1045.84  1094.28  1046.11  " style="fill: none; stroke: darkmagenta; stroke-width: 0.200000; fill-type: evenodd"  fill-opacity="1.000000" />
   <path d="M 1094.28  1046.11  1092.93  1046.49  1092.66  1046.54  " style="fill: none; stroke: red; stroke-width: 0.200000; fill-type: evenodd"  fill-opacity="1.000000" />
   <path d="M 1092.66  1046.54  1089.09  1047.29  1087.35  1047.71  1086.27  1048.02  " style="fill: none; stroke: darkmagenta; stroke-width: 0.200000; fill-type: evenodd"  fill-opacity="1.000000" />
   <path d="M 1086.27  1048.02  1081.98  1049.25  1079.95  1049.98  1076.85  1051.01  1072.08  1053.07  1067.73  1055.51  1065.6  1057.02  1063.76  1058.29  1062.13  1059.68  1060.1  1061.36  1056.7  1064.67  1053.53  1068.21  1051.32  1071.1  1050.64  1071.97  1048.6  1075.2  1048.04  1076.01  1046.25  1079.5  1045.76  1080.34  1044.23  1083.99  1043.77  1084.94  1042.49  1088.65  1042.05  1089.73  1041.89  1090.51  1040.87  1093.17  1039.53  1095.73  1037.89  1098.07  1036.01  1100.25  1034.95  1101.44  1033.59  1102.81  1031.83  1104.69  1028.53  1108.1  1027.46  1109.17  1026.91  1109.7  1026.24  1110.24  1024.83  1111.33  1023.29  1112.33  1023.06  1112.45  " style="fill: none; stroke: red; stroke-width: 0.200000; fill-type: evenodd"  fill-opacity="1.000000" />
   <path d="M 1108.7  983.344  1114.01  990.34  1115.4  992.264  1116.09  993.263  1116.73  994.263  1117.94  996.363  1119  998.538  1119.91  1000.77  1120.34  1002.1  1120.61  1003  1121.08  1005.21  1121.39  1007.44  1121.54  1009.65  1121.52  1011.83  1121.34  1013.98  1120.99  1016.07  1120.88  1016.62  1120.5  1018.07  1119.81  1019.98  1118.97  1021.75  1117.98  1023.43  1117.27  1024.36  1116.85  1025  1112.14  1030.67  1106.28  1036.92  1102.66  1040.29  1100.55  1042.11  1098.15  1043.57  1095.53  1044.72  1095.18  1044.82  1092.69  1045.52  1088.87  1046.32  1087.1  1046.74  1081.67  1048.3  1079.62  1049.04  1076.49  1050.07  1071.63  1052.17  1067.19  1054.66  1065.03  1056.2  1063.15  1057.5  1061.49  1058.91  1059.43  1060.62  1055.98  1063.98  1052.76  1067.57  1050.53  1070.49  1049.82  1071.39  1047.76  1074.65  1047.18  1075.5  1045.37  1079.02  1044.87  1079.9  1043.32  1083.58  1042.85  1084.56  1041.56  1088.3  1041.09  1089.44  1040.93  1090.23  1039.96  1092.76  1038.67  1095.2  1037.1  1097.45  1035.26  1099.59  1034.22  1100.75  1032.87  1102.12  1031.11  1103.99  1027.81  1107.4  1026.75  1108.46  1026.25  1108.95  1025.62  1109.46  1024.25  1110.51  1022.78  1111.47  1021.2  1112.32  1019.53  1113.06  1017.79  1113.7  1015.98  1114.21  1015.6  1114.29  1014.03  1114.56  1012.01  1114.79  1009.96  1114.88  1007.9  1114.85  1005.86  1114.7  1003.86  1114.42  1001.74  1113.96  999.674  1113.37  997.883  1112.76  985.605  1107.94  983.184  1106.97  986.079  1104.07  988.297  1104.48  991.885  1105.05  1017.3  1079.64  1014.19  1076.53  1063.56  1027.16  1066.67  1030.27  1108.25  988.686  1105.56  984.595  1107.88  982.277  1108.7  983.344  " style="fill: none; stroke: black; stroke-width: 0.200000; fill-type: evenodd"  fill-opacity="1.000000" />
   <path d="M 961.733  1046.47  962.126  1046.49  963.408  1046.77  964.628  1047.26  965.746  1047.95  966.642  1048.72  967.334  1049.52  967.482  1049.72  968.01  1050.58  968.107  1050.74  968.53  1051.78  968.597  1051.96  968.878  1053.25  968.938  1054.57  968.779  1055.87  968.403  1057.14  967.917  1058.14  967.828  1058.31  967.054  1059.38  966.117  1060.31  965.039  1061.06  963.851  1061.62  962.585  1061.98  961.274  1062.12  960.163  1062.07  959.975  1062.05  958.682  1061.74  957.469  1061.24  956.356  1060.53  955.607  1059.89  955.475  1059.76  954.809  1058.98  954.111  1057.87  953.609  1056.66  953.316  1055.38  953.241  1054.06  953.386  1052.76  953.747  1051.49  954.154  1050.63  954.313  1050.31  955.07  1049.23  955.995  1048.3  957.064  1047.53  958.245  1046.95  959.505  1046.58  960.81  1046.42  961.733  1046.47  " style="fill: none; stroke: darkmagenta; stroke-width: 0.200000; fill-type: evenodd"  fill-opacity="1.000000" />
   <path d="M 961.687  1047.47  961.997  1047.48  963.112  1047.73  964.176  1048.16  965.155  1048.76  965.933  1049.43  966.549  1050.14  966.651  1050.28  967.153  1051.09  967.208  1051.19  967.599  1052.15  967.635  1052.25  967.883  1053.38  967.936  1054.53  967.797  1055.67  967.468  1056.77  967.025  1057.69  966.977  1057.78  966.292  1058.73  965.475  1059.53  964.535  1060.19  963.498  1060.68  962.394  1061  961.246  1061.12  960.241  1061.07  960.142  1061.06  958.99  1060.79  957.932  1060.35  956.953  1059.73  956.288  1059.16  956.208  1059.08  955.616  1058.39  955.003  1057.41  954.565  1056.35  954.309  1055.23  954.244  1054.09  954.37  1052.95  954.686  1051.85  955.056  1051.07  955.177  1050.82  955.839  1049.88  956.647  1049.06  957.578  1048.39  958.608  1047.89  959.708  1047.56  960.844  1047.43  961.687  1047.47  " style="fill: none; stroke: black; stroke-width: 0.200000; fill-type: evenodd"  fill-opacity="1.000000" />
   <path d="M 933.931  982.134  934.284  982.201  934.641  982.291  934.75  982.332  935.275  982.567  935.742  982.864  936.125  983.192  939.665  986.732  931.319  995.079  929.537  993.296  883.505  1039.33  885.434  1041.26  881.801  1044.89  876.62  1039.48  875.388  1037.94  874.981  1037.33  874.298  1036.12  873.945  1035.37  873.733  1034.88  873.494  1034.25  872.994  1032.27  872.796  1030.25  872.908  1028.25  873.333  1026.3  874.071  1024.44  875.587  1021.46  876.197  1020.32  878.839  1015.97  881.832  1011.71  885.1  1007.64  888.444  1003.88  892.428  999.771  895.239  997.067  899.256  993.274  900.054  992.656  901.479  991.5  903.99  989.991  906.683  988.83  909.423  988.056  912.667  987.295  921.871  985.273  930.91  982.684  932.922  982.183  933.037  982.14  933.6  982.103  933.931  982.134  " style="fill: none; stroke: darkmagenta; stroke-width: 0.200000; fill-type: evenodd"  fill-opacity="1.000000" />
   <path d="M 933.791  983.125  934.068  983.177  934.353  983.25  934.8  983.45  935.146  983.67  935.445  983.926  938.251  986.732  931.319  993.664  929.537  991.882  882.09  1039.33  884.02  1041.26  881.816  1043.46  877.374  1038.82  876.196  1037.35  875.834  1036.8  875.186  1035.66  874.857  1034.96  874.661  1034.5  874.449  1033.94  873.982  1032.1  873.799  1030.23  873.902  1028.38  874.292  1026.6  874.983  1024.86  876.474  1021.92  877.066  1020.82  879.677  1016.51  882.632  1012.31  885.864  1008.28  889.177  1004.56  893.134  1000.48  895.929  997.791  899.907  994.035  900.676  993.44  902.055  992.321  904.448  990.882  907.019  989.775  909.673  989.025  912.889  988.271  922.116  986.243  931.169  983.651  933.271  983.127  933.586  983.106  933.791  983.125  " style="fill: none; stroke: black; stroke-width: 0.200000; fill-type: evenodd"  fill-opacity="1.000000" />
   <path d="M 1042.41  965.843  1042.8  965.859  1044.08  966.14  1045.3  966.631  1046.42  967.318  1047.32  968.087  1048.01  968.889  1048.16  969.094  1048.68  969.947  1048.78  970.114  1049.2  971.154  1049.27  971.334  1049.55  972.625  1049.61  973.939  1049.45  975.245  1049.08  976.507  1048.59  977.511  1048.5  977.68  1047.73  978.754  1046.79  979.677  1045.71  980.431  1044.52  980.995  1043.26  981.352  1041.95  981.493  1040.84  981.436  1040.65  981.416  1039.36  981.116  1038.14  980.609  1037.03  979.906  1036.26  979.247  1035.8  978.724  1035.48  978.357  1034.79  977.243  1034.28  976.029  1033.99  974.747  1033.92  973.435  1034.06  972.128  1034.42  970.863  1034.83  970.005  1034.99  969.679  1035.74  968.602  1036.67  967.669  1037.74  966.902  1038.92  966.325  1040.18  965.952  1041.48  965.795  1042.41  965.843  " style="fill: none; stroke: darkmagenta; stroke-width: 0.200000; fill-type: evenodd"  fill-opacity="1.000000" />
   <path d="M 1042.36  966.842  1042.67  966.854  1043.79  967.098  1044.85  967.527  1045.83  968.129  1046.61  968.797  1047.22  969.511  1047.33  969.652  1047.83  970.463  1047.88  970.558  1048.27  971.519  1048.31  971.618  1048.56  972.755  1048.61  973.901  1048.47  975.04  1048.14  976.145  1047.7  977.058  1047.65  977.151  1046.97  978.1  1046.15  978.906  1045.21  979.564  1044.17  980.055  1043.07  980.367  1041.92  980.491  1040.92  980.439  1040.82  980.428  1039.66  980.161  1038.61  979.718  1037.63  979.1  1036.97  978.532  1036.55  978.065  1036.29  977.761  1035.68  976.783  1035.24  975.724  1034.98  974.606  1034.92  973.461  1035.04  972.322  1035.36  971.218  1035.73  970.438  1035.85  970.188  1036.51  969.247  1037.32  968.432  1038.25  967.764  1039.28  967.26  1040.38  966.935  1041.52  966.798  1042.36  966.842  " style="fill: none; stroke: black; stroke-width: 0.200000; fill-type: evenodd"  fill-opacity="1.000000" />
   <path d="M 1018.01  884.525  1018.27  884.534  1020.54  884.929  1020.68  884.964  1022.87  885.672  1024.82  886.596  1025.15  886.783  1026.94  887.964  1028.83  889.62  1032.86  893.834  1029.18  897.513  1028.68  896.988  1027.26  895.57  980.322  942.511  982.105  944.293  973.31  953.088  969.667  949.446  969.366  949.087  969  948.478  968.803  947.975  968.689  947.482  968.66  947.063  968.612  946.955  968.674  946.329  968.708  946.2  968.78  946.058  969.236  944.605  970.34  941.677  971.369  938.248  972.47  934.876  973.291  931.627  974.279  928.024  974.878  925.066  975.792  920.753  976.155  919.55  976.374  918.67  976.556  918.074  977.198  916.632  977.645  915.566  978.914  913.438  979.328  912.914  979.736  912.32  980.667  911.146  989.306  902.116  989.905  901.528  996.981  895.074  1004.41  889.315  1006.75  887.703  1007.3  887.297  1009.05  886.275  1009.33  886.137  1011.31  885.324  1013.47  884.759  1013.67  884.72  1015.88  884.473  1018.01  884.525  " style="fill: none; stroke: darkmagenta; stroke-width: 0.200000; fill-type: evenodd"  fill-opacity="1.000000" />
   <path d="M 1017.98  885.525  1018.16  885.531  1020.33  885.907  1020.4  885.925  1022.5  886.603  1024.36  887.485  1024.63  887.638  1026.33  888.761  1028.14  890.343  1031.46  893.819  1029.19  896.086  1027.26  894.155  978.908  942.511  980.69  944.293  973.31  951.674  970.405  948.769  970.182  948.504  969.9  948.035  969.761  947.679  969.681  947.334  969.639  946.731  969.659  946.536  969.71  946.434  970.181  944.931  971.288  941.997  972.323  938.547  973.431  935.154  974.258  931.882  975.252  928.256  975.857  925.269  976.761  921.002  977.12  919.815  977.338  918.936  977.494  918.424  978.116  917.028  978.539  916.018  979.74  914.007  980.134  913.508  980.541  912.914  981.422  911.803  990.018  902.818  990.592  902.255  997.625  895.839  1005  890.122  1007.33  888.519  1007.85  888.134  1009.52  887.156  1009.74  887.049  1011.63  886.274  1013.7  885.734  1013.82  885.709  1015.92  885.474  1017.98  885.525  " style="fill: none; stroke: black; stroke-width: 0.200000; fill-type: evenodd"  fill-opacity="1.000000" />
   <path d="M 959.428  969.612  959.333  969.965  958.601  970.697  957.601  970.965  956.601  970.697  955.869  969.965  955.601  968.965  955.869  967.965  956.601  967.233  956.954  967.138  959.428  969.612  " style="fill: none; stroke: purple; stroke-width: 0.500000; fill-type: evenodd"  fill-opacity="1.000000" />
</svg>
