<?xml version="1.0" encoding="UTF-8" standalone="yes"?>
<!DOCTYPE svg PUBLIC "-//W3C//DTD SVG 1.0//EN" "http://www.w3.org/TR/2001/REC-SVG-20010904/DTD/svg10.dtd">
<svg height="2000" width="2000" xmlns="http://www.w3.org/2000/svg" xmlns:svg="http://www.w3.org/2000/svg" xmlns:xlink="http://www.w3.org/1999/xlink">
   <marker id="endArrow" markerHeight="8" markerUnits="strokeWidth" markerWidth="10" orient="auto" refX="1" refY="5" viewBox="0 0 1000 1000">
      <polyline fill="darkblue" points="0,0 10,5 0,10 1,5" />
   </marker>
   <circle cx="1000" cy="1000" r="1" style="stroke:black; fill: red" />
   <circle cx="1000" cy="1000" r="800" style="stroke:black; fill: none" />
   <line x1="798.861023" y1="1279.125488" x2="798.861023" y2="1307.168213" style="stroke: green; stroke-width: 0.200000"/>
   <line x1="799.860962" y1="1276.301147" x2="799.860962" y2="1307.168213" style="stroke: green; stroke-width: 0.200000"/>
   <line x1="800.860962" y1="1273.476685" x2="800.860962" y2="1307.168213" style="stroke: green; stroke-width: 0.200000"/>
   <line x1="801.861023" y1="1271.460938" x2="801.861023" y2="1307.168213" style="stroke: green; stroke-width: 0.200000"/>
   <line x1="802.861023" y1="1269.989136" x2="802.861023" y2="1307.168213" style="stroke: green; stroke-width: 0.200000"/>
   <line x1="803.861023" y1="1268.456543" x2="803.861023" y2="1307.168213" style="stroke: green; stroke-width: 0.200000"/>
   <line x1="804.860962" y1="1266.923950" x2="804.860962" y2="1307.168213" style="stroke: green; stroke-width: 0.200000"/>
   <line x1="805.860962" y1="1265.391235" x2="805.860962" y2="1307.168213" style="stroke: green; stroke-width: 0.200000"/>
   <line x1="806.861023" y1="1263.858521" x2="806.861023" y2="1307.168213" style="stroke: green; stroke-width: 0.200000"/>
   <line x1="807.861023" y1="1262.569092" x2="807.861023" y2="1307.168213" style="stroke: green; stroke-width: 0.200000"/>
   <line x1="808.861023" y1="1261.933716" x2="808.861023" y2="1307.168213" style="stroke: green; stroke-width: 0.200000"/>
   <line x1="809.860962" y1="1261.221680" x2="809.860962" y2="1307.168213" style="stroke: green; stroke-width: 0.200000"/>
   <line x1="810.860962" y1="1260.509521" x2="810.860962" y2="1307.168213" style="stroke: green; stroke-width: 0.200000"/>
   <line x1="811.861023" y1="1259.797485" x2="811.861023" y2="1307.168213" style="stroke: green; stroke-width: 0.200000"/>
   <line x1="812.861023" y1="1259.085327" x2="812.861023" y2="1307.168213" style="stroke: green; stroke-width: 0.200000"/>
   <line x1="813.861023" y1="1258.373169" x2="813.861023" y2="1307.168213" style="stroke: green; stroke-width: 0.200000"/>
   <line x1="814.860962" y1="1257.661011" x2="814.860962" y2="1307.168213" style="stroke: green; stroke-width: 0.200000"/>
   <line x1="815.860962" y1="1257.256592" x2="815.860962" y2="1307.168213" style="stroke: green; stroke-width: 0.200000"/>
   <line x1="816.861023" y1="1257.543457" x2="816.861023" y2="1307.168213" style="stroke: green; stroke-width: 0.200000"/>
   <line x1="817.861023" y1="1257.830322" x2="817.861023" y2="1307.168213" style="stroke: green; stroke-width: 0.200000"/>
   <line x1="818.861023" y1="1258.117065" x2="818.861023" y2="1307.168213" style="stroke: green; stroke-width: 0.200000"/>
   <line x1="819.860962" y1="1258.403809" x2="819.860962" y2="1307.168213" style="stroke: green; stroke-width: 0.200000"/>
   <line x1="820.860962" y1="1258.690674" x2="820.860962" y2="1307.168213" style="stroke: green; stroke-width: 0.200000"/>
   <line x1="821.861023" y1="1259.180786" x2="821.861023" y2="1307.168213" style="stroke: green; stroke-width: 0.200000"/>
   <line x1="822.861023" y1="1259.740601" x2="822.861023" y2="1307.168213" style="stroke: green; stroke-width: 0.200000"/>
   <line x1="823.861023" y1="1260.300415" x2="823.861023" y2="1307.168213" style="stroke: green; stroke-width: 0.200000"/>
   <line x1="824.860962" y1="1261.266113" x2="824.860962" y2="1307.168213" style="stroke: green; stroke-width: 0.200000"/>
   <line x1="825.860962" y1="1262.772339" x2="825.860962" y2="1307.168213" style="stroke: green; stroke-width: 0.200000"/>
   <line x1="826.861023" y1="1264.278442" x2="826.861023" y2="1307.168213" style="stroke: green; stroke-width: 0.200000"/>
   <line x1="827.861023" y1="1266.312012" x2="827.861023" y2="1307.168213" style="stroke: green; stroke-width: 0.200000"/>
   <line x1="828.861023" y1="1268.493896" x2="828.861023" y2="1307.168213" style="stroke: green; stroke-width: 0.200000"/>
   <line x1="829.860962" y1="1270.620117" x2="829.860962" y2="1307.168213" style="stroke: green; stroke-width: 0.200000"/>
   <line x1="830.860962" y1="1272.721924" x2="830.860962" y2="1307.168213" style="stroke: green; stroke-width: 0.200000"/>
   <line x1="831.861023" y1="1275.160400" x2="831.861023" y2="1307.168213" style="stroke: green; stroke-width: 0.200000"/>
   <line x1="832.861023" y1="1278.195190" x2="832.861023" y2="1307.168213" style="stroke: green; stroke-width: 0.200000"/>
   <line x1="833.861023" y1="1281.818848" x2="833.861023" y2="1307.168213" style="stroke: green; stroke-width: 0.200000"/>
   <line x1="834.860962" y1="1285.034668" x2="834.860962" y2="1307.168213" style="stroke: green; stroke-width: 0.200000"/>
   <line x1="835.860962" y1="1288.250244" x2="835.860962" y2="1307.168213" style="stroke: green; stroke-width: 0.200000"/>
   <line x1="836.861023" y1="1292.678101" x2="836.861023" y2="1307.168213" style="stroke: green; stroke-width: 0.200000"/>
   <line x1="837.861023" y1="1297.393311" x2="837.861023" y2="1307.168213" style="stroke: green; stroke-width: 0.200000"/>
   <line x1="838.861023" y1="1302.255127" x2="838.861023" y2="1307.168213" style="stroke: green; stroke-width: 0.200000"/>
   <line x1="839.860962" y1="1306.548340" x2="839.860962" y2="1307.168213" style="stroke: green; stroke-width: 0.200000"/>
   <line x1="797.861023" y1="1281.703125" x2="797.861023" y2="1306.682861" style="stroke: green; stroke-width: 0.200000"/>
   <line x1="796.861023" y1="1283.807373" x2="796.861023" y2="1304.507568" style="stroke: green; stroke-width: 0.200000"/>
   <line x1="795.860962" y1="1287.083740" x2="795.860962" y2="1302.676270" style="stroke: green; stroke-width: 0.200000"/>
   <line x1="794.860962" y1="1292.509766" x2="794.860962" y2="1300.876465" style="stroke: green; stroke-width: 0.200000"/>
   <line x1="793.861023" y1="1296.024170" x2="793.861023" y2="1298.850098" style="stroke: green; stroke-width: 0.200000"/>
   <line x1="827.861023" y1="1307.268311" x2="827.861023" y2="1357.268311" style="stroke: green; stroke-width: 0.200000"/>
   <line x1="828.861023" y1="1307.268311" x2="828.861023" y2="1357.268311" style="stroke: green; stroke-width: 0.200000"/>
   <line x1="829.860962" y1="1307.268311" x2="829.860962" y2="1357.268311" style="stroke: green; stroke-width: 0.200000"/>
   <line x1="830.860962" y1="1307.268311" x2="830.860962" y2="1357.268311" style="stroke: green; stroke-width: 0.200000"/>
   <line x1="831.861023" y1="1307.268311" x2="831.861023" y2="1357.268311" style="stroke: green; stroke-width: 0.200000"/>
   <line x1="832.861023" y1="1307.268311" x2="832.861023" y2="1357.268311" style="stroke: green; stroke-width: 0.200000"/>
   <line x1="833.861023" y1="1307.268311" x2="833.861023" y2="1357.268311" style="stroke: green; stroke-width: 0.200000"/>
   <line x1="834.860962" y1="1307.268311" x2="834.860962" y2="1357.268311" style="stroke: green; stroke-width: 0.200000"/>
   <line x1="835.860962" y1="1307.268311" x2="835.860962" y2="1357.268311" style="stroke: green; stroke-width: 0.200000"/>
   <line x1="836.861023" y1="1307.268311" x2="836.861023" y2="1357.268311" style="stroke: green; stroke-width: 0.200000"/>
   <line x1="837.861023" y1="1307.268311" x2="837.861023" y2="1357.268311" style="stroke: green; stroke-width: 0.200000"/>
   <line x1="838.861023" y1="1307.268311" x2="838.861023" y2="1357.268311" style="stroke: green; stroke-width: 0.200000"/>
   <line x1="839.860962" y1="1307.268311" x2="839.860962" y2="1357.268311" style="stroke: green; stroke-width: 0.200000"/>
   <line x1="840.860962" y1="1311.524414" x2="840.860962" y2="1357.268311" style="stroke: green; stroke-width: 0.200000"/>
   <line x1="841.861023" y1="1315.132324" x2="841.861023" y2="1357.268311" style="stroke: green; stroke-width: 0.200000"/>
   <line x1="842.861023" y1="1320.295654" x2="842.861023" y2="1357.268311" style="stroke: green; stroke-width: 0.200000"/>
   <line x1="826.861023" y1="1307.268311" x2="826.861023" y2="1355.552734" style="stroke: green; stroke-width: 0.200000"/>
   <line x1="825.860962" y1="1307.268311" x2="825.860962" y2="1353.291626" style="stroke: green; stroke-width: 0.200000"/>
   <line x1="824.860962" y1="1307.268311" x2="824.860962" y2="1350.910156" style="stroke: green; stroke-width: 0.200000"/>
   <line x1="823.861023" y1="1307.268311" x2="823.861023" y2="1348.844604" style="stroke: green; stroke-width: 0.200000"/>
   <line x1="822.861023" y1="1307.268311" x2="822.861023" y2="1346.962280" style="stroke: green; stroke-width: 0.200000"/>
   <line x1="821.861023" y1="1307.268311" x2="821.861023" y2="1345.079956" style="stroke: green; stroke-width: 0.200000"/>
   <line x1="820.860962" y1="1307.268311" x2="820.860962" y2="1343.197754" style="stroke: green; stroke-width: 0.200000"/>
   <line x1="819.860962" y1="1307.268311" x2="819.860962" y2="1341.229492" style="stroke: green; stroke-width: 0.200000"/>
   <line x1="818.861023" y1="1307.268311" x2="818.861023" y2="1339.091797" style="stroke: green; stroke-width: 0.200000"/>
   <line x1="817.861023" y1="1307.268311" x2="817.861023" y2="1336.954224" style="stroke: green; stroke-width: 0.200000"/>
   <line x1="816.861023" y1="1307.268311" x2="816.861023" y2="1334.816284" style="stroke: green; stroke-width: 0.200000"/>
   <line x1="815.860962" y1="1307.268311" x2="815.860962" y2="1332.651367" style="stroke: green; stroke-width: 0.200000"/>
   <line x1="814.860962" y1="1307.268311" x2="814.860962" y2="1330.589844" style="stroke: green; stroke-width: 0.200000"/>
   <line x1="813.861023" y1="1307.268311" x2="813.861023" y2="1328.915894" style="stroke: green; stroke-width: 0.200000"/>
   <line x1="812.861023" y1="1307.268311" x2="812.861023" y2="1327.241699" style="stroke: green; stroke-width: 0.200000"/>
   <line x1="811.861023" y1="1307.268311" x2="811.861023" y2="1325.567627" style="stroke: green; stroke-width: 0.200000"/>
   <line x1="810.860962" y1="1307.268311" x2="810.860962" y2="1323.893799" style="stroke: green; stroke-width: 0.200000"/>
   <line x1="809.860962" y1="1307.268311" x2="809.860962" y2="1322.626221" style="stroke: green; stroke-width: 0.200000"/>
   <line x1="808.861023" y1="1307.268311" x2="808.861023" y2="1321.377441" style="stroke: green; stroke-width: 0.200000"/>
   <line x1="807.861023" y1="1307.268311" x2="807.861023" y2="1320.128662" style="stroke: green; stroke-width: 0.200000"/>
   <line x1="806.861023" y1="1307.268311" x2="806.861023" y2="1318.687500" style="stroke: green; stroke-width: 0.200000"/>
   <line x1="805.860962" y1="1307.268311" x2="805.860962" y2="1317.217407" style="stroke: green; stroke-width: 0.200000"/>
   <line x1="804.860962" y1="1307.268311" x2="804.860962" y2="1315.848389" style="stroke: green; stroke-width: 0.200000"/>
   <line x1="803.861023" y1="1307.268311" x2="803.861023" y2="1314.694580" style="stroke: green; stroke-width: 0.200000"/>
   <line x1="802.861023" y1="1307.268311" x2="802.861023" y2="1313.541016" style="stroke: green; stroke-width: 0.200000"/>
   <line x1="801.861023" y1="1307.268311" x2="801.861023" y2="1312.389893" style="stroke: green; stroke-width: 0.200000"/>
   <line x1="800.860962" y1="1307.268311" x2="800.860962" y2="1311.261230" style="stroke: green; stroke-width: 0.200000"/>
   <line x1="799.860962" y1="1307.268311" x2="799.860962" y2="1310.132935" style="stroke: green; stroke-width: 0.200000"/>
   <line x1="798.861023" y1="1307.268311" x2="798.861023" y2="1308.857910" style="stroke: green; stroke-width: 0.200000"/>
   <line x1="843.861023" y1="1325.766724" x2="843.861023" y2="1357.268311" style="stroke: green; stroke-width: 0.200000"/>
   <line x1="844.860962" y1="1330.777100" x2="844.860962" y2="1357.268311" style="stroke: green; stroke-width: 0.200000"/>
   <line x1="845.860962" y1="1340.310303" x2="845.860962" y2="1357.268311" style="stroke: green; stroke-width: 0.200000"/>
   <line x1="846.861023" y1="1348.151123" x2="846.861023" y2="1357.268311" style="stroke: green; stroke-width: 0.200000"/>
   <line x1="847.861023" y1="1355.933350" x2="847.861023" y2="1357.268311" style="stroke: green; stroke-width: 0.200000"/>
   <line x1="839.860962" y1="1357.368286" x2="839.860962" y2="1376.223877" style="stroke: green; stroke-width: 0.200000"/>
   <line x1="840.860962" y1="1357.368286" x2="840.860962" y2="1376.188721" style="stroke: green; stroke-width: 0.200000"/>
   <line x1="841.861023" y1="1357.368286" x2="841.861023" y2="1376.153320" style="stroke: green; stroke-width: 0.200000"/>
   <line x1="842.861023" y1="1357.368286" x2="842.861023" y2="1376.142456" style="stroke: green; stroke-width: 0.200000"/>
   <line x1="838.861023" y1="1357.368286" x2="838.861023" y2="1375.729736" style="stroke: green; stroke-width: 0.200000"/>
   <line x1="837.861023" y1="1357.368286" x2="837.861023" y2="1374.681885" style="stroke: green; stroke-width: 0.200000"/>
   <line x1="836.861023" y1="1357.368286" x2="836.861023" y2="1373.633423" style="stroke: green; stroke-width: 0.200000"/>
   <line x1="835.860962" y1="1357.368286" x2="835.860962" y2="1372.566162" style="stroke: green; stroke-width: 0.200000"/>
   <line x1="834.860962" y1="1357.368286" x2="834.860962" y2="1371.499023" style="stroke: green; stroke-width: 0.200000"/>
   <line x1="833.861023" y1="1357.368286" x2="833.861023" y2="1370.431641" style="stroke: green; stroke-width: 0.200000"/>
   <line x1="832.861023" y1="1357.368286" x2="832.861023" y2="1368.772949" style="stroke: green; stroke-width: 0.200000"/>
   <line x1="831.861023" y1="1357.368286" x2="831.861023" y2="1366.667236" style="stroke: green; stroke-width: 0.200000"/>
   <line x1="830.860962" y1="1357.368286" x2="830.860962" y2="1364.475708" style="stroke: green; stroke-width: 0.200000"/>
   <line x1="829.860962" y1="1357.368286" x2="829.860962" y2="1362.284058" style="stroke: green; stroke-width: 0.200000"/>
   <line x1="828.861023" y1="1357.368286" x2="828.861023" y2="1360.073975" style="stroke: green; stroke-width: 0.200000"/>
   <line x1="827.861023" y1="1357.368286" x2="827.861023" y2="1357.813477" style="stroke: green; stroke-width: 0.200000"/>
   <line x1="843.861023" y1="1357.368286" x2="843.861023" y2="1376.139648" style="stroke: green; stroke-width: 0.200000"/>
   <line x1="844.860962" y1="1357.368286" x2="844.860962" y2="1376.136719" style="stroke: green; stroke-width: 0.200000"/>
   <line x1="845.860962" y1="1357.368286" x2="845.860962" y2="1376.133911" style="stroke: green; stroke-width: 0.200000"/>
   <line x1="846.861023" y1="1357.368286" x2="846.861023" y2="1376.130981" style="stroke: green; stroke-width: 0.200000"/>
   <line x1="847.861023" y1="1357.368286" x2="847.861023" y2="1376.128052" style="stroke: green; stroke-width: 0.200000"/>
   <line x1="848.861023" y1="1366.887207" x2="848.861023" y2="1367.154053" style="stroke: green; stroke-width: 0.200000"/>
   <line x1="932.615295" y1="1178.637817" x2="932.615295" y2="1220.820679" style="stroke: green; stroke-width: 0.200000"/>
   <line x1="933.615234" y1="1179.727783" x2="933.615234" y2="1220.820679" style="stroke: green; stroke-width: 0.200000"/>
   <line x1="934.615356" y1="1180.817993" x2="934.615356" y2="1220.820679" style="stroke: green; stroke-width: 0.200000"/>
   <line x1="935.615295" y1="1181.908081" x2="935.615295" y2="1220.820679" style="stroke: green; stroke-width: 0.200000"/>
   <line x1="936.615295" y1="1182.998169" x2="936.615295" y2="1220.820679" style="stroke: green; stroke-width: 0.200000"/>
   <line x1="937.615295" y1="1184.142212" x2="937.615295" y2="1220.820679" style="stroke: green; stroke-width: 0.200000"/>
   <line x1="938.615234" y1="1185.329224" x2="938.615234" y2="1220.820679" style="stroke: green; stroke-width: 0.200000"/>
   <line x1="939.615356" y1="1186.515991" x2="939.615356" y2="1220.820679" style="stroke: green; stroke-width: 0.200000"/>
   <line x1="940.615295" y1="1187.721436" x2="940.615295" y2="1220.820679" style="stroke: green; stroke-width: 0.200000"/>
   <line x1="941.615295" y1="1188.927246" x2="941.615295" y2="1220.820679" style="stroke: green; stroke-width: 0.200000"/>
   <line x1="942.615295" y1="1190.132935" x2="942.615295" y2="1220.820679" style="stroke: green; stroke-width: 0.200000"/>
   <line x1="943.615234" y1="1191.338623" x2="943.615234" y2="1220.820679" style="stroke: green; stroke-width: 0.200000"/>
   <line x1="944.615356" y1="1192.453735" x2="944.615356" y2="1220.820679" style="stroke: green; stroke-width: 0.200000"/>
   <line x1="945.615295" y1="1193.456299" x2="945.615295" y2="1220.820679" style="stroke: green; stroke-width: 0.200000"/>
   <line x1="946.615295" y1="1194.458740" x2="946.615295" y2="1220.820679" style="stroke: green; stroke-width: 0.200000"/>
   <line x1="947.615295" y1="1195.461304" x2="947.615295" y2="1220.820679" style="stroke: green; stroke-width: 0.200000"/>
   <line x1="948.615234" y1="1196.463745" x2="948.615234" y2="1220.820679" style="stroke: green; stroke-width: 0.200000"/>
   <line x1="949.615356" y1="1197.561768" x2="949.615356" y2="1220.820679" style="stroke: green; stroke-width: 0.200000"/>
   <line x1="931.615295" y1="1177.791626" x2="931.615295" y2="1220.652832" style="stroke: green; stroke-width: 0.200000"/>
   <line x1="930.615295" y1="1176.968384" x2="930.615295" y2="1219.952881" style="stroke: green; stroke-width: 0.200000"/>
   <line x1="929.615356" y1="1176.145508" x2="929.615356" y2="1219.253052" style="stroke: green; stroke-width: 0.200000"/>
   <line x1="928.615234" y1="1175.322388" x2="928.615234" y2="1218.553101" style="stroke: green; stroke-width: 0.200000"/>
   <line x1="927.615295" y1="1174.499268" x2="927.615295" y2="1217.820801" style="stroke: green; stroke-width: 0.200000"/>
   <line x1="926.615295" y1="1173.676147" x2="926.615295" y2="1217.071777" style="stroke: green; stroke-width: 0.200000"/>
   <line x1="925.615295" y1="1172.905518" x2="925.615295" y2="1216.322998" style="stroke: green; stroke-width: 0.200000"/>
   <line x1="924.615356" y1="1172.625488" x2="924.615356" y2="1215.573975" style="stroke: green; stroke-width: 0.200000"/>
   <line x1="923.615234" y1="1172.352173" x2="923.615234" y2="1214.825195" style="stroke: green; stroke-width: 0.200000"/>
   <line x1="922.615295" y1="1172.078735" x2="922.615295" y2="1214.076294" style="stroke: green; stroke-width: 0.200000"/>
   <line x1="921.615295" y1="1171.805298" x2="921.615295" y2="1213.255859" style="stroke: green; stroke-width: 0.200000"/>
   <line x1="920.615295" y1="1171.531860" x2="920.615295" y2="1212.412354" style="stroke: green; stroke-width: 0.200000"/>
   <line x1="919.615356" y1="1171.258545" x2="919.615356" y2="1211.527588" style="stroke: green; stroke-width: 0.200000"/>
   <line x1="918.615234" y1="1170.985229" x2="918.615234" y2="1210.642822" style="stroke: green; stroke-width: 0.200000"/>
   <line x1="917.615295" y1="1170.898438" x2="917.615295" y2="1209.793945" style="stroke: green; stroke-width: 0.200000"/>
   <line x1="916.615295" y1="1171.093384" x2="916.615295" y2="1208.952759" style="stroke: green; stroke-width: 0.200000"/>
   <line x1="915.615295" y1="1171.273926" x2="915.615295" y2="1208.111572" style="stroke: green; stroke-width: 0.200000"/>
   <line x1="914.615356" y1="1171.422607" x2="914.615356" y2="1207.270386" style="stroke: green; stroke-width: 0.200000"/>
   <line x1="913.615234" y1="1171.571167" x2="913.615234" y2="1206.429199" style="stroke: green; stroke-width: 0.200000"/>
   <line x1="912.615295" y1="1171.719727" x2="912.615295" y2="1205.430420" style="stroke: green; stroke-width: 0.200000"/>
   <line x1="911.615295" y1="1171.868286" x2="911.615295" y2="1204.423096" style="stroke: green; stroke-width: 0.200000"/>
   <line x1="910.615295" y1="1172.016846" x2="910.615295" y2="1203.415771" style="stroke: green; stroke-width: 0.200000"/>
   <line x1="909.615356" y1="1172.165405" x2="909.615356" y2="1202.408569" style="stroke: green; stroke-width: 0.200000"/>
   <line x1="908.615234" y1="1172.314087" x2="908.615234" y2="1201.401489" style="stroke: green; stroke-width: 0.200000"/>
   <line x1="907.615295" y1="1172.462646" x2="907.615295" y2="1200.308105" style="stroke: green; stroke-width: 0.200000"/>
   <line x1="906.615295" y1="1172.611206" x2="906.615295" y2="1199.207153" style="stroke: green; stroke-width: 0.200000"/>
   <line x1="905.615295" y1="1173.396118" x2="905.615295" y2="1197.257202" style="stroke: green; stroke-width: 0.200000"/>
   <line x1="904.615356" y1="1174.494385" x2="904.615356" y2="1195.801392" style="stroke: green; stroke-width: 0.200000"/>
   <line x1="903.615234" y1="1175.600708" x2="903.615234" y2="1194.345459" style="stroke: green; stroke-width: 0.200000"/>
   <line x1="902.615295" y1="1176.706787" x2="902.615295" y2="1192.889648" style="stroke: green; stroke-width: 0.200000"/>
   <line x1="901.615295" y1="1177.813110" x2="901.615295" y2="1191.433716" style="stroke: green; stroke-width: 0.200000"/>
   <line x1="900.615295" y1="1178.919312" x2="900.615295" y2="1189.977905" style="stroke: green; stroke-width: 0.200000"/>
   <line x1="950.615295" y1="1198.776367" x2="950.615295" y2="1220.820679" style="stroke: green; stroke-width: 0.200000"/>
   <line x1="951.615295" y1="1199.639648" x2="951.615295" y2="1220.820679" style="stroke: green; stroke-width: 0.200000"/>
   <line x1="952.615295" y1="1200.502808" x2="952.615295" y2="1220.820679" style="stroke: green; stroke-width: 0.200000"/>
   <line x1="953.615234" y1="1201.345337" x2="953.615234" y2="1220.820679" style="stroke: green; stroke-width: 0.200000"/>
   <line x1="954.615356" y1="1201.891968" x2="954.615356" y2="1220.820679" style="stroke: green; stroke-width: 0.200000"/>
   <line x1="955.615295" y1="1202.438354" x2="955.615295" y2="1220.820679" style="stroke: green; stroke-width: 0.200000"/>
   <line x1="956.615295" y1="1202.984741" x2="956.615295" y2="1220.820679" style="stroke: green; stroke-width: 0.200000"/>
   <line x1="957.615295" y1="1203.531128" x2="957.615295" y2="1220.820679" style="stroke: green; stroke-width: 0.200000"/>
   <line x1="958.615234" y1="1204.077515" x2="958.615234" y2="1220.820679" style="stroke: green; stroke-width: 0.200000"/>
   <line x1="959.615356" y1="1204.715820" x2="959.615356" y2="1220.820679" style="stroke: green; stroke-width: 0.200000"/>
   <line x1="960.615295" y1="1205.372681" x2="960.615295" y2="1220.820679" style="stroke: green; stroke-width: 0.200000"/>
   <line x1="961.615295" y1="1206.029663" x2="961.615295" y2="1220.820679" style="stroke: green; stroke-width: 0.200000"/>
   <line x1="962.615295" y1="1206.686523" x2="962.615295" y2="1220.820679" style="stroke: green; stroke-width: 0.200000"/>
   <line x1="963.615234" y1="1207.343506" x2="963.615234" y2="1220.820679" style="stroke: green; stroke-width: 0.200000"/>
   <line x1="964.615356" y1="1207.922852" x2="964.615356" y2="1220.820679" style="stroke: green; stroke-width: 0.200000"/>
   <line x1="965.615295" y1="1208.470093" x2="965.615295" y2="1220.820679" style="stroke: green; stroke-width: 0.200000"/>
   <line x1="966.615295" y1="1209.091553" x2="966.615295" y2="1220.820679" style="stroke: green; stroke-width: 0.200000"/>
   <line x1="967.615295" y1="1209.806396" x2="967.615295" y2="1220.820679" style="stroke: green; stroke-width: 0.200000"/>
   <line x1="968.615234" y1="1210.265015" x2="968.615234" y2="1220.820679" style="stroke: green; stroke-width: 0.200000"/>
   <line x1="969.615356" y1="1210.723633" x2="969.615356" y2="1220.820679" style="stroke: green; stroke-width: 0.200000"/>
   <line x1="970.615295" y1="1211.182129" x2="970.615295" y2="1220.820679" style="stroke: green; stroke-width: 0.200000"/>
   <line x1="971.615295" y1="1211.640625" x2="971.615295" y2="1220.820679" style="stroke: green; stroke-width: 0.200000"/>
   <line x1="972.615295" y1="1212.099243" x2="972.615295" y2="1220.820679" style="stroke: green; stroke-width: 0.200000"/>
   <line x1="973.615234" y1="1212.557739" x2="973.615234" y2="1220.820679" style="stroke: green; stroke-width: 0.200000"/>
   <line x1="974.615356" y1="1213.055542" x2="974.615356" y2="1220.820679" style="stroke: green; stroke-width: 0.200000"/>
   <line x1="975.615295" y1="1213.606934" x2="975.615295" y2="1220.820679" style="stroke: green; stroke-width: 0.200000"/>
   <line x1="976.615295" y1="1214.158325" x2="976.615295" y2="1220.820679" style="stroke: green; stroke-width: 0.200000"/>
   <line x1="977.615295" y1="1214.709839" x2="977.615295" y2="1220.820679" style="stroke: green; stroke-width: 0.200000"/>
   <line x1="978.615234" y1="1215.261353" x2="978.615234" y2="1220.820679" style="stroke: green; stroke-width: 0.200000"/>
   <line x1="979.615356" y1="1215.812744" x2="979.615356" y2="1220.820679" style="stroke: green; stroke-width: 0.200000"/>
   <line x1="980.615295" y1="1216.286743" x2="980.615295" y2="1220.820679" style="stroke: green; stroke-width: 0.200000"/>
   <line x1="981.615295" y1="1216.722778" x2="981.615295" y2="1220.820679" style="stroke: green; stroke-width: 0.200000"/>
   <line x1="982.615295" y1="1217.158936" x2="982.615295" y2="1220.820679" style="stroke: green; stroke-width: 0.200000"/>
   <line x1="983.615234" y1="1217.631104" x2="983.615234" y2="1220.820679" style="stroke: green; stroke-width: 0.200000"/>
   <line x1="984.615356" y1="1218.125000" x2="984.615356" y2="1220.820679" style="stroke: green; stroke-width: 0.200000"/>
   <line x1="985.615295" y1="1218.618896" x2="985.615295" y2="1220.820679" style="stroke: green; stroke-width: 0.200000"/>
   <line x1="986.615295" y1="1219.112671" x2="986.615295" y2="1220.820679" style="stroke: green; stroke-width: 0.200000"/>
   <line x1="987.615295" y1="1219.580444" x2="987.615295" y2="1220.820679" style="stroke: green; stroke-width: 0.200000"/>
   <line x1="988.615234" y1="1220.026611" x2="988.615234" y2="1220.820679" style="stroke: green; stroke-width: 0.200000"/>
   <line x1="989.615356" y1="1220.472900" x2="989.615356" y2="1220.820679" style="stroke: green; stroke-width: 0.200000"/>
   <line x1="949.615356" y1="1220.920654" x2="949.615356" y2="1230.591675" style="stroke: green; stroke-width: 0.200000"/>
   <line x1="948.615234" y1="1220.920654" x2="948.615234" y2="1230.069092" style="stroke: green; stroke-width: 0.200000"/>
   <line x1="947.615295" y1="1220.920654" x2="947.615295" y2="1229.571899" style="stroke: green; stroke-width: 0.200000"/>
   <line x1="946.615295" y1="1220.920654" x2="946.615295" y2="1229.100708" style="stroke: green; stroke-width: 0.200000"/>
   <line x1="945.615295" y1="1220.920654" x2="945.615295" y2="1228.629272" style="stroke: green; stroke-width: 0.200000"/>
   <line x1="944.615356" y1="1220.920654" x2="944.615356" y2="1228.157837" style="stroke: green; stroke-width: 0.200000"/>
   <line x1="943.615234" y1="1220.920654" x2="943.615234" y2="1227.685425" style="stroke: green; stroke-width: 0.200000"/>
   <line x1="942.615295" y1="1220.920654" x2="942.615295" y2="1227.164185" style="stroke: green; stroke-width: 0.200000"/>
   <line x1="941.615295" y1="1220.920654" x2="941.615295" y2="1226.642822" style="stroke: green; stroke-width: 0.200000"/>
   <line x1="940.615295" y1="1220.920654" x2="940.615295" y2="1226.121460" style="stroke: green; stroke-width: 0.200000"/>
   <line x1="939.615356" y1="1220.920654" x2="939.615356" y2="1225.600098" style="stroke: green; stroke-width: 0.200000"/>
   <line x1="938.615234" y1="1220.920654" x2="938.615234" y2="1225.078735" style="stroke: green; stroke-width: 0.200000"/>
   <line x1="937.615295" y1="1220.920654" x2="937.615295" y2="1224.557373" style="stroke: green; stroke-width: 0.200000"/>
   <line x1="936.615295" y1="1220.920654" x2="936.615295" y2="1224.036133" style="stroke: green; stroke-width: 0.200000"/>
   <line x1="935.615295" y1="1220.920654" x2="935.615295" y2="1223.442139" style="stroke: green; stroke-width: 0.200000"/>
   <line x1="934.615356" y1="1220.920654" x2="934.615356" y2="1222.752563" style="stroke: green; stroke-width: 0.200000"/>
   <line x1="933.615234" y1="1220.920654" x2="933.615234" y2="1222.052490" style="stroke: green; stroke-width: 0.200000"/>
   <line x1="932.615295" y1="1220.920654" x2="932.615295" y2="1221.352661" style="stroke: green; stroke-width: 0.200000"/>
   <line x1="999.615356" y1="1225.124268" x2="999.615356" y2="1245.380615" style="stroke: green; stroke-width: 0.200000"/>
   <line x1="998.615234" y1="1224.683350" x2="998.615234" y2="1245.027588" style="stroke: green; stroke-width: 0.200000"/>
   <line x1="997.615295" y1="1224.242676" x2="997.615295" y2="1244.676758" style="stroke: green; stroke-width: 0.200000"/>
   <line x1="996.615295" y1="1223.802002" x2="996.615295" y2="1244.332520" style="stroke: green; stroke-width: 0.200000"/>
   <line x1="995.615295" y1="1223.361084" x2="995.615295" y2="1243.988281" style="stroke: green; stroke-width: 0.200000"/>
   <line x1="994.615356" y1="1222.920288" x2="994.615356" y2="1243.643921" style="stroke: green; stroke-width: 0.200000"/>
   <line x1="993.615234" y1="1222.454956" x2="993.615234" y2="1243.299683" style="stroke: green; stroke-width: 0.200000"/>
   <line x1="992.615295" y1="1221.916992" x2="992.615295" y2="1242.955322" style="stroke: green; stroke-width: 0.200000"/>
   <line x1="991.615295" y1="1221.379272" x2="991.615295" y2="1242.611084" style="stroke: green; stroke-width: 0.200000"/>
   <line x1="990.615295" y1="1220.920654" x2="990.615295" y2="1242.266724" style="stroke: green; stroke-width: 0.200000"/>
   <line x1="989.615356" y1="1220.920654" x2="989.615356" y2="1241.922485" style="stroke: green; stroke-width: 0.200000"/>
   <line x1="988.615234" y1="1220.920654" x2="988.615234" y2="1241.666016" style="stroke: green; stroke-width: 0.200000"/>
   <line x1="987.615295" y1="1220.920654" x2="987.615295" y2="1241.388184" style="stroke: green; stroke-width: 0.200000"/>
   <line x1="986.615295" y1="1220.920654" x2="986.615295" y2="1241.095093" style="stroke: green; stroke-width: 0.200000"/>
   <line x1="985.615295" y1="1220.920654" x2="985.615295" y2="1240.801758" style="stroke: green; stroke-width: 0.200000"/>
   <line x1="984.615356" y1="1220.920654" x2="984.615356" y2="1240.508545" style="stroke: green; stroke-width: 0.200000"/>
   <line x1="983.615234" y1="1220.920654" x2="983.615234" y2="1240.215332" style="stroke: green; stroke-width: 0.200000"/>
   <line x1="982.615295" y1="1220.920654" x2="982.615295" y2="1239.922119" style="stroke: green; stroke-width: 0.200000"/>
   <line x1="981.615295" y1="1220.920654" x2="981.615295" y2="1239.628906" style="stroke: green; stroke-width: 0.200000"/>
   <line x1="980.615295" y1="1220.920654" x2="980.615295" y2="1239.335693" style="stroke: green; stroke-width: 0.200000"/>
   <line x1="979.615356" y1="1220.920654" x2="979.615356" y2="1239.068848" style="stroke: green; stroke-width: 0.200000"/>
   <line x1="978.615234" y1="1220.920654" x2="978.615234" y2="1238.831909" style="stroke: green; stroke-width: 0.200000"/>
   <line x1="977.615295" y1="1220.920654" x2="977.615295" y2="1238.594849" style="stroke: green; stroke-width: 0.200000"/>
   <line x1="976.615295" y1="1220.920654" x2="976.615295" y2="1238.359497" style="stroke: green; stroke-width: 0.200000"/>
   <line x1="975.615295" y1="1220.920654" x2="975.615295" y2="1238.147217" style="stroke: green; stroke-width: 0.200000"/>
   <line x1="974.615356" y1="1220.920654" x2="974.615356" y2="1237.935059" style="stroke: green; stroke-width: 0.200000"/>
   <line x1="973.615234" y1="1220.920654" x2="973.615234" y2="1237.722778" style="stroke: green; stroke-width: 0.200000"/>
   <line x1="972.615295" y1="1220.920654" x2="972.615295" y2="1237.510498" style="stroke: green; stroke-width: 0.200000"/>
   <line x1="971.615295" y1="1220.920654" x2="971.615295" y2="1237.298218" style="stroke: green; stroke-width: 0.200000"/>
   <line x1="970.615295" y1="1220.920654" x2="970.615295" y2="1237.029907" style="stroke: green; stroke-width: 0.200000"/>
   <line x1="969.615356" y1="1220.920654" x2="969.615356" y2="1236.701782" style="stroke: green; stroke-width: 0.200000"/>
   <line x1="968.615234" y1="1220.920654" x2="968.615234" y2="1236.373535" style="stroke: green; stroke-width: 0.200000"/>
   <line x1="967.615295" y1="1220.920654" x2="967.615295" y2="1236.045410" style="stroke: green; stroke-width: 0.200000"/>
   <line x1="966.615295" y1="1220.920654" x2="966.615295" y2="1235.717285" style="stroke: green; stroke-width: 0.200000"/>
   <line x1="965.615295" y1="1220.920654" x2="965.615295" y2="1235.436035" style="stroke: green; stroke-width: 0.200000"/>
   <line x1="964.615356" y1="1220.920654" x2="964.615356" y2="1235.229248" style="stroke: green; stroke-width: 0.200000"/>
   <line x1="963.615234" y1="1220.920654" x2="963.615234" y2="1235.022339" style="stroke: green; stroke-width: 0.200000"/>
   <line x1="962.615295" y1="1220.920654" x2="962.615295" y2="1234.815552" style="stroke: green; stroke-width: 0.200000"/>
   <line x1="961.615295" y1="1220.920654" x2="961.615295" y2="1234.608643" style="stroke: green; stroke-width: 0.200000"/>
   <line x1="960.615295" y1="1220.920654" x2="960.615295" y2="1234.401733" style="stroke: green; stroke-width: 0.200000"/>
   <line x1="959.615356" y1="1220.920654" x2="959.615356" y2="1233.971313" style="stroke: green; stroke-width: 0.200000"/>
   <line x1="958.615234" y1="1220.920654" x2="958.615234" y2="1233.522705" style="stroke: green; stroke-width: 0.200000"/>
   <line x1="957.615295" y1="1220.920654" x2="957.615295" y2="1233.073853" style="stroke: green; stroke-width: 0.200000"/>
   <line x1="956.615295" y1="1220.920654" x2="956.615295" y2="1232.689331" style="stroke: green; stroke-width: 0.200000"/>
   <line x1="955.615295" y1="1220.920654" x2="955.615295" y2="1232.418579" style="stroke: green; stroke-width: 0.200000"/>
   <line x1="954.615356" y1="1220.920654" x2="954.615356" y2="1232.147949" style="stroke: green; stroke-width: 0.200000"/>
   <line x1="953.615234" y1="1220.920654" x2="953.615234" y2="1231.877197" style="stroke: green; stroke-width: 0.200000"/>
   <line x1="952.615295" y1="1220.920654" x2="952.615295" y2="1231.606445" style="stroke: green; stroke-width: 0.200000"/>
   <line x1="951.615295" y1="1220.920654" x2="951.615295" y2="1231.335693" style="stroke: green; stroke-width: 0.200000"/>
   <line x1="950.615295" y1="1220.920654" x2="950.615295" y2="1231.064941" style="stroke: green; stroke-width: 0.200000"/>
   <line x1="1001.615295" y1="1226.189453" x2="1001.615295" y2="1246.033569" style="stroke: green; stroke-width: 0.200000"/>
   <line x1="1000.615295" y1="1225.648438" x2="1000.615295" y2="1245.749023" style="stroke: green; stroke-width: 0.200000"/>
   <line x1="1002.615295" y1="1226.730591" x2="1002.615295" y2="1245.614868" style="stroke: green; stroke-width: 0.200000"/>
   <line x1="1003.615234" y1="1227.271606" x2="1003.615234" y2="1245.196045" style="stroke: green; stroke-width: 0.200000"/>
   <line x1="1004.615356" y1="1227.812744" x2="1004.615356" y2="1244.777344" style="stroke: green; stroke-width: 0.200000"/>
   <line x1="1005.615295" y1="1228.353760" x2="1005.615295" y2="1244.358643" style="stroke: green; stroke-width: 0.200000"/>
   <line x1="1006.615295" y1="1228.894775" x2="1006.615295" y2="1243.940063" style="stroke: green; stroke-width: 0.200000"/>
   <line x1="1007.615295" y1="1229.435913" x2="1007.615295" y2="1243.521484" style="stroke: green; stroke-width: 0.200000"/>
   <line x1="1008.615234" y1="1230.153564" x2="1008.615234" y2="1243.102783" style="stroke: green; stroke-width: 0.200000"/>
   <line x1="1009.615356" y1="1230.881714" x2="1009.615356" y2="1242.684204" style="stroke: green; stroke-width: 0.200000"/>
   <line x1="1010.615295" y1="1231.609863" x2="1010.615295" y2="1242.265503" style="stroke: green; stroke-width: 0.200000"/>
   <line x1="1011.615295" y1="1232.337891" x2="1011.615295" y2="1241.846802" style="stroke: green; stroke-width: 0.200000"/>
   <line x1="1012.615295" y1="1233.065918" x2="1012.615295" y2="1241.427979" style="stroke: green; stroke-width: 0.200000"/>
   <line x1="1013.615234" y1="1233.794067" x2="1013.615234" y2="1241.009155" style="stroke: green; stroke-width: 0.200000"/>
   <line x1="1014.615356" y1="1234.471436" x2="1014.615356" y2="1240.590576" style="stroke: green; stroke-width: 0.200000"/>
   <line x1="1015.615295" y1="1235.137573" x2="1015.615295" y2="1240.171631" style="stroke: green; stroke-width: 0.200000"/>
   <line x1="1016.615295" y1="1236.346924" x2="1016.615295" y2="1239.752930" style="stroke: green; stroke-width: 0.200000"/>
   <line x1="1017.615295" y1="1238.164185" x2="1017.615295" y2="1239.333984" style="stroke: green; stroke-width: 0.200000"/>
   <line x1="1016.697754" y1="1239.718506" x2="1016.697754" y2="1251.609619" style="stroke: green; stroke-width: 0.200000"/>
   <line x1="1017.697754" y1="1239.299561" x2="1017.697754" y2="1251.296875" style="stroke: green; stroke-width: 0.200000"/>
   <line x1="1015.697754" y1="1240.137207" x2="1015.697754" y2="1251.278320" style="stroke: green; stroke-width: 0.200000"/>
   <line x1="1014.697754" y1="1240.556152" x2="1014.697754" y2="1250.947144" style="stroke: green; stroke-width: 0.200000"/>
   <line x1="1013.697754" y1="1240.974731" x2="1013.697754" y2="1250.615967" style="stroke: green; stroke-width: 0.200000"/>
   <line x1="1012.697754" y1="1241.393555" x2="1012.697754" y2="1250.284668" style="stroke: green; stroke-width: 0.200000"/>
   <line x1="1018.697754" y1="1240.129761" x2="1018.697754" y2="1249.994873" style="stroke: green; stroke-width: 0.200000"/>
   <line x1="1011.697754" y1="1241.812256" x2="1011.697754" y2="1249.953491" style="stroke: green; stroke-width: 0.200000"/>
   <line x1="1010.697754" y1="1242.231079" x2="1010.697754" y2="1249.622192" style="stroke: green; stroke-width: 0.200000"/>
   <line x1="1009.697754" y1="1242.649780" x2="1009.697754" y2="1249.304688" style="stroke: green; stroke-width: 0.200000"/>
   <line x1="1008.697754" y1="1243.068359" x2="1008.697754" y2="1248.987305" style="stroke: green; stroke-width: 0.200000"/>
   <line x1="1007.697754" y1="1243.487061" x2="1007.697754" y2="1248.669922" style="stroke: green; stroke-width: 0.200000"/>
   <line x1="1006.697754" y1="1243.905640" x2="1006.697754" y2="1248.326904" style="stroke: green; stroke-width: 0.200000"/>
   <line x1="1005.697754" y1="1244.324219" x2="1005.697754" y2="1247.903076" style="stroke: green; stroke-width: 0.200000"/>
   <line x1="1004.697754" y1="1244.742920" x2="1004.697754" y2="1247.479248" style="stroke: green; stroke-width: 0.200000"/>
   <line x1="1003.697754" y1="1245.161621" x2="1003.697754" y2="1247.055420" style="stroke: green; stroke-width: 0.200000"/>
   <line x1="1002.697754" y1="1245.580444" x2="1002.697754" y2="1246.631592" style="stroke: green; stroke-width: 0.200000"/>
   <line x1="1019.697754" y1="1241.945679" x2="1019.697754" y2="1246.483032" style="stroke: green; stroke-width: 0.200000"/>
   <line x1="1001.697754" y1="1245.999146" x2="1001.697754" y2="1246.207764" style="stroke: green; stroke-width: 0.200000"/>
   <line x1="1017.889404" y1="1239.218872" x2="1017.889404" y2="1239.219482" style="stroke: green; stroke-width: 0.200000"/>
   <path d="M 791.974  1297.17  793.821  1290.69  794.656  1284.96  796.816  1280.41  799.991  1271.44  800.911  1270.23  806.573  1261.56  807.496  1261.06  815.272  1255.53  821.697  1257.37  825.481  1259.49  828.395  1263.88  830.526  1268.53  832.244  1272.14  833.794  1275.92  835.236  1281.19  837.431  1288.25  839.197  1296.35  839.849  1299.95  841.181  1305.49  842.248  1310.91  843.738  1316.29  844.797  1322.89  845.443  1326.01  846.276  1329.42  846.717  1336.23  848.152  1345.05  848.222  1346.91  848.581  1349.88  849.436  1356.41  850.096  1362.49  850.371  1367  850.175  1370.78  849.897  1377.62  842.132  1377.64  838.73  1377.76  835.799  1374.69  832.197  1370.85  830.773  1367.9  827.766  1361.3  824.303  1353.48  823.822  1352.26  822.975  1350.37  818.856  1342.62  815.249  1334.91  813.758  1331.67  811.802  1328.39  " style="fill: none; stroke: darkmagenta; stroke-width: 0.200000; fill-type: evenodd"  fill-opacity="1.000000" />
   <path d="M 811.802  1328.39  809.582  1324.68  806.524  1320.86  803.99  1317.13  800.835  1313.49  797.732  1309.99  795.44  1305  792.945  1300.52  791.788  1297.83  791.974  1297.17  " style="fill: none; stroke: red; stroke-width: 0.200000; fill-type: evenodd"  fill-opacity="1.000000" />
   <path d="M 821.31  1258.3  824.782  1260.24  827.519  1264.37  829.62  1268.95  831.329  1272.54  832.845  1276.24  834.276  1281.47  836.463  1288.5  838.216  1296.55  838.871  1300.16  840.204  1305.7  841.274  1311.14  842.759  1316.5  843.813  1323.08  844.467  1326.23  845.284  1329.57  845.722  1336.34  847.155  1345.15  847.224  1346.99  847.589  1350  848.443  1356.53  849.099  1362.58  849.369  1367.01  849.176  1370.74  848.937  1376.62  842.113  1376.64  839.143  1376.75  836.526  1374.01  833.031  1370.28  831.679  1367.47  828.678  1360.89  825.226  1353.09  824.744  1351.87  823.873  1349.93  819.751  1342.17  816.156  1334.49  814.644  1331.2  810.406  1324.11  807.329  1320.26  804.784  1316.52  801.587  1312.83  798.579  1309.44  796.332  1304.55  793.844  1300.07  792.848  1297.76  794.801  1290.9  795.624  1285.25  797.742  1280.79  800.881  1271.92  801.728  1270.81  807.27  1262.32  808.023  1261.92  815.459  1256.62  821.31  1258.3  " style="fill: none; stroke: black; stroke-width: 0.200000; fill-type: evenodd"  fill-opacity="1.000000" />
   <path d="M 976.772  1239.94  976.359  1239.84  970.709  1238.64  965.616  1236.97  960.075  1235.82  956.47  1234.2  949.869  1232.42  947.446  1231.15  942.968  1229.04  935.723  1225.26  934.682  1224.63  927.398  1219.53  921.501  1215.12  919.782  1213.68  917.461  1211.62  912.547  1207.49  907.447  1202.35  905.32  1200.01  904.506  1198.29  898.143  1189.03  898.259  1187.74  898.685  1178.82  904.48  1172.41  905.697  1171.23  915.671  1169.75  918.071  1169.28  925.988  1171.45  926.481  1171.62  933.562  1177.45  938.184  1182.49  940.782  1185.57  945.28  1191  950.357  1196.09  951.599  1197.64  954.409  1200.07  959.557  1202.88  964.681  1206.25  967.024  1207.53  968.312  1208.48  974.87  1211.48  980.608  1214.65  983.621  1215.96  987.705  1217.98  992.123  1219.95  994.527  1221.24  1000.44  1223.85  1008.47  1228.2  1014.65  1232.7  1016.75  1234.09  1017.53  1234.89  1022.16  1243.31  1020.38  1249.56  " style="fill: none; stroke: darkmagenta; stroke-width: 0.200000; fill-type: evenodd"  fill-opacity="1.000000" />
   <path d="M 1020.38  1249.56  1019.66  1252.1  1016.9  1253.26  1010.22  1251.05  1006.42  1249.84  999.854  1247.06  997.381  1246.18  989.057  1243.32  987.922  1243.04  979.702  1240.63  976.772  1239.94  " style="fill: none; stroke: red; stroke-width: 0.200000; fill-type: evenodd"  fill-opacity="1.000000" />
   <path d="M 1015.32  1251.68  1010.53  1250.09  1006.76  1248.9  1000.22  1246.12  997.71  1245.24  989.338  1242.36  988.181  1242.07  979.958  1239.66  976.578  1238.86  970.97  1237.67  965.874  1236  960.385  1234.86  956.807  1233.26  950.236  1231.48  947.891  1230.25  943.413  1228.14  936.214  1224.39  935.229  1223.79  927.984  1218.72  922.122  1214.33  920.434  1212.92  918.114  1210.87  913.225  1206.75  908.172  1201.66  906.16  1199.45  905.375  1197.79  899.171  1188.76  899.257  1187.81  899.667  1179.22  905.199  1173.1  906.161  1172.17  915.841  1170.74  918.033  1170.31  925.687  1172.4  925.979  1172.51  932.872  1178.18  937.433  1183.15  940.015  1186.22  944.539  1191.67  949.61  1196.75  950.875  1198.34  953.836  1200.9  959.042  1203.74  964.166  1207.11  966.486  1208.38  967.802  1209.34  974.419  1212.38  980.166  1215.55  983.2  1216.87  987.279  1218.88  991.682  1220.85  994.088  1222.14  1000  1224.75  1007.94  1229.04  1014.08  1233.52  1016.11  1234.87  1016.71  1235.49  1021.09  1243.43  1019.2  1250.05  " style="fill: none; stroke: black; stroke-width: 0.200000; fill-type: evenodd"  fill-opacity="1.000000" />
   <path d="M 1019.2  1250.05  1018.83  1251.37  1016.86  1252.19  1015.32  1251.68  " style="fill: none; stroke: red; stroke-width: 0.200000; fill-type: evenodd"  fill-opacity="1.000000" />
</svg>
