<?xml version="1.0" encoding="UTF-8" standalone="yes"?>
<!DOCTYPE svg PUBLIC "-//W3C//DTD SVG 1.0//EN" "http://www.w3.org/TR/2001/REC-SVG-20010904/DTD/svg10.dtd">
<svg height="2000" width="2000" xmlns="http://www.w3.org/2000/svg" xmlns:svg="http://www.w3.org/2000/svg" xmlns:xlink="http://www.w3.org/1999/xlink">
   <marker id="endArrow" markerHeight="8" markerUnits="strokeWidth" markerWidth="10" orient="auto" refX="1" refY="5" viewBox="0 0 1000 1000">
      <polyline fill="darkblue" points="0,0 10,5 0,10 1,5" />
   </marker>
   <circle cx="1000" cy="1000" r="1" style="stroke:black; fill: red" />
   <circle cx="1000" cy="1000" r="800" style="stroke:black; fill: none" />
   <line x1="833.079468" y1="1346.950562" x2="833.079468" y2="1374.765503" style="stroke: green; stroke-width: 0.200000"/>
   <line x1="834.079468" y1="1348.344604" x2="834.079468" y2="1374.765503" style="stroke: green; stroke-width: 0.200000"/>
   <line x1="835.079468" y1="1350.147217" x2="835.079468" y2="1374.765503" style="stroke: green; stroke-width: 0.200000"/>
   <line x1="836.079468" y1="1352.035034" x2="836.079468" y2="1374.765503" style="stroke: green; stroke-width: 0.200000"/>
   <line x1="837.079468" y1="1353.922729" x2="837.079468" y2="1374.765503" style="stroke: green; stroke-width: 0.200000"/>
   <line x1="838.079468" y1="1355.810547" x2="838.079468" y2="1374.765503" style="stroke: green; stroke-width: 0.200000"/>
   <line x1="839.079468" y1="1357.698364" x2="839.079468" y2="1374.765503" style="stroke: green; stroke-width: 0.200000"/>
   <line x1="840.079468" y1="1359.586182" x2="840.079468" y2="1374.765503" style="stroke: green; stroke-width: 0.200000"/>
   <line x1="841.079468" y1="1362.084839" x2="841.079468" y2="1374.765503" style="stroke: green; stroke-width: 0.200000"/>
   <line x1="842.079468" y1="1364.704346" x2="842.079468" y2="1374.765503" style="stroke: green; stroke-width: 0.200000"/>
   <line x1="843.079468" y1="1367.453735" x2="843.079468" y2="1374.765503" style="stroke: green; stroke-width: 0.200000"/>
   <line x1="844.079468" y1="1370.306519" x2="844.079468" y2="1374.030884" style="stroke: green; stroke-width: 0.200000"/>
   <line x1="832.079468" y1="1345.449097" x2="832.079468" y2="1373.990234" style="stroke: green; stroke-width: 0.200000"/>
   <line x1="831.079468" y1="1343.947754" x2="831.079468" y2="1372.853394" style="stroke: green; stroke-width: 0.200000"/>
   <line x1="830.079468" y1="1342.446411" x2="830.079468" y2="1371.716553" style="stroke: green; stroke-width: 0.200000"/>
   <line x1="829.079468" y1="1340.945068" x2="829.079468" y2="1370.579834" style="stroke: green; stroke-width: 0.200000"/>
   <line x1="828.079468" y1="1339.443848" x2="828.079468" y2="1369.443115" style="stroke: green; stroke-width: 0.200000"/>
   <line x1="827.079468" y1="1337.942505" x2="827.079468" y2="1368.417236" style="stroke: green; stroke-width: 0.200000"/>
   <line x1="826.079468" y1="1336.851074" x2="826.079468" y2="1367.419678" style="stroke: green; stroke-width: 0.200000"/>
   <line x1="825.079468" y1="1335.796387" x2="825.079468" y2="1366.455811" style="stroke: green; stroke-width: 0.200000"/>
   <line x1="824.079468" y1="1334.741821" x2="824.079468" y2="1365.491821" style="stroke: green; stroke-width: 0.200000"/>
   <line x1="823.079468" y1="1333.687134" x2="823.079468" y2="1364.375122" style="stroke: green; stroke-width: 0.200000"/>
   <line x1="822.079468" y1="1332.632446" x2="822.079468" y2="1363.249390" style="stroke: green; stroke-width: 0.200000"/>
   <line x1="821.079468" y1="1331.577759" x2="821.079468" y2="1362.123535" style="stroke: green; stroke-width: 0.200000"/>
   <line x1="820.079468" y1="1330.454834" x2="820.079468" y2="1361.084106" style="stroke: green; stroke-width: 0.200000"/>
   <line x1="819.079468" y1="1329.278320" x2="819.079468" y2="1360.094482" style="stroke: green; stroke-width: 0.200000"/>
   <line x1="818.079468" y1="1328.204590" x2="818.079468" y2="1359.104736" style="stroke: green; stroke-width: 0.200000"/>
   <line x1="817.079468" y1="1327.818359" x2="817.079468" y2="1358.115112" style="stroke: green; stroke-width: 0.200000"/>
   <line x1="816.079468" y1="1327.431885" x2="816.079468" y2="1357.125366" style="stroke: green; stroke-width: 0.200000"/>
   <line x1="815.079468" y1="1327.045654" x2="815.079468" y2="1356.135742" style="stroke: green; stroke-width: 0.200000"/>
   <line x1="814.079468" y1="1326.659180" x2="814.079468" y2="1355.145996" style="stroke: green; stroke-width: 0.200000"/>
   <line x1="813.079468" y1="1326.272949" x2="813.079468" y2="1354.166382" style="stroke: green; stroke-width: 0.200000"/>
   <line x1="812.079468" y1="1325.886475" x2="812.079468" y2="1353.226807" style="stroke: green; stroke-width: 0.200000"/>
   <line x1="811.079468" y1="1325.500488" x2="811.079468" y2="1352.287354" style="stroke: green; stroke-width: 0.200000"/>
   <line x1="810.079468" y1="1325.130737" x2="810.079468" y2="1351.347778" style="stroke: green; stroke-width: 0.200000"/>
   <line x1="809.079468" y1="1324.771118" x2="809.079468" y2="1350.407837" style="stroke: green; stroke-width: 0.200000"/>
   <line x1="808.079468" y1="1325.236084" x2="808.079468" y2="1349.468262" style="stroke: green; stroke-width: 0.200000"/>
   <line x1="807.079468" y1="1325.690186" x2="807.079468" y2="1348.528564" style="stroke: green; stroke-width: 0.200000"/>
   <line x1="806.079468" y1="1326.137817" x2="806.079468" y2="1347.588867" style="stroke: green; stroke-width: 0.200000"/>
   <line x1="805.079468" y1="1326.585449" x2="805.079468" y2="1345.543945" style="stroke: green; stroke-width: 0.200000"/>
   <line x1="804.079468" y1="1327.032959" x2="804.079468" y2="1344.213745" style="stroke: green; stroke-width: 0.200000"/>
   <line x1="803.079468" y1="1327.480469" x2="803.079468" y2="1342.938354" style="stroke: green; stroke-width: 0.200000"/>
   <line x1="802.079468" y1="1327.927979" x2="802.079468" y2="1341.663208" style="stroke: green; stroke-width: 0.200000"/>
   <line x1="801.079468" y1="1328.375488" x2="801.079468" y2="1340.387939" style="stroke: green; stroke-width: 0.200000"/>
   <line x1="839.079468" y1="1374.865601" x2="839.079468" y2="1378.002808" style="stroke: green; stroke-width: 0.200000"/>
   <line x1="840.079468" y1="1374.865601" x2="840.079468" y2="1377.776367" style="stroke: green; stroke-width: 0.200000"/>
   <line x1="838.079468" y1="1374.865601" x2="838.079468" y2="1377.727661" style="stroke: green; stroke-width: 0.200000"/>
   <line x1="837.079468" y1="1374.865601" x2="837.079468" y2="1377.452637" style="stroke: green; stroke-width: 0.200000"/>
   <line x1="836.079468" y1="1374.865601" x2="836.079468" y2="1377.072998" style="stroke: green; stroke-width: 0.200000"/>
   <line x1="841.079468" y1="1374.865601" x2="841.079468" y2="1376.839844" style="stroke: green; stroke-width: 0.200000"/>
   <line x1="835.079468" y1="1374.865601" x2="835.079468" y2="1376.308838" style="stroke: green; stroke-width: 0.200000"/>
   <line x1="842.079468" y1="1374.865601" x2="842.079468" y2="1375.903564" style="stroke: green; stroke-width: 0.200000"/>
   <line x1="834.079468" y1="1374.865601" x2="834.079468" y2="1375.545044" style="stroke: green; stroke-width: 0.200000"/>
   <line x1="843.079468" y1="1374.865601" x2="843.079468" y2="1374.967285" style="stroke: green; stroke-width: 0.200000"/>
   <line x1="971.002441" y1="1214.942383" x2="971.002441" y2="1241.453613" style="stroke: green; stroke-width: 0.200000"/>
   <line x1="972.002441" y1="1215.997070" x2="972.002441" y2="1241.453613" style="stroke: green; stroke-width: 0.200000"/>
   <line x1="973.002380" y1="1216.959961" x2="973.002380" y2="1241.453613" style="stroke: green; stroke-width: 0.200000"/>
   <line x1="974.002380" y1="1217.979614" x2="974.002380" y2="1241.453613" style="stroke: green; stroke-width: 0.200000"/>
   <line x1="975.002380" y1="1219.008545" x2="975.002380" y2="1241.453613" style="stroke: green; stroke-width: 0.200000"/>
   <line x1="976.002441" y1="1220.037354" x2="976.002441" y2="1241.453613" style="stroke: green; stroke-width: 0.200000"/>
   <line x1="977.002441" y1="1221.066162" x2="977.002441" y2="1241.453613" style="stroke: green; stroke-width: 0.200000"/>
   <line x1="978.002380" y1="1222.094971" x2="978.002380" y2="1241.453613" style="stroke: green; stroke-width: 0.200000"/>
   <line x1="979.002380" y1="1223.123657" x2="979.002380" y2="1241.453613" style="stroke: green; stroke-width: 0.200000"/>
   <line x1="980.002380" y1="1224.152588" x2="980.002380" y2="1241.453613" style="stroke: green; stroke-width: 0.200000"/>
   <line x1="981.002441" y1="1224.912476" x2="981.002441" y2="1241.453613" style="stroke: green; stroke-width: 0.200000"/>
   <line x1="982.002441" y1="1225.624146" x2="982.002441" y2="1241.453613" style="stroke: green; stroke-width: 0.200000"/>
   <line x1="983.002380" y1="1226.482666" x2="983.002380" y2="1241.453613" style="stroke: green; stroke-width: 0.200000"/>
   <line x1="984.002380" y1="1227.341187" x2="984.002380" y2="1241.453613" style="stroke: green; stroke-width: 0.200000"/>
   <line x1="985.002380" y1="1228.199707" x2="985.002380" y2="1241.453613" style="stroke: green; stroke-width: 0.200000"/>
   <line x1="986.002441" y1="1229.039062" x2="986.002441" y2="1241.453613" style="stroke: green; stroke-width: 0.200000"/>
   <line x1="987.002441" y1="1229.862305" x2="987.002441" y2="1241.453613" style="stroke: green; stroke-width: 0.200000"/>
   <line x1="970.002380" y1="1213.690063" x2="970.002380" y2="1241.164551" style="stroke: green; stroke-width: 0.200000"/>
   <line x1="969.002380" y1="1212.437622" x2="969.002380" y2="1240.332031" style="stroke: green; stroke-width: 0.200000"/>
   <line x1="968.002380" y1="1211.185913" x2="968.002380" y2="1239.499634" style="stroke: green; stroke-width: 0.200000"/>
   <line x1="967.002441" y1="1209.933716" x2="967.002441" y2="1238.667114" style="stroke: green; stroke-width: 0.200000"/>
   <line x1="966.002441" y1="1208.681396" x2="966.002441" y2="1237.986938" style="stroke: green; stroke-width: 0.200000"/>
   <line x1="965.002380" y1="1207.416748" x2="965.002380" y2="1237.314331" style="stroke: green; stroke-width: 0.200000"/>
   <line x1="964.002380" y1="1206.150024" x2="964.002380" y2="1236.641846" style="stroke: green; stroke-width: 0.200000"/>
   <line x1="963.002380" y1="1205.033081" x2="963.002380" y2="1235.969360" style="stroke: green; stroke-width: 0.200000"/>
   <line x1="962.002441" y1="1203.947754" x2="962.002441" y2="1235.086914" style="stroke: green; stroke-width: 0.200000"/>
   <line x1="961.002441" y1="1202.862061" x2="961.002441" y2="1234.028442" style="stroke: green; stroke-width: 0.200000"/>
   <line x1="960.002380" y1="1201.776367" x2="960.002380" y2="1232.969849" style="stroke: green; stroke-width: 0.200000"/>
   <line x1="959.002380" y1="1200.676147" x2="959.002380" y2="1231.911377" style="stroke: green; stroke-width: 0.200000"/>
   <line x1="958.002380" y1="1199.465820" x2="958.002380" y2="1231.120117" style="stroke: green; stroke-width: 0.200000"/>
   <line x1="957.002441" y1="1198.255493" x2="957.002441" y2="1230.354370" style="stroke: green; stroke-width: 0.200000"/>
   <line x1="956.002441" y1="1197.045166" x2="956.002441" y2="1229.588745" style="stroke: green; stroke-width: 0.200000"/>
   <line x1="955.002380" y1="1196.295532" x2="955.002380" y2="1228.823120" style="stroke: green; stroke-width: 0.200000"/>
   <line x1="954.002380" y1="1195.731445" x2="954.002380" y2="1228.057373" style="stroke: green; stroke-width: 0.200000"/>
   <line x1="953.002380" y1="1195.167480" x2="953.002380" y2="1227.291504" style="stroke: green; stroke-width: 0.200000"/>
   <line x1="952.002441" y1="1194.603516" x2="952.002441" y2="1225.840576" style="stroke: green; stroke-width: 0.200000"/>
   <line x1="951.002441" y1="1194.039429" x2="951.002441" y2="1224.655518" style="stroke: green; stroke-width: 0.200000"/>
   <line x1="950.002380" y1="1193.475464" x2="950.002380" y2="1223.538330" style="stroke: green; stroke-width: 0.200000"/>
   <line x1="949.002380" y1="1192.888306" x2="949.002380" y2="1222.421021" style="stroke: green; stroke-width: 0.200000"/>
   <line x1="948.002380" y1="1192.184814" x2="948.002380" y2="1221.299072" style="stroke: green; stroke-width: 0.200000"/>
   <line x1="947.002441" y1="1191.680298" x2="947.002441" y2="1220.123779" style="stroke: green; stroke-width: 0.200000"/>
   <line x1="946.002441" y1="1191.682007" x2="946.002441" y2="1218.948486" style="stroke: green; stroke-width: 0.200000"/>
   <line x1="945.002380" y1="1192.314819" x2="945.002380" y2="1217.781006" style="stroke: green; stroke-width: 0.200000"/>
   <line x1="944.002380" y1="1192.947754" x2="944.002380" y2="1216.744263" style="stroke: green; stroke-width: 0.200000"/>
   <line x1="943.002380" y1="1193.580688" x2="943.002380" y2="1215.397461" style="stroke: green; stroke-width: 0.200000"/>
   <line x1="942.002441" y1="1194.213623" x2="942.002441" y2="1213.230347" style="stroke: green; stroke-width: 0.200000"/>
   <line x1="941.002441" y1="1194.846436" x2="941.002441" y2="1211.063354" style="stroke: green; stroke-width: 0.200000"/>
   <line x1="940.002380" y1="1195.493164" x2="940.002380" y2="1209.060547" style="stroke: green; stroke-width: 0.200000"/>
   <line x1="939.002380" y1="1196.184204" x2="939.002380" y2="1207.214233" style="stroke: green; stroke-width: 0.200000"/>
   <line x1="938.002380" y1="1202.822388" x2="938.002380" y2="1205.368042" style="stroke: green; stroke-width: 0.200000"/>
   <line x1="989.002380" y1="1231.508911" x2="989.002380" y2="1241.453613" style="stroke: green; stroke-width: 0.200000"/>
   <line x1="990.002380" y1="1232.490479" x2="990.002380" y2="1241.453613" style="stroke: green; stroke-width: 0.200000"/>
   <line x1="991.002441" y1="1233.487183" x2="991.002441" y2="1241.453613" style="stroke: green; stroke-width: 0.200000"/>
   <line x1="992.002441" y1="1234.321533" x2="992.002441" y2="1241.453613" style="stroke: green; stroke-width: 0.200000"/>
   <line x1="993.002380" y1="1235.098145" x2="993.002380" y2="1241.453613" style="stroke: green; stroke-width: 0.200000"/>
   <line x1="994.002380" y1="1235.874634" x2="994.002380" y2="1241.453613" style="stroke: green; stroke-width: 0.200000"/>
   <line x1="995.002380" y1="1236.651245" x2="995.002380" y2="1241.453613" style="stroke: green; stroke-width: 0.200000"/>
   <line x1="996.002441" y1="1237.427734" x2="996.002441" y2="1241.453613" style="stroke: green; stroke-width: 0.200000"/>
   <line x1="997.002441" y1="1238.232300" x2="997.002441" y2="1241.453613" style="stroke: green; stroke-width: 0.200000"/>
   <line x1="998.002380" y1="1239.056152" x2="998.002380" y2="1241.453613" style="stroke: green; stroke-width: 0.200000"/>
   <line x1="999.002380" y1="1239.879883" x2="999.002380" y2="1241.453613" style="stroke: green; stroke-width: 0.200000"/>
   <line x1="1000.002380" y1="1240.703613" x2="1000.002380" y2="1241.453613" style="stroke: green; stroke-width: 0.200000"/>
   <line x1="987.002441" y1="1241.553589" x2="987.002441" y2="1252.317993" style="stroke: green; stroke-width: 0.200000"/>
   <line x1="986.002441" y1="1241.553589" x2="986.002441" y2="1251.696777" style="stroke: green; stroke-width: 0.200000"/>
   <line x1="985.002380" y1="1241.553589" x2="985.002380" y2="1250.987793" style="stroke: green; stroke-width: 0.200000"/>
   <line x1="984.002380" y1="1241.553589" x2="984.002380" y2="1250.390381" style="stroke: green; stroke-width: 0.200000"/>
   <line x1="983.002380" y1="1241.553589" x2="983.002380" y2="1249.774292" style="stroke: green; stroke-width: 0.200000"/>
   <line x1="982.002441" y1="1241.553589" x2="982.002441" y2="1249.140991" style="stroke: green; stroke-width: 0.200000"/>
   <line x1="981.002441" y1="1241.553589" x2="981.002441" y2="1248.507568" style="stroke: green; stroke-width: 0.200000"/>
   <line x1="980.002380" y1="1241.553589" x2="980.002380" y2="1247.874146" style="stroke: green; stroke-width: 0.200000"/>
   <line x1="979.002380" y1="1241.553589" x2="979.002380" y2="1247.240723" style="stroke: green; stroke-width: 0.200000"/>
   <line x1="978.002380" y1="1241.553589" x2="978.002380" y2="1246.607544" style="stroke: green; stroke-width: 0.200000"/>
   <line x1="977.002441" y1="1241.553589" x2="977.002441" y2="1245.974243" style="stroke: green; stroke-width: 0.200000"/>
   <line x1="976.002441" y1="1241.553589" x2="976.002441" y2="1245.340698" style="stroke: green; stroke-width: 0.200000"/>
   <line x1="975.002380" y1="1241.553589" x2="975.002380" y2="1244.752197" style="stroke: green; stroke-width: 0.200000"/>
   <line x1="974.002380" y1="1241.553589" x2="974.002380" y2="1244.172485" style="stroke: green; stroke-width: 0.200000"/>
   <line x1="973.002380" y1="1241.553589" x2="973.002380" y2="1243.592407" style="stroke: green; stroke-width: 0.200000"/>
   <line x1="972.002441" y1="1241.553589" x2="972.002441" y2="1242.829468" style="stroke: green; stroke-width: 0.200000"/>
   <line x1="971.002441" y1="1241.553589" x2="971.002441" y2="1241.996948" style="stroke: green; stroke-width: 0.200000"/>
   <line x1="1013.002380" y1="1251.389282" x2="1013.002380" y2="1268.848145" style="stroke: green; stroke-width: 0.200000"/>
   <line x1="1014.002380" y1="1252.531128" x2="1014.002380" y2="1268.819214" style="stroke: green; stroke-width: 0.200000"/>
   <line x1="1015.002380" y1="1253.672852" x2="1015.002380" y2="1268.471558" style="stroke: green; stroke-width: 0.200000"/>
   <line x1="1012.002441" y1="1250.247559" x2="1012.002441" y2="1268.211060" style="stroke: green; stroke-width: 0.200000"/>
   <line x1="1016.002441" y1="1254.814575" x2="1016.002441" y2="1268.124023" style="stroke: green; stroke-width: 0.200000"/>
   <line x1="1017.002441" y1="1255.956421" x2="1017.002441" y2="1267.776611" style="stroke: green; stroke-width: 0.200000"/>
   <line x1="1011.002441" y1="1249.390991" x2="1011.002441" y2="1267.573975" style="stroke: green; stroke-width: 0.200000"/>
   <line x1="1018.002380" y1="1257.734863" x2="1018.002380" y2="1267.429077" style="stroke: green; stroke-width: 0.200000"/>
   <line x1="1010.002380" y1="1248.628418" x2="1010.002380" y2="1266.937012" style="stroke: green; stroke-width: 0.200000"/>
   <line x1="1019.002380" y1="1260.243530" x2="1019.002380" y2="1266.816895" style="stroke: green; stroke-width: 0.200000"/>
   <line x1="1009.002380" y1="1247.865967" x2="1009.002380" y2="1266.299927" style="stroke: green; stroke-width: 0.200000"/>
   <line x1="1020.002380" y1="1262.752197" x2="1020.002380" y2="1266.117065" style="stroke: green; stroke-width: 0.200000"/>
   <line x1="1008.002380" y1="1247.103394" x2="1008.002380" y2="1265.663086" style="stroke: green; stroke-width: 0.200000"/>
   <line x1="1021.002441" y1="1265.093384" x2="1021.002441" y2="1265.417236" style="stroke: green; stroke-width: 0.200000"/>
   <line x1="1007.002441" y1="1246.340820" x2="1007.002441" y2="1265.026001" style="stroke: green; stroke-width: 0.200000"/>
   <line x1="1006.002441" y1="1245.578369" x2="1006.002441" y2="1264.389038" style="stroke: green; stroke-width: 0.200000"/>
   <line x1="1005.002380" y1="1244.815796" x2="1005.002380" y2="1263.751343" style="stroke: green; stroke-width: 0.200000"/>
   <line x1="1004.002380" y1="1244.028076" x2="1004.002380" y2="1263.101562" style="stroke: green; stroke-width: 0.200000"/>
   <line x1="1003.002380" y1="1243.174683" x2="1003.002380" y2="1262.451660" style="stroke: green; stroke-width: 0.200000"/>
   <line x1="1002.002441" y1="1242.350952" x2="1002.002441" y2="1261.801880" style="stroke: green; stroke-width: 0.200000"/>
   <line x1="1001.002441" y1="1241.553589" x2="1001.002441" y2="1261.152100" style="stroke: green; stroke-width: 0.200000"/>
   <line x1="1000.002380" y1="1241.553589" x2="1000.002380" y2="1260.502197" style="stroke: green; stroke-width: 0.200000"/>
   <line x1="999.002380" y1="1241.553589" x2="999.002380" y2="1259.852417" style="stroke: green; stroke-width: 0.200000"/>
   <line x1="998.002380" y1="1241.553589" x2="998.002380" y2="1259.202637" style="stroke: green; stroke-width: 0.200000"/>
   <line x1="997.002441" y1="1241.553589" x2="997.002441" y2="1258.552734" style="stroke: green; stroke-width: 0.200000"/>
   <line x1="996.002441" y1="1241.553589" x2="996.002441" y2="1257.902832" style="stroke: green; stroke-width: 0.200000"/>
   <line x1="995.002380" y1="1241.553589" x2="995.002380" y2="1257.277588" style="stroke: green; stroke-width: 0.200000"/>
   <line x1="994.002380" y1="1241.553589" x2="994.002380" y2="1256.666138" style="stroke: green; stroke-width: 0.200000"/>
   <line x1="993.002380" y1="1241.553589" x2="993.002380" y2="1256.045044" style="stroke: green; stroke-width: 0.200000"/>
   <line x1="992.002441" y1="1241.553589" x2="992.002441" y2="1255.423828" style="stroke: green; stroke-width: 0.200000"/>
   <line x1="991.002441" y1="1241.553589" x2="991.002441" y2="1254.802734" style="stroke: green; stroke-width: 0.200000"/>
   <line x1="990.002380" y1="1241.553589" x2="990.002380" y2="1254.181396" style="stroke: green; stroke-width: 0.200000"/>
   <line x1="989.002380" y1="1241.553589" x2="989.002380" y2="1253.560303" style="stroke: green; stroke-width: 0.200000"/>
   <line x1="845.049500" y1="1373.122681" x2="845.049500" y2="1373.123047" style="stroke: green; stroke-width: 0.200000"/>
   <path d="M 808.394  1351.82  804.814  1348.46  803.73  1346.2  799.068  1340.25  799.248  1331.88  798.662  1329.76  799.681  1327.36  807.074  1324.05  809.026  1323.14  811.626  1324.1  819.106  1326.99  821.755  1330.11  828.174  1336.88  834.748  1346.75  835.493  1347.72  841.613  1359.28  843.93  1365.35  846.588  1372.93  846.775  1373.82  845.797  1374.48  840.078  1379.83  835.614  1378.61  831.122  1375.17  826.917  1370.39  825.41  1368.86  822.94  1366.48  819.624  1362.74  813.188  1356.37  " style="fill: none; stroke: darkmagenta; stroke-width: 0.200000; fill-type: evenodd"  fill-opacity="1.000000" />
   <path d="M 813.188  1356.37  812.241  1355.44  808.394  1351.82  " style="fill: none; stroke: red; stroke-width: 0.200000; fill-type: evenodd"  fill-opacity="1.000000" />
   <path d="M 811.272  1325.04  818.508  1327.83  821.011  1330.78  827.389  1337.51  833.934  1347.33  834.648  1348.27  840.701  1359.69  842.991  1365.69  845.677  1373.35  845.174  1373.69  839.803  1378.72  836.067  1377.69  831.808  1374.44  827.65  1369.71  826.114  1368.15  823.662  1365.78  820.35  1362.06  812.935  1354.72  805.635  1347.86  804.584  1345.67  800.075  1339.92  800.251  1331.76  799.719  1329.83  800.448  1328.11  807.489  1324.96  809.069  1324.22  811.272  1325.04  " style="fill: none; stroke: black; stroke-width: 0.200000; fill-type: evenodd"  fill-opacity="1.000000" />
   <path d="M 1013.02  1270.64  1004.24  1265.05  994.797  1258.91  993.456  1258.09  984.863  1252.75  984.315  1252.32  982.735  1251.38  975.064  1246.52  971.865  1244.67  966.053  1239.83  961.571  1236.81  957.908  1232.94  951.897  1228.33  950.619  1226.48  946.955  1222.38  943.948  1218.85  942.021  1216.85  939.173  1210.68  936.471  1205.69  936.536  1199.72  936.778  1195.9  939.411  1194.08  946.177  1189.8  948.268  1190.54  949.97  1191.74  956.694  1195.53  960.248  1199.83  964.972  1204.96  967.036  1207.57  972.43  1214.33  974.198  1216.03  981.155  1223.19  982.864  1224.39  986.424  1227.44  990.098  1230.47  992.258  1232.62  997.345  1236.57  1004.19  1242.21  1004.8  1242.72  1005.11  1243.02  1012.78  1248.86  1018.83  1255.77  1021.91  1263.48  1023  1265.85  1019.27  1268.46  " style="fill: none; stroke: darkmagenta; stroke-width: 0.200000; fill-type: evenodd"  fill-opacity="1.000000" />
   <path d="M 1019.27  1268.46  1018.94  1268.69  1013.13  1270.71  1013.02  1270.64  " style="fill: none; stroke: red; stroke-width: 0.200000; fill-type: evenodd"  fill-opacity="1.000000" />
   <path d="M 947.804  1191.43  949.435  1192.58  956.042  1196.31  959.495  1200.49  964.21  1205.61  966.253  1208.19  971.689  1215  973.493  1216.74  980.504  1223.95  982.249  1225.18  985.78  1228.21  989.426  1231.21  991.596  1233.37  996.72  1237.35  1003.55  1242.98  1004.14  1243.47  1004.47  1243.78  1012.1  1249.6  1017.97  1256.3  1020.99  1263.87  1021.75  1265.51  1018.48  1267.79  1013.26  1269.61  1004.78  1264.2  995.33  1258.06  993.98  1257.24  985.437  1251.93  984.882  1251.5  983.259  1250.53  975.583  1245.67  972.44  1243.84  966.654  1239.03  962.221  1236.05  958.58  1232.19  952.631  1227.64  951.407  1225.86  947.708  1221.72  944.689  1218.18  942.858  1216.28  940.068  1210.23  937.474  1205.44  937.536  1199.76  937.745  1196.45  939.963  1194.91  946.301  1190.9  947.804  1191.43  " style="fill: none; stroke: black; stroke-width: 0.200000; fill-type: evenodd"  fill-opacity="1.000000" />
</svg>
