<?xml version="1.0" encoding="UTF-8" standalone="yes"?>
<!DOCTYPE svg PUBLIC "-//W3C//DTD SVG 1.0//EN" "http://www.w3.org/TR/2001/REC-SVG-20010904/DTD/svg10.dtd">
<svg height="2000" width="2000" xmlns="http://www.w3.org/2000/svg" xmlns:svg="http://www.w3.org/2000/svg" xmlns:xlink="http://www.w3.org/1999/xlink">
   <marker id="endArrow" markerHeight="8" markerUnits="strokeWidth" markerWidth="10" orient="auto" refX="1" refY="5" viewBox="0 0 1000 1000">
      <polyline fill="darkblue" points="0,0 10,5 0,10 1,5" />
   </marker>
   <circle cx="1000" cy="1000" r="1" style="stroke:black; fill: red" />
   <circle cx="1000" cy="1000" r="800" style="stroke:black; fill: none" />
   <line x1="816.323914" y1="1300.714233" x2="816.323914" y2="1347.565796" style="stroke: green; stroke-width: 0.200000"/>
   <line x1="817.323914" y1="1301.446289" x2="817.323914" y2="1347.565796" style="stroke: green; stroke-width: 0.200000"/>
   <line x1="818.323914" y1="1302.178223" x2="818.323914" y2="1347.565796" style="stroke: green; stroke-width: 0.200000"/>
   <line x1="819.323853" y1="1302.910156" x2="819.323853" y2="1347.565796" style="stroke: green; stroke-width: 0.200000"/>
   <line x1="820.323975" y1="1304.336426" x2="820.323975" y2="1347.565796" style="stroke: green; stroke-width: 0.200000"/>
   <line x1="821.323914" y1="1305.969116" x2="821.323914" y2="1347.565796" style="stroke: green; stroke-width: 0.200000"/>
   <line x1="822.323914" y1="1307.601562" x2="822.323914" y2="1347.565796" style="stroke: green; stroke-width: 0.200000"/>
   <line x1="823.323914" y1="1309.234375" x2="823.323914" y2="1347.565796" style="stroke: green; stroke-width: 0.200000"/>
   <line x1="824.323853" y1="1310.782593" x2="824.323853" y2="1347.565796" style="stroke: green; stroke-width: 0.200000"/>
   <line x1="825.323975" y1="1312.622192" x2="825.323975" y2="1347.565796" style="stroke: green; stroke-width: 0.200000"/>
   <line x1="826.323914" y1="1314.461670" x2="826.323914" y2="1347.565796" style="stroke: green; stroke-width: 0.200000"/>
   <line x1="827.323914" y1="1316.301270" x2="827.323914" y2="1347.565796" style="stroke: green; stroke-width: 0.200000"/>
   <line x1="828.323914" y1="1318.140259" x2="828.323914" y2="1347.565796" style="stroke: green; stroke-width: 0.200000"/>
   <line x1="829.323853" y1="1319.714355" x2="829.323853" y2="1347.565796" style="stroke: green; stroke-width: 0.200000"/>
   <line x1="830.323975" y1="1321.520264" x2="830.323975" y2="1347.565796" style="stroke: green; stroke-width: 0.200000"/>
   <line x1="831.323914" y1="1323.326172" x2="831.323914" y2="1347.565796" style="stroke: green; stroke-width: 0.200000"/>
   <line x1="832.323914" y1="1325.131958" x2="832.323914" y2="1347.565796" style="stroke: green; stroke-width: 0.200000"/>
   <line x1="833.323914" y1="1326.937866" x2="833.323914" y2="1347.565796" style="stroke: green; stroke-width: 0.200000"/>
   <line x1="834.323853" y1="1328.639648" x2="834.323853" y2="1347.565796" style="stroke: green; stroke-width: 0.200000"/>
   <line x1="835.323975" y1="1330.758179" x2="835.323975" y2="1347.565796" style="stroke: green; stroke-width: 0.200000"/>
   <line x1="836.323914" y1="1333.035156" x2="836.323914" y2="1347.565796" style="stroke: green; stroke-width: 0.200000"/>
   <line x1="837.323914" y1="1335.312012" x2="837.323914" y2="1347.565796" style="stroke: green; stroke-width: 0.200000"/>
   <line x1="838.323914" y1="1337.543335" x2="838.323914" y2="1347.565796" style="stroke: green; stroke-width: 0.200000"/>
   <line x1="839.323853" y1="1339.613159" x2="839.323853" y2="1347.565796" style="stroke: green; stroke-width: 0.200000"/>
   <line x1="840.323975" y1="1341.843994" x2="840.323975" y2="1347.565796" style="stroke: green; stroke-width: 0.200000"/>
   <line x1="841.323914" y1="1345.217041" x2="841.323914" y2="1347.565796" style="stroke: green; stroke-width: 0.200000"/>
   <line x1="815.323975" y1="1299.982300" x2="815.323975" y2="1346.523315" style="stroke: green; stroke-width: 0.200000"/>
   <line x1="814.323853" y1="1299.250366" x2="814.323853" y2="1345.501221" style="stroke: green; stroke-width: 0.200000"/>
   <line x1="813.323914" y1="1298.518311" x2="813.323914" y2="1344.479248" style="stroke: green; stroke-width: 0.200000"/>
   <line x1="812.323914" y1="1297.786377" x2="812.323914" y2="1343.457031" style="stroke: green; stroke-width: 0.200000"/>
   <line x1="811.323914" y1="1297.970215" x2="811.323914" y2="1342.435059" style="stroke: green; stroke-width: 0.200000"/>
   <line x1="810.323975" y1="1298.549194" x2="810.323975" y2="1341.264526" style="stroke: green; stroke-width: 0.200000"/>
   <line x1="809.323853" y1="1299.128296" x2="809.323853" y2="1340.059937" style="stroke: green; stroke-width: 0.200000"/>
   <line x1="808.323914" y1="1299.707153" x2="808.323914" y2="1338.980103" style="stroke: green; stroke-width: 0.200000"/>
   <line x1="807.323914" y1="1300.286255" x2="807.323914" y2="1338.011230" style="stroke: green; stroke-width: 0.200000"/>
   <line x1="806.323914" y1="1300.865356" x2="806.323914" y2="1337.042480" style="stroke: green; stroke-width: 0.200000"/>
   <line x1="805.323975" y1="1301.444214" x2="805.323975" y2="1336.073608" style="stroke: green; stroke-width: 0.200000"/>
   <line x1="804.323853" y1="1302.476196" x2="804.323853" y2="1335.123047" style="stroke: green; stroke-width: 0.200000"/>
   <line x1="803.323914" y1="1303.743286" x2="803.323914" y2="1334.217651" style="stroke: green; stroke-width: 0.200000"/>
   <line x1="802.323914" y1="1305.010376" x2="802.323914" y2="1333.312256" style="stroke: green; stroke-width: 0.200000"/>
   <line x1="801.323914" y1="1306.277466" x2="801.323914" y2="1332.063477" style="stroke: green; stroke-width: 0.200000"/>
   <line x1="800.323975" y1="1307.544556" x2="800.323975" y2="1330.548706" style="stroke: green; stroke-width: 0.200000"/>
   <line x1="799.323853" y1="1309.160400" x2="799.323853" y2="1329.263184" style="stroke: green; stroke-width: 0.200000"/>
   <line x1="798.323914" y1="1310.789307" x2="798.323914" y2="1328.019897" style="stroke: green; stroke-width: 0.200000"/>
   <line x1="797.323914" y1="1312.418213" x2="797.323914" y2="1326.776733" style="stroke: green; stroke-width: 0.200000"/>
   <line x1="796.323914" y1="1314.047119" x2="796.323914" y2="1325.533569" style="stroke: green; stroke-width: 0.200000"/>
   <line x1="840.323975" y1="1347.665771" x2="840.323975" y2="1378.958496" style="stroke: green; stroke-width: 0.200000"/>
   <line x1="841.323914" y1="1347.665771" x2="841.323914" y2="1378.891479" style="stroke: green; stroke-width: 0.200000"/>
   <line x1="842.323914" y1="1348.098755" x2="842.323914" y2="1378.628052" style="stroke: green; stroke-width: 0.200000"/>
   <line x1="843.323914" y1="1350.545410" x2="843.323914" y2="1378.364746" style="stroke: green; stroke-width: 0.200000"/>
   <line x1="839.323853" y1="1347.665771" x2="839.323853" y2="1378.122314" style="stroke: green; stroke-width: 0.200000"/>
   <line x1="844.323853" y1="1352.991455" x2="844.323853" y2="1378.101318" style="stroke: green; stroke-width: 0.200000"/>
   <line x1="845.323975" y1="1355.438110" x2="845.323975" y2="1377.837891" style="stroke: green; stroke-width: 0.200000"/>
   <line x1="838.323914" y1="1347.665771" x2="838.323914" y2="1377.286133" style="stroke: green; stroke-width: 0.200000"/>
   <line x1="837.323914" y1="1347.665771" x2="837.323914" y2="1376.391846" style="stroke: green; stroke-width: 0.200000"/>
   <line x1="836.323914" y1="1347.665771" x2="836.323914" y2="1375.449707" style="stroke: green; stroke-width: 0.200000"/>
   <line x1="835.323975" y1="1347.665771" x2="835.323975" y2="1374.507568" style="stroke: green; stroke-width: 0.200000"/>
   <line x1="834.323853" y1="1347.665771" x2="834.323853" y2="1373.565674" style="stroke: green; stroke-width: 0.200000"/>
   <line x1="833.323914" y1="1347.665771" x2="833.323914" y2="1372.384644" style="stroke: green; stroke-width: 0.200000"/>
   <line x1="832.323914" y1="1347.665771" x2="832.323914" y2="1370.653320" style="stroke: green; stroke-width: 0.200000"/>
   <line x1="831.323914" y1="1347.665771" x2="831.323914" y2="1368.922241" style="stroke: green; stroke-width: 0.200000"/>
   <line x1="830.323975" y1="1347.665771" x2="830.323975" y2="1367.191284" style="stroke: green; stroke-width: 0.200000"/>
   <line x1="829.323853" y1="1347.665771" x2="829.323853" y2="1365.481689" style="stroke: green; stroke-width: 0.200000"/>
   <line x1="828.323914" y1="1347.665771" x2="828.323914" y2="1364.083862" style="stroke: green; stroke-width: 0.200000"/>
   <line x1="827.323914" y1="1347.665771" x2="827.323914" y2="1362.712158" style="stroke: green; stroke-width: 0.200000"/>
   <line x1="826.323914" y1="1347.665771" x2="826.323914" y2="1361.260010" style="stroke: green; stroke-width: 0.200000"/>
   <line x1="825.323975" y1="1347.665771" x2="825.323975" y2="1359.808228" style="stroke: green; stroke-width: 0.200000"/>
   <line x1="824.323853" y1="1347.665771" x2="824.323853" y2="1358.356201" style="stroke: green; stroke-width: 0.200000"/>
   <line x1="823.323914" y1="1347.665771" x2="823.323914" y2="1356.904297" style="stroke: green; stroke-width: 0.200000"/>
   <line x1="822.323914" y1="1347.665771" x2="822.323914" y2="1355.565186" style="stroke: green; stroke-width: 0.200000"/>
   <line x1="821.323914" y1="1347.665771" x2="821.323914" y2="1354.374512" style="stroke: green; stroke-width: 0.200000"/>
   <line x1="820.323975" y1="1347.665771" x2="820.323975" y2="1353.183716" style="stroke: green; stroke-width: 0.200000"/>
   <line x1="819.323853" y1="1347.665771" x2="819.323853" y2="1351.992920" style="stroke: green; stroke-width: 0.200000"/>
   <line x1="818.323914" y1="1347.665771" x2="818.323914" y2="1350.654419" style="stroke: green; stroke-width: 0.200000"/>
   <line x1="817.323914" y1="1347.665771" x2="817.323914" y2="1349.216309" style="stroke: green; stroke-width: 0.200000"/>
   <line x1="816.323914" y1="1347.665771" x2="816.323914" y2="1347.778076" style="stroke: green; stroke-width: 0.200000"/>
   <line x1="846.323914" y1="1359.312500" x2="846.323914" y2="1377.654419" style="stroke: green; stroke-width: 0.200000"/>
   <line x1="847.323914" y1="1363.937866" x2="847.323914" y2="1377.476562" style="stroke: green; stroke-width: 0.200000"/>
   <line x1="848.323914" y1="1368.403809" x2="848.323914" y2="1377.298462" style="stroke: green; stroke-width: 0.200000"/>
   <line x1="849.323853" y1="1372.525879" x2="849.323853" y2="1377.120361" style="stroke: green; stroke-width: 0.200000"/>
   <line x1="955.126892" y1="1199.986694" x2="955.126892" y2="1232.133545" style="stroke: green; stroke-width: 0.200000"/>
   <line x1="956.126953" y1="1201.209229" x2="956.126953" y2="1232.133545" style="stroke: green; stroke-width: 0.200000"/>
   <line x1="957.126953" y1="1202.431885" x2="957.126953" y2="1232.133545" style="stroke: green; stroke-width: 0.200000"/>
   <line x1="958.126892" y1="1203.654541" x2="958.126892" y2="1232.133545" style="stroke: green; stroke-width: 0.200000"/>
   <line x1="959.126892" y1="1204.877319" x2="959.126892" y2="1232.133545" style="stroke: green; stroke-width: 0.200000"/>
   <line x1="960.126892" y1="1206.141968" x2="960.126892" y2="1232.133545" style="stroke: green; stroke-width: 0.200000"/>
   <line x1="961.126953" y1="1207.348511" x2="961.126953" y2="1232.133545" style="stroke: green; stroke-width: 0.200000"/>
   <line x1="962.126953" y1="1208.226074" x2="962.126953" y2="1232.133545" style="stroke: green; stroke-width: 0.200000"/>
   <line x1="963.126892" y1="1209.103394" x2="963.126892" y2="1232.133545" style="stroke: green; stroke-width: 0.200000"/>
   <line x1="964.126892" y1="1209.980957" x2="964.126892" y2="1232.133545" style="stroke: green; stroke-width: 0.200000"/>
   <line x1="965.126892" y1="1210.863281" x2="965.126892" y2="1232.133545" style="stroke: green; stroke-width: 0.200000"/>
   <line x1="966.126953" y1="1211.860107" x2="966.126953" y2="1232.133545" style="stroke: green; stroke-width: 0.200000"/>
   <line x1="967.126953" y1="1212.856934" x2="967.126953" y2="1232.133545" style="stroke: green; stroke-width: 0.200000"/>
   <line x1="968.126892" y1="1213.853638" x2="968.126892" y2="1232.133545" style="stroke: green; stroke-width: 0.200000"/>
   <line x1="969.126892" y1="1214.850464" x2="969.126892" y2="1232.133545" style="stroke: green; stroke-width: 0.200000"/>
   <line x1="954.126892" y1="1198.763916" x2="954.126892" y2="1232.022095" style="stroke: green; stroke-width: 0.200000"/>
   <line x1="953.126892" y1="1197.541260" x2="953.126892" y2="1231.443359" style="stroke: green; stroke-width: 0.200000"/>
   <line x1="952.126953" y1="1196.282104" x2="952.126953" y2="1230.864746" style="stroke: green; stroke-width: 0.200000"/>
   <line x1="951.126953" y1="1194.991577" x2="951.126953" y2="1230.286133" style="stroke: green; stroke-width: 0.200000"/>
   <line x1="950.126892" y1="1193.700928" x2="950.126892" y2="1229.707397" style="stroke: green; stroke-width: 0.200000"/>
   <line x1="949.126892" y1="1192.410522" x2="949.126892" y2="1229.048706" style="stroke: green; stroke-width: 0.200000"/>
   <line x1="948.126892" y1="1191.120239" x2="948.126892" y2="1228.269165" style="stroke: green; stroke-width: 0.200000"/>
   <line x1="947.126953" y1="1189.830444" x2="947.126953" y2="1227.503906" style="stroke: green; stroke-width: 0.200000"/>
   <line x1="946.126953" y1="1188.600586" x2="946.126953" y2="1226.738770" style="stroke: green; stroke-width: 0.200000"/>
   <line x1="945.126892" y1="1187.446167" x2="945.126892" y2="1225.973633" style="stroke: green; stroke-width: 0.200000"/>
   <line x1="944.126892" y1="1186.975220" x2="944.126892" y2="1225.208496" style="stroke: green; stroke-width: 0.200000"/>
   <line x1="943.126892" y1="1186.504272" x2="943.126892" y2="1224.443237" style="stroke: green; stroke-width: 0.200000"/>
   <line x1="942.126953" y1="1186.033447" x2="942.126953" y2="1223.678101" style="stroke: green; stroke-width: 0.200000"/>
   <line x1="941.126953" y1="1185.562500" x2="941.126953" y2="1222.912842" style="stroke: green; stroke-width: 0.200000"/>
   <line x1="940.126892" y1="1185.091553" x2="940.126892" y2="1222.107910" style="stroke: green; stroke-width: 0.200000"/>
   <line x1="939.126892" y1="1184.659180" x2="939.126892" y2="1221.281616" style="stroke: green; stroke-width: 0.200000"/>
   <line x1="938.126892" y1="1184.227783" x2="938.126892" y2="1220.455444" style="stroke: green; stroke-width: 0.200000"/>
   <line x1="937.126953" y1="1183.796387" x2="937.126953" y2="1219.629150" style="stroke: green; stroke-width: 0.200000"/>
   <line x1="936.126953" y1="1183.364990" x2="936.126953" y2="1218.803101" style="stroke: green; stroke-width: 0.200000"/>
   <line x1="935.126892" y1="1182.933594" x2="935.126892" y2="1217.976807" style="stroke: green; stroke-width: 0.200000"/>
   <line x1="934.126892" y1="1182.502197" x2="934.126892" y2="1216.930542" style="stroke: green; stroke-width: 0.200000"/>
   <line x1="933.126892" y1="1182.188965" x2="933.126892" y2="1215.886108" style="stroke: green; stroke-width: 0.200000"/>
   <line x1="932.126953" y1="1182.570679" x2="932.126953" y2="1214.872437" style="stroke: green; stroke-width: 0.200000"/>
   <line x1="931.126953" y1="1182.918457" x2="931.126953" y2="1213.833740" style="stroke: green; stroke-width: 0.200000"/>
   <line x1="930.126892" y1="1183.224731" x2="930.126892" y2="1212.781494" style="stroke: green; stroke-width: 0.200000"/>
   <line x1="929.126892" y1="1183.531006" x2="929.126892" y2="1211.729248" style="stroke: green; stroke-width: 0.200000"/>
   <line x1="928.126892" y1="1183.837158" x2="928.126892" y2="1210.677124" style="stroke: green; stroke-width: 0.200000"/>
   <line x1="927.126953" y1="1184.143433" x2="927.126953" y2="1209.621216" style="stroke: green; stroke-width: 0.200000"/>
   <line x1="926.126953" y1="1184.449707" x2="926.126953" y2="1208.557373" style="stroke: green; stroke-width: 0.200000"/>
   <line x1="925.126892" y1="1185.176514" x2="925.126892" y2="1207.493652" style="stroke: green; stroke-width: 0.200000"/>
   <line x1="924.126892" y1="1186.168945" x2="924.126892" y2="1205.893433" style="stroke: green; stroke-width: 0.200000"/>
   <line x1="923.126892" y1="1187.161377" x2="923.126892" y2="1204.062744" style="stroke: green; stroke-width: 0.200000"/>
   <line x1="922.126953" y1="1188.153809" x2="922.126953" y2="1202.231934" style="stroke: green; stroke-width: 0.200000"/>
   <line x1="921.126953" y1="1189.189331" x2="921.126953" y2="1200.160400" style="stroke: green; stroke-width: 0.200000"/>
   <line x1="920.126892" y1="1194.053223" x2="920.126892" y2="1198.062622" style="stroke: green; stroke-width: 0.200000"/>
   <line x1="970.126892" y1="1215.847290" x2="970.126892" y2="1232.133545" style="stroke: green; stroke-width: 0.200000"/>
   <line x1="971.126953" y1="1216.640869" x2="971.126953" y2="1232.133545" style="stroke: green; stroke-width: 0.200000"/>
   <line x1="972.126953" y1="1217.314697" x2="972.126953" y2="1232.133545" style="stroke: green; stroke-width: 0.200000"/>
   <line x1="973.126892" y1="1218.016235" x2="973.126892" y2="1232.133545" style="stroke: green; stroke-width: 0.200000"/>
   <line x1="974.126892" y1="1218.693481" x2="974.126892" y2="1232.133545" style="stroke: green; stroke-width: 0.200000"/>
   <line x1="975.126892" y1="1219.370850" x2="975.126892" y2="1232.133545" style="stroke: green; stroke-width: 0.200000"/>
   <line x1="976.126953" y1="1220.048096" x2="976.126953" y2="1232.133545" style="stroke: green; stroke-width: 0.200000"/>
   <line x1="977.126953" y1="1220.725342" x2="977.126953" y2="1232.133545" style="stroke: green; stroke-width: 0.200000"/>
   <line x1="978.126892" y1="1221.406982" x2="978.126892" y2="1232.133545" style="stroke: green; stroke-width: 0.200000"/>
   <line x1="979.126892" y1="1222.154175" x2="979.126892" y2="1232.133545" style="stroke: green; stroke-width: 0.200000"/>
   <line x1="980.126892" y1="1222.901367" x2="980.126892" y2="1232.133545" style="stroke: green; stroke-width: 0.200000"/>
   <line x1="981.126953" y1="1223.648560" x2="981.126953" y2="1232.133545" style="stroke: green; stroke-width: 0.200000"/>
   <line x1="982.126953" y1="1224.395874" x2="982.126953" y2="1232.133545" style="stroke: green; stroke-width: 0.200000"/>
   <line x1="983.126892" y1="1225.058350" x2="983.126892" y2="1232.133545" style="stroke: green; stroke-width: 0.200000"/>
   <line x1="984.126892" y1="1225.615723" x2="984.126892" y2="1232.133545" style="stroke: green; stroke-width: 0.200000"/>
   <line x1="985.126892" y1="1226.173340" x2="985.126892" y2="1232.133545" style="stroke: green; stroke-width: 0.200000"/>
   <line x1="986.126953" y1="1226.831299" x2="986.126953" y2="1232.133545" style="stroke: green; stroke-width: 0.200000"/>
   <line x1="987.126953" y1="1227.533203" x2="987.126953" y2="1232.133545" style="stroke: green; stroke-width: 0.200000"/>
   <line x1="988.126892" y1="1228.235229" x2="988.126892" y2="1232.133545" style="stroke: green; stroke-width: 0.200000"/>
   <line x1="989.126892" y1="1228.937256" x2="989.126892" y2="1232.133545" style="stroke: green; stroke-width: 0.200000"/>
   <line x1="990.126892" y1="1229.639282" x2="990.126892" y2="1232.133545" style="stroke: green; stroke-width: 0.200000"/>
   <line x1="991.126953" y1="1230.290894" x2="991.126953" y2="1232.133545" style="stroke: green; stroke-width: 0.200000"/>
   <line x1="992.126953" y1="1230.940063" x2="992.126953" y2="1232.133545" style="stroke: green; stroke-width: 0.200000"/>
   <line x1="993.126892" y1="1231.659912" x2="993.126892" y2="1232.133545" style="stroke: green; stroke-width: 0.200000"/>
   <line x1="969.126892" y1="1232.233521" x2="969.126892" y2="1240.225952" style="stroke: green; stroke-width: 0.200000"/>
   <line x1="968.126892" y1="1232.233521" x2="968.126892" y2="1239.733765" style="stroke: green; stroke-width: 0.200000"/>
   <line x1="967.126953" y1="1232.233521" x2="967.126953" y2="1239.241577" style="stroke: green; stroke-width: 0.200000"/>
   <line x1="966.126953" y1="1232.233521" x2="966.126953" y2="1238.749268" style="stroke: green; stroke-width: 0.200000"/>
   <line x1="965.126892" y1="1232.233521" x2="965.126892" y2="1238.256958" style="stroke: green; stroke-width: 0.200000"/>
   <line x1="964.126892" y1="1232.233521" x2="964.126892" y2="1237.764893" style="stroke: green; stroke-width: 0.200000"/>
   <line x1="963.126892" y1="1232.233521" x2="963.126892" y2="1237.272705" style="stroke: green; stroke-width: 0.200000"/>
   <line x1="962.126953" y1="1232.233521" x2="962.126953" y2="1236.780273" style="stroke: green; stroke-width: 0.200000"/>
   <line x1="961.126953" y1="1232.233521" x2="961.126953" y2="1236.130859" style="stroke: green; stroke-width: 0.200000"/>
   <line x1="960.126892" y1="1232.233521" x2="960.126892" y2="1235.494019" style="stroke: green; stroke-width: 0.200000"/>
   <line x1="959.126892" y1="1232.233521" x2="959.126892" y2="1234.915405" style="stroke: green; stroke-width: 0.200000"/>
   <line x1="958.126892" y1="1232.233521" x2="958.126892" y2="1234.336670" style="stroke: green; stroke-width: 0.200000"/>
   <line x1="957.126953" y1="1232.233521" x2="957.126953" y2="1233.758057" style="stroke: green; stroke-width: 0.200000"/>
   <line x1="956.126953" y1="1232.233521" x2="956.126953" y2="1233.179443" style="stroke: green; stroke-width: 0.200000"/>
   <line x1="955.126892" y1="1232.233521" x2="955.126892" y2="1232.600708" style="stroke: green; stroke-width: 0.200000"/>
   <line x1="1018.126892" y1="1250.215698" x2="1018.126892" y2="1265.299561" style="stroke: green; stroke-width: 0.200000"/>
   <line x1="1019.126892" y1="1251.650513" x2="1019.126892" y2="1265.273438" style="stroke: green; stroke-width: 0.200000"/>
   <line x1="1017.126953" y1="1248.780640" x2="1017.126953" y2="1264.997437" style="stroke: green; stroke-width: 0.200000"/>
   <line x1="1016.126953" y1="1247.460815" x2="1016.126953" y2="1264.514771" style="stroke: green; stroke-width: 0.200000"/>
   <line x1="1015.126892" y1="1246.646484" x2="1015.126892" y2="1264.032104" style="stroke: green; stroke-width: 0.200000"/>
   <line x1="1014.126892" y1="1245.809570" x2="1014.126892" y2="1263.549561" style="stroke: green; stroke-width: 0.200000"/>
   <line x1="1013.126892" y1="1244.972778" x2="1013.126892" y2="1263.066895" style="stroke: green; stroke-width: 0.200000"/>
   <line x1="1012.126953" y1="1244.135864" x2="1012.126953" y2="1262.584229" style="stroke: green; stroke-width: 0.200000"/>
   <line x1="1011.126953" y1="1243.299072" x2="1011.126953" y2="1262.020508" style="stroke: green; stroke-width: 0.200000"/>
   <line x1="1010.126892" y1="1242.462158" x2="1010.126892" y2="1261.450439" style="stroke: green; stroke-width: 0.200000"/>
   <line x1="1009.126892" y1="1241.625244" x2="1009.126892" y2="1260.880371" style="stroke: green; stroke-width: 0.200000"/>
   <line x1="1008.126892" y1="1240.921509" x2="1008.126892" y2="1260.310303" style="stroke: green; stroke-width: 0.200000"/>
   <line x1="1007.126953" y1="1240.321167" x2="1007.126953" y2="1259.740234" style="stroke: green; stroke-width: 0.200000"/>
   <line x1="1006.126953" y1="1239.715942" x2="1006.126953" y2="1259.176514" style="stroke: green; stroke-width: 0.200000"/>
   <line x1="1005.126892" y1="1239.059937" x2="1005.126892" y2="1258.658325" style="stroke: green; stroke-width: 0.200000"/>
   <line x1="1004.126892" y1="1238.403809" x2="1004.126892" y2="1258.140381" style="stroke: green; stroke-width: 0.200000"/>
   <line x1="1003.126892" y1="1237.747681" x2="1003.126892" y2="1257.622192" style="stroke: green; stroke-width: 0.200000"/>
   <line x1="1002.126953" y1="1237.091553" x2="1002.126953" y2="1257.087036" style="stroke: green; stroke-width: 0.200000"/>
   <line x1="1001.126953" y1="1236.435425" x2="1001.126953" y2="1256.510376" style="stroke: green; stroke-width: 0.200000"/>
   <line x1="1000.126892" y1="1235.805176" x2="1000.126892" y2="1255.933716" style="stroke: green; stroke-width: 0.200000"/>
   <line x1="999.126892" y1="1235.246826" x2="999.126892" y2="1255.357056" style="stroke: green; stroke-width: 0.200000"/>
   <line x1="998.126892" y1="1234.688477" x2="998.126892" y2="1254.780396" style="stroke: green; stroke-width: 0.200000"/>
   <line x1="997.126953" y1="1234.129883" x2="997.126953" y2="1254.203857" style="stroke: green; stroke-width: 0.200000"/>
   <line x1="996.126953" y1="1233.571533" x2="996.126953" y2="1253.627197" style="stroke: green; stroke-width: 0.200000"/>
   <line x1="995.126892" y1="1233.013428" x2="995.126892" y2="1253.089355" style="stroke: green; stroke-width: 0.200000"/>
   <line x1="994.126892" y1="1232.443970" x2="994.126892" y2="1252.586304" style="stroke: green; stroke-width: 0.200000"/>
   <line x1="993.126892" y1="1232.233521" x2="993.126892" y2="1252.083252" style="stroke: green; stroke-width: 0.200000"/>
   <line x1="992.126953" y1="1232.233521" x2="992.126953" y2="1251.580322" style="stroke: green; stroke-width: 0.200000"/>
   <line x1="991.126953" y1="1232.233521" x2="991.126953" y2="1251.077271" style="stroke: green; stroke-width: 0.200000"/>
   <line x1="990.126892" y1="1232.233521" x2="990.126892" y2="1250.574219" style="stroke: green; stroke-width: 0.200000"/>
   <line x1="989.126892" y1="1232.233521" x2="989.126892" y2="1250.071289" style="stroke: green; stroke-width: 0.200000"/>
   <line x1="988.126892" y1="1232.233521" x2="988.126892" y2="1249.568359" style="stroke: green; stroke-width: 0.200000"/>
   <line x1="987.126953" y1="1232.233521" x2="987.126953" y2="1249.065308" style="stroke: green; stroke-width: 0.200000"/>
   <line x1="986.126953" y1="1232.233521" x2="986.126953" y2="1248.562256" style="stroke: green; stroke-width: 0.200000"/>
   <line x1="985.126892" y1="1232.233521" x2="985.126892" y2="1248.059326" style="stroke: green; stroke-width: 0.200000"/>
   <line x1="984.126892" y1="1232.233521" x2="984.126892" y2="1247.570679" style="stroke: green; stroke-width: 0.200000"/>
   <line x1="983.126892" y1="1232.233521" x2="983.126892" y2="1247.192871" style="stroke: green; stroke-width: 0.200000"/>
   <line x1="982.126953" y1="1232.233521" x2="982.126953" y2="1246.778320" style="stroke: green; stroke-width: 0.200000"/>
   <line x1="981.126953" y1="1232.233521" x2="981.126953" y2="1246.356445" style="stroke: green; stroke-width: 0.200000"/>
   <line x1="980.126892" y1="1232.233521" x2="980.126892" y2="1245.871704" style="stroke: green; stroke-width: 0.200000"/>
   <line x1="979.126892" y1="1232.233521" x2="979.126892" y2="1245.386841" style="stroke: green; stroke-width: 0.200000"/>
   <line x1="978.126892" y1="1232.233521" x2="978.126892" y2="1244.902100" style="stroke: green; stroke-width: 0.200000"/>
   <line x1="977.126953" y1="1232.233521" x2="977.126953" y2="1244.417358" style="stroke: green; stroke-width: 0.200000"/>
   <line x1="976.126953" y1="1232.233521" x2="976.126953" y2="1243.932617" style="stroke: green; stroke-width: 0.200000"/>
   <line x1="975.126892" y1="1232.233521" x2="975.126892" y2="1243.447754" style="stroke: green; stroke-width: 0.200000"/>
   <line x1="974.126892" y1="1232.233521" x2="974.126892" y2="1242.963013" style="stroke: green; stroke-width: 0.200000"/>
   <line x1="973.126892" y1="1232.233521" x2="973.126892" y2="1242.414307" style="stroke: green; stroke-width: 0.200000"/>
   <line x1="972.126953" y1="1232.233521" x2="972.126953" y2="1241.834473" style="stroke: green; stroke-width: 0.200000"/>
   <line x1="971.126953" y1="1232.233521" x2="971.126953" y2="1241.254517" style="stroke: green; stroke-width: 0.200000"/>
   <line x1="970.126892" y1="1232.233521" x2="970.126892" y2="1240.718262" style="stroke: green; stroke-width: 0.200000"/>
   <line x1="1020.126892" y1="1253.085449" x2="1020.126892" y2="1259.682129" style="stroke: green; stroke-width: 0.200000"/>
   <line x1="1021.126953" y1="1254.520386" x2="1021.126953" y2="1255.373169" style="stroke: green; stroke-width: 0.200000"/>
   <line x1="952.785034" y1="1197.123047" x2="952.785034" y2="1197.123291" style="stroke: green; stroke-width: 0.200000"/>
   <path d="M 794.521  1325.47  793.884  1315.32  794.022  1314.93  794.212  1314.64  799.056  1306.73  803.979  1300.49  804.995  1299.89  812.119  1295.78  820.467  1301.89  820.738  1302.11  820.797  1302.24  825.302  1309.59  825.546  1309.89  829.599  1317.35  830.199  1318.2  835.205  1327.24  835.867  1328.26  839.466  1336.46  841.603  1340.88  843.21  1346.3  847.016  1355.61  847.472  1357.53  849.469  1366.76  850.915  1372.72  851.156  1378.32  845.702  1379.29  840.135  1380.76  836.877  1378.03  832.438  1373.85  828.128  1366.39  827.283  1365.19  826.492  1364.15  821.562  1356.99  817.729  1352.43  814.605  1347.93  814.573  1347.9  " style="fill: none; stroke: darkmagenta; stroke-width: 0.200000; fill-type: evenodd"  fill-opacity="1.000000" />
   <path d="M 814.573  1347.9  810.023  1343.25  807.75  1340.51  803.585  1336.48  800.741  1333.9  798.954  1331.2  794.535  1325.7  794.521  1325.47  " style="fill: none; stroke: red; stroke-width: 0.200000; fill-type: evenodd"  fill-opacity="1.000000" />
   <path d="M 819.928  1302.73  824.485  1310.17  824.712  1310.45  828.748  1317.87  829.35  1318.73  834.346  1327.75  834.983  1328.74  838.558  1336.88  840.668  1341.25  842.266  1346.64  846.061  1355.92  846.497  1357.75  848.494  1366.98  849.92  1372.86  850.119  1377.49  845.487  1378.31  840.38  1379.66  837.541  1377.28  833.23  1373.22  828.971  1365.85  828.09  1364.6  827.303  1363.56  822.358  1356.38  818.524  1351.82  815.378  1347.29  810.767  1342.58  808.485  1339.83  804.269  1335.75  801.506  1333.24  799.763  1330.6  795.513  1325.32  794.893  1315.42  795.054  1315.18  799.878  1307.3  804.649  1301.26  805.5  1300.75  812.054  1296.97  819.928  1302.73  " style="fill: none; stroke: black; stroke-width: 0.200000; fill-type: evenodd"  fill-opacity="1.000000" />
   <path d="M 1001.68  1258.56  994.94  1254.67  983.636  1248.99  982.711  1248.64  980.618  1247.78  973.095  1244.13  969.916  1242.29  961.224  1238.01  959.739  1237  948.671  1230.6  947.506  1229.68  939.843  1223.82  933.914  1218.92  932.654  1217.54  930.7  1215.56  926.354  1210.99  923.602  1208.06  920.693  1202.74  918.077  1197.25  919.098  1191.09  919.536  1188.68  921.021  1187.14  924.946  1183.24  931.09  1181.36  933.307  1180.52  940.72  1183.71  946.134  1186.26  947.986  1188.49  953.839  1196.04  960.353  1204.01  962.064  1206.18  966.111  1209.73  971.498  1215.1  972.485  1215.73  973.815  1216.67  978.937  1220.14  983.498  1223.55  986.23  1225.07  991.013  1228.43  993.477  1230.03  995.009  1231.23  1001.17  1234.67  1007.01  1238.5  1009.56  1240.03  1016.51  1245.85  1017.31  1246.48  1017.58  1246.81  1022.89  1254.42  1020.8  1263.41  1021.17  1266.72  1017.7  1266.81  " style="fill: none; stroke: darkmagenta; stroke-width: 0.200000; fill-type: evenodd"  fill-opacity="1.000000" />
   <path d="M 1017.7  1266.81  1017.45  1266.82  1011.36  1263.88  1005.53  1260.56  1001.7  1258.57  1001.68  1258.56  " style="fill: none; stroke: red; stroke-width: 0.200000; fill-type: evenodd"  fill-opacity="1.000000" />
   <path d="M 940.309  1184.62  945.507  1187.07  947.206  1189.12  953.056  1196.67  959.573  1204.63  961.335  1206.87  965.428  1210.46  970.868  1215.88  971.926  1216.56  973.246  1217.49  978.357  1220.95  982.953  1224.39  985.697  1225.92  990.453  1229.26  992.895  1230.84  994.454  1232.06  1000.65  1235.53  1006.48  1239.35  1008.98  1240.85  1015.88  1246.62  1016.61  1247.2  1016.79  1247.42  1021.81  1254.63  1019.79  1263.35  1020.06  1265.75  1017.66  1265.81  1011.82  1262.99  1006.01  1259.68  1002.18  1257.69  995.415  1253.79  984.037  1248.07  983.077  1247.71  981.028  1246.86  973.565  1243.25  970.389  1241.4  961.727  1237.14  960.27  1236.15  949.233  1229.77  948.119  1228.89  940.466  1223.04  934.605  1218.19  933.379  1216.85  931.419  1214.87  927.081  1210.3  924.418  1207.47  921.584  1202.28  919.115  1197.1  920.083  1191.26  920.466  1189.15  921.734  1187.84  925.475  1184.13  931.415  1182.31  933.284  1181.59  940.309  1184.62  " style="fill: none; stroke: black; stroke-width: 0.200000; fill-type: evenodd"  fill-opacity="1.000000" />
</svg>
