<?xml version="1.0" encoding="UTF-8" standalone="yes"?>
<!DOCTYPE svg PUBLIC "-//W3C//DTD SVG 1.0//EN" "http://www.w3.org/TR/2001/REC-SVG-20010904/DTD/svg10.dtd">
<svg height="2000" width="2000" xmlns="http://www.w3.org/2000/svg" xmlns:svg="http://www.w3.org/2000/svg" xmlns:xlink="http://www.w3.org/1999/xlink">
   <marker id="endArrow" markerHeight="8" markerUnits="strokeWidth" markerWidth="10" orient="auto" refX="1" refY="5" viewBox="0 0 1000 1000">
      <polyline fill="darkblue" points="0,0 10,5 0,10 1,5" />
   </marker>
   <circle cx="1000" cy="1000" r="1" style="stroke:black; fill: red" />
   <circle cx="1000" cy="1000" r="800" style="stroke:black; fill: none" />
   <line x1="844.458740" y1="1135.357178" x2="795.812134" y2="1135.357178" style="stroke: green; stroke-width: 0.200000"/>
   <line x1="844.458740" y1="1134.357178" x2="795.560913" y2="1134.357178" style="stroke: green; stroke-width: 0.200000"/>
   <line x1="844.458740" y1="1133.357178" x2="795.378540" y2="1133.357178" style="stroke: green; stroke-width: 0.200000"/>
   <line x1="844.458740" y1="1132.357178" x2="795.243286" y2="1132.357178" style="stroke: green; stroke-width: 0.200000"/>
   <line x1="844.458740" y1="1131.357178" x2="795.108032" y2="1131.357178" style="stroke: green; stroke-width: 0.200000"/>
   <line x1="844.458740" y1="1130.357178" x2="794.972778" y2="1130.357178" style="stroke: green; stroke-width: 0.200000"/>
   <line x1="844.458740" y1="1129.357178" x2="794.837524" y2="1129.357178" style="stroke: green; stroke-width: 0.200000"/>
   <line x1="844.458740" y1="1128.357178" x2="794.754028" y2="1128.357178" style="stroke: green; stroke-width: 0.200000"/>
   <line x1="844.458740" y1="1127.357178" x2="794.703735" y2="1127.357178" style="stroke: green; stroke-width: 0.200000"/>
   <line x1="844.458740" y1="1126.357178" x2="794.653442" y2="1126.357178" style="stroke: green; stroke-width: 0.200000"/>
   <line x1="844.458740" y1="1125.357178" x2="794.603210" y2="1125.357178" style="stroke: green; stroke-width: 0.200000"/>
   <line x1="844.458740" y1="1124.357178" x2="794.552917" y2="1124.357178" style="stroke: green; stroke-width: 0.200000"/>
   <line x1="844.458740" y1="1123.357178" x2="794.502625" y2="1123.357178" style="stroke: green; stroke-width: 0.200000"/>
   <line x1="844.458740" y1="1122.357178" x2="794.467041" y2="1122.357178" style="stroke: green; stroke-width: 0.200000"/>
   <line x1="844.458740" y1="1121.357178" x2="794.532166" y2="1121.357178" style="stroke: green; stroke-width: 0.200000"/>
   <line x1="844.458740" y1="1120.357178" x2="794.597290" y2="1120.357178" style="stroke: green; stroke-width: 0.200000"/>
   <line x1="844.458740" y1="1119.357178" x2="794.737610" y2="1119.357178" style="stroke: green; stroke-width: 0.200000"/>
   <line x1="844.458740" y1="1118.357178" x2="794.966675" y2="1118.357178" style="stroke: green; stroke-width: 0.200000"/>
   <line x1="844.458740" y1="1117.357178" x2="795.203552" y2="1117.357178" style="stroke: green; stroke-width: 0.200000"/>
   <line x1="844.458740" y1="1116.357178" x2="795.488342" y2="1116.357178" style="stroke: green; stroke-width: 0.200000"/>
   <line x1="844.458740" y1="1115.357178" x2="795.773193" y2="1115.357178" style="stroke: green; stroke-width: 0.200000"/>
   <line x1="844.458740" y1="1114.357178" x2="796.057983" y2="1114.357178" style="stroke: green; stroke-width: 0.200000"/>
   <line x1="844.458740" y1="1113.357178" x2="796.342712" y2="1113.357178" style="stroke: green; stroke-width: 0.200000"/>
   <line x1="844.458740" y1="1112.357178" x2="796.627502" y2="1112.357178" style="stroke: green; stroke-width: 0.200000"/>
   <line x1="844.458740" y1="1111.357178" x2="796.912292" y2="1111.357178" style="stroke: green; stroke-width: 0.200000"/>
   <line x1="844.458740" y1="1110.357178" x2="797.197144" y2="1110.357178" style="stroke: green; stroke-width: 0.200000"/>
   <line x1="844.458740" y1="1109.357178" x2="797.600647" y2="1109.357178" style="stroke: green; stroke-width: 0.200000"/>
   <line x1="844.458740" y1="1108.357178" x2="798.071899" y2="1108.357178" style="stroke: green; stroke-width: 0.200000"/>
   <line x1="844.458740" y1="1107.357178" x2="798.543152" y2="1107.357178" style="stroke: green; stroke-width: 0.200000"/>
   <line x1="844.458740" y1="1106.357178" x2="799.060364" y2="1106.357178" style="stroke: green; stroke-width: 0.200000"/>
   <line x1="844.458740" y1="1105.357178" x2="799.587463" y2="1105.357178" style="stroke: green; stroke-width: 0.200000"/>
   <line x1="844.458740" y1="1104.357178" x2="800.114624" y2="1104.357178" style="stroke: green; stroke-width: 0.200000"/>
   <line x1="844.458740" y1="1103.357178" x2="800.641724" y2="1103.357178" style="stroke: green; stroke-width: 0.200000"/>
   <line x1="844.458740" y1="1102.357178" x2="801.168762" y2="1102.357178" style="stroke: green; stroke-width: 0.200000"/>
   <line x1="844.458740" y1="1101.357178" x2="801.695862" y2="1101.357178" style="stroke: green; stroke-width: 0.200000"/>
   <line x1="844.458740" y1="1100.357178" x2="802.222961" y2="1100.357178" style="stroke: green; stroke-width: 0.200000"/>
   <line x1="844.458740" y1="1099.357178" x2="802.750122" y2="1099.357178" style="stroke: green; stroke-width: 0.200000"/>
   <line x1="844.458740" y1="1098.357178" x2="803.277222" y2="1098.357178" style="stroke: green; stroke-width: 0.200000"/>
   <line x1="844.458740" y1="1097.357178" x2="803.804321" y2="1097.357178" style="stroke: green; stroke-width: 0.200000"/>
   <line x1="844.458740" y1="1096.357178" x2="804.508789" y2="1096.357178" style="stroke: green; stroke-width: 0.200000"/>
   <line x1="844.458740" y1="1095.357178" x2="805.323608" y2="1095.357178" style="stroke: green; stroke-width: 0.200000"/>
   <line x1="844.458740" y1="1094.357178" x2="806.138428" y2="1094.357178" style="stroke: green; stroke-width: 0.200000"/>
   <line x1="844.458740" y1="1093.357178" x2="806.953247" y2="1093.357178" style="stroke: green; stroke-width: 0.200000"/>
   <line x1="844.458740" y1="1092.357178" x2="807.768066" y2="1092.357178" style="stroke: green; stroke-width: 0.200000"/>
   <line x1="844.458740" y1="1091.357178" x2="809.273560" y2="1091.357178" style="stroke: green; stroke-width: 0.200000"/>
   <line x1="843.940552" y1="1090.357178" x2="811.039490" y2="1090.357178" style="stroke: green; stroke-width: 0.200000"/>
   <line x1="840.752014" y1="1089.357178" x2="812.805481" y2="1089.357178" style="stroke: green; stroke-width: 0.200000"/>
   <line x1="837.882141" y1="1088.357178" x2="814.952087" y2="1088.357178" style="stroke: green; stroke-width: 0.200000"/>
   <line x1="834.953735" y1="1087.357178" x2="817.158081" y2="1087.357178" style="stroke: green; stroke-width: 0.200000"/>
   <line x1="829.809692" y1="1086.357178" x2="819.364014" y2="1086.357178" style="stroke: green; stroke-width: 0.200000"/>
   <line x1="870.502319" y1="1135.357178" x2="844.558716" y2="1135.357178" style="stroke: green; stroke-width: 0.200000"/>
   <line x1="870.002136" y1="1134.357178" x2="844.558716" y2="1134.357178" style="stroke: green; stroke-width: 0.200000"/>
   <line x1="869.491699" y1="1133.357178" x2="844.558716" y2="1133.357178" style="stroke: green; stroke-width: 0.200000"/>
   <line x1="868.777771" y1="1132.357178" x2="844.558716" y2="1132.357178" style="stroke: green; stroke-width: 0.200000"/>
   <line x1="868.063721" y1="1131.357178" x2="844.558716" y2="1131.357178" style="stroke: green; stroke-width: 0.200000"/>
   <line x1="867.349792" y1="1130.357178" x2="844.558716" y2="1130.357178" style="stroke: green; stroke-width: 0.200000"/>
   <line x1="866.635742" y1="1129.357178" x2="844.558716" y2="1129.357178" style="stroke: green; stroke-width: 0.200000"/>
   <line x1="865.945435" y1="1128.357178" x2="844.558716" y2="1128.357178" style="stroke: green; stroke-width: 0.200000"/>
   <line x1="865.628052" y1="1127.357178" x2="844.558716" y2="1127.357178" style="stroke: green; stroke-width: 0.200000"/>
   <line x1="865.310669" y1="1126.357178" x2="844.558716" y2="1126.357178" style="stroke: green; stroke-width: 0.200000"/>
   <line x1="864.993286" y1="1125.357178" x2="844.558716" y2="1125.357178" style="stroke: green; stroke-width: 0.200000"/>
   <line x1="864.675964" y1="1124.357178" x2="844.558716" y2="1124.357178" style="stroke: green; stroke-width: 0.200000"/>
   <line x1="864.358582" y1="1123.357178" x2="844.558716" y2="1123.357178" style="stroke: green; stroke-width: 0.200000"/>
   <line x1="864.041199" y1="1122.357178" x2="844.558716" y2="1122.357178" style="stroke: green; stroke-width: 0.200000"/>
   <line x1="863.723816" y1="1121.357178" x2="844.558716" y2="1121.357178" style="stroke: green; stroke-width: 0.200000"/>
   <line x1="863.167236" y1="1120.357178" x2="844.558716" y2="1120.357178" style="stroke: green; stroke-width: 0.200000"/>
   <line x1="862.445740" y1="1119.357178" x2="844.558716" y2="1119.357178" style="stroke: green; stroke-width: 0.200000"/>
   <line x1="862.136108" y1="1118.357178" x2="844.558716" y2="1118.357178" style="stroke: green; stroke-width: 0.200000"/>
   <line x1="861.854797" y1="1117.357178" x2="844.558716" y2="1117.357178" style="stroke: green; stroke-width: 0.200000"/>
   <line x1="861.597412" y1="1116.357178" x2="844.558716" y2="1116.357178" style="stroke: green; stroke-width: 0.200000"/>
   <line x1="861.340088" y1="1115.357178" x2="844.558716" y2="1115.357178" style="stroke: green; stroke-width: 0.200000"/>
   <line x1="861.082703" y1="1114.357178" x2="844.558716" y2="1114.357178" style="stroke: green; stroke-width: 0.200000"/>
   <line x1="860.825317" y1="1113.357178" x2="844.558716" y2="1113.357178" style="stroke: green; stroke-width: 0.200000"/>
   <line x1="860.567627" y1="1112.357178" x2="844.558716" y2="1112.357178" style="stroke: green; stroke-width: 0.200000"/>
   <line x1="860.223877" y1="1111.357178" x2="844.558716" y2="1111.357178" style="stroke: green; stroke-width: 0.200000"/>
   <line x1="859.880066" y1="1110.357178" x2="844.558716" y2="1110.357178" style="stroke: green; stroke-width: 0.200000"/>
   <line x1="859.536194" y1="1109.357178" x2="844.558716" y2="1109.357178" style="stroke: green; stroke-width: 0.200000"/>
   <line x1="859.222961" y1="1108.357178" x2="844.558716" y2="1108.357178" style="stroke: green; stroke-width: 0.200000"/>
   <line x1="858.841492" y1="1107.357178" x2="844.558716" y2="1107.357178" style="stroke: green; stroke-width: 0.200000"/>
   <line x1="858.261658" y1="1106.357178" x2="844.558716" y2="1106.357178" style="stroke: green; stroke-width: 0.200000"/>
   <line x1="857.681763" y1="1105.357178" x2="844.558716" y2="1105.357178" style="stroke: green; stroke-width: 0.200000"/>
   <line x1="857.101929" y1="1104.357178" x2="844.558716" y2="1104.357178" style="stroke: green; stroke-width: 0.200000"/>
   <line x1="856.522095" y1="1103.357178" x2="844.558716" y2="1103.357178" style="stroke: green; stroke-width: 0.200000"/>
   <line x1="855.942261" y1="1102.357178" x2="844.558716" y2="1102.357178" style="stroke: green; stroke-width: 0.200000"/>
   <line x1="855.355591" y1="1101.357178" x2="844.558716" y2="1101.357178" style="stroke: green; stroke-width: 0.200000"/>
   <line x1="854.731567" y1="1100.357178" x2="844.558716" y2="1100.357178" style="stroke: green; stroke-width: 0.200000"/>
   <line x1="854.107605" y1="1099.357178" x2="844.558716" y2="1099.357178" style="stroke: green; stroke-width: 0.200000"/>
   <line x1="853.483521" y1="1098.357178" x2="844.558716" y2="1098.357178" style="stroke: green; stroke-width: 0.200000"/>
   <line x1="852.859497" y1="1097.357178" x2="844.558716" y2="1097.357178" style="stroke: green; stroke-width: 0.200000"/>
   <line x1="852.235474" y1="1096.357178" x2="844.558716" y2="1096.357178" style="stroke: green; stroke-width: 0.200000"/>
   <line x1="851.553467" y1="1095.357178" x2="844.558716" y2="1095.357178" style="stroke: green; stroke-width: 0.200000"/>
   <line x1="850.574097" y1="1094.357178" x2="844.558716" y2="1094.357178" style="stroke: green; stroke-width: 0.200000"/>
   <line x1="849.594788" y1="1093.357178" x2="844.558716" y2="1093.357178" style="stroke: green; stroke-width: 0.200000"/>
   <line x1="848.615417" y1="1092.357178" x2="844.558716" y2="1092.357178" style="stroke: green; stroke-width: 0.200000"/>
   <line x1="846.563232" y1="1091.357178" x2="844.558716" y2="1091.357178" style="stroke: green; stroke-width: 0.200000"/>
   <line x1="831.612427" y1="1185.357178" x2="804.209839" y2="1185.357178" style="stroke: green; stroke-width: 0.200000"/>
   <line x1="831.212708" y1="1184.357178" x2="804.348694" y2="1184.357178" style="stroke: green; stroke-width: 0.200000"/>
   <line x1="830.624939" y1="1183.357178" x2="804.487549" y2="1183.357178" style="stroke: green; stroke-width: 0.200000"/>
   <line x1="830.346313" y1="1182.357178" x2="804.626465" y2="1182.357178" style="stroke: green; stroke-width: 0.200000"/>
   <line x1="830.115662" y1="1181.357178" x2="804.765259" y2="1181.357178" style="stroke: green; stroke-width: 0.200000"/>
   <line x1="829.885132" y1="1180.357178" x2="804.632874" y2="1180.357178" style="stroke: green; stroke-width: 0.200000"/>
   <line x1="829.654541" y1="1179.357178" x2="804.624878" y2="1179.357178" style="stroke: green; stroke-width: 0.200000"/>
   <line x1="829.423889" y1="1178.357178" x2="804.864014" y2="1178.357178" style="stroke: green; stroke-width: 0.200000"/>
   <line x1="829.193359" y1="1177.357178" x2="805.103210" y2="1177.357178" style="stroke: green; stroke-width: 0.200000"/>
   <line x1="828.985657" y1="1176.357178" x2="805.342468" y2="1176.357178" style="stroke: green; stroke-width: 0.200000"/>
   <line x1="828.876343" y1="1175.357178" x2="805.581665" y2="1175.357178" style="stroke: green; stroke-width: 0.200000"/>
   <line x1="828.766968" y1="1174.357178" x2="805.820862" y2="1174.357178" style="stroke: green; stroke-width: 0.200000"/>
   <line x1="828.657593" y1="1173.357178" x2="806.060120" y2="1173.357178" style="stroke: green; stroke-width: 0.200000"/>
   <line x1="828.548279" y1="1172.357178" x2="806.299316" y2="1172.357178" style="stroke: green; stroke-width: 0.200000"/>
   <line x1="828.603516" y1="1171.357178" x2="806.538574" y2="1171.357178" style="stroke: green; stroke-width: 0.200000"/>
   <line x1="828.865906" y1="1170.357178" x2="806.526794" y2="1170.357178" style="stroke: green; stroke-width: 0.200000"/>
   <line x1="829.128174" y1="1169.357178" x2="806.277222" y2="1169.357178" style="stroke: green; stroke-width: 0.200000"/>
   <line x1="829.390564" y1="1168.357178" x2="806.027588" y2="1168.357178" style="stroke: green; stroke-width: 0.200000"/>
   <line x1="829.506104" y1="1167.357178" x2="805.778076" y2="1167.357178" style="stroke: green; stroke-width: 0.200000"/>
   <line x1="829.492065" y1="1166.357178" x2="805.528442" y2="1166.357178" style="stroke: green; stroke-width: 0.200000"/>
   <line x1="829.478088" y1="1165.357178" x2="805.278870" y2="1165.357178" style="stroke: green; stroke-width: 0.200000"/>
   <line x1="829.464050" y1="1164.357178" x2="805.339355" y2="1164.357178" style="stroke: green; stroke-width: 0.200000"/>
   <line x1="829.450012" y1="1163.357178" x2="805.457214" y2="1163.357178" style="stroke: green; stroke-width: 0.200000"/>
   <line x1="829.435974" y1="1162.357178" x2="805.575073" y2="1162.357178" style="stroke: green; stroke-width: 0.200000"/>
   <line x1="829.524902" y1="1161.357178" x2="805.692993" y2="1161.357178" style="stroke: green; stroke-width: 0.200000"/>
   <line x1="829.960632" y1="1160.357178" x2="805.556885" y2="1160.357178" style="stroke: green; stroke-width: 0.200000"/>
   <line x1="830.396362" y1="1159.357178" x2="805.144714" y2="1159.357178" style="stroke: green; stroke-width: 0.200000"/>
   <line x1="830.832031" y1="1158.357178" x2="804.732605" y2="1158.357178" style="stroke: green; stroke-width: 0.200000"/>
   <line x1="831.267700" y1="1157.357178" x2="804.320557" y2="1157.357178" style="stroke: green; stroke-width: 0.200000"/>
   <line x1="832.622681" y1="1156.357178" x2="803.925842" y2="1156.357178" style="stroke: green; stroke-width: 0.200000"/>
   <line x1="834.490906" y1="1155.357178" x2="803.601196" y2="1155.357178" style="stroke: green; stroke-width: 0.200000"/>
   <line x1="836.359009" y1="1154.357178" x2="803.276489" y2="1154.357178" style="stroke: green; stroke-width: 0.200000"/>
   <line x1="838.227173" y1="1153.357178" x2="802.951904" y2="1153.357178" style="stroke: green; stroke-width: 0.200000"/>
   <line x1="844.458740" y1="1152.357178" x2="843.303833" y2="1152.357178" style="stroke: green; stroke-width: 0.200000"/>
   <line x1="840.095276" y1="1152.357178" x2="802.627258" y2="1152.357178" style="stroke: green; stroke-width: 0.200000"/>
   <line x1="844.458740" y1="1151.357178" x2="802.276123" y2="1151.357178" style="stroke: green; stroke-width: 0.200000"/>
   <line x1="844.458740" y1="1150.357178" x2="801.783936" y2="1150.357178" style="stroke: green; stroke-width: 0.200000"/>
   <line x1="844.458740" y1="1149.357178" x2="801.291626" y2="1149.357178" style="stroke: green; stroke-width: 0.200000"/>
   <line x1="844.458740" y1="1148.357178" x2="800.799500" y2="1148.357178" style="stroke: green; stroke-width: 0.200000"/>
   <line x1="844.458740" y1="1147.357178" x2="800.307251" y2="1147.357178" style="stroke: green; stroke-width: 0.200000"/>
   <line x1="844.458740" y1="1146.357178" x2="799.815002" y2="1146.357178" style="stroke: green; stroke-width: 0.200000"/>
   <line x1="844.458740" y1="1145.357178" x2="799.322815" y2="1145.357178" style="stroke: green; stroke-width: 0.200000"/>
   <line x1="844.458740" y1="1144.357178" x2="798.830566" y2="1144.357178" style="stroke: green; stroke-width: 0.200000"/>
   <line x1="844.458740" y1="1143.357178" x2="798.338318" y2="1143.357178" style="stroke: green; stroke-width: 0.200000"/>
   <line x1="844.458740" y1="1142.357178" x2="797.872986" y2="1142.357178" style="stroke: green; stroke-width: 0.200000"/>
   <line x1="844.458740" y1="1141.357178" x2="797.472595" y2="1141.357178" style="stroke: green; stroke-width: 0.200000"/>
   <line x1="844.458740" y1="1140.357178" x2="797.072144" y2="1140.357178" style="stroke: green; stroke-width: 0.200000"/>
   <line x1="844.458740" y1="1139.357178" x2="796.817261" y2="1139.357178" style="stroke: green; stroke-width: 0.200000"/>
   <line x1="844.458740" y1="1138.357178" x2="796.566040" y2="1138.357178" style="stroke: green; stroke-width: 0.200000"/>
   <line x1="844.458740" y1="1137.357178" x2="796.314697" y2="1137.357178" style="stroke: green; stroke-width: 0.200000"/>
   <line x1="844.458740" y1="1136.357178" x2="796.063477" y2="1136.357178" style="stroke: green; stroke-width: 0.200000"/>
   <line x1="894.558716" y1="1185.357178" x2="874.890381" y2="1185.357178" style="stroke: green; stroke-width: 0.200000"/>
   <line x1="894.558716" y1="1184.357178" x2="873.356567" y2="1184.357178" style="stroke: green; stroke-width: 0.200000"/>
   <line x1="894.558716" y1="1183.357178" x2="871.970947" y2="1183.357178" style="stroke: green; stroke-width: 0.200000"/>
   <line x1="894.558716" y1="1182.357178" x2="870.874634" y2="1182.357178" style="stroke: green; stroke-width: 0.200000"/>
   <line x1="894.558716" y1="1181.357178" x2="869.778198" y2="1181.357178" style="stroke: green; stroke-width: 0.200000"/>
   <line x1="894.558716" y1="1180.357178" x2="868.681885" y2="1180.357178" style="stroke: green; stroke-width: 0.200000"/>
   <line x1="894.558716" y1="1179.357178" x2="867.429688" y2="1179.357178" style="stroke: green; stroke-width: 0.200000"/>
   <line x1="894.558716" y1="1178.357178" x2="866.002197" y2="1178.357178" style="stroke: green; stroke-width: 0.200000"/>
   <line x1="894.558716" y1="1177.357178" x2="864.574829" y2="1177.357178" style="stroke: green; stroke-width: 0.200000"/>
   <line x1="894.558716" y1="1176.357178" x2="863.425781" y2="1176.357178" style="stroke: green; stroke-width: 0.200000"/>
   <line x1="894.558716" y1="1175.357178" x2="862.659912" y2="1175.357178" style="stroke: green; stroke-width: 0.200000"/>
   <line x1="894.558716" y1="1174.357178" x2="861.894043" y2="1174.357178" style="stroke: green; stroke-width: 0.200000"/>
   <line x1="894.558716" y1="1173.357178" x2="861.128296" y2="1173.357178" style="stroke: green; stroke-width: 0.200000"/>
   <line x1="894.558716" y1="1172.357178" x2="860.330200" y2="1172.357178" style="stroke: green; stroke-width: 0.200000"/>
   <line x1="894.558716" y1="1171.357178" x2="859.500488" y2="1171.357178" style="stroke: green; stroke-width: 0.200000"/>
   <line x1="894.558716" y1="1170.357178" x2="858.670776" y2="1170.357178" style="stroke: green; stroke-width: 0.200000"/>
   <line x1="894.558716" y1="1169.357178" x2="857.841064" y2="1169.357178" style="stroke: green; stroke-width: 0.200000"/>
   <line x1="894.558716" y1="1168.357178" x2="857.011353" y2="1168.357178" style="stroke: green; stroke-width: 0.200000"/>
   <line x1="894.558716" y1="1167.357178" x2="856.181641" y2="1167.357178" style="stroke: green; stroke-width: 0.200000"/>
   <line x1="894.558716" y1="1166.357178" x2="855.351929" y2="1166.357178" style="stroke: green; stroke-width: 0.200000"/>
   <line x1="894.558716" y1="1165.357178" x2="854.096069" y2="1165.357178" style="stroke: green; stroke-width: 0.200000"/>
   <line x1="894.558716" y1="1164.357178" x2="853.447266" y2="1164.357178" style="stroke: green; stroke-width: 0.200000"/>
   <line x1="894.558716" y1="1163.357178" x2="853.082397" y2="1163.357178" style="stroke: green; stroke-width: 0.200000"/>
   <line x1="894.558716" y1="1162.357178" x2="852.717651" y2="1162.357178" style="stroke: green; stroke-width: 0.200000"/>
   <line x1="894.558716" y1="1161.357178" x2="852.352844" y2="1161.357178" style="stroke: green; stroke-width: 0.200000"/>
   <line x1="894.558716" y1="1160.357178" x2="851.987976" y2="1160.357178" style="stroke: green; stroke-width: 0.200000"/>
   <line x1="894.558716" y1="1159.357178" x2="851.623169" y2="1159.357178" style="stroke: green; stroke-width: 0.200000"/>
   <line x1="894.558716" y1="1158.357178" x2="851.258423" y2="1158.357178" style="stroke: green; stroke-width: 0.200000"/>
   <line x1="894.558716" y1="1157.357178" x2="850.865601" y2="1157.357178" style="stroke: green; stroke-width: 0.200000"/>
   <line x1="894.558716" y1="1156.357178" x2="849.353333" y2="1156.357178" style="stroke: green; stroke-width: 0.200000"/>
   <line x1="894.558716" y1="1155.357178" x2="847.840942" y2="1155.357178" style="stroke: green; stroke-width: 0.200000"/>
   <line x1="894.558716" y1="1154.357178" x2="846.328613" y2="1154.357178" style="stroke: green; stroke-width: 0.200000"/>
   <line x1="894.558716" y1="1153.357178" x2="844.816223" y2="1153.357178" style="stroke: green; stroke-width: 0.200000"/>
   <line x1="894.558716" y1="1152.357178" x2="844.558716" y2="1152.357178" style="stroke: green; stroke-width: 0.200000"/>
   <line x1="894.558716" y1="1151.357178" x2="844.558716" y2="1151.357178" style="stroke: green; stroke-width: 0.200000"/>
   <line x1="894.558716" y1="1150.357178" x2="844.558716" y2="1150.357178" style="stroke: green; stroke-width: 0.200000"/>
   <line x1="894.558716" y1="1149.357178" x2="844.558716" y2="1149.357178" style="stroke: green; stroke-width: 0.200000"/>
   <line x1="894.558716" y1="1148.357178" x2="844.558716" y2="1148.357178" style="stroke: green; stroke-width: 0.200000"/>
   <line x1="894.558716" y1="1147.357178" x2="844.558716" y2="1147.357178" style="stroke: green; stroke-width: 0.200000"/>
   <line x1="893.437988" y1="1146.357178" x2="844.558716" y2="1146.357178" style="stroke: green; stroke-width: 0.200000"/>
   <line x1="891.213623" y1="1145.357178" x2="844.558716" y2="1145.357178" style="stroke: green; stroke-width: 0.200000"/>
   <line x1="888.989502" y1="1144.357178" x2="844.558716" y2="1144.357178" style="stroke: green; stroke-width: 0.200000"/>
   <line x1="886.811401" y1="1143.357178" x2="844.558716" y2="1143.357178" style="stroke: green; stroke-width: 0.200000"/>
   <line x1="885.178772" y1="1142.357178" x2="844.558716" y2="1142.357178" style="stroke: green; stroke-width: 0.200000"/>
   <line x1="883.075928" y1="1141.357178" x2="844.558716" y2="1141.357178" style="stroke: green; stroke-width: 0.200000"/>
   <line x1="880.736755" y1="1140.357178" x2="844.558716" y2="1140.357178" style="stroke: green; stroke-width: 0.200000"/>
   <line x1="878.397583" y1="1139.357178" x2="844.558716" y2="1139.357178" style="stroke: green; stroke-width: 0.200000"/>
   <line x1="875.727844" y1="1138.357178" x2="844.558716" y2="1138.357178" style="stroke: green; stroke-width: 0.200000"/>
   <line x1="872.932739" y1="1137.357178" x2="844.558716" y2="1137.357178" style="stroke: green; stroke-width: 0.200000"/>
   <line x1="871.002502" y1="1136.357178" x2="844.558716" y2="1136.357178" style="stroke: green; stroke-width: 0.200000"/>
   <line x1="944.258057" y1="1185.357178" x2="894.658752" y2="1185.357178" style="stroke: green; stroke-width: 0.200000"/>
   <line x1="944.129883" y1="1184.357178" x2="894.658752" y2="1184.357178" style="stroke: green; stroke-width: 0.200000"/>
   <line x1="944.001526" y1="1183.357178" x2="894.658752" y2="1183.357178" style="stroke: green; stroke-width: 0.200000"/>
   <line x1="943.873230" y1="1182.357178" x2="894.658752" y2="1182.357178" style="stroke: green; stroke-width: 0.200000"/>
   <line x1="943.744995" y1="1181.357178" x2="894.658752" y2="1181.357178" style="stroke: green; stroke-width: 0.200000"/>
   <line x1="943.616638" y1="1180.357178" x2="894.658752" y2="1180.357178" style="stroke: green; stroke-width: 0.200000"/>
   <line x1="943.488281" y1="1179.357178" x2="894.658752" y2="1179.357178" style="stroke: green; stroke-width: 0.200000"/>
   <line x1="943.359985" y1="1178.357178" x2="894.658752" y2="1178.357178" style="stroke: green; stroke-width: 0.200000"/>
   <line x1="943.231750" y1="1177.357178" x2="894.658752" y2="1177.357178" style="stroke: green; stroke-width: 0.200000"/>
   <line x1="943.103394" y1="1176.357178" x2="894.658752" y2="1176.357178" style="stroke: green; stroke-width: 0.200000"/>
   <line x1="942.974915" y1="1175.357178" x2="894.658752" y2="1175.357178" style="stroke: green; stroke-width: 0.200000"/>
   <line x1="942.844543" y1="1174.357178" x2="894.658752" y2="1174.357178" style="stroke: green; stroke-width: 0.200000"/>
   <line x1="941.577820" y1="1173.357178" x2="894.658752" y2="1173.357178" style="stroke: green; stroke-width: 0.200000"/>
   <line x1="940.323547" y1="1172.357178" x2="894.658752" y2="1172.357178" style="stroke: green; stroke-width: 0.200000"/>
   <line x1="939.168335" y1="1171.357178" x2="894.658752" y2="1171.357178" style="stroke: green; stroke-width: 0.200000"/>
   <line x1="937.889954" y1="1170.357178" x2="894.658752" y2="1170.357178" style="stroke: green; stroke-width: 0.200000"/>
   <line x1="936.542297" y1="1169.357178" x2="894.658752" y2="1169.357178" style="stroke: green; stroke-width: 0.200000"/>
   <line x1="935.194580" y1="1168.357178" x2="894.658752" y2="1168.357178" style="stroke: green; stroke-width: 0.200000"/>
   <line x1="933.669312" y1="1167.357178" x2="894.658752" y2="1167.357178" style="stroke: green; stroke-width: 0.200000"/>
   <line x1="932.055420" y1="1166.357178" x2="894.658752" y2="1166.357178" style="stroke: green; stroke-width: 0.200000"/>
   <line x1="930.057251" y1="1165.357178" x2="894.658752" y2="1165.357178" style="stroke: green; stroke-width: 0.200000"/>
   <line x1="928.332581" y1="1164.357178" x2="894.658752" y2="1164.357178" style="stroke: green; stroke-width: 0.200000"/>
   <line x1="926.654968" y1="1163.357178" x2="894.658752" y2="1163.357178" style="stroke: green; stroke-width: 0.200000"/>
   <line x1="924.977783" y1="1162.357178" x2="894.658752" y2="1162.357178" style="stroke: green; stroke-width: 0.200000"/>
   <line x1="923.299194" y1="1161.357178" x2="894.658752" y2="1161.357178" style="stroke: green; stroke-width: 0.200000"/>
   <line x1="919.961548" y1="1160.357178" x2="894.658752" y2="1160.357178" style="stroke: green; stroke-width: 0.200000"/>
   <line x1="917.859619" y1="1159.357178" x2="894.658752" y2="1159.357178" style="stroke: green; stroke-width: 0.200000"/>
   <line x1="916.161255" y1="1158.357178" x2="894.658752" y2="1158.357178" style="stroke: green; stroke-width: 0.200000"/>
   <line x1="914.462952" y1="1157.357178" x2="894.658752" y2="1157.357178" style="stroke: green; stroke-width: 0.200000"/>
   <line x1="912.735535" y1="1156.357178" x2="894.658752" y2="1156.357178" style="stroke: green; stroke-width: 0.200000"/>
   <line x1="910.637085" y1="1155.357178" x2="894.658752" y2="1155.357178" style="stroke: green; stroke-width: 0.200000"/>
   <line x1="908.508789" y1="1154.357178" x2="894.658752" y2="1154.357178" style="stroke: green; stroke-width: 0.200000"/>
   <line x1="906.286621" y1="1153.357178" x2="894.658752" y2="1153.357178" style="stroke: green; stroke-width: 0.200000"/>
   <line x1="904.064392" y1="1152.357178" x2="894.658752" y2="1152.357178" style="stroke: green; stroke-width: 0.200000"/>
   <line x1="902.311951" y1="1151.357178" x2="894.658752" y2="1151.357178" style="stroke: green; stroke-width: 0.200000"/>
   <line x1="900.692383" y1="1150.357178" x2="894.658752" y2="1150.357178" style="stroke: green; stroke-width: 0.200000"/>
   <line x1="899.072754" y1="1149.357178" x2="894.658752" y2="1149.357178" style="stroke: green; stroke-width: 0.200000"/>
   <line x1="897.453308" y1="1148.357178" x2="894.658752" y2="1148.357178" style="stroke: green; stroke-width: 0.200000"/>
   <line x1="895.556030" y1="1147.357178" x2="894.658752" y2="1147.357178" style="stroke: green; stroke-width: 0.200000"/>
   <line x1="844.458740" y1="1235.357178" x2="801.534973" y2="1235.357178" style="stroke: green; stroke-width: 0.200000"/>
   <line x1="844.458740" y1="1234.357178" x2="801.286255" y2="1234.357178" style="stroke: green; stroke-width: 0.200000"/>
   <line x1="844.458740" y1="1233.357178" x2="801.028564" y2="1233.357178" style="stroke: green; stroke-width: 0.200000"/>
   <line x1="844.458740" y1="1232.357178" x2="800.770996" y2="1232.357178" style="stroke: green; stroke-width: 0.200000"/>
   <line x1="844.458740" y1="1231.357178" x2="800.528015" y2="1231.357178" style="stroke: green; stroke-width: 0.200000"/>
   <line x1="844.458740" y1="1230.357178" x2="800.504761" y2="1230.357178" style="stroke: green; stroke-width: 0.200000"/>
   <line x1="844.458740" y1="1229.357178" x2="800.399475" y2="1229.357178" style="stroke: green; stroke-width: 0.200000"/>
   <line x1="844.458740" y1="1228.357178" x2="800.241577" y2="1228.357178" style="stroke: green; stroke-width: 0.200000"/>
   <line x1="844.458740" y1="1227.357178" x2="800.083374" y2="1227.357178" style="stroke: green; stroke-width: 0.200000"/>
   <line x1="844.458740" y1="1226.357178" x2="799.925049" y2="1226.357178" style="stroke: green; stroke-width: 0.200000"/>
   <line x1="844.458740" y1="1225.357178" x2="799.766907" y2="1225.357178" style="stroke: green; stroke-width: 0.200000"/>
   <line x1="844.342346" y1="1224.357178" x2="799.608765" y2="1224.357178" style="stroke: green; stroke-width: 0.200000"/>
   <line x1="844.036255" y1="1223.357178" x2="799.450745" y2="1223.357178" style="stroke: green; stroke-width: 0.200000"/>
   <line x1="843.773743" y1="1222.357178" x2="799.292542" y2="1222.357178" style="stroke: green; stroke-width: 0.200000"/>
   <line x1="843.511292" y1="1221.357178" x2="799.302368" y2="1221.357178" style="stroke: green; stroke-width: 0.200000"/>
   <line x1="843.248840" y1="1220.357178" x2="799.513428" y2="1220.357178" style="stroke: green; stroke-width: 0.200000"/>
   <line x1="842.986389" y1="1219.357178" x2="799.636230" y2="1219.357178" style="stroke: green; stroke-width: 0.200000"/>
   <line x1="842.723877" y1="1218.357178" x2="799.636963" y2="1218.357178" style="stroke: green; stroke-width: 0.200000"/>
   <line x1="842.461426" y1="1217.357178" x2="799.637512" y2="1217.357178" style="stroke: green; stroke-width: 0.200000"/>
   <line x1="842.198975" y1="1216.357178" x2="799.638123" y2="1216.357178" style="stroke: green; stroke-width: 0.200000"/>
   <line x1="841.936401" y1="1215.357178" x2="799.638672" y2="1215.357178" style="stroke: green; stroke-width: 0.200000"/>
   <line x1="841.590881" y1="1214.357178" x2="799.639221" y2="1214.357178" style="stroke: green; stroke-width: 0.200000"/>
   <line x1="841.239502" y1="1213.357178" x2="799.639832" y2="1213.357178" style="stroke: green; stroke-width: 0.200000"/>
   <line x1="840.888123" y1="1212.357178" x2="799.640381" y2="1212.357178" style="stroke: green; stroke-width: 0.200000"/>
   <line x1="840.536865" y1="1211.357178" x2="799.688110" y2="1211.357178" style="stroke: green; stroke-width: 0.200000"/>
   <line x1="840.185547" y1="1210.357178" x2="799.775513" y2="1210.357178" style="stroke: green; stroke-width: 0.200000"/>
   <line x1="839.818726" y1="1209.357178" x2="799.810303" y2="1209.357178" style="stroke: green; stroke-width: 0.200000"/>
   <line x1="839.437744" y1="1208.357178" x2="799.753784" y2="1208.357178" style="stroke: green; stroke-width: 0.200000"/>
   <line x1="839.056702" y1="1207.357178" x2="799.987854" y2="1207.357178" style="stroke: green; stroke-width: 0.200000"/>
   <line x1="838.675659" y1="1206.357178" x2="800.221863" y2="1206.357178" style="stroke: green; stroke-width: 0.200000"/>
   <line x1="838.294678" y1="1205.357178" x2="800.455872" y2="1205.357178" style="stroke: green; stroke-width: 0.200000"/>
   <line x1="837.913696" y1="1204.357178" x2="800.689819" y2="1204.357178" style="stroke: green; stroke-width: 0.200000"/>
   <line x1="837.532654" y1="1203.357178" x2="800.923950" y2="1203.357178" style="stroke: green; stroke-width: 0.200000"/>
   <line x1="837.151550" y1="1202.357178" x2="801.157898" y2="1202.357178" style="stroke: green; stroke-width: 0.200000"/>
   <line x1="836.770569" y1="1201.357178" x2="801.391907" y2="1201.357178" style="stroke: green; stroke-width: 0.200000"/>
   <line x1="836.389526" y1="1200.357178" x2="801.625916" y2="1200.357178" style="stroke: green; stroke-width: 0.200000"/>
   <line x1="836.008545" y1="1199.357178" x2="801.753479" y2="1199.357178" style="stroke: green; stroke-width: 0.200000"/>
   <line x1="835.627502" y1="1198.357178" x2="801.815918" y2="1198.357178" style="stroke: green; stroke-width: 0.200000"/>
   <line x1="835.246460" y1="1197.357178" x2="801.878418" y2="1197.357178" style="stroke: green; stroke-width: 0.200000"/>
   <line x1="834.865417" y1="1196.357178" x2="801.940918" y2="1196.357178" style="stroke: green; stroke-width: 0.200000"/>
   <line x1="834.606567" y1="1195.357178" x2="802.003235" y2="1195.357178" style="stroke: green; stroke-width: 0.200000"/>
   <line x1="834.388977" y1="1194.357178" x2="802.065735" y2="1194.357178" style="stroke: green; stroke-width: 0.200000"/>
   <line x1="834.099854" y1="1193.357178" x2="802.128235" y2="1193.357178" style="stroke: green; stroke-width: 0.200000"/>
   <line x1="833.810791" y1="1192.357178" x2="802.596313" y2="1192.357178" style="stroke: green; stroke-width: 0.200000"/>
   <line x1="833.521729" y1="1191.357178" x2="803.065735" y2="1191.357178" style="stroke: green; stroke-width: 0.200000"/>
   <line x1="833.232727" y1="1190.357178" x2="803.515503" y2="1190.357178" style="stroke: green; stroke-width: 0.200000"/>
   <line x1="832.919250" y1="1189.357178" x2="803.654297" y2="1189.357178" style="stroke: green; stroke-width: 0.200000"/>
   <line x1="832.592529" y1="1188.357178" x2="803.793213" y2="1188.357178" style="stroke: green; stroke-width: 0.200000"/>
   <line x1="832.265869" y1="1187.357178" x2="803.932007" y2="1187.357178" style="stroke: green; stroke-width: 0.200000"/>
   <line x1="831.939087" y1="1186.357178" x2="804.070984" y2="1186.357178" style="stroke: green; stroke-width: 0.200000"/>
   <line x1="846.465454" y1="1235.357178" x2="844.558716" y2="1235.357178" style="stroke: green; stroke-width: 0.200000"/>
   <line x1="846.364380" y1="1234.357178" x2="844.558716" y2="1234.357178" style="stroke: green; stroke-width: 0.200000"/>
   <line x1="846.214661" y1="1233.357178" x2="844.558716" y2="1233.357178" style="stroke: green; stroke-width: 0.200000"/>
   <line x1="846.034180" y1="1232.357178" x2="844.558716" y2="1232.357178" style="stroke: green; stroke-width: 0.200000"/>
   <line x1="845.853577" y1="1231.357178" x2="844.558716" y2="1231.357178" style="stroke: green; stroke-width: 0.200000"/>
   <line x1="845.672974" y1="1230.357178" x2="844.558716" y2="1230.357178" style="stroke: green; stroke-width: 0.200000"/>
   <line x1="845.492432" y1="1229.357178" x2="844.558716" y2="1229.357178" style="stroke: green; stroke-width: 0.200000"/>
   <line x1="845.311829" y1="1228.357178" x2="844.558716" y2="1228.357178" style="stroke: green; stroke-width: 0.200000"/>
   <line x1="845.131165" y1="1227.357178" x2="844.558716" y2="1227.357178" style="stroke: green; stroke-width: 0.200000"/>
   <line x1="844.950562" y1="1226.357178" x2="844.558716" y2="1226.357178" style="stroke: green; stroke-width: 0.200000"/>
   <line x1="844.657471" y1="1225.357178" x2="844.558716" y2="1225.357178" style="stroke: green; stroke-width: 0.200000"/>
   <line x1="894.558716" y1="1196.357178" x2="893.126831" y2="1196.357178" style="stroke: green; stroke-width: 0.200000"/>
   <line x1="894.558716" y1="1195.357178" x2="890.892822" y2="1195.357178" style="stroke: green; stroke-width: 0.200000"/>
   <line x1="894.558716" y1="1194.357178" x2="888.904907" y2="1194.357178" style="stroke: green; stroke-width: 0.200000"/>
   <line x1="894.558716" y1="1193.357178" x2="887.478027" y2="1193.357178" style="stroke: green; stroke-width: 0.200000"/>
   <line x1="894.558716" y1="1192.357178" x2="885.809998" y2="1192.357178" style="stroke: green; stroke-width: 0.200000"/>
   <line x1="894.558716" y1="1191.357178" x2="884.050171" y2="1191.357178" style="stroke: green; stroke-width: 0.200000"/>
   <line x1="894.558716" y1="1190.357178" x2="882.290100" y2="1190.357178" style="stroke: green; stroke-width: 0.200000"/>
   <line x1="894.558716" y1="1189.357178" x2="880.530396" y2="1189.357178" style="stroke: green; stroke-width: 0.200000"/>
   <line x1="894.558716" y1="1188.357178" x2="879.175415" y2="1188.357178" style="stroke: green; stroke-width: 0.200000"/>
   <line x1="894.558716" y1="1187.357178" x2="877.827087" y2="1187.357178" style="stroke: green; stroke-width: 0.200000"/>
   <line x1="894.558716" y1="1186.357178" x2="876.424255" y2="1186.357178" style="stroke: green; stroke-width: 0.200000"/>
   <line x1="925.338257" y1="1207.357178" x2="925.128418" y2="1207.357178" style="stroke: green; stroke-width: 0.200000"/>
   <line x1="925.268921" y1="1206.357178" x2="920.027100" y2="1206.357178" style="stroke: green; stroke-width: 0.200000"/>
   <line x1="925.199707" y1="1205.357178" x2="914.864502" y2="1205.357178" style="stroke: green; stroke-width: 0.200000"/>
   <line x1="925.130493" y1="1204.357178" x2="912.299438" y2="1204.357178" style="stroke: green; stroke-width: 0.200000"/>
   <line x1="925.061157" y1="1203.357178" x2="909.734009" y2="1203.357178" style="stroke: green; stroke-width: 0.200000"/>
   <line x1="924.991943" y1="1202.357178" x2="907.168701" y2="1202.357178" style="stroke: green; stroke-width: 0.200000"/>
   <line x1="924.922607" y1="1201.357178" x2="904.573425" y2="1201.357178" style="stroke: green; stroke-width: 0.200000"/>
   <line x1="924.853394" y1="1200.357178" x2="901.930420" y2="1200.357178" style="stroke: green; stroke-width: 0.200000"/>
   <line x1="928.171692" y1="1199.357178" x2="899.527222" y2="1199.357178" style="stroke: green; stroke-width: 0.200000"/>
   <line x1="932.973999" y1="1198.357178" x2="897.510254" y2="1198.357178" style="stroke: green; stroke-width: 0.200000"/>
   <line x1="937.851501" y1="1197.357178" x2="895.360840" y2="1197.357178" style="stroke: green; stroke-width: 0.200000"/>
   <line x1="943.586548" y1="1196.357178" x2="894.658752" y2="1196.357178" style="stroke: green; stroke-width: 0.200000"/>
   <line x1="944.658752" y1="1195.357178" x2="894.658752" y2="1195.357178" style="stroke: green; stroke-width: 0.200000"/>
   <line x1="944.658752" y1="1194.357178" x2="894.658752" y2="1194.357178" style="stroke: green; stroke-width: 0.200000"/>
   <line x1="944.658752" y1="1193.357178" x2="894.658752" y2="1193.357178" style="stroke: green; stroke-width: 0.200000"/>
   <line x1="944.658752" y1="1192.357178" x2="894.658752" y2="1192.357178" style="stroke: green; stroke-width: 0.200000"/>
   <line x1="944.658752" y1="1191.357178" x2="894.658752" y2="1191.357178" style="stroke: green; stroke-width: 0.200000"/>
   <line x1="944.658752" y1="1190.357178" x2="894.658752" y2="1190.357178" style="stroke: green; stroke-width: 0.200000"/>
   <line x1="944.658752" y1="1189.357178" x2="894.658752" y2="1189.357178" style="stroke: green; stroke-width: 0.200000"/>
   <line x1="944.642944" y1="1188.357178" x2="894.658752" y2="1188.357178" style="stroke: green; stroke-width: 0.200000"/>
   <line x1="944.514709" y1="1187.357178" x2="894.658752" y2="1187.357178" style="stroke: green; stroke-width: 0.200000"/>
   <line x1="944.386353" y1="1186.357178" x2="894.658752" y2="1186.357178" style="stroke: green; stroke-width: 0.200000"/>
   <line x1="944.963623" y1="1195.357178" x2="944.758789" y2="1195.357178" style="stroke: green; stroke-width: 0.200000"/>
   <line x1="945.817322" y1="1194.357178" x2="944.758789" y2="1194.357178" style="stroke: green; stroke-width: 0.200000"/>
   <line x1="946.671204" y1="1193.357178" x2="944.758789" y2="1193.357178" style="stroke: green; stroke-width: 0.200000"/>
   <line x1="946.967102" y1="1192.357178" x2="944.758789" y2="1192.357178" style="stroke: green; stroke-width: 0.200000"/>
   <line x1="946.249634" y1="1191.357178" x2="944.758789" y2="1191.357178" style="stroke: green; stroke-width: 0.200000"/>
   <line x1="945.532166" y1="1190.357178" x2="944.758789" y2="1190.357178" style="stroke: green; stroke-width: 0.200000"/>
   <line x1="944.814697" y1="1189.357178" x2="944.758789" y2="1189.357178" style="stroke: green; stroke-width: 0.200000"/>
   <line x1="844.458740" y1="1285.357178" x2="811.971497" y2="1285.357178" style="stroke: green; stroke-width: 0.200000"/>
   <line x1="844.458740" y1="1284.357178" x2="811.845154" y2="1284.357178" style="stroke: green; stroke-width: 0.200000"/>
   <line x1="844.458740" y1="1283.357178" x2="811.722107" y2="1283.357178" style="stroke: green; stroke-width: 0.200000"/>
   <line x1="844.458740" y1="1282.357178" x2="811.598999" y2="1282.357178" style="stroke: green; stroke-width: 0.200000"/>
   <line x1="844.458740" y1="1281.357178" x2="811.475891" y2="1281.357178" style="stroke: green; stroke-width: 0.200000"/>
   <line x1="844.458740" y1="1280.357178" x2="811.345276" y2="1280.357178" style="stroke: green; stroke-width: 0.200000"/>
   <line x1="844.458740" y1="1279.357178" x2="811.190186" y2="1279.357178" style="stroke: green; stroke-width: 0.200000"/>
   <line x1="844.458740" y1="1278.357178" x2="811.035034" y2="1278.357178" style="stroke: green; stroke-width: 0.200000"/>
   <line x1="844.458740" y1="1277.357178" x2="810.879883" y2="1277.357178" style="stroke: green; stroke-width: 0.200000"/>
   <line x1="844.458740" y1="1276.357178" x2="810.724792" y2="1276.357178" style="stroke: green; stroke-width: 0.200000"/>
   <line x1="844.458740" y1="1275.357178" x2="810.597046" y2="1275.357178" style="stroke: green; stroke-width: 0.200000"/>
   <line x1="844.458740" y1="1274.357178" x2="810.498779" y2="1274.357178" style="stroke: green; stroke-width: 0.200000"/>
   <line x1="844.458740" y1="1273.357178" x2="810.400452" y2="1273.357178" style="stroke: green; stroke-width: 0.200000"/>
   <line x1="844.458740" y1="1272.357178" x2="810.302185" y2="1272.357178" style="stroke: green; stroke-width: 0.200000"/>
   <line x1="844.458740" y1="1271.357178" x2="810.203918" y2="1271.357178" style="stroke: green; stroke-width: 0.200000"/>
   <line x1="844.458740" y1="1270.357178" x2="810.105652" y2="1270.357178" style="stroke: green; stroke-width: 0.200000"/>
   <line x1="844.458740" y1="1269.357178" x2="810.007385" y2="1269.357178" style="stroke: green; stroke-width: 0.200000"/>
   <line x1="844.458740" y1="1268.357178" x2="809.909058" y2="1268.357178" style="stroke: green; stroke-width: 0.200000"/>
   <line x1="844.458740" y1="1267.357178" x2="809.797302" y2="1267.357178" style="stroke: green; stroke-width: 0.200000"/>
   <line x1="844.458740" y1="1266.357178" x2="809.674744" y2="1266.357178" style="stroke: green; stroke-width: 0.200000"/>
   <line x1="844.458740" y1="1265.357178" x2="809.552307" y2="1265.357178" style="stroke: green; stroke-width: 0.200000"/>
   <line x1="844.458740" y1="1264.357178" x2="809.356934" y2="1264.357178" style="stroke: green; stroke-width: 0.200000"/>
   <line x1="844.458740" y1="1263.357178" x2="809.140381" y2="1263.357178" style="stroke: green; stroke-width: 0.200000"/>
   <line x1="844.458740" y1="1262.357178" x2="808.924011" y2="1262.357178" style="stroke: green; stroke-width: 0.200000"/>
   <line x1="844.458740" y1="1261.357178" x2="808.707520" y2="1261.357178" style="stroke: green; stroke-width: 0.200000"/>
   <line x1="844.458740" y1="1260.357178" x2="808.490967" y2="1260.357178" style="stroke: green; stroke-width: 0.200000"/>
   <line x1="844.458740" y1="1259.357178" x2="808.274475" y2="1259.357178" style="stroke: green; stroke-width: 0.200000"/>
   <line x1="844.458740" y1="1258.357178" x2="808.057983" y2="1258.357178" style="stroke: green; stroke-width: 0.200000"/>
   <line x1="844.458740" y1="1257.357178" x2="807.832336" y2="1257.357178" style="stroke: green; stroke-width: 0.200000"/>
   <line x1="844.458740" y1="1256.357178" x2="807.502991" y2="1256.357178" style="stroke: green; stroke-width: 0.200000"/>
   <line x1="844.458740" y1="1255.357178" x2="807.173523" y2="1255.357178" style="stroke: green; stroke-width: 0.200000"/>
   <line x1="844.458740" y1="1254.357178" x2="806.905457" y2="1254.357178" style="stroke: green; stroke-width: 0.200000"/>
   <line x1="844.458740" y1="1253.357178" x2="806.645508" y2="1253.357178" style="stroke: green; stroke-width: 0.200000"/>
   <line x1="844.458740" y1="1252.357178" x2="806.385620" y2="1252.357178" style="stroke: green; stroke-width: 0.200000"/>
   <line x1="844.458740" y1="1251.357178" x2="806.125732" y2="1251.357178" style="stroke: green; stroke-width: 0.200000"/>
   <line x1="844.458740" y1="1250.357178" x2="805.865784" y2="1250.357178" style="stroke: green; stroke-width: 0.200000"/>
   <line x1="844.458740" y1="1249.357178" x2="805.605957" y2="1249.357178" style="stroke: green; stroke-width: 0.200000"/>
   <line x1="844.458740" y1="1248.357178" x2="805.346008" y2="1248.357178" style="stroke: green; stroke-width: 0.200000"/>
   <line x1="844.458740" y1="1247.357178" x2="805.036316" y2="1247.357178" style="stroke: green; stroke-width: 0.200000"/>
   <line x1="844.458740" y1="1246.357178" x2="804.715454" y2="1246.357178" style="stroke: green; stroke-width: 0.200000"/>
   <line x1="844.458740" y1="1245.357178" x2="804.394531" y2="1245.357178" style="stroke: green; stroke-width: 0.200000"/>
   <line x1="844.458740" y1="1244.357178" x2="804.073608" y2="1244.357178" style="stroke: green; stroke-width: 0.200000"/>
   <line x1="844.458740" y1="1243.357178" x2="803.752747" y2="1243.357178" style="stroke: green; stroke-width: 0.200000"/>
   <line x1="844.458740" y1="1242.357178" x2="803.431885" y2="1242.357178" style="stroke: green; stroke-width: 0.200000"/>
   <line x1="844.458740" y1="1241.357178" x2="803.089600" y2="1241.357178" style="stroke: green; stroke-width: 0.200000"/>
   <line x1="844.458740" y1="1240.357178" x2="802.746887" y2="1240.357178" style="stroke: green; stroke-width: 0.200000"/>
   <line x1="844.458740" y1="1239.357178" x2="802.474731" y2="1239.357178" style="stroke: green; stroke-width: 0.200000"/>
   <line x1="844.458740" y1="1238.357178" x2="802.239868" y2="1238.357178" style="stroke: green; stroke-width: 0.200000"/>
   <line x1="844.458740" y1="1237.357178" x2="802.004883" y2="1237.357178" style="stroke: green; stroke-width: 0.200000"/>
   <line x1="844.458740" y1="1236.357178" x2="801.769897" y2="1236.357178" style="stroke: green; stroke-width: 0.200000"/>
   <line x1="845.950806" y1="1285.357178" x2="844.558716" y2="1285.357178" style="stroke: green; stroke-width: 0.200000"/>
   <line x1="846.094666" y1="1284.357178" x2="844.558716" y2="1284.357178" style="stroke: green; stroke-width: 0.200000"/>
   <line x1="846.238464" y1="1283.357178" x2="844.558716" y2="1283.357178" style="stroke: green; stroke-width: 0.200000"/>
   <line x1="846.382385" y1="1282.357178" x2="844.558716" y2="1282.357178" style="stroke: green; stroke-width: 0.200000"/>
   <line x1="846.526184" y1="1281.357178" x2="844.558716" y2="1281.357178" style="stroke: green; stroke-width: 0.200000"/>
   <line x1="846.670044" y1="1280.357178" x2="844.558716" y2="1280.357178" style="stroke: green; stroke-width: 0.200000"/>
   <line x1="846.813965" y1="1279.357178" x2="844.558716" y2="1279.357178" style="stroke: green; stroke-width: 0.200000"/>
   <line x1="846.957764" y1="1278.357178" x2="844.558716" y2="1278.357178" style="stroke: green; stroke-width: 0.200000"/>
   <line x1="847.101685" y1="1277.357178" x2="844.558716" y2="1277.357178" style="stroke: green; stroke-width: 0.200000"/>
   <line x1="847.228943" y1="1276.357178" x2="844.558716" y2="1276.357178" style="stroke: green; stroke-width: 0.200000"/>
   <line x1="847.351807" y1="1275.357178" x2="844.558716" y2="1275.357178" style="stroke: green; stroke-width: 0.200000"/>
   <line x1="847.396484" y1="1274.357178" x2="844.558716" y2="1274.357178" style="stroke: green; stroke-width: 0.200000"/>
   <line x1="847.427734" y1="1273.357178" x2="844.558716" y2="1273.357178" style="stroke: green; stroke-width: 0.200000"/>
   <line x1="847.458984" y1="1272.357178" x2="844.558716" y2="1272.357178" style="stroke: green; stroke-width: 0.200000"/>
   <line x1="847.490173" y1="1271.357178" x2="844.558716" y2="1271.357178" style="stroke: green; stroke-width: 0.200000"/>
   <line x1="847.521301" y1="1270.357178" x2="844.558716" y2="1270.357178" style="stroke: green; stroke-width: 0.200000"/>
   <line x1="847.552490" y1="1269.357178" x2="844.558716" y2="1269.357178" style="stroke: green; stroke-width: 0.200000"/>
   <line x1="847.583679" y1="1268.357178" x2="844.558716" y2="1268.357178" style="stroke: green; stroke-width: 0.200000"/>
   <line x1="847.614807" y1="1267.357178" x2="844.558716" y2="1267.357178" style="stroke: green; stroke-width: 0.200000"/>
   <line x1="847.645996" y1="1266.357178" x2="844.558716" y2="1266.357178" style="stroke: green; stroke-width: 0.200000"/>
   <line x1="847.672852" y1="1265.357178" x2="844.558716" y2="1265.357178" style="stroke: green; stroke-width: 0.200000"/>
   <line x1="847.698486" y1="1264.357178" x2="844.558716" y2="1264.357178" style="stroke: green; stroke-width: 0.200000"/>
   <line x1="847.724243" y1="1263.357178" x2="844.558716" y2="1263.357178" style="stroke: green; stroke-width: 0.200000"/>
   <line x1="847.749939" y1="1262.357178" x2="844.558716" y2="1262.357178" style="stroke: green; stroke-width: 0.200000"/>
   <line x1="847.775635" y1="1261.357178" x2="844.558716" y2="1261.357178" style="stroke: green; stroke-width: 0.200000"/>
   <line x1="847.801392" y1="1260.357178" x2="844.558716" y2="1260.357178" style="stroke: green; stroke-width: 0.200000"/>
   <line x1="847.827087" y1="1259.357178" x2="844.558716" y2="1259.357178" style="stroke: green; stroke-width: 0.200000"/>
   <line x1="847.852783" y1="1258.357178" x2="844.558716" y2="1258.357178" style="stroke: green; stroke-width: 0.200000"/>
   <line x1="847.878479" y1="1257.357178" x2="844.558716" y2="1257.357178" style="stroke: green; stroke-width: 0.200000"/>
   <line x1="847.904175" y1="1256.357178" x2="844.558716" y2="1256.357178" style="stroke: green; stroke-width: 0.200000"/>
   <line x1="847.914368" y1="1255.357178" x2="844.558716" y2="1255.357178" style="stroke: green; stroke-width: 0.200000"/>
   <line x1="847.852173" y1="1254.357178" x2="844.558716" y2="1254.357178" style="stroke: green; stroke-width: 0.200000"/>
   <line x1="847.789978" y1="1253.357178" x2="844.558716" y2="1253.357178" style="stroke: green; stroke-width: 0.200000"/>
   <line x1="847.727783" y1="1252.357178" x2="844.558716" y2="1252.357178" style="stroke: green; stroke-width: 0.200000"/>
   <line x1="847.665771" y1="1251.357178" x2="844.558716" y2="1251.357178" style="stroke: green; stroke-width: 0.200000"/>
   <line x1="847.603638" y1="1250.357178" x2="844.558716" y2="1250.357178" style="stroke: green; stroke-width: 0.200000"/>
   <line x1="847.541382" y1="1249.357178" x2="844.558716" y2="1249.357178" style="stroke: green; stroke-width: 0.200000"/>
   <line x1="847.479187" y1="1248.357178" x2="844.558716" y2="1248.357178" style="stroke: green; stroke-width: 0.200000"/>
   <line x1="847.417053" y1="1247.357178" x2="844.558716" y2="1247.357178" style="stroke: green; stroke-width: 0.200000"/>
   <line x1="847.353455" y1="1246.357178" x2="844.558716" y2="1246.357178" style="stroke: green; stroke-width: 0.200000"/>
   <line x1="847.274658" y1="1245.357178" x2="844.558716" y2="1245.357178" style="stroke: green; stroke-width: 0.200000"/>
   <line x1="847.195801" y1="1244.357178" x2="844.558716" y2="1244.357178" style="stroke: green; stroke-width: 0.200000"/>
   <line x1="847.117004" y1="1243.357178" x2="844.558716" y2="1243.357178" style="stroke: green; stroke-width: 0.200000"/>
   <line x1="847.038086" y1="1242.357178" x2="844.558716" y2="1242.357178" style="stroke: green; stroke-width: 0.200000"/>
   <line x1="846.959290" y1="1241.357178" x2="844.558716" y2="1241.357178" style="stroke: green; stroke-width: 0.200000"/>
   <line x1="846.880493" y1="1240.357178" x2="844.558716" y2="1240.357178" style="stroke: green; stroke-width: 0.200000"/>
   <line x1="846.801697" y1="1239.357178" x2="844.558716" y2="1239.357178" style="stroke: green; stroke-width: 0.200000"/>
   <line x1="846.722778" y1="1238.357178" x2="844.558716" y2="1238.357178" style="stroke: green; stroke-width: 0.200000"/>
   <line x1="846.643982" y1="1237.357178" x2="844.558716" y2="1237.357178" style="stroke: green; stroke-width: 0.200000"/>
   <line x1="846.565186" y1="1236.357178" x2="844.558716" y2="1236.357178" style="stroke: green; stroke-width: 0.200000"/>
   <line x1="836.756226" y1="1334.357178" x2="833.387573" y2="1334.357178" style="stroke: green; stroke-width: 0.200000"/>
   <line x1="836.868896" y1="1333.357178" x2="827.297058" y2="1333.357178" style="stroke: green; stroke-width: 0.200000"/>
   <line x1="836.981567" y1="1332.357178" x2="821.312256" y2="1332.357178" style="stroke: green; stroke-width: 0.200000"/>
   <line x1="837.094177" y1="1331.357178" x2="820.574646" y2="1331.357178" style="stroke: green; stroke-width: 0.200000"/>
   <line x1="837.206909" y1="1330.357178" x2="820.138611" y2="1330.357178" style="stroke: green; stroke-width: 0.200000"/>
   <line x1="837.319580" y1="1329.357178" x2="819.890503" y2="1329.357178" style="stroke: green; stroke-width: 0.200000"/>
   <line x1="837.432190" y1="1328.357178" x2="819.642029" y2="1328.357178" style="stroke: green; stroke-width: 0.200000"/>
   <line x1="837.544861" y1="1327.357178" x2="819.393982" y2="1327.357178" style="stroke: green; stroke-width: 0.200000"/>
   <line x1="837.676758" y1="1326.357178" x2="819.145874" y2="1326.357178" style="stroke: green; stroke-width: 0.200000"/>
   <line x1="837.821533" y1="1325.357178" x2="818.897827" y2="1325.357178" style="stroke: green; stroke-width: 0.200000"/>
   <line x1="837.966248" y1="1324.357178" x2="818.649902" y2="1324.357178" style="stroke: green; stroke-width: 0.200000"/>
   <line x1="838.111023" y1="1323.357178" x2="818.401733" y2="1323.357178" style="stroke: green; stroke-width: 0.200000"/>
   <line x1="838.318176" y1="1322.357178" x2="818.178650" y2="1322.357178" style="stroke: green; stroke-width: 0.200000"/>
   <line x1="838.527893" y1="1321.357178" x2="818.005859" y2="1321.357178" style="stroke: green; stroke-width: 0.200000"/>
   <line x1="838.737671" y1="1320.357178" x2="817.833008" y2="1320.357178" style="stroke: green; stroke-width: 0.200000"/>
   <line x1="838.947388" y1="1319.357178" x2="817.660156" y2="1319.357178" style="stroke: green; stroke-width: 0.200000"/>
   <line x1="839.157104" y1="1318.357178" x2="817.487488" y2="1318.357178" style="stroke: green; stroke-width: 0.200000"/>
   <line x1="839.366821" y1="1317.357178" x2="817.314697" y2="1317.357178" style="stroke: green; stroke-width: 0.200000"/>
   <line x1="839.576538" y1="1316.357178" x2="817.141846" y2="1316.357178" style="stroke: green; stroke-width: 0.200000"/>
   <line x1="839.786316" y1="1315.357178" x2="816.969055" y2="1315.357178" style="stroke: green; stroke-width: 0.200000"/>
   <line x1="839.996033" y1="1314.357178" x2="816.796326" y2="1314.357178" style="stroke: green; stroke-width: 0.200000"/>
   <line x1="840.194092" y1="1313.357178" x2="816.623535" y2="1313.357178" style="stroke: green; stroke-width: 0.200000"/>
   <line x1="840.425720" y1="1312.357178" x2="816.450745" y2="1312.357178" style="stroke: green; stroke-width: 0.200000"/>
   <line x1="840.670837" y1="1311.357178" x2="816.268250" y2="1311.357178" style="stroke: green; stroke-width: 0.200000"/>
   <line x1="840.916016" y1="1310.357178" x2="816.084534" y2="1310.357178" style="stroke: green; stroke-width: 0.200000"/>
   <line x1="841.161133" y1="1309.357178" x2="815.900757" y2="1309.357178" style="stroke: green; stroke-width: 0.200000"/>
   <line x1="841.406189" y1="1308.357178" x2="815.717102" y2="1308.357178" style="stroke: green; stroke-width: 0.200000"/>
   <line x1="841.651306" y1="1307.357178" x2="815.533325" y2="1307.357178" style="stroke: green; stroke-width: 0.200000"/>
   <line x1="841.896423" y1="1306.357178" x2="815.349609" y2="1306.357178" style="stroke: green; stroke-width: 0.200000"/>
   <line x1="842.146973" y1="1305.357178" x2="815.165771" y2="1305.357178" style="stroke: green; stroke-width: 0.200000"/>
   <line x1="842.412170" y1="1304.357178" x2="814.982056" y2="1304.357178" style="stroke: green; stroke-width: 0.200000"/>
   <line x1="842.677368" y1="1303.357178" x2="814.841553" y2="1303.357178" style="stroke: green; stroke-width: 0.200000"/>
   <line x1="842.942566" y1="1302.357178" x2="814.707397" y2="1302.357178" style="stroke: green; stroke-width: 0.200000"/>
   <line x1="843.207764" y1="1301.357178" x2="814.573242" y2="1301.357178" style="stroke: green; stroke-width: 0.200000"/>
   <line x1="843.472961" y1="1300.357178" x2="814.438965" y2="1300.357178" style="stroke: green; stroke-width: 0.200000"/>
   <line x1="843.738159" y1="1299.357178" x2="814.304810" y2="1299.357178" style="stroke: green; stroke-width: 0.200000"/>
   <line x1="843.998962" y1="1298.357178" x2="814.170593" y2="1298.357178" style="stroke: green; stroke-width: 0.200000"/>
   <line x1="844.239441" y1="1297.357178" x2="814.036499" y2="1297.357178" style="stroke: green; stroke-width: 0.200000"/>
   <line x1="844.458740" y1="1296.357178" x2="813.902283" y2="1296.357178" style="stroke: green; stroke-width: 0.200000"/>
   <line x1="844.458740" y1="1295.357178" x2="813.768188" y2="1295.357178" style="stroke: green; stroke-width: 0.200000"/>
   <line x1="844.458740" y1="1294.357178" x2="813.612549" y2="1294.357178" style="stroke: green; stroke-width: 0.200000"/>
   <line x1="844.458740" y1="1293.357178" x2="813.430115" y2="1293.357178" style="stroke: green; stroke-width: 0.200000"/>
   <line x1="844.458740" y1="1292.357178" x2="813.247742" y2="1292.357178" style="stroke: green; stroke-width: 0.200000"/>
   <line x1="844.458740" y1="1291.357178" x2="813.065430" y2="1291.357178" style="stroke: green; stroke-width: 0.200000"/>
   <line x1="844.458740" y1="1290.357178" x2="812.883057" y2="1290.357178" style="stroke: green; stroke-width: 0.200000"/>
   <line x1="844.458740" y1="1289.357178" x2="812.700806" y2="1289.357178" style="stroke: green; stroke-width: 0.200000"/>
   <line x1="844.458740" y1="1288.357178" x2="812.518433" y2="1288.357178" style="stroke: green; stroke-width: 0.200000"/>
   <line x1="844.458740" y1="1287.357178" x2="812.336182" y2="1287.357178" style="stroke: green; stroke-width: 0.200000"/>
   <line x1="844.458740" y1="1286.357178" x2="812.153870" y2="1286.357178" style="stroke: green; stroke-width: 0.200000"/>
   <line x1="844.720398" y1="1295.357178" x2="844.558716" y2="1295.357178" style="stroke: green; stroke-width: 0.200000"/>
   <line x1="844.960876" y1="1294.357178" x2="844.558716" y2="1294.357178" style="stroke: green; stroke-width: 0.200000"/>
   <line x1="845.123962" y1="1293.357178" x2="844.558716" y2="1293.357178" style="stroke: green; stroke-width: 0.200000"/>
   <line x1="845.224609" y1="1292.357178" x2="844.558716" y2="1292.357178" style="stroke: green; stroke-width: 0.200000"/>
   <line x1="845.325317" y1="1291.357178" x2="844.558716" y2="1291.357178" style="stroke: green; stroke-width: 0.200000"/>
   <line x1="845.426025" y1="1290.357178" x2="844.558716" y2="1290.357178" style="stroke: green; stroke-width: 0.200000"/>
   <line x1="845.526733" y1="1289.357178" x2="844.558716" y2="1289.357178" style="stroke: green; stroke-width: 0.200000"/>
   <line x1="845.627441" y1="1288.357178" x2="844.558716" y2="1288.357178" style="stroke: green; stroke-width: 0.200000"/>
   <line x1="845.728149" y1="1287.357178" x2="844.558716" y2="1287.357178" style="stroke: green; stroke-width: 0.200000"/>
   <line x1="845.828857" y1="1286.357178" x2="844.558716" y2="1286.357178" style="stroke: green; stroke-width: 0.200000"/>
   <line x1="833.574463" y1="1344.167725" x2="828.143921" y2="1344.167725" style="stroke: green; stroke-width: 0.200000"/>
   <line x1="833.961121" y1="1343.167725" x2="825.626343" y2="1343.167725" style="stroke: green; stroke-width: 0.200000"/>
   <line x1="834.326904" y1="1342.167847" x2="825.280640" y2="1342.167847" style="stroke: green; stroke-width: 0.200000"/>
   <line x1="834.692871" y1="1341.167725" x2="824.934814" y2="1341.167725" style="stroke: green; stroke-width: 0.200000"/>
   <line x1="835.058716" y1="1340.167725" x2="824.589111" y2="1340.167725" style="stroke: green; stroke-width: 0.200000"/>
   <line x1="835.424683" y1="1339.167725" x2="824.204468" y2="1339.167725" style="stroke: green; stroke-width: 0.200000"/>
   <line x1="835.790527" y1="1338.167725" x2="823.733582" y2="1338.167725" style="stroke: green; stroke-width: 0.200000"/>
   <line x1="836.156372" y1="1337.167847" x2="823.262695" y2="1337.167847" style="stroke: green; stroke-width: 0.200000"/>
   <line x1="836.522278" y1="1336.167725" x2="822.791809" y2="1336.167725" style="stroke: green; stroke-width: 0.200000"/>
   <line x1="836.664917" y1="1335.167725" x2="822.320923" y2="1335.167725" style="stroke: green; stroke-width: 0.200000"/>
   <line x1="832.147949" y1="1334.167725" x2="821.850098" y2="1334.167725" style="stroke: green; stroke-width: 0.200000"/>
   <line x1="826.162659" y1="1333.167725" x2="821.379272" y2="1333.167725" style="stroke: green; stroke-width: 0.200000"/>
   <line x1="944.191956" y1="1207.106934" x2="925.321045" y2="1207.106934" style="stroke: green; stroke-width: 0.200000"/>
   <line x1="947.510864" y1="1206.106934" x2="925.251709" y2="1206.106934" style="stroke: green; stroke-width: 0.200000"/>
   <line x1="949.616394" y1="1205.106934" x2="925.182495" y2="1205.106934" style="stroke: green; stroke-width: 0.200000"/>
   <line x1="951.721924" y1="1204.106934" x2="925.113220" y2="1204.106934" style="stroke: green; stroke-width: 0.200000"/>
   <line x1="953.827515" y1="1203.106934" x2="925.043945" y2="1203.106934" style="stroke: green; stroke-width: 0.200000"/>
   <line x1="954.849854" y1="1202.106934" x2="924.974670" y2="1202.106934" style="stroke: green; stroke-width: 0.200000"/>
   <line x1="955.813721" y1="1201.106934" x2="924.905396" y2="1201.106934" style="stroke: green; stroke-width: 0.200000"/>
   <line x1="956.837891" y1="1200.106934" x2="924.836121" y2="1200.106934" style="stroke: green; stroke-width: 0.200000"/>
   <line x1="957.862061" y1="1199.106934" x2="929.373901" y2="1199.106934" style="stroke: green; stroke-width: 0.200000"/>
   <line x1="958.886230" y1="1198.106934" x2="934.176331" y2="1198.106934" style="stroke: green; stroke-width: 0.200000"/>
   <line x1="959.910400" y1="1197.106934" x2="940.020081" y2="1197.106934" style="stroke: green; stroke-width: 0.200000"/>
   <line x1="960.934570" y1="1196.106934" x2="944.114014" y2="1196.106934" style="stroke: green; stroke-width: 0.200000"/>
   <line x1="961.655823" y1="1195.106934" x2="945.177368" y2="1195.106934" style="stroke: green; stroke-width: 0.200000"/>
   <line x1="962.148987" y1="1194.106934" x2="946.031128" y2="1194.106934" style="stroke: green; stroke-width: 0.200000"/>
   <line x1="962.044556" y1="1193.106934" x2="946.904175" y2="1193.106934" style="stroke: green; stroke-width: 0.200000"/>
   <line x1="960.459961" y1="1192.106934" x2="946.787659" y2="1192.106934" style="stroke: green; stroke-width: 0.200000"/>
   <line x1="959.667664" y1="1191.106934" x2="946.070190" y2="1191.106934" style="stroke: green; stroke-width: 0.200000"/>
   <line x1="959.043945" y1="1190.106934" x2="945.352722" y2="1190.106934" style="stroke: green; stroke-width: 0.200000"/>
   <line x1="958.420166" y1="1189.106934" x2="944.739319" y2="1189.106934" style="stroke: green; stroke-width: 0.200000"/>
   <line x1="957.796387" y1="1188.106934" x2="944.610962" y2="1188.106934" style="stroke: green; stroke-width: 0.200000"/>
   <line x1="957.172607" y1="1187.106934" x2="944.482666" y2="1187.106934" style="stroke: green; stroke-width: 0.200000"/>
   <line x1="956.548828" y1="1186.106934" x2="944.354309" y2="1186.106934" style="stroke: green; stroke-width: 0.200000"/>
   <line x1="955.925171" y1="1185.106934" x2="944.226135" y2="1185.106934" style="stroke: green; stroke-width: 0.200000"/>
   <line x1="955.301392" y1="1184.106934" x2="944.097839" y2="1184.106934" style="stroke: green; stroke-width: 0.200000"/>
   <line x1="953.964539" y1="1183.106934" x2="943.969604" y2="1183.106934" style="stroke: green; stroke-width: 0.200000"/>
   <line x1="952.660461" y1="1182.106934" x2="943.841248" y2="1182.106934" style="stroke: green; stroke-width: 0.200000"/>
   <line x1="951.393799" y1="1181.106934" x2="943.712891" y2="1181.106934" style="stroke: green; stroke-width: 0.200000"/>
   <line x1="950.127075" y1="1180.106934" x2="943.584595" y2="1180.106934" style="stroke: green; stroke-width: 0.200000"/>
   <line x1="948.860413" y1="1179.106934" x2="943.456299" y2="1179.106934" style="stroke: green; stroke-width: 0.200000"/>
   <line x1="947.593750" y1="1178.106934" x2="943.328003" y2="1178.106934" style="stroke: green; stroke-width: 0.200000"/>
   <line x1="946.327026" y1="1177.106934" x2="943.199707" y2="1177.106934" style="stroke: green; stroke-width: 0.200000"/>
   <line x1="945.060364" y1="1176.106934" x2="943.071289" y2="1176.106934" style="stroke: green; stroke-width: 0.200000"/>
   <line x1="943.793701" y1="1175.106934" x2="942.942871" y2="1175.106934" style="stroke: green; stroke-width: 0.200000"/>
   <path d="M 824.146  1343.48  822.96  1340.04  819.473  1332.64  819.126  1331.77  818.816  1331.25  816.768  1323  814.954  1312.5  813.477  1304.47  812.212  1295.04  810.478  1285.53  809.896  1280.8  809.156  1276.03  808.375  1268.08  808.045  1265.38  806.41  1257.83  805.695  1255.66  803.857  1248.59  802  1242.8  801.186  1240.43  799.986  1235.32  799.034  1231.63  798.999  1230.1  797.682  1221.77  798.136  1219.62  798.141  1211.83  798.333  1209.63  798.188  1208.47  800.226  1199.76  800.649  1192.98  802.053  1189.99  803.279  1181.16  802.97  1179.83  805.111  1170.88  803.718  1165.3  804.219  1161.05  802.582  1157.07  800.961  1152.08  796.62  1143.26  795.632  1140.8  793.984  1134.24  793.29  1129.1  792.957  1122.47  793.144  1119.6  793.71  1117.13  795.892  1109.47  797.285  1106.51  802.749  1096.14  807.007  1090.92  812.363  1087.88  818.957  1084.9  822.098  1084.35  826.525  1084.33  831.922  1085.17  836.281  1086.11  839.589  1087.42  846.008  1089.43  849.452  1091.07  852.899  1094.59  856.737  1100.74  860.468  1107.17  860.75  1108.27  862.007  1111.93  863.438  1117.49  863.865  1118.87  864.881  1120.05  867.322  1127.74  870.815  1132.63  872.263  1135.52  878.303  1137.69  885.391  1140.72  886.855  1141.64  887.652  1142.11  895.125  1145.47  897.675  1146.73  904.279  1150.81  909.674  1153.24  913.594  1155.1  919.945  1158.85  922.529  1159.15  930.57  1163.95  932.005  1164.56  934.341  1166.01  " style="fill: none; stroke: darkmagenta; stroke-width: 0.200000; fill-type: evenodd"  fill-opacity="1.000000" />
   <path d="M 934.341  1166.01  935.59  1166.78  939.692  1169.83  941.41  1171.31  953.864  1181.15  955.086  1182.08  956.37  1182.99  961.273  1190.85  964.443  1192.85  962.606  1196.57  956.555  1202.48  955.525  1203.58  954.979  1204.22  946.214  1208.38  936.009  1209.56  935.619  1209.58  935.401  1209.56  925.067  1208.87  915.612  1207.02  914.942  1206.93  914.409  1206.79  913.41  1206.4  " style="fill: none; stroke: red; stroke-width: 0.200000; fill-type: evenodd"  fill-opacity="1.000000" />
   <path d="M 913.41  1206.4  905.054  1203.14  899.7  1201.12  896.084  1199.32  888.596  1195.97  886.282  1194.35  879.683  1190.6  876.017  1187.88  871.422  1184.89  867.162  1181  862.698  1177.87  859.576  1173.8  853.882  1166.93  853.399  1166.7  852.457  1166.02  849.663  1158.36  841.787  1153.15  832.591  1158.08  830.929  1161.89  831.016  1168.07  830.008  1171.91  830.488  1176.3  831.956  1182.66  832.752  1184.02  834.565  1189.56  835.998  1194.52  836.145  1195.5  841.425  1209.36  843.355  1214.85  845.523  1223.11  846.38  1225.83  847.812  1233.76  848.054  1236.16  848.857  1246.34  849.426  1255.51  849.152  1266.2  848.867  1275.33  848.618  1277.35  847.369  1286.03  846.619  1293.48  " style="fill: none; stroke: darkmagenta; stroke-width: 0.200000; fill-type: evenodd"  fill-opacity="1.000000" />
   <path d="M 846.619  1293.48  846.55  1294.16  845.41  1298.91  843.541  1305.95  " style="fill: none; stroke: red; stroke-width: 0.200000; fill-type: evenodd"  fill-opacity="1.000000" />
   <path d="M 843.541  1305.95  843.528  1306  842.731  1309.25  " style="fill: none; stroke: darkmagenta; stroke-width: 0.200000; fill-type: evenodd"  fill-opacity="1.000000" />
   <path d="M 842.731  1309.25  841.714  1313.4  841.482  1314.58  839.594  1323.58  839.078  1327.15  838.036  1336.4  835.292  1343.89  834.206  1346.67  830.821  1346.14  824.713  1345.11  824.146  1343.48  " style="fill: none; stroke: red; stroke-width: 0.200000; fill-type: evenodd"  fill-opacity="1.000000" />
   <path d="M 935.475  1208.56  925.197  1207.88  915.777  1206.03  915.136  1205.94  914.716  1205.84  905.413  1202.21  900.1  1200.2  896.511  1198.42  889.092  1195.1  886.817  1193.5  880.23  1189.76  876.588  1187.06  872.036  1184.09  867.788  1180.22  863.398  1177.14  860.358  1173.17  854.511  1166.13  853.912  1165.84  853.292  1165.39  850.489  1157.71  841.841  1151.99  831.813  1157.36  829.926  1161.69  830.014  1167.95  828.994  1171.84  829.5  1176.46  831.016  1183.04  831.835  1184.43  833.609  1189.86  835.019  1194.74  835.172  1195.76  840.486  1209.7  842.398  1215.15  844.562  1223.39  845.407  1226.07  846.821  1233.9  847.058  1236.25  847.859  1246.41  848.426  1255.52  848.152  1266.17  847.869  1275.25  847.627  1277.22  846.376  1285.91  845.562  1293.99  844.44  1298.66  842.559  1305.75  840.737  1313.18  840.503  1314.38  838.609  1323.41  838.086  1327.02  837.056  1336.17  834.357  1343.54  833.822  1344.91  " style="fill: none; stroke: black; stroke-width: 0.200000; fill-type: evenodd"  fill-opacity="1.000000" />
   <path d="M 833.822  1344.91  833.568  1345.56  830.981  1345.15  825.464  1344.23  825.269  1343.66  " style="fill: none; stroke: red; stroke-width: 0.200000; fill-type: evenodd"  fill-opacity="1.000000" />
   <path d="M 825.269  1343.66  823.887  1339.67  820.39  1332.24  820.025  1331.33  819.75  1330.87  817.747  1322.79  815.939  1312.33  814.465  1304.31  813.2  1294.88  811.467  1285.38  810.887  1280.66  810.148  1275.9  809.369  1267.97  809.032  1265.22  807.376  1257.57  806.655  1255.38  804.818  1248.31  802.949  1242.49  802.148  1240.15  800.957  1235.08  800.031  1231.49  799.997  1230.01  798.698  1221.8  799.136  1219.73  799.141  1211.88  799.339  1209.61  799.202  1208.52  801.218  1199.91  801.636  1193.23  803.023  1190.27  804.295  1181.11  803.998  1179.83  806.14  1170.87  804.733  1165.23  805.243  1160.91  803.521  1156.73  801.89  1151.7  797.534  1142.85  796.586  1140.49  794.967  1134.05  794.287  1129.01  793.958  1122.48  794.136  1119.74  794.679  1117.37  796.831  1109.82  798.18  1106.96  803.587  1096.7  807.663  1091.69  812.817  1088.78  819.254  1085.86  822.187  1085.35  826.45  1085.33  831.74  1086.15  835.99  1087.07  839.255  1088.36  845.643  1090.37  848.862  1091.89  852.109  1095.21  855.88  1101.25  859.534  1107.55  859.791  1108.56  861.048  1112.22  862.476  1117.76  862.972  1119.37  863.99  1120.55  866.417  1128.19  869.955  1133.15  871.548  1136.33  877.937  1138.62  884.924  1141.6  886.335  1142.5  887.192  1143  894.699  1146.38  897.19  1147.61  903.809  1151.69  909.254  1154.14  913.124  1155.99  919.619  1159.81  922.2  1160.12  930.115  1164.84  931.542  1165.45  935.028  1167.61  939.066  1170.61  940.772  1172.09  953.252  1181.94  954.494  1182.88  954.529  1182.91  " style="fill: none; stroke: black; stroke-width: 0.200000; fill-type: evenodd"  fill-opacity="1.000000" />
   <path d="M 954.529  1182.91  955.627  1183.69  960.546  1191.57  963.148  1193.21  961.785  1195.98  955.84  1201.78  954.779  1202.91  954.357  1203.41  945.935  1207.41  935.922  1208.56  935.648  1208.58  935.493  1208.56  935.475  1208.56  " style="fill: none; stroke: red; stroke-width: 0.200000; fill-type: evenodd"  fill-opacity="1.000000" />
   <path d="M 1003.24  1248.58  1004.08  1249.42  1004.38  1250.56  1004.08  1251.7  1003.24  1252.54  1002.1  1252.84  1000.96  1252.54  1000.12  1251.7  999.817  1250.56  1000.12  1249.42  1000.96  1248.58  1002.1  1248.28  1003.24  1248.58  " style="fill: none; stroke: purple; stroke-width: 0.500000; fill-type: evenodd"  fill-opacity="1.000000" />
   <path d="M 1003.1  1228.83  1003.83  1229.56  1004.1  1230.56  1003.83  1231.56  1003.1  1232.29  1002.1  1232.56  1001.1  1232.29  1000.37  1231.56  1000.1  1230.56  1000.37  1229.56  1001.1  1228.83  1002.1  1228.56  1003.1  1228.83  " style="fill: none; stroke: purple; stroke-width: 0.500000; fill-type: evenodd"  fill-opacity="1.000000" />
   <path d="M 983.099  1228.83  983.831  1229.56  984.099  1230.56  983.831  1231.56  983.099  1232.29  982.099  1232.56  981.099  1232.29  980.367  1231.56  980.099  1230.56  980.367  1229.56  981.099  1228.83  982.099  1228.56  983.099  1228.83  " style="fill: none; stroke: purple; stroke-width: 0.500000; fill-type: evenodd"  fill-opacity="1.000000" />
   <path d="M 963.099  1228.83  963.831  1229.56  964.099  1230.56  963.831  1231.56  963.099  1232.29  962.099  1232.56  961.099  1232.29  960.367  1231.56  960.099  1230.56  960.367  1229.56  961.099  1228.83  962.099  1228.56  963.099  1228.83  " style="fill: none; stroke: purple; stroke-width: 0.500000; fill-type: evenodd"  fill-opacity="1.000000" />
   <path d="M 1003.1  1208.83  1003.83  1209.56  1004.1  1210.56  1003.83  1211.56  1003.1  1212.29  1002.1  1212.56  1001.1  1212.29  1000.37  1211.56  1000.1  1210.56  1000.37  1209.56  1001.1  1208.83  1002.1  1208.56  1003.1  1208.83  " style="fill: none; stroke: purple; stroke-width: 0.500000; fill-type: evenodd"  fill-opacity="1.000000" />
   <path d="M 983.099  1208.83  983.831  1209.56  984.099  1210.56  983.831  1211.56  983.099  1212.29  982.099  1212.56  981.099  1212.29  980.367  1211.56  980.099  1210.56  980.367  1209.56  981.099  1208.83  982.099  1208.56  983.099  1208.83  " style="fill: none; stroke: purple; stroke-width: 0.500000; fill-type: evenodd"  fill-opacity="1.000000" />
</svg>
