<?xml version="1.0" encoding="UTF-8" standalone="yes"?>
<!DOCTYPE svg PUBLIC "-//W3C//DTD SVG 1.0//EN" "http://www.w3.org/TR/2001/REC-SVG-20010904/DTD/svg10.dtd">
<svg height="2000" width="2000" xmlns="http://www.w3.org/2000/svg" xmlns:svg="http://www.w3.org/2000/svg" xmlns:xlink="http://www.w3.org/1999/xlink">
   <marker id="endArrow" markerHeight="8" markerUnits="strokeWidth" markerWidth="10" orient="auto" refX="1" refY="5" viewBox="0 0 1000 1000">
      <polyline fill="darkblue" points="0,0 10,5 0,10 1,5" />
   </marker>
   <circle cx="1000" cy="1000" r="1" style="stroke:black; fill: red" />
   <circle cx="1000" cy="1000" r="800" style="stroke:black; fill: none" />
   <line x1="1072.304810" y1="1023.798462" x2="1053.203369" y2="1023.798462" style="stroke: green; stroke-width: 0.200000"/>
   <line x1="1058.489014" y1="1022.798401" x2="1054.203369" y2="1022.798401" style="stroke: green; stroke-width: 0.200000"/>
   <line x1="1072.304810" y1="1022.798401" x2="1060.424805" y2="1022.798401" style="stroke: green; stroke-width: 0.200000"/>
   <line x1="1057.489014" y1="1021.798401" x2="1055.203491" y2="1021.798401" style="stroke: green; stroke-width: 0.200000"/>
   <line x1="1072.304810" y1="1021.798401" x2="1061.424805" y2="1021.798401" style="stroke: green; stroke-width: 0.200000"/>
   <line x1="1056.489014" y1="1020.798401" x2="1056.203491" y2="1020.798401" style="stroke: green; stroke-width: 0.200000"/>
   <line x1="1072.304810" y1="1020.798401" x2="1062.424805" y2="1020.798401" style="stroke: green; stroke-width: 0.200000"/>
   <line x1="1072.304810" y1="1019.798462" x2="1063.424805" y2="1019.798462" style="stroke: green; stroke-width: 0.200000"/>
   <line x1="1072.304810" y1="1018.798462" x2="1064.424805" y2="1018.798462" style="stroke: green; stroke-width: 0.200000"/>
   <line x1="1072.304810" y1="1017.798401" x2="1065.424805" y2="1017.798401" style="stroke: green; stroke-width: 0.200000"/>
   <line x1="1072.304810" y1="1016.798401" x2="1066.424805" y2="1016.798401" style="stroke: green; stroke-width: 0.200000"/>
   <line x1="1072.304810" y1="1015.798401" x2="1067.424805" y2="1015.798401" style="stroke: green; stroke-width: 0.200000"/>
   <line x1="1072.304810" y1="1014.798462" x2="1068.424805" y2="1014.798462" style="stroke: green; stroke-width: 0.200000"/>
   <line x1="1072.304810" y1="1013.798462" x2="1069.424805" y2="1013.798462" style="stroke: green; stroke-width: 0.200000"/>
   <line x1="1072.304810" y1="1012.798401" x2="1070.424805" y2="1012.798401" style="stroke: green; stroke-width: 0.200000"/>
   <line x1="1072.304810" y1="1011.798401" x2="1071.424805" y2="1011.798401" style="stroke: green; stroke-width: 0.200000"/>
   <line x1="1108.791504" y1="1023.798462" x2="1072.404907" y2="1023.798462" style="stroke: green; stroke-width: 0.200000"/>
   <line x1="1109.622559" y1="1022.798401" x2="1072.404907" y2="1022.798401" style="stroke: green; stroke-width: 0.200000"/>
   <line x1="1110.453369" y1="1021.798401" x2="1072.404907" y2="1021.798401" style="stroke: green; stroke-width: 0.200000"/>
   <line x1="1111.284302" y1="1020.798401" x2="1072.404907" y2="1020.798401" style="stroke: green; stroke-width: 0.200000"/>
   <line x1="1112.115234" y1="1019.798462" x2="1072.404907" y2="1019.798462" style="stroke: green; stroke-width: 0.200000"/>
   <line x1="1112.930176" y1="1018.798462" x2="1072.404907" y2="1018.798462" style="stroke: green; stroke-width: 0.200000"/>
   <line x1="1113.622681" y1="1017.798401" x2="1072.404907" y2="1017.798401" style="stroke: green; stroke-width: 0.200000"/>
   <line x1="1114.315186" y1="1016.798401" x2="1072.404907" y2="1016.798401" style="stroke: green; stroke-width: 0.200000"/>
   <line x1="1114.865112" y1="1015.798401" x2="1072.404907" y2="1015.798401" style="stroke: green; stroke-width: 0.200000"/>
   <line x1="1115.375854" y1="1014.798462" x2="1072.404907" y2="1014.798462" style="stroke: green; stroke-width: 0.200000"/>
   <line x1="1115.796875" y1="1013.798462" x2="1072.404907" y2="1013.798462" style="stroke: green; stroke-width: 0.200000"/>
   <line x1="1116.174194" y1="1012.798401" x2="1072.404907" y2="1012.798401" style="stroke: green; stroke-width: 0.200000"/>
   <line x1="1116.491943" y1="1011.798401" x2="1072.404907" y2="1011.798401" style="stroke: green; stroke-width: 0.200000"/>
   <line x1="1116.762939" y1="1010.798401" x2="1072.424805" y2="1010.798401" style="stroke: green; stroke-width: 0.200000"/>
   <line x1="1116.987061" y1="1009.798462" x2="1073.424805" y2="1009.798462" style="stroke: green; stroke-width: 0.200000"/>
   <line x1="1117.157959" y1="1008.798462" x2="1074.424805" y2="1008.798462" style="stroke: green; stroke-width: 0.200000"/>
   <line x1="1117.276367" y1="1007.798401" x2="1075.424805" y2="1007.798401" style="stroke: green; stroke-width: 0.200000"/>
   <line x1="1117.362549" y1="1006.798401" x2="1076.424805" y2="1006.798401" style="stroke: green; stroke-width: 0.200000"/>
   <line x1="1117.367920" y1="1005.798401" x2="1077.424805" y2="1005.798401" style="stroke: green; stroke-width: 0.200000"/>
   <line x1="1117.362183" y1="1004.798462" x2="1078.424805" y2="1004.798462" style="stroke: green; stroke-width: 0.200000"/>
   <line x1="1117.330566" y1="1003.798462" x2="1079.424805" y2="1003.798462" style="stroke: green; stroke-width: 0.200000"/>
   <line x1="1117.298950" y1="1002.798401" x2="1080.424805" y2="1002.798401" style="stroke: green; stroke-width: 0.200000"/>
   <line x1="1117.198608" y1="1001.798401" x2="1081.424805" y2="1001.798401" style="stroke: green; stroke-width: 0.200000"/>
   <line x1="1117.082275" y1="1000.798401" x2="1082.424805" y2="1000.798401" style="stroke: green; stroke-width: 0.200000"/>
   <line x1="1116.875244" y1="999.798462" x2="1083.424805" y2="999.798462" style="stroke: green; stroke-width: 0.200000"/>
   <line x1="1116.646118" y1="998.798462" x2="1084.424805" y2="998.798462" style="stroke: green; stroke-width: 0.200000"/>
   <line x1="1116.392700" y1="997.798401" x2="1085.424805" y2="997.798401" style="stroke: green; stroke-width: 0.200000"/>
   <line x1="1116.091797" y1="996.798401" x2="1086.424805" y2="996.798401" style="stroke: green; stroke-width: 0.200000"/>
   <line x1="1115.791016" y1="995.798401" x2="1087.424805" y2="995.798401" style="stroke: green; stroke-width: 0.200000"/>
   <line x1="1115.417969" y1="994.798462" x2="1088.424805" y2="994.798462" style="stroke: green; stroke-width: 0.200000"/>
   <line x1="1115.044434" y1="993.798462" x2="1089.424805" y2="993.798462" style="stroke: green; stroke-width: 0.200000"/>
   <line x1="1114.620483" y1="992.798401" x2="1090.424805" y2="992.798401" style="stroke: green; stroke-width: 0.200000"/>
   <line x1="1114.172119" y1="991.798401" x2="1091.424805" y2="991.798401" style="stroke: green; stroke-width: 0.200000"/>
   <line x1="1113.689087" y1="990.798401" x2="1092.424805" y2="990.798401" style="stroke: green; stroke-width: 0.200000"/>
   <line x1="1113.156494" y1="989.798462" x2="1093.424805" y2="989.798462" style="stroke: green; stroke-width: 0.200000"/>
   <line x1="1112.600952" y1="988.798462" x2="1094.424805" y2="988.798462" style="stroke: green; stroke-width: 0.200000"/>
   <line x1="1111.948730" y1="987.798401" x2="1095.424805" y2="987.798401" style="stroke: green; stroke-width: 0.200000"/>
   <line x1="1111.296631" y1="986.798401" x2="1096.424805" y2="986.798401" style="stroke: green; stroke-width: 0.200000"/>
   <line x1="1110.554688" y1="985.798401" x2="1097.424805" y2="985.798401" style="stroke: green; stroke-width: 0.200000"/>
   <line x1="1109.847900" y1="984.798462" x2="1098.424805" y2="984.798462" style="stroke: green; stroke-width: 0.200000"/>
   <line x1="1109.077271" y1="983.798462" x2="1099.424805" y2="983.798462" style="stroke: green; stroke-width: 0.200000"/>
   <line x1="1108.275269" y1="982.798401" x2="1100.424927" y2="982.798401" style="stroke: green; stroke-width: 0.200000"/>
   <line x1="1107.473145" y1="981.798401" x2="1101.424805" y2="981.798401" style="stroke: green; stroke-width: 0.200000"/>
   <line x1="1106.671021" y1="980.798401" x2="1102.424805" y2="980.798401" style="stroke: green; stroke-width: 0.200000"/>
   <line x1="1105.869019" y1="979.798462" x2="1102.853760" y2="979.798462" style="stroke: green; stroke-width: 0.200000"/>
   <line x1="1105.066895" y1="978.798462" x2="1102.093628" y2="978.798462" style="stroke: green; stroke-width: 0.200000"/>
   <line x1="1104.264893" y1="977.798401" x2="1101.333496" y2="977.798401" style="stroke: green; stroke-width: 0.200000"/>
   <line x1="1103.462769" y1="976.798401" x2="1100.573486" y2="976.798401" style="stroke: green; stroke-width: 0.200000"/>
   <line x1="1102.660645" y1="975.798401" x2="1100.637939" y2="975.798401" style="stroke: green; stroke-width: 0.200000"/>
   <line x1="1101.858643" y1="974.798462" x2="1101.637939" y2="974.798462" style="stroke: green; stroke-width: 0.200000"/>
   <line x1="1022.204834" y1="1073.798462" x2="1009.424805" y2="1073.798462" style="stroke: green; stroke-width: 0.200000"/>
   <line x1="1022.204834" y1="1072.798340" x2="1010.424805" y2="1072.798340" style="stroke: green; stroke-width: 0.200000"/>
   <line x1="1022.204834" y1="1071.798340" x2="1010.159790" y2="1071.798340" style="stroke: green; stroke-width: 0.200000"/>
   <line x1="1022.204834" y1="1070.798462" x2="1009.159790" y2="1070.798462" style="stroke: green; stroke-width: 0.200000"/>
   <line x1="1022.204834" y1="1069.798462" x2="1008.159729" y2="1069.798462" style="stroke: green; stroke-width: 0.200000"/>
   <line x1="1022.204834" y1="1068.798462" x2="1008.203430" y2="1068.798462" style="stroke: green; stroke-width: 0.200000"/>
   <line x1="1022.204834" y1="1067.798340" x2="1009.203430" y2="1067.798340" style="stroke: green; stroke-width: 0.200000"/>
   <line x1="1022.204834" y1="1066.798340" x2="1010.203369" y2="1066.798340" style="stroke: green; stroke-width: 0.200000"/>
   <line x1="1022.204834" y1="1065.798462" x2="1011.203491" y2="1065.798462" style="stroke: green; stroke-width: 0.200000"/>
   <line x1="1022.204834" y1="1064.798462" x2="1012.203430" y2="1064.798462" style="stroke: green; stroke-width: 0.200000"/>
   <line x1="1022.204834" y1="1063.798462" x2="1013.203430" y2="1063.798462" style="stroke: green; stroke-width: 0.200000"/>
   <line x1="1022.204834" y1="1062.798340" x2="1014.203430" y2="1062.798340" style="stroke: green; stroke-width: 0.200000"/>
   <line x1="1022.204834" y1="1061.798340" x2="1015.203369" y2="1061.798340" style="stroke: green; stroke-width: 0.200000"/>
   <line x1="1022.204834" y1="1060.798462" x2="1016.203491" y2="1060.798462" style="stroke: green; stroke-width: 0.200000"/>
   <line x1="1022.204834" y1="1059.798462" x2="1017.203430" y2="1059.798462" style="stroke: green; stroke-width: 0.200000"/>
   <line x1="1022.204834" y1="1058.798462" x2="1018.203430" y2="1058.798462" style="stroke: green; stroke-width: 0.200000"/>
   <line x1="1022.204834" y1="1057.798340" x2="1019.203430" y2="1057.798340" style="stroke: green; stroke-width: 0.200000"/>
   <line x1="1022.204834" y1="1056.798340" x2="1020.203369" y2="1056.798340" style="stroke: green; stroke-width: 0.200000"/>
   <line x1="1022.204834" y1="1055.798462" x2="1021.203491" y2="1055.798462" style="stroke: green; stroke-width: 0.200000"/>
   <line x1="1022.204834" y1="1054.798462" x2="1022.203430" y2="1054.798462" style="stroke: green; stroke-width: 0.200000"/>
   <line x1="1026.462158" y1="1073.798462" x2="1022.304810" y2="1073.798462" style="stroke: green; stroke-width: 0.200000"/>
   <line x1="1026.839233" y1="1072.798340" x2="1022.304810" y2="1072.798340" style="stroke: green; stroke-width: 0.200000"/>
   <line x1="1027.208496" y1="1071.798340" x2="1022.304810" y2="1071.798340" style="stroke: green; stroke-width: 0.200000"/>
   <line x1="1027.564941" y1="1070.798462" x2="1022.304810" y2="1070.798462" style="stroke: green; stroke-width: 0.200000"/>
   <line x1="1027.955933" y1="1069.798462" x2="1022.304810" y2="1069.798462" style="stroke: green; stroke-width: 0.200000"/>
   <line x1="1028.362305" y1="1068.798462" x2="1022.304810" y2="1068.798462" style="stroke: green; stroke-width: 0.200000"/>
   <line x1="1028.805786" y1="1067.798340" x2="1022.304810" y2="1067.798340" style="stroke: green; stroke-width: 0.200000"/>
   <line x1="1029.272583" y1="1066.798340" x2="1022.304810" y2="1066.798340" style="stroke: green; stroke-width: 0.200000"/>
   <line x1="1029.788086" y1="1065.798462" x2="1022.304810" y2="1065.798462" style="stroke: green; stroke-width: 0.200000"/>
   <line x1="1030.276855" y1="1064.798462" x2="1022.304810" y2="1064.798462" style="stroke: green; stroke-width: 0.200000"/>
   <line x1="1030.793701" y1="1063.798462" x2="1022.304810" y2="1063.798462" style="stroke: green; stroke-width: 0.200000"/>
   <line x1="1031.363770" y1="1062.798340" x2="1022.304810" y2="1062.798340" style="stroke: green; stroke-width: 0.200000"/>
   <line x1="1031.931641" y1="1061.798340" x2="1022.304810" y2="1061.798340" style="stroke: green; stroke-width: 0.200000"/>
   <line x1="1032.516357" y1="1060.798462" x2="1022.304810" y2="1060.798462" style="stroke: green; stroke-width: 0.200000"/>
   <line x1="1033.161133" y1="1059.798462" x2="1022.304810" y2="1059.798462" style="stroke: green; stroke-width: 0.200000"/>
   <line x1="1033.776611" y1="1058.798462" x2="1022.304810" y2="1058.798462" style="stroke: green; stroke-width: 0.200000"/>
   <line x1="1034.480225" y1="1057.798340" x2="1022.304810" y2="1057.798340" style="stroke: green; stroke-width: 0.200000"/>
   <line x1="1035.183716" y1="1056.798340" x2="1022.304810" y2="1056.798340" style="stroke: green; stroke-width: 0.200000"/>
   <line x1="1035.992554" y1="1055.798462" x2="1022.304810" y2="1055.798462" style="stroke: green; stroke-width: 0.200000"/>
   <line x1="1036.816650" y1="1054.798462" x2="1022.304810" y2="1054.798462" style="stroke: green; stroke-width: 0.200000"/>
   <line x1="1037.640747" y1="1053.798462" x2="1023.203430" y2="1053.798462" style="stroke: green; stroke-width: 0.200000"/>
   <line x1="1038.479858" y1="1052.798340" x2="1024.203369" y2="1052.798340" style="stroke: green; stroke-width: 0.200000"/>
   <line x1="1039.395996" y1="1051.798340" x2="1025.203369" y2="1051.798340" style="stroke: green; stroke-width: 0.200000"/>
   <line x1="1040.405396" y1="1050.798462" x2="1026.203491" y2="1050.798462" style="stroke: green; stroke-width: 0.200000"/>
   <line x1="1041.427246" y1="1049.798462" x2="1027.203491" y2="1049.798462" style="stroke: green; stroke-width: 0.200000"/>
   <line x1="1042.448975" y1="1048.798462" x2="1028.203369" y2="1048.798462" style="stroke: green; stroke-width: 0.200000"/>
   <line x1="1043.536865" y1="1047.798340" x2="1029.203369" y2="1047.798340" style="stroke: green; stroke-width: 0.200000"/>
   <line x1="1044.787720" y1="1046.798340" x2="1030.203369" y2="1046.798340" style="stroke: green; stroke-width: 0.200000"/>
   <line x1="1046.074585" y1="1045.798462" x2="1031.203491" y2="1045.798462" style="stroke: green; stroke-width: 0.200000"/>
   <line x1="1069.058960" y1="1044.798462" x2="1067.666992" y2="1044.798462" style="stroke: green; stroke-width: 0.200000"/>
   <line x1="1047.290771" y1="1044.798462" x2="1032.203491" y2="1044.798462" style="stroke: green; stroke-width: 0.200000"/>
   <line x1="1048.719116" y1="1043.798462" x2="1033.203369" y2="1043.798462" style="stroke: green; stroke-width: 0.200000"/>
   <line x1="1072.304810" y1="1043.798462" x2="1067.101074" y2="1043.798462" style="stroke: green; stroke-width: 0.200000"/>
   <line x1="1050.232544" y1="1042.798340" x2="1034.203369" y2="1042.798340" style="stroke: green; stroke-width: 0.200000"/>
   <line x1="1072.304810" y1="1042.798340" x2="1066.534790" y2="1042.798340" style="stroke: green; stroke-width: 0.200000"/>
   <line x1="1051.917480" y1="1041.798340" x2="1035.203491" y2="1041.798340" style="stroke: green; stroke-width: 0.200000"/>
   <line x1="1072.304810" y1="1041.798340" x2="1065.968750" y2="1041.798340" style="stroke: green; stroke-width: 0.200000"/>
   <line x1="1072.304810" y1="1040.798462" x2="1065.402710" y2="1040.798462" style="stroke: green; stroke-width: 0.200000"/>
   <line x1="1053.611938" y1="1040.798462" x2="1036.203491" y2="1040.798462" style="stroke: green; stroke-width: 0.200000"/>
   <line x1="1055.575684" y1="1039.798462" x2="1037.203491" y2="1039.798462" style="stroke: green; stroke-width: 0.200000"/>
   <line x1="1072.304810" y1="1039.798462" x2="1064.836670" y2="1039.798462" style="stroke: green; stroke-width: 0.200000"/>
   <line x1="1072.304810" y1="1038.798462" x2="1064.270874" y2="1038.798462" style="stroke: green; stroke-width: 0.200000"/>
   <line x1="1057.618408" y1="1038.798462" x2="1038.203369" y2="1038.798462" style="stroke: green; stroke-width: 0.200000"/>
   <line x1="1059.661377" y1="1037.798340" x2="1039.203369" y2="1037.798340" style="stroke: green; stroke-width: 0.200000"/>
   <line x1="1072.304810" y1="1037.798340" x2="1063.704834" y2="1037.798340" style="stroke: green; stroke-width: 0.200000"/>
   <line x1="1072.304810" y1="1036.798340" x2="1063.139038" y2="1036.798340" style="stroke: green; stroke-width: 0.200000"/>
   <line x1="1061.703491" y1="1036.798340" x2="1040.203491" y2="1036.798340" style="stroke: green; stroke-width: 0.200000"/>
   <line x1="1072.304810" y1="1035.798462" x2="1041.203491" y2="1035.798462" style="stroke: green; stroke-width: 0.200000"/>
   <line x1="1072.304810" y1="1034.798462" x2="1042.203491" y2="1034.798462" style="stroke: green; stroke-width: 0.200000"/>
   <line x1="1072.304810" y1="1033.798462" x2="1043.203369" y2="1033.798462" style="stroke: green; stroke-width: 0.200000"/>
   <line x1="1072.304810" y1="1032.798340" x2="1044.203369" y2="1032.798340" style="stroke: green; stroke-width: 0.200000"/>
   <line x1="1072.304810" y1="1031.798340" x2="1045.203491" y2="1031.798340" style="stroke: green; stroke-width: 0.200000"/>
   <line x1="1072.304810" y1="1030.798462" x2="1046.203491" y2="1030.798462" style="stroke: green; stroke-width: 0.200000"/>
   <line x1="1072.304810" y1="1029.798462" x2="1047.203491" y2="1029.798462" style="stroke: green; stroke-width: 0.200000"/>
   <line x1="1072.304810" y1="1028.798462" x2="1048.203369" y2="1028.798462" style="stroke: green; stroke-width: 0.200000"/>
   <line x1="1072.304810" y1="1027.798340" x2="1049.203369" y2="1027.798340" style="stroke: green; stroke-width: 0.200000"/>
   <line x1="1072.304810" y1="1026.798340" x2="1050.203491" y2="1026.798340" style="stroke: green; stroke-width: 0.200000"/>
   <line x1="1072.304810" y1="1025.798462" x2="1051.203491" y2="1025.798462" style="stroke: green; stroke-width: 0.200000"/>
   <line x1="1072.304810" y1="1024.798462" x2="1052.203491" y2="1024.798462" style="stroke: green; stroke-width: 0.200000"/>
   <line x1="1072.494629" y1="1043.798462" x2="1072.404907" y2="1043.798462" style="stroke: green; stroke-width: 0.200000"/>
   <line x1="1076.291260" y1="1042.798340" x2="1072.404907" y2="1042.798340" style="stroke: green; stroke-width: 0.200000"/>
   <line x1="1081.004761" y1="1041.798340" x2="1072.404907" y2="1041.798340" style="stroke: green; stroke-width: 0.200000"/>
   <line x1="1086.846680" y1="1040.798462" x2="1072.404907" y2="1040.798462" style="stroke: green; stroke-width: 0.200000"/>
   <line x1="1090.613525" y1="1039.798462" x2="1072.404907" y2="1039.798462" style="stroke: green; stroke-width: 0.200000"/>
   <line x1="1092.972656" y1="1038.798462" x2="1072.404907" y2="1038.798462" style="stroke: green; stroke-width: 0.200000"/>
   <line x1="1094.757568" y1="1037.798340" x2="1072.404907" y2="1037.798340" style="stroke: green; stroke-width: 0.200000"/>
   <line x1="1095.931763" y1="1036.798340" x2="1072.404907" y2="1036.798340" style="stroke: green; stroke-width: 0.200000"/>
   <line x1="1097.082764" y1="1035.798462" x2="1072.404907" y2="1035.798462" style="stroke: green; stroke-width: 0.200000"/>
   <line x1="1098.162598" y1="1034.798462" x2="1072.404907" y2="1034.798462" style="stroke: green; stroke-width: 0.200000"/>
   <line x1="1099.242432" y1="1033.798462" x2="1072.404907" y2="1033.798462" style="stroke: green; stroke-width: 0.200000"/>
   <line x1="1100.322144" y1="1032.798340" x2="1072.404907" y2="1032.798340" style="stroke: green; stroke-width: 0.200000"/>
   <line x1="1101.401978" y1="1031.798340" x2="1072.404907" y2="1031.798340" style="stroke: green; stroke-width: 0.200000"/>
   <line x1="1102.359009" y1="1030.798462" x2="1072.404907" y2="1030.798462" style="stroke: green; stroke-width: 0.200000"/>
   <line x1="1103.307251" y1="1029.798462" x2="1072.404907" y2="1029.798462" style="stroke: green; stroke-width: 0.200000"/>
   <line x1="1104.255493" y1="1028.798462" x2="1072.404907" y2="1028.798462" style="stroke: green; stroke-width: 0.200000"/>
   <line x1="1105.203613" y1="1027.798340" x2="1072.404907" y2="1027.798340" style="stroke: green; stroke-width: 0.200000"/>
   <line x1="1106.151855" y1="1026.798340" x2="1072.404907" y2="1026.798340" style="stroke: green; stroke-width: 0.200000"/>
   <line x1="1107.100098" y1="1025.798462" x2="1072.404907" y2="1025.798462" style="stroke: green; stroke-width: 0.200000"/>
   <line x1="1107.960693" y1="1024.798462" x2="1072.404907" y2="1024.798462" style="stroke: green; stroke-width: 0.200000"/>
   <line x1="1003.864807" y1="1112.798340" x2="997.138306" y2="1112.798340" style="stroke: green; stroke-width: 0.200000"/>
   <line x1="1008.932556" y1="1111.798340" x2="991.270691" y2="1111.798340" style="stroke: green; stroke-width: 0.200000"/>
   <line x1="1011.812683" y1="1110.798462" x2="987.948242" y2="1110.798462" style="stroke: green; stroke-width: 0.200000"/>
   <line x1="1013.810669" y1="1109.798462" x2="985.237976" y2="1109.798462" style="stroke: green; stroke-width: 0.200000"/>
   <line x1="1015.319702" y1="1108.798462" x2="982.898010" y2="1108.798462" style="stroke: green; stroke-width: 0.200000"/>
   <line x1="1016.679016" y1="1107.798340" x2="980.541687" y2="1107.798340" style="stroke: green; stroke-width: 0.200000"/>
   <line x1="1017.737366" y1="1106.798340" x2="978.159119" y2="1106.798340" style="stroke: green; stroke-width: 0.200000"/>
   <line x1="1018.784424" y1="1105.798462" x2="975.776611" y2="1105.798462" style="stroke: green; stroke-width: 0.200000"/>
   <line x1="1019.831543" y1="1104.798462" x2="973.483154" y2="1104.798462" style="stroke: green; stroke-width: 0.200000"/>
   <line x1="1020.878662" y1="1103.798462" x2="972.637878" y2="1103.798462" style="stroke: green; stroke-width: 0.200000"/>
   <line x1="1021.925781" y1="1102.798340" x2="980.424805" y2="1102.798340" style="stroke: green; stroke-width: 0.200000"/>
   <line x1="977.071411" y1="1102.798340" x2="973.637817" y2="1102.798340" style="stroke: green; stroke-width: 0.200000"/>
   <line x1="1022.204834" y1="1101.798340" x2="981.424866" y2="1101.798340" style="stroke: green; stroke-width: 0.200000"/>
   <line x1="1022.204834" y1="1100.798462" x2="982.424866" y2="1100.798462" style="stroke: green; stroke-width: 0.200000"/>
   <line x1="1022.204834" y1="1099.798462" x2="983.424805" y2="1099.798462" style="stroke: green; stroke-width: 0.200000"/>
   <line x1="1022.204834" y1="1098.798462" x2="984.424805" y2="1098.798462" style="stroke: green; stroke-width: 0.200000"/>
   <line x1="1022.204834" y1="1097.798340" x2="985.424805" y2="1097.798340" style="stroke: green; stroke-width: 0.200000"/>
   <line x1="1022.204834" y1="1096.798340" x2="986.424866" y2="1096.798340" style="stroke: green; stroke-width: 0.200000"/>
   <line x1="1022.204834" y1="1095.798462" x2="987.424866" y2="1095.798462" style="stroke: green; stroke-width: 0.200000"/>
   <line x1="1022.204834" y1="1094.798462" x2="988.424805" y2="1094.798462" style="stroke: green; stroke-width: 0.200000"/>
   <line x1="1022.204834" y1="1093.798462" x2="989.424805" y2="1093.798462" style="stroke: green; stroke-width: 0.200000"/>
   <line x1="1022.204834" y1="1092.798340" x2="990.424805" y2="1092.798340" style="stroke: green; stroke-width: 0.200000"/>
   <line x1="1022.204834" y1="1091.798340" x2="991.424866" y2="1091.798340" style="stroke: green; stroke-width: 0.200000"/>
   <line x1="1022.204834" y1="1090.798462" x2="992.424866" y2="1090.798462" style="stroke: green; stroke-width: 0.200000"/>
   <line x1="1022.204834" y1="1089.798462" x2="993.424805" y2="1089.798462" style="stroke: green; stroke-width: 0.200000"/>
   <line x1="1022.204834" y1="1088.798462" x2="994.424805" y2="1088.798462" style="stroke: green; stroke-width: 0.200000"/>
   <line x1="1022.204834" y1="1087.798340" x2="995.424805" y2="1087.798340" style="stroke: green; stroke-width: 0.200000"/>
   <line x1="1022.204834" y1="1086.798340" x2="996.424866" y2="1086.798340" style="stroke: green; stroke-width: 0.200000"/>
   <line x1="1022.204834" y1="1085.798462" x2="997.424866" y2="1085.798462" style="stroke: green; stroke-width: 0.200000"/>
   <line x1="1022.204834" y1="1084.798462" x2="998.424805" y2="1084.798462" style="stroke: green; stroke-width: 0.200000"/>
   <line x1="1022.204834" y1="1083.798462" x2="999.424805" y2="1083.798462" style="stroke: green; stroke-width: 0.200000"/>
   <line x1="1022.204834" y1="1082.798340" x2="1000.424805" y2="1082.798340" style="stroke: green; stroke-width: 0.200000"/>
   <line x1="1022.204834" y1="1081.798340" x2="1001.424866" y2="1081.798340" style="stroke: green; stroke-width: 0.200000"/>
   <line x1="1022.204834" y1="1080.798462" x2="1002.424866" y2="1080.798462" style="stroke: green; stroke-width: 0.200000"/>
   <line x1="1022.204834" y1="1079.798462" x2="1003.424805" y2="1079.798462" style="stroke: green; stroke-width: 0.200000"/>
   <line x1="1022.204834" y1="1078.798462" x2="1004.424805" y2="1078.798462" style="stroke: green; stroke-width: 0.200000"/>
   <line x1="1022.204834" y1="1077.798340" x2="1005.424805" y2="1077.798340" style="stroke: green; stroke-width: 0.200000"/>
   <line x1="1022.204834" y1="1076.798340" x2="1006.424866" y2="1076.798340" style="stroke: green; stroke-width: 0.200000"/>
   <line x1="1022.204834" y1="1075.798462" x2="1007.424866" y2="1075.798462" style="stroke: green; stroke-width: 0.200000"/>
   <line x1="1022.959900" y1="1101.798340" x2="1022.304810" y2="1101.798340" style="stroke: green; stroke-width: 0.200000"/>
   <line x1="1023.932800" y1="1100.798462" x2="1022.304810" y2="1100.798462" style="stroke: green; stroke-width: 0.200000"/>
   <line x1="1024.905640" y1="1099.798462" x2="1022.304810" y2="1099.798462" style="stroke: green; stroke-width: 0.200000"/>
   <line x1="1025.878418" y1="1098.798462" x2="1022.304810" y2="1098.798462" style="stroke: green; stroke-width: 0.200000"/>
   <line x1="1026.851318" y1="1097.798340" x2="1022.304810" y2="1097.798340" style="stroke: green; stroke-width: 0.200000"/>
   <line x1="1027.824097" y1="1096.798340" x2="1022.304810" y2="1096.798340" style="stroke: green; stroke-width: 0.200000"/>
   <line x1="1028.663574" y1="1095.798462" x2="1022.304810" y2="1095.798462" style="stroke: green; stroke-width: 0.200000"/>
   <line x1="1029.499756" y1="1094.798462" x2="1022.304810" y2="1094.798462" style="stroke: green; stroke-width: 0.200000"/>
   <line x1="1030.224976" y1="1093.798462" x2="1022.304810" y2="1093.798462" style="stroke: green; stroke-width: 0.200000"/>
   <line x1="1030.874268" y1="1092.798340" x2="1022.304810" y2="1092.798340" style="stroke: green; stroke-width: 0.200000"/>
   <line x1="1031.431519" y1="1091.798340" x2="1022.304810" y2="1091.798340" style="stroke: green; stroke-width: 0.200000"/>
   <line x1="1031.909058" y1="1090.798462" x2="1022.304810" y2="1090.798462" style="stroke: green; stroke-width: 0.200000"/>
   <line x1="1032.346680" y1="1089.798462" x2="1022.304810" y2="1089.798462" style="stroke: green; stroke-width: 0.200000"/>
   <line x1="1032.687744" y1="1088.798462" x2="1022.304810" y2="1088.798462" style="stroke: green; stroke-width: 0.200000"/>
   <line x1="1033.023438" y1="1087.798340" x2="1022.304810" y2="1087.798340" style="stroke: green; stroke-width: 0.200000"/>
   <line x1="1031.825073" y1="1086.798340" x2="1022.304810" y2="1086.798340" style="stroke: green; stroke-width: 0.200000"/>
   <line x1="1028.787964" y1="1085.798462" x2="1022.304810" y2="1085.798462" style="stroke: green; stroke-width: 0.200000"/>
   <line x1="1025.750244" y1="1084.798462" x2="1022.304810" y2="1084.798462" style="stroke: green; stroke-width: 0.200000"/>
   <line x1="1023.474121" y1="1083.798462" x2="1022.304810" y2="1083.798462" style="stroke: green; stroke-width: 0.200000"/>
   <line x1="1023.772949" y1="1082.798340" x2="1022.304810" y2="1082.798340" style="stroke: green; stroke-width: 0.200000"/>
   <line x1="1024.071167" y1="1081.798340" x2="1022.304810" y2="1081.798340" style="stroke: green; stroke-width: 0.200000"/>
   <line x1="1024.369995" y1="1080.798462" x2="1022.304810" y2="1080.798462" style="stroke: green; stroke-width: 0.200000"/>
   <line x1="1024.668945" y1="1079.798462" x2="1022.304810" y2="1079.798462" style="stroke: green; stroke-width: 0.200000"/>
   <line x1="1024.967773" y1="1078.798462" x2="1022.304810" y2="1078.798462" style="stroke: green; stroke-width: 0.200000"/>
   <line x1="1025.266724" y1="1077.798340" x2="1022.304810" y2="1077.798340" style="stroke: green; stroke-width: 0.200000"/>
   <line x1="1025.565552" y1="1076.798340" x2="1022.304810" y2="1076.798340" style="stroke: green; stroke-width: 0.200000"/>
   <line x1="1025.864380" y1="1075.798462" x2="1022.304810" y2="1075.798462" style="stroke: green; stroke-width: 0.200000"/>
   <line x1="964.225464" y1="1060.221069" x2="957.946106" y2="1060.221069" style="stroke: green; stroke-width: 0.200000"/>
   <line x1="965.638916" y1="1059.221069" x2="956.531616" y2="1059.221069" style="stroke: green; stroke-width: 0.200000"/>
   <line x1="966.515137" y1="1058.221069" x2="955.673523" y2="1058.221069" style="stroke: green; stroke-width: 0.200000"/>
   <line x1="967.117981" y1="1057.221069" x2="955.061035" y2="1057.221069" style="stroke: green; stroke-width: 0.200000"/>
   <line x1="967.511108" y1="1056.221069" x2="954.664795" y2="1056.221069" style="stroke: green; stroke-width: 0.200000"/>
   <line x1="967.731384" y1="1055.221069" x2="954.436584" y2="1055.221069" style="stroke: green; stroke-width: 0.200000"/>
   <line x1="967.801392" y1="1054.221069" x2="954.363037" y2="1054.221069" style="stroke: green; stroke-width: 0.200000"/>
   <line x1="967.723877" y1="1053.221069" x2="954.454468" y2="1053.221069" style="stroke: green; stroke-width: 0.200000"/>
   <line x1="967.496216" y1="1052.221069" x2="954.698120" y2="1052.221069" style="stroke: green; stroke-width: 0.200000"/>
   <line x1="967.084473" y1="1051.221069" x2="955.108032" y2="1051.221069" style="stroke: green; stroke-width: 0.200000"/>
   <line x1="966.443604" y1="1050.221069" x2="955.736389" y2="1050.221069" style="stroke: green; stroke-width: 0.200000"/>
   <line x1="965.512695" y1="1049.221069" x2="956.645386" y2="1049.221069" style="stroke: green; stroke-width: 0.200000"/>
   <line x1="964.031860" y1="1048.221069" x2="958.194824" y2="1048.221069" style="stroke: green; stroke-width: 0.200000"/>
   <line x1="895.618286" y1="1037.009033" x2="877.978638" y2="1037.009033" style="stroke: green; stroke-width: 0.200000"/>
   <line x1="896.618347" y1="1036.009033" x2="877.563965" y2="1036.009033" style="stroke: green; stroke-width: 0.200000"/>
   <line x1="897.618347" y1="1035.009033" x2="877.306396" y2="1035.009033" style="stroke: green; stroke-width: 0.200000"/>
   <line x1="898.618286" y1="1034.009033" x2="877.048828" y2="1034.009033" style="stroke: green; stroke-width: 0.200000"/>
   <line x1="899.618286" y1="1033.008911" x2="876.900513" y2="1033.008911" style="stroke: green; stroke-width: 0.200000"/>
   <line x1="900.618286" y1="1032.009033" x2="876.841797" y2="1032.009033" style="stroke: green; stroke-width: 0.200000"/>
   <line x1="901.618347" y1="1031.009033" x2="876.868591" y2="1031.009033" style="stroke: green; stroke-width: 0.200000"/>
   <line x1="902.618347" y1="1030.009033" x2="876.987671" y2="1030.009033" style="stroke: green; stroke-width: 0.200000"/>
   <line x1="903.618286" y1="1029.009033" x2="877.179443" y2="1029.009033" style="stroke: green; stroke-width: 0.200000"/>
   <line x1="904.618286" y1="1028.008911" x2="877.476257" y2="1028.008911" style="stroke: green; stroke-width: 0.200000"/>
   <line x1="905.618286" y1="1027.009033" x2="877.858154" y2="1027.009033" style="stroke: green; stroke-width: 0.200000"/>
   <line x1="906.618347" y1="1026.009033" x2="878.369507" y2="1026.009033" style="stroke: green; stroke-width: 0.200000"/>
   <line x1="907.618347" y1="1025.009033" x2="878.946655" y2="1025.009033" style="stroke: green; stroke-width: 0.200000"/>
   <line x1="908.618286" y1="1024.009033" x2="879.504089" y2="1024.009033" style="stroke: green; stroke-width: 0.200000"/>
   <line x1="909.618286" y1="1023.008972" x2="880.048157" y2="1023.008972" style="stroke: green; stroke-width: 0.200000"/>
   <line x1="910.618286" y1="1022.008972" x2="880.650024" y2="1022.008972" style="stroke: green; stroke-width: 0.200000"/>
   <line x1="911.618347" y1="1021.008972" x2="881.268982" y2="1021.008972" style="stroke: green; stroke-width: 0.200000"/>
   <line x1="912.618347" y1="1020.009033" x2="881.902161" y2="1020.009033" style="stroke: green; stroke-width: 0.200000"/>
   <line x1="913.618286" y1="1019.009033" x2="882.540527" y2="1019.009033" style="stroke: green; stroke-width: 0.200000"/>
   <line x1="914.618286" y1="1018.008972" x2="883.212585" y2="1018.008972" style="stroke: green; stroke-width: 0.200000"/>
   <line x1="915.618286" y1="1017.008972" x2="883.928223" y2="1017.008972" style="stroke: green; stroke-width: 0.200000"/>
   <line x1="916.618347" y1="1016.008972" x2="884.650574" y2="1016.008972" style="stroke: green; stroke-width: 0.200000"/>
   <line x1="917.618347" y1="1015.009033" x2="885.384644" y2="1015.009033" style="stroke: green; stroke-width: 0.200000"/>
   <line x1="918.618286" y1="1014.009033" x2="886.139893" y2="1014.009033" style="stroke: green; stroke-width: 0.200000"/>
   <line x1="919.618286" y1="1013.008972" x2="886.950073" y2="1013.008972" style="stroke: green; stroke-width: 0.200000"/>
   <line x1="920.618286" y1="1012.008972" x2="887.763672" y2="1012.008972" style="stroke: green; stroke-width: 0.200000"/>
   <line x1="921.618347" y1="1011.008972" x2="888.591980" y2="1011.008972" style="stroke: green; stroke-width: 0.200000"/>
   <line x1="922.618347" y1="1010.009033" x2="889.440674" y2="1010.009033" style="stroke: green; stroke-width: 0.200000"/>
   <line x1="923.618286" y1="1009.009033" x2="890.338257" y2="1009.009033" style="stroke: green; stroke-width: 0.200000"/>
   <line x1="924.618286" y1="1008.008972" x2="891.239624" y2="1008.008972" style="stroke: green; stroke-width: 0.200000"/>
   <line x1="925.618286" y1="1007.008972" x2="892.155640" y2="1007.008972" style="stroke: green; stroke-width: 0.200000"/>
   <line x1="926.618347" y1="1006.008972" x2="893.098694" y2="1006.008972" style="stroke: green; stroke-width: 0.200000"/>
   <line x1="926.836792" y1="1005.009033" x2="894.072205" y2="1005.009033" style="stroke: green; stroke-width: 0.200000"/>
   <line x1="926.836792" y1="1004.009033" x2="895.052612" y2="1004.009033" style="stroke: green; stroke-width: 0.200000"/>
   <line x1="926.836792" y1="1003.008972" x2="896.045532" y2="1003.008972" style="stroke: green; stroke-width: 0.200000"/>
   <line x1="926.836792" y1="1002.008972" x2="897.086792" y2="1002.008972" style="stroke: green; stroke-width: 0.200000"/>
   <line x1="926.836792" y1="1001.008972" x2="898.141113" y2="1001.008972" style="stroke: green; stroke-width: 0.200000"/>
   <line x1="926.836792" y1="1000.009033" x2="899.187012" y2="1000.009033" style="stroke: green; stroke-width: 0.200000"/>
   <line x1="926.836792" y1="999.009033" x2="900.213318" y2="999.009033" style="stroke: green; stroke-width: 0.200000"/>
   <line x1="926.836792" y1="998.008972" x2="901.239624" y2="998.008972" style="stroke: green; stroke-width: 0.200000"/>
   <line x1="926.836792" y1="997.008972" x2="902.294556" y2="997.008972" style="stroke: green; stroke-width: 0.200000"/>
   <line x1="926.836792" y1="996.008972" x2="903.543213" y2="996.008972" style="stroke: green; stroke-width: 0.200000"/>
   <line x1="926.836792" y1="995.009033" x2="905.036316" y2="995.009033" style="stroke: green; stroke-width: 0.200000"/>
   <line x1="926.836792" y1="994.009033" x2="906.876465" y2="994.009033" style="stroke: green; stroke-width: 0.200000"/>
   <line x1="926.836792" y1="993.008972" x2="909.471924" y2="993.008972" style="stroke: green; stroke-width: 0.200000"/>
   <line x1="926.836792" y1="992.008972" x2="913.994812" y2="992.008972" style="stroke: green; stroke-width: 0.200000"/>
   <line x1="926.836792" y1="991.008972" x2="919.206421" y2="991.008972" style="stroke: green; stroke-width: 0.200000"/>
   <line x1="926.836792" y1="990.009033" x2="923.958862" y2="990.009033" style="stroke: green; stroke-width: 0.200000"/>
   <line x1="927.618347" y1="1005.009033" x2="926.936707" y2="1005.009033" style="stroke: green; stroke-width: 0.200000"/>
   <line x1="928.618286" y1="1004.009033" x2="926.936707" y2="1004.009033" style="stroke: green; stroke-width: 0.200000"/>
   <line x1="929.618286" y1="1003.008972" x2="926.936707" y2="1003.008972" style="stroke: green; stroke-width: 0.200000"/>
   <line x1="930.618286" y1="1002.008972" x2="926.936707" y2="1002.008972" style="stroke: green; stroke-width: 0.200000"/>
   <line x1="931.618347" y1="1001.008972" x2="926.936707" y2="1001.008972" style="stroke: green; stroke-width: 0.200000"/>
   <line x1="938.385986" y1="1000.009033" x2="938.370361" y2="1000.009033" style="stroke: green; stroke-width: 0.200000"/>
   <line x1="932.618347" y1="1000.009033" x2="926.936707" y2="1000.009033" style="stroke: green; stroke-width: 0.200000"/>
   <line x1="939.385986" y1="999.009033" x2="937.370361" y2="999.009033" style="stroke: green; stroke-width: 0.200000"/>
   <line x1="933.618286" y1="999.009033" x2="926.936707" y2="999.009033" style="stroke: green; stroke-width: 0.200000"/>
   <line x1="940.385986" y1="998.008972" x2="936.370300" y2="998.008972" style="stroke: green; stroke-width: 0.200000"/>
   <line x1="934.618286" y1="998.008972" x2="926.936707" y2="998.008972" style="stroke: green; stroke-width: 0.200000"/>
   <line x1="941.385986" y1="997.008972" x2="926.936707" y2="997.008972" style="stroke: green; stroke-width: 0.200000"/>
   <line x1="942.385986" y1="996.008972" x2="926.936707" y2="996.008972" style="stroke: green; stroke-width: 0.200000"/>
   <line x1="943.385986" y1="995.009033" x2="926.936707" y2="995.009033" style="stroke: green; stroke-width: 0.200000"/>
   <line x1="944.385986" y1="994.009033" x2="926.936707" y2="994.009033" style="stroke: green; stroke-width: 0.200000"/>
   <line x1="943.817688" y1="993.008972" x2="926.936707" y2="993.008972" style="stroke: green; stroke-width: 0.200000"/>
   <line x1="942.814636" y1="992.008972" x2="926.936707" y2="992.008972" style="stroke: green; stroke-width: 0.200000"/>
   <line x1="941.811584" y1="991.008972" x2="926.936707" y2="991.008972" style="stroke: green; stroke-width: 0.200000"/>
   <line x1="940.808594" y1="990.009033" x2="926.936707" y2="990.009033" style="stroke: green; stroke-width: 0.200000"/>
   <line x1="939.805542" y1="989.009033" x2="928.741211" y2="989.009033" style="stroke: green; stroke-width: 0.200000"/>
   <line x1="938.745972" y1="988.008972" x2="933.663696" y2="988.008972" style="stroke: green; stroke-width: 0.200000"/>
   <line x1="889.539490" y1="1050.009033" x2="888.799683" y2="1050.009033" style="stroke: green; stroke-width: 0.200000"/>
   <line x1="890.539551" y1="1049.009033" x2="887.822510" y2="1049.009033" style="stroke: green; stroke-width: 0.200000"/>
   <line x1="889.980225" y1="1048.008911" x2="886.866516" y2="1048.008911" style="stroke: green; stroke-width: 0.200000"/>
   <line x1="889.003418" y1="1047.009033" x2="885.903931" y2="1047.009033" style="stroke: green; stroke-width: 0.200000"/>
   <line x1="888.026672" y1="1046.009033" x2="884.933105" y2="1046.009033" style="stroke: green; stroke-width: 0.200000"/>
   <line x1="887.618347" y1="1045.009033" x2="883.962341" y2="1045.009033" style="stroke: green; stroke-width: 0.200000"/>
   <line x1="888.618286" y1="1044.009033" x2="883.018494" y2="1044.009033" style="stroke: green; stroke-width: 0.200000"/>
   <line x1="889.618286" y1="1043.008911" x2="882.083740" y2="1043.008911" style="stroke: green; stroke-width: 0.200000"/>
   <line x1="890.618286" y1="1042.009033" x2="881.162842" y2="1042.009033" style="stroke: green; stroke-width: 0.200000"/>
   <line x1="891.618347" y1="1041.009033" x2="880.359253" y2="1041.009033" style="stroke: green; stroke-width: 0.200000"/>
   <line x1="892.618347" y1="1040.009033" x2="879.574951" y2="1040.009033" style="stroke: green; stroke-width: 0.200000"/>
   <line x1="893.618286" y1="1039.009033" x2="878.978577" y2="1039.009033" style="stroke: green; stroke-width: 0.200000"/>
   <line x1="894.618286" y1="1038.008911" x2="878.398438" y2="1038.008911" style="stroke: green; stroke-width: 0.200000"/>
   <line x1="1044.899658" y1="979.592407" x2="1038.620605" y2="979.592407" style="stroke: green; stroke-width: 0.200000"/>
   <line x1="1046.313110" y1="978.592468" x2="1037.210449" y2="978.592468" style="stroke: green; stroke-width: 0.200000"/>
   <line x1="1047.189331" y1="977.592407" x2="1036.347900" y2="977.592407" style="stroke: green; stroke-width: 0.200000"/>
   <line x1="1047.792236" y1="976.592407" x2="1035.747314" y2="976.592407" style="stroke: green; stroke-width: 0.200000"/>
   <line x1="1048.185425" y1="975.592407" x2="1035.339233" y2="975.592407" style="stroke: green; stroke-width: 0.200000"/>
   <line x1="1048.405640" y1="974.592407" x2="1035.110962" y2="974.592407" style="stroke: green; stroke-width: 0.200000"/>
   <line x1="1048.475586" y1="973.592468" x2="1035.037354" y2="973.592468" style="stroke: green; stroke-width: 0.200000"/>
   <line x1="1048.398193" y1="972.592407" x2="1035.128784" y2="972.592407" style="stroke: green; stroke-width: 0.200000"/>
   <line x1="1048.170532" y1="971.592407" x2="1035.372314" y2="971.592407" style="stroke: green; stroke-width: 0.200000"/>
   <line x1="1047.758911" y1="970.592407" x2="1035.782227" y2="970.592407" style="stroke: green; stroke-width: 0.200000"/>
   <line x1="1047.118042" y1="969.592407" x2="1036.410645" y2="969.592407" style="stroke: green; stroke-width: 0.200000"/>
   <line x1="1046.187012" y1="968.592468" x2="1037.319458" y2="968.592468" style="stroke: green; stroke-width: 0.200000"/>
   <line x1="1044.706421" y1="967.592407" x2="1038.868896" y2="967.592407" style="stroke: green; stroke-width: 0.200000"/>
   <line x1="994.706299" y1="937.921082" x2="976.898865" y2="937.921082" style="stroke: green; stroke-width: 0.200000"/>
   <line x1="995.706238" y1="936.921082" x2="977.150879" y2="936.921082" style="stroke: green; stroke-width: 0.200000"/>
   <line x1="996.706238" y1="935.921082" x2="977.365479" y2="935.921082" style="stroke: green; stroke-width: 0.200000"/>
   <line x1="997.706238" y1="934.921143" x2="977.578979" y2="934.921143" style="stroke: green; stroke-width: 0.200000"/>
   <line x1="998.706177" y1="933.921021" x2="977.790833" y2="933.921021" style="stroke: green; stroke-width: 0.200000"/>
   <line x1="999.706177" y1="932.921082" x2="977.961487" y2="932.921082" style="stroke: green; stroke-width: 0.200000"/>
   <line x1="1000.706238" y1="931.921082" x2="978.174316" y2="931.921082" style="stroke: green; stroke-width: 0.200000"/>
   <line x1="1001.706238" y1="930.921082" x2="978.386963" y2="930.921082" style="stroke: green; stroke-width: 0.200000"/>
   <line x1="1002.706238" y1="929.921143" x2="978.591919" y2="929.921143" style="stroke: green; stroke-width: 0.200000"/>
   <line x1="1003.706177" y1="928.921021" x2="978.748840" y2="928.921021" style="stroke: green; stroke-width: 0.200000"/>
   <line x1="1004.706177" y1="927.921082" x2="978.905701" y2="927.921082" style="stroke: green; stroke-width: 0.200000"/>
   <line x1="1005.706238" y1="926.921082" x2="979.062561" y2="926.921082" style="stroke: green; stroke-width: 0.200000"/>
   <line x1="1006.706238" y1="925.921082" x2="979.219482" y2="925.921082" style="stroke: green; stroke-width: 0.200000"/>
   <line x1="1007.706238" y1="924.921143" x2="979.381348" y2="924.921143" style="stroke: green; stroke-width: 0.200000"/>
   <line x1="1008.706177" y1="923.921021" x2="979.548828" y2="923.921021" style="stroke: green; stroke-width: 0.200000"/>
   <line x1="1009.706177" y1="922.921082" x2="979.767822" y2="922.921082" style="stroke: green; stroke-width: 0.200000"/>
   <line x1="1010.706238" y1="921.921082" x2="980.002380" y2="921.921082" style="stroke: green; stroke-width: 0.200000"/>
   <line x1="1011.706238" y1="920.921082" x2="980.236877" y2="920.921082" style="stroke: green; stroke-width: 0.200000"/>
   <line x1="1012.706238" y1="919.921143" x2="980.586487" y2="919.921143" style="stroke: green; stroke-width: 0.200000"/>
   <line x1="1013.706177" y1="918.921021" x2="981.012512" y2="918.921021" style="stroke: green; stroke-width: 0.200000"/>
   <line x1="1014.706177" y1="917.921082" x2="981.438599" y2="917.921082" style="stroke: green; stroke-width: 0.200000"/>
   <line x1="1015.706238" y1="916.921082" x2="981.990601" y2="916.921082" style="stroke: green; stroke-width: 0.200000"/>
   <line x1="1016.706238" y1="915.921082" x2="982.648865" y2="915.921082" style="stroke: green; stroke-width: 0.200000"/>
   <line x1="1017.706238" y1="914.921143" x2="983.307007" y2="914.921143" style="stroke: green; stroke-width: 0.200000"/>
   <line x1="1018.706177" y1="913.921021" x2="984.126221" y2="913.921021" style="stroke: green; stroke-width: 0.200000"/>
   <line x1="1019.706177" y1="912.921082" x2="985.038574" y2="912.921082" style="stroke: green; stroke-width: 0.200000"/>
   <line x1="1020.706238" y1="911.921082" x2="985.984436" y2="911.921082" style="stroke: green; stroke-width: 0.200000"/>
   <line x1="1021.706238" y1="910.921082" x2="986.930237" y2="910.921082" style="stroke: green; stroke-width: 0.200000"/>
   <line x1="1022.706238" y1="909.921143" x2="987.876038" y2="909.921143" style="stroke: green; stroke-width: 0.200000"/>
   <line x1="1023.706177" y1="908.921021" x2="988.821899" y2="908.921021" style="stroke: green; stroke-width: 0.200000"/>
   <line x1="1023.768433" y1="907.921082" x2="989.808655" y2="907.921082" style="stroke: green; stroke-width: 0.200000"/>
   <line x1="1023.768433" y1="906.921082" x2="990.818542" y2="906.921082" style="stroke: green; stroke-width: 0.200000"/>
   <line x1="1023.768433" y1="905.921082" x2="991.828491" y2="905.921082" style="stroke: green; stroke-width: 0.200000"/>
   <line x1="1023.768433" y1="904.921143" x2="992.838379" y2="904.921143" style="stroke: green; stroke-width: 0.200000"/>
   <line x1="1023.768433" y1="903.921021" x2="993.848267" y2="903.921021" style="stroke: green; stroke-width: 0.200000"/>
   <line x1="1023.768433" y1="902.921082" x2="994.858154" y2="902.921082" style="stroke: green; stroke-width: 0.200000"/>
   <line x1="1023.768433" y1="901.921082" x2="995.886353" y2="901.921082" style="stroke: green; stroke-width: 0.200000"/>
   <line x1="1023.768433" y1="900.921082" x2="997.034607" y2="900.921082" style="stroke: green; stroke-width: 0.200000"/>
   <line x1="1023.768433" y1="899.921143" x2="998.182922" y2="899.921143" style="stroke: green; stroke-width: 0.200000"/>
   <line x1="1023.768433" y1="898.921021" x2="999.331116" y2="898.921021" style="stroke: green; stroke-width: 0.200000"/>
   <line x1="1023.768433" y1="897.921082" x2="1000.479370" y2="897.921082" style="stroke: green; stroke-width: 0.200000"/>
   <line x1="1023.768433" y1="896.921082" x2="1001.627563" y2="896.921082" style="stroke: green; stroke-width: 0.200000"/>
   <line x1="1023.768433" y1="895.921082" x2="1002.787354" y2="895.921082" style="stroke: green; stroke-width: 0.200000"/>
   <line x1="1023.768433" y1="894.921143" x2="1004.070984" y2="894.921143" style="stroke: green; stroke-width: 0.200000"/>
   <line x1="1023.768433" y1="893.921021" x2="1005.354675" y2="893.921021" style="stroke: green; stroke-width: 0.200000"/>
   <line x1="1023.768433" y1="892.921082" x2="1006.663208" y2="892.921082" style="stroke: green; stroke-width: 0.200000"/>
   <line x1="1023.768433" y1="891.921082" x2="1008.037842" y2="891.921082" style="stroke: green; stroke-width: 0.200000"/>
   <line x1="1023.768433" y1="890.921082" x2="1009.347168" y2="890.921082" style="stroke: green; stroke-width: 0.200000"/>
   <line x1="1023.768433" y1="889.921143" x2="1010.977417" y2="889.921143" style="stroke: green; stroke-width: 0.200000"/>
   <line x1="1023.491577" y1="888.921021" x2="1013.185669" y2="888.921021" style="stroke: green; stroke-width: 0.200000"/>
   <line x1="1024.706177" y1="907.921082" x2="1023.868469" y2="907.921082" style="stroke: green; stroke-width: 0.200000"/>
   <line x1="1025.706299" y1="906.921082" x2="1023.868469" y2="906.921082" style="stroke: green; stroke-width: 0.200000"/>
   <line x1="1026.706299" y1="905.921082" x2="1023.868469" y2="905.921082" style="stroke: green; stroke-width: 0.200000"/>
   <line x1="1027.706177" y1="904.921143" x2="1023.868469" y2="904.921143" style="stroke: green; stroke-width: 0.200000"/>
   <line x1="1028.706177" y1="903.921021" x2="1023.868469" y2="903.921021" style="stroke: green; stroke-width: 0.200000"/>
   <line x1="1036.627441" y1="902.921082" x2="1036.374146" y2="902.921082" style="stroke: green; stroke-width: 0.200000"/>
   <line x1="1029.706177" y1="902.921082" x2="1023.868469" y2="902.921082" style="stroke: green; stroke-width: 0.200000"/>
   <line x1="1037.627441" y1="901.921082" x2="1035.427368" y2="901.921082" style="stroke: green; stroke-width: 0.200000"/>
   <line x1="1030.706299" y1="901.921082" x2="1023.868469" y2="901.921082" style="stroke: green; stroke-width: 0.200000"/>
   <line x1="1037.557617" y1="900.921082" x2="1034.480713" y2="900.921082" style="stroke: green; stroke-width: 0.200000"/>
   <line x1="1031.706299" y1="900.921082" x2="1023.868469" y2="900.921082" style="stroke: green; stroke-width: 0.200000"/>
   <line x1="1036.600342" y1="899.921143" x2="1033.533936" y2="899.921143" style="stroke: green; stroke-width: 0.200000"/>
   <line x1="1032.706177" y1="899.921143" x2="1023.868469" y2="899.921143" style="stroke: green; stroke-width: 0.200000"/>
   <line x1="1035.643066" y1="898.921021" x2="1023.868469" y2="898.921021" style="stroke: green; stroke-width: 0.200000"/>
   <line x1="1034.685791" y1="897.921082" x2="1023.868469" y2="897.921082" style="stroke: green; stroke-width: 0.200000"/>
   <line x1="1033.728638" y1="896.921082" x2="1023.868469" y2="896.921082" style="stroke: green; stroke-width: 0.200000"/>
   <line x1="1032.771362" y1="895.921082" x2="1023.868469" y2="895.921082" style="stroke: green; stroke-width: 0.200000"/>
   <line x1="1031.814087" y1="894.921143" x2="1023.868469" y2="894.921143" style="stroke: green; stroke-width: 0.200000"/>
   <line x1="1030.856812" y1="893.921021" x2="1023.868469" y2="893.921021" style="stroke: green; stroke-width: 0.200000"/>
   <line x1="1029.816284" y1="892.921082" x2="1023.868469" y2="892.921082" style="stroke: green; stroke-width: 0.200000"/>
   <line x1="1028.684814" y1="891.921082" x2="1023.868469" y2="891.921082" style="stroke: green; stroke-width: 0.200000"/>
   <line x1="1027.385254" y1="890.921082" x2="1023.868469" y2="890.921082" style="stroke: green; stroke-width: 0.200000"/>
   <line x1="1025.751831" y1="889.921143" x2="1023.868469" y2="889.921143" style="stroke: green; stroke-width: 0.200000"/>
   <line x1="980.473877" y1="957.921082" x2="980.263672" y2="957.921082" style="stroke: green; stroke-width: 0.200000"/>
   <line x1="981.473938" y1="956.921082" x2="979.263672" y2="956.921082" style="stroke: green; stroke-width: 0.200000"/>
   <line x1="982.473877" y1="955.921082" x2="978.263672" y2="955.921082" style="stroke: green; stroke-width: 0.200000"/>
   <line x1="983.473877" y1="954.921143" x2="977.263672" y2="954.921143" style="stroke: green; stroke-width: 0.200000"/>
   <line x1="984.473877" y1="953.921021" x2="976.263672" y2="953.921021" style="stroke: green; stroke-width: 0.200000"/>
   <line x1="985.473938" y1="952.921082" x2="975.263672" y2="952.921082" style="stroke: green; stroke-width: 0.200000"/>
   <line x1="986.473938" y1="951.921082" x2="974.340210" y2="951.921082" style="stroke: green; stroke-width: 0.200000"/>
   <line x1="986.611633" y1="950.921082" x2="973.875183" y2="950.921082" style="stroke: green; stroke-width: 0.200000"/>
   <line x1="985.611633" y1="949.921143" x2="973.817139" y2="949.921143" style="stroke: green; stroke-width: 0.200000"/>
   <line x1="984.611572" y1="948.921021" x2="974.072021" y2="948.921021" style="stroke: green; stroke-width: 0.200000"/>
   <line x1="984.706299" y1="947.921082" x2="974.333557" y2="947.921082" style="stroke: green; stroke-width: 0.200000"/>
   <line x1="985.706238" y1="946.921082" x2="974.595093" y2="946.921082" style="stroke: green; stroke-width: 0.200000"/>
   <line x1="986.706238" y1="945.921082" x2="974.872314" y2="945.921082" style="stroke: green; stroke-width: 0.200000"/>
   <line x1="987.706238" y1="944.921143" x2="975.153687" y2="944.921143" style="stroke: green; stroke-width: 0.200000"/>
   <line x1="988.706177" y1="943.921021" x2="975.434937" y2="943.921021" style="stroke: green; stroke-width: 0.200000"/>
   <line x1="989.706299" y1="942.921082" x2="975.694458" y2="942.921082" style="stroke: green; stroke-width: 0.200000"/>
   <line x1="990.706238" y1="941.921082" x2="975.944519" y2="941.921082" style="stroke: green; stroke-width: 0.200000"/>
   <line x1="991.706238" y1="940.921082" x2="976.194702" y2="940.921082" style="stroke: green; stroke-width: 0.200000"/>
   <line x1="992.706238" y1="939.921143" x2="976.424561" y2="939.921143" style="stroke: green; stroke-width: 0.200000"/>
   <line x1="993.706177" y1="938.921021" x2="976.647034" y2="938.921021" style="stroke: green; stroke-width: 0.200000"/>
   <line x1="1033.593750" y1="1085.373657" x2="1027.498291" y2="1085.373657" style="stroke: green; stroke-width: 0.200000"/>
   <line x1="1033.816406" y1="1084.373535" x2="1024.460205" y2="1084.373535" style="stroke: green; stroke-width: 0.200000"/>
   <line x1="1034.059326" y1="1083.373535" x2="1023.601135" y2="1083.373535" style="stroke: green; stroke-width: 0.200000"/>
   <line x1="1034.335449" y1="1082.373535" x2="1023.899475" y2="1082.373535" style="stroke: green; stroke-width: 0.200000"/>
   <line x1="1034.611694" y1="1081.373535" x2="1024.198242" y2="1081.373535" style="stroke: green; stroke-width: 0.200000"/>
   <line x1="1034.887817" y1="1080.373657" x2="1024.497070" y2="1080.373657" style="stroke: green; stroke-width: 0.200000"/>
   <line x1="1035.167725" y1="1079.373535" x2="1024.796021" y2="1079.373535" style="stroke: green; stroke-width: 0.200000"/>
   <line x1="1035.481934" y1="1078.373535" x2="1025.094971" y2="1078.373535" style="stroke: green; stroke-width: 0.200000"/>
   <line x1="1035.842163" y1="1077.373535" x2="1025.393799" y2="1077.373535" style="stroke: green; stroke-width: 0.200000"/>
   <line x1="1036.202271" y1="1076.373535" x2="1025.692627" y2="1076.373535" style="stroke: green; stroke-width: 0.200000"/>
   <line x1="1036.562500" y1="1075.373657" x2="1025.991455" y2="1075.373657" style="stroke: green; stroke-width: 0.200000"/>
   <line x1="1036.931152" y1="1074.373535" x2="1026.290283" y2="1074.373535" style="stroke: green; stroke-width: 0.200000"/>
   <line x1="1037.358887" y1="1073.373535" x2="1026.612793" y2="1073.373535" style="stroke: green; stroke-width: 0.200000"/>
   <line x1="1037.822021" y1="1072.373535" x2="1027.003418" y2="1072.373535" style="stroke: green; stroke-width: 0.200000"/>
   <line x1="1038.285034" y1="1071.373535" x2="1027.360107" y2="1071.373535" style="stroke: green; stroke-width: 0.200000"/>
   <line x1="1038.766846" y1="1070.373657" x2="1027.722290" y2="1070.373657" style="stroke: green; stroke-width: 0.200000"/>
   <line x1="1039.309814" y1="1069.373535" x2="1028.128540" y2="1069.373535" style="stroke: green; stroke-width: 0.200000"/>
   <line x1="1039.877441" y1="1068.373535" x2="1028.539551" y2="1068.373535" style="stroke: green; stroke-width: 0.200000"/>
   <line x1="1040.460083" y1="1067.373535" x2="1029.002563" y2="1067.373535" style="stroke: green; stroke-width: 0.200000"/>
   <line x1="1041.058594" y1="1066.373535" x2="1029.491699" y2="1066.373535" style="stroke: green; stroke-width: 0.200000"/>
   <line x1="1041.674561" y1="1065.373657" x2="1029.996582" y2="1065.373657" style="stroke: green; stroke-width: 0.200000"/>
   <line x1="1042.412231" y1="1064.373535" x2="1030.483887" y2="1064.373535" style="stroke: green; stroke-width: 0.200000"/>
   <line x1="1043.149902" y1="1063.373535" x2="1031.036133" y2="1063.373535" style="stroke: green; stroke-width: 0.200000"/>
   <line x1="1043.887451" y1="1062.373535" x2="1031.605103" y2="1062.373535" style="stroke: green; stroke-width: 0.200000"/>
   <line x1="1044.714722" y1="1061.373535" x2="1032.173096" y2="1061.373535" style="stroke: green; stroke-width: 0.200000"/>
   <line x1="1045.574707" y1="1060.373657" x2="1032.790405" y2="1060.373657" style="stroke: green; stroke-width: 0.200000"/>
   <line x1="1046.454346" y1="1059.373535" x2="1033.418945" y2="1059.373535" style="stroke: green; stroke-width: 0.200000"/>
   <line x1="1047.395508" y1="1058.373535" x2="1034.075684" y2="1058.373535" style="stroke: green; stroke-width: 0.200000"/>
   <line x1="1048.398926" y1="1057.373535" x2="1034.779175" y2="1057.373535" style="stroke: green; stroke-width: 0.200000"/>
   <line x1="1049.470093" y1="1056.373535" x2="1035.508179" y2="1056.373535" style="stroke: green; stroke-width: 0.200000"/>
   <line x1="1050.563232" y1="1055.373657" x2="1036.342773" y2="1055.373657" style="stroke: green; stroke-width: 0.200000"/>
   <line x1="1051.696167" y1="1054.373535" x2="1037.166870" y2="1054.373535" style="stroke: green; stroke-width: 0.200000"/>
   <line x1="1053.018311" y1="1053.373535" x2="1037.992676" y2="1053.373535" style="stroke: green; stroke-width: 0.200000"/>
   <line x1="1054.304077" y1="1052.373535" x2="1038.839844" y2="1052.373535" style="stroke: green; stroke-width: 0.200000"/>
   <line x1="1055.674316" y1="1051.373535" x2="1039.822510" y2="1051.373535" style="stroke: green; stroke-width: 0.200000"/>
   <line x1="1057.217529" y1="1050.373657" x2="1040.839600" y2="1050.373657" style="stroke: green; stroke-width: 0.200000"/>
   <line x1="1058.760742" y1="1049.373535" x2="1041.861450" y2="1049.373535" style="stroke: green; stroke-width: 0.200000"/>
   <line x1="1060.550781" y1="1048.373535" x2="1042.883301" y2="1048.373535" style="stroke: green; stroke-width: 0.200000"/>
   <line x1="1062.510010" y1="1047.373535" x2="1044.047729" y2="1047.373535" style="stroke: green; stroke-width: 0.200000"/>
   <line x1="1064.657593" y1="1046.373535" x2="1045.334595" y2="1046.373535" style="stroke: green; stroke-width: 0.200000"/>
   <line x1="1067.476685" y1="1045.373657" x2="1046.591919" y2="1045.373657" style="stroke: green; stroke-width: 0.200000"/>
   <line x1="1067.426392" y1="1044.373535" x2="1047.897827" y2="1044.373535" style="stroke: green; stroke-width: 0.200000"/>
   <line x1="1066.860229" y1="1043.373535" x2="1049.326050" y2="1043.373535" style="stroke: green; stroke-width: 0.200000"/>
   <line x1="1066.294189" y1="1042.373535" x2="1050.931519" y2="1042.373535" style="stroke: green; stroke-width: 0.200000"/>
   <line x1="1065.728149" y1="1041.373535" x2="1052.650269" y2="1041.373535" style="stroke: green; stroke-width: 0.200000"/>
   <line x1="1065.162231" y1="1040.373657" x2="1054.401001" y2="1040.373657" style="stroke: green; stroke-width: 0.200000"/>
   <line x1="1064.596191" y1="1039.373535" x2="1056.443726" y2="1039.373535" style="stroke: green; stroke-width: 0.200000"/>
   <line x1="1064.030273" y1="1038.373535" x2="1058.486450" y2="1038.373535" style="stroke: green; stroke-width: 0.200000"/>
   <line x1="1063.464233" y1="1037.373535" x2="1060.529419" y2="1037.373535" style="stroke: green; stroke-width: 0.200000"/>
   <line x1="1062.898438" y1="1036.373535" x2="1062.571533" y2="1036.373535" style="stroke: green; stroke-width: 0.200000"/>
   <line x1="1033.398926" y1="1086.373535" x2="1030.535400" y2="1086.373535" style="stroke: green; stroke-width: 0.200000"/>
   <line x1="1063.427246" y1="1037.307861" x2="1063.427002" y2="1037.307861" style="stroke: green; stroke-width: 0.200000"/>
   <path d="M 1009.15  1113.29  1007.87  1113.64  1005.77  1114.05  1003.62  1114.34  1001.44  1114.51  1001  1114.51  999.066  1114.46  996.677  1114.27  994.298  1113.95  991.948  1113.51  990.356  1113.12  989.566  1112.9  987.131  1112.11  985.172  1111.39  984.851  1111.26  980.87  1109.56  974.455  1106.87  969.599  1104.72  973.779  1100.54  974.641  1100.75  979.346  1101.76  1008.67  1072.43  1005.56  1069.32  1056.35  1018.53  1059.46  1021.65  1101.11  979.988  1098.18  976.132  1101.89  972.425  1102.81  973.592  1110.36  983.004  1110.98  983.794  1111.55  984.621  1112.52  985.924  1114.02  988.228  1115.25  990.547  1116.31  992.903  1117.21  995.312  1117.95  997.755  1118.51  1000.21  1118.6  1000.8  1118.79  1002.61  1118.87  1004.94  1118.87  1006.63  " style="fill: none; stroke: darkmagenta; stroke-width: 0.200000; fill-type: evenodd"  fill-opacity="1.000000" />
   <path d="M 1118.87  1006.63  1118.87  1006.65  1118.85  1007.29  1118.58  1009.56  1118.1  1011.69  1117.45  1013.74  1117  1014.81  1116.63  1015.68  1115.65  1017.5  1114.05  1019.82  1108.46  1026.54  1102.53  1032.8  1097.82  1037.16  1095.57  1039.07  1092.94  1040.53  1090.07  1041.6  1088.01  1042.08  1087.03  1042.28  1086.8  1042.34  1084.34  1042.78  1080.73  1043.36  1075.03  1044.61  1071.1  1045.78  1069.68  1046.16  1068.9  1046.46  1064.63  1047.97  1060.14  1050.27  1056.04  1052.93  1053.43  1054.95  1052.87  1055.34  1051.98  1056.11  1050.63  1057.36  1050.06  1057.84  1048.13  1059.75  1047.21  1060.77  1045.26  1063.04  1042.83  1066.33  1041.46  1068.62  1040.33  1070.61  1039.93  1071.39  1038.56  1074.35  1038.26  1075.1  1036.82  1079.09  1036.56  1079.95  1035.41  1084.12  1035.06  1085.69  1035.06  1085.81  1034.66  1087.64  1033.78  1090.27  1033.43  1091.1  1032.58  1092.88  1032.04  1093.77  1031.02  1095.32  1028.96  1097.78  1023.85  1103.04  1018.57  1108.08  1018.07  1108.63  1016.75  1109.62  1015.28  1110.67  1013.68  1111.62  1011.83  1112.43  1009.89  1113.09  1009.15  1113.29  " style="fill: none; stroke: red; stroke-width: 0.200000; fill-type: evenodd"  fill-opacity="1.000000" />
   <path d="M 1036.25  1077.73  1035.87  1078.78  1035.6  1079.68  1034.44  1083.87  1034.06  1085.56  1034.06  1085.68  1033.69  1087.37  1032.84  1089.91  1032.51  1090.69  1031.7  1092.4  1031.19  1093.24  1030.21  1094.72  1028.22  1097.11  1023.14  1102.33  1017.85  1107.38  1017.39  1107.89  1016.15  1108.82  1014.73  1109.83  1013.23  1110.73  1011.46  1111.5  1009.6  1112.14  1007.64  1112.66  1005.61  1113.07  1003.52  1113.35  1001.39  1113.51  1001.01  1113.51  999.12  1113.46  996.784  1113.27  994.457  1112.96  992.158  1112.53  990.606  1112.15  989.853  1111.95  987.459  1111.16  985.522  1110.45  985.225  1110.34  981.26  1108.64  974.851  1105.95  971.336  1104.39  974.086  1101.64  974.415  1101.73  979.669  1102.85  1010.09  1072.43  1006.97  1069.32  1056.35  1019.95  1059.46  1023.06  1102.44  980.078  1099.51  976.222  1101.8  973.928  1109.58  983.624  1110.17  984.385  1110.73  985.203  1111.7  986.496  1113.16  988.737  1114.36  990.987  1115.38  993.283  1116.26  995.631  1116.98  998.011  1117.53  1000.4  1117.61  1000.93  1117.79  1002.68  1117.87  1004.95  1117.87  1006.64  1117.85  1007.22  1117.59  1009.39  1117.13  1011.43  1116.51  1013.39  1116.08  1014.42  1115.73  1015.25  1114.8  1016.98  1113.25  1019.22  1107.71  1025.88  1101.83  1032.09  1097.15  1036.42  1095  1038.25  1092.52  1039.62  1089.78  1040.64  1087.79  1041.1  1086.8  1041.31  1086.58  1041.37  1084.18  1041.79  1080.54  1042.38  1074.79  1043.64  1070.82  1044.82  1069.38  1045.21  1068.56  1045.52  1064.24  1047.05  1059.64  1049.4  1059.01  1049.81  " style="fill: none; stroke: black; stroke-width: 0.200000; fill-type: evenodd"  fill-opacity="1.000000" />
   <path d="M 1059.01  1049.81  1055.46  1052.11  1052.84  1054.14  1052.26  1054.55  1051.31  1055.36  1049.97  1056.61  1049.38  1057.1  1047.41  1059.06  1046.46  1060.11  1044.48  1062.42  1042  1065.78  1040.6  1068.12  1039.45  1070.14  1039.03  1070.95  1037.64  1073.95  1037.32  1074.74  1036.25  1077.73  " style="fill: none; stroke: red; stroke-width: 0.200000; fill-type: evenodd"  fill-opacity="1.000000" />
   <path d="M 961.333  1046.08  962.108  1046.1  963.461  1046.38  964.749  1046.89  965.931  1047.61  966.911  1048.44  967.806  1049.51  968.478  1050.63  968.759  1051.32  968.983  1051.91  969.267  1053.27  969.319  1054.66  969.137  1056.03  968.928  1056.75  968.729  1057.35  968.402  1058.03  968.104  1058.59  967.669  1059.2  967.281  1059.71  966.75  1060.24  966.282  1060.67  965.67  1061.1  965.136  1061.45  964.461  1061.77  963.876  1062.02  963.155  1062.23  962.537  1062.38  961.791  1062.47  961.157  1062.51  960.408  1062.47  959.776  1062.4  959.043  1062.24  958.432  1062.07  957.736  1061.78  957.163  1061.51  956.524  1061.11  956.007  1060.75  955.499  1060.31  955.053  1059.87  954.605  1059.34  954.356  1058.94  954.013  1058.46  953.844  1058.18  953.289  1056.91  952.958  1055.56  952.856  1054.18  952.988  1052.8  953.347  1051.47  953.581  1050.99  953.814  1050.44  953.924  1050.21  954.709  1049.07  955.671  1048.07  956.787  1047.25  958.024  1046.63  959.348  1046.22  960.718  1046.04  961.333  1046.08  " style="fill: none; stroke: darkmagenta; stroke-width: 0.200000; fill-type: evenodd"  fill-opacity="1.000000" />
   <path d="M 961.293  1047.07  961.989  1047.1  963.172  1047.34  964.303  1047.79  965.344  1048.42  966.198  1049.15  966.989  1050.09  967.581  1051.08  967.828  1051.69  968.02  1052.19  968.271  1053.39  968.316  1054.61  968.156  1055.83  967.973  1056.45  967.8  1056.98  967.51  1057.58  967.252  1058.07  966.866  1058.61  966.528  1059.04  966.058  1059.52  965.651  1059.89  965.109  1060.27  964.645  1060.57  964.046  1060.86  963.539  1061.08  962.9  1061.27  962.363  1061.39  961.702  1061.47  961.151  1061.51  960.486  1061.47  959.938  1061.41  959.288  1061.27  958.757  1061.12  958.14  1060.87  957.643  1060.63  957.076  1060.28  956.624  1059.96  956.18  1059.58  955.786  1059.18  955.414  1058.75  955.19  1058.39  954.847  1057.91  954.732  1057.72  954.24  1056.59  953.949  1055.41  953.86  1054.19  953.975  1052.98  954.288  1051.82  954.491  1051.4  954.724  1050.86  954.792  1050.72  955.487  1049.7  956.332  1048.83  957.311  1048.11  958.398  1047.56  959.56  1047.2  960.757  1047.05  961.293  1047.07  " style="fill: none; stroke: black; stroke-width: 0.200000; fill-type: evenodd"  fill-opacity="1.000000" />
   <path d="M 937.73  986.02  937.822  986.03  938.008  986.064  938.544  986.214  939.036  986.427  939.499  986.698  939.947  987.037  940.154  987.222  946.725  993.791  938.378  1002.14  935.494  999.254  889.439  1045.31  892.859  1048.81  889.184  1052.49  887.395  1050.73  885.257  1048.5  882.632  1045.79  880.114  1043.1  878.396  1040.96  877.095  1038.78  876.147  1036.52  875.559  1034.24  875.396  1033.08  875.359  1032.48  875.336  1031.92  875.373  1030.87  875.526  1029.6  875.703  1028.71  876.102  1027.37  876.379  1026.64  876.783  1025.76  877.871  1023.87  878.875  1022.03  880.164  1019.94  881.657  1017.61  883.165  1015.5  884.727  1013.37  886.443  1011.25  888.04  1009.32  889.947  1007.2  891.55  1005.45  893.625  1003.32  895.209  1001.72  897.84  999.227  901.14  996.012  903.15  994.403  905.459  992.995  907.626  992.028  907.967  991.893  910.128  991.249  910.714  991.107  916.744  989.959  917.54  989.841  921.148  989.045  923.352  988.607  925.905  988.046  " style="fill: none; stroke: darkmagenta; stroke-width: 0.200000; fill-type: evenodd"  fill-opacity="1.000000" />
   <path d="M 925.905  988.046  926.971  987.811  928.393  987.55  930.035  987.199  933.474  986.518  936.262  986.069  936.704  985.982  936.935  985.965  937.163  985.985  937.462  985.992  937.73  986.02  " style="fill: none; stroke: red; stroke-width: 0.200000; fill-type: evenodd"  fill-opacity="1.000000" />
   <path d="M 937.109  986.984  937.398  986.99  937.678  987.02  937.782  987.039  938.208  987.159  938.583  987.321  938.943  987.531  939.311  987.81  939.468  987.95  945.31  993.791  938.378  1000.72  935.494  997.84  888.033  1045.3  891.453  1048.8  889.177  1051.08  888.106  1050.03  885.977  1047.8  883.356  1045.1  880.87  1042.44  879.219  1040.39  877.99  1038.33  877.097  1036.2  876.541  1034.04  876.392  1032.98  876.358  1032.43  876.337  1031.92  876.37  1030.95  876.515  1029.76  876.675  1028.95  877.05  1027.69  877.302  1027.02  877.672  1026.22  878.743  1024.36  879.74  1022.53  881.011  1020.48  882.486  1018.17  883.975  1016.08  885.519  1013.98  887.216  1011.89  888.798  1009.98  890.688  1007.87  892.277  1006.14  894.338  1004.02  895.908  1002.44  898.533  999.948  901.802  996.763  903.725  995.223  905.925  993.882  908.014  992.95  908.295  992.838  910.388  992.214  910.925  992.085  916.911  990.945  917.721  990.825  921.353  990.024  923.556  989.586  927.169  988.792  928.588  988.531  930.236  988.179  933.651  987.502  936.437  987.054  936.837  986.975  936.929  986.968  937.109  986.984  " style="fill: none; stroke: black; stroke-width: 0.200000; fill-type: evenodd"  fill-opacity="1.000000" />
   <path d="M 1042.01  965.447  1042.78  965.47  1044.13  965.754  1045.42  966.263  1046.61  966.978  1047.59  967.814  1048.48  968.883  1049.15  969.999  1049.43  970.69  1049.66  971.283  1049.94  972.643  1049.99  974.028  1049.81  975.406  1049.6  976.122  1049.4  976.727  1049.08  977.401  1048.78  977.963  1048.34  978.574  1047.95  979.078  1047.43  979.608  1046.96  980.039  1046.35  980.473  1045.81  980.818  1045.14  981.144  1044.55  981.395  1043.83  981.604  1043.21  981.751  1042.47  981.838  1041.83  981.879  1041.08  981.84  1040.45  981.773  1039.72  981.61  1039.11  981.437  1038.41  981.155  1037.84  980.88  1037.2  980.486  1036.68  980.12  1036.16  979.671  1035.91  979.385  1035.49  978.964  1035.28  978.717  1035.03  978.314  1034.69  977.829  1034.52  977.56  1034.34  977.11  1034.08  976.573  1033.97  976.285  1033.63  974.935  1033.53  973.554  1033.66  972.176  1034.02  970.844  1034.25  970.36  1034.49  969.813  1034.6  969.585  1035.38  968.438  1036.35  967.442  1037.46  966.622  1038.7  966  1040.02  965.594  1041.39  965.415  1042.01  965.447  " style="fill: none; stroke: darkmagenta; stroke-width: 0.200000; fill-type: evenodd"  fill-opacity="1.000000" />
   <path d="M 1041.97  966.446  1042.66  966.467  1043.85  966.716  1044.98  967.162  1046.02  967.792  1046.87  968.52  1047.66  969.465  1048.26  970.448  1048.5  971.055  1048.69  971.564  1048.94  972.765  1048.99  973.981  1048.83  975.2  1048.65  975.825  1048.47  976.351  1048.19  976.948  1047.93  977.437  1047.54  977.978  1047.2  978.416  1046.73  978.886  1046.33  979.26  1045.78  979.645  1045.32  979.945  1044.72  980.234  1044.21  980.451  1043.57  980.637  1043.04  980.765  1042.38  980.842  1041.82  980.877  1041.16  980.843  1040.61  980.784  1039.96  980.64  1039.43  980.49  1038.82  980.24  1038.32  980.001  1037.75  979.652  1037.3  979.331  1036.87  978.962  1036.65  978.704  1036.23  978.283  1036.09  978.124  1035.87  977.762  1035.52  977.277  1035.42  977.106  1035.25  976.706  1035  976.169  1034.92  975.976  1034.62  974.778  1034.53  973.565  1034.65  972.355  1034.96  971.195  1035.17  970.775  1035.4  970.227  1035.47  970.088  1036.16  969.072  1037.01  968.198  1037.99  967.477  1039.07  966.931  1040.23  966.574  1041.43  966.419  1041.97  966.446  " style="fill: none; stroke: black; stroke-width: 0.200000; fill-type: evenodd"  fill-opacity="1.000000" />
   <path d="M 975.493  937.363  975.699  936.548  976.312  933.673  976.445  932.844  977.095  929.787  977.823  925.142  978.116  923.397  978.889  920.1  978.948  919.912  980.307  916.75  982.177  913.91  982.929  913.008  983.852  911.992  988.091  907.511  994.713  900.954  1001.72  894.848  1005.41  891.976  1007.02  890.811  1008.96  889.331  1009.15  889.207  1010.29  888.588  1011.6  887.929  1012.99  887.386  1014.43  886.973  1015.91  886.692  1017.41  886.544  1018.92  886.532  1019.32  886.566  1020.43  886.653  1021.94  886.908  1023.41  887.292  1024.91  887.845  1026.36  888.54  1027.76  889.355  1029.1  890.29  1031.4  892.317  1039.77  901.068  1040.17  901.499  1036.47  905.202  1033.1  901.646  986.28  948.468  989.164  951.352  980.369  960.147  973.541  953.319  973.254  952.986  972.931  952.521  972.78  952.263  972.607  951.89  972.42  951.31  972.327  950.761  972.314  950.722  " style="fill: none; stroke: darkmagenta; stroke-width: 0.200000; fill-type: evenodd"  fill-opacity="1.000000" />
   <path d="M 972.314  950.722  972.258  950.557  972.282  949.996  972.363  949.529  973.201  946.323  974.069  943.237  974.868  940.043  975.092  938.953  975.493  937.363  " style="fill: none; stroke: red; stroke-width: 0.200000; fill-type: evenodd"  fill-opacity="1.000000" />
   <path d="M 1019.23  887.563  1020.31  887.647  1021.73  887.887  1023.11  888.248  1024.52  888.767  1025.89  889.425  1027.22  890.199  1028.49  891.078  1030.7  893.039  1038.78  901.475  1036.49  903.768  1033.12  900.213  984.866  948.468  987.75  951.352  980.369  958.733  974.274  952.638  974.046  952.373  973.775  951.983  973.667  951.799  973.54  951.525  973.394  951.072  973.3  950.515  973.265  950.413  973.279  950.104  973.341  949.741  974.166  946.585  975.036  943.494  975.844  940.265  976.068  939.176  976.673  936.774  977.295  933.856  977.428  933.027  978.079  929.969  978.811  925.302  979.097  923.594  979.854  920.365  979.887  920.261  981.191  917.226  982.981  914.507  983.684  913.665  984.586  912.672  988.806  908.21  995.394  901.687  1002.36  895.62  1006.01  892.776  1007.62  891.614  1009.53  890.151  1009.66  890.068  1010.75  889.474  1012.01  888.843  1013.31  888.335  1014.66  887.947  1016.05  887.683  1017.46  887.544  1018.88  887.532  1019.23  887.563  " style="fill: none; stroke: black; stroke-width: 0.200000; fill-type: evenodd"  fill-opacity="1.000000" />
</svg>
