<?xml version="1.0" encoding="UTF-8" standalone="yes"?>
<!DOCTYPE svg PUBLIC "-//W3C//DTD SVG 1.0//EN" "http://www.w3.org/TR/2001/REC-SVG-20010904/DTD/svg10.dtd">
<svg height="2000" width="2000" xmlns="http://www.w3.org/2000/svg" xmlns:svg="http://www.w3.org/2000/svg" xmlns:xlink="http://www.w3.org/1999/xlink">
   <marker id="endArrow" markerHeight="8" markerUnits="strokeWidth" markerWidth="10" orient="auto" refX="1" refY="5" viewBox="0 0 1000 1000">
      <polyline fill="darkblue" points="0,0 10,5 0,10 1,5" />
   </marker>
   <circle cx="1000" cy="1000" r="1" style="stroke:black; fill: red" />
   <circle cx="1000" cy="1000" r="800" style="stroke:black; fill: none" />
   <line x1="1092.906250" y1="1058.807495" x2="1092.551025" y2="1058.807495" style="stroke: green; stroke-width: 0.200000"/>
   <line x1="1094.028809" y1="1057.807495" x2="1091.617188" y2="1057.807495" style="stroke: green; stroke-width: 0.200000"/>
   <line x1="1095.151245" y1="1056.807495" x2="1092.097412" y2="1056.807495" style="stroke: green; stroke-width: 0.200000"/>
   <line x1="1096.273682" y1="1055.807495" x2="1093.097412" y2="1055.807495" style="stroke: green; stroke-width: 0.200000"/>
   <line x1="1096.436646" y1="1054.807495" x2="1095.317627" y2="1054.807495" style="stroke: green; stroke-width: 0.200000"/>
   <line x1="1106.084351" y1="1046.493408" x2="1105.911499" y2="1046.493408" style="stroke: green; stroke-width: 0.200000"/>
   <line x1="1107.118896" y1="1045.493286" x2="1105.400635" y2="1045.493286" style="stroke: green; stroke-width: 0.200000"/>
   <line x1="1108.153198" y1="1044.493286" x2="1105.382690" y2="1044.493286" style="stroke: green; stroke-width: 0.200000"/>
   <line x1="1109.187744" y1="1043.493408" x2="1105.411499" y2="1043.493408" style="stroke: green; stroke-width: 0.200000"/>
   <line x1="1110.200317" y1="1042.493408" x2="1106.411499" y2="1042.493408" style="stroke: green; stroke-width: 0.200000"/>
   <line x1="1111.015747" y1="1041.493408" x2="1107.411499" y2="1041.493408" style="stroke: green; stroke-width: 0.200000"/>
   <line x1="1111.471680" y1="1040.493286" x2="1108.411499" y2="1040.493286" style="stroke: green; stroke-width: 0.200000"/>
   <line x1="1111.578003" y1="1039.493286" x2="1109.411499" y2="1039.493286" style="stroke: green; stroke-width: 0.200000"/>
   <line x1="1111.007446" y1="1038.493408" x2="1110.411499" y2="1038.493408" style="stroke: green; stroke-width: 0.200000"/>
   <path d="M 1105.79  1040.99  1110.72  1036.07  1112.32  1037.69  1112.68  1038.13  1112.8  1038.35  1112.9  1038.59  1113.01  1038.96  1113.05  1039.17  1113.09  1039.5  1113.1  1039.87  1113.06  1040.24  1112.99  1040.66  1112.84  1041.16  1112.66  1041.6  1112.47  1041.99  1112.28  1042.31  1111.73  1043.06  1111.06  1043.77  1104.06  1050.53  1099.29  1055.08  1097.86  1056.4  1092.94  1060.79  1090.53  1062.89  1089.72  1063.53  1088.88  1064.12  1088.07  1064.6  1087.29  1064.97  1086.56  1065.21  1086.21  1065.27  1085.88  1065.3  1085.58  1065.28  1085.29  1065.21  1085.06  1065.11  1084.96  1065.05  1084.76  1064.88  1084.12  1064.01  1083.45  1063.33  1090.27  1056.52  " style="fill: none; stroke: darkmagenta; stroke-width: 0.200000; fill-type: evenodd"  fill-opacity="1.000000" />
   <path d="M 1090.27  1056.52  1093.36  1053.42  1093.8  1053.38  1094.1  1053.4  1094.4  1053.39  " style="fill: none; stroke: red; stroke-width: 0.200000; fill-type: evenodd"  fill-opacity="1.000000" />
   <path d="M 1094.4  1053.39  1094.86  1053.38  1095.62  1053.18  1096.43  1053.15  1103.9  1045.68  1103.87  1043.92  " style="fill: none; stroke: darkmagenta; stroke-width: 0.200000; fill-type: evenodd"  fill-opacity="1.000000" />
   <path d="M 1103.87  1043.92  1103.85  1042.93  1105.79  1040.99  " style="fill: none; stroke: red; stroke-width: 0.200000; fill-type: evenodd"  fill-opacity="1.000000" />
   <path d="M 1111.57  1038.36  1111.85  1038.7  1111.9  1038.79  1111.96  1038.93  1112.04  1039.21  1112.07  1039.33  1112.09  1039.56  1112.1  1039.83  1112.07  1040.11  1112.01  1040.42  1111.89  1040.83  1111.75  1041.19  1111.59  1041.51  1111.44  1041.76  1110.96  1042.42  1110.35  1043.06  1103.37  1049.81  1098.61  1054.35  1097.19  1055.66  1092.28  1060.04  1089.89  1062.12  1089.12  1062.73  1088.34  1063.28  1087.6  1063.72  1086.92  1064.04  1086.31  1064.24  1086.08  1064.28  1085.88  1064.3  1085.55  1064.27  1084.87  1063.33  1093.82  1054.38  1094.08  1054.4  1095  1054.37  1095.76  1054.18  1096.86  1054.14  1104.91  1046.08  1104.86  1043.34  1110.71  1037.48  1111.57  1038.36  " style="fill: none; stroke: black; stroke-width: 0.200000; fill-type: evenodd"  fill-opacity="1.000000" />
   <path d="M 1091.68  1058.6  1089.02  1061.08  1088.34  1061.69  1087.67  1062.25  1087.07  1062.72  " style="fill: none; stroke: grey; stroke-width: 0.200000; fill-type: evenodd"  fill-opacity="1.000000" />
   <path d="M 1087.07  1062.72  1085.73  1063.67  " style="fill: none; stroke: grey; stroke-width: 0.200000; fill-type: evenodd"  fill-opacity="1.000000" />
   <path d="M 1105.42  1046.71  1102.83  1049.25  1098.13  1053.84  1097.13  1054.81  " style="fill: none; stroke: grey; stroke-width: 0.200000; fill-type: evenodd"  fill-opacity="1.000000" />
</svg>
