<?xml version="1.0" encoding="UTF-8" standalone="yes"?>
<!DOCTYPE svg PUBLIC "-//W3C//DTD SVG 1.0//EN" "http://www.w3.org/TR/2001/REC-SVG-20010904/DTD/svg10.dtd">
<svg height="2000" width="2000" xmlns="http://www.w3.org/2000/svg" xmlns:svg="http://www.w3.org/2000/svg" xmlns:xlink="http://www.w3.org/1999/xlink">
   <marker id="endArrow" markerHeight="8" markerUnits="strokeWidth" markerWidth="10" orient="auto" refX="1" refY="5" viewBox="0 0 1000 1000">
      <polyline fill="darkblue" points="0,0 10,5 0,10 1,5" />
   </marker>
   <circle cx="1000" cy="1000" r="1" style="stroke:black; fill: red" />
   <circle cx="1000" cy="1000" r="800" style="stroke:black; fill: none" />
   <path d="M 1106.63  1041.92  1106.97  1042.1  1107.08  1042.23  1107.17  1042.29  1107.47  1042.93  1107.55  1043.31  1107.57  1043.71  1107.53  1044.12  1107.43  1044.55  1107.39  1044.69  1107.22  1045.08  1106.97  1045.57  1106.76  1045.94  1106.28  1046.68  1106.14  1046.87  1105.13  1048.11  1103.97  1049.35  1103.52  1049.82  1102.48  1050.81  1100.52  1052.68  1099.8  1053.33  1098.49  1054.48  1097.8  1055.04  1096.92  1055.7  1096.12  1056.26  1095.47  1056.62  1094.89  1056.88  1094.65  1056.97  1094.27  1057.09  1093.91  1057.16  1093.57  1057.17  1093.24  1057.13  1092.93  1057.02  1092.63  1056.81  1092.63  1056.6  1092.14  1056.32  1091.69  1055.83  1106  1041.53  1106.63  1041.92  " style="fill: none; stroke: darkmagenta; stroke-width: 0.200000; fill-type: evenodd"  fill-opacity="1.000000" />
   <path d="M 1106.57  1043.68  1106.54  1043.96  1106.46  1044.31  1106.31  1044.65  1106.09  1045.1  1105.91  1045.42  1105.46  1046.12  1105.35  1046.26  1104.38  1047.45  1103.24  1048.67  1102.81  1049.11  1101.79  1050.09  1099.83  1051.95  1099.13  1052.59  1097.84  1053.72  1097.18  1054.26  1096.33  1054.89  1095.59  1055.41  1095.03  1055.73  1094.5  1055.96  1094.33  1056.03  1093.84  1056.17  1093.44  1055.51  1106.51  1042.43  1106.57  1043.68  " style="fill: none; stroke: black; stroke-width: 0.200000; fill-type: evenodd"  fill-opacity="1.000000" />
   <path d="M 1106.06  1043.73  1105.65  1044.34  1105.38  1044.71  1105.18  1044.97  1104.68  1045.59  1104.6  1045.68  " style="fill: none; stroke: grey; stroke-width: 0.200000; fill-type: evenodd"  fill-opacity="1.000000" />
   <path d="M 1104.6  1045.68  1103.61  1046.78  1102.48  1047.94  1102.07  1048.37  1101.07  1049.34  1099.15  1051.22  1098.48  1051.85  1097.24  1053.01  1096.63  1053.56  1095.86  1054.24  1095.2  1054.79  " style="fill: none; stroke: grey; stroke-width: 0.200000; fill-type: evenodd"  fill-opacity="1.000000" />
   <path d="M 1095.2  1054.79  1094.74  1055.14  1094.38  1055.38  " style="fill: none; stroke: grey; stroke-width: 0.200000; fill-type: evenodd"  fill-opacity="1.000000" />
</svg>
