<?xml version="1.0" encoding="UTF-8" standalone="yes"?>
<!DOCTYPE svg PUBLIC "-//W3C//DTD SVG 1.0//EN" "http://www.w3.org/TR/2001/REC-SVG-20010904/DTD/svg10.dtd">
<svg height="2000" width="2000" xmlns="http://www.w3.org/2000/svg" xmlns:svg="http://www.w3.org/2000/svg" xmlns:xlink="http://www.w3.org/1999/xlink">
   <marker id="endArrow" markerHeight="8" markerUnits="strokeWidth" markerWidth="10" orient="auto" refX="1" refY="5" viewBox="0 0 1000 1000">
      <polyline fill="darkblue" points="0,0 10,5 0,10 1,5" />
   </marker>
   <circle cx="1000" cy="1000" r="1" style="stroke:black; fill: red" />
   <circle cx="1000" cy="1000" r="800" style="stroke:black; fill: none" />
   <line x1="758.187012" y1="1055.251099" x2="758.187012" y2="1062.562866" style="stroke: green; stroke-width: 0.200000"/>
   <line x1="759.187073" y1="1051.605835" x2="759.187073" y2="1062.562866" style="stroke: green; stroke-width: 0.200000"/>
   <line x1="760.187073" y1="1048.197021" x2="760.187073" y2="1062.562866" style="stroke: green; stroke-width: 0.200000"/>
   <line x1="761.187073" y1="1045.412842" x2="761.187073" y2="1062.562866" style="stroke: green; stroke-width: 0.200000"/>
   <line x1="762.187012" y1="1043.092407" x2="762.187012" y2="1062.562866" style="stroke: green; stroke-width: 0.200000"/>
   <line x1="763.187012" y1="1040.771973" x2="763.187012" y2="1062.562866" style="stroke: green; stroke-width: 0.200000"/>
   <line x1="764.187073" y1="1038.485596" x2="764.187073" y2="1062.562866" style="stroke: green; stroke-width: 0.200000"/>
   <line x1="765.187073" y1="1036.813721" x2="765.187073" y2="1062.562866" style="stroke: green; stroke-width: 0.200000"/>
   <line x1="766.187073" y1="1035.289307" x2="766.187073" y2="1062.562866" style="stroke: green; stroke-width: 0.200000"/>
   <line x1="767.187012" y1="1033.764771" x2="767.187012" y2="1062.562866" style="stroke: green; stroke-width: 0.200000"/>
   <line x1="768.187012" y1="1032.240234" x2="768.187012" y2="1062.562866" style="stroke: green; stroke-width: 0.200000"/>
   <line x1="769.187073" y1="1030.737427" x2="769.187073" y2="1062.562866" style="stroke: green; stroke-width: 0.200000"/>
   <line x1="770.187073" y1="1029.562256" x2="770.187073" y2="1062.562866" style="stroke: green; stroke-width: 0.200000"/>
   <line x1="771.187073" y1="1028.387085" x2="771.187073" y2="1062.562866" style="stroke: green; stroke-width: 0.200000"/>
   <line x1="772.187012" y1="1027.211914" x2="772.187012" y2="1062.562866" style="stroke: green; stroke-width: 0.200000"/>
   <line x1="773.187012" y1="1026.047119" x2="773.187012" y2="1062.562866" style="stroke: green; stroke-width: 0.200000"/>
   <line x1="774.187073" y1="1024.903076" x2="774.187073" y2="1062.562866" style="stroke: green; stroke-width: 0.200000"/>
   <line x1="775.187073" y1="1023.832458" x2="775.187073" y2="1062.562866" style="stroke: green; stroke-width: 0.200000"/>
   <line x1="776.187073" y1="1022.953125" x2="776.187073" y2="1062.562866" style="stroke: green; stroke-width: 0.200000"/>
   <line x1="777.187012" y1="1022.073853" x2="777.187012" y2="1062.562866" style="stroke: green; stroke-width: 0.200000"/>
   <line x1="778.187012" y1="1021.269287" x2="778.187012" y2="1062.562866" style="stroke: green; stroke-width: 0.200000"/>
   <line x1="779.187073" y1="1020.520752" x2="779.187073" y2="1062.562866" style="stroke: green; stroke-width: 0.200000"/>
   <line x1="780.187073" y1="1019.772339" x2="780.187073" y2="1062.562866" style="stroke: green; stroke-width: 0.200000"/>
   <line x1="781.187073" y1="1019.023804" x2="781.187073" y2="1062.562866" style="stroke: green; stroke-width: 0.200000"/>
   <line x1="782.187012" y1="1018.300476" x2="782.187012" y2="1062.562866" style="stroke: green; stroke-width: 0.200000"/>
   <line x1="783.187012" y1="1017.649597" x2="783.187012" y2="1062.562866" style="stroke: green; stroke-width: 0.200000"/>
   <line x1="784.187073" y1="1016.998779" x2="784.187073" y2="1062.562866" style="stroke: green; stroke-width: 0.200000"/>
   <line x1="785.187073" y1="1016.347900" x2="785.187073" y2="1062.562866" style="stroke: green; stroke-width: 0.200000"/>
   <line x1="786.187073" y1="1015.701172" x2="786.187073" y2="1062.562866" style="stroke: green; stroke-width: 0.200000"/>
   <line x1="787.187012" y1="1015.088440" x2="787.187012" y2="1062.562866" style="stroke: green; stroke-width: 0.200000"/>
   <line x1="788.187012" y1="1014.475708" x2="788.187012" y2="1062.562866" style="stroke: green; stroke-width: 0.200000"/>
   <line x1="789.187073" y1="1014.125061" x2="789.187073" y2="1062.562866" style="stroke: green; stroke-width: 0.200000"/>
   <line x1="790.187073" y1="1013.887939" x2="790.187073" y2="1062.562866" style="stroke: green; stroke-width: 0.200000"/>
   <line x1="791.187073" y1="1013.650818" x2="791.187073" y2="1062.562866" style="stroke: green; stroke-width: 0.200000"/>
   <line x1="792.187012" y1="1013.413696" x2="792.187012" y2="1062.562866" style="stroke: green; stroke-width: 0.200000"/>
   <line x1="793.187012" y1="1013.176575" x2="793.187012" y2="1062.562866" style="stroke: green; stroke-width: 0.200000"/>
   <line x1="794.187073" y1="1012.939453" x2="794.187073" y2="1062.562866" style="stroke: green; stroke-width: 0.200000"/>
   <line x1="795.187073" y1="1012.702332" x2="795.187073" y2="1062.562866" style="stroke: green; stroke-width: 0.200000"/>
   <line x1="796.187073" y1="1012.579468" x2="796.187073" y2="1062.562866" style="stroke: green; stroke-width: 0.200000"/>
   <line x1="797.187012" y1="1012.619995" x2="797.187012" y2="1062.562866" style="stroke: green; stroke-width: 0.200000"/>
   <line x1="798.187012" y1="1012.660461" x2="798.187012" y2="1062.562866" style="stroke: green; stroke-width: 0.200000"/>
   <line x1="799.187073" y1="1012.737183" x2="799.187073" y2="1062.562866" style="stroke: green; stroke-width: 0.200000"/>
   <line x1="800.187073" y1="1012.852905" x2="800.187073" y2="1062.562866" style="stroke: green; stroke-width: 0.200000"/>
   <line x1="801.187073" y1="1012.968750" x2="801.187073" y2="1062.562866" style="stroke: green; stroke-width: 0.200000"/>
   <line x1="802.187012" y1="1013.084473" x2="802.187012" y2="1062.562866" style="stroke: green; stroke-width: 0.200000"/>
   <line x1="803.187012" y1="1013.200317" x2="803.187012" y2="1062.562866" style="stroke: green; stroke-width: 0.200000"/>
   <line x1="804.187073" y1="1013.316040" x2="804.187073" y2="1062.562866" style="stroke: green; stroke-width: 0.200000"/>
   <line x1="805.187073" y1="1013.584595" x2="805.187073" y2="1062.562866" style="stroke: green; stroke-width: 0.200000"/>
   <line x1="806.187073" y1="1013.964233" x2="806.187073" y2="1062.562866" style="stroke: green; stroke-width: 0.200000"/>
   <line x1="807.187012" y1="1014.343811" x2="807.187012" y2="1062.562866" style="stroke: green; stroke-width: 0.200000"/>
   <line x1="808.187012" y1="1014.723267" x2="808.187012" y2="1062.562866" style="stroke: green; stroke-width: 0.200000"/>
   <line x1="809.187073" y1="1015.102844" x2="809.187073" y2="1062.562866" style="stroke: green; stroke-width: 0.200000"/>
   <line x1="810.187073" y1="1015.482300" x2="810.187073" y2="1062.562866" style="stroke: green; stroke-width: 0.200000"/>
   <line x1="811.187073" y1="1015.811035" x2="811.187073" y2="1062.562866" style="stroke: green; stroke-width: 0.200000"/>
   <line x1="812.187012" y1="1016.122437" x2="812.187012" y2="1062.562866" style="stroke: green; stroke-width: 0.200000"/>
   <line x1="813.187012" y1="1016.433777" x2="813.187012" y2="1062.562866" style="stroke: green; stroke-width: 0.200000"/>
   <line x1="814.187073" y1="1016.931396" x2="814.187073" y2="1062.562866" style="stroke: green; stroke-width: 0.200000"/>
   <line x1="815.187073" y1="1017.500061" x2="815.187073" y2="1062.562866" style="stroke: green; stroke-width: 0.200000"/>
   <line x1="816.187073" y1="1018.068726" x2="816.187073" y2="1062.562866" style="stroke: green; stroke-width: 0.200000"/>
   <line x1="817.187012" y1="1018.637329" x2="817.187012" y2="1062.562866" style="stroke: green; stroke-width: 0.200000"/>
   <line x1="818.187012" y1="1019.250122" x2="818.187012" y2="1062.562866" style="stroke: green; stroke-width: 0.200000"/>
   <line x1="819.187073" y1="1019.869934" x2="819.187073" y2="1062.562866" style="stroke: green; stroke-width: 0.200000"/>
   <line x1="820.187073" y1="1020.489746" x2="820.187073" y2="1062.562866" style="stroke: green; stroke-width: 0.200000"/>
   <line x1="821.187073" y1="1021.236877" x2="821.187073" y2="1062.562866" style="stroke: green; stroke-width: 0.200000"/>
   <line x1="822.187012" y1="1022.159363" x2="822.187012" y2="1062.562866" style="stroke: green; stroke-width: 0.200000"/>
   <line x1="823.187012" y1="1022.988037" x2="823.187012" y2="1062.562866" style="stroke: green; stroke-width: 0.200000"/>
   <line x1="824.187073" y1="1023.804626" x2="824.187073" y2="1062.562866" style="stroke: green; stroke-width: 0.200000"/>
   <line x1="825.187073" y1="1024.621216" x2="825.187073" y2="1062.562866" style="stroke: green; stroke-width: 0.200000"/>
   <line x1="826.187073" y1="1025.437744" x2="826.187073" y2="1062.562866" style="stroke: green; stroke-width: 0.200000"/>
   <line x1="827.187012" y1="1026.254272" x2="827.187012" y2="1062.562866" style="stroke: green; stroke-width: 0.200000"/>
   <line x1="828.187012" y1="1027.425781" x2="828.187012" y2="1062.562866" style="stroke: green; stroke-width: 0.200000"/>
   <line x1="829.187073" y1="1028.709961" x2="829.187073" y2="1062.562866" style="stroke: green; stroke-width: 0.200000"/>
   <line x1="830.187073" y1="1029.994019" x2="830.187073" y2="1062.562866" style="stroke: green; stroke-width: 0.200000"/>
   <line x1="831.187073" y1="1031.278198" x2="831.187073" y2="1062.562866" style="stroke: green; stroke-width: 0.200000"/>
   <line x1="832.187012" y1="1032.517456" x2="832.187012" y2="1062.562866" style="stroke: green; stroke-width: 0.200000"/>
   <line x1="833.187012" y1="1033.741211" x2="833.187012" y2="1062.562866" style="stroke: green; stroke-width: 0.200000"/>
   <line x1="834.187073" y1="1035.361938" x2="834.187073" y2="1062.562866" style="stroke: green; stroke-width: 0.200000"/>
   <line x1="835.187073" y1="1036.982544" x2="835.187073" y2="1062.562866" style="stroke: green; stroke-width: 0.200000"/>
   <line x1="836.187073" y1="1038.603271" x2="836.187073" y2="1062.562866" style="stroke: green; stroke-width: 0.200000"/>
   <line x1="837.187012" y1="1040.223877" x2="837.187012" y2="1062.562866" style="stroke: green; stroke-width: 0.200000"/>
   <line x1="838.187012" y1="1041.844604" x2="838.187012" y2="1062.562866" style="stroke: green; stroke-width: 0.200000"/>
   <line x1="839.187073" y1="1043.444824" x2="839.187073" y2="1062.562866" style="stroke: green; stroke-width: 0.200000"/>
   <line x1="840.187073" y1="1045.027466" x2="840.187073" y2="1062.562866" style="stroke: green; stroke-width: 0.200000"/>
   <line x1="841.187073" y1="1046.610229" x2="841.187073" y2="1062.562866" style="stroke: green; stroke-width: 0.200000"/>
   <line x1="842.187012" y1="1048.192871" x2="842.187012" y2="1062.562866" style="stroke: green; stroke-width: 0.200000"/>
   <line x1="843.187012" y1="1049.775513" x2="843.187012" y2="1062.562866" style="stroke: green; stroke-width: 0.200000"/>
   <line x1="844.187073" y1="1051.191650" x2="844.187073" y2="1062.562866" style="stroke: green; stroke-width: 0.200000"/>
   <line x1="845.187073" y1="1052.116455" x2="845.187073" y2="1062.562866" style="stroke: green; stroke-width: 0.200000"/>
   <line x1="846.187073" y1="1053.031982" x2="846.187073" y2="1062.562866" style="stroke: green; stroke-width: 0.200000"/>
   <line x1="847.187012" y1="1053.886353" x2="847.187012" y2="1062.562866" style="stroke: green; stroke-width: 0.200000"/>
   <line x1="848.187012" y1="1054.740723" x2="848.187012" y2="1062.562866" style="stroke: green; stroke-width: 0.200000"/>
   <line x1="849.187073" y1="1055.594971" x2="849.187073" y2="1062.562866" style="stroke: green; stroke-width: 0.200000"/>
   <line x1="850.187073" y1="1056.449341" x2="850.187073" y2="1062.562866" style="stroke: green; stroke-width: 0.200000"/>
   <line x1="851.187073" y1="1057.367065" x2="851.187073" y2="1062.562866" style="stroke: green; stroke-width: 0.200000"/>
   <line x1="852.187012" y1="1058.357666" x2="852.187012" y2="1062.562866" style="stroke: green; stroke-width: 0.200000"/>
   <line x1="853.187012" y1="1059.348389" x2="853.187012" y2="1062.562866" style="stroke: green; stroke-width: 0.200000"/>
   <line x1="854.187073" y1="1060.064453" x2="854.187073" y2="1062.562866" style="stroke: green; stroke-width: 0.200000"/>
   <line x1="855.187073" y1="1060.719971" x2="855.187073" y2="1062.562866" style="stroke: green; stroke-width: 0.200000"/>
   <line x1="856.187073" y1="1061.375488" x2="856.187073" y2="1062.562866" style="stroke: green; stroke-width: 0.200000"/>
   <line x1="857.187012" y1="1062.031006" x2="857.187012" y2="1062.562866" style="stroke: green; stroke-width: 0.200000"/>
   <line x1="754.187073" y1="1108.904785" x2="754.187073" y2="1112.662842" style="stroke: green; stroke-width: 0.200000"/>
   <line x1="755.187073" y1="1101.967041" x2="755.187073" y2="1112.662842" style="stroke: green; stroke-width: 0.200000"/>
   <line x1="756.187073" y1="1096.107910" x2="756.187073" y2="1112.662842" style="stroke: green; stroke-width: 0.200000"/>
   <line x1="757.187012" y1="1089.825317" x2="757.187012" y2="1112.662842" style="stroke: green; stroke-width: 0.200000"/>
   <line x1="758.187012" y1="1062.662842" x2="758.187012" y2="1112.662842" style="stroke: green; stroke-width: 0.200000"/>
   <line x1="759.187073" y1="1062.662842" x2="759.187073" y2="1112.662842" style="stroke: green; stroke-width: 0.200000"/>
   <line x1="760.187073" y1="1062.662842" x2="760.187073" y2="1112.662842" style="stroke: green; stroke-width: 0.200000"/>
   <line x1="761.187073" y1="1062.662842" x2="761.187073" y2="1112.662842" style="stroke: green; stroke-width: 0.200000"/>
   <line x1="762.187012" y1="1062.662842" x2="762.187012" y2="1112.662842" style="stroke: green; stroke-width: 0.200000"/>
   <line x1="763.187012" y1="1062.662842" x2="763.187012" y2="1112.662842" style="stroke: green; stroke-width: 0.200000"/>
   <line x1="764.187073" y1="1062.662842" x2="764.187073" y2="1112.662842" style="stroke: green; stroke-width: 0.200000"/>
   <line x1="765.187073" y1="1062.662842" x2="765.187073" y2="1112.662842" style="stroke: green; stroke-width: 0.200000"/>
   <line x1="766.187073" y1="1062.662842" x2="766.187073" y2="1112.662842" style="stroke: green; stroke-width: 0.200000"/>
   <line x1="767.187012" y1="1062.662842" x2="767.187012" y2="1112.662842" style="stroke: green; stroke-width: 0.200000"/>
   <line x1="768.187012" y1="1062.662842" x2="768.187012" y2="1112.662842" style="stroke: green; stroke-width: 0.200000"/>
   <line x1="769.187073" y1="1062.662842" x2="769.187073" y2="1112.662842" style="stroke: green; stroke-width: 0.200000"/>
   <line x1="770.187073" y1="1062.662842" x2="770.187073" y2="1112.662842" style="stroke: green; stroke-width: 0.200000"/>
   <line x1="771.187073" y1="1062.662842" x2="771.187073" y2="1112.662842" style="stroke: green; stroke-width: 0.200000"/>
   <line x1="772.187012" y1="1062.662842" x2="772.187012" y2="1112.662842" style="stroke: green; stroke-width: 0.200000"/>
   <line x1="773.187012" y1="1062.662842" x2="773.187012" y2="1112.662842" style="stroke: green; stroke-width: 0.200000"/>
   <line x1="774.187073" y1="1062.662842" x2="774.187073" y2="1112.662842" style="stroke: green; stroke-width: 0.200000"/>
   <line x1="775.187073" y1="1062.662842" x2="775.187073" y2="1112.662842" style="stroke: green; stroke-width: 0.200000"/>
   <line x1="776.187073" y1="1062.662842" x2="776.187073" y2="1112.662842" style="stroke: green; stroke-width: 0.200000"/>
   <line x1="777.187012" y1="1062.662842" x2="777.187012" y2="1112.662842" style="stroke: green; stroke-width: 0.200000"/>
   <line x1="778.187012" y1="1062.662842" x2="778.187012" y2="1112.662842" style="stroke: green; stroke-width: 0.200000"/>
   <line x1="779.187073" y1="1062.662842" x2="779.187073" y2="1112.662842" style="stroke: green; stroke-width: 0.200000"/>
   <line x1="780.187073" y1="1062.662842" x2="780.187073" y2="1112.662842" style="stroke: green; stroke-width: 0.200000"/>
   <line x1="781.187073" y1="1062.662842" x2="781.187073" y2="1112.662842" style="stroke: green; stroke-width: 0.200000"/>
   <line x1="782.187012" y1="1062.662842" x2="782.187012" y2="1112.662842" style="stroke: green; stroke-width: 0.200000"/>
   <line x1="783.187012" y1="1062.662842" x2="783.187012" y2="1112.662842" style="stroke: green; stroke-width: 0.200000"/>
   <line x1="784.187073" y1="1062.662842" x2="784.187073" y2="1112.662842" style="stroke: green; stroke-width: 0.200000"/>
   <line x1="785.187073" y1="1062.662842" x2="785.187073" y2="1112.662842" style="stroke: green; stroke-width: 0.200000"/>
   <line x1="786.187073" y1="1062.662842" x2="786.187073" y2="1112.662842" style="stroke: green; stroke-width: 0.200000"/>
   <line x1="787.187012" y1="1062.662842" x2="787.187012" y2="1112.662842" style="stroke: green; stroke-width: 0.200000"/>
   <line x1="788.187012" y1="1062.662842" x2="788.187012" y2="1112.662842" style="stroke: green; stroke-width: 0.200000"/>
   <line x1="789.187073" y1="1062.662842" x2="789.187073" y2="1112.662842" style="stroke: green; stroke-width: 0.200000"/>
   <line x1="790.187073" y1="1062.662842" x2="790.187073" y2="1112.662842" style="stroke: green; stroke-width: 0.200000"/>
   <line x1="791.187073" y1="1062.662842" x2="791.187073" y2="1112.662842" style="stroke: green; stroke-width: 0.200000"/>
   <line x1="792.187012" y1="1062.662842" x2="792.187012" y2="1112.662842" style="stroke: green; stroke-width: 0.200000"/>
   <line x1="793.187012" y1="1062.662842" x2="793.187012" y2="1112.662842" style="stroke: green; stroke-width: 0.200000"/>
   <line x1="794.187073" y1="1062.662842" x2="794.187073" y2="1112.662842" style="stroke: green; stroke-width: 0.200000"/>
   <line x1="795.187073" y1="1062.662842" x2="795.187073" y2="1112.662842" style="stroke: green; stroke-width: 0.200000"/>
   <line x1="796.187073" y1="1062.662842" x2="796.187073" y2="1112.662842" style="stroke: green; stroke-width: 0.200000"/>
   <line x1="797.187012" y1="1062.662842" x2="797.187012" y2="1112.662842" style="stroke: green; stroke-width: 0.200000"/>
   <line x1="798.187012" y1="1062.662842" x2="798.187012" y2="1112.662842" style="stroke: green; stroke-width: 0.200000"/>
   <line x1="799.187073" y1="1062.662842" x2="799.187073" y2="1112.662842" style="stroke: green; stroke-width: 0.200000"/>
   <line x1="800.187073" y1="1062.662842" x2="800.187073" y2="1112.662842" style="stroke: green; stroke-width: 0.200000"/>
   <line x1="801.187073" y1="1062.662842" x2="801.187073" y2="1112.662842" style="stroke: green; stroke-width: 0.200000"/>
   <line x1="802.187012" y1="1062.662842" x2="802.187012" y2="1112.662842" style="stroke: green; stroke-width: 0.200000"/>
   <line x1="803.187012" y1="1062.662842" x2="803.187012" y2="1112.662842" style="stroke: green; stroke-width: 0.200000"/>
   <line x1="804.187073" y1="1062.662842" x2="804.187073" y2="1112.662842" style="stroke: green; stroke-width: 0.200000"/>
   <line x1="805.187073" y1="1062.662842" x2="805.187073" y2="1112.662842" style="stroke: green; stroke-width: 0.200000"/>
   <line x1="806.187073" y1="1062.662842" x2="806.187073" y2="1112.662842" style="stroke: green; stroke-width: 0.200000"/>
   <line x1="807.187012" y1="1062.662842" x2="807.187012" y2="1112.662842" style="stroke: green; stroke-width: 0.200000"/>
   <line x1="808.187012" y1="1062.662842" x2="808.187012" y2="1112.662842" style="stroke: green; stroke-width: 0.200000"/>
   <line x1="809.187073" y1="1062.662842" x2="809.187073" y2="1112.662842" style="stroke: green; stroke-width: 0.200000"/>
   <line x1="810.187073" y1="1062.662842" x2="810.187073" y2="1112.662842" style="stroke: green; stroke-width: 0.200000"/>
   <line x1="811.187073" y1="1062.662842" x2="811.187073" y2="1112.662842" style="stroke: green; stroke-width: 0.200000"/>
   <line x1="812.187012" y1="1062.662842" x2="812.187012" y2="1112.662842" style="stroke: green; stroke-width: 0.200000"/>
   <line x1="813.187012" y1="1062.662842" x2="813.187012" y2="1112.662842" style="stroke: green; stroke-width: 0.200000"/>
   <line x1="814.187073" y1="1062.662842" x2="814.187073" y2="1112.662842" style="stroke: green; stroke-width: 0.200000"/>
   <line x1="815.187073" y1="1062.662842" x2="815.187073" y2="1112.662842" style="stroke: green; stroke-width: 0.200000"/>
   <line x1="816.187073" y1="1062.662842" x2="816.187073" y2="1112.662842" style="stroke: green; stroke-width: 0.200000"/>
   <line x1="817.187012" y1="1062.662842" x2="817.187012" y2="1112.662842" style="stroke: green; stroke-width: 0.200000"/>
   <line x1="818.187012" y1="1062.662842" x2="818.187012" y2="1112.662842" style="stroke: green; stroke-width: 0.200000"/>
   <line x1="819.187073" y1="1062.662842" x2="819.187073" y2="1112.662842" style="stroke: green; stroke-width: 0.200000"/>
   <line x1="820.187073" y1="1062.662842" x2="820.187073" y2="1112.662842" style="stroke: green; stroke-width: 0.200000"/>
   <line x1="821.187073" y1="1062.662842" x2="821.187073" y2="1112.662842" style="stroke: green; stroke-width: 0.200000"/>
   <line x1="822.187012" y1="1062.662842" x2="822.187012" y2="1112.662842" style="stroke: green; stroke-width: 0.200000"/>
   <line x1="823.187012" y1="1062.662842" x2="823.187012" y2="1112.662842" style="stroke: green; stroke-width: 0.200000"/>
   <line x1="824.187073" y1="1062.662842" x2="824.187073" y2="1112.662842" style="stroke: green; stroke-width: 0.200000"/>
   <line x1="825.187073" y1="1062.662842" x2="825.187073" y2="1112.662842" style="stroke: green; stroke-width: 0.200000"/>
   <line x1="826.187073" y1="1062.662842" x2="826.187073" y2="1112.662842" style="stroke: green; stroke-width: 0.200000"/>
   <line x1="827.187012" y1="1062.662842" x2="827.187012" y2="1112.662842" style="stroke: green; stroke-width: 0.200000"/>
   <line x1="828.187012" y1="1062.662842" x2="828.187012" y2="1112.662842" style="stroke: green; stroke-width: 0.200000"/>
   <line x1="829.187073" y1="1062.662842" x2="829.187073" y2="1112.662842" style="stroke: green; stroke-width: 0.200000"/>
   <line x1="830.187073" y1="1062.662842" x2="830.187073" y2="1112.662842" style="stroke: green; stroke-width: 0.200000"/>
   <line x1="831.187073" y1="1062.662842" x2="831.187073" y2="1112.662842" style="stroke: green; stroke-width: 0.200000"/>
   <line x1="832.187012" y1="1062.662842" x2="832.187012" y2="1112.662842" style="stroke: green; stroke-width: 0.200000"/>
   <line x1="833.187012" y1="1062.662842" x2="833.187012" y2="1112.662842" style="stroke: green; stroke-width: 0.200000"/>
   <line x1="834.187073" y1="1062.662842" x2="834.187073" y2="1112.662842" style="stroke: green; stroke-width: 0.200000"/>
   <line x1="835.187073" y1="1062.662842" x2="835.187073" y2="1112.662842" style="stroke: green; stroke-width: 0.200000"/>
   <line x1="836.187073" y1="1062.662842" x2="836.187073" y2="1112.662842" style="stroke: green; stroke-width: 0.200000"/>
   <line x1="837.187012" y1="1062.662842" x2="837.187012" y2="1112.662842" style="stroke: green; stroke-width: 0.200000"/>
   <line x1="838.187012" y1="1062.662842" x2="838.187012" y2="1112.662842" style="stroke: green; stroke-width: 0.200000"/>
   <line x1="839.187073" y1="1062.662842" x2="839.187073" y2="1112.662842" style="stroke: green; stroke-width: 0.200000"/>
   <line x1="840.187073" y1="1062.662842" x2="840.187073" y2="1112.662842" style="stroke: green; stroke-width: 0.200000"/>
   <line x1="841.187073" y1="1062.662842" x2="841.187073" y2="1112.662842" style="stroke: green; stroke-width: 0.200000"/>
   <line x1="842.187012" y1="1062.662842" x2="842.187012" y2="1112.662842" style="stroke: green; stroke-width: 0.200000"/>
   <line x1="843.187012" y1="1062.662842" x2="843.187012" y2="1112.662842" style="stroke: green; stroke-width: 0.200000"/>
   <line x1="844.187073" y1="1062.662842" x2="844.187073" y2="1112.662842" style="stroke: green; stroke-width: 0.200000"/>
   <line x1="845.187073" y1="1062.662842" x2="845.187073" y2="1112.662842" style="stroke: green; stroke-width: 0.200000"/>
   <line x1="846.187073" y1="1062.662842" x2="846.187073" y2="1112.662842" style="stroke: green; stroke-width: 0.200000"/>
   <line x1="847.187012" y1="1062.662842" x2="847.187012" y2="1112.662842" style="stroke: green; stroke-width: 0.200000"/>
   <line x1="848.187012" y1="1062.662842" x2="848.187012" y2="1112.662842" style="stroke: green; stroke-width: 0.200000"/>
   <line x1="849.187073" y1="1062.662842" x2="849.187073" y2="1112.662842" style="stroke: green; stroke-width: 0.200000"/>
   <line x1="850.187073" y1="1062.662842" x2="850.187073" y2="1112.662842" style="stroke: green; stroke-width: 0.200000"/>
   <line x1="851.187073" y1="1062.662842" x2="851.187073" y2="1112.662842" style="stroke: green; stroke-width: 0.200000"/>
   <line x1="852.187012" y1="1062.662842" x2="852.187012" y2="1112.662842" style="stroke: green; stroke-width: 0.200000"/>
   <line x1="853.187012" y1="1062.662842" x2="853.187012" y2="1112.662842" style="stroke: green; stroke-width: 0.200000"/>
   <line x1="854.187073" y1="1062.662842" x2="854.187073" y2="1112.662842" style="stroke: green; stroke-width: 0.200000"/>
   <line x1="855.187073" y1="1062.662842" x2="855.187073" y2="1112.662842" style="stroke: green; stroke-width: 0.200000"/>
   <line x1="856.187073" y1="1062.662842" x2="856.187073" y2="1112.662842" style="stroke: green; stroke-width: 0.200000"/>
   <line x1="857.187012" y1="1062.662842" x2="857.187012" y2="1112.662842" style="stroke: green; stroke-width: 0.200000"/>
   <line x1="858.187012" y1="1062.686523" x2="858.187012" y2="1112.662842" style="stroke: green; stroke-width: 0.200000"/>
   <line x1="859.187073" y1="1063.445923" x2="859.187073" y2="1112.662842" style="stroke: green; stroke-width: 0.200000"/>
   <line x1="860.187073" y1="1064.243286" x2="860.187073" y2="1112.662842" style="stroke: green; stroke-width: 0.200000"/>
   <line x1="861.187073" y1="1065.040527" x2="861.187073" y2="1112.662842" style="stroke: green; stroke-width: 0.200000"/>
   <line x1="862.187012" y1="1065.837891" x2="862.187012" y2="1112.662842" style="stroke: green; stroke-width: 0.200000"/>
   <line x1="863.187012" y1="1066.635254" x2="863.187012" y2="1112.662842" style="stroke: green; stroke-width: 0.200000"/>
   <line x1="864.187073" y1="1067.432495" x2="864.187073" y2="1112.662842" style="stroke: green; stroke-width: 0.200000"/>
   <line x1="865.187073" y1="1068.229858" x2="865.187073" y2="1112.662842" style="stroke: green; stroke-width: 0.200000"/>
   <line x1="866.187073" y1="1069.027100" x2="866.187073" y2="1112.662842" style="stroke: green; stroke-width: 0.200000"/>
   <line x1="867.187012" y1="1069.907959" x2="867.187012" y2="1112.662842" style="stroke: green; stroke-width: 0.200000"/>
   <line x1="868.187012" y1="1070.999146" x2="868.187012" y2="1112.662842" style="stroke: green; stroke-width: 0.200000"/>
   <line x1="869.187073" y1="1072.090332" x2="869.187073" y2="1112.662842" style="stroke: green; stroke-width: 0.200000"/>
   <line x1="870.187073" y1="1073.181641" x2="870.187073" y2="1112.662842" style="stroke: green; stroke-width: 0.200000"/>
   <line x1="871.187073" y1="1074.272827" x2="871.187073" y2="1112.662842" style="stroke: green; stroke-width: 0.200000"/>
   <line x1="872.187012" y1="1075.364014" x2="872.187012" y2="1112.662842" style="stroke: green; stroke-width: 0.200000"/>
   <line x1="873.187012" y1="1076.455322" x2="873.187012" y2="1112.662842" style="stroke: green; stroke-width: 0.200000"/>
   <line x1="874.187073" y1="1077.546509" x2="874.187073" y2="1112.662842" style="stroke: green; stroke-width: 0.200000"/>
   <line x1="875.187073" y1="1078.637817" x2="875.187073" y2="1112.662842" style="stroke: green; stroke-width: 0.200000"/>
   <line x1="876.187073" y1="1080.069702" x2="876.187073" y2="1112.662842" style="stroke: green; stroke-width: 0.200000"/>
   <line x1="877.187012" y1="1081.576538" x2="877.187012" y2="1112.662842" style="stroke: green; stroke-width: 0.200000"/>
   <line x1="878.187012" y1="1082.970215" x2="878.187012" y2="1112.662842" style="stroke: green; stroke-width: 0.200000"/>
   <line x1="879.187073" y1="1084.290771" x2="879.187073" y2="1112.662842" style="stroke: green; stroke-width: 0.200000"/>
   <line x1="880.187073" y1="1085.611206" x2="880.187073" y2="1112.662842" style="stroke: green; stroke-width: 0.200000"/>
   <line x1="881.187073" y1="1087.861450" x2="881.187073" y2="1112.662842" style="stroke: green; stroke-width: 0.200000"/>
   <line x1="882.187012" y1="1090.201172" x2="882.187012" y2="1112.662842" style="stroke: green; stroke-width: 0.200000"/>
   <line x1="883.187012" y1="1092.535767" x2="883.187012" y2="1112.662842" style="stroke: green; stroke-width: 0.200000"/>
   <line x1="884.187073" y1="1094.870361" x2="884.187073" y2="1112.662842" style="stroke: green; stroke-width: 0.200000"/>
   <line x1="885.187073" y1="1097.608276" x2="885.187073" y2="1112.662842" style="stroke: green; stroke-width: 0.200000"/>
   <line x1="886.187073" y1="1100.442261" x2="886.187073" y2="1112.662842" style="stroke: green; stroke-width: 0.200000"/>
   <line x1="887.187012" y1="1103.244507" x2="887.187012" y2="1112.662842" style="stroke: green; stroke-width: 0.200000"/>
   <line x1="888.187012" y1="1106.213623" x2="888.187012" y2="1112.662842" style="stroke: green; stroke-width: 0.200000"/>
   <line x1="889.187073" y1="1109.578613" x2="889.187073" y2="1112.662842" style="stroke: green; stroke-width: 0.200000"/>
   <line x1="766.187073" y1="1112.762817" x2="766.187073" y2="1162.762817" style="stroke: green; stroke-width: 0.200000"/>
   <line x1="767.187012" y1="1112.762817" x2="767.187012" y2="1162.762817" style="stroke: green; stroke-width: 0.200000"/>
   <line x1="768.187012" y1="1112.762817" x2="768.187012" y2="1162.762817" style="stroke: green; stroke-width: 0.200000"/>
   <line x1="769.187073" y1="1112.762817" x2="769.187073" y2="1162.762817" style="stroke: green; stroke-width: 0.200000"/>
   <line x1="770.187073" y1="1112.762817" x2="770.187073" y2="1162.762817" style="stroke: green; stroke-width: 0.200000"/>
   <line x1="771.187073" y1="1112.762817" x2="771.187073" y2="1162.762817" style="stroke: green; stroke-width: 0.200000"/>
   <line x1="772.187012" y1="1112.762817" x2="772.187012" y2="1162.762817" style="stroke: green; stroke-width: 0.200000"/>
   <line x1="773.187012" y1="1112.762817" x2="773.187012" y2="1162.762817" style="stroke: green; stroke-width: 0.200000"/>
   <line x1="774.187073" y1="1112.762817" x2="774.187073" y2="1162.762817" style="stroke: green; stroke-width: 0.200000"/>
   <line x1="775.187073" y1="1112.762817" x2="775.187073" y2="1162.762817" style="stroke: green; stroke-width: 0.200000"/>
   <line x1="776.187073" y1="1112.762817" x2="776.187073" y2="1162.762817" style="stroke: green; stroke-width: 0.200000"/>
   <line x1="777.187012" y1="1112.762817" x2="777.187012" y2="1162.762817" style="stroke: green; stroke-width: 0.200000"/>
   <line x1="778.187012" y1="1112.762817" x2="778.187012" y2="1162.762817" style="stroke: green; stroke-width: 0.200000"/>
   <line x1="779.187073" y1="1112.762817" x2="779.187073" y2="1162.762817" style="stroke: green; stroke-width: 0.200000"/>
   <line x1="780.187073" y1="1112.762817" x2="780.187073" y2="1162.762817" style="stroke: green; stroke-width: 0.200000"/>
   <line x1="781.187073" y1="1112.762817" x2="781.187073" y2="1162.762817" style="stroke: green; stroke-width: 0.200000"/>
   <line x1="782.187012" y1="1112.762817" x2="782.187012" y2="1162.762817" style="stroke: green; stroke-width: 0.200000"/>
   <line x1="783.187012" y1="1112.762817" x2="783.187012" y2="1162.762817" style="stroke: green; stroke-width: 0.200000"/>
   <line x1="784.187073" y1="1112.762817" x2="784.187073" y2="1162.762817" style="stroke: green; stroke-width: 0.200000"/>
   <line x1="785.187073" y1="1112.762817" x2="785.187073" y2="1162.762817" style="stroke: green; stroke-width: 0.200000"/>
   <line x1="786.187073" y1="1112.762817" x2="786.187073" y2="1162.762817" style="stroke: green; stroke-width: 0.200000"/>
   <line x1="787.187012" y1="1112.762817" x2="787.187012" y2="1162.762817" style="stroke: green; stroke-width: 0.200000"/>
   <line x1="788.187012" y1="1112.762817" x2="788.187012" y2="1162.762817" style="stroke: green; stroke-width: 0.200000"/>
   <line x1="789.187073" y1="1112.762817" x2="789.187073" y2="1162.762817" style="stroke: green; stroke-width: 0.200000"/>
   <line x1="790.187073" y1="1112.762817" x2="790.187073" y2="1162.762817" style="stroke: green; stroke-width: 0.200000"/>
   <line x1="791.187073" y1="1112.762817" x2="791.187073" y2="1162.762817" style="stroke: green; stroke-width: 0.200000"/>
   <line x1="792.187012" y1="1112.762817" x2="792.187012" y2="1162.762817" style="stroke: green; stroke-width: 0.200000"/>
   <line x1="793.187012" y1="1112.762817" x2="793.187012" y2="1162.762817" style="stroke: green; stroke-width: 0.200000"/>
   <line x1="794.187073" y1="1112.762817" x2="794.187073" y2="1162.762817" style="stroke: green; stroke-width: 0.200000"/>
   <line x1="795.187073" y1="1112.762817" x2="795.187073" y2="1162.762817" style="stroke: green; stroke-width: 0.200000"/>
   <line x1="796.187073" y1="1112.762817" x2="796.187073" y2="1162.762817" style="stroke: green; stroke-width: 0.200000"/>
   <line x1="797.187012" y1="1112.762817" x2="797.187012" y2="1162.762817" style="stroke: green; stroke-width: 0.200000"/>
   <line x1="798.187012" y1="1112.762817" x2="798.187012" y2="1162.762817" style="stroke: green; stroke-width: 0.200000"/>
   <line x1="799.187073" y1="1112.762817" x2="799.187073" y2="1162.762817" style="stroke: green; stroke-width: 0.200000"/>
   <line x1="800.187073" y1="1112.762817" x2="800.187073" y2="1162.762817" style="stroke: green; stroke-width: 0.200000"/>
   <line x1="801.187073" y1="1112.762817" x2="801.187073" y2="1162.762817" style="stroke: green; stroke-width: 0.200000"/>
   <line x1="802.187012" y1="1112.762817" x2="802.187012" y2="1162.762817" style="stroke: green; stroke-width: 0.200000"/>
   <line x1="803.187012" y1="1112.762817" x2="803.187012" y2="1162.762817" style="stroke: green; stroke-width: 0.200000"/>
   <line x1="765.187073" y1="1112.762817" x2="765.187073" y2="1162.567871" style="stroke: green; stroke-width: 0.200000"/>
   <line x1="764.187073" y1="1112.762817" x2="764.187073" y2="1160.551270" style="stroke: green; stroke-width: 0.200000"/>
   <line x1="763.187012" y1="1112.762817" x2="763.187012" y2="1158.534546" style="stroke: green; stroke-width: 0.200000"/>
   <line x1="762.187012" y1="1112.762817" x2="762.187012" y2="1156.020752" style="stroke: green; stroke-width: 0.200000"/>
   <line x1="761.187073" y1="1112.762817" x2="761.187073" y2="1152.203369" style="stroke: green; stroke-width: 0.200000"/>
   <line x1="760.187073" y1="1112.762817" x2="760.187073" y2="1148.305786" style="stroke: green; stroke-width: 0.200000"/>
   <line x1="759.187073" y1="1112.762817" x2="759.187073" y2="1144.073364" style="stroke: green; stroke-width: 0.200000"/>
   <line x1="758.187012" y1="1112.762817" x2="758.187012" y2="1140.850342" style="stroke: green; stroke-width: 0.200000"/>
   <line x1="757.187012" y1="1112.762817" x2="757.187012" y2="1136.681030" style="stroke: green; stroke-width: 0.200000"/>
   <line x1="756.187073" y1="1112.762817" x2="756.187073" y2="1131.273315" style="stroke: green; stroke-width: 0.200000"/>
   <line x1="755.187073" y1="1112.762817" x2="755.187073" y2="1126.704468" style="stroke: green; stroke-width: 0.200000"/>
   <line x1="754.187073" y1="1112.762817" x2="754.187073" y2="1120.396240" style="stroke: green; stroke-width: 0.200000"/>
   <line x1="804.187073" y1="1112.762817" x2="804.187073" y2="1162.762817" style="stroke: green; stroke-width: 0.200000"/>
   <line x1="805.187073" y1="1112.762817" x2="805.187073" y2="1162.762817" style="stroke: green; stroke-width: 0.200000"/>
   <line x1="806.187073" y1="1112.762817" x2="806.187073" y2="1162.762817" style="stroke: green; stroke-width: 0.200000"/>
   <line x1="807.187012" y1="1112.762817" x2="807.187012" y2="1162.762817" style="stroke: green; stroke-width: 0.200000"/>
   <line x1="808.187012" y1="1112.762817" x2="808.187012" y2="1162.762817" style="stroke: green; stroke-width: 0.200000"/>
   <line x1="809.187073" y1="1112.762817" x2="809.187073" y2="1162.762817" style="stroke: green; stroke-width: 0.200000"/>
   <line x1="810.187073" y1="1112.762817" x2="810.187073" y2="1162.762817" style="stroke: green; stroke-width: 0.200000"/>
   <line x1="811.187073" y1="1112.762817" x2="811.187073" y2="1162.762817" style="stroke: green; stroke-width: 0.200000"/>
   <line x1="812.187012" y1="1112.762817" x2="812.187012" y2="1162.762817" style="stroke: green; stroke-width: 0.200000"/>
   <line x1="813.187012" y1="1112.762817" x2="813.187012" y2="1162.762817" style="stroke: green; stroke-width: 0.200000"/>
   <line x1="814.187073" y1="1112.762817" x2="814.187073" y2="1162.762817" style="stroke: green; stroke-width: 0.200000"/>
   <line x1="815.187073" y1="1112.762817" x2="815.187073" y2="1162.762817" style="stroke: green; stroke-width: 0.200000"/>
   <line x1="816.187073" y1="1112.762817" x2="816.187073" y2="1162.762817" style="stroke: green; stroke-width: 0.200000"/>
   <line x1="817.187012" y1="1112.762817" x2="817.187012" y2="1162.762817" style="stroke: green; stroke-width: 0.200000"/>
   <line x1="818.187012" y1="1112.762817" x2="818.187012" y2="1162.762817" style="stroke: green; stroke-width: 0.200000"/>
   <line x1="819.187073" y1="1112.762817" x2="819.187073" y2="1162.762817" style="stroke: green; stroke-width: 0.200000"/>
   <line x1="820.187073" y1="1112.762817" x2="820.187073" y2="1162.762817" style="stroke: green; stroke-width: 0.200000"/>
   <line x1="821.187073" y1="1112.762817" x2="821.187073" y2="1162.762817" style="stroke: green; stroke-width: 0.200000"/>
   <line x1="822.187012" y1="1112.762817" x2="822.187012" y2="1162.762817" style="stroke: green; stroke-width: 0.200000"/>
   <line x1="823.187012" y1="1112.762817" x2="823.187012" y2="1162.762817" style="stroke: green; stroke-width: 0.200000"/>
   <line x1="824.187073" y1="1112.762817" x2="824.187073" y2="1162.762817" style="stroke: green; stroke-width: 0.200000"/>
   <line x1="825.187073" y1="1112.762817" x2="825.187073" y2="1162.762817" style="stroke: green; stroke-width: 0.200000"/>
   <line x1="826.187073" y1="1112.762817" x2="826.187073" y2="1162.762817" style="stroke: green; stroke-width: 0.200000"/>
   <line x1="827.187012" y1="1112.762817" x2="827.187012" y2="1162.762817" style="stroke: green; stroke-width: 0.200000"/>
   <line x1="828.187012" y1="1112.762817" x2="828.187012" y2="1162.762817" style="stroke: green; stroke-width: 0.200000"/>
   <line x1="829.187073" y1="1112.762817" x2="829.187073" y2="1162.762817" style="stroke: green; stroke-width: 0.200000"/>
   <line x1="830.187073" y1="1112.762817" x2="830.187073" y2="1162.762817" style="stroke: green; stroke-width: 0.200000"/>
   <line x1="831.187073" y1="1112.762817" x2="831.187073" y2="1162.762817" style="stroke: green; stroke-width: 0.200000"/>
   <line x1="832.187012" y1="1112.762817" x2="832.187012" y2="1162.762817" style="stroke: green; stroke-width: 0.200000"/>
   <line x1="833.187012" y1="1112.762817" x2="833.187012" y2="1162.762817" style="stroke: green; stroke-width: 0.200000"/>
   <line x1="834.187073" y1="1112.762817" x2="834.187073" y2="1162.762817" style="stroke: green; stroke-width: 0.200000"/>
   <line x1="835.187073" y1="1112.762817" x2="835.187073" y2="1162.762817" style="stroke: green; stroke-width: 0.200000"/>
   <line x1="836.187073" y1="1112.762817" x2="836.187073" y2="1162.762817" style="stroke: green; stroke-width: 0.200000"/>
   <line x1="837.187012" y1="1112.762817" x2="837.187012" y2="1162.762817" style="stroke: green; stroke-width: 0.200000"/>
   <line x1="838.187012" y1="1112.762817" x2="838.187012" y2="1162.762817" style="stroke: green; stroke-width: 0.200000"/>
   <line x1="839.187073" y1="1112.762817" x2="839.187073" y2="1162.762817" style="stroke: green; stroke-width: 0.200000"/>
   <line x1="840.187073" y1="1112.762817" x2="840.187073" y2="1162.762817" style="stroke: green; stroke-width: 0.200000"/>
   <line x1="841.187073" y1="1112.762817" x2="841.187073" y2="1162.762817" style="stroke: green; stroke-width: 0.200000"/>
   <line x1="842.187012" y1="1112.762817" x2="842.187012" y2="1162.762817" style="stroke: green; stroke-width: 0.200000"/>
   <line x1="843.187012" y1="1112.762817" x2="843.187012" y2="1162.762817" style="stroke: green; stroke-width: 0.200000"/>
   <line x1="844.187073" y1="1112.762817" x2="844.187073" y2="1162.762817" style="stroke: green; stroke-width: 0.200000"/>
   <line x1="845.187073" y1="1112.762817" x2="845.187073" y2="1162.762817" style="stroke: green; stroke-width: 0.200000"/>
   <line x1="846.187073" y1="1112.762817" x2="846.187073" y2="1162.762817" style="stroke: green; stroke-width: 0.200000"/>
   <line x1="847.187012" y1="1112.762817" x2="847.187012" y2="1162.762817" style="stroke: green; stroke-width: 0.200000"/>
   <line x1="848.187012" y1="1112.762817" x2="848.187012" y2="1162.762817" style="stroke: green; stroke-width: 0.200000"/>
   <line x1="849.187073" y1="1112.762817" x2="849.187073" y2="1162.762817" style="stroke: green; stroke-width: 0.200000"/>
   <line x1="850.187073" y1="1112.762817" x2="850.187073" y2="1162.762817" style="stroke: green; stroke-width: 0.200000"/>
   <line x1="851.187073" y1="1112.762817" x2="851.187073" y2="1162.762817" style="stroke: green; stroke-width: 0.200000"/>
   <line x1="852.187012" y1="1112.762817" x2="852.187012" y2="1162.762817" style="stroke: green; stroke-width: 0.200000"/>
   <line x1="853.187012" y1="1112.762817" x2="853.187012" y2="1162.762817" style="stroke: green; stroke-width: 0.200000"/>
   <line x1="854.187073" y1="1112.762817" x2="854.187073" y2="1162.762817" style="stroke: green; stroke-width: 0.200000"/>
   <line x1="855.187073" y1="1112.762817" x2="855.187073" y2="1162.762817" style="stroke: green; stroke-width: 0.200000"/>
   <line x1="856.187073" y1="1112.762817" x2="856.187073" y2="1162.762817" style="stroke: green; stroke-width: 0.200000"/>
   <line x1="857.187012" y1="1112.762817" x2="857.187012" y2="1162.762817" style="stroke: green; stroke-width: 0.200000"/>
   <line x1="858.187012" y1="1112.762817" x2="858.187012" y2="1162.762817" style="stroke: green; stroke-width: 0.200000"/>
   <line x1="859.187073" y1="1112.762817" x2="859.187073" y2="1162.762817" style="stroke: green; stroke-width: 0.200000"/>
   <line x1="860.187073" y1="1112.762817" x2="860.187073" y2="1162.762817" style="stroke: green; stroke-width: 0.200000"/>
   <line x1="861.187073" y1="1112.762817" x2="861.187073" y2="1162.762817" style="stroke: green; stroke-width: 0.200000"/>
   <line x1="862.187012" y1="1112.762817" x2="862.187012" y2="1162.762817" style="stroke: green; stroke-width: 0.200000"/>
   <line x1="863.187012" y1="1112.762817" x2="863.187012" y2="1162.762817" style="stroke: green; stroke-width: 0.200000"/>
   <line x1="864.187073" y1="1112.762817" x2="864.187073" y2="1162.762817" style="stroke: green; stroke-width: 0.200000"/>
   <line x1="865.187073" y1="1112.762817" x2="865.187073" y2="1162.762817" style="stroke: green; stroke-width: 0.200000"/>
   <line x1="866.187073" y1="1112.762817" x2="866.187073" y2="1162.762817" style="stroke: green; stroke-width: 0.200000"/>
   <line x1="867.187012" y1="1112.762817" x2="867.187012" y2="1162.762817" style="stroke: green; stroke-width: 0.200000"/>
   <line x1="868.187012" y1="1112.762817" x2="868.187012" y2="1162.762817" style="stroke: green; stroke-width: 0.200000"/>
   <line x1="869.187073" y1="1112.762817" x2="869.187073" y2="1162.762817" style="stroke: green; stroke-width: 0.200000"/>
   <line x1="870.187073" y1="1112.762817" x2="870.187073" y2="1162.762817" style="stroke: green; stroke-width: 0.200000"/>
   <line x1="871.187073" y1="1112.762817" x2="871.187073" y2="1162.762817" style="stroke: green; stroke-width: 0.200000"/>
   <line x1="872.187012" y1="1112.762817" x2="872.187012" y2="1162.762817" style="stroke: green; stroke-width: 0.200000"/>
   <line x1="873.187012" y1="1112.762817" x2="873.187012" y2="1162.762817" style="stroke: green; stroke-width: 0.200000"/>
   <line x1="874.187073" y1="1112.762817" x2="874.187073" y2="1162.762817" style="stroke: green; stroke-width: 0.200000"/>
   <line x1="875.187073" y1="1112.762817" x2="875.187073" y2="1162.762817" style="stroke: green; stroke-width: 0.200000"/>
   <line x1="876.187073" y1="1112.762817" x2="876.187073" y2="1162.762817" style="stroke: green; stroke-width: 0.200000"/>
   <line x1="877.187012" y1="1112.762817" x2="877.187012" y2="1162.762817" style="stroke: green; stroke-width: 0.200000"/>
   <line x1="878.187012" y1="1112.762817" x2="878.187012" y2="1162.762817" style="stroke: green; stroke-width: 0.200000"/>
   <line x1="879.187073" y1="1112.762817" x2="879.187073" y2="1162.762817" style="stroke: green; stroke-width: 0.200000"/>
   <line x1="880.187073" y1="1112.762817" x2="880.187073" y2="1162.762817" style="stroke: green; stroke-width: 0.200000"/>
   <line x1="881.187073" y1="1112.762817" x2="881.187073" y2="1162.762817" style="stroke: green; stroke-width: 0.200000"/>
   <line x1="882.187012" y1="1112.762817" x2="882.187012" y2="1162.762817" style="stroke: green; stroke-width: 0.200000"/>
   <line x1="883.187012" y1="1112.762817" x2="883.187012" y2="1162.762817" style="stroke: green; stroke-width: 0.200000"/>
   <line x1="884.187073" y1="1112.762817" x2="884.187073" y2="1162.762817" style="stroke: green; stroke-width: 0.200000"/>
   <line x1="885.187073" y1="1112.762817" x2="885.187073" y2="1162.762817" style="stroke: green; stroke-width: 0.200000"/>
   <line x1="886.187073" y1="1112.762817" x2="886.187073" y2="1162.762817" style="stroke: green; stroke-width: 0.200000"/>
   <line x1="887.187012" y1="1112.762817" x2="887.187012" y2="1162.762817" style="stroke: green; stroke-width: 0.200000"/>
   <line x1="888.187012" y1="1112.762817" x2="888.187012" y2="1162.762817" style="stroke: green; stroke-width: 0.200000"/>
   <line x1="889.187073" y1="1112.762817" x2="889.187073" y2="1162.762817" style="stroke: green; stroke-width: 0.200000"/>
   <line x1="890.187073" y1="1112.762817" x2="890.187073" y2="1162.762817" style="stroke: green; stroke-width: 0.200000"/>
   <line x1="891.187073" y1="1115.859131" x2="891.187073" y2="1161.537109" style="stroke: green; stroke-width: 0.200000"/>
   <line x1="892.187012" y1="1120.182373" x2="892.187012" y2="1158.168823" style="stroke: green; stroke-width: 0.200000"/>
   <line x1="893.187012" y1="1124.904907" x2="893.187012" y2="1154.369507" style="stroke: green; stroke-width: 0.200000"/>
   <line x1="894.187073" y1="1131.522583" x2="894.187073" y2="1148.991821" style="stroke: green; stroke-width: 0.200000"/>
   <line x1="803.187012" y1="1162.862793" x2="803.187012" y2="1197.754028" style="stroke: green; stroke-width: 0.200000"/>
   <line x1="802.187012" y1="1162.862793" x2="802.187012" y2="1197.382690" style="stroke: green; stroke-width: 0.200000"/>
   <line x1="801.187073" y1="1162.862793" x2="801.187073" y2="1197.011353" style="stroke: green; stroke-width: 0.200000"/>
   <line x1="800.187073" y1="1162.862793" x2="800.187073" y2="1196.505249" style="stroke: green; stroke-width: 0.200000"/>
   <line x1="799.187073" y1="1162.862793" x2="799.187073" y2="1195.985352" style="stroke: green; stroke-width: 0.200000"/>
   <line x1="798.187012" y1="1162.862793" x2="798.187012" y2="1195.465454" style="stroke: green; stroke-width: 0.200000"/>
   <line x1="797.187012" y1="1162.862793" x2="797.187012" y2="1194.916016" style="stroke: green; stroke-width: 0.200000"/>
   <line x1="796.187073" y1="1162.862793" x2="796.187073" y2="1194.331787" style="stroke: green; stroke-width: 0.200000"/>
   <line x1="795.187073" y1="1162.862793" x2="795.187073" y2="1193.747437" style="stroke: green; stroke-width: 0.200000"/>
   <line x1="794.187073" y1="1162.862793" x2="794.187073" y2="1193.163086" style="stroke: green; stroke-width: 0.200000"/>
   <line x1="793.187012" y1="1162.862793" x2="793.187012" y2="1192.578857" style="stroke: green; stroke-width: 0.200000"/>
   <line x1="792.187012" y1="1162.862793" x2="792.187012" y2="1191.711670" style="stroke: green; stroke-width: 0.200000"/>
   <line x1="791.187073" y1="1162.862793" x2="791.187073" y2="1190.795166" style="stroke: green; stroke-width: 0.200000"/>
   <line x1="790.187073" y1="1162.862793" x2="790.187073" y2="1189.878662" style="stroke: green; stroke-width: 0.200000"/>
   <line x1="789.187073" y1="1162.862793" x2="789.187073" y2="1188.962158" style="stroke: green; stroke-width: 0.200000"/>
   <line x1="788.187012" y1="1162.862793" x2="788.187012" y2="1188.045532" style="stroke: green; stroke-width: 0.200000"/>
   <line x1="787.187012" y1="1162.862793" x2="787.187012" y2="1187.233398" style="stroke: green; stroke-width: 0.200000"/>
   <line x1="786.187073" y1="1162.862793" x2="786.187073" y2="1186.431519" style="stroke: green; stroke-width: 0.200000"/>
   <line x1="785.187073" y1="1162.862793" x2="785.187073" y2="1185.466309" style="stroke: green; stroke-width: 0.200000"/>
   <line x1="784.187073" y1="1162.862793" x2="784.187073" y2="1184.480225" style="stroke: green; stroke-width: 0.200000"/>
   <line x1="783.187012" y1="1162.862793" x2="783.187012" y2="1183.494141" style="stroke: green; stroke-width: 0.200000"/>
   <line x1="782.187012" y1="1162.862793" x2="782.187012" y2="1182.508057" style="stroke: green; stroke-width: 0.200000"/>
   <line x1="781.187073" y1="1162.862793" x2="781.187073" y2="1181.521851" style="stroke: green; stroke-width: 0.200000"/>
   <line x1="780.187073" y1="1162.862793" x2="780.187073" y2="1180.535767" style="stroke: green; stroke-width: 0.200000"/>
   <line x1="779.187073" y1="1162.862793" x2="779.187073" y2="1179.635986" style="stroke: green; stroke-width: 0.200000"/>
   <line x1="778.187012" y1="1162.862793" x2="778.187012" y2="1178.702881" style="stroke: green; stroke-width: 0.200000"/>
   <line x1="777.187012" y1="1162.862793" x2="777.187012" y2="1177.704956" style="stroke: green; stroke-width: 0.200000"/>
   <line x1="776.187073" y1="1162.862793" x2="776.187073" y2="1176.707031" style="stroke: green; stroke-width: 0.200000"/>
   <line x1="775.187073" y1="1162.862793" x2="775.187073" y2="1175.709106" style="stroke: green; stroke-width: 0.200000"/>
   <line x1="774.187073" y1="1162.862793" x2="774.187073" y2="1174.711182" style="stroke: green; stroke-width: 0.200000"/>
   <line x1="773.187012" y1="1162.862793" x2="773.187012" y2="1173.713257" style="stroke: green; stroke-width: 0.200000"/>
   <line x1="772.187012" y1="1162.862793" x2="772.187012" y2="1172.715332" style="stroke: green; stroke-width: 0.200000"/>
   <line x1="771.187073" y1="1162.862793" x2="771.187073" y2="1171.343750" style="stroke: green; stroke-width: 0.200000"/>
   <line x1="770.187073" y1="1162.862793" x2="770.187073" y2="1169.902832" style="stroke: green; stroke-width: 0.200000"/>
   <line x1="769.187073" y1="1162.862793" x2="769.187073" y2="1168.671631" style="stroke: green; stroke-width: 0.200000"/>
   <line x1="768.187012" y1="1162.862793" x2="768.187012" y2="1167.504395" style="stroke: green; stroke-width: 0.200000"/>
   <line x1="767.187012" y1="1162.862793" x2="767.187012" y2="1166.337280" style="stroke: green; stroke-width: 0.200000"/>
   <line x1="766.187073" y1="1162.862793" x2="766.187073" y2="1164.584595" style="stroke: green; stroke-width: 0.200000"/>
   <line x1="832.187012" y1="1162.862793" x2="832.187012" y2="1204.162476" style="stroke: green; stroke-width: 0.200000"/>
   <line x1="831.187073" y1="1162.862793" x2="831.187073" y2="1204.147217" style="stroke: green; stroke-width: 0.200000"/>
   <line x1="830.187073" y1="1162.862793" x2="830.187073" y2="1204.052979" style="stroke: green; stroke-width: 0.200000"/>
   <line x1="833.187012" y1="1162.862793" x2="833.187012" y2="1204.031006" style="stroke: green; stroke-width: 0.200000"/>
   <line x1="829.187073" y1="1162.862793" x2="829.187073" y2="1203.957520" style="stroke: green; stroke-width: 0.200000"/>
   <line x1="828.187012" y1="1162.862793" x2="828.187012" y2="1203.862061" style="stroke: green; stroke-width: 0.200000"/>
   <line x1="834.187073" y1="1162.862793" x2="834.187073" y2="1203.797852" style="stroke: green; stroke-width: 0.200000"/>
   <line x1="827.187012" y1="1162.862793" x2="827.187012" y2="1203.766479" style="stroke: green; stroke-width: 0.200000"/>
   <line x1="826.187073" y1="1162.862793" x2="826.187073" y2="1203.671021" style="stroke: green; stroke-width: 0.200000"/>
   <line x1="825.187073" y1="1162.862793" x2="825.187073" y2="1203.575562" style="stroke: green; stroke-width: 0.200000"/>
   <line x1="835.187073" y1="1162.862793" x2="835.187073" y2="1203.564941" style="stroke: green; stroke-width: 0.200000"/>
   <line x1="824.187073" y1="1162.862793" x2="824.187073" y2="1203.479980" style="stroke: green; stroke-width: 0.200000"/>
   <line x1="823.187012" y1="1162.862793" x2="823.187012" y2="1203.384521" style="stroke: green; stroke-width: 0.200000"/>
   <line x1="836.187073" y1="1162.862793" x2="836.187073" y2="1203.331787" style="stroke: green; stroke-width: 0.200000"/>
   <line x1="822.187012" y1="1162.862793" x2="822.187012" y2="1203.289062" style="stroke: green; stroke-width: 0.200000"/>
   <line x1="821.187073" y1="1162.862793" x2="821.187073" y2="1203.193481" style="stroke: green; stroke-width: 0.200000"/>
   <line x1="837.187012" y1="1162.862793" x2="837.187012" y2="1203.115723" style="stroke: green; stroke-width: 0.200000"/>
   <line x1="820.187073" y1="1162.862793" x2="820.187073" y2="1202.986572" style="stroke: green; stroke-width: 0.200000"/>
   <line x1="838.187012" y1="1162.862793" x2="838.187012" y2="1202.925537" style="stroke: green; stroke-width: 0.200000"/>
   <line x1="839.187073" y1="1162.862793" x2="839.187073" y2="1202.735474" style="stroke: green; stroke-width: 0.200000"/>
   <line x1="819.187073" y1="1162.862793" x2="819.187073" y2="1202.729736" style="stroke: green; stroke-width: 0.200000"/>
   <line x1="840.187073" y1="1162.862793" x2="840.187073" y2="1202.545288" style="stroke: green; stroke-width: 0.200000"/>
   <line x1="818.187012" y1="1162.862793" x2="818.187012" y2="1202.472900" style="stroke: green; stroke-width: 0.200000"/>
   <line x1="841.187073" y1="1162.862793" x2="841.187073" y2="1202.355225" style="stroke: green; stroke-width: 0.200000"/>
   <line x1="817.187012" y1="1162.862793" x2="817.187012" y2="1202.216064" style="stroke: green; stroke-width: 0.200000"/>
   <line x1="842.187012" y1="1162.862793" x2="842.187012" y2="1202.165039" style="stroke: green; stroke-width: 0.200000"/>
   <line x1="843.187012" y1="1162.862793" x2="843.187012" y2="1201.961792" style="stroke: green; stroke-width: 0.200000"/>
   <line x1="816.187073" y1="1162.862793" x2="816.187073" y2="1201.959351" style="stroke: green; stroke-width: 0.200000"/>
   <line x1="815.187073" y1="1162.862793" x2="815.187073" y2="1201.702515" style="stroke: green; stroke-width: 0.200000"/>
   <line x1="844.187073" y1="1162.862793" x2="844.187073" y2="1201.675171" style="stroke: green; stroke-width: 0.200000"/>
   <line x1="814.187073" y1="1162.862793" x2="814.187073" y2="1201.445679" style="stroke: green; stroke-width: 0.200000"/>
   <line x1="845.187073" y1="1162.862793" x2="845.187073" y2="1201.388672" style="stroke: green; stroke-width: 0.200000"/>
   <line x1="813.187012" y1="1162.862793" x2="813.187012" y2="1201.188843" style="stroke: green; stroke-width: 0.200000"/>
   <line x1="846.187073" y1="1162.862793" x2="846.187073" y2="1201.102173" style="stroke: green; stroke-width: 0.200000"/>
   <line x1="812.187012" y1="1162.862793" x2="812.187012" y2="1200.932129" style="stroke: green; stroke-width: 0.200000"/>
   <line x1="847.187012" y1="1162.862793" x2="847.187012" y2="1200.776733" style="stroke: green; stroke-width: 0.200000"/>
   <line x1="811.187073" y1="1162.862793" x2="811.187073" y2="1200.675171" style="stroke: green; stroke-width: 0.200000"/>
   <line x1="848.187012" y1="1162.862793" x2="848.187012" y2="1200.437988" style="stroke: green; stroke-width: 0.200000"/>
   <line x1="810.187073" y1="1162.862793" x2="810.187073" y2="1200.353394" style="stroke: green; stroke-width: 0.200000"/>
   <line x1="849.187073" y1="1162.862793" x2="849.187073" y2="1200.099243" style="stroke: green; stroke-width: 0.200000"/>
   <line x1="809.187073" y1="1162.862793" x2="809.187073" y2="1199.982056" style="stroke: green; stroke-width: 0.200000"/>
   <line x1="850.187073" y1="1162.862793" x2="850.187073" y2="1199.760498" style="stroke: green; stroke-width: 0.200000"/>
   <line x1="808.187012" y1="1162.862793" x2="808.187012" y2="1199.610718" style="stroke: green; stroke-width: 0.200000"/>
   <line x1="851.187073" y1="1162.862793" x2="851.187073" y2="1199.421875" style="stroke: green; stroke-width: 0.200000"/>
   <line x1="807.187012" y1="1162.862793" x2="807.187012" y2="1199.239380" style="stroke: green; stroke-width: 0.200000"/>
   <line x1="852.187012" y1="1162.862793" x2="852.187012" y2="1199.083130" style="stroke: green; stroke-width: 0.200000"/>
   <line x1="806.187073" y1="1162.862793" x2="806.187073" y2="1198.868042" style="stroke: green; stroke-width: 0.200000"/>
   <line x1="853.187012" y1="1162.862793" x2="853.187012" y2="1198.627808" style="stroke: green; stroke-width: 0.200000"/>
   <line x1="805.187073" y1="1162.862793" x2="805.187073" y2="1198.496704" style="stroke: green; stroke-width: 0.200000"/>
   <line x1="804.187073" y1="1162.862793" x2="804.187073" y2="1198.125366" style="stroke: green; stroke-width: 0.200000"/>
   <line x1="854.187073" y1="1162.862793" x2="854.187073" y2="1198.150879" style="stroke: green; stroke-width: 0.200000"/>
   <line x1="855.187073" y1="1162.862793" x2="855.187073" y2="1197.673828" style="stroke: green; stroke-width: 0.200000"/>
   <line x1="856.187073" y1="1162.862793" x2="856.187073" y2="1197.197021" style="stroke: green; stroke-width: 0.200000"/>
   <line x1="857.187012" y1="1162.862793" x2="857.187012" y2="1196.720093" style="stroke: green; stroke-width: 0.200000"/>
   <line x1="858.187012" y1="1162.862793" x2="858.187012" y2="1196.243164" style="stroke: green; stroke-width: 0.200000"/>
   <line x1="859.187073" y1="1162.862793" x2="859.187073" y2="1195.764893" style="stroke: green; stroke-width: 0.200000"/>
   <line x1="860.187073" y1="1162.862793" x2="860.187073" y2="1195.274780" style="stroke: green; stroke-width: 0.200000"/>
   <line x1="861.187073" y1="1162.862793" x2="861.187073" y2="1194.766846" style="stroke: green; stroke-width: 0.200000"/>
   <line x1="862.187012" y1="1162.862793" x2="862.187012" y2="1194.063965" style="stroke: green; stroke-width: 0.200000"/>
   <line x1="863.187012" y1="1162.862793" x2="863.187012" y2="1193.361084" style="stroke: green; stroke-width: 0.200000"/>
   <line x1="864.187073" y1="1162.862793" x2="864.187073" y2="1192.658203" style="stroke: green; stroke-width: 0.200000"/>
   <line x1="865.187073" y1="1162.862793" x2="865.187073" y2="1191.955322" style="stroke: green; stroke-width: 0.200000"/>
   <line x1="866.187073" y1="1162.862793" x2="866.187073" y2="1191.275269" style="stroke: green; stroke-width: 0.200000"/>
   <line x1="867.187012" y1="1162.862793" x2="867.187012" y2="1190.630127" style="stroke: green; stroke-width: 0.200000"/>
   <line x1="868.187012" y1="1162.862793" x2="868.187012" y2="1189.984985" style="stroke: green; stroke-width: 0.200000"/>
   <line x1="869.187073" y1="1162.862793" x2="869.187073" y2="1189.358032" style="stroke: green; stroke-width: 0.200000"/>
   <line x1="870.187073" y1="1162.862793" x2="870.187073" y2="1188.700928" style="stroke: green; stroke-width: 0.200000"/>
   <line x1="871.187073" y1="1162.862793" x2="871.187073" y2="1187.956665" style="stroke: green; stroke-width: 0.200000"/>
   <line x1="872.187012" y1="1162.862793" x2="872.187012" y2="1187.212280" style="stroke: green; stroke-width: 0.200000"/>
   <line x1="873.187012" y1="1162.862793" x2="873.187012" y2="1186.468018" style="stroke: green; stroke-width: 0.200000"/>
   <line x1="874.187073" y1="1162.862793" x2="874.187073" y2="1185.723633" style="stroke: green; stroke-width: 0.200000"/>
   <line x1="875.187073" y1="1162.862793" x2="875.187073" y2="1184.971680" style="stroke: green; stroke-width: 0.200000"/>
   <line x1="876.187073" y1="1162.862793" x2="876.187073" y2="1183.971191" style="stroke: green; stroke-width: 0.200000"/>
   <line x1="877.187012" y1="1162.862793" x2="877.187012" y2="1182.970581" style="stroke: green; stroke-width: 0.200000"/>
   <line x1="878.187012" y1="1162.862793" x2="878.187012" y2="1181.970093" style="stroke: green; stroke-width: 0.200000"/>
   <line x1="879.187073" y1="1162.862793" x2="879.187073" y2="1180.969482" style="stroke: green; stroke-width: 0.200000"/>
   <line x1="880.187073" y1="1162.862793" x2="880.187073" y2="1180.048096" style="stroke: green; stroke-width: 0.200000"/>
   <line x1="881.187073" y1="1162.862793" x2="881.187073" y2="1179.078857" style="stroke: green; stroke-width: 0.200000"/>
   <line x1="882.187012" y1="1162.862793" x2="882.187012" y2="1177.641357" style="stroke: green; stroke-width: 0.200000"/>
   <line x1="883.187012" y1="1162.862793" x2="883.187012" y2="1176.350830" style="stroke: green; stroke-width: 0.200000"/>
   <line x1="884.187073" y1="1162.862793" x2="884.187073" y2="1175.060425" style="stroke: green; stroke-width: 0.200000"/>
   <line x1="885.187073" y1="1162.862793" x2="885.187073" y2="1173.770020" style="stroke: green; stroke-width: 0.200000"/>
   <line x1="886.187073" y1="1162.862793" x2="886.187073" y2="1172.394287" style="stroke: green; stroke-width: 0.200000"/>
   <line x1="887.187012" y1="1162.862793" x2="887.187012" y2="1170.500122" style="stroke: green; stroke-width: 0.200000"/>
   <line x1="888.187012" y1="1162.862793" x2="888.187012" y2="1168.605957" style="stroke: green; stroke-width: 0.200000"/>
   <line x1="889.187073" y1="1162.862793" x2="889.187073" y2="1166.695190" style="stroke: green; stroke-width: 0.200000"/>
   <line x1="890.187073" y1="1162.862793" x2="890.187073" y2="1164.747803" style="stroke: green; stroke-width: 0.200000"/>
   <path d="M 798.822  1011.19  804.966  1011.9  810.931  1014.16  814.064  1015.14  818.092  1017.43  821.678  1019.65  823.286  1021.13  828.507  1025.4  832.969  1031.13  834.275  1032.65  839.923  1041.8  845.097  1049.99  847.052  1051.8  851.739  1055.8  854.316  1058.36  859.335  1061.65  867.834  1068.42  868.008  1068.58  876.552  1077.91  878.804  1081.3  881.824  1085.29  882.595  1087.35  885.777  1094.77  888.291  1101.9  889.236  1104.48  890.865  1109.96  892.44  1114.76  893.018  1116.86  894.918  1125.84  895.405  1128.4  896.149  1136.47  896.34  1141.56  896.121  1146.87  894.867  1153.41  894.397  1156.24  893.26  1159.71  891.8  1164.89  890.206  1167.99  887.311  1173.48  883.053  1178.97  882.198  1180.27  880.526  1181.75  876.141  1186.14  870.642  1190.23  869.55  1190.89  866.63  1192.77  861.869  1196.12  859.74  1197.16  852.909  1200.42  846.891  1202.46  843.397  1203.46  837.104  1204.66  832.757  1205.67  831.089  1205.65  820.784  1204.67  820.59  1204.64  810.588  1202.07  809.949  1201.87  800.486  1198.35  796.921  1196.5  792.143  1193.71  787.121  1189.1  785.075  1187.46  778.682  1181.16  777.832  1180.47  770.876  1173.53  768.764  1170.48  765.616  1166.81  761.064  1157.63  760.213  1154.44  758.597  1148.15  757.772  1144.57  756.161  1139.38  754.375  1129.72  753.953  1128.63  753.095  1122.76  752.247  1118.12  752.269  1117.36  752.752  1107.52  753.002  1105.83  754.629  1096.36  756.422  1085.09  756.542  1084.24  755.915  1074.83  755.762  1071.82  755.766  1064.91  756.538  1057.55  756.566  1055.56  757.089  1053.43  759.2  1046.24  762.792  1037.9  763.772  1036.24  767.922  1029.91  771.724  1025.44  773.846  1023.01  776.669  1020.53  781.07  1017.24  785.279  1014.5  787.91  1012.89  795.63  1011.06  798.822  1011.19  " style="fill: none; stroke: darkmagenta; stroke-width: 0.200000; fill-type: evenodd"  fill-opacity="1.000000" />
   <path d="M 798.745  1012.18  804.727  1012.88  810.604  1015.11  813.663  1016.06  817.581  1018.29  821.07  1020.45  822.63  1021.89  827.788  1026.1  832.195  1031.76  833.465  1033.24  839.075  1042.33  844.322  1050.64  846.388  1052.55  851.061  1056.54  853.684  1059.14  858.747  1062.46  867.181  1069.18  867.297  1069.29  875.762  1078.53  877.988  1081.88  880.939  1085.78  881.667  1087.72  884.845  1095.14  887.35  1102.24  888.286  1104.79  889.91  1110.26  891.482  1115.05  892.045  1117.1  893.937  1126.04  894.414  1128.54  895.151  1136.54  895.339  1141.55  895.125  1146.76  893.883  1153.23  893.423  1156  892.304  1159.42  890.865  1164.52  889.319  1167.53  886.468  1172.93  882.239  1178.39  881.436  1179.61  879.84  1181.02  875.485  1185.38  870.084  1189.4  869.02  1190.04  866.072  1191.94  861.358  1195.26  859.305  1196.26  852.532  1199.49  846.592  1201.51  843.165  1202.49  836.897  1203.68  832.65  1204.67  831.144  1204.65  820.908  1203.68  820.792  1203.66  810.865  1201.11  810.276  1200.92  800.892  1197.44  797.404  1195.62  792.74  1192.9  787.772  1188.34  785.74  1186.71  779.35  1180.41  778.502  1179.72  771.646  1172.88  769.556  1169.87  766.456  1166.25  762.005  1157.28  761.181  1154.19  759.569  1147.91  758.738  1144.31  757.134  1139.14  755.341  1129.45  754.926  1128.37  754.081  1122.6  753.25  1118.05  753.268  1117.4  753.748  1107.62  753.989  1105.99  755.615  1096.52  757.411  1085.24  757.547  1084.28  756.913  1074.78  756.762  1071.8  756.766  1064.97  757.538  1057.61  757.565  1055.69  758.055  1053.69  760.142  1046.57  763.686  1038.35  764.621  1036.77  768.724  1030.51  772.481  1026.1  774.556  1023.72  777.3  1021.31  781.643  1018.06  785.813  1015.34  788.296  1013.82  795.727  1012.06  798.745  1012.18  " style="fill: none; stroke: black; stroke-width: 0.200000; fill-type: evenodd"  fill-opacity="1.000000" />
   <path d="M 823.191  1348.67  823.99  1349.47  824.283  1350.56  823.99  1351.65  823.191  1352.45  822.099  1352.74  821.008  1352.45  820.209  1351.65  819.916  1350.56  820.209  1349.47  821.008  1348.67  822.099  1348.38  823.191  1348.67  " style="fill: none; stroke: purple; stroke-width: 0.500000; fill-type: evenodd"  fill-opacity="1.000000" />
   <path d="M 843.099  1348.83  843.831  1349.56  844.099  1350.56  843.831  1351.56  843.099  1352.29  842.099  1352.56  841.099  1352.29  840.367  1351.56  840.099  1350.56  840.367  1349.56  841.099  1348.83  842.099  1348.56  843.099  1348.83  " style="fill: none; stroke: purple; stroke-width: 0.500000; fill-type: evenodd"  fill-opacity="1.000000" />
   <path d="M 823.099  1328.83  823.831  1329.56  824.099  1330.56  823.831  1331.56  823.099  1332.29  822.099  1332.56  821.099  1332.29  820.367  1331.56  820.099  1330.56  820.367  1329.56  821.099  1328.83  822.099  1328.56  823.099  1328.83  " style="fill: none; stroke: purple; stroke-width: 0.500000; fill-type: evenodd"  fill-opacity="1.000000" />
   <path d="M 823.099  1308.83  823.831  1309.56  824.099  1310.56  823.831  1311.56  823.099  1312.29  822.099  1312.56  821.099  1312.29  820.367  1311.56  820.099  1310.56  820.367  1309.56  821.099  1308.83  822.099  1308.56  823.099  1308.83  " style="fill: none; stroke: purple; stroke-width: 0.500000; fill-type: evenodd"  fill-opacity="1.000000" />
   <path d="M 803.099  1308.83  803.831  1309.56  804.099  1310.56  803.831  1311.56  803.099  1312.29  802.099  1312.56  801.099  1312.29  800.367  1311.56  800.099  1310.56  800.367  1309.56  801.099  1308.83  802.099  1308.56  803.099  1308.83  " style="fill: none; stroke: purple; stroke-width: 0.500000; fill-type: evenodd"  fill-opacity="1.000000" />
   <path d="M 843.099  1288.83  843.831  1289.56  844.099  1290.56  843.831  1291.56  843.099  1292.29  842.099  1292.56  841.099  1292.29  840.367  1291.56  840.099  1290.56  840.367  1289.56  841.099  1288.83  842.099  1288.56  843.099  1288.83  " style="fill: none; stroke: purple; stroke-width: 0.500000; fill-type: evenodd"  fill-opacity="1.000000" />
   <path d="M 823.099  1288.83  823.831  1289.56  824.099  1290.56  823.831  1291.56  823.099  1292.29  822.099  1292.56  821.099  1292.29  820.367  1291.56  820.099  1290.56  820.367  1289.56  821.099  1288.83  822.099  1288.56  823.099  1288.83  " style="fill: none; stroke: purple; stroke-width: 0.500000; fill-type: evenodd"  fill-opacity="1.000000" />
   <path d="M 803.099  1288.83  803.831  1289.56  804.099  1290.56  803.831  1291.56  803.099  1292.29  802.099  1292.56  801.099  1292.29  800.367  1291.56  800.099  1290.56  800.367  1289.56  801.099  1288.83  802.099  1288.56  803.099  1288.83  " style="fill: none; stroke: purple; stroke-width: 0.500000; fill-type: evenodd"  fill-opacity="1.000000" />
   <path d="M 843.099  1268.83  843.831  1269.56  844.099  1270.56  843.831  1271.56  843.099  1272.29  842.099  1272.56  841.099  1272.29  840.367  1271.56  840.099  1270.56  840.367  1269.56  841.099  1268.83  842.099  1268.56  843.099  1268.83  " style="fill: none; stroke: purple; stroke-width: 0.500000; fill-type: evenodd"  fill-opacity="1.000000" />
   <path d="M 823.099  1268.83  823.831  1269.56  824.099  1270.56  823.831  1271.56  823.099  1272.29  822.099  1272.56  821.099  1272.29  820.367  1271.56  820.099  1270.56  820.367  1269.56  821.099  1268.83  822.099  1268.56  823.099  1268.83  " style="fill: none; stroke: purple; stroke-width: 0.500000; fill-type: evenodd"  fill-opacity="1.000000" />
   <path d="M 1004.03  1244.61  1005.78  1245.5  1007.16  1246.88  1008.05  1248.63  1008.36  1250.56  1008.05  1252.49  1007.16  1254.24  1005.78  1255.62  1004.03  1256.51  1002.1  1256.82  1000.17  1256.51  998.422  1255.62  997.038  1254.24  996.149  1252.49  995.843  1250.56  996.149  1248.63  997.038  1246.88  998.422  1245.5  1000.17  1244.61  1002.1  1244.3  1004.03  1244.61  " style="fill: none; stroke: purple; stroke-width: 0.500000; fill-type: evenodd"  fill-opacity="1.000000" />
   <path d="M 843.099  1248.83  843.831  1249.56  844.099  1250.56  843.831  1251.56  843.099  1252.29  842.099  1252.56  841.099  1252.29  840.367  1251.56  840.099  1250.56  840.367  1249.56  841.099  1248.83  842.099  1248.56  843.099  1248.83  " style="fill: none; stroke: purple; stroke-width: 0.500000; fill-type: evenodd"  fill-opacity="1.000000" />
   <path d="M 803.099  1248.83  803.831  1249.56  804.099  1250.56  803.831  1251.56  803.099  1252.29  802.099  1252.56  801.099  1252.29  800.367  1251.56  800.099  1250.56  800.367  1249.56  801.099  1248.83  802.099  1248.56  803.099  1248.83  " style="fill: none; stroke: purple; stroke-width: 0.500000; fill-type: evenodd"  fill-opacity="1.000000" />
   <path d="M 823.099  1248.83  823.831  1249.56  824.099  1250.56  823.831  1251.56  823.099  1252.29  822.099  1252.56  821.099  1252.29  820.367  1251.56  820.099  1250.56  820.367  1249.56  821.099  1248.83  822.099  1248.56  823.099  1248.83  " style="fill: none; stroke: purple; stroke-width: 0.500000; fill-type: evenodd"  fill-opacity="1.000000" />
   <path d="M 1004.58  1224.25  1006.33  1225.26  1007.7  1226.74  1008.58  1228.56  1008.88  1230.56  1008.58  1232.56  1007.7  1234.38  1006.33  1235.86  1004.58  1236.87  1002.61  1237.32  1000.59  1237.17  998.71  1236.43  997.13  1235.17  995.992  1233.5  995.396  1231.57  995.396  1229.55  995.992  1227.62  997.13  1225.95  998.71  1224.69  1000.59  1223.95  1002.61  1223.8  1004.58  1224.25  " style="fill: none; stroke: purple; stroke-width: 0.500000; fill-type: evenodd"  fill-opacity="1.000000" />
   <path d="M 984.562  1224.28  986.302  1225.29  987.669  1226.76  988.541  1228.57  988.84  1230.56  988.541  1232.55  987.669  1234.36  986.302  1235.83  984.562  1236.83  982.603  1237.28  980.599  1237.13  978.729  1236.4  977.158  1235.14  976.026  1233.48  975.434  1231.56  975.434  1229.55  976.026  1227.63  977.158  1225.97  978.729  1224.72  980.599  1223.99  982.603  1223.84  984.562  1224.28  " style="fill: none; stroke: purple; stroke-width: 0.500000; fill-type: evenodd"  fill-opacity="1.000000" />
   <path d="M 964.556  1224.3  966.291  1225.3  967.654  1226.77  968.524  1228.58  968.822  1230.56  968.524  1232.54  967.654  1234.35  966.291  1235.82  964.556  1236.82  962.602  1237.26  960.603  1237.11  958.738  1236.38  957.171  1235.13  956.042  1233.48  955.452  1231.56  955.452  1229.56  956.042  1227.64  957.171  1225.99  958.738  1224.74  960.603  1224  962.602  1223.86  964.556  1224.3  " style="fill: none; stroke: purple; stroke-width: 0.500000; fill-type: evenodd"  fill-opacity="1.000000" />
   <path d="M 843.335  1228.42  844.239  1229.32  844.57  1230.56  844.239  1231.79  843.335  1232.7  842.099  1233.03  840.864  1232.7  839.96  1231.79  839.629  1230.56  839.96  1229.32  840.864  1228.42  842.099  1228.09  843.335  1228.42  " style="fill: none; stroke: purple; stroke-width: 0.500000; fill-type: evenodd"  fill-opacity="1.000000" />
   <path d="M 823.099  1228.83  823.831  1229.56  824.099  1230.56  823.831  1231.56  823.099  1232.29  822.099  1232.56  821.099  1232.29  820.367  1231.56  820.099  1230.56  820.367  1229.56  821.099  1228.83  822.099  1228.56  823.099  1228.83  " style="fill: none; stroke: purple; stroke-width: 0.500000; fill-type: evenodd"  fill-opacity="1.000000" />
   <path d="M 1003.65  1203.08  1005.62  1203.77  1007.32  1204.97  1008.63  1206.59  1009.46  1208.5  1009.74  1210.56  1009.46  1212.62  1008.63  1214.53  1007.32  1216.14  1005.62  1217.34  1003.65  1218.04  1001.58  1218.18  999.54  1217.76  997.692  1216.8  996.171  1215.38  995.09  1213.6  994.528  1211.6  994.528  1209.52  995.09  1207.51  996.171  1205.74  997.692  1204.32  999.54  1203.36  1001.58  1202.93  1003.65  1203.08  " style="fill: none; stroke: purple; stroke-width: 0.500000; fill-type: evenodd"  fill-opacity="1.000000" />
   <path d="M 925.069  1204.06  926.781  1205.16  928.114  1206.69  928.959  1208.55  929.249  1210.56  928.959  1212.57  928.114  1214.42  926.781  1215.96  925.069  1217.06  923.117  1217.64  921.082  1217.64  919.129  1217.06  917.418  1215.96  916.085  1214.42  915.24  1212.57  914.95  1210.56  915.24  1208.55  916.085  1206.69  917.418  1205.16  919.129  1204.06  921.082  1203.48  923.117  1203.48  925.069  1204.06  " style="fill: none; stroke: purple; stroke-width: 0.500000; fill-type: evenodd"  fill-opacity="1.000000" />
   <path d="M 984.596  1204.2  986.36  1205.22  987.745  1206.71  988.629  1208.55  988.933  1210.56  988.629  1212.57  987.745  1214.41  986.36  1215.9  984.596  1216.92  982.61  1217.37  980.579  1217.22  978.683  1216.48  977.09  1215.21  975.943  1213.52  975.342  1211.58  975.342  1209.54  975.943  1207.59  977.09  1205.91  978.683  1204.64  980.579  1203.9  982.61  1203.74  984.596  1204.2  " style="fill: none; stroke: purple; stroke-width: 0.500000; fill-type: evenodd"  fill-opacity="1.000000" />
   <path d="M 964.527  1204.37  966.243  1205.36  967.59  1206.82  968.449  1208.6  968.745  1210.56  968.449  1212.52  967.59  1214.3  966.243  1215.75  964.527  1216.74  962.596  1217.19  960.621  1217.04  958.777  1216.31  957.228  1215.08  956.112  1213.44  955.528  1211.55  955.528  1209.57  956.112  1207.68  957.228  1206.04  958.777  1204.8  960.621  1204.08  962.596  1203.93  964.527  1204.37  " style="fill: none; stroke: purple; stroke-width: 0.500000; fill-type: evenodd"  fill-opacity="1.000000" />
   <path d="M 944.091  1204.43  945.887  1205.35  947.313  1206.77  948.228  1208.57  948.544  1210.56  948.228  1212.55  947.313  1214.35  945.887  1215.77  944.091  1216.69  942.099  1217  940.108  1216.69  938.311  1215.77  936.886  1214.35  935.97  1212.55  935.655  1210.56  935.97  1208.57  936.886  1206.77  938.311  1205.35  940.108  1204.43  942.099  1204.11  944.091  1204.43  " style="fill: none; stroke: purple; stroke-width: 0.500000; fill-type: evenodd"  fill-opacity="1.000000" />
   <path d="M 965.062  1184.07  966.77  1185.17  968.099  1186.7  968.943  1188.55  969.231  1190.56  968.943  1192.57  968.099  1194.42  966.77  1195.95  965.062  1197.05  963.114  1197.62  961.084  1197.62  959.137  1197.05  957.429  1195.95  956.099  1194.42  955.256  1192.57  954.967  1190.56  955.256  1188.55  956.099  1186.7  957.429  1185.17  959.137  1184.07  961.084  1183.5  963.114  1183.5  965.062  1184.07  " style="fill: none; stroke: purple; stroke-width: 0.500000; fill-type: evenodd"  fill-opacity="1.000000" />
   <path d="M 906.756  1185.19  908.082  1186.71  908.922  1188.56  909.211  1190.56  908.922  1192.56  908.082  1194.4  906.756  1195.93  905.053  1197.03  903.111  1197.6  901.087  1197.6  899.145  1197.03  897.443  1195.93  897.225  1195.68  898.587  1194.47  900.554  1191.49  905.451  1185.17  905.776  1184.55  906.756  1185.19  " style="fill: none; stroke: purple; stroke-width: 0.500000; fill-type: evenodd"  fill-opacity="1.000000" />
   <path d="M 924.604  1184.18  926.373  1185.2  927.763  1186.7  928.65  1188.54  928.954  1190.56  928.65  1192.58  927.763  1194.42  926.373  1195.92  924.604  1196.94  922.612  1197.39  920.574  1197.24  918.672  1196.5  917.075  1195.22  915.924  1193.53  915.321  1191.58  915.321  1189.54  915.924  1187.59  917.075  1185.9  918.672  1184.62  920.574  1183.88  922.612  1183.72  924.604  1184.18  " style="fill: none; stroke: purple; stroke-width: 0.500000; fill-type: evenodd"  fill-opacity="1.000000" />
   <path d="M 944.551  1184.31  946.282  1185.31  947.643  1186.78  948.51  1188.58  948.809  1190.56  948.51  1192.54  947.643  1194.34  946.282  1195.8  944.551  1196.8  942.601  1197.25  940.606  1197.1  938.745  1196.37  937.181  1195.12  936.055  1193.47  935.465  1191.56  935.465  1189.56  936.055  1187.65  937.181  1186  938.745  1184.75  940.606  1184.02  942.601  1183.87  944.551  1184.31  " style="fill: none; stroke: purple; stroke-width: 0.500000; fill-type: evenodd"  fill-opacity="1.000000" />
   <path d="M 944.25  1162.53  946.253  1163.36  947.974  1164.68  949.294  1166.41  950.124  1168.41  950.407  1170.56  950.124  1172.71  949.294  1174.71  947.974  1176.43  946.253  1177.75  944.25  1178.58  942.099  1178.87  939.949  1178.58  937.946  1177.75  936.225  1176.43  934.905  1174.71  934.075  1172.71  933.792  1170.56  934.075  1168.41  934.905  1166.41  936.225  1164.68  937.946  1163.36  939.949  1162.53  942.099  1162.25  944.25  1162.53  " style="fill: none; stroke: purple; stroke-width: 0.500000; fill-type: evenodd"  fill-opacity="1.000000" />
   <path d="M 925.207  1163.75  926.999  1164.91  928.393  1166.51  929.278  1168.45  929.581  1170.56  929.278  1172.67  928.393  1174.6  926.999  1176.21  925.207  1177.36  923.164  1177.96  921.035  1177.96  918.991  1177.36  917.2  1176.21  915.806  1174.6  914.921  1172.67  914.618  1170.56  914.921  1168.45  915.806  1166.51  917.2  1164.91  918.991  1163.75  921.035  1163.15  923.164  1163.15  925.207  1163.75  " style="fill: none; stroke: purple; stroke-width: 0.500000; fill-type: evenodd"  fill-opacity="1.000000" />
</svg>
