<?xml version="1.0" encoding="UTF-8" standalone="yes"?>
<!DOCTYPE svg PUBLIC "-//W3C//DTD SVG 1.0//EN" "http://www.w3.org/TR/2001/REC-SVG-20010904/DTD/svg10.dtd">
<svg height="2000" width="2000" xmlns="http://www.w3.org/2000/svg" xmlns:svg="http://www.w3.org/2000/svg" xmlns:xlink="http://www.w3.org/1999/xlink">
   <marker id="endArrow" markerHeight="8" markerUnits="strokeWidth" markerWidth="10" orient="auto" refX="1" refY="5" viewBox="0 0 1000 1000">
      <polyline fill="darkblue" points="0,0 10,5 0,10 1,5" />
   </marker>
   <circle cx="1000" cy="1000" r="1" style="stroke:black; fill: red" />
   <circle cx="1000" cy="1000" r="800" style="stroke:black; fill: none" />
   <path d="M 999.826  1099.22  1001.94  1099.96  1003.84  1101.15  1005.42  1102.73  1006.61  1104.63  1007.35  1106.74  1007.6  1108.96  1007.35  1111.19  1006.61  1113.3  1005.42  1115.2  1003.84  1116.78  1001.94  1117.97  999.826  1118.71  997.601  1118.96  995.376  1118.71  993.262  1117.97  991.366  1116.78  989.783  1115.2  988.591  1113.3  987.852  1111.19  987.601  1108.96  987.852  1106.74  988.591  1104.63  989.783  1102.73  991.366  1101.15  993.262  1099.96  995.376  1099.22  997.601  1098.96  999.826  1099.22  " style="fill: none; stroke: purple; stroke-width: 0.500000; fill-type: evenodd"  fill-opacity="1.000000" />
   <path d="M 1019.83  1079.22  1021.94  1079.96  1023.84  1081.15  1025.42  1082.73  1026.61  1084.63  1027.35  1086.74  1027.6  1088.96  1027.35  1091.19  1026.61  1093.3  1025.42  1095.2  1023.84  1096.78  1021.94  1097.97  1019.83  1098.71  1017.6  1098.96  1015.38  1098.71  1013.26  1097.97  1011.37  1096.78  1009.78  1095.2  1008.59  1093.3  1007.85  1091.19  1007.6  1088.96  1007.85  1086.74  1008.59  1084.63  1009.78  1082.73  1011.37  1081.15  1013.26  1079.96  1015.38  1079.22  1017.6  1078.96  1019.83  1079.22  " style="fill: none; stroke: purple; stroke-width: 0.500000; fill-type: evenodd"  fill-opacity="1.000000" />
   <path d="M 939.318  1079.23  941.518  1079.88  943.506  1081.03  945.176  1082.61  946.438  1084.53  947.223  1086.68  947.49  1088.96  947.223  1091.25  946.438  1093.4  945.176  1095.32  943.506  1096.9  941.518  1098.04  939.318  1098.7  937.026  1098.84  934.765  1098.44  932.656  1097.53  930.815  1096.16  929.339  1094.4  928.308  1092.35  927.779  1090.11  927.779  1087.82  928.308  1085.58  929.339  1083.53  930.815  1081.77  932.656  1080.4  934.765  1079.49  937.026  1079.09  939.318  1079.23  " style="fill: none; stroke: purple; stroke-width: 0.500000; fill-type: evenodd"  fill-opacity="1.000000" />
   <path d="M 999.318  1079.23  1001.52  1079.88  1003.51  1081.03  1005.18  1082.61  1006.44  1084.53  1007.22  1086.68  1007.49  1088.96  1007.22  1091.25  1006.44  1093.4  1005.18  1095.32  1003.51  1096.9  1001.52  1098.04  999.318  1098.7  997.026  1098.84  994.765  1098.44  992.656  1097.53  990.815  1096.16  989.339  1094.4  988.308  1092.35  987.779  1090.11  987.779  1087.82  988.308  1085.58  989.339  1083.53  990.815  1081.77  992.656  1080.4  994.765  1079.49  997.026  1079.09  999.318  1079.23  " style="fill: none; stroke: purple; stroke-width: 0.500000; fill-type: evenodd"  fill-opacity="1.000000" />
   <path d="M 979.286  1079.41  981.444  1080.05  983.396  1081.18  985.034  1082.73  986.272  1084.61  987.043  1086.73  987.305  1088.96  987.043  1091.2  986.272  1093.32  985.034  1095.2  983.396  1096.75  981.444  1097.87  979.286  1098.52  977.037  1098.65  974.818  1098.26  972.749  1097.37  970.942  1096.02  969.494  1094.3  968.482  1092.28  967.963  1090.09  967.963  1087.84  968.482  1085.65  969.494  1083.63  970.942  1081.91  972.749  1080.56  974.818  1079.67  977.037  1079.28  979.286  1079.41  " style="fill: none; stroke: purple; stroke-width: 0.500000; fill-type: evenodd"  fill-opacity="1.000000" />
   <path d="M 959.262  1079.54  961.39  1080.18  963.313  1081.29  964.929  1082.82  966.149  1084.67  966.909  1086.76  967.167  1088.96  966.909  1091.17  966.149  1093.26  964.929  1095.11  963.313  1096.64  961.39  1097.75  959.262  1098.39  957.045  1098.51  954.857  1098.13  952.818  1097.25  951.036  1095.92  949.609  1094.22  948.612  1092.24  948.1  1090.08  948.1  1087.85  948.612  1085.69  949.609  1083.71  951.036  1082.01  952.818  1080.68  954.857  1079.8  957.045  1079.42  959.262  1079.54  " style="fill: none; stroke: purple; stroke-width: 0.500000; fill-type: evenodd"  fill-opacity="1.000000" />
   <path d="M 1039.83  1059.22  1041.94  1059.96  1043.84  1061.15  1045.42  1062.73  1046.61  1064.63  1047.35  1066.74  1047.6  1068.96  1047.35  1071.19  1046.61  1073.3  1045.42  1075.2  1043.84  1076.78  1041.94  1077.97  1039.83  1078.71  1037.6  1078.96  1035.38  1078.71  1033.26  1077.97  1031.37  1076.78  1029.78  1075.2  1028.59  1073.3  1027.85  1071.19  1027.6  1068.96  1027.85  1066.74  1028.59  1064.63  1029.78  1062.73  1031.37  1061.15  1033.26  1059.96  1035.38  1059.22  1037.6  1058.96  1039.83  1059.22  " style="fill: none; stroke: purple; stroke-width: 0.500000; fill-type: evenodd"  fill-opacity="1.000000" />
   <path d="M 1019.83  1059.22  1021.94  1059.96  1023.84  1061.15  1025.42  1062.73  1026.61  1064.63  1027.35  1066.74  1027.6  1068.96  1027.35  1071.19  1026.61  1073.3  1025.42  1075.2  1023.84  1076.78  1021.94  1077.97  1019.83  1078.71  1017.6  1078.96  1015.38  1078.71  1013.26  1077.97  1011.37  1076.78  1009.78  1075.2  1008.59  1073.3  1007.85  1071.19  1007.6  1068.96  1007.85  1066.74  1008.59  1064.63  1009.78  1062.73  1011.37  1061.15  1013.26  1059.96  1015.38  1059.22  1017.6  1058.96  1019.83  1059.22  " style="fill: none; stroke: purple; stroke-width: 0.500000; fill-type: evenodd"  fill-opacity="1.000000" />
   <path d="M 999.286  1059.41  1001.44  1060.05  1003.4  1061.18  1005.03  1062.73  1006.27  1064.61  1007.04  1066.73  1007.3  1068.96  1007.04  1071.2  1006.27  1073.32  1005.03  1075.2  1003.4  1076.75  1001.44  1077.87  999.286  1078.52  997.037  1078.65  994.818  1078.26  992.749  1077.37  990.942  1076.02  989.494  1074.3  988.482  1072.28  987.963  1070.09  987.963  1067.84  988.482  1065.65  989.494  1063.63  990.942  1061.91  992.749  1060.56  994.818  1059.67  997.037  1059.28  999.286  1059.41  " style="fill: none; stroke: purple; stroke-width: 0.500000; fill-type: evenodd"  fill-opacity="1.000000" />
   <path d="M 919.262  1059.54  921.39  1060.18  923.313  1061.29  924.929  1062.82  926.149  1064.67  926.909  1066.76  927.167  1068.96  926.909  1071.17  926.149  1073.26  924.929  1075.11  923.313  1076.64  921.39  1077.75  919.262  1078.39  917.045  1078.51  914.857  1078.13  912.818  1077.25  911.036  1075.92  909.609  1074.22  908.612  1072.24  908.1  1070.08  908.1  1067.85  908.612  1065.69  909.609  1063.71  911.036  1062.01  912.818  1060.68  914.857  1059.8  917.045  1059.42  919.262  1059.54  " style="fill: none; stroke: purple; stroke-width: 0.500000; fill-type: evenodd"  fill-opacity="1.000000" />
   <path d="M 980.967  1060.09  982.993  1061.15  984.706  1062.67  986.006  1064.55  986.817  1066.69  987.093  1068.96  986.817  1071.24  986.006  1073.38  984.706  1075.26  982.993  1076.78  980.967  1077.84  978.745  1078.39  976.457  1078.39  974.235  1077.84  972.209  1076.78  970.496  1075.26  969.196  1073.38  968.385  1071.24  968.109  1068.96  968.385  1066.69  969.196  1064.55  970.496  1062.67  972.209  1061.15  974.235  1060.09  976.457  1059.54  978.745  1059.54  980.967  1060.09  " style="fill: none; stroke: purple; stroke-width: 0.500000; fill-type: evenodd"  fill-opacity="1.000000" />
   <path d="M 960.939  1060.16  962.949  1061.22  964.648  1062.72  965.937  1064.59  966.742  1066.71  967.016  1068.96  966.742  1071.22  965.937  1073.34  964.648  1075.21  962.949  1076.71  960.939  1077.77  958.736  1078.31  956.466  1078.31  954.262  1077.77  952.253  1076.71  950.554  1075.21  949.265  1073.34  948.46  1071.22  948.186  1068.96  948.46  1066.71  949.265  1064.59  950.554  1062.72  952.253  1061.22  954.262  1060.16  956.466  1059.62  958.736  1059.62  960.939  1060.16  " style="fill: none; stroke: purple; stroke-width: 0.500000; fill-type: evenodd"  fill-opacity="1.000000" />
   <path d="M 940.911  1060.24  942.903  1061.28  944.587  1062.78  945.865  1064.63  946.663  1066.73  946.934  1068.96  946.663  1071.2  945.865  1073.3  944.587  1075.15  942.903  1076.65  940.911  1077.69  938.726  1078.23  936.476  1078.23  934.291  1077.69  932.299  1076.65  930.615  1075.15  929.337  1073.3  928.539  1071.2  928.268  1068.96  928.539  1066.73  929.337  1064.63  930.615  1062.78  932.299  1061.28  934.291  1060.24  936.476  1059.7  938.726  1059.7  940.911  1060.24  " style="fill: none; stroke: purple; stroke-width: 0.500000; fill-type: evenodd"  fill-opacity="1.000000" />
   <path d="M 1019.83  1039.22  1021.94  1039.96  1023.84  1041.15  1025.42  1042.73  1026.61  1044.63  1027.35  1046.74  1027.6  1048.96  1027.35  1051.19  1026.61  1053.3  1025.42  1055.2  1023.84  1056.78  1021.94  1057.97  1019.83  1058.71  1017.6  1058.96  1015.38  1058.71  1013.26  1057.97  1011.37  1056.78  1009.78  1055.2  1008.59  1053.3  1007.85  1051.19  1007.6  1048.96  1007.85  1046.74  1008.59  1044.63  1009.78  1042.73  1011.37  1041.15  1013.26  1039.96  1015.38  1039.22  1017.6  1038.96  1019.83  1039.22  " style="fill: none; stroke: purple; stroke-width: 0.500000; fill-type: evenodd"  fill-opacity="1.000000" />
   <path d="M 1039.83  1039.22  1041.94  1039.96  1043.84  1041.15  1045.42  1042.73  1046.61  1044.63  1047.35  1046.74  1047.6  1048.96  1047.35  1051.19  1046.61  1053.3  1045.42  1055.2  1043.84  1056.78  1041.94  1057.97  1039.83  1058.71  1037.6  1058.96  1035.38  1058.71  1033.26  1057.97  1031.37  1056.78  1029.78  1055.2  1028.59  1053.3  1027.85  1051.19  1027.6  1048.96  1027.85  1046.74  1028.59  1044.63  1029.78  1042.73  1031.37  1041.15  1033.26  1039.96  1035.38  1039.22  1037.6  1038.96  1039.83  1039.22  " style="fill: none; stroke: purple; stroke-width: 0.500000; fill-type: evenodd"  fill-opacity="1.000000" />
   <path d="M 1059.83  1039.22  1061.94  1039.96  1063.84  1041.15  1065.42  1042.73  1066.61  1044.63  1067.35  1046.74  1067.6  1048.96  1067.35  1051.19  1066.61  1053.3  1065.42  1055.2  1063.84  1056.78  1061.94  1057.97  1059.83  1058.71  1057.6  1058.96  1055.38  1058.71  1053.26  1057.97  1051.37  1056.78  1049.78  1055.2  1048.59  1053.3  1047.85  1051.19  1047.6  1048.96  1047.85  1046.74  1048.59  1044.63  1049.78  1042.73  1051.37  1041.15  1053.26  1039.96  1055.38  1039.22  1057.6  1038.96  1059.83  1039.22  " style="fill: none; stroke: purple; stroke-width: 0.500000; fill-type: evenodd"  fill-opacity="1.000000" />
   <path d="M 999.318  1039.23  1001.52  1039.88  1003.51  1041.03  1005.18  1042.61  1006.44  1044.53  1007.22  1046.68  1007.49  1048.96  1007.22  1051.25  1006.44  1053.4  1005.18  1055.32  1003.51  1056.9  1001.52  1058.04  999.318  1058.7  997.026  1058.84  994.765  1058.44  992.656  1057.53  990.815  1056.16  989.339  1054.4  988.308  1052.35  987.779  1050.11  987.779  1047.82  988.308  1045.58  989.339  1043.53  990.815  1041.77  992.656  1040.4  994.765  1039.49  997.026  1039.09  999.318  1039.23  " style="fill: none; stroke: purple; stroke-width: 0.500000; fill-type: evenodd"  fill-opacity="1.000000" />
   <path d="M 899.297  1039.35  901.47  1040  903.434  1041.13  905.084  1042.69  906.33  1044.58  907.106  1046.71  907.369  1048.96  907.106  1051.22  906.33  1053.35  905.084  1055.24  903.434  1056.8  901.47  1057.93  899.297  1058.58  897.033  1058.72  894.799  1058.32  892.717  1057.42  890.898  1056.07  889.44  1054.33  888.422  1052.31  887.899  1050.1  887.899  1047.83  888.422  1045.62  889.44  1043.6  890.898  1041.86  892.717  1040.51  894.799  1039.61  897.033  1039.21  899.297  1039.35  " style="fill: none; stroke: purple; stroke-width: 0.500000; fill-type: evenodd"  fill-opacity="1.000000" />
   <path d="M 979.262  1039.54  981.39  1040.18  983.313  1041.29  984.929  1042.82  986.149  1044.67  986.909  1046.76  987.167  1048.96  986.909  1051.17  986.149  1053.26  984.929  1055.11  983.313  1056.64  981.39  1057.75  979.262  1058.39  977.045  1058.51  974.857  1058.13  972.818  1057.25  971.036  1055.92  969.609  1054.22  968.612  1052.24  968.1  1050.08  968.1  1047.85  968.612  1045.69  969.609  1043.71  971.036  1042.01  972.818  1040.68  974.857  1039.8  977.045  1039.42  979.262  1039.54  " style="fill: none; stroke: purple; stroke-width: 0.500000; fill-type: evenodd"  fill-opacity="1.000000" />
   <path d="M 920.967  1040.09  922.993  1041.15  924.706  1042.67  926.006  1044.55  926.817  1046.69  927.093  1048.96  926.817  1051.24  926.006  1053.38  924.706  1055.26  922.993  1056.78  920.967  1057.84  918.745  1058.39  916.457  1058.39  914.235  1057.84  912.209  1056.78  910.496  1055.26  909.196  1053.38  908.385  1051.24  908.109  1048.96  908.385  1046.69  909.196  1044.55  910.496  1042.67  912.209  1041.15  914.235  1040.09  916.457  1039.54  918.745  1039.54  920.967  1040.09  " style="fill: none; stroke: purple; stroke-width: 0.500000; fill-type: evenodd"  fill-opacity="1.000000" />
   <path d="M 960.911  1040.24  962.903  1041.28  964.587  1042.78  965.865  1044.63  966.663  1046.73  966.934  1048.96  966.663  1051.2  965.865  1053.3  964.587  1055.15  962.903  1056.65  960.911  1057.69  958.726  1058.23  956.476  1058.23  954.291  1057.69  952.299  1056.65  950.615  1055.15  949.337  1053.3  948.539  1051.2  948.268  1048.96  948.539  1046.73  949.337  1044.63  950.615  1042.78  952.299  1041.28  954.291  1040.24  956.476  1039.7  958.726  1039.7  960.911  1040.24  " style="fill: none; stroke: purple; stroke-width: 0.500000; fill-type: evenodd"  fill-opacity="1.000000" />
   <path d="M 940.911  1040.24  942.903  1041.28  944.587  1042.78  945.865  1044.63  946.663  1046.73  946.934  1048.96  946.663  1051.2  945.865  1053.3  944.587  1055.15  942.903  1056.65  940.911  1057.69  938.726  1058.23  936.476  1058.23  934.291  1057.69  932.299  1056.65  930.615  1055.15  929.337  1053.3  928.539  1051.2  928.268  1048.96  928.539  1046.73  929.337  1044.63  930.615  1042.78  932.299  1041.28  934.291  1040.24  936.476  1039.7  938.726  1039.7  940.911  1040.24  " style="fill: none; stroke: purple; stroke-width: 0.500000; fill-type: evenodd"  fill-opacity="1.000000" />
   <path d="M 1099.83  1019.22  1101.94  1019.96  1103.84  1021.15  1105.42  1022.73  1106.61  1024.63  1107.35  1026.74  1107.6  1028.96  1107.35  1031.19  1106.61  1033.3  1105.42  1035.2  1103.84  1036.78  1101.94  1037.97  1099.83  1038.71  1097.6  1038.96  1095.38  1038.71  1093.26  1037.97  1091.37  1036.78  1089.78  1035.2  1088.59  1033.3  1087.85  1031.19  1087.6  1028.96  1087.85  1026.74  1088.59  1024.63  1089.78  1022.73  1091.37  1021.15  1093.26  1019.96  1095.38  1019.22  1097.6  1018.96  1099.83  1019.22  " style="fill: none; stroke: purple; stroke-width: 0.500000; fill-type: evenodd"  fill-opacity="1.000000" />
   <path d="M 1079.83  1019.22  1081.94  1019.96  1083.84  1021.15  1085.42  1022.73  1086.61  1024.63  1087.35  1026.74  1087.6  1028.96  1087.35  1031.19  1086.61  1033.3  1085.42  1035.2  1083.84  1036.78  1081.94  1037.97  1079.83  1038.71  1077.6  1038.96  1075.38  1038.71  1073.26  1037.97  1071.37  1036.78  1069.78  1035.2  1068.59  1033.3  1067.85  1031.19  1067.6  1028.96  1067.85  1026.74  1068.59  1024.63  1069.78  1022.73  1071.37  1021.15  1073.26  1019.96  1075.38  1019.22  1077.6  1018.96  1079.83  1019.22  " style="fill: none; stroke: purple; stroke-width: 0.500000; fill-type: evenodd"  fill-opacity="1.000000" />
   <path d="M 1059.83  1019.22  1061.94  1019.96  1063.84  1021.15  1065.42  1022.73  1066.61  1024.63  1067.35  1026.74  1067.6  1028.96  1067.35  1031.19  1066.61  1033.3  1065.42  1035.2  1063.84  1036.78  1061.94  1037.97  1059.83  1038.71  1057.6  1038.96  1055.38  1038.71  1053.26  1037.97  1051.37  1036.78  1049.78  1035.2  1048.59  1033.3  1047.85  1031.19  1047.6  1028.96  1047.85  1026.74  1048.59  1024.63  1049.78  1022.73  1051.37  1021.15  1053.26  1019.96  1055.38  1019.22  1057.6  1018.96  1059.83  1019.22  " style="fill: none; stroke: purple; stroke-width: 0.500000; fill-type: evenodd"  fill-opacity="1.000000" />
   <path d="M 1039.83  1019.22  1041.94  1019.96  1043.84  1021.15  1045.42  1022.73  1046.61  1024.63  1047.35  1026.74  1047.6  1028.96  1047.35  1031.19  1046.61  1033.3  1045.42  1035.2  1043.84  1036.78  1041.94  1037.97  1039.83  1038.71  1037.6  1038.96  1035.38  1038.71  1033.26  1037.97  1031.37  1036.78  1029.78  1035.2  1028.59  1033.3  1027.85  1031.19  1027.6  1028.96  1027.85  1026.74  1028.59  1024.63  1029.78  1022.73  1031.37  1021.15  1033.26  1019.96  1035.38  1019.22  1037.6  1018.96  1039.83  1019.22  " style="fill: none; stroke: purple; stroke-width: 0.500000; fill-type: evenodd"  fill-opacity="1.000000" />
   <path d="M 899.328  1019.17  901.54  1019.83  903.54  1020.99  905.22  1022.57  906.489  1024.5  907.278  1026.67  907.546  1028.96  907.278  1031.26  906.489  1033.43  905.22  1035.36  903.54  1036.94  901.54  1038.1  899.328  1038.76  897.023  1038.89  894.748  1038.49  892.628  1037.58  890.776  1036.2  889.291  1034.43  888.255  1032.37  887.723  1030.12  887.723  1027.81  888.255  1025.56  889.291  1023.5  890.776  1021.73  892.628  1020.35  894.748  1019.44  897.023  1019.04  899.328  1019.17  " style="fill: none; stroke: purple; stroke-width: 0.500000; fill-type: evenodd"  fill-opacity="1.000000" />
   <path d="M 979.308  1019.28  981.494  1019.94  983.471  1021.08  985.131  1022.65  986.385  1024.55  987.166  1026.7  987.431  1028.96  987.166  1031.23  986.385  1033.38  985.131  1035.28  983.471  1036.85  981.494  1037.99  979.308  1038.65  977.029  1038.78  974.782  1038.38  972.686  1037.48  970.855  1036.11  969.388  1034.37  968.364  1032.33  967.838  1030.11  967.838  1027.82  968.364  1025.6  969.388  1023.56  970.855  1021.81  972.686  1020.45  974.782  1019.55  977.029  1019.15  979.308  1019.28  " style="fill: none; stroke: purple; stroke-width: 0.500000; fill-type: evenodd"  fill-opacity="1.000000" />
   <path d="M 959.274  1019.47  961.418  1020.12  963.355  1021.24  964.983  1022.77  966.212  1024.64  966.977  1026.74  967.237  1028.96  966.977  1031.19  966.212  1033.29  964.983  1035.16  963.355  1036.69  961.418  1037.81  959.274  1038.45  957.041  1038.58  954.837  1038.2  952.783  1037.31  950.988  1035.97  949.55  1034.26  948.546  1032.26  948.03  1030.08  948.03  1027.85  948.546  1025.67  949.55  1023.67  950.988  1021.96  952.783  1020.62  954.837  1019.73  957.041  1019.34  959.274  1019.47  " style="fill: none; stroke: purple; stroke-width: 0.500000; fill-type: evenodd"  fill-opacity="1.000000" />
   <path d="M 919.274  1019.47  921.418  1020.12  923.355  1021.24  924.983  1022.77  926.212  1024.64  926.977  1026.74  927.237  1028.96  926.977  1031.19  926.212  1033.29  924.983  1035.16  923.355  1036.69  921.418  1037.81  919.274  1038.45  917.041  1038.58  914.837  1038.2  912.783  1037.31  910.988  1035.97  909.55  1034.26  908.546  1032.26  908.03  1030.08  908.03  1027.85  908.546  1025.67  909.55  1023.67  910.988  1021.96  912.783  1020.62  914.837  1019.73  917.041  1019.34  919.274  1019.47  " style="fill: none; stroke: purple; stroke-width: 0.500000; fill-type: evenodd"  fill-opacity="1.000000" />
   <path d="M 940.967  1020.09  942.993  1021.15  944.706  1022.67  946.006  1024.55  946.817  1026.69  947.093  1028.96  946.817  1031.24  946.006  1033.38  944.706  1035.26  942.993  1036.78  940.967  1037.84  938.745  1038.39  936.457  1038.39  934.235  1037.84  932.209  1036.78  930.496  1035.26  929.196  1033.38  928.385  1031.24  928.109  1028.96  928.385  1026.69  929.196  1024.55  930.496  1022.67  932.209  1021.15  934.235  1020.09  936.457  1019.54  938.745  1019.54  940.967  1020.09  " style="fill: none; stroke: purple; stroke-width: 0.500000; fill-type: evenodd"  fill-opacity="1.000000" />
   <path d="M 899.826  999.216  901.94  999.955  903.836  1001.15  905.419  1002.73  906.611  1004.63  907.35  1006.74  907.601  1008.96  907.35  1011.19  906.611  1013.3  905.419  1015.2  903.836  1016.78  901.94  1017.97  899.826  1018.71  897.601  1018.96  895.376  1018.71  893.262  1017.97  891.366  1016.78  889.783  1015.2  888.591  1013.3  887.852  1011.19  887.601  1008.96  887.852  1006.74  888.591  1004.63  889.783  1002.73  891.366  1001.15  893.262  999.955  895.376  999.216  897.601  998.965  899.826  999.216  " style="fill: none; stroke: purple; stroke-width: 0.500000; fill-type: evenodd"  fill-opacity="1.000000" />
   <path d="M 959.826  999.216  961.94  999.955  963.836  1001.15  965.419  1002.73  966.611  1004.63  967.35  1006.74  967.601  1008.96  967.35  1011.19  966.611  1013.3  965.419  1015.2  963.836  1016.78  961.94  1017.97  959.826  1018.71  957.601  1018.96  955.376  1018.71  953.262  1017.97  951.366  1016.78  949.783  1015.2  948.591  1013.3  947.852  1011.19  947.601  1008.96  947.852  1006.74  948.591  1004.63  949.783  1002.73  951.366  1001.15  953.262  999.955  955.376  999.216  957.601  998.965  959.826  999.216  " style="fill: none; stroke: purple; stroke-width: 0.500000; fill-type: evenodd"  fill-opacity="1.000000" />
   <path d="M 1099.83  999.216  1101.94  999.955  1103.84  1001.15  1105.42  1002.73  1106.61  1004.63  1107.35  1006.74  1107.6  1008.96  1107.35  1011.19  1106.61  1013.3  1105.42  1015.2  1103.84  1016.78  1101.94  1017.97  1099.83  1018.71  1097.6  1018.96  1095.38  1018.71  1093.26  1017.97  1091.37  1016.78  1089.78  1015.2  1088.59  1013.3  1087.85  1011.19  1087.6  1008.96  1087.85  1006.74  1088.59  1004.63  1089.78  1002.73  1091.37  1001.15  1093.26  999.955  1095.38  999.216  1097.6  998.965  1099.83  999.216  " style="fill: none; stroke: purple; stroke-width: 0.500000; fill-type: evenodd"  fill-opacity="1.000000" />
   <path d="M 939.318  999.226  941.518  999.885  943.506  1001.03  945.176  1002.61  946.438  1004.53  947.223  1006.68  947.49  1008.96  947.223  1011.25  946.438  1013.4  945.176  1015.32  943.506  1016.9  941.518  1018.04  939.318  1018.7  937.026  1018.84  934.765  1018.44  932.656  1017.53  930.815  1016.16  929.339  1014.4  928.308  1012.35  927.779  1010.11  927.779  1007.82  928.308  1005.58  929.339  1003.53  930.815  1001.77  932.656  1000.4  934.765  999.491  937.026  999.093  939.318  999.226  " style="fill: none; stroke: purple; stroke-width: 0.500000; fill-type: evenodd"  fill-opacity="1.000000" />
   <path d="M 919.318  999.226  921.518  999.885  923.506  1001.03  925.176  1002.61  926.438  1004.53  927.223  1006.68  927.49  1008.96  927.223  1011.25  926.438  1013.4  925.176  1015.32  923.506  1016.9  921.518  1018.04  919.318  1018.7  917.026  1018.84  914.765  1018.44  912.656  1017.53  910.815  1016.16  909.339  1014.4  908.308  1012.35  907.779  1010.11  907.779  1007.82  908.308  1005.58  909.339  1003.53  910.815  1001.77  912.656  1000.4  914.765  999.491  917.026  999.093  919.318  999.226  " style="fill: none; stroke: purple; stroke-width: 0.500000; fill-type: evenodd"  fill-opacity="1.000000" />
   <path d="M 1039.31  999.284  1041.49  999.939  1043.47  1001.08  1045.13  1002.65  1046.39  1004.55  1047.17  1006.7  1047.43  1008.96  1047.17  1011.23  1046.39  1013.38  1045.13  1015.28  1043.47  1016.85  1041.49  1017.99  1039.31  1018.65  1037.03  1018.78  1034.78  1018.38  1032.69  1017.48  1030.86  1016.11  1029.39  1014.37  1028.36  1012.33  1027.84  1010.11  1027.84  1007.82  1028.36  1005.6  1029.39  1003.56  1030.86  1001.81  1032.69  1000.45  1034.78  999.548  1037.03  999.152  1039.31  999.284  " style="fill: none; stroke: purple; stroke-width: 0.500000; fill-type: evenodd"  fill-opacity="1.000000" />
   <path d="M 1079.3  999.345  1081.47  999.996  1083.43  1001.13  1085.08  1002.69  1086.33  1004.58  1087.11  1006.71  1087.37  1008.96  1087.11  1011.22  1086.33  1013.35  1085.08  1015.24  1083.43  1016.8  1081.47  1017.93  1079.3  1018.58  1077.03  1018.72  1074.8  1018.32  1072.72  1017.42  1070.9  1016.07  1069.44  1014.33  1068.42  1012.31  1067.9  1010.1  1067.9  1007.83  1068.42  1005.62  1069.44  1003.6  1070.9  1001.86  1072.72  1000.51  1074.8  999.607  1077.03  999.213  1079.3  999.345  " style="fill: none; stroke: purple; stroke-width: 0.500000; fill-type: evenodd"  fill-opacity="1.000000" />
   <path d="M 1059.29  999.409  1061.44  1000.05  1063.4  1001.18  1065.03  1002.73  1066.27  1004.61  1067.04  1006.73  1067.3  1008.96  1067.04  1011.2  1066.27  1013.32  1065.03  1015.2  1063.4  1016.75  1061.44  1017.87  1059.29  1018.52  1057.04  1018.65  1054.82  1018.26  1052.75  1017.37  1050.94  1016.02  1049.49  1014.3  1048.48  1012.28  1047.96  1010.09  1047.96  1007.84  1048.48  1005.65  1049.49  1003.63  1050.94  1001.91  1052.75  1000.56  1054.82  999.669  1057.04  999.277  1059.29  999.409  " style="fill: none; stroke: purple; stroke-width: 0.500000; fill-type: evenodd"  fill-opacity="1.000000" />
   <path d="M 939.826  979.216  941.94  979.955  943.836  981.146  945.419  982.73  946.611  984.626  947.35  986.74  947.601  988.965  947.35  991.19  946.611  993.304  945.419  995.2  943.836  996.783  941.94  997.974  939.826  998.714  937.601  998.965  935.376  998.714  933.262  997.974  931.366  996.783  929.783  995.2  928.591  993.304  927.852  991.19  927.601  988.965  927.852  986.74  928.591  984.626  929.783  982.73  931.366  981.146  933.262  979.955  935.376  979.216  937.601  978.965  939.826  979.216  " style="fill: none; stroke: purple; stroke-width: 0.500000; fill-type: evenodd"  fill-opacity="1.000000" />
   <path d="M 1099.31  979.284  1101.49  979.939  1103.47  981.08  1105.13  982.646  1106.39  984.553  1107.17  986.698  1107.43  988.965  1107.17  991.232  1106.39  993.376  1105.13  995.283  1103.47  996.849  1101.49  997.991  1099.31  998.645  1097.03  998.778  1094.78  998.382  1092.69  997.478  1090.86  996.115  1089.39  994.366  1088.36  992.327  1087.84  990.106  1087.84  987.824  1088.36  985.603  1089.39  983.563  1090.86  981.815  1092.69  980.452  1094.78  979.548  1097.03  979.152  1099.31  979.284  " style="fill: none; stroke: purple; stroke-width: 0.500000; fill-type: evenodd"  fill-opacity="1.000000" />
   <path d="M 1019.31  979.284  1021.49  979.939  1023.47  981.08  1025.13  982.646  1026.39  984.553  1027.17  986.698  1027.43  988.965  1027.17  991.232  1026.39  993.376  1025.13  995.283  1023.47  996.849  1021.49  997.991  1019.31  998.645  1017.03  998.778  1014.78  998.382  1012.69  997.478  1010.86  996.115  1009.39  994.366  1008.36  992.327  1007.84  990.106  1007.84  987.824  1008.36  985.603  1009.39  983.563  1010.86  981.815  1012.69  980.452  1014.78  979.548  1017.03  979.152  1019.31  979.284  " style="fill: none; stroke: purple; stroke-width: 0.500000; fill-type: evenodd"  fill-opacity="1.000000" />
   <path d="M 1079.26  979.544  1081.39  980.181  1083.31  981.292  1084.93  982.816  1086.15  984.672  1086.91  986.759  1087.17  988.965  1086.91  991.171  1086.15  993.258  1084.93  995.114  1083.31  996.638  1081.39  997.748  1079.26  998.385  1077.04  998.514  1074.86  998.129  1072.82  997.249  1071.04  995.923  1069.61  994.221  1068.61  992.237  1068.1  990.075  1068.1  987.854  1068.61  985.693  1069.61  983.708  1071.04  982.007  1072.82  980.68  1074.86  979.801  1077.04  979.415  1079.26  979.544  " style="fill: none; stroke: purple; stroke-width: 0.500000; fill-type: evenodd"  fill-opacity="1.000000" />
   <path d="M 1040.97  980.09  1042.99  981.153  1044.71  982.67  1046.01  984.554  1046.82  986.693  1047.09  988.965  1046.82  991.236  1046.01  993.376  1044.71  995.259  1042.99  996.777  1040.97  997.84  1038.74  998.388  1036.46  998.388  1034.23  997.84  1032.21  996.777  1030.5  995.259  1029.2  993.376  1028.38  991.236  1028.11  988.965  1028.38  986.693  1029.2  984.554  1030.5  982.67  1032.21  981.153  1034.23  980.09  1036.46  979.542  1038.74  979.542  1040.97  980.09  " style="fill: none; stroke: purple; stroke-width: 0.500000; fill-type: evenodd"  fill-opacity="1.000000" />
   <path d="M 1060.94  980.162  1062.95  981.217  1064.65  982.722  1065.94  984.59  1066.74  986.712  1067.02  988.965  1066.74  991.218  1065.94  993.34  1064.65  995.208  1062.95  996.713  1060.94  997.768  1058.74  998.311  1056.47  998.311  1054.26  997.768  1052.25  996.713  1050.55  995.208  1049.26  993.34  1048.46  991.218  1048.19  988.965  1048.46  986.712  1049.26  984.59  1050.55  982.722  1052.25  981.217  1054.26  980.162  1056.47  979.619  1058.74  979.619  1060.94  980.162  " style="fill: none; stroke: purple; stroke-width: 0.500000; fill-type: evenodd"  fill-opacity="1.000000" />
   <path d="M 959.826  959.216  961.94  959.955  963.836  961.146  965.419  962.73  966.611  964.626  967.35  966.74  967.601  968.965  967.35  971.19  966.611  973.304  965.419  975.2  963.836  976.783  961.94  977.974  959.826  978.714  957.601  978.965  955.376  978.714  953.262  977.974  951.366  976.783  949.783  975.2  948.591  973.304  947.852  971.19  947.601  968.965  947.852  966.74  948.591  964.626  949.783  962.73  951.366  961.146  953.262  959.955  955.376  959.216  957.601  958.965  959.826  959.216  " style="fill: none; stroke: purple; stroke-width: 0.500000; fill-type: evenodd"  fill-opacity="1.000000" />
   <path d="M 999.328  959.17  1001.54  959.833  1003.54  960.987  1005.22  962.572  1006.49  964.501  1007.28  966.671  1007.55  968.965  1007.28  971.258  1006.49  973.428  1005.22  975.358  1003.54  976.942  1001.54  978.097  999.328  978.759  997.023  978.893  994.748  978.492  992.628  977.578  990.776  976.199  989.291  974.43  988.255  972.366  987.723  970.119  987.723  967.81  988.255  965.563  989.291  963.5  990.776  961.731  992.628  960.352  994.748  959.437  997.023  959.036  999.328  959.17  " style="fill: none; stroke: purple; stroke-width: 0.500000; fill-type: evenodd"  fill-opacity="1.000000" />
   <path d="M 1019.26  959.544  1021.39  960.181  1023.31  961.292  1024.93  962.816  1026.15  964.672  1026.91  966.759  1027.17  968.965  1026.91  971.171  1026.15  973.258  1024.93  975.114  1023.31  976.638  1021.39  977.748  1019.26  978.385  1017.04  978.514  1014.86  978.129  1012.82  977.249  1011.04  975.923  1009.61  974.221  1008.61  972.237  1008.1  970.075  1008.1  967.854  1008.61  965.693  1009.61  963.708  1011.04  962.007  1012.82  960.68  1014.86  959.801  1017.04  959.415  1019.26  959.544  " style="fill: none; stroke: purple; stroke-width: 0.500000; fill-type: evenodd"  fill-opacity="1.000000" />
   <path d="M 1080.94  960.162  1082.95  961.217  1084.65  962.722  1085.94  964.59  1086.74  966.712  1087.02  968.965  1086.74  971.218  1085.94  973.34  1084.65  975.208  1082.95  976.713  1080.94  977.768  1078.74  978.311  1076.47  978.311  1074.26  977.768  1072.25  976.713  1070.55  975.208  1069.26  973.34  1068.46  971.218  1068.19  968.965  1068.46  966.712  1069.26  964.59  1070.55  962.722  1072.25  961.217  1074.26  960.162  1076.47  959.619  1078.74  959.619  1080.94  960.162  " style="fill: none; stroke: purple; stroke-width: 0.500000; fill-type: evenodd"  fill-opacity="1.000000" />
   <path d="M 1060.91  960.238  1062.9  961.284  1064.59  962.776  1065.87  964.627  1066.66  966.731  1066.93  968.965  1066.66  971.198  1065.87  973.302  1064.59  975.154  1062.9  976.646  1060.91  977.692  1058.73  978.23  1056.48  978.23  1054.29  977.692  1052.3  976.646  1050.61  975.154  1049.34  973.302  1048.54  971.198  1048.27  968.965  1048.54  966.731  1049.34  964.627  1050.61  962.776  1052.3  961.284  1054.29  960.238  1056.48  959.699  1058.73  959.699  1060.91  960.238  " style="fill: none; stroke: purple; stroke-width: 0.500000; fill-type: evenodd"  fill-opacity="1.000000" />
   <path d="M 1040.88  960.318  1042.85  961.354  1044.52  962.832  1045.79  964.667  1046.58  966.752  1046.85  968.965  1046.58  971.178  1045.79  973.262  1044.52  975.097  1042.85  976.576  1040.88  977.612  1038.72  978.145  1036.49  978.145  1034.32  977.612  1032.35  976.576  1030.68  975.097  1029.41  973.262  1028.62  971.178  1028.35  968.965  1028.62  966.752  1029.41  964.667  1030.68  962.832  1032.35  961.354  1034.32  960.318  1036.49  959.784  1038.72  959.784  1040.88  960.318  " style="fill: none; stroke: purple; stroke-width: 0.500000; fill-type: evenodd"  fill-opacity="1.000000" />
   <path d="M 979.826  939.216  981.94  939.955  983.836  941.146  985.419  942.73  986.611  944.626  987.35  946.74  987.601  948.965  987.35  951.19  986.611  953.304  985.419  955.2  983.836  956.783  981.94  957.974  979.826  958.714  977.601  958.965  975.376  958.714  973.262  957.974  971.366  956.783  969.783  955.2  968.591  953.304  967.852  951.19  967.601  948.965  967.852  946.74  968.591  944.626  969.783  942.73  971.366  941.146  973.262  939.955  975.376  939.216  977.601  938.965  979.826  939.216  " style="fill: none; stroke: purple; stroke-width: 0.500000; fill-type: evenodd"  fill-opacity="1.000000" />
   <path d="M 999.308  939.284  1001.49  939.939  1003.47  941.08  1005.13  942.646  1006.39  944.553  1007.17  946.698  1007.43  948.965  1007.17  951.232  1006.39  953.376  1005.13  955.283  1003.47  956.849  1001.49  957.991  999.308  958.645  997.029  958.778  994.782  958.382  992.686  957.478  990.855  956.115  989.388  954.366  988.364  952.327  987.838  950.106  987.838  947.824  988.364  945.603  989.388  943.563  990.855  941.815  992.686  940.452  994.782  939.548  997.029  939.152  999.308  939.284  " style="fill: none; stroke: purple; stroke-width: 0.500000; fill-type: evenodd"  fill-opacity="1.000000" />
   <path d="M 1079.27  939.475  1081.42  940.117  1083.36  941.235  1084.98  942.771  1086.21  944.64  1086.98  946.742  1087.24  948.965  1086.98  951.187  1086.21  953.29  1084.98  955.159  1083.36  956.694  1081.42  957.813  1079.27  958.455  1077.04  958.585  1074.84  958.196  1072.78  957.31  1070.99  955.974  1069.55  954.26  1068.55  952.261  1068.03  950.083  1068.03  947.846  1068.55  945.669  1069.55  943.669  1070.99  941.956  1072.78  940.619  1074.84  939.733  1077.04  939.345  1079.27  939.475  " style="fill: none; stroke: purple; stroke-width: 0.500000; fill-type: evenodd"  fill-opacity="1.000000" />
   <path d="M 1020.94  940.162  1022.95  941.217  1024.65  942.722  1025.94  944.59  1026.74  946.712  1027.02  948.965  1026.74  951.218  1025.94  953.34  1024.65  955.208  1022.95  956.713  1020.94  957.768  1018.74  958.311  1016.47  958.311  1014.26  957.768  1012.25  956.713  1010.55  955.208  1009.26  953.34  1008.46  951.218  1008.19  948.965  1008.46  946.712  1009.26  944.59  1010.55  942.722  1012.25  941.217  1014.26  940.162  1016.47  939.619  1018.74  939.619  1020.94  940.162  " style="fill: none; stroke: purple; stroke-width: 0.500000; fill-type: evenodd"  fill-opacity="1.000000" />
   <path d="M 1060.91  940.238  1062.9  941.284  1064.59  942.776  1065.87  944.627  1066.66  946.731  1066.93  948.965  1066.66  951.198  1065.87  953.302  1064.59  955.154  1062.9  956.646  1060.91  957.692  1058.73  958.23  1056.48  958.23  1054.29  957.692  1052.3  956.646  1050.61  955.154  1049.34  953.302  1048.54  951.198  1048.27  948.965  1048.54  946.731  1049.34  944.627  1050.61  942.776  1052.3  941.284  1054.29  940.238  1056.48  939.699  1058.73  939.699  1060.91  940.238  " style="fill: none; stroke: purple; stroke-width: 0.500000; fill-type: evenodd"  fill-opacity="1.000000" />
   <path d="M 1040.88  940.318  1042.85  941.354  1044.52  942.832  1045.79  944.667  1046.58  946.752  1046.85  948.965  1046.58  951.178  1045.79  953.262  1044.52  955.097  1042.85  956.576  1040.88  957.612  1038.72  958.145  1036.49  958.145  1034.32  957.612  1032.35  956.576  1030.68  955.097  1029.41  953.262  1028.62  951.178  1028.35  948.965  1028.62  946.752  1029.41  944.667  1030.68  942.832  1032.35  941.354  1034.32  940.318  1036.49  939.784  1038.72  939.784  1040.88  940.318  " style="fill: none; stroke: purple; stroke-width: 0.500000; fill-type: evenodd"  fill-opacity="1.000000" />
   <path d="M 999.318  919.226  1001.52  919.885  1003.51  921.033  1005.18  922.608  1006.44  924.527  1007.22  926.684  1007.49  928.965  1007.22  931.245  1006.44  933.403  1005.18  935.321  1003.51  936.897  1001.52  938.045  999.318  938.703  997.026  938.837  994.765  938.438  992.656  937.529  990.815  936.158  989.339  934.399  988.308  932.347  987.779  930.113  987.779  927.817  988.308  925.583  989.339  923.531  990.815  921.772  992.656  920.401  994.765  919.491  997.026  919.093  999.318  919.226  " style="fill: none; stroke: purple; stroke-width: 0.500000; fill-type: evenodd"  fill-opacity="1.000000" />
   <path d="M 1059.26  919.544  1061.39  920.181  1063.31  921.292  1064.93  922.816  1066.15  924.672  1066.91  926.759  1067.17  928.965  1066.91  931.171  1066.15  933.258  1064.93  935.114  1063.31  936.638  1061.39  937.748  1059.26  938.385  1057.04  938.514  1054.86  938.129  1052.82  937.249  1051.04  935.923  1049.61  934.221  1048.61  932.237  1048.1  930.075  1048.1  927.854  1048.61  925.693  1049.61  923.708  1051.04  922.007  1052.82  920.68  1054.86  919.801  1057.04  919.415  1059.26  919.544  " style="fill: none; stroke: purple; stroke-width: 0.500000; fill-type: evenodd"  fill-opacity="1.000000" />
   <path d="M 1019.26  919.544  1021.39  920.181  1023.31  921.292  1024.93  922.816  1026.15  924.672  1026.91  926.759  1027.17  928.965  1026.91  931.171  1026.15  933.258  1024.93  935.114  1023.31  936.638  1021.39  937.748  1019.26  938.385  1017.04  938.514  1014.86  938.129  1012.82  937.249  1011.04  935.923  1009.61  934.221  1008.61  932.237  1008.1  930.075  1008.1  927.854  1008.61  925.693  1009.61  923.708  1011.04  922.007  1012.82  920.68  1014.86  919.801  1017.04  919.415  1019.26  919.544  " style="fill: none; stroke: purple; stroke-width: 0.500000; fill-type: evenodd"  fill-opacity="1.000000" />
   <path d="M 1040.94  920.162  1042.95  921.217  1044.65  922.722  1045.94  924.59  1046.74  926.712  1047.02  928.965  1046.74  931.218  1045.94  933.34  1044.65  935.208  1042.95  936.713  1040.94  937.768  1038.74  938.311  1036.47  938.311  1034.26  937.768  1032.25  936.713  1030.55  935.208  1029.26  933.34  1028.46  931.218  1028.19  928.965  1028.46  926.712  1029.26  924.59  1030.55  922.722  1032.25  921.217  1034.26  920.162  1036.47  919.619  1038.74  919.619  1040.94  920.162  " style="fill: none; stroke: purple; stroke-width: 0.500000; fill-type: evenodd"  fill-opacity="1.000000" />
   <path d="M 999.826  899.216  1001.94  899.955  1003.84  901.146  1005.42  902.73  1006.61  904.626  1007.35  906.74  1007.6  908.965  1007.35  911.19  1006.61  913.304  1005.42  915.2  1003.84  916.783  1001.94  917.974  999.826  918.714  997.601  918.965  995.376  918.714  993.262  917.974  991.366  916.783  989.783  915.2  988.591  913.304  987.852  911.19  987.601  908.965  987.852  906.74  988.591  904.626  989.783  902.73  991.366  901.146  993.262  899.955  995.376  899.216  997.601  898.965  999.826  899.216  " style="fill: none; stroke: purple; stroke-width: 0.500000; fill-type: evenodd"  fill-opacity="1.000000" />
   <path d="M 1019.32  899.226  1021.52  899.885  1023.51  901.033  1025.18  902.608  1026.44  904.527  1027.22  906.684  1027.49  908.965  1027.22  911.245  1026.44  913.403  1025.18  915.321  1023.51  916.897  1021.52  918.045  1019.32  918.703  1017.03  918.837  1014.76  918.438  1012.66  917.529  1010.81  916.158  1009.34  914.399  1008.31  912.347  1007.78  910.113  1007.78  907.817  1008.31  905.583  1009.34  903.531  1010.81  901.772  1012.66  900.401  1014.76  899.491  1017.03  899.093  1019.32  899.226  " style="fill: none; stroke: purple; stroke-width: 0.500000; fill-type: evenodd"  fill-opacity="1.000000" />
   <path d="M 1039.3  899.345  1041.47  899.996  1043.43  901.13  1045.08  902.686  1046.33  904.581  1047.11  906.712  1047.37  908.965  1047.11  911.218  1046.33  913.349  1045.08  915.244  1043.43  916.8  1041.47  917.934  1039.3  918.585  1037.03  918.716  1034.8  918.323  1032.72  917.424  1030.9  916.07  1029.44  914.332  1028.42  912.306  1027.9  910.099  1027.9  907.831  1028.42  905.624  1029.44  903.597  1030.9  901.86  1032.72  900.505  1034.8  899.607  1037.03  899.213  1039.3  899.345  " style="fill: none; stroke: purple; stroke-width: 0.500000; fill-type: evenodd"  fill-opacity="1.000000" />
</svg>
