<?xml version="1.0" encoding="UTF-8" standalone="yes"?>
<!DOCTYPE svg PUBLIC "-//W3C//DTD SVG 1.0//EN" "http://www.w3.org/TR/2001/REC-SVG-20010904/DTD/svg10.dtd">
<svg height="2000" width="2000" xmlns="http://www.w3.org/2000/svg" xmlns:svg="http://www.w3.org/2000/svg" xmlns:xlink="http://www.w3.org/1999/xlink">
   <marker id="endArrow" markerHeight="8" markerUnits="strokeWidth" markerWidth="10" orient="auto" refX="1" refY="5" viewBox="0 0 1000 1000">
      <polyline fill="darkblue" points="0,0 10,5 0,10 1,5" />
   </marker>
   <circle cx="1000" cy="1000" r="1" style="stroke:black; fill: red" />
   <circle cx="1000" cy="1000" r="800" style="stroke:black; fill: none" />
   <line x1="758.081665" y1="1076.039551" x2="758.081665" y2="1076.092407" style="stroke: green; stroke-width: 0.200000"/>
   <line x1="759.081665" y1="1072.305908" x2="759.081665" y2="1076.092407" style="stroke: green; stroke-width: 0.200000"/>
   <line x1="760.081726" y1="1067.189819" x2="760.081726" y2="1076.092407" style="stroke: green; stroke-width: 0.200000"/>
   <line x1="761.081665" y1="1064.649536" x2="761.081665" y2="1076.092407" style="stroke: green; stroke-width: 0.200000"/>
   <line x1="762.081665" y1="1062.443604" x2="762.081665" y2="1076.092407" style="stroke: green; stroke-width: 0.200000"/>
   <line x1="763.081665" y1="1060.281006" x2="763.081665" y2="1076.092407" style="stroke: green; stroke-width: 0.200000"/>
   <line x1="764.081665" y1="1058.049683" x2="764.081665" y2="1076.092407" style="stroke: green; stroke-width: 0.200000"/>
   <line x1="765.081726" y1="1055.724487" x2="765.081726" y2="1076.092407" style="stroke: green; stroke-width: 0.200000"/>
   <line x1="766.081665" y1="1053.917358" x2="766.081665" y2="1076.092407" style="stroke: green; stroke-width: 0.200000"/>
   <line x1="767.081665" y1="1052.127563" x2="767.081665" y2="1076.092407" style="stroke: green; stroke-width: 0.200000"/>
   <line x1="768.081665" y1="1050.752319" x2="768.081665" y2="1076.092407" style="stroke: green; stroke-width: 0.200000"/>
   <line x1="769.081665" y1="1049.394409" x2="769.081665" y2="1076.092407" style="stroke: green; stroke-width: 0.200000"/>
   <line x1="770.081726" y1="1048.036377" x2="770.081726" y2="1076.092407" style="stroke: green; stroke-width: 0.200000"/>
   <line x1="771.081665" y1="1046.925049" x2="771.081665" y2="1076.092407" style="stroke: green; stroke-width: 0.200000"/>
   <line x1="772.081665" y1="1045.872681" x2="772.081665" y2="1076.092407" style="stroke: green; stroke-width: 0.200000"/>
   <line x1="773.081665" y1="1044.820312" x2="773.081665" y2="1076.092407" style="stroke: green; stroke-width: 0.200000"/>
   <line x1="774.081665" y1="1043.697998" x2="774.081665" y2="1076.092407" style="stroke: green; stroke-width: 0.200000"/>
   <line x1="775.081726" y1="1042.572266" x2="775.081726" y2="1076.092407" style="stroke: green; stroke-width: 0.200000"/>
   <line x1="776.081665" y1="1041.446777" x2="776.081665" y2="1076.092407" style="stroke: green; stroke-width: 0.200000"/>
   <line x1="777.081665" y1="1040.371338" x2="777.081665" y2="1076.092407" style="stroke: green; stroke-width: 0.200000"/>
   <line x1="778.081665" y1="1039.520020" x2="778.081665" y2="1076.092407" style="stroke: green; stroke-width: 0.200000"/>
   <line x1="779.081665" y1="1038.668457" x2="779.081665" y2="1076.092407" style="stroke: green; stroke-width: 0.200000"/>
   <line x1="780.081726" y1="1037.817139" x2="780.081726" y2="1076.092407" style="stroke: green; stroke-width: 0.200000"/>
   <line x1="781.081665" y1="1036.965576" x2="781.081665" y2="1076.092407" style="stroke: green; stroke-width: 0.200000"/>
   <line x1="782.081665" y1="1036.114258" x2="782.081665" y2="1076.092407" style="stroke: green; stroke-width: 0.200000"/>
   <line x1="783.081665" y1="1035.262695" x2="783.081665" y2="1076.092407" style="stroke: green; stroke-width: 0.200000"/>
   <line x1="784.081665" y1="1034.438721" x2="784.081665" y2="1076.092407" style="stroke: green; stroke-width: 0.200000"/>
   <line x1="785.081726" y1="1033.703857" x2="785.081726" y2="1076.092407" style="stroke: green; stroke-width: 0.200000"/>
   <line x1="786.081665" y1="1033.068481" x2="786.081665" y2="1076.092407" style="stroke: green; stroke-width: 0.200000"/>
   <line x1="787.081665" y1="1032.414307" x2="787.081665" y2="1076.092407" style="stroke: green; stroke-width: 0.200000"/>
   <line x1="788.081665" y1="1031.760132" x2="788.081665" y2="1076.092407" style="stroke: green; stroke-width: 0.200000"/>
   <line x1="789.081665" y1="1031.105835" x2="789.081665" y2="1076.092407" style="stroke: green; stroke-width: 0.200000"/>
   <line x1="790.081726" y1="1030.451782" x2="790.081726" y2="1076.092407" style="stroke: green; stroke-width: 0.200000"/>
   <line x1="791.081665" y1="1029.797485" x2="791.081665" y2="1076.092407" style="stroke: green; stroke-width: 0.200000"/>
   <line x1="792.081665" y1="1029.143311" x2="792.081665" y2="1076.092407" style="stroke: green; stroke-width: 0.200000"/>
   <line x1="793.081665" y1="1028.637939" x2="793.081665" y2="1076.092407" style="stroke: green; stroke-width: 0.200000"/>
   <line x1="794.081665" y1="1028.230713" x2="794.081665" y2="1076.092407" style="stroke: green; stroke-width: 0.200000"/>
   <line x1="795.081726" y1="1027.823608" x2="795.081726" y2="1076.092407" style="stroke: green; stroke-width: 0.200000"/>
   <line x1="796.081665" y1="1027.416504" x2="796.081665" y2="1076.092407" style="stroke: green; stroke-width: 0.200000"/>
   <line x1="797.081665" y1="1027.009277" x2="797.081665" y2="1076.092407" style="stroke: green; stroke-width: 0.200000"/>
   <line x1="798.081665" y1="1026.634644" x2="798.081665" y2="1076.092407" style="stroke: green; stroke-width: 0.200000"/>
   <line x1="799.081665" y1="1026.424927" x2="799.081665" y2="1076.092407" style="stroke: green; stroke-width: 0.200000"/>
   <line x1="800.081726" y1="1026.215332" x2="800.081726" y2="1076.092407" style="stroke: green; stroke-width: 0.200000"/>
   <line x1="801.081665" y1="1026.114990" x2="801.081665" y2="1076.092407" style="stroke: green; stroke-width: 0.200000"/>
   <line x1="802.081665" y1="1026.169678" x2="802.081665" y2="1076.092407" style="stroke: green; stroke-width: 0.200000"/>
   <line x1="803.081665" y1="1026.224243" x2="803.081665" y2="1076.092407" style="stroke: green; stroke-width: 0.200000"/>
   <line x1="804.081665" y1="1026.278809" x2="804.081665" y2="1076.092407" style="stroke: green; stroke-width: 0.200000"/>
   <line x1="805.081726" y1="1026.333496" x2="805.081726" y2="1076.092407" style="stroke: green; stroke-width: 0.200000"/>
   <line x1="806.081665" y1="1026.377930" x2="806.081665" y2="1076.092407" style="stroke: green; stroke-width: 0.200000"/>
   <line x1="807.081665" y1="1026.403931" x2="807.081665" y2="1076.092407" style="stroke: green; stroke-width: 0.200000"/>
   <line x1="808.081665" y1="1026.430054" x2="808.081665" y2="1076.092407" style="stroke: green; stroke-width: 0.200000"/>
   <line x1="809.081665" y1="1026.456177" x2="809.081665" y2="1076.092407" style="stroke: green; stroke-width: 0.200000"/>
   <line x1="810.081726" y1="1026.482178" x2="810.081726" y2="1076.092407" style="stroke: green; stroke-width: 0.200000"/>
   <line x1="811.081665" y1="1026.659058" x2="811.081665" y2="1076.092407" style="stroke: green; stroke-width: 0.200000"/>
   <line x1="812.081665" y1="1026.914795" x2="812.081665" y2="1076.092407" style="stroke: green; stroke-width: 0.200000"/>
   <line x1="813.081665" y1="1027.170532" x2="813.081665" y2="1076.092407" style="stroke: green; stroke-width: 0.200000"/>
   <line x1="814.081665" y1="1027.445190" x2="814.081665" y2="1076.092407" style="stroke: green; stroke-width: 0.200000"/>
   <line x1="815.081726" y1="1027.830444" x2="815.081726" y2="1076.092407" style="stroke: green; stroke-width: 0.200000"/>
   <line x1="816.081665" y1="1028.215576" x2="816.081665" y2="1076.092407" style="stroke: green; stroke-width: 0.200000"/>
   <line x1="817.081665" y1="1028.600830" x2="817.081665" y2="1076.092407" style="stroke: green; stroke-width: 0.200000"/>
   <line x1="818.081665" y1="1028.985962" x2="818.081665" y2="1076.092407" style="stroke: green; stroke-width: 0.200000"/>
   <line x1="819.081665" y1="1029.371216" x2="819.081665" y2="1076.092407" style="stroke: green; stroke-width: 0.200000"/>
   <line x1="820.081726" y1="1029.923096" x2="820.081726" y2="1076.092407" style="stroke: green; stroke-width: 0.200000"/>
   <line x1="821.081665" y1="1030.589355" x2="821.081665" y2="1076.092407" style="stroke: green; stroke-width: 0.200000"/>
   <line x1="822.081665" y1="1031.255615" x2="822.081665" y2="1076.092407" style="stroke: green; stroke-width: 0.200000"/>
   <line x1="823.081665" y1="1031.921875" x2="823.081665" y2="1076.092407" style="stroke: green; stroke-width: 0.200000"/>
   <line x1="824.081665" y1="1032.563354" x2="824.081665" y2="1076.092407" style="stroke: green; stroke-width: 0.200000"/>
   <line x1="825.081726" y1="1033.201294" x2="825.081726" y2="1076.092407" style="stroke: green; stroke-width: 0.200000"/>
   <line x1="826.081665" y1="1033.839233" x2="826.081665" y2="1076.092407" style="stroke: green; stroke-width: 0.200000"/>
   <line x1="827.081665" y1="1034.477051" x2="827.081665" y2="1076.092407" style="stroke: green; stroke-width: 0.200000"/>
   <line x1="828.081665" y1="1035.347168" x2="828.081665" y2="1076.092407" style="stroke: green; stroke-width: 0.200000"/>
   <line x1="829.081665" y1="1036.228760" x2="829.081665" y2="1076.092407" style="stroke: green; stroke-width: 0.200000"/>
   <line x1="830.081726" y1="1037.110352" x2="830.081726" y2="1076.092407" style="stroke: green; stroke-width: 0.200000"/>
   <line x1="831.081665" y1="1037.991821" x2="831.081665" y2="1076.092407" style="stroke: green; stroke-width: 0.200000"/>
   <line x1="832.081665" y1="1038.873535" x2="832.081665" y2="1076.092407" style="stroke: green; stroke-width: 0.200000"/>
   <line x1="833.081665" y1="1039.755127" x2="833.081665" y2="1076.092407" style="stroke: green; stroke-width: 0.200000"/>
   <line x1="834.081665" y1="1040.616455" x2="834.081665" y2="1076.092407" style="stroke: green; stroke-width: 0.200000"/>
   <line x1="835.081726" y1="1041.657959" x2="835.081726" y2="1076.092407" style="stroke: green; stroke-width: 0.200000"/>
   <line x1="836.081665" y1="1042.699463" x2="836.081665" y2="1076.092407" style="stroke: green; stroke-width: 0.200000"/>
   <line x1="837.081665" y1="1043.748047" x2="837.081665" y2="1076.092407" style="stroke: green; stroke-width: 0.200000"/>
   <line x1="838.081665" y1="1044.808838" x2="838.081665" y2="1076.092407" style="stroke: green; stroke-width: 0.200000"/>
   <line x1="839.081665" y1="1045.869629" x2="839.081665" y2="1076.092407" style="stroke: green; stroke-width: 0.200000"/>
   <line x1="840.081726" y1="1046.930420" x2="840.081726" y2="1076.092407" style="stroke: green; stroke-width: 0.200000"/>
   <line x1="841.081665" y1="1048.072998" x2="841.081665" y2="1076.092407" style="stroke: green; stroke-width: 0.200000"/>
   <line x1="842.081665" y1="1049.076416" x2="842.081665" y2="1076.092407" style="stroke: green; stroke-width: 0.200000"/>
   <line x1="843.081665" y1="1050.079102" x2="843.081665" y2="1076.092407" style="stroke: green; stroke-width: 0.200000"/>
   <line x1="844.081665" y1="1051.081665" x2="844.081665" y2="1076.092407" style="stroke: green; stroke-width: 0.200000"/>
   <line x1="845.081726" y1="1052.084229" x2="845.081726" y2="1076.092407" style="stroke: green; stroke-width: 0.200000"/>
   <line x1="846.081665" y1="1053.086914" x2="846.081665" y2="1076.092407" style="stroke: green; stroke-width: 0.200000"/>
   <line x1="847.081665" y1="1054.089478" x2="847.081665" y2="1076.092407" style="stroke: green; stroke-width: 0.200000"/>
   <line x1="848.081665" y1="1055.092041" x2="848.081665" y2="1076.092407" style="stroke: green; stroke-width: 0.200000"/>
   <line x1="849.081665" y1="1056.094727" x2="849.081665" y2="1076.092407" style="stroke: green; stroke-width: 0.200000"/>
   <line x1="850.081726" y1="1057.129395" x2="850.081726" y2="1076.092407" style="stroke: green; stroke-width: 0.200000"/>
   <line x1="851.081665" y1="1058.217407" x2="851.081665" y2="1076.092407" style="stroke: green; stroke-width: 0.200000"/>
   <line x1="853.081665" y1="1060.393311" x2="853.081665" y2="1076.092407" style="stroke: green; stroke-width: 0.200000"/>
   <line x1="854.081665" y1="1061.481323" x2="854.081665" y2="1076.092407" style="stroke: green; stroke-width: 0.200000"/>
   <line x1="855.081726" y1="1062.569336" x2="855.081726" y2="1076.092407" style="stroke: green; stroke-width: 0.200000"/>
   <line x1="856.081665" y1="1063.756226" x2="856.081665" y2="1076.092407" style="stroke: green; stroke-width: 0.200000"/>
   <line x1="857.081665" y1="1065.116211" x2="857.081665" y2="1076.092407" style="stroke: green; stroke-width: 0.200000"/>
   <line x1="858.081665" y1="1066.256226" x2="858.081665" y2="1076.092407" style="stroke: green; stroke-width: 0.200000"/>
   <line x1="859.081665" y1="1067.287109" x2="859.081665" y2="1076.092407" style="stroke: green; stroke-width: 0.200000"/>
   <line x1="860.081726" y1="1068.317871" x2="860.081726" y2="1076.092407" style="stroke: green; stroke-width: 0.200000"/>
   <line x1="861.081665" y1="1069.348755" x2="861.081665" y2="1076.092407" style="stroke: green; stroke-width: 0.200000"/>
   <line x1="862.081665" y1="1070.379639" x2="862.081665" y2="1076.092407" style="stroke: green; stroke-width: 0.200000"/>
   <line x1="863.081665" y1="1071.410522" x2="863.081665" y2="1076.092407" style="stroke: green; stroke-width: 0.200000"/>
   <line x1="864.081665" y1="1072.492798" x2="864.081665" y2="1076.092407" style="stroke: green; stroke-width: 0.200000"/>
   <line x1="865.081726" y1="1073.641602" x2="865.081726" y2="1076.092407" style="stroke: green; stroke-width: 0.200000"/>
   <line x1="866.081665" y1="1074.957520" x2="866.081665" y2="1076.092407" style="stroke: green; stroke-width: 0.200000"/>
   <line x1="755.081726" y1="1090.073730" x2="755.081726" y2="1126.192505" style="stroke: green; stroke-width: 0.200000"/>
   <line x1="756.081665" y1="1084.916504" x2="756.081665" y2="1126.192505" style="stroke: green; stroke-width: 0.200000"/>
   <line x1="757.081665" y1="1079.550781" x2="757.081665" y2="1126.192505" style="stroke: green; stroke-width: 0.200000"/>
   <line x1="758.081665" y1="1076.192505" x2="758.081665" y2="1126.192505" style="stroke: green; stroke-width: 0.200000"/>
   <line x1="759.081665" y1="1076.192505" x2="759.081665" y2="1126.192505" style="stroke: green; stroke-width: 0.200000"/>
   <line x1="760.081726" y1="1076.192505" x2="760.081726" y2="1126.192505" style="stroke: green; stroke-width: 0.200000"/>
   <line x1="761.081665" y1="1076.192505" x2="761.081665" y2="1126.192505" style="stroke: green; stroke-width: 0.200000"/>
   <line x1="762.081665" y1="1076.192505" x2="762.081665" y2="1126.192505" style="stroke: green; stroke-width: 0.200000"/>
   <line x1="763.081665" y1="1076.192505" x2="763.081665" y2="1126.192505" style="stroke: green; stroke-width: 0.200000"/>
   <line x1="764.081665" y1="1076.192505" x2="764.081665" y2="1126.192505" style="stroke: green; stroke-width: 0.200000"/>
   <line x1="765.081726" y1="1076.192505" x2="765.081726" y2="1126.192505" style="stroke: green; stroke-width: 0.200000"/>
   <line x1="766.081665" y1="1076.192505" x2="766.081665" y2="1126.192505" style="stroke: green; stroke-width: 0.200000"/>
   <line x1="767.081665" y1="1076.192505" x2="767.081665" y2="1126.192505" style="stroke: green; stroke-width: 0.200000"/>
   <line x1="768.081665" y1="1076.192505" x2="768.081665" y2="1126.192505" style="stroke: green; stroke-width: 0.200000"/>
   <line x1="769.081665" y1="1076.192505" x2="769.081665" y2="1126.192505" style="stroke: green; stroke-width: 0.200000"/>
   <line x1="770.081726" y1="1076.192505" x2="770.081726" y2="1126.192505" style="stroke: green; stroke-width: 0.200000"/>
   <line x1="771.081665" y1="1076.192505" x2="771.081665" y2="1126.192505" style="stroke: green; stroke-width: 0.200000"/>
   <line x1="772.081665" y1="1076.192505" x2="772.081665" y2="1126.192505" style="stroke: green; stroke-width: 0.200000"/>
   <line x1="773.081665" y1="1076.192505" x2="773.081665" y2="1126.192505" style="stroke: green; stroke-width: 0.200000"/>
   <line x1="774.081665" y1="1076.192505" x2="774.081665" y2="1126.192505" style="stroke: green; stroke-width: 0.200000"/>
   <line x1="775.081726" y1="1076.192505" x2="775.081726" y2="1126.192505" style="stroke: green; stroke-width: 0.200000"/>
   <line x1="776.081665" y1="1076.192505" x2="776.081665" y2="1126.192505" style="stroke: green; stroke-width: 0.200000"/>
   <line x1="777.081665" y1="1076.192505" x2="777.081665" y2="1126.192505" style="stroke: green; stroke-width: 0.200000"/>
   <line x1="778.081665" y1="1076.192505" x2="778.081665" y2="1126.192505" style="stroke: green; stroke-width: 0.200000"/>
   <line x1="779.081665" y1="1076.192505" x2="779.081665" y2="1126.192505" style="stroke: green; stroke-width: 0.200000"/>
   <line x1="780.081726" y1="1076.192505" x2="780.081726" y2="1126.192505" style="stroke: green; stroke-width: 0.200000"/>
   <line x1="781.081665" y1="1076.192505" x2="781.081665" y2="1126.192505" style="stroke: green; stroke-width: 0.200000"/>
   <line x1="782.081665" y1="1076.192505" x2="782.081665" y2="1126.192505" style="stroke: green; stroke-width: 0.200000"/>
   <line x1="783.081665" y1="1076.192505" x2="783.081665" y2="1126.192505" style="stroke: green; stroke-width: 0.200000"/>
   <line x1="784.081665" y1="1076.192505" x2="784.081665" y2="1126.192505" style="stroke: green; stroke-width: 0.200000"/>
   <line x1="785.081726" y1="1076.192505" x2="785.081726" y2="1126.192505" style="stroke: green; stroke-width: 0.200000"/>
   <line x1="786.081665" y1="1076.192505" x2="786.081665" y2="1126.192505" style="stroke: green; stroke-width: 0.200000"/>
   <line x1="787.081665" y1="1076.192505" x2="787.081665" y2="1126.192505" style="stroke: green; stroke-width: 0.200000"/>
   <line x1="788.081665" y1="1076.192505" x2="788.081665" y2="1126.192505" style="stroke: green; stroke-width: 0.200000"/>
   <line x1="789.081665" y1="1076.192505" x2="789.081665" y2="1126.192505" style="stroke: green; stroke-width: 0.200000"/>
   <line x1="790.081726" y1="1076.192505" x2="790.081726" y2="1126.192505" style="stroke: green; stroke-width: 0.200000"/>
   <line x1="791.081665" y1="1076.192505" x2="791.081665" y2="1126.192505" style="stroke: green; stroke-width: 0.200000"/>
   <line x1="792.081665" y1="1076.192505" x2="792.081665" y2="1126.192505" style="stroke: green; stroke-width: 0.200000"/>
   <line x1="793.081665" y1="1076.192505" x2="793.081665" y2="1126.192505" style="stroke: green; stroke-width: 0.200000"/>
   <line x1="794.081665" y1="1076.192505" x2="794.081665" y2="1126.192505" style="stroke: green; stroke-width: 0.200000"/>
   <line x1="795.081726" y1="1076.192505" x2="795.081726" y2="1126.192505" style="stroke: green; stroke-width: 0.200000"/>
   <line x1="796.081665" y1="1076.192505" x2="796.081665" y2="1126.192505" style="stroke: green; stroke-width: 0.200000"/>
   <line x1="797.081665" y1="1076.192505" x2="797.081665" y2="1126.192505" style="stroke: green; stroke-width: 0.200000"/>
   <line x1="798.081665" y1="1076.192505" x2="798.081665" y2="1126.192505" style="stroke: green; stroke-width: 0.200000"/>
   <line x1="799.081665" y1="1076.192505" x2="799.081665" y2="1126.192505" style="stroke: green; stroke-width: 0.200000"/>
   <line x1="800.081726" y1="1076.192505" x2="800.081726" y2="1126.192505" style="stroke: green; stroke-width: 0.200000"/>
   <line x1="801.081665" y1="1076.192505" x2="801.081665" y2="1126.192505" style="stroke: green; stroke-width: 0.200000"/>
   <line x1="754.081665" y1="1096.453369" x2="754.081665" y2="1125.529419" style="stroke: green; stroke-width: 0.200000"/>
   <line x1="753.081665" y1="1103.113770" x2="753.081665" y2="1123.231079" style="stroke: green; stroke-width: 0.200000"/>
   <line x1="752.081665" y1="1110.051147" x2="752.081665" y2="1120.895752" style="stroke: green; stroke-width: 0.200000"/>
   <line x1="802.081665" y1="1076.192505" x2="802.081665" y2="1126.192505" style="stroke: green; stroke-width: 0.200000"/>
   <line x1="803.081665" y1="1076.192505" x2="803.081665" y2="1126.192505" style="stroke: green; stroke-width: 0.200000"/>
   <line x1="804.081665" y1="1076.192505" x2="804.081665" y2="1126.192505" style="stroke: green; stroke-width: 0.200000"/>
   <line x1="805.081726" y1="1076.192505" x2="805.081726" y2="1126.192505" style="stroke: green; stroke-width: 0.200000"/>
   <line x1="806.081665" y1="1076.192505" x2="806.081665" y2="1126.192505" style="stroke: green; stroke-width: 0.200000"/>
   <line x1="807.081665" y1="1076.192505" x2="807.081665" y2="1126.192505" style="stroke: green; stroke-width: 0.200000"/>
   <line x1="808.081665" y1="1076.192505" x2="808.081665" y2="1126.192505" style="stroke: green; stroke-width: 0.200000"/>
   <line x1="809.081665" y1="1076.192505" x2="809.081665" y2="1126.192505" style="stroke: green; stroke-width: 0.200000"/>
   <line x1="810.081726" y1="1076.192505" x2="810.081726" y2="1126.192505" style="stroke: green; stroke-width: 0.200000"/>
   <line x1="811.081665" y1="1076.192505" x2="811.081665" y2="1126.192505" style="stroke: green; stroke-width: 0.200000"/>
   <line x1="812.081665" y1="1076.192505" x2="812.081665" y2="1126.192505" style="stroke: green; stroke-width: 0.200000"/>
   <line x1="813.081665" y1="1076.192505" x2="813.081665" y2="1126.192505" style="stroke: green; stroke-width: 0.200000"/>
   <line x1="814.081665" y1="1076.192505" x2="814.081665" y2="1126.192505" style="stroke: green; stroke-width: 0.200000"/>
   <line x1="815.081726" y1="1076.192505" x2="815.081726" y2="1126.192505" style="stroke: green; stroke-width: 0.200000"/>
   <line x1="816.081665" y1="1076.192505" x2="816.081665" y2="1126.192505" style="stroke: green; stroke-width: 0.200000"/>
   <line x1="817.081665" y1="1076.192505" x2="817.081665" y2="1126.192505" style="stroke: green; stroke-width: 0.200000"/>
   <line x1="818.081665" y1="1076.192505" x2="818.081665" y2="1126.192505" style="stroke: green; stroke-width: 0.200000"/>
   <line x1="819.081665" y1="1076.192505" x2="819.081665" y2="1126.192505" style="stroke: green; stroke-width: 0.200000"/>
   <line x1="820.081726" y1="1076.192505" x2="820.081726" y2="1126.192505" style="stroke: green; stroke-width: 0.200000"/>
   <line x1="821.081665" y1="1076.192505" x2="821.081665" y2="1126.192505" style="stroke: green; stroke-width: 0.200000"/>
   <line x1="822.081665" y1="1076.192505" x2="822.081665" y2="1126.192505" style="stroke: green; stroke-width: 0.200000"/>
   <line x1="823.081665" y1="1076.192505" x2="823.081665" y2="1126.192505" style="stroke: green; stroke-width: 0.200000"/>
   <line x1="824.081665" y1="1076.192505" x2="824.081665" y2="1126.192505" style="stroke: green; stroke-width: 0.200000"/>
   <line x1="825.081726" y1="1076.192505" x2="825.081726" y2="1126.192505" style="stroke: green; stroke-width: 0.200000"/>
   <line x1="826.081665" y1="1076.192505" x2="826.081665" y2="1126.192505" style="stroke: green; stroke-width: 0.200000"/>
   <line x1="827.081665" y1="1076.192505" x2="827.081665" y2="1126.192505" style="stroke: green; stroke-width: 0.200000"/>
   <line x1="828.081665" y1="1076.192505" x2="828.081665" y2="1126.192505" style="stroke: green; stroke-width: 0.200000"/>
   <line x1="829.081665" y1="1076.192505" x2="829.081665" y2="1126.192505" style="stroke: green; stroke-width: 0.200000"/>
   <line x1="830.081726" y1="1076.192505" x2="830.081726" y2="1126.192505" style="stroke: green; stroke-width: 0.200000"/>
   <line x1="831.081665" y1="1076.192505" x2="831.081665" y2="1126.192505" style="stroke: green; stroke-width: 0.200000"/>
   <line x1="832.081665" y1="1076.192505" x2="832.081665" y2="1126.192505" style="stroke: green; stroke-width: 0.200000"/>
   <line x1="833.081665" y1="1076.192505" x2="833.081665" y2="1126.192505" style="stroke: green; stroke-width: 0.200000"/>
   <line x1="834.081665" y1="1076.192505" x2="834.081665" y2="1126.192505" style="stroke: green; stroke-width: 0.200000"/>
   <line x1="835.081726" y1="1076.192505" x2="835.081726" y2="1126.192505" style="stroke: green; stroke-width: 0.200000"/>
   <line x1="836.081665" y1="1076.192505" x2="836.081665" y2="1126.192505" style="stroke: green; stroke-width: 0.200000"/>
   <line x1="837.081665" y1="1076.192505" x2="837.081665" y2="1126.192505" style="stroke: green; stroke-width: 0.200000"/>
   <line x1="838.081665" y1="1076.192505" x2="838.081665" y2="1126.192505" style="stroke: green; stroke-width: 0.200000"/>
   <line x1="839.081665" y1="1076.192505" x2="839.081665" y2="1126.192505" style="stroke: green; stroke-width: 0.200000"/>
   <line x1="840.081726" y1="1076.192505" x2="840.081726" y2="1126.192505" style="stroke: green; stroke-width: 0.200000"/>
   <line x1="841.081665" y1="1076.192505" x2="841.081665" y2="1126.192505" style="stroke: green; stroke-width: 0.200000"/>
   <line x1="842.081665" y1="1076.192505" x2="842.081665" y2="1126.192505" style="stroke: green; stroke-width: 0.200000"/>
   <line x1="843.081665" y1="1076.192505" x2="843.081665" y2="1126.192505" style="stroke: green; stroke-width: 0.200000"/>
   <line x1="844.081665" y1="1076.192505" x2="844.081665" y2="1126.192505" style="stroke: green; stroke-width: 0.200000"/>
   <line x1="845.081726" y1="1076.192505" x2="845.081726" y2="1126.192505" style="stroke: green; stroke-width: 0.200000"/>
   <line x1="846.081665" y1="1076.192505" x2="846.081665" y2="1126.192505" style="stroke: green; stroke-width: 0.200000"/>
   <line x1="847.081665" y1="1076.192505" x2="847.081665" y2="1126.192505" style="stroke: green; stroke-width: 0.200000"/>
   <line x1="848.081665" y1="1076.192505" x2="848.081665" y2="1126.192505" style="stroke: green; stroke-width: 0.200000"/>
   <line x1="849.081665" y1="1076.192505" x2="849.081665" y2="1126.192505" style="stroke: green; stroke-width: 0.200000"/>
   <line x1="850.081726" y1="1076.192505" x2="850.081726" y2="1126.192505" style="stroke: green; stroke-width: 0.200000"/>
   <line x1="851.081665" y1="1076.192505" x2="851.081665" y2="1126.192505" style="stroke: green; stroke-width: 0.200000"/>
   <line x1="853.081665" y1="1076.192505" x2="853.081665" y2="1126.192505" style="stroke: green; stroke-width: 0.200000"/>
   <line x1="854.081665" y1="1076.192505" x2="854.081665" y2="1126.192505" style="stroke: green; stroke-width: 0.200000"/>
   <line x1="855.081726" y1="1076.192505" x2="855.081726" y2="1126.192505" style="stroke: green; stroke-width: 0.200000"/>
   <line x1="856.081665" y1="1076.192505" x2="856.081665" y2="1126.192505" style="stroke: green; stroke-width: 0.200000"/>
   <line x1="857.081665" y1="1076.192505" x2="857.081665" y2="1126.192505" style="stroke: green; stroke-width: 0.200000"/>
   <line x1="858.081665" y1="1076.192505" x2="858.081665" y2="1126.192505" style="stroke: green; stroke-width: 0.200000"/>
   <line x1="859.081665" y1="1076.192505" x2="859.081665" y2="1126.192505" style="stroke: green; stroke-width: 0.200000"/>
   <line x1="860.081726" y1="1076.192505" x2="860.081726" y2="1126.192505" style="stroke: green; stroke-width: 0.200000"/>
   <line x1="861.081665" y1="1076.192505" x2="861.081665" y2="1126.192505" style="stroke: green; stroke-width: 0.200000"/>
   <line x1="862.081665" y1="1076.192505" x2="862.081665" y2="1126.192505" style="stroke: green; stroke-width: 0.200000"/>
   <line x1="863.081665" y1="1076.192505" x2="863.081665" y2="1126.192505" style="stroke: green; stroke-width: 0.200000"/>
   <line x1="864.081665" y1="1076.192505" x2="864.081665" y2="1126.192505" style="stroke: green; stroke-width: 0.200000"/>
   <line x1="865.081726" y1="1076.192505" x2="865.081726" y2="1126.192505" style="stroke: green; stroke-width: 0.200000"/>
   <line x1="866.081665" y1="1076.192505" x2="866.081665" y2="1126.192505" style="stroke: green; stroke-width: 0.200000"/>
   <line x1="867.081665" y1="1076.273315" x2="867.081665" y2="1126.192505" style="stroke: green; stroke-width: 0.200000"/>
   <line x1="868.081665" y1="1077.589233" x2="868.081665" y2="1126.192505" style="stroke: green; stroke-width: 0.200000"/>
   <line x1="869.081665" y1="1078.905151" x2="869.081665" y2="1126.192505" style="stroke: green; stroke-width: 0.200000"/>
   <line x1="870.081726" y1="1080.220947" x2="870.081726" y2="1126.192505" style="stroke: green; stroke-width: 0.200000"/>
   <line x1="871.081665" y1="1081.536743" x2="871.081665" y2="1126.192505" style="stroke: green; stroke-width: 0.200000"/>
   <line x1="872.081665" y1="1083.361328" x2="872.081665" y2="1126.192505" style="stroke: green; stroke-width: 0.200000"/>
   <line x1="873.081665" y1="1086.198853" x2="873.081665" y2="1126.192505" style="stroke: green; stroke-width: 0.200000"/>
   <line x1="874.081665" y1="1088.557373" x2="874.081665" y2="1126.192505" style="stroke: green; stroke-width: 0.200000"/>
   <line x1="875.081726" y1="1090.915771" x2="875.081726" y2="1126.192505" style="stroke: green; stroke-width: 0.200000"/>
   <line x1="876.081665" y1="1093.373901" x2="876.081665" y2="1126.192505" style="stroke: green; stroke-width: 0.200000"/>
   <line x1="877.081665" y1="1097.151367" x2="877.081665" y2="1126.192505" style="stroke: green; stroke-width: 0.200000"/>
   <line x1="878.081665" y1="1100.737061" x2="878.081665" y2="1126.192505" style="stroke: green; stroke-width: 0.200000"/>
   <line x1="879.081665" y1="1104.127686" x2="879.081665" y2="1126.192505" style="stroke: green; stroke-width: 0.200000"/>
   <line x1="880.081726" y1="1107.407715" x2="880.081726" y2="1126.192505" style="stroke: green; stroke-width: 0.200000"/>
   <line x1="881.081665" y1="1110.687500" x2="881.081665" y2="1126.192505" style="stroke: green; stroke-width: 0.200000"/>
   <line x1="882.081665" y1="1114.721680" x2="882.081665" y2="1126.192505" style="stroke: green; stroke-width: 0.200000"/>
   <line x1="883.081665" y1="1118.044189" x2="883.081665" y2="1126.192505" style="stroke: green; stroke-width: 0.200000"/>
   <line x1="884.081665" y1="1121.594849" x2="884.081665" y2="1126.192505" style="stroke: green; stroke-width: 0.200000"/>
   <line x1="885.081726" y1="1125.556763" x2="885.081726" y2="1126.192505" style="stroke: green; stroke-width: 0.200000"/>
   <line x1="783.081665" y1="1126.292480" x2="783.081665" y2="1176.292480" style="stroke: green; stroke-width: 0.200000"/>
   <line x1="784.081665" y1="1126.292480" x2="784.081665" y2="1176.292480" style="stroke: green; stroke-width: 0.200000"/>
   <line x1="785.081726" y1="1126.292480" x2="785.081726" y2="1176.292480" style="stroke: green; stroke-width: 0.200000"/>
   <line x1="786.081665" y1="1126.292480" x2="786.081665" y2="1176.292480" style="stroke: green; stroke-width: 0.200000"/>
   <line x1="787.081665" y1="1126.292480" x2="787.081665" y2="1176.292480" style="stroke: green; stroke-width: 0.200000"/>
   <line x1="788.081665" y1="1126.292480" x2="788.081665" y2="1176.292480" style="stroke: green; stroke-width: 0.200000"/>
   <line x1="789.081665" y1="1126.292480" x2="789.081665" y2="1176.292480" style="stroke: green; stroke-width: 0.200000"/>
   <line x1="790.081726" y1="1126.292480" x2="790.081726" y2="1176.292480" style="stroke: green; stroke-width: 0.200000"/>
   <line x1="791.081665" y1="1126.292480" x2="791.081665" y2="1176.292480" style="stroke: green; stroke-width: 0.200000"/>
   <line x1="792.081665" y1="1126.292480" x2="792.081665" y2="1176.292480" style="stroke: green; stroke-width: 0.200000"/>
   <line x1="793.081665" y1="1126.292480" x2="793.081665" y2="1176.292480" style="stroke: green; stroke-width: 0.200000"/>
   <line x1="794.081665" y1="1126.292480" x2="794.081665" y2="1176.292480" style="stroke: green; stroke-width: 0.200000"/>
   <line x1="795.081726" y1="1126.292480" x2="795.081726" y2="1176.292480" style="stroke: green; stroke-width: 0.200000"/>
   <line x1="796.081665" y1="1126.292480" x2="796.081665" y2="1176.292480" style="stroke: green; stroke-width: 0.200000"/>
   <line x1="797.081665" y1="1126.292480" x2="797.081665" y2="1176.292480" style="stroke: green; stroke-width: 0.200000"/>
   <line x1="798.081665" y1="1126.292480" x2="798.081665" y2="1176.292480" style="stroke: green; stroke-width: 0.200000"/>
   <line x1="799.081665" y1="1126.292480" x2="799.081665" y2="1176.292480" style="stroke: green; stroke-width: 0.200000"/>
   <line x1="800.081726" y1="1126.292480" x2="800.081726" y2="1176.292480" style="stroke: green; stroke-width: 0.200000"/>
   <line x1="801.081665" y1="1126.292480" x2="801.081665" y2="1176.292480" style="stroke: green; stroke-width: 0.200000"/>
   <line x1="782.081665" y1="1126.292480" x2="782.081665" y2="1175.594360" style="stroke: green; stroke-width: 0.200000"/>
   <line x1="781.081665" y1="1126.292480" x2="781.081665" y2="1174.053467" style="stroke: green; stroke-width: 0.200000"/>
   <line x1="780.081726" y1="1126.292480" x2="780.081726" y2="1172.512695" style="stroke: green; stroke-width: 0.200000"/>
   <line x1="779.081665" y1="1126.292480" x2="779.081665" y2="1170.925903" style="stroke: green; stroke-width: 0.200000"/>
   <line x1="778.081665" y1="1126.292480" x2="778.081665" y2="1169.269897" style="stroke: green; stroke-width: 0.200000"/>
   <line x1="777.081665" y1="1126.292480" x2="777.081665" y2="1167.733398" style="stroke: green; stroke-width: 0.200000"/>
   <line x1="776.081665" y1="1126.292480" x2="776.081665" y2="1166.403076" style="stroke: green; stroke-width: 0.200000"/>
   <line x1="775.081726" y1="1126.292480" x2="775.081726" y2="1165.072876" style="stroke: green; stroke-width: 0.200000"/>
   <line x1="774.081665" y1="1126.292480" x2="774.081665" y2="1163.742554" style="stroke: green; stroke-width: 0.200000"/>
   <line x1="773.081665" y1="1126.292480" x2="773.081665" y2="1161.687500" style="stroke: green; stroke-width: 0.200000"/>
   <line x1="772.081665" y1="1126.292480" x2="772.081665" y2="1159.564087" style="stroke: green; stroke-width: 0.200000"/>
   <line x1="771.081665" y1="1126.292480" x2="771.081665" y2="1157.440674" style="stroke: green; stroke-width: 0.200000"/>
   <line x1="770.081726" y1="1126.292480" x2="770.081726" y2="1155.662842" style="stroke: green; stroke-width: 0.200000"/>
   <line x1="769.081665" y1="1126.292480" x2="769.081665" y2="1153.977173" style="stroke: green; stroke-width: 0.200000"/>
   <line x1="768.081665" y1="1126.292480" x2="768.081665" y2="1152.075073" style="stroke: green; stroke-width: 0.200000"/>
   <line x1="767.081665" y1="1126.292480" x2="767.081665" y2="1150.116455" style="stroke: green; stroke-width: 0.200000"/>
   <line x1="766.081665" y1="1126.292480" x2="766.081665" y2="1148.157959" style="stroke: green; stroke-width: 0.200000"/>
   <line x1="765.081726" y1="1126.292480" x2="765.081726" y2="1146.199341" style="stroke: green; stroke-width: 0.200000"/>
   <line x1="764.081665" y1="1126.292480" x2="764.081665" y2="1144.187500" style="stroke: green; stroke-width: 0.200000"/>
   <line x1="763.081665" y1="1126.292480" x2="763.081665" y2="1142.169922" style="stroke: green; stroke-width: 0.200000"/>
   <line x1="762.081665" y1="1126.292480" x2="762.081665" y2="1140.257812" style="stroke: green; stroke-width: 0.200000"/>
   <line x1="761.081665" y1="1126.292480" x2="761.081665" y2="1138.707886" style="stroke: green; stroke-width: 0.200000"/>
   <line x1="760.081726" y1="1126.292480" x2="760.081726" y2="1137.004272" style="stroke: green; stroke-width: 0.200000"/>
   <line x1="759.081665" y1="1126.292480" x2="759.081665" y2="1135.159790" style="stroke: green; stroke-width: 0.200000"/>
   <line x1="758.081665" y1="1126.292480" x2="758.081665" y2="1133.452637" style="stroke: green; stroke-width: 0.200000"/>
   <line x1="757.081665" y1="1126.292480" x2="757.081665" y2="1131.750610" style="stroke: green; stroke-width: 0.200000"/>
   <line x1="756.081665" y1="1126.292480" x2="756.081665" y2="1130.048706" style="stroke: green; stroke-width: 0.200000"/>
   <line x1="755.081726" y1="1126.292480" x2="755.081726" y2="1127.820923" style="stroke: green; stroke-width: 0.200000"/>
   <line x1="802.081665" y1="1126.292480" x2="802.081665" y2="1176.292480" style="stroke: green; stroke-width: 0.200000"/>
   <line x1="803.081665" y1="1126.292480" x2="803.081665" y2="1176.292480" style="stroke: green; stroke-width: 0.200000"/>
   <line x1="804.081665" y1="1126.292480" x2="804.081665" y2="1176.292480" style="stroke: green; stroke-width: 0.200000"/>
   <line x1="805.081726" y1="1126.292480" x2="805.081726" y2="1176.292480" style="stroke: green; stroke-width: 0.200000"/>
   <line x1="806.081665" y1="1126.292480" x2="806.081665" y2="1176.292480" style="stroke: green; stroke-width: 0.200000"/>
   <line x1="807.081665" y1="1126.292480" x2="807.081665" y2="1176.292480" style="stroke: green; stroke-width: 0.200000"/>
   <line x1="808.081665" y1="1126.292480" x2="808.081665" y2="1176.292480" style="stroke: green; stroke-width: 0.200000"/>
   <line x1="809.081665" y1="1126.292480" x2="809.081665" y2="1176.292480" style="stroke: green; stroke-width: 0.200000"/>
   <line x1="810.081726" y1="1126.292480" x2="810.081726" y2="1176.292480" style="stroke: green; stroke-width: 0.200000"/>
   <line x1="811.081665" y1="1126.292480" x2="811.081665" y2="1176.292480" style="stroke: green; stroke-width: 0.200000"/>
   <line x1="812.081665" y1="1126.292480" x2="812.081665" y2="1176.292480" style="stroke: green; stroke-width: 0.200000"/>
   <line x1="813.081665" y1="1126.292480" x2="813.081665" y2="1176.292480" style="stroke: green; stroke-width: 0.200000"/>
   <line x1="814.081665" y1="1126.292480" x2="814.081665" y2="1176.292480" style="stroke: green; stroke-width: 0.200000"/>
   <line x1="815.081726" y1="1126.292480" x2="815.081726" y2="1176.292480" style="stroke: green; stroke-width: 0.200000"/>
   <line x1="816.081665" y1="1126.292480" x2="816.081665" y2="1176.292480" style="stroke: green; stroke-width: 0.200000"/>
   <line x1="817.081665" y1="1126.292480" x2="817.081665" y2="1176.292480" style="stroke: green; stroke-width: 0.200000"/>
   <line x1="818.081665" y1="1126.292480" x2="818.081665" y2="1176.292480" style="stroke: green; stroke-width: 0.200000"/>
   <line x1="819.081665" y1="1126.292480" x2="819.081665" y2="1176.292480" style="stroke: green; stroke-width: 0.200000"/>
   <line x1="820.081726" y1="1126.292480" x2="820.081726" y2="1176.292480" style="stroke: green; stroke-width: 0.200000"/>
   <line x1="821.081665" y1="1126.292480" x2="821.081665" y2="1176.292480" style="stroke: green; stroke-width: 0.200000"/>
   <line x1="822.081665" y1="1126.292480" x2="822.081665" y2="1176.292480" style="stroke: green; stroke-width: 0.200000"/>
   <line x1="823.081665" y1="1126.292480" x2="823.081665" y2="1176.292480" style="stroke: green; stroke-width: 0.200000"/>
   <line x1="824.081665" y1="1126.292480" x2="824.081665" y2="1176.292480" style="stroke: green; stroke-width: 0.200000"/>
   <line x1="825.081726" y1="1126.292480" x2="825.081726" y2="1176.292480" style="stroke: green; stroke-width: 0.200000"/>
   <line x1="826.081665" y1="1126.292480" x2="826.081665" y2="1176.292480" style="stroke: green; stroke-width: 0.200000"/>
   <line x1="827.081665" y1="1126.292480" x2="827.081665" y2="1176.292480" style="stroke: green; stroke-width: 0.200000"/>
   <line x1="828.081665" y1="1126.292480" x2="828.081665" y2="1176.292480" style="stroke: green; stroke-width: 0.200000"/>
   <line x1="829.081665" y1="1126.292480" x2="829.081665" y2="1176.292480" style="stroke: green; stroke-width: 0.200000"/>
   <line x1="830.081726" y1="1126.292480" x2="830.081726" y2="1176.292480" style="stroke: green; stroke-width: 0.200000"/>
   <line x1="831.081665" y1="1126.292480" x2="831.081665" y2="1176.292480" style="stroke: green; stroke-width: 0.200000"/>
   <line x1="832.081665" y1="1126.292480" x2="832.081665" y2="1176.292480" style="stroke: green; stroke-width: 0.200000"/>
   <line x1="833.081665" y1="1126.292480" x2="833.081665" y2="1176.292480" style="stroke: green; stroke-width: 0.200000"/>
   <line x1="834.081665" y1="1126.292480" x2="834.081665" y2="1176.292480" style="stroke: green; stroke-width: 0.200000"/>
   <line x1="835.081726" y1="1126.292480" x2="835.081726" y2="1176.292480" style="stroke: green; stroke-width: 0.200000"/>
   <line x1="836.081665" y1="1126.292480" x2="836.081665" y2="1176.292480" style="stroke: green; stroke-width: 0.200000"/>
   <line x1="837.081665" y1="1126.292480" x2="837.081665" y2="1176.292480" style="stroke: green; stroke-width: 0.200000"/>
   <line x1="838.081665" y1="1126.292480" x2="838.081665" y2="1176.292480" style="stroke: green; stroke-width: 0.200000"/>
   <line x1="839.081665" y1="1126.292480" x2="839.081665" y2="1176.292480" style="stroke: green; stroke-width: 0.200000"/>
   <line x1="840.081726" y1="1126.292480" x2="840.081726" y2="1176.292480" style="stroke: green; stroke-width: 0.200000"/>
   <line x1="841.081665" y1="1126.292480" x2="841.081665" y2="1176.292480" style="stroke: green; stroke-width: 0.200000"/>
   <line x1="842.081665" y1="1126.292480" x2="842.081665" y2="1176.292480" style="stroke: green; stroke-width: 0.200000"/>
   <line x1="843.081665" y1="1126.292480" x2="843.081665" y2="1176.292480" style="stroke: green; stroke-width: 0.200000"/>
   <line x1="844.081665" y1="1126.292480" x2="844.081665" y2="1176.292480" style="stroke: green; stroke-width: 0.200000"/>
   <line x1="845.081726" y1="1126.292480" x2="845.081726" y2="1176.292480" style="stroke: green; stroke-width: 0.200000"/>
   <line x1="846.081665" y1="1126.292480" x2="846.081665" y2="1176.292480" style="stroke: green; stroke-width: 0.200000"/>
   <line x1="847.081665" y1="1126.292480" x2="847.081665" y2="1176.292480" style="stroke: green; stroke-width: 0.200000"/>
   <line x1="848.081665" y1="1126.292480" x2="848.081665" y2="1176.292480" style="stroke: green; stroke-width: 0.200000"/>
   <line x1="849.081665" y1="1126.292480" x2="849.081665" y2="1176.292480" style="stroke: green; stroke-width: 0.200000"/>
   <line x1="850.081726" y1="1126.292480" x2="850.081726" y2="1176.292480" style="stroke: green; stroke-width: 0.200000"/>
   <line x1="851.081665" y1="1126.292480" x2="851.081665" y2="1176.292480" style="stroke: green; stroke-width: 0.200000"/>
   <line x1="853.081665" y1="1126.292480" x2="853.081665" y2="1176.292480" style="stroke: green; stroke-width: 0.200000"/>
   <line x1="854.081665" y1="1126.292480" x2="854.081665" y2="1176.292480" style="stroke: green; stroke-width: 0.200000"/>
   <line x1="855.081726" y1="1126.292480" x2="855.081726" y2="1176.292480" style="stroke: green; stroke-width: 0.200000"/>
   <line x1="856.081665" y1="1126.292480" x2="856.081665" y2="1176.292480" style="stroke: green; stroke-width: 0.200000"/>
   <line x1="857.081665" y1="1126.292480" x2="857.081665" y2="1176.292480" style="stroke: green; stroke-width: 0.200000"/>
   <line x1="858.081665" y1="1126.292480" x2="858.081665" y2="1176.292480" style="stroke: green; stroke-width: 0.200000"/>
   <line x1="859.081665" y1="1126.292480" x2="859.081665" y2="1176.292480" style="stroke: green; stroke-width: 0.200000"/>
   <line x1="860.081726" y1="1126.292480" x2="860.081726" y2="1176.292480" style="stroke: green; stroke-width: 0.200000"/>
   <line x1="861.081665" y1="1126.292480" x2="861.081665" y2="1176.292480" style="stroke: green; stroke-width: 0.200000"/>
   <line x1="862.081665" y1="1126.292480" x2="862.081665" y2="1176.292480" style="stroke: green; stroke-width: 0.200000"/>
   <line x1="863.081665" y1="1126.292480" x2="863.081665" y2="1176.292480" style="stroke: green; stroke-width: 0.200000"/>
   <line x1="864.081665" y1="1126.292480" x2="864.081665" y2="1176.292480" style="stroke: green; stroke-width: 0.200000"/>
   <line x1="865.081726" y1="1126.292480" x2="865.081726" y2="1176.292480" style="stroke: green; stroke-width: 0.200000"/>
   <line x1="866.081665" y1="1126.292480" x2="866.081665" y2="1176.292480" style="stroke: green; stroke-width: 0.200000"/>
   <line x1="867.081665" y1="1126.292480" x2="867.081665" y2="1176.292480" style="stroke: green; stroke-width: 0.200000"/>
   <line x1="868.081665" y1="1126.292480" x2="868.081665" y2="1176.292480" style="stroke: green; stroke-width: 0.200000"/>
   <line x1="869.081665" y1="1126.292480" x2="869.081665" y2="1176.292480" style="stroke: green; stroke-width: 0.200000"/>
   <line x1="870.081726" y1="1126.292480" x2="870.081726" y2="1176.292480" style="stroke: green; stroke-width: 0.200000"/>
   <line x1="871.081665" y1="1126.292480" x2="871.081665" y2="1176.292480" style="stroke: green; stroke-width: 0.200000"/>
   <line x1="872.081665" y1="1126.292480" x2="872.081665" y2="1176.292480" style="stroke: green; stroke-width: 0.200000"/>
   <line x1="873.081665" y1="1126.292480" x2="873.081665" y2="1176.292480" style="stroke: green; stroke-width: 0.200000"/>
   <line x1="874.081665" y1="1126.292480" x2="874.081665" y2="1176.292480" style="stroke: green; stroke-width: 0.200000"/>
   <line x1="875.081726" y1="1126.292480" x2="875.081726" y2="1176.292480" style="stroke: green; stroke-width: 0.200000"/>
   <line x1="876.081665" y1="1126.292480" x2="876.081665" y2="1176.292480" style="stroke: green; stroke-width: 0.200000"/>
   <line x1="877.081665" y1="1126.292480" x2="877.081665" y2="1176.292480" style="stroke: green; stroke-width: 0.200000"/>
   <line x1="878.081665" y1="1126.292480" x2="878.081665" y2="1176.292480" style="stroke: green; stroke-width: 0.200000"/>
   <line x1="879.081665" y1="1126.292480" x2="879.081665" y2="1176.292480" style="stroke: green; stroke-width: 0.200000"/>
   <line x1="880.081726" y1="1126.292480" x2="880.081726" y2="1176.292480" style="stroke: green; stroke-width: 0.200000"/>
   <line x1="881.081665" y1="1126.292480" x2="881.081665" y2="1176.292480" style="stroke: green; stroke-width: 0.200000"/>
   <line x1="882.081665" y1="1126.292480" x2="882.081665" y2="1175.556641" style="stroke: green; stroke-width: 0.200000"/>
   <line x1="883.081665" y1="1126.292480" x2="883.081665" y2="1174.782959" style="stroke: green; stroke-width: 0.200000"/>
   <line x1="884.081665" y1="1126.292480" x2="884.081665" y2="1174.009277" style="stroke: green; stroke-width: 0.200000"/>
   <line x1="885.081726" y1="1126.292480" x2="885.081726" y2="1172.268799" style="stroke: green; stroke-width: 0.200000"/>
   <line x1="886.081665" y1="1129.518799" x2="886.081665" y2="1170.375488" style="stroke: green; stroke-width: 0.200000"/>
   <line x1="887.081665" y1="1133.078857" x2="887.081665" y2="1168.572021" style="stroke: green; stroke-width: 0.200000"/>
   <line x1="888.081665" y1="1136.285522" x2="888.081665" y2="1166.815186" style="stroke: green; stroke-width: 0.200000"/>
   <line x1="889.081665" y1="1141.312012" x2="889.081665" y2="1160.333984" style="stroke: green; stroke-width: 0.200000"/>
   <line x1="890.081726" y1="1155.988281" x2="890.081726" y2="1156.103760" style="stroke: green; stroke-width: 0.200000"/>
   <line x1="890.081726" y1="1144.051270" x2="890.081726" y2="1152.768433" style="stroke: green; stroke-width: 0.200000"/>
   <line x1="891.081665" y1="1146.790649" x2="891.081665" y2="1147.769287" style="stroke: green; stroke-width: 0.200000"/>
   <line x1="801.081665" y1="1176.392456" x2="801.081665" y2="1194.638794" style="stroke: green; stroke-width: 0.200000"/>
   <line x1="800.081726" y1="1176.392456" x2="800.081726" y2="1194.098877" style="stroke: green; stroke-width: 0.200000"/>
   <line x1="799.081665" y1="1176.392456" x2="799.081665" y2="1193.559082" style="stroke: green; stroke-width: 0.200000"/>
   <line x1="798.081665" y1="1176.392456" x2="798.081665" y2="1192.881958" style="stroke: green; stroke-width: 0.200000"/>
   <line x1="797.081665" y1="1176.392456" x2="797.081665" y2="1192.115112" style="stroke: green; stroke-width: 0.200000"/>
   <line x1="796.081665" y1="1176.392456" x2="796.081665" y2="1191.348267" style="stroke: green; stroke-width: 0.200000"/>
   <line x1="795.081726" y1="1176.392456" x2="795.081726" y2="1190.581421" style="stroke: green; stroke-width: 0.200000"/>
   <line x1="794.081665" y1="1176.392456" x2="794.081665" y2="1189.814575" style="stroke: green; stroke-width: 0.200000"/>
   <line x1="793.081665" y1="1176.392456" x2="793.081665" y2="1189.047729" style="stroke: green; stroke-width: 0.200000"/>
   <line x1="792.081665" y1="1176.392456" x2="792.081665" y2="1188.264771" style="stroke: green; stroke-width: 0.200000"/>
   <line x1="791.081665" y1="1176.392456" x2="791.081665" y2="1187.451538" style="stroke: green; stroke-width: 0.200000"/>
   <line x1="790.081726" y1="1176.392456" x2="790.081726" y2="1186.255615" style="stroke: green; stroke-width: 0.200000"/>
   <line x1="789.081665" y1="1176.392456" x2="789.081665" y2="1185.059692" style="stroke: green; stroke-width: 0.200000"/>
   <line x1="788.081665" y1="1176.392456" x2="788.081665" y2="1183.863770" style="stroke: green; stroke-width: 0.200000"/>
   <line x1="787.081665" y1="1176.392456" x2="787.081665" y2="1182.667725" style="stroke: green; stroke-width: 0.200000"/>
   <line x1="786.081665" y1="1176.392456" x2="786.081665" y2="1181.471924" style="stroke: green; stroke-width: 0.200000"/>
   <line x1="785.081726" y1="1176.392456" x2="785.081726" y2="1180.217041" style="stroke: green; stroke-width: 0.200000"/>
   <line x1="784.081665" y1="1176.392456" x2="784.081665" y2="1178.676147" style="stroke: green; stroke-width: 0.200000"/>
   <line x1="783.081665" y1="1176.392456" x2="783.081665" y2="1177.135254" style="stroke: green; stroke-width: 0.200000"/>
   <line x1="829.081665" y1="1176.392456" x2="829.081665" y2="1202.413208" style="stroke: green; stroke-width: 0.200000"/>
   <line x1="830.081726" y1="1176.392456" x2="830.081726" y2="1201.638794" style="stroke: green; stroke-width: 0.200000"/>
   <line x1="828.081665" y1="1176.392456" x2="828.081665" y2="1201.469971" style="stroke: green; stroke-width: 0.200000"/>
   <line x1="827.081665" y1="1176.392456" x2="827.081665" y2="1200.965942" style="stroke: green; stroke-width: 0.200000"/>
   <line x1="831.081665" y1="1176.392456" x2="831.081665" y2="1200.864380" style="stroke: green; stroke-width: 0.200000"/>
   <line x1="826.081665" y1="1176.392456" x2="826.081665" y2="1200.461914" style="stroke: green; stroke-width: 0.200000"/>
   <line x1="832.081665" y1="1176.392456" x2="832.081665" y2="1200.237793" style="stroke: green; stroke-width: 0.200000"/>
   <line x1="825.081726" y1="1176.392456" x2="825.081726" y2="1199.957886" style="stroke: green; stroke-width: 0.200000"/>
   <line x1="833.081665" y1="1176.392456" x2="833.081665" y2="1199.655029" style="stroke: green; stroke-width: 0.200000"/>
   <line x1="824.081665" y1="1176.392456" x2="824.081665" y2="1199.453857" style="stroke: green; stroke-width: 0.200000"/>
   <line x1="834.081665" y1="1176.392456" x2="834.081665" y2="1199.072388" style="stroke: green; stroke-width: 0.200000"/>
   <line x1="823.081665" y1="1176.392456" x2="823.081665" y2="1198.949951" style="stroke: green; stroke-width: 0.200000"/>
   <line x1="835.081726" y1="1176.392456" x2="835.081726" y2="1198.489624" style="stroke: green; stroke-width: 0.200000"/>
   <line x1="822.081665" y1="1176.392456" x2="822.081665" y2="1198.445923" style="stroke: green; stroke-width: 0.200000"/>
   <line x1="847.081665" y1="1176.392456" x2="847.081665" y2="1198.301514" style="stroke: green; stroke-width: 0.200000"/>
   <line x1="821.081665" y1="1176.392456" x2="821.081665" y2="1197.942017" style="stroke: green; stroke-width: 0.200000"/>
   <line x1="836.081665" y1="1176.392456" x2="836.081665" y2="1197.906860" style="stroke: green; stroke-width: 0.200000"/>
   <line x1="848.081665" y1="1176.392456" x2="848.081665" y2="1197.474487" style="stroke: green; stroke-width: 0.200000"/>
   <line x1="820.081726" y1="1176.392456" x2="820.081726" y2="1197.437866" style="stroke: green; stroke-width: 0.200000"/>
   <line x1="837.081665" y1="1176.392456" x2="837.081665" y2="1197.324097" style="stroke: green; stroke-width: 0.200000"/>
   <line x1="846.081665" y1="1176.392456" x2="846.081665" y2="1197.230103" style="stroke: green; stroke-width: 0.200000"/>
   <line x1="819.081665" y1="1176.392456" x2="819.081665" y2="1196.933838" style="stroke: green; stroke-width: 0.200000"/>
   <line x1="849.081665" y1="1176.392456" x2="849.081665" y2="1196.876709" style="stroke: green; stroke-width: 0.200000"/>
   <line x1="838.081665" y1="1176.392456" x2="838.081665" y2="1196.741211" style="stroke: green; stroke-width: 0.200000"/>
   <line x1="818.081665" y1="1176.392456" x2="818.081665" y2="1196.429932" style="stroke: green; stroke-width: 0.200000"/>
   <line x1="850.081726" y1="1176.392456" x2="850.081726" y2="1196.279175" style="stroke: green; stroke-width: 0.200000"/>
   <line x1="804.081665" y1="1195.851929" x2="804.081665" y2="1196.258057" style="stroke: green; stroke-width: 0.200000"/>
   <line x1="839.081665" y1="1176.392456" x2="839.081665" y2="1196.158447" style="stroke: green; stroke-width: 0.200000"/>
   <line x1="817.081665" y1="1176.392456" x2="817.081665" y2="1195.926025" style="stroke: green; stroke-width: 0.200000"/>
   <line x1="845.081726" y1="1176.392456" x2="845.081726" y2="1195.747192" style="stroke: green; stroke-width: 0.200000"/>
   <line x1="803.081665" y1="1192.960938" x2="803.081665" y2="1195.718262" style="stroke: green; stroke-width: 0.200000"/>
   <line x1="851.081665" y1="1176.392456" x2="851.081665" y2="1195.681519" style="stroke: green; stroke-width: 0.200000"/>
   <line x1="840.081726" y1="1176.392456" x2="840.081726" y2="1195.575684" style="stroke: green; stroke-width: 0.200000"/>
   <line x1="816.081665" y1="1176.392456" x2="816.081665" y2="1195.421997" style="stroke: green; stroke-width: 0.200000"/>
   <line x1="802.081665" y1="1190.069946" x2="802.081665" y2="1195.178467" style="stroke: green; stroke-width: 0.200000"/>
   <line x1="841.081665" y1="1176.392456" x2="841.081665" y2="1194.992920" style="stroke: green; stroke-width: 0.200000"/>
   <line x1="815.081726" y1="1176.392456" x2="815.081726" y2="1194.917969" style="stroke: green; stroke-width: 0.200000"/>
   <line x1="814.081665" y1="1176.392456" x2="814.081665" y2="1194.413940" style="stroke: green; stroke-width: 0.200000"/>
   <line x1="842.081665" y1="1176.392456" x2="842.081665" y2="1194.410156" style="stroke: green; stroke-width: 0.200000"/>
   <line x1="844.081665" y1="1176.392456" x2="844.081665" y2="1194.264282" style="stroke: green; stroke-width: 0.200000"/>
   <line x1="813.081665" y1="1176.392456" x2="813.081665" y2="1193.910034" style="stroke: green; stroke-width: 0.200000"/>
   <line x1="843.081665" y1="1176.392456" x2="843.081665" y2="1193.827393" style="stroke: green; stroke-width: 0.200000"/>
   <line x1="812.081665" y1="1176.392456" x2="812.081665" y2="1193.406006" style="stroke: green; stroke-width: 0.200000"/>
   <line x1="811.081665" y1="1176.392456" x2="811.081665" y2="1192.902100" style="stroke: green; stroke-width: 0.200000"/>
   <line x1="810.081726" y1="1176.392456" x2="810.081726" y2="1192.398071" style="stroke: green; stroke-width: 0.200000"/>
   <line x1="809.081665" y1="1176.392456" x2="809.081665" y2="1191.894165" style="stroke: green; stroke-width: 0.200000"/>
   <line x1="808.081665" y1="1176.392456" x2="808.081665" y2="1191.390137" style="stroke: green; stroke-width: 0.200000"/>
   <line x1="807.081665" y1="1176.392456" x2="807.081665" y2="1190.886108" style="stroke: green; stroke-width: 0.200000"/>
   <line x1="806.081665" y1="1176.392456" x2="806.081665" y2="1190.382202" style="stroke: green; stroke-width: 0.200000"/>
   <line x1="805.081726" y1="1176.392456" x2="805.081726" y2="1189.878174" style="stroke: green; stroke-width: 0.200000"/>
   <line x1="804.081665" y1="1176.392456" x2="804.081665" y2="1189.374268" style="stroke: green; stroke-width: 0.200000"/>
   <line x1="803.081665" y1="1176.392456" x2="803.081665" y2="1188.870239" style="stroke: green; stroke-width: 0.200000"/>
   <line x1="802.081665" y1="1176.392456" x2="802.081665" y2="1188.366211" style="stroke: green; stroke-width: 0.200000"/>
   <line x1="853.081665" y1="1176.392456" x2="853.081665" y2="1193.818115" style="stroke: green; stroke-width: 0.200000"/>
   <line x1="854.081665" y1="1176.392456" x2="854.081665" y2="1192.819946" style="stroke: green; stroke-width: 0.200000"/>
   <line x1="855.081726" y1="1176.392456" x2="855.081726" y2="1191.907715" style="stroke: green; stroke-width: 0.200000"/>
   <line x1="856.081665" y1="1176.392456" x2="856.081665" y2="1191.294678" style="stroke: green; stroke-width: 0.200000"/>
   <line x1="857.081665" y1="1176.392456" x2="857.081665" y2="1190.681763" style="stroke: green; stroke-width: 0.200000"/>
   <line x1="858.081665" y1="1176.392456" x2="858.081665" y2="1190.068848" style="stroke: green; stroke-width: 0.200000"/>
   <line x1="859.081665" y1="1176.392456" x2="859.081665" y2="1189.455811" style="stroke: green; stroke-width: 0.200000"/>
   <line x1="860.081726" y1="1176.392456" x2="860.081726" y2="1188.842896" style="stroke: green; stroke-width: 0.200000"/>
   <line x1="861.081665" y1="1176.392456" x2="861.081665" y2="1188.229980" style="stroke: green; stroke-width: 0.200000"/>
   <line x1="862.081665" y1="1176.392456" x2="862.081665" y2="1187.694092" style="stroke: green; stroke-width: 0.200000"/>
   <line x1="863.081665" y1="1176.392456" x2="863.081665" y2="1187.202393" style="stroke: green; stroke-width: 0.200000"/>
   <line x1="864.081665" y1="1176.392456" x2="864.081665" y2="1186.744507" style="stroke: green; stroke-width: 0.200000"/>
   <line x1="865.081726" y1="1176.392456" x2="865.081726" y2="1186.286743" style="stroke: green; stroke-width: 0.200000"/>
   <line x1="866.081665" y1="1176.392456" x2="866.081665" y2="1185.823242" style="stroke: green; stroke-width: 0.200000"/>
   <line x1="867.081665" y1="1176.392456" x2="867.081665" y2="1185.349121" style="stroke: green; stroke-width: 0.200000"/>
   <line x1="868.081665" y1="1176.392456" x2="868.081665" y2="1184.875000" style="stroke: green; stroke-width: 0.200000"/>
   <line x1="869.081665" y1="1176.392456" x2="869.081665" y2="1184.400879" style="stroke: green; stroke-width: 0.200000"/>
   <line x1="870.081726" y1="1176.392456" x2="870.081726" y2="1183.926758" style="stroke: green; stroke-width: 0.200000"/>
   <line x1="871.081665" y1="1176.392456" x2="871.081665" y2="1183.265625" style="stroke: green; stroke-width: 0.200000"/>
   <line x1="872.081665" y1="1176.392456" x2="872.081665" y2="1182.592651" style="stroke: green; stroke-width: 0.200000"/>
   <line x1="873.081665" y1="1176.392456" x2="873.081665" y2="1181.919434" style="stroke: green; stroke-width: 0.200000"/>
   <line x1="874.081665" y1="1176.392456" x2="874.081665" y2="1181.246460" style="stroke: green; stroke-width: 0.200000"/>
   <line x1="875.081726" y1="1176.392456" x2="875.081726" y2="1180.573242" style="stroke: green; stroke-width: 0.200000"/>
   <line x1="876.081665" y1="1176.392456" x2="876.081665" y2="1179.900269" style="stroke: green; stroke-width: 0.200000"/>
   <line x1="877.081665" y1="1176.392456" x2="877.081665" y2="1179.297974" style="stroke: green; stroke-width: 0.200000"/>
   <line x1="878.081665" y1="1176.392456" x2="878.081665" y2="1178.651611" style="stroke: green; stroke-width: 0.200000"/>
   <line x1="879.081665" y1="1176.392456" x2="879.081665" y2="1177.877930" style="stroke: green; stroke-width: 0.200000"/>
   <line x1="880.081726" y1="1176.392456" x2="880.081726" y2="1177.104248" style="stroke: green; stroke-width: 0.200000"/>
   <line x1="825.866821" y1="1200.353882" x2="825.866821" y2="1216.668579" style="stroke: green; stroke-width: 0.200000"/>
   <line x1="826.866821" y1="1200.857788" x2="826.866821" y2="1216.598755" style="stroke: green; stroke-width: 0.200000"/>
   <line x1="827.866882" y1="1201.361938" x2="827.866882" y2="1216.359985" style="stroke: green; stroke-width: 0.200000"/>
   <line x1="824.866882" y1="1199.849731" x2="824.866882" y2="1216.186523" style="stroke: green; stroke-width: 0.200000"/>
   <line x1="828.866882" y1="1202.364380" x2="828.866882" y2="1216.121338" style="stroke: green; stroke-width: 0.200000"/>
   <line x1="829.866882" y1="1201.805298" x2="829.866882" y2="1215.882568" style="stroke: green; stroke-width: 0.200000"/>
   <line x1="830.866821" y1="1201.030762" x2="830.866821" y2="1215.643799" style="stroke: green; stroke-width: 0.200000"/>
   <line x1="831.866821" y1="1200.363037" x2="831.866821" y2="1215.405151" style="stroke: green; stroke-width: 0.200000"/>
   <line x1="823.866882" y1="1199.345825" x2="823.866882" y2="1215.325562" style="stroke: green; stroke-width: 0.200000"/>
   <line x1="832.866882" y1="1199.780396" x2="832.866882" y2="1215.096802" style="stroke: green; stroke-width: 0.200000"/>
   <line x1="822.866882" y1="1198.841797" x2="822.866882" y2="1214.464600" style="stroke: green; stroke-width: 0.200000"/>
   <line x1="821.866821" y1="1198.337769" x2="821.866821" y2="1213.603638" style="stroke: green; stroke-width: 0.200000"/>
   <line x1="833.866882" y1="1199.197632" x2="833.866882" y2="1213.424561" style="stroke: green; stroke-width: 0.200000"/>
   <line x1="820.866821" y1="1197.833740" x2="820.866821" y2="1212.742676" style="stroke: green; stroke-width: 0.200000"/>
   <line x1="834.866882" y1="1198.614868" x2="834.866882" y2="1211.752441" style="stroke: green; stroke-width: 0.200000"/>
   <line x1="819.866882" y1="1197.329712" x2="819.866882" y2="1210.897095" style="stroke: green; stroke-width: 0.200000"/>
   <line x1="835.866821" y1="1198.032104" x2="835.866821" y2="1210.500366" style="stroke: green; stroke-width: 0.200000"/>
   <line x1="836.866821" y1="1197.449463" x2="836.866821" y2="1209.725952" style="stroke: green; stroke-width: 0.200000"/>
   <line x1="837.866882" y1="1196.866577" x2="837.866882" y2="1208.951538" style="stroke: green; stroke-width: 0.200000"/>
   <line x1="838.866882" y1="1196.283691" x2="838.866882" y2="1208.177002" style="stroke: green; stroke-width: 0.200000"/>
   <line x1="818.866882" y1="1196.825684" x2="818.866882" y2="1208.006104" style="stroke: green; stroke-width: 0.200000"/>
   <line x1="839.866882" y1="1195.700928" x2="839.866882" y2="1207.402466" style="stroke: green; stroke-width: 0.200000"/>
   <line x1="840.866821" y1="1195.118286" x2="840.866821" y2="1206.628052" style="stroke: green; stroke-width: 0.200000"/>
   <line x1="817.866882" y1="1196.321777" x2="817.866882" y2="1206.057373" style="stroke: green; stroke-width: 0.200000"/>
   <line x1="816.866821" y1="1195.817749" x2="816.866821" y2="1205.553467" style="stroke: green; stroke-width: 0.200000"/>
   <line x1="815.866821" y1="1195.313843" x2="815.866821" y2="1205.049438" style="stroke: green; stroke-width: 0.200000"/>
   <line x1="814.866882" y1="1194.809814" x2="814.866882" y2="1204.481812" style="stroke: green; stroke-width: 0.200000"/>
   <line x1="841.866821" y1="1194.535400" x2="841.866821" y2="1204.289429" style="stroke: green; stroke-width: 0.200000"/>
   <line x1="813.866882" y1="1194.305908" x2="813.866882" y2="1203.716675" style="stroke: green; stroke-width: 0.200000"/>
   <line x1="812.866882" y1="1193.801880" x2="812.866882" y2="1202.951538" style="stroke: green; stroke-width: 0.200000"/>
   <line x1="842.866882" y1="1193.952637" x2="842.866882" y2="1202.880371" style="stroke: green; stroke-width: 0.200000"/>
   <line x1="811.866821" y1="1193.297852" x2="811.866821" y2="1202.186401" style="stroke: green; stroke-width: 0.200000"/>
   <line x1="843.866882" y1="1193.946045" x2="843.866882" y2="1201.793945" style="stroke: green; stroke-width: 0.200000"/>
   <line x1="810.866821" y1="1192.793945" x2="810.866821" y2="1201.457275" style="stroke: green; stroke-width: 0.200000"/>
   <line x1="809.866882" y1="1192.289917" x2="809.866882" y2="1200.774536" style="stroke: green; stroke-width: 0.200000"/>
   <line x1="844.866882" y1="1195.428833" x2="844.866882" y2="1200.707520" style="stroke: green; stroke-width: 0.200000"/>
   <line x1="808.866882" y1="1191.786011" x2="808.866882" y2="1200.091675" style="stroke: green; stroke-width: 0.200000"/>
   <line x1="845.866821" y1="1196.911743" x2="845.866821" y2="1199.621094" style="stroke: green; stroke-width: 0.200000"/>
   <line x1="807.866882" y1="1191.281982" x2="807.866882" y2="1199.408569" style="stroke: green; stroke-width: 0.200000"/>
   <line x1="846.866821" y1="1198.394531" x2="846.866821" y2="1198.534668" style="stroke: green; stroke-width: 0.200000"/>
   <line x1="806.866821" y1="1190.778076" x2="806.866821" y2="1198.117554" style="stroke: green; stroke-width: 0.200000"/>
   <line x1="805.866821" y1="1190.274048" x2="805.866821" y2="1197.419067" style="stroke: green; stroke-width: 0.200000"/>
   <line x1="804.866882" y1="1189.770020" x2="804.866882" y2="1196.720581" style="stroke: green; stroke-width: 0.200000"/>
   <line x1="803.866882" y1="1189.266113" x2="803.866882" y2="1195.230591" style="stroke: green; stroke-width: 0.200000"/>
   <line x1="802.866882" y1="1188.762085" x2="802.866882" y2="1192.339600" style="stroke: green; stroke-width: 0.200000"/>
   <line x1="801.866821" y1="1188.258179" x2="801.866821" y2="1189.448608" style="stroke: green; stroke-width: 0.200000"/>
   <path d="M 817.187  1207.74  817.043  1207.32  814.311  1205.94  810.426  1202.97  806.763  1200.47  806.097  1199.41  803.836  1197.83  797.869  1194.61  791.584  1189.79  790.048  1188.55  784.053  1181.38  783.775  1180.98  778.208  1172.38  776.204  1169.06  772.704  1164.41  769.389  1157.37  768.152  1155.43  766.964  1153.18  763.643  1146.68  761.001  1141.35  759.312  1138.73  757.738  1135.83  754.635  1130.55  751.862  1124.19  750.531  1121.08  750.416  1111.09  752.102  1099.4  753.691  1089.26  754.046  1088.06  755.374  1079.96  755.913  1078.29  757.573  1072.21  758.617  1066.82  759.817  1063.77  762.288  1058.42  763.767  1054.99  765.858  1051.24  769.123  1046.81  772.023  1043.76  775.846  1039.45  782.731  1033.59  783.906  1032.67  784.995  1031.99  791.78  1027.55  797.477  1025.23  800.553  1024.58  805.786  1024.87  810.633  1025  814.392  1025.96  820.183  1028.19  824.026  1030.75  828.034  1033.31  834.796  1039.27  835.067  1039.48  837.806  1042.33  842.042  1046.82  842.241  1047.11  850.136  1055.03  850.403  1055.26  856.877  1062.31  858.561  1064.6  864.618  1070.84  866.103  1072.51  872.5  1080.92  873.344  1082.36  874.012  1084.55  877.434  1092.62  879.302  1099.68  879.684  1100.78  880.179  1102.58  882.532  1110.3  883.518  1114.29  885.171  1119.78  887.994  1130.97  889.555  1135.97  890.485  1140.78  892.762  1147.02  891.325  1154.2  891.637  1156.23  890.809  1158.42  889.863  1166.72  887.737  1170.45  885.398  1174.88  " style="fill: none; stroke: darkmagenta; stroke-width: 0.200000; fill-type: evenodd"  fill-opacity="1.000000" />
   <path d="M 885.398  1174.88  885.393  1174.89  882.382  1177.22  " style="fill: none; stroke: red; stroke-width: 0.200000; fill-type: evenodd"  fill-opacity="1.000000" />
   <path d="M 882.382  1177.22  878.222  1180.44  877.861  1180.58  877.14  1181  870.887  1185.2  866.371  1187.35  863.204  1188.8  861.877  1189.5  855.793  1193.23  852.342  1196.68  848.507  1198.97  843.973  1203.89  842.852  1205.5  842.59  1206.29  " style="fill: none; stroke: darkmagenta; stroke-width: 0.200000; fill-type: evenodd"  fill-opacity="1.000000" />
   <path d="M 842.59  1206.29  842.187  1207.5  836.541  1211.88  833.781  1216.49  826.281  1218.28  824.615  1217.95  819.067  1213.17  817.187  1207.74  " style="fill: none; stroke: red; stroke-width: 0.200000; fill-type: evenodd"  fill-opacity="1.000000" />
   <path d="M 818.468  1208.38  817.856  1206.61  814.844  1205.09  811.012  1202.16  807.499  1199.76  806.836  1198.71  804.362  1196.98  798.414  1193.77  792.201  1189  790.752  1187.84  784.849  1180.78  784.606  1180.42  779.056  1171.85  777.034  1168.5  773.565  1163.89  770.266  1156.88  769.017  1154.92  767.851  1152.72  764.536  1146.23  761.872  1140.85  760.173  1138.22  758.609  1135.34  755.528  1130.09  752.779  1123.8  751.529  1120.87  751.417  1111.16  753.091  1099.55  754.668  1089.48  755.023  1088.29  756.349  1080.19  756.872  1078.57  758.547  1072.44  759.581  1067.1  760.737  1064.16  763.202  1058.83  764.665  1055.43  766.701  1051.78  769.891  1047.45  772.759  1044.43  776.548  1040.17  783.364  1034.37  784.482  1033.49  785.535  1032.83  792.246  1028.44  797.77  1026.19  800.63  1025.59  805.745  1025.87  810.494  1025.99  814.088  1026.91  819.72  1029.08  823.48  1031.59  827.431  1034.11  834.159  1040.04  834.397  1040.22  837.081  1043.02  841.262  1047.45  841.469  1047.75  849.451  1055.76  849.703  1055.98  856.104  1062.94  857.796  1065.24  863.885  1071.52  865.33  1073.14  871.668  1081.48  872.422  1082.76  873.071  1084.89  876.486  1092.95  878.344  1099.97  878.728  1101.08  879.218  1102.86  881.568  1110.57  882.553  1114.55  884.207  1120.05  887.031  1131.24  888.583  1136.22  889.519  1141.05  891.726  1147.1  890.31  1154.18  890.608  1156.12  889.83  1158.18  888.893  1166.4  886.86  1169.97  884.61  1174.23  877.725  1179.56  877.427  1179.68  876.61  1180.15  870.391  1184.33  865.948  1186.44  862.761  1187.9  861.38  1188.63  855.17  1192.44  851.723  1195.88  847.869  1198.18  843.192  1203.27  841.949  1205.04  841.334  1206.9  840.814  1207.3  " style="fill: none; stroke: black; stroke-width: 0.200000; fill-type: evenodd"  fill-opacity="1.000000" />
   <path d="M 840.814  1207.3  835.779  1211.2  833.139  1215.62  826.262  1217.26  825.068  1217.02  819.924  1212.59  818.468  1208.38  " style="fill: none; stroke: red; stroke-width: 0.200000; fill-type: evenodd"  fill-opacity="1.000000" />
   <path d="M 823.099  1348.83  823.831  1349.56  824.099  1350.56  823.831  1351.56  823.099  1352.29  822.099  1352.56  821.099  1352.29  820.367  1351.56  820.099  1350.56  820.367  1349.56  821.099  1348.83  822.099  1348.56  823.099  1348.83  " style="fill: none; stroke: purple; stroke-width: 0.500000; fill-type: evenodd"  fill-opacity="1.000000" />
   <path d="M 843.099  1348.83  843.831  1349.56  844.099  1350.56  843.831  1351.56  843.099  1352.29  842.099  1352.56  841.099  1352.29  840.367  1351.56  840.099  1350.56  840.367  1349.56  841.099  1348.83  842.099  1348.56  843.099  1348.83  " style="fill: none; stroke: purple; stroke-width: 0.500000; fill-type: evenodd"  fill-opacity="1.000000" />
   <path d="M 823.099  1328.83  823.831  1329.56  824.099  1330.56  823.831  1331.56  823.099  1332.29  822.099  1332.56  821.099  1332.29  820.367  1331.56  820.099  1330.56  820.367  1329.56  821.099  1328.83  822.099  1328.56  823.099  1328.83  " style="fill: none; stroke: purple; stroke-width: 0.500000; fill-type: evenodd"  fill-opacity="1.000000" />
   <path d="M 823.099  1308.83  823.831  1309.56  824.099  1310.56  823.831  1311.56  823.099  1312.29  822.099  1312.56  821.099  1312.29  820.367  1311.56  820.099  1310.56  820.367  1309.56  821.099  1308.83  822.099  1308.56  823.099  1308.83  " style="fill: none; stroke: purple; stroke-width: 0.500000; fill-type: evenodd"  fill-opacity="1.000000" />
   <path d="M 803.099  1308.83  803.831  1309.56  804.099  1310.56  803.831  1311.56  803.099  1312.29  802.099  1312.56  801.099  1312.29  800.367  1311.56  800.099  1310.56  800.367  1309.56  801.099  1308.83  802.099  1308.56  803.099  1308.83  " style="fill: none; stroke: purple; stroke-width: 0.500000; fill-type: evenodd"  fill-opacity="1.000000" />
   <path d="M 843.099  1288.83  843.831  1289.56  844.099  1290.56  843.831  1291.56  843.099  1292.29  842.099  1292.56  841.099  1292.29  840.367  1291.56  840.099  1290.56  840.367  1289.56  841.099  1288.83  842.099  1288.56  843.099  1288.83  " style="fill: none; stroke: purple; stroke-width: 0.500000; fill-type: evenodd"  fill-opacity="1.000000" />
   <path d="M 823.099  1288.83  823.831  1289.56  824.099  1290.56  823.831  1291.56  823.099  1292.29  822.099  1292.56  821.099  1292.29  820.367  1291.56  820.099  1290.56  820.367  1289.56  821.099  1288.83  822.099  1288.56  823.099  1288.83  " style="fill: none; stroke: purple; stroke-width: 0.500000; fill-type: evenodd"  fill-opacity="1.000000" />
   <path d="M 803.099  1288.83  803.831  1289.56  804.099  1290.56  803.831  1291.56  803.099  1292.29  802.099  1292.56  801.099  1292.29  800.367  1291.56  800.099  1290.56  800.367  1289.56  801.099  1288.83  802.099  1288.56  803.099  1288.83  " style="fill: none; stroke: purple; stroke-width: 0.500000; fill-type: evenodd"  fill-opacity="1.000000" />
   <path d="M 843.099  1268.83  843.831  1269.56  844.099  1270.56  843.831  1271.56  843.099  1272.29  842.099  1272.56  841.099  1272.29  840.367  1271.56  840.099  1270.56  840.367  1269.56  841.099  1268.83  842.099  1268.56  843.099  1268.83  " style="fill: none; stroke: purple; stroke-width: 0.500000; fill-type: evenodd"  fill-opacity="1.000000" />
   <path d="M 823.099  1268.83  823.831  1269.56  824.099  1270.56  823.831  1271.56  823.099  1272.29  822.099  1272.56  821.099  1272.29  820.367  1271.56  820.099  1270.56  820.367  1269.56  821.099  1268.83  822.099  1268.56  823.099  1268.83  " style="fill: none; stroke: purple; stroke-width: 0.500000; fill-type: evenodd"  fill-opacity="1.000000" />
   <path d="M 1004.32  1246.11  1005.78  1247.21  1006.74  1248.76  1007.07  1250.56  1006.74  1252.36  1005.78  1253.91  1004.32  1255.01  1002.56  1255.51  1000.74  1255.34  999.102  1254.53  997.87  1253.18  997.21  1251.47  997.21  1249.65  997.87  1247.94  999.102  1246.59  1000.74  1245.77  1002.56  1245.61  1004.32  1246.11  " style="fill: none; stroke: purple; stroke-width: 0.500000; fill-type: evenodd"  fill-opacity="1.000000" />
   <path d="M 843.099  1248.83  843.831  1249.56  844.099  1250.56  843.831  1251.56  843.099  1252.29  842.099  1252.56  841.099  1252.29  840.367  1251.56  840.099  1250.56  840.367  1249.56  841.099  1248.83  842.099  1248.56  843.099  1248.83  " style="fill: none; stroke: purple; stroke-width: 0.500000; fill-type: evenodd"  fill-opacity="1.000000" />
   <path d="M 803.099  1248.83  803.831  1249.56  804.099  1250.56  803.831  1251.56  803.099  1252.29  802.099  1252.56  801.099  1252.29  800.367  1251.56  800.099  1250.56  800.367  1249.56  801.099  1248.83  802.099  1248.56  803.099  1248.83  " style="fill: none; stroke: purple; stroke-width: 0.500000; fill-type: evenodd"  fill-opacity="1.000000" />
   <path d="M 823.099  1248.83  823.831  1249.56  824.099  1250.56  823.831  1251.56  823.099  1252.29  822.099  1252.56  821.099  1252.29  820.367  1251.56  820.099  1250.56  820.367  1249.56  821.099  1248.83  822.099  1248.56  823.099  1248.83  " style="fill: none; stroke: purple; stroke-width: 0.500000; fill-type: evenodd"  fill-opacity="1.000000" />
   <path d="M 964.658  1226.13  966.019  1227.27  966.907  1228.81  967.216  1230.56  966.907  1232.31  966.019  1233.85  964.658  1234.99  962.988  1235.6  961.211  1235.6  959.541  1234.99  958.18  1233.85  957.292  1232.31  956.983  1230.56  957.292  1228.81  958.18  1227.27  959.541  1226.13  961.211  1225.52  962.988  1225.52  964.658  1226.13  " style="fill: none; stroke: purple; stroke-width: 0.500000; fill-type: evenodd"  fill-opacity="1.000000" />
   <path d="M 984.647  1226.15  986.002  1227.28  986.887  1228.82  987.194  1230.56  986.887  1232.3  986.002  1233.83  984.647  1234.97  982.984  1235.58  981.215  1235.58  979.552  1234.97  978.197  1233.83  977.312  1232.3  977.005  1230.56  977.312  1228.82  978.197  1227.28  979.552  1226.15  981.215  1225.54  982.984  1225.54  984.647  1226.15  " style="fill: none; stroke: purple; stroke-width: 0.500000; fill-type: evenodd"  fill-opacity="1.000000" />
   <path d="M 1004.62  1226.19  1005.97  1227.31  1006.84  1228.83  1007.15  1230.56  1006.84  1232.29  1005.97  1233.8  1004.62  1234.93  1002.98  1235.53  1001.22  1235.53  999.576  1234.93  998.233  1233.8  997.356  1232.29  997.052  1230.56  997.356  1228.83  998.233  1227.31  999.576  1226.19  1001.22  1225.59  1002.98  1225.59  1004.62  1226.19  " style="fill: none; stroke: purple; stroke-width: 0.500000; fill-type: evenodd"  fill-opacity="1.000000" />
   <path d="M 1003.5  1205.02  1005.22  1205.78  1006.61  1207.05  1007.5  1208.71  1007.81  1210.56  1007.5  1212.41  1006.61  1214.07  1005.22  1215.34  1003.5  1216.09  1001.63  1216.25  999.806  1215.79  998.232  1214.76  997.078  1213.28  996.467  1211.5  996.467  1209.62  997.078  1207.84  998.232  1206.36  999.806  1205.33  1001.63  1204.87  1003.5  1205.02  " style="fill: none; stroke: purple; stroke-width: 0.500000; fill-type: evenodd"  fill-opacity="1.000000" />
   <path d="M 924.261  1206.22  925.684  1207.29  926.622  1208.81  926.95  1210.56  926.622  1212.31  925.684  1213.83  924.261  1214.9  922.547  1215.39  920.772  1215.22  919.176  1214.43  917.975  1213.11  917.331  1211.45  917.331  1209.67  917.975  1208.01  919.176  1206.69  920.772  1205.89  922.547  1205.73  924.261  1206.22  " style="fill: none; stroke: purple; stroke-width: 0.500000; fill-type: evenodd"  fill-opacity="1.000000" />
   <path d="M 984.217  1206.31  985.61  1207.36  986.529  1208.84  986.849  1210.56  986.529  1212.28  985.61  1213.76  984.217  1214.81  982.538  1215.29  980.799  1215.13  979.237  1214.35  978.061  1213.06  977.43  1211.43  977.43  1209.69  978.061  1208.06  979.237  1206.77  980.799  1205.99  982.538  1205.83  984.217  1206.31  " style="fill: none; stroke: purple; stroke-width: 0.500000; fill-type: evenodd"  fill-opacity="1.000000" />
   <path d="M 963.819  1206.41  965.278  1207.38  966.252  1208.84  966.594  1210.56  966.252  1212.28  965.278  1213.74  963.819  1214.71  962.099  1215.05  960.379  1214.71  958.921  1213.74  957.947  1212.28  957.605  1210.56  957.947  1208.84  958.921  1207.38  960.379  1206.41  962.099  1206.06  963.819  1206.41  " style="fill: none; stroke: purple; stroke-width: 0.500000; fill-type: evenodd"  fill-opacity="1.000000" />
   <path d="M 943.715  1206.66  945.085  1207.57  946  1208.94  946.322  1210.56  946  1212.18  945.085  1213.54  943.715  1214.46  942.099  1214.78  940.484  1214.46  939.114  1213.54  938.199  1212.18  937.877  1210.56  938.199  1208.94  939.114  1207.57  940.484  1206.66  942.099  1206.34  943.715  1206.66  " style="fill: none; stroke: purple; stroke-width: 0.500000; fill-type: evenodd"  fill-opacity="1.000000" />
   <path d="M 964.157  1186.43  965.511  1187.45  966.404  1188.89  966.716  1190.56  966.404  1192.23  965.511  1193.67  964.157  1194.69  962.525  1195.16  960.836  1195  959.317  1194.24  958.174  1192.99  957.562  1191.41  957.562  1189.71  958.174  1188.13  959.317  1186.88  960.836  1186.12  962.525  1185.96  964.157  1186.43  " style="fill: none; stroke: purple; stroke-width: 0.500000; fill-type: evenodd"  fill-opacity="1.000000" />
   <path d="M 943.296  1186.88  944.69  1187.68  945.637  1188.98  945.972  1190.56  945.637  1192.13  944.69  1193.44  943.296  1194.24  941.695  1194.41  940.163  1193.91  938.967  1192.84  938.312  1191.36  938.312  1189.75  938.967  1188.28  940.163  1187.21  941.695  1186.71  943.296  1186.88  " style="fill: none; stroke: purple; stroke-width: 0.500000; fill-type: evenodd"  fill-opacity="1.000000" />
   <path d="M 924.242  1187.87  925.195  1189.07  925.535  1190.56  925.195  1192.05  924.242  1193.25  922.864  1193.91  921.335  1193.91  919.957  1193.25  919.004  1192.05  918.663  1190.56  919.004  1189.07  919.957  1187.87  921.335  1187.21  922.864  1187.21  924.242  1187.87  " style="fill: none; stroke: purple; stroke-width: 0.500000; fill-type: evenodd"  fill-opacity="1.000000" />
   <path d="M 904.77  1192.54  904.224  1193.22  902.858  1193.88  901.341  1193.88  900.015  1193.24  901.032  1191.32  904.77  1192.54  " style="fill: none; stroke: purple; stroke-width: 0.500000; fill-type: evenodd"  fill-opacity="1.000000" />
   <path d="M 943.509  1164.99  945.241  1165.75  946.632  1167.03  947.532  1168.69  947.843  1170.56  947.532  1172.42  946.632  1174.09  945.241  1175.37  943.509  1176.13  941.625  1176.28  939.792  1175.82  938.209  1174.78  937.048  1173.29  936.434  1171.5  936.434  1169.61  937.048  1167.83  938.209  1166.33  939.792  1165.3  941.625  1164.84  943.509  1164.99  " style="fill: none; stroke: purple; stroke-width: 0.500000; fill-type: evenodd"  fill-opacity="1.000000" />
   <path d="M 923.267  1166.97  924.627  1167.75  925.551  1169.02  925.877  1170.56  925.551  1172.1  924.627  1173.37  923.267  1174.15  921.704  1174.32  920.211  1173.83  919.043  1172.78  918.404  1171.34  918.404  1169.77  919.043  1168.34  920.211  1167.29  921.704  1166.8  923.267  1166.97  " style="fill: none; stroke: purple; stroke-width: 0.500000; fill-type: evenodd"  fill-opacity="1.000000" />
</svg>
