<?xml version="1.0" encoding="UTF-8" standalone="yes"?>
<!DOCTYPE svg PUBLIC "-//W3C//DTD SVG 1.0//EN" "http://www.w3.org/TR/2001/REC-SVG-20010904/DTD/svg10.dtd">
<svg height="2000" width="2000" xmlns="http://www.w3.org/2000/svg" xmlns:svg="http://www.w3.org/2000/svg" xmlns:xlink="http://www.w3.org/1999/xlink">
   <marker id="endArrow" markerHeight="8" markerUnits="strokeWidth" markerWidth="10" orient="auto" refX="1" refY="5" viewBox="0 0 1000 1000">
      <polyline fill="darkblue" points="0,0 10,5 0,10 1,5" />
   </marker>
   <circle cx="1000" cy="1000" r="1" style="stroke:black; fill: red" />
   <circle cx="1000" cy="1000" r="800" style="stroke:black; fill: none" />
   <line x1="1045.934326" y1="944.669128" x2="1045.934326" y2="978.258911" style="stroke: green; stroke-width: 0.200000"/>
   <line x1="1044.934326" y1="944.751038" x2="1044.934326" y2="978.202454" style="stroke: green; stroke-width: 0.200000"/>
   <line x1="1043.934326" y1="944.832886" x2="1043.934326" y2="978.025452" style="stroke: green; stroke-width: 0.200000"/>
   <line x1="1042.934326" y1="944.914856" x2="1042.934326" y2="977.896423" style="stroke: green; stroke-width: 0.200000"/>
   <line x1="1041.934326" y1="944.996704" x2="1041.934326" y2="977.730774" style="stroke: green; stroke-width: 0.200000"/>
   <line x1="1046.934326" y1="944.587280" x2="1046.934326" y2="977.695557" style="stroke: green; stroke-width: 0.200000"/>
   <line x1="1040.934326" y1="945.078674" x2="1040.934326" y2="977.195435" style="stroke: green; stroke-width: 0.200000"/>
   <line x1="1047.934326" y1="944.505310" x2="1047.934326" y2="977.170898" style="stroke: green; stroke-width: 0.200000"/>
   <line x1="1048.934326" y1="944.423462" x2="1048.934326" y2="976.655212" style="stroke: green; stroke-width: 0.200000"/>
   <line x1="1039.934326" y1="945.303833" x2="1039.934326" y2="976.437927" style="stroke: green; stroke-width: 0.200000"/>
   <line x1="1049.934326" y1="944.637329" x2="1049.934326" y2="976.139465" style="stroke: green; stroke-width: 0.200000"/>
   <line x1="1050.934326" y1="944.973816" x2="1050.934326" y2="975.623779" style="stroke: green; stroke-width: 0.200000"/>
   <line x1="1038.934326" y1="945.749023" x2="1038.934326" y2="975.602722" style="stroke: green; stroke-width: 0.200000"/>
   <line x1="1051.934326" y1="945.441833" x2="1051.934326" y2="975.006226" style="stroke: green; stroke-width: 0.200000"/>
   <line x1="1037.934326" y1="946.680847" x2="1037.934326" y2="974.767517" style="stroke: green; stroke-width: 0.200000"/>
   <line x1="1036.934326" y1="947.612671" x2="1036.934326" y2="973.932373" style="stroke: green; stroke-width: 0.200000"/>
   <line x1="1052.934326" y1="946.368042" x2="1052.934326" y2="973.914062" style="stroke: green; stroke-width: 0.200000"/>
   <line x1="1035.934326" y1="948.544434" x2="1035.934326" y2="973.097168" style="stroke: green; stroke-width: 0.200000"/>
   <line x1="1053.934326" y1="947.294189" x2="1053.934326" y2="972.821716" style="stroke: green; stroke-width: 0.200000"/>
   <line x1="1034.934326" y1="949.476257" x2="1034.934326" y2="972.001099" style="stroke: green; stroke-width: 0.200000"/>
   <line x1="1054.934326" y1="948.220337" x2="1054.934326" y2="971.729492" style="stroke: green; stroke-width: 0.200000"/>
   <line x1="1033.934326" y1="950.408020" x2="1033.934326" y2="970.704834" style="stroke: green; stroke-width: 0.200000"/>
   <line x1="1055.934326" y1="949.171509" x2="1055.934326" y2="970.635254" style="stroke: green; stroke-width: 0.200000"/>
   <line x1="1056.934326" y1="950.268066" x2="1056.934326" y2="969.508667" style="stroke: green; stroke-width: 0.200000"/>
   <line x1="1032.934326" y1="951.339783" x2="1032.934326" y2="969.408508" style="stroke: green; stroke-width: 0.200000"/>
   <line x1="1031.934326" y1="952.610474" x2="1031.934326" y2="968.112122" style="stroke: green; stroke-width: 0.200000"/>
   <line x1="1057.934326" y1="952.485901" x2="1057.934326" y2="967.036072" style="stroke: green; stroke-width: 0.200000"/>
   <line x1="1030.934326" y1="954.247314" x2="1030.934326" y2="966.352905" style="stroke: green; stroke-width: 0.200000"/>
   <line x1="1029.934326" y1="956.027893" x2="1029.934326" y2="964.276978" style="stroke: green; stroke-width: 0.200000"/>
   <line x1="1058.934326" y1="955.248474" x2="1058.934326" y2="963.342407" style="stroke: green; stroke-width: 0.200000"/>
   <line x1="1028.934326" y1="957.808533" x2="1028.934326" y2="962.230347" style="stroke: green; stroke-width: 0.200000"/>
   <line x1="1059.934326" y1="958.011169" x2="1059.934326" y2="959.648804" style="stroke: green; stroke-width: 0.200000"/>
   <path d="M 1050.53  943.239  1052.08  943.789  1052.69  944.101  1056.85  947.953  1058.42  949.675  1059.22  951.627  1061.59  958.189  1061.64  958.549  1061.65  959.061  1058.77  969.705  1056.99  971.705  1052.68  976.409  1047.83  978.91  1046.04  979.921  1043.37  979.449  1041.63  979.27  1039.83  978.307  1034.41  973.779  1031.84  970.422  1030.21  968.339  1029.15  966.094  1027.42  962.538  1027.29  962.042  1027.22  959.929  1027.24  957.98  1027.27  957.703  1030.47  952.009  1030.8  951.626  1031.38  950.741  1038.23  944.351  1040.07  943.645  1049.17  942.9  1050.53  943.239  " style="fill: none; stroke: red; stroke-width: 0.200000; fill-type: evenodd"  fill-opacity="1.000000" />
   <path d="M 1050.24  944.198  1051.69  944.71  1052.12  944.929  1056.14  948.658  1057.56  950.217  1058.28  951.986  1060.62  958.428  1060.64  958.62  1060.65  958.933  1057.86  969.217  1056.25  971.035  1052.07  975.602  1047.36  978.03  1045.86  978.874  1043.51  978.458  1041.93  978.296  1040.39  977.473  1035.14  973.083  1032.63  969.811  1031.07  967.811  1030.05  965.66  1028.36  962.189  1028.28  961.899  1028.22  959.917  1028.24  958.031  1031.29  952.587  1031.6  952.228  1032.15  951.389  1038.77  945.215  1040.29  944.63  1049.08  943.91  1050.24  944.198  " style="fill: none; stroke: red; stroke-width: 0.200000; fill-type: evenodd"  fill-opacity="1.000000" />
   <path d="M 999.288  1106.52  1000.23  1107.58  1000.57  1108.96  1000.23  1110.34  999.288  1111.41  997.959  1111.91  996.548  1111.74  995.378  1110.93  994.717  1109.68  994.717  1108.25  995.378  1107  996.548  1106.19  997.959  1106.02  999.288  1106.52  " style="fill: none; stroke: purple; stroke-width: 0.500000; fill-type: evenodd"  fill-opacity="1.000000" />
   <path d="M 1019.19  1086.67  1020.07  1087.67  1020.39  1088.96  1020.07  1090.26  1019.19  1091.26  1017.94  1091.73  1016.61  1091.57  1015.51  1090.81  1014.89  1089.63  1014.89  1088.3  1015.51  1087.11  1016.61  1086.36  1017.94  1086.19  1019.19  1086.67  " style="fill: none; stroke: purple; stroke-width: 0.500000; fill-type: evenodd"  fill-opacity="1.000000" />
   <path d="M 958.601  1087.23  959.333  1087.96  959.601  1088.96  959.333  1089.96  958.601  1090.7  957.601  1090.96  956.601  1090.7  955.869  1089.96  955.601  1088.96  955.869  1087.96  956.601  1087.23  957.601  1086.96  958.601  1087.23  " style="fill: none; stroke: purple; stroke-width: 0.500000; fill-type: evenodd"  fill-opacity="1.000000" />
   <path d="M 938.601  1087.23  939.333  1087.96  939.601  1088.96  939.333  1089.96  938.601  1090.7  937.601  1090.96  936.601  1090.7  935.869  1089.96  935.601  1088.96  935.869  1087.96  936.601  1087.23  937.601  1086.96  938.601  1087.23  " style="fill: none; stroke: purple; stroke-width: 0.500000; fill-type: evenodd"  fill-opacity="1.000000" />
   <path d="M 998.601  1087.23  999.333  1087.96  999.601  1088.96  999.333  1089.96  998.601  1090.7  997.601  1090.96  996.601  1090.7  995.869  1089.96  995.601  1088.96  995.869  1087.96  996.601  1087.23  997.601  1086.96  998.601  1087.23  " style="fill: none; stroke: purple; stroke-width: 0.500000; fill-type: evenodd"  fill-opacity="1.000000" />
   <path d="M 978.601  1087.23  979.333  1087.96  979.601  1088.96  979.333  1089.96  978.601  1090.7  977.601  1090.96  976.601  1090.7  975.869  1089.96  975.601  1088.96  975.869  1087.96  976.601  1087.23  977.601  1086.96  978.601  1087.23  " style="fill: none; stroke: purple; stroke-width: 0.500000; fill-type: evenodd"  fill-opacity="1.000000" />
   <path d="M 1038.77  1065.37  1040.13  1066.16  1041.05  1067.43  1041.38  1068.96  1041.05  1070.5  1040.13  1071.77  1038.77  1072.56  1037.21  1072.72  1035.71  1072.24  1034.54  1071.19  1033.91  1069.75  1033.91  1068.18  1034.54  1066.74  1035.71  1065.69  1037.21  1065.21  1038.77  1065.37  " style="fill: none; stroke: purple; stroke-width: 0.500000; fill-type: evenodd"  fill-opacity="1.000000" />
   <path d="M 1018.81  1066.88  1019.69  1067.76  1020.01  1068.96  1019.69  1070.17  1018.81  1071.05  1017.6  1071.38  1016.4  1071.05  1015.51  1070.17  1015.19  1068.96  1015.51  1067.76  1016.4  1066.88  1017.6  1066.55  1018.81  1066.88  " style="fill: none; stroke: purple; stroke-width: 0.500000; fill-type: evenodd"  fill-opacity="1.000000" />
   <path d="M 938.601  1067.23  939.333  1067.96  939.601  1068.96  939.333  1069.96  938.601  1070.7  937.601  1070.96  936.601  1070.7  935.869  1069.96  935.601  1068.96  935.869  1067.96  936.601  1067.23  937.601  1066.96  938.601  1067.23  " style="fill: none; stroke: purple; stroke-width: 0.500000; fill-type: evenodd"  fill-opacity="1.000000" />
   <path d="M 998.601  1067.23  999.333  1067.96  999.601  1068.96  999.333  1069.96  998.601  1070.7  997.601  1070.96  996.601  1070.7  995.869  1069.96  995.601  1068.96  995.869  1067.96  996.601  1067.23  997.601  1066.96  998.601  1067.23  " style="fill: none; stroke: purple; stroke-width: 0.500000; fill-type: evenodd"  fill-opacity="1.000000" />
   <path d="M 978.601  1067.23  979.333  1067.96  979.601  1068.96  979.333  1069.96  978.601  1070.7  977.601  1070.96  976.601  1070.7  975.869  1069.96  975.601  1068.96  975.869  1067.96  976.601  1067.23  977.601  1066.96  978.601  1067.23  " style="fill: none; stroke: purple; stroke-width: 0.500000; fill-type: evenodd"  fill-opacity="1.000000" />
   <path d="M 918.601  1067.23  919.333  1067.96  919.601  1068.96  919.333  1069.96  918.601  1070.7  917.601  1070.96  916.601  1070.7  915.869  1069.96  915.601  1068.96  915.869  1067.96  916.601  1067.23  917.601  1066.96  918.601  1067.23  " style="fill: none; stroke: purple; stroke-width: 0.500000; fill-type: evenodd"  fill-opacity="1.000000" />
   <path d="M 958.601  1067.23  959.333  1067.96  959.601  1068.96  959.333  1069.96  958.601  1070.7  957.601  1070.96  956.601  1070.7  955.869  1069.96  955.601  1068.96  955.869  1067.96  956.601  1067.23  957.601  1066.96  958.601  1067.23  " style="fill: none; stroke: purple; stroke-width: 0.500000; fill-type: evenodd"  fill-opacity="1.000000" />
   <path d="M 1058.77  1045.37  1060.13  1046.16  1061.05  1047.43  1061.38  1048.96  1061.05  1050.5  1060.13  1051.77  1058.77  1052.56  1057.21  1052.72  1055.71  1052.24  1054.54  1051.19  1053.91  1049.75  1053.91  1048.18  1054.54  1046.74  1055.71  1045.69  1057.21  1045.21  1058.77  1045.37  " style="fill: none; stroke: purple; stroke-width: 0.500000; fill-type: evenodd"  fill-opacity="1.000000" />
   <path d="M 1039.56  1046.51  1040.43  1047.6  1040.74  1048.96  1040.43  1050.33  1039.56  1051.42  1038.3  1052.03  1036.9  1052.03  1035.64  1051.42  1034.77  1050.33  1034.46  1048.96  1034.77  1047.6  1035.64  1046.51  1036.9  1045.9  1038.3  1045.9  1039.56  1046.51  " style="fill: none; stroke: purple; stroke-width: 0.500000; fill-type: evenodd"  fill-opacity="1.000000" />
   <path d="M 1019.08  1046.82  1019.91  1047.75  1020.2  1048.96  1019.91  1050.17  1019.08  1051.11  1017.91  1051.55  1016.68  1051.4  1015.65  1050.69  1015.07  1049.59  1015.07  1048.34  1015.65  1047.24  1016.68  1046.53  1017.91  1046.38  1019.08  1046.82  " style="fill: none; stroke: purple; stroke-width: 0.500000; fill-type: evenodd"  fill-opacity="1.000000" />
   <path d="M 898.601  1047.23  899.333  1047.96  899.601  1048.96  899.333  1049.96  898.601  1050.7  897.601  1050.96  896.601  1050.7  895.869  1049.96  895.601  1048.96  895.869  1047.96  896.601  1047.23  897.601  1046.96  898.601  1047.23  " style="fill: none; stroke: purple; stroke-width: 0.500000; fill-type: evenodd"  fill-opacity="1.000000" />
   <path d="M 998.601  1047.23  999.333  1047.96  999.601  1048.96  999.333  1049.96  998.601  1050.7  997.601  1050.96  996.601  1050.7  995.869  1049.96  995.601  1048.96  995.869  1047.96  996.601  1047.23  997.601  1046.96  998.601  1047.23  " style="fill: none; stroke: purple; stroke-width: 0.500000; fill-type: evenodd"  fill-opacity="1.000000" />
   <path d="M 958.601  1047.23  959.333  1047.96  959.601  1048.96  959.333  1049.96  958.601  1050.7  957.601  1050.96  956.601  1050.7  955.869  1049.96  955.601  1048.96  955.869  1047.96  956.601  1047.23  957.601  1046.96  958.601  1047.23  " style="fill: none; stroke: purple; stroke-width: 0.500000; fill-type: evenodd"  fill-opacity="1.000000" />
   <path d="M 938.601  1047.23  939.333  1047.96  939.601  1048.96  939.333  1049.96  938.601  1050.7  937.601  1050.96  936.601  1050.7  935.869  1049.96  935.601  1048.96  935.869  1047.96  936.601  1047.23  937.601  1046.96  938.601  1047.23  " style="fill: none; stroke: purple; stroke-width: 0.500000; fill-type: evenodd"  fill-opacity="1.000000" />
   <path d="M 918.601  1047.23  919.333  1047.96  919.601  1048.96  919.333  1049.96  918.601  1050.7  917.601  1050.96  916.601  1050.7  915.869  1049.96  915.601  1048.96  915.869  1047.96  916.601  1047.23  917.601  1046.96  918.601  1047.23  " style="fill: none; stroke: purple; stroke-width: 0.500000; fill-type: evenodd"  fill-opacity="1.000000" />
   <path d="M 978.601  1047.23  979.333  1047.96  979.601  1048.96  979.333  1049.96  978.601  1050.7  977.601  1050.96  976.601  1050.7  975.869  1049.96  975.601  1048.96  975.869  1047.96  976.601  1047.23  977.601  1046.96  978.601  1047.23  " style="fill: none; stroke: purple; stroke-width: 0.500000; fill-type: evenodd"  fill-opacity="1.000000" />
   <path d="M 1099.77  1026.25  1100.73  1027.46  1101.07  1028.96  1100.73  1030.47  1099.77  1031.68  1098.37  1032.35  1096.83  1032.35  1095.44  1031.68  1094.47  1030.47  1094.13  1028.96  1094.47  1027.46  1095.44  1026.25  1096.83  1025.58  1098.37  1025.58  1099.77  1026.25  " style="fill: none; stroke: purple; stroke-width: 0.500000; fill-type: evenodd"  fill-opacity="1.000000" />
   <path d="M 1078.81  1026.88  1079.69  1027.76  1080.01  1028.96  1079.69  1030.17  1078.81  1031.05  1077.6  1031.38  1076.4  1031.05  1075.51  1030.17  1075.19  1028.96  1075.51  1027.76  1076.4  1026.88  1077.6  1026.55  1078.81  1026.88  " style="fill: none; stroke: purple; stroke-width: 0.500000; fill-type: evenodd"  fill-opacity="1.000000" />
   <path d="M 1058.81  1026.88  1059.69  1027.76  1060.01  1028.96  1059.69  1030.17  1058.81  1031.05  1057.6  1031.38  1056.4  1031.05  1055.51  1030.17  1055.19  1028.96  1055.51  1027.76  1056.4  1026.88  1057.6  1026.55  1058.81  1026.88  " style="fill: none; stroke: purple; stroke-width: 0.500000; fill-type: evenodd"  fill-opacity="1.000000" />
   <path d="M 1038.81  1026.88  1039.69  1027.76  1040.01  1028.96  1039.69  1030.17  1038.81  1031.05  1037.6  1031.38  1036.4  1031.05  1035.51  1030.17  1035.19  1028.96  1035.51  1027.76  1036.4  1026.88  1037.6  1026.55  1038.81  1026.88  " style="fill: none; stroke: purple; stroke-width: 0.500000; fill-type: evenodd"  fill-opacity="1.000000" />
   <path d="M 898.601  1027.23  899.333  1027.96  899.601  1028.96  899.333  1029.96  898.601  1030.7  897.601  1030.96  896.601  1030.7  895.869  1029.96  895.601  1028.96  895.869  1027.96  896.601  1027.23  897.601  1026.96  898.601  1027.23  " style="fill: none; stroke: purple; stroke-width: 0.500000; fill-type: evenodd"  fill-opacity="1.000000" />
   <path d="M 918.601  1027.23  919.333  1027.96  919.601  1028.96  919.333  1029.96  918.601  1030.7  917.601  1030.96  916.601  1030.7  915.869  1029.96  915.601  1028.96  915.869  1027.96  916.601  1027.23  917.601  1026.96  918.601  1027.23  " style="fill: none; stroke: purple; stroke-width: 0.500000; fill-type: evenodd"  fill-opacity="1.000000" />
   <path d="M 938.601  1027.23  939.333  1027.96  939.601  1028.96  939.333  1029.96  938.601  1030.7  937.601  1030.96  936.601  1030.7  935.869  1029.96  935.601  1028.96  935.869  1027.96  936.601  1027.23  937.601  1026.96  938.601  1027.23  " style="fill: none; stroke: purple; stroke-width: 0.500000; fill-type: evenodd"  fill-opacity="1.000000" />
   <path d="M 978.601  1027.23  979.333  1027.96  979.601  1028.96  979.333  1029.96  978.601  1030.7  977.601  1030.96  976.601  1030.7  975.869  1029.96  975.601  1028.96  975.869  1027.96  976.601  1027.23  977.601  1026.96  978.601  1027.23  " style="fill: none; stroke: purple; stroke-width: 0.500000; fill-type: evenodd"  fill-opacity="1.000000" />
   <path d="M 958.601  1027.23  959.333  1027.96  959.601  1028.96  959.333  1029.96  958.601  1030.7  957.601  1030.96  956.601  1030.7  955.869  1029.96  955.601  1028.96  955.869  1027.96  956.601  1027.23  957.601  1026.96  958.601  1027.23  " style="fill: none; stroke: purple; stroke-width: 0.500000; fill-type: evenodd"  fill-opacity="1.000000" />
   <path d="M 899.288  1006.52  900.23  1007.58  900.571  1008.96  900.23  1010.34  899.288  1011.41  897.959  1011.91  896.548  1011.74  895.378  1010.93  894.717  1009.68  894.717  1008.25  895.378  1007  896.548  1006.19  897.959  1006.02  899.288  1006.52  " style="fill: none; stroke: purple; stroke-width: 0.500000; fill-type: evenodd"  fill-opacity="1.000000" />
   <path d="M 1098.71  1007.05  1099.51  1007.86  1099.81  1008.96  1099.51  1010.07  1098.71  1010.88  1097.6  1011.17  1096.5  1010.88  1095.69  1010.07  1095.39  1008.96  1095.69  1007.86  1096.5  1007.05  1097.6  1006.76  1098.71  1007.05  " style="fill: none; stroke: purple; stroke-width: 0.500000; fill-type: evenodd"  fill-opacity="1.000000" />
   <path d="M 1078.6  1007.23  1079.33  1007.96  1079.6  1008.96  1079.33  1009.96  1078.6  1010.7  1077.6  1010.96  1076.6  1010.7  1075.87  1009.96  1075.6  1008.96  1075.87  1007.96  1076.6  1007.23  1077.6  1006.96  1078.6  1007.23  " style="fill: none; stroke: purple; stroke-width: 0.500000; fill-type: evenodd"  fill-opacity="1.000000" />
   <path d="M 1058.6  1007.23  1059.33  1007.96  1059.6  1008.96  1059.33  1009.96  1058.6  1010.7  1057.6  1010.96  1056.6  1010.7  1055.87  1009.96  1055.6  1008.96  1055.87  1007.96  1056.6  1007.23  1057.6  1006.96  1058.6  1007.23  " style="fill: none; stroke: purple; stroke-width: 0.500000; fill-type: evenodd"  fill-opacity="1.000000" />
   <path d="M 1038.6  1007.23  1039.33  1007.96  1039.6  1008.96  1039.33  1009.96  1038.6  1010.7  1037.6  1010.96  1036.6  1010.7  1035.87  1009.96  1035.6  1008.96  1035.87  1007.96  1036.6  1007.23  1037.6  1006.96  1038.6  1007.23  " style="fill: none; stroke: purple; stroke-width: 0.500000; fill-type: evenodd"  fill-opacity="1.000000" />
   <path d="M 938.601  1007.23  939.333  1007.96  939.601  1008.96  939.333  1009.96  938.601  1010.7  937.601  1010.96  936.601  1010.7  935.869  1009.96  935.601  1008.96  935.869  1007.96  936.601  1007.23  937.601  1006.96  938.601  1007.23  " style="fill: none; stroke: purple; stroke-width: 0.500000; fill-type: evenodd"  fill-opacity="1.000000" />
   <path d="M 918.601  1007.23  919.333  1007.96  919.601  1008.96  919.333  1009.96  918.601  1010.7  917.601  1010.96  916.601  1010.7  915.869  1009.96  915.601  1008.96  915.869  1007.96  916.601  1007.23  917.601  1006.96  918.601  1007.23  " style="fill: none; stroke: purple; stroke-width: 0.500000; fill-type: evenodd"  fill-opacity="1.000000" />
   <path d="M 958.432  1007.15  959.283  1007.88  959.601  1008.96  959.283  1010.05  958.432  1010.78  957.316  1010.94  956.291  1010.48  955.682  1009.53  955.682  1008.4  956.291  1007.45  957.316  1006.99  958.432  1007.15  " style="fill: none; stroke: purple; stroke-width: 0.500000; fill-type: evenodd"  fill-opacity="1.000000" />
   <path d="M 938.722  985.515  940.028  986.269  940.914  987.49  941.228  988.965  940.914  990.44  940.028  991.66  938.722  992.414  937.222  992.572  935.787  992.106  934.667  991.097  934.053  989.719  934.053  988.211  934.667  986.833  935.787  985.824  937.222  985.358  938.722  985.515  " style="fill: none; stroke: purple; stroke-width: 0.500000; fill-type: evenodd"  fill-opacity="1.000000" />
   <path d="M 1078.6  987.233  1079.33  987.965  1079.6  988.965  1079.33  989.965  1078.6  990.697  1077.6  990.965  1076.6  990.697  1075.87  989.965  1075.6  988.965  1075.87  987.965  1076.6  987.233  1077.6  986.965  1078.6  987.233  " style="fill: none; stroke: purple; stroke-width: 0.500000; fill-type: evenodd"  fill-opacity="1.000000" />
   <path d="M 1098.6  987.233  1099.33  987.965  1099.6  988.965  1099.33  989.965  1098.6  990.697  1097.6  990.965  1096.6  990.697  1095.87  989.965  1095.6  988.965  1095.87  987.965  1096.6  987.233  1097.6  986.965  1098.6  987.233  " style="fill: none; stroke: purple; stroke-width: 0.500000; fill-type: evenodd"  fill-opacity="1.000000" />
   <path d="M 1018.83  988.775  1019.5  989.339  1019.33  989.965  1018.6  990.697  1017.6  990.965  1016.6  990.697  1015.87  989.965  1015.6  988.965  1015.87  987.965  1016.6  987.233  1017.46  987.003  1018.83  988.775  " style="fill: none; stroke: purple; stroke-width: 0.500000; fill-type: evenodd"  fill-opacity="1.000000" />
   <path d="M 960.125  964.593  961.468  965.72  962.344  967.238  962.648  968.965  962.344  970.691  961.468  972.209  960.125  973.336  958.477  973.936  956.724  973.936  955.077  973.336  953.734  972.209  952.858  970.691  952.553  968.965  952.858  967.238  953.734  965.72  955.077  964.593  956.724  963.994  958.477  963.994  960.125  964.593  " style="fill: none; stroke: purple; stroke-width: 0.500000; fill-type: evenodd"  fill-opacity="1.000000" />
   <path d="M 998.601  967.233  999.333  967.965  999.601  968.965  999.333  969.965  998.601  970.697  997.601  970.965  996.601  970.697  995.869  969.965  995.601  968.965  995.869  967.965  996.601  967.233  997.601  966.965  998.601  967.233  " style="fill: none; stroke: purple; stroke-width: 0.500000; fill-type: evenodd"  fill-opacity="1.000000" />
   <path d="M 979.765  946.251  980.728  947.459  981.072  948.965  980.728  950.471  979.765  951.679  978.373  952.349  976.828  952.349  975.437  951.679  974.473  950.471  974.13  948.965  974.473  947.459  975.437  946.251  976.828  945.581  978.373  945.581  979.765  946.251  " style="fill: none; stroke: purple; stroke-width: 0.500000; fill-type: evenodd"  fill-opacity="1.000000" />
   <path d="M 998.601  947.233  999.333  947.965  999.601  948.965  999.333  949.965  998.601  950.697  997.601  950.965  996.601  950.697  995.869  949.965  995.601  948.965  995.869  947.965  996.601  947.233  997.601  946.965  998.601  947.233  " style="fill: none; stroke: purple; stroke-width: 0.500000; fill-type: evenodd"  fill-opacity="1.000000" />
   <path d="M 1018.6  927.233  1019.33  927.965  1019.6  928.965  1019.33  929.965  1018.6  930.697  1017.6  930.965  1016.6  930.697  1015.87  929.965  1015.6  928.965  1015.87  927.965  1016.6  927.233  1017.6  926.965  1018.6  927.233  " style="fill: none; stroke: purple; stroke-width: 0.500000; fill-type: evenodd"  fill-opacity="1.000000" />
   <path d="M 998.601  927.233  999.333  927.965  999.601  928.965  999.333  929.965  998.601  930.697  997.601  930.965  996.601  930.697  995.869  929.965  995.601  928.965  995.869  927.965  996.601  927.233  997.601  926.965  998.601  927.233  " style="fill: none; stroke: purple; stroke-width: 0.500000; fill-type: evenodd"  fill-opacity="1.000000" />
   <path d="M 999.186  906.669  1000.07  907.668  1000.39  908.965  1000.07  910.261  999.186  911.261  997.937  911.735  996.611  911.574  995.512  910.815  994.892  909.633  994.892  908.297  995.512  907.115  996.611  906.356  997.937  906.195  999.186  906.669  " style="fill: none; stroke: purple; stroke-width: 0.500000; fill-type: evenodd"  fill-opacity="1.000000" />
   <path d="M 1038.6  907.233  1039.33  907.965  1039.6  908.965  1039.33  909.965  1038.6  910.697  1037.6  910.965  1036.6  910.697  1035.87  909.965  1035.6  908.965  1035.87  907.965  1036.6  907.233  1037.6  906.965  1038.6  907.233  " style="fill: none; stroke: purple; stroke-width: 0.500000; fill-type: evenodd"  fill-opacity="1.000000" />
   <path d="M 1018.6  907.233  1019.33  907.965  1019.6  908.965  1019.33  909.965  1018.6  910.697  1017.6  910.965  1016.6  910.697  1015.87  909.965  1015.6  908.965  1015.87  907.965  1016.6  907.233  1017.6  906.965  1018.6  907.233  " style="fill: none; stroke: purple; stroke-width: 0.500000; fill-type: evenodd"  fill-opacity="1.000000" />
</svg>
