<?xml version="1.0" encoding="UTF-8" standalone="yes"?>
<!DOCTYPE svg PUBLIC "-//W3C//DTD SVG 1.0//EN" "http://www.w3.org/TR/2001/REC-SVG-20010904/DTD/svg10.dtd">
<svg height="2000" width="2000" xmlns="http://www.w3.org/2000/svg" xmlns:svg="http://www.w3.org/2000/svg" xmlns:xlink="http://www.w3.org/1999/xlink">
   <marker id="endArrow" markerHeight="8" markerUnits="strokeWidth" markerWidth="10" orient="auto" refX="1" refY="5" viewBox="0 0 1000 1000">
      <polyline fill="darkblue" points="0,0 10,5 0,10 1,5" />
   </marker>
   <circle cx="1000" cy="1000" r="1" style="stroke:black; fill: red" />
   <circle cx="1000" cy="1000" r="800" style="stroke:black; fill: none" />
   <line x1="840.506470" y1="1331.692505" x2="807.476257" y2="1331.692505" style="stroke: green; stroke-width: 0.200000"/>
   <line x1="840.064697" y1="1330.692383" x2="806.584778" y2="1330.692383" style="stroke: green; stroke-width: 0.200000"/>
   <line x1="839.622803" y1="1329.692505" x2="805.693481" y2="1329.692505" style="stroke: green; stroke-width: 0.200000"/>
   <line x1="839.180969" y1="1328.692505" x2="804.753967" y2="1328.692505" style="stroke: green; stroke-width: 0.200000"/>
   <line x1="838.739136" y1="1327.692383" x2="803.721985" y2="1327.692383" style="stroke: green; stroke-width: 0.200000"/>
   <line x1="838.364014" y1="1326.692505" x2="802.690063" y2="1326.692505" style="stroke: green; stroke-width: 0.200000"/>
   <line x1="837.989136" y1="1325.692383" x2="801.657959" y2="1325.692383" style="stroke: green; stroke-width: 0.200000"/>
   <line x1="837.614197" y1="1324.692505" x2="800.626099" y2="1324.692505" style="stroke: green; stroke-width: 0.200000"/>
   <line x1="837.239380" y1="1323.692505" x2="799.594116" y2="1323.692505" style="stroke: green; stroke-width: 0.200000"/>
   <line x1="836.864502" y1="1322.692383" x2="798.562134" y2="1322.692383" style="stroke: green; stroke-width: 0.200000"/>
   <line x1="836.489563" y1="1321.692505" x2="797.842651" y2="1321.692505" style="stroke: green; stroke-width: 0.200000"/>
   <line x1="836.114746" y1="1320.692383" x2="797.502991" y2="1320.692383" style="stroke: green; stroke-width: 0.200000"/>
   <line x1="835.739807" y1="1319.692505" x2="797.163391" y2="1319.692505" style="stroke: green; stroke-width: 0.200000"/>
   <line x1="835.364929" y1="1318.692505" x2="796.823792" y2="1318.692505" style="stroke: green; stroke-width: 0.200000"/>
   <line x1="834.990112" y1="1317.692383" x2="796.484924" y2="1317.692383" style="stroke: green; stroke-width: 0.200000"/>
   <line x1="834.539307" y1="1316.692505" x2="796.145264" y2="1316.692505" style="stroke: green; stroke-width: 0.200000"/>
   <line x1="834.177246" y1="1315.692383" x2="795.805664" y2="1315.692383" style="stroke: green; stroke-width: 0.200000"/>
   <line x1="833.815247" y1="1314.692505" x2="795.466003" y2="1314.692505" style="stroke: green; stroke-width: 0.200000"/>
   <line x1="833.453247" y1="1313.692505" x2="795.126465" y2="1313.692505" style="stroke: green; stroke-width: 0.200000"/>
   <line x1="833.091125" y1="1312.692383" x2="795.231262" y2="1312.692383" style="stroke: green; stroke-width: 0.200000"/>
   <line x1="832.727783" y1="1311.692505" x2="795.427124" y2="1311.692505" style="stroke: green; stroke-width: 0.200000"/>
   <line x1="832.358704" y1="1310.692383" x2="795.622253" y2="1310.692383" style="stroke: green; stroke-width: 0.200000"/>
   <line x1="831.989685" y1="1309.692505" x2="795.817383" y2="1309.692505" style="stroke: green; stroke-width: 0.200000"/>
   <line x1="831.620605" y1="1308.692505" x2="796.012634" y2="1308.692505" style="stroke: green; stroke-width: 0.200000"/>
   <line x1="831.251587" y1="1307.692383" x2="796.207825" y2="1307.692383" style="stroke: green; stroke-width: 0.200000"/>
   <line x1="830.882568" y1="1306.692505" x2="796.402954" y2="1306.692505" style="stroke: green; stroke-width: 0.200000"/>
   <line x1="830.513550" y1="1305.692383" x2="796.598206" y2="1305.692383" style="stroke: green; stroke-width: 0.200000"/>
   <line x1="830.217590" y1="1304.692505" x2="796.793335" y2="1304.692505" style="stroke: green; stroke-width: 0.200000"/>
   <line x1="829.815613" y1="1303.692505" x2="796.814636" y2="1303.692505" style="stroke: green; stroke-width: 0.200000"/>
   <line x1="829.357239" y1="1302.692383" x2="796.817322" y2="1302.692383" style="stroke: green; stroke-width: 0.200000"/>
   <line x1="828.898926" y1="1301.692505" x2="796.953186" y2="1301.692505" style="stroke: green; stroke-width: 0.200000"/>
   <line x1="828.440613" y1="1300.692383" x2="797.266968" y2="1300.692383" style="stroke: green; stroke-width: 0.200000"/>
   <line x1="827.982300" y1="1299.692505" x2="797.883789" y2="1299.692505" style="stroke: green; stroke-width: 0.200000"/>
   <line x1="827.524048" y1="1298.692505" x2="798.500488" y2="1298.692505" style="stroke: green; stroke-width: 0.200000"/>
   <line x1="827.065735" y1="1297.692383" x2="799.117310" y2="1297.692383" style="stroke: green; stroke-width: 0.200000"/>
   <line x1="826.607422" y1="1296.692505" x2="799.734009" y2="1296.692505" style="stroke: green; stroke-width: 0.200000"/>
   <line x1="826.149170" y1="1295.692383" x2="800.350708" y2="1295.692383" style="stroke: green; stroke-width: 0.200000"/>
   <line x1="825.690857" y1="1294.692505" x2="800.967468" y2="1294.692505" style="stroke: green; stroke-width: 0.200000"/>
   <line x1="825.262817" y1="1293.692505" x2="801.584229" y2="1293.692505" style="stroke: green; stroke-width: 0.200000"/>
   <line x1="824.847717" y1="1292.692383" x2="802.200989" y2="1292.692383" style="stroke: green; stroke-width: 0.200000"/>
   <line x1="824.432678" y1="1291.692505" x2="802.776184" y2="1291.692505" style="stroke: green; stroke-width: 0.200000"/>
   <line x1="824.017578" y1="1290.692383" x2="803.235779" y2="1290.692383" style="stroke: green; stroke-width: 0.200000"/>
   <line x1="823.577942" y1="1289.692505" x2="803.906128" y2="1289.692505" style="stroke: green; stroke-width: 0.200000"/>
   <line x1="822.766357" y1="1288.692505" x2="804.755249" y2="1288.692505" style="stroke: green; stroke-width: 0.200000"/>
   <line x1="821.954712" y1="1287.692383" x2="805.604309" y2="1287.692383" style="stroke: green; stroke-width: 0.200000"/>
   <line x1="821.143066" y1="1286.692505" x2="806.453369" y2="1286.692505" style="stroke: green; stroke-width: 0.200000"/>
   <line x1="820.331421" y1="1285.692383" x2="807.302490" y2="1285.692383" style="stroke: green; stroke-width: 0.200000"/>
   <line x1="819.420837" y1="1284.692505" x2="808.151611" y2="1284.692505" style="stroke: green; stroke-width: 0.200000"/>
   <line x1="818.481995" y1="1283.692505" x2="809.000732" y2="1283.692505" style="stroke: green; stroke-width: 0.200000"/>
   <line x1="817.543091" y1="1282.692383" x2="809.849792" y2="1282.692383" style="stroke: green; stroke-width: 0.200000"/>
   <line x1="845.069519" y1="1377.692383" x2="839.721802" y2="1377.692383" style="stroke: green; stroke-width: 0.200000"/>
   <line x1="845.069519" y1="1376.692505" x2="838.721802" y2="1376.692505" style="stroke: green; stroke-width: 0.200000"/>
   <line x1="845.069519" y1="1375.692383" x2="837.721619" y2="1375.692383" style="stroke: green; stroke-width: 0.200000"/>
   <line x1="845.069519" y1="1374.692505" x2="836.721863" y2="1374.692505" style="stroke: green; stroke-width: 0.200000"/>
   <line x1="845.069519" y1="1373.692505" x2="835.721802" y2="1373.692505" style="stroke: green; stroke-width: 0.200000"/>
   <line x1="845.069519" y1="1372.692383" x2="834.662231" y2="1372.692383" style="stroke: green; stroke-width: 0.200000"/>
   <line x1="845.069519" y1="1371.692505" x2="833.655029" y2="1371.692505" style="stroke: green; stroke-width: 0.200000"/>
   <line x1="845.069519" y1="1370.692383" x2="833.077393" y2="1370.692383" style="stroke: green; stroke-width: 0.200000"/>
   <line x1="845.069519" y1="1369.692505" x2="832.535706" y2="1369.692505" style="stroke: green; stroke-width: 0.200000"/>
   <line x1="845.069519" y1="1368.692505" x2="832.006165" y2="1368.692505" style="stroke: green; stroke-width: 0.200000"/>
   <line x1="845.069519" y1="1367.692383" x2="831.476685" y2="1367.692383" style="stroke: green; stroke-width: 0.200000"/>
   <line x1="845.069519" y1="1366.692505" x2="830.947144" y2="1366.692505" style="stroke: green; stroke-width: 0.200000"/>
   <line x1="845.069519" y1="1365.692383" x2="830.417603" y2="1365.692383" style="stroke: green; stroke-width: 0.200000"/>
   <line x1="845.069519" y1="1364.692505" x2="829.888062" y2="1364.692505" style="stroke: green; stroke-width: 0.200000"/>
   <line x1="845.069519" y1="1363.692505" x2="829.358582" y2="1363.692505" style="stroke: green; stroke-width: 0.200000"/>
   <line x1="845.069519" y1="1362.692383" x2="828.822388" y2="1362.692383" style="stroke: green; stroke-width: 0.200000"/>
   <line x1="845.069519" y1="1361.692505" x2="828.243774" y2="1361.692505" style="stroke: green; stroke-width: 0.200000"/>
   <line x1="845.069519" y1="1360.692383" x2="827.665039" y2="1360.692383" style="stroke: green; stroke-width: 0.200000"/>
   <line x1="845.069519" y1="1359.692505" x2="827.086182" y2="1359.692505" style="stroke: green; stroke-width: 0.200000"/>
   <line x1="845.069519" y1="1358.692505" x2="826.507568" y2="1358.692505" style="stroke: green; stroke-width: 0.200000"/>
   <line x1="845.069519" y1="1357.692383" x2="825.928894" y2="1357.692383" style="stroke: green; stroke-width: 0.200000"/>
   <line x1="845.069519" y1="1356.692505" x2="825.350281" y2="1356.692505" style="stroke: green; stroke-width: 0.200000"/>
   <line x1="845.069519" y1="1355.692383" x2="824.771667" y2="1355.692383" style="stroke: green; stroke-width: 0.200000"/>
   <line x1="845.069519" y1="1354.692505" x2="824.232239" y2="1354.692505" style="stroke: green; stroke-width: 0.200000"/>
   <line x1="845.069519" y1="1353.692505" x2="823.711060" y2="1353.692505" style="stroke: green; stroke-width: 0.200000"/>
   <line x1="845.069519" y1="1352.692383" x2="823.152771" y2="1352.692383" style="stroke: green; stroke-width: 0.200000"/>
   <line x1="845.069519" y1="1351.692505" x2="822.585449" y2="1351.692505" style="stroke: green; stroke-width: 0.200000"/>
   <line x1="845.069519" y1="1350.692383" x2="821.880188" y2="1350.692383" style="stroke: green; stroke-width: 0.200000"/>
   <line x1="845.069519" y1="1349.692505" x2="821.175049" y2="1349.692505" style="stroke: green; stroke-width: 0.200000"/>
   <line x1="845.069519" y1="1348.692505" x2="820.469849" y2="1348.692505" style="stroke: green; stroke-width: 0.200000"/>
   <line x1="844.989929" y1="1347.692383" x2="819.764526" y2="1347.692383" style="stroke: green; stroke-width: 0.200000"/>
   <line x1="844.764709" y1="1346.692505" x2="819.059326" y2="1346.692505" style="stroke: green; stroke-width: 0.200000"/>
   <line x1="844.491821" y1="1345.692383" x2="818.354126" y2="1345.692383" style="stroke: green; stroke-width: 0.200000"/>
   <line x1="844.188293" y1="1344.692505" x2="817.648682" y2="1344.692505" style="stroke: green; stroke-width: 0.200000"/>
   <line x1="843.884827" y1="1343.692505" x2="816.951050" y2="1343.692505" style="stroke: green; stroke-width: 0.200000"/>
   <line x1="843.581238" y1="1342.692383" x2="816.263672" y2="1342.692383" style="stroke: green; stroke-width: 0.200000"/>
   <line x1="843.277710" y1="1341.692505" x2="815.576233" y2="1341.692505" style="stroke: green; stroke-width: 0.200000"/>
   <line x1="842.974243" y1="1340.692383" x2="814.888855" y2="1340.692383" style="stroke: green; stroke-width: 0.200000"/>
   <line x1="842.670654" y1="1339.692505" x2="814.201294" y2="1339.692505" style="stroke: green; stroke-width: 0.200000"/>
   <line x1="842.367188" y1="1338.692505" x2="813.513733" y2="1338.692505" style="stroke: green; stroke-width: 0.200000"/>
   <line x1="842.063660" y1="1337.692383" x2="812.826294" y2="1337.692383" style="stroke: green; stroke-width: 0.200000"/>
   <line x1="841.760254" y1="1336.692505" x2="812.018982" y2="1336.692505" style="stroke: green; stroke-width: 0.200000"/>
   <line x1="841.513977" y1="1335.692383" x2="811.068665" y2="1335.692383" style="stroke: green; stroke-width: 0.200000"/>
   <line x1="841.272705" y1="1334.692505" x2="810.150146" y2="1334.692505" style="stroke: green; stroke-width: 0.200000"/>
   <line x1="841.031494" y1="1333.692505" x2="809.258911" y2="1333.692505" style="stroke: green; stroke-width: 0.200000"/>
   <line x1="840.790283" y1="1332.692383" x2="808.367554" y2="1332.692383" style="stroke: green; stroke-width: 0.200000"/>
   <line x1="849.520142" y1="1377.692383" x2="845.169556" y2="1377.692383" style="stroke: green; stroke-width: 0.200000"/>
   <line x1="849.477295" y1="1376.692505" x2="845.169556" y2="1376.692505" style="stroke: green; stroke-width: 0.200000"/>
   <line x1="849.434265" y1="1375.692383" x2="845.169556" y2="1375.692383" style="stroke: green; stroke-width: 0.200000"/>
   <line x1="849.391235" y1="1374.692505" x2="845.169556" y2="1374.692505" style="stroke: green; stroke-width: 0.200000"/>
   <line x1="849.348450" y1="1373.692505" x2="845.169556" y2="1373.692505" style="stroke: green; stroke-width: 0.200000"/>
   <line x1="849.306152" y1="1372.692383" x2="845.169556" y2="1372.692383" style="stroke: green; stroke-width: 0.200000"/>
   <line x1="849.275208" y1="1371.692505" x2="845.169556" y2="1371.692505" style="stroke: green; stroke-width: 0.200000"/>
   <line x1="849.244141" y1="1370.692383" x2="845.169556" y2="1370.692383" style="stroke: green; stroke-width: 0.200000"/>
   <line x1="849.213013" y1="1369.692505" x2="845.169556" y2="1369.692505" style="stroke: green; stroke-width: 0.200000"/>
   <line x1="849.181885" y1="1368.692505" x2="845.169556" y2="1368.692505" style="stroke: green; stroke-width: 0.200000"/>
   <line x1="849.150879" y1="1367.692383" x2="845.169556" y2="1367.692383" style="stroke: green; stroke-width: 0.200000"/>
   <line x1="849.070190" y1="1366.692505" x2="845.169556" y2="1366.692505" style="stroke: green; stroke-width: 0.200000"/>
   <line x1="848.976318" y1="1365.692383" x2="845.169556" y2="1365.692383" style="stroke: green; stroke-width: 0.200000"/>
   <line x1="848.882446" y1="1364.692505" x2="845.169556" y2="1364.692505" style="stroke: green; stroke-width: 0.200000"/>
   <line x1="848.788574" y1="1363.692505" x2="845.169556" y2="1363.692505" style="stroke: green; stroke-width: 0.200000"/>
   <line x1="848.642639" y1="1362.692383" x2="845.169556" y2="1362.692383" style="stroke: green; stroke-width: 0.200000"/>
   <line x1="848.411560" y1="1361.692505" x2="845.169556" y2="1361.692505" style="stroke: green; stroke-width: 0.200000"/>
   <line x1="848.180420" y1="1360.692383" x2="845.169556" y2="1360.692383" style="stroke: green; stroke-width: 0.200000"/>
   <line x1="847.949280" y1="1359.692505" x2="845.169556" y2="1359.692505" style="stroke: green; stroke-width: 0.200000"/>
   <line x1="847.718201" y1="1358.692505" x2="845.169556" y2="1358.692505" style="stroke: green; stroke-width: 0.200000"/>
   <line x1="847.486938" y1="1357.692383" x2="845.169556" y2="1357.692383" style="stroke: green; stroke-width: 0.200000"/>
   <line x1="847.250305" y1="1356.692505" x2="845.169556" y2="1356.692505" style="stroke: green; stroke-width: 0.200000"/>
   <line x1="846.999146" y1="1355.692383" x2="845.169556" y2="1355.692383" style="stroke: green; stroke-width: 0.200000"/>
   <line x1="846.747925" y1="1354.692505" x2="845.169556" y2="1354.692505" style="stroke: green; stroke-width: 0.200000"/>
   <line x1="846.496704" y1="1353.692505" x2="845.169556" y2="1353.692505" style="stroke: green; stroke-width: 0.200000"/>
   <line x1="846.245605" y1="1352.692383" x2="845.169556" y2="1352.692383" style="stroke: green; stroke-width: 0.200000"/>
   <line x1="845.994507" y1="1351.692505" x2="845.169556" y2="1351.692505" style="stroke: green; stroke-width: 0.200000"/>
   <line x1="845.743347" y1="1350.692383" x2="845.169556" y2="1350.692383" style="stroke: green; stroke-width: 0.200000"/>
   <line x1="845.492188" y1="1349.692505" x2="845.169556" y2="1349.692505" style="stroke: green; stroke-width: 0.200000"/>
   <line x1="845.241028" y1="1348.692505" x2="845.169556" y2="1348.692505" style="stroke: green; stroke-width: 0.200000"/>
   <line x1="961.649780" y1="1227.784058" x2="945.578918" y2="1227.784058" style="stroke: green; stroke-width: 0.200000"/>
   <line x1="961.649780" y1="1226.783936" x2="944.020142" y2="1226.783936" style="stroke: green; stroke-width: 0.200000"/>
   <line x1="961.649780" y1="1225.783936" x2="942.461426" y2="1225.783936" style="stroke: green; stroke-width: 0.200000"/>
   <line x1="961.649780" y1="1224.784058" x2="940.902649" y2="1224.784058" style="stroke: green; stroke-width: 0.200000"/>
   <line x1="961.649780" y1="1223.784058" x2="939.312134" y2="1223.784058" style="stroke: green; stroke-width: 0.200000"/>
   <line x1="961.649780" y1="1222.784058" x2="937.860474" y2="1222.784058" style="stroke: green; stroke-width: 0.200000"/>
   <line x1="961.649780" y1="1221.783936" x2="936.656494" y2="1221.783936" style="stroke: green; stroke-width: 0.200000"/>
   <line x1="961.649780" y1="1220.783936" x2="935.452515" y2="1220.783936" style="stroke: green; stroke-width: 0.200000"/>
   <line x1="961.649780" y1="1219.784058" x2="934.248535" y2="1219.784058" style="stroke: green; stroke-width: 0.200000"/>
   <line x1="961.649780" y1="1218.784058" x2="933.044495" y2="1218.784058" style="stroke: green; stroke-width: 0.200000"/>
   <line x1="961.649780" y1="1217.784058" x2="931.840515" y2="1217.784058" style="stroke: green; stroke-width: 0.200000"/>
   <line x1="961.649780" y1="1216.783936" x2="930.613647" y2="1216.783936" style="stroke: green; stroke-width: 0.200000"/>
   <line x1="961.649780" y1="1215.783936" x2="929.381409" y2="1215.783936" style="stroke: green; stroke-width: 0.200000"/>
   <line x1="961.649780" y1="1214.784058" x2="928.149170" y2="1214.784058" style="stroke: green; stroke-width: 0.200000"/>
   <line x1="961.649780" y1="1213.784058" x2="926.916870" y2="1213.784058" style="stroke: green; stroke-width: 0.200000"/>
   <line x1="961.649780" y1="1212.784058" x2="925.757690" y2="1212.784058" style="stroke: green; stroke-width: 0.200000"/>
   <line x1="961.649780" y1="1211.783936" x2="924.813538" y2="1211.783936" style="stroke: green; stroke-width: 0.200000"/>
   <line x1="961.649780" y1="1210.783936" x2="923.869324" y2="1210.783936" style="stroke: green; stroke-width: 0.200000"/>
   <line x1="961.649780" y1="1209.784058" x2="922.925171" y2="1209.784058" style="stroke: green; stroke-width: 0.200000"/>
   <line x1="961.649780" y1="1208.784058" x2="922.001831" y2="1208.784058" style="stroke: green; stroke-width: 0.200000"/>
   <line x1="961.142639" y1="1207.784058" x2="921.086670" y2="1207.784058" style="stroke: green; stroke-width: 0.200000"/>
   <line x1="960.065552" y1="1206.783936" x2="920.171509" y2="1206.783936" style="stroke: green; stroke-width: 0.200000"/>
   <line x1="958.988586" y1="1205.783936" x2="919.256348" y2="1205.783936" style="stroke: green; stroke-width: 0.200000"/>
   <line x1="957.861206" y1="1204.784058" x2="918.341187" y2="1204.784058" style="stroke: green; stroke-width: 0.200000"/>
   <line x1="956.723267" y1="1203.784058" x2="917.412415" y2="1203.784058" style="stroke: green; stroke-width: 0.200000"/>
   <line x1="955.585022" y1="1202.784058" x2="916.478638" y2="1202.784058" style="stroke: green; stroke-width: 0.200000"/>
   <line x1="954.674194" y1="1201.783936" x2="915.651367" y2="1201.783936" style="stroke: green; stroke-width: 0.200000"/>
   <line x1="953.859741" y1="1200.783936" x2="915.177856" y2="1200.783936" style="stroke: green; stroke-width: 0.200000"/>
   <line x1="953.045288" y1="1199.784058" x2="914.704346" y2="1199.784058" style="stroke: green; stroke-width: 0.200000"/>
   <line x1="952.233154" y1="1198.784058" x2="914.230835" y2="1198.784058" style="stroke: green; stroke-width: 0.200000"/>
   <line x1="951.436707" y1="1197.784058" x2="913.757324" y2="1197.784058" style="stroke: green; stroke-width: 0.200000"/>
   <line x1="950.640198" y1="1196.783936" x2="913.292786" y2="1196.783936" style="stroke: green; stroke-width: 0.200000"/>
   <line x1="949.843628" y1="1195.783936" x2="912.830139" y2="1195.783936" style="stroke: green; stroke-width: 0.200000"/>
   <line x1="949.047119" y1="1194.784058" x2="912.367554" y2="1194.784058" style="stroke: green; stroke-width: 0.200000"/>
   <line x1="948.250610" y1="1193.784058" x2="911.904907" y2="1193.784058" style="stroke: green; stroke-width: 0.200000"/>
   <line x1="947.472229" y1="1192.784058" x2="911.715759" y2="1192.784058" style="stroke: green; stroke-width: 0.200000"/>
   <line x1="946.695618" y1="1191.783936" x2="911.862915" y2="1191.783936" style="stroke: green; stroke-width: 0.200000"/>
   <line x1="945.903320" y1="1190.783936" x2="912.010193" y2="1190.783936" style="stroke: green; stroke-width: 0.200000"/>
   <line x1="945.071899" y1="1189.784058" x2="912.157349" y2="1189.784058" style="stroke: green; stroke-width: 0.200000"/>
   <line x1="944.240601" y1="1188.784058" x2="912.304565" y2="1188.784058" style="stroke: green; stroke-width: 0.200000"/>
   <line x1="943.408813" y1="1187.784058" x2="912.451721" y2="1187.784058" style="stroke: green; stroke-width: 0.200000"/>
   <line x1="942.584167" y1="1186.783936" x2="912.598877" y2="1186.783936" style="stroke: green; stroke-width: 0.200000"/>
   <line x1="941.785034" y1="1185.783936" x2="912.746033" y2="1185.783936" style="stroke: green; stroke-width: 0.200000"/>
   <line x1="940.986023" y1="1184.784058" x2="913.594910" y2="1184.784058" style="stroke: green; stroke-width: 0.200000"/>
   <line x1="940.185547" y1="1183.784058" x2="914.587463" y2="1183.784058" style="stroke: green; stroke-width: 0.200000"/>
   <line x1="939.178772" y1="1182.784058" x2="915.580078" y2="1182.784058" style="stroke: green; stroke-width: 0.200000"/>
   <line x1="937.766113" y1="1181.783936" x2="916.572632" y2="1181.783936" style="stroke: green; stroke-width: 0.200000"/>
   <line x1="935.270020" y1="1180.783936" x2="917.565186" y2="1180.783936" style="stroke: green; stroke-width: 0.200000"/>
   <line x1="932.769897" y1="1179.784058" x2="919.080566" y2="1179.784058" style="stroke: green; stroke-width: 0.200000"/>
   <line x1="929.776306" y1="1178.784058" x2="923.625549" y2="1178.784058" style="stroke: green; stroke-width: 0.200000"/>
   <line x1="991.053955" y1="1227.784058" x2="961.749817" y2="1227.784058" style="stroke: green; stroke-width: 0.200000"/>
   <line x1="989.177490" y1="1226.783936" x2="961.749817" y2="1226.783936" style="stroke: green; stroke-width: 0.200000"/>
   <line x1="987.752808" y1="1225.783936" x2="961.749817" y2="1225.783936" style="stroke: green; stroke-width: 0.200000"/>
   <line x1="986.154541" y1="1224.784058" x2="961.749817" y2="1224.784058" style="stroke: green; stroke-width: 0.200000"/>
   <line x1="984.360901" y1="1223.784058" x2="961.749817" y2="1223.784058" style="stroke: green; stroke-width: 0.200000"/>
   <line x1="982.567139" y1="1222.784058" x2="961.749817" y2="1222.784058" style="stroke: green; stroke-width: 0.200000"/>
   <line x1="980.908936" y1="1221.783936" x2="961.749817" y2="1221.783936" style="stroke: green; stroke-width: 0.200000"/>
   <line x1="979.298157" y1="1220.783936" x2="961.749817" y2="1220.783936" style="stroke: green; stroke-width: 0.200000"/>
   <line x1="977.373108" y1="1219.784058" x2="961.749817" y2="1219.784058" style="stroke: green; stroke-width: 0.200000"/>
   <line x1="975.957336" y1="1218.784058" x2="961.749817" y2="1218.784058" style="stroke: green; stroke-width: 0.200000"/>
   <line x1="974.541565" y1="1217.784058" x2="961.749817" y2="1217.784058" style="stroke: green; stroke-width: 0.200000"/>
   <line x1="973.125671" y1="1216.783936" x2="961.749817" y2="1216.783936" style="stroke: green; stroke-width: 0.200000"/>
   <line x1="971.672485" y1="1215.783936" x2="961.749817" y2="1215.783936" style="stroke: green; stroke-width: 0.200000"/>
   <line x1="970.117493" y1="1214.784058" x2="961.749817" y2="1214.784058" style="stroke: green; stroke-width: 0.200000"/>
   <line x1="968.562561" y1="1213.784058" x2="961.749817" y2="1213.784058" style="stroke: green; stroke-width: 0.200000"/>
   <line x1="967.007568" y1="1212.784058" x2="961.749817" y2="1212.784058" style="stroke: green; stroke-width: 0.200000"/>
   <line x1="965.461548" y1="1211.783936" x2="961.749817" y2="1211.783936" style="stroke: green; stroke-width: 0.200000"/>
   <line x1="964.401794" y1="1210.783936" x2="961.749817" y2="1210.783936" style="stroke: green; stroke-width: 0.200000"/>
   <line x1="963.296875" y1="1209.784058" x2="961.749817" y2="1209.784058" style="stroke: green; stroke-width: 0.200000"/>
   <line x1="962.219788" y1="1208.784058" x2="961.749817" y2="1208.784058" style="stroke: green; stroke-width: 0.200000"/>
   <line x1="961.649780" y1="1235.783936" x2="960.696777" y2="1235.783936" style="stroke: green; stroke-width: 0.200000"/>
   <line x1="961.649780" y1="1234.784058" x2="958.292114" y2="1234.784058" style="stroke: green; stroke-width: 0.200000"/>
   <line x1="961.649780" y1="1233.784058" x2="956.171387" y2="1233.784058" style="stroke: green; stroke-width: 0.200000"/>
   <line x1="961.649780" y1="1232.784058" x2="954.451355" y2="1232.784058" style="stroke: green; stroke-width: 0.200000"/>
   <line x1="961.649780" y1="1231.783936" x2="952.731018" y2="1231.783936" style="stroke: green; stroke-width: 0.200000"/>
   <line x1="961.649780" y1="1230.783936" x2="950.910889" y2="1230.783936" style="stroke: green; stroke-width: 0.200000"/>
   <line x1="961.649780" y1="1229.784058" x2="949.061523" y2="1229.784058" style="stroke: green; stroke-width: 0.200000"/>
   <line x1="961.649780" y1="1228.784058" x2="947.212158" y2="1228.784058" style="stroke: green; stroke-width: 0.200000"/>
   <line x1="1011.749817" y1="1257.784058" x2="1010.181396" y2="1257.784058" style="stroke: green; stroke-width: 0.200000"/>
   <line x1="1011.749817" y1="1256.783936" x2="1008.272156" y2="1256.783936" style="stroke: green; stroke-width: 0.200000"/>
   <line x1="1011.749817" y1="1255.783936" x2="1006.362915" y2="1255.783936" style="stroke: green; stroke-width: 0.200000"/>
   <line x1="1011.749817" y1="1254.784058" x2="1004.453735" y2="1254.784058" style="stroke: green; stroke-width: 0.200000"/>
   <line x1="1011.749817" y1="1253.784058" x2="1002.544495" y2="1253.784058" style="stroke: green; stroke-width: 0.200000"/>
   <line x1="1011.749817" y1="1252.784058" x2="1000.401062" y2="1252.784058" style="stroke: green; stroke-width: 0.200000"/>
   <line x1="1011.749817" y1="1251.783936" x2="998.290283" y2="1251.783936" style="stroke: green; stroke-width: 0.200000"/>
   <line x1="1011.749817" y1="1250.783936" x2="996.179443" y2="1250.783936" style="stroke: green; stroke-width: 0.200000"/>
   <line x1="1011.749817" y1="1249.784058" x2="994.162903" y2="1249.784058" style="stroke: green; stroke-width: 0.200000"/>
   <line x1="1011.749817" y1="1248.784058" x2="992.179688" y2="1248.784058" style="stroke: green; stroke-width: 0.200000"/>
   <line x1="1011.749817" y1="1247.784058" x2="990.196533" y2="1247.784058" style="stroke: green; stroke-width: 0.200000"/>
   <line x1="1011.749817" y1="1246.783936" x2="987.745361" y2="1246.783936" style="stroke: green; stroke-width: 0.200000"/>
   <line x1="1011.749817" y1="1245.783936" x2="985.058350" y2="1245.783936" style="stroke: green; stroke-width: 0.200000"/>
   <line x1="1011.749817" y1="1244.784058" x2="982.371277" y2="1244.784058" style="stroke: green; stroke-width: 0.200000"/>
   <line x1="1011.749817" y1="1243.784058" x2="979.896606" y2="1243.784058" style="stroke: green; stroke-width: 0.200000"/>
   <line x1="1011.749817" y1="1242.784058" x2="977.484192" y2="1242.784058" style="stroke: green; stroke-width: 0.200000"/>
   <line x1="1011.749817" y1="1241.783936" x2="974.894958" y2="1241.783936" style="stroke: green; stroke-width: 0.200000"/>
   <line x1="1011.749817" y1="1240.783936" x2="972.192444" y2="1240.783936" style="stroke: green; stroke-width: 0.200000"/>
   <line x1="1011.623901" y1="1239.784058" x2="969.069519" y2="1239.784058" style="stroke: green; stroke-width: 0.200000"/>
   <line x1="1010.137024" y1="1238.784058" x2="967.043091" y2="1238.784058" style="stroke: green; stroke-width: 0.200000"/>
   <line x1="1008.471924" y1="1237.784058" x2="965.016785" y2="1237.784058" style="stroke: green; stroke-width: 0.200000"/>
   <line x1="1006.806763" y1="1236.783936" x2="962.990479" y2="1236.783936" style="stroke: green; stroke-width: 0.200000"/>
   <line x1="1005.241028" y1="1235.783936" x2="961.749817" y2="1235.783936" style="stroke: green; stroke-width: 0.200000"/>
   <line x1="1003.717896" y1="1234.784058" x2="961.749817" y2="1234.784058" style="stroke: green; stroke-width: 0.200000"/>
   <line x1="1001.969849" y1="1233.784058" x2="961.749817" y2="1233.784058" style="stroke: green; stroke-width: 0.200000"/>
   <line x1="1000.226501" y1="1232.784058" x2="961.749817" y2="1232.784058" style="stroke: green; stroke-width: 0.200000"/>
   <line x1="998.569275" y1="1231.783936" x2="961.749817" y2="1231.783936" style="stroke: green; stroke-width: 0.200000"/>
   <line x1="996.912170" y1="1230.783936" x2="961.749817" y2="1230.783936" style="stroke: green; stroke-width: 0.200000"/>
   <line x1="995.255188" y1="1229.784058" x2="961.749817" y2="1229.784058" style="stroke: green; stroke-width: 0.200000"/>
   <line x1="993.162964" y1="1228.784058" x2="961.749817" y2="1228.784058" style="stroke: green; stroke-width: 0.200000"/>
   <line x1="1013.431641" y1="1257.784058" x2="1011.849731" y2="1257.784058" style="stroke: green; stroke-width: 0.200000"/>
   <line x1="1015.437134" y1="1256.783936" x2="1011.849731" y2="1256.783936" style="stroke: green; stroke-width: 0.200000"/>
   <line x1="1017.442688" y1="1255.783936" x2="1011.849731" y2="1255.783936" style="stroke: green; stroke-width: 0.200000"/>
   <line x1="1019.448303" y1="1254.784058" x2="1011.849731" y2="1254.784058" style="stroke: green; stroke-width: 0.200000"/>
   <line x1="1021.453857" y1="1253.784058" x2="1011.849731" y2="1253.784058" style="stroke: green; stroke-width: 0.200000"/>
   <line x1="1021.993408" y1="1252.784058" x2="1011.849731" y2="1252.784058" style="stroke: green; stroke-width: 0.200000"/>
   <line x1="1021.853699" y1="1251.783936" x2="1011.849731" y2="1251.783936" style="stroke: green; stroke-width: 0.200000"/>
   <line x1="1021.259033" y1="1250.783936" x2="1011.849731" y2="1250.783936" style="stroke: green; stroke-width: 0.200000"/>
   <line x1="1020.665222" y1="1249.784058" x2="1011.849731" y2="1249.784058" style="stroke: green; stroke-width: 0.200000"/>
   <line x1="1020.070557" y1="1248.784058" x2="1011.849731" y2="1248.784058" style="stroke: green; stroke-width: 0.200000"/>
   <line x1="1019.476074" y1="1247.784058" x2="1011.849731" y2="1247.784058" style="stroke: green; stroke-width: 0.200000"/>
   <line x1="1018.881470" y1="1246.783936" x2="1011.849731" y2="1246.783936" style="stroke: green; stroke-width: 0.200000"/>
   <line x1="1018.231812" y1="1245.783936" x2="1011.849731" y2="1245.783936" style="stroke: green; stroke-width: 0.200000"/>
   <line x1="1017.147583" y1="1244.784058" x2="1011.849731" y2="1244.784058" style="stroke: green; stroke-width: 0.200000"/>
   <line x1="1016.063477" y1="1243.784058" x2="1011.849731" y2="1243.784058" style="stroke: green; stroke-width: 0.200000"/>
   <line x1="1014.979126" y1="1242.784058" x2="1011.849731" y2="1242.784058" style="stroke: green; stroke-width: 0.200000"/>
   <line x1="1013.894958" y1="1241.783936" x2="1011.849731" y2="1241.783936" style="stroke: green; stroke-width: 0.200000"/>
   <line x1="1012.810913" y1="1240.783936" x2="1011.849731" y2="1240.783936" style="stroke: green; stroke-width: 0.200000"/>
   <path d="M 795.923  1320.7  793.521  1313.63  795.313  1304.45  795.319  1302.09  795.734  1300.32  801.33  1291.25  802.17  1289.42  808.83  1281.58  809.393  1280.82  810.692  1280.6  817.9  1280.88  821.281  1284.48  824.93  1288.98  826.929  1293.79  831.535  1303.84  831.896  1305.11  834.206  1311.37  835.975  1316.25  836.213  1316.68  840.127  1327.12  842.027  1331.42  843.184  1336.22  846.202  1346.16  846.275  1346.65  848.779  1356.62  850.214  1362.83  850.642  1367.39  850.807  1372.7  851.084  1379.14  845.478  1380.14  839.881  1379.97  834.643  1374.73  832.531  1372.75  831.617  1371.16  827.588  1363.55  823.27  1356.09  822.398  1354.42  821.358  1352.55  816.015  1344.98  811.519  1338.44  811.383  1338.27  " style="fill: none; stroke: darkmagenta; stroke-width: 0.200000; fill-type: evenodd"  fill-opacity="1.000000" />
   <path d="M 811.383  1338.27  810.581  1337.31  809.786  1336.54  804.024  1330.07  796.992  1323.26  796.67  1322.9  795.923  1320.7  " style="fill: none; stroke: red; stroke-width: 0.200000; fill-type: evenodd"  fill-opacity="1.000000" />
   <path d="M 817.451  1281.86  820.527  1285.14  824.062  1289.5  826.012  1294.19  830.594  1304.19  830.945  1305.42  833.266  1311.71  835.062  1316.67  835.303  1317.1  839.2  1327.5  841.076  1331.74  842.218  1336.48  845.224  1346.38  845.293  1346.85  847.806  1356.86  849.225  1362.99  849.643  1367.45  849.807  1372.74  850.047  1378.31  845.405  1379.14  840.308  1378.98  835.34  1374.02  833.324  1372.12  832.492  1370.68  828.463  1363.07  824.147  1355.61  823.278  1353.94  822.205  1352.02  816.835  1344.41  812.317  1337.83  811.316  1336.63  810.508  1335.84  804.746  1329.38  797.713  1322.56  797.551  1322.38  794.553  1313.56  796.313  1304.55  796.319  1302.21  796.67  1300.71  802.213  1291.72  803.021  1289.96  809.612  1282.2  809.956  1281.74  810.76  1281.6  817.451  1281.86  " style="fill: none; stroke: black; stroke-width: 0.200000; fill-type: evenodd"  fill-opacity="1.000000" />
   <path d="M 1023.38  1254.5  1012.72  1259.81  " style="fill: none; stroke: darkmagenta; stroke-width: 0.200000; fill-type: evenodd"  fill-opacity="1.000000" />
   <path d="M 1012.72  1259.81  1011.95  1260.2  1010.95  1259.88  1001.58  1254.97  1000.44  1254.46  994.968  1251.87  989.92  1249.32  " style="fill: none; stroke: red; stroke-width: 0.200000; fill-type: evenodd"  fill-opacity="1.000000" />
   <path d="M 989.92  1249.32  988.932  1248.83  981.213  1245.95  976.138  1243.85  971.846  1242.25  968.847  1241.35  961.776  1237.86  956.216  1235.55  951.612  1232.87  945.974  1229.82  939.114  1225.42  938.062  1224.78  937.131  1224.13  930.658  1218.75  924.975  1214.14  921.559  1210.52  916.998  1205.54  914.505  1202.87  912.315  1198.24  910.101  1193.46  911.364  1184.87  912.276  1183.98  917.68  1178.54  922.139  1177.63  927.094  1176.31  933.311  1178.38  939.287  1180.78  941.309  1182.79  943.92  1186.05  947.309  1190.13  949.359  1192.77  953.504  1197.97  956.33  1201.44  959.805  1204.5  964.9  1209.23  965.9  1210.1  966.424  1210.63  972.929  1214.81  978.487  1218.73  980.221  1219.56  982.593  1221.08  987.797  1223.98  990.419  1225.82  995.903  1228.42  1002.25  1232.25  1003.57  1232.89  1007.11  1235.21  1012.04  1238.18  1013.72  1239.59  1019.53  1244.94  1023.43  1251.49  " style="fill: none; stroke: darkmagenta; stroke-width: 0.200000; fill-type: evenodd"  fill-opacity="1.000000" />
   <path d="M 1023.43  1251.49  1023.51  1251.64  1023.47  1254.46  1023.38  1254.5  " style="fill: none; stroke: red; stroke-width: 0.200000; fill-type: evenodd"  fill-opacity="1.000000" />
   <path d="M 932.966  1179.32  938.727  1181.63  940.563  1183.45  943.145  1186.69  946.529  1190.76  948.573  1193.39  952.725  1198.6  955.607  1202.14  959.135  1205.24  964.23  1209.97  965.216  1210.83  965.793  1211.41  972.37  1215.64  977.979  1219.6  979.734  1220.44  982.079  1221.94  987.265  1224.83  989.914  1226.69  995.429  1229.31  1001.77  1233.13  1003.07  1233.76  1006.57  1236.06  1011.46  1239  1013.06  1240.34  1018.75  1245.58  1022.51  1251.91  1022.48  1253.83  1011.87  1259.12  1011.34  1258.95  1002.02  1254.07  1000.86  1253.55  995.407  1250.97  989.333  1247.91  981.579  1245.02  976.505  1242.92  972.165  1241.3  969.214  1240.41  962.19  1236.95  956.662  1234.65  952.101  1232  946.483  1228.96  939.644  1224.57  938.609  1223.94  937.738  1223.33  931.293  1217.98  925.657  1213.41  922.291  1209.84  917.732  1204.86  915.343  1202.3  913.221  1197.82  911.134  1193.31  912.304  1185.35  912.98  1184.69  918.177  1179.46  922.368  1178.6  927.062  1177.35  932.966  1179.32  " style="fill: none; stroke: black; stroke-width: 0.200000; fill-type: evenodd"  fill-opacity="1.000000" />
</svg>
