<?xml version="1.0" encoding="UTF-8" standalone="yes"?>
<!DOCTYPE svg PUBLIC "-//W3C//DTD SVG 1.0//EN" "http://www.w3.org/TR/2001/REC-SVG-20010904/DTD/svg10.dtd">
<svg height="2000" width="2000" xmlns="http://www.w3.org/2000/svg" xmlns:svg="http://www.w3.org/2000/svg" xmlns:xlink="http://www.w3.org/1999/xlink">
   <marker id="endArrow" markerHeight="8" markerUnits="strokeWidth" markerWidth="10" orient="auto" refX="1" refY="5" viewBox="0 0 1000 1000">
      <polyline fill="darkblue" points="0,0 10,5 0,10 1,5" />
   </marker>
   <circle cx="1000" cy="1000" r="1" style="stroke:black; fill: red" />
   <circle cx="1000" cy="1000" r="800" style="stroke:black; fill: none" />
   <line x1="754.924805" y1="1050.472900" x2="754.924805" y2="1055.088623" style="stroke: green; stroke-width: 0.200000"/>
   <line x1="755.924744" y1="1044.728760" x2="755.924744" y2="1055.088623" style="stroke: green; stroke-width: 0.200000"/>
   <line x1="756.924744" y1="1042.204712" x2="756.924744" y2="1055.088623" style="stroke: green; stroke-width: 0.200000"/>
   <line x1="757.924805" y1="1039.680664" x2="757.924805" y2="1055.088623" style="stroke: green; stroke-width: 0.200000"/>
   <line x1="758.924805" y1="1037.156616" x2="758.924805" y2="1055.088623" style="stroke: green; stroke-width: 0.200000"/>
   <line x1="759.924805" y1="1034.807495" x2="759.924805" y2="1055.088623" style="stroke: green; stroke-width: 0.200000"/>
   <line x1="760.924744" y1="1033.080811" x2="760.924744" y2="1055.088623" style="stroke: green; stroke-width: 0.200000"/>
   <line x1="761.924744" y1="1031.359497" x2="761.924744" y2="1055.088623" style="stroke: green; stroke-width: 0.200000"/>
   <line x1="762.924805" y1="1029.668091" x2="762.924805" y2="1055.088623" style="stroke: green; stroke-width: 0.200000"/>
   <line x1="763.924805" y1="1027.976562" x2="763.924805" y2="1055.088623" style="stroke: green; stroke-width: 0.200000"/>
   <line x1="764.924805" y1="1026.393921" x2="764.924805" y2="1055.088623" style="stroke: green; stroke-width: 0.200000"/>
   <line x1="765.924744" y1="1025.208984" x2="765.924744" y2="1055.088623" style="stroke: green; stroke-width: 0.200000"/>
   <line x1="766.924744" y1="1024.024170" x2="766.924744" y2="1055.088623" style="stroke: green; stroke-width: 0.200000"/>
   <line x1="767.924805" y1="1022.839294" x2="767.924805" y2="1055.088623" style="stroke: green; stroke-width: 0.200000"/>
   <line x1="768.924805" y1="1021.665588" x2="768.924805" y2="1055.088623" style="stroke: green; stroke-width: 0.200000"/>
   <line x1="769.924805" y1="1020.497131" x2="769.924805" y2="1055.088623" style="stroke: green; stroke-width: 0.200000"/>
   <line x1="770.924744" y1="1019.328674" x2="770.924744" y2="1055.088623" style="stroke: green; stroke-width: 0.200000"/>
   <line x1="771.924744" y1="1018.353577" x2="771.924744" y2="1055.088623" style="stroke: green; stroke-width: 0.200000"/>
   <line x1="772.924805" y1="1017.407837" x2="772.924805" y2="1055.088623" style="stroke: green; stroke-width: 0.200000"/>
   <line x1="773.924805" y1="1016.500366" x2="773.924805" y2="1055.088623" style="stroke: green; stroke-width: 0.200000"/>
   <line x1="774.924805" y1="1015.646423" x2="774.924805" y2="1055.088623" style="stroke: green; stroke-width: 0.200000"/>
   <line x1="775.924744" y1="1014.792480" x2="775.924744" y2="1055.088623" style="stroke: green; stroke-width: 0.200000"/>
   <line x1="776.924744" y1="1013.938477" x2="776.924744" y2="1055.088623" style="stroke: green; stroke-width: 0.200000"/>
   <line x1="777.924805" y1="1013.084473" x2="777.924805" y2="1055.088623" style="stroke: green; stroke-width: 0.200000"/>
   <line x1="778.924805" y1="1012.294922" x2="778.924805" y2="1055.088623" style="stroke: green; stroke-width: 0.200000"/>
   <line x1="779.924805" y1="1011.510742" x2="779.924805" y2="1055.088623" style="stroke: green; stroke-width: 0.200000"/>
   <line x1="780.924744" y1="1010.726624" x2="780.924744" y2="1055.088623" style="stroke: green; stroke-width: 0.200000"/>
   <line x1="781.924744" y1="1009.942566" x2="781.924744" y2="1055.088623" style="stroke: green; stroke-width: 0.200000"/>
   <line x1="782.924805" y1="1009.158386" x2="782.924805" y2="1055.088623" style="stroke: green; stroke-width: 0.200000"/>
   <line x1="783.924805" y1="1008.374268" x2="783.924805" y2="1055.088623" style="stroke: green; stroke-width: 0.200000"/>
   <line x1="784.924805" y1="1007.633667" x2="784.924805" y2="1055.088623" style="stroke: green; stroke-width: 0.200000"/>
   <line x1="785.924744" y1="1006.957520" x2="785.924744" y2="1055.088623" style="stroke: green; stroke-width: 0.200000"/>
   <line x1="786.924744" y1="1006.708008" x2="786.924744" y2="1055.088623" style="stroke: green; stroke-width: 0.200000"/>
   <line x1="787.924805" y1="1006.508057" x2="787.924805" y2="1055.088623" style="stroke: green; stroke-width: 0.200000"/>
   <line x1="788.924805" y1="1006.323975" x2="788.924805" y2="1055.088623" style="stroke: green; stroke-width: 0.200000"/>
   <line x1="789.924805" y1="1006.139893" x2="789.924805" y2="1055.088623" style="stroke: green; stroke-width: 0.200000"/>
   <line x1="790.924744" y1="1005.955872" x2="790.924744" y2="1055.088623" style="stroke: green; stroke-width: 0.200000"/>
   <line x1="791.924744" y1="1005.771851" x2="791.924744" y2="1055.088623" style="stroke: green; stroke-width: 0.200000"/>
   <line x1="792.924805" y1="1005.587830" x2="792.924805" y2="1055.088623" style="stroke: green; stroke-width: 0.200000"/>
   <line x1="793.924805" y1="1005.403809" x2="793.924805" y2="1055.088623" style="stroke: green; stroke-width: 0.200000"/>
   <line x1="794.924805" y1="1005.219788" x2="794.924805" y2="1055.088623" style="stroke: green; stroke-width: 0.200000"/>
   <line x1="795.924744" y1="1005.112366" x2="795.924744" y2="1055.088623" style="stroke: green; stroke-width: 0.200000"/>
   <line x1="796.924744" y1="1005.195190" x2="796.924744" y2="1055.088623" style="stroke: green; stroke-width: 0.200000"/>
   <line x1="797.924805" y1="1005.278015" x2="797.924805" y2="1055.088623" style="stroke: green; stroke-width: 0.200000"/>
   <line x1="798.924805" y1="1005.360779" x2="798.924805" y2="1055.088623" style="stroke: green; stroke-width: 0.200000"/>
   <line x1="799.924805" y1="1005.443604" x2="799.924805" y2="1055.088623" style="stroke: green; stroke-width: 0.200000"/>
   <line x1="800.924744" y1="1005.526367" x2="800.924744" y2="1055.088623" style="stroke: green; stroke-width: 0.200000"/>
   <line x1="801.924744" y1="1005.609131" x2="801.924744" y2="1055.088623" style="stroke: green; stroke-width: 0.200000"/>
   <line x1="802.924805" y1="1005.691895" x2="802.924805" y2="1055.088623" style="stroke: green; stroke-width: 0.200000"/>
   <line x1="803.924805" y1="1005.774780" x2="803.924805" y2="1055.088623" style="stroke: green; stroke-width: 0.200000"/>
   <line x1="804.924805" y1="1006.072937" x2="804.924805" y2="1055.088623" style="stroke: green; stroke-width: 0.200000"/>
   <line x1="805.924744" y1="1006.468506" x2="805.924744" y2="1055.088623" style="stroke: green; stroke-width: 0.200000"/>
   <line x1="806.924744" y1="1006.864136" x2="806.924744" y2="1055.088623" style="stroke: green; stroke-width: 0.200000"/>
   <line x1="807.924805" y1="1007.259766" x2="807.924805" y2="1055.088623" style="stroke: green; stroke-width: 0.200000"/>
   <line x1="808.924805" y1="1007.655396" x2="808.924805" y2="1055.088623" style="stroke: green; stroke-width: 0.200000"/>
   <line x1="809.924805" y1="1008.051025" x2="809.924805" y2="1055.088623" style="stroke: green; stroke-width: 0.200000"/>
   <line x1="810.924744" y1="1008.446655" x2="810.924744" y2="1055.088623" style="stroke: green; stroke-width: 0.200000"/>
   <line x1="811.924744" y1="1008.842224" x2="811.924744" y2="1055.088623" style="stroke: green; stroke-width: 0.200000"/>
   <line x1="812.924805" y1="1009.237915" x2="812.924805" y2="1055.088623" style="stroke: green; stroke-width: 0.200000"/>
   <line x1="813.924805" y1="1009.667236" x2="813.924805" y2="1055.088623" style="stroke: green; stroke-width: 0.200000"/>
   <line x1="814.924805" y1="1010.267822" x2="814.924805" y2="1055.088623" style="stroke: green; stroke-width: 0.200000"/>
   <line x1="815.924744" y1="1010.868408" x2="815.924744" y2="1055.088623" style="stroke: green; stroke-width: 0.200000"/>
   <line x1="816.924744" y1="1011.468872" x2="816.924744" y2="1055.088623" style="stroke: green; stroke-width: 0.200000"/>
   <line x1="817.924805" y1="1012.089966" x2="817.924805" y2="1055.088623" style="stroke: green; stroke-width: 0.200000"/>
   <line x1="818.924805" y1="1012.755005" x2="818.924805" y2="1055.088623" style="stroke: green; stroke-width: 0.200000"/>
   <line x1="819.924805" y1="1013.420044" x2="819.924805" y2="1055.088623" style="stroke: green; stroke-width: 0.200000"/>
   <line x1="820.924744" y1="1014.085083" x2="820.924744" y2="1055.088623" style="stroke: green; stroke-width: 0.200000"/>
   <line x1="821.924744" y1="1014.871765" x2="821.924744" y2="1055.088623" style="stroke: green; stroke-width: 0.200000"/>
   <line x1="822.924805" y1="1015.859497" x2="822.924805" y2="1055.088623" style="stroke: green; stroke-width: 0.200000"/>
   <line x1="823.924805" y1="1016.847290" x2="823.924805" y2="1055.088623" style="stroke: green; stroke-width: 0.200000"/>
   <line x1="824.924805" y1="1017.835083" x2="824.924805" y2="1055.088623" style="stroke: green; stroke-width: 0.200000"/>
   <line x1="825.924744" y1="1018.822937" x2="825.924744" y2="1055.088623" style="stroke: green; stroke-width: 0.200000"/>
   <line x1="826.924744" y1="1019.810730" x2="826.924744" y2="1055.088623" style="stroke: green; stroke-width: 0.200000"/>
   <line x1="827.924805" y1="1020.759888" x2="827.924805" y2="1055.088623" style="stroke: green; stroke-width: 0.200000"/>
   <line x1="828.924805" y1="1022.111450" x2="828.924805" y2="1055.088623" style="stroke: green; stroke-width: 0.200000"/>
   <line x1="829.924805" y1="1023.416809" x2="829.924805" y2="1055.088623" style="stroke: green; stroke-width: 0.200000"/>
   <line x1="830.924744" y1="1024.720947" x2="830.924744" y2="1055.088623" style="stroke: green; stroke-width: 0.200000"/>
   <line x1="831.924744" y1="1026.025146" x2="831.924744" y2="1055.088623" style="stroke: green; stroke-width: 0.200000"/>
   <line x1="832.924805" y1="1027.329346" x2="832.924805" y2="1055.088623" style="stroke: green; stroke-width: 0.200000"/>
   <line x1="833.924805" y1="1028.633545" x2="833.924805" y2="1055.088623" style="stroke: green; stroke-width: 0.200000"/>
   <line x1="834.924805" y1="1030.112183" x2="834.924805" y2="1055.088623" style="stroke: green; stroke-width: 0.200000"/>
   <line x1="835.924744" y1="1031.606323" x2="835.924744" y2="1055.088623" style="stroke: green; stroke-width: 0.200000"/>
   <line x1="836.924744" y1="1033.100464" x2="836.924744" y2="1055.088623" style="stroke: green; stroke-width: 0.200000"/>
   <line x1="837.924805" y1="1034.594604" x2="837.924805" y2="1055.088623" style="stroke: green; stroke-width: 0.200000"/>
   <line x1="838.924805" y1="1036.088867" x2="838.924805" y2="1055.088623" style="stroke: green; stroke-width: 0.200000"/>
   <line x1="839.924805" y1="1037.528809" x2="839.924805" y2="1055.088623" style="stroke: green; stroke-width: 0.200000"/>
   <line x1="840.924744" y1="1038.657104" x2="840.924744" y2="1055.088623" style="stroke: green; stroke-width: 0.200000"/>
   <line x1="841.924744" y1="1039.785400" x2="841.924744" y2="1055.088623" style="stroke: green; stroke-width: 0.200000"/>
   <line x1="842.924805" y1="1040.913818" x2="842.924805" y2="1055.088623" style="stroke: green; stroke-width: 0.200000"/>
   <line x1="843.924805" y1="1042.042114" x2="843.924805" y2="1055.088623" style="stroke: green; stroke-width: 0.200000"/>
   <line x1="844.924805" y1="1043.170532" x2="844.924805" y2="1055.088623" style="stroke: green; stroke-width: 0.200000"/>
   <line x1="845.924744" y1="1044.298828" x2="845.924744" y2="1055.088623" style="stroke: green; stroke-width: 0.200000"/>
   <line x1="846.924744" y1="1045.159424" x2="846.924744" y2="1055.088623" style="stroke: green; stroke-width: 0.200000"/>
   <line x1="847.924805" y1="1045.986816" x2="847.924805" y2="1055.088623" style="stroke: green; stroke-width: 0.200000"/>
   <line x1="848.924805" y1="1046.814209" x2="848.924805" y2="1055.088623" style="stroke: green; stroke-width: 0.200000"/>
   <line x1="849.924805" y1="1047.602661" x2="849.924805" y2="1055.088623" style="stroke: green; stroke-width: 0.200000"/>
   <line x1="850.924744" y1="1048.310791" x2="850.924744" y2="1055.088623" style="stroke: green; stroke-width: 0.200000"/>
   <line x1="851.924744" y1="1049.018799" x2="851.924744" y2="1055.088623" style="stroke: green; stroke-width: 0.200000"/>
   <line x1="852.924805" y1="1049.786133" x2="852.924805" y2="1055.088623" style="stroke: green; stroke-width: 0.200000"/>
   <line x1="853.924805" y1="1050.597046" x2="853.924805" y2="1055.088623" style="stroke: green; stroke-width: 0.200000"/>
   <line x1="854.924805" y1="1051.408081" x2="854.924805" y2="1055.088623" style="stroke: green; stroke-width: 0.200000"/>
   <line x1="855.924744" y1="1052.219116" x2="855.924744" y2="1055.088623" style="stroke: green; stroke-width: 0.200000"/>
   <line x1="856.924744" y1="1052.971802" x2="856.924744" y2="1055.088623" style="stroke: green; stroke-width: 0.200000"/>
   <line x1="857.924805" y1="1053.655273" x2="857.924805" y2="1055.088623" style="stroke: green; stroke-width: 0.200000"/>
   <line x1="858.924805" y1="1054.338867" x2="858.924805" y2="1055.088623" style="stroke: green; stroke-width: 0.200000"/>
   <line x1="859.924805" y1="1055.022461" x2="859.924805" y2="1055.088623" style="stroke: green; stroke-width: 0.200000"/>
   <line x1="748.924805" y1="1102.219360" x2="748.924805" y2="1105.188599" style="stroke: green; stroke-width: 0.200000"/>
   <line x1="749.924805" y1="1096.884888" x2="749.924805" y2="1105.188599" style="stroke: green; stroke-width: 0.200000"/>
   <line x1="750.924744" y1="1091.813232" x2="750.924744" y2="1105.188599" style="stroke: green; stroke-width: 0.200000"/>
   <line x1="751.924744" y1="1087.349609" x2="751.924744" y2="1105.188599" style="stroke: green; stroke-width: 0.200000"/>
   <line x1="752.924805" y1="1082.885864" x2="752.924805" y2="1105.188599" style="stroke: green; stroke-width: 0.200000"/>
   <line x1="753.924805" y1="1075.684204" x2="753.924805" y2="1105.188599" style="stroke: green; stroke-width: 0.200000"/>
   <line x1="754.924805" y1="1055.188599" x2="754.924805" y2="1105.188599" style="stroke: green; stroke-width: 0.200000"/>
   <line x1="755.924744" y1="1055.188599" x2="755.924744" y2="1105.188599" style="stroke: green; stroke-width: 0.200000"/>
   <line x1="756.924744" y1="1055.188599" x2="756.924744" y2="1105.188599" style="stroke: green; stroke-width: 0.200000"/>
   <line x1="757.924805" y1="1055.188599" x2="757.924805" y2="1105.188599" style="stroke: green; stroke-width: 0.200000"/>
   <line x1="758.924805" y1="1055.188599" x2="758.924805" y2="1105.188599" style="stroke: green; stroke-width: 0.200000"/>
   <line x1="759.924805" y1="1055.188599" x2="759.924805" y2="1105.188599" style="stroke: green; stroke-width: 0.200000"/>
   <line x1="760.924744" y1="1055.188599" x2="760.924744" y2="1105.188599" style="stroke: green; stroke-width: 0.200000"/>
   <line x1="761.924744" y1="1055.188599" x2="761.924744" y2="1105.188599" style="stroke: green; stroke-width: 0.200000"/>
   <line x1="762.924805" y1="1055.188599" x2="762.924805" y2="1105.188599" style="stroke: green; stroke-width: 0.200000"/>
   <line x1="763.924805" y1="1055.188599" x2="763.924805" y2="1105.188599" style="stroke: green; stroke-width: 0.200000"/>
   <line x1="764.924805" y1="1055.188599" x2="764.924805" y2="1105.188599" style="stroke: green; stroke-width: 0.200000"/>
   <line x1="765.924744" y1="1055.188599" x2="765.924744" y2="1105.188599" style="stroke: green; stroke-width: 0.200000"/>
   <line x1="766.924744" y1="1055.188599" x2="766.924744" y2="1105.188599" style="stroke: green; stroke-width: 0.200000"/>
   <line x1="767.924805" y1="1055.188599" x2="767.924805" y2="1105.188599" style="stroke: green; stroke-width: 0.200000"/>
   <line x1="768.924805" y1="1055.188599" x2="768.924805" y2="1105.188599" style="stroke: green; stroke-width: 0.200000"/>
   <line x1="769.924805" y1="1055.188599" x2="769.924805" y2="1105.188599" style="stroke: green; stroke-width: 0.200000"/>
   <line x1="770.924744" y1="1055.188599" x2="770.924744" y2="1105.188599" style="stroke: green; stroke-width: 0.200000"/>
   <line x1="771.924744" y1="1055.188599" x2="771.924744" y2="1105.188599" style="stroke: green; stroke-width: 0.200000"/>
   <line x1="772.924805" y1="1055.188599" x2="772.924805" y2="1105.188599" style="stroke: green; stroke-width: 0.200000"/>
   <line x1="773.924805" y1="1055.188599" x2="773.924805" y2="1105.188599" style="stroke: green; stroke-width: 0.200000"/>
   <line x1="774.924805" y1="1055.188599" x2="774.924805" y2="1105.188599" style="stroke: green; stroke-width: 0.200000"/>
   <line x1="775.924744" y1="1055.188599" x2="775.924744" y2="1105.188599" style="stroke: green; stroke-width: 0.200000"/>
   <line x1="776.924744" y1="1055.188599" x2="776.924744" y2="1105.188599" style="stroke: green; stroke-width: 0.200000"/>
   <line x1="777.924805" y1="1055.188599" x2="777.924805" y2="1105.188599" style="stroke: green; stroke-width: 0.200000"/>
   <line x1="778.924805" y1="1055.188599" x2="778.924805" y2="1105.188599" style="stroke: green; stroke-width: 0.200000"/>
   <line x1="779.924805" y1="1055.188599" x2="779.924805" y2="1105.188599" style="stroke: green; stroke-width: 0.200000"/>
   <line x1="780.924744" y1="1055.188599" x2="780.924744" y2="1105.188599" style="stroke: green; stroke-width: 0.200000"/>
   <line x1="781.924744" y1="1055.188599" x2="781.924744" y2="1105.188599" style="stroke: green; stroke-width: 0.200000"/>
   <line x1="782.924805" y1="1055.188599" x2="782.924805" y2="1105.188599" style="stroke: green; stroke-width: 0.200000"/>
   <line x1="783.924805" y1="1055.188599" x2="783.924805" y2="1105.188599" style="stroke: green; stroke-width: 0.200000"/>
   <line x1="784.924805" y1="1055.188599" x2="784.924805" y2="1105.188599" style="stroke: green; stroke-width: 0.200000"/>
   <line x1="785.924744" y1="1055.188599" x2="785.924744" y2="1105.188599" style="stroke: green; stroke-width: 0.200000"/>
   <line x1="786.924744" y1="1055.188599" x2="786.924744" y2="1105.188599" style="stroke: green; stroke-width: 0.200000"/>
   <line x1="787.924805" y1="1055.188599" x2="787.924805" y2="1105.188599" style="stroke: green; stroke-width: 0.200000"/>
   <line x1="788.924805" y1="1055.188599" x2="788.924805" y2="1105.188599" style="stroke: green; stroke-width: 0.200000"/>
   <line x1="789.924805" y1="1055.188599" x2="789.924805" y2="1105.188599" style="stroke: green; stroke-width: 0.200000"/>
   <line x1="790.924744" y1="1055.188599" x2="790.924744" y2="1105.188599" style="stroke: green; stroke-width: 0.200000"/>
   <line x1="791.924744" y1="1055.188599" x2="791.924744" y2="1105.188599" style="stroke: green; stroke-width: 0.200000"/>
   <line x1="792.924805" y1="1055.188599" x2="792.924805" y2="1105.188599" style="stroke: green; stroke-width: 0.200000"/>
   <line x1="793.924805" y1="1055.188599" x2="793.924805" y2="1105.188599" style="stroke: green; stroke-width: 0.200000"/>
   <line x1="794.924805" y1="1055.188599" x2="794.924805" y2="1105.188599" style="stroke: green; stroke-width: 0.200000"/>
   <line x1="795.924744" y1="1055.188599" x2="795.924744" y2="1105.188599" style="stroke: green; stroke-width: 0.200000"/>
   <line x1="796.924744" y1="1055.188599" x2="796.924744" y2="1105.188599" style="stroke: green; stroke-width: 0.200000"/>
   <line x1="797.924805" y1="1055.188599" x2="797.924805" y2="1105.188599" style="stroke: green; stroke-width: 0.200000"/>
   <line x1="798.924805" y1="1055.188599" x2="798.924805" y2="1105.188599" style="stroke: green; stroke-width: 0.200000"/>
   <line x1="799.924805" y1="1055.188599" x2="799.924805" y2="1105.188599" style="stroke: green; stroke-width: 0.200000"/>
   <line x1="800.924744" y1="1055.188599" x2="800.924744" y2="1105.188599" style="stroke: green; stroke-width: 0.200000"/>
   <line x1="801.924744" y1="1055.188599" x2="801.924744" y2="1105.188599" style="stroke: green; stroke-width: 0.200000"/>
   <line x1="802.924805" y1="1055.188599" x2="802.924805" y2="1105.188599" style="stroke: green; stroke-width: 0.200000"/>
   <line x1="803.924805" y1="1055.188599" x2="803.924805" y2="1105.188599" style="stroke: green; stroke-width: 0.200000"/>
   <line x1="804.924805" y1="1055.188599" x2="804.924805" y2="1105.188599" style="stroke: green; stroke-width: 0.200000"/>
   <line x1="805.924744" y1="1055.188599" x2="805.924744" y2="1105.188599" style="stroke: green; stroke-width: 0.200000"/>
   <line x1="806.924744" y1="1055.188599" x2="806.924744" y2="1105.188599" style="stroke: green; stroke-width: 0.200000"/>
   <line x1="807.924805" y1="1055.188599" x2="807.924805" y2="1105.188599" style="stroke: green; stroke-width: 0.200000"/>
   <line x1="808.924805" y1="1055.188599" x2="808.924805" y2="1105.188599" style="stroke: green; stroke-width: 0.200000"/>
   <line x1="809.924805" y1="1055.188599" x2="809.924805" y2="1105.188599" style="stroke: green; stroke-width: 0.200000"/>
   <line x1="810.924744" y1="1055.188599" x2="810.924744" y2="1105.188599" style="stroke: green; stroke-width: 0.200000"/>
   <line x1="811.924744" y1="1055.188599" x2="811.924744" y2="1105.188599" style="stroke: green; stroke-width: 0.200000"/>
   <line x1="812.924805" y1="1055.188599" x2="812.924805" y2="1105.188599" style="stroke: green; stroke-width: 0.200000"/>
   <line x1="813.924805" y1="1055.188599" x2="813.924805" y2="1105.188599" style="stroke: green; stroke-width: 0.200000"/>
   <line x1="814.924805" y1="1055.188599" x2="814.924805" y2="1105.188599" style="stroke: green; stroke-width: 0.200000"/>
   <line x1="815.924744" y1="1055.188599" x2="815.924744" y2="1105.188599" style="stroke: green; stroke-width: 0.200000"/>
   <line x1="816.924744" y1="1055.188599" x2="816.924744" y2="1105.188599" style="stroke: green; stroke-width: 0.200000"/>
   <line x1="817.924805" y1="1055.188599" x2="817.924805" y2="1105.188599" style="stroke: green; stroke-width: 0.200000"/>
   <line x1="818.924805" y1="1055.188599" x2="818.924805" y2="1105.188599" style="stroke: green; stroke-width: 0.200000"/>
   <line x1="819.924805" y1="1055.188599" x2="819.924805" y2="1105.188599" style="stroke: green; stroke-width: 0.200000"/>
   <line x1="820.924744" y1="1055.188599" x2="820.924744" y2="1105.188599" style="stroke: green; stroke-width: 0.200000"/>
   <line x1="821.924744" y1="1055.188599" x2="821.924744" y2="1105.188599" style="stroke: green; stroke-width: 0.200000"/>
   <line x1="822.924805" y1="1055.188599" x2="822.924805" y2="1105.188599" style="stroke: green; stroke-width: 0.200000"/>
   <line x1="823.924805" y1="1055.188599" x2="823.924805" y2="1105.188599" style="stroke: green; stroke-width: 0.200000"/>
   <line x1="824.924805" y1="1055.188599" x2="824.924805" y2="1105.188599" style="stroke: green; stroke-width: 0.200000"/>
   <line x1="825.924744" y1="1055.188599" x2="825.924744" y2="1105.188599" style="stroke: green; stroke-width: 0.200000"/>
   <line x1="826.924744" y1="1055.188599" x2="826.924744" y2="1105.188599" style="stroke: green; stroke-width: 0.200000"/>
   <line x1="827.924805" y1="1055.188599" x2="827.924805" y2="1105.188599" style="stroke: green; stroke-width: 0.200000"/>
   <line x1="828.924805" y1="1055.188599" x2="828.924805" y2="1105.188599" style="stroke: green; stroke-width: 0.200000"/>
   <line x1="829.924805" y1="1055.188599" x2="829.924805" y2="1105.188599" style="stroke: green; stroke-width: 0.200000"/>
   <line x1="830.924744" y1="1055.188599" x2="830.924744" y2="1105.188599" style="stroke: green; stroke-width: 0.200000"/>
   <line x1="831.924744" y1="1055.188599" x2="831.924744" y2="1105.188599" style="stroke: green; stroke-width: 0.200000"/>
   <line x1="832.924805" y1="1055.188599" x2="832.924805" y2="1105.188599" style="stroke: green; stroke-width: 0.200000"/>
   <line x1="833.924805" y1="1055.188599" x2="833.924805" y2="1105.188599" style="stroke: green; stroke-width: 0.200000"/>
   <line x1="834.924805" y1="1055.188599" x2="834.924805" y2="1105.188599" style="stroke: green; stroke-width: 0.200000"/>
   <line x1="835.924744" y1="1055.188599" x2="835.924744" y2="1105.188599" style="stroke: green; stroke-width: 0.200000"/>
   <line x1="836.924744" y1="1055.188599" x2="836.924744" y2="1105.188599" style="stroke: green; stroke-width: 0.200000"/>
   <line x1="837.924805" y1="1055.188599" x2="837.924805" y2="1105.188599" style="stroke: green; stroke-width: 0.200000"/>
   <line x1="838.924805" y1="1055.188599" x2="838.924805" y2="1105.188599" style="stroke: green; stroke-width: 0.200000"/>
   <line x1="839.924805" y1="1055.188599" x2="839.924805" y2="1105.188599" style="stroke: green; stroke-width: 0.200000"/>
   <line x1="840.924744" y1="1055.188599" x2="840.924744" y2="1105.188599" style="stroke: green; stroke-width: 0.200000"/>
   <line x1="841.924744" y1="1055.188599" x2="841.924744" y2="1105.188599" style="stroke: green; stroke-width: 0.200000"/>
   <line x1="842.924805" y1="1055.188599" x2="842.924805" y2="1105.188599" style="stroke: green; stroke-width: 0.200000"/>
   <line x1="843.924805" y1="1055.188599" x2="843.924805" y2="1105.188599" style="stroke: green; stroke-width: 0.200000"/>
   <line x1="844.924805" y1="1055.188599" x2="844.924805" y2="1105.188599" style="stroke: green; stroke-width: 0.200000"/>
   <line x1="845.924744" y1="1055.188599" x2="845.924744" y2="1105.188599" style="stroke: green; stroke-width: 0.200000"/>
   <line x1="846.924744" y1="1055.188599" x2="846.924744" y2="1105.188599" style="stroke: green; stroke-width: 0.200000"/>
   <line x1="847.924805" y1="1055.188599" x2="847.924805" y2="1105.188599" style="stroke: green; stroke-width: 0.200000"/>
   <line x1="848.924805" y1="1055.188599" x2="848.924805" y2="1105.188599" style="stroke: green; stroke-width: 0.200000"/>
   <line x1="849.924805" y1="1055.188599" x2="849.924805" y2="1105.188599" style="stroke: green; stroke-width: 0.200000"/>
   <line x1="850.924744" y1="1055.188599" x2="850.924744" y2="1105.188599" style="stroke: green; stroke-width: 0.200000"/>
   <line x1="851.924744" y1="1055.188599" x2="851.924744" y2="1105.188599" style="stroke: green; stroke-width: 0.200000"/>
   <line x1="852.924805" y1="1055.188599" x2="852.924805" y2="1105.188599" style="stroke: green; stroke-width: 0.200000"/>
   <line x1="853.924805" y1="1055.188599" x2="853.924805" y2="1105.188599" style="stroke: green; stroke-width: 0.200000"/>
   <line x1="854.924805" y1="1055.188599" x2="854.924805" y2="1105.188599" style="stroke: green; stroke-width: 0.200000"/>
   <line x1="855.924744" y1="1055.188599" x2="855.924744" y2="1105.188599" style="stroke: green; stroke-width: 0.200000"/>
   <line x1="856.924744" y1="1055.188599" x2="856.924744" y2="1105.188599" style="stroke: green; stroke-width: 0.200000"/>
   <line x1="857.924805" y1="1055.188599" x2="857.924805" y2="1105.188599" style="stroke: green; stroke-width: 0.200000"/>
   <line x1="858.924805" y1="1055.188599" x2="858.924805" y2="1105.188599" style="stroke: green; stroke-width: 0.200000"/>
   <line x1="859.924805" y1="1055.188599" x2="859.924805" y2="1105.188599" style="stroke: green; stroke-width: 0.200000"/>
   <line x1="860.924744" y1="1055.705933" x2="860.924744" y2="1105.188599" style="stroke: green; stroke-width: 0.200000"/>
   <line x1="861.924744" y1="1056.389526" x2="861.924744" y2="1105.188599" style="stroke: green; stroke-width: 0.200000"/>
   <line x1="862.924805" y1="1057.072998" x2="862.924805" y2="1105.188599" style="stroke: green; stroke-width: 0.200000"/>
   <line x1="863.924805" y1="1057.760742" x2="863.924805" y2="1105.188599" style="stroke: green; stroke-width: 0.200000"/>
   <line x1="864.924805" y1="1058.477539" x2="864.924805" y2="1105.188599" style="stroke: green; stroke-width: 0.200000"/>
   <line x1="865.924744" y1="1059.280029" x2="865.924744" y2="1105.188599" style="stroke: green; stroke-width: 0.200000"/>
   <line x1="866.924744" y1="1060.113647" x2="866.924744" y2="1105.188599" style="stroke: green; stroke-width: 0.200000"/>
   <line x1="867.924805" y1="1060.947388" x2="867.924805" y2="1105.188599" style="stroke: green; stroke-width: 0.200000"/>
   <line x1="868.924805" y1="1061.781128" x2="868.924805" y2="1105.188599" style="stroke: green; stroke-width: 0.200000"/>
   <line x1="869.924805" y1="1062.614746" x2="869.924805" y2="1105.188599" style="stroke: green; stroke-width: 0.200000"/>
   <line x1="870.924744" y1="1063.448364" x2="870.924744" y2="1105.188599" style="stroke: green; stroke-width: 0.200000"/>
   <line x1="871.924744" y1="1064.302490" x2="871.924744" y2="1105.188599" style="stroke: green; stroke-width: 0.200000"/>
   <line x1="872.924805" y1="1065.206421" x2="872.924805" y2="1105.188599" style="stroke: green; stroke-width: 0.200000"/>
   <line x1="873.924805" y1="1066.110352" x2="873.924805" y2="1105.188599" style="stroke: green; stroke-width: 0.200000"/>
   <line x1="874.924805" y1="1067.014160" x2="874.924805" y2="1105.188599" style="stroke: green; stroke-width: 0.200000"/>
   <line x1="875.924744" y1="1067.917969" x2="875.924744" y2="1105.188599" style="stroke: green; stroke-width: 0.200000"/>
   <line x1="876.924744" y1="1068.821899" x2="876.924744" y2="1105.188599" style="stroke: green; stroke-width: 0.200000"/>
   <line x1="877.924805" y1="1069.686279" x2="877.924805" y2="1105.188599" style="stroke: green; stroke-width: 0.200000"/>
   <line x1="878.924805" y1="1070.539795" x2="878.924805" y2="1105.188599" style="stroke: green; stroke-width: 0.200000"/>
   <line x1="879.924805" y1="1071.511719" x2="879.924805" y2="1105.188599" style="stroke: green; stroke-width: 0.200000"/>
   <line x1="880.924744" y1="1072.485229" x2="880.924744" y2="1105.188599" style="stroke: green; stroke-width: 0.200000"/>
   <line x1="881.924744" y1="1073.458618" x2="881.924744" y2="1105.188599" style="stroke: green; stroke-width: 0.200000"/>
   <line x1="882.924805" y1="1074.432129" x2="882.924805" y2="1105.188599" style="stroke: green; stroke-width: 0.200000"/>
   <line x1="883.924805" y1="1075.429810" x2="883.924805" y2="1105.188599" style="stroke: green; stroke-width: 0.200000"/>
   <line x1="884.924805" y1="1076.430054" x2="884.924805" y2="1105.188599" style="stroke: green; stroke-width: 0.200000"/>
   <line x1="885.924744" y1="1077.459473" x2="885.924744" y2="1105.188599" style="stroke: green; stroke-width: 0.200000"/>
   <line x1="886.924744" y1="1079.436279" x2="886.924744" y2="1105.188599" style="stroke: green; stroke-width: 0.200000"/>
   <line x1="887.924805" y1="1081.596558" x2="887.924805" y2="1105.188599" style="stroke: green; stroke-width: 0.200000"/>
   <line x1="888.924805" y1="1083.757202" x2="888.924805" y2="1105.188599" style="stroke: green; stroke-width: 0.200000"/>
   <line x1="889.924805" y1="1085.917480" x2="889.924805" y2="1105.188599" style="stroke: green; stroke-width: 0.200000"/>
   <line x1="890.924744" y1="1088.151123" x2="890.924744" y2="1105.188599" style="stroke: green; stroke-width: 0.200000"/>
   <line x1="891.924744" y1="1090.402100" x2="891.924744" y2="1105.188599" style="stroke: green; stroke-width: 0.200000"/>
   <line x1="892.924805" y1="1092.696045" x2="892.924805" y2="1105.188599" style="stroke: green; stroke-width: 0.200000"/>
   <line x1="893.924805" y1="1095.141235" x2="893.924805" y2="1105.188599" style="stroke: green; stroke-width: 0.200000"/>
   <line x1="894.924805" y1="1097.657593" x2="894.924805" y2="1105.188599" style="stroke: green; stroke-width: 0.200000"/>
   <line x1="895.924744" y1="1100.252075" x2="895.924744" y2="1105.188599" style="stroke: green; stroke-width: 0.200000"/>
   <line x1="896.924744" y1="1103.143677" x2="896.924744" y2="1105.188599" style="stroke: green; stroke-width: 0.200000"/>
   <line x1="755.924744" y1="1105.288574" x2="755.924744" y2="1155.288574" style="stroke: green; stroke-width: 0.200000"/>
   <line x1="756.924744" y1="1105.288574" x2="756.924744" y2="1155.288574" style="stroke: green; stroke-width: 0.200000"/>
   <line x1="757.924805" y1="1105.288574" x2="757.924805" y2="1155.288574" style="stroke: green; stroke-width: 0.200000"/>
   <line x1="758.924805" y1="1105.288574" x2="758.924805" y2="1155.288574" style="stroke: green; stroke-width: 0.200000"/>
   <line x1="759.924805" y1="1105.288574" x2="759.924805" y2="1155.288574" style="stroke: green; stroke-width: 0.200000"/>
   <line x1="760.924744" y1="1105.288574" x2="760.924744" y2="1155.288574" style="stroke: green; stroke-width: 0.200000"/>
   <line x1="761.924744" y1="1105.288574" x2="761.924744" y2="1155.288574" style="stroke: green; stroke-width: 0.200000"/>
   <line x1="762.924805" y1="1105.288574" x2="762.924805" y2="1155.288574" style="stroke: green; stroke-width: 0.200000"/>
   <line x1="763.924805" y1="1105.288574" x2="763.924805" y2="1155.288574" style="stroke: green; stroke-width: 0.200000"/>
   <line x1="764.924805" y1="1105.288574" x2="764.924805" y2="1155.288574" style="stroke: green; stroke-width: 0.200000"/>
   <line x1="765.924744" y1="1105.288574" x2="765.924744" y2="1155.288574" style="stroke: green; stroke-width: 0.200000"/>
   <line x1="766.924744" y1="1105.288574" x2="766.924744" y2="1155.288574" style="stroke: green; stroke-width: 0.200000"/>
   <line x1="767.924805" y1="1105.288574" x2="767.924805" y2="1155.288574" style="stroke: green; stroke-width: 0.200000"/>
   <line x1="768.924805" y1="1105.288574" x2="768.924805" y2="1155.288574" style="stroke: green; stroke-width: 0.200000"/>
   <line x1="769.924805" y1="1105.288574" x2="769.924805" y2="1155.288574" style="stroke: green; stroke-width: 0.200000"/>
   <line x1="770.924744" y1="1105.288574" x2="770.924744" y2="1155.288574" style="stroke: green; stroke-width: 0.200000"/>
   <line x1="771.924744" y1="1105.288574" x2="771.924744" y2="1155.288574" style="stroke: green; stroke-width: 0.200000"/>
   <line x1="772.924805" y1="1105.288574" x2="772.924805" y2="1155.288574" style="stroke: green; stroke-width: 0.200000"/>
   <line x1="773.924805" y1="1105.288574" x2="773.924805" y2="1155.288574" style="stroke: green; stroke-width: 0.200000"/>
   <line x1="774.924805" y1="1105.288574" x2="774.924805" y2="1155.288574" style="stroke: green; stroke-width: 0.200000"/>
   <line x1="775.924744" y1="1105.288574" x2="775.924744" y2="1155.288574" style="stroke: green; stroke-width: 0.200000"/>
   <line x1="776.924744" y1="1105.288574" x2="776.924744" y2="1155.288574" style="stroke: green; stroke-width: 0.200000"/>
   <line x1="777.924805" y1="1105.288574" x2="777.924805" y2="1155.288574" style="stroke: green; stroke-width: 0.200000"/>
   <line x1="778.924805" y1="1105.288574" x2="778.924805" y2="1155.288574" style="stroke: green; stroke-width: 0.200000"/>
   <line x1="779.924805" y1="1105.288574" x2="779.924805" y2="1155.288574" style="stroke: green; stroke-width: 0.200000"/>
   <line x1="780.924744" y1="1105.288574" x2="780.924744" y2="1155.288574" style="stroke: green; stroke-width: 0.200000"/>
   <line x1="781.924744" y1="1105.288574" x2="781.924744" y2="1155.288574" style="stroke: green; stroke-width: 0.200000"/>
   <line x1="782.924805" y1="1105.288574" x2="782.924805" y2="1155.288574" style="stroke: green; stroke-width: 0.200000"/>
   <line x1="783.924805" y1="1105.288574" x2="783.924805" y2="1155.288574" style="stroke: green; stroke-width: 0.200000"/>
   <line x1="784.924805" y1="1105.288574" x2="784.924805" y2="1155.288574" style="stroke: green; stroke-width: 0.200000"/>
   <line x1="785.924744" y1="1105.288574" x2="785.924744" y2="1155.288574" style="stroke: green; stroke-width: 0.200000"/>
   <line x1="786.924744" y1="1105.288574" x2="786.924744" y2="1155.288574" style="stroke: green; stroke-width: 0.200000"/>
   <line x1="787.924805" y1="1105.288574" x2="787.924805" y2="1155.288574" style="stroke: green; stroke-width: 0.200000"/>
   <line x1="788.924805" y1="1105.288574" x2="788.924805" y2="1155.288574" style="stroke: green; stroke-width: 0.200000"/>
   <line x1="789.924805" y1="1105.288574" x2="789.924805" y2="1155.288574" style="stroke: green; stroke-width: 0.200000"/>
   <line x1="790.924744" y1="1105.288574" x2="790.924744" y2="1155.288574" style="stroke: green; stroke-width: 0.200000"/>
   <line x1="791.924744" y1="1105.288574" x2="791.924744" y2="1155.288574" style="stroke: green; stroke-width: 0.200000"/>
   <line x1="792.924805" y1="1105.288574" x2="792.924805" y2="1155.288574" style="stroke: green; stroke-width: 0.200000"/>
   <line x1="793.924805" y1="1105.288574" x2="793.924805" y2="1155.288574" style="stroke: green; stroke-width: 0.200000"/>
   <line x1="794.924805" y1="1105.288574" x2="794.924805" y2="1155.288574" style="stroke: green; stroke-width: 0.200000"/>
   <line x1="795.924744" y1="1105.288574" x2="795.924744" y2="1155.288574" style="stroke: green; stroke-width: 0.200000"/>
   <line x1="796.924744" y1="1105.288574" x2="796.924744" y2="1155.288574" style="stroke: green; stroke-width: 0.200000"/>
   <line x1="797.924805" y1="1105.288574" x2="797.924805" y2="1155.288574" style="stroke: green; stroke-width: 0.200000"/>
   <line x1="754.924805" y1="1105.288574" x2="754.924805" y2="1152.707520" style="stroke: green; stroke-width: 0.200000"/>
   <line x1="753.924805" y1="1105.288574" x2="753.924805" y2="1149.587524" style="stroke: green; stroke-width: 0.200000"/>
   <line x1="752.924805" y1="1105.288574" x2="752.924805" y2="1145.985962" style="stroke: green; stroke-width: 0.200000"/>
   <line x1="751.924744" y1="1105.288574" x2="751.924744" y2="1142.000610" style="stroke: green; stroke-width: 0.200000"/>
   <line x1="750.924744" y1="1105.288574" x2="750.924744" y2="1137.333130" style="stroke: green; stroke-width: 0.200000"/>
   <line x1="749.924805" y1="1105.288574" x2="749.924805" y2="1132.073853" style="stroke: green; stroke-width: 0.200000"/>
   <line x1="748.924805" y1="1105.288574" x2="748.924805" y2="1123.762329" style="stroke: green; stroke-width: 0.200000"/>
   <line x1="798.924805" y1="1105.288574" x2="798.924805" y2="1155.288574" style="stroke: green; stroke-width: 0.200000"/>
   <line x1="799.924805" y1="1105.288574" x2="799.924805" y2="1155.288574" style="stroke: green; stroke-width: 0.200000"/>
   <line x1="800.924744" y1="1105.288574" x2="800.924744" y2="1155.288574" style="stroke: green; stroke-width: 0.200000"/>
   <line x1="801.924744" y1="1105.288574" x2="801.924744" y2="1155.288574" style="stroke: green; stroke-width: 0.200000"/>
   <line x1="802.924805" y1="1105.288574" x2="802.924805" y2="1155.288574" style="stroke: green; stroke-width: 0.200000"/>
   <line x1="803.924805" y1="1105.288574" x2="803.924805" y2="1155.288574" style="stroke: green; stroke-width: 0.200000"/>
   <line x1="804.924805" y1="1105.288574" x2="804.924805" y2="1155.288574" style="stroke: green; stroke-width: 0.200000"/>
   <line x1="805.924744" y1="1105.288574" x2="805.924744" y2="1155.288574" style="stroke: green; stroke-width: 0.200000"/>
   <line x1="806.924744" y1="1105.288574" x2="806.924744" y2="1155.288574" style="stroke: green; stroke-width: 0.200000"/>
   <line x1="807.924805" y1="1105.288574" x2="807.924805" y2="1155.288574" style="stroke: green; stroke-width: 0.200000"/>
   <line x1="808.924805" y1="1105.288574" x2="808.924805" y2="1155.288574" style="stroke: green; stroke-width: 0.200000"/>
   <line x1="809.924805" y1="1105.288574" x2="809.924805" y2="1155.288574" style="stroke: green; stroke-width: 0.200000"/>
   <line x1="810.924744" y1="1105.288574" x2="810.924744" y2="1155.288574" style="stroke: green; stroke-width: 0.200000"/>
   <line x1="811.924744" y1="1105.288574" x2="811.924744" y2="1155.288574" style="stroke: green; stroke-width: 0.200000"/>
   <line x1="812.924805" y1="1105.288574" x2="812.924805" y2="1155.288574" style="stroke: green; stroke-width: 0.200000"/>
   <line x1="813.924805" y1="1105.288574" x2="813.924805" y2="1155.288574" style="stroke: green; stroke-width: 0.200000"/>
   <line x1="814.924805" y1="1105.288574" x2="814.924805" y2="1155.288574" style="stroke: green; stroke-width: 0.200000"/>
   <line x1="815.924744" y1="1105.288574" x2="815.924744" y2="1155.288574" style="stroke: green; stroke-width: 0.200000"/>
   <line x1="816.924744" y1="1105.288574" x2="816.924744" y2="1155.288574" style="stroke: green; stroke-width: 0.200000"/>
   <line x1="817.924805" y1="1105.288574" x2="817.924805" y2="1155.288574" style="stroke: green; stroke-width: 0.200000"/>
   <line x1="818.924805" y1="1105.288574" x2="818.924805" y2="1155.288574" style="stroke: green; stroke-width: 0.200000"/>
   <line x1="819.924805" y1="1105.288574" x2="819.924805" y2="1155.288574" style="stroke: green; stroke-width: 0.200000"/>
   <line x1="820.924744" y1="1105.288574" x2="820.924744" y2="1155.288574" style="stroke: green; stroke-width: 0.200000"/>
   <line x1="821.924744" y1="1105.288574" x2="821.924744" y2="1155.288574" style="stroke: green; stroke-width: 0.200000"/>
   <line x1="822.924805" y1="1105.288574" x2="822.924805" y2="1155.288574" style="stroke: green; stroke-width: 0.200000"/>
   <line x1="823.924805" y1="1105.288574" x2="823.924805" y2="1155.288574" style="stroke: green; stroke-width: 0.200000"/>
   <line x1="824.924805" y1="1105.288574" x2="824.924805" y2="1155.288574" style="stroke: green; stroke-width: 0.200000"/>
   <line x1="825.924744" y1="1105.288574" x2="825.924744" y2="1155.288574" style="stroke: green; stroke-width: 0.200000"/>
   <line x1="826.924744" y1="1105.288574" x2="826.924744" y2="1155.288574" style="stroke: green; stroke-width: 0.200000"/>
   <line x1="827.924805" y1="1105.288574" x2="827.924805" y2="1155.288574" style="stroke: green; stroke-width: 0.200000"/>
   <line x1="828.924805" y1="1105.288574" x2="828.924805" y2="1155.288574" style="stroke: green; stroke-width: 0.200000"/>
   <line x1="829.924805" y1="1105.288574" x2="829.924805" y2="1155.288574" style="stroke: green; stroke-width: 0.200000"/>
   <line x1="830.924744" y1="1105.288574" x2="830.924744" y2="1155.288574" style="stroke: green; stroke-width: 0.200000"/>
   <line x1="831.924744" y1="1105.288574" x2="831.924744" y2="1155.288574" style="stroke: green; stroke-width: 0.200000"/>
   <line x1="832.924805" y1="1105.288574" x2="832.924805" y2="1155.288574" style="stroke: green; stroke-width: 0.200000"/>
   <line x1="833.924805" y1="1105.288574" x2="833.924805" y2="1155.288574" style="stroke: green; stroke-width: 0.200000"/>
   <line x1="834.924805" y1="1105.288574" x2="834.924805" y2="1155.288574" style="stroke: green; stroke-width: 0.200000"/>
   <line x1="835.924744" y1="1105.288574" x2="835.924744" y2="1155.288574" style="stroke: green; stroke-width: 0.200000"/>
   <line x1="836.924744" y1="1105.288574" x2="836.924744" y2="1155.288574" style="stroke: green; stroke-width: 0.200000"/>
   <line x1="837.924805" y1="1105.288574" x2="837.924805" y2="1155.288574" style="stroke: green; stroke-width: 0.200000"/>
   <line x1="838.924805" y1="1105.288574" x2="838.924805" y2="1155.288574" style="stroke: green; stroke-width: 0.200000"/>
   <line x1="839.924805" y1="1105.288574" x2="839.924805" y2="1155.288574" style="stroke: green; stroke-width: 0.200000"/>
   <line x1="840.924744" y1="1105.288574" x2="840.924744" y2="1155.288574" style="stroke: green; stroke-width: 0.200000"/>
   <line x1="841.924744" y1="1105.288574" x2="841.924744" y2="1155.288574" style="stroke: green; stroke-width: 0.200000"/>
   <line x1="842.924805" y1="1105.288574" x2="842.924805" y2="1155.288574" style="stroke: green; stroke-width: 0.200000"/>
   <line x1="843.924805" y1="1105.288574" x2="843.924805" y2="1155.288574" style="stroke: green; stroke-width: 0.200000"/>
   <line x1="844.924805" y1="1105.288574" x2="844.924805" y2="1155.288574" style="stroke: green; stroke-width: 0.200000"/>
   <line x1="845.924744" y1="1105.288574" x2="845.924744" y2="1155.288574" style="stroke: green; stroke-width: 0.200000"/>
   <line x1="846.924744" y1="1105.288574" x2="846.924744" y2="1155.288574" style="stroke: green; stroke-width: 0.200000"/>
   <line x1="847.924805" y1="1105.288574" x2="847.924805" y2="1155.288574" style="stroke: green; stroke-width: 0.200000"/>
   <line x1="848.924805" y1="1105.288574" x2="848.924805" y2="1155.288574" style="stroke: green; stroke-width: 0.200000"/>
   <line x1="849.924805" y1="1105.288574" x2="849.924805" y2="1155.288574" style="stroke: green; stroke-width: 0.200000"/>
   <line x1="850.924744" y1="1105.288574" x2="850.924744" y2="1155.288574" style="stroke: green; stroke-width: 0.200000"/>
   <line x1="851.924744" y1="1105.288574" x2="851.924744" y2="1155.288574" style="stroke: green; stroke-width: 0.200000"/>
   <line x1="852.924805" y1="1105.288574" x2="852.924805" y2="1155.288574" style="stroke: green; stroke-width: 0.200000"/>
   <line x1="853.924805" y1="1105.288574" x2="853.924805" y2="1155.288574" style="stroke: green; stroke-width: 0.200000"/>
   <line x1="854.924805" y1="1105.288574" x2="854.924805" y2="1155.288574" style="stroke: green; stroke-width: 0.200000"/>
   <line x1="855.924744" y1="1105.288574" x2="855.924744" y2="1155.288574" style="stroke: green; stroke-width: 0.200000"/>
   <line x1="856.924744" y1="1105.288574" x2="856.924744" y2="1155.288574" style="stroke: green; stroke-width: 0.200000"/>
   <line x1="857.924805" y1="1105.288574" x2="857.924805" y2="1155.288574" style="stroke: green; stroke-width: 0.200000"/>
   <line x1="858.924805" y1="1105.288574" x2="858.924805" y2="1155.288574" style="stroke: green; stroke-width: 0.200000"/>
   <line x1="859.924805" y1="1105.288574" x2="859.924805" y2="1155.288574" style="stroke: green; stroke-width: 0.200000"/>
   <line x1="860.924744" y1="1105.288574" x2="860.924744" y2="1155.288574" style="stroke: green; stroke-width: 0.200000"/>
   <line x1="861.924744" y1="1105.288574" x2="861.924744" y2="1155.288574" style="stroke: green; stroke-width: 0.200000"/>
   <line x1="862.924805" y1="1105.288574" x2="862.924805" y2="1155.288574" style="stroke: green; stroke-width: 0.200000"/>
   <line x1="863.924805" y1="1105.288574" x2="863.924805" y2="1155.288574" style="stroke: green; stroke-width: 0.200000"/>
   <line x1="864.924805" y1="1105.288574" x2="864.924805" y2="1155.288574" style="stroke: green; stroke-width: 0.200000"/>
   <line x1="865.924744" y1="1105.288574" x2="865.924744" y2="1155.288574" style="stroke: green; stroke-width: 0.200000"/>
   <line x1="866.924744" y1="1105.288574" x2="866.924744" y2="1155.288574" style="stroke: green; stroke-width: 0.200000"/>
   <line x1="867.924805" y1="1105.288574" x2="867.924805" y2="1155.288574" style="stroke: green; stroke-width: 0.200000"/>
   <line x1="868.924805" y1="1105.288574" x2="868.924805" y2="1155.288574" style="stroke: green; stroke-width: 0.200000"/>
   <line x1="869.924805" y1="1105.288574" x2="869.924805" y2="1155.288574" style="stroke: green; stroke-width: 0.200000"/>
   <line x1="870.924744" y1="1105.288574" x2="870.924744" y2="1155.288574" style="stroke: green; stroke-width: 0.200000"/>
   <line x1="871.924744" y1="1105.288574" x2="871.924744" y2="1155.288574" style="stroke: green; stroke-width: 0.200000"/>
   <line x1="872.924805" y1="1105.288574" x2="872.924805" y2="1155.288574" style="stroke: green; stroke-width: 0.200000"/>
   <line x1="873.924805" y1="1105.288574" x2="873.924805" y2="1155.288574" style="stroke: green; stroke-width: 0.200000"/>
   <line x1="874.924805" y1="1105.288574" x2="874.924805" y2="1155.288574" style="stroke: green; stroke-width: 0.200000"/>
   <line x1="875.924744" y1="1105.288574" x2="875.924744" y2="1155.288574" style="stroke: green; stroke-width: 0.200000"/>
   <line x1="876.924744" y1="1105.288574" x2="876.924744" y2="1155.288574" style="stroke: green; stroke-width: 0.200000"/>
   <line x1="877.924805" y1="1105.288574" x2="877.924805" y2="1155.288574" style="stroke: green; stroke-width: 0.200000"/>
   <line x1="878.924805" y1="1105.288574" x2="878.924805" y2="1155.288574" style="stroke: green; stroke-width: 0.200000"/>
   <line x1="879.924805" y1="1105.288574" x2="879.924805" y2="1155.288574" style="stroke: green; stroke-width: 0.200000"/>
   <line x1="880.924744" y1="1105.288574" x2="880.924744" y2="1155.288574" style="stroke: green; stroke-width: 0.200000"/>
   <line x1="881.924744" y1="1105.288574" x2="881.924744" y2="1155.288574" style="stroke: green; stroke-width: 0.200000"/>
   <line x1="882.924805" y1="1105.288574" x2="882.924805" y2="1155.288574" style="stroke: green; stroke-width: 0.200000"/>
   <line x1="883.924805" y1="1105.288574" x2="883.924805" y2="1155.288574" style="stroke: green; stroke-width: 0.200000"/>
   <line x1="884.924805" y1="1105.288574" x2="884.924805" y2="1155.288574" style="stroke: green; stroke-width: 0.200000"/>
   <line x1="885.924744" y1="1105.288574" x2="885.924744" y2="1155.288574" style="stroke: green; stroke-width: 0.200000"/>
   <line x1="886.924744" y1="1105.288574" x2="886.924744" y2="1155.288574" style="stroke: green; stroke-width: 0.200000"/>
   <line x1="887.924805" y1="1105.288574" x2="887.924805" y2="1155.288574" style="stroke: green; stroke-width: 0.200000"/>
   <line x1="888.924805" y1="1105.288574" x2="888.924805" y2="1155.288574" style="stroke: green; stroke-width: 0.200000"/>
   <line x1="889.924805" y1="1105.288574" x2="889.924805" y2="1155.288574" style="stroke: green; stroke-width: 0.200000"/>
   <line x1="890.924744" y1="1105.288574" x2="890.924744" y2="1155.288574" style="stroke: green; stroke-width: 0.200000"/>
   <line x1="891.924744" y1="1105.288574" x2="891.924744" y2="1155.288574" style="stroke: green; stroke-width: 0.200000"/>
   <line x1="892.924805" y1="1105.288574" x2="892.924805" y2="1155.288574" style="stroke: green; stroke-width: 0.200000"/>
   <line x1="893.924805" y1="1105.288574" x2="893.924805" y2="1155.288574" style="stroke: green; stroke-width: 0.200000"/>
   <line x1="894.924805" y1="1105.288574" x2="894.924805" y2="1155.288574" style="stroke: green; stroke-width: 0.200000"/>
   <line x1="895.924744" y1="1105.288574" x2="895.924744" y2="1155.288574" style="stroke: green; stroke-width: 0.200000"/>
   <line x1="896.924744" y1="1105.288574" x2="896.924744" y2="1155.288574" style="stroke: green; stroke-width: 0.200000"/>
   <line x1="897.924805" y1="1106.252686" x2="897.924805" y2="1155.288574" style="stroke: green; stroke-width: 0.200000"/>
   <line x1="898.924805" y1="1109.729858" x2="898.924805" y2="1155.288574" style="stroke: green; stroke-width: 0.200000"/>
   <line x1="899.924805" y1="1113.228027" x2="899.924805" y2="1155.153442" style="stroke: green; stroke-width: 0.200000"/>
   <line x1="900.924744" y1="1117.547363" x2="900.924744" y2="1151.116333" style="stroke: green; stroke-width: 0.200000"/>
   <line x1="901.924744" y1="1122.499878" x2="901.924744" y2="1145.932373" style="stroke: green; stroke-width: 0.200000"/>
   <line x1="902.924805" y1="1129.316895" x2="902.924805" y2="1140.536499" style="stroke: green; stroke-width: 0.200000"/>
   <line x1="797.924805" y1="1155.388672" x2="797.924805" y2="1197.746460" style="stroke: green; stroke-width: 0.200000"/>
   <line x1="796.924744" y1="1155.388672" x2="796.924744" y2="1197.269653" style="stroke: green; stroke-width: 0.200000"/>
   <line x1="795.924744" y1="1155.388672" x2="795.924744" y2="1196.792725" style="stroke: green; stroke-width: 0.200000"/>
   <line x1="794.924805" y1="1155.388672" x2="794.924805" y2="1196.315796" style="stroke: green; stroke-width: 0.200000"/>
   <line x1="793.924805" y1="1155.388672" x2="793.924805" y2="1195.838867" style="stroke: green; stroke-width: 0.200000"/>
   <line x1="792.924805" y1="1155.388672" x2="792.924805" y2="1195.245117" style="stroke: green; stroke-width: 0.200000"/>
   <line x1="791.924744" y1="1155.388672" x2="791.924744" y2="1194.630005" style="stroke: green; stroke-width: 0.200000"/>
   <line x1="790.924744" y1="1155.388672" x2="790.924744" y2="1194.015015" style="stroke: green; stroke-width: 0.200000"/>
   <line x1="789.924805" y1="1155.388672" x2="789.924805" y2="1193.400024" style="stroke: green; stroke-width: 0.200000"/>
   <line x1="788.924805" y1="1155.388672" x2="788.924805" y2="1192.785034" style="stroke: green; stroke-width: 0.200000"/>
   <line x1="787.924805" y1="1155.388672" x2="787.924805" y2="1192.170166" style="stroke: green; stroke-width: 0.200000"/>
   <line x1="786.924744" y1="1155.388672" x2="786.924744" y2="1191.555054" style="stroke: green; stroke-width: 0.200000"/>
   <line x1="785.924744" y1="1155.388672" x2="785.924744" y2="1190.881470" style="stroke: green; stroke-width: 0.200000"/>
   <line x1="784.924805" y1="1155.388672" x2="784.924805" y2="1190.179565" style="stroke: green; stroke-width: 0.200000"/>
   <line x1="783.924805" y1="1155.388672" x2="783.924805" y2="1189.477539" style="stroke: green; stroke-width: 0.200000"/>
   <line x1="782.924805" y1="1155.388672" x2="782.924805" y2="1188.775513" style="stroke: green; stroke-width: 0.200000"/>
   <line x1="781.924744" y1="1155.388672" x2="781.924744" y2="1188.073608" style="stroke: green; stroke-width: 0.200000"/>
   <line x1="780.924744" y1="1155.388672" x2="780.924744" y2="1187.371704" style="stroke: green; stroke-width: 0.200000"/>
   <line x1="779.924805" y1="1155.388672" x2="779.924805" y2="1186.669678" style="stroke: green; stroke-width: 0.200000"/>
   <line x1="778.924805" y1="1155.388672" x2="778.924805" y2="1185.967773" style="stroke: green; stroke-width: 0.200000"/>
   <line x1="777.924805" y1="1155.388672" x2="777.924805" y2="1185.265747" style="stroke: green; stroke-width: 0.200000"/>
   <line x1="776.924744" y1="1155.388672" x2="776.924744" y2="1184.508423" style="stroke: green; stroke-width: 0.200000"/>
   <line x1="775.924744" y1="1155.388672" x2="775.924744" y2="1183.542969" style="stroke: green; stroke-width: 0.200000"/>
   <line x1="774.924805" y1="1155.388672" x2="774.924805" y2="1182.571533" style="stroke: green; stroke-width: 0.200000"/>
   <line x1="773.924805" y1="1155.388672" x2="773.924805" y2="1181.599976" style="stroke: green; stroke-width: 0.200000"/>
   <line x1="772.924805" y1="1155.388672" x2="772.924805" y2="1180.628418" style="stroke: green; stroke-width: 0.200000"/>
   <line x1="771.924744" y1="1155.388672" x2="771.924744" y2="1179.656860" style="stroke: green; stroke-width: 0.200000"/>
   <line x1="770.924744" y1="1155.388672" x2="770.924744" y2="1178.685303" style="stroke: green; stroke-width: 0.200000"/>
   <line x1="769.924805" y1="1155.388672" x2="769.924805" y2="1177.713745" style="stroke: green; stroke-width: 0.200000"/>
   <line x1="768.924805" y1="1155.388672" x2="768.924805" y2="1176.629761" style="stroke: green; stroke-width: 0.200000"/>
   <line x1="767.924805" y1="1155.388672" x2="767.924805" y2="1175.510742" style="stroke: green; stroke-width: 0.200000"/>
   <line x1="766.924744" y1="1155.388672" x2="766.924744" y2="1174.227539" style="stroke: green; stroke-width: 0.200000"/>
   <line x1="765.924744" y1="1155.388672" x2="765.924744" y2="1172.887695" style="stroke: green; stroke-width: 0.200000"/>
   <line x1="764.924805" y1="1155.388672" x2="764.924805" y2="1171.547729" style="stroke: green; stroke-width: 0.200000"/>
   <line x1="763.924805" y1="1155.388672" x2="763.924805" y2="1170.207764" style="stroke: green; stroke-width: 0.200000"/>
   <line x1="762.924805" y1="1155.388672" x2="762.924805" y2="1168.867920" style="stroke: green; stroke-width: 0.200000"/>
   <line x1="761.924744" y1="1155.388672" x2="761.924744" y2="1167.528076" style="stroke: green; stroke-width: 0.200000"/>
   <line x1="760.924744" y1="1155.388672" x2="760.924744" y2="1165.926147" style="stroke: green; stroke-width: 0.200000"/>
   <line x1="759.924805" y1="1155.388672" x2="759.924805" y2="1164.104736" style="stroke: green; stroke-width: 0.200000"/>
   <line x1="758.924805" y1="1155.388672" x2="758.924805" y2="1162.283203" style="stroke: green; stroke-width: 0.200000"/>
   <line x1="757.924805" y1="1155.388672" x2="757.924805" y2="1160.461792" style="stroke: green; stroke-width: 0.200000"/>
   <line x1="756.924744" y1="1155.388672" x2="756.924744" y2="1158.640259" style="stroke: green; stroke-width: 0.200000"/>
   <line x1="755.924744" y1="1155.388672" x2="755.924744" y2="1155.827515" style="stroke: green; stroke-width: 0.200000"/>
   <line x1="821.924744" y1="1155.388672" x2="821.924744" y2="1205.388672" style="stroke: green; stroke-width: 0.200000"/>
   <line x1="822.924805" y1="1155.388672" x2="822.924805" y2="1205.388672" style="stroke: green; stroke-width: 0.200000"/>
   <line x1="823.924805" y1="1155.388672" x2="823.924805" y2="1205.388672" style="stroke: green; stroke-width: 0.200000"/>
   <line x1="824.924805" y1="1155.388672" x2="824.924805" y2="1205.388672" style="stroke: green; stroke-width: 0.200000"/>
   <line x1="825.924744" y1="1155.388672" x2="825.924744" y2="1205.388672" style="stroke: green; stroke-width: 0.200000"/>
   <line x1="826.924744" y1="1155.388672" x2="826.924744" y2="1205.388672" style="stroke: green; stroke-width: 0.200000"/>
   <line x1="827.924805" y1="1155.388672" x2="827.924805" y2="1205.388672" style="stroke: green; stroke-width: 0.200000"/>
   <line x1="828.924805" y1="1155.388672" x2="828.924805" y2="1205.388672" style="stroke: green; stroke-width: 0.200000"/>
   <line x1="829.924805" y1="1155.388672" x2="829.924805" y2="1205.388672" style="stroke: green; stroke-width: 0.200000"/>
   <line x1="830.924744" y1="1155.388672" x2="830.924744" y2="1205.376587" style="stroke: green; stroke-width: 0.200000"/>
   <line x1="820.924744" y1="1155.388672" x2="820.924744" y2="1205.348877" style="stroke: green; stroke-width: 0.200000"/>
   <line x1="831.924744" y1="1155.388672" x2="831.924744" y2="1205.344482" style="stroke: green; stroke-width: 0.200000"/>
   <line x1="832.924805" y1="1155.388672" x2="832.924805" y2="1205.312500" style="stroke: green; stroke-width: 0.200000"/>
   <line x1="833.924805" y1="1155.388672" x2="833.924805" y2="1205.269775" style="stroke: green; stroke-width: 0.200000"/>
   <line x1="834.924805" y1="1155.388672" x2="834.924805" y2="1205.204102" style="stroke: green; stroke-width: 0.200000"/>
   <line x1="819.924805" y1="1155.388672" x2="819.924805" y2="1205.176514" style="stroke: green; stroke-width: 0.200000"/>
   <line x1="835.924744" y1="1155.388672" x2="835.924744" y2="1205.050659" style="stroke: green; stroke-width: 0.200000"/>
   <line x1="818.924805" y1="1155.388672" x2="818.924805" y2="1205.004150" style="stroke: green; stroke-width: 0.200000"/>
   <line x1="836.924744" y1="1155.388672" x2="836.924744" y2="1204.868408" style="stroke: green; stroke-width: 0.200000"/>
   <line x1="817.924805" y1="1155.388672" x2="817.924805" y2="1204.831909" style="stroke: green; stroke-width: 0.200000"/>
   <line x1="837.924805" y1="1155.388672" x2="837.924805" y2="1204.686157" style="stroke: green; stroke-width: 0.200000"/>
   <line x1="816.924744" y1="1155.388672" x2="816.924744" y2="1204.609985" style="stroke: green; stroke-width: 0.200000"/>
   <line x1="838.924805" y1="1155.388672" x2="838.924805" y2="1204.503906" style="stroke: green; stroke-width: 0.200000"/>
   <line x1="815.924744" y1="1155.388672" x2="815.924744" y2="1204.336426" style="stroke: green; stroke-width: 0.200000"/>
   <line x1="839.924805" y1="1155.388672" x2="839.924805" y2="1204.321533" style="stroke: green; stroke-width: 0.200000"/>
   <line x1="840.924744" y1="1155.388672" x2="840.924744" y2="1204.139282" style="stroke: green; stroke-width: 0.200000"/>
   <line x1="814.924805" y1="1155.388672" x2="814.924805" y2="1204.062744" style="stroke: green; stroke-width: 0.200000"/>
   <line x1="841.924744" y1="1155.388672" x2="841.924744" y2="1203.957031" style="stroke: green; stroke-width: 0.200000"/>
   <line x1="813.924805" y1="1155.388672" x2="813.924805" y2="1203.789185" style="stroke: green; stroke-width: 0.200000"/>
   <line x1="842.924805" y1="1155.388672" x2="842.924805" y2="1203.774780" style="stroke: green; stroke-width: 0.200000"/>
   <line x1="843.924805" y1="1155.388672" x2="843.924805" y2="1203.587891" style="stroke: green; stroke-width: 0.200000"/>
   <line x1="812.924805" y1="1155.388672" x2="812.924805" y2="1203.515503" style="stroke: green; stroke-width: 0.200000"/>
   <line x1="844.924805" y1="1155.388672" x2="844.924805" y2="1203.339355" style="stroke: green; stroke-width: 0.200000"/>
   <line x1="811.924744" y1="1155.388672" x2="811.924744" y2="1203.241943" style="stroke: green; stroke-width: 0.200000"/>
   <line x1="845.924744" y1="1155.388672" x2="845.924744" y2="1203.090820" style="stroke: green; stroke-width: 0.200000"/>
   <line x1="810.924744" y1="1155.388672" x2="810.924744" y2="1202.960449" style="stroke: green; stroke-width: 0.200000"/>
   <line x1="846.924744" y1="1155.388672" x2="846.924744" y2="1202.842285" style="stroke: green; stroke-width: 0.200000"/>
   <line x1="809.924805" y1="1155.388672" x2="809.924805" y2="1202.636597" style="stroke: green; stroke-width: 0.200000"/>
   <line x1="847.924805" y1="1155.388672" x2="847.924805" y2="1202.590820" style="stroke: green; stroke-width: 0.200000"/>
   <line x1="808.924805" y1="1155.388672" x2="808.924805" y2="1202.312500" style="stroke: green; stroke-width: 0.200000"/>
   <line x1="807.924805" y1="1155.388672" x2="807.924805" y2="1201.981445" style="stroke: green; stroke-width: 0.200000"/>
   <line x1="806.924744" y1="1155.388672" x2="806.924744" y2="1201.594971" style="stroke: green; stroke-width: 0.200000"/>
   <line x1="805.924744" y1="1155.388672" x2="805.924744" y2="1201.208496" style="stroke: green; stroke-width: 0.200000"/>
   <line x1="804.924805" y1="1155.388672" x2="804.924805" y2="1200.822021" style="stroke: green; stroke-width: 0.200000"/>
   <line x1="803.924805" y1="1155.388672" x2="803.924805" y2="1200.435547" style="stroke: green; stroke-width: 0.200000"/>
   <line x1="802.924805" y1="1155.388672" x2="802.924805" y2="1200.048950" style="stroke: green; stroke-width: 0.200000"/>
   <line x1="801.924744" y1="1155.388672" x2="801.924744" y2="1199.654053" style="stroke: green; stroke-width: 0.200000"/>
   <line x1="800.924744" y1="1155.388672" x2="800.924744" y2="1199.177246" style="stroke: green; stroke-width: 0.200000"/>
   <line x1="799.924805" y1="1155.388672" x2="799.924805" y2="1198.700317" style="stroke: green; stroke-width: 0.200000"/>
   <line x1="798.924805" y1="1155.388672" x2="798.924805" y2="1198.223389" style="stroke: green; stroke-width: 0.200000"/>
   <line x1="848.924805" y1="1155.388672" x2="848.924805" y2="1202.332397" style="stroke: green; stroke-width: 0.200000"/>
   <line x1="849.924805" y1="1155.388672" x2="849.924805" y2="1202.073975" style="stroke: green; stroke-width: 0.200000"/>
   <line x1="850.924744" y1="1155.388672" x2="850.924744" y2="1201.815430" style="stroke: green; stroke-width: 0.200000"/>
   <line x1="851.924744" y1="1155.388672" x2="851.924744" y2="1201.557129" style="stroke: green; stroke-width: 0.200000"/>
   <line x1="852.924805" y1="1155.388672" x2="852.924805" y2="1201.298584" style="stroke: green; stroke-width: 0.200000"/>
   <line x1="853.924805" y1="1155.388672" x2="853.924805" y2="1200.931030" style="stroke: green; stroke-width: 0.200000"/>
   <line x1="854.924805" y1="1155.388672" x2="854.924805" y2="1200.542969" style="stroke: green; stroke-width: 0.200000"/>
   <line x1="855.924744" y1="1155.388672" x2="855.924744" y2="1200.154785" style="stroke: green; stroke-width: 0.200000"/>
   <line x1="856.924744" y1="1155.388672" x2="856.924744" y2="1199.766602" style="stroke: green; stroke-width: 0.200000"/>
   <line x1="857.924805" y1="1155.388672" x2="857.924805" y2="1199.378418" style="stroke: green; stroke-width: 0.200000"/>
   <line x1="858.924805" y1="1155.388672" x2="858.924805" y2="1199.009521" style="stroke: green; stroke-width: 0.200000"/>
   <line x1="859.924805" y1="1155.388672" x2="859.924805" y2="1198.647705" style="stroke: green; stroke-width: 0.200000"/>
   <line x1="860.924744" y1="1155.388672" x2="860.924744" y2="1198.285889" style="stroke: green; stroke-width: 0.200000"/>
   <line x1="861.924744" y1="1155.388672" x2="861.924744" y2="1197.923950" style="stroke: green; stroke-width: 0.200000"/>
   <line x1="862.924805" y1="1155.388672" x2="862.924805" y2="1197.562134" style="stroke: green; stroke-width: 0.200000"/>
   <line x1="863.924805" y1="1155.388672" x2="863.924805" y2="1197.103394" style="stroke: green; stroke-width: 0.200000"/>
   <line x1="864.924805" y1="1155.388672" x2="864.924805" y2="1196.595947" style="stroke: green; stroke-width: 0.200000"/>
   <line x1="865.924744" y1="1155.388672" x2="865.924744" y2="1196.088501" style="stroke: green; stroke-width: 0.200000"/>
   <line x1="866.924744" y1="1155.388672" x2="866.924744" y2="1195.581055" style="stroke: green; stroke-width: 0.200000"/>
   <line x1="867.924805" y1="1155.388672" x2="867.924805" y2="1195.112427" style="stroke: green; stroke-width: 0.200000"/>
   <line x1="868.924805" y1="1155.388672" x2="868.924805" y2="1194.704712" style="stroke: green; stroke-width: 0.200000"/>
   <line x1="869.924805" y1="1155.388672" x2="869.924805" y2="1194.297119" style="stroke: green; stroke-width: 0.200000"/>
   <line x1="870.924744" y1="1155.388672" x2="870.924744" y2="1193.889404" style="stroke: green; stroke-width: 0.200000"/>
   <line x1="871.924744" y1="1155.388672" x2="871.924744" y2="1193.481689" style="stroke: green; stroke-width: 0.200000"/>
   <line x1="872.924805" y1="1155.388672" x2="872.924805" y2="1193.073975" style="stroke: green; stroke-width: 0.200000"/>
   <line x1="873.924805" y1="1155.388672" x2="873.924805" y2="1192.666260" style="stroke: green; stroke-width: 0.200000"/>
   <line x1="874.924805" y1="1155.388672" x2="874.924805" y2="1192.258667" style="stroke: green; stroke-width: 0.200000"/>
   <line x1="875.924744" y1="1155.388672" x2="875.924744" y2="1191.850952" style="stroke: green; stroke-width: 0.200000"/>
   <line x1="876.924744" y1="1155.388672" x2="876.924744" y2="1191.443237" style="stroke: green; stroke-width: 0.200000"/>
   <line x1="877.924805" y1="1155.388672" x2="877.924805" y2="1190.772217" style="stroke: green; stroke-width: 0.200000"/>
   <line x1="878.924805" y1="1155.388672" x2="878.924805" y2="1189.947998" style="stroke: green; stroke-width: 0.200000"/>
   <line x1="879.924805" y1="1155.388672" x2="879.924805" y2="1189.123657" style="stroke: green; stroke-width: 0.200000"/>
   <line x1="880.924744" y1="1155.388672" x2="880.924744" y2="1188.299438" style="stroke: green; stroke-width: 0.200000"/>
   <line x1="881.924744" y1="1155.388672" x2="881.924744" y2="1187.475098" style="stroke: green; stroke-width: 0.200000"/>
   <line x1="882.924805" y1="1155.388672" x2="882.924805" y2="1186.650879" style="stroke: green; stroke-width: 0.200000"/>
   <line x1="883.924805" y1="1155.388672" x2="883.924805" y2="1185.826538" style="stroke: green; stroke-width: 0.200000"/>
   <line x1="884.924805" y1="1155.388672" x2="884.924805" y2="1185.002319" style="stroke: green; stroke-width: 0.200000"/>
   <line x1="885.924744" y1="1155.388672" x2="885.924744" y2="1184.076416" style="stroke: green; stroke-width: 0.200000"/>
   <line x1="886.924744" y1="1155.388672" x2="886.924744" y2="1183.086914" style="stroke: green; stroke-width: 0.200000"/>
   <line x1="887.924805" y1="1155.388672" x2="887.924805" y2="1182.097534" style="stroke: green; stroke-width: 0.200000"/>
   <line x1="888.924805" y1="1155.388672" x2="888.924805" y2="1181.108032" style="stroke: green; stroke-width: 0.200000"/>
   <line x1="889.924805" y1="1155.388672" x2="889.924805" y2="1179.941650" style="stroke: green; stroke-width: 0.200000"/>
   <line x1="890.924744" y1="1155.388672" x2="890.924744" y2="1178.646973" style="stroke: green; stroke-width: 0.200000"/>
   <line x1="891.924744" y1="1155.388672" x2="891.924744" y2="1177.352173" style="stroke: green; stroke-width: 0.200000"/>
   <line x1="892.924805" y1="1155.388672" x2="892.924805" y2="1175.200317" style="stroke: green; stroke-width: 0.200000"/>
   <line x1="893.924805" y1="1155.388672" x2="893.924805" y2="1173.014893" style="stroke: green; stroke-width: 0.200000"/>
   <line x1="894.924805" y1="1155.388672" x2="894.924805" y2="1170.829590" style="stroke: green; stroke-width: 0.200000"/>
   <line x1="895.924744" y1="1155.388672" x2="895.924744" y2="1168.644043" style="stroke: green; stroke-width: 0.200000"/>
   <line x1="896.924744" y1="1155.388672" x2="896.924744" y2="1165.328613" style="stroke: green; stroke-width: 0.200000"/>
   <line x1="897.924805" y1="1155.388672" x2="897.924805" y2="1162.228271" style="stroke: green; stroke-width: 0.200000"/>
   <line x1="898.924805" y1="1155.388672" x2="898.924805" y2="1159.127563" style="stroke: green; stroke-width: 0.200000"/>
   <line x1="825.924744" y1="1205.488525" x2="825.924744" y2="1205.521851" style="stroke: green; stroke-width: 0.200000"/>
   <line x1="826.924744" y1="1205.488525" x2="826.924744" y2="1205.504639" style="stroke: green; stroke-width: 0.200000"/>
   <line x1="824.924805" y1="1205.488525" x2="824.924805" y2="1205.502441" style="stroke: green; stroke-width: 0.200000"/>
   <path d="M 804.455  1004.31  804.563  1004.33  804.662  1004.36  814.427  1008.22  818.409  1010.61  822.499  1013.33  828.299  1019.06  829.234  1019.93  830.145  1021.24  835.226  1027.87  840.966  1036.44  847.081  1043.34  850.512  1046.18  853.257  1048.12  857.365  1051.46  864.598  1056.4  865.583  1057.1  866.248  1057.6  872.618  1062.91  878.13  1067.89  879.949  1069.44  884.069  1073.45  887.106  1076.49  887.859  1077.88  891.482  1085.71  894.082  1091.56  895.363  1094.7  897.13  1099.15  898.675  1103.62  899.437  1106.06  901.425  1113.02  902.406  1117.3  903.956  1124.99  904.327  1127.91  904.914  1136.06  904.744  1138.95  903.067  1148  902.889  1149.67  902.324  1151.68  900.46  1159.25  898.215  1166.21  897.75  1168.26  893.255  1178.08  890.472  1181.69  886.316  1185.8  878.425  1192.3  877.74  1192.73  868.159  1196.64  863.857  1198.82  858.719  1200.68  853.544  1202.69  847.996  1204.12  844.171  1205.07  835.356  1206.68  833.68  1206.79  826.222  1207.03  821.278  1206.93  817.089  1206.21  810.651  1204.45  807.537  1203.44  801.423  1201.08  793.054  1197.09  785.512  1192.45  785.3  1192.28  776.35  1185.99  775.856  1185.57  768.605  1178.52  766.506  1176.17  760.204  1167.73  755.106  1158.44  754.801  1157.24  752.163  1149  751.071  1144.83  749.953  1140.25  747.987  1129.91  747.148  1120.83  746.693  1115.2  746.555  1112.74  747.208  1103.57  747.278  1102.88  748.041  1098.72  749.323  1092.1  751.467  1082.53  753.05  1071.05  752.947  1069.86  752.729  1062.43  752.591  1058.98  752.613  1058.26  753.791  1046.84  754.17  1045.09  758.352  1034.53  760.477  1030.86  763.483  1025.78  767.104  1021.49  769.969  1018.14  772.505  1015.74  777.053  1011.86  783.638  1006.69  785.309  1005.56  786.858  1005.18  795.562  1003.58  804.455  1004.31  " style="fill: none; stroke: darkmagenta; stroke-width: 0.200000; fill-type: evenodd"  fill-opacity="1.000000" />
   <path d="M 804.351  1005.31  813.983  1009.12  817.875  1011.46  821.865  1014.11  827.607  1019.78  828.474  1020.59  829.338  1021.83  834.413  1028.45  840.173  1037.06  846.384  1044.06  849.903  1046.97  852.653  1048.92  856.766  1052.26  864.027  1057.22  864.994  1057.9  865.626  1058.38  871.962  1063.66  877.47  1068.64  879.275  1070.18  883.367  1074.16  886.295  1077.09  886.965  1078.33  890.571  1086.12  893.162  1091.96  894.435  1095.07  896.193  1099.5  897.725  1103.93  898.478  1106.35  900.456  1113.27  901.429  1117.51  902.968  1125.15  903.332  1128.01  903.912  1136.07  903.75  1138.83  902.077  1147.85  901.903  1149.48  901.357  1151.42  899.498  1158.98  897.25  1165.95  896.798  1167.94  892.393  1177.56  889.721  1181.02  885.645  1185.06  877.84  1191.49  877.284  1191.84  867.743  1195.73  863.459  1197.9  858.368  1199.74  853.237  1201.73  847.751  1203.15  843.96  1204.09  835.233  1205.68  833.632  1205.79  826.216  1206.03  821.373  1205.93  817.306  1205.23  810.938  1203.49  807.871  1202.5  801.819  1200.16  793.533  1196.21  786.091  1191.63  785.902  1191.48  776.965  1185.2  776.531  1184.83  769.328  1177.83  767.281  1175.54  761.047  1167.19  756.044  1158.08  755.763  1156.96  753.124  1148.73  752.041  1144.58  750.93  1140.04  748.978  1129.77  748.144  1120.75  747.69  1115.13  747.557  1112.75  748.205  1103.66  748.269  1103.03  749.024  1098.91  750.302  1092.31  752.452  1082.71  754.056  1071.07  753.945  1069.81  753.728  1062.39  753.591  1058.98  753.611  1058.33  754.781  1047  755.13  1045.38  759.254  1034.97  761.34  1031.37  764.301  1026.36  767.866  1022.13  770.694  1018.83  773.174  1016.48  777.686  1012.63  784.227  1007.5  785.722  1006.49  787.069  1006.16  795.613  1004.58  804.351  1005.31  " style="fill: none; stroke: black; stroke-width: 0.200000; fill-type: evenodd"  fill-opacity="1.000000" />
   <path d="M 823.571  1348.43  824.393  1349.36  824.69  1350.56  824.393  1351.76  823.571  1352.69  822.412  1353.13  821.181  1352.98  820.161  1352.28  819.584  1351.18  819.584  1349.94  820.161  1348.84  821.181  1348.14  822.412  1347.99  823.571  1348.43  " style="fill: none; stroke: purple; stroke-width: 0.500000; fill-type: evenodd"  fill-opacity="1.000000" />
   <path d="M 843.099  1348.83  843.831  1349.56  844.099  1350.56  843.831  1351.56  843.099  1352.29  842.099  1352.56  841.099  1352.29  840.367  1351.56  840.099  1350.56  840.367  1349.56  841.099  1348.83  842.099  1348.56  843.099  1348.83  " style="fill: none; stroke: purple; stroke-width: 0.500000; fill-type: evenodd"  fill-opacity="1.000000" />
   <path d="M 823.099  1328.83  823.831  1329.56  824.099  1330.56  823.831  1331.56  823.099  1332.29  822.099  1332.56  821.099  1332.29  820.367  1331.56  820.099  1330.56  820.367  1329.56  821.099  1328.83  822.099  1328.56  823.099  1328.83  " style="fill: none; stroke: purple; stroke-width: 0.500000; fill-type: evenodd"  fill-opacity="1.000000" />
   <path d="M 803.297  1308.49  804.173  1309.36  804.494  1310.56  804.173  1311.76  803.297  1312.63  802.099  1312.95  800.902  1312.63  800.026  1311.76  799.705  1310.56  800.026  1309.36  800.902  1308.49  802.099  1308.17  803.297  1308.49  " style="fill: none; stroke: purple; stroke-width: 0.500000; fill-type: evenodd"  fill-opacity="1.000000" />
   <path d="M 823.099  1308.83  823.831  1309.56  824.099  1310.56  823.831  1311.56  823.099  1312.29  822.099  1312.56  821.099  1312.29  820.367  1311.56  820.099  1310.56  820.367  1309.56  821.099  1308.83  822.099  1308.56  823.099  1308.83  " style="fill: none; stroke: purple; stroke-width: 0.500000; fill-type: evenodd"  fill-opacity="1.000000" />
   <path d="M 803.174  1288.7  803.96  1289.48  804.248  1290.56  803.96  1291.63  803.174  1292.42  802.099  1292.71  801.025  1292.42  800.239  1291.63  799.951  1290.56  800.239  1289.48  801.025  1288.7  802.099  1288.41  803.174  1288.7  " style="fill: none; stroke: purple; stroke-width: 0.500000; fill-type: evenodd"  fill-opacity="1.000000" />
   <path d="M 843.099  1288.83  843.831  1289.56  844.099  1290.56  843.831  1291.56  843.099  1292.29  842.099  1292.56  841.099  1292.29  840.367  1291.56  840.099  1290.56  840.367  1289.56  841.099  1288.83  842.099  1288.56  843.099  1288.83  " style="fill: none; stroke: purple; stroke-width: 0.500000; fill-type: evenodd"  fill-opacity="1.000000" />
   <path d="M 823.099  1288.83  823.831  1289.56  824.099  1290.56  823.831  1291.56  823.099  1292.29  822.099  1292.56  821.099  1292.29  820.367  1291.56  820.099  1290.56  820.367  1289.56  821.099  1288.83  822.099  1288.56  823.099  1288.83  " style="fill: none; stroke: purple; stroke-width: 0.500000; fill-type: evenodd"  fill-opacity="1.000000" />
   <path d="M 843.099  1268.83  843.831  1269.56  844.099  1270.56  843.831  1271.56  843.099  1272.29  842.099  1272.56  841.099  1272.29  840.367  1271.56  840.099  1270.56  840.367  1269.56  841.099  1268.83  842.099  1268.56  843.099  1268.83  " style="fill: none; stroke: purple; stroke-width: 0.500000; fill-type: evenodd"  fill-opacity="1.000000" />
   <path d="M 823.099  1268.83  823.831  1269.56  824.099  1270.56  823.831  1271.56  823.099  1272.29  822.099  1272.56  821.099  1272.29  820.367  1271.56  820.099  1270.56  820.367  1269.56  821.099  1268.83  822.099  1268.56  823.099  1268.83  " style="fill: none; stroke: purple; stroke-width: 0.500000; fill-type: evenodd"  fill-opacity="1.000000" />
   <path d="M 1005.12  1243.94  1006.87  1245.06  1008.23  1246.62  1009.09  1248.51  1009.38  1250.56  1009.09  1252.61  1008.23  1254.5  1006.87  1256.06  1005.12  1257.18  1003.14  1257.77  1001.06  1257.77  999.074  1257.18  997.331  1256.06  995.973  1254.5  995.112  1252.61  994.817  1250.56  995.112  1248.51  995.973  1246.62  997.331  1245.06  999.074  1243.94  1001.06  1243.35  1003.14  1243.35  1005.12  1243.94  " style="fill: none; stroke: purple; stroke-width: 0.500000; fill-type: evenodd"  fill-opacity="1.000000" />
   <path d="M 843.099  1248.83  843.831  1249.56  844.099  1250.56  843.831  1251.56  843.099  1252.29  842.099  1252.56  841.099  1252.29  840.367  1251.56  840.099  1250.56  840.367  1249.56  841.099  1248.83  842.099  1248.56  843.099  1248.83  " style="fill: none; stroke: purple; stroke-width: 0.500000; fill-type: evenodd"  fill-opacity="1.000000" />
   <path d="M 803.099  1248.83  803.831  1249.56  804.099  1250.56  803.831  1251.56  803.099  1252.29  802.099  1252.56  801.099  1252.29  800.367  1251.56  800.099  1250.56  800.367  1249.56  801.099  1248.83  802.099  1248.56  803.099  1248.83  " style="fill: none; stroke: purple; stroke-width: 0.500000; fill-type: evenodd"  fill-opacity="1.000000" />
   <path d="M 823.099  1248.83  823.831  1249.56  824.099  1250.56  823.831  1251.56  823.099  1252.29  822.099  1252.56  821.099  1252.29  820.367  1251.56  820.099  1250.56  820.367  1249.56  821.099  1248.83  822.099  1248.56  823.099  1248.83  " style="fill: none; stroke: purple; stroke-width: 0.500000; fill-type: evenodd"  fill-opacity="1.000000" />
   <path d="M 1004.21  1222.67  1006.18  1223.49  1007.87  1224.79  1009.17  1226.48  1009.99  1228.45  1010.26  1230.56  1009.99  1232.67  1009.17  1234.64  1007.87  1236.33  1006.18  1237.63  1004.21  1238.45  1002.1  1238.72  999.986  1238.45  998.017  1237.63  996.326  1236.33  995.029  1234.64  994.213  1232.67  993.935  1230.56  994.213  1228.45  995.029  1226.48  996.326  1224.79  998.017  1223.49  999.986  1222.67  1002.1  1222.39  1004.21  1222.67  " style="fill: none; stroke: purple; stroke-width: 0.500000; fill-type: evenodd"  fill-opacity="1.000000" />
   <path d="M 984.185  1222.78  986.128  1223.58  987.797  1224.86  989.077  1226.53  989.882  1228.47  990.157  1230.56  989.882  1232.64  989.077  1234.59  987.797  1236.26  986.128  1237.54  984.185  1238.34  982.099  1238.62  980.014  1238.34  978.071  1237.54  976.402  1236.26  975.121  1234.59  974.316  1232.64  974.042  1230.56  974.316  1228.47  975.121  1226.53  976.402  1224.86  978.071  1223.58  980.014  1222.78  982.099  1222.5  984.185  1222.78  " style="fill: none; stroke: purple; stroke-width: 0.500000; fill-type: evenodd"  fill-opacity="1.000000" />
   <path d="M 964.172  1222.82  966.103  1223.62  967.762  1224.9  969.035  1226.56  969.835  1228.49  970.107  1230.56  969.835  1232.63  969.035  1234.56  967.762  1236.22  966.103  1237.49  964.172  1238.29  962.099  1238.57  960.027  1238.29  958.095  1237.49  956.437  1236.22  955.164  1234.56  954.364  1232.63  954.091  1230.56  954.364  1228.49  955.164  1226.56  956.437  1224.9  958.095  1223.62  960.027  1222.82  962.099  1222.55  964.172  1222.82  " style="fill: none; stroke: purple; stroke-width: 0.500000; fill-type: evenodd"  fill-opacity="1.000000" />
   <path d="M 844.956  1227.7  845.831  1229.01  846.139  1230.56  845.831  1232.1  844.956  1233.42  843.645  1234.29  842.099  1234.6  840.554  1234.29  839.243  1233.42  838.368  1232.1  838.06  1230.56  838.368  1229.01  839.151  1227.84  843.874  1226.98  844.956  1227.7  " style="fill: none; stroke: purple; stroke-width: 0.500000; fill-type: evenodd"  fill-opacity="1.000000" />
   <path d="M 823.612  1228.48  824.389  1229.36  824.685  1230.56  824.389  1231.76  823.568  1232.69  822.411  1233.13  821.183  1232.98  820.164  1232.27  819.589  1231.18  819.589  1229.94  820.164  1228.84  820.771  1228.43  823.612  1228.48  " style="fill: none; stroke: purple; stroke-width: 0.500000; fill-type: evenodd"  fill-opacity="1.000000" />
   <path d="M 1005.36  1201.97  1007.32  1203  1008.98  1204.47  1010.24  1206.29  1011.02  1208.36  1011.29  1210.56  1011.02  1212.76  1010.24  1214.83  1008.98  1216.65  1007.32  1218.12  1005.36  1219.15  1003.21  1219.68  1000.99  1219.68  998.841  1219.15  996.88  1218.12  995.222  1216.65  993.964  1214.83  993.178  1212.76  992.911  1210.56  993.178  1208.36  993.964  1206.29  995.222  1204.47  996.88  1203  998.841  1201.97  1000.99  1201.44  1003.21  1201.44  1005.36  1201.97  " style="fill: none; stroke: purple; stroke-width: 0.500000; fill-type: evenodd"  fill-opacity="1.000000" />
   <path d="M 924.877  1202.01  926.916  1202.97  928.652  1204.41  929.976  1206.23  930.806  1208.32  931.088  1210.56  930.806  1212.79  929.976  1214.89  928.652  1216.71  926.916  1218.15  924.877  1219.11  922.664  1219.53  920.415  1219.39  918.272  1218.69  916.37  1217.48  914.828  1215.84  913.742  1213.87  913.182  1211.69  913.182  1209.43  913.742  1207.25  914.828  1205.28  916.37  1203.63  918.272  1202.43  920.415  1201.73  922.664  1201.59  924.877  1202.01  " style="fill: none; stroke: purple; stroke-width: 0.500000; fill-type: evenodd"  fill-opacity="1.000000" />
   <path d="M 984.726  1202.48  986.654  1203.38  988.296  1204.74  989.548  1206.46  990.332  1208.45  990.599  1210.56  990.332  1212.67  989.548  1214.65  988.296  1216.38  986.654  1217.74  984.726  1218.64  982.633  1219.04  980.507  1218.91  978.48  1218.25  976.681  1217.11  975.223  1215.56  974.196  1213.69  973.666  1211.62  973.666  1209.49  974.196  1207.43  975.223  1205.56  976.681  1204.01  978.48  1202.87  980.507  1202.21  982.633  1202.08  984.726  1202.48  " style="fill: none; stroke: purple; stroke-width: 0.500000; fill-type: evenodd"  fill-opacity="1.000000" />
   <path d="M 964.265  1202.48  966.282  1203.31  968.015  1204.64  969.344  1206.38  970.18  1208.39  970.465  1210.56  970.18  1212.72  969.344  1214.74  968.015  1216.47  966.282  1217.8  964.265  1218.64  962.099  1218.92  959.934  1218.64  957.917  1217.8  956.184  1216.47  954.855  1214.74  954.019  1212.72  953.734  1210.56  954.019  1208.39  954.855  1206.38  956.184  1204.64  957.917  1203.31  959.934  1202.48  962.099  1202.19  964.265  1202.48  " style="fill: none; stroke: purple; stroke-width: 0.500000; fill-type: evenodd"  fill-opacity="1.000000" />
   <path d="M 944.227  1202.62  946.21  1203.44  947.913  1204.75  949.22  1206.45  950.041  1208.43  950.322  1210.56  950.041  1212.69  949.22  1214.67  947.913  1216.37  946.21  1217.68  944.227  1218.5  942.099  1218.78  939.971  1218.5  937.988  1217.68  936.285  1216.37  934.979  1214.67  934.157  1212.69  933.877  1210.56  934.157  1208.43  934.979  1206.45  936.285  1204.75  937.988  1203.44  939.971  1202.62  942.099  1202.34  944.227  1202.62  " style="fill: none; stroke: purple; stroke-width: 0.500000; fill-type: evenodd"  fill-opacity="1.000000" />
   <path d="M 912.059  1190.92  911.849  1192.78  911.109  1194.9  909.918  1196.79  908.334  1198.38  906.438  1199.57  904.325  1200.31  902.099  1200.56  901.981  1200.55  906.612  1195.96  910.781  1190.57  912.059  1190.92  " style="fill: none; stroke: purple; stroke-width: 0.500000; fill-type: evenodd"  fill-opacity="1.000000" />
   <path d="M 923.765  1181.12  925.898  1181.75  927.826  1182.87  929.446  1184.4  930.669  1186.26  931.431  1188.35  931.689  1190.56  931.431  1192.77  930.669  1194.86  929.446  1196.72  927.826  1198.25  925.898  1199.36  923.765  1200  921.542  1200.13  919.349  1199.75  917.305  1198.86  915.518  1197.53  914.087  1195.83  913.088  1193.84  912.574  1191.67  912.574  1191.06  912.775  1191.11  915.008  1184.19  915.518  1183.58  917.305  1182.25  919.349  1181.37  921.542  1180.99  923.765  1181.12  " style="fill: none; stroke: purple; stroke-width: 0.500000; fill-type: evenodd"  fill-opacity="1.000000" />
   <path d="M 965.342  1182.01  967.294  1183.03  968.944  1184.5  970.197  1186.31  970.978  1188.37  971.244  1190.56  970.978  1192.75  970.197  1194.81  968.944  1196.62  967.294  1198.09  965.342  1199.11  963.202  1199.64  960.997  1199.64  958.857  1199.11  956.905  1198.09  955.255  1196.62  954.002  1194.81  953.22  1192.75  952.955  1190.56  953.22  1188.37  954.002  1186.31  955.255  1184.5  956.905  1183.03  958.857  1182.01  960.997  1181.48  963.202  1181.48  965.342  1182.01  " style="fill: none; stroke: purple; stroke-width: 0.500000; fill-type: evenodd"  fill-opacity="1.000000" />
   <path d="M 944.874  1182.02  946.91  1182.98  948.645  1184.41  949.968  1186.23  950.796  1188.33  951.078  1190.56  950.796  1192.79  949.968  1194.88  948.645  1196.71  946.91  1198.14  944.874  1199.1  942.663  1199.52  940.417  1199.38  938.276  1198.68  936.376  1197.48  934.835  1195.84  933.751  1193.86  933.191  1191.68  933.191  1189.43  933.751  1187.25  934.835  1185.28  936.376  1183.64  938.276  1182.44  940.417  1181.74  942.663  1181.6  944.874  1182.02  " style="fill: none; stroke: purple; stroke-width: 0.500000; fill-type: evenodd"  fill-opacity="1.000000" />
   <path d="M 944.325  1160.81  946.438  1161.55  948.334  1162.74  949.918  1164.32  951.109  1166.22  951.849  1168.33  952.099  1170.56  951.849  1172.78  951.109  1174.9  949.918  1176.79  948.334  1178.38  946.438  1179.57  944.325  1180.31  942.099  1180.56  939.874  1180.31  937.761  1179.57  935.865  1178.38  934.281  1176.79  933.09  1174.9  932.35  1172.78  932.099  1170.56  932.35  1168.33  933.09  1166.22  934.281  1164.32  935.865  1162.74  937.761  1161.55  939.874  1160.81  942.099  1160.56  944.325  1160.81  " style="fill: none; stroke: purple; stroke-width: 0.500000; fill-type: evenodd"  fill-opacity="1.000000" />
   <path d="M 924.325  1160.81  926.438  1161.55  928.334  1162.74  929.918  1164.32  931.109  1166.22  931.849  1168.33  932.099  1170.56  931.849  1172.78  931.109  1174.9  929.918  1176.79  928.334  1178.38  926.438  1179.57  924.325  1180.31  922.099  1180.56  919.874  1180.31  917.761  1179.57  916.711  1178.91  917.166  1177.5  922.046  1166.84  920.841  1166.1  921.156  1165.13  922.276  1160.58  924.325  1160.81  " style="fill: none; stroke: purple; stroke-width: 0.500000; fill-type: evenodd"  fill-opacity="1.000000" />
</svg>
