<?xml version="1.0" encoding="UTF-8" standalone="yes"?>
<!DOCTYPE svg PUBLIC "-//W3C//DTD SVG 1.0//EN" "http://www.w3.org/TR/2001/REC-SVG-20010904/DTD/svg10.dtd">
<svg height="2000" width="2000" xmlns="http://www.w3.org/2000/svg" xmlns:svg="http://www.w3.org/2000/svg" xmlns:xlink="http://www.w3.org/1999/xlink">
   <marker id="endArrow" markerHeight="8" markerUnits="strokeWidth" markerWidth="10" orient="auto" refX="1" refY="5" viewBox="0 0 1000 1000">
      <polyline fill="darkblue" points="0,0 10,5 0,10 1,5" />
   </marker>
   <circle cx="1000" cy="1000" r="1" style="stroke:black; fill: red" />
   <circle cx="1000" cy="1000" r="800" style="stroke:black; fill: none" />
   <line x1="803.911072" y1="1096.828125" x2="759.060608" y2="1096.828125" style="stroke: green; stroke-width: 0.200000"/>
   <line x1="803.911072" y1="1095.828125" x2="759.493774" y2="1095.828125" style="stroke: green; stroke-width: 0.200000"/>
   <line x1="803.911072" y1="1094.828125" x2="759.934937" y2="1094.828125" style="stroke: green; stroke-width: 0.200000"/>
   <line x1="803.911072" y1="1093.828125" x2="760.384888" y2="1093.828125" style="stroke: green; stroke-width: 0.200000"/>
   <line x1="803.911072" y1="1092.828125" x2="760.863708" y2="1092.828125" style="stroke: green; stroke-width: 0.200000"/>
   <line x1="803.911072" y1="1091.828125" x2="761.342529" y2="1091.828125" style="stroke: green; stroke-width: 0.200000"/>
   <line x1="803.911072" y1="1090.828125" x2="761.821350" y2="1090.828125" style="stroke: green; stroke-width: 0.200000"/>
   <line x1="803.911072" y1="1089.828125" x2="762.300110" y2="1089.828125" style="stroke: green; stroke-width: 0.200000"/>
   <line x1="803.911072" y1="1088.828125" x2="762.778931" y2="1088.828125" style="stroke: green; stroke-width: 0.200000"/>
   <line x1="803.911072" y1="1087.828125" x2="763.257751" y2="1087.828125" style="stroke: green; stroke-width: 0.200000"/>
   <line x1="803.911072" y1="1086.828125" x2="763.736511" y2="1086.828125" style="stroke: green; stroke-width: 0.200000"/>
   <line x1="803.911072" y1="1085.828125" x2="764.215332" y2="1085.828125" style="stroke: green; stroke-width: 0.200000"/>
   <line x1="803.911072" y1="1084.828125" x2="764.694153" y2="1084.828125" style="stroke: green; stroke-width: 0.200000"/>
   <line x1="803.911072" y1="1083.828125" x2="765.186218" y2="1083.828125" style="stroke: green; stroke-width: 0.200000"/>
   <line x1="803.911072" y1="1082.828125" x2="765.763611" y2="1082.828125" style="stroke: green; stroke-width: 0.200000"/>
   <line x1="803.911072" y1="1081.828125" x2="766.340942" y2="1081.828125" style="stroke: green; stroke-width: 0.200000"/>
   <line x1="803.911072" y1="1080.828125" x2="766.918335" y2="1080.828125" style="stroke: green; stroke-width: 0.200000"/>
   <line x1="803.911072" y1="1079.828125" x2="767.495667" y2="1079.828125" style="stroke: green; stroke-width: 0.200000"/>
   <line x1="803.911072" y1="1078.828125" x2="768.073059" y2="1078.828125" style="stroke: green; stroke-width: 0.200000"/>
   <line x1="803.911072" y1="1077.828125" x2="768.687744" y2="1077.828125" style="stroke: green; stroke-width: 0.200000"/>
   <line x1="803.911072" y1="1076.828125" x2="769.322449" y2="1076.828125" style="stroke: green; stroke-width: 0.200000"/>
   <line x1="803.911072" y1="1075.828125" x2="769.957031" y2="1075.828125" style="stroke: green; stroke-width: 0.200000"/>
   <line x1="803.911072" y1="1074.828125" x2="770.651245" y2="1074.828125" style="stroke: green; stroke-width: 0.200000"/>
   <line x1="803.911072" y1="1073.828125" x2="771.467590" y2="1073.828125" style="stroke: green; stroke-width: 0.200000"/>
   <line x1="803.911072" y1="1072.828125" x2="772.283997" y2="1072.828125" style="stroke: green; stroke-width: 0.200000"/>
   <line x1="803.911072" y1="1071.828125" x2="773.100464" y2="1071.828125" style="stroke: green; stroke-width: 0.200000"/>
   <line x1="803.911072" y1="1070.828125" x2="773.916870" y2="1070.828125" style="stroke: green; stroke-width: 0.200000"/>
   <line x1="803.911072" y1="1069.828125" x2="774.733215" y2="1069.828125" style="stroke: green; stroke-width: 0.200000"/>
   <line x1="803.911072" y1="1068.828125" x2="775.554138" y2="1068.828125" style="stroke: green; stroke-width: 0.200000"/>
   <line x1="803.911072" y1="1067.828125" x2="776.456238" y2="1067.828125" style="stroke: green; stroke-width: 0.200000"/>
   <line x1="803.911072" y1="1066.828125" x2="777.358337" y2="1066.828125" style="stroke: green; stroke-width: 0.200000"/>
   <line x1="803.911072" y1="1065.828125" x2="778.260498" y2="1065.828125" style="stroke: green; stroke-width: 0.200000"/>
   <line x1="803.911072" y1="1064.828125" x2="779.162598" y2="1064.828125" style="stroke: green; stroke-width: 0.200000"/>
   <line x1="803.911072" y1="1063.828125" x2="780.087952" y2="1063.828125" style="stroke: green; stroke-width: 0.200000"/>
   <line x1="803.911072" y1="1062.828125" x2="781.072937" y2="1062.828125" style="stroke: green; stroke-width: 0.200000"/>
   <line x1="803.911072" y1="1061.828125" x2="782.154846" y2="1061.828125" style="stroke: green; stroke-width: 0.200000"/>
   <line x1="803.911072" y1="1060.828125" x2="783.345337" y2="1060.828125" style="stroke: green; stroke-width: 0.200000"/>
   <line x1="803.911072" y1="1059.828125" x2="784.638000" y2="1059.828125" style="stroke: green; stroke-width: 0.200000"/>
   <line x1="803.911072" y1="1058.828125" x2="785.989502" y2="1058.828125" style="stroke: green; stroke-width: 0.200000"/>
   <line x1="803.911072" y1="1057.828125" x2="787.341187" y2="1057.828125" style="stroke: green; stroke-width: 0.200000"/>
   <line x1="803.911072" y1="1056.828125" x2="788.692688" y2="1056.828125" style="stroke: green; stroke-width: 0.200000"/>
   <line x1="803.911072" y1="1055.828125" x2="790.182251" y2="1055.828125" style="stroke: green; stroke-width: 0.200000"/>
   <line x1="803.911072" y1="1054.828125" x2="792.000183" y2="1054.828125" style="stroke: green; stroke-width: 0.200000"/>
   <line x1="803.911072" y1="1053.828125" x2="793.818054" y2="1053.828125" style="stroke: green; stroke-width: 0.200000"/>
   <line x1="803.911072" y1="1052.828125" x2="795.635986" y2="1052.828125" style="stroke: green; stroke-width: 0.200000"/>
   <line x1="803.911072" y1="1051.828125" x2="797.453857" y2="1051.828125" style="stroke: green; stroke-width: 0.200000"/>
   <line x1="803.911072" y1="1050.828125" x2="799.919067" y2="1050.828125" style="stroke: green; stroke-width: 0.200000"/>
   <line x1="803.911072" y1="1049.828125" x2="803.251831" y2="1049.828125" style="stroke: green; stroke-width: 0.200000"/>
   <line x1="854.011108" y1="1096.828125" x2="804.011108" y2="1096.828125" style="stroke: green; stroke-width: 0.200000"/>
   <line x1="854.011108" y1="1095.828125" x2="804.011108" y2="1095.828125" style="stroke: green; stroke-width: 0.200000"/>
   <line x1="854.011108" y1="1094.828125" x2="804.011108" y2="1094.828125" style="stroke: green; stroke-width: 0.200000"/>
   <line x1="854.011108" y1="1093.828125" x2="804.011108" y2="1093.828125" style="stroke: green; stroke-width: 0.200000"/>
   <line x1="854.011108" y1="1092.828125" x2="804.011108" y2="1092.828125" style="stroke: green; stroke-width: 0.200000"/>
   <line x1="854.011108" y1="1091.828125" x2="804.011108" y2="1091.828125" style="stroke: green; stroke-width: 0.200000"/>
   <line x1="854.011108" y1="1090.828125" x2="804.011108" y2="1090.828125" style="stroke: green; stroke-width: 0.200000"/>
   <line x1="854.011108" y1="1089.828125" x2="804.011108" y2="1089.828125" style="stroke: green; stroke-width: 0.200000"/>
   <line x1="854.011108" y1="1088.828125" x2="804.011108" y2="1088.828125" style="stroke: green; stroke-width: 0.200000"/>
   <line x1="854.011108" y1="1087.828125" x2="804.011108" y2="1087.828125" style="stroke: green; stroke-width: 0.200000"/>
   <line x1="854.011108" y1="1086.828125" x2="804.011108" y2="1086.828125" style="stroke: green; stroke-width: 0.200000"/>
   <line x1="854.011108" y1="1085.828125" x2="804.011108" y2="1085.828125" style="stroke: green; stroke-width: 0.200000"/>
   <line x1="854.011108" y1="1084.828125" x2="804.011108" y2="1084.828125" style="stroke: green; stroke-width: 0.200000"/>
   <line x1="854.011108" y1="1083.828125" x2="804.011108" y2="1083.828125" style="stroke: green; stroke-width: 0.200000"/>
   <line x1="854.011108" y1="1082.828125" x2="804.011108" y2="1082.828125" style="stroke: green; stroke-width: 0.200000"/>
   <line x1="854.011108" y1="1081.828125" x2="804.011108" y2="1081.828125" style="stroke: green; stroke-width: 0.200000"/>
   <line x1="854.011108" y1="1080.828125" x2="804.011108" y2="1080.828125" style="stroke: green; stroke-width: 0.200000"/>
   <line x1="854.011108" y1="1079.828125" x2="804.011108" y2="1079.828125" style="stroke: green; stroke-width: 0.200000"/>
   <line x1="854.011108" y1="1078.828125" x2="804.011108" y2="1078.828125" style="stroke: green; stroke-width: 0.200000"/>
   <line x1="854.011108" y1="1077.828125" x2="804.011108" y2="1077.828125" style="stroke: green; stroke-width: 0.200000"/>
   <line x1="854.011108" y1="1076.828125" x2="804.011108" y2="1076.828125" style="stroke: green; stroke-width: 0.200000"/>
   <line x1="854.011108" y1="1075.828125" x2="804.011108" y2="1075.828125" style="stroke: green; stroke-width: 0.200000"/>
   <line x1="854.011108" y1="1074.828125" x2="804.011108" y2="1074.828125" style="stroke: green; stroke-width: 0.200000"/>
   <line x1="854.011108" y1="1073.828125" x2="804.011108" y2="1073.828125" style="stroke: green; stroke-width: 0.200000"/>
   <line x1="854.011108" y1="1072.828125" x2="804.011108" y2="1072.828125" style="stroke: green; stroke-width: 0.200000"/>
   <line x1="854.011108" y1="1071.828125" x2="804.011108" y2="1071.828125" style="stroke: green; stroke-width: 0.200000"/>
   <line x1="854.011108" y1="1070.828125" x2="804.011108" y2="1070.828125" style="stroke: green; stroke-width: 0.200000"/>
   <line x1="854.011108" y1="1069.828125" x2="804.011108" y2="1069.828125" style="stroke: green; stroke-width: 0.200000"/>
   <line x1="854.011108" y1="1068.828125" x2="804.011108" y2="1068.828125" style="stroke: green; stroke-width: 0.200000"/>
   <line x1="854.011108" y1="1067.828125" x2="804.011108" y2="1067.828125" style="stroke: green; stroke-width: 0.200000"/>
   <line x1="854.011108" y1="1066.828125" x2="804.011108" y2="1066.828125" style="stroke: green; stroke-width: 0.200000"/>
   <line x1="854.011108" y1="1065.828125" x2="804.011108" y2="1065.828125" style="stroke: green; stroke-width: 0.200000"/>
   <line x1="854.011108" y1="1064.828125" x2="804.011108" y2="1064.828125" style="stroke: green; stroke-width: 0.200000"/>
   <line x1="854.011108" y1="1063.828125" x2="804.011108" y2="1063.828125" style="stroke: green; stroke-width: 0.200000"/>
   <line x1="854.011108" y1="1062.828125" x2="804.011108" y2="1062.828125" style="stroke: green; stroke-width: 0.200000"/>
   <line x1="853.743286" y1="1061.828125" x2="804.011108" y2="1061.828125" style="stroke: green; stroke-width: 0.200000"/>
   <line x1="852.641479" y1="1060.828125" x2="804.011108" y2="1060.828125" style="stroke: green; stroke-width: 0.200000"/>
   <line x1="851.539673" y1="1059.828125" x2="804.011108" y2="1059.828125" style="stroke: green; stroke-width: 0.200000"/>
   <line x1="850.190552" y1="1058.828125" x2="804.011108" y2="1058.828125" style="stroke: green; stroke-width: 0.200000"/>
   <line x1="848.058838" y1="1057.828125" x2="804.011108" y2="1057.828125" style="stroke: green; stroke-width: 0.200000"/>
   <line x1="846.062866" y1="1056.828125" x2="804.011108" y2="1056.828125" style="stroke: green; stroke-width: 0.200000"/>
   <line x1="844.219299" y1="1055.828125" x2="804.011108" y2="1055.828125" style="stroke: green; stroke-width: 0.200000"/>
   <line x1="842.375732" y1="1054.828125" x2="804.011108" y2="1054.828125" style="stroke: green; stroke-width: 0.200000"/>
   <line x1="840.183960" y1="1053.828125" x2="804.011108" y2="1053.828125" style="stroke: green; stroke-width: 0.200000"/>
   <line x1="837.111816" y1="1052.828125" x2="804.011108" y2="1052.828125" style="stroke: green; stroke-width: 0.200000"/>
   <line x1="834.875244" y1="1051.828125" x2="804.011108" y2="1051.828125" style="stroke: green; stroke-width: 0.200000"/>
   <line x1="833.176575" y1="1050.828125" x2="804.011108" y2="1050.828125" style="stroke: green; stroke-width: 0.200000"/>
   <line x1="831.097778" y1="1049.828125" x2="804.011108" y2="1049.828125" style="stroke: green; stroke-width: 0.200000"/>
   <line x1="826.147095" y1="1048.828125" x2="806.584534" y2="1048.828125" style="stroke: green; stroke-width: 0.200000"/>
   <line x1="821.417175" y1="1047.828125" x2="809.917297" y2="1047.828125" style="stroke: green; stroke-width: 0.200000"/>
   <line x1="874.646606" y1="1096.828125" x2="854.111023" y2="1096.828125" style="stroke: green; stroke-width: 0.200000"/>
   <line x1="874.347534" y1="1095.828125" x2="854.111023" y2="1095.828125" style="stroke: green; stroke-width: 0.200000"/>
   <line x1="874.022461" y1="1094.828125" x2="854.111023" y2="1094.828125" style="stroke: green; stroke-width: 0.200000"/>
   <line x1="873.697266" y1="1093.828125" x2="854.111023" y2="1093.828125" style="stroke: green; stroke-width: 0.200000"/>
   <line x1="873.372192" y1="1092.828125" x2="854.111023" y2="1092.828125" style="stroke: green; stroke-width: 0.200000"/>
   <line x1="873.046997" y1="1091.828125" x2="854.111023" y2="1091.828125" style="stroke: green; stroke-width: 0.200000"/>
   <line x1="872.721863" y1="1090.828125" x2="854.111023" y2="1090.828125" style="stroke: green; stroke-width: 0.200000"/>
   <line x1="872.396790" y1="1089.828125" x2="854.111023" y2="1089.828125" style="stroke: green; stroke-width: 0.200000"/>
   <line x1="872.042175" y1="1088.828125" x2="854.111023" y2="1088.828125" style="stroke: green; stroke-width: 0.200000"/>
   <line x1="871.635376" y1="1087.828125" x2="854.111023" y2="1087.828125" style="stroke: green; stroke-width: 0.200000"/>
   <line x1="871.228638" y1="1086.828125" x2="854.111023" y2="1086.828125" style="stroke: green; stroke-width: 0.200000"/>
   <line x1="870.821838" y1="1085.828125" x2="854.111023" y2="1085.828125" style="stroke: green; stroke-width: 0.200000"/>
   <line x1="870.411011" y1="1084.828125" x2="854.111023" y2="1084.828125" style="stroke: green; stroke-width: 0.200000"/>
   <line x1="869.960876" y1="1083.828125" x2="854.111023" y2="1083.828125" style="stroke: green; stroke-width: 0.200000"/>
   <line x1="869.510742" y1="1082.828125" x2="854.111023" y2="1082.828125" style="stroke: green; stroke-width: 0.200000"/>
   <line x1="869.060669" y1="1081.828125" x2="854.111023" y2="1081.828125" style="stroke: green; stroke-width: 0.200000"/>
   <line x1="868.610535" y1="1080.828125" x2="854.111023" y2="1080.828125" style="stroke: green; stroke-width: 0.200000"/>
   <line x1="868.160400" y1="1079.828125" x2="854.111023" y2="1079.828125" style="stroke: green; stroke-width: 0.200000"/>
   <line x1="867.580444" y1="1078.828125" x2="854.111023" y2="1078.828125" style="stroke: green; stroke-width: 0.200000"/>
   <line x1="866.895874" y1="1077.828125" x2="854.111023" y2="1077.828125" style="stroke: green; stroke-width: 0.200000"/>
   <line x1="866.211487" y1="1076.828125" x2="854.111023" y2="1076.828125" style="stroke: green; stroke-width: 0.200000"/>
   <line x1="865.526978" y1="1075.828125" x2="854.111023" y2="1075.828125" style="stroke: green; stroke-width: 0.200000"/>
   <line x1="864.842468" y1="1074.828125" x2="854.111023" y2="1074.828125" style="stroke: green; stroke-width: 0.200000"/>
   <line x1="864.157959" y1="1073.828125" x2="854.111023" y2="1073.828125" style="stroke: green; stroke-width: 0.200000"/>
   <line x1="863.473450" y1="1072.828125" x2="854.111023" y2="1072.828125" style="stroke: green; stroke-width: 0.200000"/>
   <line x1="862.788940" y1="1071.828125" x2="854.111023" y2="1071.828125" style="stroke: green; stroke-width: 0.200000"/>
   <line x1="862.104431" y1="1070.828125" x2="854.111023" y2="1070.828125" style="stroke: green; stroke-width: 0.200000"/>
   <line x1="861.448425" y1="1069.828125" x2="854.111023" y2="1069.828125" style="stroke: green; stroke-width: 0.200000"/>
   <line x1="860.813904" y1="1068.828125" x2="854.111023" y2="1068.828125" style="stroke: green; stroke-width: 0.200000"/>
   <line x1="860.179382" y1="1067.828125" x2="854.111023" y2="1067.828125" style="stroke: green; stroke-width: 0.200000"/>
   <line x1="859.544739" y1="1066.828125" x2="854.111023" y2="1066.828125" style="stroke: green; stroke-width: 0.200000"/>
   <line x1="858.744446" y1="1065.828125" x2="854.111023" y2="1065.828125" style="stroke: green; stroke-width: 0.200000"/>
   <line x1="857.403442" y1="1064.828125" x2="854.111023" y2="1064.828125" style="stroke: green; stroke-width: 0.200000"/>
   <line x1="856.062378" y1="1063.828125" x2="854.111023" y2="1063.828125" style="stroke: green; stroke-width: 0.200000"/>
   <line x1="854.845032" y1="1062.828125" x2="854.111023" y2="1062.828125" style="stroke: green; stroke-width: 0.200000"/>
   <line x1="803.911072" y1="1146.828125" x2="764.757751" y2="1146.828125" style="stroke: green; stroke-width: 0.200000"/>
   <line x1="803.911072" y1="1145.828125" x2="764.080750" y2="1145.828125" style="stroke: green; stroke-width: 0.200000"/>
   <line x1="803.911072" y1="1144.828125" x2="763.403625" y2="1144.828125" style="stroke: green; stroke-width: 0.200000"/>
   <line x1="803.911072" y1="1143.828125" x2="762.640991" y2="1143.828125" style="stroke: green; stroke-width: 0.200000"/>
   <line x1="803.911072" y1="1142.828125" x2="761.875610" y2="1142.828125" style="stroke: green; stroke-width: 0.200000"/>
   <line x1="803.911072" y1="1141.828125" x2="761.110229" y2="1141.828125" style="stroke: green; stroke-width: 0.200000"/>
   <line x1="803.911072" y1="1140.828125" x2="760.683838" y2="1140.828125" style="stroke: green; stroke-width: 0.200000"/>
   <line x1="803.911072" y1="1139.828125" x2="760.280457" y2="1139.828125" style="stroke: green; stroke-width: 0.200000"/>
   <line x1="803.911072" y1="1138.828125" x2="759.877075" y2="1138.828125" style="stroke: green; stroke-width: 0.200000"/>
   <line x1="803.911072" y1="1137.828125" x2="759.473755" y2="1137.828125" style="stroke: green; stroke-width: 0.200000"/>
   <line x1="803.911072" y1="1136.828125" x2="759.037842" y2="1136.828125" style="stroke: green; stroke-width: 0.200000"/>
   <line x1="803.911072" y1="1135.828125" x2="758.432556" y2="1135.828125" style="stroke: green; stroke-width: 0.200000"/>
   <line x1="803.911072" y1="1134.828125" x2="757.827271" y2="1134.828125" style="stroke: green; stroke-width: 0.200000"/>
   <line x1="803.911072" y1="1133.828125" x2="757.221985" y2="1133.828125" style="stroke: green; stroke-width: 0.200000"/>
   <line x1="803.911072" y1="1132.828125" x2="756.616760" y2="1132.828125" style="stroke: green; stroke-width: 0.200000"/>
   <line x1="803.911072" y1="1131.828125" x2="756.300720" y2="1131.828125" style="stroke: green; stroke-width: 0.200000"/>
   <line x1="803.911072" y1="1130.828125" x2="756.002808" y2="1130.828125" style="stroke: green; stroke-width: 0.200000"/>
   <line x1="803.911072" y1="1129.828125" x2="755.704834" y2="1129.828125" style="stroke: green; stroke-width: 0.200000"/>
   <line x1="803.911072" y1="1128.828125" x2="755.406860" y2="1128.828125" style="stroke: green; stroke-width: 0.200000"/>
   <line x1="803.911072" y1="1127.828125" x2="755.108948" y2="1127.828125" style="stroke: green; stroke-width: 0.200000"/>
   <line x1="803.911072" y1="1126.828125" x2="754.810913" y2="1126.828125" style="stroke: green; stroke-width: 0.200000"/>
   <line x1="803.911072" y1="1125.828125" x2="754.534607" y2="1125.828125" style="stroke: green; stroke-width: 0.200000"/>
   <line x1="803.911072" y1="1124.828125" x2="754.442688" y2="1124.828125" style="stroke: green; stroke-width: 0.200000"/>
   <line x1="803.911072" y1="1123.828125" x2="754.350708" y2="1123.828125" style="stroke: green; stroke-width: 0.200000"/>
   <line x1="803.911072" y1="1122.828125" x2="754.258789" y2="1122.828125" style="stroke: green; stroke-width: 0.200000"/>
   <line x1="803.911072" y1="1121.828125" x2="754.166870" y2="1121.828125" style="stroke: green; stroke-width: 0.200000"/>
   <line x1="803.911072" y1="1120.828125" x2="754.074951" y2="1120.828125" style="stroke: green; stroke-width: 0.200000"/>
   <line x1="803.911072" y1="1119.828125" x2="753.983032" y2="1119.828125" style="stroke: green; stroke-width: 0.200000"/>
   <line x1="803.911072" y1="1118.828125" x2="753.923218" y2="1118.828125" style="stroke: green; stroke-width: 0.200000"/>
   <line x1="803.911072" y1="1117.828125" x2="753.979431" y2="1117.828125" style="stroke: green; stroke-width: 0.200000"/>
   <line x1="803.911072" y1="1116.828125" x2="754.035522" y2="1116.828125" style="stroke: green; stroke-width: 0.200000"/>
   <line x1="803.911072" y1="1115.828125" x2="754.091431" y2="1115.828125" style="stroke: green; stroke-width: 0.200000"/>
   <line x1="803.911072" y1="1114.828125" x2="754.231689" y2="1114.828125" style="stroke: green; stroke-width: 0.200000"/>
   <line x1="803.911072" y1="1113.828125" x2="754.393188" y2="1113.828125" style="stroke: green; stroke-width: 0.200000"/>
   <line x1="803.911072" y1="1112.828125" x2="754.554565" y2="1112.828125" style="stroke: green; stroke-width: 0.200000"/>
   <line x1="803.911072" y1="1111.828125" x2="754.716064" y2="1111.828125" style="stroke: green; stroke-width: 0.200000"/>
   <line x1="803.911072" y1="1110.828125" x2="754.877441" y2="1110.828125" style="stroke: green; stroke-width: 0.200000"/>
   <line x1="803.911072" y1="1109.828125" x2="755.038818" y2="1109.828125" style="stroke: green; stroke-width: 0.200000"/>
   <line x1="803.911072" y1="1108.828125" x2="755.200256" y2="1108.828125" style="stroke: green; stroke-width: 0.200000"/>
   <line x1="803.911072" y1="1107.828125" x2="755.361694" y2="1107.828125" style="stroke: green; stroke-width: 0.200000"/>
   <line x1="803.911072" y1="1106.828125" x2="755.526428" y2="1106.828125" style="stroke: green; stroke-width: 0.200000"/>
   <line x1="803.911072" y1="1105.828125" x2="755.705627" y2="1105.828125" style="stroke: green; stroke-width: 0.200000"/>
   <line x1="803.911072" y1="1104.828125" x2="755.798950" y2="1104.828125" style="stroke: green; stroke-width: 0.200000"/>
   <line x1="803.911072" y1="1103.828125" x2="756.125854" y2="1103.828125" style="stroke: green; stroke-width: 0.200000"/>
   <line x1="803.911072" y1="1102.828125" x2="756.545105" y2="1102.828125" style="stroke: green; stroke-width: 0.200000"/>
   <line x1="803.911072" y1="1101.828125" x2="756.964355" y2="1101.828125" style="stroke: green; stroke-width: 0.200000"/>
   <line x1="803.911072" y1="1100.828125" x2="757.383545" y2="1100.828125" style="stroke: green; stroke-width: 0.200000"/>
   <line x1="803.911072" y1="1099.828125" x2="757.802856" y2="1099.828125" style="stroke: green; stroke-width: 0.200000"/>
   <line x1="803.911072" y1="1098.828125" x2="758.222107" y2="1098.828125" style="stroke: green; stroke-width: 0.200000"/>
   <line x1="803.911072" y1="1097.828125" x2="758.641357" y2="1097.828125" style="stroke: green; stroke-width: 0.200000"/>
   <line x1="854.011108" y1="1146.828125" x2="804.011108" y2="1146.828125" style="stroke: green; stroke-width: 0.200000"/>
   <line x1="854.011108" y1="1145.828125" x2="804.011108" y2="1145.828125" style="stroke: green; stroke-width: 0.200000"/>
   <line x1="854.011108" y1="1144.828125" x2="804.011108" y2="1144.828125" style="stroke: green; stroke-width: 0.200000"/>
   <line x1="854.011108" y1="1143.828125" x2="804.011108" y2="1143.828125" style="stroke: green; stroke-width: 0.200000"/>
   <line x1="854.011108" y1="1142.828125" x2="804.011108" y2="1142.828125" style="stroke: green; stroke-width: 0.200000"/>
   <line x1="854.011108" y1="1141.828125" x2="804.011108" y2="1141.828125" style="stroke: green; stroke-width: 0.200000"/>
   <line x1="854.011108" y1="1140.828125" x2="804.011108" y2="1140.828125" style="stroke: green; stroke-width: 0.200000"/>
   <line x1="854.011108" y1="1139.828125" x2="804.011108" y2="1139.828125" style="stroke: green; stroke-width: 0.200000"/>
   <line x1="854.011108" y1="1138.828125" x2="804.011108" y2="1138.828125" style="stroke: green; stroke-width: 0.200000"/>
   <line x1="854.011108" y1="1137.828125" x2="804.011108" y2="1137.828125" style="stroke: green; stroke-width: 0.200000"/>
   <line x1="854.011108" y1="1136.828125" x2="804.011108" y2="1136.828125" style="stroke: green; stroke-width: 0.200000"/>
   <line x1="854.011108" y1="1135.828125" x2="804.011108" y2="1135.828125" style="stroke: green; stroke-width: 0.200000"/>
   <line x1="854.011108" y1="1134.828125" x2="804.011108" y2="1134.828125" style="stroke: green; stroke-width: 0.200000"/>
   <line x1="854.011108" y1="1133.828125" x2="804.011108" y2="1133.828125" style="stroke: green; stroke-width: 0.200000"/>
   <line x1="854.011108" y1="1132.828125" x2="804.011108" y2="1132.828125" style="stroke: green; stroke-width: 0.200000"/>
   <line x1="854.011108" y1="1131.828125" x2="804.011108" y2="1131.828125" style="stroke: green; stroke-width: 0.200000"/>
   <line x1="854.011108" y1="1130.828125" x2="804.011108" y2="1130.828125" style="stroke: green; stroke-width: 0.200000"/>
   <line x1="854.011108" y1="1129.828125" x2="804.011108" y2="1129.828125" style="stroke: green; stroke-width: 0.200000"/>
   <line x1="854.011108" y1="1128.828125" x2="804.011108" y2="1128.828125" style="stroke: green; stroke-width: 0.200000"/>
   <line x1="854.011108" y1="1127.828125" x2="804.011108" y2="1127.828125" style="stroke: green; stroke-width: 0.200000"/>
   <line x1="854.011108" y1="1126.828125" x2="804.011108" y2="1126.828125" style="stroke: green; stroke-width: 0.200000"/>
   <line x1="854.011108" y1="1125.828125" x2="804.011108" y2="1125.828125" style="stroke: green; stroke-width: 0.200000"/>
   <line x1="854.011108" y1="1124.828125" x2="804.011108" y2="1124.828125" style="stroke: green; stroke-width: 0.200000"/>
   <line x1="854.011108" y1="1123.828125" x2="804.011108" y2="1123.828125" style="stroke: green; stroke-width: 0.200000"/>
   <line x1="854.011108" y1="1122.828125" x2="804.011108" y2="1122.828125" style="stroke: green; stroke-width: 0.200000"/>
   <line x1="854.011108" y1="1121.828125" x2="804.011108" y2="1121.828125" style="stroke: green; stroke-width: 0.200000"/>
   <line x1="854.011108" y1="1120.828125" x2="804.011108" y2="1120.828125" style="stroke: green; stroke-width: 0.200000"/>
   <line x1="854.011108" y1="1119.828125" x2="804.011108" y2="1119.828125" style="stroke: green; stroke-width: 0.200000"/>
   <line x1="854.011108" y1="1118.828125" x2="804.011108" y2="1118.828125" style="stroke: green; stroke-width: 0.200000"/>
   <line x1="854.011108" y1="1117.828125" x2="804.011108" y2="1117.828125" style="stroke: green; stroke-width: 0.200000"/>
   <line x1="854.011108" y1="1116.828125" x2="804.011108" y2="1116.828125" style="stroke: green; stroke-width: 0.200000"/>
   <line x1="854.011108" y1="1115.828125" x2="804.011108" y2="1115.828125" style="stroke: green; stroke-width: 0.200000"/>
   <line x1="854.011108" y1="1114.828125" x2="804.011108" y2="1114.828125" style="stroke: green; stroke-width: 0.200000"/>
   <line x1="854.011108" y1="1113.828125" x2="804.011108" y2="1113.828125" style="stroke: green; stroke-width: 0.200000"/>
   <line x1="854.011108" y1="1112.828125" x2="804.011108" y2="1112.828125" style="stroke: green; stroke-width: 0.200000"/>
   <line x1="854.011108" y1="1111.828125" x2="804.011108" y2="1111.828125" style="stroke: green; stroke-width: 0.200000"/>
   <line x1="854.011108" y1="1110.828125" x2="804.011108" y2="1110.828125" style="stroke: green; stroke-width: 0.200000"/>
   <line x1="854.011108" y1="1109.828125" x2="804.011108" y2="1109.828125" style="stroke: green; stroke-width: 0.200000"/>
   <line x1="854.011108" y1="1108.828125" x2="804.011108" y2="1108.828125" style="stroke: green; stroke-width: 0.200000"/>
   <line x1="854.011108" y1="1107.828125" x2="804.011108" y2="1107.828125" style="stroke: green; stroke-width: 0.200000"/>
   <line x1="854.011108" y1="1106.828125" x2="804.011108" y2="1106.828125" style="stroke: green; stroke-width: 0.200000"/>
   <line x1="854.011108" y1="1105.828125" x2="804.011108" y2="1105.828125" style="stroke: green; stroke-width: 0.200000"/>
   <line x1="854.011108" y1="1104.828125" x2="804.011108" y2="1104.828125" style="stroke: green; stroke-width: 0.200000"/>
   <line x1="854.011108" y1="1103.828125" x2="804.011108" y2="1103.828125" style="stroke: green; stroke-width: 0.200000"/>
   <line x1="854.011108" y1="1102.828125" x2="804.011108" y2="1102.828125" style="stroke: green; stroke-width: 0.200000"/>
   <line x1="854.011108" y1="1101.828125" x2="804.011108" y2="1101.828125" style="stroke: green; stroke-width: 0.200000"/>
   <line x1="854.011108" y1="1100.828125" x2="804.011108" y2="1100.828125" style="stroke: green; stroke-width: 0.200000"/>
   <line x1="854.011108" y1="1099.828125" x2="804.011108" y2="1099.828125" style="stroke: green; stroke-width: 0.200000"/>
   <line x1="854.011108" y1="1098.828125" x2="804.011108" y2="1098.828125" style="stroke: green; stroke-width: 0.200000"/>
   <line x1="854.011108" y1="1097.828125" x2="804.011108" y2="1097.828125" style="stroke: green; stroke-width: 0.200000"/>
   <line x1="896.475342" y1="1146.828125" x2="854.111023" y2="1146.828125" style="stroke: green; stroke-width: 0.200000"/>
   <line x1="895.429077" y1="1145.828125" x2="854.111023" y2="1145.828125" style="stroke: green; stroke-width: 0.200000"/>
   <line x1="894.382629" y1="1144.828125" x2="854.111023" y2="1144.828125" style="stroke: green; stroke-width: 0.200000"/>
   <line x1="893.336182" y1="1143.828125" x2="854.111023" y2="1143.828125" style="stroke: green; stroke-width: 0.200000"/>
   <line x1="892.289429" y1="1142.828125" x2="854.111023" y2="1142.828125" style="stroke: green; stroke-width: 0.200000"/>
   <line x1="891.433472" y1="1141.828125" x2="854.111023" y2="1141.828125" style="stroke: green; stroke-width: 0.200000"/>
   <line x1="890.490479" y1="1140.828125" x2="854.111023" y2="1140.828125" style="stroke: green; stroke-width: 0.200000"/>
   <line x1="889.546875" y1="1139.828125" x2="854.111023" y2="1139.828125" style="stroke: green; stroke-width: 0.200000"/>
   <line x1="888.603394" y1="1138.828125" x2="854.111023" y2="1138.828125" style="stroke: green; stroke-width: 0.200000"/>
   <line x1="887.659790" y1="1137.828125" x2="854.111023" y2="1137.828125" style="stroke: green; stroke-width: 0.200000"/>
   <line x1="886.716248" y1="1136.828125" x2="854.111023" y2="1136.828125" style="stroke: green; stroke-width: 0.200000"/>
   <line x1="885.772583" y1="1135.828125" x2="854.111023" y2="1135.828125" style="stroke: green; stroke-width: 0.200000"/>
   <line x1="885.339355" y1="1134.828125" x2="854.111023" y2="1134.828125" style="stroke: green; stroke-width: 0.200000"/>
   <line x1="884.990967" y1="1133.828125" x2="854.111023" y2="1133.828125" style="stroke: green; stroke-width: 0.200000"/>
   <line x1="884.642700" y1="1132.828125" x2="854.111023" y2="1132.828125" style="stroke: green; stroke-width: 0.200000"/>
   <line x1="884.294312" y1="1131.828125" x2="854.111023" y2="1131.828125" style="stroke: green; stroke-width: 0.200000"/>
   <line x1="883.945801" y1="1130.828125" x2="854.111023" y2="1130.828125" style="stroke: green; stroke-width: 0.200000"/>
   <line x1="883.597412" y1="1129.828125" x2="854.111023" y2="1129.828125" style="stroke: green; stroke-width: 0.200000"/>
   <line x1="883.249146" y1="1128.828125" x2="854.111023" y2="1128.828125" style="stroke: green; stroke-width: 0.200000"/>
   <line x1="882.900757" y1="1127.828125" x2="854.111023" y2="1127.828125" style="stroke: green; stroke-width: 0.200000"/>
   <line x1="882.536682" y1="1126.828125" x2="854.111023" y2="1126.828125" style="stroke: green; stroke-width: 0.200000"/>
   <line x1="882.285278" y1="1125.828125" x2="854.111023" y2="1125.828125" style="stroke: green; stroke-width: 0.200000"/>
   <line x1="882.058350" y1="1124.828125" x2="854.111023" y2="1124.828125" style="stroke: green; stroke-width: 0.200000"/>
   <line x1="881.796387" y1="1123.828125" x2="854.111023" y2="1123.828125" style="stroke: green; stroke-width: 0.200000"/>
   <line x1="881.516052" y1="1122.828125" x2="854.111023" y2="1122.828125" style="stroke: green; stroke-width: 0.200000"/>
   <line x1="881.235657" y1="1121.828125" x2="854.111023" y2="1121.828125" style="stroke: green; stroke-width: 0.200000"/>
   <line x1="880.955261" y1="1120.828125" x2="854.111023" y2="1120.828125" style="stroke: green; stroke-width: 0.200000"/>
   <line x1="880.674927" y1="1119.828125" x2="854.111023" y2="1119.828125" style="stroke: green; stroke-width: 0.200000"/>
   <line x1="880.394531" y1="1118.828125" x2="854.111023" y2="1118.828125" style="stroke: green; stroke-width: 0.200000"/>
   <line x1="880.114136" y1="1117.828125" x2="854.111023" y2="1117.828125" style="stroke: green; stroke-width: 0.200000"/>
   <line x1="879.870728" y1="1116.828125" x2="854.111023" y2="1116.828125" style="stroke: green; stroke-width: 0.200000"/>
   <line x1="879.644104" y1="1115.828125" x2="854.111023" y2="1115.828125" style="stroke: green; stroke-width: 0.200000"/>
   <line x1="879.417419" y1="1114.828125" x2="854.111023" y2="1114.828125" style="stroke: green; stroke-width: 0.200000"/>
   <line x1="879.190735" y1="1113.828125" x2="854.111023" y2="1113.828125" style="stroke: green; stroke-width: 0.200000"/>
   <line x1="878.964172" y1="1112.828125" x2="854.111023" y2="1112.828125" style="stroke: green; stroke-width: 0.200000"/>
   <line x1="878.737488" y1="1111.828125" x2="854.111023" y2="1111.828125" style="stroke: green; stroke-width: 0.200000"/>
   <line x1="878.510803" y1="1110.828125" x2="854.111023" y2="1110.828125" style="stroke: green; stroke-width: 0.200000"/>
   <line x1="878.284180" y1="1109.828125" x2="854.111023" y2="1109.828125" style="stroke: green; stroke-width: 0.200000"/>
   <line x1="878.057556" y1="1108.828125" x2="854.111023" y2="1108.828125" style="stroke: green; stroke-width: 0.200000"/>
   <line x1="877.827698" y1="1107.828125" x2="854.111023" y2="1107.828125" style="stroke: green; stroke-width: 0.200000"/>
   <line x1="877.519653" y1="1106.828125" x2="854.111023" y2="1106.828125" style="stroke: green; stroke-width: 0.200000"/>
   <line x1="877.211609" y1="1105.828125" x2="854.111023" y2="1105.828125" style="stroke: green; stroke-width: 0.200000"/>
   <line x1="876.903625" y1="1104.828125" x2="854.111023" y2="1104.828125" style="stroke: green; stroke-width: 0.200000"/>
   <line x1="876.595520" y1="1103.828125" x2="854.111023" y2="1103.828125" style="stroke: green; stroke-width: 0.200000"/>
   <line x1="876.287476" y1="1102.828125" x2="854.111023" y2="1102.828125" style="stroke: green; stroke-width: 0.200000"/>
   <line x1="875.979492" y1="1101.828125" x2="854.111023" y2="1101.828125" style="stroke: green; stroke-width: 0.200000"/>
   <line x1="875.671387" y1="1100.828125" x2="854.111023" y2="1100.828125" style="stroke: green; stroke-width: 0.200000"/>
   <line x1="875.363403" y1="1099.828125" x2="854.111023" y2="1099.828125" style="stroke: green; stroke-width: 0.200000"/>
   <line x1="875.084106" y1="1098.828125" x2="854.111023" y2="1098.828125" style="stroke: green; stroke-width: 0.200000"/>
   <line x1="874.865356" y1="1097.828125" x2="854.111023" y2="1097.828125" style="stroke: green; stroke-width: 0.200000"/>
   <line x1="803.911072" y1="1197.828125" x2="798.850342" y2="1197.828125" style="stroke: green; stroke-width: 0.200000"/>
   <line x1="803.911072" y1="1196.828125" x2="798.472168" y2="1196.828125" style="stroke: green; stroke-width: 0.200000"/>
   <line x1="803.911072" y1="1195.828125" x2="798.252808" y2="1195.828125" style="stroke: green; stroke-width: 0.200000"/>
   <line x1="803.911072" y1="1194.828125" x2="798.061462" y2="1194.828125" style="stroke: green; stroke-width: 0.200000"/>
   <line x1="803.911072" y1="1193.828125" x2="797.869629" y2="1193.828125" style="stroke: green; stroke-width: 0.200000"/>
   <line x1="803.911072" y1="1192.828125" x2="797.597900" y2="1192.828125" style="stroke: green; stroke-width: 0.200000"/>
   <line x1="803.911072" y1="1191.828125" x2="797.183777" y2="1191.828125" style="stroke: green; stroke-width: 0.200000"/>
   <line x1="803.911072" y1="1190.828125" x2="796.769775" y2="1190.828125" style="stroke: green; stroke-width: 0.200000"/>
   <line x1="803.911072" y1="1189.828125" x2="796.355652" y2="1189.828125" style="stroke: green; stroke-width: 0.200000"/>
   <line x1="803.911072" y1="1188.828125" x2="795.941528" y2="1188.828125" style="stroke: green; stroke-width: 0.200000"/>
   <line x1="803.911072" y1="1187.828125" x2="795.527466" y2="1187.828125" style="stroke: green; stroke-width: 0.200000"/>
   <line x1="803.911072" y1="1186.828125" x2="795.112976" y2="1186.828125" style="stroke: green; stroke-width: 0.200000"/>
   <line x1="803.911072" y1="1185.828125" x2="794.684937" y2="1185.828125" style="stroke: green; stroke-width: 0.200000"/>
   <line x1="803.911072" y1="1184.828125" x2="794.256714" y2="1184.828125" style="stroke: green; stroke-width: 0.200000"/>
   <line x1="803.911072" y1="1183.828125" x2="793.828613" y2="1183.828125" style="stroke: green; stroke-width: 0.200000"/>
   <line x1="803.911072" y1="1182.828125" x2="793.400574" y2="1182.828125" style="stroke: green; stroke-width: 0.200000"/>
   <line x1="803.911072" y1="1181.828125" x2="792.678589" y2="1181.828125" style="stroke: green; stroke-width: 0.200000"/>
   <line x1="803.911072" y1="1180.828125" x2="791.885132" y2="1180.828125" style="stroke: green; stroke-width: 0.200000"/>
   <line x1="803.911072" y1="1179.828125" x2="791.091614" y2="1179.828125" style="stroke: green; stroke-width: 0.200000"/>
   <line x1="803.911072" y1="1178.828125" x2="790.298157" y2="1178.828125" style="stroke: green; stroke-width: 0.200000"/>
   <line x1="803.911072" y1="1177.828125" x2="789.504639" y2="1177.828125" style="stroke: green; stroke-width: 0.200000"/>
   <line x1="803.911072" y1="1176.828125" x2="788.578735" y2="1176.828125" style="stroke: green; stroke-width: 0.200000"/>
   <line x1="803.911072" y1="1175.828125" x2="787.633911" y2="1175.828125" style="stroke: green; stroke-width: 0.200000"/>
   <line x1="803.911072" y1="1174.828125" x2="786.688965" y2="1174.828125" style="stroke: green; stroke-width: 0.200000"/>
   <line x1="803.911072" y1="1173.828125" x2="785.744141" y2="1173.828125" style="stroke: green; stroke-width: 0.200000"/>
   <line x1="803.911072" y1="1172.828125" x2="784.799316" y2="1172.828125" style="stroke: green; stroke-width: 0.200000"/>
   <line x1="803.911072" y1="1171.828125" x2="784.086975" y2="1171.828125" style="stroke: green; stroke-width: 0.200000"/>
   <line x1="803.911072" y1="1170.828125" x2="783.399414" y2="1170.828125" style="stroke: green; stroke-width: 0.200000"/>
   <line x1="803.911072" y1="1169.828125" x2="782.711914" y2="1169.828125" style="stroke: green; stroke-width: 0.200000"/>
   <line x1="803.911072" y1="1168.828125" x2="781.892151" y2="1168.828125" style="stroke: green; stroke-width: 0.200000"/>
   <line x1="803.911072" y1="1167.828125" x2="780.981750" y2="1167.828125" style="stroke: green; stroke-width: 0.200000"/>
   <line x1="803.911072" y1="1166.828125" x2="780.071350" y2="1166.828125" style="stroke: green; stroke-width: 0.200000"/>
   <line x1="803.911072" y1="1165.828125" x2="779.161011" y2="1165.828125" style="stroke: green; stroke-width: 0.200000"/>
   <line x1="803.911072" y1="1164.828125" x2="778.250610" y2="1164.828125" style="stroke: green; stroke-width: 0.200000"/>
   <line x1="803.911072" y1="1163.828125" x2="777.340149" y2="1163.828125" style="stroke: green; stroke-width: 0.200000"/>
   <line x1="803.911072" y1="1162.828125" x2="776.543457" y2="1162.828125" style="stroke: green; stroke-width: 0.200000"/>
   <line x1="803.911072" y1="1161.828125" x2="775.882446" y2="1161.828125" style="stroke: green; stroke-width: 0.200000"/>
   <line x1="803.911072" y1="1160.828125" x2="775.163025" y2="1160.828125" style="stroke: green; stroke-width: 0.200000"/>
   <line x1="803.911072" y1="1159.828125" x2="774.367188" y2="1159.828125" style="stroke: green; stroke-width: 0.200000"/>
   <line x1="803.911072" y1="1158.828125" x2="773.571472" y2="1158.828125" style="stroke: green; stroke-width: 0.200000"/>
   <line x1="803.911072" y1="1157.828125" x2="772.775757" y2="1157.828125" style="stroke: green; stroke-width: 0.200000"/>
   <line x1="803.911072" y1="1156.828125" x2="771.979858" y2="1156.828125" style="stroke: green; stroke-width: 0.200000"/>
   <line x1="803.911072" y1="1155.828125" x2="771.184082" y2="1155.828125" style="stroke: green; stroke-width: 0.200000"/>
   <line x1="803.911072" y1="1154.828125" x2="770.388306" y2="1154.828125" style="stroke: green; stroke-width: 0.200000"/>
   <line x1="803.911072" y1="1153.828125" x2="769.592529" y2="1153.828125" style="stroke: green; stroke-width: 0.200000"/>
   <line x1="803.911072" y1="1152.828125" x2="768.983276" y2="1152.828125" style="stroke: green; stroke-width: 0.200000"/>
   <line x1="803.911072" y1="1151.828125" x2="768.146301" y2="1151.828125" style="stroke: green; stroke-width: 0.200000"/>
   <line x1="803.911072" y1="1150.828125" x2="767.466064" y2="1150.828125" style="stroke: green; stroke-width: 0.200000"/>
   <line x1="803.911072" y1="1149.828125" x2="766.789001" y2="1149.828125" style="stroke: green; stroke-width: 0.200000"/>
   <line x1="803.911072" y1="1148.828125" x2="766.111938" y2="1148.828125" style="stroke: green; stroke-width: 0.200000"/>
   <line x1="844.829834" y1="1197.828125" x2="804.011108" y2="1197.828125" style="stroke: green; stroke-width: 0.200000"/>
   <line x1="844.899536" y1="1196.828125" x2="804.011108" y2="1196.828125" style="stroke: green; stroke-width: 0.200000"/>
   <line x1="844.969360" y1="1195.828125" x2="804.011108" y2="1195.828125" style="stroke: green; stroke-width: 0.200000"/>
   <line x1="845.337463" y1="1194.828125" x2="804.011108" y2="1194.828125" style="stroke: green; stroke-width: 0.200000"/>
   <line x1="845.834656" y1="1193.828125" x2="804.011108" y2="1193.828125" style="stroke: green; stroke-width: 0.200000"/>
   <line x1="846.331848" y1="1192.828125" x2="804.011108" y2="1192.828125" style="stroke: green; stroke-width: 0.200000"/>
   <line x1="846.828979" y1="1191.828125" x2="804.011108" y2="1191.828125" style="stroke: green; stroke-width: 0.200000"/>
   <line x1="847.326294" y1="1190.828125" x2="804.011108" y2="1190.828125" style="stroke: green; stroke-width: 0.200000"/>
   <line x1="847.823486" y1="1189.828125" x2="804.011108" y2="1189.828125" style="stroke: green; stroke-width: 0.200000"/>
   <line x1="848.320618" y1="1188.828125" x2="804.011108" y2="1188.828125" style="stroke: green; stroke-width: 0.200000"/>
   <line x1="848.817810" y1="1187.828125" x2="804.011108" y2="1187.828125" style="stroke: green; stroke-width: 0.200000"/>
   <line x1="849.315186" y1="1186.828125" x2="804.011108" y2="1186.828125" style="stroke: green; stroke-width: 0.200000"/>
   <line x1="849.938721" y1="1185.828125" x2="804.011108" y2="1185.828125" style="stroke: green; stroke-width: 0.200000"/>
   <line x1="851.138611" y1="1184.828125" x2="804.011108" y2="1184.828125" style="stroke: green; stroke-width: 0.200000"/>
   <line x1="854.011108" y1="1183.828125" x2="804.011108" y2="1183.828125" style="stroke: green; stroke-width: 0.200000"/>
   <line x1="854.011108" y1="1182.828125" x2="804.011108" y2="1182.828125" style="stroke: green; stroke-width: 0.200000"/>
   <line x1="854.011108" y1="1181.828125" x2="804.011108" y2="1181.828125" style="stroke: green; stroke-width: 0.200000"/>
   <line x1="854.011108" y1="1180.828125" x2="804.011108" y2="1180.828125" style="stroke: green; stroke-width: 0.200000"/>
   <line x1="854.011108" y1="1179.828125" x2="804.011108" y2="1179.828125" style="stroke: green; stroke-width: 0.200000"/>
   <line x1="854.011108" y1="1178.828125" x2="804.011108" y2="1178.828125" style="stroke: green; stroke-width: 0.200000"/>
   <line x1="854.011108" y1="1177.828125" x2="804.011108" y2="1177.828125" style="stroke: green; stroke-width: 0.200000"/>
   <line x1="854.011108" y1="1176.828125" x2="804.011108" y2="1176.828125" style="stroke: green; stroke-width: 0.200000"/>
   <line x1="854.011108" y1="1175.828125" x2="804.011108" y2="1175.828125" style="stroke: green; stroke-width: 0.200000"/>
   <line x1="854.011108" y1="1174.828125" x2="804.011108" y2="1174.828125" style="stroke: green; stroke-width: 0.200000"/>
   <line x1="854.011108" y1="1173.828125" x2="804.011108" y2="1173.828125" style="stroke: green; stroke-width: 0.200000"/>
   <line x1="854.011108" y1="1172.828125" x2="804.011108" y2="1172.828125" style="stroke: green; stroke-width: 0.200000"/>
   <line x1="854.011108" y1="1171.828125" x2="804.011108" y2="1171.828125" style="stroke: green; stroke-width: 0.200000"/>
   <line x1="854.011108" y1="1170.828125" x2="804.011108" y2="1170.828125" style="stroke: green; stroke-width: 0.200000"/>
   <line x1="854.011108" y1="1169.828125" x2="804.011108" y2="1169.828125" style="stroke: green; stroke-width: 0.200000"/>
   <line x1="854.011108" y1="1168.828125" x2="804.011108" y2="1168.828125" style="stroke: green; stroke-width: 0.200000"/>
   <line x1="854.011108" y1="1167.828125" x2="804.011108" y2="1167.828125" style="stroke: green; stroke-width: 0.200000"/>
   <line x1="854.011108" y1="1166.828125" x2="804.011108" y2="1166.828125" style="stroke: green; stroke-width: 0.200000"/>
   <line x1="854.011108" y1="1165.828125" x2="804.011108" y2="1165.828125" style="stroke: green; stroke-width: 0.200000"/>
   <line x1="854.011108" y1="1164.828125" x2="804.011108" y2="1164.828125" style="stroke: green; stroke-width: 0.200000"/>
   <line x1="854.011108" y1="1163.828125" x2="804.011108" y2="1163.828125" style="stroke: green; stroke-width: 0.200000"/>
   <line x1="854.011108" y1="1162.828125" x2="804.011108" y2="1162.828125" style="stroke: green; stroke-width: 0.200000"/>
   <line x1="854.011108" y1="1161.828125" x2="804.011108" y2="1161.828125" style="stroke: green; stroke-width: 0.200000"/>
   <line x1="854.011108" y1="1160.828125" x2="804.011108" y2="1160.828125" style="stroke: green; stroke-width: 0.200000"/>
   <line x1="854.011108" y1="1159.828125" x2="804.011108" y2="1159.828125" style="stroke: green; stroke-width: 0.200000"/>
   <line x1="854.011108" y1="1158.828125" x2="804.011108" y2="1158.828125" style="stroke: green; stroke-width: 0.200000"/>
   <line x1="854.011108" y1="1157.828125" x2="804.011108" y2="1157.828125" style="stroke: green; stroke-width: 0.200000"/>
   <line x1="854.011108" y1="1156.828125" x2="804.011108" y2="1156.828125" style="stroke: green; stroke-width: 0.200000"/>
   <line x1="854.011108" y1="1155.828125" x2="804.011108" y2="1155.828125" style="stroke: green; stroke-width: 0.200000"/>
   <line x1="854.011108" y1="1154.828125" x2="804.011108" y2="1154.828125" style="stroke: green; stroke-width: 0.200000"/>
   <line x1="854.011108" y1="1153.828125" x2="804.011108" y2="1153.828125" style="stroke: green; stroke-width: 0.200000"/>
   <line x1="854.011108" y1="1152.828125" x2="804.011108" y2="1152.828125" style="stroke: green; stroke-width: 0.200000"/>
   <line x1="854.011108" y1="1151.828125" x2="804.011108" y2="1151.828125" style="stroke: green; stroke-width: 0.200000"/>
   <line x1="854.011108" y1="1150.828125" x2="804.011108" y2="1150.828125" style="stroke: green; stroke-width: 0.200000"/>
   <line x1="854.011108" y1="1149.828125" x2="804.011108" y2="1149.828125" style="stroke: green; stroke-width: 0.200000"/>
   <line x1="854.011108" y1="1148.828125" x2="804.011108" y2="1148.828125" style="stroke: green; stroke-width: 0.200000"/>
   <line x1="895.641479" y1="1188.828125" x2="894.866089" y2="1188.828125" style="stroke: green; stroke-width: 0.200000"/>
   <line x1="895.499329" y1="1187.828125" x2="891.729187" y2="1187.828125" style="stroke: green; stroke-width: 0.200000"/>
   <line x1="895.357422" y1="1186.828125" x2="888.592041" y2="1186.828125" style="stroke: green; stroke-width: 0.200000"/>
   <line x1="895.215393" y1="1185.828125" x2="885.325439" y2="1185.828125" style="stroke: green; stroke-width: 0.200000"/>
   <line x1="895.073303" y1="1184.828125" x2="882.281555" y2="1184.828125" style="stroke: green; stroke-width: 0.200000"/>
   <line x1="896.408081" y1="1183.828125" x2="879.337158" y2="1183.828125" style="stroke: green; stroke-width: 0.200000"/>
   <line x1="854.195496" y1="1183.828125" x2="854.111023" y2="1183.828125" style="stroke: green; stroke-width: 0.200000"/>
   <line x1="898.717712" y1="1182.828125" x2="874.581848" y2="1182.828125" style="stroke: green; stroke-width: 0.200000"/>
   <line x1="857.252075" y1="1182.828125" x2="854.111023" y2="1182.828125" style="stroke: green; stroke-width: 0.200000"/>
   <line x1="901.027466" y1="1181.828125" x2="867.737915" y2="1181.828125" style="stroke: green; stroke-width: 0.200000"/>
   <line x1="861.504456" y1="1181.828125" x2="854.111023" y2="1181.828125" style="stroke: green; stroke-width: 0.200000"/>
   <line x1="903.337097" y1="1180.828125" x2="854.111023" y2="1180.828125" style="stroke: green; stroke-width: 0.200000"/>
   <line x1="904.111023" y1="1179.828125" x2="854.111023" y2="1179.828125" style="stroke: green; stroke-width: 0.200000"/>
   <line x1="904.111023" y1="1178.828125" x2="854.111023" y2="1178.828125" style="stroke: green; stroke-width: 0.200000"/>
   <line x1="904.111023" y1="1177.828125" x2="854.111023" y2="1177.828125" style="stroke: green; stroke-width: 0.200000"/>
   <line x1="904.111023" y1="1176.828125" x2="854.111023" y2="1176.828125" style="stroke: green; stroke-width: 0.200000"/>
   <line x1="904.111023" y1="1175.828125" x2="854.111023" y2="1175.828125" style="stroke: green; stroke-width: 0.200000"/>
   <line x1="904.111023" y1="1174.828125" x2="854.111023" y2="1174.828125" style="stroke: green; stroke-width: 0.200000"/>
   <line x1="904.111023" y1="1173.828125" x2="854.111023" y2="1173.828125" style="stroke: green; stroke-width: 0.200000"/>
   <line x1="904.111023" y1="1172.828125" x2="854.111023" y2="1172.828125" style="stroke: green; stroke-width: 0.200000"/>
   <line x1="904.111023" y1="1171.828125" x2="854.111023" y2="1171.828125" style="stroke: green; stroke-width: 0.200000"/>
   <line x1="904.111023" y1="1170.828125" x2="854.111023" y2="1170.828125" style="stroke: green; stroke-width: 0.200000"/>
   <line x1="904.111023" y1="1169.828125" x2="854.111023" y2="1169.828125" style="stroke: green; stroke-width: 0.200000"/>
   <line x1="904.111023" y1="1168.828125" x2="854.111023" y2="1168.828125" style="stroke: green; stroke-width: 0.200000"/>
   <line x1="904.111023" y1="1167.828125" x2="854.111023" y2="1167.828125" style="stroke: green; stroke-width: 0.200000"/>
   <line x1="904.111023" y1="1166.828125" x2="854.111023" y2="1166.828125" style="stroke: green; stroke-width: 0.200000"/>
   <line x1="904.111023" y1="1165.828125" x2="854.111023" y2="1165.828125" style="stroke: green; stroke-width: 0.200000"/>
   <line x1="904.111023" y1="1164.828125" x2="854.111023" y2="1164.828125" style="stroke: green; stroke-width: 0.200000"/>
   <line x1="904.111023" y1="1163.828125" x2="854.111023" y2="1163.828125" style="stroke: green; stroke-width: 0.200000"/>
   <line x1="904.111023" y1="1162.828125" x2="854.111023" y2="1162.828125" style="stroke: green; stroke-width: 0.200000"/>
   <line x1="904.111023" y1="1161.828125" x2="854.111023" y2="1161.828125" style="stroke: green; stroke-width: 0.200000"/>
   <line x1="904.111023" y1="1160.828125" x2="854.111023" y2="1160.828125" style="stroke: green; stroke-width: 0.200000"/>
   <line x1="904.111023" y1="1159.828125" x2="854.111023" y2="1159.828125" style="stroke: green; stroke-width: 0.200000"/>
   <line x1="904.111023" y1="1158.828125" x2="854.111023" y2="1158.828125" style="stroke: green; stroke-width: 0.200000"/>
   <line x1="904.111023" y1="1157.828125" x2="854.111023" y2="1157.828125" style="stroke: green; stroke-width: 0.200000"/>
   <line x1="904.111023" y1="1156.828125" x2="854.111023" y2="1156.828125" style="stroke: green; stroke-width: 0.200000"/>
   <line x1="904.111023" y1="1155.828125" x2="854.111023" y2="1155.828125" style="stroke: green; stroke-width: 0.200000"/>
   <line x1="904.111023" y1="1154.828125" x2="854.111023" y2="1154.828125" style="stroke: green; stroke-width: 0.200000"/>
   <line x1="904.111023" y1="1153.828125" x2="854.111023" y2="1153.828125" style="stroke: green; stroke-width: 0.200000"/>
   <line x1="903.285278" y1="1152.828125" x2="854.111023" y2="1152.828125" style="stroke: green; stroke-width: 0.200000"/>
   <line x1="902.214478" y1="1151.828125" x2="854.111023" y2="1151.828125" style="stroke: green; stroke-width: 0.200000"/>
   <line x1="900.876099" y1="1150.828125" x2="854.111023" y2="1150.828125" style="stroke: green; stroke-width: 0.200000"/>
   <line x1="899.614807" y1="1149.828125" x2="854.111023" y2="1149.828125" style="stroke: green; stroke-width: 0.200000"/>
   <line x1="898.568359" y1="1148.828125" x2="854.111023" y2="1148.828125" style="stroke: green; stroke-width: 0.200000"/>
   <line x1="905.865112" y1="1179.828125" x2="904.211060" y2="1179.828125" style="stroke: green; stroke-width: 0.200000"/>
   <line x1="907.894592" y1="1178.828125" x2="904.211060" y2="1178.828125" style="stroke: green; stroke-width: 0.200000"/>
   <line x1="908.672485" y1="1177.828125" x2="904.211060" y2="1177.828125" style="stroke: green; stroke-width: 0.200000"/>
   <line x1="909.286194" y1="1176.828125" x2="904.211060" y2="1176.828125" style="stroke: green; stroke-width: 0.200000"/>
   <line x1="909.272583" y1="1175.828125" x2="904.211060" y2="1175.828125" style="stroke: green; stroke-width: 0.200000"/>
   <line x1="909.279907" y1="1174.828125" x2="904.211060" y2="1174.828125" style="stroke: green; stroke-width: 0.200000"/>
   <line x1="909.314636" y1="1173.828125" x2="904.211060" y2="1173.828125" style="stroke: green; stroke-width: 0.200000"/>
   <line x1="909.349304" y1="1172.828125" x2="904.211060" y2="1172.828125" style="stroke: green; stroke-width: 0.200000"/>
   <line x1="909.384033" y1="1171.828125" x2="904.211060" y2="1171.828125" style="stroke: green; stroke-width: 0.200000"/>
   <line x1="909.418701" y1="1170.828125" x2="904.211060" y2="1170.828125" style="stroke: green; stroke-width: 0.200000"/>
   <line x1="909.453369" y1="1169.828125" x2="904.211060" y2="1169.828125" style="stroke: green; stroke-width: 0.200000"/>
   <line x1="909.488037" y1="1168.828125" x2="904.211060" y2="1168.828125" style="stroke: green; stroke-width: 0.200000"/>
   <line x1="909.522705" y1="1167.828125" x2="904.211060" y2="1167.828125" style="stroke: green; stroke-width: 0.200000"/>
   <line x1="909.557434" y1="1166.828125" x2="904.211060" y2="1166.828125" style="stroke: green; stroke-width: 0.200000"/>
   <line x1="909.592163" y1="1165.828125" x2="904.211060" y2="1165.828125" style="stroke: green; stroke-width: 0.200000"/>
   <line x1="909.626770" y1="1164.828125" x2="904.211060" y2="1164.828125" style="stroke: green; stroke-width: 0.200000"/>
   <line x1="911.334473" y1="1163.828125" x2="904.211060" y2="1163.828125" style="stroke: green; stroke-width: 0.200000"/>
   <line x1="913.007935" y1="1162.828125" x2="904.211060" y2="1162.828125" style="stroke: green; stroke-width: 0.200000"/>
   <line x1="912.226013" y1="1161.828125" x2="904.211060" y2="1161.828125" style="stroke: green; stroke-width: 0.200000"/>
   <line x1="911.425659" y1="1160.828125" x2="904.211060" y2="1160.828125" style="stroke: green; stroke-width: 0.200000"/>
   <line x1="910.434570" y1="1159.828125" x2="904.211060" y2="1159.828125" style="stroke: green; stroke-width: 0.200000"/>
   <line x1="909.338501" y1="1158.828125" x2="904.211060" y2="1158.828125" style="stroke: green; stroke-width: 0.200000"/>
   <line x1="908.329712" y1="1157.828125" x2="904.211060" y2="1157.828125" style="stroke: green; stroke-width: 0.200000"/>
   <line x1="907.320801" y1="1156.828125" x2="904.211060" y2="1156.828125" style="stroke: green; stroke-width: 0.200000"/>
   <line x1="906.311890" y1="1155.828125" x2="904.211060" y2="1155.828125" style="stroke: green; stroke-width: 0.200000"/>
   <line x1="905.302979" y1="1154.828125" x2="904.211060" y2="1154.828125" style="stroke: green; stroke-width: 0.200000"/>
   <line x1="904.294128" y1="1153.828125" x2="904.211060" y2="1153.828125" style="stroke: green; stroke-width: 0.200000"/>
   <line x1="803.911072" y1="1221.828125" x2="803.782959" y2="1221.828125" style="stroke: green; stroke-width: 0.200000"/>
   <line x1="803.911072" y1="1220.828125" x2="803.600342" y2="1220.828125" style="stroke: green; stroke-width: 0.200000"/>
   <line x1="803.911072" y1="1219.828125" x2="803.343628" y2="1219.828125" style="stroke: green; stroke-width: 0.200000"/>
   <line x1="803.911072" y1="1218.828125" x2="803.125305" y2="1218.828125" style="stroke: green; stroke-width: 0.200000"/>
   <line x1="803.911072" y1="1217.828125" x2="802.955444" y2="1217.828125" style="stroke: green; stroke-width: 0.200000"/>
   <line x1="803.911072" y1="1216.828125" x2="802.785706" y2="1216.828125" style="stroke: green; stroke-width: 0.200000"/>
   <line x1="803.911072" y1="1215.828125" x2="802.615906" y2="1215.828125" style="stroke: green; stroke-width: 0.200000"/>
   <line x1="803.911072" y1="1214.828125" x2="802.446167" y2="1214.828125" style="stroke: green; stroke-width: 0.200000"/>
   <line x1="803.911072" y1="1213.828125" x2="802.276306" y2="1213.828125" style="stroke: green; stroke-width: 0.200000"/>
   <line x1="803.911072" y1="1212.828125" x2="802.106445" y2="1212.828125" style="stroke: green; stroke-width: 0.200000"/>
   <line x1="803.911072" y1="1211.828125" x2="801.936707" y2="1211.828125" style="stroke: green; stroke-width: 0.200000"/>
   <line x1="803.911072" y1="1210.828125" x2="801.716064" y2="1210.828125" style="stroke: green; stroke-width: 0.200000"/>
   <line x1="803.911072" y1="1209.828125" x2="801.365112" y2="1209.828125" style="stroke: green; stroke-width: 0.200000"/>
   <line x1="803.911072" y1="1208.828125" x2="801.065796" y2="1208.828125" style="stroke: green; stroke-width: 0.200000"/>
   <line x1="803.911072" y1="1207.828125" x2="800.998901" y2="1207.828125" style="stroke: green; stroke-width: 0.200000"/>
   <line x1="803.911072" y1="1206.828125" x2="800.931885" y2="1206.828125" style="stroke: green; stroke-width: 0.200000"/>
   <line x1="803.911072" y1="1205.828125" x2="800.864929" y2="1205.828125" style="stroke: green; stroke-width: 0.200000"/>
   <line x1="803.911072" y1="1204.828125" x2="800.797974" y2="1204.828125" style="stroke: green; stroke-width: 0.200000"/>
   <line x1="803.911072" y1="1203.828125" x2="800.730957" y2="1203.828125" style="stroke: green; stroke-width: 0.200000"/>
   <line x1="803.911072" y1="1202.828125" x2="800.664001" y2="1202.828125" style="stroke: green; stroke-width: 0.200000"/>
   <line x1="803.911072" y1="1201.828125" x2="800.363037" y2="1201.828125" style="stroke: green; stroke-width: 0.200000"/>
   <line x1="803.911072" y1="1200.828125" x2="799.984802" y2="1200.828125" style="stroke: green; stroke-width: 0.200000"/>
   <line x1="803.911072" y1="1199.828125" x2="799.606689" y2="1199.828125" style="stroke: green; stroke-width: 0.200000"/>
   <line x1="803.911072" y1="1198.828125" x2="799.228516" y2="1198.828125" style="stroke: green; stroke-width: 0.200000"/>
   <line x1="843.363098" y1="1247.828125" x2="817.384583" y2="1247.828125" style="stroke: green; stroke-width: 0.200000"/>
   <line x1="843.461792" y1="1246.828125" x2="817.173096" y2="1246.828125" style="stroke: green; stroke-width: 0.200000"/>
   <line x1="843.560486" y1="1245.828125" x2="816.961548" y2="1245.828125" style="stroke: green; stroke-width: 0.200000"/>
   <line x1="843.659119" y1="1244.828125" x2="816.750000" y2="1244.828125" style="stroke: green; stroke-width: 0.200000"/>
   <line x1="843.762756" y1="1243.828125" x2="816.538452" y2="1243.828125" style="stroke: green; stroke-width: 0.200000"/>
   <line x1="843.869690" y1="1242.828125" x2="816.326965" y2="1242.828125" style="stroke: green; stroke-width: 0.200000"/>
   <line x1="843.976562" y1="1241.828125" x2="816.115479" y2="1241.828125" style="stroke: green; stroke-width: 0.200000"/>
   <line x1="844.083557" y1="1240.828125" x2="815.903931" y2="1240.828125" style="stroke: green; stroke-width: 0.200000"/>
   <line x1="844.190552" y1="1239.828125" x2="815.692444" y2="1239.828125" style="stroke: green; stroke-width: 0.200000"/>
   <line x1="812.958923" y1="1239.828125" x2="806.810425" y2="1239.828125" style="stroke: green; stroke-width: 0.200000"/>
   <line x1="844.297424" y1="1238.828125" x2="806.609558" y2="1238.828125" style="stroke: green; stroke-width: 0.200000"/>
   <line x1="844.404358" y1="1237.828125" x2="806.408752" y2="1237.828125" style="stroke: green; stroke-width: 0.200000"/>
   <line x1="844.511230" y1="1236.828125" x2="806.208008" y2="1236.828125" style="stroke: green; stroke-width: 0.200000"/>
   <line x1="844.618225" y1="1235.828125" x2="806.007324" y2="1235.828125" style="stroke: green; stroke-width: 0.200000"/>
   <line x1="844.725098" y1="1234.828125" x2="805.806519" y2="1234.828125" style="stroke: green; stroke-width: 0.200000"/>
   <line x1="844.841064" y1="1233.828125" x2="805.605774" y2="1233.828125" style="stroke: green; stroke-width: 0.200000"/>
   <line x1="844.969177" y1="1232.828125" x2="805.400269" y2="1232.828125" style="stroke: green; stroke-width: 0.200000"/>
   <line x1="845.049988" y1="1231.828125" x2="805.188721" y2="1231.828125" style="stroke: green; stroke-width: 0.200000"/>
   <line x1="845.090210" y1="1230.828125" x2="804.974609" y2="1230.828125" style="stroke: green; stroke-width: 0.200000"/>
   <line x1="845.130371" y1="1229.828125" x2="804.842224" y2="1229.828125" style="stroke: green; stroke-width: 0.200000"/>
   <line x1="845.170593" y1="1228.828125" x2="804.709778" y2="1228.828125" style="stroke: green; stroke-width: 0.200000"/>
   <line x1="845.210693" y1="1227.828125" x2="804.577332" y2="1227.828125" style="stroke: green; stroke-width: 0.200000"/>
   <line x1="845.250916" y1="1226.828125" x2="804.444885" y2="1226.828125" style="stroke: green; stroke-width: 0.200000"/>
   <line x1="845.291138" y1="1225.828125" x2="804.312500" y2="1225.828125" style="stroke: green; stroke-width: 0.200000"/>
   <line x1="845.349243" y1="1224.828125" x2="804.180054" y2="1224.828125" style="stroke: green; stroke-width: 0.200000"/>
   <line x1="845.449280" y1="1223.828125" x2="804.047607" y2="1223.828125" style="stroke: green; stroke-width: 0.200000"/>
   <line x1="845.549377" y1="1222.828125" x2="804.011108" y2="1222.828125" style="stroke: green; stroke-width: 0.200000"/>
   <line x1="845.649414" y1="1221.828125" x2="804.011108" y2="1221.828125" style="stroke: green; stroke-width: 0.200000"/>
   <line x1="845.749451" y1="1220.828125" x2="804.011108" y2="1220.828125" style="stroke: green; stroke-width: 0.200000"/>
   <line x1="845.849548" y1="1219.828125" x2="804.011108" y2="1219.828125" style="stroke: green; stroke-width: 0.200000"/>
   <line x1="845.949585" y1="1218.828125" x2="804.011108" y2="1218.828125" style="stroke: green; stroke-width: 0.200000"/>
   <line x1="846.049561" y1="1217.828125" x2="804.011108" y2="1217.828125" style="stroke: green; stroke-width: 0.200000"/>
   <line x1="846.149841" y1="1216.828125" x2="804.011108" y2="1216.828125" style="stroke: green; stroke-width: 0.200000"/>
   <line x1="846.249695" y1="1215.828125" x2="804.011108" y2="1215.828125" style="stroke: green; stroke-width: 0.200000"/>
   <line x1="846.299988" y1="1214.828125" x2="804.011108" y2="1214.828125" style="stroke: green; stroke-width: 0.200000"/>
   <line x1="846.264648" y1="1213.828125" x2="804.011108" y2="1213.828125" style="stroke: green; stroke-width: 0.200000"/>
   <line x1="846.168518" y1="1212.828125" x2="804.011108" y2="1212.828125" style="stroke: green; stroke-width: 0.200000"/>
   <line x1="846.072327" y1="1211.828125" x2="804.011108" y2="1211.828125" style="stroke: green; stroke-width: 0.200000"/>
   <line x1="845.976318" y1="1210.828125" x2="804.011108" y2="1210.828125" style="stroke: green; stroke-width: 0.200000"/>
   <line x1="845.880127" y1="1209.828125" x2="804.011108" y2="1209.828125" style="stroke: green; stroke-width: 0.200000"/>
   <line x1="845.783997" y1="1208.828125" x2="804.011108" y2="1208.828125" style="stroke: green; stroke-width: 0.200000"/>
   <line x1="845.687744" y1="1207.828125" x2="804.011108" y2="1207.828125" style="stroke: green; stroke-width: 0.200000"/>
   <line x1="845.591492" y1="1206.828125" x2="804.011108" y2="1206.828125" style="stroke: green; stroke-width: 0.200000"/>
   <line x1="845.495544" y1="1205.828125" x2="804.011108" y2="1205.828125" style="stroke: green; stroke-width: 0.200000"/>
   <line x1="845.341858" y1="1204.828125" x2="804.011108" y2="1204.828125" style="stroke: green; stroke-width: 0.200000"/>
   <line x1="845.182861" y1="1203.828125" x2="804.011108" y2="1203.828125" style="stroke: green; stroke-width: 0.200000"/>
   <line x1="845.023926" y1="1202.828125" x2="804.011108" y2="1202.828125" style="stroke: green; stroke-width: 0.200000"/>
   <line x1="844.865051" y1="1201.828125" x2="804.011108" y2="1201.828125" style="stroke: green; stroke-width: 0.200000"/>
   <line x1="844.706055" y1="1200.828125" x2="804.011108" y2="1200.828125" style="stroke: green; stroke-width: 0.200000"/>
   <line x1="844.690552" y1="1199.828125" x2="804.011108" y2="1199.828125" style="stroke: green; stroke-width: 0.200000"/>
   <line x1="844.760193" y1="1198.828125" x2="804.011108" y2="1198.828125" style="stroke: green; stroke-width: 0.200000"/>
   <line x1="824.267578" y1="1277.828125" x2="823.331299" y2="1277.828125" style="stroke: green; stroke-width: 0.200000"/>
   <line x1="824.694458" y1="1276.828125" x2="822.792969" y2="1276.828125" style="stroke: green; stroke-width: 0.200000"/>
   <line x1="825.086914" y1="1275.828125" x2="822.319214" y2="1275.828125" style="stroke: green; stroke-width: 0.200000"/>
   <line x1="825.479370" y1="1274.828125" x2="821.845337" y2="1274.828125" style="stroke: green; stroke-width: 0.200000"/>
   <line x1="825.871826" y1="1273.828125" x2="821.371460" y2="1273.828125" style="stroke: green; stroke-width: 0.200000"/>
   <line x1="826.264282" y1="1272.828125" x2="820.897705" y2="1272.828125" style="stroke: green; stroke-width: 0.200000"/>
   <line x1="826.700562" y1="1271.828125" x2="820.423828" y2="1271.828125" style="stroke: green; stroke-width: 0.200000"/>
   <line x1="827.141846" y1="1270.828125" x2="819.949951" y2="1270.828125" style="stroke: green; stroke-width: 0.200000"/>
   <line x1="814.103149" y1="1269.828125" x2="811.731567" y2="1269.828125" style="stroke: green; stroke-width: 0.200000"/>
   <line x1="827.583130" y1="1269.828125" x2="819.476196" y2="1269.828125" style="stroke: green; stroke-width: 0.200000"/>
   <line x1="828.024414" y1="1268.828125" x2="819.002319" y2="1268.828125" style="stroke: green; stroke-width: 0.200000"/>
   <line x1="818.160034" y1="1268.828125" x2="811.486755" y2="1268.828125" style="stroke: green; stroke-width: 0.200000"/>
   <line x1="828.491333" y1="1267.828125" x2="811.241943" y2="1267.828125" style="stroke: green; stroke-width: 0.200000"/>
   <line x1="829.159424" y1="1266.828125" x2="810.997070" y2="1266.828125" style="stroke: green; stroke-width: 0.200000"/>
   <line x1="829.827393" y1="1265.828125" x2="810.811157" y2="1265.828125" style="stroke: green; stroke-width: 0.200000"/>
   <line x1="830.495483" y1="1264.828125" x2="814.823853" y2="1264.828125" style="stroke: green; stroke-width: 0.200000"/>
   <line x1="831.163452" y1="1263.828125" x2="818.836609" y2="1263.828125" style="stroke: green; stroke-width: 0.200000"/>
   <line x1="831.831543" y1="1262.828125" x2="819.709412" y2="1262.828125" style="stroke: green; stroke-width: 0.200000"/>
   <line x1="832.499512" y1="1261.828125" x2="819.571045" y2="1261.828125" style="stroke: green; stroke-width: 0.200000"/>
   <line x1="840.990295" y1="1260.828125" x2="840.488770" y2="1260.828125" style="stroke: green; stroke-width: 0.200000"/>
   <line x1="833.167480" y1="1260.828125" x2="819.432739" y2="1260.828125" style="stroke: green; stroke-width: 0.200000"/>
   <line x1="833.835510" y1="1259.828125" x2="819.294434" y2="1259.828125" style="stroke: green; stroke-width: 0.200000"/>
   <line x1="841.253296" y1="1259.828125" x2="838.215637" y2="1259.828125" style="stroke: green; stroke-width: 0.200000"/>
   <line x1="834.503540" y1="1258.828125" x2="819.156128" y2="1258.828125" style="stroke: green; stroke-width: 0.200000"/>
   <line x1="841.516235" y1="1258.828125" x2="835.942627" y2="1258.828125" style="stroke: green; stroke-width: 0.200000"/>
   <line x1="841.779236" y1="1257.828125" x2="819.017822" y2="1257.828125" style="stroke: green; stroke-width: 0.200000"/>
   <line x1="842.042236" y1="1256.828125" x2="818.879395" y2="1256.828125" style="stroke: green; stroke-width: 0.200000"/>
   <line x1="842.305237" y1="1255.828125" x2="818.741089" y2="1255.828125" style="stroke: green; stroke-width: 0.200000"/>
   <line x1="842.568237" y1="1254.828125" x2="818.602783" y2="1254.828125" style="stroke: green; stroke-width: 0.200000"/>
   <line x1="842.771057" y1="1253.828125" x2="818.464478" y2="1253.828125" style="stroke: green; stroke-width: 0.200000"/>
   <line x1="842.869751" y1="1252.828125" x2="818.326172" y2="1252.828125" style="stroke: green; stroke-width: 0.200000"/>
   <line x1="842.968445" y1="1251.828125" x2="818.187805" y2="1251.828125" style="stroke: green; stroke-width: 0.200000"/>
   <line x1="843.067078" y1="1250.828125" x2="818.019104" y2="1250.828125" style="stroke: green; stroke-width: 0.200000"/>
   <line x1="843.165833" y1="1249.828125" x2="817.807617" y2="1249.828125" style="stroke: green; stroke-width: 0.200000"/>
   <line x1="843.264465" y1="1248.828125" x2="817.596069" y2="1248.828125" style="stroke: green; stroke-width: 0.200000"/>
   <line x1="820.851135" y1="1299.755127" x2="820.741516" y2="1299.755127" style="stroke: green; stroke-width: 0.200000"/>
   <line x1="822.032776" y1="1298.755005" x2="820.250854" y2="1298.755005" style="stroke: green; stroke-width: 0.200000"/>
   <line x1="823.214478" y1="1297.755005" x2="819.760193" y2="1297.755005" style="stroke: green; stroke-width: 0.200000"/>
   <line x1="825.147156" y1="1296.755127" x2="819.255249" y2="1296.755127" style="stroke: green; stroke-width: 0.200000"/>
   <line x1="827.205566" y1="1295.755005" x2="818.672119" y2="1295.755005" style="stroke: green; stroke-width: 0.200000"/>
   <line x1="828.086060" y1="1294.755127" x2="818.088989" y2="1294.755127" style="stroke: green; stroke-width: 0.200000"/>
   <line x1="828.471130" y1="1293.755005" x2="817.505859" y2="1293.755005" style="stroke: green; stroke-width: 0.200000"/>
   <line x1="828.856140" y1="1292.755005" x2="816.922729" y2="1292.755005" style="stroke: green; stroke-width: 0.200000"/>
   <line x1="829.241211" y1="1291.755127" x2="816.427002" y2="1291.755127" style="stroke: green; stroke-width: 0.200000"/>
   <line x1="829.661499" y1="1290.755005" x2="815.993713" y2="1290.755005" style="stroke: green; stroke-width: 0.200000"/>
   <line x1="830.259644" y1="1289.755127" x2="815.560425" y2="1289.755127" style="stroke: green; stroke-width: 0.200000"/>
   <line x1="830.857788" y1="1288.755005" x2="815.127258" y2="1288.755005" style="stroke: green; stroke-width: 0.200000"/>
   <line x1="831.455933" y1="1287.755005" x2="814.596802" y2="1287.755005" style="stroke: green; stroke-width: 0.200000"/>
   <line x1="832.054077" y1="1286.755127" x2="814.046082" y2="1286.755127" style="stroke: green; stroke-width: 0.200000"/>
   <line x1="832.652222" y1="1285.755005" x2="813.598145" y2="1285.755005" style="stroke: green; stroke-width: 0.200000"/>
   <line x1="833.250366" y1="1284.755127" x2="813.557251" y2="1284.755127" style="stroke: green; stroke-width: 0.200000"/>
   <line x1="833.776367" y1="1283.755005" x2="813.516357" y2="1283.755005" style="stroke: green; stroke-width: 0.200000"/>
   <line x1="834.277405" y1="1282.755005" x2="813.475464" y2="1282.755005" style="stroke: green; stroke-width: 0.200000"/>
   <line x1="834.669861" y1="1281.755127" x2="813.434570" y2="1281.755127" style="stroke: green; stroke-width: 0.200000"/>
   <line x1="835.062317" y1="1280.755005" x2="813.393799" y2="1280.755005" style="stroke: green; stroke-width: 0.200000"/>
   <line x1="835.454773" y1="1279.755005" x2="813.256165" y2="1279.755005" style="stroke: green; stroke-width: 0.200000"/>
   <line x1="835.847229" y1="1278.755005" x2="812.974487" y2="1278.755005" style="stroke: green; stroke-width: 0.200000"/>
   <line x1="836.239624" y1="1277.755005" x2="824.305908" y2="1277.755005" style="stroke: green; stroke-width: 0.200000"/>
   <line x1="823.291016" y1="1277.755005" x2="812.692810" y2="1277.755005" style="stroke: green; stroke-width: 0.200000"/>
   <line x1="822.758240" y1="1276.755127" x2="812.509521" y2="1276.755127" style="stroke: green; stroke-width: 0.200000"/>
   <line x1="836.632080" y1="1276.755127" x2="824.723206" y2="1276.755127" style="stroke: green; stroke-width: 0.200000"/>
   <line x1="822.284485" y1="1275.755127" x2="812.406555" y2="1275.755127" style="stroke: green; stroke-width: 0.200000"/>
   <line x1="837.024536" y1="1275.755127" x2="825.115662" y2="1275.755127" style="stroke: green; stroke-width: 0.200000"/>
   <line x1="821.810608" y1="1274.755005" x2="812.303528" y2="1274.755005" style="stroke: green; stroke-width: 0.200000"/>
   <line x1="837.402954" y1="1274.755005" x2="825.508118" y2="1274.755005" style="stroke: green; stroke-width: 0.200000"/>
   <line x1="821.336731" y1="1273.755005" x2="812.200562" y2="1273.755005" style="stroke: green; stroke-width: 0.200000"/>
   <line x1="837.750610" y1="1273.755005" x2="825.900574" y2="1273.755005" style="stroke: green; stroke-width: 0.200000"/>
   <line x1="838.023621" y1="1272.755005" x2="826.293030" y2="1272.755005" style="stroke: green; stroke-width: 0.200000"/>
   <line x1="820.862976" y1="1272.755005" x2="812.097473" y2="1272.755005" style="stroke: green; stroke-width: 0.200000"/>
   <line x1="820.389099" y1="1271.755127" x2="811.994507" y2="1271.755127" style="stroke: green; stroke-width: 0.200000"/>
   <line x1="838.268372" y1="1271.755127" x2="826.732910" y2="1271.755127" style="stroke: green; stroke-width: 0.200000"/>
   <line x1="838.513062" y1="1270.755127" x2="827.174194" y2="1270.755127" style="stroke: green; stroke-width: 0.200000"/>
   <line x1="819.915222" y1="1270.755127" x2="811.891479" y2="1270.755127" style="stroke: green; stroke-width: 0.200000"/>
   <line x1="838.757690" y1="1269.755005" x2="827.615479" y2="1269.755005" style="stroke: green; stroke-width: 0.200000"/>
   <line x1="819.441467" y1="1269.755005" x2="814.399902" y2="1269.755005" style="stroke: green; stroke-width: 0.200000"/>
   <line x1="839.002380" y1="1268.755005" x2="828.056763" y2="1268.755005" style="stroke: green; stroke-width: 0.200000"/>
   <line x1="818.967590" y1="1268.755005" x2="818.456726" y2="1268.755005" style="stroke: green; stroke-width: 0.200000"/>
   <line x1="839.247070" y1="1267.755005" x2="828.540283" y2="1267.755005" style="stroke: green; stroke-width: 0.200000"/>
   <line x1="839.491699" y1="1266.755127" x2="829.208313" y2="1266.755127" style="stroke: green; stroke-width: 0.200000"/>
   <line x1="839.736389" y1="1265.755127" x2="829.876343" y2="1265.755127" style="stroke: green; stroke-width: 0.200000"/>
   <line x1="839.981079" y1="1264.755005" x2="830.544373" y2="1264.755005" style="stroke: green; stroke-width: 0.200000"/>
   <line x1="840.225769" y1="1263.755005" x2="831.212402" y2="1263.755005" style="stroke: green; stroke-width: 0.200000"/>
   <line x1="840.483521" y1="1262.755005" x2="831.880432" y2="1262.755005" style="stroke: green; stroke-width: 0.200000"/>
   <line x1="840.746521" y1="1261.755127" x2="832.548462" y2="1261.755127" style="stroke: green; stroke-width: 0.200000"/>
   <line x1="840.322510" y1="1260.755127" x2="833.216431" y2="1260.755127" style="stroke: green; stroke-width: 0.200000"/>
   <line x1="838.049377" y1="1259.755005" x2="833.884399" y2="1259.755005" style="stroke: green; stroke-width: 0.200000"/>
   <line x1="835.776306" y1="1258.755005" x2="834.552490" y2="1258.755005" style="stroke: green; stroke-width: 0.200000"/>
   <line x1="814.135986" y1="1264.999390" x2="810.549377" y2="1264.999390" style="stroke: green; stroke-width: 0.200000"/>
   <line x1="818.148743" y1="1263.999390" x2="810.473267" y2="1263.999390" style="stroke: green; stroke-width: 0.200000"/>
   <line x1="819.732971" y1="1262.999390" x2="810.575073" y2="1262.999390" style="stroke: green; stroke-width: 0.200000"/>
   <line x1="819.594666" y1="1261.999390" x2="810.677002" y2="1261.999390" style="stroke: green; stroke-width: 0.200000"/>
   <line x1="819.456299" y1="1260.999390" x2="810.487915" y2="1260.999390" style="stroke: green; stroke-width: 0.200000"/>
   <line x1="819.317993" y1="1259.999390" x2="810.121765" y2="1259.999390" style="stroke: green; stroke-width: 0.200000"/>
   <line x1="819.179688" y1="1258.999390" x2="809.755554" y2="1258.999390" style="stroke: green; stroke-width: 0.200000"/>
   <line x1="819.041382" y1="1257.999390" x2="809.389404" y2="1257.999390" style="stroke: green; stroke-width: 0.200000"/>
   <line x1="818.903076" y1="1256.999390" x2="809.023315" y2="1256.999390" style="stroke: green; stroke-width: 0.200000"/>
   <line x1="818.764709" y1="1255.999390" x2="808.657104" y2="1255.999390" style="stroke: green; stroke-width: 0.200000"/>
   <line x1="818.626404" y1="1254.999390" x2="808.458496" y2="1254.999390" style="stroke: green; stroke-width: 0.200000"/>
   <line x1="818.488098" y1="1253.999390" x2="808.320190" y2="1253.999390" style="stroke: green; stroke-width: 0.200000"/>
   <line x1="818.349731" y1="1252.999390" x2="808.178223" y2="1252.999390" style="stroke: green; stroke-width: 0.200000"/>
   <line x1="818.211426" y1="1251.999390" x2="807.966675" y2="1251.999390" style="stroke: green; stroke-width: 0.200000"/>
   <line x1="818.055298" y1="1250.999390" x2="807.773682" y2="1250.999390" style="stroke: green; stroke-width: 0.200000"/>
   <line x1="817.843689" y1="1249.999390" x2="807.717224" y2="1249.999390" style="stroke: green; stroke-width: 0.200000"/>
   <line x1="817.632202" y1="1248.999390" x2="807.660828" y2="1248.999390" style="stroke: green; stroke-width: 0.200000"/>
   <line x1="817.420715" y1="1247.999390" x2="807.604370" y2="1247.999390" style="stroke: green; stroke-width: 0.200000"/>
   <line x1="817.209167" y1="1246.999390" x2="807.547913" y2="1246.999390" style="stroke: green; stroke-width: 0.200000"/>
   <line x1="816.997681" y1="1245.999390" x2="807.491455" y2="1245.999390" style="stroke: green; stroke-width: 0.200000"/>
   <line x1="816.786133" y1="1244.999390" x2="807.434998" y2="1244.999390" style="stroke: green; stroke-width: 0.200000"/>
   <line x1="816.574646" y1="1243.999390" x2="807.378601" y2="1243.999390" style="stroke: green; stroke-width: 0.200000"/>
   <line x1="816.363159" y1="1242.999390" x2="807.322144" y2="1242.999390" style="stroke: green; stroke-width: 0.200000"/>
   <line x1="816.151611" y1="1241.999390" x2="807.246338" y2="1241.999390" style="stroke: green; stroke-width: 0.200000"/>
   <line x1="815.940063" y1="1240.999390" x2="807.045593" y2="1240.999390" style="stroke: green; stroke-width: 0.200000"/>
   <line x1="815.728516" y1="1239.999390" x2="811.673462" y2="1239.999390" style="stroke: green; stroke-width: 0.200000"/>
   <line x1="909.697998" y1="1190.051147" x2="901.856812" y2="1190.051147" style="stroke: green; stroke-width: 0.200000"/>
   <line x1="912.652466" y1="1189.051270" x2="895.673218" y2="1189.051270" style="stroke: green; stroke-width: 0.200000"/>
   <line x1="915.483887" y1="1188.051270" x2="895.531067" y2="1188.051270" style="stroke: green; stroke-width: 0.200000"/>
   <line x1="916.502441" y1="1187.051147" x2="895.389160" y2="1187.051147" style="stroke: green; stroke-width: 0.200000"/>
   <line x1="917.220398" y1="1186.051147" x2="895.247192" y2="1186.051147" style="stroke: green; stroke-width: 0.200000"/>
   <line x1="917.924438" y1="1185.051147" x2="895.105103" y2="1185.051147" style="stroke: green; stroke-width: 0.200000"/>
   <line x1="918.628540" y1="1184.051270" x2="895.893005" y2="1184.051270" style="stroke: green; stroke-width: 0.200000"/>
   <line x1="919.332581" y1="1183.051270" x2="898.202759" y2="1183.051270" style="stroke: green; stroke-width: 0.200000"/>
   <line x1="920.036621" y1="1182.051147" x2="900.512390" y2="1182.051147" style="stroke: green; stroke-width: 0.200000"/>
   <line x1="920.740662" y1="1181.051147" x2="902.822021" y2="1181.051147" style="stroke: green; stroke-width: 0.200000"/>
   <line x1="921.149536" y1="1180.051147" x2="905.233704" y2="1180.051147" style="stroke: green; stroke-width: 0.200000"/>
   <line x1="921.135925" y1="1179.051270" x2="907.721191" y2="1179.051270" style="stroke: green; stroke-width: 0.200000"/>
   <line x1="921.122375" y1="1178.051270" x2="908.499084" y2="1178.051270" style="stroke: green; stroke-width: 0.200000"/>
   <line x1="921.108765" y1="1177.051147" x2="909.272949" y2="1177.051147" style="stroke: green; stroke-width: 0.200000"/>
   <line x1="921.036682" y1="1176.051147" x2="909.275757" y2="1176.051147" style="stroke: green; stroke-width: 0.200000"/>
   <line x1="920.819153" y1="1175.051147" x2="909.272339" y2="1175.051147" style="stroke: green; stroke-width: 0.200000"/>
   <line x1="920.601685" y1="1174.051270" x2="909.307007" y2="1174.051270" style="stroke: green; stroke-width: 0.200000"/>
   <line x1="920.233032" y1="1173.051270" x2="909.341675" y2="1173.051270" style="stroke: green; stroke-width: 0.200000"/>
   <line x1="919.525818" y1="1172.051147" x2="909.376343" y2="1172.051147" style="stroke: green; stroke-width: 0.200000"/>
   <line x1="918.818665" y1="1171.051147" x2="909.411011" y2="1171.051147" style="stroke: green; stroke-width: 0.200000"/>
   <line x1="918.150513" y1="1170.051147" x2="909.445740" y2="1170.051147" style="stroke: green; stroke-width: 0.200000"/>
   <line x1="917.510437" y1="1169.051270" x2="909.480469" y2="1169.051270" style="stroke: green; stroke-width: 0.200000"/>
   <line x1="916.870361" y1="1168.051270" x2="909.515076" y2="1168.051270" style="stroke: green; stroke-width: 0.200000"/>
   <line x1="916.230347" y1="1167.051147" x2="909.549805" y2="1167.051147" style="stroke: green; stroke-width: 0.200000"/>
   <line x1="915.528442" y1="1166.051147" x2="909.584473" y2="1166.051147" style="stroke: green; stroke-width: 0.200000"/>
   <line x1="914.746399" y1="1165.051147" x2="909.619141" y2="1165.051147" style="stroke: green; stroke-width: 0.200000"/>
   <line x1="913.964355" y1="1164.051270" x2="910.588318" y2="1164.051270" style="stroke: green; stroke-width: 0.200000"/>
   <line x1="895.663757" y1="1188.984253" x2="895.355591" y2="1188.984253" style="stroke: green; stroke-width: 0.200000"/>
   <line x1="881.091309" y1="1184.437012" x2="881.090698" y2="1184.437012" style="stroke: green; stroke-width: 0.200000"/>
   <path d="M 809.133  1262.36  809.189  1261.81  808.836  1260.85  " style="fill: none; stroke: darkmagenta; stroke-width: 0.200000; fill-type: evenodd"  fill-opacity="1.000000" />
   <path d="M 808.836  1260.85  807.097  1256.1  806.71  1253.31  806.289  1251.32  805.782  1242.32  804.042  1233.66  803.738  1232.21  803.531  1231.35  802.279  1221.9  " style="fill: none; stroke: red; stroke-width: 0.200000; fill-type: evenodd"  fill-opacity="1.000000" />
   <path d="M 802.279  1221.9  802.229  1221.52  801.732  1219.58  800.357  1211.49  799.595  1209.31  799.166  1202.9  796.966  1197.09  796.304  1193.62  793.742  1187.44  792.017  1183.41  788.271  1178.69  783.538  1173.68  781.254  1170.36  775.657  1164.21  774.293  1162.14  768.305  1154.62  767.636  1153.5  766.952  1152.74  762.166  1145.67  759.747  1142.51  757.79  1137.66  755.199  1133.38  753.064  1126.22  752.407  1119.07  752.61  1115.47  754.026  1106.69  754.21  1105.71  754.353  1104.18  757.836  1095.87  758.91  1093.43  763.781  1083.26  766.99  1077.7  768.915  1074.67  769.458  1073.92  774.369  1067.9  778.721  1063.08  780.574  1061.2  782.852  1059.28  788.833  1054.86  797.404  1050.14  798.195  1049.78  810.022  1046.23  810.25  1046.18  810.534  1046.19  821.439  1046.3  824.332  1046.93  832.22  1048.52  836.528  1051.06  841.649  1052.73  847.607  1055.96  851.544  1057.81  856.369  1062.19  860.177  1065.03  863.063  1069.57  869.273  1078.64  871.832  1084.33  873.599  1088.67  876.042  1096.19  876.606  1098.77  879.29  1107.48  881.481  1117.15  883.434  1124.11  883.914  1126.23  884.257  1127.16  886.949  1134.89  893.153  1141.46  893.359  1141.78  900.862  1148.95  903.448  1150.88  910.371  1157.74  910.377  1157.74  " style="fill: none; stroke: darkmagenta; stroke-width: 0.200000; fill-type: evenodd"  fill-opacity="1.000000" />
   <path d="M 910.377  1157.74  910.977  1158.24  912.64  1159.92  917.094  1165.62  919.767  1169.79  921.852  1172.74  922.597  1176.17  922.661  1180.93  917.855  1187.76  916.73  1189.2  911.001  1191.23  907.308  1192.34  906.471  1192.15  896.272  1190.85  895.832  1190.7  894.428  1190.25  " style="fill: none; stroke: red; stroke-width: 0.200000; fill-type: evenodd"  fill-opacity="1.000000" />
   <path d="M 894.428  1190.25  887.069  1187.92  885.02  1187.31  879.126  1185.37  877.184  1184.53  869.64  1183.95  865.835  1182.83  859.968  1183.52  851.686  1186.23  850.924  1186.96  846.466  1195.93  846.155  1200.39  846.976  1205.55  847.819  1214.32  847.769  1215.7  846.816  1225.23  846.525  1232.49  846.276  1234.43  845.191  1244.58  844.495  1251.63  " style="fill: none; stroke: darkmagenta; stroke-width: 0.200000; fill-type: evenodd"  fill-opacity="1.000000" />
   <path d="M 844.495  1251.63  844.216  1254.46  841.749  1263.84  839.286  1273.91  838.701  1275.59  835.578  1283.55  834.585  1285.45  830.916  1291.58  829.002  1296.55  824.209  1298.88  820.274  1302.21  818.023  1297.62  815.339  1293.02  813.705  1289.24  812.122  1286.37  811.878  1280.39  811.088  1277.59  810.361  1270.54  808.905  1264.59  809.133  1262.36  " style="fill: none; stroke: red; stroke-width: 0.200000; fill-type: evenodd"  fill-opacity="1.000000" />
   <path d="M 812.88  1280.43  812.872  1280.24  812.074  1277.4  811.349  1270.37  809.918  1264.52  810.207  1261.68  808.19  1256.18  " style="fill: none; stroke: black; stroke-width: 0.200000; fill-type: evenodd"  fill-opacity="1.000000" />
   <path d="M 808.19  1256.18  808.073  1255.86  807.696  1253.13  807.284  1251.18  807.255  1250.68  " style="fill: none; stroke: red; stroke-width: 0.200000; fill-type: evenodd"  fill-opacity="1.000000" />
   <path d="M 807.255  1250.68  806.776  1242.2  805.022  1233.46  804.714  1231.99  804.516  1231.17  803.212  1221.33  802.711  1219.37  801.329  1211.23  800.584  1209.11  800.154  1202.69  797.932  1196.81  797.267  1193.33  794.664  1187.05  792.884  1182.89  789.027  1178.03  784.318  1173.05  782.04  1169.73  776.449  1163.59  775.103  1161.56  769.13  1154.05  768.444  1152.9  767.74  1152.12  762.978  1145.09  760.623  1142.01  758.687  1137.21  756.121  1132.97  754.051  1126.03  753.41  1119.05  753.605  1115.57  755.011  1106.87  755.201  1105.85  755.335  1104.42  758.755  1096.26  759.819  1093.85  764.666  1083.73  767.846  1078.22  769.743  1075.23  770.252  1074.53  775.128  1068.55  779.448  1063.77  781.254  1061.93  783.472  1060.07  789.374  1055.7  797.854  1051.04  798.549  1050.72  810.34  1047.18  810.51  1047.19  821.326  1047.3  824.126  1047.91  831.858  1049.47  836.115  1051.98  841.253  1053.65  847.155  1056.85  850.983  1058.65  855.733  1062.96  859.432  1065.72  862.228  1070.12  868.397  1079.14  870.913  1084.72  872.659  1089.02  875.076  1096.45  875.638  1099.02  878.323  1107.74  880.512  1117.39  882.464  1124.36  882.953  1126.51  883.315  1127.5  886.075  1135.42  892.367  1142.09  892.588  1142.42  900.215  1149.71  902.793  1151.64  909.698  1158.48  910.3  1158.98  911.888  1160.58  916.278  1166.2  918.937  1170.35  919.894  1171.71  " style="fill: none; stroke: black; stroke-width: 0.200000; fill-type: evenodd"  fill-opacity="1.000000" />
   <path d="M 919.894  1171.71  920.918  1173.15  921.598  1176.28  921.657  1180.62  917.051  1187.16  916.12  1188.36  910.69  1190.27  907.271  1191.3  906.644  1191.16  906.063  1191.09  " style="fill: none; stroke: red; stroke-width: 0.200000; fill-type: evenodd"  fill-opacity="1.000000" />
   <path d="M 906.063  1191.09  896.503  1189.87  896.148  1189.75  887.363  1186.96  885.318  1186.35  879.481  1184.43  877.427  1183.55  869.822  1182.96  865.922  1181.81  859.753  1182.54  851.158  1185.35  850.105  1186.36  845.482  1195.66  845.149  1200.43  845.983  1205.68  846.817  1214.35  846.771  1215.64  845.818  1225.16  845.527  1232.41  845.283  1234.31  844.196  1244.47  843.228  1254.28  840.779  1263.6  838.949  1271.08  " style="fill: none; stroke: black; stroke-width: 0.200000; fill-type: evenodd"  fill-opacity="1.000000" />
   <path d="M 838.949  1271.08  838.326  1273.62  837.763  1275.24  834.667  1283.13  833.712  1284.96  830.013  1291.14  828.211  1295.82  823.659  1298.03  820.607  1300.62  818.905  1297.15  816.233  1292.56  814.604  1288.8  813.112  1286.09  812.88  1280.43  " style="fill: none; stroke: red; stroke-width: 0.200000; fill-type: evenodd"  fill-opacity="1.000000" />
   <path d="M 843.099  1348.83  843.831  1349.56  844.099  1350.56  843.831  1351.56  843.099  1352.29  842.099  1352.56  841.099  1352.29  840.367  1351.56  840.099  1350.56  840.367  1349.56  841.099  1348.83  842.099  1348.56  843.099  1348.83  " style="fill: none; stroke: purple; stroke-width: 0.500000; fill-type: evenodd"  fill-opacity="1.000000" />
   <path d="M 823.099  1348.83  823.831  1349.56  824.099  1350.56  823.831  1351.56  823.099  1352.29  822.099  1352.56  821.099  1352.29  820.367  1351.56  820.099  1350.56  820.367  1349.56  821.099  1348.83  822.099  1348.56  823.099  1348.83  " style="fill: none; stroke: purple; stroke-width: 0.500000; fill-type: evenodd"  fill-opacity="1.000000" />
   <path d="M 823.099  1328.83  823.831  1329.56  824.099  1330.56  823.831  1331.56  823.099  1332.29  822.099  1332.56  821.099  1332.29  820.367  1331.56  820.099  1330.56  820.112  1330.51  822.341  1328.62  823.099  1328.83  " style="fill: none; stroke: purple; stroke-width: 0.500000; fill-type: evenodd"  fill-opacity="1.000000" />
   <path d="M 801.299  1312.34  801.099  1312.29  800.367  1311.56  800.099  1310.56  800.214  1310.13  801.299  1312.34  " style="fill: none; stroke: purple; stroke-width: 0.500000; fill-type: evenodd"  fill-opacity="1.000000" />
   <path d="M 1003.2  1247.17  1004.48  1247.91  1005.36  1249.11  1005.66  1250.56  1005.36  1252.01  1004.48  1253.21  1003.2  1253.95  1001.73  1254.1  1000.32  1253.65  999.216  1252.65  998.613  1251.3  998.613  1249.82  999.216  1248.46  1000.32  1247.47  1001.73  1247.01  1003.2  1247.17  " style="fill: none; stroke: purple; stroke-width: 0.500000; fill-type: evenodd"  fill-opacity="1.000000" />
   <path d="M 964.188  1227.94  965.117  1229.11  965.449  1230.56  965.117  1232.01  964.188  1233.18  962.845  1233.82  961.354  1233.82  960.011  1233.18  959.082  1232.01  958.75  1230.56  959.082  1229.11  960.011  1227.94  961.354  1227.29  962.845  1227.29  964.188  1227.94  " style="fill: none; stroke: purple; stroke-width: 0.500000; fill-type: evenodd"  fill-opacity="1.000000" />
   <path d="M 984.147  1227.99  985.058  1229.13  985.383  1230.56  985.058  1231.98  984.147  1233.13  982.83  1233.76  981.369  1233.76  980.052  1233.13  979.141  1231.98  978.815  1230.56  979.141  1229.13  980.052  1227.99  981.369  1227.36  982.83  1227.36  984.147  1227.99  " style="fill: none; stroke: purple; stroke-width: 0.500000; fill-type: evenodd"  fill-opacity="1.000000" />
   <path d="M 1004.06  1228.1  1004.93  1229.2  1005.24  1230.56  1004.93  1231.92  1004.06  1233.02  1002.8  1233.62  1001.4  1233.62  1000.14  1233.02  999.268  1231.92  998.957  1230.56  999.268  1229.2  1000.14  1228.1  1001.4  1227.5  1002.8  1227.5  1004.06  1228.1  " style="fill: none; stroke: purple; stroke-width: 0.500000; fill-type: evenodd"  fill-opacity="1.000000" />
   <path d="M 1003.21  1207.15  1004.5  1207.9  1005.37  1209.1  1005.68  1210.56  1005.37  1212.02  1004.5  1213.22  1003.21  1213.97  1001.72  1214.12  1000.31  1213.66  999.199  1212.67  998.593  1211.3  998.593  1209.81  999.199  1208.45  1000.31  1207.45  1001.72  1206.99  1003.21  1207.15  " style="fill: none; stroke: purple; stroke-width: 0.500000; fill-type: evenodd"  fill-opacity="1.000000" />
   <path d="M 983.329  1208.43  984.228  1209.33  984.558  1210.56  984.228  1211.79  983.329  1212.69  982.099  1213.02  980.87  1212.69  979.97  1211.79  979.641  1210.56  979.97  1209.33  980.87  1208.43  982.099  1208.1  983.329  1208.43  " style="fill: none; stroke: purple; stroke-width: 0.500000; fill-type: evenodd"  fill-opacity="1.000000" />
   <path d="M 924.11  1209.4  924.421  1210.56  924.11  1211.72  923.26  1212.57  922.282  1212.83  921.905  1210.18  924.109  1209.4  924.11  1209.4  " style="fill: none; stroke: purple; stroke-width: 0.500000; fill-type: evenodd"  fill-opacity="1.000000" />
   <path d="M 963.164  1208.72  963.943  1209.49  964.228  1210.56  963.943  1211.62  963.164  1212.4  962.099  1212.69  961.035  1212.4  960.256  1211.62  959.97  1210.56  960.256  1209.49  961.035  1208.72  962.099  1208.43  963.164  1208.72  " style="fill: none; stroke: purple; stroke-width: 0.500000; fill-type: evenodd"  fill-opacity="1.000000" />
   <path d="M 943.099  1208.83  943.831  1209.56  944.099  1210.56  943.831  1211.56  943.099  1212.29  942.099  1212.56  941.099  1212.29  940.367  1211.56  940.099  1210.56  940.367  1209.56  941.099  1208.83  942.099  1208.56  943.099  1208.83  " style="fill: none; stroke: purple; stroke-width: 0.500000; fill-type: evenodd"  fill-opacity="1.000000" />
   <path d="M 943.831  1189.56  944.099  1190.56  943.831  1191.56  943.099  1192.29  942.099  1192.56  941.099  1192.29  941.015  1192.21  943.273  1189  943.831  1189.56  " style="fill: none; stroke: purple; stroke-width: 0.500000; fill-type: evenodd"  fill-opacity="1.000000" />
   <path d="M 963.099  1188.83  963.831  1189.56  964.099  1190.56  963.831  1191.56  963.099  1192.29  962.099  1192.56  961.099  1192.29  960.367  1191.56  960.099  1190.56  960.367  1189.56  961.099  1188.83  962.099  1188.56  963.099  1188.83  " style="fill: none; stroke: purple; stroke-width: 0.500000; fill-type: evenodd"  fill-opacity="1.000000" />
</svg>
