<?xml version="1.0" encoding="UTF-8" standalone="yes"?>
<!DOCTYPE svg PUBLIC "-//W3C//DTD SVG 1.0//EN" "http://www.w3.org/TR/2001/REC-SVG-20010904/DTD/svg10.dtd">
<svg height="2000" width="2000" xmlns="http://www.w3.org/2000/svg" xmlns:svg="http://www.w3.org/2000/svg" xmlns:xlink="http://www.w3.org/1999/xlink">
   <marker id="endArrow" markerHeight="8" markerUnits="strokeWidth" markerWidth="10" orient="auto" refX="1" refY="5" viewBox="0 0 1000 1000">
      <polyline fill="darkblue" points="0,0 10,5 0,10 1,5" />
   </marker>
   <circle cx="1000" cy="1000" r="1" style="stroke:black; fill: red" />
   <circle cx="1000" cy="1000" r="800" style="stroke:black; fill: none" />
   <line x1="1079.171265" y1="1074.582031" x2="1072.649536" y2="1074.582031" style="stroke: green; stroke-width: 0.200000"/>
   <line x1="1080.067383" y1="1073.582031" x2="1073.649536" y2="1073.582031" style="stroke: green; stroke-width: 0.200000"/>
   <line x1="1080.963623" y1="1072.582031" x2="1074.649536" y2="1072.582031" style="stroke: green; stroke-width: 0.200000"/>
   <line x1="1081.904907" y1="1071.582031" x2="1075.649536" y2="1071.582031" style="stroke: green; stroke-width: 0.200000"/>
   <line x1="1082.866577" y1="1070.582031" x2="1076.649536" y2="1070.582031" style="stroke: green; stroke-width: 0.200000"/>
   <line x1="1083.828247" y1="1069.582031" x2="1077.649536" y2="1069.582031" style="stroke: green; stroke-width: 0.200000"/>
   <line x1="1084.828369" y1="1068.582031" x2="1078.649536" y2="1068.582031" style="stroke: green; stroke-width: 0.200000"/>
   <line x1="1085.858643" y1="1067.582031" x2="1079.649536" y2="1067.582031" style="stroke: green; stroke-width: 0.200000"/>
   <line x1="1086.888794" y1="1066.582031" x2="1080.649536" y2="1066.582031" style="stroke: green; stroke-width: 0.200000"/>
   <line x1="1087.919067" y1="1065.582031" x2="1081.649536" y2="1065.582031" style="stroke: green; stroke-width: 0.200000"/>
   <line x1="1088.949463" y1="1064.582031" x2="1082.649536" y2="1064.582031" style="stroke: green; stroke-width: 0.200000"/>
   <line x1="1089.979736" y1="1063.582031" x2="1083.649536" y2="1063.582031" style="stroke: green; stroke-width: 0.200000"/>
   <line x1="1091.035889" y1="1062.582031" x2="1084.649536" y2="1062.582031" style="stroke: green; stroke-width: 0.200000"/>
   <line x1="1092.129761" y1="1061.582031" x2="1085.649536" y2="1061.582031" style="stroke: green; stroke-width: 0.200000"/>
   <line x1="1093.223389" y1="1060.582031" x2="1086.649536" y2="1060.582031" style="stroke: green; stroke-width: 0.200000"/>
   <line x1="1094.317139" y1="1059.582031" x2="1087.649536" y2="1059.582031" style="stroke: green; stroke-width: 0.200000"/>
   <line x1="1095.520996" y1="1058.582031" x2="1088.649536" y2="1058.582031" style="stroke: green; stroke-width: 0.200000"/>
   <line x1="1096.663208" y1="1057.582031" x2="1089.649536" y2="1057.582031" style="stroke: green; stroke-width: 0.200000"/>
   <line x1="1097.805420" y1="1056.582031" x2="1090.649536" y2="1056.582031" style="stroke: green; stroke-width: 0.200000"/>
   <line x1="1099.066040" y1="1055.582031" x2="1091.649536" y2="1055.582031" style="stroke: green; stroke-width: 0.200000"/>
   <line x1="1100.272827" y1="1054.582031" x2="1092.649536" y2="1054.582031" style="stroke: green; stroke-width: 0.200000"/>
   <line x1="1100.770020" y1="1053.582031" x2="1093.649536" y2="1053.582031" style="stroke: green; stroke-width: 0.200000"/>
   <line x1="1100.770020" y1="1052.582031" x2="1094.649536" y2="1052.582031" style="stroke: green; stroke-width: 0.200000"/>
   <line x1="1100.770020" y1="1051.582031" x2="1095.649536" y2="1051.582031" style="stroke: green; stroke-width: 0.200000"/>
   <line x1="1100.770020" y1="1050.582031" x2="1096.649536" y2="1050.582031" style="stroke: green; stroke-width: 0.200000"/>
   <line x1="1100.770020" y1="1049.582031" x2="1097.649536" y2="1049.582031" style="stroke: green; stroke-width: 0.200000"/>
   <line x1="1100.770020" y1="1048.582031" x2="1098.649536" y2="1048.582031" style="stroke: green; stroke-width: 0.200000"/>
   <line x1="1100.770020" y1="1047.582031" x2="1099.649536" y2="1047.582031" style="stroke: green; stroke-width: 0.200000"/>
   <line x1="1100.770020" y1="1046.582031" x2="1100.649536" y2="1046.582031" style="stroke: green; stroke-width: 0.200000"/>
   <line x1="1101.479614" y1="1053.582031" x2="1100.870117" y2="1053.582031" style="stroke: green; stroke-width: 0.200000"/>
   <line x1="1102.729370" y1="1052.582031" x2="1100.870117" y2="1052.582031" style="stroke: green; stroke-width: 0.200000"/>
   <line x1="1104.032471" y1="1051.582031" x2="1100.870117" y2="1051.582031" style="stroke: green; stroke-width: 0.200000"/>
   <line x1="1105.335693" y1="1050.582031" x2="1100.870117" y2="1050.582031" style="stroke: green; stroke-width: 0.200000"/>
   <line x1="1106.642578" y1="1049.582031" x2="1100.870117" y2="1049.582031" style="stroke: green; stroke-width: 0.200000"/>
   <line x1="1108.044067" y1="1048.582031" x2="1100.870117" y2="1048.582031" style="stroke: green; stroke-width: 0.200000"/>
   <line x1="1109.445679" y1="1047.582031" x2="1100.870117" y2="1047.582031" style="stroke: green; stroke-width: 0.200000"/>
   <line x1="1110.847290" y1="1046.582031" x2="1100.870117" y2="1046.582031" style="stroke: green; stroke-width: 0.200000"/>
   <line x1="1112.335815" y1="1045.582031" x2="1101.649536" y2="1045.582031" style="stroke: green; stroke-width: 0.200000"/>
   <line x1="1113.823120" y1="1044.582031" x2="1102.649536" y2="1044.582031" style="stroke: green; stroke-width: 0.200000"/>
   <line x1="1115.228394" y1="1043.582031" x2="1103.649536" y2="1043.582031" style="stroke: green; stroke-width: 0.200000"/>
   <line x1="1116.555054" y1="1042.582031" x2="1104.649536" y2="1042.582031" style="stroke: green; stroke-width: 0.200000"/>
   <line x1="1117.815918" y1="1041.582031" x2="1105.649536" y2="1041.582031" style="stroke: green; stroke-width: 0.200000"/>
   <line x1="1118.945801" y1="1040.582031" x2="1106.649536" y2="1040.582031" style="stroke: green; stroke-width: 0.200000"/>
   <line x1="1120.048340" y1="1039.582031" x2="1107.649536" y2="1039.582031" style="stroke: green; stroke-width: 0.200000"/>
   <line x1="1121.004761" y1="1038.582031" x2="1108.649536" y2="1038.582031" style="stroke: green; stroke-width: 0.200000"/>
   <line x1="1121.706909" y1="1037.582031" x2="1109.649536" y2="1037.582031" style="stroke: green; stroke-width: 0.200000"/>
   <line x1="1122.207520" y1="1036.582031" x2="1110.649536" y2="1036.582031" style="stroke: green; stroke-width: 0.200000"/>
   <line x1="1122.570068" y1="1035.582031" x2="1111.649536" y2="1035.582031" style="stroke: green; stroke-width: 0.200000"/>
   <line x1="1122.795044" y1="1034.582031" x2="1112.649536" y2="1034.582031" style="stroke: green; stroke-width: 0.200000"/>
   <line x1="1122.912109" y1="1033.582031" x2="1113.649536" y2="1033.582031" style="stroke: green; stroke-width: 0.200000"/>
   <line x1="1122.909546" y1="1032.582031" x2="1114.649536" y2="1032.582031" style="stroke: green; stroke-width: 0.200000"/>
   <line x1="1122.795166" y1="1031.582031" x2="1115.649536" y2="1031.582031" style="stroke: green; stroke-width: 0.200000"/>
   <line x1="1122.551758" y1="1030.582031" x2="1116.649536" y2="1030.582031" style="stroke: green; stroke-width: 0.200000"/>
   <line x1="1122.180054" y1="1029.582031" x2="1117.649536" y2="1029.582031" style="stroke: green; stroke-width: 0.200000"/>
   <line x1="1121.683838" y1="1028.582031" x2="1118.645508" y2="1028.582031" style="stroke: green; stroke-width: 0.200000"/>
   <line x1="1121.094116" y1="1027.582031" x2="1118.024414" y2="1027.582031" style="stroke: green; stroke-width: 0.200000"/>
   <line x1="1120.504395" y1="1026.582031" x2="1117.853760" y2="1026.582031" style="stroke: green; stroke-width: 0.200000"/>
   <line x1="1119.914673" y1="1025.582031" x2="1118.853760" y2="1025.582031" style="stroke: green; stroke-width: 0.200000"/>
   <line x1="1059.958130" y1="1095.582031" x2="1053.054443" y2="1095.582031" style="stroke: green; stroke-width: 0.200000"/>
   <line x1="1061.999512" y1="1094.582031" x2="1051.693115" y2="1094.582031" style="stroke: green; stroke-width: 0.200000"/>
   <line x1="1063.482056" y1="1093.582031" x2="1050.853516" y2="1093.582031" style="stroke: green; stroke-width: 0.200000"/>
   <line x1="1064.623047" y1="1092.582031" x2="1051.853638" y2="1092.582031" style="stroke: green; stroke-width: 0.200000"/>
   <line x1="1065.548218" y1="1091.582031" x2="1052.853638" y2="1091.582031" style="stroke: green; stroke-width: 0.200000"/>
   <line x1="1066.281860" y1="1090.582031" x2="1053.853638" y2="1090.582031" style="stroke: green; stroke-width: 0.200000"/>
   <line x1="1056.014526" y1="1089.582031" x2="1054.853638" y2="1089.582031" style="stroke: green; stroke-width: 0.200000"/>
   <line x1="1067.015503" y1="1089.582031" x2="1057.649414" y2="1089.582031" style="stroke: green; stroke-width: 0.200000"/>
   <line x1="1067.777832" y1="1088.582031" x2="1058.649414" y2="1088.582031" style="stroke: green; stroke-width: 0.200000"/>
   <line x1="1068.519165" y1="1087.582031" x2="1059.649414" y2="1087.582031" style="stroke: green; stroke-width: 0.200000"/>
   <line x1="1069.245728" y1="1086.582031" x2="1060.649536" y2="1086.582031" style="stroke: green; stroke-width: 0.200000"/>
   <line x1="1069.972168" y1="1085.582031" x2="1061.649536" y2="1085.582031" style="stroke: green; stroke-width: 0.200000"/>
   <line x1="1070.729126" y1="1084.582031" x2="1062.649536" y2="1084.582031" style="stroke: green; stroke-width: 0.200000"/>
   <line x1="1071.506714" y1="1083.582031" x2="1063.649536" y2="1083.582031" style="stroke: green; stroke-width: 0.200000"/>
   <line x1="1072.304565" y1="1082.582031" x2="1064.649536" y2="1082.582031" style="stroke: green; stroke-width: 0.200000"/>
   <line x1="1073.119873" y1="1081.582031" x2="1065.649536" y2="1081.582031" style="stroke: green; stroke-width: 0.200000"/>
   <line x1="1073.974731" y1="1080.582031" x2="1066.649536" y2="1080.582031" style="stroke: green; stroke-width: 0.200000"/>
   <line x1="1074.837280" y1="1079.582031" x2="1067.649536" y2="1079.582031" style="stroke: green; stroke-width: 0.200000"/>
   <line x1="1075.658081" y1="1078.582031" x2="1068.649536" y2="1078.582031" style="stroke: green; stroke-width: 0.200000"/>
   <line x1="1076.483032" y1="1077.582031" x2="1069.649536" y2="1077.582031" style="stroke: green; stroke-width: 0.200000"/>
   <line x1="1077.379150" y1="1076.582031" x2="1070.649536" y2="1076.582031" style="stroke: green; stroke-width: 0.200000"/>
   <line x1="1078.275269" y1="1075.582031" x2="1071.649536" y2="1075.582031" style="stroke: green; stroke-width: 0.200000"/>
   <path d="M 1055.49  1087.83  1056.84  1088.27  1116.75  1028.36  1115.67  1026.64  1119.81  1022.5  1120.62  1023.89  1120.78  1024.1  1123.05  1027.94  1123.74  1029.35  1124.1  1030.51  1124.22  1031.01  1124.36  1031.85  1124.42  1032.71  1124.42  1033.57  1124.34  1034.42  1124.2  1035.26  1123.99  1036.08  1123.71  1036.88  1123.38  1037.65  1122.98  1038.38  1122.53  1039.07  1122.02  1039.71  1121.11  1040.64  1119  1042.56  1117.65  1043.63  1116.79  1044.33  1115.39  1045.29  1114.51  1045.94  1111.96  1047.63  1107.05  1051.14  1106.88  1051.29  1103.08  1054.2  1099.85  1056.88  1099.36  1057.24  1098.81  1057.7  1095.74  1060.39  1095.28  1060.73  1091.62  1064.08  1085.31  1070.2  1082.34  1073.29  1079.65  1076.3  1078.84  1077.19  1077.57  1078.61  1076  1080.53  1074.4  1082.38  1073.04  1084.06  1071.46  1086.08  1069.27  1089.1  1068.28  1090.39  1066.65  1092.61  1065.99  1093.34  1065.23  1094.08  1064.36  1094.81  1063.39  1095.5  1062.33  1096.14  1061.18  1096.71  1059.97  1097.19  1058.67  1097.55  1057.58  1097.75  1056.14  1097.83  1055.21  1097.77  1053.82  1097.52  1052.47  1096.97  1052.01  1096.72  1051.28  1096.16  1050.89  1095.89  1048.65  1093.67  1053.5  1088.82  " style="fill: none; stroke: darkmagenta; stroke-width: 0.200000; fill-type: evenodd"  fill-opacity="1.000000" />
   <path d="M 1053.5  1088.82  1054.73  1087.58  1055.49  1087.83  " style="fill: none; stroke: red; stroke-width: 0.200000; fill-type: evenodd"  fill-opacity="1.000000" />
   <path d="M 1119.95  1024.65  1122.16  1028.41  1122.81  1029.72  1123.14  1030.78  1123.24  1031.21  1123.36  1031.97  1123.42  1032.75  1123.42  1033.52  1123.35  1034.29  1123.22  1035.05  1123.03  1035.8  1122.78  1036.52  1122.48  1037.21  1122.12  1037.87  1121.72  1038.48  1121.27  1039.05  1120.42  1039.92  1118.35  1041.8  1117.02  1042.85  1116.19  1043.53  1114.81  1044.47  1113.94  1045.12  1111.39  1046.81  1106.42  1050.36  1106.24  1050.52  1102.46  1053.42  1099.23  1056.09  1098.75  1056.46  1098.16  1056.93  1095.1  1059.61  1094.64  1059.96  1090.93  1063.35  1084.61  1069.49  1081.61  1072.61  1078.91  1075.63  1078.1  1076.52  1076.81  1077.96  1075.24  1079.88  1073.64  1081.74  1072.26  1083.43  1070.66  1085.48  1068.47  1088.5  1067.48  1089.79  1065.88  1091.98  1065.27  1092.65  1064.56  1093.34  1063.75  1094.01  1062.84  1094.66  1061.84  1095.26  1060.77  1095.8  1059.65  1096.24  1058.45  1096.58  1057.46  1096.76  1056.15  1096.83  1055.33  1096.78  1054.1  1096.55  1052.9  1096.07  1052.56  1095.88  1051.87  1095.35  1051.52  1095.12  1050.06  1093.67  1055  1088.73  1057.11  1089.41  1118.01  1028.51  1116.94  1026.79  1119.58  1024.15  1119.95  1024.65  " style="fill: none; stroke: black; stroke-width: 0.200000; fill-type: evenodd"  fill-opacity="1.000000" />
</svg>
