<?xml version="1.0" encoding="UTF-8" standalone="yes"?>
<!DOCTYPE svg PUBLIC "-//W3C//DTD SVG 1.0//EN" "http://www.w3.org/TR/2001/REC-SVG-20010904/DTD/svg10.dtd">
<svg height="2000" width="2000" xmlns="http://www.w3.org/2000/svg" xmlns:svg="http://www.w3.org/2000/svg" xmlns:xlink="http://www.w3.org/1999/xlink">
   <marker id="endArrow" markerHeight="8" markerUnits="strokeWidth" markerWidth="10" orient="auto" refX="1" refY="5" viewBox="0 0 1000 1000">
      <polyline fill="darkblue" points="0,0 10,5 0,10 1,5" />
   </marker>
   <circle cx="1000" cy="1000" r="1" style="stroke:black; fill: red" />
   <circle cx="1000" cy="1000" r="800" style="stroke:black; fill: none" />
   <line x1="1074.684937" y1="1069.939453" x2="1074.684937" y2="1070.450317" style="stroke: green; stroke-width: 0.200000"/>
   <line x1="1075.684937" y1="1068.939453" x2="1075.684937" y2="1070.450317" style="stroke: green; stroke-width: 0.200000"/>
   <line x1="1076.684937" y1="1067.939575" x2="1076.684937" y2="1070.450317" style="stroke: green; stroke-width: 0.200000"/>
   <line x1="1077.684937" y1="1066.939575" x2="1077.684937" y2="1070.450317" style="stroke: green; stroke-width: 0.200000"/>
   <line x1="1078.684937" y1="1065.939453" x2="1078.684937" y2="1070.450317" style="stroke: green; stroke-width: 0.200000"/>
   <line x1="1079.684937" y1="1064.939453" x2="1079.684937" y2="1070.450317" style="stroke: green; stroke-width: 0.200000"/>
   <line x1="1080.684937" y1="1063.939453" x2="1080.684937" y2="1070.450317" style="stroke: green; stroke-width: 0.200000"/>
   <line x1="1081.684937" y1="1062.939575" x2="1081.684937" y2="1070.450317" style="stroke: green; stroke-width: 0.200000"/>
   <line x1="1082.684937" y1="1061.939575" x2="1082.684937" y2="1070.035767" style="stroke: green; stroke-width: 0.200000"/>
   <line x1="1083.684937" y1="1060.939453" x2="1083.684937" y2="1069.051025" style="stroke: green; stroke-width: 0.200000"/>
   <line x1="1084.684937" y1="1059.939453" x2="1084.684937" y2="1068.066284" style="stroke: green; stroke-width: 0.200000"/>
   <line x1="1085.684937" y1="1058.939453" x2="1085.684937" y2="1067.081543" style="stroke: green; stroke-width: 0.200000"/>
   <line x1="1086.684937" y1="1057.939575" x2="1086.684937" y2="1066.128418" style="stroke: green; stroke-width: 0.200000"/>
   <line x1="1087.684937" y1="1056.939575" x2="1087.684937" y2="1065.218994" style="stroke: green; stroke-width: 0.200000"/>
   <line x1="1088.684937" y1="1055.939453" x2="1088.684937" y2="1064.309448" style="stroke: green; stroke-width: 0.200000"/>
   <line x1="1089.684937" y1="1054.939453" x2="1089.684937" y2="1063.399902" style="stroke: green; stroke-width: 0.200000"/>
   <line x1="1090.684937" y1="1053.939453" x2="1090.684937" y2="1062.571289" style="stroke: green; stroke-width: 0.200000"/>
   <line x1="1091.684937" y1="1052.939575" x2="1091.684937" y2="1061.743408" style="stroke: green; stroke-width: 0.200000"/>
   <line x1="1092.684937" y1="1051.939575" x2="1092.684937" y2="1060.915405" style="stroke: green; stroke-width: 0.200000"/>
   <line x1="1093.684937" y1="1050.939453" x2="1093.684937" y2="1060.093018" style="stroke: green; stroke-width: 0.200000"/>
   <line x1="1094.684937" y1="1049.939453" x2="1094.684937" y2="1059.289673" style="stroke: green; stroke-width: 0.200000"/>
   <line x1="1095.684937" y1="1048.939453" x2="1095.684937" y2="1058.536499" style="stroke: green; stroke-width: 0.200000"/>
   <line x1="1096.684937" y1="1047.939575" x2="1096.684937" y2="1057.783936" style="stroke: green; stroke-width: 0.200000"/>
   <line x1="1097.684937" y1="1046.939575" x2="1097.684937" y2="1057.057129" style="stroke: green; stroke-width: 0.200000"/>
   <line x1="1098.684937" y1="1045.939453" x2="1098.684937" y2="1056.380127" style="stroke: green; stroke-width: 0.200000"/>
   <line x1="1099.684937" y1="1044.939453" x2="1099.684937" y2="1055.693848" style="stroke: green; stroke-width: 0.200000"/>
   <line x1="1100.684937" y1="1043.939453" x2="1100.684937" y2="1054.947144" style="stroke: green; stroke-width: 0.200000"/>
   <line x1="1101.684937" y1="1042.939575" x2="1101.684937" y2="1054.243408" style="stroke: green; stroke-width: 0.200000"/>
   <line x1="1102.684937" y1="1041.939575" x2="1102.684937" y2="1053.625732" style="stroke: green; stroke-width: 0.200000"/>
   <line x1="1103.684937" y1="1040.939453" x2="1103.684937" y2="1052.977417" style="stroke: green; stroke-width: 0.200000"/>
   <line x1="1104.684937" y1="1039.939453" x2="1104.684937" y2="1052.291382" style="stroke: green; stroke-width: 0.200000"/>
   <line x1="1105.684937" y1="1038.939453" x2="1105.684937" y2="1051.625610" style="stroke: green; stroke-width: 0.200000"/>
   <line x1="1106.684937" y1="1037.939575" x2="1106.684937" y2="1051.053589" style="stroke: green; stroke-width: 0.200000"/>
   <line x1="1107.684937" y1="1036.939575" x2="1107.684937" y2="1050.481689" style="stroke: green; stroke-width: 0.200000"/>
   <line x1="1108.684937" y1="1035.939453" x2="1108.684937" y2="1049.909790" style="stroke: green; stroke-width: 0.200000"/>
   <line x1="1109.684937" y1="1034.939453" x2="1109.684937" y2="1049.335815" style="stroke: green; stroke-width: 0.200000"/>
   <line x1="1110.684937" y1="1033.939453" x2="1110.684937" y2="1048.715942" style="stroke: green; stroke-width: 0.200000"/>
   <line x1="1111.684937" y1="1032.939575" x2="1111.684937" y2="1048.092651" style="stroke: green; stroke-width: 0.200000"/>
   <line x1="1112.684937" y1="1031.939575" x2="1112.684937" y2="1047.466675" style="stroke: green; stroke-width: 0.200000"/>
   <line x1="1113.684937" y1="1030.939453" x2="1113.684937" y2="1046.867065" style="stroke: green; stroke-width: 0.200000"/>
   <line x1="1114.684937" y1="1029.939453" x2="1114.684937" y2="1046.261353" style="stroke: green; stroke-width: 0.200000"/>
   <line x1="1115.684937" y1="1028.939453" x2="1115.684937" y2="1045.610840" style="stroke: green; stroke-width: 0.200000"/>
   <line x1="1116.684937" y1="1027.939575" x2="1116.684937" y2="1044.874512" style="stroke: green; stroke-width: 0.200000"/>
   <line x1="1117.684937" y1="1026.939575" x2="1117.684937" y2="1044.136475" style="stroke: green; stroke-width: 0.200000"/>
   <line x1="1118.684937" y1="1025.939453" x2="1118.684937" y2="1043.269531" style="stroke: green; stroke-width: 0.200000"/>
   <line x1="1119.684937" y1="1024.939453" x2="1119.684937" y2="1042.402710" style="stroke: green; stroke-width: 0.200000"/>
   <line x1="1120.684937" y1="1021.143738" x2="1120.684937" y2="1041.355957" style="stroke: green; stroke-width: 0.200000"/>
   <line x1="1121.684937" y1="1020.951233" x2="1121.684937" y2="1040.297607" style="stroke: green; stroke-width: 0.200000"/>
   <line x1="1122.684937" y1="1022.585083" x2="1122.684937" y2="1039.192383" style="stroke: green; stroke-width: 0.200000"/>
   <line x1="1123.684937" y1="1024.191528" x2="1123.684937" y2="1037.769653" style="stroke: green; stroke-width: 0.200000"/>
   <line x1="1124.684937" y1="1026.213135" x2="1124.684937" y2="1035.720703" style="stroke: green; stroke-width: 0.200000"/>
   <line x1="1119.684937" y1="1022.143677" x2="1119.684937" y2="1022.436768" style="stroke: green; stroke-width: 0.200000"/>
   <line x1="1050.684937" y1="1093.939453" x2="1050.684937" y2="1105.698975" style="stroke: green; stroke-width: 0.200000"/>
   <line x1="1049.684937" y1="1094.939575" x2="1049.684937" y2="1105.691650" style="stroke: green; stroke-width: 0.200000"/>
   <line x1="1051.684937" y1="1092.939575" x2="1051.684937" y2="1105.602173" style="stroke: green; stroke-width: 0.200000"/>
   <line x1="1048.684937" y1="1095.939575" x2="1048.684937" y2="1105.583740" style="stroke: green; stroke-width: 0.200000"/>
   <line x1="1052.684937" y1="1091.939575" x2="1052.684937" y2="1105.401123" style="stroke: green; stroke-width: 0.200000"/>
   <line x1="1047.684937" y1="1096.939575" x2="1047.684937" y2="1105.359497" style="stroke: green; stroke-width: 0.200000"/>
   <line x1="1053.684937" y1="1090.939575" x2="1053.684937" y2="1105.102661" style="stroke: green; stroke-width: 0.200000"/>
   <line x1="1046.684937" y1="1097.939575" x2="1046.684937" y2="1105.019409" style="stroke: green; stroke-width: 0.200000"/>
   <line x1="1054.684937" y1="1089.939575" x2="1054.684937" y2="1104.703491" style="stroke: green; stroke-width: 0.200000"/>
   <line x1="1045.684937" y1="1098.939453" x2="1045.684937" y2="1104.622559" style="stroke: green; stroke-width: 0.200000"/>
   <line x1="1044.684937" y1="1099.939087" x2="1044.684937" y2="1104.225708" style="stroke: green; stroke-width: 0.200000"/>
   <line x1="1055.684937" y1="1088.939453" x2="1055.684937" y2="1104.197632" style="stroke: green; stroke-width: 0.200000"/>
   <line x1="1043.684937" y1="1100.295776" x2="1043.684937" y2="1103.828857" style="stroke: green; stroke-width: 0.200000"/>
   <line x1="1056.684937" y1="1087.939575" x2="1056.684937" y2="1103.575562" style="stroke: green; stroke-width: 0.200000"/>
   <line x1="1042.684937" y1="1099.799316" x2="1042.684937" y2="1103.430664" style="stroke: green; stroke-width: 0.200000"/>
   <line x1="1041.684937" y1="1100.143799" x2="1041.684937" y2="1102.978638" style="stroke: green; stroke-width: 0.200000"/>
   <line x1="1057.684937" y1="1086.939575" x2="1057.684937" y2="1102.815674" style="stroke: green; stroke-width: 0.200000"/>
   <line x1="1040.684937" y1="1101.143677" x2="1040.684937" y2="1102.537476" style="stroke: green; stroke-width: 0.200000"/>
   <line x1="1058.684937" y1="1085.939575" x2="1058.684937" y2="1101.880371" style="stroke: green; stroke-width: 0.200000"/>
   <line x1="1059.684937" y1="1084.939453" x2="1059.684937" y2="1100.726929" style="stroke: green; stroke-width: 0.200000"/>
   <line x1="1060.684937" y1="1083.939453" x2="1060.684937" y2="1099.243896" style="stroke: green; stroke-width: 0.200000"/>
   <line x1="1061.684937" y1="1082.939575" x2="1061.684937" y2="1097.717163" style="stroke: green; stroke-width: 0.200000"/>
   <line x1="1062.684937" y1="1081.939575" x2="1062.684937" y2="1096.092651" style="stroke: green; stroke-width: 0.200000"/>
   <line x1="1063.684937" y1="1080.939453" x2="1063.684937" y2="1094.461182" style="stroke: green; stroke-width: 0.200000"/>
   <line x1="1064.684937" y1="1079.939453" x2="1064.684937" y2="1092.795898" style="stroke: green; stroke-width: 0.200000"/>
   <line x1="1065.684937" y1="1078.939453" x2="1065.684937" y2="1091.168213" style="stroke: green; stroke-width: 0.200000"/>
   <line x1="1066.684937" y1="1077.939575" x2="1066.684937" y2="1089.692261" style="stroke: green; stroke-width: 0.200000"/>
   <line x1="1067.684937" y1="1076.939575" x2="1067.684937" y2="1088.216064" style="stroke: green; stroke-width: 0.200000"/>
   <line x1="1068.684937" y1="1075.939575" x2="1068.684937" y2="1086.739746" style="stroke: green; stroke-width: 0.200000"/>
   <line x1="1069.684937" y1="1074.939453" x2="1069.684937" y2="1085.263428" style="stroke: green; stroke-width: 0.200000"/>
   <line x1="1070.684937" y1="1073.939453" x2="1070.684937" y2="1083.915283" style="stroke: green; stroke-width: 0.200000"/>
   <line x1="1071.684937" y1="1072.939575" x2="1071.684937" y2="1082.670410" style="stroke: green; stroke-width: 0.200000"/>
   <line x1="1072.684937" y1="1071.939575" x2="1072.684937" y2="1081.425537" style="stroke: green; stroke-width: 0.200000"/>
   <line x1="1073.684937" y1="1070.939575" x2="1073.684937" y2="1080.180664" style="stroke: green; stroke-width: 0.200000"/>
   <line x1="1074.684937" y1="1070.550293" x2="1074.684937" y2="1078.935669" style="stroke: green; stroke-width: 0.200000"/>
   <line x1="1075.684937" y1="1070.550293" x2="1075.684937" y2="1077.690674" style="stroke: green; stroke-width: 0.200000"/>
   <line x1="1076.684937" y1="1070.550293" x2="1076.684937" y2="1076.528809" style="stroke: green; stroke-width: 0.200000"/>
   <line x1="1077.684937" y1="1070.550293" x2="1077.684937" y2="1075.445312" style="stroke: green; stroke-width: 0.200000"/>
   <line x1="1078.684937" y1="1070.550293" x2="1078.684937" y2="1074.361816" style="stroke: green; stroke-width: 0.200000"/>
   <line x1="1079.684937" y1="1070.550293" x2="1079.684937" y2="1073.278320" style="stroke: green; stroke-width: 0.200000"/>
   <line x1="1080.684937" y1="1070.550293" x2="1080.684937" y2="1072.194702" style="stroke: green; stroke-width: 0.200000"/>
   <line x1="1081.684937" y1="1070.550293" x2="1081.684937" y2="1071.111084" style="stroke: green; stroke-width: 0.200000"/>
   <path d="M 1042.62  1098.09  1043.82  1098.69  1118.74  1023.76  1117.67  1022.04  1121.66  1018.04  1124.28  1022.32  1124.96  1023.38  1125.19  1023.77  1125.47  1024.43  1125.8  1024.99  1126.03  1025.49  1126.74  1027.74  1127.09  1030.07  1127.06  1032.42  1126.67  1034.7  1126.57  1035.02  1126.23  1035.83  1126.14  1036.13  1125.86  1036.83  1125.14  1038.26  1124.78  1038.86  1124.2  1039.63  1123.52  1040.63  1122.73  1041.38  1120.8  1043.43  1118.61  1045.32  1116.29  1047.03  1115.21  1047.7  1112.96  1049.05  1112.39  1049.42  1110.41  1050.65  1106.31  1053  1104.06  1054.54  1102.2  1055.69  1100.42  1057.01  1098.21  1058.51  1095.62  1060.47  1094.39  1061.45  1091.51  1063.84  1091.06  1064.18  1087.38  1067.52  1086.96  1067.93  1083.68  1071.16  1077.31  1078.06  1071.34  1085.5  1066.75  1092.27  1066.01  1093.49  1065.81  1093.86  1063.02  1098.42  1060.99  1101.52  1060.85  1101.7  1060.64  1101.91  1060.24  1102.43  1059.43  1103.27  1058.58  1104.03  1057.67  1104.72  1056.73  1105.34  1055.74  1105.87  1054.73  1106.33  1053.69  1106.69  1052.64  1106.96  1051.58  1107.14  1050.51  1107.21  1049.46  1107.19  1048.42  1107.06  1047.41  1106.85  1046.43  1106.53  1042.12  1104.82  1040.36  1104.02  1039.19  1103.55  1037.1  1102.61  1041.56  1098.15  " style="fill: none; stroke: darkmagenta; stroke-width: 0.200000; fill-type: evenodd"  fill-opacity="1.000000" />
   <path d="M 1041.56  1098.15  1041.95  1097.76  1042.62  1098.09  " style="fill: none; stroke: red; stroke-width: 0.200000; fill-type: evenodd"  fill-opacity="1.000000" />
   <path d="M 1123.43  1022.85  1124.11  1023.91  1124.3  1024.22  1124.58  1024.88  1124.91  1025.45  1125.1  1025.85  1125.76  1027.96  1126.08  1030.14  1126.06  1032.33  1125.69  1034.47  1125.63  1034.68  1125.29  1035.49  1125.19  1035.79  1124.95  1036.42  1124.26  1037.78  1123.95  1038.3  1123.39  1039.05  1122.75  1039.98  1122.02  1040.67  1120.1  1042.7  1117.98  1044.54  1115.73  1046.2  1114.69  1046.85  1112.43  1048.2  1111.86  1048.58  1109.9  1049.79  1105.77  1052.15  1103.51  1053.7  1101.63  1054.86  1099.84  1056.2  1097.63  1057.7  1095  1059.68  1093.76  1060.67  1090.89  1063.05  1090.42  1063.41  1086.7  1066.79  1086.26  1067.21  1082.96  1070.47  1076.55  1077.41  1070.53  1084.9  1065.9  1091.74  1065.14  1093  1064.95  1093.36  1062.17  1097.88  1060.17  1100.94  1060.1  1101.03  1059.88  1101.25  1059.48  1101.78  1058.74  1102.55  1057.94  1103.26  1057.1  1103.9  1056.21  1104.48  1055.3  1104.98  1054.36  1105.4  1053.4  1105.73  1052.43  1105.98  1051.47  1106.15  1050.49  1106.21  1049.53  1106.19  1048.58  1106.07  1047.66  1105.88  1046.77  1105.59  1042.51  1103.9  1040.75  1103.11  1039.59  1102.63  1038.83  1102.29  1042.15  1098.97  1044.02  1099.9  1120.01  1023.9  1118.94  1022.18  1121.47  1019.65  1123.43  1022.85  " style="fill: none; stroke: black; stroke-width: 0.200000; fill-type: evenodd"  fill-opacity="1.000000" />
</svg>
