<?xml version="1.0" encoding="UTF-8" standalone="yes"?>
<!DOCTYPE svg PUBLIC "-//W3C//DTD SVG 1.0//EN" "http://www.w3.org/TR/2001/REC-SVG-20010904/DTD/svg10.dtd">
<svg height="2000" width="2000" xmlns="http://www.w3.org/2000/svg" xmlns:svg="http://www.w3.org/2000/svg" xmlns:xlink="http://www.w3.org/1999/xlink">
   <marker id="endArrow" markerHeight="8" markerUnits="strokeWidth" markerWidth="10" orient="auto" refX="1" refY="5" viewBox="0 0 1000 1000">
      <polyline fill="darkblue" points="0,0 10,5 0,10 1,5" />
   </marker>
   <circle cx="1000" cy="1000" r="1" style="stroke:black; fill: red" />
   <circle cx="1000" cy="1000" r="800" style="stroke:black; fill: none" />
   <line x1="755.600891" y1="1052.451294" x2="755.600891" y2="1056.333130" style="stroke: green; stroke-width: 0.200000"/>
   <line x1="756.600891" y1="1046.459839" x2="756.600891" y2="1056.333130" style="stroke: green; stroke-width: 0.200000"/>
   <line x1="757.600952" y1="1043.866821" x2="757.600952" y2="1056.333130" style="stroke: green; stroke-width: 0.200000"/>
   <line x1="758.600952" y1="1041.332764" x2="758.600952" y2="1056.333130" style="stroke: green; stroke-width: 0.200000"/>
   <line x1="759.600891" y1="1038.798828" x2="759.600891" y2="1056.333130" style="stroke: green; stroke-width: 0.200000"/>
   <line x1="760.600891" y1="1036.264771" x2="760.600891" y2="1056.333130" style="stroke: green; stroke-width: 0.200000"/>
   <line x1="761.600891" y1="1034.492310" x2="761.600891" y2="1056.333130" style="stroke: green; stroke-width: 0.200000"/>
   <line x1="762.600952" y1="1032.765503" x2="762.600952" y2="1056.333130" style="stroke: green; stroke-width: 0.200000"/>
   <line x1="763.600952" y1="1031.038696" x2="763.600952" y2="1056.333130" style="stroke: green; stroke-width: 0.200000"/>
   <line x1="764.600891" y1="1029.338745" x2="764.600891" y2="1056.333130" style="stroke: green; stroke-width: 0.200000"/>
   <line x1="765.600891" y1="1027.664917" x2="765.600891" y2="1056.333130" style="stroke: green; stroke-width: 0.200000"/>
   <line x1="766.600891" y1="1026.436646" x2="766.600891" y2="1056.333130" style="stroke: green; stroke-width: 0.200000"/>
   <line x1="767.600952" y1="1025.245972" x2="767.600952" y2="1056.333130" style="stroke: green; stroke-width: 0.200000"/>
   <line x1="768.600952" y1="1024.077515" x2="768.600952" y2="1056.333130" style="stroke: green; stroke-width: 0.200000"/>
   <line x1="769.600891" y1="1022.909058" x2="769.600891" y2="1056.333130" style="stroke: green; stroke-width: 0.200000"/>
   <line x1="770.600891" y1="1021.740662" x2="770.600891" y2="1056.333130" style="stroke: green; stroke-width: 0.200000"/>
   <line x1="771.600891" y1="1020.572205" x2="771.600891" y2="1056.333130" style="stroke: green; stroke-width: 0.200000"/>
   <line x1="772.600952" y1="1019.599670" x2="772.600952" y2="1056.333130" style="stroke: green; stroke-width: 0.200000"/>
   <line x1="773.600952" y1="1018.654053" x2="773.600952" y2="1056.333130" style="stroke: green; stroke-width: 0.200000"/>
   <line x1="774.600891" y1="1017.708374" x2="774.600891" y2="1056.333130" style="stroke: green; stroke-width: 0.200000"/>
   <line x1="775.600891" y1="1016.762695" x2="775.600891" y2="1056.333130" style="stroke: green; stroke-width: 0.200000"/>
   <line x1="776.600891" y1="1015.816956" x2="776.600891" y2="1056.333130" style="stroke: green; stroke-width: 0.200000"/>
   <line x1="777.600952" y1="1014.871277" x2="777.600952" y2="1056.333130" style="stroke: green; stroke-width: 0.200000"/>
   <line x1="778.600952" y1="1013.996643" x2="778.600952" y2="1056.333130" style="stroke: green; stroke-width: 0.200000"/>
   <line x1="779.600891" y1="1013.320679" x2="779.600891" y2="1056.333130" style="stroke: green; stroke-width: 0.200000"/>
   <line x1="780.600891" y1="1012.644714" x2="780.600891" y2="1056.333130" style="stroke: green; stroke-width: 0.200000"/>
   <line x1="781.600891" y1="1011.968750" x2="781.600891" y2="1056.333130" style="stroke: green; stroke-width: 0.200000"/>
   <line x1="782.600952" y1="1011.292786" x2="782.600952" y2="1056.333130" style="stroke: green; stroke-width: 0.200000"/>
   <line x1="783.600952" y1="1010.616821" x2="783.600952" y2="1056.333130" style="stroke: green; stroke-width: 0.200000"/>
   <line x1="784.600891" y1="1009.940857" x2="784.600891" y2="1056.333130" style="stroke: green; stroke-width: 0.200000"/>
   <line x1="785.600891" y1="1009.265015" x2="785.600891" y2="1056.333130" style="stroke: green; stroke-width: 0.200000"/>
   <line x1="786.600891" y1="1008.588989" x2="786.600891" y2="1056.333130" style="stroke: green; stroke-width: 0.200000"/>
   <line x1="787.600952" y1="1008.289062" x2="787.600952" y2="1056.333130" style="stroke: green; stroke-width: 0.200000"/>
   <line x1="788.600952" y1="1008.040894" x2="788.600952" y2="1056.333130" style="stroke: green; stroke-width: 0.200000"/>
   <line x1="789.600891" y1="1007.792847" x2="789.600891" y2="1056.333130" style="stroke: green; stroke-width: 0.200000"/>
   <line x1="790.600891" y1="1007.544678" x2="790.600891" y2="1056.333130" style="stroke: green; stroke-width: 0.200000"/>
   <line x1="791.600891" y1="1007.296631" x2="791.600891" y2="1056.333130" style="stroke: green; stroke-width: 0.200000"/>
   <line x1="792.600952" y1="1007.048462" x2="792.600952" y2="1056.333130" style="stroke: green; stroke-width: 0.200000"/>
   <line x1="793.600952" y1="1006.800415" x2="793.600952" y2="1056.333130" style="stroke: green; stroke-width: 0.200000"/>
   <line x1="794.600891" y1="1006.552246" x2="794.600891" y2="1056.333130" style="stroke: green; stroke-width: 0.200000"/>
   <line x1="795.600891" y1="1006.351013" x2="795.600891" y2="1056.333130" style="stroke: green; stroke-width: 0.200000"/>
   <line x1="796.600891" y1="1006.410156" x2="796.600891" y2="1056.333130" style="stroke: green; stroke-width: 0.200000"/>
   <line x1="797.600952" y1="1006.553345" x2="797.600952" y2="1056.333130" style="stroke: green; stroke-width: 0.200000"/>
   <line x1="798.600952" y1="1006.696533" x2="798.600952" y2="1056.333130" style="stroke: green; stroke-width: 0.200000"/>
   <line x1="799.600891" y1="1006.839722" x2="799.600891" y2="1056.333130" style="stroke: green; stroke-width: 0.200000"/>
   <line x1="800.600891" y1="1006.982971" x2="800.600891" y2="1056.333130" style="stroke: green; stroke-width: 0.200000"/>
   <line x1="801.600891" y1="1007.126160" x2="801.600891" y2="1056.333130" style="stroke: green; stroke-width: 0.200000"/>
   <line x1="802.600952" y1="1007.269287" x2="802.600952" y2="1056.333130" style="stroke: green; stroke-width: 0.200000"/>
   <line x1="803.600952" y1="1007.412476" x2="803.600952" y2="1056.333130" style="stroke: green; stroke-width: 0.200000"/>
   <line x1="804.600891" y1="1007.555664" x2="804.600891" y2="1056.333130" style="stroke: green; stroke-width: 0.200000"/>
   <line x1="805.600891" y1="1007.931458" x2="805.600891" y2="1056.333130" style="stroke: green; stroke-width: 0.200000"/>
   <line x1="806.600891" y1="1008.324219" x2="806.600891" y2="1056.333130" style="stroke: green; stroke-width: 0.200000"/>
   <line x1="807.600952" y1="1008.716980" x2="807.600952" y2="1056.333130" style="stroke: green; stroke-width: 0.200000"/>
   <line x1="808.600952" y1="1009.109741" x2="808.600952" y2="1056.333130" style="stroke: green; stroke-width: 0.200000"/>
   <line x1="809.600891" y1="1009.502441" x2="809.600891" y2="1056.333130" style="stroke: green; stroke-width: 0.200000"/>
   <line x1="810.600891" y1="1009.895142" x2="810.600891" y2="1056.333130" style="stroke: green; stroke-width: 0.200000"/>
   <line x1="811.600891" y1="1010.287964" x2="811.600891" y2="1056.333130" style="stroke: green; stroke-width: 0.200000"/>
   <line x1="812.600952" y1="1010.680603" x2="812.600952" y2="1056.333130" style="stroke: green; stroke-width: 0.200000"/>
   <line x1="813.600952" y1="1011.079834" x2="813.600952" y2="1056.333130" style="stroke: green; stroke-width: 0.200000"/>
   <line x1="814.600891" y1="1011.728882" x2="814.600891" y2="1056.333130" style="stroke: green; stroke-width: 0.200000"/>
   <line x1="815.600891" y1="1012.394165" x2="815.600891" y2="1056.333130" style="stroke: green; stroke-width: 0.200000"/>
   <line x1="816.600891" y1="1013.059448" x2="816.600891" y2="1056.333130" style="stroke: green; stroke-width: 0.200000"/>
   <line x1="817.600952" y1="1013.724854" x2="817.600952" y2="1056.333130" style="stroke: green; stroke-width: 0.200000"/>
   <line x1="818.600952" y1="1014.390137" x2="818.600952" y2="1056.333130" style="stroke: green; stroke-width: 0.200000"/>
   <line x1="819.600891" y1="1015.055481" x2="819.600891" y2="1056.333130" style="stroke: green; stroke-width: 0.200000"/>
   <line x1="820.600891" y1="1015.720764" x2="820.600891" y2="1056.333130" style="stroke: green; stroke-width: 0.200000"/>
   <line x1="821.600891" y1="1016.421631" x2="821.600891" y2="1056.333130" style="stroke: green; stroke-width: 0.200000"/>
   <line x1="822.600952" y1="1017.409424" x2="822.600952" y2="1056.333130" style="stroke: green; stroke-width: 0.200000"/>
   <line x1="823.600952" y1="1018.396606" x2="823.600952" y2="1056.333130" style="stroke: green; stroke-width: 0.200000"/>
   <line x1="824.600891" y1="1019.326294" x2="824.600891" y2="1056.333130" style="stroke: green; stroke-width: 0.200000"/>
   <line x1="825.600891" y1="1020.256042" x2="825.600891" y2="1056.333130" style="stroke: green; stroke-width: 0.200000"/>
   <line x1="826.600891" y1="1021.185791" x2="826.600891" y2="1056.333130" style="stroke: green; stroke-width: 0.200000"/>
   <line x1="827.600952" y1="1022.115479" x2="827.600952" y2="1056.333130" style="stroke: green; stroke-width: 0.200000"/>
   <line x1="828.600952" y1="1023.449585" x2="828.600952" y2="1056.333130" style="stroke: green; stroke-width: 0.200000"/>
   <line x1="829.600891" y1="1024.887451" x2="829.600891" y2="1056.333130" style="stroke: green; stroke-width: 0.200000"/>
   <line x1="830.600891" y1="1026.325439" x2="830.600891" y2="1056.333130" style="stroke: green; stroke-width: 0.200000"/>
   <line x1="831.600891" y1="1027.763428" x2="831.600891" y2="1056.333130" style="stroke: green; stroke-width: 0.200000"/>
   <line x1="832.600952" y1="1029.117188" x2="832.600952" y2="1056.333130" style="stroke: green; stroke-width: 0.200000"/>
   <line x1="833.600952" y1="1030.560913" x2="833.600952" y2="1056.333130" style="stroke: green; stroke-width: 0.200000"/>
   <line x1="834.600891" y1="1032.031494" x2="834.600891" y2="1056.333130" style="stroke: green; stroke-width: 0.200000"/>
   <line x1="835.600891" y1="1033.492310" x2="835.600891" y2="1056.333130" style="stroke: green; stroke-width: 0.200000"/>
   <line x1="836.600891" y1="1034.953125" x2="836.600891" y2="1056.333130" style="stroke: green; stroke-width: 0.200000"/>
   <line x1="837.600952" y1="1036.413818" x2="837.600952" y2="1056.333130" style="stroke: green; stroke-width: 0.200000"/>
   <line x1="838.600952" y1="1037.874634" x2="838.600952" y2="1056.333130" style="stroke: green; stroke-width: 0.200000"/>
   <line x1="839.600891" y1="1039.239502" x2="839.600891" y2="1056.333130" style="stroke: green; stroke-width: 0.200000"/>
   <line x1="840.600891" y1="1040.571777" x2="840.600891" y2="1056.333130" style="stroke: green; stroke-width: 0.200000"/>
   <line x1="841.600891" y1="1041.904053" x2="841.600891" y2="1056.333130" style="stroke: green; stroke-width: 0.200000"/>
   <line x1="842.600952" y1="1043.236206" x2="842.600952" y2="1056.333130" style="stroke: green; stroke-width: 0.200000"/>
   <line x1="843.600952" y1="1044.546021" x2="843.600952" y2="1056.333130" style="stroke: green; stroke-width: 0.200000"/>
   <line x1="844.600891" y1="1045.674438" x2="844.600891" y2="1056.333130" style="stroke: green; stroke-width: 0.200000"/>
   <line x1="845.600891" y1="1046.769775" x2="845.600891" y2="1056.333130" style="stroke: green; stroke-width: 0.200000"/>
   <line x1="846.600891" y1="1047.597046" x2="846.600891" y2="1056.333130" style="stroke: green; stroke-width: 0.200000"/>
   <line x1="847.600952" y1="1048.311035" x2="847.600952" y2="1056.333130" style="stroke: green; stroke-width: 0.200000"/>
   <line x1="848.600952" y1="1049.018311" x2="848.600952" y2="1056.333130" style="stroke: green; stroke-width: 0.200000"/>
   <line x1="849.600891" y1="1049.725586" x2="849.600891" y2="1056.333130" style="stroke: green; stroke-width: 0.200000"/>
   <line x1="850.600891" y1="1050.432861" x2="850.600891" y2="1056.333130" style="stroke: green; stroke-width: 0.200000"/>
   <line x1="851.600891" y1="1051.140137" x2="851.600891" y2="1056.333130" style="stroke: green; stroke-width: 0.200000"/>
   <line x1="852.600952" y1="1051.847412" x2="852.600952" y2="1056.333130" style="stroke: green; stroke-width: 0.200000"/>
   <line x1="853.600952" y1="1052.554688" x2="853.600952" y2="1056.333130" style="stroke: green; stroke-width: 0.200000"/>
   <line x1="854.600891" y1="1053.261963" x2="854.600891" y2="1056.333130" style="stroke: green; stroke-width: 0.200000"/>
   <line x1="855.600891" y1="1053.969360" x2="855.600891" y2="1056.333130" style="stroke: green; stroke-width: 0.200000"/>
   <line x1="856.600891" y1="1054.676636" x2="856.600891" y2="1056.333130" style="stroke: green; stroke-width: 0.200000"/>
   <line x1="857.600952" y1="1055.383911" x2="857.600952" y2="1056.333130" style="stroke: green; stroke-width: 0.200000"/>
   <line x1="858.600952" y1="1056.091187" x2="858.600952" y2="1056.333130" style="stroke: green; stroke-width: 0.200000"/>
   <line x1="750.600891" y1="1104.584839" x2="750.600891" y2="1106.432983" style="stroke: green; stroke-width: 0.200000"/>
   <line x1="751.600891" y1="1098.709961" x2="751.600891" y2="1106.432983" style="stroke: green; stroke-width: 0.200000"/>
   <line x1="752.600952" y1="1093.553223" x2="752.600952" y2="1106.432983" style="stroke: green; stroke-width: 0.200000"/>
   <line x1="753.600952" y1="1088.667236" x2="753.600952" y2="1106.432983" style="stroke: green; stroke-width: 0.200000"/>
   <line x1="754.600891" y1="1082.837036" x2="754.600891" y2="1106.432983" style="stroke: green; stroke-width: 0.200000"/>
   <line x1="755.600891" y1="1075.472290" x2="755.600891" y2="1106.432983" style="stroke: green; stroke-width: 0.200000"/>
   <line x1="756.600891" y1="1056.432983" x2="756.600891" y2="1106.432983" style="stroke: green; stroke-width: 0.200000"/>
   <line x1="757.600952" y1="1056.432983" x2="757.600952" y2="1106.432983" style="stroke: green; stroke-width: 0.200000"/>
   <line x1="758.600952" y1="1056.432983" x2="758.600952" y2="1106.432983" style="stroke: green; stroke-width: 0.200000"/>
   <line x1="759.600891" y1="1056.432983" x2="759.600891" y2="1106.432983" style="stroke: green; stroke-width: 0.200000"/>
   <line x1="760.600891" y1="1056.432983" x2="760.600891" y2="1106.432983" style="stroke: green; stroke-width: 0.200000"/>
   <line x1="761.600891" y1="1056.432983" x2="761.600891" y2="1106.432983" style="stroke: green; stroke-width: 0.200000"/>
   <line x1="762.600952" y1="1056.432983" x2="762.600952" y2="1106.432983" style="stroke: green; stroke-width: 0.200000"/>
   <line x1="763.600952" y1="1056.432983" x2="763.600952" y2="1106.432983" style="stroke: green; stroke-width: 0.200000"/>
   <line x1="764.600891" y1="1056.432983" x2="764.600891" y2="1106.432983" style="stroke: green; stroke-width: 0.200000"/>
   <line x1="765.600891" y1="1056.432983" x2="765.600891" y2="1106.432983" style="stroke: green; stroke-width: 0.200000"/>
   <line x1="766.600891" y1="1056.432983" x2="766.600891" y2="1106.432983" style="stroke: green; stroke-width: 0.200000"/>
   <line x1="767.600952" y1="1056.432983" x2="767.600952" y2="1106.432983" style="stroke: green; stroke-width: 0.200000"/>
   <line x1="768.600952" y1="1056.432983" x2="768.600952" y2="1106.432983" style="stroke: green; stroke-width: 0.200000"/>
   <line x1="769.600891" y1="1056.432983" x2="769.600891" y2="1106.432983" style="stroke: green; stroke-width: 0.200000"/>
   <line x1="770.600891" y1="1056.432983" x2="770.600891" y2="1106.432983" style="stroke: green; stroke-width: 0.200000"/>
   <line x1="771.600891" y1="1056.432983" x2="771.600891" y2="1106.432983" style="stroke: green; stroke-width: 0.200000"/>
   <line x1="772.600952" y1="1056.432983" x2="772.600952" y2="1106.432983" style="stroke: green; stroke-width: 0.200000"/>
   <line x1="773.600952" y1="1056.432983" x2="773.600952" y2="1106.432983" style="stroke: green; stroke-width: 0.200000"/>
   <line x1="774.600891" y1="1056.432983" x2="774.600891" y2="1106.432983" style="stroke: green; stroke-width: 0.200000"/>
   <line x1="775.600891" y1="1056.432983" x2="775.600891" y2="1106.432983" style="stroke: green; stroke-width: 0.200000"/>
   <line x1="776.600891" y1="1056.432983" x2="776.600891" y2="1106.432983" style="stroke: green; stroke-width: 0.200000"/>
   <line x1="777.600952" y1="1056.432983" x2="777.600952" y2="1106.432983" style="stroke: green; stroke-width: 0.200000"/>
   <line x1="778.600952" y1="1056.432983" x2="778.600952" y2="1106.432983" style="stroke: green; stroke-width: 0.200000"/>
   <line x1="779.600891" y1="1056.432983" x2="779.600891" y2="1106.432983" style="stroke: green; stroke-width: 0.200000"/>
   <line x1="780.600891" y1="1056.432983" x2="780.600891" y2="1106.432983" style="stroke: green; stroke-width: 0.200000"/>
   <line x1="781.600891" y1="1056.432983" x2="781.600891" y2="1106.432983" style="stroke: green; stroke-width: 0.200000"/>
   <line x1="782.600952" y1="1056.432983" x2="782.600952" y2="1106.432983" style="stroke: green; stroke-width: 0.200000"/>
   <line x1="783.600952" y1="1056.432983" x2="783.600952" y2="1106.432983" style="stroke: green; stroke-width: 0.200000"/>
   <line x1="784.600891" y1="1056.432983" x2="784.600891" y2="1106.432983" style="stroke: green; stroke-width: 0.200000"/>
   <line x1="785.600891" y1="1056.432983" x2="785.600891" y2="1106.432983" style="stroke: green; stroke-width: 0.200000"/>
   <line x1="786.600891" y1="1056.432983" x2="786.600891" y2="1106.432983" style="stroke: green; stroke-width: 0.200000"/>
   <line x1="787.600952" y1="1056.432983" x2="787.600952" y2="1106.432983" style="stroke: green; stroke-width: 0.200000"/>
   <line x1="788.600952" y1="1056.432983" x2="788.600952" y2="1106.432983" style="stroke: green; stroke-width: 0.200000"/>
   <line x1="789.600891" y1="1056.432983" x2="789.600891" y2="1106.432983" style="stroke: green; stroke-width: 0.200000"/>
   <line x1="790.600891" y1="1056.432983" x2="790.600891" y2="1106.432983" style="stroke: green; stroke-width: 0.200000"/>
   <line x1="791.600891" y1="1056.432983" x2="791.600891" y2="1106.432983" style="stroke: green; stroke-width: 0.200000"/>
   <line x1="792.600952" y1="1056.432983" x2="792.600952" y2="1106.432983" style="stroke: green; stroke-width: 0.200000"/>
   <line x1="793.600952" y1="1056.432983" x2="793.600952" y2="1106.432983" style="stroke: green; stroke-width: 0.200000"/>
   <line x1="794.600891" y1="1056.432983" x2="794.600891" y2="1106.432983" style="stroke: green; stroke-width: 0.200000"/>
   <line x1="795.600891" y1="1056.432983" x2="795.600891" y2="1106.432983" style="stroke: green; stroke-width: 0.200000"/>
   <line x1="796.600891" y1="1056.432983" x2="796.600891" y2="1106.432983" style="stroke: green; stroke-width: 0.200000"/>
   <line x1="797.600952" y1="1056.432983" x2="797.600952" y2="1106.432983" style="stroke: green; stroke-width: 0.200000"/>
   <line x1="798.600952" y1="1056.432983" x2="798.600952" y2="1106.432983" style="stroke: green; stroke-width: 0.200000"/>
   <line x1="799.600891" y1="1056.432983" x2="799.600891" y2="1106.432983" style="stroke: green; stroke-width: 0.200000"/>
   <line x1="755.600891" y1="1056.432983" x2="755.600891" y2="1072.412598" style="stroke: green; stroke-width: 0.200000"/>
   <line x1="800.600891" y1="1056.432983" x2="800.600891" y2="1106.432983" style="stroke: green; stroke-width: 0.200000"/>
   <line x1="801.600891" y1="1056.432983" x2="801.600891" y2="1106.432983" style="stroke: green; stroke-width: 0.200000"/>
   <line x1="802.600952" y1="1056.432983" x2="802.600952" y2="1106.432983" style="stroke: green; stroke-width: 0.200000"/>
   <line x1="803.600952" y1="1056.432983" x2="803.600952" y2="1106.432983" style="stroke: green; stroke-width: 0.200000"/>
   <line x1="804.600891" y1="1056.432983" x2="804.600891" y2="1106.432983" style="stroke: green; stroke-width: 0.200000"/>
   <line x1="805.600891" y1="1056.432983" x2="805.600891" y2="1106.432983" style="stroke: green; stroke-width: 0.200000"/>
   <line x1="806.600891" y1="1056.432983" x2="806.600891" y2="1106.432983" style="stroke: green; stroke-width: 0.200000"/>
   <line x1="807.600952" y1="1056.432983" x2="807.600952" y2="1106.432983" style="stroke: green; stroke-width: 0.200000"/>
   <line x1="808.600952" y1="1056.432983" x2="808.600952" y2="1106.432983" style="stroke: green; stroke-width: 0.200000"/>
   <line x1="809.600891" y1="1056.432983" x2="809.600891" y2="1106.432983" style="stroke: green; stroke-width: 0.200000"/>
   <line x1="810.600891" y1="1056.432983" x2="810.600891" y2="1106.432983" style="stroke: green; stroke-width: 0.200000"/>
   <line x1="811.600891" y1="1056.432983" x2="811.600891" y2="1106.432983" style="stroke: green; stroke-width: 0.200000"/>
   <line x1="812.600952" y1="1056.432983" x2="812.600952" y2="1106.432983" style="stroke: green; stroke-width: 0.200000"/>
   <line x1="813.600952" y1="1056.432983" x2="813.600952" y2="1106.432983" style="stroke: green; stroke-width: 0.200000"/>
   <line x1="814.600891" y1="1056.432983" x2="814.600891" y2="1106.432983" style="stroke: green; stroke-width: 0.200000"/>
   <line x1="815.600891" y1="1056.432983" x2="815.600891" y2="1106.432983" style="stroke: green; stroke-width: 0.200000"/>
   <line x1="816.600891" y1="1056.432983" x2="816.600891" y2="1106.432983" style="stroke: green; stroke-width: 0.200000"/>
   <line x1="817.600952" y1="1056.432983" x2="817.600952" y2="1106.432983" style="stroke: green; stroke-width: 0.200000"/>
   <line x1="818.600952" y1="1056.432983" x2="818.600952" y2="1106.432983" style="stroke: green; stroke-width: 0.200000"/>
   <line x1="819.600891" y1="1056.432983" x2="819.600891" y2="1106.432983" style="stroke: green; stroke-width: 0.200000"/>
   <line x1="820.600891" y1="1056.432983" x2="820.600891" y2="1106.432983" style="stroke: green; stroke-width: 0.200000"/>
   <line x1="821.600891" y1="1056.432983" x2="821.600891" y2="1106.432983" style="stroke: green; stroke-width: 0.200000"/>
   <line x1="822.600952" y1="1056.432983" x2="822.600952" y2="1106.432983" style="stroke: green; stroke-width: 0.200000"/>
   <line x1="823.600952" y1="1056.432983" x2="823.600952" y2="1106.432983" style="stroke: green; stroke-width: 0.200000"/>
   <line x1="824.600891" y1="1056.432983" x2="824.600891" y2="1106.432983" style="stroke: green; stroke-width: 0.200000"/>
   <line x1="825.600891" y1="1056.432983" x2="825.600891" y2="1106.432983" style="stroke: green; stroke-width: 0.200000"/>
   <line x1="826.600891" y1="1056.432983" x2="826.600891" y2="1106.432983" style="stroke: green; stroke-width: 0.200000"/>
   <line x1="827.600952" y1="1056.432983" x2="827.600952" y2="1106.432983" style="stroke: green; stroke-width: 0.200000"/>
   <line x1="828.600952" y1="1056.432983" x2="828.600952" y2="1106.432983" style="stroke: green; stroke-width: 0.200000"/>
   <line x1="829.600891" y1="1056.432983" x2="829.600891" y2="1106.432983" style="stroke: green; stroke-width: 0.200000"/>
   <line x1="830.600891" y1="1056.432983" x2="830.600891" y2="1106.432983" style="stroke: green; stroke-width: 0.200000"/>
   <line x1="831.600891" y1="1056.432983" x2="831.600891" y2="1106.432983" style="stroke: green; stroke-width: 0.200000"/>
   <line x1="832.600952" y1="1056.432983" x2="832.600952" y2="1106.432983" style="stroke: green; stroke-width: 0.200000"/>
   <line x1="833.600952" y1="1056.432983" x2="833.600952" y2="1106.432983" style="stroke: green; stroke-width: 0.200000"/>
   <line x1="834.600891" y1="1056.432983" x2="834.600891" y2="1106.432983" style="stroke: green; stroke-width: 0.200000"/>
   <line x1="835.600891" y1="1056.432983" x2="835.600891" y2="1106.432983" style="stroke: green; stroke-width: 0.200000"/>
   <line x1="836.600891" y1="1056.432983" x2="836.600891" y2="1106.432983" style="stroke: green; stroke-width: 0.200000"/>
   <line x1="837.600952" y1="1056.432983" x2="837.600952" y2="1106.432983" style="stroke: green; stroke-width: 0.200000"/>
   <line x1="838.600952" y1="1056.432983" x2="838.600952" y2="1106.432983" style="stroke: green; stroke-width: 0.200000"/>
   <line x1="839.600891" y1="1056.432983" x2="839.600891" y2="1106.432983" style="stroke: green; stroke-width: 0.200000"/>
   <line x1="840.600891" y1="1056.432983" x2="840.600891" y2="1106.432983" style="stroke: green; stroke-width: 0.200000"/>
   <line x1="841.600891" y1="1056.432983" x2="841.600891" y2="1106.432983" style="stroke: green; stroke-width: 0.200000"/>
   <line x1="842.600952" y1="1056.432983" x2="842.600952" y2="1106.432983" style="stroke: green; stroke-width: 0.200000"/>
   <line x1="843.600952" y1="1056.432983" x2="843.600952" y2="1106.432983" style="stroke: green; stroke-width: 0.200000"/>
   <line x1="844.600891" y1="1056.432983" x2="844.600891" y2="1106.432983" style="stroke: green; stroke-width: 0.200000"/>
   <line x1="845.600891" y1="1056.432983" x2="845.600891" y2="1106.432983" style="stroke: green; stroke-width: 0.200000"/>
   <line x1="846.600891" y1="1056.432983" x2="846.600891" y2="1106.432983" style="stroke: green; stroke-width: 0.200000"/>
   <line x1="847.600952" y1="1056.432983" x2="847.600952" y2="1106.432983" style="stroke: green; stroke-width: 0.200000"/>
   <line x1="848.600952" y1="1056.432983" x2="848.600952" y2="1106.432983" style="stroke: green; stroke-width: 0.200000"/>
   <line x1="849.600891" y1="1056.432983" x2="849.600891" y2="1106.432983" style="stroke: green; stroke-width: 0.200000"/>
   <line x1="850.600891" y1="1056.432983" x2="850.600891" y2="1106.432983" style="stroke: green; stroke-width: 0.200000"/>
   <line x1="851.600891" y1="1056.432983" x2="851.600891" y2="1106.432983" style="stroke: green; stroke-width: 0.200000"/>
   <line x1="852.600952" y1="1056.432983" x2="852.600952" y2="1106.432983" style="stroke: green; stroke-width: 0.200000"/>
   <line x1="853.600952" y1="1056.432983" x2="853.600952" y2="1106.432983" style="stroke: green; stroke-width: 0.200000"/>
   <line x1="854.600891" y1="1056.432983" x2="854.600891" y2="1106.432983" style="stroke: green; stroke-width: 0.200000"/>
   <line x1="855.600891" y1="1056.432983" x2="855.600891" y2="1106.432983" style="stroke: green; stroke-width: 0.200000"/>
   <line x1="856.600891" y1="1056.432983" x2="856.600891" y2="1106.432983" style="stroke: green; stroke-width: 0.200000"/>
   <line x1="857.600952" y1="1056.432983" x2="857.600952" y2="1106.432983" style="stroke: green; stroke-width: 0.200000"/>
   <line x1="858.600952" y1="1056.432983" x2="858.600952" y2="1106.432983" style="stroke: green; stroke-width: 0.200000"/>
   <line x1="859.600891" y1="1056.798462" x2="859.600891" y2="1106.432983" style="stroke: green; stroke-width: 0.200000"/>
   <line x1="860.600891" y1="1057.505737" x2="860.600891" y2="1106.432983" style="stroke: green; stroke-width: 0.200000"/>
   <line x1="861.600891" y1="1058.213013" x2="861.600891" y2="1106.432983" style="stroke: green; stroke-width: 0.200000"/>
   <line x1="862.600952" y1="1058.920288" x2="862.600952" y2="1106.432983" style="stroke: green; stroke-width: 0.200000"/>
   <line x1="863.600952" y1="1059.653076" x2="863.600952" y2="1106.432983" style="stroke: green; stroke-width: 0.200000"/>
   <line x1="864.600891" y1="1060.406738" x2="864.600891" y2="1106.432983" style="stroke: green; stroke-width: 0.200000"/>
   <line x1="865.600891" y1="1061.160522" x2="865.600891" y2="1106.432983" style="stroke: green; stroke-width: 0.200000"/>
   <line x1="866.600891" y1="1061.914307" x2="866.600891" y2="1106.432983" style="stroke: green; stroke-width: 0.200000"/>
   <line x1="867.600952" y1="1062.668091" x2="867.600952" y2="1106.432983" style="stroke: green; stroke-width: 0.200000"/>
   <line x1="868.600952" y1="1063.438843" x2="868.600952" y2="1106.432983" style="stroke: green; stroke-width: 0.200000"/>
   <line x1="869.600891" y1="1064.272583" x2="869.600891" y2="1106.432983" style="stroke: green; stroke-width: 0.200000"/>
   <line x1="870.600891" y1="1065.143799" x2="870.600891" y2="1106.432983" style="stroke: green; stroke-width: 0.200000"/>
   <line x1="871.600891" y1="1066.047607" x2="871.600891" y2="1106.432983" style="stroke: green; stroke-width: 0.200000"/>
   <line x1="872.600952" y1="1066.951660" x2="872.600952" y2="1106.432983" style="stroke: green; stroke-width: 0.200000"/>
   <line x1="873.600952" y1="1067.916992" x2="873.600952" y2="1106.432983" style="stroke: green; stroke-width: 0.200000"/>
   <line x1="874.600891" y1="1068.882446" x2="874.600891" y2="1106.432983" style="stroke: green; stroke-width: 0.200000"/>
   <line x1="875.600891" y1="1069.847900" x2="875.600891" y2="1106.432983" style="stroke: green; stroke-width: 0.200000"/>
   <line x1="876.600891" y1="1070.813354" x2="876.600891" y2="1106.432983" style="stroke: green; stroke-width: 0.200000"/>
   <line x1="877.600952" y1="1071.847778" x2="877.600952" y2="1106.432983" style="stroke: green; stroke-width: 0.200000"/>
   <line x1="878.600952" y1="1072.896729" x2="878.600952" y2="1106.432983" style="stroke: green; stroke-width: 0.200000"/>
   <line x1="879.600891" y1="1073.932007" x2="879.600891" y2="1106.432983" style="stroke: green; stroke-width: 0.200000"/>
   <line x1="880.600891" y1="1074.932129" x2="880.600891" y2="1106.432983" style="stroke: green; stroke-width: 0.200000"/>
   <line x1="881.600891" y1="1075.932373" x2="881.600891" y2="1106.432983" style="stroke: green; stroke-width: 0.200000"/>
   <line x1="882.600952" y1="1076.932495" x2="882.600952" y2="1106.432983" style="stroke: green; stroke-width: 0.200000"/>
   <line x1="883.600952" y1="1077.979858" x2="883.600952" y2="1106.432983" style="stroke: green; stroke-width: 0.200000"/>
   <line x1="884.600891" y1="1079.830566" x2="884.600891" y2="1106.432983" style="stroke: green; stroke-width: 0.200000"/>
   <line x1="885.600891" y1="1081.681274" x2="885.600891" y2="1106.432983" style="stroke: green; stroke-width: 0.200000"/>
   <line x1="886.600891" y1="1083.531982" x2="886.600891" y2="1106.432983" style="stroke: green; stroke-width: 0.200000"/>
   <line x1="887.600952" y1="1085.565674" x2="887.600952" y2="1106.432983" style="stroke: green; stroke-width: 0.200000"/>
   <line x1="888.600952" y1="1087.767212" x2="888.600952" y2="1106.432983" style="stroke: green; stroke-width: 0.200000"/>
   <line x1="889.600891" y1="1090.018311" x2="889.600891" y2="1106.432983" style="stroke: green; stroke-width: 0.200000"/>
   <line x1="890.600891" y1="1092.411865" x2="890.600891" y2="1106.432983" style="stroke: green; stroke-width: 0.200000"/>
   <line x1="891.600891" y1="1094.893066" x2="891.600891" y2="1106.432983" style="stroke: green; stroke-width: 0.200000"/>
   <line x1="892.600952" y1="1097.586914" x2="892.600952" y2="1106.432983" style="stroke: green; stroke-width: 0.200000"/>
   <line x1="893.600952" y1="1100.446899" x2="893.600952" y2="1106.432983" style="stroke: green; stroke-width: 0.200000"/>
   <line x1="894.600891" y1="1103.338501" x2="894.600891" y2="1106.432983" style="stroke: green; stroke-width: 0.200000"/>
   <line x1="757.600952" y1="1106.533081" x2="757.600952" y2="1156.533081" style="stroke: green; stroke-width: 0.200000"/>
   <line x1="758.600952" y1="1106.533081" x2="758.600952" y2="1156.533081" style="stroke: green; stroke-width: 0.200000"/>
   <line x1="759.600891" y1="1106.533081" x2="759.600891" y2="1156.533081" style="stroke: green; stroke-width: 0.200000"/>
   <line x1="760.600891" y1="1106.533081" x2="760.600891" y2="1156.533081" style="stroke: green; stroke-width: 0.200000"/>
   <line x1="761.600891" y1="1106.533081" x2="761.600891" y2="1156.533081" style="stroke: green; stroke-width: 0.200000"/>
   <line x1="762.600952" y1="1106.533081" x2="762.600952" y2="1156.533081" style="stroke: green; stroke-width: 0.200000"/>
   <line x1="763.600952" y1="1106.533081" x2="763.600952" y2="1156.533081" style="stroke: green; stroke-width: 0.200000"/>
   <line x1="764.600891" y1="1106.533081" x2="764.600891" y2="1156.533081" style="stroke: green; stroke-width: 0.200000"/>
   <line x1="765.600891" y1="1106.533081" x2="765.600891" y2="1156.533081" style="stroke: green; stroke-width: 0.200000"/>
   <line x1="766.600891" y1="1106.533081" x2="766.600891" y2="1156.533081" style="stroke: green; stroke-width: 0.200000"/>
   <line x1="767.600952" y1="1106.533081" x2="767.600952" y2="1156.533081" style="stroke: green; stroke-width: 0.200000"/>
   <line x1="768.600952" y1="1106.533081" x2="768.600952" y2="1156.533081" style="stroke: green; stroke-width: 0.200000"/>
   <line x1="769.600891" y1="1106.533081" x2="769.600891" y2="1156.533081" style="stroke: green; stroke-width: 0.200000"/>
   <line x1="770.600891" y1="1106.533081" x2="770.600891" y2="1156.533081" style="stroke: green; stroke-width: 0.200000"/>
   <line x1="771.600891" y1="1106.533081" x2="771.600891" y2="1156.533081" style="stroke: green; stroke-width: 0.200000"/>
   <line x1="772.600952" y1="1106.533081" x2="772.600952" y2="1156.533081" style="stroke: green; stroke-width: 0.200000"/>
   <line x1="773.600952" y1="1106.533081" x2="773.600952" y2="1156.533081" style="stroke: green; stroke-width: 0.200000"/>
   <line x1="774.600891" y1="1106.533081" x2="774.600891" y2="1156.533081" style="stroke: green; stroke-width: 0.200000"/>
   <line x1="775.600891" y1="1106.533081" x2="775.600891" y2="1156.533081" style="stroke: green; stroke-width: 0.200000"/>
   <line x1="776.600891" y1="1106.533081" x2="776.600891" y2="1156.533081" style="stroke: green; stroke-width: 0.200000"/>
   <line x1="777.600952" y1="1106.533081" x2="777.600952" y2="1156.533081" style="stroke: green; stroke-width: 0.200000"/>
   <line x1="778.600952" y1="1106.533081" x2="778.600952" y2="1156.533081" style="stroke: green; stroke-width: 0.200000"/>
   <line x1="779.600891" y1="1106.533081" x2="779.600891" y2="1156.533081" style="stroke: green; stroke-width: 0.200000"/>
   <line x1="780.600891" y1="1106.533081" x2="780.600891" y2="1156.533081" style="stroke: green; stroke-width: 0.200000"/>
   <line x1="781.600891" y1="1106.533081" x2="781.600891" y2="1156.533081" style="stroke: green; stroke-width: 0.200000"/>
   <line x1="782.600952" y1="1106.533081" x2="782.600952" y2="1156.533081" style="stroke: green; stroke-width: 0.200000"/>
   <line x1="783.600952" y1="1106.533081" x2="783.600952" y2="1156.533081" style="stroke: green; stroke-width: 0.200000"/>
   <line x1="784.600891" y1="1106.533081" x2="784.600891" y2="1156.533081" style="stroke: green; stroke-width: 0.200000"/>
   <line x1="785.600891" y1="1106.533081" x2="785.600891" y2="1156.533081" style="stroke: green; stroke-width: 0.200000"/>
   <line x1="786.600891" y1="1106.533081" x2="786.600891" y2="1156.533081" style="stroke: green; stroke-width: 0.200000"/>
   <line x1="787.600952" y1="1106.533081" x2="787.600952" y2="1156.533081" style="stroke: green; stroke-width: 0.200000"/>
   <line x1="788.600952" y1="1106.533081" x2="788.600952" y2="1156.533081" style="stroke: green; stroke-width: 0.200000"/>
   <line x1="789.600891" y1="1106.533081" x2="789.600891" y2="1156.533081" style="stroke: green; stroke-width: 0.200000"/>
   <line x1="790.600891" y1="1106.533081" x2="790.600891" y2="1156.533081" style="stroke: green; stroke-width: 0.200000"/>
   <line x1="791.600891" y1="1106.533081" x2="791.600891" y2="1156.533081" style="stroke: green; stroke-width: 0.200000"/>
   <line x1="792.600952" y1="1106.533081" x2="792.600952" y2="1156.533081" style="stroke: green; stroke-width: 0.200000"/>
   <line x1="793.600952" y1="1106.533081" x2="793.600952" y2="1156.533081" style="stroke: green; stroke-width: 0.200000"/>
   <line x1="794.600891" y1="1106.533081" x2="794.600891" y2="1156.533081" style="stroke: green; stroke-width: 0.200000"/>
   <line x1="795.600891" y1="1106.533081" x2="795.600891" y2="1156.533081" style="stroke: green; stroke-width: 0.200000"/>
   <line x1="796.600891" y1="1106.533081" x2="796.600891" y2="1156.533081" style="stroke: green; stroke-width: 0.200000"/>
   <line x1="797.600952" y1="1106.533081" x2="797.600952" y2="1156.533081" style="stroke: green; stroke-width: 0.200000"/>
   <line x1="798.600952" y1="1106.533081" x2="798.600952" y2="1156.533081" style="stroke: green; stroke-width: 0.200000"/>
   <line x1="799.600891" y1="1106.533081" x2="799.600891" y2="1156.533081" style="stroke: green; stroke-width: 0.200000"/>
   <line x1="756.600891" y1="1106.533081" x2="756.600891" y2="1154.111572" style="stroke: green; stroke-width: 0.200000"/>
   <line x1="755.600891" y1="1106.533081" x2="755.600891" y2="1150.727173" style="stroke: green; stroke-width: 0.200000"/>
   <line x1="754.600891" y1="1106.533081" x2="754.600891" y2="1147.240356" style="stroke: green; stroke-width: 0.200000"/>
   <line x1="753.600952" y1="1106.533081" x2="753.600952" y2="1143.411377" style="stroke: green; stroke-width: 0.200000"/>
   <line x1="752.600952" y1="1106.533081" x2="752.600952" y2="1138.663696" style="stroke: green; stroke-width: 0.200000"/>
   <line x1="751.600891" y1="1106.533081" x2="751.600891" y2="1132.543945" style="stroke: green; stroke-width: 0.200000"/>
   <line x1="750.600891" y1="1106.533081" x2="750.600891" y2="1124.513428" style="stroke: green; stroke-width: 0.200000"/>
   <line x1="800.600891" y1="1106.533081" x2="800.600891" y2="1156.533081" style="stroke: green; stroke-width: 0.200000"/>
   <line x1="801.600891" y1="1106.533081" x2="801.600891" y2="1156.533081" style="stroke: green; stroke-width: 0.200000"/>
   <line x1="802.600952" y1="1106.533081" x2="802.600952" y2="1156.533081" style="stroke: green; stroke-width: 0.200000"/>
   <line x1="803.600952" y1="1106.533081" x2="803.600952" y2="1156.533081" style="stroke: green; stroke-width: 0.200000"/>
   <line x1="804.600891" y1="1106.533081" x2="804.600891" y2="1156.533081" style="stroke: green; stroke-width: 0.200000"/>
   <line x1="805.600891" y1="1106.533081" x2="805.600891" y2="1156.533081" style="stroke: green; stroke-width: 0.200000"/>
   <line x1="806.600891" y1="1106.533081" x2="806.600891" y2="1156.533081" style="stroke: green; stroke-width: 0.200000"/>
   <line x1="807.600952" y1="1106.533081" x2="807.600952" y2="1156.533081" style="stroke: green; stroke-width: 0.200000"/>
   <line x1="808.600952" y1="1106.533081" x2="808.600952" y2="1156.533081" style="stroke: green; stroke-width: 0.200000"/>
   <line x1="809.600891" y1="1106.533081" x2="809.600891" y2="1156.533081" style="stroke: green; stroke-width: 0.200000"/>
   <line x1="810.600891" y1="1106.533081" x2="810.600891" y2="1156.533081" style="stroke: green; stroke-width: 0.200000"/>
   <line x1="811.600891" y1="1106.533081" x2="811.600891" y2="1156.533081" style="stroke: green; stroke-width: 0.200000"/>
   <line x1="812.600952" y1="1106.533081" x2="812.600952" y2="1156.533081" style="stroke: green; stroke-width: 0.200000"/>
   <line x1="813.600952" y1="1106.533081" x2="813.600952" y2="1156.533081" style="stroke: green; stroke-width: 0.200000"/>
   <line x1="814.600891" y1="1106.533081" x2="814.600891" y2="1156.533081" style="stroke: green; stroke-width: 0.200000"/>
   <line x1="815.600891" y1="1106.533081" x2="815.600891" y2="1156.533081" style="stroke: green; stroke-width: 0.200000"/>
   <line x1="816.600891" y1="1106.533081" x2="816.600891" y2="1156.533081" style="stroke: green; stroke-width: 0.200000"/>
   <line x1="817.600952" y1="1106.533081" x2="817.600952" y2="1156.533081" style="stroke: green; stroke-width: 0.200000"/>
   <line x1="818.600952" y1="1106.533081" x2="818.600952" y2="1156.533081" style="stroke: green; stroke-width: 0.200000"/>
   <line x1="819.600891" y1="1106.533081" x2="819.600891" y2="1156.533081" style="stroke: green; stroke-width: 0.200000"/>
   <line x1="820.600891" y1="1106.533081" x2="820.600891" y2="1156.533081" style="stroke: green; stroke-width: 0.200000"/>
   <line x1="821.600891" y1="1106.533081" x2="821.600891" y2="1156.533081" style="stroke: green; stroke-width: 0.200000"/>
   <line x1="822.600952" y1="1106.533081" x2="822.600952" y2="1156.533081" style="stroke: green; stroke-width: 0.200000"/>
   <line x1="823.600952" y1="1106.533081" x2="823.600952" y2="1156.533081" style="stroke: green; stroke-width: 0.200000"/>
   <line x1="824.600891" y1="1106.533081" x2="824.600891" y2="1156.533081" style="stroke: green; stroke-width: 0.200000"/>
   <line x1="825.600891" y1="1106.533081" x2="825.600891" y2="1156.533081" style="stroke: green; stroke-width: 0.200000"/>
   <line x1="826.600891" y1="1106.533081" x2="826.600891" y2="1156.533081" style="stroke: green; stroke-width: 0.200000"/>
   <line x1="827.600952" y1="1106.533081" x2="827.600952" y2="1156.533081" style="stroke: green; stroke-width: 0.200000"/>
   <line x1="828.600952" y1="1106.533081" x2="828.600952" y2="1156.533081" style="stroke: green; stroke-width: 0.200000"/>
   <line x1="829.600891" y1="1106.533081" x2="829.600891" y2="1156.533081" style="stroke: green; stroke-width: 0.200000"/>
   <line x1="830.600891" y1="1106.533081" x2="830.600891" y2="1156.533081" style="stroke: green; stroke-width: 0.200000"/>
   <line x1="831.600891" y1="1106.533081" x2="831.600891" y2="1156.533081" style="stroke: green; stroke-width: 0.200000"/>
   <line x1="832.600952" y1="1106.533081" x2="832.600952" y2="1156.533081" style="stroke: green; stroke-width: 0.200000"/>
   <line x1="833.600952" y1="1106.533081" x2="833.600952" y2="1156.533081" style="stroke: green; stroke-width: 0.200000"/>
   <line x1="834.600891" y1="1106.533081" x2="834.600891" y2="1156.533081" style="stroke: green; stroke-width: 0.200000"/>
   <line x1="835.600891" y1="1106.533081" x2="835.600891" y2="1156.533081" style="stroke: green; stroke-width: 0.200000"/>
   <line x1="836.600891" y1="1106.533081" x2="836.600891" y2="1156.533081" style="stroke: green; stroke-width: 0.200000"/>
   <line x1="837.600952" y1="1106.533081" x2="837.600952" y2="1156.533081" style="stroke: green; stroke-width: 0.200000"/>
   <line x1="838.600952" y1="1106.533081" x2="838.600952" y2="1156.533081" style="stroke: green; stroke-width: 0.200000"/>
   <line x1="839.600891" y1="1106.533081" x2="839.600891" y2="1156.533081" style="stroke: green; stroke-width: 0.200000"/>
   <line x1="840.600891" y1="1106.533081" x2="840.600891" y2="1156.533081" style="stroke: green; stroke-width: 0.200000"/>
   <line x1="841.600891" y1="1106.533081" x2="841.600891" y2="1156.533081" style="stroke: green; stroke-width: 0.200000"/>
   <line x1="842.600952" y1="1106.533081" x2="842.600952" y2="1156.533081" style="stroke: green; stroke-width: 0.200000"/>
   <line x1="843.600952" y1="1106.533081" x2="843.600952" y2="1156.533081" style="stroke: green; stroke-width: 0.200000"/>
   <line x1="844.600891" y1="1106.533081" x2="844.600891" y2="1156.533081" style="stroke: green; stroke-width: 0.200000"/>
   <line x1="845.600891" y1="1106.533081" x2="845.600891" y2="1156.533081" style="stroke: green; stroke-width: 0.200000"/>
   <line x1="846.600891" y1="1106.533081" x2="846.600891" y2="1156.533081" style="stroke: green; stroke-width: 0.200000"/>
   <line x1="847.600952" y1="1106.533081" x2="847.600952" y2="1156.533081" style="stroke: green; stroke-width: 0.200000"/>
   <line x1="848.600952" y1="1106.533081" x2="848.600952" y2="1156.533081" style="stroke: green; stroke-width: 0.200000"/>
   <line x1="849.600891" y1="1106.533081" x2="849.600891" y2="1156.533081" style="stroke: green; stroke-width: 0.200000"/>
   <line x1="850.600891" y1="1106.533081" x2="850.600891" y2="1156.533081" style="stroke: green; stroke-width: 0.200000"/>
   <line x1="851.600891" y1="1106.533081" x2="851.600891" y2="1156.533081" style="stroke: green; stroke-width: 0.200000"/>
   <line x1="852.600952" y1="1106.533081" x2="852.600952" y2="1156.533081" style="stroke: green; stroke-width: 0.200000"/>
   <line x1="853.600952" y1="1106.533081" x2="853.600952" y2="1156.533081" style="stroke: green; stroke-width: 0.200000"/>
   <line x1="854.600891" y1="1106.533081" x2="854.600891" y2="1156.533081" style="stroke: green; stroke-width: 0.200000"/>
   <line x1="855.600891" y1="1106.533081" x2="855.600891" y2="1156.533081" style="stroke: green; stroke-width: 0.200000"/>
   <line x1="856.600891" y1="1106.533081" x2="856.600891" y2="1156.533081" style="stroke: green; stroke-width: 0.200000"/>
   <line x1="857.600952" y1="1106.533081" x2="857.600952" y2="1156.533081" style="stroke: green; stroke-width: 0.200000"/>
   <line x1="858.600952" y1="1106.533081" x2="858.600952" y2="1156.533081" style="stroke: green; stroke-width: 0.200000"/>
   <line x1="859.600891" y1="1106.533081" x2="859.600891" y2="1156.533081" style="stroke: green; stroke-width: 0.200000"/>
   <line x1="860.600891" y1="1106.533081" x2="860.600891" y2="1156.533081" style="stroke: green; stroke-width: 0.200000"/>
   <line x1="861.600891" y1="1106.533081" x2="861.600891" y2="1156.533081" style="stroke: green; stroke-width: 0.200000"/>
   <line x1="862.600952" y1="1106.533081" x2="862.600952" y2="1156.533081" style="stroke: green; stroke-width: 0.200000"/>
   <line x1="863.600952" y1="1106.533081" x2="863.600952" y2="1156.533081" style="stroke: green; stroke-width: 0.200000"/>
   <line x1="864.600891" y1="1106.533081" x2="864.600891" y2="1156.533081" style="stroke: green; stroke-width: 0.200000"/>
   <line x1="865.600891" y1="1106.533081" x2="865.600891" y2="1156.533081" style="stroke: green; stroke-width: 0.200000"/>
   <line x1="866.600891" y1="1106.533081" x2="866.600891" y2="1156.533081" style="stroke: green; stroke-width: 0.200000"/>
   <line x1="867.600952" y1="1106.533081" x2="867.600952" y2="1156.533081" style="stroke: green; stroke-width: 0.200000"/>
   <line x1="868.600952" y1="1106.533081" x2="868.600952" y2="1156.533081" style="stroke: green; stroke-width: 0.200000"/>
   <line x1="869.600891" y1="1106.533081" x2="869.600891" y2="1156.533081" style="stroke: green; stroke-width: 0.200000"/>
   <line x1="870.600891" y1="1106.533081" x2="870.600891" y2="1156.533081" style="stroke: green; stroke-width: 0.200000"/>
   <line x1="871.600891" y1="1106.533081" x2="871.600891" y2="1156.533081" style="stroke: green; stroke-width: 0.200000"/>
   <line x1="872.600952" y1="1106.533081" x2="872.600952" y2="1156.533081" style="stroke: green; stroke-width: 0.200000"/>
   <line x1="873.600952" y1="1106.533081" x2="873.600952" y2="1156.533081" style="stroke: green; stroke-width: 0.200000"/>
   <line x1="874.600891" y1="1106.533081" x2="874.600891" y2="1156.533081" style="stroke: green; stroke-width: 0.200000"/>
   <line x1="875.600891" y1="1106.533081" x2="875.600891" y2="1156.533081" style="stroke: green; stroke-width: 0.200000"/>
   <line x1="876.600891" y1="1106.533081" x2="876.600891" y2="1156.533081" style="stroke: green; stroke-width: 0.200000"/>
   <line x1="877.600952" y1="1106.533081" x2="877.600952" y2="1156.533081" style="stroke: green; stroke-width: 0.200000"/>
   <line x1="878.600952" y1="1106.533081" x2="878.600952" y2="1156.533081" style="stroke: green; stroke-width: 0.200000"/>
   <line x1="879.600891" y1="1106.533081" x2="879.600891" y2="1156.533081" style="stroke: green; stroke-width: 0.200000"/>
   <line x1="880.600891" y1="1106.533081" x2="880.600891" y2="1156.533081" style="stroke: green; stroke-width: 0.200000"/>
   <line x1="881.600891" y1="1106.533081" x2="881.600891" y2="1156.533081" style="stroke: green; stroke-width: 0.200000"/>
   <line x1="882.600952" y1="1106.533081" x2="882.600952" y2="1156.533081" style="stroke: green; stroke-width: 0.200000"/>
   <line x1="883.600952" y1="1106.533081" x2="883.600952" y2="1156.533081" style="stroke: green; stroke-width: 0.200000"/>
   <line x1="884.600891" y1="1106.533081" x2="884.600891" y2="1156.533081" style="stroke: green; stroke-width: 0.200000"/>
   <line x1="885.600891" y1="1106.533081" x2="885.600891" y2="1156.533081" style="stroke: green; stroke-width: 0.200000"/>
   <line x1="886.600891" y1="1106.533081" x2="886.600891" y2="1156.533081" style="stroke: green; stroke-width: 0.200000"/>
   <line x1="887.600952" y1="1106.533081" x2="887.600952" y2="1156.533081" style="stroke: green; stroke-width: 0.200000"/>
   <line x1="888.600952" y1="1106.533081" x2="888.600952" y2="1156.533081" style="stroke: green; stroke-width: 0.200000"/>
   <line x1="889.600891" y1="1106.533081" x2="889.600891" y2="1156.533081" style="stroke: green; stroke-width: 0.200000"/>
   <line x1="890.600891" y1="1106.533081" x2="890.600891" y2="1156.533081" style="stroke: green; stroke-width: 0.200000"/>
   <line x1="891.600891" y1="1106.533081" x2="891.600891" y2="1156.533081" style="stroke: green; stroke-width: 0.200000"/>
   <line x1="892.600952" y1="1106.533081" x2="892.600952" y2="1156.533081" style="stroke: green; stroke-width: 0.200000"/>
   <line x1="893.600952" y1="1106.533081" x2="893.600952" y2="1156.533081" style="stroke: green; stroke-width: 0.200000"/>
   <line x1="894.600891" y1="1106.533081" x2="894.600891" y2="1156.533081" style="stroke: green; stroke-width: 0.200000"/>
   <line x1="895.600891" y1="1106.533081" x2="895.600891" y2="1156.533081" style="stroke: green; stroke-width: 0.200000"/>
   <line x1="896.600891" y1="1109.682617" x2="896.600891" y2="1156.533081" style="stroke: green; stroke-width: 0.200000"/>
   <line x1="897.600952" y1="1113.138550" x2="897.600952" y2="1155.000854" style="stroke: green; stroke-width: 0.200000"/>
   <line x1="898.600952" y1="1117.498657" x2="898.600952" y2="1151.441406" style="stroke: green; stroke-width: 0.200000"/>
   <line x1="899.600891" y1="1122.091797" x2="899.600891" y2="1146.305908" style="stroke: green; stroke-width: 0.200000"/>
   <line x1="900.600891" y1="1129.955811" x2="900.600891" y2="1135.472656" style="stroke: green; stroke-width: 0.200000"/>
   <line x1="799.600891" y1="1156.633057" x2="799.600891" y2="1197.812134" style="stroke: green; stroke-width: 0.200000"/>
   <line x1="798.600952" y1="1156.633057" x2="798.600952" y2="1197.354248" style="stroke: green; stroke-width: 0.200000"/>
   <line x1="797.600952" y1="1156.633057" x2="797.600952" y2="1196.896484" style="stroke: green; stroke-width: 0.200000"/>
   <line x1="796.600891" y1="1156.633057" x2="796.600891" y2="1196.438599" style="stroke: green; stroke-width: 0.200000"/>
   <line x1="795.600891" y1="1156.633057" x2="795.600891" y2="1195.980713" style="stroke: green; stroke-width: 0.200000"/>
   <line x1="794.600891" y1="1156.633057" x2="794.600891" y2="1195.396973" style="stroke: green; stroke-width: 0.200000"/>
   <line x1="793.600952" y1="1156.633057" x2="793.600952" y2="1194.783447" style="stroke: green; stroke-width: 0.200000"/>
   <line x1="792.600952" y1="1156.633057" x2="792.600952" y2="1194.169800" style="stroke: green; stroke-width: 0.200000"/>
   <line x1="791.600891" y1="1156.633057" x2="791.600891" y2="1193.556152" style="stroke: green; stroke-width: 0.200000"/>
   <line x1="790.600891" y1="1156.633057" x2="790.600891" y2="1192.942627" style="stroke: green; stroke-width: 0.200000"/>
   <line x1="789.600891" y1="1156.633057" x2="789.600891" y2="1192.329102" style="stroke: green; stroke-width: 0.200000"/>
   <line x1="788.600952" y1="1156.633057" x2="788.600952" y2="1191.715576" style="stroke: green; stroke-width: 0.200000"/>
   <line x1="787.600952" y1="1156.633057" x2="787.600952" y2="1190.995972" style="stroke: green; stroke-width: 0.200000"/>
   <line x1="786.600891" y1="1156.633057" x2="786.600891" y2="1190.187134" style="stroke: green; stroke-width: 0.200000"/>
   <line x1="785.600891" y1="1156.633057" x2="785.600891" y2="1189.378296" style="stroke: green; stroke-width: 0.200000"/>
   <line x1="784.600891" y1="1156.633057" x2="784.600891" y2="1188.587646" style="stroke: green; stroke-width: 0.200000"/>
   <line x1="783.600952" y1="1156.633057" x2="783.600952" y2="1187.885986" style="stroke: green; stroke-width: 0.200000"/>
   <line x1="782.600952" y1="1156.633057" x2="782.600952" y2="1187.184570" style="stroke: green; stroke-width: 0.200000"/>
   <line x1="781.600891" y1="1156.633057" x2="781.600891" y2="1186.482910" style="stroke: green; stroke-width: 0.200000"/>
   <line x1="780.600891" y1="1156.633057" x2="780.600891" y2="1185.781372" style="stroke: green; stroke-width: 0.200000"/>
   <line x1="779.600891" y1="1156.633057" x2="779.600891" y2="1185.076172" style="stroke: green; stroke-width: 0.200000"/>
   <line x1="778.600952" y1="1156.633057" x2="778.600952" y2="1184.265015" style="stroke: green; stroke-width: 0.200000"/>
   <line x1="777.600952" y1="1156.633057" x2="777.600952" y2="1183.454102" style="stroke: green; stroke-width: 0.200000"/>
   <line x1="776.600891" y1="1156.633057" x2="776.600891" y2="1182.642944" style="stroke: green; stroke-width: 0.200000"/>
   <line x1="775.600891" y1="1156.633057" x2="775.600891" y2="1181.736572" style="stroke: green; stroke-width: 0.200000"/>
   <line x1="774.600891" y1="1156.633057" x2="774.600891" y2="1180.767334" style="stroke: green; stroke-width: 0.200000"/>
   <line x1="773.600952" y1="1156.633057" x2="773.600952" y2="1179.798096" style="stroke: green; stroke-width: 0.200000"/>
   <line x1="772.600952" y1="1156.633057" x2="772.600952" y2="1178.828735" style="stroke: green; stroke-width: 0.200000"/>
   <line x1="771.600891" y1="1156.633057" x2="771.600891" y2="1177.859375" style="stroke: green; stroke-width: 0.200000"/>
   <line x1="770.600891" y1="1156.633057" x2="770.600891" y2="1176.882568" style="stroke: green; stroke-width: 0.200000"/>
   <line x1="769.600891" y1="1156.633057" x2="769.600891" y2="1175.824097" style="stroke: green; stroke-width: 0.200000"/>
   <line x1="768.600952" y1="1156.633057" x2="768.600952" y2="1174.785278" style="stroke: green; stroke-width: 0.200000"/>
   <line x1="767.600952" y1="1156.633057" x2="767.600952" y2="1173.628540" style="stroke: green; stroke-width: 0.200000"/>
   <line x1="766.600891" y1="1156.633057" x2="766.600891" y2="1172.316772" style="stroke: green; stroke-width: 0.200000"/>
   <line x1="765.600891" y1="1156.633057" x2="765.600891" y2="1171.005005" style="stroke: green; stroke-width: 0.200000"/>
   <line x1="764.600891" y1="1156.633057" x2="764.600891" y2="1169.693237" style="stroke: green; stroke-width: 0.200000"/>
   <line x1="763.600952" y1="1156.633057" x2="763.600952" y2="1168.381470" style="stroke: green; stroke-width: 0.200000"/>
   <line x1="762.600952" y1="1156.633057" x2="762.600952" y2="1167.069702" style="stroke: green; stroke-width: 0.200000"/>
   <line x1="761.600891" y1="1156.633057" x2="761.600891" y2="1165.504517" style="stroke: green; stroke-width: 0.200000"/>
   <line x1="760.600891" y1="1156.633057" x2="760.600891" y2="1163.933105" style="stroke: green; stroke-width: 0.200000"/>
   <line x1="759.600891" y1="1156.633057" x2="759.600891" y2="1162.286743" style="stroke: green; stroke-width: 0.200000"/>
   <line x1="758.600952" y1="1156.633057" x2="758.600952" y2="1160.461182" style="stroke: green; stroke-width: 0.200000"/>
   <line x1="757.600952" y1="1156.633057" x2="757.600952" y2="1158.075684" style="stroke: green; stroke-width: 0.200000"/>
   <line x1="825.600891" y1="1156.633057" x2="825.600891" y2="1205.203003" style="stroke: green; stroke-width: 0.200000"/>
   <line x1="824.600891" y1="1156.633057" x2="824.600891" y2="1205.192139" style="stroke: green; stroke-width: 0.200000"/>
   <line x1="826.600891" y1="1156.633057" x2="826.600891" y2="1205.171021" style="stroke: green; stroke-width: 0.200000"/>
   <line x1="827.600952" y1="1156.633057" x2="827.600952" y2="1205.138916" style="stroke: green; stroke-width: 0.200000"/>
   <line x1="828.600952" y1="1156.633057" x2="828.600952" y2="1205.106934" style="stroke: green; stroke-width: 0.200000"/>
   <line x1="829.600891" y1="1156.633057" x2="829.600891" y2="1205.082764" style="stroke: green; stroke-width: 0.200000"/>
   <line x1="823.600952" y1="1156.633057" x2="823.600952" y2="1205.073486" style="stroke: green; stroke-width: 0.200000"/>
   <line x1="830.600891" y1="1156.633057" x2="830.600891" y2="1205.059204" style="stroke: green; stroke-width: 0.200000"/>
   <line x1="831.600891" y1="1156.633057" x2="831.600891" y2="1205.035645" style="stroke: green; stroke-width: 0.200000"/>
   <line x1="832.600952" y1="1156.633057" x2="832.600952" y2="1205.012085" style="stroke: green; stroke-width: 0.200000"/>
   <line x1="833.600952" y1="1156.633057" x2="833.600952" y2="1204.988647" style="stroke: green; stroke-width: 0.200000"/>
   <line x1="834.600891" y1="1156.633057" x2="834.600891" y2="1204.920776" style="stroke: green; stroke-width: 0.200000"/>
   <line x1="822.600952" y1="1156.633057" x2="822.600952" y2="1204.901245" style="stroke: green; stroke-width: 0.200000"/>
   <line x1="835.600891" y1="1156.633057" x2="835.600891" y2="1204.752441" style="stroke: green; stroke-width: 0.200000"/>
   <line x1="821.600891" y1="1156.633057" x2="821.600891" y2="1204.728882" style="stroke: green; stroke-width: 0.200000"/>
   <line x1="836.600891" y1="1156.633057" x2="836.600891" y2="1204.584229" style="stroke: green; stroke-width: 0.200000"/>
   <line x1="820.600891" y1="1156.633057" x2="820.600891" y2="1204.556641" style="stroke: green; stroke-width: 0.200000"/>
   <line x1="837.600952" y1="1156.633057" x2="837.600952" y2="1204.415894" style="stroke: green; stroke-width: 0.200000"/>
   <line x1="819.600891" y1="1156.633057" x2="819.600891" y2="1204.384277" style="stroke: green; stroke-width: 0.200000"/>
   <line x1="838.600952" y1="1156.633057" x2="838.600952" y2="1204.233276" style="stroke: green; stroke-width: 0.200000"/>
   <line x1="818.600952" y1="1156.633057" x2="818.600952" y2="1204.211914" style="stroke: green; stroke-width: 0.200000"/>
   <line x1="839.600891" y1="1156.633057" x2="839.600891" y2="1204.050659" style="stroke: green; stroke-width: 0.200000"/>
   <line x1="817.600952" y1="1156.633057" x2="817.600952" y2="1204.039673" style="stroke: green; stroke-width: 0.200000"/>
   <line x1="840.600891" y1="1156.633057" x2="840.600891" y2="1203.868042" style="stroke: green; stroke-width: 0.200000"/>
   <line x1="816.600891" y1="1156.633057" x2="816.600891" y2="1203.867310" style="stroke: green; stroke-width: 0.200000"/>
   <line x1="841.600891" y1="1156.633057" x2="841.600891" y2="1203.685425" style="stroke: green; stroke-width: 0.200000"/>
   <line x1="815.600891" y1="1156.633057" x2="815.600891" y2="1203.655029" style="stroke: green; stroke-width: 0.200000"/>
   <line x1="842.600952" y1="1156.633057" x2="842.600952" y2="1203.502808" style="stroke: green; stroke-width: 0.200000"/>
   <line x1="814.600891" y1="1156.633057" x2="814.600891" y2="1203.381470" style="stroke: green; stroke-width: 0.200000"/>
   <line x1="843.600952" y1="1156.633057" x2="843.600952" y2="1203.284546" style="stroke: green; stroke-width: 0.200000"/>
   <line x1="813.600952" y1="1156.633057" x2="813.600952" y2="1203.104980" style="stroke: green; stroke-width: 0.200000"/>
   <line x1="844.600891" y1="1156.633057" x2="844.600891" y2="1203.036011" style="stroke: green; stroke-width: 0.200000"/>
   <line x1="845.600891" y1="1156.633057" x2="845.600891" y2="1202.787476" style="stroke: green; stroke-width: 0.200000"/>
   <line x1="812.600952" y1="1156.633057" x2="812.600952" y2="1202.781006" style="stroke: green; stroke-width: 0.200000"/>
   <line x1="846.600891" y1="1156.633057" x2="846.600891" y2="1202.538940" style="stroke: green; stroke-width: 0.200000"/>
   <line x1="811.600891" y1="1156.633057" x2="811.600891" y2="1202.457031" style="stroke: green; stroke-width: 0.200000"/>
   <line x1="847.600952" y1="1156.633057" x2="847.600952" y2="1202.290405" style="stroke: green; stroke-width: 0.200000"/>
   <line x1="810.600891" y1="1156.633057" x2="810.600891" y2="1202.133057" style="stroke: green; stroke-width: 0.200000"/>
   <line x1="848.600952" y1="1156.633057" x2="848.600952" y2="1202.041870" style="stroke: green; stroke-width: 0.200000"/>
   <line x1="809.600891" y1="1156.633057" x2="809.600891" y2="1201.809204" style="stroke: green; stroke-width: 0.200000"/>
   <line x1="849.600891" y1="1156.633057" x2="849.600891" y2="1201.793335" style="stroke: green; stroke-width: 0.200000"/>
   <line x1="808.600952" y1="1156.633057" x2="808.600952" y2="1201.485229" style="stroke: green; stroke-width: 0.200000"/>
   <line x1="807.600952" y1="1156.633057" x2="807.600952" y2="1201.161255" style="stroke: green; stroke-width: 0.200000"/>
   <line x1="806.600891" y1="1156.633057" x2="806.600891" y2="1200.837280" style="stroke: green; stroke-width: 0.200000"/>
   <line x1="805.600891" y1="1156.633057" x2="805.600891" y2="1200.513428" style="stroke: green; stroke-width: 0.200000"/>
   <line x1="804.600891" y1="1156.633057" x2="804.600891" y2="1200.129272" style="stroke: green; stroke-width: 0.200000"/>
   <line x1="803.600952" y1="1156.633057" x2="803.600952" y2="1199.682861" style="stroke: green; stroke-width: 0.200000"/>
   <line x1="802.600952" y1="1156.633057" x2="802.600952" y2="1199.207397" style="stroke: green; stroke-width: 0.200000"/>
   <line x1="801.600891" y1="1156.633057" x2="801.600891" y2="1198.731812" style="stroke: green; stroke-width: 0.200000"/>
   <line x1="800.600891" y1="1156.633057" x2="800.600891" y2="1198.270020" style="stroke: green; stroke-width: 0.200000"/>
   <line x1="850.600891" y1="1156.633057" x2="850.600891" y2="1201.528442" style="stroke: green; stroke-width: 0.200000"/>
   <line x1="851.600891" y1="1156.633057" x2="851.600891" y2="1201.238892" style="stroke: green; stroke-width: 0.200000"/>
   <line x1="852.600952" y1="1156.633057" x2="852.600952" y2="1200.850220" style="stroke: green; stroke-width: 0.200000"/>
   <line x1="853.600952" y1="1156.633057" x2="853.600952" y2="1200.461548" style="stroke: green; stroke-width: 0.200000"/>
   <line x1="854.600891" y1="1156.633057" x2="854.600891" y2="1200.072998" style="stroke: green; stroke-width: 0.200000"/>
   <line x1="855.600891" y1="1156.633057" x2="855.600891" y2="1199.684204" style="stroke: green; stroke-width: 0.200000"/>
   <line x1="856.600891" y1="1156.633057" x2="856.600891" y2="1199.295532" style="stroke: green; stroke-width: 0.200000"/>
   <line x1="857.600952" y1="1156.633057" x2="857.600952" y2="1198.906982" style="stroke: green; stroke-width: 0.200000"/>
   <line x1="858.600952" y1="1156.633057" x2="858.600952" y2="1198.518188" style="stroke: green; stroke-width: 0.200000"/>
   <line x1="859.600891" y1="1156.633057" x2="859.600891" y2="1198.129639" style="stroke: green; stroke-width: 0.200000"/>
   <line x1="860.600891" y1="1156.633057" x2="860.600891" y2="1197.672729" style="stroke: green; stroke-width: 0.200000"/>
   <line x1="861.600891" y1="1156.633057" x2="861.600891" y2="1197.165283" style="stroke: green; stroke-width: 0.200000"/>
   <line x1="862.600952" y1="1156.633057" x2="862.600952" y2="1196.657959" style="stroke: green; stroke-width: 0.200000"/>
   <line x1="863.600952" y1="1156.633057" x2="863.600952" y2="1196.150513" style="stroke: green; stroke-width: 0.200000"/>
   <line x1="864.600891" y1="1156.633057" x2="864.600891" y2="1195.643066" style="stroke: green; stroke-width: 0.200000"/>
   <line x1="865.600891" y1="1156.633057" x2="865.600891" y2="1195.135742" style="stroke: green; stroke-width: 0.200000"/>
   <line x1="866.600891" y1="1156.633057" x2="866.600891" y2="1194.628296" style="stroke: green; stroke-width: 0.200000"/>
   <line x1="867.600952" y1="1156.633057" x2="867.600952" y2="1194.120972" style="stroke: green; stroke-width: 0.200000"/>
   <line x1="868.600952" y1="1156.633057" x2="868.600952" y2="1193.673584" style="stroke: green; stroke-width: 0.200000"/>
   <line x1="869.600891" y1="1156.633057" x2="869.600891" y2="1193.265869" style="stroke: green; stroke-width: 0.200000"/>
   <line x1="870.600891" y1="1156.633057" x2="870.600891" y2="1192.858154" style="stroke: green; stroke-width: 0.200000"/>
   <line x1="871.600891" y1="1156.633057" x2="871.600891" y2="1192.380859" style="stroke: green; stroke-width: 0.200000"/>
   <line x1="872.600952" y1="1156.633057" x2="872.600952" y2="1191.843750" style="stroke: green; stroke-width: 0.200000"/>
   <line x1="873.600952" y1="1156.633057" x2="873.600952" y2="1191.306641" style="stroke: green; stroke-width: 0.200000"/>
   <line x1="874.600891" y1="1156.633057" x2="874.600891" y2="1190.769531" style="stroke: green; stroke-width: 0.200000"/>
   <line x1="875.600891" y1="1156.633057" x2="875.600891" y2="1190.232422" style="stroke: green; stroke-width: 0.200000"/>
   <line x1="876.600891" y1="1156.633057" x2="876.600891" y2="1189.695312" style="stroke: green; stroke-width: 0.200000"/>
   <line x1="877.600952" y1="1156.633057" x2="877.600952" y2="1188.864502" style="stroke: green; stroke-width: 0.200000"/>
   <line x1="878.600952" y1="1156.633057" x2="878.600952" y2="1187.990845" style="stroke: green; stroke-width: 0.200000"/>
   <line x1="879.600891" y1="1156.633057" x2="879.600891" y2="1187.117188" style="stroke: green; stroke-width: 0.200000"/>
   <line x1="880.600891" y1="1156.633057" x2="880.600891" y2="1186.243652" style="stroke: green; stroke-width: 0.200000"/>
   <line x1="881.600891" y1="1156.633057" x2="881.600891" y2="1185.369995" style="stroke: green; stroke-width: 0.200000"/>
   <line x1="882.600952" y1="1156.633057" x2="882.600952" y2="1184.496338" style="stroke: green; stroke-width: 0.200000"/>
   <line x1="883.600952" y1="1156.633057" x2="883.600952" y2="1183.622803" style="stroke: green; stroke-width: 0.200000"/>
   <line x1="884.600891" y1="1156.633057" x2="884.600891" y2="1182.781494" style="stroke: green; stroke-width: 0.200000"/>
   <line x1="885.600891" y1="1156.633057" x2="885.600891" y2="1181.682007" style="stroke: green; stroke-width: 0.200000"/>
   <line x1="886.600891" y1="1156.633057" x2="886.600891" y2="1180.387329" style="stroke: green; stroke-width: 0.200000"/>
   <line x1="887.600952" y1="1156.633057" x2="887.600952" y2="1179.092529" style="stroke: green; stroke-width: 0.200000"/>
   <line x1="888.600952" y1="1156.633057" x2="888.600952" y2="1177.797852" style="stroke: green; stroke-width: 0.200000"/>
   <line x1="889.600891" y1="1156.633057" x2="889.600891" y2="1176.503052" style="stroke: green; stroke-width: 0.200000"/>
   <line x1="890.600891" y1="1156.633057" x2="890.600891" y2="1175.208252" style="stroke: green; stroke-width: 0.200000"/>
   <line x1="891.600891" y1="1156.633057" x2="891.600891" y2="1173.510986" style="stroke: green; stroke-width: 0.200000"/>
   <line x1="892.600952" y1="1156.633057" x2="892.600952" y2="1171.321777" style="stroke: green; stroke-width: 0.200000"/>
   <line x1="893.600952" y1="1156.633057" x2="893.600952" y2="1169.132446" style="stroke: green; stroke-width: 0.200000"/>
   <line x1="894.600891" y1="1156.633057" x2="894.600891" y2="1166.943115" style="stroke: green; stroke-width: 0.200000"/>
   <line x1="895.600891" y1="1156.633057" x2="895.600891" y2="1163.063232" style="stroke: green; stroke-width: 0.200000"/>
   <line x1="896.600891" y1="1156.633057" x2="896.600891" y2="1158.664062" style="stroke: green; stroke-width: 0.200000"/>
   <path d="M 796.729  1004.91  805.055  1006.11  814.005  1009.62  814.389  1009.79  822.442  1015.14  824.628  1017.3  828.945  1021.32  833.184  1027.41  834.089  1028.59  835.131  1030.15  840.074  1037.37  844.654  1043.47  846.537  1045.6  847.569  1046.45  863.939  1058.03  869.32  1062.09  871.049  1063.53  873.626  1065.86  877.838  1069.92  880.396  1072.61  884.761  1076.97  888.352  1083.62  889.511  1086.12  891.363  1090.29  893.172  1094.78  894.22  1097.65  896.359  1103.83  898.849  1111.87  900.68  1119.85  901.087  1121.87  902.105  1129.89  902.285  1132.39  901.786  1140.86  901.561  1142.08  900.807  1149.13  898.433  1157.59  898.318  1158.05  898.183  1158.47  896.264  1166.91  892.444  1175.28  886.252  1183.29  885.82  1183.72  884.915  1184.47  877.587  1190.87  871.703  1194.03  868.621  1195.29  860.639  1199.34  851.966  1202.71  850.42  1203.14  843.376  1204.89  837.855  1205.89  834.437  1206.47  828.724  1206.6  825.444  1206.71  824.107  1206.68  815.669  1205.23  813.231  1204.56  805.061  1201.92  803.679  1201.38  800.739  1199.98  794.703  1197.22  787.276  1192.66  783.867  1189.91  778.73  1186.3  775.206  1183.44  769.617  1178.03  768.062  1176.38  766.929  1175.22  761.346  1167.9  758.604  1163.59  756.455  1159.67  754.845  1153.28  753.677  1149.64  751.696  1142.05  751.449  1140.91  749.849  1131.12  749.122  1124.82  748.804  1121.32  748.514  1117.73  748.408  1112.17  748.845  1106.27  749.508  1101.62  751.742  1090.1  752.652  1086.04  754.255  1074.24  753.737  1068.33  753.531  1061.27  753.581  1056.88  754.484  1049.04  755.194  1045.88  759.304  1035.47  762.8  1029.43  764.386  1026.77  765.871  1024.96  770.633  1019.4  776.974  1013.4  777.553  1012.89  786.103  1007.12  794.553  1005.02  795.624  1004.82  796.729  1004.91  " style="fill: none; stroke: darkmagenta; stroke-width: 0.200000; fill-type: evenodd"  fill-opacity="1.000000" />
   <path d="M 796.617  1005.91  804.797  1007.08  813.624  1010.55  813.91  1010.67  821.808  1015.92  823.936  1018.03  828.185  1021.98  832.376  1028  833.276  1029.18  834.302  1030.71  839.261  1037.95  843.878  1044.11  845.839  1046.32  846.961  1047.25  863.349  1058.84  868.699  1062.87  870.393  1064.28  872.943  1066.59  877.129  1070.63  879.68  1073.3  883.95  1077.58  887.457  1084.07  888.6  1086.54  890.442  1090.68  892.238  1095.14  893.278  1097.98  895.409  1104.14  897.882  1112.13  899.702  1120.07  900.099  1122.03  901.109  1129.99  901.283  1132.4  900.791  1140.74  900.571  1141.93  899.822  1148.94  897.466  1157.33  897.355  1157.78  897.218  1158.21  895.312  1166.59  891.582  1174.76  885.501  1182.63  885.149  1182.98  884.268  1183.7  877.014  1190.04  871.276  1193.12  868.205  1194.37  860.231  1198.42  851.65  1201.76  850.165  1202.17  843.165  1203.91  837.682  1204.91  834.342  1205.47  828.696  1205.6  825.438  1205.71  824.202  1205.68  815.886  1204.25  813.517  1203.6  805.396  1200.97  804.075  1200.46  801.162  1199.08  795.174  1196.34  787.854  1191.84  784.47  1189.11  779.333  1185.5  775.871  1182.69  770.329  1177.32  768.783  1175.69  767.687  1174.57  762.167  1167.32  759.465  1163.08  757.394  1159.3  755.807  1153.01  754.638  1149.36  752.669  1141.82  752.432  1140.73  750.839  1130.98  750.117  1124.71  749.8  1121.23  749.513  1117.68  749.409  1112.2  749.84  1106.38  750.494  1101.79  752.721  1090.31  753.637  1086.22  755.261  1074.26  754.736  1068.27  754.531  1061.26  754.58  1056.94  755.471  1049.21  756.152  1046.18  760.206  1035.9  763.662  1029.94  765.206  1027.35  766.638  1025.6  771.359  1020.09  777.647  1014.14  778.164  1013.69  786.516  1008.04  794.764  1006  795.674  1005.83  796.617  1005.91  " style="fill: none; stroke: black; stroke-width: 0.200000; fill-type: evenodd"  fill-opacity="1.000000" />
   <path d="M 823.344  1348.4  824.255  1349.31  824.588  1350.56  824.255  1351.8  823.344  1352.71  822.099  1353.05  820.855  1352.71  819.944  1351.8  819.611  1350.56  819.944  1349.31  820.855  1348.4  822.099  1348.07  823.344  1348.4  " style="fill: none; stroke: purple; stroke-width: 0.500000; fill-type: evenodd"  fill-opacity="1.000000" />
   <path d="M 843.099  1348.83  843.831  1349.56  844.099  1350.56  843.831  1351.56  843.099  1352.29  842.099  1352.56  841.099  1352.29  840.367  1351.56  840.099  1350.56  840.367  1349.56  841.099  1348.83  842.099  1348.56  843.099  1348.83  " style="fill: none; stroke: purple; stroke-width: 0.500000; fill-type: evenodd"  fill-opacity="1.000000" />
   <path d="M 823.099  1328.83  823.831  1329.56  824.099  1330.56  823.831  1331.56  823.099  1332.29  822.099  1332.56  821.099  1332.29  820.367  1331.56  820.099  1330.56  820.367  1329.56  821.099  1328.83  822.099  1328.56  823.099  1328.83  " style="fill: none; stroke: purple; stroke-width: 0.500000; fill-type: evenodd"  fill-opacity="1.000000" />
   <path d="M 803.245  1308.58  804.083  1309.41  804.39  1310.56  804.083  1311.7  803.245  1312.54  802.099  1312.85  800.954  1312.54  800.116  1311.7  799.809  1310.56  800.116  1309.41  800.954  1308.58  802.099  1308.27  803.245  1308.58  " style="fill: none; stroke: purple; stroke-width: 0.500000; fill-type: evenodd"  fill-opacity="1.000000" />
   <path d="M 823.099  1308.83  823.831  1309.56  824.099  1310.56  823.831  1311.56  823.099  1312.29  822.099  1312.56  821.099  1312.29  820.367  1311.56  820.099  1310.56  820.367  1309.56  821.099  1308.83  822.099  1308.56  823.099  1308.83  " style="fill: none; stroke: purple; stroke-width: 0.500000; fill-type: evenodd"  fill-opacity="1.000000" />
   <path d="M 803.121  1288.79  803.868  1289.54  804.142  1290.56  803.868  1291.58  803.121  1292.33  802.099  1292.6  801.078  1292.33  800.331  1291.58  800.057  1290.56  800.331  1289.54  801.078  1288.79  802.099  1288.52  803.121  1288.79  " style="fill: none; stroke: purple; stroke-width: 0.500000; fill-type: evenodd"  fill-opacity="1.000000" />
   <path d="M 843.099  1288.83  843.831  1289.56  844.099  1290.56  843.831  1291.56  843.099  1292.29  842.099  1292.56  841.099  1292.29  840.367  1291.56  840.099  1290.56  840.367  1289.56  841.099  1288.83  842.099  1288.56  843.099  1288.83  " style="fill: none; stroke: purple; stroke-width: 0.500000; fill-type: evenodd"  fill-opacity="1.000000" />
   <path d="M 823.099  1288.83  823.831  1289.56  824.099  1290.56  823.831  1291.56  823.099  1292.29  822.099  1292.56  821.099  1292.29  820.367  1291.56  820.099  1290.56  820.367  1289.56  821.099  1288.83  822.099  1288.56  823.099  1288.83  " style="fill: none; stroke: purple; stroke-width: 0.500000; fill-type: evenodd"  fill-opacity="1.000000" />
   <path d="M 843.099  1268.83  843.831  1269.56  844.099  1270.56  843.831  1271.56  843.099  1272.29  842.099  1272.56  841.099  1272.29  840.367  1271.56  840.099  1270.56  840.367  1269.56  841.099  1268.83  842.099  1268.56  843.099  1268.83  " style="fill: none; stroke: purple; stroke-width: 0.500000; fill-type: evenodd"  fill-opacity="1.000000" />
   <path d="M 823.099  1268.83  823.831  1269.56  824.099  1270.56  823.831  1271.56  823.099  1272.29  822.099  1272.56  821.099  1272.29  820.367  1271.56  820.099  1270.56  820.367  1269.56  821.099  1268.83  822.099  1268.56  823.099  1268.83  " style="fill: none; stroke: purple; stroke-width: 0.500000; fill-type: evenodd"  fill-opacity="1.000000" />
   <path d="M 1005.02  1244.17  1006.7  1245.25  1008.01  1246.76  1008.84  1248.58  1009.12  1250.56  1008.84  1252.54  1008.01  1254.36  1006.7  1255.87  1005.02  1256.95  1003.1  1257.51  1001.1  1257.51  999.181  1256.95  997.499  1255.87  996.189  1254.36  995.358  1252.54  995.074  1250.56  995.358  1248.58  996.189  1246.76  997.499  1245.25  999.181  1244.17  1001.1  1243.6  1003.1  1243.6  1005.02  1244.17  " style="fill: none; stroke: purple; stroke-width: 0.500000; fill-type: evenodd"  fill-opacity="1.000000" />
   <path d="M 843.099  1248.83  843.831  1249.56  844.099  1250.56  843.831  1251.56  843.099  1252.29  842.099  1252.56  841.099  1252.29  840.367  1251.56  840.099  1250.56  840.367  1249.56  841.099  1248.83  842.099  1248.56  843.099  1248.83  " style="fill: none; stroke: purple; stroke-width: 0.500000; fill-type: evenodd"  fill-opacity="1.000000" />
   <path d="M 823.099  1248.83  823.831  1249.56  824.099  1250.56  823.831  1251.56  823.099  1252.29  822.099  1252.56  821.099  1252.29  820.367  1251.56  820.099  1250.56  820.367  1249.56  821.099  1248.83  822.099  1248.56  823.099  1248.83  " style="fill: none; stroke: purple; stroke-width: 0.500000; fill-type: evenodd"  fill-opacity="1.000000" />
   <path d="M 803.099  1248.83  803.831  1249.56  804.099  1250.56  803.831  1251.56  803.099  1252.29  802.099  1252.56  801.099  1252.29  800.367  1251.56  800.099  1250.56  800.367  1249.56  801.099  1248.83  802.099  1248.56  803.099  1248.83  " style="fill: none; stroke: purple; stroke-width: 0.500000; fill-type: evenodd"  fill-opacity="1.000000" />
   <path d="M 1003.69  1222.9  1005.7  1223.62  1007.44  1224.85  1008.78  1226.5  1009.63  1228.45  1009.92  1230.56  1009.63  1232.67  1008.78  1234.62  1007.44  1236.27  1005.7  1237.5  1003.69  1238.21  1001.57  1238.36  999.481  1237.93  997.591  1236.95  996.035  1235.49  994.928  1233.67  994.354  1231.62  994.354  1229.49  994.928  1227.44  996.035  1225.63  997.591  1224.17  999.481  1223.19  1001.57  1222.76  1003.69  1222.9  " style="fill: none; stroke: purple; stroke-width: 0.500000; fill-type: evenodd"  fill-opacity="1.000000" />
   <path d="M 983.672  1222.99  985.655  1223.7  987.374  1224.91  988.703  1226.54  989.541  1228.47  989.828  1230.56  989.541  1232.64  988.703  1234.57  987.374  1236.21  985.655  1237.42  983.672  1238.13  981.572  1238.27  979.511  1237.84  977.643  1236.87  976.104  1235.44  975.011  1233.64  974.443  1231.61  974.443  1229.51  975.011  1227.48  976.104  1225.68  977.643  1224.25  979.511  1223.28  981.572  1222.85  983.672  1222.99  " style="fill: none; stroke: purple; stroke-width: 0.500000; fill-type: evenodd"  fill-opacity="1.000000" />
   <path d="M 963.663  1223.03  965.636  1223.73  967.346  1224.94  968.667  1226.57  969.501  1228.49  969.786  1230.56  969.501  1232.63  968.667  1234.55  967.346  1236.18  965.636  1237.38  963.663  1238.09  961.575  1238.23  959.525  1237.8  957.667  1236.84  956.137  1235.41  955.049  1233.62  954.484  1231.61  954.484  1229.51  955.049  1227.5  956.137  1225.71  957.667  1224.28  959.525  1223.32  961.575  1222.89  963.663  1223.03  " style="fill: none; stroke: purple; stroke-width: 0.500000; fill-type: evenodd"  fill-opacity="1.000000" />
   <path d="M 843.226  1227.09  844.54  1227.85  845.431  1229.08  845.746  1230.56  845.431  1232.04  844.54  1233.27  843.226  1234.03  841.718  1234.19  840.276  1233.72  839.149  1232.7  838.532  1231.32  838.532  1229.8  839.149  1228.42  840.276  1227.4  840.988  1227.17  841.57  1227.07  842.108  1226.97  843.226  1227.09  " style="fill: none; stroke: purple; stroke-width: 0.500000; fill-type: evenodd"  fill-opacity="1.000000" />
   <path d="M 823.229  1228.6  824.057  1229.43  824.359  1230.56  824.057  1231.69  823.229  1232.52  822.099  1232.82  820.969  1232.52  820.142  1231.69  819.839  1230.56  820.142  1229.43  820.969  1228.6  822.099  1228.3  823.229  1228.6  " style="fill: none; stroke: purple; stroke-width: 0.500000; fill-type: evenodd"  fill-opacity="1.000000" />
   <path d="M 1004.82  1202.19  1006.82  1203.13  1008.52  1204.53  1009.81  1206.32  1010.62  1208.37  1010.9  1210.56  1010.62  1212.75  1009.81  1214.8  1008.52  1216.58  1006.82  1217.99  1004.82  1218.93  1002.65  1219.34  1000.45  1219.21  998.352  1218.52  996.489  1217.34  994.979  1215.73  993.916  1213.8  993.367  1211.66  993.367  1209.46  993.916  1207.32  994.979  1205.39  996.489  1203.78  998.352  1202.59  1000.45  1201.91  1002.65  1201.77  1004.82  1202.19  " style="fill: none; stroke: purple; stroke-width: 0.500000; fill-type: evenodd"  fill-opacity="1.000000" />
   <path d="M 924.735  1202.45  926.669  1203.36  928.317  1204.72  929.573  1206.45  930.36  1208.44  930.628  1210.56  930.36  1212.68  929.573  1214.67  928.317  1216.4  926.669  1217.76  924.735  1218.67  922.635  1219.07  920.501  1218.94  918.468  1218.28  916.663  1217.13  915.2  1215.57  914.17  1213.7  913.638  1211.63  913.638  1209.49  914.17  1207.42  915.2  1205.55  916.663  1203.99  918.468  1202.84  920.501  1202.18  922.635  1202.05  924.735  1202.45  " style="fill: none; stroke: purple; stroke-width: 0.500000; fill-type: evenodd"  fill-opacity="1.000000" />
   <path d="M 984.192  1202.75  986.141  1203.56  987.815  1204.84  989.1  1206.52  989.907  1208.47  990.183  1210.56  989.907  1212.65  989.1  1214.6  987.815  1216.27  986.141  1217.56  984.192  1218.37  982.099  1218.64  980.007  1218.37  978.058  1217.56  976.384  1216.27  975.099  1214.6  974.291  1212.65  974.016  1210.56  974.291  1208.47  975.099  1206.52  976.384  1204.84  978.058  1203.56  980.007  1202.75  982.099  1202.48  984.192  1202.75  " style="fill: none; stroke: purple; stroke-width: 0.500000; fill-type: evenodd"  fill-opacity="1.000000" />
   <path d="M 963.714  1202.79  965.75  1203.51  967.516  1204.76  968.88  1206.44  969.741  1208.42  970.035  1210.56  969.741  1212.7  968.88  1214.68  967.516  1216.36  965.75  1217.6  963.714  1218.33  961.558  1218.48  959.442  1218.04  957.523  1217.04  955.944  1215.57  954.821  1213.72  954.238  1211.64  954.238  1209.48  954.821  1207.4  955.944  1205.55  957.523  1204.08  959.442  1203.08  961.558  1202.64  963.714  1202.79  " style="fill: none; stroke: purple; stroke-width: 0.500000; fill-type: evenodd"  fill-opacity="1.000000" />
   <path d="M 943.682  1202.94  945.678  1203.65  947.408  1204.88  948.745  1206.52  949.589  1208.46  949.877  1210.56  949.589  1212.66  948.745  1214.6  947.408  1216.24  945.678  1217.46  943.682  1218.17  941.569  1218.32  939.495  1217.89  937.614  1216.91  936.066  1215.47  934.966  1213.66  934.394  1211.62  934.394  1209.5  934.966  1207.46  936.066  1205.65  937.614  1204.21  939.495  1203.23  941.569  1202.8  943.682  1202.94  " style="fill: none; stroke: purple; stroke-width: 0.500000; fill-type: evenodd"  fill-opacity="1.000000" />
   <path d="M 911.161  1188.33  911.433  1190.56  911.161  1192.79  910.364  1194.9  909.085  1196.75  907.401  1198.24  905.409  1199.29  903.224  1199.82  900.974  1199.82  900.284  1199.65  902.392  1197.57  910.625  1186.91  911.161  1188.33  " style="fill: none; stroke: purple; stroke-width: 0.500000; fill-type: evenodd"  fill-opacity="1.000000" />
   <path d="M 924.851  1182.09  926.871  1183.04  928.592  1184.46  929.904  1186.27  930.726  1188.34  931.005  1190.56  930.726  1192.77  929.904  1194.85  928.592  1196.66  926.871  1198.08  924.851  1199.03  922.659  1199.45  920.431  1199.31  918.307  1198.62  916.422  1197.42  914.894  1195.79  913.819  1193.84  913.264  1191.68  913.264  1189.44  913.819  1187.28  914.894  1185.32  916.422  1183.7  918.307  1182.5  920.431  1181.81  922.659  1181.67  924.851  1182.09  " style="fill: none; stroke: purple; stroke-width: 0.500000; fill-type: evenodd"  fill-opacity="1.000000" />
   <path d="M 964.77  1182.34  966.73  1183.26  968.399  1184.64  969.672  1186.4  970.469  1188.41  970.741  1190.56  970.469  1192.71  969.672  1194.72  968.399  1196.47  966.73  1197.86  964.77  1198.78  962.642  1199.18  960.48  1199.05  958.42  1198.38  956.591  1197.22  955.108  1195.64  954.065  1193.74  953.526  1191.64  953.526  1189.48  954.065  1187.38  955.108  1185.48  956.591  1183.9  958.42  1182.74  960.48  1182.07  962.642  1181.93  964.77  1182.34  " style="fill: none; stroke: purple; stroke-width: 0.500000; fill-type: evenodd"  fill-opacity="1.000000" />
   <path d="M 944.276  1182.43  946.305  1183.27  948.047  1184.61  949.384  1186.35  950.224  1188.38  950.511  1190.56  950.224  1192.74  949.384  1194.76  948.047  1196.51  946.305  1197.84  944.276  1198.68  942.099  1198.97  939.922  1198.68  937.894  1197.84  936.152  1196.51  934.815  1194.76  933.975  1192.74  933.688  1190.56  933.975  1188.38  934.815  1186.35  936.152  1184.61  937.894  1183.27  939.922  1182.43  942.099  1182.15  944.276  1182.43  " style="fill: none; stroke: purple; stroke-width: 0.500000; fill-type: evenodd"  fill-opacity="1.000000" />
   <path d="M 943.809  1160.86  945.999  1161.52  947.979  1162.66  949.642  1164.23  950.898  1166.14  951.68  1168.29  951.945  1170.56  951.68  1172.83  950.898  1174.98  949.642  1176.89  947.979  1178.46  945.999  1179.6  943.809  1180.26  941.527  1180.39  939.275  1179.99  937.176  1179.09  935.343  1177.72  933.873  1175.97  932.847  1173.93  932.32  1171.7  932.32  1169.42  932.847  1167.19  933.873  1165.15  935.343  1163.4  937.176  1162.03  939.275  1161.13  941.527  1160.73  943.809  1160.86  " style="fill: none; stroke: purple; stroke-width: 0.500000; fill-type: evenodd"  fill-opacity="1.000000" />
   <path d="M 923.784  1161  925.943  1161.65  927.894  1162.78  929.533  1164.32  930.771  1166.2  931.542  1168.32  931.803  1170.56  931.542  1172.8  930.771  1174.91  929.533  1176.8  927.894  1178.34  925.943  1179.47  923.784  1180.12  921.535  1180.25  919.316  1179.86  917.248  1178.96  915.44  1177.62  915.214  1177.35  915.341  1176.9  916.74  1173.83  918.937  1164.16  919.013  1163.93  919.225  1163.07  919.754  1161.19  921.535  1160.87  923.784  1161  " style="fill: none; stroke: purple; stroke-width: 0.500000; fill-type: evenodd"  fill-opacity="1.000000" />
</svg>
