<?xml version="1.0" encoding="UTF-8" standalone="yes"?>
<!DOCTYPE svg PUBLIC "-//W3C//DTD SVG 1.0//EN" "http://www.w3.org/TR/2001/REC-SVG-20010904/DTD/svg10.dtd">
<svg height="2000" width="2000" xmlns="http://www.w3.org/2000/svg" xmlns:svg="http://www.w3.org/2000/svg" xmlns:xlink="http://www.w3.org/1999/xlink">
   <marker id="endArrow" markerHeight="8" markerUnits="strokeWidth" markerWidth="10" orient="auto" refX="1" refY="5" viewBox="0 0 1000 1000">
      <polyline fill="darkblue" points="0,0 10,5 0,10 1,5" />
   </marker>
   <circle cx="1000" cy="1000" r="1" style="stroke:black; fill: red" />
   <circle cx="1000" cy="1000" r="800" style="stroke:black; fill: none" />
   <line x1="1075.636230" y1="1065.263672" x2="1075.636230" y2="1065.650757" style="stroke: green; stroke-width: 0.200000"/>
   <line x1="1076.636230" y1="1064.263672" x2="1076.636230" y2="1065.650757" style="stroke: green; stroke-width: 0.200000"/>
   <line x1="1077.636230" y1="1063.263672" x2="1077.636230" y2="1065.650757" style="stroke: green; stroke-width: 0.200000"/>
   <line x1="1078.636353" y1="1062.263672" x2="1078.636353" y2="1065.650757" style="stroke: green; stroke-width: 0.200000"/>
   <line x1="1079.636353" y1="1061.263672" x2="1079.636353" y2="1065.650757" style="stroke: green; stroke-width: 0.200000"/>
   <line x1="1080.636230" y1="1060.263794" x2="1080.636230" y2="1065.650757" style="stroke: green; stroke-width: 0.200000"/>
   <line x1="1081.636230" y1="1059.263794" x2="1081.636230" y2="1065.650757" style="stroke: green; stroke-width: 0.200000"/>
   <line x1="1082.636230" y1="1058.263794" x2="1082.636230" y2="1065.650757" style="stroke: green; stroke-width: 0.200000"/>
   <line x1="1083.636353" y1="1057.263794" x2="1083.636353" y2="1065.650757" style="stroke: green; stroke-width: 0.200000"/>
   <line x1="1084.636353" y1="1056.263794" x2="1084.636353" y2="1065.650757" style="stroke: green; stroke-width: 0.200000"/>
   <line x1="1085.636230" y1="1055.263794" x2="1085.636230" y2="1064.911499" style="stroke: green; stroke-width: 0.200000"/>
   <line x1="1086.636230" y1="1054.263794" x2="1086.636230" y2="1064.069946" style="stroke: green; stroke-width: 0.200000"/>
   <line x1="1087.636230" y1="1053.263794" x2="1087.636230" y2="1063.311646" style="stroke: green; stroke-width: 0.200000"/>
   <line x1="1088.636353" y1="1052.263794" x2="1088.636353" y2="1062.569946" style="stroke: green; stroke-width: 0.200000"/>
   <line x1="1089.636353" y1="1051.263794" x2="1089.636353" y2="1061.828247" style="stroke: green; stroke-width: 0.200000"/>
   <line x1="1090.636230" y1="1050.263794" x2="1090.636230" y2="1061.086548" style="stroke: green; stroke-width: 0.200000"/>
   <line x1="1091.636230" y1="1049.263794" x2="1091.636230" y2="1060.412354" style="stroke: green; stroke-width: 0.200000"/>
   <line x1="1092.636230" y1="1048.263794" x2="1092.636230" y2="1059.771362" style="stroke: green; stroke-width: 0.200000"/>
   <line x1="1093.636353" y1="1047.263794" x2="1093.636353" y2="1059.130371" style="stroke: green; stroke-width: 0.200000"/>
   <line x1="1094.636353" y1="1046.263794" x2="1094.636353" y2="1058.489502" style="stroke: green; stroke-width: 0.200000"/>
   <line x1="1095.636230" y1="1045.263794" x2="1095.636230" y2="1057.875488" style="stroke: green; stroke-width: 0.200000"/>
   <line x1="1096.636230" y1="1044.263794" x2="1096.636230" y2="1057.290161" style="stroke: green; stroke-width: 0.200000"/>
   <line x1="1097.636230" y1="1043.263794" x2="1097.636230" y2="1056.724487" style="stroke: green; stroke-width: 0.200000"/>
   <line x1="1098.636353" y1="1042.263794" x2="1098.636353" y2="1056.158813" style="stroke: green; stroke-width: 0.200000"/>
   <line x1="1099.636353" y1="1041.263794" x2="1099.636353" y2="1055.599487" style="stroke: green; stroke-width: 0.200000"/>
   <line x1="1100.636230" y1="1040.263794" x2="1100.636230" y2="1055.054565" style="stroke: green; stroke-width: 0.200000"/>
   <line x1="1101.636230" y1="1039.263794" x2="1101.636230" y2="1054.520386" style="stroke: green; stroke-width: 0.200000"/>
   <line x1="1102.636230" y1="1038.263794" x2="1102.636230" y2="1054.007202" style="stroke: green; stroke-width: 0.200000"/>
   <line x1="1103.636353" y1="1037.263794" x2="1103.636353" y2="1053.493896" style="stroke: green; stroke-width: 0.200000"/>
   <line x1="1104.636353" y1="1036.263672" x2="1104.636353" y2="1052.994873" style="stroke: green; stroke-width: 0.200000"/>
   <line x1="1105.636230" y1="1035.263794" x2="1105.636230" y2="1052.500000" style="stroke: green; stroke-width: 0.200000"/>
   <line x1="1106.636230" y1="1034.263794" x2="1106.636230" y2="1052.005127" style="stroke: green; stroke-width: 0.200000"/>
   <line x1="1107.636230" y1="1033.263794" x2="1107.636230" y2="1051.510254" style="stroke: green; stroke-width: 0.200000"/>
   <line x1="1108.636353" y1="1032.263794" x2="1108.636353" y2="1051.032593" style="stroke: green; stroke-width: 0.200000"/>
   <line x1="1109.636353" y1="1031.263672" x2="1109.636353" y2="1050.578979" style="stroke: green; stroke-width: 0.200000"/>
   <line x1="1110.636230" y1="1030.263794" x2="1110.636230" y2="1050.070679" style="stroke: green; stroke-width: 0.200000"/>
   <line x1="1111.636230" y1="1029.263794" x2="1111.636230" y2="1049.532593" style="stroke: green; stroke-width: 0.200000"/>
   <line x1="1112.636230" y1="1028.263794" x2="1112.636230" y2="1048.951294" style="stroke: green; stroke-width: 0.200000"/>
   <line x1="1113.636353" y1="1027.263794" x2="1113.636353" y2="1048.305176" style="stroke: green; stroke-width: 0.200000"/>
   <line x1="1114.636353" y1="1026.263672" x2="1114.636353" y2="1047.658936" style="stroke: green; stroke-width: 0.200000"/>
   <line x1="1115.636230" y1="1025.263794" x2="1115.636230" y2="1046.887695" style="stroke: green; stroke-width: 0.200000"/>
   <line x1="1116.636230" y1="1024.263794" x2="1116.636230" y2="1046.104980" style="stroke: green; stroke-width: 0.200000"/>
   <line x1="1117.636230" y1="1023.263794" x2="1117.636230" y2="1045.154541" style="stroke: green; stroke-width: 0.200000"/>
   <line x1="1118.636353" y1="1022.263794" x2="1118.636353" y2="1044.135620" style="stroke: green; stroke-width: 0.200000"/>
   <line x1="1119.636353" y1="1021.263733" x2="1119.636353" y2="1043.116821" style="stroke: green; stroke-width: 0.200000"/>
   <line x1="1120.636230" y1="1020.263733" x2="1120.636230" y2="1042.097900" style="stroke: green; stroke-width: 0.200000"/>
   <line x1="1121.636230" y1="1019.263794" x2="1121.636230" y2="1041.039062" style="stroke: green; stroke-width: 0.200000"/>
   <line x1="1122.636230" y1="1015.941895" x2="1122.636230" y2="1039.895264" style="stroke: green; stroke-width: 0.200000"/>
   <line x1="1123.636353" y1="1017.538940" x2="1123.636353" y2="1038.579224" style="stroke: green; stroke-width: 0.200000"/>
   <line x1="1124.636353" y1="1019.362732" x2="1124.636353" y2="1036.967041" style="stroke: green; stroke-width: 0.200000"/>
   <line x1="1125.636230" y1="1021.570679" x2="1125.636230" y2="1034.860718" style="stroke: green; stroke-width: 0.200000"/>
   <line x1="1126.636230" y1="1025.598511" x2="1126.636230" y2="1031.014404" style="stroke: green; stroke-width: 0.200000"/>
   <line x1="1121.636230" y1="1016.468018" x2="1121.636230" y2="1018.818909" style="stroke: green; stroke-width: 0.200000"/>
   <line x1="1043.636353" y1="1097.263672" x2="1043.636353" y2="1111.981934" style="stroke: green; stroke-width: 0.200000"/>
   <line x1="1042.636230" y1="1098.263672" x2="1042.636230" y2="1111.975342" style="stroke: green; stroke-width: 0.200000"/>
   <line x1="1041.636230" y1="1099.263672" x2="1041.636230" y2="1111.961548" style="stroke: green; stroke-width: 0.200000"/>
   <line x1="1044.636353" y1="1096.263672" x2="1044.636353" y2="1111.891602" style="stroke: green; stroke-width: 0.200000"/>
   <line x1="1040.636230" y1="1100.263672" x2="1040.636230" y2="1111.864136" style="stroke: green; stroke-width: 0.200000"/>
   <line x1="1039.636353" y1="1101.263672" x2="1039.636353" y2="1111.759521" style="stroke: green; stroke-width: 0.200000"/>
   <line x1="1045.636230" y1="1095.263672" x2="1045.636230" y2="1111.696411" style="stroke: green; stroke-width: 0.200000"/>
   <line x1="1038.636353" y1="1102.263672" x2="1038.636353" y2="1111.504883" style="stroke: green; stroke-width: 0.200000"/>
   <line x1="1046.636230" y1="1094.263672" x2="1046.636230" y2="1111.425171" style="stroke: green; stroke-width: 0.200000"/>
   <line x1="1037.636230" y1="1103.263672" x2="1037.636230" y2="1111.172119" style="stroke: green; stroke-width: 0.200000"/>
   <line x1="1047.636230" y1="1093.263672" x2="1047.636230" y2="1111.072510" style="stroke: green; stroke-width: 0.200000"/>
   <line x1="1036.636230" y1="1104.263672" x2="1036.636230" y2="1110.787476" style="stroke: green; stroke-width: 0.200000"/>
   <line x1="1048.636353" y1="1092.263672" x2="1048.636353" y2="1110.630005" style="stroke: green; stroke-width: 0.200000"/>
   <line x1="1035.636230" y1="1105.263672" x2="1035.636230" y2="1110.389893" style="stroke: green; stroke-width: 0.200000"/>
   <line x1="1049.636353" y1="1091.263672" x2="1049.636353" y2="1110.086792" style="stroke: green; stroke-width: 0.200000"/>
   <line x1="1034.636353" y1="1106.263794" x2="1034.636353" y2="1109.992310" style="stroke: green; stroke-width: 0.200000"/>
   <line x1="1033.636353" y1="1107.262817" x2="1033.636353" y2="1109.594727" style="stroke: green; stroke-width: 0.200000"/>
   <line x1="1050.636230" y1="1090.263672" x2="1050.636230" y2="1109.425293" style="stroke: green; stroke-width: 0.200000"/>
   <line x1="1032.636230" y1="1106.735352" x2="1032.636230" y2="1109.197144" style="stroke: green; stroke-width: 0.200000"/>
   <line x1="1031.636230" y1="1106.468018" x2="1031.636230" y2="1108.799561" style="stroke: green; stroke-width: 0.200000"/>
   <line x1="1051.636230" y1="1089.263672" x2="1051.636230" y2="1108.611816" style="stroke: green; stroke-width: 0.200000"/>
   <line x1="1030.636230" y1="1107.468018" x2="1030.636230" y2="1108.401978" style="stroke: green; stroke-width: 0.200000"/>
   <line x1="1052.636230" y1="1088.263672" x2="1052.636230" y2="1107.567017" style="stroke: green; stroke-width: 0.200000"/>
   <line x1="1053.636353" y1="1087.263672" x2="1053.636353" y2="1106.335449" style="stroke: green; stroke-width: 0.200000"/>
   <line x1="1054.636353" y1="1086.263672" x2="1054.636353" y2="1104.998535" style="stroke: green; stroke-width: 0.200000"/>
   <line x1="1055.636230" y1="1085.263672" x2="1055.636230" y2="1103.634155" style="stroke: green; stroke-width: 0.200000"/>
   <line x1="1056.636230" y1="1084.263672" x2="1056.636230" y2="1102.153198" style="stroke: green; stroke-width: 0.200000"/>
   <line x1="1057.636230" y1="1083.263672" x2="1057.636230" y2="1100.538330" style="stroke: green; stroke-width: 0.200000"/>
   <line x1="1058.636353" y1="1082.263672" x2="1058.636353" y2="1098.790649" style="stroke: green; stroke-width: 0.200000"/>
   <line x1="1059.636353" y1="1081.263672" x2="1059.636353" y2="1097.042969" style="stroke: green; stroke-width: 0.200000"/>
   <line x1="1060.636230" y1="1080.263672" x2="1060.636230" y2="1095.229614" style="stroke: green; stroke-width: 0.200000"/>
   <line x1="1061.636230" y1="1079.263672" x2="1061.636230" y2="1093.302124" style="stroke: green; stroke-width: 0.200000"/>
   <line x1="1062.636230" y1="1078.263794" x2="1062.636230" y2="1091.621582" style="stroke: green; stroke-width: 0.200000"/>
   <line x1="1063.636353" y1="1077.263794" x2="1063.636353" y2="1089.982178" style="stroke: green; stroke-width: 0.200000"/>
   <line x1="1064.636353" y1="1076.263794" x2="1064.636353" y2="1088.416138" style="stroke: green; stroke-width: 0.200000"/>
   <line x1="1065.636230" y1="1075.263794" x2="1065.636230" y2="1086.950928" style="stroke: green; stroke-width: 0.200000"/>
   <line x1="1066.636230" y1="1074.263794" x2="1066.636230" y2="1085.485718" style="stroke: green; stroke-width: 0.200000"/>
   <line x1="1067.636230" y1="1073.263672" x2="1067.636230" y2="1084.159668" style="stroke: green; stroke-width: 0.200000"/>
   <line x1="1068.636353" y1="1072.263672" x2="1068.636353" y2="1082.903076" style="stroke: green; stroke-width: 0.200000"/>
   <line x1="1069.636353" y1="1071.263672" x2="1069.636353" y2="1081.646606" style="stroke: green; stroke-width: 0.200000"/>
   <line x1="1070.636230" y1="1070.263672" x2="1070.636230" y2="1080.390137" style="stroke: green; stroke-width: 0.200000"/>
   <line x1="1071.636230" y1="1069.263672" x2="1071.636230" y2="1079.133545" style="stroke: green; stroke-width: 0.200000"/>
   <line x1="1072.636230" y1="1068.263672" x2="1072.636230" y2="1077.877075" style="stroke: green; stroke-width: 0.200000"/>
   <line x1="1073.636353" y1="1067.263672" x2="1073.636353" y2="1076.740967" style="stroke: green; stroke-width: 0.200000"/>
   <line x1="1074.636353" y1="1066.263672" x2="1074.636353" y2="1075.667236" style="stroke: green; stroke-width: 0.200000"/>
   <line x1="1075.636230" y1="1065.750732" x2="1075.636230" y2="1074.593628" style="stroke: green; stroke-width: 0.200000"/>
   <line x1="1076.636230" y1="1065.750732" x2="1076.636230" y2="1073.519897" style="stroke: green; stroke-width: 0.200000"/>
   <line x1="1077.636230" y1="1065.750732" x2="1077.636230" y2="1072.446167" style="stroke: green; stroke-width: 0.200000"/>
   <line x1="1078.636353" y1="1065.750732" x2="1078.636353" y2="1071.372559" style="stroke: green; stroke-width: 0.200000"/>
   <line x1="1079.636353" y1="1065.750732" x2="1079.636353" y2="1070.311890" style="stroke: green; stroke-width: 0.200000"/>
   <line x1="1080.636230" y1="1065.750732" x2="1080.636230" y2="1069.367798" style="stroke: green; stroke-width: 0.200000"/>
   <line x1="1081.636230" y1="1065.750732" x2="1081.636230" y2="1068.423706" style="stroke: green; stroke-width: 0.200000"/>
   <line x1="1082.636230" y1="1065.750732" x2="1082.636230" y2="1067.479614" style="stroke: green; stroke-width: 0.200000"/>
   <line x1="1083.636353" y1="1065.750732" x2="1083.636353" y2="1066.594482" style="stroke: green; stroke-width: 0.200000"/>
   <line x1="1084.636353" y1="1065.750732" x2="1084.636353" y2="1065.753052" style="stroke: green; stroke-width: 0.200000"/>
   <line x1="892.869873" y1="1022.480103" x2="892.869873" y2="1029.718628" style="stroke: green; stroke-width: 0.200000"/>
   <line x1="893.869873" y1="1020.580688" x2="893.869873" y2="1028.764160" style="stroke: green; stroke-width: 0.200000"/>
   <line x1="894.869934" y1="1018.947021" x2="894.869934" y2="1027.764160" style="stroke: green; stroke-width: 0.200000"/>
   <line x1="891.869873" y1="1025.482666" x2="891.869873" y2="1027.661499" style="stroke: green; stroke-width: 0.200000"/>
   <line x1="895.869873" y1="1017.526550" x2="895.869873" y2="1026.764160" style="stroke: green; stroke-width: 0.200000"/>
   <line x1="896.869873" y1="1016.211609" x2="896.869873" y2="1025.764282" style="stroke: green; stroke-width: 0.200000"/>
   <line x1="897.869873" y1="1014.955505" x2="897.869873" y2="1024.764160" style="stroke: green; stroke-width: 0.200000"/>
   <line x1="898.869873" y1="1013.750916" x2="898.869873" y2="1023.764160" style="stroke: green; stroke-width: 0.200000"/>
   <line x1="899.869934" y1="1012.558899" x2="899.869934" y2="1022.764221" style="stroke: green; stroke-width: 0.200000"/>
   <line x1="900.869873" y1="1011.423828" x2="900.869873" y2="1021.764221" style="stroke: green; stroke-width: 0.200000"/>
   <line x1="901.869873" y1="1010.318909" x2="901.869873" y2="1020.764221" style="stroke: green; stroke-width: 0.200000"/>
   <line x1="902.869873" y1="1009.256470" x2="902.869873" y2="1019.764160" style="stroke: green; stroke-width: 0.200000"/>
   <line x1="903.869873" y1="1008.147034" x2="903.869873" y2="1018.764160" style="stroke: green; stroke-width: 0.200000"/>
   <line x1="904.869934" y1="1007.138367" x2="904.869934" y2="1017.764221" style="stroke: green; stroke-width: 0.200000"/>
   <line x1="905.869873" y1="1006.161987" x2="905.869873" y2="1016.764221" style="stroke: green; stroke-width: 0.200000"/>
   <line x1="906.869873" y1="1005.175049" x2="906.869873" y2="1015.764221" style="stroke: green; stroke-width: 0.200000"/>
   <line x1="907.869873" y1="1004.272095" x2="907.869873" y2="1014.764282" style="stroke: green; stroke-width: 0.200000"/>
   <line x1="908.869873" y1="1003.450806" x2="908.869873" y2="1013.764160" style="stroke: green; stroke-width: 0.200000"/>
   <line x1="909.869934" y1="1002.817078" x2="909.869934" y2="1012.764221" style="stroke: green; stroke-width: 0.200000"/>
   <line x1="910.869873" y1="1002.330872" x2="910.869873" y2="1011.764221" style="stroke: green; stroke-width: 0.200000"/>
   <line x1="911.869873" y1="1001.892395" x2="911.869873" y2="1010.764221" style="stroke: green; stroke-width: 0.200000"/>
   <line x1="912.869873" y1="1001.594116" x2="912.869873" y2="1009.764282" style="stroke: green; stroke-width: 0.200000"/>
   <line x1="913.869873" y1="1001.382141" x2="913.869873" y2="1008.764160" style="stroke: green; stroke-width: 0.200000"/>
   <line x1="914.869934" y1="1001.210266" x2="914.869934" y2="1007.764221" style="stroke: green; stroke-width: 0.200000"/>
   <line x1="915.869873" y1="1001.240723" x2="915.869873" y2="1006.764221" style="stroke: green; stroke-width: 0.200000"/>
   <line x1="916.869873" y1="1001.308594" x2="916.869873" y2="1005.764221" style="stroke: green; stroke-width: 0.200000"/>
   <line x1="917.869873" y1="1001.419983" x2="917.869873" y2="1004.764282" style="stroke: green; stroke-width: 0.200000"/>
   <line x1="918.869873" y1="1001.667114" x2="918.869873" y2="1003.764282" style="stroke: green; stroke-width: 0.200000"/>
   <line x1="919.869934" y1="1002.079163" x2="919.869934" y2="1002.764221" style="stroke: green; stroke-width: 0.200000"/>
   <line x1="996.372192" y1="920.993286" x2="996.372192" y2="926.261902" style="stroke: green; stroke-width: 0.200000"/>
   <line x1="995.372192" y1="923.043884" x2="995.372192" y2="926.146179" style="stroke: green; stroke-width: 0.200000"/>
   <line x1="997.372192" y1="919.464233" x2="997.372192" y2="925.261902" style="stroke: green; stroke-width: 0.200000"/>
   <line x1="998.372192" y1="918.176208" x2="998.372192" y2="924.261963" style="stroke: green; stroke-width: 0.200000"/>
   <line x1="999.372192" y1="917.098267" x2="999.372192" y2="923.261841" style="stroke: green; stroke-width: 0.200000"/>
   <line x1="1000.372192" y1="916.036438" x2="1000.372192" y2="922.261902" style="stroke: green; stroke-width: 0.200000"/>
   <line x1="1001.372192" y1="915.224487" x2="1001.372192" y2="921.261902" style="stroke: green; stroke-width: 0.200000"/>
   <line x1="1002.372192" y1="914.412354" x2="1002.372192" y2="920.261902" style="stroke: green; stroke-width: 0.200000"/>
   <line x1="1003.372192" y1="913.600403" x2="1003.372192" y2="919.261963" style="stroke: green; stroke-width: 0.200000"/>
   <line x1="1004.372192" y1="912.788330" x2="1004.372192" y2="918.261963" style="stroke: green; stroke-width: 0.200000"/>
   <line x1="1005.372192" y1="911.976318" x2="1005.372192" y2="917.261902" style="stroke: green; stroke-width: 0.200000"/>
   <line x1="1006.372192" y1="911.221252" x2="1006.372192" y2="916.261902" style="stroke: green; stroke-width: 0.200000"/>
   <line x1="1007.372192" y1="910.630737" x2="1007.372192" y2="915.261902" style="stroke: green; stroke-width: 0.200000"/>
   <line x1="1008.372192" y1="910.040283" x2="1008.372192" y2="914.261963" style="stroke: green; stroke-width: 0.200000"/>
   <line x1="1009.372192" y1="909.570618" x2="1009.372192" y2="913.261963" style="stroke: green; stroke-width: 0.200000"/>
   <line x1="1010.372192" y1="909.286743" x2="1010.372192" y2="912.261902" style="stroke: green; stroke-width: 0.200000"/>
   <line x1="1011.372192" y1="909.002808" x2="1011.372192" y2="911.261902" style="stroke: green; stroke-width: 0.200000"/>
   <line x1="1012.372192" y1="908.909912" x2="1012.372192" y2="910.261902" style="stroke: green; stroke-width: 0.200000"/>
   <line x1="1013.372192" y1="908.853455" x2="1013.372192" y2="909.261963" style="stroke: green; stroke-width: 0.200000"/>
   <path d="M 1124.63  1016.29  1125.35  1017.45  1126.82  1020.35  1127.82  1023.45  1128.32  1026.64  1128.34  1029.89  1127.83  1033.02  1126.84  1036  1125.4  1038.73  1123.56  1041.16  1123.28  1041.49  1122.98  1041.79  1122.27  1042.57  1117.93  1047  1115.59  1048.83  1113.11  1050.43  1112.63  1050.69  1112.19  1050.95  1110.51  1051.83  1108.86  1052.58  1104.54  1054.72  1102  1056.02  1100.06  1057.07  1096.94  1058.84  1095.74  1059.56  1092.19  1061.84  1091.61  1062.23  1087.73  1065.11  1084.06  1068.2  1080.6  1071.46  1074.11  1078.43  1068.18  1085.89  1065.48  1089.84  1063.95  1092.35  1062.97  1093.98  1061.97  1095.91  1061.24  1097.26  1058.41  1102.21  1056.81  1104.58  1054.99  1107.05  1053.71  1108.63  1052.72  1109.66  1051.84  1110.41  1050.9  1111.08  1049.89  1111.68  1048.83  1112.21  1047.72  1112.66  1046.57  1113.02  1045.38  1113.29  1044.17  1113.48  1043.96  1113.49  1041.64  1113.47  1039.53  1113.26  1039.22  1113.21  1038  1112.89  1036.84  1112.48  1031.99  1110.54  1027.29  1108.69  1031.61  1104.37  1033.36  1105.42  1119.89  1018.89  1118.79  1017.19  1122.72  1013.26  1124.63  1016.29  " style="fill: none; stroke: darkmagenta; stroke-width: 0.200000; fill-type: evenodd"  fill-opacity="1.000000" />
   <path d="M 1123.78  1016.82  1124.48  1017.94  1125.89  1020.73  1126.84  1023.68  1127.32  1026.72  1127.34  1029.81  1126.85  1032.78  1125.91  1035.61  1124.56  1038.2  1122.78  1040.54  1122.54  1040.81  1122.26  1041.1  1121.54  1041.89  1117.26  1046.25  1115.01  1048.01  1112.6  1049.57  1112.14  1049.82  1111.7  1050.08  1110.07  1050.93  1108.43  1051.67  1104.09  1053.82  1101.53  1055.14  1099.58  1056.2  1096.43  1057.98  1095.21  1058.72  1091.64  1061  1091.03  1061.41  1087.11  1064.32  1083.39  1067.45  1079.89  1070.76  1073.36  1077.77  1067.37  1085.29  1064.64  1089.3  1063.09  1091.83  1062.1  1093.49  1061.09  1095.44  1060.37  1096.77  1057.56  1101.68  1055.99  1104.01  1054.2  1106.44  1052.96  1107.96  1052.03  1108.93  1051.22  1109.62  1050.35  1110.24  1049.41  1110.8  1048.42  1111.3  1047.38  1111.71  1046.3  1112.05  1045.19  1112.31  1044.06  1112.48  1043.93  1112.49  1041.69  1112.47  1039.66  1112.27  1039.43  1112.23  1038.3  1111.93  1037.19  1111.55  1032.36  1109.61  1029.08  1108.32  1031.77  1105.63  1033.51  1106.68  1121.17  1019.02  1120.07  1017.33  1122.54  1014.85  1123.78  1016.82  " style="fill: none; stroke: black; stroke-width: 0.200000; fill-type: evenodd"  fill-opacity="1.000000" />
   <path d="M 915.771  999.731  917.078  999.819  918.258  999.955  919.45  1000.27  920.114  1000.57  920.821  1000.83  921.044  1000.96  921.529  1001.29  922.085  1001.72  922.665  1002.09  892.868  1031.89  891.893  1030.88  891.081  1029.94  890.857  1029.41  890.446  1028.32  890.267  1027.01  890.328  1025.57  890.615  1024.03  890.804  1023.4  891.405  1022.04  892.574  1019.82  892.97  1019.13  894.083  1017.4  896.162  1014.66  898.548  1011.79  900.344  1009.75  902.003  1007.99  902.424  1007.49  903.342  1006.53  904.272  1005.63  905.77  1004.15  906.649  1003.34  907.913  1002.28  908.54  1001.87  909.414  1001.33  911.79  1000.29  914.047  999.811  914.709  999.706  915.771  999.731  " style="fill: none; stroke: darkmagenta; stroke-width: 0.200000; fill-type: evenodd"  fill-opacity="1.000000" />
   <path d="M 915.726  1000.73  916.987  1000.82  918.073  1000.94  919.113  1001.21  919.734  1001.5  920.395  1001.74  920.511  1001.81  921.119  1002.22  892.864  1030.48  891.942  1029.41  891.786  1029.04  891.421  1028.07  891.27  1026.96  891.324  1025.68  891.588  1024.26  891.743  1023.75  892.306  1022.48  893.451  1020.3  893.825  1019.65  894.902  1017.97  896.945  1015.29  899.308  1012.44  901.083  1010.43  902.749  1008.66  903.169  1008.16  904.051  1007.23  904.97  1006.35  906.462  1004.87  907.309  1004.09  908.51  1003.09  909.078  1002.71  909.879  1002.22  912.097  1001.25  914.229  1000.8  914.776  1000.71  915.726  1000.73  " style="fill: none; stroke: black; stroke-width: 0.200000; fill-type: evenodd"  fill-opacity="1.000000" />
   <path d="M 1013.98  907.355  1016.35  908.409  995.313  929.442  994.186  927.159  993.989  926.739  993.88  926.413  993.791  925.907  993.699  924.933  993.799  923.182  993.855  922.838  994.403  921.276  994.53  921.057  996.653  917.824  999.284  914.989  1005.26  910.138  1007.67  908.711  1008.79  908.176  1011.18  907.498  1012.03  907.427  1013.81  907.327  1013.98  907.355  " style="fill: none; stroke: darkmagenta; stroke-width: 0.200000; fill-type: evenodd"  fill-opacity="1.000000" />
   <path d="M 1014.61  908.731  995.592  927.749  995.087  926.726  994.919  926.367  994.852  926.167  994.782  925.773  994.701  924.914  994.794  923.291  994.828  923.086  995.316  921.696  995.381  921.583  997.443  918.443  999.969  915.72  1005.83  910.962  1008.14  909.594  1009.15  909.115  1011.36  908.486  1012.09  908.425  1013.72  908.333  1014.61  908.731  " style="fill: none; stroke: black; stroke-width: 0.200000; fill-type: evenodd"  fill-opacity="1.000000" />
</svg>
