<?xml version="1.0" encoding="UTF-8" standalone="yes"?>
<!DOCTYPE svg PUBLIC "-//W3C//DTD SVG 1.0//EN" "http://www.w3.org/TR/2001/REC-SVG-20010904/DTD/svg10.dtd">
<svg height="2000" width="2000" xmlns="http://www.w3.org/2000/svg" xmlns:svg="http://www.w3.org/2000/svg" xmlns:xlink="http://www.w3.org/1999/xlink">
   <marker id="endArrow" markerHeight="8" markerUnits="strokeWidth" markerWidth="10" orient="auto" refX="1" refY="5" viewBox="0 0 1000 1000">
      <polyline fill="darkblue" points="0,0 10,5 0,10 1,5" />
   </marker>
   <circle cx="1000" cy="1000" r="1" style="stroke:black; fill: red" />
   <circle cx="1000" cy="1000" r="800" style="stroke:black; fill: none" />
   <line x1="801.840332" y1="1088.203003" x2="757.359253" y2="1088.203003" style="stroke: green; stroke-width: 0.200000"/>
   <line x1="801.840332" y1="1087.203125" x2="757.681580" y2="1087.203125" style="stroke: green; stroke-width: 0.200000"/>
   <line x1="801.840332" y1="1086.203125" x2="758.082214" y2="1086.203125" style="stroke: green; stroke-width: 0.200000"/>
   <line x1="801.840332" y1="1085.203125" x2="758.515991" y2="1085.203125" style="stroke: green; stroke-width: 0.200000"/>
   <line x1="801.840332" y1="1084.203003" x2="758.949829" y2="1084.203003" style="stroke: green; stroke-width: 0.200000"/>
   <line x1="801.840332" y1="1083.203003" x2="759.383667" y2="1083.203003" style="stroke: green; stroke-width: 0.200000"/>
   <line x1="801.840332" y1="1082.203125" x2="759.817505" y2="1082.203125" style="stroke: green; stroke-width: 0.200000"/>
   <line x1="801.840332" y1="1081.203125" x2="760.251343" y2="1081.203125" style="stroke: green; stroke-width: 0.200000"/>
   <line x1="801.840332" y1="1080.203125" x2="760.685181" y2="1080.203125" style="stroke: green; stroke-width: 0.200000"/>
   <line x1="801.840332" y1="1079.203003" x2="761.118408" y2="1079.203003" style="stroke: green; stroke-width: 0.200000"/>
   <line x1="801.840332" y1="1078.203003" x2="761.530884" y2="1078.203003" style="stroke: green; stroke-width: 0.200000"/>
   <line x1="801.840332" y1="1077.203125" x2="762.024231" y2="1077.203125" style="stroke: green; stroke-width: 0.200000"/>
   <line x1="801.840332" y1="1076.203125" x2="762.546265" y2="1076.203125" style="stroke: green; stroke-width: 0.200000"/>
   <line x1="801.840332" y1="1075.203125" x2="763.068237" y2="1075.203125" style="stroke: green; stroke-width: 0.200000"/>
   <line x1="801.840332" y1="1074.203003" x2="763.590210" y2="1074.203003" style="stroke: green; stroke-width: 0.200000"/>
   <line x1="801.840332" y1="1073.203003" x2="764.112244" y2="1073.203003" style="stroke: green; stroke-width: 0.200000"/>
   <line x1="801.840332" y1="1072.203125" x2="764.645874" y2="1072.203125" style="stroke: green; stroke-width: 0.200000"/>
   <line x1="801.840332" y1="1071.203125" x2="765.240234" y2="1071.203125" style="stroke: green; stroke-width: 0.200000"/>
   <line x1="801.840332" y1="1070.203125" x2="765.834717" y2="1070.203125" style="stroke: green; stroke-width: 0.200000"/>
   <line x1="801.840332" y1="1069.203003" x2="766.484131" y2="1069.203003" style="stroke: green; stroke-width: 0.200000"/>
   <line x1="801.840332" y1="1068.203003" x2="767.187805" y2="1068.203003" style="stroke: green; stroke-width: 0.200000"/>
   <line x1="801.840332" y1="1067.203125" x2="767.891541" y2="1067.203125" style="stroke: green; stroke-width: 0.200000"/>
   <line x1="801.840332" y1="1066.203125" x2="768.595215" y2="1066.203125" style="stroke: green; stroke-width: 0.200000"/>
   <line x1="801.840332" y1="1065.203125" x2="769.298950" y2="1065.203125" style="stroke: green; stroke-width: 0.200000"/>
   <line x1="801.840332" y1="1064.203003" x2="770.002563" y2="1064.203003" style="stroke: green; stroke-width: 0.200000"/>
   <line x1="801.840332" y1="1063.203003" x2="770.706238" y2="1063.203003" style="stroke: green; stroke-width: 0.200000"/>
   <line x1="801.840332" y1="1062.203125" x2="771.409973" y2="1062.203125" style="stroke: green; stroke-width: 0.200000"/>
   <line x1="801.840332" y1="1061.203125" x2="772.259155" y2="1061.203125" style="stroke: green; stroke-width: 0.200000"/>
   <line x1="801.840332" y1="1060.203125" x2="773.130615" y2="1060.203125" style="stroke: green; stroke-width: 0.200000"/>
   <line x1="801.840332" y1="1059.203003" x2="774.002075" y2="1059.203003" style="stroke: green; stroke-width: 0.200000"/>
   <line x1="801.840332" y1="1058.203003" x2="774.873535" y2="1058.203003" style="stroke: green; stroke-width: 0.200000"/>
   <line x1="801.840332" y1="1057.203125" x2="775.762390" y2="1057.203125" style="stroke: green; stroke-width: 0.200000"/>
   <line x1="801.840332" y1="1056.203125" x2="776.662659" y2="1056.203125" style="stroke: green; stroke-width: 0.200000"/>
   <line x1="801.840332" y1="1055.203125" x2="777.595154" y2="1055.203125" style="stroke: green; stroke-width: 0.200000"/>
   <line x1="801.840332" y1="1054.203003" x2="778.646545" y2="1054.203003" style="stroke: green; stroke-width: 0.200000"/>
   <line x1="801.840332" y1="1053.203003" x2="779.697937" y2="1053.203003" style="stroke: green; stroke-width: 0.200000"/>
   <line x1="801.840332" y1="1052.203125" x2="780.900269" y2="1052.203125" style="stroke: green; stroke-width: 0.200000"/>
   <line x1="801.840332" y1="1051.203125" x2="782.132019" y2="1051.203125" style="stroke: green; stroke-width: 0.200000"/>
   <line x1="801.840332" y1="1050.203125" x2="783.363770" y2="1050.203125" style="stroke: green; stroke-width: 0.200000"/>
   <line x1="801.840332" y1="1049.203003" x2="784.660278" y2="1049.203003" style="stroke: green; stroke-width: 0.200000"/>
   <line x1="801.840332" y1="1048.203003" x2="786.258606" y2="1048.203003" style="stroke: green; stroke-width: 0.200000"/>
   <line x1="801.840332" y1="1047.203125" x2="787.856995" y2="1047.203125" style="stroke: green; stroke-width: 0.200000"/>
   <line x1="801.840332" y1="1046.203125" x2="789.455322" y2="1046.203125" style="stroke: green; stroke-width: 0.200000"/>
   <line x1="801.840332" y1="1045.203125" x2="791.053711" y2="1045.203125" style="stroke: green; stroke-width: 0.200000"/>
   <line x1="801.840332" y1="1044.203003" x2="792.652039" y2="1044.203003" style="stroke: green; stroke-width: 0.200000"/>
   <line x1="801.840332" y1="1043.203003" x2="794.857239" y2="1043.203003" style="stroke: green; stroke-width: 0.200000"/>
   <line x1="801.840332" y1="1042.203125" x2="797.160278" y2="1042.203125" style="stroke: green; stroke-width: 0.200000"/>
   <line x1="801.840332" y1="1041.203125" x2="799.463379" y2="1041.203125" style="stroke: green; stroke-width: 0.200000"/>
   <line x1="851.940308" y1="1088.203003" x2="801.940308" y2="1088.203003" style="stroke: green; stroke-width: 0.200000"/>
   <line x1="851.940308" y1="1087.203125" x2="801.940308" y2="1087.203125" style="stroke: green; stroke-width: 0.200000"/>
   <line x1="851.940308" y1="1086.203125" x2="801.940308" y2="1086.203125" style="stroke: green; stroke-width: 0.200000"/>
   <line x1="851.940308" y1="1085.203125" x2="801.940308" y2="1085.203125" style="stroke: green; stroke-width: 0.200000"/>
   <line x1="851.940308" y1="1084.203003" x2="801.940308" y2="1084.203003" style="stroke: green; stroke-width: 0.200000"/>
   <line x1="851.940308" y1="1083.203003" x2="801.940308" y2="1083.203003" style="stroke: green; stroke-width: 0.200000"/>
   <line x1="851.940308" y1="1082.203125" x2="801.940308" y2="1082.203125" style="stroke: green; stroke-width: 0.200000"/>
   <line x1="851.940308" y1="1081.203125" x2="801.940308" y2="1081.203125" style="stroke: green; stroke-width: 0.200000"/>
   <line x1="851.940308" y1="1080.203125" x2="801.940308" y2="1080.203125" style="stroke: green; stroke-width: 0.200000"/>
   <line x1="851.940308" y1="1079.203003" x2="801.940308" y2="1079.203003" style="stroke: green; stroke-width: 0.200000"/>
   <line x1="851.940308" y1="1078.203003" x2="801.940308" y2="1078.203003" style="stroke: green; stroke-width: 0.200000"/>
   <line x1="851.940308" y1="1077.203125" x2="801.940308" y2="1077.203125" style="stroke: green; stroke-width: 0.200000"/>
   <line x1="851.940308" y1="1076.203125" x2="801.940308" y2="1076.203125" style="stroke: green; stroke-width: 0.200000"/>
   <line x1="851.940308" y1="1075.203125" x2="801.940308" y2="1075.203125" style="stroke: green; stroke-width: 0.200000"/>
   <line x1="851.940308" y1="1074.203003" x2="801.940308" y2="1074.203003" style="stroke: green; stroke-width: 0.200000"/>
   <line x1="851.940308" y1="1073.203003" x2="801.940308" y2="1073.203003" style="stroke: green; stroke-width: 0.200000"/>
   <line x1="851.940308" y1="1072.203125" x2="801.940308" y2="1072.203125" style="stroke: green; stroke-width: 0.200000"/>
   <line x1="851.940308" y1="1071.203125" x2="801.940308" y2="1071.203125" style="stroke: green; stroke-width: 0.200000"/>
   <line x1="851.940308" y1="1070.203125" x2="801.940308" y2="1070.203125" style="stroke: green; stroke-width: 0.200000"/>
   <line x1="851.940308" y1="1069.203003" x2="801.940308" y2="1069.203003" style="stroke: green; stroke-width: 0.200000"/>
   <line x1="851.940308" y1="1068.203003" x2="801.940308" y2="1068.203003" style="stroke: green; stroke-width: 0.200000"/>
   <line x1="851.940308" y1="1067.203125" x2="801.940308" y2="1067.203125" style="stroke: green; stroke-width: 0.200000"/>
   <line x1="851.940308" y1="1066.203125" x2="801.940308" y2="1066.203125" style="stroke: green; stroke-width: 0.200000"/>
   <line x1="851.940308" y1="1065.203125" x2="801.940308" y2="1065.203125" style="stroke: green; stroke-width: 0.200000"/>
   <line x1="851.940308" y1="1064.203003" x2="801.940308" y2="1064.203003" style="stroke: green; stroke-width: 0.200000"/>
   <line x1="851.940308" y1="1063.203003" x2="801.940308" y2="1063.203003" style="stroke: green; stroke-width: 0.200000"/>
   <line x1="851.940308" y1="1062.203125" x2="801.940308" y2="1062.203125" style="stroke: green; stroke-width: 0.200000"/>
   <line x1="851.940308" y1="1061.203125" x2="801.940308" y2="1061.203125" style="stroke: green; stroke-width: 0.200000"/>
   <line x1="851.940308" y1="1060.203125" x2="801.940308" y2="1060.203125" style="stroke: green; stroke-width: 0.200000"/>
   <line x1="851.940308" y1="1059.203003" x2="801.940308" y2="1059.203003" style="stroke: green; stroke-width: 0.200000"/>
   <line x1="851.940308" y1="1058.203003" x2="801.940308" y2="1058.203003" style="stroke: green; stroke-width: 0.200000"/>
   <line x1="851.025146" y1="1057.203125" x2="801.940308" y2="1057.203125" style="stroke: green; stroke-width: 0.200000"/>
   <line x1="849.915833" y1="1056.203125" x2="801.940308" y2="1056.203125" style="stroke: green; stroke-width: 0.200000"/>
   <line x1="848.806519" y1="1055.203125" x2="801.940308" y2="1055.203125" style="stroke: green; stroke-width: 0.200000"/>
   <line x1="847.367249" y1="1054.203003" x2="801.940308" y2="1054.203003" style="stroke: green; stroke-width: 0.200000"/>
   <line x1="845.567261" y1="1053.203003" x2="801.940308" y2="1053.203003" style="stroke: green; stroke-width: 0.200000"/>
   <line x1="843.767334" y1="1052.203125" x2="801.940308" y2="1052.203125" style="stroke: green; stroke-width: 0.200000"/>
   <line x1="842.095093" y1="1051.203125" x2="801.940308" y2="1051.203125" style="stroke: green; stroke-width: 0.200000"/>
   <line x1="840.591125" y1="1050.203125" x2="801.940308" y2="1050.203125" style="stroke: green; stroke-width: 0.200000"/>
   <line x1="839.087158" y1="1049.203003" x2="801.940308" y2="1049.203003" style="stroke: green; stroke-width: 0.200000"/>
   <line x1="837.534424" y1="1048.203003" x2="801.940308" y2="1048.203003" style="stroke: green; stroke-width: 0.200000"/>
   <line x1="835.909546" y1="1047.203125" x2="801.940308" y2="1047.203125" style="stroke: green; stroke-width: 0.200000"/>
   <line x1="834.284790" y1="1046.203125" x2="801.940308" y2="1046.203125" style="stroke: green; stroke-width: 0.200000"/>
   <line x1="832.660034" y1="1045.203125" x2="801.940308" y2="1045.203125" style="stroke: green; stroke-width: 0.200000"/>
   <line x1="831.329041" y1="1044.203003" x2="801.940308" y2="1044.203003" style="stroke: green; stroke-width: 0.200000"/>
   <line x1="830.026123" y1="1043.203003" x2="801.940308" y2="1043.203003" style="stroke: green; stroke-width: 0.200000"/>
   <line x1="828.206421" y1="1042.203125" x2="801.940308" y2="1042.203125" style="stroke: green; stroke-width: 0.200000"/>
   <line x1="824.071350" y1="1041.203125" x2="801.940308" y2="1041.203125" style="stroke: green; stroke-width: 0.200000"/>
   <line x1="821.032410" y1="1040.203125" x2="802.034912" y2="1040.203125" style="stroke: green; stroke-width: 0.200000"/>
   <line x1="818.608032" y1="1039.203003" x2="805.689087" y2="1039.203003" style="stroke: green; stroke-width: 0.200000"/>
   <line x1="873.101746" y1="1088.203003" x2="852.040344" y2="1088.203003" style="stroke: green; stroke-width: 0.200000"/>
   <line x1="872.692322" y1="1087.203125" x2="852.040344" y2="1087.203125" style="stroke: green; stroke-width: 0.200000"/>
   <line x1="872.282837" y1="1086.203125" x2="852.040344" y2="1086.203125" style="stroke: green; stroke-width: 0.200000"/>
   <line x1="871.873474" y1="1085.203125" x2="852.040344" y2="1085.203125" style="stroke: green; stroke-width: 0.200000"/>
   <line x1="871.463989" y1="1084.203003" x2="852.040344" y2="1084.203003" style="stroke: green; stroke-width: 0.200000"/>
   <line x1="871.054626" y1="1083.203003" x2="852.040344" y2="1083.203003" style="stroke: green; stroke-width: 0.200000"/>
   <line x1="870.616394" y1="1082.203125" x2="852.040344" y2="1082.203125" style="stroke: green; stroke-width: 0.200000"/>
   <line x1="870.027527" y1="1081.203125" x2="852.040344" y2="1081.203125" style="stroke: green; stroke-width: 0.200000"/>
   <line x1="869.438599" y1="1080.203125" x2="852.040344" y2="1080.203125" style="stroke: green; stroke-width: 0.200000"/>
   <line x1="868.805603" y1="1079.203003" x2="852.040344" y2="1079.203003" style="stroke: green; stroke-width: 0.200000"/>
   <line x1="868.122070" y1="1078.203003" x2="852.040344" y2="1078.203003" style="stroke: green; stroke-width: 0.200000"/>
   <line x1="867.438599" y1="1077.203125" x2="852.040344" y2="1077.203125" style="stroke: green; stroke-width: 0.200000"/>
   <line x1="866.755066" y1="1076.203125" x2="852.040344" y2="1076.203125" style="stroke: green; stroke-width: 0.200000"/>
   <line x1="866.071533" y1="1075.203125" x2="852.040344" y2="1075.203125" style="stroke: green; stroke-width: 0.200000"/>
   <line x1="865.388062" y1="1074.203003" x2="852.040344" y2="1074.203003" style="stroke: green; stroke-width: 0.200000"/>
   <line x1="864.620850" y1="1073.203003" x2="852.040344" y2="1073.203003" style="stroke: green; stroke-width: 0.200000"/>
   <line x1="863.723389" y1="1072.203125" x2="852.040344" y2="1072.203125" style="stroke: green; stroke-width: 0.200000"/>
   <line x1="862.825989" y1="1071.203125" x2="852.040344" y2="1071.203125" style="stroke: green; stroke-width: 0.200000"/>
   <line x1="862.162231" y1="1070.203125" x2="852.040344" y2="1070.203125" style="stroke: green; stroke-width: 0.200000"/>
   <line x1="861.516968" y1="1069.203003" x2="852.040344" y2="1069.203003" style="stroke: green; stroke-width: 0.200000"/>
   <line x1="860.871460" y1="1068.203003" x2="852.040344" y2="1068.203003" style="stroke: green; stroke-width: 0.200000"/>
   <line x1="860.226074" y1="1067.203125" x2="852.040344" y2="1067.203125" style="stroke: green; stroke-width: 0.200000"/>
   <line x1="859.580627" y1="1066.203125" x2="852.040344" y2="1066.203125" style="stroke: green; stroke-width: 0.200000"/>
   <line x1="858.935242" y1="1065.203125" x2="852.040344" y2="1065.203125" style="stroke: green; stroke-width: 0.200000"/>
   <line x1="858.225403" y1="1064.203003" x2="852.040344" y2="1064.203003" style="stroke: green; stroke-width: 0.200000"/>
   <line x1="857.496033" y1="1063.203003" x2="852.040344" y2="1063.203003" style="stroke: green; stroke-width: 0.200000"/>
   <line x1="856.766479" y1="1062.203125" x2="852.040344" y2="1062.203125" style="stroke: green; stroke-width: 0.200000"/>
   <line x1="855.643188" y1="1061.203125" x2="852.040344" y2="1061.203125" style="stroke: green; stroke-width: 0.200000"/>
   <line x1="854.479248" y1="1060.203125" x2="852.040344" y2="1060.203125" style="stroke: green; stroke-width: 0.200000"/>
   <line x1="853.315369" y1="1059.203003" x2="852.040344" y2="1059.203003" style="stroke: green; stroke-width: 0.200000"/>
   <line x1="852.151428" y1="1058.203003" x2="852.040344" y2="1058.203003" style="stroke: green; stroke-width: 0.200000"/>
   <line x1="801.840332" y1="1138.203003" x2="758.521484" y2="1138.203003" style="stroke: green; stroke-width: 0.200000"/>
   <line x1="801.840332" y1="1137.203125" x2="757.955200" y2="1137.203125" style="stroke: green; stroke-width: 0.200000"/>
   <line x1="801.840332" y1="1136.203125" x2="757.393738" y2="1136.203125" style="stroke: green; stroke-width: 0.200000"/>
   <line x1="801.840332" y1="1135.203125" x2="756.832275" y2="1135.203125" style="stroke: green; stroke-width: 0.200000"/>
   <line x1="801.840332" y1="1134.203003" x2="756.270874" y2="1134.203003" style="stroke: green; stroke-width: 0.200000"/>
   <line x1="801.840332" y1="1133.203003" x2="755.709595" y2="1133.203003" style="stroke: green; stroke-width: 0.200000"/>
   <line x1="801.840332" y1="1132.203125" x2="755.148254" y2="1132.203125" style="stroke: green; stroke-width: 0.200000"/>
   <line x1="801.840332" y1="1131.203125" x2="754.586853" y2="1131.203125" style="stroke: green; stroke-width: 0.200000"/>
   <line x1="801.840332" y1="1130.203125" x2="754.211121" y2="1130.203125" style="stroke: green; stroke-width: 0.200000"/>
   <line x1="801.840332" y1="1129.203003" x2="753.913086" y2="1129.203003" style="stroke: green; stroke-width: 0.200000"/>
   <line x1="801.840332" y1="1128.203003" x2="753.630615" y2="1128.203003" style="stroke: green; stroke-width: 0.200000"/>
   <line x1="801.840332" y1="1127.203125" x2="753.395081" y2="1127.203125" style="stroke: green; stroke-width: 0.200000"/>
   <line x1="801.840332" y1="1126.203125" x2="753.159485" y2="1126.203125" style="stroke: green; stroke-width: 0.200000"/>
   <line x1="801.840332" y1="1125.203125" x2="752.923889" y2="1125.203125" style="stroke: green; stroke-width: 0.200000"/>
   <line x1="801.840332" y1="1124.203003" x2="752.688354" y2="1124.203003" style="stroke: green; stroke-width: 0.200000"/>
   <line x1="801.840332" y1="1123.203003" x2="752.452759" y2="1123.203003" style="stroke: green; stroke-width: 0.200000"/>
   <line x1="801.840332" y1="1122.203125" x2="752.217163" y2="1122.203125" style="stroke: green; stroke-width: 0.200000"/>
   <line x1="801.840332" y1="1121.203125" x2="751.992798" y2="1121.203125" style="stroke: green; stroke-width: 0.200000"/>
   <line x1="801.840332" y1="1120.203125" x2="751.973267" y2="1120.203125" style="stroke: green; stroke-width: 0.200000"/>
   <line x1="801.840332" y1="1119.203003" x2="751.953674" y2="1119.203003" style="stroke: green; stroke-width: 0.200000"/>
   <line x1="801.840332" y1="1118.203003" x2="751.934143" y2="1118.203003" style="stroke: green; stroke-width: 0.200000"/>
   <line x1="801.840332" y1="1117.203125" x2="751.914612" y2="1117.203125" style="stroke: green; stroke-width: 0.200000"/>
   <line x1="801.840332" y1="1116.203125" x2="751.895020" y2="1116.203125" style="stroke: green; stroke-width: 0.200000"/>
   <line x1="801.840332" y1="1115.203125" x2="751.875488" y2="1115.203125" style="stroke: green; stroke-width: 0.200000"/>
   <line x1="801.840332" y1="1114.203003" x2="751.855957" y2="1114.203003" style="stroke: green; stroke-width: 0.200000"/>
   <line x1="801.840332" y1="1113.203003" x2="751.848145" y2="1113.203003" style="stroke: green; stroke-width: 0.200000"/>
   <line x1="801.840332" y1="1112.203125" x2="751.886536" y2="1112.203125" style="stroke: green; stroke-width: 0.200000"/>
   <line x1="801.840332" y1="1111.203125" x2="751.924927" y2="1111.203125" style="stroke: green; stroke-width: 0.200000"/>
   <line x1="801.840332" y1="1110.203125" x2="752.084290" y2="1110.203125" style="stroke: green; stroke-width: 0.200000"/>
   <line x1="801.840332" y1="1109.203003" x2="752.272278" y2="1109.203003" style="stroke: green; stroke-width: 0.200000"/>
   <line x1="801.840332" y1="1108.203003" x2="752.460327" y2="1108.203003" style="stroke: green; stroke-width: 0.200000"/>
   <line x1="801.840332" y1="1107.203125" x2="752.648376" y2="1107.203125" style="stroke: green; stroke-width: 0.200000"/>
   <line x1="801.840332" y1="1106.203125" x2="752.836426" y2="1106.203125" style="stroke: green; stroke-width: 0.200000"/>
   <line x1="801.840332" y1="1105.203125" x2="753.024536" y2="1105.203125" style="stroke: green; stroke-width: 0.200000"/>
   <line x1="801.840332" y1="1104.203003" x2="753.150574" y2="1104.203003" style="stroke: green; stroke-width: 0.200000"/>
   <line x1="801.840332" y1="1103.203003" x2="753.243896" y2="1103.203003" style="stroke: green; stroke-width: 0.200000"/>
   <line x1="801.840332" y1="1102.203125" x2="753.337158" y2="1102.203125" style="stroke: green; stroke-width: 0.200000"/>
   <line x1="801.840332" y1="1101.203125" x2="753.474426" y2="1101.203125" style="stroke: green; stroke-width: 0.200000"/>
   <line x1="801.840332" y1="1100.203125" x2="753.674438" y2="1100.203125" style="stroke: green; stroke-width: 0.200000"/>
   <line x1="801.840332" y1="1099.203003" x2="753.874573" y2="1099.203003" style="stroke: green; stroke-width: 0.200000"/>
   <line x1="801.840332" y1="1098.203003" x2="754.074707" y2="1098.203003" style="stroke: green; stroke-width: 0.200000"/>
   <line x1="801.840332" y1="1097.203125" x2="754.274841" y2="1097.203125" style="stroke: green; stroke-width: 0.200000"/>
   <line x1="801.840332" y1="1096.203125" x2="754.474976" y2="1096.203125" style="stroke: green; stroke-width: 0.200000"/>
   <line x1="801.840332" y1="1095.203125" x2="754.844299" y2="1095.203125" style="stroke: green; stroke-width: 0.200000"/>
   <line x1="801.840332" y1="1094.203003" x2="755.214233" y2="1094.203003" style="stroke: green; stroke-width: 0.200000"/>
   <line x1="801.840332" y1="1093.203003" x2="755.584106" y2="1093.203003" style="stroke: green; stroke-width: 0.200000"/>
   <line x1="801.840332" y1="1092.203125" x2="755.953979" y2="1092.203125" style="stroke: green; stroke-width: 0.200000"/>
   <line x1="801.840332" y1="1091.203125" x2="756.323914" y2="1091.203125" style="stroke: green; stroke-width: 0.200000"/>
   <line x1="801.840332" y1="1090.203125" x2="756.693787" y2="1090.203125" style="stroke: green; stroke-width: 0.200000"/>
   <line x1="801.840332" y1="1089.203003" x2="757.036865" y2="1089.203003" style="stroke: green; stroke-width: 0.200000"/>
   <line x1="851.940308" y1="1138.203003" x2="801.940308" y2="1138.203003" style="stroke: green; stroke-width: 0.200000"/>
   <line x1="851.940308" y1="1137.203125" x2="801.940308" y2="1137.203125" style="stroke: green; stroke-width: 0.200000"/>
   <line x1="851.940308" y1="1136.203125" x2="801.940308" y2="1136.203125" style="stroke: green; stroke-width: 0.200000"/>
   <line x1="851.940308" y1="1135.203125" x2="801.940308" y2="1135.203125" style="stroke: green; stroke-width: 0.200000"/>
   <line x1="851.940308" y1="1134.203003" x2="801.940308" y2="1134.203003" style="stroke: green; stroke-width: 0.200000"/>
   <line x1="851.940308" y1="1133.203003" x2="801.940308" y2="1133.203003" style="stroke: green; stroke-width: 0.200000"/>
   <line x1="851.940308" y1="1132.203125" x2="801.940308" y2="1132.203125" style="stroke: green; stroke-width: 0.200000"/>
   <line x1="851.940308" y1="1131.203125" x2="801.940308" y2="1131.203125" style="stroke: green; stroke-width: 0.200000"/>
   <line x1="851.940308" y1="1130.203125" x2="801.940308" y2="1130.203125" style="stroke: green; stroke-width: 0.200000"/>
   <line x1="851.940308" y1="1129.203003" x2="801.940308" y2="1129.203003" style="stroke: green; stroke-width: 0.200000"/>
   <line x1="851.940308" y1="1128.203003" x2="801.940308" y2="1128.203003" style="stroke: green; stroke-width: 0.200000"/>
   <line x1="851.940308" y1="1127.203125" x2="801.940308" y2="1127.203125" style="stroke: green; stroke-width: 0.200000"/>
   <line x1="851.940308" y1="1126.203125" x2="801.940308" y2="1126.203125" style="stroke: green; stroke-width: 0.200000"/>
   <line x1="851.940308" y1="1125.203125" x2="801.940308" y2="1125.203125" style="stroke: green; stroke-width: 0.200000"/>
   <line x1="851.940308" y1="1124.203003" x2="801.940308" y2="1124.203003" style="stroke: green; stroke-width: 0.200000"/>
   <line x1="851.940308" y1="1123.203003" x2="801.940308" y2="1123.203003" style="stroke: green; stroke-width: 0.200000"/>
   <line x1="851.940308" y1="1122.203125" x2="801.940308" y2="1122.203125" style="stroke: green; stroke-width: 0.200000"/>
   <line x1="851.940308" y1="1121.203125" x2="801.940308" y2="1121.203125" style="stroke: green; stroke-width: 0.200000"/>
   <line x1="851.940308" y1="1120.203125" x2="801.940308" y2="1120.203125" style="stroke: green; stroke-width: 0.200000"/>
   <line x1="851.940308" y1="1119.203003" x2="801.940308" y2="1119.203003" style="stroke: green; stroke-width: 0.200000"/>
   <line x1="851.940308" y1="1118.203003" x2="801.940308" y2="1118.203003" style="stroke: green; stroke-width: 0.200000"/>
   <line x1="851.940308" y1="1117.203125" x2="801.940308" y2="1117.203125" style="stroke: green; stroke-width: 0.200000"/>
   <line x1="851.940308" y1="1116.203125" x2="801.940308" y2="1116.203125" style="stroke: green; stroke-width: 0.200000"/>
   <line x1="851.940308" y1="1115.203125" x2="801.940308" y2="1115.203125" style="stroke: green; stroke-width: 0.200000"/>
   <line x1="851.940308" y1="1114.203003" x2="801.940308" y2="1114.203003" style="stroke: green; stroke-width: 0.200000"/>
   <line x1="851.940308" y1="1113.203003" x2="801.940308" y2="1113.203003" style="stroke: green; stroke-width: 0.200000"/>
   <line x1="851.940308" y1="1112.203125" x2="801.940308" y2="1112.203125" style="stroke: green; stroke-width: 0.200000"/>
   <line x1="851.940308" y1="1111.203125" x2="801.940308" y2="1111.203125" style="stroke: green; stroke-width: 0.200000"/>
   <line x1="851.940308" y1="1110.203125" x2="801.940308" y2="1110.203125" style="stroke: green; stroke-width: 0.200000"/>
   <line x1="851.940308" y1="1109.203003" x2="801.940308" y2="1109.203003" style="stroke: green; stroke-width: 0.200000"/>
   <line x1="851.940308" y1="1108.203003" x2="801.940308" y2="1108.203003" style="stroke: green; stroke-width: 0.200000"/>
   <line x1="851.940308" y1="1107.203125" x2="801.940308" y2="1107.203125" style="stroke: green; stroke-width: 0.200000"/>
   <line x1="851.940308" y1="1106.203125" x2="801.940308" y2="1106.203125" style="stroke: green; stroke-width: 0.200000"/>
   <line x1="851.940308" y1="1105.203125" x2="801.940308" y2="1105.203125" style="stroke: green; stroke-width: 0.200000"/>
   <line x1="851.940308" y1="1104.203003" x2="801.940308" y2="1104.203003" style="stroke: green; stroke-width: 0.200000"/>
   <line x1="851.940308" y1="1103.203003" x2="801.940308" y2="1103.203003" style="stroke: green; stroke-width: 0.200000"/>
   <line x1="851.940308" y1="1102.203125" x2="801.940308" y2="1102.203125" style="stroke: green; stroke-width: 0.200000"/>
   <line x1="851.940308" y1="1101.203125" x2="801.940308" y2="1101.203125" style="stroke: green; stroke-width: 0.200000"/>
   <line x1="851.940308" y1="1100.203125" x2="801.940308" y2="1100.203125" style="stroke: green; stroke-width: 0.200000"/>
   <line x1="851.940308" y1="1099.203003" x2="801.940308" y2="1099.203003" style="stroke: green; stroke-width: 0.200000"/>
   <line x1="851.940308" y1="1098.203003" x2="801.940308" y2="1098.203003" style="stroke: green; stroke-width: 0.200000"/>
   <line x1="851.940308" y1="1097.203125" x2="801.940308" y2="1097.203125" style="stroke: green; stroke-width: 0.200000"/>
   <line x1="851.940308" y1="1096.203125" x2="801.940308" y2="1096.203125" style="stroke: green; stroke-width: 0.200000"/>
   <line x1="851.940308" y1="1095.203125" x2="801.940308" y2="1095.203125" style="stroke: green; stroke-width: 0.200000"/>
   <line x1="851.940308" y1="1094.203003" x2="801.940308" y2="1094.203003" style="stroke: green; stroke-width: 0.200000"/>
   <line x1="851.940308" y1="1093.203003" x2="801.940308" y2="1093.203003" style="stroke: green; stroke-width: 0.200000"/>
   <line x1="851.940308" y1="1092.203125" x2="801.940308" y2="1092.203125" style="stroke: green; stroke-width: 0.200000"/>
   <line x1="851.940308" y1="1091.203125" x2="801.940308" y2="1091.203125" style="stroke: green; stroke-width: 0.200000"/>
   <line x1="851.940308" y1="1090.203125" x2="801.940308" y2="1090.203125" style="stroke: green; stroke-width: 0.200000"/>
   <line x1="851.940308" y1="1089.203003" x2="801.940308" y2="1089.203003" style="stroke: green; stroke-width: 0.200000"/>
   <line x1="887.981873" y1="1138.203003" x2="852.040344" y2="1138.203003" style="stroke: green; stroke-width: 0.200000"/>
   <line x1="887.336731" y1="1137.203125" x2="852.040344" y2="1137.203125" style="stroke: green; stroke-width: 0.200000"/>
   <line x1="886.691650" y1="1136.203125" x2="852.040344" y2="1136.203125" style="stroke: green; stroke-width: 0.200000"/>
   <line x1="886.286682" y1="1135.203125" x2="852.040344" y2="1135.203125" style="stroke: green; stroke-width: 0.200000"/>
   <line x1="885.928467" y1="1134.203003" x2="852.040344" y2="1134.203003" style="stroke: green; stroke-width: 0.200000"/>
   <line x1="885.570374" y1="1133.203003" x2="852.040344" y2="1133.203003" style="stroke: green; stroke-width: 0.200000"/>
   <line x1="885.212158" y1="1132.203125" x2="852.040344" y2="1132.203125" style="stroke: green; stroke-width: 0.200000"/>
   <line x1="884.847717" y1="1131.203125" x2="852.040344" y2="1131.203125" style="stroke: green; stroke-width: 0.200000"/>
   <line x1="884.480530" y1="1130.203125" x2="852.040344" y2="1130.203125" style="stroke: green; stroke-width: 0.200000"/>
   <line x1="884.113281" y1="1129.203003" x2="852.040344" y2="1129.203003" style="stroke: green; stroke-width: 0.200000"/>
   <line x1="883.746094" y1="1128.203003" x2="852.040344" y2="1128.203003" style="stroke: green; stroke-width: 0.200000"/>
   <line x1="883.378906" y1="1127.203125" x2="852.040344" y2="1127.203125" style="stroke: green; stroke-width: 0.200000"/>
   <line x1="883.011719" y1="1126.203125" x2="852.040344" y2="1126.203125" style="stroke: green; stroke-width: 0.200000"/>
   <line x1="882.644531" y1="1125.203125" x2="852.040344" y2="1125.203125" style="stroke: green; stroke-width: 0.200000"/>
   <line x1="882.300171" y1="1124.203003" x2="852.040344" y2="1124.203003" style="stroke: green; stroke-width: 0.200000"/>
   <line x1="882.073242" y1="1123.203003" x2="852.040344" y2="1123.203003" style="stroke: green; stroke-width: 0.200000"/>
   <line x1="881.834351" y1="1122.203125" x2="852.040344" y2="1122.203125" style="stroke: green; stroke-width: 0.200000"/>
   <line x1="881.577759" y1="1121.203125" x2="852.040344" y2="1121.203125" style="stroke: green; stroke-width: 0.200000"/>
   <line x1="881.321289" y1="1120.203125" x2="852.040344" y2="1120.203125" style="stroke: green; stroke-width: 0.200000"/>
   <line x1="881.064697" y1="1119.203003" x2="852.040344" y2="1119.203003" style="stroke: green; stroke-width: 0.200000"/>
   <line x1="880.808105" y1="1118.203003" x2="852.040344" y2="1118.203003" style="stroke: green; stroke-width: 0.200000"/>
   <line x1="880.551636" y1="1117.203125" x2="852.040344" y2="1117.203125" style="stroke: green; stroke-width: 0.200000"/>
   <line x1="880.295044" y1="1116.203125" x2="852.040344" y2="1116.203125" style="stroke: green; stroke-width: 0.200000"/>
   <line x1="880.038513" y1="1115.203125" x2="852.040344" y2="1115.203125" style="stroke: green; stroke-width: 0.200000"/>
   <line x1="879.781982" y1="1114.203003" x2="852.040344" y2="1114.203003" style="stroke: green; stroke-width: 0.200000"/>
   <line x1="879.515747" y1="1113.203003" x2="852.040344" y2="1113.203003" style="stroke: green; stroke-width: 0.200000"/>
   <line x1="879.247437" y1="1112.203125" x2="852.040344" y2="1112.203125" style="stroke: green; stroke-width: 0.200000"/>
   <line x1="878.993835" y1="1111.203125" x2="852.040344" y2="1111.203125" style="stroke: green; stroke-width: 0.200000"/>
   <line x1="878.744446" y1="1110.203125" x2="852.040344" y2="1110.203125" style="stroke: green; stroke-width: 0.200000"/>
   <line x1="878.494995" y1="1109.203003" x2="852.040344" y2="1109.203003" style="stroke: green; stroke-width: 0.200000"/>
   <line x1="878.245728" y1="1108.203003" x2="852.040344" y2="1108.203003" style="stroke: green; stroke-width: 0.200000"/>
   <line x1="877.996277" y1="1107.203125" x2="852.040344" y2="1107.203125" style="stroke: green; stroke-width: 0.200000"/>
   <line x1="877.746887" y1="1106.203125" x2="852.040344" y2="1106.203125" style="stroke: green; stroke-width: 0.200000"/>
   <line x1="877.497559" y1="1105.203125" x2="852.040344" y2="1105.203125" style="stroke: green; stroke-width: 0.200000"/>
   <line x1="877.248169" y1="1104.203003" x2="852.040344" y2="1104.203003" style="stroke: green; stroke-width: 0.200000"/>
   <line x1="876.998779" y1="1103.203003" x2="852.040344" y2="1103.203003" style="stroke: green; stroke-width: 0.200000"/>
   <line x1="876.739990" y1="1102.203125" x2="852.040344" y2="1102.203125" style="stroke: green; stroke-width: 0.200000"/>
   <line x1="876.431946" y1="1101.203125" x2="852.040344" y2="1101.203125" style="stroke: green; stroke-width: 0.200000"/>
   <line x1="876.181946" y1="1100.203125" x2="852.040344" y2="1100.203125" style="stroke: green; stroke-width: 0.200000"/>
   <line x1="875.963257" y1="1099.203003" x2="852.040344" y2="1099.203003" style="stroke: green; stroke-width: 0.200000"/>
   <line x1="875.744568" y1="1098.203003" x2="852.040344" y2="1098.203003" style="stroke: green; stroke-width: 0.200000"/>
   <line x1="875.525818" y1="1097.203125" x2="852.040344" y2="1097.203125" style="stroke: green; stroke-width: 0.200000"/>
   <line x1="875.303650" y1="1096.203125" x2="852.040344" y2="1096.203125" style="stroke: green; stroke-width: 0.200000"/>
   <line x1="875.068420" y1="1095.203125" x2="852.040344" y2="1095.203125" style="stroke: green; stroke-width: 0.200000"/>
   <line x1="874.833252" y1="1094.203003" x2="852.040344" y2="1094.203003" style="stroke: green; stroke-width: 0.200000"/>
   <line x1="874.598022" y1="1093.203003" x2="852.040344" y2="1093.203003" style="stroke: green; stroke-width: 0.200000"/>
   <line x1="874.362793" y1="1092.203125" x2="852.040344" y2="1092.203125" style="stroke: green; stroke-width: 0.200000"/>
   <line x1="874.121582" y1="1091.203125" x2="852.040344" y2="1091.203125" style="stroke: green; stroke-width: 0.200000"/>
   <line x1="873.833557" y1="1090.203125" x2="852.040344" y2="1090.203125" style="stroke: green; stroke-width: 0.200000"/>
   <line x1="873.511230" y1="1089.203003" x2="852.040344" y2="1089.203003" style="stroke: green; stroke-width: 0.200000"/>
   <line x1="801.840332" y1="1188.203003" x2="794.707520" y2="1188.203003" style="stroke: green; stroke-width: 0.200000"/>
   <line x1="801.840332" y1="1187.203125" x2="794.178711" y2="1187.203125" style="stroke: green; stroke-width: 0.200000"/>
   <line x1="801.840332" y1="1186.203125" x2="793.263550" y2="1186.203125" style="stroke: green; stroke-width: 0.200000"/>
   <line x1="801.840332" y1="1185.203125" x2="792.348328" y2="1185.203125" style="stroke: green; stroke-width: 0.200000"/>
   <line x1="801.840332" y1="1184.203003" x2="791.433228" y2="1184.203003" style="stroke: green; stroke-width: 0.200000"/>
   <line x1="801.840332" y1="1183.203003" x2="790.529907" y2="1183.203003" style="stroke: green; stroke-width: 0.200000"/>
   <line x1="801.840332" y1="1182.203125" x2="789.685547" y2="1182.203125" style="stroke: green; stroke-width: 0.200000"/>
   <line x1="801.840332" y1="1181.203125" x2="788.841064" y2="1181.203125" style="stroke: green; stroke-width: 0.200000"/>
   <line x1="801.840332" y1="1180.203125" x2="787.996704" y2="1180.203125" style="stroke: green; stroke-width: 0.200000"/>
   <line x1="801.840332" y1="1179.203003" x2="787.152344" y2="1179.203003" style="stroke: green; stroke-width: 0.200000"/>
   <line x1="801.840332" y1="1178.203003" x2="786.385620" y2="1178.203003" style="stroke: green; stroke-width: 0.200000"/>
   <line x1="801.840332" y1="1177.203125" x2="785.682251" y2="1177.203125" style="stroke: green; stroke-width: 0.200000"/>
   <line x1="801.840332" y1="1176.203125" x2="784.978882" y2="1176.203125" style="stroke: green; stroke-width: 0.200000"/>
   <line x1="801.840332" y1="1175.203125" x2="784.271240" y2="1175.203125" style="stroke: green; stroke-width: 0.200000"/>
   <line x1="801.840332" y1="1174.203003" x2="783.544006" y2="1174.203003" style="stroke: green; stroke-width: 0.200000"/>
   <line x1="801.840332" y1="1173.203003" x2="782.816772" y2="1173.203003" style="stroke: green; stroke-width: 0.200000"/>
   <line x1="801.840332" y1="1172.203125" x2="782.089539" y2="1172.203125" style="stroke: green; stroke-width: 0.200000"/>
   <line x1="801.840332" y1="1171.203125" x2="781.362305" y2="1171.203125" style="stroke: green; stroke-width: 0.200000"/>
   <line x1="801.840332" y1="1170.203125" x2="780.635071" y2="1170.203125" style="stroke: green; stroke-width: 0.200000"/>
   <line x1="801.840332" y1="1169.203003" x2="779.907837" y2="1169.203003" style="stroke: green; stroke-width: 0.200000"/>
   <line x1="801.840332" y1="1168.203003" x2="779.197388" y2="1168.203003" style="stroke: green; stroke-width: 0.200000"/>
   <line x1="801.840332" y1="1167.203125" x2="778.579224" y2="1167.203125" style="stroke: green; stroke-width: 0.200000"/>
   <line x1="801.840332" y1="1166.203125" x2="777.919067" y2="1166.203125" style="stroke: green; stroke-width: 0.200000"/>
   <line x1="801.840332" y1="1165.203125" x2="777.258667" y2="1165.203125" style="stroke: green; stroke-width: 0.200000"/>
   <line x1="801.840332" y1="1164.203003" x2="776.598267" y2="1164.203003" style="stroke: green; stroke-width: 0.200000"/>
   <line x1="801.840332" y1="1163.203003" x2="775.937988" y2="1163.203003" style="stroke: green; stroke-width: 0.200000"/>
   <line x1="801.840332" y1="1162.203125" x2="775.277588" y2="1162.203125" style="stroke: green; stroke-width: 0.200000"/>
   <line x1="801.840332" y1="1161.203125" x2="774.617188" y2="1161.203125" style="stroke: green; stroke-width: 0.200000"/>
   <line x1="801.840332" y1="1160.203125" x2="773.956848" y2="1160.203125" style="stroke: green; stroke-width: 0.200000"/>
   <line x1="801.840332" y1="1159.203003" x2="773.330627" y2="1159.203003" style="stroke: green; stroke-width: 0.200000"/>
   <line x1="801.840332" y1="1158.203003" x2="772.682373" y2="1158.203003" style="stroke: green; stroke-width: 0.200000"/>
   <line x1="801.840332" y1="1157.203125" x2="771.984009" y2="1157.203125" style="stroke: green; stroke-width: 0.200000"/>
   <line x1="801.840332" y1="1156.203125" x2="771.285706" y2="1156.203125" style="stroke: green; stroke-width: 0.200000"/>
   <line x1="801.840332" y1="1155.203125" x2="770.587280" y2="1155.203125" style="stroke: green; stroke-width: 0.200000"/>
   <line x1="801.840332" y1="1154.203003" x2="769.888977" y2="1154.203003" style="stroke: green; stroke-width: 0.200000"/>
   <line x1="801.840332" y1="1153.203003" x2="769.144958" y2="1153.203003" style="stroke: green; stroke-width: 0.200000"/>
   <line x1="801.840332" y1="1152.203125" x2="768.292847" y2="1152.203125" style="stroke: green; stroke-width: 0.200000"/>
   <line x1="801.840332" y1="1151.203125" x2="767.440674" y2="1151.203125" style="stroke: green; stroke-width: 0.200000"/>
   <line x1="801.840332" y1="1150.203125" x2="766.588623" y2="1150.203125" style="stroke: green; stroke-width: 0.200000"/>
   <line x1="801.840332" y1="1149.203003" x2="765.736389" y2="1149.203003" style="stroke: green; stroke-width: 0.200000"/>
   <line x1="801.840332" y1="1148.203003" x2="764.884155" y2="1148.203003" style="stroke: green; stroke-width: 0.200000"/>
   <line x1="801.840332" y1="1147.203125" x2="764.060181" y2="1147.203125" style="stroke: green; stroke-width: 0.200000"/>
   <line x1="801.840332" y1="1146.203125" x2="763.365479" y2="1146.203125" style="stroke: green; stroke-width: 0.200000"/>
   <line x1="801.840332" y1="1145.203125" x2="762.748108" y2="1145.203125" style="stroke: green; stroke-width: 0.200000"/>
   <line x1="801.840332" y1="1144.203003" x2="762.144287" y2="1144.203003" style="stroke: green; stroke-width: 0.200000"/>
   <line x1="801.840332" y1="1143.203003" x2="761.540527" y2="1143.203003" style="stroke: green; stroke-width: 0.200000"/>
   <line x1="801.840332" y1="1142.203125" x2="760.936584" y2="1142.203125" style="stroke: green; stroke-width: 0.200000"/>
   <line x1="801.840332" y1="1141.203125" x2="760.332764" y2="1141.203125" style="stroke: green; stroke-width: 0.200000"/>
   <line x1="801.840332" y1="1140.203125" x2="759.729004" y2="1140.203125" style="stroke: green; stroke-width: 0.200000"/>
   <line x1="801.840332" y1="1139.203003" x2="759.125244" y2="1139.203003" style="stroke: green; stroke-width: 0.200000"/>
   <line x1="851.940308" y1="1188.203003" x2="801.940308" y2="1188.203003" style="stroke: green; stroke-width: 0.200000"/>
   <line x1="851.940308" y1="1187.203125" x2="801.940308" y2="1187.203125" style="stroke: green; stroke-width: 0.200000"/>
   <line x1="851.940308" y1="1186.203125" x2="801.940308" y2="1186.203125" style="stroke: green; stroke-width: 0.200000"/>
   <line x1="851.940308" y1="1185.203125" x2="801.940308" y2="1185.203125" style="stroke: green; stroke-width: 0.200000"/>
   <line x1="851.940308" y1="1184.203003" x2="801.940308" y2="1184.203003" style="stroke: green; stroke-width: 0.200000"/>
   <line x1="851.940308" y1="1183.203003" x2="801.940308" y2="1183.203003" style="stroke: green; stroke-width: 0.200000"/>
   <line x1="851.940308" y1="1182.203125" x2="801.940308" y2="1182.203125" style="stroke: green; stroke-width: 0.200000"/>
   <line x1="851.940308" y1="1181.203125" x2="801.940308" y2="1181.203125" style="stroke: green; stroke-width: 0.200000"/>
   <line x1="851.940308" y1="1180.203125" x2="801.940308" y2="1180.203125" style="stroke: green; stroke-width: 0.200000"/>
   <line x1="851.940308" y1="1179.203003" x2="801.940308" y2="1179.203003" style="stroke: green; stroke-width: 0.200000"/>
   <line x1="851.940308" y1="1178.203003" x2="801.940308" y2="1178.203003" style="stroke: green; stroke-width: 0.200000"/>
   <line x1="851.940308" y1="1177.203125" x2="801.940308" y2="1177.203125" style="stroke: green; stroke-width: 0.200000"/>
   <line x1="851.940308" y1="1176.203125" x2="801.940308" y2="1176.203125" style="stroke: green; stroke-width: 0.200000"/>
   <line x1="851.940308" y1="1175.203125" x2="801.940308" y2="1175.203125" style="stroke: green; stroke-width: 0.200000"/>
   <line x1="851.940308" y1="1174.203003" x2="801.940308" y2="1174.203003" style="stroke: green; stroke-width: 0.200000"/>
   <line x1="851.940308" y1="1173.203003" x2="801.940308" y2="1173.203003" style="stroke: green; stroke-width: 0.200000"/>
   <line x1="851.940308" y1="1172.203125" x2="801.940308" y2="1172.203125" style="stroke: green; stroke-width: 0.200000"/>
   <line x1="851.940308" y1="1171.203125" x2="801.940308" y2="1171.203125" style="stroke: green; stroke-width: 0.200000"/>
   <line x1="851.940308" y1="1170.203125" x2="801.940308" y2="1170.203125" style="stroke: green; stroke-width: 0.200000"/>
   <line x1="851.940308" y1="1169.203003" x2="801.940308" y2="1169.203003" style="stroke: green; stroke-width: 0.200000"/>
   <line x1="851.940308" y1="1168.203003" x2="801.940308" y2="1168.203003" style="stroke: green; stroke-width: 0.200000"/>
   <line x1="851.940308" y1="1167.203125" x2="801.940308" y2="1167.203125" style="stroke: green; stroke-width: 0.200000"/>
   <line x1="851.940308" y1="1166.203125" x2="801.940308" y2="1166.203125" style="stroke: green; stroke-width: 0.200000"/>
   <line x1="851.940308" y1="1165.203125" x2="801.940308" y2="1165.203125" style="stroke: green; stroke-width: 0.200000"/>
   <line x1="851.940308" y1="1164.203003" x2="801.940308" y2="1164.203003" style="stroke: green; stroke-width: 0.200000"/>
   <line x1="851.940308" y1="1163.203003" x2="801.940308" y2="1163.203003" style="stroke: green; stroke-width: 0.200000"/>
   <line x1="851.940308" y1="1162.203125" x2="801.940308" y2="1162.203125" style="stroke: green; stroke-width: 0.200000"/>
   <line x1="851.940308" y1="1161.203125" x2="801.940308" y2="1161.203125" style="stroke: green; stroke-width: 0.200000"/>
   <line x1="851.940308" y1="1160.203125" x2="801.940308" y2="1160.203125" style="stroke: green; stroke-width: 0.200000"/>
   <line x1="851.940308" y1="1159.203003" x2="801.940308" y2="1159.203003" style="stroke: green; stroke-width: 0.200000"/>
   <line x1="851.940308" y1="1158.203003" x2="801.940308" y2="1158.203003" style="stroke: green; stroke-width: 0.200000"/>
   <line x1="851.940308" y1="1157.203125" x2="801.940308" y2="1157.203125" style="stroke: green; stroke-width: 0.200000"/>
   <line x1="851.940308" y1="1156.203125" x2="801.940308" y2="1156.203125" style="stroke: green; stroke-width: 0.200000"/>
   <line x1="851.940308" y1="1155.203125" x2="801.940308" y2="1155.203125" style="stroke: green; stroke-width: 0.200000"/>
   <line x1="851.940308" y1="1154.203003" x2="801.940308" y2="1154.203003" style="stroke: green; stroke-width: 0.200000"/>
   <line x1="851.940308" y1="1153.203003" x2="801.940308" y2="1153.203003" style="stroke: green; stroke-width: 0.200000"/>
   <line x1="851.940308" y1="1152.203125" x2="801.940308" y2="1152.203125" style="stroke: green; stroke-width: 0.200000"/>
   <line x1="851.940308" y1="1151.203125" x2="801.940308" y2="1151.203125" style="stroke: green; stroke-width: 0.200000"/>
   <line x1="851.940308" y1="1150.203125" x2="801.940308" y2="1150.203125" style="stroke: green; stroke-width: 0.200000"/>
   <line x1="851.940308" y1="1149.203003" x2="801.940308" y2="1149.203003" style="stroke: green; stroke-width: 0.200000"/>
   <line x1="851.940308" y1="1148.203003" x2="801.940308" y2="1148.203003" style="stroke: green; stroke-width: 0.200000"/>
   <line x1="851.940308" y1="1147.203125" x2="801.940308" y2="1147.203125" style="stroke: green; stroke-width: 0.200000"/>
   <line x1="851.940308" y1="1146.203125" x2="801.940308" y2="1146.203125" style="stroke: green; stroke-width: 0.200000"/>
   <line x1="851.940308" y1="1145.203125" x2="801.940308" y2="1145.203125" style="stroke: green; stroke-width: 0.200000"/>
   <line x1="851.940308" y1="1144.203003" x2="801.940308" y2="1144.203003" style="stroke: green; stroke-width: 0.200000"/>
   <line x1="851.940308" y1="1143.203003" x2="801.940308" y2="1143.203003" style="stroke: green; stroke-width: 0.200000"/>
   <line x1="851.940308" y1="1142.203125" x2="801.940308" y2="1142.203125" style="stroke: green; stroke-width: 0.200000"/>
   <line x1="851.940308" y1="1141.203125" x2="801.940308" y2="1141.203125" style="stroke: green; stroke-width: 0.200000"/>
   <line x1="851.940308" y1="1140.203125" x2="801.940308" y2="1140.203125" style="stroke: green; stroke-width: 0.200000"/>
   <line x1="851.940308" y1="1139.203003" x2="801.940308" y2="1139.203003" style="stroke: green; stroke-width: 0.200000"/>
   <line x1="854.425293" y1="1188.203003" x2="852.040344" y2="1188.203003" style="stroke: green; stroke-width: 0.200000"/>
   <line x1="855.319824" y1="1187.203125" x2="852.040344" y2="1187.203125" style="stroke: green; stroke-width: 0.200000"/>
   <line x1="856.214294" y1="1186.203125" x2="852.040344" y2="1186.203125" style="stroke: green; stroke-width: 0.200000"/>
   <line x1="857.540955" y1="1185.203125" x2="852.040344" y2="1185.203125" style="stroke: green; stroke-width: 0.200000"/>
   <line x1="859.491821" y1="1184.203003" x2="852.040344" y2="1184.203003" style="stroke: green; stroke-width: 0.200000"/>
   <line x1="864.118591" y1="1183.203003" x2="852.040344" y2="1183.203003" style="stroke: green; stroke-width: 0.200000"/>
   <line x1="868.617004" y1="1182.203125" x2="852.040344" y2="1182.203125" style="stroke: green; stroke-width: 0.200000"/>
   <line x1="878.160095" y1="1181.203125" x2="873.465637" y2="1181.203125" style="stroke: green; stroke-width: 0.200000"/>
   <line x1="872.760742" y1="1181.203125" x2="852.040344" y2="1181.203125" style="stroke: green; stroke-width: 0.200000"/>
   <line x1="877.927551" y1="1180.203125" x2="852.040344" y2="1180.203125" style="stroke: green; stroke-width: 0.200000"/>
   <line x1="877.694641" y1="1179.203003" x2="852.040344" y2="1179.203003" style="stroke: green; stroke-width: 0.200000"/>
   <line x1="877.461609" y1="1178.203003" x2="852.040344" y2="1178.203003" style="stroke: green; stroke-width: 0.200000"/>
   <line x1="877.228516" y1="1177.203125" x2="852.040344" y2="1177.203125" style="stroke: green; stroke-width: 0.200000"/>
   <line x1="878.806763" y1="1176.203125" x2="852.040344" y2="1176.203125" style="stroke: green; stroke-width: 0.200000"/>
   <line x1="881.119019" y1="1175.203125" x2="852.040344" y2="1175.203125" style="stroke: green; stroke-width: 0.200000"/>
   <line x1="883.432251" y1="1174.203003" x2="852.040344" y2="1174.203003" style="stroke: green; stroke-width: 0.200000"/>
   <line x1="885.745544" y1="1173.203003" x2="852.040344" y2="1173.203003" style="stroke: green; stroke-width: 0.200000"/>
   <line x1="888.058960" y1="1172.203125" x2="852.040344" y2="1172.203125" style="stroke: green; stroke-width: 0.200000"/>
   <line x1="894.676208" y1="1171.203125" x2="852.040344" y2="1171.203125" style="stroke: green; stroke-width: 0.200000"/>
   <line x1="895.371765" y1="1170.203125" x2="852.040344" y2="1170.203125" style="stroke: green; stroke-width: 0.200000"/>
   <line x1="895.564514" y1="1169.203003" x2="852.040344" y2="1169.203003" style="stroke: green; stroke-width: 0.200000"/>
   <line x1="895.474548" y1="1168.203003" x2="852.040344" y2="1168.203003" style="stroke: green; stroke-width: 0.200000"/>
   <line x1="895.132080" y1="1167.203125" x2="852.040344" y2="1167.203125" style="stroke: green; stroke-width: 0.200000"/>
   <line x1="894.789490" y1="1166.203125" x2="852.040344" y2="1166.203125" style="stroke: green; stroke-width: 0.200000"/>
   <line x1="894.447021" y1="1165.203125" x2="852.040344" y2="1165.203125" style="stroke: green; stroke-width: 0.200000"/>
   <line x1="894.174194" y1="1164.203003" x2="852.040344" y2="1164.203003" style="stroke: green; stroke-width: 0.200000"/>
   <line x1="894.059143" y1="1163.203003" x2="852.040344" y2="1163.203003" style="stroke: green; stroke-width: 0.200000"/>
   <line x1="893.944092" y1="1162.203125" x2="852.040344" y2="1162.203125" style="stroke: green; stroke-width: 0.200000"/>
   <line x1="893.829041" y1="1161.203125" x2="852.040344" y2="1161.203125" style="stroke: green; stroke-width: 0.200000"/>
   <line x1="893.713928" y1="1160.203125" x2="852.040344" y2="1160.203125" style="stroke: green; stroke-width: 0.200000"/>
   <line x1="893.598877" y1="1159.203003" x2="852.040344" y2="1159.203003" style="stroke: green; stroke-width: 0.200000"/>
   <line x1="893.483826" y1="1158.203003" x2="852.040344" y2="1158.203003" style="stroke: green; stroke-width: 0.200000"/>
   <line x1="893.368774" y1="1157.203125" x2="852.040344" y2="1157.203125" style="stroke: green; stroke-width: 0.200000"/>
   <line x1="893.253723" y1="1156.203125" x2="852.040344" y2="1156.203125" style="stroke: green; stroke-width: 0.200000"/>
   <line x1="893.138672" y1="1155.203125" x2="852.040344" y2="1155.203125" style="stroke: green; stroke-width: 0.200000"/>
   <line x1="893.023621" y1="1154.203003" x2="852.040344" y2="1154.203003" style="stroke: green; stroke-width: 0.200000"/>
   <line x1="893.314880" y1="1153.203003" x2="852.040344" y2="1153.203003" style="stroke: green; stroke-width: 0.200000"/>
   <line x1="895.510803" y1="1152.203125" x2="852.040344" y2="1152.203125" style="stroke: green; stroke-width: 0.200000"/>
   <line x1="897.706421" y1="1151.203125" x2="852.040344" y2="1151.203125" style="stroke: green; stroke-width: 0.200000"/>
   <line x1="897.214905" y1="1150.203125" x2="852.040344" y2="1150.203125" style="stroke: green; stroke-width: 0.200000"/>
   <line x1="896.398987" y1="1149.203003" x2="852.040344" y2="1149.203003" style="stroke: green; stroke-width: 0.200000"/>
   <line x1="895.583191" y1="1148.203003" x2="852.040344" y2="1148.203003" style="stroke: green; stroke-width: 0.200000"/>
   <line x1="894.767456" y1="1147.203125" x2="852.040344" y2="1147.203125" style="stroke: green; stroke-width: 0.200000"/>
   <line x1="893.897217" y1="1146.203125" x2="852.040344" y2="1146.203125" style="stroke: green; stroke-width: 0.200000"/>
   <line x1="892.861389" y1="1145.203125" x2="852.040344" y2="1145.203125" style="stroke: green; stroke-width: 0.200000"/>
   <line x1="891.956665" y1="1144.203003" x2="852.040344" y2="1144.203003" style="stroke: green; stroke-width: 0.200000"/>
   <line x1="891.292725" y1="1143.203003" x2="852.040344" y2="1143.203003" style="stroke: green; stroke-width: 0.200000"/>
   <line x1="890.628784" y1="1142.203125" x2="852.040344" y2="1142.203125" style="stroke: green; stroke-width: 0.200000"/>
   <line x1="889.964966" y1="1141.203125" x2="852.040344" y2="1141.203125" style="stroke: green; stroke-width: 0.200000"/>
   <line x1="889.301086" y1="1140.203125" x2="852.040344" y2="1140.203125" style="stroke: green; stroke-width: 0.200000"/>
   <line x1="888.637146" y1="1139.203003" x2="852.040344" y2="1139.203003" style="stroke: green; stroke-width: 0.200000"/>
   <line x1="801.840332" y1="1201.203125" x2="801.751709" y2="1201.203125" style="stroke: green; stroke-width: 0.200000"/>
   <line x1="801.840332" y1="1200.203125" x2="801.490234" y2="1200.203125" style="stroke: green; stroke-width: 0.200000"/>
   <line x1="801.840332" y1="1199.203003" x2="801.243225" y2="1199.203003" style="stroke: green; stroke-width: 0.200000"/>
   <line x1="801.840332" y1="1198.203003" x2="800.995972" y2="1198.203003" style="stroke: green; stroke-width: 0.200000"/>
   <line x1="801.840332" y1="1197.203125" x2="800.748840" y2="1197.203125" style="stroke: green; stroke-width: 0.200000"/>
   <line x1="801.840332" y1="1196.203125" x2="800.501709" y2="1196.203125" style="stroke: green; stroke-width: 0.200000"/>
   <line x1="801.840332" y1="1195.203125" x2="799.864014" y2="1195.203125" style="stroke: green; stroke-width: 0.200000"/>
   <line x1="801.840332" y1="1194.203003" x2="798.926453" y2="1194.203003" style="stroke: green; stroke-width: 0.200000"/>
   <line x1="801.840332" y1="1193.203003" x2="797.988831" y2="1193.203003" style="stroke: green; stroke-width: 0.200000"/>
   <line x1="801.840332" y1="1192.203125" x2="797.051270" y2="1192.203125" style="stroke: green; stroke-width: 0.200000"/>
   <line x1="801.840332" y1="1191.203125" x2="796.114136" y2="1191.203125" style="stroke: green; stroke-width: 0.200000"/>
   <line x1="801.840332" y1="1190.203125" x2="795.577698" y2="1190.203125" style="stroke: green; stroke-width: 0.200000"/>
   <line x1="801.840332" y1="1189.203003" x2="795.142517" y2="1189.203003" style="stroke: green; stroke-width: 0.200000"/>
   <line x1="833.505127" y1="1238.203003" x2="821.648560" y2="1238.203003" style="stroke: green; stroke-width: 0.200000"/>
   <line x1="840.718079" y1="1238.203003" x2="840.042603" y2="1238.203003" style="stroke: green; stroke-width: 0.200000"/>
   <line x1="841.077148" y1="1237.203125" x2="838.132385" y2="1237.203125" style="stroke: green; stroke-width: 0.200000"/>
   <line x1="834.415283" y1="1237.203125" x2="821.029053" y2="1237.203125" style="stroke: green; stroke-width: 0.200000"/>
   <line x1="835.325439" y1="1236.203125" x2="820.409546" y2="1236.203125" style="stroke: green; stroke-width: 0.200000"/>
   <line x1="813.203247" y1="1236.203125" x2="811.656189" y2="1236.203125" style="stroke: green; stroke-width: 0.200000"/>
   <line x1="841.436157" y1="1236.203125" x2="836.222229" y2="1236.203125" style="stroke: green; stroke-width: 0.200000"/>
   <line x1="841.767944" y1="1235.203125" x2="819.790039" y2="1235.203125" style="stroke: green; stroke-width: 0.200000"/>
   <line x1="815.607178" y1="1235.203125" x2="811.249939" y2="1235.203125" style="stroke: green; stroke-width: 0.200000"/>
   <line x1="818.010986" y1="1234.203003" x2="811.022400" y2="1234.203003" style="stroke: green; stroke-width: 0.200000"/>
   <line x1="841.873718" y1="1234.203003" x2="819.170532" y2="1234.203003" style="stroke: green; stroke-width: 0.200000"/>
   <line x1="841.983582" y1="1233.203003" x2="810.812622" y2="1233.203003" style="stroke: green; stroke-width: 0.200000"/>
   <line x1="842.111694" y1="1232.203125" x2="810.590454" y2="1232.203125" style="stroke: green; stroke-width: 0.200000"/>
   <line x1="842.226013" y1="1231.203125" x2="810.348999" y2="1231.203125" style="stroke: green; stroke-width: 0.200000"/>
   <line x1="842.335449" y1="1230.203125" x2="810.107544" y2="1230.203125" style="stroke: green; stroke-width: 0.200000"/>
   <line x1="842.444824" y1="1229.203003" x2="809.866089" y2="1229.203003" style="stroke: green; stroke-width: 0.200000"/>
   <line x1="842.554260" y1="1228.203003" x2="809.624634" y2="1228.203003" style="stroke: green; stroke-width: 0.200000"/>
   <line x1="842.663513" y1="1227.203125" x2="809.415771" y2="1227.203125" style="stroke: green; stroke-width: 0.200000"/>
   <line x1="842.772888" y1="1226.203125" x2="809.212280" y2="1226.203125" style="stroke: green; stroke-width: 0.200000"/>
   <line x1="842.882324" y1="1225.203125" x2="809.008789" y2="1225.203125" style="stroke: green; stroke-width: 0.200000"/>
   <line x1="842.991699" y1="1224.203003" x2="808.805298" y2="1224.203003" style="stroke: green; stroke-width: 0.200000"/>
   <line x1="843.169556" y1="1223.203003" x2="808.586548" y2="1223.203003" style="stroke: green; stroke-width: 0.200000"/>
   <line x1="843.374146" y1="1222.203125" x2="808.359253" y2="1222.203125" style="stroke: green; stroke-width: 0.200000"/>
   <line x1="843.578796" y1="1221.203125" x2="808.110291" y2="1221.203125" style="stroke: green; stroke-width: 0.200000"/>
   <line x1="843.783447" y1="1220.203125" x2="807.847900" y2="1220.203125" style="stroke: green; stroke-width: 0.200000"/>
   <line x1="843.988037" y1="1219.203003" x2="807.585510" y2="1219.203003" style="stroke: green; stroke-width: 0.200000"/>
   <line x1="844.192749" y1="1218.203003" x2="807.323059" y2="1218.203003" style="stroke: green; stroke-width: 0.200000"/>
   <line x1="844.397339" y1="1217.203125" x2="807.060669" y2="1217.203125" style="stroke: green; stroke-width: 0.200000"/>
   <line x1="844.549011" y1="1216.203125" x2="806.798340" y2="1216.203125" style="stroke: green; stroke-width: 0.200000"/>
   <line x1="844.643066" y1="1215.203125" x2="806.535950" y2="1215.203125" style="stroke: green; stroke-width: 0.200000"/>
   <line x1="844.708191" y1="1214.203003" x2="806.273560" y2="1214.203003" style="stroke: green; stroke-width: 0.200000"/>
   <line x1="844.743958" y1="1213.203003" x2="806.011230" y2="1213.203003" style="stroke: green; stroke-width: 0.200000"/>
   <line x1="844.828186" y1="1212.203125" x2="805.694275" y2="1212.203125" style="stroke: green; stroke-width: 0.200000"/>
   <line x1="844.965820" y1="1211.203125" x2="805.375305" y2="1211.203125" style="stroke: green; stroke-width: 0.200000"/>
   <line x1="845.103455" y1="1210.203125" x2="805.086914" y2="1210.203125" style="stroke: green; stroke-width: 0.200000"/>
   <line x1="845.241211" y1="1209.203003" x2="804.798523" y2="1209.203003" style="stroke: green; stroke-width: 0.200000"/>
   <line x1="845.378906" y1="1208.203003" x2="804.510193" y2="1208.203003" style="stroke: green; stroke-width: 0.200000"/>
   <line x1="845.516602" y1="1207.203125" x2="804.221802" y2="1207.203125" style="stroke: green; stroke-width: 0.200000"/>
   <line x1="845.654236" y1="1206.203125" x2="803.933472" y2="1206.203125" style="stroke: green; stroke-width: 0.200000"/>
   <line x1="845.791870" y1="1205.203125" x2="803.645081" y2="1205.203125" style="stroke: green; stroke-width: 0.200000"/>
   <line x1="845.992371" y1="1204.203003" x2="803.356689" y2="1204.203003" style="stroke: green; stroke-width: 0.200000"/>
   <line x1="846.298950" y1="1203.203003" x2="802.888794" y2="1203.203003" style="stroke: green; stroke-width: 0.200000"/>
   <line x1="846.605591" y1="1202.203125" x2="802.320251" y2="1202.203125" style="stroke: green; stroke-width: 0.200000"/>
   <line x1="846.912231" y1="1201.203125" x2="801.940308" y2="1201.203125" style="stroke: green; stroke-width: 0.200000"/>
   <line x1="847.219482" y1="1200.203125" x2="801.940308" y2="1200.203125" style="stroke: green; stroke-width: 0.200000"/>
   <line x1="847.526123" y1="1199.203003" x2="801.940308" y2="1199.203003" style="stroke: green; stroke-width: 0.200000"/>
   <line x1="847.832703" y1="1198.203003" x2="801.940308" y2="1198.203003" style="stroke: green; stroke-width: 0.200000"/>
   <line x1="848.138733" y1="1197.203125" x2="801.940308" y2="1197.203125" style="stroke: green; stroke-width: 0.200000"/>
   <line x1="848.445740" y1="1196.203125" x2="801.940308" y2="1196.203125" style="stroke: green; stroke-width: 0.200000"/>
   <line x1="848.752380" y1="1195.203125" x2="801.940308" y2="1195.203125" style="stroke: green; stroke-width: 0.200000"/>
   <line x1="849.095581" y1="1194.203003" x2="801.940308" y2="1194.203003" style="stroke: green; stroke-width: 0.200000"/>
   <line x1="849.953125" y1="1193.203003" x2="801.940308" y2="1193.203003" style="stroke: green; stroke-width: 0.200000"/>
   <line x1="850.847656" y1="1192.203125" x2="801.940308" y2="1192.203125" style="stroke: green; stroke-width: 0.200000"/>
   <line x1="851.742065" y1="1191.203125" x2="801.940308" y2="1191.203125" style="stroke: green; stroke-width: 0.200000"/>
   <line x1="851.940308" y1="1190.203125" x2="801.940308" y2="1190.203125" style="stroke: green; stroke-width: 0.200000"/>
   <line x1="851.940308" y1="1189.203003" x2="801.940308" y2="1189.203003" style="stroke: green; stroke-width: 0.200000"/>
   <line x1="852.636597" y1="1190.203125" x2="852.040344" y2="1190.203125" style="stroke: green; stroke-width: 0.200000"/>
   <line x1="853.530945" y1="1189.203003" x2="852.040344" y2="1189.203003" style="stroke: green; stroke-width: 0.200000"/>
   <line x1="827.262085" y1="1245.203125" x2="825.985046" y2="1245.203125" style="stroke: green; stroke-width: 0.200000"/>
   <line x1="828.043884" y1="1244.203003" x2="825.365540" y2="1244.203003" style="stroke: green; stroke-width: 0.200000"/>
   <line x1="828.954163" y1="1243.203003" x2="824.746033" y2="1243.203003" style="stroke: green; stroke-width: 0.200000"/>
   <line x1="829.864380" y1="1242.203125" x2="824.126587" y2="1242.203125" style="stroke: green; stroke-width: 0.200000"/>
   <line x1="830.774536" y1="1241.203125" x2="823.507080" y2="1241.203125" style="stroke: green; stroke-width: 0.200000"/>
   <line x1="831.684692" y1="1240.203125" x2="822.887573" y2="1240.203125" style="stroke: green; stroke-width: 0.200000"/>
   <line x1="832.594910" y1="1239.203003" x2="822.268066" y2="1239.203003" style="stroke: green; stroke-width: 0.200000"/>
   <line x1="829.763123" y1="1262.365845" x2="827.429688" y2="1262.365845" style="stroke: green; stroke-width: 0.200000"/>
   <line x1="830.285034" y1="1261.365845" x2="824.987915" y2="1261.365845" style="stroke: green; stroke-width: 0.200000"/>
   <line x1="830.806885" y1="1260.365967" x2="822.530151" y2="1260.365967" style="stroke: green; stroke-width: 0.200000"/>
   <line x1="831.350708" y1="1259.365967" x2="820.729858" y2="1259.365967" style="stroke: green; stroke-width: 0.200000"/>
   <line x1="832.161987" y1="1258.365967" x2="820.301392" y2="1258.365967" style="stroke: green; stroke-width: 0.200000"/>
   <line x1="832.973328" y1="1257.365845" x2="819.872803" y2="1257.365845" style="stroke: green; stroke-width: 0.200000"/>
   <line x1="833.784668" y1="1256.365845" x2="819.444336" y2="1256.365845" style="stroke: green; stroke-width: 0.200000"/>
   <line x1="834.595947" y1="1255.365967" x2="819.015808" y2="1255.365967" style="stroke: green; stroke-width: 0.200000"/>
   <line x1="835.407227" y1="1254.365967" x2="818.587341" y2="1254.365967" style="stroke: green; stroke-width: 0.200000"/>
   <line x1="836.218567" y1="1253.365967" x2="818.158875" y2="1253.365967" style="stroke: green; stroke-width: 0.200000"/>
   <line x1="836.756653" y1="1252.365845" x2="817.730347" y2="1252.365845" style="stroke: green; stroke-width: 0.200000"/>
   <line x1="836.986389" y1="1251.365845" x2="817.221191" y2="1251.365845" style="stroke: green; stroke-width: 0.200000"/>
   <line x1="837.291138" y1="1250.365967" x2="816.601807" y2="1250.365967" style="stroke: green; stroke-width: 0.200000"/>
   <line x1="837.575317" y1="1249.365967" x2="815.982300" y2="1249.365967" style="stroke: green; stroke-width: 0.200000"/>
   <line x1="837.805420" y1="1248.365967" x2="815.401489" y2="1248.365967" style="stroke: green; stroke-width: 0.200000"/>
   <line x1="838.035522" y1="1247.365845" x2="815.163269" y2="1247.365845" style="stroke: green; stroke-width: 0.200000"/>
   <line x1="838.265503" y1="1246.365845" x2="814.925171" y2="1246.365845" style="stroke: green; stroke-width: 0.200000"/>
   <line x1="826.085815" y1="1245.365967" x2="814.686951" y2="1245.365967" style="stroke: green; stroke-width: 0.200000"/>
   <line x1="838.495605" y1="1245.365967" x2="827.136475" y2="1245.365967" style="stroke: green; stroke-width: 0.200000"/>
   <line x1="838.725647" y1="1244.365967" x2="827.908936" y2="1244.365967" style="stroke: green; stroke-width: 0.200000"/>
   <line x1="825.466309" y1="1244.365967" x2="814.448853" y2="1244.365967" style="stroke: green; stroke-width: 0.200000"/>
   <line x1="824.846802" y1="1243.365967" x2="814.210693" y2="1243.365967" style="stroke: green; stroke-width: 0.200000"/>
   <line x1="838.955750" y1="1243.365967" x2="828.806091" y2="1243.365967" style="stroke: green; stroke-width: 0.200000"/>
   <line x1="824.227295" y1="1242.365845" x2="813.972534" y2="1242.365845" style="stroke: green; stroke-width: 0.200000"/>
   <line x1="839.223511" y1="1242.365845" x2="829.716248" y2="1242.365845" style="stroke: green; stroke-width: 0.200000"/>
   <line x1="839.582520" y1="1241.365845" x2="830.626465" y2="1241.365845" style="stroke: green; stroke-width: 0.200000"/>
   <line x1="823.607788" y1="1241.365845" x2="813.734375" y2="1241.365845" style="stroke: green; stroke-width: 0.200000"/>
   <line x1="839.941528" y1="1240.365967" x2="831.536621" y2="1240.365967" style="stroke: green; stroke-width: 0.200000"/>
   <line x1="822.988281" y1="1240.365967" x2="813.347412" y2="1240.365967" style="stroke: green; stroke-width: 0.200000"/>
   <line x1="840.300598" y1="1239.365967" x2="832.446838" y2="1239.365967" style="stroke: green; stroke-width: 0.200000"/>
   <line x1="822.368774" y1="1239.365967" x2="812.941162" y2="1239.365967" style="stroke: green; stroke-width: 0.200000"/>
   <line x1="840.353394" y1="1238.365967" x2="833.356995" y2="1238.365967" style="stroke: green; stroke-width: 0.200000"/>
   <line x1="821.749268" y1="1238.365967" x2="812.534851" y2="1238.365967" style="stroke: green; stroke-width: 0.200000"/>
   <line x1="838.443237" y1="1237.365845" x2="834.267212" y2="1237.365845" style="stroke: green; stroke-width: 0.200000"/>
   <line x1="821.129822" y1="1237.365845" x2="812.128601" y2="1237.365845" style="stroke: green; stroke-width: 0.200000"/>
   <line x1="836.533081" y1="1236.365845" x2="835.177368" y2="1236.365845" style="stroke: green; stroke-width: 0.200000"/>
   <line x1="820.510315" y1="1236.365845" x2="812.812012" y2="1236.365845" style="stroke: green; stroke-width: 0.200000"/>
   <line x1="819.890808" y1="1235.365967" x2="815.216003" y2="1235.365967" style="stroke: green; stroke-width: 0.200000"/>
   <line x1="819.271301" y1="1234.365967" x2="817.619873" y2="1234.365967" style="stroke: green; stroke-width: 0.200000"/>
   <line x1="891.710083" y1="1182.633911" x2="886.248169" y2="1182.633911" style="stroke: green; stroke-width: 0.200000"/>
   <line x1="899.406372" y1="1181.633911" x2="878.786072" y2="1181.633911" style="stroke: green; stroke-width: 0.200000"/>
   <line x1="900.636902" y1="1180.633911" x2="878.028015" y2="1180.633911" style="stroke: green; stroke-width: 0.200000"/>
   <line x1="901.867371" y1="1179.633911" x2="877.795044" y2="1179.633911" style="stroke: green; stroke-width: 0.200000"/>
   <line x1="903.200012" y1="1178.633911" x2="877.562195" y2="1178.633911" style="stroke: green; stroke-width: 0.200000"/>
   <line x1="904.649353" y1="1177.633911" x2="877.329041" y2="1177.633911" style="stroke: green; stroke-width: 0.200000"/>
   <line x1="905.751404" y1="1176.633911" x2="877.810547" y2="1176.633911" style="stroke: green; stroke-width: 0.200000"/>
   <line x1="905.848633" y1="1175.633911" x2="880.123413" y2="1175.633911" style="stroke: green; stroke-width: 0.200000"/>
   <line x1="905.938477" y1="1174.633911" x2="882.435669" y2="1174.633911" style="stroke: green; stroke-width: 0.200000"/>
   <line x1="906.073303" y1="1173.633911" x2="884.749084" y2="1173.633911" style="stroke: green; stroke-width: 0.200000"/>
   <line x1="906.265991" y1="1172.633911" x2="887.062439" y2="1172.633911" style="stroke: green; stroke-width: 0.200000"/>
   <line x1="906.458801" y1="1171.633911" x2="894.146179" y2="1171.633911" style="stroke: green; stroke-width: 0.200000"/>
   <line x1="906.651550" y1="1170.633911" x2="895.288757" y2="1170.633911" style="stroke: green; stroke-width: 0.200000"/>
   <line x1="906.844360" y1="1169.633911" x2="895.481567" y2="1169.633911" style="stroke: green; stroke-width: 0.200000"/>
   <line x1="907.037048" y1="1168.633911" x2="895.622192" y2="1168.633911" style="stroke: green; stroke-width: 0.200000"/>
   <line x1="907.012085" y1="1167.633911" x2="895.279663" y2="1167.633911" style="stroke: green; stroke-width: 0.200000"/>
   <line x1="906.669617" y1="1166.633911" x2="894.937195" y2="1166.633911" style="stroke: green; stroke-width: 0.200000"/>
   <line x1="906.327026" y1="1165.633911" x2="894.594727" y2="1165.633911" style="stroke: green; stroke-width: 0.200000"/>
   <line x1="905.984558" y1="1164.633911" x2="894.252258" y2="1164.633911" style="stroke: green; stroke-width: 0.200000"/>
   <line x1="905.642090" y1="1163.633911" x2="894.108826" y2="1163.633911" style="stroke: green; stroke-width: 0.200000"/>
   <line x1="905.299622" y1="1162.633911" x2="893.993774" y2="1162.633911" style="stroke: green; stroke-width: 0.200000"/>
   <line x1="904.957153" y1="1161.633911" x2="893.878723" y2="1161.633911" style="stroke: green; stroke-width: 0.200000"/>
   <line x1="904.471558" y1="1160.633911" x2="893.763672" y2="1160.633911" style="stroke: green; stroke-width: 0.200000"/>
   <line x1="903.850098" y1="1159.633911" x2="893.648560" y2="1159.633911" style="stroke: green; stroke-width: 0.200000"/>
   <line x1="903.088501" y1="1158.633911" x2="893.533447" y2="1158.633911" style="stroke: green; stroke-width: 0.200000"/>
   <line x1="902.424255" y1="1157.633911" x2="893.418457" y2="1157.633911" style="stroke: green; stroke-width: 0.200000"/>
   <line x1="901.759949" y1="1156.633911" x2="893.303345" y2="1156.633911" style="stroke: green; stroke-width: 0.200000"/>
   <line x1="901.095642" y1="1155.633911" x2="893.188354" y2="1155.633911" style="stroke: green; stroke-width: 0.200000"/>
   <line x1="900.431396" y1="1154.633911" x2="893.073242" y2="1154.633911" style="stroke: green; stroke-width: 0.200000"/>
   <line x1="899.767090" y1="1153.633911" x2="892.958252" y2="1153.633911" style="stroke: green; stroke-width: 0.200000"/>
   <line x1="899.102783" y1="1152.633911" x2="894.564880" y2="1152.633911" style="stroke: green; stroke-width: 0.200000"/>
   <line x1="898.382446" y1="1151.633911" x2="896.760803" y2="1151.633911" style="stroke: green; stroke-width: 0.200000"/>
   <line x1="878.201965" y1="1181.380859" x2="878.201538" y2="1181.380859" style="stroke: green; stroke-width: 0.200000"/>
   <path d="M 884.636  1183.93  877.109  1182.92  873.033  1182.68  866.468  1184.26  860.243  1185.5  857.675  1186.82  850.435  1194.91  850.237  1195.48  847.347  1204.9  846.259  1212.81  846.188  1214.8  845.99  1216.9  844.506  1224.15  843.684  1231.67  " style="fill: none; stroke: darkmagenta; stroke-width: 0.200000; fill-type: evenodd"  fill-opacity="1.000000" />
   <path d="M 843.684  1231.67  843.635  1232.11  843.449  1233.56  843.229  1235.65  840.56  1243.08  838.94  1250.12  838.463  1251.64  838.033  1253.51  832.549  1260.27  830.049  1265.06  822.133  1261.82  819.782  1260.96  816.148  1252.48  814.023  1249.05  812.275  1241.71  809.773  1235.55  809.222  1232.93  808.126  1228.38  807.265  1224.16  806.815  1222.18  804.55  1213.54  803.964  1211.72  801.861  1204.43  800.32  1201.72  800.088  1200.78  " style="fill: none; stroke: red; stroke-width: 0.200000; fill-type: evenodd"  fill-opacity="1.000000" />
   <path d="M 800.088  1200.78  799.033  1196.51  794.653  1191.84  793.082  1188.23  789.544  1184.36  785.585  1179.67  783.179  1176.25  778.047  1169.19  777.312  1168.01  772.668  1160.97  771.653  1159.35  768.209  1154.42  763.04  1148.35  762.326  1147.37  761.789  1146.52  757.156  1138.84  753.032  1131.5  752.24  1128.84  750.497  1121.44  750.34  1113.39  750.438  1110.84  751.603  1104.65  751.906  1101.4  753.028  1095.79  755.437  1089.28  756.373  1086.37  759.726  1078.65  760.278  1077.31  763.24  1071.63  764.87  1068.89  770.322  1061.14  774.097  1056.81  776.296  1054.37  778.879  1051.91  783.505  1048.16  792.051  1042.81  792.385  1042.64  800.809  1038.98  807.541  1037.14  809.033  1036.81  810.653  1037.01  819.292  1037.76  822.752  1039.34  829.622  1041  833.371  1043.88  839  1047.34  843.525  1050.35  849.105  1053.45  852.781  1056.77  857.808  1061.09  860.022  1064.12  863.956  1070.22  866.154  1072.67  870.391  1078.86  872.058  1081.7  875.046  1088.99  875.606  1090.94  876.816  1096.08  877.776  1100.47  878.235  1101.96  880.64  1111.6  881.185  1113.64  883.395  1122.25  883.779  1123.94  886.515  1131.39  887.71  1134.73  887.901  1135.31  889.532  1137.84  893.35  1143.59  895.259  1145.43  899.893  1151.11  902.694  1155.33  " style="fill: none; stroke: darkmagenta; stroke-width: 0.200000; fill-type: evenodd"  fill-opacity="1.000000" />
   <path d="M 902.694  1155.33  904.679  1158.32  905.239  1158.93  906.218  1160.69  908.7  1167.93  907.476  1174.28  907.213  1177.21  906.362  1178.27  903.424  1180.3  899.163  1183.76  887.666  1184.34  884.636  1183.93  " style="fill: none; stroke: red; stroke-width: 0.200000; fill-type: evenodd"  fill-opacity="1.000000" />
   <path d="M 888.91  1183.27  887.708  1183.33  877.206  1181.93  872.944  1181.67  866.253  1183.29  859.911  1184.55  857.053  1186.01  849.558  1194.39  849.287  1195.16  846.368  1204.68  845.261  1212.72  845.189  1214.73  844.999  1216.76  843.517  1224  842.642  1232  842.456  1233.45  842.247  1235.42  839.599  1242.8  838.273  1248.56  " style="fill: none; stroke: black; stroke-width: 0.200000; fill-type: evenodd"  fill-opacity="1.000000" />
   <path d="M 838.273  1248.56  837.974  1249.86  837.497  1251.37  837.11  1253.06  831.709  1259.72  829.584  1263.79  822.494  1260.88  820.531  1260.17  817.038  1252.02  814.958  1248.66  814.447  1246.52  " style="fill: none; stroke: red; stroke-width: 0.200000; fill-type: evenodd"  fill-opacity="1.000000" />
   <path d="M 814.447  1246.52  813.23  1241.4  810.733  1235.26  810.198  1232.71  809.102  1228.17  808.243  1223.95  807.786  1221.94  805.51  1213.26  804.921  1211.43  802.789  1204.04  801.258  1201.35  799.941  1196.02  795.501  1191.28  793.932  1187.67  790.295  1183.7  786.377  1179.06  783.992  1175.67  778.877  1168.64  778.155  1167.47  773.509  1160.43  772.487  1158.8  769.002  1153.81  763.827  1147.73  763.154  1146.8  762.64  1145.99  758.02  1138.34  753.958  1131.1  753.206  1128.58  751.495  1121.32  751.34  1113.4  751.434  1110.95  752.594  1104.79  752.897  1101.54  753.993  1096.06  756.383  1089.6  757.31  1086.73  760.647  1079.03  761.185  1077.73  764.114  1072.12  765.71  1069.43  771.11  1061.76  774.846  1057.47  777.013  1055.07  779.539  1052.66  784.087  1048.97  792.543  1043.68  792.81  1043.55  801.142  1039.93  807.781  1038.11  809.081  1037.83  810.548  1038.01  819.033  1038.74  822.424  1040.29  829.181  1041.92  832.803  1044.7  838.461  1048.19  843.005  1051.21  848.52  1054.27  852.12  1057.52  857.068  1061.77  859.197  1064.69  863.159  1070.83  865.366  1073.28  869.547  1079.4  871.16  1082.14  874.1  1089.32  874.638  1091.19  875.84  1096.3  876.808  1100.73  877.271  1102.23  879.671  1111.85  880.218  1113.89  882.423  1122.49  882.818  1124.22  885.575  1131.73  886.764  1135.05  886.991  1135.75  888.695  1138.39  892.577  1144.23  894.522  1146.11  899.087  1151.71  903.888  1158.93  904.173  1159.25  " style="fill: none; stroke: black; stroke-width: 0.200000; fill-type: evenodd"  fill-opacity="1.000000" />
   <path d="M 904.173  1159.25  904.422  1159.52  905.301  1161.09  907.667  1168  906.485  1174.14  906.244  1176.82  905.673  1177.54  902.823  1179.5  898.787  1182.78  888.91  1183.27  " style="fill: none; stroke: red; stroke-width: 0.200000; fill-type: evenodd"  fill-opacity="1.000000" />
   <path d="M 823.099  1348.83  823.831  1349.56  824.099  1350.56  823.831  1351.56  823.099  1352.29  822.099  1352.56  821.099  1352.29  820.367  1351.56  820.099  1350.56  820.367  1349.56  821.099  1348.83  822.099  1348.56  823.099  1348.83  " style="fill: none; stroke: purple; stroke-width: 0.500000; fill-type: evenodd"  fill-opacity="1.000000" />
   <path d="M 843.099  1348.83  843.831  1349.56  844.099  1350.56  843.831  1351.56  843.099  1352.29  842.099  1352.56  841.099  1352.29  840.367  1351.56  840.099  1350.56  840.367  1349.56  841.099  1348.83  842.099  1348.56  843.099  1348.83  " style="fill: none; stroke: purple; stroke-width: 0.500000; fill-type: evenodd"  fill-opacity="1.000000" />
   <path d="M 823.099  1328.83  823.831  1329.56  824.099  1330.56  823.831  1331.56  823.099  1332.29  822.099  1332.56  821.099  1332.29  820.367  1331.56  820.099  1330.56  820.367  1329.56  821.099  1328.83  822.099  1328.56  823.099  1328.83  " style="fill: none; stroke: purple; stroke-width: 0.500000; fill-type: evenodd"  fill-opacity="1.000000" />
   <path d="M 823.099  1308.83  823.831  1309.56  824.099  1310.56  823.831  1311.56  823.099  1312.29  822.099  1312.56  821.099  1312.29  820.367  1311.56  820.099  1310.56  820.367  1309.56  821.099  1308.83  822.099  1308.56  823.099  1308.83  " style="fill: none; stroke: purple; stroke-width: 0.500000; fill-type: evenodd"  fill-opacity="1.000000" />
   <path d="M 803.099  1308.83  803.831  1309.56  804.099  1310.56  803.831  1311.56  803.099  1312.29  802.099  1312.56  801.099  1312.29  800.367  1311.56  800.099  1310.56  800.367  1309.56  801.099  1308.83  802.099  1308.56  803.099  1308.83  " style="fill: none; stroke: purple; stroke-width: 0.500000; fill-type: evenodd"  fill-opacity="1.000000" />
   <path d="M 843.099  1288.83  843.831  1289.56  844.099  1290.56  843.831  1291.56  843.099  1292.29  842.099  1292.56  841.099  1292.29  840.436  1291.63  842.027  1288.58  842.099  1288.56  843.099  1288.83  " style="fill: none; stroke: purple; stroke-width: 0.500000; fill-type: evenodd"  fill-opacity="1.000000" />
   <path d="M 823.099  1288.83  823.831  1289.56  824.099  1290.56  823.831  1291.56  823.099  1292.29  822.099  1292.56  821.099  1292.29  820.367  1291.56  820.099  1290.56  820.367  1289.56  821.099  1288.83  822.099  1288.56  823.099  1288.83  " style="fill: none; stroke: purple; stroke-width: 0.500000; fill-type: evenodd"  fill-opacity="1.000000" />
   <path d="M 803.099  1288.83  803.831  1289.56  804.099  1290.56  803.831  1291.56  803.099  1292.29  802.099  1292.56  801.099  1292.29  800.367  1291.56  800.099  1290.56  800.367  1289.56  801.099  1288.83  802.099  1288.56  803.099  1288.83  " style="fill: none; stroke: purple; stroke-width: 0.500000; fill-type: evenodd"  fill-opacity="1.000000" />
   <path d="M 1003.66  1246.79  1004.98  1247.68  1005.87  1249  1006.18  1250.56  1005.87  1252.12  1004.98  1253.44  1003.66  1254.33  1002.1  1254.64  1000.54  1254.33  999.217  1253.44  998.333  1252.12  998.022  1250.56  998.333  1249  999.217  1247.68  1000.54  1246.79  1002.1  1246.48  1003.66  1246.79  " style="fill: none; stroke: purple; stroke-width: 0.500000; fill-type: evenodd"  fill-opacity="1.000000" />
   <path d="M 963.333  1226.76  964.771  1227.59  965.746  1228.94  966.091  1230.56  965.746  1232.18  964.771  1233.53  963.333  1234.36  961.682  1234.53  960.103  1234.02  958.87  1232.91  958.195  1231.39  958.195  1229.73  958.87  1228.21  960.103  1227.1  961.682  1226.59  963.333  1226.76  " style="fill: none; stroke: purple; stroke-width: 0.500000; fill-type: evenodd"  fill-opacity="1.000000" />
   <path d="M 983.318  1226.81  984.737  1227.63  985.701  1228.96  986.042  1230.56  985.701  1232.16  984.737  1233.49  983.318  1234.31  981.687  1234.48  980.128  1233.97  978.91  1232.88  978.243  1231.38  978.243  1229.74  978.91  1228.24  980.128  1227.15  981.687  1226.64  983.318  1226.81  " style="fill: none; stroke: purple; stroke-width: 0.500000; fill-type: evenodd"  fill-opacity="1.000000" />
   <path d="M 1003.28  1226.91  1004.67  1227.71  1005.6  1229  1005.93  1230.56  1005.6  1232.12  1004.67  1233.41  1003.28  1234.21  1001.7  1234.37  1000.18  1233.88  998.996  1232.81  998.348  1231.36  998.348  1229.76  998.996  1228.3  1000.18  1227.24  1001.7  1226.74  1003.28  1226.91  " style="fill: none; stroke: purple; stroke-width: 0.500000; fill-type: evenodd"  fill-opacity="1.000000" />
   <path d="M 1003.77  1206.53  1005.18  1207.48  1006.13  1208.89  1006.46  1210.56  1006.13  1212.23  1005.18  1213.64  1003.77  1214.58  1002.1  1214.92  1000.43  1214.58  999.018  1213.64  998.074  1212.23  997.742  1210.56  998.074  1208.89  999.018  1207.48  1000.43  1206.53  1002.1  1206.2  1003.77  1206.53  " style="fill: none; stroke: purple; stroke-width: 0.500000; fill-type: evenodd"  fill-opacity="1.000000" />
   <path d="M 984.152  1207.99  985.065  1209.13  985.391  1210.56  985.065  1211.99  984.152  1213.13  982.832  1213.77  981.367  1213.77  980.047  1213.13  979.134  1211.99  978.808  1210.56  979.134  1209.13  980.047  1207.99  981.367  1207.35  982.832  1207.35  984.152  1207.99  " style="fill: none; stroke: purple; stroke-width: 0.500000; fill-type: evenodd"  fill-opacity="1.000000" />
   <path d="M 924.12  1208.03  925.02  1209.15  925.341  1210.56  925.02  1211.97  924.12  1213.09  922.821  1213.72  921.378  1213.72  920.078  1213.09  919.179  1211.97  918.858  1210.56  919.179  1209.15  920.078  1208.03  921.378  1207.4  922.821  1207.4  924.12  1208.03  " style="fill: none; stroke: purple; stroke-width: 0.500000; fill-type: evenodd"  fill-opacity="1.000000" />
   <path d="M 963.797  1208.1  964.746  1209.17  965.089  1210.56  964.746  1211.95  963.797  1213.02  962.46  1213.53  961.039  1213.35  959.862  1212.54  959.197  1211.27  959.197  1209.84  959.862  1208.58  961.039  1207.76  962.46  1207.59  963.797  1208.1  " style="fill: none; stroke: purple; stroke-width: 0.500000; fill-type: evenodd"  fill-opacity="1.000000" />
   <path d="M 943.614  1208.36  944.461  1209.32  944.766  1210.56  944.461  1211.8  943.614  1212.75  942.421  1213.21  941.154  1213.05  940.103  1212.33  939.51  1211.2  939.51  1209.92  940.103  1208.79  941.154  1208.07  942.421  1207.91  943.614  1208.36  " style="fill: none; stroke: purple; stroke-width: 0.500000; fill-type: evenodd"  fill-opacity="1.000000" />
   <path d="M 963.721  1188.21  964.628  1189.23  964.955  1190.56  964.628  1191.89  963.721  1192.91  962.444  1193.39  961.087  1193.23  959.962  1192.45  959.327  1191.24  959.327  1189.88  959.962  1188.67  961.087  1187.89  962.444  1187.72  963.721  1188.21  " style="fill: none; stroke: purple; stroke-width: 0.500000; fill-type: evenodd"  fill-opacity="1.000000" />
   <path d="M 943.099  1188.83  943.831  1189.56  944.099  1190.56  943.831  1191.56  943.099  1192.29  942.099  1192.56  941.099  1192.29  940.367  1191.56  940.099  1190.56  940.367  1189.56  941.099  1188.83  942.099  1188.56  943.099  1188.83  " style="fill: none; stroke: purple; stroke-width: 0.500000; fill-type: evenodd"  fill-opacity="1.000000" />
   <path d="M 924.099  1190.56  923.831  1191.56  923.099  1192.29  922.572  1192.43  924.091  1190.53  924.099  1190.56  " style="fill: none; stroke: purple; stroke-width: 0.500000; fill-type: evenodd"  fill-opacity="1.000000" />
   <path d="M 943.32  1166.8  944.742  1167.62  945.707  1168.95  946.048  1170.56  945.707  1172.17  945.479  1172.48  940.869  1166.9  941.687  1166.63  943.32  1166.8  " style="fill: none; stroke: purple; stroke-width: 0.500000; fill-type: evenodd"  fill-opacity="1.000000" />
</svg>
