<?xml version="1.0" encoding="UTF-8" standalone="yes"?>
<!DOCTYPE svg PUBLIC "-//W3C//DTD SVG 1.0//EN" "http://www.w3.org/TR/2001/REC-SVG-20010904/DTD/svg10.dtd">
<svg height="2000" width="2000" xmlns="http://www.w3.org/2000/svg" xmlns:svg="http://www.w3.org/2000/svg" xmlns:xlink="http://www.w3.org/1999/xlink">
   <marker id="endArrow" markerHeight="8" markerUnits="strokeWidth" markerWidth="10" orient="auto" refX="1" refY="5" viewBox="0 0 1000 1000">
      <polyline fill="darkblue" points="0,0 10,5 0,10 1,5" />
   </marker>
   <circle cx="1000" cy="1000" r="1" style="stroke:black; fill: red" />
   <circle cx="1000" cy="1000" r="800" style="stroke:black; fill: none" />
   <line x1="801.053589" y1="1281.471069" x2="801.053589" y2="1316.649902" style="stroke: green; stroke-width: 0.200000"/>
   <line x1="802.053589" y1="1279.295166" x2="802.053589" y2="1316.649902" style="stroke: green; stroke-width: 0.200000"/>
   <line x1="803.053589" y1="1277.983643" x2="803.053589" y2="1316.649902" style="stroke: green; stroke-width: 0.200000"/>
   <line x1="804.053650" y1="1276.672119" x2="804.053650" y2="1316.649902" style="stroke: green; stroke-width: 0.200000"/>
   <line x1="805.053650" y1="1275.360474" x2="805.053650" y2="1316.649902" style="stroke: green; stroke-width: 0.200000"/>
   <line x1="806.053589" y1="1274.048950" x2="806.053589" y2="1316.649902" style="stroke: green; stroke-width: 0.200000"/>
   <line x1="807.053589" y1="1272.737305" x2="807.053589" y2="1316.649902" style="stroke: green; stroke-width: 0.200000"/>
   <line x1="808.053589" y1="1271.333252" x2="808.053589" y2="1316.649902" style="stroke: green; stroke-width: 0.200000"/>
   <line x1="809.053650" y1="1269.989502" x2="809.053650" y2="1316.649902" style="stroke: green; stroke-width: 0.200000"/>
   <line x1="810.053650" y1="1269.458008" x2="810.053650" y2="1316.649902" style="stroke: green; stroke-width: 0.200000"/>
   <line x1="811.053589" y1="1268.926636" x2="811.053589" y2="1316.649902" style="stroke: green; stroke-width: 0.200000"/>
   <line x1="812.053589" y1="1268.395142" x2="812.053589" y2="1316.649902" style="stroke: green; stroke-width: 0.200000"/>
   <line x1="813.053589" y1="1267.863647" x2="813.053589" y2="1316.649902" style="stroke: green; stroke-width: 0.200000"/>
   <line x1="814.053650" y1="1267.496826" x2="814.053650" y2="1316.649902" style="stroke: green; stroke-width: 0.200000"/>
   <line x1="815.053650" y1="1267.179199" x2="815.053650" y2="1316.649902" style="stroke: green; stroke-width: 0.200000"/>
   <line x1="816.053589" y1="1266.861450" x2="816.053589" y2="1316.649902" style="stroke: green; stroke-width: 0.200000"/>
   <line x1="817.053589" y1="1266.826538" x2="817.053589" y2="1316.649902" style="stroke: green; stroke-width: 0.200000"/>
   <line x1="818.053589" y1="1267.355469" x2="818.053589" y2="1316.649902" style="stroke: green; stroke-width: 0.200000"/>
   <line x1="819.053650" y1="1267.884277" x2="819.053650" y2="1316.649902" style="stroke: green; stroke-width: 0.200000"/>
   <line x1="820.053650" y1="1268.413208" x2="820.053650" y2="1316.649902" style="stroke: green; stroke-width: 0.200000"/>
   <line x1="821.053589" y1="1268.942017" x2="821.053589" y2="1316.649902" style="stroke: green; stroke-width: 0.200000"/>
   <line x1="822.053589" y1="1269.470947" x2="822.053589" y2="1316.649902" style="stroke: green; stroke-width: 0.200000"/>
   <line x1="823.053589" y1="1270.369019" x2="823.053589" y2="1316.649902" style="stroke: green; stroke-width: 0.200000"/>
   <line x1="824.053650" y1="1271.444580" x2="824.053650" y2="1316.649902" style="stroke: green; stroke-width: 0.200000"/>
   <line x1="825.053650" y1="1272.520142" x2="825.053650" y2="1316.649902" style="stroke: green; stroke-width: 0.200000"/>
   <line x1="826.053589" y1="1273.895142" x2="826.053589" y2="1316.649902" style="stroke: green; stroke-width: 0.200000"/>
   <line x1="827.053589" y1="1276.203491" x2="827.053589" y2="1316.649902" style="stroke: green; stroke-width: 0.200000"/>
   <line x1="828.053589" y1="1278.813354" x2="828.053589" y2="1316.649902" style="stroke: green; stroke-width: 0.200000"/>
   <line x1="829.053650" y1="1281.450439" x2="829.053650" y2="1316.649902" style="stroke: green; stroke-width: 0.200000"/>
   <line x1="830.053650" y1="1283.922852" x2="830.053650" y2="1316.649902" style="stroke: green; stroke-width: 0.200000"/>
   <line x1="831.053589" y1="1286.183105" x2="831.053589" y2="1316.649902" style="stroke: green; stroke-width: 0.200000"/>
   <line x1="832.053589" y1="1289.433594" x2="832.053589" y2="1316.649902" style="stroke: green; stroke-width: 0.200000"/>
   <line x1="833.053589" y1="1292.929810" x2="833.053589" y2="1316.649902" style="stroke: green; stroke-width: 0.200000"/>
   <line x1="834.053650" y1="1296.426270" x2="834.053650" y2="1316.649902" style="stroke: green; stroke-width: 0.200000"/>
   <line x1="835.053650" y1="1299.843140" x2="835.053650" y2="1316.649902" style="stroke: green; stroke-width: 0.200000"/>
   <line x1="836.053589" y1="1303.562256" x2="836.053589" y2="1316.649902" style="stroke: green; stroke-width: 0.200000"/>
   <line x1="837.053589" y1="1307.301025" x2="837.053589" y2="1316.649902" style="stroke: green; stroke-width: 0.200000"/>
   <line x1="838.053589" y1="1310.742432" x2="838.053589" y2="1316.649902" style="stroke: green; stroke-width: 0.200000"/>
   <line x1="839.053650" y1="1314.459351" x2="839.053650" y2="1316.649902" style="stroke: green; stroke-width: 0.200000"/>
   <line x1="800.053650" y1="1283.576904" x2="800.053650" y2="1315.905640" style="stroke: green; stroke-width: 0.200000"/>
   <line x1="799.053650" y1="1285.682861" x2="799.053650" y2="1314.757568" style="stroke: green; stroke-width: 0.200000"/>
   <line x1="798.053589" y1="1287.788696" x2="798.053589" y2="1313.621216" style="stroke: green; stroke-width: 0.200000"/>
   <line x1="797.053589" y1="1289.894531" x2="797.053589" y2="1312.492798" style="stroke: green; stroke-width: 0.200000"/>
   <line x1="796.053589" y1="1292.599121" x2="796.053589" y2="1311.364502" style="stroke: green; stroke-width: 0.200000"/>
   <line x1="795.053650" y1="1296.873779" x2="795.053650" y2="1309.396973" style="stroke: green; stroke-width: 0.200000"/>
   <line x1="794.053650" y1="1303.645996" x2="794.053650" y2="1307.220581" style="stroke: green; stroke-width: 0.200000"/>
   <line x1="832.053589" y1="1316.749878" x2="832.053589" y2="1366.749878" style="stroke: green; stroke-width: 0.200000"/>
   <line x1="833.053589" y1="1316.749878" x2="833.053589" y2="1366.749878" style="stroke: green; stroke-width: 0.200000"/>
   <line x1="834.053650" y1="1316.749878" x2="834.053650" y2="1366.749878" style="stroke: green; stroke-width: 0.200000"/>
   <line x1="835.053650" y1="1316.749878" x2="835.053650" y2="1366.749878" style="stroke: green; stroke-width: 0.200000"/>
   <line x1="836.053589" y1="1316.749878" x2="836.053589" y2="1366.749878" style="stroke: green; stroke-width: 0.200000"/>
   <line x1="837.053589" y1="1316.749878" x2="837.053589" y2="1366.749878" style="stroke: green; stroke-width: 0.200000"/>
   <line x1="838.053589" y1="1316.749878" x2="838.053589" y2="1366.749878" style="stroke: green; stroke-width: 0.200000"/>
   <line x1="839.053650" y1="1316.749878" x2="839.053650" y2="1366.749878" style="stroke: green; stroke-width: 0.200000"/>
   <line x1="840.053650" y1="1318.176147" x2="840.053650" y2="1366.749878" style="stroke: green; stroke-width: 0.200000"/>
   <line x1="841.053589" y1="1321.194092" x2="841.053589" y2="1366.749878" style="stroke: green; stroke-width: 0.200000"/>
   <line x1="842.053589" y1="1326.010620" x2="842.053589" y2="1366.749878" style="stroke: green; stroke-width: 0.200000"/>
   <line x1="843.053589" y1="1330.233765" x2="843.053589" y2="1366.749878" style="stroke: green; stroke-width: 0.200000"/>
   <line x1="831.053589" y1="1316.749878" x2="831.053589" y2="1365.464355" style="stroke: green; stroke-width: 0.200000"/>
   <line x1="830.053650" y1="1316.749878" x2="830.053650" y2="1363.389771" style="stroke: green; stroke-width: 0.200000"/>
   <line x1="829.053650" y1="1316.749878" x2="829.053650" y2="1361.198730" style="stroke: green; stroke-width: 0.200000"/>
   <line x1="828.053589" y1="1316.749878" x2="828.053589" y2="1358.979614" style="stroke: green; stroke-width: 0.200000"/>
   <line x1="827.053589" y1="1316.749878" x2="827.053589" y2="1357.059326" style="stroke: green; stroke-width: 0.200000"/>
   <line x1="826.053589" y1="1316.749878" x2="826.053589" y2="1355.138916" style="stroke: green; stroke-width: 0.200000"/>
   <line x1="825.053650" y1="1316.749878" x2="825.053650" y2="1353.218262" style="stroke: green; stroke-width: 0.200000"/>
   <line x1="824.053650" y1="1316.749878" x2="824.053650" y2="1351.376831" style="stroke: green; stroke-width: 0.200000"/>
   <line x1="823.053589" y1="1316.749878" x2="823.053589" y2="1349.585693" style="stroke: green; stroke-width: 0.200000"/>
   <line x1="822.053589" y1="1316.749878" x2="822.053589" y2="1347.794678" style="stroke: green; stroke-width: 0.200000"/>
   <line x1="821.053589" y1="1316.749878" x2="821.053589" y2="1345.998535" style="stroke: green; stroke-width: 0.200000"/>
   <line x1="820.053650" y1="1316.749878" x2="820.053650" y2="1344.116333" style="stroke: green; stroke-width: 0.200000"/>
   <line x1="819.053650" y1="1316.749878" x2="819.053650" y2="1342.131470" style="stroke: green; stroke-width: 0.200000"/>
   <line x1="818.053589" y1="1316.749878" x2="818.053589" y2="1340.065918" style="stroke: green; stroke-width: 0.200000"/>
   <line x1="817.053589" y1="1316.749878" x2="817.053589" y2="1338.478027" style="stroke: green; stroke-width: 0.200000"/>
   <line x1="816.053589" y1="1316.749878" x2="816.053589" y2="1336.890625" style="stroke: green; stroke-width: 0.200000"/>
   <line x1="815.053650" y1="1316.749878" x2="815.053650" y2="1335.302856" style="stroke: green; stroke-width: 0.200000"/>
   <line x1="814.053650" y1="1316.749878" x2="814.053650" y2="1333.776978" style="stroke: green; stroke-width: 0.200000"/>
   <line x1="813.053589" y1="1316.749878" x2="813.053589" y2="1332.371826" style="stroke: green; stroke-width: 0.200000"/>
   <line x1="812.053589" y1="1316.749878" x2="812.053589" y2="1330.966064" style="stroke: green; stroke-width: 0.200000"/>
   <line x1="811.053589" y1="1316.749878" x2="811.053589" y2="1329.560669" style="stroke: green; stroke-width: 0.200000"/>
   <line x1="810.053650" y1="1316.749878" x2="810.053650" y2="1328.028076" style="stroke: green; stroke-width: 0.200000"/>
   <line x1="809.053650" y1="1316.749878" x2="809.053650" y2="1326.354004" style="stroke: green; stroke-width: 0.200000"/>
   <line x1="808.053589" y1="1316.749878" x2="808.053589" y2="1324.945068" style="stroke: green; stroke-width: 0.200000"/>
   <line x1="807.053589" y1="1316.749878" x2="807.053589" y2="1323.696289" style="stroke: green; stroke-width: 0.200000"/>
   <line x1="806.053589" y1="1316.749878" x2="806.053589" y2="1322.447510" style="stroke: green; stroke-width: 0.200000"/>
   <line x1="805.053650" y1="1316.749878" x2="805.053650" y2="1321.361694" style="stroke: green; stroke-width: 0.200000"/>
   <line x1="804.053650" y1="1316.749878" x2="804.053650" y2="1320.318726" style="stroke: green; stroke-width: 0.200000"/>
   <line x1="803.053589" y1="1316.749878" x2="803.053589" y2="1319.275879" style="stroke: green; stroke-width: 0.200000"/>
   <line x1="802.053589" y1="1316.749878" x2="802.053589" y2="1318.201660" style="stroke: green; stroke-width: 0.200000"/>
   <line x1="801.053589" y1="1316.749878" x2="801.053589" y2="1317.053711" style="stroke: green; stroke-width: 0.200000"/>
   <line x1="845.053650" y1="1339.689453" x2="845.053650" y2="1366.749878" style="stroke: green; stroke-width: 0.200000"/>
   <line x1="846.053589" y1="1346.398315" x2="846.053589" y2="1366.749878" style="stroke: green; stroke-width: 0.200000"/>
   <line x1="847.053589" y1="1350.517578" x2="847.053589" y2="1366.749878" style="stroke: green; stroke-width: 0.200000"/>
   <line x1="848.053589" y1="1356.563721" x2="848.053589" y2="1366.749878" style="stroke: green; stroke-width: 0.200000"/>
   <line x1="849.053650" y1="1366.078369" x2="849.053650" y2="1366.749878" style="stroke: green; stroke-width: 0.200000"/>
   <line x1="843.053589" y1="1366.849976" x2="843.053589" y2="1377.268555" style="stroke: green; stroke-width: 0.200000"/>
   <line x1="842.053589" y1="1366.849976" x2="842.053589" y2="1377.238281" style="stroke: green; stroke-width: 0.200000"/>
   <line x1="841.053589" y1="1366.849976" x2="841.053589" y2="1377.208130" style="stroke: green; stroke-width: 0.200000"/>
   <line x1="840.053650" y1="1366.849976" x2="840.053650" y2="1377.177856" style="stroke: green; stroke-width: 0.200000"/>
   <line x1="839.053650" y1="1366.849976" x2="839.053650" y2="1376.481689" style="stroke: green; stroke-width: 0.200000"/>
   <line x1="838.053589" y1="1366.849976" x2="838.053589" y2="1375.481689" style="stroke: green; stroke-width: 0.200000"/>
   <line x1="837.053589" y1="1366.849976" x2="837.053589" y2="1374.429443" style="stroke: green; stroke-width: 0.200000"/>
   <line x1="836.053589" y1="1366.849976" x2="836.053589" y2="1373.362305" style="stroke: green; stroke-width: 0.200000"/>
   <line x1="835.053650" y1="1366.849976" x2="835.053650" y2="1372.295044" style="stroke: green; stroke-width: 0.200000"/>
   <line x1="834.053650" y1="1366.849976" x2="834.053650" y2="1371.227783" style="stroke: green; stroke-width: 0.200000"/>
   <line x1="833.053589" y1="1366.849976" x2="833.053589" y2="1369.613525" style="stroke: green; stroke-width: 0.200000"/>
   <line x1="832.053589" y1="1366.849976" x2="832.053589" y2="1367.539062" style="stroke: green; stroke-width: 0.200000"/>
   <line x1="845.053650" y1="1366.849976" x2="845.053650" y2="1377.293213" style="stroke: green; stroke-width: 0.200000"/>
   <line x1="846.053589" y1="1366.849976" x2="846.053589" y2="1377.290283" style="stroke: green; stroke-width: 0.200000"/>
   <line x1="847.053589" y1="1366.849976" x2="847.053589" y2="1377.287476" style="stroke: green; stroke-width: 0.200000"/>
   <line x1="848.053589" y1="1366.849976" x2="848.053589" y2="1377.284546" style="stroke: green; stroke-width: 0.200000"/>
   <line x1="849.053650" y1="1366.849976" x2="849.053650" y2="1377.281616" style="stroke: green; stroke-width: 0.200000"/>
   <line x1="937.737793" y1="1183.241211" x2="937.737793" y2="1223.686401" style="stroke: green; stroke-width: 0.200000"/>
   <line x1="938.737793" y1="1184.234863" x2="938.737793" y2="1223.686401" style="stroke: green; stroke-width: 0.200000"/>
   <line x1="939.737793" y1="1185.356445" x2="939.737793" y2="1223.686401" style="stroke: green; stroke-width: 0.200000"/>
   <line x1="940.737793" y1="1186.607910" x2="940.737793" y2="1223.686401" style="stroke: green; stroke-width: 0.200000"/>
   <line x1="941.737732" y1="1187.859497" x2="941.737732" y2="1223.686401" style="stroke: green; stroke-width: 0.200000"/>
   <line x1="942.737793" y1="1189.077148" x2="942.737793" y2="1223.686401" style="stroke: green; stroke-width: 0.200000"/>
   <line x1="943.737793" y1="1190.282837" x2="943.737793" y2="1223.686401" style="stroke: green; stroke-width: 0.200000"/>
   <line x1="944.737793" y1="1191.488525" x2="944.737793" y2="1223.686401" style="stroke: green; stroke-width: 0.200000"/>
   <line x1="945.737793" y1="1192.566895" x2="945.737793" y2="1223.686401" style="stroke: green; stroke-width: 0.200000"/>
   <line x1="946.737732" y1="1193.569458" x2="946.737732" y2="1223.686401" style="stroke: green; stroke-width: 0.200000"/>
   <line x1="947.737793" y1="1194.668701" x2="947.737793" y2="1223.686401" style="stroke: green; stroke-width: 0.200000"/>
   <line x1="948.737793" y1="1195.923096" x2="948.737793" y2="1223.686401" style="stroke: green; stroke-width: 0.200000"/>
   <line x1="949.737793" y1="1197.177734" x2="949.737793" y2="1223.686401" style="stroke: green; stroke-width: 0.200000"/>
   <line x1="950.737793" y1="1198.432373" x2="950.737793" y2="1223.686401" style="stroke: green; stroke-width: 0.200000"/>
   <line x1="951.737732" y1="1199.589722" x2="951.737732" y2="1223.686401" style="stroke: green; stroke-width: 0.200000"/>
   <line x1="952.737793" y1="1200.452759" x2="952.737793" y2="1223.686401" style="stroke: green; stroke-width: 0.200000"/>
   <line x1="953.737793" y1="1201.316040" x2="953.737793" y2="1223.686401" style="stroke: green; stroke-width: 0.200000"/>
   <line x1="936.737732" y1="1182.247803" x2="936.737732" y2="1223.351807" style="stroke: green; stroke-width: 0.200000"/>
   <line x1="935.737793" y1="1181.254272" x2="935.737793" y2="1222.651611" style="stroke: green; stroke-width: 0.200000"/>
   <line x1="934.737793" y1="1180.212402" x2="934.737793" y2="1221.951660" style="stroke: green; stroke-width: 0.200000"/>
   <line x1="933.737793" y1="1179.122559" x2="933.737793" y2="1221.251709" style="stroke: green; stroke-width: 0.200000"/>
   <line x1="932.737793" y1="1178.139038" x2="932.737793" y2="1220.551758" style="stroke: green; stroke-width: 0.200000"/>
   <line x1="931.737732" y1="1177.315796" x2="931.737732" y2="1219.851807" style="stroke: green; stroke-width: 0.200000"/>
   <line x1="930.737793" y1="1176.840698" x2="930.737793" y2="1219.151855" style="stroke: green; stroke-width: 0.200000"/>
   <line x1="929.737793" y1="1176.481812" x2="929.737793" y2="1218.451904" style="stroke: green; stroke-width: 0.200000"/>
   <line x1="928.737793" y1="1176.123047" x2="928.737793" y2="1217.698120" style="stroke: green; stroke-width: 0.200000"/>
   <line x1="927.737793" y1="1175.764282" x2="927.737793" y2="1216.861694" style="stroke: green; stroke-width: 0.200000"/>
   <line x1="926.737732" y1="1175.405518" x2="926.737732" y2="1216.025269" style="stroke: green; stroke-width: 0.200000"/>
   <line x1="925.737793" y1="1175.046631" x2="925.737793" y2="1215.188843" style="stroke: green; stroke-width: 0.200000"/>
   <line x1="924.737793" y1="1174.687866" x2="924.737793" y2="1214.352417" style="stroke: green; stroke-width: 0.200000"/>
   <line x1="923.737793" y1="1174.362183" x2="923.737793" y2="1213.515991" style="stroke: green; stroke-width: 0.200000"/>
   <line x1="922.737793" y1="1174.088745" x2="922.737793" y2="1212.679565" style="stroke: green; stroke-width: 0.200000"/>
   <line x1="921.737732" y1="1173.815430" x2="921.737732" y2="1211.817383" style="stroke: green; stroke-width: 0.200000"/>
   <line x1="920.737793" y1="1173.789307" x2="920.737793" y2="1210.932495" style="stroke: green; stroke-width: 0.200000"/>
   <line x1="919.737793" y1="1173.984253" x2="919.737793" y2="1210.047729" style="stroke: green; stroke-width: 0.200000"/>
   <line x1="918.737793" y1="1174.179199" x2="918.737793" y2="1209.162842" style="stroke: green; stroke-width: 0.200000"/>
   <line x1="917.737793" y1="1174.374268" x2="917.737793" y2="1208.278076" style="stroke: green; stroke-width: 0.200000"/>
   <line x1="916.737732" y1="1174.569214" x2="916.737732" y2="1207.393311" style="stroke: green; stroke-width: 0.200000"/>
   <line x1="915.737793" y1="1174.764160" x2="915.737793" y2="1206.386597" style="stroke: green; stroke-width: 0.200000"/>
   <line x1="914.737793" y1="1174.959106" x2="914.737793" y2="1205.304810" style="stroke: green; stroke-width: 0.200000"/>
   <line x1="913.737793" y1="1175.140259" x2="913.737793" y2="1204.219971" style="stroke: green; stroke-width: 0.200000"/>
   <line x1="912.737793" y1="1175.288818" x2="912.737793" y2="1203.119141" style="stroke: green; stroke-width: 0.200000"/>
   <line x1="911.737732" y1="1175.437378" x2="911.737732" y2="1202.018311" style="stroke: green; stroke-width: 0.200000"/>
   <line x1="910.737793" y1="1176.017090" x2="910.737793" y2="1200.917358" style="stroke: green; stroke-width: 0.200000"/>
   <line x1="909.737793" y1="1176.984741" x2="909.737793" y2="1199.816406" style="stroke: green; stroke-width: 0.200000"/>
   <line x1="908.737793" y1="1177.952515" x2="908.737793" y2="1197.914062" style="stroke: green; stroke-width: 0.200000"/>
   <line x1="907.737793" y1="1178.920166" x2="907.737793" y2="1195.800903" style="stroke: green; stroke-width: 0.200000"/>
   <line x1="906.737732" y1="1179.887939" x2="906.737732" y2="1193.687744" style="stroke: green; stroke-width: 0.200000"/>
   <line x1="905.737793" y1="1180.855591" x2="905.737793" y2="1192.203125" style="stroke: green; stroke-width: 0.200000"/>
   <line x1="904.737793" y1="1185.467773" x2="904.737793" y2="1190.747192" style="stroke: green; stroke-width: 0.200000"/>
   <line x1="954.737793" y1="1202.179077" x2="954.737793" y2="1223.686401" style="stroke: green; stroke-width: 0.200000"/>
   <line x1="955.737793" y1="1203.042236" x2="955.737793" y2="1223.686401" style="stroke: green; stroke-width: 0.200000"/>
   <line x1="956.737732" y1="1203.907227" x2="956.737732" y2="1223.686401" style="stroke: green; stroke-width: 0.200000"/>
   <line x1="957.737793" y1="1204.785889" x2="957.737793" y2="1223.686401" style="stroke: green; stroke-width: 0.200000"/>
   <line x1="958.737793" y1="1205.676636" x2="958.737793" y2="1223.686401" style="stroke: green; stroke-width: 0.200000"/>
   <line x1="959.737793" y1="1206.605103" x2="959.737793" y2="1223.686401" style="stroke: green; stroke-width: 0.200000"/>
   <line x1="960.737793" y1="1207.184937" x2="960.737793" y2="1223.686401" style="stroke: green; stroke-width: 0.200000"/>
   <line x1="961.737732" y1="1207.732178" x2="961.737732" y2="1223.686401" style="stroke: green; stroke-width: 0.200000"/>
   <line x1="962.737793" y1="1208.279419" x2="962.737793" y2="1223.686401" style="stroke: green; stroke-width: 0.200000"/>
   <line x1="963.737793" y1="1208.826660" x2="963.737793" y2="1223.686401" style="stroke: green; stroke-width: 0.200000"/>
   <line x1="964.737793" y1="1209.373901" x2="964.737793" y2="1223.686401" style="stroke: green; stroke-width: 0.200000"/>
   <line x1="965.737793" y1="1209.929443" x2="965.737793" y2="1223.686401" style="stroke: green; stroke-width: 0.200000"/>
   <line x1="966.737732" y1="1210.662842" x2="966.737732" y2="1223.686401" style="stroke: green; stroke-width: 0.200000"/>
   <line x1="967.737793" y1="1211.396240" x2="967.737793" y2="1223.686401" style="stroke: green; stroke-width: 0.200000"/>
   <line x1="968.737793" y1="1212.129639" x2="968.737793" y2="1223.686401" style="stroke: green; stroke-width: 0.200000"/>
   <line x1="969.737793" y1="1212.862915" x2="969.737793" y2="1223.686401" style="stroke: green; stroke-width: 0.200000"/>
   <line x1="970.737793" y1="1213.596313" x2="970.737793" y2="1223.686401" style="stroke: green; stroke-width: 0.200000"/>
   <line x1="971.737732" y1="1214.195435" x2="971.737732" y2="1223.686401" style="stroke: green; stroke-width: 0.200000"/>
   <line x1="972.737793" y1="1214.653931" x2="972.737793" y2="1223.686401" style="stroke: green; stroke-width: 0.200000"/>
   <line x1="973.737793" y1="1215.185059" x2="973.737793" y2="1223.686401" style="stroke: green; stroke-width: 0.200000"/>
   <line x1="974.737793" y1="1215.736450" x2="974.737793" y2="1223.686401" style="stroke: green; stroke-width: 0.200000"/>
   <line x1="975.737793" y1="1216.287964" x2="975.737793" y2="1223.686401" style="stroke: green; stroke-width: 0.200000"/>
   <line x1="976.737732" y1="1216.783936" x2="976.737732" y2="1223.686401" style="stroke: green; stroke-width: 0.200000"/>
   <line x1="977.737793" y1="1217.261719" x2="977.737793" y2="1223.686401" style="stroke: green; stroke-width: 0.200000"/>
   <line x1="978.737793" y1="1217.739258" x2="978.737793" y2="1223.686401" style="stroke: green; stroke-width: 0.200000"/>
   <line x1="979.737793" y1="1218.216919" x2="979.737793" y2="1223.686401" style="stroke: green; stroke-width: 0.200000"/>
   <line x1="980.737793" y1="1218.694580" x2="980.737793" y2="1223.686401" style="stroke: green; stroke-width: 0.200000"/>
   <line x1="981.737732" y1="1219.227417" x2="981.737732" y2="1223.686401" style="stroke: green; stroke-width: 0.200000"/>
   <line x1="982.737793" y1="1219.867676" x2="982.737793" y2="1223.686401" style="stroke: green; stroke-width: 0.200000"/>
   <line x1="983.737793" y1="1220.507935" x2="983.737793" y2="1223.686401" style="stroke: green; stroke-width: 0.200000"/>
   <line x1="984.737793" y1="1221.096680" x2="984.737793" y2="1223.686401" style="stroke: green; stroke-width: 0.200000"/>
   <line x1="985.737793" y1="1221.542847" x2="985.737793" y2="1223.686401" style="stroke: green; stroke-width: 0.200000"/>
   <line x1="986.737732" y1="1221.988892" x2="986.737732" y2="1223.686401" style="stroke: green; stroke-width: 0.200000"/>
   <line x1="987.737793" y1="1222.435181" x2="987.737793" y2="1223.686401" style="stroke: green; stroke-width: 0.200000"/>
   <line x1="988.737793" y1="1222.881348" x2="988.737793" y2="1223.686401" style="stroke: green; stroke-width: 0.200000"/>
   <line x1="989.737793" y1="1223.352417" x2="989.737793" y2="1223.686401" style="stroke: green; stroke-width: 0.200000"/>
   <line x1="953.737793" y1="1223.786377" x2="953.737793" y2="1232.436401" style="stroke: green; stroke-width: 0.200000"/>
   <line x1="952.737793" y1="1223.786377" x2="952.737793" y2="1232.165771" style="stroke: green; stroke-width: 0.200000"/>
   <line x1="951.737732" y1="1223.786377" x2="951.737732" y2="1231.668457" style="stroke: green; stroke-width: 0.200000"/>
   <line x1="950.737793" y1="1223.786377" x2="950.737793" y2="1231.146118" style="stroke: green; stroke-width: 0.200000"/>
   <line x1="949.737793" y1="1223.786377" x2="949.737793" y2="1230.623291" style="stroke: green; stroke-width: 0.200000"/>
   <line x1="948.737793" y1="1223.786377" x2="948.737793" y2="1230.100586" style="stroke: green; stroke-width: 0.200000"/>
   <line x1="947.737793" y1="1223.786377" x2="947.737793" y2="1229.577881" style="stroke: green; stroke-width: 0.200000"/>
   <line x1="946.737732" y1="1223.786377" x2="946.737732" y2="1229.055176" style="stroke: green; stroke-width: 0.200000"/>
   <line x1="945.737793" y1="1223.786377" x2="945.737793" y2="1228.532471" style="stroke: green; stroke-width: 0.200000"/>
   <line x1="944.737793" y1="1223.786377" x2="944.737793" y2="1228.051514" style="stroke: green; stroke-width: 0.200000"/>
   <line x1="943.737793" y1="1223.786377" x2="943.737793" y2="1227.541260" style="stroke: green; stroke-width: 0.200000"/>
   <line x1="942.737793" y1="1223.786377" x2="942.737793" y2="1227.007202" style="stroke: green; stroke-width: 0.200000"/>
   <line x1="941.737732" y1="1223.786377" x2="941.737732" y2="1226.399780" style="stroke: green; stroke-width: 0.200000"/>
   <line x1="940.737793" y1="1223.786377" x2="940.737793" y2="1225.792358" style="stroke: green; stroke-width: 0.200000"/>
   <line x1="939.737793" y1="1223.786377" x2="939.737793" y2="1225.184814" style="stroke: green; stroke-width: 0.200000"/>
   <line x1="938.737793" y1="1223.786377" x2="938.737793" y2="1224.577393" style="stroke: green; stroke-width: 0.200000"/>
   <line x1="937.737793" y1="1223.786377" x2="937.737793" y2="1223.969971" style="stroke: green; stroke-width: 0.200000"/>
   <line x1="1003.737793" y1="1230.585449" x2="1003.737793" y2="1250.292847" style="stroke: green; stroke-width: 0.200000"/>
   <line x1="1002.737793" y1="1230.101196" x2="1002.737793" y2="1249.845581" style="stroke: green; stroke-width: 0.200000"/>
   <line x1="1001.737732" y1="1229.616821" x2="1001.737732" y2="1249.398315" style="stroke: green; stroke-width: 0.200000"/>
   <line x1="1000.737793" y1="1229.132446" x2="1000.737793" y2="1248.950928" style="stroke: green; stroke-width: 0.200000"/>
   <line x1="999.737793" y1="1228.648193" x2="999.737793" y2="1248.503662" style="stroke: green; stroke-width: 0.200000"/>
   <line x1="998.737793" y1="1228.146240" x2="998.737793" y2="1248.050659" style="stroke: green; stroke-width: 0.200000"/>
   <line x1="997.737793" y1="1227.622681" x2="997.737793" y2="1247.576904" style="stroke: green; stroke-width: 0.200000"/>
   <line x1="996.737732" y1="1227.117065" x2="996.737732" y2="1247.103149" style="stroke: green; stroke-width: 0.200000"/>
   <line x1="995.737793" y1="1226.579346" x2="995.737793" y2="1246.661499" style="stroke: green; stroke-width: 0.200000"/>
   <line x1="994.737793" y1="1226.041504" x2="994.737793" y2="1246.269409" style="stroke: green; stroke-width: 0.200000"/>
   <line x1="993.737793" y1="1225.503906" x2="993.737793" y2="1245.877441" style="stroke: green; stroke-width: 0.200000"/>
   <line x1="992.737793" y1="1224.965942" x2="992.737793" y2="1245.485352" style="stroke: green; stroke-width: 0.200000"/>
   <line x1="991.737732" y1="1224.428223" x2="991.737732" y2="1245.093262" style="stroke: green; stroke-width: 0.200000"/>
   <line x1="990.737793" y1="1223.890259" x2="990.737793" y2="1244.701294" style="stroke: green; stroke-width: 0.200000"/>
   <line x1="989.737793" y1="1223.786377" x2="989.737793" y2="1244.309204" style="stroke: green; stroke-width: 0.200000"/>
   <line x1="988.737793" y1="1223.786377" x2="988.737793" y2="1243.972412" style="stroke: green; stroke-width: 0.200000"/>
   <line x1="987.737793" y1="1223.786377" x2="987.737793" y2="1243.640015" style="stroke: green; stroke-width: 0.200000"/>
   <line x1="986.737732" y1="1223.786377" x2="986.737732" y2="1243.307617" style="stroke: green; stroke-width: 0.200000"/>
   <line x1="985.737793" y1="1223.786377" x2="985.737793" y2="1242.975342" style="stroke: green; stroke-width: 0.200000"/>
   <line x1="984.737793" y1="1223.786377" x2="984.737793" y2="1242.651978" style="stroke: green; stroke-width: 0.200000"/>
   <line x1="983.737793" y1="1223.786377" x2="983.737793" y2="1242.358643" style="stroke: green; stroke-width: 0.200000"/>
   <line x1="982.737793" y1="1223.786377" x2="982.737793" y2="1242.065552" style="stroke: green; stroke-width: 0.200000"/>
   <line x1="981.737732" y1="1223.786377" x2="981.737732" y2="1241.772339" style="stroke: green; stroke-width: 0.200000"/>
   <line x1="980.737793" y1="1223.786377" x2="980.737793" y2="1241.479004" style="stroke: green; stroke-width: 0.200000"/>
   <line x1="979.737793" y1="1223.786377" x2="979.737793" y2="1241.233398" style="stroke: green; stroke-width: 0.200000"/>
   <line x1="978.737793" y1="1223.786377" x2="978.737793" y2="1240.996338" style="stroke: green; stroke-width: 0.200000"/>
   <line x1="977.737793" y1="1223.786377" x2="977.737793" y2="1240.759277" style="stroke: green; stroke-width: 0.200000"/>
   <line x1="976.737732" y1="1223.786377" x2="976.737732" y2="1240.522217" style="stroke: green; stroke-width: 0.200000"/>
   <line x1="975.737793" y1="1223.786377" x2="975.737793" y2="1240.285278" style="stroke: green; stroke-width: 0.200000"/>
   <line x1="974.737793" y1="1223.786377" x2="974.737793" y2="1240.048218" style="stroke: green; stroke-width: 0.200000"/>
   <line x1="973.737793" y1="1223.786377" x2="973.737793" y2="1239.707886" style="stroke: green; stroke-width: 0.200000"/>
   <line x1="972.737793" y1="1223.786377" x2="972.737793" y2="1239.356079" style="stroke: green; stroke-width: 0.200000"/>
   <line x1="971.737732" y1="1223.786377" x2="971.737732" y2="1239.056274" style="stroke: green; stroke-width: 0.200000"/>
   <line x1="970.737793" y1="1223.786377" x2="970.737793" y2="1238.756348" style="stroke: green; stroke-width: 0.200000"/>
   <line x1="969.737793" y1="1223.786377" x2="969.737793" y2="1238.456543" style="stroke: green; stroke-width: 0.200000"/>
   <line x1="968.737793" y1="1223.786377" x2="968.737793" y2="1238.156860" style="stroke: green; stroke-width: 0.200000"/>
   <line x1="967.737793" y1="1223.786377" x2="967.737793" y2="1237.830811" style="stroke: green; stroke-width: 0.200000"/>
   <line x1="966.737732" y1="1223.786377" x2="966.737732" y2="1237.502686" style="stroke: green; stroke-width: 0.200000"/>
   <line x1="965.737793" y1="1223.786377" x2="965.737793" y2="1237.174561" style="stroke: green; stroke-width: 0.200000"/>
   <line x1="964.737793" y1="1223.786377" x2="964.737793" y2="1236.846436" style="stroke: green; stroke-width: 0.200000"/>
   <line x1="963.737793" y1="1223.786377" x2="963.737793" y2="1236.594727" style="stroke: green; stroke-width: 0.200000"/>
   <line x1="962.737793" y1="1223.786377" x2="962.737793" y2="1236.192871" style="stroke: green; stroke-width: 0.200000"/>
   <line x1="961.737732" y1="1223.786377" x2="961.737732" y2="1235.744263" style="stroke: green; stroke-width: 0.200000"/>
   <line x1="960.737793" y1="1223.786377" x2="960.737793" y2="1235.295532" style="stroke: green; stroke-width: 0.200000"/>
   <line x1="959.737793" y1="1223.786377" x2="959.737793" y2="1234.846680" style="stroke: green; stroke-width: 0.200000"/>
   <line x1="958.737793" y1="1223.786377" x2="958.737793" y2="1234.397949" style="stroke: green; stroke-width: 0.200000"/>
   <line x1="957.737793" y1="1223.786377" x2="957.737793" y2="1233.949097" style="stroke: green; stroke-width: 0.200000"/>
   <line x1="956.737732" y1="1223.786377" x2="956.737732" y2="1233.500488" style="stroke: green; stroke-width: 0.200000"/>
   <line x1="955.737793" y1="1223.786377" x2="955.737793" y2="1233.051880" style="stroke: green; stroke-width: 0.200000"/>
   <line x1="954.737793" y1="1223.786377" x2="954.737793" y2="1232.707275" style="stroke: green; stroke-width: 0.200000"/>
   <line x1="1015.737793" y1="1238.893311" x2="1015.737793" y2="1254.788818" style="stroke: green; stroke-width: 0.200000"/>
   <line x1="1016.737732" y1="1239.925293" x2="1016.737732" y2="1254.734863" style="stroke: green; stroke-width: 0.200000"/>
   <line x1="1014.737793" y1="1237.861206" x2="1014.737793" y2="1254.469727" style="stroke: green; stroke-width: 0.200000"/>
   <line x1="1017.737793" y1="1240.957397" x2="1017.737793" y2="1254.236206" style="stroke: green; stroke-width: 0.200000"/>
   <line x1="1013.737793" y1="1236.879395" x2="1013.737793" y2="1254.150513" style="stroke: green; stroke-width: 0.200000"/>
   <line x1="1012.737793" y1="1236.213257" x2="1012.737793" y2="1253.831543" style="stroke: green; stroke-width: 0.200000"/>
   <line x1="1011.737732" y1="1235.547241" x2="1011.737732" y2="1253.512329" style="stroke: green; stroke-width: 0.200000"/>
   <line x1="1010.737793" y1="1234.881226" x2="1010.737793" y2="1253.193237" style="stroke: green; stroke-width: 0.200000"/>
   <line x1="1009.737793" y1="1234.215210" x2="1009.737793" y2="1252.874146" style="stroke: green; stroke-width: 0.200000"/>
   <line x1="1008.737793" y1="1233.549072" x2="1008.737793" y2="1252.555054" style="stroke: green; stroke-width: 0.200000"/>
   <line x1="1018.737793" y1="1241.989624" x2="1018.737793" y2="1252.197021" style="stroke: green; stroke-width: 0.200000"/>
   <line x1="1007.737793" y1="1232.887939" x2="1007.737793" y2="1252.111206" style="stroke: green; stroke-width: 0.200000"/>
   <line x1="1006.737732" y1="1232.231445" x2="1006.737732" y2="1251.634766" style="stroke: green; stroke-width: 0.200000"/>
   <line x1="1005.737793" y1="1231.574951" x2="1005.737793" y2="1251.187500" style="stroke: green; stroke-width: 0.200000"/>
   <line x1="1004.737793" y1="1231.069580" x2="1004.737793" y2="1250.740112" style="stroke: green; stroke-width: 0.200000"/>
   <line x1="1019.737793" y1="1243.682373" x2="1019.737793" y2="1244.621338" style="stroke: green; stroke-width: 0.200000"/>
   <path d="M 792.549  1305.52  792.561  1300.95  794.69  1291.85  794.888  1291.15  794.929  1290.87  799.964  1280.27  800.431  1278.95  806.409  1271.11  807.82  1268.95  812.7  1266.35  816.865  1265.03  823.304  1268.44  827.017  1272.43  827.819  1274.11  828.588  1275.99  831.004  1282.36  832.666  1286.12  835.669  1296.62  836.555  1299.63  838.81  1308.06  839.09  1308.82  841.708  1318.55  842.451  1320.54  843.716  1326.64  845.96  1335.83  846.027  1336.05  847.629  1346.8  848.946  1351.82  849.58  1356.66  850.303  1363.34  850.69  1367.46  850.822  1371.69  850.534  1378.78  843.955  1378.8  839.101  1378.65  836.751  1376.3  832.345  1371.6  828.425  1363.47  826.751  1359.72  823.344  1353.18  819.792  1346.82  818.112  1343.66  816.866  1340.99  814.965  1337.98  " style="fill: none; stroke: darkmagenta; stroke-width: 0.200000; fill-type: evenodd"  fill-opacity="1.000000" />
   <path d="M 814.965  1337.98  813.148  1335.09  809.27  1329.64  807.443  1326.58  804.716  1323.18  801.244  1319.55  797.528  1315.29  794.585  1311.97  792.543  1307.53  792.549  1305.52  " style="fill: none; stroke: red; stroke-width: 0.200000; fill-type: evenodd"  fill-opacity="1.000000" />
   <path d="M 822.687  1269.24  826.18  1273  826.904  1274.52  827.658  1276.36  830.079  1282.74  831.724  1286.46  834.709  1296.9  835.593  1299.9  837.856  1308.37  838.137  1309.13  840.755  1318.86  841.487  1320.82  842.74  1326.86  844.995  1336.09  845.049  1336.27  846.648  1347  847.963  1352.02  848.587  1356.78  849.308  1363.44  849.692  1367.53  849.821  1371.69  849.573  1377.78  843.969  1377.8  839.527  1377.66  837.47  1375.6  833.18  1371.03  829.332  1363.04  827.651  1359.29  824.224  1352.71  820.67  1346.34  819.007  1343.21  817.746  1340.51  813.979  1334.53  810.108  1329.09  808.266  1326.01  805.469  1322.52  801.982  1318.88  798.279  1314.63  795.432  1311.42  793.544  1307.31  793.561  1301.06  795.659  1292.1  795.868  1291.36  795.897  1291.17  800.889  1280.65  801.321  1279.43  807.227  1271.69  808.517  1269.71  813.089  1267.28  816.768  1266.11  822.687  1269.24  " style="fill: none; stroke: black; stroke-width: 0.200000; fill-type: evenodd"  fill-opacity="1.000000" />
   <path d="M 1020.11  1254.73  1017.18  1256.19  " style="fill: none; stroke: darkmagenta; stroke-width: 0.200000; fill-type: evenodd"  fill-opacity="1.000000" />
   <path d="M 1017.18  1256.19  1016.41  1256.58  1007.77  1253.82  1006.7  1253.26  998.328  1249.52  995.534  1248.19  989.153  1245.69  984.521  1244.15  980.2  1242.88  974.056  1241.43  973.783  1241.33  " style="fill: none; stroke: red; stroke-width: 0.200000; fill-type: evenodd"  fill-opacity="1.000000" />
   <path d="M 973.783  1241.33  972.556  1240.87  968.211  1239.56  963.981  1238.18  963.079  1237.99  954.817  1234.28  952.087  1233.54  944.886  1229.78  943.848  1229.29  942.149  1228.4  936.034  1224.69  928.721  1219.57  927.94  1218.99  921.294  1213.43  915.307  1208.13  912.799  1205.42  908.269  1200.43  905.39  1194.35  902.772  1190.53  903.588  1181.55  903.702  1180.74  910.567  1174.1  913.783  1173.62  921.323  1172.15  924.578  1173.04  932.239  1175.79  934.169  1177.37  936.323  1179.72  940.359  1183.73  943.162  1187.24  946.222  1190.93  948.474  1193.19  952.575  1198.33  957.605  1202.67  959.502  1204.34  960.707  1205.46  966.5  1208.63  972.013  1212.67  973.633  1213.41  976.673  1215.09  982.129  1217.7  985.187  1219.65  990.128  1221.86  998.065  1226.13  998.566  1226.35  999.735  1226.98  1006.36  1230.19  1009.07  1231.97  1014.84  1235.81  1020.11  1241.25  1021.53  1243.82  1020.3  1248.11  1020.23  1252.89  " style="fill: none; stroke: darkmagenta; stroke-width: 0.200000; fill-type: evenodd"  fill-opacity="1.000000" />
   <path d="M 1020.23  1252.89  1020.2  1254.69  1020.11  1254.73  " style="fill: none; stroke: red; stroke-width: 0.200000; fill-type: evenodd"  fill-opacity="1.000000" />
   <path d="M 924.277  1173.99  931.738  1176.67  933.48  1178.1  935.602  1180.42  939.614  1184.4  942.386  1187.87  945.481  1191.6  947.727  1193.85  951.851  1199.03  956.948  1203.43  958.832  1205.08  960.118  1206.28  965.962  1209.47  971.504  1213.54  973.183  1214.31  976.215  1215.98  981.642  1218.57  984.711  1220.54  989.687  1222.76  997.626  1227.03  998.126  1227.25  999.28  1227.87  1005.86  1231.06  1008.52  1232.8  1014.2  1236.58  1019.3  1241.85  1020.45  1243.94  1019.31  1247.96  1019.21  1254.06  1016.32  1255.5  1008.15  1252.89  1007.14  1252.36  998.747  1248.61  995.931  1247.27  989.494  1244.75  984.82  1243.2  980.457  1241.92  974.347  1240.47  972.875  1239.92  968.51  1238.61  964.239  1237.21  963.389  1237.03  955.154  1233.34  952.454  1232.61  945.331  1228.88  944.292  1228.39  942.64  1227.53  936.581  1223.85  929.307  1218.76  928.561  1218.2  921.946  1212.67  916.008  1207.41  913.536  1204.74  909.109  1199.87  906.259  1193.85  903.801  1190.27  904.581  1181.66  904.644  1181.22  911.032  1175.04  913.952  1174.6  921.285  1173.17  924.277  1173.99  " style="fill: none; stroke: black; stroke-width: 0.200000; fill-type: evenodd"  fill-opacity="1.000000" />
</svg>
