<?xml version="1.0" encoding="UTF-8" standalone="yes"?>
<!DOCTYPE svg PUBLIC "-//W3C//DTD SVG 1.0//EN" "http://www.w3.org/TR/2001/REC-SVG-20010904/DTD/svg10.dtd">
<svg height="2000" width="2000" xmlns="http://www.w3.org/2000/svg" xmlns:svg="http://www.w3.org/2000/svg" xmlns:xlink="http://www.w3.org/1999/xlink">
   <marker id="endArrow" markerHeight="8" markerUnits="strokeWidth" markerWidth="10" orient="auto" refX="1" refY="5" viewBox="0 0 1000 1000">
      <polyline fill="darkblue" points="0,0 10,5 0,10 1,5" />
   </marker>
   <circle cx="1000" cy="1000" r="1" style="stroke:black; fill: red" />
   <circle cx="1000" cy="1000" r="800" style="stroke:black; fill: none" />
   <line x1="1071.874146" y1="1076.474731" x2="1071.874146" y2="1077.336548" style="stroke: green; stroke-width: 0.200000"/>
   <line x1="1072.874146" y1="1075.474609" x2="1072.874146" y2="1077.336548" style="stroke: green; stroke-width: 0.200000"/>
   <line x1="1073.874268" y1="1074.474609" x2="1073.874268" y2="1077.336548" style="stroke: green; stroke-width: 0.200000"/>
   <line x1="1074.874146" y1="1073.474609" x2="1074.874146" y2="1077.336548" style="stroke: green; stroke-width: 0.200000"/>
   <line x1="1075.874146" y1="1072.474609" x2="1075.874146" y2="1077.336548" style="stroke: green; stroke-width: 0.200000"/>
   <line x1="1076.874146" y1="1071.474731" x2="1076.874146" y2="1077.081055" style="stroke: green; stroke-width: 0.200000"/>
   <line x1="1077.874146" y1="1070.474731" x2="1077.874146" y2="1076.006836" style="stroke: green; stroke-width: 0.200000"/>
   <line x1="1078.874268" y1="1069.474609" x2="1078.874268" y2="1074.932373" style="stroke: green; stroke-width: 0.200000"/>
   <line x1="1079.874146" y1="1068.474609" x2="1079.874146" y2="1073.858154" style="stroke: green; stroke-width: 0.200000"/>
   <line x1="1080.874146" y1="1067.474609" x2="1080.874146" y2="1072.783691" style="stroke: green; stroke-width: 0.200000"/>
   <line x1="1081.874146" y1="1066.474731" x2="1081.874146" y2="1071.769775" style="stroke: green; stroke-width: 0.200000"/>
   <line x1="1082.874146" y1="1065.474609" x2="1082.874146" y2="1070.787231" style="stroke: green; stroke-width: 0.200000"/>
   <line x1="1083.874268" y1="1064.474609" x2="1083.874268" y2="1069.804565" style="stroke: green; stroke-width: 0.200000"/>
   <line x1="1084.874146" y1="1063.474609" x2="1084.874146" y2="1068.791870" style="stroke: green; stroke-width: 0.200000"/>
   <line x1="1085.874146" y1="1062.474609" x2="1085.874146" y2="1067.796387" style="stroke: green; stroke-width: 0.200000"/>
   <line x1="1086.874146" y1="1061.474731" x2="1086.874146" y2="1066.801880" style="stroke: green; stroke-width: 0.200000"/>
   <line x1="1087.874146" y1="1060.474609" x2="1087.874146" y2="1065.807251" style="stroke: green; stroke-width: 0.200000"/>
   <line x1="1088.874268" y1="1059.474609" x2="1088.874268" y2="1064.820435" style="stroke: green; stroke-width: 0.200000"/>
   <line x1="1089.874146" y1="1058.474609" x2="1089.874146" y2="1063.836914" style="stroke: green; stroke-width: 0.200000"/>
   <line x1="1090.874146" y1="1057.474609" x2="1090.874146" y2="1062.853516" style="stroke: green; stroke-width: 0.200000"/>
   <line x1="1091.874146" y1="1056.474731" x2="1091.874146" y2="1061.879028" style="stroke: green; stroke-width: 0.200000"/>
   <line x1="1092.874146" y1="1055.474731" x2="1092.874146" y2="1060.955811" style="stroke: green; stroke-width: 0.200000"/>
   <line x1="1093.874268" y1="1054.474609" x2="1093.874268" y2="1060.022339" style="stroke: green; stroke-width: 0.200000"/>
   <line x1="1094.874146" y1="1053.474609" x2="1094.874146" y2="1059.042847" style="stroke: green; stroke-width: 0.200000"/>
   <line x1="1095.874146" y1="1052.474609" x2="1095.874146" y2="1058.128540" style="stroke: green; stroke-width: 0.200000"/>
   <line x1="1096.874146" y1="1051.474731" x2="1096.874146" y2="1057.247314" style="stroke: green; stroke-width: 0.200000"/>
   <line x1="1097.874146" y1="1050.474731" x2="1097.874146" y2="1056.318359" style="stroke: green; stroke-width: 0.200000"/>
   <line x1="1098.874268" y1="1049.474609" x2="1098.874268" y2="1055.338379" style="stroke: green; stroke-width: 0.200000"/>
   <line x1="1099.874146" y1="1048.474609" x2="1099.874146" y2="1054.420776" style="stroke: green; stroke-width: 0.200000"/>
   <line x1="1100.874146" y1="1047.474609" x2="1100.874146" y2="1053.587524" style="stroke: green; stroke-width: 0.200000"/>
   <line x1="1101.874146" y1="1046.474731" x2="1101.874146" y2="1052.754150" style="stroke: green; stroke-width: 0.200000"/>
   <line x1="1102.874146" y1="1045.474731" x2="1102.874146" y2="1051.841431" style="stroke: green; stroke-width: 0.200000"/>
   <line x1="1103.874268" y1="1044.474731" x2="1103.874268" y2="1051.070068" style="stroke: green; stroke-width: 0.200000"/>
   <line x1="1104.874146" y1="1043.474609" x2="1104.874146" y2="1050.298584" style="stroke: green; stroke-width: 0.200000"/>
   <line x1="1105.874146" y1="1042.474609" x2="1105.874146" y2="1049.408569" style="stroke: green; stroke-width: 0.200000"/>
   <line x1="1106.874146" y1="1041.474731" x2="1106.874146" y2="1048.508545" style="stroke: green; stroke-width: 0.200000"/>
   <line x1="1107.874146" y1="1040.474731" x2="1107.874146" y2="1047.715454" style="stroke: green; stroke-width: 0.200000"/>
   <line x1="1108.874268" y1="1039.474731" x2="1108.874268" y2="1047.011963" style="stroke: green; stroke-width: 0.200000"/>
   <line x1="1109.874146" y1="1038.474609" x2="1109.874146" y2="1046.308716" style="stroke: green; stroke-width: 0.200000"/>
   <line x1="1110.874146" y1="1037.474609" x2="1110.874146" y2="1045.605347" style="stroke: green; stroke-width: 0.200000"/>
   <line x1="1111.874146" y1="1036.474731" x2="1111.874146" y2="1044.896606" style="stroke: green; stroke-width: 0.200000"/>
   <line x1="1112.874146" y1="1035.474731" x2="1112.874146" y2="1044.142334" style="stroke: green; stroke-width: 0.200000"/>
   <line x1="1113.874268" y1="1034.474731" x2="1113.874268" y2="1043.387939" style="stroke: green; stroke-width: 0.200000"/>
   <line x1="1114.874146" y1="1033.474609" x2="1114.874146" y2="1042.634766" style="stroke: green; stroke-width: 0.200000"/>
   <line x1="1115.874146" y1="1032.474609" x2="1115.874146" y2="1041.874023" style="stroke: green; stroke-width: 0.200000"/>
   <line x1="1116.874146" y1="1031.473389" x2="1116.874146" y2="1041.038330" style="stroke: green; stroke-width: 0.200000"/>
   <line x1="1117.874146" y1="1027.678955" x2="1117.874146" y2="1040.185303" style="stroke: green; stroke-width: 0.200000"/>
   <line x1="1118.874268" y1="1028.514648" x2="1118.874268" y2="1039.259155" style="stroke: green; stroke-width: 0.200000"/>
   <line x1="1119.874146" y1="1030.204224" x2="1119.874146" y2="1038.045776" style="stroke: green; stroke-width: 0.200000"/>
   <line x1="1120.874146" y1="1032.502563" x2="1120.874146" y2="1035.678589" style="stroke: green; stroke-width: 0.200000"/>
   <line x1="1116.874146" y1="1028.678955" x2="1116.874146" y2="1030.658081" style="stroke: green; stroke-width: 0.200000"/>
   <line x1="1061.874146" y1="1083.678711" x2="1061.874146" y2="1090.175537" style="stroke: green; stroke-width: 0.200000"/>
   <line x1="1062.874146" y1="1082.812988" x2="1062.874146" y2="1090.093262" style="stroke: green; stroke-width: 0.200000"/>
   <line x1="1060.874146" y1="1084.678711" x2="1060.874146" y2="1090.083618" style="stroke: green; stroke-width: 0.200000"/>
   <line x1="1063.874268" y1="1083.077148" x2="1063.874268" y2="1089.882324" style="stroke: green; stroke-width: 0.200000"/>
   <line x1="1059.874146" y1="1085.678833" x2="1059.874146" y2="1089.794434" style="stroke: green; stroke-width: 0.200000"/>
   <line x1="1064.874146" y1="1083.341064" x2="1064.874146" y2="1089.551392" style="stroke: green; stroke-width: 0.200000"/>
   <line x1="1058.874268" y1="1086.678711" x2="1058.874268" y2="1089.081299" style="stroke: green; stroke-width: 0.200000"/>
   <line x1="1065.874146" y1="1082.474487" x2="1065.874146" y2="1089.070068" style="stroke: green; stroke-width: 0.200000"/>
   <line x1="1066.874146" y1="1081.474487" x2="1066.874146" y2="1088.429443" style="stroke: green; stroke-width: 0.200000"/>
   <line x1="1057.874146" y1="1087.678711" x2="1057.874146" y2="1088.067749" style="stroke: green; stroke-width: 0.200000"/>
   <line x1="1067.874146" y1="1080.474487" x2="1067.874146" y2="1087.542236" style="stroke: green; stroke-width: 0.200000"/>
   <line x1="1068.874268" y1="1079.474609" x2="1068.874268" y2="1086.361816" style="stroke: green; stroke-width: 0.200000"/>
   <line x1="1069.874146" y1="1078.474609" x2="1069.874146" y2="1085.152466" style="stroke: green; stroke-width: 0.200000"/>
   <line x1="1070.874146" y1="1077.474609" x2="1070.874146" y2="1083.948242" style="stroke: green; stroke-width: 0.200000"/>
   <line x1="1071.874146" y1="1077.436523" x2="1071.874146" y2="1082.744141" style="stroke: green; stroke-width: 0.200000"/>
   <line x1="1072.874146" y1="1077.436523" x2="1072.874146" y2="1081.579102" style="stroke: green; stroke-width: 0.200000"/>
   <line x1="1073.874268" y1="1077.436523" x2="1073.874268" y2="1080.457520" style="stroke: green; stroke-width: 0.200000"/>
   <line x1="1074.874146" y1="1077.436523" x2="1074.874146" y2="1079.324341" style="stroke: green; stroke-width: 0.200000"/>
   <line x1="1075.874146" y1="1077.436523" x2="1075.874146" y2="1078.155396" style="stroke: green; stroke-width: 0.200000"/>
   <line x1="1072.529785" y1="1081.965088" x2="1072.529785" y2="1081.965332" style="stroke: green; stroke-width: 0.200000"/>
   <path d="M 1063.12  1081.33  1064.53  1081.7  1115.3  1030.93  1114.27  1029.16  1118.54  1024.89  1119.01  1025.67  1120.09  1027.61  1120.67  1028.63  1121.12  1029.37  1121.47  1029.99  1122  1031.06  1122.05  1031.18  1122.28  1031.9  1122.43  1032.61  1122.53  1033.33  1122.56  1034.06  1122.53  1034.78  1122.44  1035.51  1122.29  1036.22  1122.08  1036.92  1121.82  1037.6  1121.5  1038.24  1121.14  1038.86  1120.72  1039.44  1119.86  1040.4  1118.62  1041.53  1116.48  1043.32  1115.72  1043.88  1112.65  1046.19  1108.31  1049.24  1107.21  1050.21  1106.14  1051.22  1103.65  1053.14  1102.98  1053.78  1100.45  1055.89  1098.41  1057.89  1096.23  1059.81  1094.73  1061.29  1092.76  1063.1  1089.24  1066.56  1085.97  1069.82  1085.4  1070.4  1082.29  1073.46  1076.91  1079.24  1075.8  1080.56  1073.54  1083.09  1070.14  1087.18  1069.4  1088.11  1068.73  1088.82  1068.17  1089.32  1067.57  1089.79  1066.94  1090.2  1066.23  1090.59  1065.45  1090.94  1064.62  1091.24  1063.74  1091.47  1062.83  1091.62  1061.91  1091.68  1060.99  1091.63  1060.12  1091.47  1059.29  1091.19  1058.55  1090.78  1057.95  1090.28  1056.5  1088.81  1055.59  1087.84  1060.79  1082.64  " style="fill: none; stroke: darkmagenta; stroke-width: 0.200000; fill-type: evenodd"  fill-opacity="1.000000" />
   <path d="M 1060.79  1082.64  1062.32  1081.11  1063.12  1081.33  " style="fill: none; stroke: red; stroke-width: 0.200000; fill-type: evenodd"  fill-opacity="1.000000" />
   <path d="M 1119.22  1028.1  1119.81  1029.14  1120.26  1029.87  1120.58  1030.45  1121.09  1031.48  1121.11  1031.54  1121.31  1032.16  1121.45  1032.78  1121.53  1033.42  1121.56  1034.06  1121.54  1034.7  1121.46  1035.34  1121.32  1035.98  1121.14  1036.6  1120.9  1037.19  1120.62  1037.77  1120.3  1038.31  1119.94  1038.81  1119.15  1039.7  1117.97  1040.78  1115.87  1042.53  1115.12  1043.07  1112.07  1045.38  1107.69  1048.46  1106.54  1049.47  1105.49  1050.46  1102.99  1052.38  1102.31  1053.04  1099.78  1055.15  1097.73  1057.16  1095.55  1059.08  1094.04  1060.56  1092.07  1062.38  1088.54  1065.85  1085.25  1069.12  1084.69  1069.7  1081.58  1072.76  1076.16  1078.58  1075.04  1079.9  1072.78  1082.43  1069.37  1086.55  1068.64  1087.45  1068.04  1088.1  1067.53  1088.56  1066.99  1088.97  1066.43  1089.34  1065.78  1089.69  1065.07  1090.01  1064.32  1090.28  1063.53  1090.49  1062.72  1090.63  1061.9  1090.68  1061.11  1090.64  1060.37  1090.5  1059.7  1090.27  1059.12  1089.95  1058.63  1089.54  1056.98  1087.87  1062.62  1082.23  1064.83  1082.81  1116.55  1031.09  1115.52  1029.32  1118.33  1026.51  1119.22  1028.1  " style="fill: none; stroke: black; stroke-width: 0.200000; fill-type: evenodd"  fill-opacity="1.000000" />
</svg>
