<?xml version="1.0" encoding="UTF-8" standalone="yes"?>
<!DOCTYPE svg PUBLIC "-//W3C//DTD SVG 1.0//EN" "http://www.w3.org/TR/2001/REC-SVG-20010904/DTD/svg10.dtd">
<svg height="2000" width="2000" xmlns="http://www.w3.org/2000/svg" xmlns:svg="http://www.w3.org/2000/svg" xmlns:xlink="http://www.w3.org/1999/xlink">
   <marker id="endArrow" markerHeight="8" markerUnits="strokeWidth" markerWidth="10" orient="auto" refX="1" refY="5" viewBox="0 0 1000 1000">
      <polyline fill="darkblue" points="0,0 10,5 0,10 1,5" />
   </marker>
   <circle cx="1000" cy="1000" r="1" style="stroke:black; fill: red" />
   <circle cx="1000" cy="1000" r="800" style="stroke:black; fill: none" />
   <line x1="800.626709" y1="1207.165771" x2="800.626709" y2="1213.339233" style="stroke: green; stroke-width: 0.200000"/>
   <line x1="801.626709" y1="1202.790771" x2="801.626709" y2="1213.339233" style="stroke: green; stroke-width: 0.200000"/>
   <line x1="802.626709" y1="1195.934448" x2="802.626709" y2="1213.339233" style="stroke: green; stroke-width: 0.200000"/>
   <line x1="803.626709" y1="1193.804199" x2="803.626709" y2="1213.339233" style="stroke: green; stroke-width: 0.200000"/>
   <line x1="804.626709" y1="1191.673828" x2="804.626709" y2="1213.339233" style="stroke: green; stroke-width: 0.200000"/>
   <line x1="805.626709" y1="1187.360962" x2="805.626709" y2="1213.339233" style="stroke: green; stroke-width: 0.200000"/>
   <line x1="806.626709" y1="1183.100098" x2="806.626709" y2="1213.339233" style="stroke: green; stroke-width: 0.200000"/>
   <line x1="807.626709" y1="1181.741577" x2="807.626709" y2="1213.339233" style="stroke: green; stroke-width: 0.200000"/>
   <line x1="808.626709" y1="1179.302002" x2="808.626709" y2="1213.339233" style="stroke: green; stroke-width: 0.200000"/>
   <line x1="809.626709" y1="1175.545898" x2="809.626709" y2="1213.339233" style="stroke: green; stroke-width: 0.200000"/>
   <line x1="810.626709" y1="1173.164307" x2="810.626709" y2="1213.339233" style="stroke: green; stroke-width: 0.200000"/>
   <line x1="811.626709" y1="1172.463623" x2="811.626709" y2="1213.339233" style="stroke: green; stroke-width: 0.200000"/>
   <line x1="812.626709" y1="1171.762939" x2="812.626709" y2="1213.339233" style="stroke: green; stroke-width: 0.200000"/>
   <line x1="813.626709" y1="1171.062378" x2="813.626709" y2="1213.339233" style="stroke: green; stroke-width: 0.200000"/>
   <line x1="814.626709" y1="1163.347168" x2="814.626709" y2="1213.339233" style="stroke: green; stroke-width: 0.200000"/>
   <line x1="815.626709" y1="1163.442505" x2="815.626709" y2="1213.339233" style="stroke: green; stroke-width: 0.200000"/>
   <line x1="816.626709" y1="1163.537842" x2="816.626709" y2="1213.339233" style="stroke: green; stroke-width: 0.200000"/>
   <line x1="817.626709" y1="1163.633179" x2="817.626709" y2="1213.339233" style="stroke: green; stroke-width: 0.200000"/>
   <line x1="818.626709" y1="1163.728516" x2="818.626709" y2="1213.339233" style="stroke: green; stroke-width: 0.200000"/>
   <line x1="819.626709" y1="1163.823853" x2="819.626709" y2="1213.339233" style="stroke: green; stroke-width: 0.200000"/>
   <line x1="820.626709" y1="1163.919189" x2="820.626709" y2="1213.339233" style="stroke: green; stroke-width: 0.200000"/>
   <line x1="821.626709" y1="1167.966064" x2="821.626709" y2="1213.339233" style="stroke: green; stroke-width: 0.200000"/>
   <line x1="822.626709" y1="1171.919434" x2="822.626709" y2="1213.339233" style="stroke: green; stroke-width: 0.200000"/>
   <line x1="823.626709" y1="1173.089722" x2="823.626709" y2="1213.339233" style="stroke: green; stroke-width: 0.200000"/>
   <line x1="824.626709" y1="1174.260010" x2="824.626709" y2="1213.339233" style="stroke: green; stroke-width: 0.200000"/>
   <line x1="825.626709" y1="1175.484131" x2="825.626709" y2="1213.339233" style="stroke: green; stroke-width: 0.200000"/>
   <line x1="826.626709" y1="1179.821045" x2="826.626709" y2="1213.339233" style="stroke: green; stroke-width: 0.200000"/>
   <line x1="827.626709" y1="1182.844116" x2="827.626709" y2="1213.339233" style="stroke: green; stroke-width: 0.200000"/>
   <line x1="828.626709" y1="1184.545532" x2="828.626709" y2="1213.339233" style="stroke: green; stroke-width: 0.200000"/>
   <line x1="829.626709" y1="1186.246948" x2="829.626709" y2="1213.339233" style="stroke: green; stroke-width: 0.200000"/>
   <line x1="830.626709" y1="1188.882080" x2="830.626709" y2="1213.339233" style="stroke: green; stroke-width: 0.200000"/>
   <line x1="831.626709" y1="1191.942993" x2="831.626709" y2="1213.339233" style="stroke: green; stroke-width: 0.200000"/>
   <line x1="832.626709" y1="1194.811279" x2="832.626709" y2="1213.339233" style="stroke: green; stroke-width: 0.200000"/>
   <line x1="833.626709" y1="1196.659912" x2="833.626709" y2="1213.339233" style="stroke: green; stroke-width: 0.200000"/>
   <line x1="834.626709" y1="1198.928467" x2="834.626709" y2="1213.339233" style="stroke: green; stroke-width: 0.200000"/>
   <line x1="835.626709" y1="1201.240723" x2="835.626709" y2="1213.339233" style="stroke: green; stroke-width: 0.200000"/>
   <line x1="836.626709" y1="1203.568848" x2="836.626709" y2="1213.339233" style="stroke: green; stroke-width: 0.200000"/>
   <line x1="837.626709" y1="1206.194336" x2="837.626709" y2="1213.339233" style="stroke: green; stroke-width: 0.200000"/>
   <line x1="838.626709" y1="1208.888306" x2="838.626709" y2="1213.339233" style="stroke: green; stroke-width: 0.200000"/>
   <line x1="839.626709" y1="1211.734497" x2="839.626709" y2="1213.339233" style="stroke: green; stroke-width: 0.200000"/>
   <line x1="808.626709" y1="1213.439209" x2="808.626709" y2="1263.439209" style="stroke: green; stroke-width: 0.200000"/>
   <line x1="809.626709" y1="1213.439209" x2="809.626709" y2="1263.439209" style="stroke: green; stroke-width: 0.200000"/>
   <line x1="810.626709" y1="1213.439209" x2="810.626709" y2="1263.439209" style="stroke: green; stroke-width: 0.200000"/>
   <line x1="811.626709" y1="1213.439209" x2="811.626709" y2="1263.439209" style="stroke: green; stroke-width: 0.200000"/>
   <line x1="812.626709" y1="1213.439209" x2="812.626709" y2="1263.439209" style="stroke: green; stroke-width: 0.200000"/>
   <line x1="813.626709" y1="1213.439209" x2="813.626709" y2="1263.439209" style="stroke: green; stroke-width: 0.200000"/>
   <line x1="814.626709" y1="1213.439209" x2="814.626709" y2="1263.439209" style="stroke: green; stroke-width: 0.200000"/>
   <line x1="815.626709" y1="1213.439209" x2="815.626709" y2="1263.439209" style="stroke: green; stroke-width: 0.200000"/>
   <line x1="816.626709" y1="1213.439209" x2="816.626709" y2="1263.439209" style="stroke: green; stroke-width: 0.200000"/>
   <line x1="817.626709" y1="1213.439209" x2="817.626709" y2="1263.439209" style="stroke: green; stroke-width: 0.200000"/>
   <line x1="818.626709" y1="1213.439209" x2="818.626709" y2="1263.439209" style="stroke: green; stroke-width: 0.200000"/>
   <line x1="819.626709" y1="1213.439209" x2="819.626709" y2="1263.439209" style="stroke: green; stroke-width: 0.200000"/>
   <line x1="820.626709" y1="1213.439209" x2="820.626709" y2="1263.439209" style="stroke: green; stroke-width: 0.200000"/>
   <line x1="821.626709" y1="1213.439209" x2="821.626709" y2="1263.439209" style="stroke: green; stroke-width: 0.200000"/>
   <line x1="822.626709" y1="1213.439209" x2="822.626709" y2="1263.439209" style="stroke: green; stroke-width: 0.200000"/>
   <line x1="823.626709" y1="1213.439209" x2="823.626709" y2="1263.439209" style="stroke: green; stroke-width: 0.200000"/>
   <line x1="824.626709" y1="1213.439209" x2="824.626709" y2="1263.439209" style="stroke: green; stroke-width: 0.200000"/>
   <line x1="825.626709" y1="1213.439209" x2="825.626709" y2="1263.439209" style="stroke: green; stroke-width: 0.200000"/>
   <line x1="826.626709" y1="1213.439209" x2="826.626709" y2="1263.439209" style="stroke: green; stroke-width: 0.200000"/>
   <line x1="827.626709" y1="1213.439209" x2="827.626709" y2="1263.439209" style="stroke: green; stroke-width: 0.200000"/>
   <line x1="828.626709" y1="1213.439209" x2="828.626709" y2="1263.439209" style="stroke: green; stroke-width: 0.200000"/>
   <line x1="829.626709" y1="1213.439209" x2="829.626709" y2="1263.439209" style="stroke: green; stroke-width: 0.200000"/>
   <line x1="830.626709" y1="1213.439209" x2="830.626709" y2="1263.439209" style="stroke: green; stroke-width: 0.200000"/>
   <line x1="831.626709" y1="1213.439209" x2="831.626709" y2="1263.439209" style="stroke: green; stroke-width: 0.200000"/>
   <line x1="832.626709" y1="1213.439209" x2="832.626709" y2="1263.439209" style="stroke: green; stroke-width: 0.200000"/>
   <line x1="833.626709" y1="1213.439209" x2="833.626709" y2="1263.439209" style="stroke: green; stroke-width: 0.200000"/>
   <line x1="834.626709" y1="1213.439209" x2="834.626709" y2="1263.439209" style="stroke: green; stroke-width: 0.200000"/>
   <line x1="835.626709" y1="1213.439209" x2="835.626709" y2="1263.439209" style="stroke: green; stroke-width: 0.200000"/>
   <line x1="836.626709" y1="1213.439209" x2="836.626709" y2="1263.439209" style="stroke: green; stroke-width: 0.200000"/>
   <line x1="837.626709" y1="1213.439209" x2="837.626709" y2="1263.439209" style="stroke: green; stroke-width: 0.200000"/>
   <line x1="838.626709" y1="1213.439209" x2="838.626709" y2="1263.439209" style="stroke: green; stroke-width: 0.200000"/>
   <line x1="839.626709" y1="1213.439209" x2="839.626709" y2="1263.439209" style="stroke: green; stroke-width: 0.200000"/>
   <line x1="840.626709" y1="1214.580566" x2="840.626709" y2="1263.439209" style="stroke: green; stroke-width: 0.200000"/>
   <line x1="841.626709" y1="1217.690674" x2="841.626709" y2="1263.439209" style="stroke: green; stroke-width: 0.200000"/>
   <line x1="842.626709" y1="1221.500977" x2="842.626709" y2="1263.439209" style="stroke: green; stroke-width: 0.200000"/>
   <line x1="843.626709" y1="1224.730469" x2="843.626709" y2="1263.439209" style="stroke: green; stroke-width: 0.200000"/>
   <line x1="844.626709" y1="1228.530884" x2="844.626709" y2="1263.439209" style="stroke: green; stroke-width: 0.200000"/>
   <line x1="845.626709" y1="1234.068726" x2="845.626709" y2="1263.439209" style="stroke: green; stroke-width: 0.200000"/>
   <line x1="846.626709" y1="1238.690063" x2="846.626709" y2="1263.439209" style="stroke: green; stroke-width: 0.200000"/>
   <line x1="847.626709" y1="1250.825928" x2="847.626709" y2="1263.439209" style="stroke: green; stroke-width: 0.200000"/>
   <line x1="807.626709" y1="1213.439209" x2="807.626709" y2="1259.663330" style="stroke: green; stroke-width: 0.200000"/>
   <line x1="806.626709" y1="1213.439209" x2="806.626709" y2="1256.171631" style="stroke: green; stroke-width: 0.200000"/>
   <line x1="805.626709" y1="1213.439209" x2="805.626709" y2="1253.006958" style="stroke: green; stroke-width: 0.200000"/>
   <line x1="804.626709" y1="1213.439209" x2="804.626709" y2="1249.192627" style="stroke: green; stroke-width: 0.200000"/>
   <line x1="803.626709" y1="1213.439209" x2="803.626709" y2="1246.076416" style="stroke: green; stroke-width: 0.200000"/>
   <line x1="802.626709" y1="1213.439209" x2="802.626709" y2="1242.960083" style="stroke: green; stroke-width: 0.200000"/>
   <line x1="801.626709" y1="1213.439209" x2="801.626709" y2="1239.570557" style="stroke: green; stroke-width: 0.200000"/>
   <line x1="800.626709" y1="1213.439209" x2="800.626709" y2="1235.688721" style="stroke: green; stroke-width: 0.200000"/>
   <line x1="799.626709" y1="1219.769897" x2="799.626709" y2="1228.175171" style="stroke: green; stroke-width: 0.200000"/>
   <line x1="817.626709" y1="1263.539307" x2="817.626709" y2="1313.539307" style="stroke: green; stroke-width: 0.200000"/>
   <line x1="818.626709" y1="1263.539307" x2="818.626709" y2="1313.539307" style="stroke: green; stroke-width: 0.200000"/>
   <line x1="819.626709" y1="1263.539307" x2="819.626709" y2="1313.539307" style="stroke: green; stroke-width: 0.200000"/>
   <line x1="820.626709" y1="1263.539307" x2="820.626709" y2="1313.539307" style="stroke: green; stroke-width: 0.200000"/>
   <line x1="821.626709" y1="1263.539307" x2="821.626709" y2="1313.539307" style="stroke: green; stroke-width: 0.200000"/>
   <line x1="822.626709" y1="1263.539307" x2="822.626709" y2="1313.539307" style="stroke: green; stroke-width: 0.200000"/>
   <line x1="823.626709" y1="1263.539307" x2="823.626709" y2="1313.539307" style="stroke: green; stroke-width: 0.200000"/>
   <line x1="824.626709" y1="1263.539307" x2="824.626709" y2="1313.539307" style="stroke: green; stroke-width: 0.200000"/>
   <line x1="825.626709" y1="1263.539307" x2="825.626709" y2="1313.539307" style="stroke: green; stroke-width: 0.200000"/>
   <line x1="826.626709" y1="1263.539307" x2="826.626709" y2="1313.539307" style="stroke: green; stroke-width: 0.200000"/>
   <line x1="827.626709" y1="1263.539307" x2="827.626709" y2="1313.539307" style="stroke: green; stroke-width: 0.200000"/>
   <line x1="828.626709" y1="1263.539307" x2="828.626709" y2="1313.539307" style="stroke: green; stroke-width: 0.200000"/>
   <line x1="829.626709" y1="1263.539307" x2="829.626709" y2="1313.539307" style="stroke: green; stroke-width: 0.200000"/>
   <line x1="830.626709" y1="1263.539307" x2="830.626709" y2="1313.539307" style="stroke: green; stroke-width: 0.200000"/>
   <line x1="831.626709" y1="1263.539307" x2="831.626709" y2="1313.539307" style="stroke: green; stroke-width: 0.200000"/>
   <line x1="832.626709" y1="1263.539307" x2="832.626709" y2="1313.539307" style="stroke: green; stroke-width: 0.200000"/>
   <line x1="833.626709" y1="1263.539307" x2="833.626709" y2="1313.539307" style="stroke: green; stroke-width: 0.200000"/>
   <line x1="834.626709" y1="1263.539307" x2="834.626709" y2="1313.539307" style="stroke: green; stroke-width: 0.200000"/>
   <line x1="835.626709" y1="1263.539307" x2="835.626709" y2="1313.539307" style="stroke: green; stroke-width: 0.200000"/>
   <line x1="836.626709" y1="1263.539307" x2="836.626709" y2="1313.539307" style="stroke: green; stroke-width: 0.200000"/>
   <line x1="837.626709" y1="1263.539307" x2="837.626709" y2="1313.539307" style="stroke: green; stroke-width: 0.200000"/>
   <line x1="838.626709" y1="1263.539307" x2="838.626709" y2="1313.539307" style="stroke: green; stroke-width: 0.200000"/>
   <line x1="839.626709" y1="1263.539307" x2="839.626709" y2="1313.539307" style="stroke: green; stroke-width: 0.200000"/>
   <line x1="840.626709" y1="1263.539307" x2="840.626709" y2="1313.539307" style="stroke: green; stroke-width: 0.200000"/>
   <line x1="816.626709" y1="1263.539307" x2="816.626709" y2="1313.007812" style="stroke: green; stroke-width: 0.200000"/>
   <line x1="841.626709" y1="1263.539307" x2="841.626709" y2="1311.735352" style="stroke: green; stroke-width: 0.200000"/>
   <line x1="842.626709" y1="1263.539307" x2="842.626709" y2="1307.574341" style="stroke: green; stroke-width: 0.200000"/>
   <line x1="815.626709" y1="1263.539307" x2="815.626709" y2="1306.702881" style="stroke: green; stroke-width: 0.200000"/>
   <line x1="843.626709" y1="1263.539307" x2="843.626709" y2="1303.707886" style="stroke: green; stroke-width: 0.200000"/>
   <line x1="814.626709" y1="1263.539307" x2="814.626709" y2="1300.534668" style="stroke: green; stroke-width: 0.200000"/>
   <line x1="844.626709" y1="1263.539307" x2="844.626709" y2="1299.937012" style="stroke: green; stroke-width: 0.200000"/>
   <line x1="813.626709" y1="1263.539307" x2="813.626709" y2="1294.713135" style="stroke: green; stroke-width: 0.200000"/>
   <line x1="845.626709" y1="1263.539307" x2="845.626709" y2="1293.810059" style="stroke: green; stroke-width: 0.200000"/>
   <line x1="812.626709" y1="1263.539307" x2="812.626709" y2="1288.859619" style="stroke: green; stroke-width: 0.200000"/>
   <line x1="846.626709" y1="1263.539307" x2="846.626709" y2="1284.561157" style="stroke: green; stroke-width: 0.200000"/>
   <line x1="811.626709" y1="1263.539307" x2="811.626709" y2="1282.135620" style="stroke: green; stroke-width: 0.200000"/>
   <line x1="847.626709" y1="1263.539307" x2="847.626709" y2="1275.569946" style="stroke: green; stroke-width: 0.200000"/>
   <line x1="810.626709" y1="1263.539307" x2="810.626709" y2="1274.132812" style="stroke: green; stroke-width: 0.200000"/>
   <line x1="809.626709" y1="1263.539307" x2="809.626709" y2="1268.221313" style="stroke: green; stroke-width: 0.200000"/>
   <line x1="808.626709" y1="1263.539307" x2="808.626709" y2="1264.282227" style="stroke: green; stroke-width: 0.200000"/>
   <line x1="836.626709" y1="1313.639160" x2="836.626709" y2="1337.432251" style="stroke: green; stroke-width: 0.200000"/>
   <line x1="835.626709" y1="1313.639160" x2="835.626709" y2="1337.275146" style="stroke: green; stroke-width: 0.200000"/>
   <line x1="834.626709" y1="1313.639160" x2="834.626709" y2="1337.117798" style="stroke: green; stroke-width: 0.200000"/>
   <line x1="833.626709" y1="1313.639160" x2="833.626709" y2="1336.960449" style="stroke: green; stroke-width: 0.200000"/>
   <line x1="832.626709" y1="1313.639160" x2="832.626709" y2="1336.803101" style="stroke: green; stroke-width: 0.200000"/>
   <line x1="837.626709" y1="1313.639160" x2="837.626709" y2="1336.695435" style="stroke: green; stroke-width: 0.200000"/>
   <line x1="831.626709" y1="1313.639160" x2="831.626709" y2="1336.638794" style="stroke: green; stroke-width: 0.200000"/>
   <line x1="830.626709" y1="1313.639160" x2="830.626709" y2="1336.471680" style="stroke: green; stroke-width: 0.200000"/>
   <line x1="829.626709" y1="1313.639160" x2="829.626709" y2="1336.304688" style="stroke: green; stroke-width: 0.200000"/>
   <line x1="828.626709" y1="1313.639160" x2="828.626709" y2="1336.137695" style="stroke: green; stroke-width: 0.200000"/>
   <line x1="827.626709" y1="1313.639160" x2="827.626709" y2="1335.970581" style="stroke: green; stroke-width: 0.200000"/>
   <line x1="826.626709" y1="1313.639160" x2="826.626709" y2="1335.803467" style="stroke: green; stroke-width: 0.200000"/>
   <line x1="825.626709" y1="1313.639160" x2="825.626709" y2="1335.636475" style="stroke: green; stroke-width: 0.200000"/>
   <line x1="824.626709" y1="1313.639160" x2="824.626709" y2="1335.469360" style="stroke: green; stroke-width: 0.200000"/>
   <line x1="823.626709" y1="1313.639160" x2="823.626709" y2="1335.302246" style="stroke: green; stroke-width: 0.200000"/>
   <line x1="822.626709" y1="1313.639160" x2="822.626709" y2="1335.135254" style="stroke: green; stroke-width: 0.200000"/>
   <line x1="821.626709" y1="1313.639160" x2="821.626709" y2="1334.576294" style="stroke: green; stroke-width: 0.200000"/>
   <line x1="820.626709" y1="1313.639160" x2="820.626709" y2="1331.910522" style="stroke: green; stroke-width: 0.200000"/>
   <line x1="838.626709" y1="1313.639160" x2="838.626709" y2="1328.075439" style="stroke: green; stroke-width: 0.200000"/>
   <line x1="819.626709" y1="1313.639160" x2="819.626709" y2="1327.438232" style="stroke: green; stroke-width: 0.200000"/>
   <line x1="818.626709" y1="1313.639160" x2="818.626709" y2="1323.406982" style="stroke: green; stroke-width: 0.200000"/>
   <line x1="839.626709" y1="1313.639160" x2="839.626709" y2="1321.583984" style="stroke: green; stroke-width: 0.200000"/>
   <line x1="817.626709" y1="1313.639160" x2="817.626709" y2="1317.794922" style="stroke: green; stroke-width: 0.200000"/>
   <line x1="840.626709" y1="1313.639160" x2="840.626709" y2="1316.809692" style="stroke: green; stroke-width: 0.200000"/>
   <line x1="815.549194" y1="1104.875000" x2="815.549194" y2="1148.406860" style="stroke: green; stroke-width: 0.200000"/>
   <line x1="816.549133" y1="1103.830078" x2="816.549133" y2="1148.406860" style="stroke: green; stroke-width: 0.200000"/>
   <line x1="855.549194" y1="1145.177490" x2="855.549194" y2="1148.406860" style="stroke: green; stroke-width: 0.200000"/>
   <line x1="814.549194" y1="1106.022827" x2="814.549194" y2="1148.135254" style="stroke: green; stroke-width: 0.200000"/>
   <line x1="817.549133" y1="1103.296997" x2="817.549133" y2="1148.123169" style="stroke: green; stroke-width: 0.200000"/>
   <line x1="818.549194" y1="1102.763916" x2="818.549194" y2="1147.707397" style="stroke: green; stroke-width: 0.200000"/>
   <line x1="819.549194" y1="1102.230835" x2="819.549194" y2="1147.291748" style="stroke: green; stroke-width: 0.200000"/>
   <line x1="820.549194" y1="1101.697754" x2="820.549194" y2="1146.875977" style="stroke: green; stroke-width: 0.200000"/>
   <line x1="813.549194" y1="1107.170776" x2="813.549194" y2="1146.647461" style="stroke: green; stroke-width: 0.200000"/>
   <line x1="821.549133" y1="1101.164673" x2="821.549133" y2="1146.460205" style="stroke: green; stroke-width: 0.200000"/>
   <line x1="822.549133" y1="1100.673706" x2="822.549133" y2="1146.044434" style="stroke: green; stroke-width: 0.200000"/>
   <line x1="823.549194" y1="1100.257568" x2="823.549194" y2="1145.524414" style="stroke: green; stroke-width: 0.200000"/>
   <line x1="812.549133" y1="1108.318726" x2="812.549133" y2="1145.159790" style="stroke: green; stroke-width: 0.200000"/>
   <line x1="824.549194" y1="1099.841431" x2="824.549194" y2="1144.805176" style="stroke: green; stroke-width: 0.200000"/>
   <line x1="825.549194" y1="1099.425293" x2="825.549194" y2="1143.707031" style="stroke: green; stroke-width: 0.200000"/>
   <line x1="811.549133" y1="1109.466675" x2="811.549133" y2="1143.552979" style="stroke: green; stroke-width: 0.200000"/>
   <line x1="826.549133" y1="1099.204346" x2="826.549133" y2="1142.536499" style="stroke: green; stroke-width: 0.200000"/>
   <line x1="810.549194" y1="1110.772827" x2="810.549194" y2="1141.939575" style="stroke: green; stroke-width: 0.200000"/>
   <line x1="827.549133" y1="1098.985352" x2="827.549133" y2="1141.365967" style="stroke: green; stroke-width: 0.200000"/>
   <line x1="809.549194" y1="1113.159668" x2="809.549194" y2="1140.326172" style="stroke: green; stroke-width: 0.200000"/>
   <line x1="828.549194" y1="1098.766235" x2="828.549194" y2="1140.195435" style="stroke: green; stroke-width: 0.200000"/>
   <line x1="829.549194" y1="1098.547241" x2="829.549194" y2="1139.024902" style="stroke: green; stroke-width: 0.200000"/>
   <line x1="830.549194" y1="1098.545044" x2="830.549194" y2="1138.454712" style="stroke: green; stroke-width: 0.200000"/>
   <line x1="831.549133" y1="1098.929688" x2="831.549133" y2="1138.084961" style="stroke: green; stroke-width: 0.200000"/>
   <line x1="855.549194" y1="1123.214233" x2="855.549194" y2="1138.035767" style="stroke: green; stroke-width: 0.200000"/>
   <line x1="832.549133" y1="1099.259766" x2="832.549133" y2="1137.715210" style="stroke: green; stroke-width: 0.200000"/>
   <line x1="808.549194" y1="1115.546509" x2="808.549194" y2="1137.664185" style="stroke: green; stroke-width: 0.200000"/>
   <line x1="854.549194" y1="1119.985596" x2="854.549194" y2="1137.612427" style="stroke: green; stroke-width: 0.200000"/>
   <line x1="833.549194" y1="1099.404663" x2="833.549194" y2="1137.232788" style="stroke: green; stroke-width: 0.200000"/>
   <line x1="853.549194" y1="1116.757080" x2="853.549194" y2="1137.189209" style="stroke: green; stroke-width: 0.200000"/>
   <line x1="852.549133" y1="1113.965576" x2="852.549133" y2="1136.765991" style="stroke: green; stroke-width: 0.200000"/>
   <line x1="834.549194" y1="1099.549561" x2="834.549194" y2="1136.725464" style="stroke: green; stroke-width: 0.200000"/>
   <line x1="851.549133" y1="1112.549072" x2="851.549133" y2="1136.342651" style="stroke: green; stroke-width: 0.200000"/>
   <line x1="835.549194" y1="1099.694458" x2="835.549194" y2="1136.218262" style="stroke: green; stroke-width: 0.200000"/>
   <line x1="850.549194" y1="1111.298584" x2="850.549194" y2="1135.919434" style="stroke: green; stroke-width: 0.200000"/>
   <line x1="836.549133" y1="1099.839355" x2="836.549133" y2="1135.710938" style="stroke: green; stroke-width: 0.200000"/>
   <line x1="849.549194" y1="1110.048096" x2="849.549194" y2="1135.525757" style="stroke: green; stroke-width: 0.200000"/>
   <line x1="837.549133" y1="1099.984253" x2="837.549133" y2="1135.203735" style="stroke: green; stroke-width: 0.200000"/>
   <line x1="848.549194" y1="1108.797607" x2="848.549194" y2="1135.161011" style="stroke: green; stroke-width: 0.200000"/>
   <line x1="847.549133" y1="1107.547119" x2="847.549133" y2="1134.796265" style="stroke: green; stroke-width: 0.200000"/>
   <line x1="838.549194" y1="1100.129150" x2="838.549194" y2="1134.696533" style="stroke: green; stroke-width: 0.200000"/>
   <line x1="846.549133" y1="1106.286133" x2="846.549133" y2="1134.580688" style="stroke: green; stroke-width: 0.200000"/>
   <line x1="845.549194" y1="1105.022339" x2="845.549194" y2="1134.510254" style="stroke: green; stroke-width: 0.200000"/>
   <line x1="844.549194" y1="1103.758667" x2="844.549194" y2="1134.439941" style="stroke: green; stroke-width: 0.200000"/>
   <line x1="843.549194" y1="1102.616211" x2="843.549194" y2="1134.369629" style="stroke: green; stroke-width: 0.200000"/>
   <line x1="842.549133" y1="1101.771118" x2="842.549133" y2="1134.299194" style="stroke: green; stroke-width: 0.200000"/>
   <line x1="841.549133" y1="1100.926025" x2="841.549133" y2="1134.228760" style="stroke: green; stroke-width: 0.200000"/>
   <line x1="839.549194" y1="1100.274048" x2="839.549194" y2="1134.189209" style="stroke: green; stroke-width: 0.200000"/>
   <line x1="840.549194" y1="1100.513306" x2="840.549194" y2="1134.158447" style="stroke: green; stroke-width: 0.200000"/>
   <line x1="807.549133" y1="1117.933228" x2="807.549133" y2="1132.892090" style="stroke: green; stroke-width: 0.200000"/>
   <line x1="806.549133" y1="1120.320068" x2="806.549133" y2="1120.557861" style="stroke: green; stroke-width: 0.200000"/>
   <line x1="857.549133" y1="1141.270264" x2="857.549133" y2="1148.406860" style="stroke: green; stroke-width: 0.200000"/>
   <line x1="858.549194" y1="1139.316528" x2="858.549194" y2="1148.406860" style="stroke: green; stroke-width: 0.200000"/>
   <line x1="859.549194" y1="1137.753784" x2="859.549194" y2="1148.406860" style="stroke: green; stroke-width: 0.200000"/>
   <line x1="860.549194" y1="1138.865234" x2="860.549194" y2="1148.406860" style="stroke: green; stroke-width: 0.200000"/>
   <line x1="861.549133" y1="1138.940796" x2="861.549133" y2="1148.406860" style="stroke: green; stroke-width: 0.200000"/>
   <line x1="862.549133" y1="1138.888062" x2="862.549133" y2="1148.406860" style="stroke: green; stroke-width: 0.200000"/>
   <line x1="863.549194" y1="1138.835205" x2="863.549194" y2="1148.406860" style="stroke: green; stroke-width: 0.200000"/>
   <line x1="864.549194" y1="1138.782349" x2="864.549194" y2="1148.406860" style="stroke: green; stroke-width: 0.200000"/>
   <line x1="865.549194" y1="1138.729492" x2="865.549194" y2="1148.406860" style="stroke: green; stroke-width: 0.200000"/>
   <line x1="866.549133" y1="1138.676636" x2="866.549133" y2="1148.406860" style="stroke: green; stroke-width: 0.200000"/>
   <line x1="867.549133" y1="1138.623779" x2="867.549133" y2="1148.406860" style="stroke: green; stroke-width: 0.200000"/>
   <line x1="868.549194" y1="1138.571045" x2="868.549194" y2="1148.406860" style="stroke: green; stroke-width: 0.200000"/>
   <line x1="869.549194" y1="1138.490234" x2="869.549194" y2="1148.406860" style="stroke: green; stroke-width: 0.200000"/>
   <line x1="870.549194" y1="1138.288452" x2="870.549194" y2="1148.406860" style="stroke: green; stroke-width: 0.200000"/>
   <line x1="871.549133" y1="1138.500732" x2="871.549133" y2="1148.406860" style="stroke: green; stroke-width: 0.200000"/>
   <line x1="872.549133" y1="1138.858398" x2="872.549133" y2="1148.406860" style="stroke: green; stroke-width: 0.200000"/>
   <line x1="873.549194" y1="1139.216187" x2="873.549194" y2="1148.406860" style="stroke: green; stroke-width: 0.200000"/>
   <line x1="874.549194" y1="1139.573975" x2="874.549194" y2="1148.406860" style="stroke: green; stroke-width: 0.200000"/>
   <line x1="875.549194" y1="1139.931763" x2="875.549194" y2="1148.406860" style="stroke: green; stroke-width: 0.200000"/>
   <line x1="876.549133" y1="1140.289551" x2="876.549133" y2="1148.406860" style="stroke: green; stroke-width: 0.200000"/>
   <line x1="877.549133" y1="1140.647217" x2="877.549133" y2="1148.406860" style="stroke: green; stroke-width: 0.200000"/>
   <line x1="878.549194" y1="1141.051880" x2="878.549194" y2="1148.406860" style="stroke: green; stroke-width: 0.200000"/>
   <line x1="879.549194" y1="1141.479370" x2="879.549194" y2="1148.406860" style="stroke: green; stroke-width: 0.200000"/>
   <line x1="880.549194" y1="1141.906860" x2="880.549194" y2="1148.406860" style="stroke: green; stroke-width: 0.200000"/>
   <line x1="881.549133" y1="1142.334351" x2="881.549133" y2="1148.406860" style="stroke: green; stroke-width: 0.200000"/>
   <line x1="882.549133" y1="1142.761841" x2="882.549133" y2="1148.406860" style="stroke: green; stroke-width: 0.200000"/>
   <line x1="883.549194" y1="1143.189453" x2="883.549194" y2="1148.406860" style="stroke: green; stroke-width: 0.200000"/>
   <line x1="884.549194" y1="1143.559692" x2="884.549194" y2="1148.406860" style="stroke: green; stroke-width: 0.200000"/>
   <line x1="885.549194" y1="1143.789185" x2="885.549194" y2="1148.406860" style="stroke: green; stroke-width: 0.200000"/>
   <line x1="886.549133" y1="1144.018677" x2="886.549133" y2="1148.406860" style="stroke: green; stroke-width: 0.200000"/>
   <line x1="887.549133" y1="1144.423706" x2="887.549133" y2="1148.406860" style="stroke: green; stroke-width: 0.200000"/>
   <line x1="888.549194" y1="1144.852539" x2="888.549194" y2="1148.406860" style="stroke: green; stroke-width: 0.200000"/>
   <line x1="889.549194" y1="1145.281372" x2="889.549194" y2="1148.406860" style="stroke: green; stroke-width: 0.200000"/>
   <line x1="890.549194" y1="1145.710205" x2="890.549194" y2="1148.406860" style="stroke: green; stroke-width: 0.200000"/>
   <line x1="891.549133" y1="1146.139038" x2="891.549133" y2="1148.406860" style="stroke: green; stroke-width: 0.200000"/>
   <line x1="892.549133" y1="1146.567749" x2="892.549133" y2="1148.406860" style="stroke: green; stroke-width: 0.200000"/>
   <line x1="893.549194" y1="1146.996582" x2="893.549194" y2="1148.406860" style="stroke: green; stroke-width: 0.200000"/>
   <line x1="894.549194" y1="1147.425415" x2="894.549194" y2="1148.406860" style="stroke: green; stroke-width: 0.200000"/>
   <line x1="895.549194" y1="1147.991821" x2="895.549194" y2="1148.406860" style="stroke: green; stroke-width: 0.200000"/>
   <line x1="858.549194" y1="1134.219727" x2="858.549194" y2="1139.305542" style="stroke: green; stroke-width: 0.200000"/>
   <line x1="857.549133" y1="1127.525024" x2="857.549133" y2="1138.882202" style="stroke: green; stroke-width: 0.200000"/>
   <line x1="855.549194" y1="1155.806030" x2="855.549194" y2="1159.851074" style="stroke: green; stroke-width: 0.200000"/>
   <line x1="815.549194" y1="1148.506836" x2="815.549194" y2="1149.189453" style="stroke: green; stroke-width: 0.200000"/>
   <line x1="816.549133" y1="1148.506836" x2="816.549133" y2="1148.632568" style="stroke: green; stroke-width: 0.200000"/>
   <line x1="855.549194" y1="1148.506836" x2="855.549194" y2="1148.566284" style="stroke: green; stroke-width: 0.200000"/>
   <line x1="897.549133" y1="1149.228271" x2="897.549133" y2="1198.506836" style="stroke: green; stroke-width: 0.200000"/>
   <line x1="898.549194" y1="1149.846436" x2="898.549194" y2="1198.506836" style="stroke: green; stroke-width: 0.200000"/>
   <line x1="899.549194" y1="1150.464355" x2="899.549194" y2="1198.506836" style="stroke: green; stroke-width: 0.200000"/>
   <line x1="900.549194" y1="1151.082520" x2="900.549194" y2="1198.506836" style="stroke: green; stroke-width: 0.200000"/>
   <line x1="901.549133" y1="1151.700684" x2="901.549133" y2="1198.506836" style="stroke: green; stroke-width: 0.200000"/>
   <line x1="902.549133" y1="1152.318970" x2="902.549133" y2="1198.506836" style="stroke: green; stroke-width: 0.200000"/>
   <line x1="903.549194" y1="1152.937134" x2="903.549194" y2="1198.506836" style="stroke: green; stroke-width: 0.200000"/>
   <line x1="904.549194" y1="1153.514282" x2="904.549194" y2="1198.506836" style="stroke: green; stroke-width: 0.200000"/>
   <line x1="905.549194" y1="1153.964233" x2="905.549194" y2="1198.506836" style="stroke: green; stroke-width: 0.200000"/>
   <line x1="906.549133" y1="1154.414185" x2="906.549133" y2="1198.506836" style="stroke: green; stroke-width: 0.200000"/>
   <line x1="896.549133" y1="1148.609985" x2="896.549133" y2="1198.468628" style="stroke: green; stroke-width: 0.200000"/>
   <line x1="895.549194" y1="1148.506836" x2="895.549194" y2="1197.980225" style="stroke: green; stroke-width: 0.200000"/>
   <line x1="894.549194" y1="1148.506836" x2="894.549194" y2="1197.532715" style="stroke: green; stroke-width: 0.200000"/>
   <line x1="893.549194" y1="1148.506836" x2="893.549194" y2="1197.085083" style="stroke: green; stroke-width: 0.200000"/>
   <line x1="892.549133" y1="1148.506836" x2="892.549133" y2="1196.637451" style="stroke: green; stroke-width: 0.200000"/>
   <line x1="891.549133" y1="1148.506836" x2="891.549133" y2="1196.189819" style="stroke: green; stroke-width: 0.200000"/>
   <line x1="890.549194" y1="1148.506836" x2="890.549194" y2="1195.737427" style="stroke: green; stroke-width: 0.200000"/>
   <line x1="889.549194" y1="1148.506836" x2="889.549194" y2="1195.036621" style="stroke: green; stroke-width: 0.200000"/>
   <line x1="888.549194" y1="1148.506836" x2="888.549194" y2="1194.335693" style="stroke: green; stroke-width: 0.200000"/>
   <line x1="887.549133" y1="1148.506836" x2="887.549133" y2="1193.634888" style="stroke: green; stroke-width: 0.200000"/>
   <line x1="886.549133" y1="1148.506836" x2="886.549133" y2="1192.933960" style="stroke: green; stroke-width: 0.200000"/>
   <line x1="885.549194" y1="1148.506836" x2="885.549194" y2="1192.342651" style="stroke: green; stroke-width: 0.200000"/>
   <line x1="884.549194" y1="1148.506836" x2="884.549194" y2="1191.774414" style="stroke: green; stroke-width: 0.200000"/>
   <line x1="883.549194" y1="1148.506836" x2="883.549194" y2="1191.206299" style="stroke: green; stroke-width: 0.200000"/>
   <line x1="882.549133" y1="1148.506836" x2="882.549133" y2="1190.638062" style="stroke: green; stroke-width: 0.200000"/>
   <line x1="881.549133" y1="1148.506836" x2="881.549133" y2="1190.017334" style="stroke: green; stroke-width: 0.200000"/>
   <line x1="880.549194" y1="1148.506836" x2="880.549194" y2="1189.276001" style="stroke: green; stroke-width: 0.200000"/>
   <line x1="879.549194" y1="1148.506836" x2="879.549194" y2="1188.534424" style="stroke: green; stroke-width: 0.200000"/>
   <line x1="878.549194" y1="1148.506836" x2="878.549194" y2="1187.792847" style="stroke: green; stroke-width: 0.200000"/>
   <line x1="877.549133" y1="1148.506836" x2="877.549133" y2="1187.051270" style="stroke: green; stroke-width: 0.200000"/>
   <line x1="876.549133" y1="1148.506836" x2="876.549133" y2="1186.309692" style="stroke: green; stroke-width: 0.200000"/>
   <line x1="875.549194" y1="1148.506836" x2="875.549194" y2="1185.618164" style="stroke: green; stroke-width: 0.200000"/>
   <line x1="874.549194" y1="1148.506836" x2="874.549194" y2="1184.966064" style="stroke: green; stroke-width: 0.200000"/>
   <line x1="873.549194" y1="1148.506836" x2="873.549194" y2="1184.237793" style="stroke: green; stroke-width: 0.200000"/>
   <line x1="872.549133" y1="1148.506836" x2="872.549133" y2="1183.325684" style="stroke: green; stroke-width: 0.200000"/>
   <line x1="871.549133" y1="1148.506836" x2="871.549133" y2="1182.413574" style="stroke: green; stroke-width: 0.200000"/>
   <line x1="870.549194" y1="1148.506836" x2="870.549194" y2="1181.501465" style="stroke: green; stroke-width: 0.200000"/>
   <line x1="869.549194" y1="1148.506836" x2="869.549194" y2="1180.589355" style="stroke: green; stroke-width: 0.200000"/>
   <line x1="868.549194" y1="1148.506836" x2="868.549194" y2="1179.677246" style="stroke: green; stroke-width: 0.200000"/>
   <line x1="867.549133" y1="1148.506836" x2="867.549133" y2="1178.840576" style="stroke: green; stroke-width: 0.200000"/>
   <line x1="866.549133" y1="1148.506836" x2="866.549133" y2="1178.140137" style="stroke: green; stroke-width: 0.200000"/>
   <line x1="865.549194" y1="1148.506836" x2="865.549194" y2="1177.350098" style="stroke: green; stroke-width: 0.200000"/>
   <line x1="864.549194" y1="1148.506836" x2="864.549194" y2="1176.044434" style="stroke: green; stroke-width: 0.200000"/>
   <line x1="863.549194" y1="1148.506836" x2="863.549194" y2="1174.738525" style="stroke: green; stroke-width: 0.200000"/>
   <line x1="862.549133" y1="1148.506836" x2="862.549133" y2="1173.432739" style="stroke: green; stroke-width: 0.200000"/>
   <line x1="861.549133" y1="1148.506836" x2="861.549133" y2="1172.126953" style="stroke: green; stroke-width: 0.200000"/>
   <line x1="860.549194" y1="1148.506836" x2="860.549194" y2="1170.894165" style="stroke: green; stroke-width: 0.200000"/>
   <line x1="859.549194" y1="1148.506836" x2="859.549194" y2="1169.688965" style="stroke: green; stroke-width: 0.200000"/>
   <line x1="858.549194" y1="1148.506836" x2="858.549194" y2="1168.483765" style="stroke: green; stroke-width: 0.200000"/>
   <line x1="857.549133" y1="1148.506836" x2="857.549133" y2="1167.278442" style="stroke: green; stroke-width: 0.200000"/>
   <line x1="907.549133" y1="1154.874634" x2="907.549133" y2="1198.506836" style="stroke: green; stroke-width: 0.200000"/>
   <line x1="908.549194" y1="1155.351074" x2="908.549194" y2="1198.506836" style="stroke: green; stroke-width: 0.200000"/>
   <line x1="909.549194" y1="1155.827637" x2="909.549194" y2="1198.506836" style="stroke: green; stroke-width: 0.200000"/>
   <line x1="910.549194" y1="1156.304199" x2="910.549194" y2="1198.506836" style="stroke: green; stroke-width: 0.200000"/>
   <line x1="911.549133" y1="1156.780762" x2="911.549133" y2="1198.506836" style="stroke: green; stroke-width: 0.200000"/>
   <line x1="912.549133" y1="1157.257202" x2="912.549133" y2="1198.506836" style="stroke: green; stroke-width: 0.200000"/>
   <line x1="913.549194" y1="1157.733643" x2="913.549194" y2="1198.506836" style="stroke: green; stroke-width: 0.200000"/>
   <line x1="914.549194" y1="1158.320068" x2="914.549194" y2="1198.506836" style="stroke: green; stroke-width: 0.200000"/>
   <line x1="915.549194" y1="1158.908813" x2="915.549194" y2="1198.506836" style="stroke: green; stroke-width: 0.200000"/>
   <line x1="916.549133" y1="1159.497681" x2="916.549133" y2="1198.506836" style="stroke: green; stroke-width: 0.200000"/>
   <line x1="917.549133" y1="1160.086548" x2="917.549133" y2="1198.506836" style="stroke: green; stroke-width: 0.200000"/>
   <line x1="918.549194" y1="1160.531616" x2="918.549194" y2="1198.506836" style="stroke: green; stroke-width: 0.200000"/>
   <line x1="919.549194" y1="1160.650146" x2="919.549194" y2="1198.506836" style="stroke: green; stroke-width: 0.200000"/>
   <line x1="920.549194" y1="1160.768799" x2="920.549194" y2="1198.506836" style="stroke: green; stroke-width: 0.200000"/>
   <line x1="921.549133" y1="1160.887329" x2="921.549133" y2="1198.506836" style="stroke: green; stroke-width: 0.200000"/>
   <line x1="922.549133" y1="1161.005859" x2="922.549133" y2="1198.506836" style="stroke: green; stroke-width: 0.200000"/>
   <line x1="923.549194" y1="1161.369751" x2="923.549194" y2="1198.506836" style="stroke: green; stroke-width: 0.200000"/>
   <line x1="924.549194" y1="1161.965210" x2="924.549194" y2="1198.506836" style="stroke: green; stroke-width: 0.200000"/>
   <line x1="925.549194" y1="1162.561401" x2="925.549194" y2="1198.506836" style="stroke: green; stroke-width: 0.200000"/>
   <line x1="926.549133" y1="1163.157593" x2="926.549133" y2="1198.506836" style="stroke: green; stroke-width: 0.200000"/>
   <line x1="927.549133" y1="1163.753784" x2="927.549133" y2="1198.506836" style="stroke: green; stroke-width: 0.200000"/>
   <line x1="928.549194" y1="1164.285889" x2="928.549194" y2="1198.506836" style="stroke: green; stroke-width: 0.200000"/>
   <line x1="929.549194" y1="1164.715698" x2="929.549194" y2="1198.506836" style="stroke: green; stroke-width: 0.200000"/>
   <line x1="930.549194" y1="1165.145020" x2="930.549194" y2="1198.506836" style="stroke: green; stroke-width: 0.200000"/>
   <line x1="931.549133" y1="1165.574341" x2="931.549133" y2="1198.506836" style="stroke: green; stroke-width: 0.200000"/>
   <line x1="932.549133" y1="1166.098633" x2="932.549133" y2="1198.506836" style="stroke: green; stroke-width: 0.200000"/>
   <line x1="933.549194" y1="1166.718384" x2="933.549194" y2="1198.506836" style="stroke: green; stroke-width: 0.200000"/>
   <line x1="934.549194" y1="1167.338135" x2="934.549194" y2="1198.506836" style="stroke: green; stroke-width: 0.200000"/>
   <line x1="935.549194" y1="1167.957886" x2="935.549194" y2="1198.506836" style="stroke: green; stroke-width: 0.200000"/>
   <line x1="936.549133" y1="1168.577759" x2="936.549133" y2="1198.506836" style="stroke: green; stroke-width: 0.200000"/>
   <line x1="937.549133" y1="1169.197510" x2="937.549133" y2="1198.506836" style="stroke: green; stroke-width: 0.200000"/>
   <line x1="938.549194" y1="1169.817139" x2="938.549194" y2="1198.506836" style="stroke: green; stroke-width: 0.200000"/>
   <line x1="939.549194" y1="1170.443726" x2="939.549194" y2="1198.506836" style="stroke: green; stroke-width: 0.200000"/>
   <line x1="940.549194" y1="1171.063477" x2="940.549194" y2="1198.506836" style="stroke: green; stroke-width: 0.200000"/>
   <line x1="941.549133" y1="1171.694580" x2="941.549133" y2="1198.506836" style="stroke: green; stroke-width: 0.200000"/>
   <line x1="942.549133" y1="1172.483276" x2="942.549133" y2="1198.506836" style="stroke: green; stroke-width: 0.200000"/>
   <line x1="943.549194" y1="1173.272095" x2="943.549194" y2="1198.506836" style="stroke: green; stroke-width: 0.200000"/>
   <line x1="944.549194" y1="1174.061035" x2="944.549194" y2="1198.506836" style="stroke: green; stroke-width: 0.200000"/>
   <line x1="945.549194" y1="1183.587646" x2="945.549194" y2="1198.182373" style="stroke: green; stroke-width: 0.200000"/>
   <line x1="946.549133" y1="1185.190552" x2="946.549133" y2="1197.707397" style="stroke: green; stroke-width: 0.200000"/>
   <line x1="947.549133" y1="1186.793823" x2="947.549133" y2="1197.232544" style="stroke: green; stroke-width: 0.200000"/>
   <line x1="948.549194" y1="1188.396729" x2="948.549194" y2="1196.757690" style="stroke: green; stroke-width: 0.200000"/>
   <line x1="949.549194" y1="1190.000122" x2="949.549194" y2="1196.063110" style="stroke: green; stroke-width: 0.200000"/>
   <line x1="950.549194" y1="1191.603271" x2="950.549194" y2="1195.066895" style="stroke: green; stroke-width: 0.200000"/>
   <line x1="951.549133" y1="1193.206543" x2="951.549133" y2="1194.090454" style="stroke: green; stroke-width: 0.200000"/>
   <line x1="945.549194" y1="1174.849609" x2="945.549194" y2="1181.748779" style="stroke: green; stroke-width: 0.200000"/>
   <line x1="946.549133" y1="1175.638306" x2="946.549133" y2="1180.806152" style="stroke: green; stroke-width: 0.200000"/>
   <line x1="947.549133" y1="1176.426880" x2="947.549133" y2="1179.863647" style="stroke: green; stroke-width: 0.200000"/>
   <line x1="948.549194" y1="1177.215698" x2="948.549194" y2="1178.921143" style="stroke: green; stroke-width: 0.200000"/>
   <line x1="906.549133" y1="1198.606934" x2="906.549133" y2="1202.901611" style="stroke: green; stroke-width: 0.200000"/>
   <line x1="905.549194" y1="1198.606934" x2="905.549194" y2="1202.511841" style="stroke: green; stroke-width: 0.200000"/>
   <line x1="904.549194" y1="1198.606934" x2="904.549194" y2="1202.126709" style="stroke: green; stroke-width: 0.200000"/>
   <line x1="903.549194" y1="1198.606934" x2="903.549194" y2="1201.748291" style="stroke: green; stroke-width: 0.200000"/>
   <line x1="902.549133" y1="1198.606934" x2="902.549133" y2="1201.369995" style="stroke: green; stroke-width: 0.200000"/>
   <line x1="901.549133" y1="1198.606934" x2="901.549133" y2="1200.947632" style="stroke: green; stroke-width: 0.200000"/>
   <line x1="900.549194" y1="1198.606934" x2="900.549194" y2="1200.451782" style="stroke: green; stroke-width: 0.200000"/>
   <line x1="899.549194" y1="1198.606934" x2="899.549194" y2="1199.956055" style="stroke: green; stroke-width: 0.200000"/>
   <line x1="898.549194" y1="1198.606934" x2="898.549194" y2="1199.460205" style="stroke: green; stroke-width: 0.200000"/>
   <line x1="897.549133" y1="1198.606934" x2="897.549133" y2="1198.964355" style="stroke: green; stroke-width: 0.200000"/>
   <line x1="929.549194" y1="1205.207275" x2="929.549194" y2="1209.018433" style="stroke: green; stroke-width: 0.200000"/>
   <line x1="928.549194" y1="1198.606934" x2="928.549194" y2="1208.952148" style="stroke: green; stroke-width: 0.200000"/>
   <line x1="927.549133" y1="1198.606934" x2="927.549133" y2="1208.885864" style="stroke: green; stroke-width: 0.200000"/>
   <line x1="926.549133" y1="1198.606934" x2="926.549133" y2="1208.819580" style="stroke: green; stroke-width: 0.200000"/>
   <line x1="925.549194" y1="1198.606934" x2="925.549194" y2="1208.753174" style="stroke: green; stroke-width: 0.200000"/>
   <line x1="924.549194" y1="1198.606934" x2="924.549194" y2="1208.640015" style="stroke: green; stroke-width: 0.200000"/>
   <line x1="923.549194" y1="1198.606934" x2="923.549194" y2="1208.444092" style="stroke: green; stroke-width: 0.200000"/>
   <line x1="922.549133" y1="1198.606934" x2="922.549133" y2="1208.248047" style="stroke: green; stroke-width: 0.200000"/>
   <line x1="921.549133" y1="1198.606934" x2="921.549133" y2="1208.052002" style="stroke: green; stroke-width: 0.200000"/>
   <line x1="920.549194" y1="1198.606934" x2="920.549194" y2="1207.855957" style="stroke: green; stroke-width: 0.200000"/>
   <line x1="919.549194" y1="1198.606934" x2="919.549194" y2="1207.659912" style="stroke: green; stroke-width: 0.200000"/>
   <line x1="918.549194" y1="1198.606934" x2="918.549194" y2="1207.358521" style="stroke: green; stroke-width: 0.200000"/>
   <line x1="917.549133" y1="1198.606934" x2="917.549133" y2="1207.048096" style="stroke: green; stroke-width: 0.200000"/>
   <line x1="916.549133" y1="1198.606934" x2="916.549133" y2="1206.737549" style="stroke: green; stroke-width: 0.200000"/>
   <line x1="915.549194" y1="1198.606934" x2="915.549194" y2="1206.427124" style="stroke: green; stroke-width: 0.200000"/>
   <line x1="914.549194" y1="1198.606934" x2="914.549194" y2="1206.060669" style="stroke: green; stroke-width: 0.200000"/>
   <line x1="913.549194" y1="1198.606934" x2="913.549194" y2="1205.659424" style="stroke: green; stroke-width: 0.200000"/>
   <line x1="912.549133" y1="1198.606934" x2="912.549133" y2="1205.258179" style="stroke: green; stroke-width: 0.200000"/>
   <line x1="911.549133" y1="1198.606934" x2="911.549133" y2="1204.856934" style="stroke: green; stroke-width: 0.200000"/>
   <line x1="910.549194" y1="1198.606934" x2="910.549194" y2="1204.460938" style="stroke: green; stroke-width: 0.200000"/>
   <line x1="909.549194" y1="1198.606934" x2="909.549194" y2="1204.071045" style="stroke: green; stroke-width: 0.200000"/>
   <line x1="908.549194" y1="1198.606934" x2="908.549194" y2="1203.681274" style="stroke: green; stroke-width: 0.200000"/>
   <line x1="907.549133" y1="1198.606934" x2="907.549133" y2="1203.291504" style="stroke: green; stroke-width: 0.200000"/>
   <line x1="929.549194" y1="1198.606934" x2="929.549194" y2="1200.744385" style="stroke: green; stroke-width: 0.200000"/>
   <line x1="930.549194" y1="1198.606934" x2="930.549194" y2="1200.628906" style="stroke: green; stroke-width: 0.200000"/>
   <line x1="931.549133" y1="1198.606934" x2="931.549133" y2="1200.513428" style="stroke: green; stroke-width: 0.200000"/>
   <line x1="932.549133" y1="1198.606934" x2="932.549133" y2="1200.398071" style="stroke: green; stroke-width: 0.200000"/>
   <line x1="933.549194" y1="1198.606934" x2="933.549194" y2="1200.282593" style="stroke: green; stroke-width: 0.200000"/>
   <line x1="934.549194" y1="1198.606934" x2="934.549194" y2="1200.167114" style="stroke: green; stroke-width: 0.200000"/>
   <line x1="935.549194" y1="1198.606934" x2="935.549194" y2="1200.051636" style="stroke: green; stroke-width: 0.200000"/>
   <line x1="936.549133" y1="1198.606934" x2="936.549133" y2="1199.936279" style="stroke: green; stroke-width: 0.200000"/>
   <line x1="937.549133" y1="1198.606934" x2="937.549133" y2="1199.820801" style="stroke: green; stroke-width: 0.200000"/>
   <line x1="938.549194" y1="1198.606934" x2="938.549194" y2="1199.705322" style="stroke: green; stroke-width: 0.200000"/>
   <line x1="939.549194" y1="1198.606934" x2="939.549194" y2="1199.589844" style="stroke: green; stroke-width: 0.200000"/>
   <line x1="940.549194" y1="1198.606934" x2="940.549194" y2="1199.474365" style="stroke: green; stroke-width: 0.200000"/>
   <line x1="941.549133" y1="1198.606934" x2="941.549133" y2="1199.359009" style="stroke: green; stroke-width: 0.200000"/>
   <line x1="942.549133" y1="1198.606934" x2="942.549133" y2="1199.243530" style="stroke: green; stroke-width: 0.200000"/>
   <line x1="943.549194" y1="1198.606934" x2="943.549194" y2="1199.128174" style="stroke: green; stroke-width: 0.200000"/>
   <line x1="944.549194" y1="1198.606934" x2="944.549194" y2="1198.657349" style="stroke: green; stroke-width: 0.200000"/>
   <line x1="833.977905" y1="1337.015869" x2="833.977905" y2="1347.529053" style="stroke: green; stroke-width: 0.200000"/>
   <line x1="832.977905" y1="1336.858521" x2="832.977905" y2="1347.488892" style="stroke: green; stroke-width: 0.200000"/>
   <line x1="831.977905" y1="1336.697754" x2="831.977905" y2="1347.331543" style="stroke: green; stroke-width: 0.200000"/>
   <line x1="830.977905" y1="1336.530640" x2="830.977905" y2="1347.174194" style="stroke: green; stroke-width: 0.200000"/>
   <line x1="829.977905" y1="1336.363525" x2="829.977905" y2="1347.017090" style="stroke: green; stroke-width: 0.200000"/>
   <line x1="828.977905" y1="1336.196411" x2="828.977905" y2="1346.859741" style="stroke: green; stroke-width: 0.200000"/>
   <line x1="827.977905" y1="1336.029297" x2="827.977905" y2="1346.698242" style="stroke: green; stroke-width: 0.200000"/>
   <line x1="826.977905" y1="1335.862305" x2="826.977905" y2="1346.531250" style="stroke: green; stroke-width: 0.200000"/>
   <line x1="825.977905" y1="1335.695190" x2="825.977905" y2="1345.395386" style="stroke: green; stroke-width: 0.200000"/>
   <line x1="834.977905" y1="1337.172974" x2="834.977905" y2="1344.976074" style="stroke: green; stroke-width: 0.200000"/>
   <line x1="824.977905" y1="1335.528076" x2="824.977905" y2="1342.503174" style="stroke: green; stroke-width: 0.200000"/>
   <line x1="835.977905" y1="1337.330322" x2="835.977905" y2="1342.360352" style="stroke: green; stroke-width: 0.200000"/>
   <line x1="836.977905" y1="1337.487671" x2="836.977905" y2="1339.627441" style="stroke: green; stroke-width: 0.200000"/>
   <line x1="823.977905" y1="1335.361084" x2="823.977905" y2="1339.611206" style="stroke: green; stroke-width: 0.200000"/>
   <line x1="822.977905" y1="1335.193970" x2="822.977905" y2="1337.446167" style="stroke: green; stroke-width: 0.200000"/>
   <line x1="821.977905" y1="1335.026733" x2="821.977905" y2="1335.322266" style="stroke: green; stroke-width: 0.200000"/>
   <line x1="937.502319" y1="1199.826294" x2="937.502319" y2="1209.755371" style="stroke: green; stroke-width: 0.200000"/>
   <line x1="938.502258" y1="1199.710815" x2="938.502258" y2="1209.695435" style="stroke: green; stroke-width: 0.200000"/>
   <line x1="936.502319" y1="1199.941650" x2="936.502319" y2="1209.692505" style="stroke: green; stroke-width: 0.200000"/>
   <line x1="939.502319" y1="1199.595459" x2="939.502319" y2="1209.635498" style="stroke: green; stroke-width: 0.200000"/>
   <line x1="940.502319" y1="1199.479858" x2="940.502319" y2="1209.575684" style="stroke: green; stroke-width: 0.200000"/>
   <line x1="935.502319" y1="1200.057129" x2="935.502319" y2="1209.548462" style="stroke: green; stroke-width: 0.200000"/>
   <line x1="941.502319" y1="1199.364502" x2="941.502319" y2="1209.515869" style="stroke: green; stroke-width: 0.200000"/>
   <line x1="942.502319" y1="1199.249023" x2="942.502319" y2="1209.455933" style="stroke: green; stroke-width: 0.200000"/>
   <line x1="934.502319" y1="1200.172607" x2="934.502319" y2="1209.437500" style="stroke: green; stroke-width: 0.200000"/>
   <line x1="943.502258" y1="1199.133667" x2="943.502258" y2="1209.395996" style="stroke: green; stroke-width: 0.200000"/>
   <line x1="933.502258" y1="1200.288086" x2="933.502258" y2="1209.350464" style="stroke: green; stroke-width: 0.200000"/>
   <line x1="944.502319" y1="1198.679688" x2="944.502319" y2="1209.336182" style="stroke: green; stroke-width: 0.200000"/>
   <line x1="945.502319" y1="1198.204712" x2="945.502319" y2="1209.276367" style="stroke: green; stroke-width: 0.200000"/>
   <line x1="932.502319" y1="1200.403564" x2="932.502319" y2="1209.263550" style="stroke: green; stroke-width: 0.200000"/>
   <line x1="946.502319" y1="1197.729858" x2="946.502319" y2="1209.216431" style="stroke: green; stroke-width: 0.200000"/>
   <line x1="931.502319" y1="1200.518921" x2="931.502319" y2="1209.176514" style="stroke: green; stroke-width: 0.200000"/>
   <line x1="930.502319" y1="1200.634399" x2="930.502319" y2="1209.089600" style="stroke: green; stroke-width: 0.200000"/>
   <line x1="947.502319" y1="1197.254883" x2="947.502319" y2="1208.946655" style="stroke: green; stroke-width: 0.200000"/>
   <line x1="948.502258" y1="1196.780029" x2="948.502258" y2="1208.525879" style="stroke: green; stroke-width: 0.200000"/>
   <line x1="949.502319" y1="1196.113281" x2="949.502319" y2="1208.105103" style="stroke: green; stroke-width: 0.200000"/>
   <line x1="950.502319" y1="1195.112793" x2="950.502319" y2="1207.684204" style="stroke: green; stroke-width: 0.200000"/>
   <line x1="951.502319" y1="1194.136475" x2="951.502319" y2="1207.263428" style="stroke: green; stroke-width: 0.200000"/>
   <line x1="952.502319" y1="1180.301880" x2="952.502319" y2="1206.842651" style="stroke: green; stroke-width: 0.200000"/>
   <line x1="953.502258" y1="1181.062256" x2="953.502258" y2="1206.421875" style="stroke: green; stroke-width: 0.200000"/>
   <line x1="954.502319" y1="1181.822754" x2="954.502319" y2="1206.001099" style="stroke: green; stroke-width: 0.200000"/>
   <line x1="955.502319" y1="1182.567017" x2="955.502319" y2="1205.580322" style="stroke: green; stroke-width: 0.200000"/>
   <line x1="956.502319" y1="1183.276123" x2="956.502319" y2="1205.159424" style="stroke: green; stroke-width: 0.200000"/>
   <line x1="957.502319" y1="1183.985107" x2="957.502319" y2="1204.738647" style="stroke: green; stroke-width: 0.200000"/>
   <line x1="929.502319" y1="1200.749756" x2="929.502319" y2="1204.671265" style="stroke: green; stroke-width: 0.200000"/>
   <line x1="958.502258" y1="1184.694214" x2="958.502258" y2="1204.106689" style="stroke: green; stroke-width: 0.200000"/>
   <line x1="959.502319" y1="1186.042847" x2="959.502319" y2="1203.292114" style="stroke: green; stroke-width: 0.200000"/>
   <line x1="960.502319" y1="1187.646118" x2="960.502319" y2="1202.477539" style="stroke: green; stroke-width: 0.200000"/>
   <line x1="961.502319" y1="1189.226807" x2="961.502319" y2="1201.662964" style="stroke: green; stroke-width: 0.200000"/>
   <line x1="962.502319" y1="1189.857910" x2="962.502319" y2="1200.770020" style="stroke: green; stroke-width: 0.200000"/>
   <line x1="963.502258" y1="1190.489014" x2="963.502258" y2="1199.793579" style="stroke: green; stroke-width: 0.200000"/>
   <line x1="964.502319" y1="1191.120117" x2="964.502319" y2="1198.528320" style="stroke: green; stroke-width: 0.200000"/>
   <line x1="965.502319" y1="1191.751221" x2="965.502319" y2="1196.500732" style="stroke: green; stroke-width: 0.200000"/>
   <line x1="966.502319" y1="1192.382324" x2="966.502319" y2="1194.473022" style="stroke: green; stroke-width: 0.200000"/>
   <line x1="951.502319" y1="1179.541382" x2="951.502319" y2="1193.131226" style="stroke: green; stroke-width: 0.200000"/>
   <line x1="950.502319" y1="1178.757202" x2="950.502319" y2="1191.528076" style="stroke: green; stroke-width: 0.200000"/>
   <line x1="949.502319" y1="1178.022827" x2="949.502319" y2="1189.924805" style="stroke: green; stroke-width: 0.200000"/>
   <line x1="948.502258" y1="1178.965454" x2="948.502258" y2="1188.321411" style="stroke: green; stroke-width: 0.200000"/>
   <line x1="947.502319" y1="1179.907959" x2="947.502319" y2="1186.718506" style="stroke: green; stroke-width: 0.200000"/>
   <line x1="946.502319" y1="1180.850586" x2="946.502319" y2="1185.115234" style="stroke: green; stroke-width: 0.200000"/>
   <line x1="945.502319" y1="1181.792969" x2="945.502319" y2="1183.512329" style="stroke: green; stroke-width: 0.200000"/>
   <line x1="865.773987" y1="1177.597046" x2="865.773987" y2="1177.597412" style="stroke: green; stroke-width: 0.200000"/>
   <path d="M 824.641  1346.12  822.533  1340.02  819.59  1333.77  818.969  1331.55  818.187  1327.86  817.053  1323.29  816.116  1317.86  815.059  1312.84  814.249  1307.5  813.713  1304.58  813.387  1302.16  812.234  1295.53  811.818  1292.78  810.615  1286.2  809.714  1278.87  809.363  1276.61  808.912  1272.02  808.099  1268.25  807.568  1266.48  805.89  1258.73  804.346  1254.04  803.231  1249.75  800.74  1241.99  800.517  1241.45  800.495  1241.19  798.307  1232.7  798.218  1228.87  797.342  1223.33  798.195  1219.29  798.2  1211  798.644  1209.34  799.346  1205.95  800.838  1199.58  801.08  1195.7  803.748  1190.02  804.683  1183.21  806.8  1180.34  808.868  1172.57  812.432  1170.07  813.185  1161.7  822.547  1162.6  823.417  1170.54  826.989  1174.72  828.538  1181.43  831.315  1186.16  833.851  1193.92  835.071  1196.18  837.966  1202.87  839.724  1207.49  842.788  1216.21  844.156  1221.42  845.821  1226.7  847.295  1234.87  847.714  1236.48  848.285  1239.33  848.871  1246.68  849.262  1252.95  849.63  1259.76  849.456  1266.45  849.24  1273.39  848.96  1278.88  847.888  1286.33  846.997  1295.18  846.571  1298.37  " style="fill: none; stroke: darkmagenta; stroke-width: 0.200000; fill-type: evenodd"  fill-opacity="1.000000" />
   <path d="M 846.571  1298.37  846.546  1298.55  844.403  1306.63  " style="fill: none; stroke: red; stroke-width: 0.200000; fill-type: evenodd"  fill-opacity="1.000000" />
   <path d="M 844.403  1306.63  844.391  1306.68  843.173  1311.65  843.169  1311.66  " style="fill: none; stroke: darkmagenta; stroke-width: 0.200000; fill-type: evenodd"  fill-opacity="1.000000" />
   <path d="M 843.169  1311.66  842.076  1317.21  840.909  1322.78  840.033  1328.83  839.486  1333.74  838.893  1338.76  837.032  1343.84  834.892  1349.31  828.151  1348.25  825.207  1347.76  824.641  1346.12  " style="fill: none; stroke: red; stroke-width: 0.200000; fill-type: evenodd"  fill-opacity="1.000000" />
   <path d="M 825.763  1346.3  823.461  1339.64  820.53  1333.42  819.941  1331.31  819.162  1327.64  818.033  1323.09  817.098  1317.67  816.044  1312.66  815.235  1307.34  814.701  1304.43  814.375  1302  813.221  1295.37  812.805  1292.61  811.604  1286.05  810.704  1278.73  810.356  1276.49  809.902  1271.87  809.068  1268  808.537  1266.23  806.856  1258.46  805.306  1253.76  804.192  1249.47  801.68  1241.64  801.501  1241.22  801.485  1241.02  799.304  1232.56  799.216  1228.78  798.359  1223.36  799.195  1219.4  799.2  1211.13  799.618  1209.57  800.323  1206.17  801.831  1199.72  802.067  1195.95  804.718  1190.3  805.639  1183.6  807.717  1180.78  809.741  1173.17  813.387  1170.62  814.091  1162.79  821.642  1163.51  822.456  1170.95  826.069  1175.18  827.598  1181.81  830.398  1186.57  832.929  1194.32  834.171  1196.61  837.039  1203.25  838.785  1207.83  841.831  1216.5  843.195  1221.7  844.848  1226.94  846.318  1235.08  846.739  1236.7  847.293  1239.47  847.874  1246.75  848.263  1253.01  848.63  1259.77  848.457  1266.42  848.241  1273.35  847.963  1278.78  846.895  1286.21  846.003  1295.06  845.563  1298.36  843.422  1306.43  842.196  1311.43  841.096  1317.01  839.924  1322.6  839.041  1328.7  838.493  1333.62  837.914  1338.52  836.097  1343.49  834.441  1347.72  " style="fill: none; stroke: black; stroke-width: 0.200000; fill-type: evenodd"  fill-opacity="1.000000" />
   <path d="M 834.441  1347.72  834.254  1348.2  828.311  1347.26  825.958  1346.87  825.763  1346.3  " style="fill: none; stroke: red; stroke-width: 0.200000; fill-type: evenodd"  fill-opacity="1.000000" />
   <path d="M 915.805  1208.08  914.661  1207.72  910.458  1206.04  904.42  1203.68  901.324  1202.51  895.065  1199.41  889.824  1197.06  885.573  1194.08  881.032  1191.5  875.251  1187.21  872.922  1185.7  866.966  1180.26  864.647  1178.64  860.103  1172.7  855.934  1167.68  855.108  1164.15  853.264  1156.99  855.464  1152.66  853.187  1146.5  856.484  1140.06  849.505  1137.11  846.74  1136.1  840.033  1135.63  833.331  1139.03  830.686  1140  825.732  1145.8  823.941  1147.09  817.867  1149.62  815.532  1150.92  814.108  1151.43  814.034  1150.06  811.235  1145.89  807.973  1140.63  807.515  1140.04  805.479  1130.32  805.03  1120.16  805.06  1119.99  809.218  1110.07  809.341  1109.84  809.919  1109.05  815.432  1102.73  821.547  1099.47  825.107  1097.98  830.309  1096.85  832.703  1097.77  840.256  1098.86  842.069  1099.4  844.922  1101.81  848.514  1106.35  853.627  1112.75  854.419  1114.39  854.574  1115  857.748  1125.24  858.929  1126.61  860.4  1136.46  861.295  1137.45  869.173  1137.04  870.922  1136.68  878.426  1139.37  884.726  1142.06  887.136  1142.61  895.516  1146.21  905.009  1152.08  907.788  1153.33  914.275  1156.42  918.733  1159.04  923.53  1159.61  928.848  1162.78  932.745  1164.46  940.165  1169.05  940.737  1169.43  940.813  1169.47  " style="fill: none; stroke: darkmagenta; stroke-width: 0.200000; fill-type: evenodd"  fill-opacity="1.000000" />
   <path d="M 940.813  1169.47  942.219  1170.31  952.258  1178.23  956.073  1181.13  959.9  1183.85  962.57  1188.13  969.231  1192.33  965.459  1199.98  963.018  1202.36  958.746  1205.84  947.293  1210.66  947.002  1210.7  937.041  1211.29  934.91  1210.98  930.005  1210.55  924.716  1210.2  919.103  1209.1  915.805  1208.08  " style="fill: none; stroke: red; stroke-width: 0.200000; fill-type: evenodd"  fill-opacity="1.000000" />
   <path d="M 939.978  1210.11  937.083  1210.28  935.024  1209.98  930.082  1209.55  924.845  1209.21  919.348  1208.13  914.995  1206.78  910.826  1205.11  904.779  1202.75  901.724  1201.59  895.491  1198.5  890.32  1196.19  886.108  1193.24  881.578  1190.66  875.823  1186.39  873.536  1184.9  867.593  1179.48  865.347  1177.91  860.885  1172.08  856.854  1167.22  856.08  1163.91  854.326  1157.11  856.553  1152.73  854.277  1146.57  857.864  1139.56  849.872  1136.18  846.951  1135.11  839.827  1134.61  832.93  1138.11  830.095  1139.16  825.05  1145.06  823.451  1146.21  817.43  1148.71  815.179  1149.97  812.075  1145.35  808.794  1140.06  808.446  1139.61  806.474  1130.2  806.035  1120.25  810.122  1110.5  810.189  1110.37  810.7  1109.68  816.065  1103.52  821.976  1100.37  825.408  1098.94  830.229  1097.89  832.449  1098.74  840.041  1099.84  841.583  1100.3  844.2  1102.51  847.731  1106.97  852.775  1113.28  853.475  1114.74  853.611  1115.27  856.854  1125.74  857.983  1127.04  859.455  1136.9  860.871  1138.48  869.299  1138.03  870.847  1137.72  878.061  1140.3  884.415  1143.02  886.824  1143.57  895.054  1147.1  904.539  1152.96  907.368  1154.23  913.805  1157.3  918.406  1160.01  923.201  1160.58  928.393  1163.68  932.281  1165.34  939.627  1169.9  940.206  1170.28  941.651  1171.14  951.645  1179.02  955.481  1181.94  958.017  1183.74  " style="fill: none; stroke: black; stroke-width: 0.200000; fill-type: evenodd"  fill-opacity="1.000000" />
   <path d="M 958.017  1183.74  959.158  1184.55  961.843  1188.85  967.936  1192.7  964.638  1199.38  962.351  1201.62  958.226  1204.98  947.036  1209.69  946.915  1209.7  939.978  1210.11  " style="fill: none; stroke: red; stroke-width: 0.200000; fill-type: evenodd"  fill-opacity="1.000000" />
   <path d="M 1003.18  1248.69  1003.96  1249.48  1004.25  1250.56  1003.96  1251.64  1003.18  1252.42  1002.1  1252.71  1001.02  1252.42  1000.23  1251.64  999.946  1250.56  1000.23  1249.48  1001.02  1248.69  1002.1  1248.41  1003.18  1248.69  " style="fill: none; stroke: purple; stroke-width: 0.500000; fill-type: evenodd"  fill-opacity="1.000000" />
   <path d="M 963.099  1228.83  963.831  1229.56  964.099  1230.56  963.831  1231.56  963.099  1232.29  962.099  1232.56  961.099  1232.29  960.367  1231.56  960.099  1230.56  960.367  1229.56  961.099  1228.83  962.099  1228.56  963.099  1228.83  " style="fill: none; stroke: purple; stroke-width: 0.500000; fill-type: evenodd"  fill-opacity="1.000000" />
   <path d="M 983.099  1228.83  983.831  1229.56  984.099  1230.56  983.831  1231.56  983.099  1232.29  982.099  1232.56  981.099  1232.29  980.367  1231.56  980.099  1230.56  980.367  1229.56  981.099  1228.83  982.099  1228.56  983.099  1228.83  " style="fill: none; stroke: purple; stroke-width: 0.500000; fill-type: evenodd"  fill-opacity="1.000000" />
   <path d="M 1003.1  1228.83  1003.83  1229.56  1004.1  1230.56  1003.83  1231.56  1003.1  1232.29  1002.1  1232.56  1001.1  1232.29  1000.37  1231.56  1000.1  1230.56  1000.37  1229.56  1001.1  1228.83  1002.1  1228.56  1003.1  1228.83  " style="fill: none; stroke: purple; stroke-width: 0.500000; fill-type: evenodd"  fill-opacity="1.000000" />
   <path d="M 1003.1  1208.83  1003.83  1209.56  1004.1  1210.56  1003.83  1211.56  1003.1  1212.29  1002.1  1212.56  1001.1  1212.29  1000.37  1211.56  1000.1  1210.56  1000.37  1209.56  1001.1  1208.83  1002.1  1208.56  1003.1  1208.83  " style="fill: none; stroke: purple; stroke-width: 0.500000; fill-type: evenodd"  fill-opacity="1.000000" />
   <path d="M 983.831  1211.56  983.613  1211.78  983.963  1211.07  983.831  1211.56  " style="fill: none; stroke: purple; stroke-width: 0.500000; fill-type: evenodd"  fill-opacity="1.000000" />
</svg>
