<?xml version="1.0" encoding="UTF-8" standalone="yes"?>
<!DOCTYPE svg PUBLIC "-//W3C//DTD SVG 1.0//EN" "http://www.w3.org/TR/2001/REC-SVG-20010904/DTD/svg10.dtd">
<svg height="2000" width="2000" xmlns="http://www.w3.org/2000/svg" xmlns:svg="http://www.w3.org/2000/svg" xmlns:xlink="http://www.w3.org/1999/xlink">
   <marker id="endArrow" markerHeight="8" markerUnits="strokeWidth" markerWidth="10" orient="auto" refX="1" refY="5" viewBox="0 0 1000 1000">
      <polyline fill="darkblue" points="0,0 10,5 0,10 1,5" />
   </marker>
   <circle cx="1000" cy="1000" r="1" style="stroke:black; fill: red" />
   <circle cx="1000" cy="1000" r="800" style="stroke:black; fill: none" />
   <line x1="760.068665" y1="1098.956543" x2="760.068665" y2="1100.133179" style="stroke: green; stroke-width: 0.200000"/>
   <line x1="761.068665" y1="1096.416626" x2="761.068665" y2="1100.133179" style="stroke: green; stroke-width: 0.200000"/>
   <line x1="762.068604" y1="1094.333740" x2="762.068604" y2="1100.133179" style="stroke: green; stroke-width: 0.200000"/>
   <line x1="763.068604" y1="1092.383057" x2="763.068604" y2="1100.133179" style="stroke: green; stroke-width: 0.200000"/>
   <line x1="764.068604" y1="1090.432251" x2="764.068604" y2="1100.133179" style="stroke: green; stroke-width: 0.200000"/>
   <line x1="765.068665" y1="1088.481567" x2="765.068665" y2="1100.133179" style="stroke: green; stroke-width: 0.200000"/>
   <line x1="766.068665" y1="1086.530640" x2="766.068665" y2="1100.133179" style="stroke: green; stroke-width: 0.200000"/>
   <line x1="767.068604" y1="1084.736938" x2="767.068604" y2="1100.133179" style="stroke: green; stroke-width: 0.200000"/>
   <line x1="768.068604" y1="1083.097046" x2="768.068604" y2="1100.133179" style="stroke: green; stroke-width: 0.200000"/>
   <line x1="769.068604" y1="1081.521240" x2="769.068604" y2="1100.133179" style="stroke: green; stroke-width: 0.200000"/>
   <line x1="770.068665" y1="1079.945679" x2="770.068665" y2="1100.133179" style="stroke: green; stroke-width: 0.200000"/>
   <line x1="771.068665" y1="1078.369995" x2="771.068665" y2="1100.133179" style="stroke: green; stroke-width: 0.200000"/>
   <line x1="772.068604" y1="1076.910034" x2="772.068604" y2="1100.133179" style="stroke: green; stroke-width: 0.200000"/>
   <line x1="773.068604" y1="1075.523193" x2="773.068604" y2="1100.133179" style="stroke: green; stroke-width: 0.200000"/>
   <line x1="774.068604" y1="1074.136230" x2="774.068604" y2="1100.133179" style="stroke: green; stroke-width: 0.200000"/>
   <line x1="775.068665" y1="1072.883301" x2="775.068665" y2="1100.133179" style="stroke: green; stroke-width: 0.200000"/>
   <line x1="776.068665" y1="1071.658447" x2="776.068665" y2="1100.133179" style="stroke: green; stroke-width: 0.200000"/>
   <line x1="777.068604" y1="1070.461304" x2="777.068604" y2="1100.133179" style="stroke: green; stroke-width: 0.200000"/>
   <line x1="778.068604" y1="1069.352905" x2="778.068604" y2="1100.133179" style="stroke: green; stroke-width: 0.200000"/>
   <line x1="779.068604" y1="1068.244385" x2="779.068604" y2="1100.133179" style="stroke: green; stroke-width: 0.200000"/>
   <line x1="780.068665" y1="1067.135864" x2="780.068665" y2="1100.133179" style="stroke: green; stroke-width: 0.200000"/>
   <line x1="781.068665" y1="1066.027344" x2="781.068665" y2="1100.133179" style="stroke: green; stroke-width: 0.200000"/>
   <line x1="782.068604" y1="1065.098267" x2="782.068604" y2="1100.133179" style="stroke: green; stroke-width: 0.200000"/>
   <line x1="783.068604" y1="1064.191284" x2="783.068604" y2="1100.133179" style="stroke: green; stroke-width: 0.200000"/>
   <line x1="784.068604" y1="1063.374268" x2="784.068604" y2="1100.133179" style="stroke: green; stroke-width: 0.200000"/>
   <line x1="785.068665" y1="1062.557251" x2="785.068665" y2="1100.133179" style="stroke: green; stroke-width: 0.200000"/>
   <line x1="786.068665" y1="1061.781982" x2="786.068665" y2="1100.133179" style="stroke: green; stroke-width: 0.200000"/>
   <line x1="787.068604" y1="1061.042236" x2="787.068604" y2="1100.133179" style="stroke: green; stroke-width: 0.200000"/>
   <line x1="788.068604" y1="1060.302246" x2="788.068604" y2="1100.133179" style="stroke: green; stroke-width: 0.200000"/>
   <line x1="789.068604" y1="1059.562378" x2="789.068604" y2="1100.133179" style="stroke: green; stroke-width: 0.200000"/>
   <line x1="790.068665" y1="1058.822510" x2="790.068665" y2="1100.133179" style="stroke: green; stroke-width: 0.200000"/>
   <line x1="791.068665" y1="1058.082642" x2="791.068665" y2="1100.133179" style="stroke: green; stroke-width: 0.200000"/>
   <line x1="792.068604" y1="1057.520630" x2="792.068604" y2="1100.133179" style="stroke: green; stroke-width: 0.200000"/>
   <line x1="793.068604" y1="1056.970459" x2="793.068604" y2="1100.133179" style="stroke: green; stroke-width: 0.200000"/>
   <line x1="794.068604" y1="1056.420410" x2="794.068604" y2="1100.133179" style="stroke: green; stroke-width: 0.200000"/>
   <line x1="795.068665" y1="1055.870361" x2="795.068665" y2="1100.133179" style="stroke: green; stroke-width: 0.200000"/>
   <line x1="796.068665" y1="1055.406128" x2="796.068665" y2="1100.133179" style="stroke: green; stroke-width: 0.200000"/>
   <line x1="797.068604" y1="1054.945557" x2="797.068604" y2="1100.133179" style="stroke: green; stroke-width: 0.200000"/>
   <line x1="798.068604" y1="1054.484985" x2="798.068604" y2="1100.133179" style="stroke: green; stroke-width: 0.200000"/>
   <line x1="799.068604" y1="1054.024536" x2="799.068604" y2="1100.133179" style="stroke: green; stroke-width: 0.200000"/>
   <line x1="800.068665" y1="1053.563965" x2="800.068665" y2="1100.133179" style="stroke: green; stroke-width: 0.200000"/>
   <line x1="801.068665" y1="1053.125488" x2="801.068665" y2="1100.133179" style="stroke: green; stroke-width: 0.200000"/>
   <line x1="802.068604" y1="1052.825439" x2="802.068604" y2="1100.133179" style="stroke: green; stroke-width: 0.200000"/>
   <line x1="803.068604" y1="1052.525269" x2="803.068604" y2="1100.133179" style="stroke: green; stroke-width: 0.200000"/>
   <line x1="804.068604" y1="1052.225098" x2="804.068604" y2="1100.133179" style="stroke: green; stroke-width: 0.200000"/>
   <line x1="805.068665" y1="1051.925049" x2="805.068665" y2="1100.133179" style="stroke: green; stroke-width: 0.200000"/>
   <line x1="806.068665" y1="1051.625000" x2="806.068665" y2="1100.133179" style="stroke: green; stroke-width: 0.200000"/>
   <line x1="807.068604" y1="1051.324829" x2="807.068604" y2="1100.133179" style="stroke: green; stroke-width: 0.200000"/>
   <line x1="808.068604" y1="1051.063477" x2="808.068604" y2="1100.133179" style="stroke: green; stroke-width: 0.200000"/>
   <line x1="809.068604" y1="1050.862305" x2="809.068604" y2="1100.133179" style="stroke: green; stroke-width: 0.200000"/>
   <line x1="810.068665" y1="1050.661255" x2="810.068665" y2="1100.133179" style="stroke: green; stroke-width: 0.200000"/>
   <line x1="811.068665" y1="1050.460083" x2="811.068665" y2="1100.133179" style="stroke: green; stroke-width: 0.200000"/>
   <line x1="812.068604" y1="1050.370117" x2="812.068604" y2="1100.133179" style="stroke: green; stroke-width: 0.200000"/>
   <line x1="813.068604" y1="1050.345825" x2="813.068604" y2="1100.133179" style="stroke: green; stroke-width: 0.200000"/>
   <line x1="814.068604" y1="1050.321533" x2="814.068604" y2="1100.133179" style="stroke: green; stroke-width: 0.200000"/>
   <line x1="815.068665" y1="1050.297363" x2="815.068665" y2="1100.133179" style="stroke: green; stroke-width: 0.200000"/>
   <line x1="816.068665" y1="1050.273071" x2="816.068665" y2="1100.133179" style="stroke: green; stroke-width: 0.200000"/>
   <line x1="817.068604" y1="1050.248779" x2="817.068604" y2="1100.133179" style="stroke: green; stroke-width: 0.200000"/>
   <line x1="818.068604" y1="1050.224487" x2="818.068604" y2="1100.133179" style="stroke: green; stroke-width: 0.200000"/>
   <line x1="819.068604" y1="1050.200195" x2="819.068604" y2="1100.133179" style="stroke: green; stroke-width: 0.200000"/>
   <line x1="820.068665" y1="1050.175903" x2="820.068665" y2="1100.133179" style="stroke: green; stroke-width: 0.200000"/>
   <line x1="821.068665" y1="1050.151611" x2="821.068665" y2="1100.133179" style="stroke: green; stroke-width: 0.200000"/>
   <line x1="822.068604" y1="1050.172852" x2="822.068604" y2="1100.133179" style="stroke: green; stroke-width: 0.200000"/>
   <line x1="823.068604" y1="1050.338623" x2="823.068604" y2="1100.133179" style="stroke: green; stroke-width: 0.200000"/>
   <line x1="824.068604" y1="1050.516846" x2="824.068604" y2="1100.133179" style="stroke: green; stroke-width: 0.200000"/>
   <line x1="825.068665" y1="1050.718872" x2="825.068665" y2="1100.133179" style="stroke: green; stroke-width: 0.200000"/>
   <line x1="826.068665" y1="1050.920898" x2="826.068665" y2="1100.133179" style="stroke: green; stroke-width: 0.200000"/>
   <line x1="827.068604" y1="1051.122803" x2="827.068604" y2="1100.133179" style="stroke: green; stroke-width: 0.200000"/>
   <line x1="828.068604" y1="1051.324829" x2="828.068604" y2="1100.133179" style="stroke: green; stroke-width: 0.200000"/>
   <line x1="829.068604" y1="1051.526855" x2="829.068604" y2="1100.133179" style="stroke: green; stroke-width: 0.200000"/>
   <line x1="830.068665" y1="1051.728760" x2="830.068665" y2="1100.133179" style="stroke: green; stroke-width: 0.200000"/>
   <line x1="831.068665" y1="1051.930786" x2="831.068665" y2="1100.133179" style="stroke: green; stroke-width: 0.200000"/>
   <line x1="832.068604" y1="1052.132812" x2="832.068604" y2="1100.133179" style="stroke: green; stroke-width: 0.200000"/>
   <line x1="833.068604" y1="1052.625000" x2="833.068604" y2="1100.133179" style="stroke: green; stroke-width: 0.200000"/>
   <line x1="834.068604" y1="1053.154541" x2="834.068604" y2="1100.133179" style="stroke: green; stroke-width: 0.200000"/>
   <line x1="835.068665" y1="1053.479980" x2="835.068665" y2="1100.133179" style="stroke: green; stroke-width: 0.200000"/>
   <line x1="836.068665" y1="1053.805542" x2="836.068665" y2="1100.133179" style="stroke: green; stroke-width: 0.200000"/>
   <line x1="837.068604" y1="1054.130981" x2="837.068604" y2="1100.133179" style="stroke: green; stroke-width: 0.200000"/>
   <line x1="838.068604" y1="1054.456543" x2="838.068604" y2="1100.133179" style="stroke: green; stroke-width: 0.200000"/>
   <line x1="839.068604" y1="1054.781982" x2="839.068604" y2="1100.133179" style="stroke: green; stroke-width: 0.200000"/>
   <line x1="840.068665" y1="1055.107544" x2="840.068665" y2="1100.133179" style="stroke: green; stroke-width: 0.200000"/>
   <line x1="841.068665" y1="1055.433105" x2="841.068665" y2="1100.133179" style="stroke: green; stroke-width: 0.200000"/>
   <line x1="842.068604" y1="1055.877686" x2="842.068604" y2="1100.133179" style="stroke: green; stroke-width: 0.200000"/>
   <line x1="843.068604" y1="1056.420166" x2="843.068604" y2="1100.133179" style="stroke: green; stroke-width: 0.200000"/>
   <line x1="844.068604" y1="1056.962646" x2="844.068604" y2="1100.133179" style="stroke: green; stroke-width: 0.200000"/>
   <line x1="845.068665" y1="1057.505005" x2="845.068665" y2="1100.133179" style="stroke: green; stroke-width: 0.200000"/>
   <line x1="846.068665" y1="1057.983032" x2="846.068665" y2="1100.133179" style="stroke: green; stroke-width: 0.200000"/>
   <line x1="847.068604" y1="1058.452148" x2="847.068604" y2="1100.133179" style="stroke: green; stroke-width: 0.200000"/>
   <line x1="848.068604" y1="1058.921143" x2="848.068604" y2="1100.133179" style="stroke: green; stroke-width: 0.200000"/>
   <line x1="849.068604" y1="1059.390381" x2="849.068604" y2="1100.133179" style="stroke: green; stroke-width: 0.200000"/>
   <line x1="850.068665" y1="1059.859375" x2="850.068665" y2="1100.133179" style="stroke: green; stroke-width: 0.200000"/>
   <line x1="851.068665" y1="1060.329346" x2="851.068665" y2="1100.133179" style="stroke: green; stroke-width: 0.200000"/>
   <line x1="852.068604" y1="1061.236938" x2="852.068604" y2="1100.133179" style="stroke: green; stroke-width: 0.200000"/>
   <line x1="853.068604" y1="1062.144653" x2="853.068604" y2="1100.133179" style="stroke: green; stroke-width: 0.200000"/>
   <line x1="854.068604" y1="1063.052246" x2="854.068604" y2="1100.133179" style="stroke: green; stroke-width: 0.200000"/>
   <line x1="855.068665" y1="1063.823975" x2="855.068665" y2="1100.133179" style="stroke: green; stroke-width: 0.200000"/>
   <line x1="856.068665" y1="1064.569702" x2="856.068665" y2="1100.133179" style="stroke: green; stroke-width: 0.200000"/>
   <line x1="857.068604" y1="1065.315430" x2="857.068604" y2="1100.133179" style="stroke: green; stroke-width: 0.200000"/>
   <line x1="858.068604" y1="1066.061035" x2="858.068604" y2="1100.133179" style="stroke: green; stroke-width: 0.200000"/>
   <line x1="859.068604" y1="1066.806763" x2="859.068604" y2="1100.133179" style="stroke: green; stroke-width: 0.200000"/>
   <line x1="860.068665" y1="1068.060059" x2="860.068665" y2="1100.133179" style="stroke: green; stroke-width: 0.200000"/>
   <line x1="861.068665" y1="1069.635986" x2="861.068665" y2="1100.133179" style="stroke: green; stroke-width: 0.200000"/>
   <line x1="862.068604" y1="1071.097534" x2="862.068604" y2="1100.133179" style="stroke: green; stroke-width: 0.200000"/>
   <line x1="863.068604" y1="1072.556519" x2="863.068604" y2="1100.133179" style="stroke: green; stroke-width: 0.200000"/>
   <line x1="864.068604" y1="1074.015503" x2="864.068604" y2="1100.133179" style="stroke: green; stroke-width: 0.200000"/>
   <line x1="865.068665" y1="1075.474365" x2="865.068665" y2="1100.133179" style="stroke: green; stroke-width: 0.200000"/>
   <line x1="866.068665" y1="1076.933350" x2="866.068665" y2="1100.133179" style="stroke: green; stroke-width: 0.200000"/>
   <line x1="867.068604" y1="1078.392334" x2="867.068604" y2="1100.133179" style="stroke: green; stroke-width: 0.200000"/>
   <line x1="868.068604" y1="1080.523560" x2="868.068604" y2="1100.133179" style="stroke: green; stroke-width: 0.200000"/>
   <line x1="869.068604" y1="1082.745117" x2="869.068604" y2="1100.133179" style="stroke: green; stroke-width: 0.200000"/>
   <line x1="870.068665" y1="1084.966797" x2="870.068665" y2="1100.133179" style="stroke: green; stroke-width: 0.200000"/>
   <line x1="871.068665" y1="1087.271606" x2="871.068665" y2="1100.133179" style="stroke: green; stroke-width: 0.200000"/>
   <line x1="872.068604" y1="1090.023926" x2="872.068604" y2="1100.133179" style="stroke: green; stroke-width: 0.200000"/>
   <line x1="873.068604" y1="1093.099609" x2="873.068604" y2="1100.133179" style="stroke: green; stroke-width: 0.200000"/>
   <line x1="874.068604" y1="1096.175293" x2="874.068604" y2="1100.133179" style="stroke: green; stroke-width: 0.200000"/>
   <line x1="875.068665" y1="1099.394775" x2="875.068665" y2="1100.133179" style="stroke: green; stroke-width: 0.200000"/>
   <line x1="769.068604" y1="1100.233276" x2="769.068604" y2="1150.233276" style="stroke: green; stroke-width: 0.200000"/>
   <line x1="770.068665" y1="1100.233276" x2="770.068665" y2="1150.233276" style="stroke: green; stroke-width: 0.200000"/>
   <line x1="771.068665" y1="1100.233276" x2="771.068665" y2="1150.233276" style="stroke: green; stroke-width: 0.200000"/>
   <line x1="772.068604" y1="1100.233276" x2="772.068604" y2="1150.233276" style="stroke: green; stroke-width: 0.200000"/>
   <line x1="773.068604" y1="1100.233276" x2="773.068604" y2="1150.233276" style="stroke: green; stroke-width: 0.200000"/>
   <line x1="774.068604" y1="1100.233276" x2="774.068604" y2="1150.233276" style="stroke: green; stroke-width: 0.200000"/>
   <line x1="775.068665" y1="1100.233276" x2="775.068665" y2="1150.233276" style="stroke: green; stroke-width: 0.200000"/>
   <line x1="776.068665" y1="1100.233276" x2="776.068665" y2="1150.233276" style="stroke: green; stroke-width: 0.200000"/>
   <line x1="777.068604" y1="1100.233276" x2="777.068604" y2="1150.233276" style="stroke: green; stroke-width: 0.200000"/>
   <line x1="778.068604" y1="1100.233276" x2="778.068604" y2="1150.233276" style="stroke: green; stroke-width: 0.200000"/>
   <line x1="779.068604" y1="1100.233276" x2="779.068604" y2="1150.233276" style="stroke: green; stroke-width: 0.200000"/>
   <line x1="780.068665" y1="1100.233276" x2="780.068665" y2="1150.233276" style="stroke: green; stroke-width: 0.200000"/>
   <line x1="781.068665" y1="1100.233276" x2="781.068665" y2="1150.233276" style="stroke: green; stroke-width: 0.200000"/>
   <line x1="782.068604" y1="1100.233276" x2="782.068604" y2="1150.233276" style="stroke: green; stroke-width: 0.200000"/>
   <line x1="783.068604" y1="1100.233276" x2="783.068604" y2="1150.233276" style="stroke: green; stroke-width: 0.200000"/>
   <line x1="784.068604" y1="1100.233276" x2="784.068604" y2="1150.233276" style="stroke: green; stroke-width: 0.200000"/>
   <line x1="785.068665" y1="1100.233276" x2="785.068665" y2="1150.233276" style="stroke: green; stroke-width: 0.200000"/>
   <line x1="786.068665" y1="1100.233276" x2="786.068665" y2="1150.233276" style="stroke: green; stroke-width: 0.200000"/>
   <line x1="787.068604" y1="1100.233276" x2="787.068604" y2="1150.233276" style="stroke: green; stroke-width: 0.200000"/>
   <line x1="788.068604" y1="1100.233276" x2="788.068604" y2="1150.233276" style="stroke: green; stroke-width: 0.200000"/>
   <line x1="789.068604" y1="1100.233276" x2="789.068604" y2="1150.233276" style="stroke: green; stroke-width: 0.200000"/>
   <line x1="790.068665" y1="1100.233276" x2="790.068665" y2="1150.233276" style="stroke: green; stroke-width: 0.200000"/>
   <line x1="791.068665" y1="1100.233276" x2="791.068665" y2="1150.233276" style="stroke: green; stroke-width: 0.200000"/>
   <line x1="792.068604" y1="1100.233276" x2="792.068604" y2="1150.233276" style="stroke: green; stroke-width: 0.200000"/>
   <line x1="793.068604" y1="1100.233276" x2="793.068604" y2="1150.233276" style="stroke: green; stroke-width: 0.200000"/>
   <line x1="794.068604" y1="1100.233276" x2="794.068604" y2="1150.233276" style="stroke: green; stroke-width: 0.200000"/>
   <line x1="795.068665" y1="1100.233276" x2="795.068665" y2="1150.233276" style="stroke: green; stroke-width: 0.200000"/>
   <line x1="796.068665" y1="1100.233276" x2="796.068665" y2="1150.233276" style="stroke: green; stroke-width: 0.200000"/>
   <line x1="797.068604" y1="1100.233276" x2="797.068604" y2="1150.233276" style="stroke: green; stroke-width: 0.200000"/>
   <line x1="798.068604" y1="1100.233276" x2="798.068604" y2="1150.233276" style="stroke: green; stroke-width: 0.200000"/>
   <line x1="799.068604" y1="1100.233276" x2="799.068604" y2="1150.233276" style="stroke: green; stroke-width: 0.200000"/>
   <line x1="800.068665" y1="1100.233276" x2="800.068665" y2="1150.233276" style="stroke: green; stroke-width: 0.200000"/>
   <line x1="801.068665" y1="1100.233276" x2="801.068665" y2="1150.233276" style="stroke: green; stroke-width: 0.200000"/>
   <line x1="802.068604" y1="1100.233276" x2="802.068604" y2="1150.233276" style="stroke: green; stroke-width: 0.200000"/>
   <line x1="803.068604" y1="1100.233276" x2="803.068604" y2="1150.233276" style="stroke: green; stroke-width: 0.200000"/>
   <line x1="804.068604" y1="1100.233276" x2="804.068604" y2="1150.233276" style="stroke: green; stroke-width: 0.200000"/>
   <line x1="768.068604" y1="1100.233276" x2="768.068604" y2="1149.391846" style="stroke: green; stroke-width: 0.200000"/>
   <line x1="767.068604" y1="1100.233276" x2="767.068604" y2="1148.290527" style="stroke: green; stroke-width: 0.200000"/>
   <line x1="766.068665" y1="1100.233276" x2="766.068665" y2="1147.189209" style="stroke: green; stroke-width: 0.200000"/>
   <line x1="765.068665" y1="1100.233276" x2="765.068665" y2="1146.087769" style="stroke: green; stroke-width: 0.200000"/>
   <line x1="764.068604" y1="1100.233276" x2="764.068604" y2="1144.986450" style="stroke: green; stroke-width: 0.200000"/>
   <line x1="763.068604" y1="1100.233276" x2="763.068604" y2="1143.348267" style="stroke: green; stroke-width: 0.200000"/>
   <line x1="762.068604" y1="1100.233276" x2="762.068604" y2="1140.869019" style="stroke: green; stroke-width: 0.200000"/>
   <line x1="761.068665" y1="1100.233276" x2="761.068665" y2="1138.389771" style="stroke: green; stroke-width: 0.200000"/>
   <line x1="760.068665" y1="1100.233276" x2="760.068665" y2="1136.096069" style="stroke: green; stroke-width: 0.200000"/>
   <line x1="759.068604" y1="1101.496460" x2="759.068604" y2="1134.443848" style="stroke: green; stroke-width: 0.200000"/>
   <line x1="758.068604" y1="1104.036377" x2="758.068604" y2="1132.791748" style="stroke: green; stroke-width: 0.200000"/>
   <line x1="757.068604" y1="1106.779907" x2="757.068604" y2="1131.139648" style="stroke: green; stroke-width: 0.200000"/>
   <line x1="756.068665" y1="1109.355957" x2="756.068665" y2="1129.487427" style="stroke: green; stroke-width: 0.200000"/>
   <line x1="755.068665" y1="1114.256714" x2="755.068665" y2="1122.641235" style="stroke: green; stroke-width: 0.200000"/>
   <line x1="805.068665" y1="1100.233276" x2="805.068665" y2="1150.233276" style="stroke: green; stroke-width: 0.200000"/>
   <line x1="806.068665" y1="1100.233276" x2="806.068665" y2="1150.233276" style="stroke: green; stroke-width: 0.200000"/>
   <line x1="807.068604" y1="1100.233276" x2="807.068604" y2="1150.233276" style="stroke: green; stroke-width: 0.200000"/>
   <line x1="808.068604" y1="1100.233276" x2="808.068604" y2="1150.233276" style="stroke: green; stroke-width: 0.200000"/>
   <line x1="809.068604" y1="1100.233276" x2="809.068604" y2="1150.233276" style="stroke: green; stroke-width: 0.200000"/>
   <line x1="810.068665" y1="1100.233276" x2="810.068665" y2="1150.233276" style="stroke: green; stroke-width: 0.200000"/>
   <line x1="811.068665" y1="1100.233276" x2="811.068665" y2="1150.233276" style="stroke: green; stroke-width: 0.200000"/>
   <line x1="812.068604" y1="1100.233276" x2="812.068604" y2="1150.233276" style="stroke: green; stroke-width: 0.200000"/>
   <line x1="813.068604" y1="1100.233276" x2="813.068604" y2="1150.233276" style="stroke: green; stroke-width: 0.200000"/>
   <line x1="814.068604" y1="1100.233276" x2="814.068604" y2="1150.233276" style="stroke: green; stroke-width: 0.200000"/>
   <line x1="815.068665" y1="1100.233276" x2="815.068665" y2="1150.233276" style="stroke: green; stroke-width: 0.200000"/>
   <line x1="816.068665" y1="1100.233276" x2="816.068665" y2="1150.233276" style="stroke: green; stroke-width: 0.200000"/>
   <line x1="817.068604" y1="1100.233276" x2="817.068604" y2="1150.233276" style="stroke: green; stroke-width: 0.200000"/>
   <line x1="818.068604" y1="1100.233276" x2="818.068604" y2="1150.233276" style="stroke: green; stroke-width: 0.200000"/>
   <line x1="819.068604" y1="1100.233276" x2="819.068604" y2="1150.233276" style="stroke: green; stroke-width: 0.200000"/>
   <line x1="820.068665" y1="1100.233276" x2="820.068665" y2="1150.233276" style="stroke: green; stroke-width: 0.200000"/>
   <line x1="821.068665" y1="1100.233276" x2="821.068665" y2="1150.233276" style="stroke: green; stroke-width: 0.200000"/>
   <line x1="822.068604" y1="1100.233276" x2="822.068604" y2="1150.233276" style="stroke: green; stroke-width: 0.200000"/>
   <line x1="823.068604" y1="1100.233276" x2="823.068604" y2="1150.233276" style="stroke: green; stroke-width: 0.200000"/>
   <line x1="824.068604" y1="1100.233276" x2="824.068604" y2="1150.233276" style="stroke: green; stroke-width: 0.200000"/>
   <line x1="825.068665" y1="1100.233276" x2="825.068665" y2="1150.233276" style="stroke: green; stroke-width: 0.200000"/>
   <line x1="826.068665" y1="1100.233276" x2="826.068665" y2="1150.233276" style="stroke: green; stroke-width: 0.200000"/>
   <line x1="827.068604" y1="1100.233276" x2="827.068604" y2="1150.233276" style="stroke: green; stroke-width: 0.200000"/>
   <line x1="828.068604" y1="1100.233276" x2="828.068604" y2="1150.233276" style="stroke: green; stroke-width: 0.200000"/>
   <line x1="829.068604" y1="1100.233276" x2="829.068604" y2="1150.233276" style="stroke: green; stroke-width: 0.200000"/>
   <line x1="830.068665" y1="1100.233276" x2="830.068665" y2="1150.233276" style="stroke: green; stroke-width: 0.200000"/>
   <line x1="831.068665" y1="1100.233276" x2="831.068665" y2="1150.233276" style="stroke: green; stroke-width: 0.200000"/>
   <line x1="832.068604" y1="1100.233276" x2="832.068604" y2="1150.233276" style="stroke: green; stroke-width: 0.200000"/>
   <line x1="833.068604" y1="1100.233276" x2="833.068604" y2="1150.233276" style="stroke: green; stroke-width: 0.200000"/>
   <line x1="834.068604" y1="1100.233276" x2="834.068604" y2="1150.233276" style="stroke: green; stroke-width: 0.200000"/>
   <line x1="835.068665" y1="1100.233276" x2="835.068665" y2="1150.233276" style="stroke: green; stroke-width: 0.200000"/>
   <line x1="836.068665" y1="1100.233276" x2="836.068665" y2="1150.233276" style="stroke: green; stroke-width: 0.200000"/>
   <line x1="837.068604" y1="1100.233276" x2="837.068604" y2="1150.233276" style="stroke: green; stroke-width: 0.200000"/>
   <line x1="838.068604" y1="1100.233276" x2="838.068604" y2="1150.233276" style="stroke: green; stroke-width: 0.200000"/>
   <line x1="839.068604" y1="1100.233276" x2="839.068604" y2="1150.233276" style="stroke: green; stroke-width: 0.200000"/>
   <line x1="840.068665" y1="1100.233276" x2="840.068665" y2="1150.233276" style="stroke: green; stroke-width: 0.200000"/>
   <line x1="841.068665" y1="1100.233276" x2="841.068665" y2="1150.233276" style="stroke: green; stroke-width: 0.200000"/>
   <line x1="842.068604" y1="1100.233276" x2="842.068604" y2="1150.233276" style="stroke: green; stroke-width: 0.200000"/>
   <line x1="843.068604" y1="1100.233276" x2="843.068604" y2="1150.233276" style="stroke: green; stroke-width: 0.200000"/>
   <line x1="844.068604" y1="1100.233276" x2="844.068604" y2="1150.233276" style="stroke: green; stroke-width: 0.200000"/>
   <line x1="845.068665" y1="1100.233276" x2="845.068665" y2="1150.233276" style="stroke: green; stroke-width: 0.200000"/>
   <line x1="846.068665" y1="1100.233276" x2="846.068665" y2="1150.233276" style="stroke: green; stroke-width: 0.200000"/>
   <line x1="847.068604" y1="1100.233276" x2="847.068604" y2="1150.233276" style="stroke: green; stroke-width: 0.200000"/>
   <line x1="848.068604" y1="1100.233276" x2="848.068604" y2="1150.233276" style="stroke: green; stroke-width: 0.200000"/>
   <line x1="849.068604" y1="1100.233276" x2="849.068604" y2="1150.233276" style="stroke: green; stroke-width: 0.200000"/>
   <line x1="850.068665" y1="1100.233276" x2="850.068665" y2="1150.233276" style="stroke: green; stroke-width: 0.200000"/>
   <line x1="851.068665" y1="1100.233276" x2="851.068665" y2="1150.233276" style="stroke: green; stroke-width: 0.200000"/>
   <line x1="852.068604" y1="1100.233276" x2="852.068604" y2="1150.233276" style="stroke: green; stroke-width: 0.200000"/>
   <line x1="853.068604" y1="1100.233276" x2="853.068604" y2="1150.233276" style="stroke: green; stroke-width: 0.200000"/>
   <line x1="854.068604" y1="1100.233276" x2="854.068604" y2="1150.233276" style="stroke: green; stroke-width: 0.200000"/>
   <line x1="855.068665" y1="1100.233276" x2="855.068665" y2="1150.233276" style="stroke: green; stroke-width: 0.200000"/>
   <line x1="856.068665" y1="1100.233276" x2="856.068665" y2="1150.233276" style="stroke: green; stroke-width: 0.200000"/>
   <line x1="857.068604" y1="1100.233276" x2="857.068604" y2="1150.233276" style="stroke: green; stroke-width: 0.200000"/>
   <line x1="858.068604" y1="1100.233276" x2="858.068604" y2="1150.233276" style="stroke: green; stroke-width: 0.200000"/>
   <line x1="859.068604" y1="1100.233276" x2="859.068604" y2="1150.233276" style="stroke: green; stroke-width: 0.200000"/>
   <line x1="860.068665" y1="1100.233276" x2="860.068665" y2="1150.233276" style="stroke: green; stroke-width: 0.200000"/>
   <line x1="861.068665" y1="1100.233276" x2="861.068665" y2="1150.233276" style="stroke: green; stroke-width: 0.200000"/>
   <line x1="862.068604" y1="1100.233276" x2="862.068604" y2="1150.233276" style="stroke: green; stroke-width: 0.200000"/>
   <line x1="863.068604" y1="1100.233276" x2="863.068604" y2="1150.233276" style="stroke: green; stroke-width: 0.200000"/>
   <line x1="864.068604" y1="1100.233276" x2="864.068604" y2="1150.233276" style="stroke: green; stroke-width: 0.200000"/>
   <line x1="865.068665" y1="1100.233276" x2="865.068665" y2="1150.233276" style="stroke: green; stroke-width: 0.200000"/>
   <line x1="866.068665" y1="1100.233276" x2="866.068665" y2="1150.233276" style="stroke: green; stroke-width: 0.200000"/>
   <line x1="867.068604" y1="1100.233276" x2="867.068604" y2="1150.233276" style="stroke: green; stroke-width: 0.200000"/>
   <line x1="868.068604" y1="1100.233276" x2="868.068604" y2="1150.233276" style="stroke: green; stroke-width: 0.200000"/>
   <line x1="869.068604" y1="1100.233276" x2="869.068604" y2="1150.233276" style="stroke: green; stroke-width: 0.200000"/>
   <line x1="870.068665" y1="1100.233276" x2="870.068665" y2="1150.233276" style="stroke: green; stroke-width: 0.200000"/>
   <line x1="871.068665" y1="1100.233276" x2="871.068665" y2="1150.233276" style="stroke: green; stroke-width: 0.200000"/>
   <line x1="872.068604" y1="1100.233276" x2="872.068604" y2="1150.233276" style="stroke: green; stroke-width: 0.200000"/>
   <line x1="873.068604" y1="1100.233276" x2="873.068604" y2="1150.233276" style="stroke: green; stroke-width: 0.200000"/>
   <line x1="874.068604" y1="1100.233276" x2="874.068604" y2="1150.233276" style="stroke: green; stroke-width: 0.200000"/>
   <line x1="875.068665" y1="1100.233276" x2="875.068665" y2="1150.233276" style="stroke: green; stroke-width: 0.200000"/>
   <line x1="876.068665" y1="1103.135620" x2="876.068665" y2="1150.233276" style="stroke: green; stroke-width: 0.200000"/>
   <line x1="877.068604" y1="1106.966309" x2="877.068604" y2="1150.233276" style="stroke: green; stroke-width: 0.200000"/>
   <line x1="878.068604" y1="1110.889648" x2="878.068604" y2="1150.233276" style="stroke: green; stroke-width: 0.200000"/>
   <line x1="879.068604" y1="1115.307861" x2="879.068604" y2="1150.233276" style="stroke: green; stroke-width: 0.200000"/>
   <line x1="880.068665" y1="1119.287109" x2="880.068665" y2="1150.233276" style="stroke: green; stroke-width: 0.200000"/>
   <line x1="881.068665" y1="1122.853516" x2="881.068665" y2="1150.233276" style="stroke: green; stroke-width: 0.200000"/>
   <line x1="882.068604" y1="1127.128418" x2="882.068604" y2="1150.233276" style="stroke: green; stroke-width: 0.200000"/>
   <line x1="883.068604" y1="1129.330444" x2="883.068604" y2="1150.233276" style="stroke: green; stroke-width: 0.200000"/>
   <line x1="884.068604" y1="1131.804199" x2="884.068604" y2="1150.233276" style="stroke: green; stroke-width: 0.200000"/>
   <line x1="885.068665" y1="1134.674927" x2="885.068665" y2="1150.233276" style="stroke: green; stroke-width: 0.200000"/>
   <line x1="886.068665" y1="1136.347046" x2="886.068665" y2="1150.233276" style="stroke: green; stroke-width: 0.200000"/>
   <line x1="887.068604" y1="1137.406860" x2="887.068604" y2="1150.233276" style="stroke: green; stroke-width: 0.200000"/>
   <line x1="888.068604" y1="1138.466675" x2="888.068604" y2="1150.233276" style="stroke: green; stroke-width: 0.200000"/>
   <line x1="889.068604" y1="1139.518066" x2="889.068604" y2="1150.233276" style="stroke: green; stroke-width: 0.200000"/>
   <line x1="890.068665" y1="1140.547485" x2="890.068665" y2="1150.233276" style="stroke: green; stroke-width: 0.200000"/>
   <line x1="891.068665" y1="1141.576904" x2="891.068665" y2="1150.233276" style="stroke: green; stroke-width: 0.200000"/>
   <line x1="892.068604" y1="1142.606689" x2="892.068604" y2="1150.233276" style="stroke: green; stroke-width: 0.200000"/>
   <line x1="893.068604" y1="1143.380615" x2="893.068604" y2="1150.233276" style="stroke: green; stroke-width: 0.200000"/>
   <line x1="894.068604" y1="1144.041626" x2="894.068604" y2="1150.233276" style="stroke: green; stroke-width: 0.200000"/>
   <line x1="895.068665" y1="1144.975830" x2="895.068665" y2="1150.233276" style="stroke: green; stroke-width: 0.200000"/>
   <line x1="896.068665" y1="1145.930542" x2="896.068665" y2="1150.233276" style="stroke: green; stroke-width: 0.200000"/>
   <line x1="897.068604" y1="1146.885132" x2="897.068604" y2="1150.233276" style="stroke: green; stroke-width: 0.200000"/>
   <line x1="898.068604" y1="1147.839844" x2="898.068604" y2="1150.233276" style="stroke: green; stroke-width: 0.200000"/>
   <line x1="899.068604" y1="1148.794434" x2="899.068604" y2="1150.233276" style="stroke: green; stroke-width: 0.200000"/>
   <line x1="900.068665" y1="1149.613159" x2="900.068665" y2="1150.233276" style="stroke: green; stroke-width: 0.200000"/>
   <line x1="800.068665" y1="1150.333252" x2="800.068665" y2="1200.333252" style="stroke: green; stroke-width: 0.200000"/>
   <line x1="801.068665" y1="1150.333252" x2="801.068665" y2="1200.333252" style="stroke: green; stroke-width: 0.200000"/>
   <line x1="802.068604" y1="1150.333252" x2="802.068604" y2="1200.333252" style="stroke: green; stroke-width: 0.200000"/>
   <line x1="803.068604" y1="1150.333252" x2="803.068604" y2="1200.333252" style="stroke: green; stroke-width: 0.200000"/>
   <line x1="804.068604" y1="1150.333252" x2="804.068604" y2="1200.333252" style="stroke: green; stroke-width: 0.200000"/>
   <line x1="799.068604" y1="1150.333252" x2="799.068604" y2="1198.345215" style="stroke: green; stroke-width: 0.200000"/>
   <line x1="798.068604" y1="1150.333252" x2="798.068604" y2="1193.116577" style="stroke: green; stroke-width: 0.200000"/>
   <line x1="797.068604" y1="1150.333252" x2="797.068604" y2="1190.255249" style="stroke: green; stroke-width: 0.200000"/>
   <line x1="796.068665" y1="1150.333252" x2="796.068665" y2="1187.840698" style="stroke: green; stroke-width: 0.200000"/>
   <line x1="795.068665" y1="1150.333252" x2="795.068665" y2="1185.500610" style="stroke: green; stroke-width: 0.200000"/>
   <line x1="794.068604" y1="1150.333252" x2="794.068604" y2="1183.164551" style="stroke: green; stroke-width: 0.200000"/>
   <line x1="793.068604" y1="1150.333252" x2="793.068604" y2="1180.900879" style="stroke: green; stroke-width: 0.200000"/>
   <line x1="792.068604" y1="1150.333252" x2="792.068604" y2="1179.640381" style="stroke: green; stroke-width: 0.200000"/>
   <line x1="791.068665" y1="1150.333252" x2="791.068665" y2="1178.380249" style="stroke: green; stroke-width: 0.200000"/>
   <line x1="790.068665" y1="1150.333252" x2="790.068665" y2="1177.302856" style="stroke: green; stroke-width: 0.200000"/>
   <line x1="789.068604" y1="1150.333252" x2="789.068604" y2="1176.244507" style="stroke: green; stroke-width: 0.200000"/>
   <line x1="788.068604" y1="1150.333252" x2="788.068604" y2="1175.186035" style="stroke: green; stroke-width: 0.200000"/>
   <line x1="787.068604" y1="1150.333252" x2="787.068604" y2="1174.127686" style="stroke: green; stroke-width: 0.200000"/>
   <line x1="786.068665" y1="1150.333252" x2="786.068665" y2="1173.069336" style="stroke: green; stroke-width: 0.200000"/>
   <line x1="785.068665" y1="1150.333252" x2="785.068665" y2="1172.010986" style="stroke: green; stroke-width: 0.200000"/>
   <line x1="784.068604" y1="1150.333252" x2="784.068604" y2="1170.852295" style="stroke: green; stroke-width: 0.200000"/>
   <line x1="783.068604" y1="1150.333252" x2="783.068604" y2="1169.532837" style="stroke: green; stroke-width: 0.200000"/>
   <line x1="782.068604" y1="1150.333252" x2="782.068604" y2="1168.434326" style="stroke: green; stroke-width: 0.200000"/>
   <line x1="781.068665" y1="1150.333252" x2="781.068665" y2="1167.335938" style="stroke: green; stroke-width: 0.200000"/>
   <line x1="780.068665" y1="1150.333252" x2="780.068665" y2="1166.237549" style="stroke: green; stroke-width: 0.200000"/>
   <line x1="779.068604" y1="1150.333252" x2="779.068604" y2="1165.139038" style="stroke: green; stroke-width: 0.200000"/>
   <line x1="778.068604" y1="1150.333252" x2="778.068604" y2="1164.040649" style="stroke: green; stroke-width: 0.200000"/>
   <line x1="777.068604" y1="1150.333252" x2="777.068604" y2="1162.942261" style="stroke: green; stroke-width: 0.200000"/>
   <line x1="776.068665" y1="1150.333252" x2="776.068665" y2="1161.768921" style="stroke: green; stroke-width: 0.200000"/>
   <line x1="775.068665" y1="1150.333252" x2="775.068665" y2="1160.504028" style="stroke: green; stroke-width: 0.200000"/>
   <line x1="774.068604" y1="1150.333252" x2="774.068604" y2="1158.809692" style="stroke: green; stroke-width: 0.200000"/>
   <line x1="773.068604" y1="1150.333252" x2="773.068604" y2="1157.099121" style="stroke: green; stroke-width: 0.200000"/>
   <line x1="772.068604" y1="1150.333252" x2="772.068604" y2="1155.388672" style="stroke: green; stroke-width: 0.200000"/>
   <line x1="771.068665" y1="1150.333252" x2="771.068665" y2="1153.678223" style="stroke: green; stroke-width: 0.200000"/>
   <line x1="770.068665" y1="1150.333252" x2="770.068665" y2="1152.075073" style="stroke: green; stroke-width: 0.200000"/>
   <line x1="769.068604" y1="1150.333252" x2="769.068604" y2="1150.530762" style="stroke: green; stroke-width: 0.200000"/>
   <line x1="805.068665" y1="1150.333252" x2="805.068665" y2="1200.333252" style="stroke: green; stroke-width: 0.200000"/>
   <line x1="806.068665" y1="1150.333252" x2="806.068665" y2="1200.333252" style="stroke: green; stroke-width: 0.200000"/>
   <line x1="807.068604" y1="1150.333252" x2="807.068604" y2="1200.333252" style="stroke: green; stroke-width: 0.200000"/>
   <line x1="808.068604" y1="1150.333252" x2="808.068604" y2="1200.333252" style="stroke: green; stroke-width: 0.200000"/>
   <line x1="809.068604" y1="1150.333252" x2="809.068604" y2="1200.333252" style="stroke: green; stroke-width: 0.200000"/>
   <line x1="810.068665" y1="1150.333252" x2="810.068665" y2="1200.333252" style="stroke: green; stroke-width: 0.200000"/>
   <line x1="811.068665" y1="1150.333252" x2="811.068665" y2="1200.333252" style="stroke: green; stroke-width: 0.200000"/>
   <line x1="812.068604" y1="1150.333252" x2="812.068604" y2="1200.333252" style="stroke: green; stroke-width: 0.200000"/>
   <line x1="813.068604" y1="1150.333252" x2="813.068604" y2="1200.333252" style="stroke: green; stroke-width: 0.200000"/>
   <line x1="814.068604" y1="1150.333252" x2="814.068604" y2="1200.333252" style="stroke: green; stroke-width: 0.200000"/>
   <line x1="815.068665" y1="1150.333252" x2="815.068665" y2="1200.333252" style="stroke: green; stroke-width: 0.200000"/>
   <line x1="816.068665" y1="1150.333252" x2="816.068665" y2="1200.333252" style="stroke: green; stroke-width: 0.200000"/>
   <line x1="817.068604" y1="1150.333252" x2="817.068604" y2="1200.333252" style="stroke: green; stroke-width: 0.200000"/>
   <line x1="818.068604" y1="1150.333252" x2="818.068604" y2="1200.333252" style="stroke: green; stroke-width: 0.200000"/>
   <line x1="819.068604" y1="1150.333252" x2="819.068604" y2="1200.333252" style="stroke: green; stroke-width: 0.200000"/>
   <line x1="820.068665" y1="1150.333252" x2="820.068665" y2="1200.333252" style="stroke: green; stroke-width: 0.200000"/>
   <line x1="821.068665" y1="1150.333252" x2="821.068665" y2="1200.333252" style="stroke: green; stroke-width: 0.200000"/>
   <line x1="822.068604" y1="1150.333252" x2="822.068604" y2="1200.333252" style="stroke: green; stroke-width: 0.200000"/>
   <line x1="823.068604" y1="1150.333252" x2="823.068604" y2="1200.333252" style="stroke: green; stroke-width: 0.200000"/>
   <line x1="824.068604" y1="1150.333252" x2="824.068604" y2="1200.333252" style="stroke: green; stroke-width: 0.200000"/>
   <line x1="825.068665" y1="1150.333252" x2="825.068665" y2="1200.333252" style="stroke: green; stroke-width: 0.200000"/>
   <line x1="826.068665" y1="1150.333252" x2="826.068665" y2="1200.333252" style="stroke: green; stroke-width: 0.200000"/>
   <line x1="827.068604" y1="1150.333252" x2="827.068604" y2="1200.333252" style="stroke: green; stroke-width: 0.200000"/>
   <line x1="828.068604" y1="1150.333252" x2="828.068604" y2="1200.333252" style="stroke: green; stroke-width: 0.200000"/>
   <line x1="829.068604" y1="1150.333252" x2="829.068604" y2="1200.333252" style="stroke: green; stroke-width: 0.200000"/>
   <line x1="830.068665" y1="1150.333252" x2="830.068665" y2="1200.333252" style="stroke: green; stroke-width: 0.200000"/>
   <line x1="831.068665" y1="1150.333252" x2="831.068665" y2="1200.333252" style="stroke: green; stroke-width: 0.200000"/>
   <line x1="832.068604" y1="1150.333252" x2="832.068604" y2="1200.333252" style="stroke: green; stroke-width: 0.200000"/>
   <line x1="833.068604" y1="1150.333252" x2="833.068604" y2="1200.333252" style="stroke: green; stroke-width: 0.200000"/>
   <line x1="834.068604" y1="1150.333252" x2="834.068604" y2="1200.333252" style="stroke: green; stroke-width: 0.200000"/>
   <line x1="835.068665" y1="1150.333252" x2="835.068665" y2="1200.333252" style="stroke: green; stroke-width: 0.200000"/>
   <line x1="836.068665" y1="1150.333252" x2="836.068665" y2="1200.333252" style="stroke: green; stroke-width: 0.200000"/>
   <line x1="837.068604" y1="1150.333252" x2="837.068604" y2="1200.333252" style="stroke: green; stroke-width: 0.200000"/>
   <line x1="838.068604" y1="1150.333252" x2="838.068604" y2="1200.333252" style="stroke: green; stroke-width: 0.200000"/>
   <line x1="839.068604" y1="1150.333252" x2="839.068604" y2="1200.333252" style="stroke: green; stroke-width: 0.200000"/>
   <line x1="840.068665" y1="1150.333252" x2="840.068665" y2="1200.333252" style="stroke: green; stroke-width: 0.200000"/>
   <line x1="841.068665" y1="1150.333252" x2="841.068665" y2="1200.333252" style="stroke: green; stroke-width: 0.200000"/>
   <line x1="842.068604" y1="1150.333252" x2="842.068604" y2="1200.333252" style="stroke: green; stroke-width: 0.200000"/>
   <line x1="843.068604" y1="1150.333252" x2="843.068604" y2="1200.333252" style="stroke: green; stroke-width: 0.200000"/>
   <line x1="844.068604" y1="1199.266235" x2="844.068604" y2="1200.333252" style="stroke: green; stroke-width: 0.200000"/>
   <line x1="844.068604" y1="1150.333252" x2="844.068604" y2="1195.551270" style="stroke: green; stroke-width: 0.200000"/>
   <line x1="845.068665" y1="1150.333252" x2="845.068665" y2="1193.540405" style="stroke: green; stroke-width: 0.200000"/>
   <line x1="846.068665" y1="1150.333252" x2="846.068665" y2="1191.509888" style="stroke: green; stroke-width: 0.200000"/>
   <line x1="847.068604" y1="1150.333252" x2="847.068604" y2="1189.050049" style="stroke: green; stroke-width: 0.200000"/>
   <line x1="848.068604" y1="1150.333252" x2="848.068604" y2="1186.590088" style="stroke: green; stroke-width: 0.200000"/>
   <line x1="849.068604" y1="1150.333252" x2="849.068604" y2="1184.925537" style="stroke: green; stroke-width: 0.200000"/>
   <line x1="850.068665" y1="1150.333252" x2="850.068665" y2="1183.935303" style="stroke: green; stroke-width: 0.200000"/>
   <line x1="851.068665" y1="1150.333252" x2="851.068665" y2="1183.669922" style="stroke: green; stroke-width: 0.200000"/>
   <line x1="852.068604" y1="1150.333252" x2="852.068604" y2="1183.589722" style="stroke: green; stroke-width: 0.200000"/>
   <line x1="853.068604" y1="1150.333252" x2="853.068604" y2="1183.509399" style="stroke: green; stroke-width: 0.200000"/>
   <line x1="854.068604" y1="1150.333252" x2="854.068604" y2="1183.298218" style="stroke: green; stroke-width: 0.200000"/>
   <line x1="898.068604" y1="1150.333252" x2="898.068604" y2="1190.861938" style="stroke: green; stroke-width: 0.200000"/>
   <line x1="897.068604" y1="1150.333252" x2="897.068604" y2="1190.519409" style="stroke: green; stroke-width: 0.200000"/>
   <line x1="896.068665" y1="1150.333252" x2="896.068665" y2="1190.169556" style="stroke: green; stroke-width: 0.200000"/>
   <line x1="895.068665" y1="1150.333252" x2="895.068665" y2="1189.832764" style="stroke: green; stroke-width: 0.200000"/>
   <line x1="894.068604" y1="1150.333252" x2="894.068604" y2="1189.514893" style="stroke: green; stroke-width: 0.200000"/>
   <line x1="893.068604" y1="1150.333252" x2="893.068604" y2="1189.197144" style="stroke: green; stroke-width: 0.200000"/>
   <line x1="892.068604" y1="1150.333252" x2="892.068604" y2="1188.879517" style="stroke: green; stroke-width: 0.200000"/>
   <line x1="891.068665" y1="1150.333252" x2="891.068665" y2="1188.561768" style="stroke: green; stroke-width: 0.200000"/>
   <line x1="890.068665" y1="1150.333252" x2="890.068665" y2="1188.243896" style="stroke: green; stroke-width: 0.200000"/>
   <line x1="889.068604" y1="1150.333252" x2="889.068604" y2="1187.926270" style="stroke: green; stroke-width: 0.200000"/>
   <line x1="888.068604" y1="1150.333252" x2="888.068604" y2="1187.575806" style="stroke: green; stroke-width: 0.200000"/>
   <line x1="887.068604" y1="1150.333252" x2="887.068604" y2="1187.166382" style="stroke: green; stroke-width: 0.200000"/>
   <line x1="886.068665" y1="1150.333252" x2="886.068665" y2="1186.802734" style="stroke: green; stroke-width: 0.200000"/>
   <line x1="885.068665" y1="1150.333252" x2="885.068665" y2="1186.474121" style="stroke: green; stroke-width: 0.200000"/>
   <line x1="884.068604" y1="1150.333252" x2="884.068604" y2="1186.145630" style="stroke: green; stroke-width: 0.200000"/>
   <line x1="883.068604" y1="1150.333252" x2="883.068604" y2="1185.817139" style="stroke: green; stroke-width: 0.200000"/>
   <line x1="882.068604" y1="1150.333252" x2="882.068604" y2="1185.488525" style="stroke: green; stroke-width: 0.200000"/>
   <line x1="881.068665" y1="1150.333252" x2="881.068665" y2="1185.160156" style="stroke: green; stroke-width: 0.200000"/>
   <line x1="899.068604" y1="1150.333252" x2="899.068604" y2="1184.898560" style="stroke: green; stroke-width: 0.200000"/>
   <line x1="880.068665" y1="1150.333252" x2="880.068665" y2="1184.802490" style="stroke: green; stroke-width: 0.200000"/>
   <line x1="900.068665" y1="1150.333252" x2="900.068665" y2="1184.597290" style="stroke: green; stroke-width: 0.200000"/>
   <line x1="879.068604" y1="1150.333252" x2="879.068604" y2="1184.371704" style="stroke: green; stroke-width: 0.200000"/>
   <line x1="901.068665" y1="1150.360229" x2="901.068665" y2="1184.295898" style="stroke: green; stroke-width: 0.200000"/>
   <line x1="902.068604" y1="1151.107422" x2="902.068604" y2="1183.994629" style="stroke: green; stroke-width: 0.200000"/>
   <line x1="878.068604" y1="1150.333252" x2="878.068604" y2="1183.941162" style="stroke: green; stroke-width: 0.200000"/>
   <line x1="903.068604" y1="1151.854614" x2="903.068604" y2="1183.693359" style="stroke: green; stroke-width: 0.200000"/>
   <line x1="877.068604" y1="1150.333252" x2="877.068604" y2="1183.510254" style="stroke: green; stroke-width: 0.200000"/>
   <line x1="904.068604" y1="1152.669922" x2="904.068604" y2="1183.392090" style="stroke: green; stroke-width: 0.200000"/>
   <line x1="876.068665" y1="1150.333252" x2="876.068665" y2="1183.108154" style="stroke: green; stroke-width: 0.200000"/>
   <line x1="875.068665" y1="1150.333252" x2="875.068665" y2="1183.031006" style="stroke: green; stroke-width: 0.200000"/>
   <line x1="855.068665" y1="1150.333252" x2="855.068665" y2="1182.971069" style="stroke: green; stroke-width: 0.200000"/>
   <line x1="874.068604" y1="1150.333252" x2="874.068604" y2="1182.953857" style="stroke: green; stroke-width: 0.200000"/>
   <line x1="873.068604" y1="1150.333252" x2="873.068604" y2="1182.876465" style="stroke: green; stroke-width: 0.200000"/>
   <line x1="872.068604" y1="1150.333252" x2="872.068604" y2="1182.799194" style="stroke: green; stroke-width: 0.200000"/>
   <line x1="871.068665" y1="1150.333252" x2="871.068665" y2="1182.721924" style="stroke: green; stroke-width: 0.200000"/>
   <line x1="856.068665" y1="1150.333252" x2="856.068665" y2="1182.643921" style="stroke: green; stroke-width: 0.200000"/>
   <line x1="870.068665" y1="1150.333252" x2="870.068665" y2="1182.498901" style="stroke: green; stroke-width: 0.200000"/>
   <line x1="857.068604" y1="1150.333252" x2="857.068604" y2="1182.316772" style="stroke: green; stroke-width: 0.200000"/>
   <line x1="869.068604" y1="1150.333252" x2="869.068604" y2="1182.205566" style="stroke: green; stroke-width: 0.200000"/>
   <line x1="858.068604" y1="1150.333252" x2="858.068604" y2="1181.989624" style="stroke: green; stroke-width: 0.200000"/>
   <line x1="868.068604" y1="1150.333252" x2="868.068604" y2="1181.911499" style="stroke: green; stroke-width: 0.200000"/>
   <line x1="859.068604" y1="1150.333252" x2="859.068604" y2="1181.662598" style="stroke: green; stroke-width: 0.200000"/>
   <line x1="867.068604" y1="1150.333252" x2="867.068604" y2="1181.617554" style="stroke: green; stroke-width: 0.200000"/>
   <line x1="860.068665" y1="1150.333252" x2="860.068665" y2="1181.335327" style="stroke: green; stroke-width: 0.200000"/>
   <line x1="866.068665" y1="1150.333252" x2="866.068665" y2="1181.323486" style="stroke: green; stroke-width: 0.200000"/>
   <line x1="861.068665" y1="1150.333252" x2="861.068665" y2="1181.162231" style="stroke: green; stroke-width: 0.200000"/>
   <line x1="862.068604" y1="1150.333252" x2="862.068604" y2="1181.045410" style="stroke: green; stroke-width: 0.200000"/>
   <line x1="865.068665" y1="1150.333252" x2="865.068665" y2="1181.029419" style="stroke: green; stroke-width: 0.200000"/>
   <line x1="863.068604" y1="1150.333252" x2="863.068604" y2="1180.928467" style="stroke: green; stroke-width: 0.200000"/>
   <line x1="864.068604" y1="1150.333252" x2="864.068604" y2="1180.811646" style="stroke: green; stroke-width: 0.200000"/>
   <line x1="905.068665" y1="1153.661133" x2="905.068665" y2="1183.090942" style="stroke: green; stroke-width: 0.200000"/>
   <line x1="906.068665" y1="1166.013794" x2="906.068665" y2="1182.789551" style="stroke: green; stroke-width: 0.200000"/>
   <line x1="907.068604" y1="1167.576416" x2="907.068604" y2="1182.488281" style="stroke: green; stroke-width: 0.200000"/>
   <line x1="908.068604" y1="1169.138794" x2="908.068604" y2="1182.185913" style="stroke: green; stroke-width: 0.200000"/>
   <line x1="909.068604" y1="1170.701538" x2="909.068604" y2="1181.832764" style="stroke: green; stroke-width: 0.200000"/>
   <line x1="910.068665" y1="1172.264160" x2="910.068665" y2="1181.479614" style="stroke: green; stroke-width: 0.200000"/>
   <line x1="911.068665" y1="1173.826538" x2="911.068665" y2="1180.892578" style="stroke: green; stroke-width: 0.200000"/>
   <line x1="912.068604" y1="1175.361450" x2="912.068604" y2="1179.472168" style="stroke: green; stroke-width: 0.200000"/>
   <line x1="913.068604" y1="1177.057495" x2="913.068604" y2="1178.051880" style="stroke: green; stroke-width: 0.200000"/>
   <line x1="906.068665" y1="1154.652344" x2="906.068665" y2="1165.053955" style="stroke: green; stroke-width: 0.200000"/>
   <line x1="907.068604" y1="1155.643555" x2="907.068604" y2="1164.380615" style="stroke: green; stroke-width: 0.200000"/>
   <line x1="908.068604" y1="1156.634766" x2="908.068604" y2="1163.707520" style="stroke: green; stroke-width: 0.200000"/>
   <line x1="909.068604" y1="1157.562988" x2="909.068604" y2="1163.034424" style="stroke: green; stroke-width: 0.200000"/>
   <line x1="910.068665" y1="1158.396240" x2="910.068665" y2="1162.361328" style="stroke: green; stroke-width: 0.200000"/>
   <line x1="911.068665" y1="1159.229492" x2="911.068665" y2="1161.688232" style="stroke: green; stroke-width: 0.200000"/>
   <line x1="912.068604" y1="1160.224365" x2="912.068604" y2="1161.014893" style="stroke: green; stroke-width: 0.200000"/>
   <line x1="804.068604" y1="1200.433228" x2="804.068604" y2="1227.215454" style="stroke: green; stroke-width: 0.200000"/>
   <line x1="803.068604" y1="1200.433228" x2="803.068604" y2="1221.564697" style="stroke: green; stroke-width: 0.200000"/>
   <line x1="802.068604" y1="1200.433228" x2="802.068604" y2="1216.066406" style="stroke: green; stroke-width: 0.200000"/>
   <line x1="801.068665" y1="1200.433228" x2="801.068665" y2="1210.510010" style="stroke: green; stroke-width: 0.200000"/>
   <line x1="800.068665" y1="1200.433228" x2="800.068665" y2="1201.095093" style="stroke: green; stroke-width: 0.200000"/>
   <line x1="807.068604" y1="1200.433228" x2="807.068604" y2="1250.433228" style="stroke: green; stroke-width: 0.200000"/>
   <line x1="808.068604" y1="1200.433228" x2="808.068604" y2="1250.433228" style="stroke: green; stroke-width: 0.200000"/>
   <line x1="809.068604" y1="1200.433228" x2="809.068604" y2="1250.433228" style="stroke: green; stroke-width: 0.200000"/>
   <line x1="810.068665" y1="1200.433228" x2="810.068665" y2="1250.433228" style="stroke: green; stroke-width: 0.200000"/>
   <line x1="811.068665" y1="1200.433228" x2="811.068665" y2="1250.433228" style="stroke: green; stroke-width: 0.200000"/>
   <line x1="812.068604" y1="1200.433228" x2="812.068604" y2="1250.433228" style="stroke: green; stroke-width: 0.200000"/>
   <line x1="813.068604" y1="1200.433228" x2="813.068604" y2="1250.433228" style="stroke: green; stroke-width: 0.200000"/>
   <line x1="814.068604" y1="1200.433228" x2="814.068604" y2="1250.433228" style="stroke: green; stroke-width: 0.200000"/>
   <line x1="815.068665" y1="1200.433228" x2="815.068665" y2="1250.433228" style="stroke: green; stroke-width: 0.200000"/>
   <line x1="816.068665" y1="1200.433228" x2="816.068665" y2="1250.433228" style="stroke: green; stroke-width: 0.200000"/>
   <line x1="817.068604" y1="1200.433228" x2="817.068604" y2="1250.433228" style="stroke: green; stroke-width: 0.200000"/>
   <line x1="818.068604" y1="1200.433228" x2="818.068604" y2="1250.433228" style="stroke: green; stroke-width: 0.200000"/>
   <line x1="819.068604" y1="1200.433228" x2="819.068604" y2="1250.433228" style="stroke: green; stroke-width: 0.200000"/>
   <line x1="820.068665" y1="1200.433228" x2="820.068665" y2="1250.433228" style="stroke: green; stroke-width: 0.200000"/>
   <line x1="821.068665" y1="1200.433228" x2="821.068665" y2="1250.433228" style="stroke: green; stroke-width: 0.200000"/>
   <line x1="822.068604" y1="1200.433228" x2="822.068604" y2="1250.433228" style="stroke: green; stroke-width: 0.200000"/>
   <line x1="823.068604" y1="1200.433228" x2="823.068604" y2="1250.433228" style="stroke: green; stroke-width: 0.200000"/>
   <line x1="824.068604" y1="1200.433228" x2="824.068604" y2="1250.433228" style="stroke: green; stroke-width: 0.200000"/>
   <line x1="825.068665" y1="1200.433228" x2="825.068665" y2="1250.433228" style="stroke: green; stroke-width: 0.200000"/>
   <line x1="826.068665" y1="1200.433228" x2="826.068665" y2="1250.433228" style="stroke: green; stroke-width: 0.200000"/>
   <line x1="827.068604" y1="1200.433228" x2="827.068604" y2="1250.433228" style="stroke: green; stroke-width: 0.200000"/>
   <line x1="828.068604" y1="1200.433228" x2="828.068604" y2="1250.433228" style="stroke: green; stroke-width: 0.200000"/>
   <line x1="829.068604" y1="1200.433228" x2="829.068604" y2="1250.433228" style="stroke: green; stroke-width: 0.200000"/>
   <line x1="830.068665" y1="1200.433228" x2="830.068665" y2="1250.433228" style="stroke: green; stroke-width: 0.200000"/>
   <line x1="831.068665" y1="1200.433228" x2="831.068665" y2="1250.433228" style="stroke: green; stroke-width: 0.200000"/>
   <line x1="832.068604" y1="1200.433228" x2="832.068604" y2="1250.433228" style="stroke: green; stroke-width: 0.200000"/>
   <line x1="833.068604" y1="1200.433228" x2="833.068604" y2="1250.433228" style="stroke: green; stroke-width: 0.200000"/>
   <line x1="834.068604" y1="1200.433228" x2="834.068604" y2="1250.433228" style="stroke: green; stroke-width: 0.200000"/>
   <line x1="835.068665" y1="1200.433228" x2="835.068665" y2="1250.433228" style="stroke: green; stroke-width: 0.200000"/>
   <line x1="836.068665" y1="1200.433228" x2="836.068665" y2="1250.433228" style="stroke: green; stroke-width: 0.200000"/>
   <line x1="837.068604" y1="1200.433228" x2="837.068604" y2="1250.433228" style="stroke: green; stroke-width: 0.200000"/>
   <line x1="838.068604" y1="1200.433228" x2="838.068604" y2="1250.433228" style="stroke: green; stroke-width: 0.200000"/>
   <line x1="839.068604" y1="1200.433228" x2="839.068604" y2="1250.433228" style="stroke: green; stroke-width: 0.200000"/>
   <line x1="840.068665" y1="1200.433228" x2="840.068665" y2="1250.433228" style="stroke: green; stroke-width: 0.200000"/>
   <line x1="841.068665" y1="1200.433228" x2="841.068665" y2="1250.433228" style="stroke: green; stroke-width: 0.200000"/>
   <line x1="842.068604" y1="1200.433228" x2="842.068604" y2="1250.433228" style="stroke: green; stroke-width: 0.200000"/>
   <line x1="843.068604" y1="1200.433228" x2="843.068604" y2="1250.433228" style="stroke: green; stroke-width: 0.200000"/>
   <line x1="844.068604" y1="1200.433228" x2="844.068604" y2="1247.993042" style="stroke: green; stroke-width: 0.200000"/>
   <line x1="806.068665" y1="1200.433228" x2="806.068665" y2="1244.510742" style="stroke: green; stroke-width: 0.200000"/>
   <line x1="845.068665" y1="1205.557373" x2="845.068665" y2="1238.406616" style="stroke: green; stroke-width: 0.200000"/>
   <line x1="805.068665" y1="1200.433228" x2="805.068665" y2="1237.993286" style="stroke: green; stroke-width: 0.200000"/>
   <line x1="846.068665" y1="1214.717773" x2="846.068665" y2="1221.539185" style="stroke: green; stroke-width: 0.200000"/>
   <line x1="823.068604" y1="1250.533203" x2="823.068604" y2="1286.192749" style="stroke: green; stroke-width: 0.200000"/>
   <line x1="822.068604" y1="1250.533203" x2="822.068604" y2="1284.739258" style="stroke: green; stroke-width: 0.200000"/>
   <line x1="824.068604" y1="1250.533203" x2="824.068604" y2="1284.520874" style="stroke: green; stroke-width: 0.200000"/>
   <line x1="821.068665" y1="1250.533203" x2="821.068665" y2="1282.923096" style="stroke: green; stroke-width: 0.200000"/>
   <line x1="825.068665" y1="1250.533203" x2="825.068665" y2="1282.848999" style="stroke: green; stroke-width: 0.200000"/>
   <line x1="826.068665" y1="1250.533203" x2="826.068665" y2="1281.177246" style="stroke: green; stroke-width: 0.200000"/>
   <line x1="820.068665" y1="1250.533203" x2="820.068665" y2="1281.107178" style="stroke: green; stroke-width: 0.200000"/>
   <line x1="827.068604" y1="1250.533203" x2="827.068604" y2="1279.318604" style="stroke: green; stroke-width: 0.200000"/>
   <line x1="819.068604" y1="1250.533203" x2="819.068604" y2="1279.291138" style="stroke: green; stroke-width: 0.200000"/>
   <line x1="812.068604" y1="1250.533203" x2="812.068604" y2="1278.235352" style="stroke: green; stroke-width: 0.200000"/>
   <line x1="813.068604" y1="1250.533203" x2="813.068604" y2="1277.956421" style="stroke: green; stroke-width: 0.200000"/>
   <line x1="814.068604" y1="1250.533203" x2="814.068604" y2="1277.677368" style="stroke: green; stroke-width: 0.200000"/>
   <line x1="818.068604" y1="1250.533203" x2="818.068604" y2="1277.475098" style="stroke: green; stroke-width: 0.200000"/>
   <line x1="828.068604" y1="1250.533203" x2="828.068604" y2="1277.406006" style="stroke: green; stroke-width: 0.200000"/>
   <line x1="815.068665" y1="1250.533203" x2="815.068665" y2="1277.398438" style="stroke: green; stroke-width: 0.200000"/>
   <line x1="816.068665" y1="1250.533203" x2="816.068665" y2="1277.119385" style="stroke: green; stroke-width: 0.200000"/>
   <line x1="817.068604" y1="1250.533203" x2="817.068604" y2="1276.840332" style="stroke: green; stroke-width: 0.200000"/>
   <line x1="811.068665" y1="1250.533203" x2="811.068665" y2="1276.100098" style="stroke: green; stroke-width: 0.200000"/>
   <line x1="829.068604" y1="1250.533203" x2="829.068604" y2="1275.493408" style="stroke: green; stroke-width: 0.200000"/>
   <line x1="838.068604" y1="1250.533203" x2="838.068604" y2="1274.241333" style="stroke: green; stroke-width: 0.200000"/>
   <line x1="839.068604" y1="1250.533203" x2="839.068604" y2="1273.929688" style="stroke: green; stroke-width: 0.200000"/>
   <line x1="837.068604" y1="1250.533203" x2="837.068604" y2="1273.822266" style="stroke: green; stroke-width: 0.200000"/>
   <line x1="830.068665" y1="1250.533203" x2="830.068665" y2="1273.580811" style="stroke: green; stroke-width: 0.200000"/>
   <line x1="836.068665" y1="1250.533203" x2="836.068665" y2="1273.403198" style="stroke: green; stroke-width: 0.200000"/>
   <line x1="835.068665" y1="1250.533203" x2="835.068665" y2="1272.984131" style="stroke: green; stroke-width: 0.200000"/>
   <line x1="834.068604" y1="1250.533203" x2="834.068604" y2="1272.564941" style="stroke: green; stroke-width: 0.200000"/>
   <line x1="833.068604" y1="1250.533203" x2="833.068604" y2="1272.145874" style="stroke: green; stroke-width: 0.200000"/>
   <line x1="832.068604" y1="1250.533203" x2="832.068604" y2="1271.726807" style="stroke: green; stroke-width: 0.200000"/>
   <line x1="831.068665" y1="1250.533203" x2="831.068665" y2="1271.668213" style="stroke: green; stroke-width: 0.200000"/>
   <line x1="840.068665" y1="1250.533203" x2="840.068665" y2="1270.268311" style="stroke: green; stroke-width: 0.200000"/>
   <line x1="810.068665" y1="1262.058228" x2="810.068665" y2="1270.162842" style="stroke: green; stroke-width: 0.200000"/>
   <line x1="841.068665" y1="1250.533203" x2="841.068665" y2="1266.324219" style="stroke: green; stroke-width: 0.200000"/>
   <line x1="842.068604" y1="1250.533203" x2="842.068604" y2="1262.349854" style="stroke: green; stroke-width: 0.200000"/>
   <line x1="810.068665" y1="1250.533203" x2="810.068665" y2="1261.800659" style="stroke: green; stroke-width: 0.200000"/>
   <line x1="809.068604" y1="1250.533203" x2="809.068604" y2="1259.069946" style="stroke: green; stroke-width: 0.200000"/>
   <line x1="843.068604" y1="1250.533203" x2="843.068604" y2="1257.904785" style="stroke: green; stroke-width: 0.200000"/>
   <line x1="808.068604" y1="1250.533203" x2="808.068604" y2="1256.338989" style="stroke: green; stroke-width: 0.200000"/>
   <line x1="807.068604" y1="1250.533203" x2="807.068604" y2="1252.332397" style="stroke: green; stroke-width: 0.200000"/>
   <line x1="821.206299" y1="1283.173340" x2="821.206299" y2="1307.601440" style="stroke: green; stroke-width: 0.200000"/>
   <line x1="822.206299" y1="1284.989258" x2="822.206299" y2="1307.033936" style="stroke: green; stroke-width: 0.200000"/>
   <line x1="820.206299" y1="1281.357300" x2="820.206299" y2="1306.210449" style="stroke: green; stroke-width: 0.200000"/>
   <line x1="823.206238" y1="1285.962891" x2="823.206238" y2="1306.195801" style="stroke: green; stroke-width: 0.200000"/>
   <line x1="824.206238" y1="1284.290894" x2="824.206238" y2="1305.357666" style="stroke: green; stroke-width: 0.200000"/>
   <line x1="825.206299" y1="1282.619019" x2="825.206299" y2="1304.519531" style="stroke: green; stroke-width: 0.200000"/>
   <line x1="819.206238" y1="1279.541260" x2="819.206238" y2="1304.286987" style="stroke: green; stroke-width: 0.200000"/>
   <line x1="826.206299" y1="1280.947266" x2="826.206299" y2="1303.681396" style="stroke: green; stroke-width: 0.200000"/>
   <line x1="827.206299" y1="1279.055420" x2="827.206299" y2="1302.843140" style="stroke: green; stroke-width: 0.200000"/>
   <line x1="818.206238" y1="1277.725342" x2="818.206238" y2="1302.248779" style="stroke: green; stroke-width: 0.200000"/>
   <line x1="828.206238" y1="1277.142944" x2="828.206238" y2="1301.563843" style="stroke: green; stroke-width: 0.200000"/>
   <line x1="817.206299" y1="1276.802002" x2="817.206299" y2="1300.210693" style="stroke: green; stroke-width: 0.200000"/>
   <line x1="829.206238" y1="1275.230347" x2="829.206238" y2="1299.308105" style="stroke: green; stroke-width: 0.200000"/>
   <line x1="816.206299" y1="1277.081177" x2="816.206299" y2="1298.277832" style="stroke: green; stroke-width: 0.200000"/>
   <line x1="830.206299" y1="1273.317749" x2="830.206299" y2="1296.710938" style="stroke: green; stroke-width: 0.200000"/>
   <line x1="815.206299" y1="1277.360107" x2="815.206299" y2="1296.562988" style="stroke: green; stroke-width: 0.200000"/>
   <line x1="814.206238" y1="1277.639038" x2="814.206238" y2="1294.848022" style="stroke: green; stroke-width: 0.200000"/>
   <line x1="831.206299" y1="1271.405151" x2="831.206299" y2="1294.113770" style="stroke: green; stroke-width: 0.200000"/>
   <line x1="832.206299" y1="1271.784668" x2="832.206299" y2="1291.718140" style="stroke: green; stroke-width: 0.200000"/>
   <line x1="813.206238" y1="1277.918213" x2="813.206238" y2="1291.194458" style="stroke: green; stroke-width: 0.200000"/>
   <line x1="833.206238" y1="1272.203735" x2="833.206238" y2="1290.046387" style="stroke: green; stroke-width: 0.200000"/>
   <line x1="834.206238" y1="1272.622803" x2="834.206238" y2="1288.374512" style="stroke: green; stroke-width: 0.200000"/>
   <line x1="835.206299" y1="1273.041870" x2="835.206299" y2="1286.077759" style="stroke: green; stroke-width: 0.200000"/>
   <line x1="836.206299" y1="1273.460938" x2="836.206299" y2="1283.009766" style="stroke: green; stroke-width: 0.200000"/>
   <line x1="812.206299" y1="1278.197144" x2="812.206299" y2="1280.139038" style="stroke: green; stroke-width: 0.200000"/>
   <line x1="837.206299" y1="1273.880005" x2="837.206299" y2="1280.133301" style="stroke: green; stroke-width: 0.200000"/>
   <line x1="838.206238" y1="1274.299072" x2="838.206238" y2="1277.256836" style="stroke: green; stroke-width: 0.200000"/>
   <line x1="908.662720" y1="1181.976196" x2="908.662720" y2="1192.527100" style="stroke: green; stroke-width: 0.200000"/>
   <line x1="909.662720" y1="1181.623047" x2="909.662720" y2="1192.357422" style="stroke: green; stroke-width: 0.200000"/>
   <line x1="907.662720" y1="1182.309448" x2="907.662720" y2="1192.302368" style="stroke: green; stroke-width: 0.200000"/>
   <line x1="906.662720" y1="1182.610718" x2="906.662720" y2="1192.077515" style="stroke: green; stroke-width: 0.200000"/>
   <line x1="910.662720" y1="1181.269775" x2="910.662720" y2="1192.056152" style="stroke: green; stroke-width: 0.200000"/>
   <line x1="905.662720" y1="1182.911987" x2="905.662720" y2="1191.852783" style="stroke: green; stroke-width: 0.200000"/>
   <line x1="911.662720" y1="1180.048950" x2="911.662720" y2="1191.754883" style="stroke: green; stroke-width: 0.200000"/>
   <line x1="904.662720" y1="1183.213257" x2="904.662720" y2="1191.700073" style="stroke: green; stroke-width: 0.200000"/>
   <line x1="903.662720" y1="1183.514526" x2="903.662720" y2="1191.572998" style="stroke: green; stroke-width: 0.200000"/>
   <line x1="912.662720" y1="1178.628540" x2="912.662720" y2="1191.453613" style="stroke: green; stroke-width: 0.200000"/>
   <line x1="902.662720" y1="1183.815796" x2="902.662720" y2="1191.445801" style="stroke: green; stroke-width: 0.200000"/>
   <line x1="901.662720" y1="1184.117188" x2="901.662720" y2="1191.318604" style="stroke: green; stroke-width: 0.200000"/>
   <line x1="900.662720" y1="1184.418457" x2="900.662720" y2="1191.191528" style="stroke: green; stroke-width: 0.200000"/>
   <line x1="913.662720" y1="1161.834961" x2="913.662720" y2="1191.152344" style="stroke: green; stroke-width: 0.200000"/>
   <line x1="899.662720" y1="1184.719727" x2="899.662720" y2="1191.064453" style="stroke: green; stroke-width: 0.200000"/>
   <line x1="898.662720" y1="1185.020996" x2="898.662720" y2="1190.937378" style="stroke: green; stroke-width: 0.200000"/>
   <line x1="914.662720" y1="1162.845337" x2="914.662720" y2="1190.850952" style="stroke: green; stroke-width: 0.200000"/>
   <line x1="915.662720" y1="1163.855591" x2="915.662720" y2="1190.549805" style="stroke: green; stroke-width: 0.200000"/>
   <line x1="916.662720" y1="1164.865967" x2="916.662720" y2="1190.300781" style="stroke: green; stroke-width: 0.200000"/>
   <line x1="917.662720" y1="1165.876343" x2="917.662720" y2="1190.145386" style="stroke: green; stroke-width: 0.200000"/>
   <line x1="918.662720" y1="1167.240112" x2="918.662720" y2="1189.896973" style="stroke: green; stroke-width: 0.200000"/>
   <line x1="919.662720" y1="1168.654297" x2="919.662720" y2="1189.346069" style="stroke: green; stroke-width: 0.200000"/>
   <line x1="920.662720" y1="1170.068359" x2="920.662720" y2="1188.215576" style="stroke: green; stroke-width: 0.200000"/>
   <line x1="921.662720" y1="1171.482422" x2="921.662720" y2="1186.672852" style="stroke: green; stroke-width: 0.200000"/>
   <line x1="922.662720" y1="1172.896606" x2="922.662720" y2="1185.130005" style="stroke: green; stroke-width: 0.200000"/>
   <line x1="923.662720" y1="1176.066406" x2="923.662720" y2="1183.587280" style="stroke: green; stroke-width: 0.200000"/>
   <line x1="924.662720" y1="1180.663696" x2="924.662720" y2="1182.044434" style="stroke: green; stroke-width: 0.200000"/>
   <line x1="912.662720" y1="1160.824585" x2="912.662720" y2="1176.201416" style="stroke: green; stroke-width: 0.200000"/>
   <line x1="911.662720" y1="1161.288452" x2="911.662720" y2="1174.754517" style="stroke: green; stroke-width: 0.200000"/>
   <line x1="910.662720" y1="1161.961548" x2="910.662720" y2="1173.192139" style="stroke: green; stroke-width: 0.200000"/>
   <line x1="909.662720" y1="1162.634644" x2="909.662720" y2="1171.629761" style="stroke: green; stroke-width: 0.200000"/>
   <line x1="908.662720" y1="1163.307739" x2="908.662720" y2="1170.066895" style="stroke: green; stroke-width: 0.200000"/>
   <line x1="907.662720" y1="1163.980835" x2="907.662720" y2="1168.504517" style="stroke: green; stroke-width: 0.200000"/>
   <line x1="906.662720" y1="1164.654297" x2="906.662720" y2="1166.942017" style="stroke: green; stroke-width: 0.200000"/>
   <line x1="905.662720" y1="1165.327271" x2="905.662720" y2="1165.379395" style="stroke: green; stroke-width: 0.200000"/>
   <line x1="912.035645" y1="1161.037109" x2="912.035645" y2="1161.037476" style="stroke: green; stroke-width: 0.200000"/>
   <path d="M 808.177  1265.82  808.562  1262.05  805.922  1254.84  805.809  1253.37  805.422  1252.05  " style="fill: none; stroke: darkmagenta; stroke-width: 0.200000; fill-type: evenodd"  fill-opacity="1.000000" />
   <path d="M 805.422  1252.05  804.89  1250.24  804.457  1242.56  803.077  1235.69  803.172  1234.41  " style="fill: none; stroke: red; stroke-width: 0.200000; fill-type: evenodd"  fill-opacity="1.000000" />
   <path d="M 803.172  1234.41  803.314  1232.49  803.25  1231.19  801.482  1221.21  799.629  1211.05  799.502  1210.12  798.991  1202.49  797.662  1198.97  796.466  1192.72  794.631  1188.29  791.836  1181.76  789.839  1179.24  783.152  1172.17  782.27  1170.88  775.062  1162.97  774.822  1162.6  773.793  1161.31  769.437  1153.86  767.791  1151.32  762.258  1145.22  762.099  1144.95  758.947  1137.14  754.563  1129.9  754.081  1128.28  753.13  1117.94  753.223  1116.28  754.266  1109.82  755.513  1106.72  755.992  1105.22  759.802  1095.54  760.095  1094.9  764.99  1085.35  766.166  1083.3  770.213  1076.92  773.051  1072.98  775.692  1069.75  780.08  1064.88  782.013  1063.12  784.606  1061  790.32  1056.77  794.434  1054.51  800.399  1051.76  807.313  1049.69  811.273  1048.89  821.936  1048.63  823.999  1048.97  832.862  1050.76  834.464  1051.71  842.114  1054.2  845.867  1056.23  851.908  1059.07  855.184  1062.04  860.576  1066.06  862.344  1068.85  868.5  1077.83  872.096  1085.82  873.002  1088.04  876.239  1098  876.314  1098.34  876.665  1099.48  878.693  1107.25  879.498  1110.41  881.008  1117.08  883.045  1124.35  883.43  1126.5  885.055  1130.08  886.717  1134.85  889.878  1138.2  893.338  1141.76  895.076  1142.91  900.384  1147.98  904.771  1151.25  909.679  1156.12  912.172  1158.2  914.019  1160.06  " style="fill: none; stroke: darkmagenta; stroke-width: 0.200000; fill-type: evenodd"  fill-opacity="1.000000" />
   <path d="M 914.019  1160.06  918.941  1165.04  924.512  1172.91  926.295  1181.11  926.504  1181.64  926.334  1182.22  921.132  1190.25  918.92  1191.47  916.637  1191.82  908.968  1194.13  905.141  1193.27  897.69  1192.33  896.414  1191.88  " style="fill: none; stroke: red; stroke-width: 0.200000; fill-type: evenodd"  fill-opacity="1.000000" />
   <path d="M 896.414  1191.88  894.998  1191.38  887.914  1189.13  886.116  1188.4  879.821  1186.33  875.786  1184.59  870.467  1184.18  864.125  1182.31  860.66  1182.72  853.835  1184.95  850.938  1185.19  849.801  1186.31  847.394  1192.23  845.386  1196.27  845.302  1197.47  846.643  1205.91  847.367  1213.43  847.81  1215.98  847.914  1218.19  847.185  1225.42  846.88  1233  846.787  1234.56  846.743  1236.86  845.899  1244.73  844.947  1254.34  844.728  1256.44  " style="fill: none; stroke: darkmagenta; stroke-width: 0.200000; fill-type: evenodd"  fill-opacity="1.000000" />
   <path d="M 844.728  1256.44  844.438  1259.24  843.114  1264.27  841.843  1269.48  840.563  1274.12  839.961  1276.78  837.48  1283.91  836.144  1288.06  833.342  1292.74  830.53  1300.05  829.777  1301.62  829.266  1303.07  822.459  1308.78  820.631  1310.55  819.887  1308.34  818.738  1306.74  815.209  1299.54  811.867  1293.81  811.656  1290.43  811.201  1288.67  810.886  1280.98  809.108  1274.67  808.73  1271  807.967  1267.89  808.177  1265.82  " style="fill: none; stroke: red; stroke-width: 0.200000; fill-type: evenodd"  fill-opacity="1.000000" />
   <path d="M 812.221  1288.62  812.195  1288.52  811.881  1280.83  810.094  1274.48  809.718  1270.83  808.98  1267.82  809.58  1261.92  806.909  1254.62  806.798  1253.19  805.882  1250.07  805.451  1242.44  804.084  1235.63  804.316  1232.51  804.245  1231.08  802.466  1221.03  800.616  1210.89  800.498  1210.02  799.979  1202.27  798.628  1198.7  797.429  1192.43  795.553  1187.9  792.703  1181.24  790.596  1178.59  783.932  1171.54  783.055  1170.26  775.854  1162.35  775.632  1162.01  774.62  1160.74  770.288  1153.33  768.586  1150.71  763.068  1144.63  762.998  1144.51  759.844  1136.69  755.484  1129.49  755.068  1128.09  754.133  1117.92  754.218  1116.39  755.236  1110.09  756.455  1107.06  756.934  1105.55  760.723  1095.93  760.996  1095.33  765.869  1085.82  767.022  1083.81  771.042  1077.48  773.845  1073.59  776.451  1070.4  780.79  1065.59  782.668  1063.87  785.22  1061.79  790.861  1057.61  794.885  1055.4  800.754  1052.7  807.556  1050.66  811.385  1049.89  821.865  1049.63  823.818  1049.96  832.499  1051.71  834.05  1052.62  841.717  1055.12  845.416  1057.12  851.347  1059.91  854.548  1062.81  859.83  1066.75  861.509  1069.4  867.625  1078.32  871.177  1086.21  872.062  1088.39  875.273  1098.26  875.346  1098.6  875.703  1099.76  877.725  1107.5  878.526  1110.64  880.038  1117.33  882.069  1124.57  882.468  1126.8  884.126  1130.45  885.843  1135.38  889.155  1138.89  892.696  1142.53  894.451  1143.69  899.737  1148.74  904.116  1152.01  909.006  1156.86  911.495  1158.93  918.172  1165.68  919.742  1167.9  " style="fill: none; stroke: black; stroke-width: 0.200000; fill-type: evenodd"  fill-opacity="1.000000" />
   <path d="M 919.742  1167.9  923.578  1173.33  925.336  1181.41  925.464  1181.73  920.429  1189.49  918.592  1190.51  916.415  1190.84  908.931  1193.1  908.538  1193.01  " style="fill: none; stroke: red; stroke-width: 0.200000; fill-type: evenodd"  fill-opacity="1.000000" />
   <path d="M 908.538  1193.01  905.314  1192.29  897.92  1191.35  895.314  1190.44  888.255  1188.19  886.462  1187.46  880.176  1185.39  876.029  1183.61  870.649  1183.19  864.211  1181.3  860.444  1181.74  853.637  1183.97  850.494  1184.22  848.952  1185.74  846.482  1191.82  844.403  1196  844.297  1197.52  845.651  1206.04  846.375  1213.57  846.814  1216.09  846.912  1218.16  846.187  1225.35  845.881  1232.95  845.788  1234.52  845.744  1236.79  844.904  1244.63  843.952  1254.24  843.451  1259.06  842.144  1264.03  840.875  1269.22  839.593  1273.88  838.998  1276.5  836.532  1283.59  836.292  1284.34  " style="fill: none; stroke: black; stroke-width: 0.200000; fill-type: evenodd"  fill-opacity="1.000000" />
   <path d="M 836.292  1284.34  835.227  1287.64  832.439  1292.3  829.611  1299.65  828.851  1301.24  828.413  1302.48  821.789  1308.04  821.074  1308.73  820.787  1307.87  819.599  1306.22  816.091  1299.07  812.85  1293.51  812.648  1290.27  812.221  1288.62  " style="fill: none; stroke: red; stroke-width: 0.200000; fill-type: evenodd"  fill-opacity="1.000000" />
   <path d="M 843.099  1348.83  843.831  1349.56  844.099  1350.56  843.831  1351.56  843.099  1352.29  842.099  1352.56  841.099  1352.29  840.367  1351.56  840.099  1350.56  840.367  1349.56  841.099  1348.83  842.099  1348.56  843.099  1348.83  " style="fill: none; stroke: purple; stroke-width: 0.500000; fill-type: evenodd"  fill-opacity="1.000000" />
   <path d="M 823.099  1348.83  823.831  1349.56  824.099  1350.56  823.831  1351.56  823.099  1352.29  822.099  1352.56  821.099  1352.29  820.367  1351.56  820.099  1350.56  820.367  1349.56  821.099  1348.83  822.099  1348.56  823.099  1348.83  " style="fill: none; stroke: purple; stroke-width: 0.500000; fill-type: evenodd"  fill-opacity="1.000000" />
   <path d="M 1004.24  1247.87  1005.2  1249.07  1005.54  1250.56  1005.2  1252.05  1004.24  1253.25  1002.86  1253.91  1001.33  1253.91  999.957  1253.25  999.004  1252.05  998.663  1250.56  999.004  1249.07  999.957  1247.87  1001.33  1247.21  1002.86  1247.21  1004.24  1247.87  " style="fill: none; stroke: purple; stroke-width: 0.500000; fill-type: evenodd"  fill-opacity="1.000000" />
   <path d="M 964.088  1228.07  964.972  1229.18  965.288  1230.56  964.972  1231.94  964.088  1233.05  962.809  1233.67  961.39  1233.67  960.111  1233.05  959.226  1231.94  958.911  1230.56  959.226  1229.18  960.111  1228.07  961.39  1227.45  962.809  1227.45  964.088  1228.07  " style="fill: none; stroke: purple; stroke-width: 0.500000; fill-type: evenodd"  fill-opacity="1.000000" />
   <path d="M 984.044  1228.12  984.91  1229.21  985.219  1230.56  984.91  1231.91  984.044  1233  982.794  1233.6  981.405  1233.6  980.154  1233  979.289  1231.91  978.98  1230.56  979.289  1229.21  980.154  1228.12  981.405  1227.52  982.794  1227.52  984.044  1228.12  " style="fill: none; stroke: purple; stroke-width: 0.500000; fill-type: evenodd"  fill-opacity="1.000000" />
   <path d="M 1003.79  1228.12  1004.73  1229.18  1005.07  1230.56  1004.73  1231.94  1003.79  1233  1002.46  1233.51  1001.05  1233.34  999.877  1232.53  999.216  1231.27  999.216  1229.85  999.877  1228.59  1001.05  1227.78  1002.46  1227.61  1003.79  1228.12  " style="fill: none; stroke: purple; stroke-width: 0.500000; fill-type: evenodd"  fill-opacity="1.000000" />
   <path d="M 1004.21  1207.91  1005.15  1209.09  1005.49  1210.56  1005.15  1212.03  1004.21  1213.21  1002.85  1213.87  1001.34  1213.87  999.985  1213.21  999.044  1212.03  998.708  1210.56  999.044  1209.09  999.985  1207.91  1001.34  1207.25  1002.85  1207.25  1004.21  1207.91  " style="fill: none; stroke: purple; stroke-width: 0.500000; fill-type: evenodd"  fill-opacity="1.000000" />
   <path d="M 983.224  1208.61  984.048  1209.43  984.349  1210.56  984.048  1211.68  983.224  1212.51  982.099  1212.81  980.974  1212.51  980.151  1211.68  979.849  1210.56  980.151  1209.43  980.974  1208.61  982.099  1208.31  983.224  1208.61  " style="fill: none; stroke: purple; stroke-width: 0.500000; fill-type: evenodd"  fill-opacity="1.000000" />
   <path d="M 943.099  1208.83  943.831  1209.56  944.099  1210.56  943.831  1211.56  943.099  1212.29  942.099  1212.56  941.099  1212.29  940.367  1211.56  940.099  1210.56  940.367  1209.56  941.099  1208.83  942.099  1208.56  943.099  1208.83  " style="fill: none; stroke: purple; stroke-width: 0.500000; fill-type: evenodd"  fill-opacity="1.000000" />
   <path d="M 963.099  1208.83  963.831  1209.56  964.099  1210.56  963.831  1211.56  963.099  1212.29  962.099  1212.56  961.099  1212.29  960.367  1211.56  960.099  1210.56  960.367  1209.56  961.099  1208.83  962.099  1208.56  963.099  1208.83  " style="fill: none; stroke: purple; stroke-width: 0.500000; fill-type: evenodd"  fill-opacity="1.000000" />
   <path d="M 963.099  1188.83  963.831  1189.56  964.099  1190.56  963.831  1191.56  963.099  1192.29  962.099  1192.56  961.099  1192.29  960.367  1191.56  960.099  1190.56  960.367  1189.56  961.099  1188.83  962.099  1188.56  963.099  1188.83  " style="fill: none; stroke: purple; stroke-width: 0.500000; fill-type: evenodd"  fill-opacity="1.000000" />
</svg>
