<?xml version="1.0" encoding="UTF-8" standalone="yes"?>
<!DOCTYPE svg PUBLIC "-//W3C//DTD SVG 1.0//EN" "http://www.w3.org/TR/2001/REC-SVG-20010904/DTD/svg10.dtd">
<svg height="2000" width="2000" xmlns="http://www.w3.org/2000/svg" xmlns:svg="http://www.w3.org/2000/svg" xmlns:xlink="http://www.w3.org/1999/xlink">
   <marker id="endArrow" markerHeight="8" markerUnits="strokeWidth" markerWidth="10" orient="auto" refX="1" refY="5" viewBox="0 0 1000 1000">
      <polyline fill="darkblue" points="0,0 10,5 0,10 1,5" />
   </marker>
   <circle cx="1000" cy="1000" r="1" style="stroke:black; fill: red" />
   <circle cx="1000" cy="1000" r="800" style="stroke:black; fill: none" />
   <line x1="1069.166260" y1="1051.104004" x2="1069.166260" y2="1051.261230" style="stroke: green; stroke-width: 0.200000"/>
   <line x1="1070.166260" y1="1050.104004" x2="1070.166260" y2="1051.261230" style="stroke: green; stroke-width: 0.200000"/>
   <line x1="1071.166260" y1="1049.104004" x2="1071.166260" y2="1051.261230" style="stroke: green; stroke-width: 0.200000"/>
   <line x1="1072.166260" y1="1048.104004" x2="1072.166260" y2="1051.261230" style="stroke: green; stroke-width: 0.200000"/>
   <line x1="1073.166260" y1="1047.104004" x2="1073.166260" y2="1051.261230" style="stroke: green; stroke-width: 0.200000"/>
   <line x1="1074.166260" y1="1046.104004" x2="1074.166260" y2="1051.261230" style="stroke: green; stroke-width: 0.200000"/>
   <line x1="1075.166260" y1="1045.104004" x2="1075.166260" y2="1051.261230" style="stroke: green; stroke-width: 0.200000"/>
   <line x1="1076.166260" y1="1044.104004" x2="1076.166260" y2="1051.261230" style="stroke: green; stroke-width: 0.200000"/>
   <line x1="1077.166260" y1="1043.104004" x2="1077.166260" y2="1051.261230" style="stroke: green; stroke-width: 0.200000"/>
   <line x1="1078.166260" y1="1042.475708" x2="1078.166260" y2="1051.261230" style="stroke: green; stroke-width: 0.200000"/>
   <line x1="1079.166260" y1="1043.475708" x2="1079.166260" y2="1051.261230" style="stroke: green; stroke-width: 0.200000"/>
   <line x1="1080.166260" y1="1044.475708" x2="1080.166260" y2="1051.261230" style="stroke: green; stroke-width: 0.200000"/>
   <line x1="1081.166260" y1="1045.325439" x2="1081.166260" y2="1051.261230" style="stroke: green; stroke-width: 0.200000"/>
   <line x1="1082.166260" y1="1044.325439" x2="1082.166260" y2="1051.261230" style="stroke: green; stroke-width: 0.200000"/>
   <line x1="1083.166260" y1="1043.325439" x2="1083.166260" y2="1051.261230" style="stroke: green; stroke-width: 0.200000"/>
   <line x1="1084.166260" y1="1042.325439" x2="1084.166260" y2="1051.261230" style="stroke: green; stroke-width: 0.200000"/>
   <line x1="1085.166260" y1="1041.325439" x2="1085.166260" y2="1051.261230" style="stroke: green; stroke-width: 0.200000"/>
   <line x1="1086.166260" y1="1040.325439" x2="1086.166260" y2="1051.261230" style="stroke: green; stroke-width: 0.200000"/>
   <line x1="1087.166260" y1="1039.325439" x2="1087.166260" y2="1051.261230" style="stroke: green; stroke-width: 0.200000"/>
   <line x1="1088.166260" y1="1038.325439" x2="1088.166260" y2="1051.261230" style="stroke: green; stroke-width: 0.200000"/>
   <line x1="1089.166260" y1="1037.325439" x2="1089.166260" y2="1051.261230" style="stroke: green; stroke-width: 0.200000"/>
   <line x1="1090.166260" y1="1036.325439" x2="1090.166260" y2="1051.261230" style="stroke: green; stroke-width: 0.200000"/>
   <line x1="1091.166260" y1="1035.325439" x2="1091.166260" y2="1051.261230" style="stroke: green; stroke-width: 0.200000"/>
   <line x1="1092.166260" y1="1034.325439" x2="1092.166260" y2="1051.261230" style="stroke: green; stroke-width: 0.200000"/>
   <line x1="1093.166260" y1="1033.325439" x2="1093.166260" y2="1051.261230" style="stroke: green; stroke-width: 0.200000"/>
   <line x1="1094.166260" y1="1032.325439" x2="1094.166260" y2="1051.261230" style="stroke: green; stroke-width: 0.200000"/>
   <line x1="1095.166260" y1="1031.325439" x2="1095.166260" y2="1051.261230" style="stroke: green; stroke-width: 0.200000"/>
   <line x1="1096.166260" y1="1030.325439" x2="1096.166260" y2="1051.261230" style="stroke: green; stroke-width: 0.200000"/>
   <line x1="1097.166260" y1="1029.325439" x2="1097.166260" y2="1051.261230" style="stroke: green; stroke-width: 0.200000"/>
   <line x1="1098.166260" y1="1028.325439" x2="1098.166260" y2="1051.261230" style="stroke: green; stroke-width: 0.200000"/>
   <line x1="1099.166260" y1="1027.325439" x2="1099.166260" y2="1051.170044" style="stroke: green; stroke-width: 0.200000"/>
   <line x1="1100.166260" y1="1026.325439" x2="1100.166260" y2="1050.826904" style="stroke: green; stroke-width: 0.200000"/>
   <line x1="1101.166260" y1="1025.325439" x2="1101.166260" y2="1050.449097" style="stroke: green; stroke-width: 0.200000"/>
   <line x1="1102.166260" y1="1024.325439" x2="1102.166260" y2="1050.060913" style="stroke: green; stroke-width: 0.200000"/>
   <line x1="1103.166260" y1="1023.325439" x2="1103.166260" y2="1049.654297" style="stroke: green; stroke-width: 0.200000"/>
   <line x1="1104.166260" y1="1022.325439" x2="1104.166260" y2="1049.133301" style="stroke: green; stroke-width: 0.200000"/>
   <line x1="1105.166260" y1="1021.325439" x2="1105.166260" y2="1048.612427" style="stroke: green; stroke-width: 0.200000"/>
   <line x1="1106.166260" y1="1020.325439" x2="1106.166260" y2="1047.983154" style="stroke: green; stroke-width: 0.200000"/>
   <line x1="1107.166260" y1="1019.325439" x2="1107.166260" y2="1047.306641" style="stroke: green; stroke-width: 0.200000"/>
   <line x1="1108.166260" y1="1018.325439" x2="1108.166260" y2="1046.528198" style="stroke: green; stroke-width: 0.200000"/>
   <line x1="1109.166260" y1="1017.325439" x2="1109.166260" y2="1045.619873" style="stroke: green; stroke-width: 0.200000"/>
   <line x1="1110.166260" y1="1016.325439" x2="1110.166260" y2="1044.761475" style="stroke: green; stroke-width: 0.200000"/>
   <line x1="1111.166260" y1="1015.325439" x2="1111.166260" y2="1043.796143" style="stroke: green; stroke-width: 0.200000"/>
   <line x1="1112.166260" y1="1014.325439" x2="1112.166260" y2="1042.787354" style="stroke: green; stroke-width: 0.200000"/>
   <line x1="1113.166260" y1="1013.325439" x2="1113.166260" y2="1041.724976" style="stroke: green; stroke-width: 0.200000"/>
   <line x1="1114.166260" y1="1012.325439" x2="1114.166260" y2="1040.662354" style="stroke: green; stroke-width: 0.200000"/>
   <line x1="1115.166260" y1="1011.325439" x2="1115.166260" y2="1039.599854" style="stroke: green; stroke-width: 0.200000"/>
   <line x1="1116.166260" y1="1010.325439" x2="1116.166260" y2="1038.537354" style="stroke: green; stroke-width: 0.200000"/>
   <line x1="1117.166260" y1="1009.325439" x2="1117.166260" y2="1037.474854" style="stroke: green; stroke-width: 0.200000"/>
   <line x1="1118.166260" y1="1008.325439" x2="1118.166260" y2="1036.369263" style="stroke: green; stroke-width: 0.200000"/>
   <line x1="1119.166260" y1="1002.363525" x2="1119.166260" y2="1035.243042" style="stroke: green; stroke-width: 0.200000"/>
   <line x1="1120.166260" y1="1003.888489" x2="1120.166260" y2="1034.055298" style="stroke: green; stroke-width: 0.200000"/>
   <line x1="1121.166260" y1="1005.449585" x2="1121.166260" y2="1032.634521" style="stroke: green; stroke-width: 0.200000"/>
   <line x1="1122.166260" y1="1007.326660" x2="1122.166260" y2="1031.184082" style="stroke: green; stroke-width: 0.200000"/>
   <line x1="1123.166260" y1="1009.338501" x2="1123.166260" y2="1029.102051" style="stroke: green; stroke-width: 0.200000"/>
   <line x1="1124.166260" y1="1012.181702" x2="1124.166260" y2="1026.581787" style="stroke: green; stroke-width: 0.200000"/>
   <line x1="1125.166260" y1="1018.539673" x2="1125.166260" y2="1021.621216" style="stroke: green; stroke-width: 0.200000"/>
   <line x1="1118.166260" y1="1001.538452" x2="1118.166260" y2="1006.057251" style="stroke: green; stroke-width: 0.200000"/>
   <line x1="1117.166260" y1="1002.538452" x2="1117.166260" y2="1003.969116" style="stroke: green; stroke-width: 0.200000"/>
   <line x1="1025.166260" y1="1101.325439" x2="1025.166260" y2="1101.361206" style="stroke: green; stroke-width: 0.200000"/>
   <line x1="1026.166260" y1="1100.325439" x2="1026.166260" y2="1101.361206" style="stroke: green; stroke-width: 0.200000"/>
   <line x1="1027.166260" y1="1099.325439" x2="1027.166260" y2="1101.361206" style="stroke: green; stroke-width: 0.200000"/>
   <line x1="1028.166260" y1="1098.325439" x2="1028.166260" y2="1101.361206" style="stroke: green; stroke-width: 0.200000"/>
   <line x1="1029.166260" y1="1097.325439" x2="1029.166260" y2="1101.361206" style="stroke: green; stroke-width: 0.200000"/>
   <line x1="1030.166260" y1="1096.325439" x2="1030.166260" y2="1101.361206" style="stroke: green; stroke-width: 0.200000"/>
   <line x1="1031.166260" y1="1095.325439" x2="1031.166260" y2="1101.361206" style="stroke: green; stroke-width: 0.200000"/>
   <line x1="1032.166260" y1="1094.325439" x2="1032.166260" y2="1101.361206" style="stroke: green; stroke-width: 0.200000"/>
   <line x1="1033.166260" y1="1087.104004" x2="1033.166260" y2="1101.361206" style="stroke: green; stroke-width: 0.200000"/>
   <line x1="1034.166260" y1="1086.104004" x2="1034.166260" y2="1101.361206" style="stroke: green; stroke-width: 0.200000"/>
   <line x1="1035.166260" y1="1085.104004" x2="1035.166260" y2="1101.361206" style="stroke: green; stroke-width: 0.200000"/>
   <line x1="1036.166260" y1="1084.104126" x2="1036.166260" y2="1101.361206" style="stroke: green; stroke-width: 0.200000"/>
   <line x1="1037.166260" y1="1083.104004" x2="1037.166260" y2="1101.361206" style="stroke: green; stroke-width: 0.200000"/>
   <line x1="1038.166260" y1="1082.104004" x2="1038.166260" y2="1101.361206" style="stroke: green; stroke-width: 0.200000"/>
   <line x1="1039.166260" y1="1081.104004" x2="1039.166260" y2="1101.361206" style="stroke: green; stroke-width: 0.200000"/>
   <line x1="1040.166260" y1="1080.104004" x2="1040.166260" y2="1101.361206" style="stroke: green; stroke-width: 0.200000"/>
   <line x1="1041.166260" y1="1079.104126" x2="1041.166260" y2="1101.361206" style="stroke: green; stroke-width: 0.200000"/>
   <line x1="1042.166260" y1="1078.104004" x2="1042.166260" y2="1101.361206" style="stroke: green; stroke-width: 0.200000"/>
   <line x1="1043.166260" y1="1077.104004" x2="1043.166260" y2="1101.361206" style="stroke: green; stroke-width: 0.200000"/>
   <line x1="1044.166260" y1="1076.104004" x2="1044.166260" y2="1101.361206" style="stroke: green; stroke-width: 0.200000"/>
   <line x1="1045.166260" y1="1075.104004" x2="1045.166260" y2="1101.361206" style="stroke: green; stroke-width: 0.200000"/>
   <line x1="1046.166260" y1="1074.104126" x2="1046.166260" y2="1101.361206" style="stroke: green; stroke-width: 0.200000"/>
   <line x1="1047.166260" y1="1073.104004" x2="1047.166260" y2="1100.320190" style="stroke: green; stroke-width: 0.200000"/>
   <line x1="1048.166260" y1="1072.104004" x2="1048.166260" y2="1098.920532" style="stroke: green; stroke-width: 0.200000"/>
   <line x1="1049.166260" y1="1071.104004" x2="1049.166260" y2="1097.267578" style="stroke: green; stroke-width: 0.200000"/>
   <line x1="1050.166260" y1="1070.104004" x2="1050.166260" y2="1095.506226" style="stroke: green; stroke-width: 0.200000"/>
   <line x1="1032.166260" y1="1088.104004" x2="1032.166260" y2="1093.804932" style="stroke: green; stroke-width: 0.200000"/>
   <line x1="1051.166260" y1="1069.104126" x2="1051.166260" y2="1093.587036" style="stroke: green; stroke-width: 0.200000"/>
   <line x1="1031.166260" y1="1089.104126" x2="1031.166260" y2="1092.804932" style="stroke: green; stroke-width: 0.200000"/>
   <line x1="1030.166260" y1="1090.104004" x2="1030.166260" y2="1091.804932" style="stroke: green; stroke-width: 0.200000"/>
   <line x1="1052.166260" y1="1068.104004" x2="1052.166260" y2="1091.509521" style="stroke: green; stroke-width: 0.200000"/>
   <line x1="1053.166260" y1="1067.104004" x2="1053.166260" y2="1089.528320" style="stroke: green; stroke-width: 0.200000"/>
   <line x1="1054.166260" y1="1066.104004" x2="1054.166260" y2="1087.760620" style="stroke: green; stroke-width: 0.200000"/>
   <line x1="1055.166260" y1="1065.104004" x2="1055.166260" y2="1085.965210" style="stroke: green; stroke-width: 0.200000"/>
   <line x1="1056.166260" y1="1064.104004" x2="1056.166260" y2="1084.415405" style="stroke: green; stroke-width: 0.200000"/>
   <line x1="1057.166260" y1="1063.104004" x2="1057.166260" y2="1082.865723" style="stroke: green; stroke-width: 0.200000"/>
   <line x1="1058.166260" y1="1062.104004" x2="1058.166260" y2="1081.385376" style="stroke: green; stroke-width: 0.200000"/>
   <line x1="1059.166260" y1="1061.104004" x2="1059.166260" y2="1080.019043" style="stroke: green; stroke-width: 0.200000"/>
   <line x1="1060.166260" y1="1060.104004" x2="1060.166260" y2="1078.652710" style="stroke: green; stroke-width: 0.200000"/>
   <line x1="1061.166260" y1="1059.104004" x2="1061.166260" y2="1077.357910" style="stroke: green; stroke-width: 0.200000"/>
   <line x1="1062.166260" y1="1058.104004" x2="1062.166260" y2="1076.131226" style="stroke: green; stroke-width: 0.200000"/>
   <line x1="1063.166260" y1="1057.104004" x2="1063.166260" y2="1074.904663" style="stroke: green; stroke-width: 0.200000"/>
   <line x1="1064.166260" y1="1056.104004" x2="1064.166260" y2="1073.746826" style="stroke: green; stroke-width: 0.200000"/>
   <line x1="1065.166260" y1="1055.104004" x2="1065.166260" y2="1072.671631" style="stroke: green; stroke-width: 0.200000"/>
   <line x1="1066.166260" y1="1054.104004" x2="1066.166260" y2="1071.580078" style="stroke: green; stroke-width: 0.200000"/>
   <line x1="1067.166260" y1="1053.104004" x2="1067.166260" y2="1070.481812" style="stroke: green; stroke-width: 0.200000"/>
   <line x1="1068.166260" y1="1052.104004" x2="1068.166260" y2="1069.383545" style="stroke: green; stroke-width: 0.200000"/>
   <line x1="1069.166260" y1="1051.361206" x2="1069.166260" y2="1068.285278" style="stroke: green; stroke-width: 0.200000"/>
   <line x1="1070.166260" y1="1051.361206" x2="1070.166260" y2="1067.187256" style="stroke: green; stroke-width: 0.200000"/>
   <line x1="1071.166260" y1="1051.361206" x2="1071.166260" y2="1066.248413" style="stroke: green; stroke-width: 0.200000"/>
   <line x1="1072.166260" y1="1051.361206" x2="1072.166260" y2="1065.315186" style="stroke: green; stroke-width: 0.200000"/>
   <line x1="1073.166260" y1="1051.361206" x2="1073.166260" y2="1064.382080" style="stroke: green; stroke-width: 0.200000"/>
   <line x1="1074.166260" y1="1051.361206" x2="1074.166260" y2="1063.527588" style="stroke: green; stroke-width: 0.200000"/>
   <line x1="1075.166260" y1="1051.361206" x2="1075.166260" y2="1062.739990" style="stroke: green; stroke-width: 0.200000"/>
   <line x1="1076.166260" y1="1051.361206" x2="1076.166260" y2="1061.952393" style="stroke: green; stroke-width: 0.200000"/>
   <line x1="1077.166260" y1="1051.361206" x2="1077.166260" y2="1061.180298" style="stroke: green; stroke-width: 0.200000"/>
   <line x1="1078.166260" y1="1051.361206" x2="1078.166260" y2="1060.482910" style="stroke: green; stroke-width: 0.200000"/>
   <line x1="1079.166260" y1="1051.361206" x2="1079.166260" y2="1059.845093" style="stroke: green; stroke-width: 0.200000"/>
   <line x1="1080.166260" y1="1051.361206" x2="1080.166260" y2="1059.207153" style="stroke: green; stroke-width: 0.200000"/>
   <line x1="1081.166260" y1="1051.361206" x2="1081.166260" y2="1058.585693" style="stroke: green; stroke-width: 0.200000"/>
   <line x1="1082.166260" y1="1051.361206" x2="1082.166260" y2="1057.993774" style="stroke: green; stroke-width: 0.200000"/>
   <line x1="1083.166260" y1="1051.361206" x2="1083.166260" y2="1057.485596" style="stroke: green; stroke-width: 0.200000"/>
   <line x1="1084.166260" y1="1051.361206" x2="1084.166260" y2="1056.977661" style="stroke: green; stroke-width: 0.200000"/>
   <line x1="1085.166260" y1="1051.361206" x2="1085.166260" y2="1056.479004" style="stroke: green; stroke-width: 0.200000"/>
   <line x1="1086.166260" y1="1051.361206" x2="1086.166260" y2="1055.983887" style="stroke: green; stroke-width: 0.200000"/>
   <line x1="1087.166260" y1="1051.361206" x2="1087.166260" y2="1055.536377" style="stroke: green; stroke-width: 0.200000"/>
   <line x1="1088.166260" y1="1051.361206" x2="1088.166260" y2="1055.125977" style="stroke: green; stroke-width: 0.200000"/>
   <line x1="1089.166260" y1="1051.361206" x2="1089.166260" y2="1054.715698" style="stroke: green; stroke-width: 0.200000"/>
   <line x1="1090.166260" y1="1051.361206" x2="1090.166260" y2="1054.305298" style="stroke: green; stroke-width: 0.200000"/>
   <line x1="1091.166260" y1="1051.361206" x2="1091.166260" y2="1053.895020" style="stroke: green; stroke-width: 0.200000"/>
   <line x1="1092.166260" y1="1051.361206" x2="1092.166260" y2="1053.522217" style="stroke: green; stroke-width: 0.200000"/>
   <line x1="1093.166260" y1="1051.361206" x2="1093.166260" y2="1053.172974" style="stroke: green; stroke-width: 0.200000"/>
   <line x1="1094.166260" y1="1051.361206" x2="1094.166260" y2="1052.823730" style="stroke: green; stroke-width: 0.200000"/>
   <line x1="1095.166260" y1="1051.361206" x2="1095.166260" y2="1052.474487" style="stroke: green; stroke-width: 0.200000"/>
   <line x1="1096.166260" y1="1051.361206" x2="1096.166260" y2="1052.125366" style="stroke: green; stroke-width: 0.200000"/>
   <line x1="1097.166260" y1="1051.361206" x2="1097.166260" y2="1051.799194" style="stroke: green; stroke-width: 0.200000"/>
   <line x1="1098.166260" y1="1051.361206" x2="1098.166260" y2="1051.503296" style="stroke: green; stroke-width: 0.200000"/>
   <line x1="1024.166260" y1="1102.325439" x2="1024.166260" y2="1114.818237" style="stroke: green; stroke-width: 0.200000"/>
   <line x1="1025.166260" y1="1101.461304" x2="1025.166260" y2="1114.789795" style="stroke: green; stroke-width: 0.200000"/>
   <line x1="1023.166260" y1="1103.325439" x2="1023.166260" y2="1114.785400" style="stroke: green; stroke-width: 0.200000"/>
   <line x1="1026.166260" y1="1101.461304" x2="1026.166260" y2="1114.735229" style="stroke: green; stroke-width: 0.200000"/>
   <line x1="1022.166260" y1="1104.325439" x2="1022.166260" y2="1114.734741" style="stroke: green; stroke-width: 0.200000"/>
   <line x1="1027.166260" y1="1101.461304" x2="1027.166260" y2="1114.636963" style="stroke: green; stroke-width: 0.200000"/>
   <line x1="1021.166260" y1="1105.325439" x2="1021.166260" y2="1114.623657" style="stroke: green; stroke-width: 0.200000"/>
   <line x1="1028.166260" y1="1101.461304" x2="1028.166260" y2="1114.492798" style="stroke: green; stroke-width: 0.200000"/>
   <line x1="1020.166260" y1="1106.325439" x2="1020.166260" y2="1114.483887" style="stroke: green; stroke-width: 0.200000"/>
   <line x1="1029.166260" y1="1101.461304" x2="1029.166260" y2="1114.323486" style="stroke: green; stroke-width: 0.200000"/>
   <line x1="1019.166260" y1="1107.325562" x2="1019.166260" y2="1114.300781" style="stroke: green; stroke-width: 0.200000"/>
   <line x1="1030.166260" y1="1101.461304" x2="1030.166260" y2="1114.084473" style="stroke: green; stroke-width: 0.200000"/>
   <line x1="1018.166260" y1="1108.325439" x2="1018.166260" y2="1114.062988" style="stroke: green; stroke-width: 0.200000"/>
   <line x1="1031.166260" y1="1101.461304" x2="1031.166260" y2="1113.818970" style="stroke: green; stroke-width: 0.200000"/>
   <line x1="1017.166260" y1="1109.316406" x2="1017.166260" y2="1113.800049" style="stroke: green; stroke-width: 0.200000"/>
   <line x1="1032.166260" y1="1101.461304" x2="1032.166260" y2="1113.499268" style="stroke: green; stroke-width: 0.200000"/>
   <line x1="1016.166260" y1="1109.175781" x2="1016.166260" y2="1113.461792" style="stroke: green; stroke-width: 0.200000"/>
   <line x1="1033.166260" y1="1101.461304" x2="1033.166260" y2="1113.119385" style="stroke: green; stroke-width: 0.200000"/>
   <line x1="1015.166260" y1="1109.034912" x2="1015.166260" y2="1113.109863" style="stroke: green; stroke-width: 0.200000"/>
   <line x1="1014.166260" y1="1108.894287" x2="1014.166260" y2="1112.729370" style="stroke: green; stroke-width: 0.200000"/>
   <line x1="1034.166260" y1="1101.461304" x2="1034.166260" y2="1112.693970" style="stroke: green; stroke-width: 0.200000"/>
   <line x1="1013.166260" y1="1108.753540" x2="1013.166260" y2="1112.348877" style="stroke: green; stroke-width: 0.200000"/>
   <line x1="1035.166260" y1="1101.461304" x2="1035.166260" y2="1112.178345" style="stroke: green; stroke-width: 0.200000"/>
   <line x1="1012.166260" y1="1108.612793" x2="1012.166260" y2="1111.968384" style="stroke: green; stroke-width: 0.200000"/>
   <line x1="1011.166260" y1="1108.538574" x2="1011.166260" y2="1111.587891" style="stroke: green; stroke-width: 0.200000"/>
   <line x1="1036.166260" y1="1101.461304" x2="1036.166260" y2="1111.580322" style="stroke: green; stroke-width: 0.200000"/>
   <line x1="1010.166260" y1="1109.538452" x2="1010.166260" y2="1111.207397" style="stroke: green; stroke-width: 0.200000"/>
   <line x1="1037.166260" y1="1101.461304" x2="1037.166260" y2="1110.904053" style="stroke: green; stroke-width: 0.200000"/>
   <line x1="1009.166260" y1="1110.538452" x2="1009.166260" y2="1110.826904" style="stroke: green; stroke-width: 0.200000"/>
   <line x1="1038.166260" y1="1101.461304" x2="1038.166260" y2="1110.130493" style="stroke: green; stroke-width: 0.200000"/>
   <line x1="1039.166260" y1="1101.461304" x2="1039.166260" y2="1109.250366" style="stroke: green; stroke-width: 0.200000"/>
   <line x1="1040.166260" y1="1101.461304" x2="1040.166260" y2="1108.261230" style="stroke: green; stroke-width: 0.200000"/>
   <line x1="1041.166260" y1="1101.461304" x2="1041.166260" y2="1107.157227" style="stroke: green; stroke-width: 0.200000"/>
   <line x1="1042.166260" y1="1101.461304" x2="1042.166260" y2="1106.053345" style="stroke: green; stroke-width: 0.200000"/>
   <line x1="1043.166260" y1="1101.461304" x2="1043.166260" y2="1104.949463" style="stroke: green; stroke-width: 0.200000"/>
   <line x1="1044.166260" y1="1101.461304" x2="1044.166260" y2="1103.845581" style="stroke: green; stroke-width: 0.200000"/>
   <line x1="1045.166260" y1="1101.461304" x2="1045.166260" y2="1102.757690" style="stroke: green; stroke-width: 0.200000"/>
   <line x1="1046.166260" y1="1101.461304" x2="1046.166260" y2="1101.659424" style="stroke: green; stroke-width: 0.200000"/>
   <line x1="972.902954" y1="933.890869" x2="972.902954" y2="935.526672" style="stroke: green; stroke-width: 0.200000"/>
   <line x1="973.902954" y1="930.440430" x2="973.902954" y2="935.526672" style="stroke: green; stroke-width: 0.200000"/>
   <line x1="974.902954" y1="926.763794" x2="974.902954" y2="935.526672" style="stroke: green; stroke-width: 0.200000"/>
   <line x1="975.902954" y1="922.379761" x2="975.902954" y2="935.526672" style="stroke: green; stroke-width: 0.200000"/>
   <line x1="976.902954" y1="918.270874" x2="976.902954" y2="935.526672" style="stroke: green; stroke-width: 0.200000"/>
   <line x1="977.902954" y1="915.679382" x2="977.902954" y2="935.526672" style="stroke: green; stroke-width: 0.200000"/>
   <line x1="978.902954" y1="913.831787" x2="978.902954" y2="935.526672" style="stroke: green; stroke-width: 0.200000"/>
   <line x1="979.902954" y1="912.307861" x2="979.902954" y2="935.526672" style="stroke: green; stroke-width: 0.200000"/>
   <line x1="980.902954" y1="911.049255" x2="980.902954" y2="935.526672" style="stroke: green; stroke-width: 0.200000"/>
   <line x1="981.902954" y1="909.925842" x2="981.902954" y2="935.526672" style="stroke: green; stroke-width: 0.200000"/>
   <line x1="982.902954" y1="908.869568" x2="982.902954" y2="935.526672" style="stroke: green; stroke-width: 0.200000"/>
   <line x1="983.902954" y1="907.813171" x2="983.902954" y2="935.526672" style="stroke: green; stroke-width: 0.200000"/>
   <line x1="984.902954" y1="906.756897" x2="984.902954" y2="935.177307" style="stroke: green; stroke-width: 0.200000"/>
   <line x1="985.902954" y1="905.700562" x2="985.902954" y2="934.177185" style="stroke: green; stroke-width: 0.200000"/>
   <line x1="986.902954" y1="904.644226" x2="986.902954" y2="933.177185" style="stroke: green; stroke-width: 0.200000"/>
   <line x1="987.902954" y1="903.672546" x2="987.902954" y2="932.177185" style="stroke: green; stroke-width: 0.200000"/>
   <line x1="988.902954" y1="902.730835" x2="988.902954" y2="931.177246" style="stroke: green; stroke-width: 0.200000"/>
   <line x1="989.902954" y1="901.789062" x2="989.902954" y2="930.177124" style="stroke: green; stroke-width: 0.200000"/>
   <line x1="990.902954" y1="900.847412" x2="990.902954" y2="929.177185" style="stroke: green; stroke-width: 0.200000"/>
   <line x1="991.902954" y1="899.905701" x2="991.902954" y2="928.177185" style="stroke: green; stroke-width: 0.200000"/>
   <line x1="992.902954" y1="898.963989" x2="992.902954" y2="927.177185" style="stroke: green; stroke-width: 0.200000"/>
   <line x1="993.902954" y1="898.040649" x2="993.902954" y2="926.177246" style="stroke: green; stroke-width: 0.200000"/>
   <line x1="994.902954" y1="897.202026" x2="994.902954" y2="925.177124" style="stroke: green; stroke-width: 0.200000"/>
   <line x1="995.902954" y1="896.363464" x2="995.902954" y2="924.177185" style="stroke: green; stroke-width: 0.200000"/>
   <line x1="996.902954" y1="895.524841" x2="996.902954" y2="923.177185" style="stroke: green; stroke-width: 0.200000"/>
   <line x1="997.902954" y1="894.733948" x2="997.902954" y2="922.177185" style="stroke: green; stroke-width: 0.200000"/>
   <line x1="998.902954" y1="893.960815" x2="998.902954" y2="921.177246" style="stroke: green; stroke-width: 0.200000"/>
   <line x1="999.902954" y1="893.187622" x2="999.902954" y2="920.177124" style="stroke: green; stroke-width: 0.200000"/>
   <line x1="1000.902954" y1="892.423767" x2="1000.902954" y2="919.177185" style="stroke: green; stroke-width: 0.200000"/>
   <line x1="1001.902954" y1="891.714783" x2="1001.902954" y2="918.177185" style="stroke: green; stroke-width: 0.200000"/>
   <line x1="1002.902954" y1="891.005798" x2="1002.902954" y2="917.177185" style="stroke: green; stroke-width: 0.200000"/>
   <line x1="1003.902954" y1="890.296692" x2="1003.902954" y2="916.177246" style="stroke: green; stroke-width: 0.200000"/>
   <line x1="1004.902954" y1="889.594727" x2="1004.902954" y2="915.177124" style="stroke: green; stroke-width: 0.200000"/>
   <line x1="1005.902954" y1="888.902832" x2="1005.902954" y2="914.177185" style="stroke: green; stroke-width: 0.200000"/>
   <line x1="1006.902954" y1="888.251465" x2="1006.902954" y2="913.177185" style="stroke: green; stroke-width: 0.200000"/>
   <line x1="1007.902954" y1="887.628418" x2="1007.902954" y2="912.177185" style="stroke: green; stroke-width: 0.200000"/>
   <line x1="1008.902954" y1="887.085327" x2="1008.902954" y2="911.177246" style="stroke: green; stroke-width: 0.200000"/>
   <line x1="1009.902954" y1="886.635498" x2="1009.902954" y2="910.177124" style="stroke: green; stroke-width: 0.200000"/>
   <line x1="1010.902954" y1="886.264404" x2="1010.902954" y2="909.177185" style="stroke: green; stroke-width: 0.200000"/>
   <line x1="1011.902954" y1="885.987549" x2="1011.902954" y2="908.177185" style="stroke: green; stroke-width: 0.200000"/>
   <line x1="1012.902954" y1="885.775696" x2="1012.902954" y2="907.177185" style="stroke: green; stroke-width: 0.200000"/>
   <line x1="1013.902954" y1="885.625122" x2="1013.902954" y2="906.177246" style="stroke: green; stroke-width: 0.200000"/>
   <line x1="1014.902954" y1="885.533508" x2="1014.902954" y2="905.177124" style="stroke: green; stroke-width: 0.200000"/>
   <line x1="1015.902954" y1="885.528442" x2="1015.902954" y2="904.177185" style="stroke: green; stroke-width: 0.200000"/>
   <line x1="1016.902954" y1="885.582031" x2="1016.902954" y2="903.177185" style="stroke: green; stroke-width: 0.200000"/>
   <line x1="1017.902954" y1="885.695496" x2="1017.902954" y2="902.177185" style="stroke: green; stroke-width: 0.200000"/>
   <line x1="1018.902954" y1="885.870972" x2="1018.902954" y2="901.177246" style="stroke: green; stroke-width: 0.200000"/>
   <line x1="1019.902954" y1="886.139465" x2="1019.902954" y2="900.177124" style="stroke: green; stroke-width: 0.200000"/>
   <line x1="1020.902954" y1="886.474731" x2="1020.902954" y2="899.177185" style="stroke: green; stroke-width: 0.200000"/>
   <line x1="1021.902954" y1="886.882446" x2="1021.902954" y2="898.177185" style="stroke: green; stroke-width: 0.200000"/>
   <line x1="1022.902954" y1="887.370361" x2="1022.902954" y2="897.177185" style="stroke: green; stroke-width: 0.200000"/>
   <line x1="1023.902954" y1="887.949341" x2="1023.902954" y2="896.177246" style="stroke: green; stroke-width: 0.200000"/>
   <line x1="1024.902954" y1="888.649292" x2="1024.902954" y2="895.177124" style="stroke: green; stroke-width: 0.200000"/>
   <line x1="1028.902954" y1="892.605347" x2="1028.902954" y2="894.741821" style="stroke: green; stroke-width: 0.200000"/>
   <line x1="1027.902954" y1="891.515198" x2="1027.902954" y2="894.179810" style="stroke: green; stroke-width: 0.200000"/>
   <line x1="1025.902954" y1="889.472107" x2="1025.902954" y2="894.177185" style="stroke: green; stroke-width: 0.200000"/>
   <line x1="1029.902954" y1="893.695435" x2="1029.902954" y2="893.741821" style="stroke: green; stroke-width: 0.200000"/>
   <line x1="1026.902954" y1="890.437561" x2="1026.902954" y2="893.182251" style="stroke: green; stroke-width: 0.200000"/>
   <line x1="918.902954" y1="985.416138" x2="918.902954" y2="985.626709" style="stroke: green; stroke-width: 0.200000"/>
   <line x1="919.902954" y1="985.164673" x2="919.902954" y2="985.626709" style="stroke: green; stroke-width: 0.200000"/>
   <line x1="920.902954" y1="984.913086" x2="920.902954" y2="985.626709" style="stroke: green; stroke-width: 0.200000"/>
   <line x1="921.902954" y1="984.622131" x2="921.902954" y2="985.626709" style="stroke: green; stroke-width: 0.200000"/>
   <line x1="922.902954" y1="984.297180" x2="922.902954" y2="985.626709" style="stroke: green; stroke-width: 0.200000"/>
   <line x1="923.902954" y1="983.870972" x2="923.902954" y2="985.626709" style="stroke: green; stroke-width: 0.200000"/>
   <line x1="924.902954" y1="983.223633" x2="924.902954" y2="985.626709" style="stroke: green; stroke-width: 0.200000"/>
   <line x1="925.902954" y1="982.301575" x2="925.902954" y2="985.626709" style="stroke: green; stroke-width: 0.200000"/>
   <line x1="926.902954" y1="981.264587" x2="926.902954" y2="985.626709" style="stroke: green; stroke-width: 0.200000"/>
   <line x1="927.902954" y1="980.288574" x2="927.902954" y2="985.626709" style="stroke: green; stroke-width: 0.200000"/>
   <line x1="928.902954" y1="979.451355" x2="928.902954" y2="985.626709" style="stroke: green; stroke-width: 0.200000"/>
   <line x1="929.902954" y1="978.614197" x2="929.902954" y2="985.626709" style="stroke: green; stroke-width: 0.200000"/>
   <line x1="930.902954" y1="977.830261" x2="930.902954" y2="985.626709" style="stroke: green; stroke-width: 0.200000"/>
   <line x1="931.902954" y1="977.153625" x2="931.902954" y2="985.626709" style="stroke: green; stroke-width: 0.200000"/>
   <line x1="932.902954" y1="976.476990" x2="932.902954" y2="985.626709" style="stroke: green; stroke-width: 0.200000"/>
   <line x1="933.902954" y1="975.805298" x2="933.902954" y2="985.626709" style="stroke: green; stroke-width: 0.200000"/>
   <line x1="934.902954" y1="975.210510" x2="934.902954" y2="985.626709" style="stroke: green; stroke-width: 0.200000"/>
   <line x1="935.902954" y1="974.615723" x2="935.902954" y2="985.626709" style="stroke: green; stroke-width: 0.200000"/>
   <line x1="936.902954" y1="974.020935" x2="936.902954" y2="985.626709" style="stroke: green; stroke-width: 0.200000"/>
   <line x1="937.902954" y1="973.426147" x2="937.902954" y2="985.626709" style="stroke: green; stroke-width: 0.200000"/>
   <line x1="938.902954" y1="972.831116" x2="938.902954" y2="985.626709" style="stroke: green; stroke-width: 0.200000"/>
   <line x1="939.902954" y1="972.225281" x2="939.902954" y2="985.626709" style="stroke: green; stroke-width: 0.200000"/>
   <line x1="940.902954" y1="971.614380" x2="940.902954" y2="985.626709" style="stroke: green; stroke-width: 0.200000"/>
   <line x1="941.902954" y1="970.921387" x2="941.902954" y2="985.626709" style="stroke: green; stroke-width: 0.200000"/>
   <line x1="942.902954" y1="970.228516" x2="942.902954" y2="985.626709" style="stroke: green; stroke-width: 0.200000"/>
   <line x1="943.902954" y1="969.535522" x2="943.902954" y2="985.626709" style="stroke: green; stroke-width: 0.200000"/>
   <line x1="944.902954" y1="968.759033" x2="944.902954" y2="985.626709" style="stroke: green; stroke-width: 0.200000"/>
   <line x1="945.902954" y1="967.946533" x2="945.902954" y2="985.626709" style="stroke: green; stroke-width: 0.200000"/>
   <line x1="946.902954" y1="967.134033" x2="946.902954" y2="985.626709" style="stroke: green; stroke-width: 0.200000"/>
   <line x1="947.902954" y1="966.264160" x2="947.902954" y2="985.626709" style="stroke: green; stroke-width: 0.200000"/>
   <line x1="948.902954" y1="965.347656" x2="948.902954" y2="985.262146" style="stroke: green; stroke-width: 0.200000"/>
   <line x1="949.902954" y1="964.431213" x2="949.902954" y2="984.255981" style="stroke: green; stroke-width: 0.200000"/>
   <line x1="950.902954" y1="963.455078" x2="950.902954" y2="983.249573" style="stroke: green; stroke-width: 0.200000"/>
   <line x1="951.902954" y1="962.435608" x2="951.902954" y2="982.243286" style="stroke: green; stroke-width: 0.200000"/>
   <line x1="952.902954" y1="961.416260" x2="952.902954" y2="981.236938" style="stroke: green; stroke-width: 0.200000"/>
   <line x1="953.902954" y1="960.303650" x2="953.902954" y2="980.230469" style="stroke: green; stroke-width: 0.200000"/>
   <line x1="954.902954" y1="959.161316" x2="954.902954" y2="979.224182" style="stroke: green; stroke-width: 0.200000"/>
   <line x1="955.902954" y1="958.004700" x2="955.902954" y2="978.234985" style="stroke: green; stroke-width: 0.200000"/>
   <line x1="956.902954" y1="956.704346" x2="956.902954" y2="977.247253" style="stroke: green; stroke-width: 0.200000"/>
   <line x1="957.902954" y1="955.403992" x2="957.902954" y2="976.259460" style="stroke: green; stroke-width: 0.200000"/>
   <line x1="958.902954" y1="953.988037" x2="958.902954" y2="975.271667" style="stroke: green; stroke-width: 0.200000"/>
   <line x1="959.902954" y1="952.495056" x2="959.902954" y2="974.283936" style="stroke: green; stroke-width: 0.200000"/>
   <line x1="960.902954" y1="951.002075" x2="960.902954" y2="973.296143" style="stroke: green; stroke-width: 0.200000"/>
   <line x1="961.902954" y1="949.474426" x2="961.902954" y2="972.293335" style="stroke: green; stroke-width: 0.200000"/>
   <line x1="962.902954" y1="947.918152" x2="962.902954" y2="971.289185" style="stroke: green; stroke-width: 0.200000"/>
   <line x1="963.902954" y1="946.468445" x2="963.902954" y2="970.285278" style="stroke: green; stroke-width: 0.200000"/>
   <line x1="964.902954" y1="945.018677" x2="964.902954" y2="969.281372" style="stroke: green; stroke-width: 0.200000"/>
   <line x1="965.902954" y1="943.734619" x2="965.902954" y2="968.277588" style="stroke: green; stroke-width: 0.200000"/>
   <line x1="966.902954" y1="942.584595" x2="966.902954" y2="967.273621" style="stroke: green; stroke-width: 0.200000"/>
   <line x1="967.902954" y1="941.545471" x2="967.902954" y2="966.269897" style="stroke: green; stroke-width: 0.200000"/>
   <line x1="968.902954" y1="940.613403" x2="968.902954" y2="965.265991" style="stroke: green; stroke-width: 0.200000"/>
   <line x1="969.902954" y1="939.772583" x2="969.902954" y2="964.261963" style="stroke: green; stroke-width: 0.200000"/>
   <line x1="970.902954" y1="938.805542" x2="970.902954" y2="963.257996" style="stroke: green; stroke-width: 0.200000"/>
   <line x1="971.902954" y1="936.862122" x2="971.902954" y2="962.254333" style="stroke: green; stroke-width: 0.200000"/>
   <line x1="972.902954" y1="935.626709" x2="972.902954" y2="961.250488" style="stroke: green; stroke-width: 0.200000"/>
   <line x1="973.902954" y1="935.626709" x2="973.902954" y2="960.246521" style="stroke: green; stroke-width: 0.200000"/>
   <line x1="974.902954" y1="935.626709" x2="974.902954" y2="959.242615" style="stroke: green; stroke-width: 0.200000"/>
   <line x1="975.902954" y1="935.626709" x2="975.902954" y2="958.238647" style="stroke: green; stroke-width: 0.200000"/>
   <line x1="976.902954" y1="935.626709" x2="976.902954" y2="957.234802" style="stroke: green; stroke-width: 0.200000"/>
   <line x1="977.902954" y1="942.212280" x2="977.902954" y2="956.230835" style="stroke: green; stroke-width: 0.200000"/>
   <line x1="978.902954" y1="944.945923" x2="978.902954" y2="955.236572" style="stroke: green; stroke-width: 0.200000"/>
   <line x1="979.902954" y1="946.025635" x2="979.902954" y2="954.245361" style="stroke: green; stroke-width: 0.200000"/>
   <line x1="980.902954" y1="947.105591" x2="980.902954" y2="953.254395" style="stroke: green; stroke-width: 0.200000"/>
   <line x1="981.902954" y1="948.185425" x2="981.902954" y2="952.263428" style="stroke: green; stroke-width: 0.200000"/>
   <line x1="982.902954" y1="949.265259" x2="982.902954" y2="951.272095" style="stroke: green; stroke-width: 0.200000"/>
   <line x1="978.902954" y1="943.212280" x2="978.902954" y2="944.742065" style="stroke: green; stroke-width: 0.200000"/>
   <line x1="977.902954" y1="935.626709" x2="977.902954" y2="942.177429" style="stroke: green; stroke-width: 0.200000"/>
   <line x1="978.902954" y1="935.626709" x2="978.902954" y2="941.177429" style="stroke: green; stroke-width: 0.200000"/>
   <line x1="979.902954" y1="935.626709" x2="979.902954" y2="940.177490" style="stroke: green; stroke-width: 0.200000"/>
   <line x1="980.902954" y1="935.626709" x2="980.902954" y2="939.177307" style="stroke: green; stroke-width: 0.200000"/>
   <line x1="981.902954" y1="935.626709" x2="981.902954" y2="938.177246" style="stroke: green; stroke-width: 0.200000"/>
   <line x1="982.902954" y1="935.626709" x2="982.902954" y2="937.177246" style="stroke: green; stroke-width: 0.200000"/>
   <line x1="983.902954" y1="935.626709" x2="983.902954" y2="936.177307" style="stroke: green; stroke-width: 0.200000"/>
   <line x1="876.902954" y1="1018.510986" x2="876.902954" y2="1035.726685" style="stroke: green; stroke-width: 0.200000"/>
   <line x1="877.902954" y1="1016.797546" x2="877.902954" y2="1035.726685" style="stroke: green; stroke-width: 0.200000"/>
   <line x1="878.902954" y1="1015.084167" x2="878.902954" y2="1035.726685" style="stroke: green; stroke-width: 0.200000"/>
   <line x1="879.902954" y1="1013.570679" x2="879.902954" y2="1035.726685" style="stroke: green; stroke-width: 0.200000"/>
   <line x1="880.902954" y1="1012.126526" x2="880.902954" y2="1035.726685" style="stroke: green; stroke-width: 0.200000"/>
   <line x1="881.902954" y1="1010.682373" x2="881.902954" y2="1035.726685" style="stroke: green; stroke-width: 0.200000"/>
   <line x1="882.902954" y1="1009.398560" x2="882.902954" y2="1035.726685" style="stroke: green; stroke-width: 0.200000"/>
   <line x1="883.902954" y1="1008.145813" x2="883.902954" y2="1035.726685" style="stroke: green; stroke-width: 0.200000"/>
   <line x1="875.902954" y1="1020.439331" x2="875.902954" y2="1035.385864" style="stroke: green; stroke-width: 0.200000"/>
   <line x1="884.902954" y1="1006.893188" x2="884.902954" y2="1035.177124" style="stroke: green; stroke-width: 0.200000"/>
   <line x1="885.902954" y1="1005.731689" x2="885.902954" y2="1034.177124" style="stroke: green; stroke-width: 0.200000"/>
   <line x1="874.902954" y1="1022.485352" x2="874.902954" y2="1033.896118" style="stroke: green; stroke-width: 0.200000"/>
   <line x1="886.902954" y1="1004.613647" x2="886.902954" y2="1033.177124" style="stroke: green; stroke-width: 0.200000"/>
   <line x1="887.902954" y1="1003.495605" x2="887.902954" y2="1032.177124" style="stroke: green; stroke-width: 0.200000"/>
   <line x1="873.902954" y1="1024.903076" x2="873.902954" y2="1031.520020" style="stroke: green; stroke-width: 0.200000"/>
   <line x1="888.902954" y1="1002.406250" x2="888.902954" y2="1031.177124" style="stroke: green; stroke-width: 0.200000"/>
   <line x1="889.902954" y1="1001.381775" x2="889.902954" y2="1030.177124" style="stroke: green; stroke-width: 0.200000"/>
   <line x1="890.902954" y1="1000.357300" x2="890.902954" y2="1029.177124" style="stroke: green; stroke-width: 0.200000"/>
   <line x1="891.902954" y1="999.332764" x2="891.902954" y2="1028.177124" style="stroke: green; stroke-width: 0.200000"/>
   <line x1="892.902954" y1="998.372192" x2="892.902954" y2="1027.177124" style="stroke: green; stroke-width: 0.200000"/>
   <line x1="893.902954" y1="997.430298" x2="893.902954" y2="1026.177124" style="stroke: green; stroke-width: 0.200000"/>
   <line x1="894.902954" y1="996.488281" x2="894.902954" y2="1025.177124" style="stroke: green; stroke-width: 0.200000"/>
   <line x1="895.902954" y1="995.546204" x2="895.902954" y2="1024.177124" style="stroke: green; stroke-width: 0.200000"/>
   <line x1="896.902954" y1="994.604187" x2="896.902954" y2="1023.177124" style="stroke: green; stroke-width: 0.200000"/>
   <line x1="897.902954" y1="993.662170" x2="897.902954" y2="1022.177124" style="stroke: green; stroke-width: 0.200000"/>
   <line x1="898.902954" y1="992.720215" x2="898.902954" y2="1021.177124" style="stroke: green; stroke-width: 0.200000"/>
   <line x1="899.902954" y1="991.934143" x2="899.902954" y2="1020.177124" style="stroke: green; stroke-width: 0.200000"/>
   <line x1="900.902954" y1="991.127258" x2="900.902954" y2="1019.177185" style="stroke: green; stroke-width: 0.200000"/>
   <line x1="901.902954" y1="990.467041" x2="901.902954" y2="1018.177185" style="stroke: green; stroke-width: 0.200000"/>
   <line x1="902.902954" y1="989.877258" x2="902.902954" y2="1017.177124" style="stroke: green; stroke-width: 0.200000"/>
   <line x1="903.902954" y1="989.345642" x2="903.902954" y2="1016.177124" style="stroke: green; stroke-width: 0.200000"/>
   <line x1="904.902954" y1="988.925110" x2="904.902954" y2="1015.177124" style="stroke: green; stroke-width: 0.200000"/>
   <line x1="905.902954" y1="988.504578" x2="905.902954" y2="1014.177185" style="stroke: green; stroke-width: 0.200000"/>
   <line x1="906.902954" y1="988.210449" x2="906.902954" y2="1013.177185" style="stroke: green; stroke-width: 0.200000"/>
   <line x1="907.902954" y1="987.928223" x2="907.902954" y2="1012.177124" style="stroke: green; stroke-width: 0.200000"/>
   <line x1="908.902954" y1="987.671448" x2="908.902954" y2="1011.177124" style="stroke: green; stroke-width: 0.200000"/>
   <line x1="909.902954" y1="987.463074" x2="909.902954" y2="1010.177124" style="stroke: green; stroke-width: 0.200000"/>
   <line x1="910.902954" y1="987.254700" x2="910.902954" y2="1009.177185" style="stroke: green; stroke-width: 0.200000"/>
   <line x1="911.902954" y1="987.046387" x2="911.902954" y2="1008.177185" style="stroke: green; stroke-width: 0.200000"/>
   <line x1="912.902954" y1="986.838013" x2="912.902954" y2="1007.177124" style="stroke: green; stroke-width: 0.200000"/>
   <line x1="913.902954" y1="986.629639" x2="913.902954" y2="1006.177124" style="stroke: green; stroke-width: 0.200000"/>
   <line x1="914.902954" y1="986.421387" x2="914.902954" y2="1005.177124" style="stroke: green; stroke-width: 0.200000"/>
   <line x1="915.902954" y1="986.170776" x2="915.902954" y2="1004.177185" style="stroke: green; stroke-width: 0.200000"/>
   <line x1="916.902954" y1="985.919250" x2="916.902954" y2="1003.177185" style="stroke: green; stroke-width: 0.200000"/>
   <line x1="917.902954" y1="985.726685" x2="917.902954" y2="1002.177124" style="stroke: green; stroke-width: 0.200000"/>
   <line x1="918.902954" y1="985.726685" x2="918.902954" y2="1001.177124" style="stroke: green; stroke-width: 0.200000"/>
   <line x1="919.902954" y1="985.726685" x2="919.902954" y2="1000.177124" style="stroke: green; stroke-width: 0.200000"/>
   <line x1="920.902954" y1="985.726685" x2="920.902954" y2="999.177307" style="stroke: green; stroke-width: 0.200000"/>
   <line x1="921.902954" y1="985.726685" x2="921.902954" y2="998.177368" style="stroke: green; stroke-width: 0.200000"/>
   <line x1="922.902954" y1="985.726685" x2="922.902954" y2="997.177429" style="stroke: green; stroke-width: 0.200000"/>
   <line x1="923.902954" y1="985.726685" x2="923.902954" y2="996.177429" style="stroke: green; stroke-width: 0.200000"/>
   <line x1="937.902954" y1="985.726685" x2="937.902954" y2="995.600342" style="stroke: green; stroke-width: 0.200000"/>
   <line x1="938.902954" y1="985.726685" x2="938.902954" y2="995.250244" style="stroke: green; stroke-width: 0.200000"/>
   <line x1="924.902954" y1="985.726685" x2="924.902954" y2="995.177490" style="stroke: green; stroke-width: 0.200000"/>
   <line x1="936.902954" y1="985.726685" x2="936.902954" y2="995.039001" style="stroke: green; stroke-width: 0.200000"/>
   <line x1="939.902954" y1="985.726685" x2="939.902954" y2="994.318909" style="stroke: green; stroke-width: 0.200000"/>
   <line x1="925.902954" y1="985.726685" x2="925.902954" y2="994.177490" style="stroke: green; stroke-width: 0.200000"/>
   <line x1="935.902954" y1="985.726685" x2="935.902954" y2="994.113037" style="stroke: green; stroke-width: 0.200000"/>
   <line x1="940.902954" y1="985.726685" x2="940.902954" y2="993.312622" style="stroke: green; stroke-width: 0.200000"/>
   <line x1="934.902954" y1="985.726685" x2="934.902954" y2="993.187256" style="stroke: green; stroke-width: 0.200000"/>
   <line x1="926.902954" y1="985.726685" x2="926.902954" y2="993.177429" style="stroke: green; stroke-width: 0.200000"/>
   <line x1="930.902954" y1="985.726685" x2="930.902954" y2="992.541565" style="stroke: green; stroke-width: 0.200000"/>
   <line x1="941.902954" y1="985.726685" x2="941.902954" y2="992.306274" style="stroke: green; stroke-width: 0.200000"/>
   <line x1="933.902954" y1="985.726685" x2="933.902954" y2="992.261292" style="stroke: green; stroke-width: 0.200000"/>
   <line x1="927.902954" y1="985.726685" x2="927.902954" y2="992.177429" style="stroke: green; stroke-width: 0.200000"/>
   <line x1="931.902954" y1="985.726685" x2="931.902954" y2="991.742249" style="stroke: green; stroke-width: 0.200000"/>
   <line x1="929.902954" y1="985.726685" x2="929.902954" y2="991.541626" style="stroke: green; stroke-width: 0.200000"/>
   <line x1="932.902954" y1="985.726685" x2="932.902954" y2="991.335205" style="stroke: green; stroke-width: 0.200000"/>
   <line x1="942.902954" y1="985.726685" x2="942.902954" y2="991.299805" style="stroke: green; stroke-width: 0.200000"/>
   <line x1="928.902954" y1="985.726685" x2="928.902954" y2="991.177612" style="stroke: green; stroke-width: 0.200000"/>
   <line x1="943.902954" y1="985.726685" x2="943.902954" y2="990.293457" style="stroke: green; stroke-width: 0.200000"/>
   <line x1="944.902954" y1="985.726685" x2="944.902954" y2="989.287109" style="stroke: green; stroke-width: 0.200000"/>
   <line x1="945.902954" y1="985.726685" x2="945.902954" y2="988.280945" style="stroke: green; stroke-width: 0.200000"/>
   <line x1="946.902954" y1="985.726685" x2="946.902954" y2="987.274658" style="stroke: green; stroke-width: 0.200000"/>
   <line x1="947.902954" y1="985.726685" x2="947.902954" y2="986.268616" style="stroke: green; stroke-width: 0.200000"/>
   <line x1="881.902954" y1="1039.848145" x2="881.902954" y2="1041.701782" style="stroke: green; stroke-width: 0.200000"/>
   <line x1="880.902954" y1="1035.826660" x2="880.902954" y2="1040.658447" style="stroke: green; stroke-width: 0.200000"/>
   <line x1="879.902954" y1="1035.826660" x2="879.902954" y2="1039.615234" style="stroke: green; stroke-width: 0.200000"/>
   <line x1="878.902954" y1="1035.826660" x2="878.902954" y2="1038.589600" style="stroke: green; stroke-width: 0.200000"/>
   <line x1="881.902954" y1="1035.826660" x2="881.902954" y2="1038.177124" style="stroke: green; stroke-width: 0.200000"/>
   <line x1="877.902954" y1="1035.826660" x2="877.902954" y2="1037.566895" style="stroke: green; stroke-width: 0.200000"/>
   <line x1="882.902954" y1="1035.826660" x2="882.902954" y2="1037.177124" style="stroke: green; stroke-width: 0.200000"/>
   <line x1="876.902954" y1="1035.826660" x2="876.902954" y2="1036.544189" style="stroke: green; stroke-width: 0.200000"/>
   <line x1="883.902954" y1="1035.826660" x2="883.902954" y2="1036.177124" style="stroke: green; stroke-width: 0.200000"/>
   <line x1="983.107666" y1="949.513000" x2="983.107666" y2="949.535828" style="stroke: green; stroke-width: 0.200000"/>
   <path d="M 1058.34  1083.81  1056.41  1086.8  1056.09  1087.4  1054.03  1091.05  1053.7  1091.77  1052.14  1095.03  1050.85  1097.38  1049.38  1099.81  1047.72  1102.12  1047.14  1102.84  1045.8  1104.27  1041.08  1109.49  1040.74  1109.84  1040.02  1110.51  1038.82  1111.55  1037.51  1112.51  1036.1  1113.38  1034.61  1114.15  1032.98  1114.81  1031.27  1115.36  1029.52  1115.79  1027.72  1116.09  1025.89  1116.27  1024.04  1116.32  1022.19  1116.25  1020.35  1116.04  1018.53  1115.71  1016.7  1115.23  1014.94  1114.63  1006.26  1111.33  1010.69  1106.89  1016.64  1107.73  1030.31  1094.07  1027.19  1090.95  1077.98  1040.17  1081.09  1043.28  1117.09  1007.28  1115.38  1003.68  1114.88  1002.71  1118.68  998.903  1119.35  999.916  1121.8  1003.65  1122.34  1004.49  1122.91  1005.45  1123.18  1006.02  1124.35  1008.27  1124.82  1009.43  1125.47  1011.32  1125.78  1012.31  1125.97  1013.13  1126.49  1015.93  1126.58  1016.48  1126.61  1016.93  1126.74  1020.68  1126.66  1021.74  1126.55  1022.81  1126.22  1024.69  1125.73  1026.59  1125.48  1027.42  1125.11  1028.53  1123.42  1032.04  1121.22  1035.16  1120.64  1035.85  1119.56  1037.04  1118.91  1037.81  1113.01  1044.08  1111.59  1045.49  1110.83  1046.19  1110.37  1046.55  1108.66  1048.11  1106.24  1049.74  1103.65  1051.1  1100.91  1052.16  1098.83  1052.87  1097.19  1053.36  1092.09  1055.14  1087.22  1057.13  1085.12  1058.18  1082.69  1059.41  1081.26  1060.29  1078.53  1062.03  1077.62  1062.71  1074.75  1064.98  1074.21  1065.46  1071.27  1068.21  1069.48  1070.17  " style="fill: none; stroke: darkmagenta; stroke-width: 0.200000; fill-type: evenodd"  fill-opacity="1.000000" />
   <path d="M 1069.48  1070.17  1066.56  1073.37  1064.84  1075.22  1061.84  1078.9  1059.02  1082.75  1058.34  1083.81  " style="fill: none; stroke: red; stroke-width: 0.200000; fill-type: evenodd"  fill-opacity="1.000000" />
   <path d="M 1120.96  1004.19  1121.49  1005.02  1122.02  1005.91  1122.28  1006.46  1123.44  1008.69  1123.88  1009.78  1124.52  1011.63  1124.81  1012.57  1124.99  1013.33  1125.51  1016.1  1125.58  1016.6  1125.61  1016.99  1125.74  1020.66  1125.67  1021.66  1125.56  1022.68  1125.24  1024.47  1124.76  1026.32  1124.53  1027.12  1124.18  1028.15  1122.55  1031.53  1120.43  1034.55  1119.88  1035.19  1118.81  1036.39  1118.16  1037.15  1112.29  1043.39  1110.9  1044.77  1110.18  1045.43  1109.72  1045.79  1108.04  1047.32  1105.73  1048.88  1103.23  1050.18  1100.57  1051.22  1098.53  1051.92  1096.89  1052.4  1091.73  1054.2  1086.81  1056.22  1084.67  1057.28  1082.2  1058.54  1080.73  1059.44  1077.96  1061.2  1077.01  1061.92  1074.1  1064.21  1073.54  1064.72  1070.56  1067.5  1065.83  1072.7  1064.09  1074.56  1061.05  1078.29  1058.2  1082.19  1055.55  1086.29  1055.22  1086.92  1053.14  1090.59  1052.8  1091.35  1051.25  1094.57  1049.98  1096.88  1048.54  1099.26  1046.92  1101.51  1046.39  1102.18  1045.07  1103.6  1040.35  1108.8  1040.04  1109.12  1039.35  1109.76  1038.2  1110.77  1036.95  1111.68  1035.61  1112.51  1034.2  1113.24  1032.64  1113.87  1031  1114.4  1029.31  1114.81  1027.58  1115.1  1025.82  1115.27  1024.05  1115.32  1022.27  1115.25  1020.49  1115.05  1018.74  1114.73  1016.99  1114.27  1015.28  1113.69  1008.06  1110.94  1011.05  1107.95  1017  1108.79  1031.72  1094.07  1028.61  1090.95  1077.98  1041.58  1081.09  1044.69  1118.3  1007.49  1116.27  1003.24  1116.1  1002.9  1118.52  1000.47  1120.96  1004.19  " style="fill: none; stroke: black; stroke-width: 0.200000; fill-type: evenodd"  fill-opacity="1.000000" />
   <path d="M 1017.76  884.148  1019.23  884.405  1020.66  884.79  1022.06  885.3  1023.41  885.93  1024.7  886.677  1025.92  887.533  1027.07  888.492  1028.11  889.519  1032  893.764  1028.69  897.08  1026.9  895.3  980.006  942.195  981.789  943.977  980.886  944.88  984.163  948.419  984.451  948.806  984.574  949.028  984.679  949.268  984.76  949.518  984.818  949.774  984.85  950.035  984.858  950.297  984.84  950.559  984.798  950.818  984.731  951.072  984.64  951.318  984.529  951.549  984.285  951.928  984.236  952.063  979.217  957.037  962.036  974.285  956.033  980.215  940.063  996.286  940.021  996.378  939.704  996.518  939.312  996.775  939.082  996.886  938.836  996.978  938.581  997.045  938.322  997.088  938.06  997.106  937.797  997.099  937.536  997.067  937.279  997.009  937.029  996.928  936.787  996.823  936.557  996.695  936.343  996.547  936.185  996.418  932.635  993.131  931.003  994.763  929.221  992.98  883.189  1039.01  884.971  1040.8  881.9  1043.87  878.681  1040.51  875.582  1037.34  874.334  1035.85  873.333  1034.2  872.586  1032.42  872.109  1030.56  871.912  1028.64  871.973  1027.24  871.998  1026.72  872.347  1024.81  872.859  1023.33  872.986  1022.99  875.226  1018.41  877.894  1013.84  880.862  1009.55  884.08  1005.52  887.501  1001.7  891.076  998.033  898.152  991.367  898.886  990.828  900.37  989.63  902.883  988.148  905.572  987.017  907.213  986.573  907.866  986.368  908.368  986.251  914.592  984.954  920.917  983.363  922.318  982.914  922.946  982.684  923.518  982.373  924.035  982.001  924.573  981.52  926.573  979.446  929.667  976.856  933.038  974.575  938.109  971.558  940.029  970.395  943.303  968.127  946.371  965.634  949.28  962.968  952.045  960.149  954.652  957.17  957.084  954.009  960.179  949.388  961.562  947.221  963.88  943.86  965.156  942.269  966.527  940.777  968.012  939.393  968.326  939.154  968.924  938.647  969.077  938.49  969.219  938.42  969.666  937.957  970.042  937.438  970.325  936.897  970.44  936.507  971.515  933.314  971.897  932.097  973.426  926.488  973.743  925.221  974.792  920.45  974.91  919.837  975.681  917.067  976.818  914.401  978.3  911.915  980.101  909.648  986.105  903.306  992.728  897.069  996.232  894.13  999.865  891.321  1003.63  888.652  1005.18  887.577  1006.61  886.656  1007.57  886.077  1007.75  885.97  1009.08  885.34  1010.47  884.826  1011.89  884.435  1013.34  884.171  1014.81  884.034  1016.29  884.026  1017.76  884.148  " style="fill: none; stroke: darkmagenta; stroke-width: 0.200000; fill-type: evenodd"  fill-opacity="1.000000" />
   <path d="M 1017.63  885.141  1019.01  885.382  1020.36  885.744  1021.68  886.224  1022.95  886.818  1024.16  887.521  1025.32  888.328  1026.4  889.232  1027.39  890.212  1030.62  893.734  1028.69  895.666  1026.9  893.886  978.592  942.195  980.375  943.977  979.498  944.853  983.393  949.059  983.609  949.349  983.677  949.471  983.743  949.624  983.795  949.783  983.831  949.946  983.852  950.111  983.857  950.278  983.846  950.445  983.819  950.609  983.776  950.771  983.719  950.927  983.655  951.059  983.349  951.533  978.51  956.329  961.331  973.576  955.327  979.507  939.356  995.579  939.225  995.637  938.818  995.903  938.689  995.966  938.532  996.024  938.371  996.067  938.206  996.094  938.039  996.105  937.872  996.101  937.706  996.08  937.543  996.044  937.384  995.992  937.231  995.925  937.085  995.844  936.944  995.747  936.842  995.664  932.608  991.743  931.003  993.349  929.221  991.566  881.774  1039.01  883.557  1040.79  881.915  1042.44  879.399  1039.81  876.324  1036.67  875.149  1035.26  874.226  1033.75  873.536  1032.1  873.096  1030.38  872.914  1028.61  872.971  1027.28  872.994  1026.84  873.317  1025.06  873.8  1023.67  873.906  1023.39  876.108  1018.88  878.738  1014.37  881.664  1010.15  884.844  1006.17  888.232  1002.38  891.777  998.746  898.794  992.136  899.496  991.62  900.941  990.454  903.333  989.043  905.898  987.964  907.494  987.533  908.129  987.333  908.584  987.227  914.816  985.929  921.192  984.325  922.643  983.86  923.359  983.598  924.051  983.221  924.662  982.781  925.267  982.241  927.256  980.178  930.27  977.655  933.574  975.419  938.624  972.416  940.573  971.235  943.904  968.927  947.025  966.391  949.975  963.687  952.778  960.829  955.426  957.805  957.897  954.592  961.016  949.935  962.395  947.774  964.683  944.457  965.915  942.921  967.237  941.482  968.658  940.158  968.953  939.933  969.607  939.379  969.674  939.311  969.817  939.24  970.435  938.601  970.894  937.966  971.257  937.274  971.394  936.808  972.466  933.623  972.857  932.378  974.394  926.741  974.716  925.449  975.771  920.652  975.885  920.066  976.627  917.398  977.711  914.855  979.124  912.484  980.857  910.304  986.811  904.014  993.392  897.816  996.859  894.909  1000.46  892.125  1004.2  889.471  1005.74  888.408  1007.14  887.503  1008.07  886.94  1008.21  886.859  1009.47  886.262  1010.77  885.779  1012.11  885.411  1013.48  885.162  1014.86  885.034  1016.25  885.027  1017.63  885.141  " style="fill: none; stroke: black; stroke-width: 0.200000; fill-type: evenodd"  fill-opacity="1.000000" />
</svg>
