<?xml version="1.0" encoding="UTF-8" standalone="yes"?>
<!DOCTYPE svg PUBLIC "-//W3C//DTD SVG 1.0//EN" "http://www.w3.org/TR/2001/REC-SVG-20010904/DTD/svg10.dtd">
<svg height="2000" width="2000" xmlns="http://www.w3.org/2000/svg" xmlns:svg="http://www.w3.org/2000/svg" xmlns:xlink="http://www.w3.org/1999/xlink">
   <marker id="endArrow" markerHeight="8" markerUnits="strokeWidth" markerWidth="10" orient="auto" refX="1" refY="5" viewBox="0 0 1000 1000">
      <polyline fill="darkblue" points="0,0 10,5 0,10 1,5" />
   </marker>
   <circle cx="1000" cy="1000" r="1" style="stroke:black; fill: red" />
   <circle cx="1000" cy="1000" r="800" style="stroke:black; fill: none" />
   <line x1="940.556396" y1="1078.302979" x2="924.811157" y2="1078.302979" style="stroke: green; stroke-width: 0.200000"/>
   <line x1="964.537292" y1="1078.302979" x2="941.917969" y2="1078.302979" style="stroke: green; stroke-width: 0.200000"/>
   <line x1="964.537292" y1="1077.302979" x2="923.367859" y2="1077.302979" style="stroke: green; stroke-width: 0.200000"/>
   <line x1="964.537292" y1="1076.302979" x2="922.031372" y2="1076.302979" style="stroke: green; stroke-width: 0.200000"/>
   <line x1="964.537292" y1="1075.302979" x2="920.808655" y2="1075.302979" style="stroke: green; stroke-width: 0.200000"/>
   <line x1="964.537292" y1="1074.302979" x2="919.606384" y2="1074.302979" style="stroke: green; stroke-width: 0.200000"/>
   <line x1="964.537292" y1="1073.302979" x2="918.404175" y2="1073.302979" style="stroke: green; stroke-width: 0.200000"/>
   <line x1="964.537292" y1="1072.302979" x2="917.202026" y2="1072.302979" style="stroke: green; stroke-width: 0.200000"/>
   <line x1="964.537292" y1="1071.302979" x2="916.034790" y2="1071.302979" style="stroke: green; stroke-width: 0.200000"/>
   <line x1="964.537292" y1="1070.302979" x2="915.548828" y2="1070.302979" style="stroke: green; stroke-width: 0.200000"/>
   <line x1="964.537292" y1="1069.302979" x2="917.042725" y2="1069.302979" style="stroke: green; stroke-width: 0.200000"/>
   <line x1="964.537292" y1="1068.302979" x2="918.536621" y2="1068.302979" style="stroke: green; stroke-width: 0.200000"/>
   <line x1="964.537292" y1="1067.302979" x2="920.030518" y2="1067.302979" style="stroke: green; stroke-width: 0.200000"/>
   <line x1="964.537292" y1="1066.302979" x2="921.524353" y2="1066.302979" style="stroke: green; stroke-width: 0.200000"/>
   <line x1="964.537292" y1="1065.302979" x2="921.480652" y2="1065.302979" style="stroke: green; stroke-width: 0.200000"/>
   <line x1="964.537292" y1="1064.302979" x2="920.877808" y2="1064.302979" style="stroke: green; stroke-width: 0.200000"/>
   <line x1="964.537292" y1="1063.302979" x2="920.274963" y2="1063.302979" style="stroke: green; stroke-width: 0.200000"/>
   <line x1="964.537292" y1="1062.302979" x2="919.672180" y2="1062.302979" style="stroke: green; stroke-width: 0.200000"/>
   <line x1="964.537292" y1="1061.302979" x2="919.069275" y2="1061.302979" style="stroke: green; stroke-width: 0.200000"/>
   <line x1="964.537292" y1="1060.302979" x2="918.466492" y2="1060.302979" style="stroke: green; stroke-width: 0.200000"/>
   <line x1="964.537292" y1="1059.302979" x2="917.863647" y2="1059.302979" style="stroke: green; stroke-width: 0.200000"/>
   <line x1="964.537292" y1="1058.302979" x2="917.260803" y2="1058.302979" style="stroke: green; stroke-width: 0.200000"/>
   <line x1="964.537292" y1="1057.302979" x2="916.657959" y2="1057.302979" style="stroke: green; stroke-width: 0.200000"/>
   <line x1="964.537292" y1="1056.302979" x2="916.055176" y2="1056.302979" style="stroke: green; stroke-width: 0.200000"/>
   <line x1="964.537292" y1="1055.302979" x2="915.517578" y2="1055.302979" style="stroke: green; stroke-width: 0.200000"/>
   <line x1="964.537292" y1="1054.302979" x2="915.117798" y2="1054.302979" style="stroke: green; stroke-width: 0.200000"/>
   <line x1="964.537292" y1="1053.302979" x2="914.752319" y2="1053.302979" style="stroke: green; stroke-width: 0.200000"/>
   <line x1="964.537292" y1="1052.302979" x2="914.600525" y2="1052.302979" style="stroke: green; stroke-width: 0.200000"/>
   <line x1="964.537292" y1="1051.302979" x2="914.734985" y2="1051.302979" style="stroke: green; stroke-width: 0.200000"/>
   <line x1="964.537292" y1="1050.302979" x2="915.157349" y2="1050.302979" style="stroke: green; stroke-width: 0.200000"/>
   <line x1="964.537292" y1="1049.302979" x2="915.579590" y2="1049.302979" style="stroke: green; stroke-width: 0.200000"/>
   <line x1="964.537292" y1="1048.302979" x2="916.001953" y2="1048.302979" style="stroke: green; stroke-width: 0.200000"/>
   <line x1="964.537292" y1="1047.302979" x2="916.453735" y2="1047.302979" style="stroke: green; stroke-width: 0.200000"/>
   <line x1="964.537292" y1="1046.302979" x2="916.926025" y2="1046.302979" style="stroke: green; stroke-width: 0.200000"/>
   <line x1="964.537292" y1="1045.302979" x2="917.511292" y2="1045.302979" style="stroke: green; stroke-width: 0.200000"/>
   <line x1="963.982300" y1="1044.302979" x2="918.145508" y2="1044.302979" style="stroke: green; stroke-width: 0.200000"/>
   <line x1="962.805664" y1="1043.302979" x2="918.779785" y2="1043.302979" style="stroke: green; stroke-width: 0.200000"/>
   <line x1="961.623840" y1="1042.302979" x2="919.416138" y2="1042.302979" style="stroke: green; stroke-width: 0.200000"/>
   <line x1="960.442139" y1="1041.302979" x2="920.053711" y2="1041.302979" style="stroke: green; stroke-width: 0.200000"/>
   <line x1="959.194946" y1="1040.302979" x2="920.691406" y2="1040.302979" style="stroke: green; stroke-width: 0.200000"/>
   <line x1="957.835999" y1="1039.302979" x2="921.370972" y2="1039.302979" style="stroke: green; stroke-width: 0.200000"/>
   <line x1="956.442566" y1="1038.302979" x2="922.225708" y2="1038.302979" style="stroke: green; stroke-width: 0.200000"/>
   <line x1="954.985107" y1="1037.302979" x2="923.079712" y2="1037.302979" style="stroke: green; stroke-width: 0.200000"/>
   <line x1="953.373901" y1="1036.302979" x2="923.932861" y2="1036.302979" style="stroke: green; stroke-width: 0.200000"/>
   <line x1="951.742920" y1="1035.302979" x2="924.786072" y2="1035.302979" style="stroke: green; stroke-width: 0.200000"/>
   <line x1="950.054993" y1="1034.302979" x2="925.639282" y2="1034.302979" style="stroke: green; stroke-width: 0.200000"/>
   <line x1="948.014587" y1="1033.302979" x2="926.561035" y2="1033.302979" style="stroke: green; stroke-width: 0.200000"/>
   <line x1="945.960815" y1="1032.302979" x2="927.599731" y2="1032.302979" style="stroke: green; stroke-width: 0.200000"/>
   <line x1="943.491882" y1="1031.302979" x2="928.666626" y2="1031.302979" style="stroke: green; stroke-width: 0.200000"/>
   <line x1="940.717834" y1="1030.302979" x2="929.766357" y2="1030.302979" style="stroke: green; stroke-width: 0.200000"/>
   <line x1="937.666870" y1="1029.302979" x2="930.925964" y2="1029.302979" style="stroke: green; stroke-width: 0.200000"/>
   <line x1="967.044067" y1="1078.302979" x2="964.637207" y2="1078.302979" style="stroke: green; stroke-width: 0.200000"/>
   <line x1="968.697449" y1="1077.302979" x2="964.637207" y2="1077.302979" style="stroke: green; stroke-width: 0.200000"/>
   <line x1="970.270752" y1="1076.302979" x2="964.637207" y2="1076.302979" style="stroke: green; stroke-width: 0.200000"/>
   <line x1="971.737549" y1="1075.302979" x2="964.637207" y2="1075.302979" style="stroke: green; stroke-width: 0.200000"/>
   <line x1="973.091736" y1="1074.302979" x2="964.637207" y2="1074.302979" style="stroke: green; stroke-width: 0.200000"/>
   <line x1="974.362061" y1="1073.302979" x2="964.637207" y2="1073.302979" style="stroke: green; stroke-width: 0.200000"/>
   <line x1="975.611084" y1="1072.302979" x2="964.637207" y2="1072.302979" style="stroke: green; stroke-width: 0.200000"/>
   <line x1="976.693665" y1="1071.302979" x2="964.637207" y2="1071.302979" style="stroke: green; stroke-width: 0.200000"/>
   <line x1="977.776245" y1="1070.302979" x2="964.637207" y2="1070.302979" style="stroke: green; stroke-width: 0.200000"/>
   <line x1="978.813110" y1="1069.302979" x2="964.637207" y2="1069.302979" style="stroke: green; stroke-width: 0.200000"/>
   <line x1="979.810425" y1="1068.302979" x2="964.637207" y2="1068.302979" style="stroke: green; stroke-width: 0.200000"/>
   <line x1="980.807739" y1="1067.302979" x2="964.637207" y2="1067.302979" style="stroke: green; stroke-width: 0.200000"/>
   <line x1="980.906128" y1="1066.302979" x2="964.637207" y2="1066.302979" style="stroke: green; stroke-width: 0.200000"/>
   <line x1="980.613770" y1="1065.302979" x2="964.637207" y2="1065.302979" style="stroke: green; stroke-width: 0.200000"/>
   <line x1="980.176086" y1="1064.302979" x2="964.637207" y2="1064.302979" style="stroke: green; stroke-width: 0.200000"/>
   <line x1="979.646240" y1="1063.302979" x2="964.637207" y2="1063.302979" style="stroke: green; stroke-width: 0.200000"/>
   <line x1="979.109253" y1="1062.302979" x2="964.637207" y2="1062.302979" style="stroke: green; stroke-width: 0.200000"/>
   <line x1="978.474243" y1="1061.302979" x2="964.637207" y2="1061.302979" style="stroke: green; stroke-width: 0.200000"/>
   <line x1="977.813171" y1="1060.302979" x2="964.637207" y2="1060.302979" style="stroke: green; stroke-width: 0.200000"/>
   <line x1="977.170288" y1="1059.302979" x2="964.637207" y2="1059.302979" style="stroke: green; stroke-width: 0.200000"/>
   <line x1="976.527344" y1="1058.302979" x2="964.637207" y2="1058.302979" style="stroke: green; stroke-width: 0.200000"/>
   <line x1="975.884399" y1="1057.302979" x2="964.637207" y2="1057.302979" style="stroke: green; stroke-width: 0.200000"/>
   <line x1="975.119690" y1="1056.302979" x2="964.637207" y2="1056.302979" style="stroke: green; stroke-width: 0.200000"/>
   <line x1="974.339844" y1="1055.302979" x2="964.637207" y2="1055.302979" style="stroke: green; stroke-width: 0.200000"/>
   <line x1="973.559937" y1="1054.302979" x2="964.637207" y2="1054.302979" style="stroke: green; stroke-width: 0.200000"/>
   <line x1="972.751587" y1="1053.302979" x2="964.637207" y2="1053.302979" style="stroke: green; stroke-width: 0.200000"/>
   <line x1="971.863953" y1="1052.302979" x2="964.637207" y2="1052.302979" style="stroke: green; stroke-width: 0.200000"/>
   <line x1="970.963196" y1="1051.302979" x2="964.637207" y2="1051.302979" style="stroke: green; stroke-width: 0.200000"/>
   <line x1="970.062561" y1="1050.302979" x2="964.637207" y2="1050.302979" style="stroke: green; stroke-width: 0.200000"/>
   <line x1="969.161865" y1="1049.302979" x2="964.637207" y2="1049.302979" style="stroke: green; stroke-width: 0.200000"/>
   <line x1="968.184082" y1="1048.302979" x2="964.637207" y2="1048.302979" style="stroke: green; stroke-width: 0.200000"/>
   <line x1="967.147461" y1="1047.302979" x2="964.637207" y2="1047.302979" style="stroke: green; stroke-width: 0.200000"/>
   <line x1="966.110107" y1="1046.302979" x2="964.637207" y2="1046.302979" style="stroke: green; stroke-width: 0.200000"/>
   <line x1="965.072693" y1="1045.302979" x2="964.637207" y2="1045.302979" style="stroke: green; stroke-width: 0.200000"/>
   <line x1="938.288635" y1="1085.302979" x2="936.038086" y2="1085.302979" style="stroke: green; stroke-width: 0.200000"/>
   <line x1="938.612610" y1="1084.302979" x2="934.321777" y2="1084.302979" style="stroke: green; stroke-width: 0.200000"/>
   <line x1="938.936523" y1="1083.302979" x2="932.600769" y2="1083.302979" style="stroke: green; stroke-width: 0.200000"/>
   <line x1="939.260559" y1="1082.302979" x2="930.855774" y2="1082.302979" style="stroke: green; stroke-width: 0.200000"/>
   <line x1="960.351440" y1="1081.302979" x2="952.680969" y2="1081.302979" style="stroke: green; stroke-width: 0.200000"/>
   <line x1="939.584473" y1="1081.302979" x2="929.164917" y2="1081.302979" style="stroke: green; stroke-width: 0.200000"/>
   <line x1="939.908447" y1="1080.302979" x2="927.710876" y2="1080.302979" style="stroke: green; stroke-width: 0.200000"/>
   <line x1="962.998962" y1="1080.302979" x2="948.774292" y2="1080.302979" style="stroke: green; stroke-width: 0.200000"/>
   <line x1="940.232483" y1="1079.302979" x2="926.256958" y2="1079.302979" style="stroke: green; stroke-width: 0.200000"/>
   <line x1="964.537292" y1="1079.302979" x2="945.346069" y2="1079.302979" style="stroke: green; stroke-width: 0.200000"/>
   <line x1="965.006165" y1="1079.302979" x2="964.637207" y2="1079.302979" style="stroke: green; stroke-width: 0.200000"/>
   <line x1="1063.559326" y1="971.373657" x2="1025.716187" y2="971.373657" style="stroke: green; stroke-width: 0.200000"/>
   <line x1="1063.559326" y1="970.373657" x2="1025.000122" y2="970.373657" style="stroke: green; stroke-width: 0.200000"/>
   <line x1="1063.559326" y1="969.373718" x2="1024.284546" y2="969.373718" style="stroke: green; stroke-width: 0.200000"/>
   <line x1="1063.559326" y1="968.373657" x2="1023.658936" y2="968.373657" style="stroke: green; stroke-width: 0.200000"/>
   <line x1="1063.559326" y1="967.373657" x2="1023.092896" y2="967.373657" style="stroke: green; stroke-width: 0.200000"/>
   <line x1="1063.559326" y1="966.373657" x2="1022.498779" y2="966.373657" style="stroke: green; stroke-width: 0.200000"/>
   <line x1="1063.559326" y1="965.373657" x2="1021.904602" y2="965.373657" style="stroke: green; stroke-width: 0.200000"/>
   <line x1="1063.559326" y1="964.373718" x2="1021.310486" y2="964.373718" style="stroke: green; stroke-width: 0.200000"/>
   <line x1="1063.559326" y1="963.373657" x2="1020.716431" y2="963.373657" style="stroke: green; stroke-width: 0.200000"/>
   <line x1="1063.559326" y1="962.373657" x2="1020.214355" y2="962.373657" style="stroke: green; stroke-width: 0.200000"/>
   <line x1="1063.559326" y1="961.373657" x2="1019.717651" y2="961.373657" style="stroke: green; stroke-width: 0.200000"/>
   <line x1="1063.559326" y1="960.373657" x2="1019.225464" y2="960.373657" style="stroke: green; stroke-width: 0.200000"/>
   <line x1="1063.559326" y1="959.373718" x2="1018.733032" y2="959.373718" style="stroke: green; stroke-width: 0.200000"/>
   <line x1="1063.559326" y1="958.373657" x2="1018.252319" y2="958.373657" style="stroke: green; stroke-width: 0.200000"/>
   <line x1="1063.559326" y1="957.373657" x2="1017.793884" y2="957.373657" style="stroke: green; stroke-width: 0.200000"/>
   <line x1="1063.559326" y1="956.373657" x2="1017.344604" y2="956.373657" style="stroke: green; stroke-width: 0.200000"/>
   <line x1="1063.559326" y1="955.373657" x2="1016.953186" y2="955.373657" style="stroke: green; stroke-width: 0.200000"/>
   <line x1="1063.559326" y1="954.373718" x2="1016.559814" y2="954.373718" style="stroke: green; stroke-width: 0.200000"/>
   <line x1="1063.559326" y1="953.373657" x2="1016.145874" y2="953.373657" style="stroke: green; stroke-width: 0.200000"/>
   <line x1="1063.559326" y1="952.373657" x2="1015.731873" y2="952.373657" style="stroke: green; stroke-width: 0.200000"/>
   <line x1="1063.559326" y1="951.373657" x2="1015.360474" y2="951.373657" style="stroke: green; stroke-width: 0.200000"/>
   <line x1="1063.559326" y1="950.373657" x2="1015.018555" y2="950.373657" style="stroke: green; stroke-width: 0.200000"/>
   <line x1="1063.559326" y1="949.373718" x2="1014.676636" y2="949.373718" style="stroke: green; stroke-width: 0.200000"/>
   <line x1="1063.559326" y1="948.373657" x2="1014.334717" y2="948.373657" style="stroke: green; stroke-width: 0.200000"/>
   <line x1="1063.559326" y1="947.373657" x2="1014.077148" y2="947.373657" style="stroke: green; stroke-width: 0.200000"/>
   <line x1="1063.559326" y1="946.373657" x2="1013.874451" y2="946.373657" style="stroke: green; stroke-width: 0.200000"/>
   <line x1="1063.559326" y1="945.373657" x2="1013.665771" y2="945.373657" style="stroke: green; stroke-width: 0.200000"/>
   <line x1="1063.559326" y1="944.373718" x2="1013.598022" y2="944.373718" style="stroke: green; stroke-width: 0.200000"/>
   <line x1="1063.559326" y1="943.373657" x2="1013.609070" y2="943.373657" style="stroke: green; stroke-width: 0.200000"/>
   <line x1="1063.559326" y1="942.373657" x2="1013.958496" y2="942.373657" style="stroke: green; stroke-width: 0.200000"/>
   <line x1="1063.559326" y1="941.373657" x2="1014.591187" y2="941.373657" style="stroke: green; stroke-width: 0.200000"/>
   <line x1="1063.559326" y1="940.373657" x2="1015.370117" y2="940.373657" style="stroke: green; stroke-width: 0.200000"/>
   <line x1="1063.559326" y1="939.373718" x2="1016.142883" y2="939.373718" style="stroke: green; stroke-width: 0.200000"/>
   <line x1="1063.559326" y1="938.373657" x2="1016.910950" y2="938.373657" style="stroke: green; stroke-width: 0.200000"/>
   <line x1="1063.559326" y1="937.373657" x2="1017.678955" y2="937.373657" style="stroke: green; stroke-width: 0.200000"/>
   <line x1="1063.559326" y1="936.373657" x2="1018.446960" y2="936.373657" style="stroke: green; stroke-width: 0.200000"/>
   <line x1="1063.559326" y1="935.373657" x2="1019.384766" y2="935.373657" style="stroke: green; stroke-width: 0.200000"/>
   <line x1="1063.559326" y1="934.373718" x2="1020.353516" y2="934.373718" style="stroke: green; stroke-width: 0.200000"/>
   <line x1="1063.559326" y1="933.373657" x2="1021.315308" y2="933.373657" style="stroke: green; stroke-width: 0.200000"/>
   <line x1="1063.559326" y1="932.373657" x2="1022.277100" y2="932.373657" style="stroke: green; stroke-width: 0.200000"/>
   <line x1="1063.559326" y1="931.373657" x2="1023.238892" y2="931.373657" style="stroke: green; stroke-width: 0.200000"/>
   <line x1="1062.642090" y1="930.373657" x2="1024.317505" y2="930.373657" style="stroke: green; stroke-width: 0.200000"/>
   <line x1="1061.683594" y1="929.373718" x2="1025.635010" y2="929.373718" style="stroke: green; stroke-width: 0.200000"/>
   <line x1="1060.720947" y1="928.373657" x2="1050.074707" y2="928.373657" style="stroke: green; stroke-width: 0.200000"/>
   <line x1="1049.077515" y1="928.373657" x2="1026.952393" y2="928.373657" style="stroke: green; stroke-width: 0.200000"/>
   <line x1="1059.758179" y1="927.373657" x2="1050.604370" y2="927.373657" style="stroke: green; stroke-width: 0.200000"/>
   <line x1="1046.951782" y1="927.373657" x2="1028.272461" y2="927.373657" style="stroke: green; stroke-width: 0.200000"/>
   <line x1="1058.738647" y1="926.373657" x2="1051.134155" y2="926.373657" style="stroke: green; stroke-width: 0.200000"/>
   <line x1="1044.826172" y1="926.373657" x2="1029.611938" y2="926.373657" style="stroke: green; stroke-width: 0.200000"/>
   <line x1="1057.682373" y1="925.373657" x2="1051.663696" y2="925.373657" style="stroke: green; stroke-width: 0.200000"/>
   <line x1="1042.700928" y1="925.373657" x2="1031.478760" y2="925.373657" style="stroke: green; stroke-width: 0.200000"/>
   <line x1="1056.613037" y1="924.373718" x2="1052.193481" y2="924.373718" style="stroke: green; stroke-width: 0.200000"/>
   <line x1="1040.575439" y1="924.373718" x2="1033.409790" y2="924.373718" style="stroke: green; stroke-width: 0.200000"/>
   <line x1="1055.543579" y1="923.373657" x2="1052.723145" y2="923.373657" style="stroke: green; stroke-width: 0.200000"/>
   <line x1="1038.260376" y1="923.373657" x2="1035.340698" y2="923.373657" style="stroke: green; stroke-width: 0.200000"/>
   <line x1="1054.454224" y1="922.373657" x2="1053.252808" y2="922.373657" style="stroke: green; stroke-width: 0.200000"/>
   <line x1="1078.822388" y1="971.373657" x2="1063.659302" y2="971.373657" style="stroke: green; stroke-width: 0.200000"/>
   <line x1="1078.560547" y1="970.373657" x2="1063.659302" y2="970.373657" style="stroke: green; stroke-width: 0.200000"/>
   <line x1="1078.197021" y1="969.373718" x2="1063.659302" y2="969.373718" style="stroke: green; stroke-width: 0.200000"/>
   <line x1="1077.837524" y1="968.373657" x2="1063.659302" y2="968.373657" style="stroke: green; stroke-width: 0.200000"/>
   <line x1="1077.478027" y1="967.373657" x2="1063.659302" y2="967.373657" style="stroke: green; stroke-width: 0.200000"/>
   <line x1="1077.118530" y1="966.373657" x2="1063.659302" y2="966.373657" style="stroke: green; stroke-width: 0.200000"/>
   <line x1="1076.759033" y1="965.373657" x2="1063.659302" y2="965.373657" style="stroke: green; stroke-width: 0.200000"/>
   <line x1="1076.399658" y1="964.373718" x2="1063.659302" y2="964.373718" style="stroke: green; stroke-width: 0.200000"/>
   <line x1="1076.040161" y1="963.373657" x2="1063.659302" y2="963.373657" style="stroke: green; stroke-width: 0.200000"/>
   <line x1="1075.680664" y1="962.373657" x2="1063.659302" y2="962.373657" style="stroke: green; stroke-width: 0.200000"/>
   <line x1="1075.321167" y1="961.373657" x2="1063.659302" y2="961.373657" style="stroke: green; stroke-width: 0.200000"/>
   <line x1="1074.961670" y1="960.373657" x2="1063.659302" y2="960.373657" style="stroke: green; stroke-width: 0.200000"/>
   <line x1="1074.602173" y1="959.373718" x2="1063.659302" y2="959.373718" style="stroke: green; stroke-width: 0.200000"/>
   <line x1="1074.242676" y1="958.373657" x2="1063.659302" y2="958.373657" style="stroke: green; stroke-width: 0.200000"/>
   <line x1="1076.352661" y1="957.373657" x2="1063.659302" y2="957.373657" style="stroke: green; stroke-width: 0.200000"/>
   <line x1="1078.744995" y1="956.373657" x2="1063.659302" y2="956.373657" style="stroke: green; stroke-width: 0.200000"/>
   <line x1="1081.137329" y1="955.373657" x2="1063.659302" y2="955.373657" style="stroke: green; stroke-width: 0.200000"/>
   <line x1="1081.569702" y1="954.373718" x2="1063.659302" y2="954.373718" style="stroke: green; stroke-width: 0.200000"/>
   <line x1="1080.946777" y1="953.373657" x2="1063.659302" y2="953.373657" style="stroke: green; stroke-width: 0.200000"/>
   <line x1="1080.323975" y1="952.373657" x2="1063.659302" y2="952.373657" style="stroke: green; stroke-width: 0.200000"/>
   <line x1="1079.666870" y1="951.373657" x2="1063.659302" y2="951.373657" style="stroke: green; stroke-width: 0.200000"/>
   <line x1="1078.951172" y1="950.373657" x2="1063.659302" y2="950.373657" style="stroke: green; stroke-width: 0.200000"/>
   <line x1="1078.235474" y1="949.373718" x2="1063.659302" y2="949.373718" style="stroke: green; stroke-width: 0.200000"/>
   <line x1="1077.519775" y1="948.373657" x2="1063.659302" y2="948.373657" style="stroke: green; stroke-width: 0.200000"/>
   <line x1="1076.804077" y1="947.373657" x2="1063.659302" y2="947.373657" style="stroke: green; stroke-width: 0.200000"/>
   <line x1="1076.088501" y1="946.373657" x2="1063.659302" y2="946.373657" style="stroke: green; stroke-width: 0.200000"/>
   <line x1="1075.372803" y1="945.373657" x2="1063.659302" y2="945.373657" style="stroke: green; stroke-width: 0.200000"/>
   <line x1="1074.602539" y1="944.373718" x2="1063.659302" y2="944.373718" style="stroke: green; stroke-width: 0.200000"/>
   <line x1="1073.814453" y1="943.373657" x2="1063.659302" y2="943.373657" style="stroke: green; stroke-width: 0.200000"/>
   <line x1="1073.026367" y1="942.373657" x2="1063.659302" y2="942.373657" style="stroke: green; stroke-width: 0.200000"/>
   <line x1="1072.228271" y1="941.373657" x2="1063.659302" y2="941.373657" style="stroke: green; stroke-width: 0.200000"/>
   <line x1="1071.428223" y1="940.373657" x2="1063.659302" y2="940.373657" style="stroke: green; stroke-width: 0.200000"/>
   <line x1="1070.628296" y1="939.373718" x2="1063.659302" y2="939.373718" style="stroke: green; stroke-width: 0.200000"/>
   <line x1="1069.793091" y1="938.373657" x2="1063.659302" y2="938.373657" style="stroke: green; stroke-width: 0.200000"/>
   <line x1="1068.923584" y1="937.373657" x2="1063.659302" y2="937.373657" style="stroke: green; stroke-width: 0.200000"/>
   <line x1="1068.054077" y1="936.373657" x2="1063.659302" y2="936.373657" style="stroke: green; stroke-width: 0.200000"/>
   <line x1="1067.184570" y1="935.373657" x2="1063.659302" y2="935.373657" style="stroke: green; stroke-width: 0.200000"/>
   <line x1="1066.314941" y1="934.373718" x2="1063.659302" y2="934.373718" style="stroke: green; stroke-width: 0.200000"/>
   <line x1="1065.445435" y1="933.373657" x2="1063.659302" y2="933.373657" style="stroke: green; stroke-width: 0.200000"/>
   <line x1="1064.536011" y1="932.373657" x2="1063.659302" y2="932.373657" style="stroke: green; stroke-width: 0.200000"/>
   <line x1="1060.641846" y1="997.373657" x2="1059.852173" y2="997.373657" style="stroke: green; stroke-width: 0.200000"/>
   <line x1="1062.291626" y1="996.373657" x2="1056.087158" y2="996.373657" style="stroke: green; stroke-width: 0.200000"/>
   <line x1="1063.545654" y1="995.373657" x2="1053.796143" y2="995.373657" style="stroke: green; stroke-width: 0.200000"/>
   <line x1="1063.559326" y1="994.373718" x2="1051.911621" y2="994.373718" style="stroke: green; stroke-width: 0.200000"/>
   <line x1="1063.559326" y1="993.373657" x2="1050.138184" y2="993.373657" style="stroke: green; stroke-width: 0.200000"/>
   <line x1="1063.559326" y1="992.373657" x2="1048.478882" y2="992.373657" style="stroke: green; stroke-width: 0.200000"/>
   <line x1="1063.559326" y1="991.373657" x2="1046.946289" y2="991.373657" style="stroke: green; stroke-width: 0.200000"/>
   <line x1="1063.559326" y1="990.373657" x2="1045.334961" y2="990.373657" style="stroke: green; stroke-width: 0.200000"/>
   <line x1="1063.559326" y1="989.373718" x2="1043.803955" y2="989.373718" style="stroke: green; stroke-width: 0.200000"/>
   <line x1="1063.559326" y1="988.373657" x2="1042.493164" y2="988.373657" style="stroke: green; stroke-width: 0.200000"/>
   <line x1="1063.559326" y1="987.373657" x2="1041.176514" y2="987.373657" style="stroke: green; stroke-width: 0.200000"/>
   <line x1="1063.559326" y1="986.373657" x2="1039.934326" y2="986.373657" style="stroke: green; stroke-width: 0.200000"/>
   <line x1="1063.559326" y1="985.373657" x2="1038.765625" y2="985.373657" style="stroke: green; stroke-width: 0.200000"/>
   <line x1="1063.559326" y1="984.373718" x2="1037.594238" y2="984.373718" style="stroke: green; stroke-width: 0.200000"/>
   <line x1="1063.559326" y1="983.373657" x2="1036.422852" y2="983.373657" style="stroke: green; stroke-width: 0.200000"/>
   <line x1="1063.559326" y1="982.373657" x2="1035.313232" y2="982.373657" style="stroke: green; stroke-width: 0.200000"/>
   <line x1="1063.559326" y1="981.373657" x2="1034.316650" y2="981.373657" style="stroke: green; stroke-width: 0.200000"/>
   <line x1="1063.559326" y1="980.373657" x2="1033.320068" y2="980.373657" style="stroke: green; stroke-width: 0.200000"/>
   <line x1="1063.559326" y1="979.373718" x2="1032.323486" y2="979.373718" style="stroke: green; stroke-width: 0.200000"/>
   <line x1="1063.559326" y1="978.373657" x2="1031.331665" y2="978.373657" style="stroke: green; stroke-width: 0.200000"/>
   <line x1="1063.559326" y1="977.373657" x2="1030.479614" y2="977.373657" style="stroke: green; stroke-width: 0.200000"/>
   <line x1="1063.559326" y1="976.373657" x2="1029.632324" y2="976.373657" style="stroke: green; stroke-width: 0.200000"/>
   <line x1="1063.559326" y1="975.373657" x2="1028.784912" y2="975.373657" style="stroke: green; stroke-width: 0.200000"/>
   <line x1="1063.559326" y1="974.373718" x2="1027.937500" y2="974.373718" style="stroke: green; stroke-width: 0.200000"/>
   <line x1="1063.559326" y1="973.373657" x2="1027.148193" y2="973.373657" style="stroke: green; stroke-width: 0.200000"/>
   <line x1="1063.559326" y1="972.373657" x2="1026.432129" y2="972.373657" style="stroke: green; stroke-width: 0.200000"/>
   <line x1="1064.799561" y1="994.373718" x2="1063.659302" y2="994.373718" style="stroke: green; stroke-width: 0.200000"/>
   <line x1="1066.053589" y1="993.373657" x2="1063.659302" y2="993.373657" style="stroke: green; stroke-width: 0.200000"/>
   <line x1="1067.134766" y1="992.373657" x2="1063.659302" y2="992.373657" style="stroke: green; stroke-width: 0.200000"/>
   <line x1="1068.163696" y1="991.373657" x2="1063.659302" y2="991.373657" style="stroke: green; stroke-width: 0.200000"/>
   <line x1="1069.248169" y1="990.373657" x2="1063.659302" y2="990.373657" style="stroke: green; stroke-width: 0.200000"/>
   <line x1="1070.435303" y1="989.373718" x2="1063.659302" y2="989.373718" style="stroke: green; stroke-width: 0.200000"/>
   <line x1="1071.622437" y1="988.373657" x2="1063.659302" y2="988.373657" style="stroke: green; stroke-width: 0.200000"/>
   <line x1="1072.460083" y1="987.373657" x2="1063.659302" y2="987.373657" style="stroke: green; stroke-width: 0.200000"/>
   <line x1="1073.208984" y1="986.373657" x2="1063.659302" y2="986.373657" style="stroke: green; stroke-width: 0.200000"/>
   <line x1="1073.957764" y1="985.373657" x2="1063.659302" y2="985.373657" style="stroke: green; stroke-width: 0.200000"/>
   <line x1="1074.706665" y1="984.373718" x2="1063.659302" y2="984.373718" style="stroke: green; stroke-width: 0.200000"/>
   <line x1="1075.458130" y1="983.373657" x2="1063.659302" y2="983.373657" style="stroke: green; stroke-width: 0.200000"/>
   <line x1="1076.211426" y1="982.373657" x2="1063.659302" y2="982.373657" style="stroke: green; stroke-width: 0.200000"/>
   <line x1="1076.759155" y1="981.373657" x2="1063.659302" y2="981.373657" style="stroke: green; stroke-width: 0.200000"/>
   <line x1="1077.292358" y1="980.373657" x2="1063.659302" y2="980.373657" style="stroke: green; stroke-width: 0.200000"/>
   <line x1="1077.825562" y1="979.373718" x2="1063.659302" y2="979.373718" style="stroke: green; stroke-width: 0.200000"/>
   <line x1="1078.358765" y1="978.373657" x2="1063.659302" y2="978.373657" style="stroke: green; stroke-width: 0.200000"/>
   <line x1="1078.897095" y1="977.373657" x2="1063.659302" y2="977.373657" style="stroke: green; stroke-width: 0.200000"/>
   <line x1="1079.269775" y1="976.373657" x2="1063.659302" y2="976.373657" style="stroke: green; stroke-width: 0.200000"/>
   <line x1="1079.174316" y1="975.373657" x2="1063.659302" y2="975.373657" style="stroke: green; stroke-width: 0.200000"/>
   <line x1="1079.188232" y1="974.373718" x2="1063.659302" y2="974.373718" style="stroke: green; stroke-width: 0.200000"/>
   <line x1="1079.102905" y1="973.373657" x2="1063.659302" y2="973.373657" style="stroke: green; stroke-width: 0.200000"/>
   <line x1="1078.962524" y1="972.373657" x2="1063.659302" y2="972.373657" style="stroke: green; stroke-width: 0.200000"/>
   <line x1="920.973267" y1="1066.671631" x2="911.513672" y2="1066.671631" style="stroke: green; stroke-width: 0.200000"/>
   <line x1="921.702820" y1="1065.671631" x2="910.571350" y2="1065.671631" style="stroke: green; stroke-width: 0.200000"/>
   <line x1="921.099976" y1="1064.671753" x2="909.713196" y2="1064.671753" style="stroke: green; stroke-width: 0.200000"/>
   <line x1="920.497131" y1="1063.671753" x2="908.913818" y2="1063.671753" style="stroke: green; stroke-width: 0.200000"/>
   <line x1="919.894348" y1="1062.671753" x2="908.168579" y2="1062.671753" style="stroke: green; stroke-width: 0.200000"/>
   <line x1="919.291443" y1="1061.671631" x2="907.429443" y2="1061.671631" style="stroke: green; stroke-width: 0.200000"/>
   <line x1="918.688660" y1="1060.671631" x2="906.775391" y2="1060.671631" style="stroke: green; stroke-width: 0.200000"/>
   <line x1="918.085815" y1="1059.671753" x2="906.153076" y2="1059.671753" style="stroke: green; stroke-width: 0.200000"/>
   <line x1="917.482971" y1="1058.671753" x2="905.597290" y2="1058.671753" style="stroke: green; stroke-width: 0.200000"/>
   <line x1="916.880188" y1="1057.671753" x2="905.086914" y2="1057.671753" style="stroke: green; stroke-width: 0.200000"/>
   <line x1="916.277344" y1="1056.671631" x2="904.606873" y2="1056.671631" style="stroke: green; stroke-width: 0.200000"/>
   <line x1="915.680603" y1="1055.671631" x2="904.142456" y2="1055.671631" style="stroke: green; stroke-width: 0.200000"/>
   <line x1="915.252686" y1="1054.671753" x2="903.757812" y2="1054.671753" style="stroke: green; stroke-width: 0.200000"/>
   <line x1="914.887024" y1="1053.671753" x2="903.430908" y2="1053.671753" style="stroke: green; stroke-width: 0.200000"/>
   <line x1="914.632690" y1="1052.671753" x2="903.083984" y2="1052.671753" style="stroke: green; stroke-width: 0.200000"/>
   <line x1="914.579163" y1="1051.671631" x2="902.897705" y2="1051.671631" style="stroke: green; stroke-width: 0.200000"/>
   <line x1="915.001465" y1="1050.671631" x2="902.756714" y2="1050.671631" style="stroke: green; stroke-width: 0.200000"/>
   <line x1="915.423706" y1="1049.671753" x2="902.733643" y2="1049.671753" style="stroke: green; stroke-width: 0.200000"/>
   <line x1="915.846069" y1="1048.671753" x2="902.746094" y2="1048.671753" style="stroke: green; stroke-width: 0.200000"/>
   <line x1="916.279419" y1="1047.671753" x2="902.865967" y2="1047.671753" style="stroke: green; stroke-width: 0.200000"/>
   <line x1="916.751770" y1="1046.671631" x2="903.048767" y2="1046.671631" style="stroke: green; stroke-width: 0.200000"/>
   <line x1="917.277283" y1="1045.671631" x2="903.472229" y2="1045.671631" style="stroke: green; stroke-width: 0.200000"/>
   <line x1="917.911499" y1="1044.671753" x2="903.941345" y2="1044.671753" style="stroke: green; stroke-width: 0.200000"/>
   <line x1="918.545776" y1="1043.671753" x2="904.410522" y2="1043.671753" style="stroke: green; stroke-width: 0.200000"/>
   <line x1="919.180847" y1="1042.671753" x2="904.879700" y2="1042.671753" style="stroke: green; stroke-width: 0.200000"/>
   <line x1="919.818481" y1="1041.671631" x2="905.348877" y2="1041.671631" style="stroke: green; stroke-width: 0.200000"/>
   <line x1="920.456055" y1="1040.671631" x2="905.825684" y2="1040.671631" style="stroke: green; stroke-width: 0.200000"/>
   <line x1="921.093750" y1="1039.671753" x2="906.368286" y2="1039.671753" style="stroke: green; stroke-width: 0.200000"/>
   <line x1="921.910400" y1="1038.671753" x2="906.878418" y2="1038.671753" style="stroke: green; stroke-width: 0.200000"/>
   <line x1="922.764954" y1="1037.671753" x2="907.555420" y2="1037.671753" style="stroke: green; stroke-width: 0.200000"/>
   <line x1="923.618103" y1="1036.671631" x2="908.232361" y2="1036.671631" style="stroke: green; stroke-width: 0.200000"/>
   <line x1="952.716736" y1="1035.671631" x2="952.344604" y2="1035.671631" style="stroke: green; stroke-width: 0.200000"/>
   <line x1="924.471313" y1="1035.671631" x2="908.909302" y2="1035.671631" style="stroke: green; stroke-width: 0.200000"/>
   <line x1="952.716736" y1="1034.671753" x2="950.713623" y2="1034.671753" style="stroke: green; stroke-width: 0.200000"/>
   <line x1="925.324463" y1="1034.671753" x2="909.586243" y2="1034.671753" style="stroke: green; stroke-width: 0.200000"/>
   <line x1="952.716736" y1="1033.671753" x2="948.768433" y2="1033.671753" style="stroke: green; stroke-width: 0.200000"/>
   <line x1="926.177917" y1="1033.671753" x2="910.263184" y2="1033.671753" style="stroke: green; stroke-width: 0.200000"/>
   <line x1="952.716736" y1="1032.671753" x2="946.718445" y2="1032.671753" style="stroke: green; stroke-width: 0.200000"/>
   <line x1="927.216553" y1="1032.671753" x2="910.940186" y2="1032.671753" style="stroke: green; stroke-width: 0.200000"/>
   <line x1="952.716736" y1="1031.671631" x2="944.420410" y2="1031.671631" style="stroke: green; stroke-width: 0.200000"/>
   <line x1="928.260864" y1="1031.671631" x2="911.617126" y2="1031.671631" style="stroke: green; stroke-width: 0.200000"/>
   <line x1="952.716736" y1="1030.671631" x2="941.806946" y2="1030.671631" style="stroke: green; stroke-width: 0.200000"/>
   <line x1="929.360657" y1="1030.671631" x2="912.472046" y2="1030.671631" style="stroke: green; stroke-width: 0.200000"/>
   <line x1="952.716736" y1="1029.671753" x2="938.821045" y2="1029.671753" style="stroke: green; stroke-width: 0.200000"/>
   <line x1="930.460449" y1="1029.671753" x2="913.350281" y2="1029.671753" style="stroke: green; stroke-width: 0.200000"/>
   <line x1="952.716736" y1="1028.671753" x2="934.762451" y2="1028.671753" style="stroke: green; stroke-width: 0.200000"/>
   <line x1="932.118164" y1="1028.671753" x2="914.228516" y2="1028.671753" style="stroke: green; stroke-width: 0.200000"/>
   <line x1="952.716736" y1="1027.671753" x2="915.106750" y2="1027.671753" style="stroke: green; stroke-width: 0.200000"/>
   <line x1="952.716736" y1="1026.671631" x2="915.984863" y2="1026.671631" style="stroke: green; stroke-width: 0.200000"/>
   <line x1="952.716736" y1="1025.671631" x2="916.863098" y2="1025.671631" style="stroke: green; stroke-width: 0.200000"/>
   <line x1="952.716736" y1="1024.671753" x2="917.814026" y2="1024.671753" style="stroke: green; stroke-width: 0.200000"/>
   <line x1="952.716736" y1="1023.671753" x2="918.865051" y2="1023.671753" style="stroke: green; stroke-width: 0.200000"/>
   <line x1="951.766846" y1="1022.671753" x2="919.916016" y2="1022.671753" style="stroke: green; stroke-width: 0.200000"/>
   <line x1="949.427124" y1="1021.671692" x2="920.975037" y2="1021.671692" style="stroke: green; stroke-width: 0.200000"/>
   <line x1="946.695801" y1="1020.671692" x2="922.069214" y2="1020.671692" style="stroke: green; stroke-width: 0.200000"/>
   <line x1="943.777161" y1="1019.671692" x2="923.163513" y2="1019.671692" style="stroke: green; stroke-width: 0.200000"/>
   <line x1="940.247803" y1="1018.671753" x2="924.654907" y2="1018.671753" style="stroke: green; stroke-width: 0.200000"/>
   <line x1="936.269653" y1="1017.671753" x2="926.929016" y2="1017.671753" style="stroke: green; stroke-width: 0.200000"/>
   <line x1="993.474426" y1="1066.671631" x2="980.936829" y2="1066.671631" style="stroke: green; stroke-width: 0.200000"/>
   <line x1="993.194031" y1="1065.671631" x2="980.727783" y2="1065.671631" style="stroke: green; stroke-width: 0.200000"/>
   <line x1="992.913757" y1="1064.671753" x2="980.354309" y2="1064.671753" style="stroke: green; stroke-width: 0.200000"/>
   <line x1="992.610352" y1="1063.671753" x2="979.844360" y2="1063.671753" style="stroke: green; stroke-width: 0.200000"/>
   <line x1="992.190430" y1="1062.671753" x2="979.307373" y2="1062.671753" style="stroke: green; stroke-width: 0.200000"/>
   <line x1="991.741943" y1="1061.671631" x2="978.725281" y2="1061.671631" style="stroke: green; stroke-width: 0.200000"/>
   <line x1="991.257690" y1="1060.671631" x2="978.050415" y2="1060.671631" style="stroke: green; stroke-width: 0.200000"/>
   <line x1="990.745178" y1="1059.671753" x2="977.407471" y2="1059.671753" style="stroke: green; stroke-width: 0.200000"/>
   <line x1="990.232605" y1="1058.671753" x2="976.764526" y2="1058.671753" style="stroke: green; stroke-width: 0.200000"/>
   <line x1="989.702698" y1="1057.671753" x2="976.121582" y2="1057.671753" style="stroke: green; stroke-width: 0.200000"/>
   <line x1="989.172119" y1="1056.671631" x2="975.407410" y2="1056.671631" style="stroke: green; stroke-width: 0.200000"/>
   <line x1="988.562927" y1="1055.671631" x2="974.627563" y2="1055.671631" style="stroke: green; stroke-width: 0.200000"/>
   <line x1="987.878052" y1="1054.671753" x2="973.847656" y2="1054.671753" style="stroke: green; stroke-width: 0.200000"/>
   <line x1="987.199097" y1="1053.671753" x2="973.067688" y2="1053.671753" style="stroke: green; stroke-width: 0.200000"/>
   <line x1="986.534424" y1="1052.671753" x2="972.195801" y2="1052.671753" style="stroke: green; stroke-width: 0.200000"/>
   <line x1="985.869812" y1="1051.671631" x2="971.295471" y2="1051.671631" style="stroke: green; stroke-width: 0.200000"/>
   <line x1="985.205139" y1="1050.671631" x2="970.394836" y2="1050.671631" style="stroke: green; stroke-width: 0.200000"/>
   <line x1="984.484375" y1="1049.671753" x2="969.494080" y2="1049.671753" style="stroke: green; stroke-width: 0.200000"/>
   <line x1="983.702942" y1="1048.671753" x2="968.558044" y2="1048.671753" style="stroke: green; stroke-width: 0.200000"/>
   <line x1="982.921448" y1="1047.671753" x2="967.530151" y2="1047.671753" style="stroke: green; stroke-width: 0.200000"/>
   <line x1="982.099487" y1="1046.671631" x2="966.492798" y2="1046.671631" style="stroke: green; stroke-width: 0.200000"/>
   <line x1="981.232422" y1="1045.671631" x2="965.455383" y2="1045.671631" style="stroke: green; stroke-width: 0.200000"/>
   <line x1="980.326477" y1="1044.671753" x2="964.414734" y2="1044.671753" style="stroke: green; stroke-width: 0.200000"/>
   <line x1="979.420471" y1="1043.671753" x2="963.241516" y2="1043.671753" style="stroke: green; stroke-width: 0.200000"/>
   <line x1="978.514465" y1="1042.671753" x2="962.059814" y2="1042.671753" style="stroke: green; stroke-width: 0.200000"/>
   <line x1="977.591064" y1="1041.671631" x2="960.878052" y2="1041.671631" style="stroke: green; stroke-width: 0.200000"/>
   <line x1="976.606506" y1="1040.671631" x2="959.696167" y2="1040.671631" style="stroke: green; stroke-width: 0.200000"/>
   <line x1="975.572144" y1="1039.671753" x2="958.337280" y2="1039.671753" style="stroke: green; stroke-width: 0.200000"/>
   <line x1="974.537842" y1="1038.671753" x2="956.978271" y2="1038.671753" style="stroke: green; stroke-width: 0.200000"/>
   <line x1="973.503479" y1="1037.671753" x2="955.522766" y2="1037.671753" style="stroke: green; stroke-width: 0.200000"/>
   <line x1="972.435425" y1="1036.671631" x2="953.977356" y2="1036.671631" style="stroke: green; stroke-width: 0.200000"/>
   <line x1="971.282959" y1="1035.671631" x2="952.816772" y2="1035.671631" style="stroke: green; stroke-width: 0.200000"/>
   <line x1="970.105957" y1="1034.671753" x2="952.816772" y2="1034.671753" style="stroke: green; stroke-width: 0.200000"/>
   <line x1="968.929077" y1="1033.671753" x2="952.816772" y2="1033.671753" style="stroke: green; stroke-width: 0.200000"/>
   <line x1="967.752136" y1="1032.671753" x2="952.816772" y2="1032.671753" style="stroke: green; stroke-width: 0.200000"/>
   <line x1="966.456238" y1="1031.671631" x2="952.816772" y2="1031.671631" style="stroke: green; stroke-width: 0.200000"/>
   <line x1="965.106750" y1="1030.671631" x2="952.816772" y2="1030.671631" style="stroke: green; stroke-width: 0.200000"/>
   <line x1="963.757324" y1="1029.671753" x2="952.816772" y2="1029.671753" style="stroke: green; stroke-width: 0.200000"/>
   <line x1="962.407837" y1="1028.671753" x2="952.816772" y2="1028.671753" style="stroke: green; stroke-width: 0.200000"/>
   <line x1="960.893860" y1="1027.671753" x2="952.816772" y2="1027.671753" style="stroke: green; stroke-width: 0.200000"/>
   <line x1="959.267883" y1="1026.671631" x2="952.816772" y2="1026.671631" style="stroke: green; stroke-width: 0.200000"/>
   <line x1="957.636963" y1="1025.671631" x2="952.816772" y2="1025.671631" style="stroke: green; stroke-width: 0.200000"/>
   <line x1="955.870605" y1="1024.671753" x2="952.816772" y2="1024.671753" style="stroke: green; stroke-width: 0.200000"/>
   <line x1="953.818665" y1="1023.671753" x2="952.816772" y2="1023.671753" style="stroke: green; stroke-width: 0.200000"/>
   <line x1="952.716736" y1="1091.671631" x2="951.542725" y2="1091.671631" style="stroke: green; stroke-width: 0.200000"/>
   <line x1="952.716736" y1="1090.671631" x2="948.486023" y2="1090.671631" style="stroke: green; stroke-width: 0.200000"/>
   <line x1="952.716736" y1="1089.671753" x2="945.549377" y2="1089.671753" style="stroke: green; stroke-width: 0.200000"/>
   <line x1="952.716736" y1="1088.671753" x2="943.093262" y2="1088.671753" style="stroke: green; stroke-width: 0.200000"/>
   <line x1="952.716736" y1="1087.671753" x2="940.955139" y2="1087.671753" style="stroke: green; stroke-width: 0.200000"/>
   <line x1="952.716736" y1="1086.671631" x2="938.812378" y2="1086.671631" style="stroke: green; stroke-width: 0.200000"/>
   <line x1="952.716736" y1="1085.671631" x2="938.169250" y2="1085.671631" style="stroke: green; stroke-width: 0.200000"/>
   <line x1="952.716736" y1="1084.671753" x2="938.493286" y2="1084.671753" style="stroke: green; stroke-width: 0.200000"/>
   <line x1="952.716736" y1="1083.671753" x2="938.817200" y2="1083.671753" style="stroke: green; stroke-width: 0.200000"/>
   <line x1="952.716736" y1="1082.671753" x2="939.141174" y2="1082.671753" style="stroke: green; stroke-width: 0.200000"/>
   <line x1="952.716736" y1="1081.671631" x2="939.465088" y2="1081.671631" style="stroke: green; stroke-width: 0.200000"/>
   <line x1="950.038086" y1="1080.671631" x2="939.789124" y2="1080.671631" style="stroke: green; stroke-width: 0.200000"/>
   <line x1="946.609863" y1="1079.671753" x2="940.113037" y2="1079.671753" style="stroke: green; stroke-width: 0.200000"/>
   <line x1="943.181763" y1="1078.671753" x2="940.437073" y2="1078.671753" style="stroke: green; stroke-width: 0.200000"/>
   <line x1="916.491638" y1="1069.671753" x2="914.422241" y2="1069.671753" style="stroke: green; stroke-width: 0.200000"/>
   <line x1="917.985535" y1="1068.671753" x2="913.433594" y2="1068.671753" style="stroke: green; stroke-width: 0.200000"/>
   <line x1="919.479431" y1="1067.671753" x2="912.455994" y2="1067.671753" style="stroke: green; stroke-width: 0.200000"/>
   <line x1="965.099426" y1="1092.671753" x2="956.444824" y2="1092.671753" style="stroke: green; stroke-width: 0.200000"/>
   <line x1="968.217224" y1="1091.671631" x2="952.816772" y2="1091.671631" style="stroke: green; stroke-width: 0.200000"/>
   <line x1="970.517639" y1="1090.671631" x2="952.816772" y2="1090.671631" style="stroke: green; stroke-width: 0.200000"/>
   <line x1="972.731567" y1="1089.671753" x2="952.816772" y2="1089.671753" style="stroke: green; stroke-width: 0.200000"/>
   <line x1="974.398315" y1="1088.671753" x2="952.816772" y2="1088.671753" style="stroke: green; stroke-width: 0.200000"/>
   <line x1="976.065186" y1="1087.671753" x2="952.816772" y2="1087.671753" style="stroke: green; stroke-width: 0.200000"/>
   <line x1="977.731995" y1="1086.671631" x2="952.816772" y2="1086.671631" style="stroke: green; stroke-width: 0.200000"/>
   <line x1="979.295105" y1="1085.671631" x2="952.816772" y2="1085.671631" style="stroke: green; stroke-width: 0.200000"/>
   <line x1="980.633240" y1="1084.671753" x2="952.816772" y2="1084.671753" style="stroke: green; stroke-width: 0.200000"/>
   <line x1="981.953491" y1="1083.671753" x2="952.816772" y2="1083.671753" style="stroke: green; stroke-width: 0.200000"/>
   <line x1="983.273682" y1="1082.671753" x2="952.816772" y2="1082.671753" style="stroke: green; stroke-width: 0.200000"/>
   <line x1="984.584106" y1="1081.671631" x2="958.945618" y2="1081.671631" style="stroke: green; stroke-width: 0.200000"/>
   <line x1="954.423279" y1="1081.671631" x2="952.816772" y2="1081.671631" style="stroke: green; stroke-width: 0.200000"/>
   <line x1="985.735840" y1="1080.671631" x2="962.175354" y2="1080.671631" style="stroke: green; stroke-width: 0.200000"/>
   <line x1="986.819092" y1="1079.671753" x2="964.287354" y2="1079.671753" style="stroke: green; stroke-width: 0.200000"/>
   <line x1="987.902283" y1="1078.671753" x2="966.365295" y2="1078.671753" style="stroke: green; stroke-width: 0.200000"/>
   <line x1="988.985535" y1="1077.671753" x2="968.117432" y2="1077.671753" style="stroke: green; stroke-width: 0.200000"/>
   <line x1="990.081238" y1="1076.671631" x2="969.690796" y2="1076.671631" style="stroke: green; stroke-width: 0.200000"/>
   <line x1="991.146790" y1="1075.671631" x2="971.238464" y2="1075.671631" style="stroke: green; stroke-width: 0.200000"/>
   <line x1="991.915588" y1="1074.671753" x2="972.592224" y2="1074.671753" style="stroke: green; stroke-width: 0.200000"/>
   <line x1="992.611694" y1="1073.671753" x2="973.901428" y2="1073.671753" style="stroke: green; stroke-width: 0.200000"/>
   <line x1="993.093933" y1="1072.671753" x2="975.150757" y2="1072.671753" style="stroke: green; stroke-width: 0.200000"/>
   <line x1="993.411560" y1="1071.671631" x2="976.294617" y2="1071.671631" style="stroke: green; stroke-width: 0.200000"/>
   <line x1="993.673706" y1="1070.671631" x2="977.377197" y2="1070.671631" style="stroke: green; stroke-width: 0.200000"/>
   <line x1="993.693481" y1="1069.671753" x2="978.445435" y2="1069.671753" style="stroke: green; stroke-width: 0.200000"/>
   <line x1="993.685791" y1="1068.671753" x2="979.442810" y2="1068.671753" style="stroke: green; stroke-width: 0.200000"/>
   <line x1="993.663879" y1="1067.671753" x2="980.440125" y2="1067.671753" style="stroke: green; stroke-width: 0.200000"/>
   <line x1="1019.521118" y1="960.974670" x2="1007.409424" y2="960.974670" style="stroke: green; stroke-width: 0.200000"/>
   <line x1="1019.028809" y1="959.974609" x2="1007.018066" y2="959.974609" style="stroke: green; stroke-width: 0.200000"/>
   <line x1="1018.536499" y1="958.974609" x2="1006.626648" y2="958.974609" style="stroke: green; stroke-width: 0.200000"/>
   <line x1="1018.069214" y1="957.974609" x2="1006.213684" y2="957.974609" style="stroke: green; stroke-width: 0.200000"/>
   <line x1="1017.610718" y1="956.974609" x2="1005.818359" y2="956.974609" style="stroke: green; stroke-width: 0.200000"/>
   <line x1="1017.188232" y1="955.974670" x2="1005.476379" y2="955.974670" style="stroke: green; stroke-width: 0.200000"/>
   <line x1="1016.796875" y1="954.974609" x2="1005.134399" y2="954.974609" style="stroke: green; stroke-width: 0.200000"/>
   <line x1="1016.394531" y1="953.974609" x2="1004.794312" y2="953.974609" style="stroke: green; stroke-width: 0.200000"/>
   <line x1="1015.980530" y1="952.974609" x2="1004.505005" y2="952.974609" style="stroke: green; stroke-width: 0.200000"/>
   <line x1="1015.566528" y1="951.974609" x2="1004.215637" y2="951.974609" style="stroke: green; stroke-width: 0.200000"/>
   <line x1="1015.223938" y1="950.974670" x2="1003.944580" y2="950.974670" style="stroke: green; stroke-width: 0.200000"/>
   <line x1="1014.881958" y1="949.974609" x2="1003.678101" y2="949.974609" style="stroke: green; stroke-width: 0.200000"/>
   <line x1="1014.540100" y1="948.974609" x2="1003.411743" y2="948.974609" style="stroke: green; stroke-width: 0.200000"/>
   <line x1="1014.200928" y1="947.974609" x2="1003.145264" y2="947.974609" style="stroke: green; stroke-width: 0.200000"/>
   <line x1="1013.996277" y1="946.974609" x2="1002.912354" y2="946.974609" style="stroke: green; stroke-width: 0.200000"/>
   <line x1="1013.791138" y1="945.974670" x2="1002.769531" y2="945.974670" style="stroke: green; stroke-width: 0.200000"/>
   <line x1="1013.627380" y1="944.974609" x2="1002.626648" y2="944.974609" style="stroke: green; stroke-width: 0.200000"/>
   <line x1="1013.578430" y1="943.974609" x2="1002.494568" y2="943.974609" style="stroke: green; stroke-width: 0.200000"/>
   <line x1="1013.704224" y1="942.974609" x2="1002.418152" y2="942.974609" style="stroke: green; stroke-width: 0.200000"/>
   <line x1="1014.162476" y1="941.974609" x2="1002.450928" y2="941.974609" style="stroke: green; stroke-width: 0.200000"/>
   <line x1="1014.901855" y1="940.974670" x2="1002.470154" y2="940.974670" style="stroke: green; stroke-width: 0.200000"/>
   <line x1="1015.680786" y1="939.974609" x2="1002.489319" y2="939.974609" style="stroke: green; stroke-width: 0.200000"/>
   <line x1="1016.449280" y1="938.974609" x2="1002.734436" y2="938.974609" style="stroke: green; stroke-width: 0.200000"/>
   <line x1="1017.217285" y1="937.974609" x2="1003.034668" y2="937.974609" style="stroke: green; stroke-width: 0.200000"/>
   <line x1="1017.985291" y1="936.974609" x2="1003.376953" y2="936.974609" style="stroke: green; stroke-width: 0.200000"/>
   <line x1="1018.798523" y1="935.974670" x2="1003.952026" y2="935.974670" style="stroke: green; stroke-width: 0.200000"/>
   <line x1="1019.773865" y1="934.974609" x2="1004.488159" y2="934.974609" style="stroke: green; stroke-width: 0.200000"/>
   <line x1="1020.737244" y1="933.974609" x2="1005.207458" y2="933.974609" style="stroke: green; stroke-width: 0.200000"/>
   <line x1="1021.698975" y1="932.974609" x2="1006.030823" y2="932.974609" style="stroke: green; stroke-width: 0.200000"/>
   <line x1="1022.660767" y1="931.974609" x2="1006.903748" y2="931.974609" style="stroke: green; stroke-width: 0.200000"/>
   <line x1="1023.622498" y1="930.974670" x2="1007.715576" y2="930.974670" style="stroke: green; stroke-width: 0.200000"/>
   <line x1="1024.843018" y1="929.974609" x2="1008.514282" y2="929.974609" style="stroke: green; stroke-width: 0.200000"/>
   <line x1="1026.160645" y1="928.974609" x2="1009.312866" y2="928.974609" style="stroke: green; stroke-width: 0.200000"/>
   <line x1="1027.478027" y1="927.974609" x2="1010.131165" y2="927.974609" style="stroke: green; stroke-width: 0.200000"/>
   <line x1="1050.286011" y1="927.974609" x2="1048.229492" y2="927.974609" style="stroke: green; stroke-width: 0.200000"/>
   <line x1="1050.815674" y1="926.974609" x2="1046.103760" y2="926.974609" style="stroke: green; stroke-width: 0.200000"/>
   <line x1="1028.806763" y1="926.974609" x2="1011.015930" y2="926.974609" style="stroke: green; stroke-width: 0.200000"/>
   <line x1="1051.345337" y1="925.974670" x2="1043.978149" y2="925.974670" style="stroke: green; stroke-width: 0.200000"/>
   <line x1="1030.318115" y1="925.974670" x2="1011.900696" y2="925.974670" style="stroke: green; stroke-width: 0.200000"/>
   <line x1="1051.875000" y1="924.974609" x2="1041.852905" y2="924.974609" style="stroke: green; stroke-width: 0.200000"/>
   <line x1="1032.249146" y1="924.974609" x2="1012.820312" y2="924.974609" style="stroke: green; stroke-width: 0.200000"/>
   <line x1="1034.180176" y1="923.974609" x2="1013.792053" y2="923.974609" style="stroke: green; stroke-width: 0.200000"/>
   <line x1="1052.404663" y1="923.974609" x2="1039.727539" y2="923.974609" style="stroke: green; stroke-width: 0.200000"/>
   <line x1="1052.407104" y1="922.974609" x2="1014.788879" y2="922.974609" style="stroke: green; stroke-width: 0.200000"/>
   <line x1="1052.407104" y1="921.974609" x2="1015.971924" y2="921.974609" style="stroke: green; stroke-width: 0.200000"/>
   <line x1="1052.407104" y1="920.974670" x2="1017.154907" y2="920.974670" style="stroke: green; stroke-width: 0.200000"/>
   <line x1="1051.587036" y1="919.974609" x2="1018.346680" y2="919.974609" style="stroke: green; stroke-width: 0.200000"/>
   <line x1="1050.364868" y1="918.974609" x2="1019.632507" y2="918.974609" style="stroke: green; stroke-width: 0.200000"/>
   <line x1="1048.979248" y1="917.974609" x2="1020.918274" y2="917.974609" style="stroke: green; stroke-width: 0.200000"/>
   <line x1="1047.572632" y1="916.974609" x2="1022.128845" y2="916.974609" style="stroke: green; stroke-width: 0.200000"/>
   <line x1="1046.066772" y1="915.974670" x2="1023.843323" y2="915.974670" style="stroke: green; stroke-width: 0.200000"/>
   <line x1="1044.377319" y1="914.974609" x2="1025.582031" y2="914.974609" style="stroke: green; stroke-width: 0.200000"/>
   <line x1="1042.552124" y1="913.974609" x2="1027.345947" y2="913.974609" style="stroke: green; stroke-width: 0.200000"/>
   <line x1="1040.244385" y1="912.974609" x2="1029.109863" y2="912.974609" style="stroke: green; stroke-width: 0.200000"/>
   <line x1="1037.098145" y1="911.974609" x2="1031.285034" y2="911.974609" style="stroke: green; stroke-width: 0.200000"/>
   <line x1="1085.392944" y1="960.974670" x2="1075.177734" y2="960.974670" style="stroke: green; stroke-width: 0.200000"/>
   <line x1="1084.881104" y1="959.974609" x2="1074.818359" y2="959.974609" style="stroke: green; stroke-width: 0.200000"/>
   <line x1="1084.369385" y1="958.974609" x2="1074.458862" y2="958.974609" style="stroke: green; stroke-width: 0.200000"/>
   <line x1="1083.788208" y1="957.974609" x2="1074.915161" y2="957.974609" style="stroke: green; stroke-width: 0.200000"/>
   <line x1="1083.189575" y1="956.974609" x2="1077.307495" y2="956.974609" style="stroke: green; stroke-width: 0.200000"/>
   <line x1="1082.566772" y1="955.974670" x2="1079.699829" y2="955.974670" style="stroke: green; stroke-width: 0.200000"/>
   <line x1="1052.934326" y1="922.974609" x2="1052.507080" y2="922.974609" style="stroke: green; stroke-width: 0.200000"/>
   <line x1="1053.464111" y1="921.974609" x2="1052.507080" y2="921.974609" style="stroke: green; stroke-width: 0.200000"/>
   <line x1="1052.809204" y1="920.974670" x2="1052.507080" y2="920.974670" style="stroke: green; stroke-width: 0.200000"/>
   <line x1="1052.407104" y1="1005.974670" x2="1050.632080" y2="1005.974670" style="stroke: green; stroke-width: 0.200000"/>
   <line x1="1052.407104" y1="1004.974609" x2="1048.456543" y2="1004.974609" style="stroke: green; stroke-width: 0.200000"/>
   <line x1="1052.407104" y1="1003.974609" x2="1046.551025" y2="1003.974609" style="stroke: green; stroke-width: 0.200000"/>
   <line x1="1052.407104" y1="1002.974609" x2="1044.697266" y2="1002.974609" style="stroke: green; stroke-width: 0.200000"/>
   <line x1="1052.407104" y1="1001.974609" x2="1042.916504" y2="1001.974609" style="stroke: green; stroke-width: 0.200000"/>
   <line x1="1052.407104" y1="1000.974670" x2="1041.372925" y2="1000.974670" style="stroke: green; stroke-width: 0.200000"/>
   <line x1="1052.407104" y1="999.974609" x2="1039.840332" y2="999.974609" style="stroke: green; stroke-width: 0.200000"/>
   <line x1="1052.407104" y1="998.974609" x2="1038.307617" y2="998.974609" style="stroke: green; stroke-width: 0.200000"/>
   <line x1="1052.407104" y1="997.974609" x2="1036.769531" y2="997.974609" style="stroke: green; stroke-width: 0.200000"/>
   <line x1="1052.407104" y1="996.974609" x2="1035.445679" y2="996.974609" style="stroke: green; stroke-width: 0.200000"/>
   <line x1="1052.407104" y1="995.974670" x2="1034.121826" y2="995.974670" style="stroke: green; stroke-width: 0.200000"/>
   <line x1="1052.407104" y1="994.974609" x2="1032.889282" y2="994.974609" style="stroke: green; stroke-width: 0.200000"/>
   <line x1="1051.203735" y1="993.974609" x2="1031.725220" y2="993.974609" style="stroke: green; stroke-width: 0.200000"/>
   <line x1="1049.430298" y1="992.974609" x2="1030.561279" y2="992.974609" style="stroke: green; stroke-width: 0.200000"/>
   <line x1="1047.867065" y1="991.974609" x2="1029.397217" y2="991.974609" style="stroke: green; stroke-width: 0.200000"/>
   <line x1="1046.310547" y1="990.974670" x2="1028.278687" y2="990.974670" style="stroke: green; stroke-width: 0.200000"/>
   <line x1="1044.708740" y1="989.974609" x2="1027.302124" y2="989.974609" style="stroke: green; stroke-width: 0.200000"/>
   <line x1="1043.284302" y1="988.974609" x2="1026.307129" y2="988.974609" style="stroke: green; stroke-width: 0.200000"/>
   <line x1="1041.967651" y1="987.974609" x2="1025.312012" y2="987.974609" style="stroke: green; stroke-width: 0.200000"/>
   <line x1="1040.650879" y1="986.974609" x2="1024.317017" y2="986.974609" style="stroke: green; stroke-width: 0.200000"/>
   <line x1="1039.469482" y1="985.974670" x2="1023.336304" y2="985.974670" style="stroke: green; stroke-width: 0.200000"/>
   <line x1="1038.298096" y1="984.974609" x2="1022.477173" y2="984.974609" style="stroke: green; stroke-width: 0.200000"/>
   <line x1="1037.126587" y1="983.974609" x2="1021.624756" y2="983.974609" style="stroke: green; stroke-width: 0.200000"/>
   <line x1="1035.955322" y1="982.974609" x2="1020.772217" y2="982.974609" style="stroke: green; stroke-width: 0.200000"/>
   <line x1="1034.915283" y1="981.974609" x2="1019.919800" y2="981.974609" style="stroke: green; stroke-width: 0.200000"/>
   <line x1="1033.918701" y1="980.974670" x2="1019.067322" y2="980.974670" style="stroke: green; stroke-width: 0.200000"/>
   <line x1="1032.922241" y1="979.974609" x2="1018.302551" y2="979.974609" style="stroke: green; stroke-width: 0.200000"/>
   <line x1="1031.925659" y1="978.974609" x2="1017.566406" y2="978.974609" style="stroke: green; stroke-width: 0.200000"/>
   <line x1="1030.988770" y1="977.974609" x2="1016.830322" y2="977.974609" style="stroke: green; stroke-width: 0.200000"/>
   <line x1="1030.141357" y1="976.974609" x2="1016.094238" y2="976.974609" style="stroke: green; stroke-width: 0.200000"/>
   <line x1="1029.293945" y1="975.974670" x2="1015.358154" y2="975.974670" style="stroke: green; stroke-width: 0.200000"/>
   <line x1="1028.446533" y1="974.974609" x2="1014.641052" y2="974.974609" style="stroke: green; stroke-width: 0.200000"/>
   <line x1="1027.599121" y1="973.974609" x2="1014.019531" y2="973.974609" style="stroke: green; stroke-width: 0.200000"/>
   <line x1="1026.862305" y1="972.974609" x2="1013.412598" y2="972.974609" style="stroke: green; stroke-width: 0.200000"/>
   <line x1="1026.146362" y1="971.974609" x2="1012.818542" y2="971.974609" style="stroke: green; stroke-width: 0.200000"/>
   <line x1="1025.430298" y1="970.974670" x2="1012.224426" y2="970.974670" style="stroke: green; stroke-width: 0.200000"/>
   <line x1="1024.714233" y1="969.974609" x2="1011.630249" y2="969.974609" style="stroke: green; stroke-width: 0.200000"/>
   <line x1="1024.025757" y1="968.974609" x2="1011.114868" y2="968.974609" style="stroke: green; stroke-width: 0.200000"/>
   <line x1="1023.433350" y1="967.974609" x2="1010.621887" y2="967.974609" style="stroke: green; stroke-width: 0.200000"/>
   <line x1="1022.855713" y1="966.974609" x2="1010.128845" y2="966.974609" style="stroke: green; stroke-width: 0.200000"/>
   <line x1="1022.261597" y1="965.974670" x2="1009.635864" y2="965.974670" style="stroke: green; stroke-width: 0.200000"/>
   <line x1="1021.667419" y1="964.974609" x2="1009.142822" y2="964.974609" style="stroke: green; stroke-width: 0.200000"/>
   <line x1="1021.073303" y1="963.974609" x2="1008.654846" y2="963.974609" style="stroke: green; stroke-width: 0.200000"/>
   <line x1="1020.515869" y1="962.974609" x2="1008.196411" y2="962.974609" style="stroke: green; stroke-width: 0.200000"/>
   <line x1="1020.013977" y1="961.974609" x2="1007.800842" y2="961.974609" style="stroke: green; stroke-width: 0.200000"/>
   <line x1="1065.254028" y1="1008.974609" x2="1059.067871" y2="1008.974609" style="stroke: green; stroke-width: 0.200000"/>
   <line x1="1067.752686" y1="1007.974609" x2="1055.663452" y2="1007.974609" style="stroke: green; stroke-width: 0.200000"/>
   <line x1="1069.290771" y1="1006.974609" x2="1052.906250" y2="1006.974609" style="stroke: green; stroke-width: 0.200000"/>
   <line x1="1070.599609" y1="1005.974670" x2="1052.507080" y2="1005.974670" style="stroke: green; stroke-width: 0.200000"/>
   <line x1="1071.908569" y1="1004.974609" x2="1052.507080" y2="1004.974609" style="stroke: green; stroke-width: 0.200000"/>
   <line x1="1073.217529" y1="1003.974609" x2="1052.507080" y2="1003.974609" style="stroke: green; stroke-width: 0.200000"/>
   <line x1="1074.526367" y1="1002.974609" x2="1052.507080" y2="1002.974609" style="stroke: green; stroke-width: 0.200000"/>
   <line x1="1075.635864" y1="1001.974609" x2="1052.507080" y2="1001.974609" style="stroke: green; stroke-width: 0.200000"/>
   <line x1="1076.664795" y1="1000.974670" x2="1052.507080" y2="1000.974670" style="stroke: green; stroke-width: 0.200000"/>
   <line x1="1077.693848" y1="999.974609" x2="1052.507080" y2="999.974609" style="stroke: green; stroke-width: 0.200000"/>
   <line x1="1078.722778" y1="998.974609" x2="1052.507080" y2="998.974609" style="stroke: green; stroke-width: 0.200000"/>
   <line x1="1079.751831" y1="997.974609" x2="1052.507080" y2="997.974609" style="stroke: green; stroke-width: 0.200000"/>
   <line x1="1080.781982" y1="996.974609" x2="1061.538208" y2="996.974609" style="stroke: green; stroke-width: 0.200000"/>
   <line x1="1057.607666" y1="996.974609" x2="1052.507080" y2="996.974609" style="stroke: green; stroke-width: 0.200000"/>
   <line x1="1081.624390" y1="995.974670" x2="1062.792236" y2="995.974670" style="stroke: green; stroke-width: 0.200000"/>
   <line x1="1055.103394" y1="995.974670" x2="1052.507080" y2="995.974670" style="stroke: green; stroke-width: 0.200000"/>
   <line x1="1082.394531" y1="994.974609" x2="1064.046143" y2="994.974609" style="stroke: green; stroke-width: 0.200000"/>
   <line x1="1052.993164" y1="994.974609" x2="1052.507080" y2="994.974609" style="stroke: green; stroke-width: 0.200000"/>
   <line x1="1083.164551" y1="993.974609" x2="1065.300171" y2="993.974609" style="stroke: green; stroke-width: 0.200000"/>
   <line x1="1083.934570" y1="992.974609" x2="1066.516479" y2="992.974609" style="stroke: green; stroke-width: 0.200000"/>
   <line x1="1084.704712" y1="991.974609" x2="1067.545410" y2="991.974609" style="stroke: green; stroke-width: 0.200000"/>
   <line x1="1085.474854" y1="990.974670" x2="1068.574463" y2="990.974670" style="stroke: green; stroke-width: 0.200000"/>
   <line x1="1086.231689" y1="989.974609" x2="1069.721924" y2="989.974609" style="stroke: green; stroke-width: 0.200000"/>
   <line x1="1086.814209" y1="988.974609" x2="1070.909180" y2="988.974609" style="stroke: green; stroke-width: 0.200000"/>
   <line x1="1087.396729" y1="987.974609" x2="1072.010254" y2="987.974609" style="stroke: green; stroke-width: 0.200000"/>
   <line x1="1087.979126" y1="986.974609" x2="1072.759033" y2="986.974609" style="stroke: green; stroke-width: 0.200000"/>
   <line x1="1088.561646" y1="985.974670" x2="1073.507935" y2="985.974670" style="stroke: green; stroke-width: 0.200000"/>
   <line x1="1089.144165" y1="984.974609" x2="1074.256714" y2="984.974609" style="stroke: green; stroke-width: 0.200000"/>
   <line x1="1089.698975" y1="983.974609" x2="1075.005615" y2="983.974609" style="stroke: green; stroke-width: 0.200000"/>
   <line x1="1090.056030" y1="982.974609" x2="1075.758911" y2="982.974609" style="stroke: green; stroke-width: 0.200000"/>
   <line x1="1090.360352" y1="981.974609" x2="1076.438721" y2="981.974609" style="stroke: green; stroke-width: 0.200000"/>
   <line x1="1090.554321" y1="980.974670" x2="1076.971924" y2="980.974670" style="stroke: green; stroke-width: 0.200000"/>
   <line x1="1090.700195" y1="979.974609" x2="1077.505127" y2="979.974609" style="stroke: green; stroke-width: 0.200000"/>
   <line x1="1090.763550" y1="978.974609" x2="1078.038452" y2="978.974609" style="stroke: green; stroke-width: 0.200000"/>
   <line x1="1090.810669" y1="977.974609" x2="1078.571655" y2="977.974609" style="stroke: green; stroke-width: 0.200000"/>
   <line x1="1090.747314" y1="976.974609" x2="1079.115967" y2="976.974609" style="stroke: green; stroke-width: 0.200000"/>
   <line x1="1090.613770" y1="975.974670" x2="1079.299683" y2="975.974670" style="stroke: green; stroke-width: 0.200000"/>
   <line x1="1090.452148" y1="974.974609" x2="1079.179932" y2="974.974609" style="stroke: green; stroke-width: 0.200000"/>
   <line x1="1090.244141" y1="973.974609" x2="1079.189453" y2="973.974609" style="stroke: green; stroke-width: 0.200000"/>
   <line x1="1090.027588" y1="972.974609" x2="1079.045532" y2="972.974609" style="stroke: green; stroke-width: 0.200000"/>
   <line x1="1089.761719" y1="971.974609" x2="1078.910034" y2="971.974609" style="stroke: green; stroke-width: 0.200000"/>
   <line x1="1089.495972" y1="970.974670" x2="1078.759277" y2="970.974670" style="stroke: green; stroke-width: 0.200000"/>
   <line x1="1089.217529" y1="969.974609" x2="1078.414429" y2="969.974609" style="stroke: green; stroke-width: 0.200000"/>
   <line x1="1088.901733" y1="968.974609" x2="1078.053711" y2="968.974609" style="stroke: green; stroke-width: 0.200000"/>
   <line x1="1088.545166" y1="967.974609" x2="1077.694214" y2="967.974609" style="stroke: green; stroke-width: 0.200000"/>
   <line x1="1088.188599" y1="966.974609" x2="1077.334717" y2="966.974609" style="stroke: green; stroke-width: 0.200000"/>
   <line x1="1087.793579" y1="965.974670" x2="1076.975220" y2="965.974670" style="stroke: green; stroke-width: 0.200000"/>
   <line x1="1087.358032" y1="964.974609" x2="1076.615723" y2="964.974609" style="stroke: green; stroke-width: 0.200000"/>
   <line x1="1086.899658" y1="963.974609" x2="1076.256226" y2="963.974609" style="stroke: green; stroke-width: 0.200000"/>
   <line x1="1086.416504" y1="962.974609" x2="1075.896729" y2="962.974609" style="stroke: green; stroke-width: 0.200000"/>
   <line x1="1085.904663" y1="961.974609" x2="1075.537231" y2="961.974609" style="stroke: green; stroke-width: 0.200000"/>
   <line x1="980.955933" y1="1066.905029" x2="980.955566" y2="1066.905029" style="stroke: green; stroke-width: 0.200000"/>
   <path d="M 934.584  1015.81  935.243  1015.89  935.551  1015.94  941.755  1017.5  943.757  1018.08  946.316  1018.94  949.973  1020.27  951.587  1020.92  957.253  1023.68  961.527  1026.3  962.861  1027.14  968.063  1031  968.57  1031.4  973.099  1035.25  974.068  1036.13  978.037  1039.97  979.015  1040.99  982.765  1045.13  983.887  1046.47  986.077  1049.27  988.639  1053.13  990.198  1055.4  991.545  1057.94  992.897  1060.58  993.854  1062.72  994.129  1063.45  994.943  1066.36  995.159  1067.43  995.2  1069.33  995.169  1070.9  994.856  1072.08  994.281  1073.89  993.415  1075.15  992.635  1076.24  991.947  1077.04  990.876  1077.97  986.63  1081.89  985.457  1082.9  980.465  1086.68  979.548  1087.33  973.104  1091.2  969.05  1092.93  968.291  1093.32  967.375  1093.69  966.534  1093.85  964.328  1094.42  963.95  1094.49  962.391  1094.63  960.113  1094.61  959.293  1094.54  956.647  1094.21  954.774  1093.96  954.158  1093.82  952.613  1093.54  951.05  1093.09  948.692  1092.31  946.831  1091.72  943.957  1090.7  942.01  1089.83  939.468  1088.63  936.291  1087.16  936.003  1087.02  932.13  1084.76  928.636  1082.76  925.074  1080.31  921.721  1077.99  919.87  1076.47  915.182  1072.57  911.6  1068.95  909.05  1066.24  907.658  1064.5  906.207  1062.54  905.18  1060.97  904.572  1059.95  903.907  1058.68  902.883  1056.55  902.435  1055.48  902.194  1054.68  901.604  1052.98  901.521  1052.65  901.258  1050.79  901.215  1048.84  901.426  1047.08  901.609  1046.23  901.849  1045.6  904.443  1040.07  904.925  1039.21  905.502  1038.03  910.506  1030.64  916.289  1024.05  919.749  1020.76  922.39  1018.35  923.312  1017.73  924.926  1016.76  927.917  1015.76  930.792  1015.45  931.374  1015.43  934.584  1015.81  " style="fill: none; stroke: red; stroke-width: 0.200000; fill-type: evenodd"  fill-opacity="1.000000" />
   <path d="M 947.039  1090.73  944.328  1089.77  942.427  1088.92  939.892  1087.72  936.721  1086.26  936.475  1086.14  932.63  1083.9  929.169  1081.91  925.642  1079.49  922.323  1077.19  920.507  1075.7  915.859  1071.84  912.32  1068.26  909.806  1065.59  908.451  1063.89  908.02  1063.31  " style="fill: none; stroke: black; stroke-width: 0.200000; fill-type: evenodd"  fill-opacity="1.000000" />
   <path d="M 908.02  1063.31  907.028  1061.97  906.029  1060.44  905.446  1059.46  904.801  1058.23  903.795  1056.14  903.377  1055.14  903.145  1054.37  902.563  1052.69  902.504  1052.46  902.257  1050.71  902.216  1048.89  902.413  1047.25  902.571  1046.52  902.771  1045.99  905.333  1040.53  905.811  1039.67  906.369  1038.53  911.299  1031.25  917.011  1024.75  920.431  1021.49  923.009  1019.14  923.848  1018.57  925.347  1017.67  928.131  1016.75  930.865  1016.45  931.335  1016.43  934.465  1016.8  935.09  1016.87  935.336  1016.92  941.494  1018.47  943.46  1019.04  945.986  1019.88  949.616  1021.21  951.183  1021.83  956.772  1024.55  960.999  1027.15  962.296  1027.97  967.455  1031.79  967.935  1032.17  972.438  1036  973.383  1036.86  977.328  1040.67  978.283  1041.67  982.01  1045.79  983.109  1047.1  985.265  1049.86  987.81  1053.69  989.341  1055.92  990.658  1058.41  991.995  1061.01  992.928  1063.1  993.178  1063.76  993.97  1066.59  994.161  1067.54  994.2  1069.33  994.172  1070.76  993.896  1071.8  993.373  1073.44  992.596  1074.58  991.849  1075.62  991.238  1076.33  990.209  1077.22  985.964  1081.14  984.828  1082.12  979.873  1085.87  979.001  1086.49  972.649  1090.3  968.624  1092.02  967.875  1092.41  967.091  1092.73  966.315  1092.87  964.11  1093.44  963.811  1093.5  962.351  1093.63  960.158  1093.61  959.393  1093.55  956.776  1093.22  954.947  1092.97  954.354  1092.84  952.842  1092.56  951.345  1092.14  949  1091.36  947.15  1090.77  947.039  1090.73  " style="fill: none; stroke: red; stroke-width: 0.200000; fill-type: evenodd"  fill-opacity="1.000000" />
   <path d="M 1034.94  910.154  1037  910.413  1038.48  910.753  1039.27  910.989  1041.79  911.966  1043.54  912.779  1044.25  913.155  1047.34  914.985  1047.81  915.301  1051.14  917.668  1054.46  920.389  1055.76  921.527  1059.29  924.826  1060.56  926.042  1063.48  929.075  1066.13  931.881  1071.39  937.919  1074.08  941.284  1076.4  944.226  1081.18  950.908  1084.64  956.469  1085.63  958.142  1087.82  962.434  1088.52  963.876  1089.4  965.909  1090.5  968.978  1090.9  970.402  1091.53  972.777  1092.01  975.097  1092.27  977.068  1092.32  978.143  1092.17  980.534  1091.75  982.71  1091.57  983.155  1091.06  984.617  1090.81  985.095  1087.44  990.884  1082.08  997.845  1081.78  998.095  1075.88  1003.82  1069.25  1008.89  1066.54  1010.28  1063.24  1010.83  1059.46  1010.6  1057.92  1010.25  1055.23  1009.41  1052.49  1008.43  1051  1007.79  1047.44  1006.16  1043.81  1004.2  1042.06  1003.21  1036.84  999.809  1036.05  999.312  1032.61  996.714  1027.81  992.592  1027.06  991.886  1026.55  991.35  1022.49  987.267  1022.14  986.896  1017.68  981.66  1013.5  975.982  1012.45  974.289  1010.18  970.469  1007.37  964.763  1006.79  963.498  1005.22  959.488  1004.5  957.763  1003.37  954.46  1002.71  952.173  1001.48  947.546  1001.09  944.857  1000.9  943.354  1000.95  942.098  1000.99  939.695  1001.13  939.088  1001.9  936.53  1002.88  934.831  1003.32  933.963  1004.44  932.516  1005.91  930.836  1008.78  927.237  1011.33  924.355  1013.62  921.996  1017.29  918.895  1020.2  916.632  1021.25  915.751  1023.97  914.165  1029.91  910.8  1030.02  910.848  1031.29  910.368  1033.03  910.138  1034.94  910.154  " style="fill: none; stroke: red; stroke-width: 0.200000; fill-type: evenodd"  fill-opacity="1.000000" />
   <path d="M 1045.74  915.199  1046.8  915.83  1047.24  916.123  1050.53  918.463  1053.82  921.152  1055.09  922.269  1058.6  925.552  1059.85  926.75  1062.75  929.766  1065.39  932.553  1070.62  938.56  1073.29  941.906  1075.6  944.827  1080.35  951.464  1083.79  956.987  1084.75  958.625  1086.93  962.878  1087.29  963.638  " style="fill: none; stroke: black; stroke-width: 0.200000; fill-type: evenodd"  fill-opacity="1.000000" />
   <path d="M 1087.29  963.638  1087.61  964.292  1088.47  966.278  1089.54  969.281  1089.93  970.666  1090.55  973.008  1091.02  975.265  1091.28  977.156  1091.32  978.133  1091.17  980.407  1090.78  982.43  1090.63  982.809  1090.14  984.216  1089.94  984.609  1086.61  990.325  1081.35  997.149  1081.11  997.353  1075.23  1003.07  1068.72  1008.04  1066.22  1009.32  1063.19  1009.83  1059.61  1009.61  1058.18  1009.28  1055.55  1008.47  1052.86  1007.5  1051.4  1006.88  1047.88  1005.26  1044.29  1003.32  1042.58  1002.36  1037.38  998.967  1036.62  998.489  1033.24  995.935  1028.48  991.846  1027.76  991.178  1027.27  990.655  1023.21  986.572  1022.89  986.229  1018.46  981.038  1014.33  975.421  1013.3  973.77  1011.06  969.992  1008.27  964.334  1007.71  963.107  1006.14  959.114  1005.44  957.409  1004.33  954.159  1003.68  951.906  1002.46  947.346  1002.09  944.723  1001.91  943.309  1001.95  942.125  1001.99  939.818  1002.1  939.344  1002.83  936.928  1003.76  935.307  1004.17  934.5  1005.21  933.152  1006.67  931.477  1009.55  927.881  1012.06  925.035  1014.31  922.728  1017.92  919.672  1020.83  917.41  1021.83  916.571  1024.47  915.032  1029.84  911.989  1031.54  911.345  1033.1  911.139  1034.88  911.154  1036.82  911.399  1038.23  911.72  1038.95  911.936  1041.4  912.886  1043.09  913.675  1043.76  914.027  1045.74  915.199  " style="fill: none; stroke: red; stroke-width: 0.200000; fill-type: evenodd"  fill-opacity="1.000000" />
   <path d="M 998.601  1107.23  999.333  1107.96  999.601  1108.96  999.333  1109.96  998.601  1110.7  997.601  1110.96  996.601  1110.7  995.869  1109.96  995.601  1108.96  995.869  1107.96  996.601  1107.23  997.601  1106.96  998.601  1107.23  " style="fill: none; stroke: purple; stroke-width: 0.500000; fill-type: evenodd"  fill-opacity="1.000000" />
   <path d="M 1018.6  1087.23  1019.33  1087.96  1019.6  1088.96  1019.33  1089.96  1018.6  1090.7  1017.6  1090.96  1016.6  1090.7  1015.87  1089.96  1015.6  1088.96  1015.87  1087.96  1016.6  1087.23  1017.6  1086.96  1018.6  1087.23  " style="fill: none; stroke: purple; stroke-width: 0.500000; fill-type: evenodd"  fill-opacity="1.000000" />
   <path d="M 1039.12  1066.77  1039.96  1067.73  1040.27  1068.96  1039.96  1070.2  1039.12  1071.16  1037.92  1071.61  1036.66  1071.46  1035.6  1070.73  1035.01  1069.6  1035.01  1068.33  1035.6  1067.2  1036.66  1066.47  1037.92  1066.32  1039.12  1066.77  " style="fill: none; stroke: purple; stroke-width: 0.500000; fill-type: evenodd"  fill-opacity="1.000000" />
   <path d="M 1018.6  1067.23  1019.33  1067.96  1019.6  1068.96  1019.33  1069.96  1018.6  1070.7  1017.6  1070.96  1016.68  1070.72  1016.71  1069.31  1016.66  1067.22  1017.6  1066.96  1018.6  1067.23  " style="fill: none; stroke: purple; stroke-width: 0.500000; fill-type: evenodd"  fill-opacity="1.000000" />
   <path d="M 1059.12  1046.77  1059.96  1047.73  1060.27  1048.96  1059.96  1050.2  1059.12  1051.16  1057.92  1051.61  1056.66  1051.46  1055.6  1050.73  1055.01  1049.6  1055.01  1048.33  1055.6  1047.2  1056.66  1046.47  1057.92  1046.32  1059.12  1046.77  " style="fill: none; stroke: purple; stroke-width: 0.500000; fill-type: evenodd"  fill-opacity="1.000000" />
   <path d="M 1018.6  1047.23  1019.33  1047.96  1019.6  1048.96  1019.33  1049.96  1018.6  1050.7  1017.6  1050.96  1016.6  1050.7  1015.87  1049.96  1015.6  1048.96  1015.87  1047.96  1016.6  1047.23  1017.6  1046.96  1018.6  1047.23  " style="fill: none; stroke: purple; stroke-width: 0.500000; fill-type: evenodd"  fill-opacity="1.000000" />
   <path d="M 1038.6  1047.23  1039.33  1047.96  1039.6  1048.96  1039.33  1049.96  1038.6  1050.7  1037.6  1050.96  1036.6  1050.7  1035.87  1049.96  1035.6  1048.96  1035.87  1047.96  1036.6  1047.23  1037.6  1046.96  1038.6  1047.23  " style="fill: none; stroke: purple; stroke-width: 0.500000; fill-type: evenodd"  fill-opacity="1.000000" />
   <path d="M 1098.76  1026.95  1099.61  1027.8  1099.92  1028.96  1099.61  1030.13  1098.76  1030.98  1097.6  1031.29  1096.44  1030.98  1095.59  1030.13  1095.28  1028.96  1095.59  1027.8  1096.44  1026.95  1097.6  1026.64  1098.76  1026.95  " style="fill: none; stroke: purple; stroke-width: 0.500000; fill-type: evenodd"  fill-opacity="1.000000" />
   <path d="M 1038.6  1027.23  1039.33  1027.96  1039.6  1028.96  1039.33  1029.96  1038.6  1030.7  1037.6  1030.96  1036.6  1030.7  1035.87  1029.96  1035.6  1028.96  1035.87  1027.96  1036.6  1027.23  1037.6  1026.96  1038.6  1027.23  " style="fill: none; stroke: purple; stroke-width: 0.500000; fill-type: evenodd"  fill-opacity="1.000000" />
   <path d="M 1079.33  1027.96  1079.6  1028.96  1079.33  1029.96  1078.6  1030.7  1077.6  1030.96  1076.6  1030.7  1075.87  1029.96  1075.8  1029.7  1079.28  1027.91  1079.33  1027.96  " style="fill: none; stroke: purple; stroke-width: 0.500000; fill-type: evenodd"  fill-opacity="1.000000" />
   <path d="M 898.601  1007.23  899.333  1007.96  899.601  1008.96  899.333  1009.96  898.601  1010.7  897.601  1010.96  896.601  1010.7  895.869  1009.96  895.601  1008.96  895.869  1007.96  896.601  1007.23  897.601  1006.96  898.601  1007.23  " style="fill: none; stroke: purple; stroke-width: 0.500000; fill-type: evenodd"  fill-opacity="1.000000" />
   <path d="M 938.849  986.802  939.763  987.716  940.098  988.965  939.763  990.213  938.849  991.127  937.601  991.462  936.352  991.127  935.438  990.213  935.104  988.965  935.438  987.716  936.352  986.802  937.601  986.468  938.849  986.802  " style="fill: none; stroke: purple; stroke-width: 0.500000; fill-type: evenodd"  fill-opacity="1.000000" />
   <path d="M 959.168  965.181  960.497  966.069  961.384  967.398  961.696  968.965  961.384  970.532  960.497  971.861  959.168  972.748  957.601  973.06  956.034  972.748  954.705  971.861  953.817  970.532  953.506  968.965  953.817  967.398  954.705  966.069  956.034  965.181  957.601  964.87  959.168  965.181  " style="fill: none; stroke: purple; stroke-width: 0.500000; fill-type: evenodd"  fill-opacity="1.000000" />
   <path d="M 978.762  946.954  979.612  947.804  979.923  948.965  979.612  950.126  978.762  950.976  977.601  951.287  976.44  950.976  975.59  950.126  975.279  948.965  975.59  947.804  976.44  946.954  977.601  946.643  978.762  946.954  " style="fill: none; stroke: purple; stroke-width: 0.500000; fill-type: evenodd"  fill-opacity="1.000000" />
   <path d="M 998.116  907.103  995.754  909.534  995.601  908.965  995.869  907.965  996.601  907.233  997.601  906.965  998.116  907.103  " style="fill: none; stroke: purple; stroke-width: 0.500000; fill-type: evenodd"  fill-opacity="1.000000" />
</svg>
