<?xml version="1.0" encoding="UTF-8" standalone="yes"?>
<!DOCTYPE svg PUBLIC "-//W3C//DTD SVG 1.0//EN" "http://www.w3.org/TR/2001/REC-SVG-20010904/DTD/svg10.dtd">
<svg height="2000" width="2000" xmlns="http://www.w3.org/2000/svg" xmlns:svg="http://www.w3.org/2000/svg" xmlns:xlink="http://www.w3.org/1999/xlink">
   <marker id="endArrow" markerHeight="8" markerUnits="strokeWidth" markerWidth="10" orient="auto" refX="1" refY="5" viewBox="0 0 1000 1000">
      <polyline fill="darkblue" points="0,0 10,5 0,10 1,5" />
   </marker>
   <circle cx="1000" cy="1000" r="1" style="stroke:black; fill: red" />
   <circle cx="1000" cy="1000" r="800" style="stroke:black; fill: none" />
   <path d="M 999.687  1101.18  1001.63  1101.98  1003.3  1103.27  1004.58  1104.93  1005.39  1106.88  1005.66  1108.96  1005.39  1111.05  1004.58  1113  1003.3  1114.66  1001.63  1115.95  999.687  1116.75  997.601  1117.03  995.515  1116.75  993.571  1115.95  991.901  1114.66  990.62  1113  989.815  1111.05  989.54  1108.96  989.815  1106.88  990.62  1104.93  991.901  1103.27  993.571  1101.98  995.515  1101.18  997.601  1100.9  999.687  1101.18  " style="fill: none; stroke: purple; stroke-width: 0.500000; fill-type: evenodd"  fill-opacity="1.000000" />
   <path d="M 1019.22  1081.16  1021.27  1081.88  1023.04  1083.14  1024.42  1084.82  1025.28  1086.81  1025.58  1088.96  1025.28  1091.12  1024.42  1093.11  1023.04  1094.79  1021.27  1096.05  1019.22  1096.77  1017.06  1096.92  1014.93  1096.48  1013  1095.48  1011.41  1094  1010.29  1092.14  1009.7  1090.05  1009.7  1087.88  1010.29  1085.79  1011.41  1083.93  1013  1082.45  1014.93  1081.45  1017.06  1081.01  1019.22  1081.16  " style="fill: none; stroke: purple; stroke-width: 0.500000; fill-type: evenodd"  fill-opacity="1.000000" />
   <path d="M 940.67  1082.24  942.44  1083.38  943.817  1084.97  944.69  1086.88  944.99  1088.96  944.69  1091.05  943.817  1092.96  942.44  1094.55  940.67  1095.69  938.652  1096.28  936.549  1096.28  934.531  1095.69  932.762  1094.55  931.385  1092.96  930.511  1091.05  930.212  1088.96  930.511  1086.88  931.385  1084.97  932.762  1083.38  934.531  1082.24  936.549  1081.65  938.652  1081.65  940.67  1082.24  " style="fill: none; stroke: purple; stroke-width: 0.500000; fill-type: evenodd"  fill-opacity="1.000000" />
   <path d="M 1000.67  1082.24  1002.44  1083.38  1003.82  1084.97  1004.69  1086.88  1004.99  1088.96  1004.69  1091.05  1003.82  1092.96  1002.44  1094.55  1000.67  1095.69  998.652  1096.28  996.549  1096.28  994.531  1095.69  992.762  1094.55  991.385  1092.96  990.511  1091.05  990.212  1088.96  990.511  1086.88  991.385  1084.97  992.762  1083.38  994.531  1082.24  996.549  1081.65  998.652  1081.65  1000.67  1082.24  " style="fill: none; stroke: purple; stroke-width: 0.500000; fill-type: evenodd"  fill-opacity="1.000000" />
   <path d="M 980.524  1082.56  982.209  1083.65  983.521  1085.16  984.353  1086.98  984.638  1088.96  984.353  1090.95  983.521  1092.77  982.209  1094.28  980.524  1095.37  978.602  1095.93  976.599  1095.93  974.678  1095.37  972.993  1094.28  971.681  1092.77  970.849  1090.95  970.564  1088.96  970.849  1086.98  971.681  1085.16  972.993  1083.65  974.678  1082.56  976.599  1082  978.602  1082  980.524  1082.56  " style="fill: none; stroke: purple; stroke-width: 0.500000; fill-type: evenodd"  fill-opacity="1.000000" />
   <path d="M 960.076  1082.66  961.825  1083.67  963.199  1085.15  964.075  1086.97  964.376  1088.96  964.075  1090.96  963.199  1092.78  961.825  1094.26  960.076  1095.27  958.107  1095.72  956.093  1095.57  954.213  1094.83  952.634  1093.57  951.497  1091.9  950.901  1089.97  950.901  1087.96  951.497  1086.03  952.634  1084.36  954.213  1083.1  956.093  1082.36  958.107  1082.21  960.076  1082.66  " style="fill: none; stroke: purple; stroke-width: 0.500000; fill-type: evenodd"  fill-opacity="1.000000" />
   <path d="M 1039.79  1060.81  1041.82  1061.65  1043.57  1062.99  1044.91  1064.74  1045.76  1066.78  1046.05  1068.96  1045.76  1071.15  1044.91  1073.19  1043.57  1074.94  1041.82  1076.28  1039.79  1077.12  1037.6  1077.41  1035.42  1077.12  1033.38  1076.28  1031.63  1074.94  1030.29  1073.19  1029.44  1071.15  1029.16  1068.96  1029.44  1066.78  1030.29  1064.74  1031.63  1062.99  1033.38  1061.65  1035.42  1060.81  1037.6  1060.52  1039.79  1060.81  " style="fill: none; stroke: purple; stroke-width: 0.500000; fill-type: evenodd"  fill-opacity="1.000000" />
   <path d="M 1019.19  1061.33  1021.19  1062.04  1022.92  1063.27  1024.26  1064.91  1025.11  1066.86  1025.4  1068.96  1025.11  1071.07  1024.26  1073.01  1022.92  1074.66  1021.19  1075.89  1019.19  1076.6  1017.07  1076.74  1014.99  1076.31  1013.11  1075.33  1011.55  1073.88  1010.45  1072.07  1009.88  1070.03  1009.88  1067.9  1010.45  1065.86  1011.55  1064.05  1013.11  1062.6  1014.99  1061.62  1017.07  1061.19  1019.19  1061.33  " style="fill: none; stroke: purple; stroke-width: 0.500000; fill-type: evenodd"  fill-opacity="1.000000" />
   <path d="M 1000.52  1062.56  1002.21  1063.65  1003.52  1065.16  1004.35  1066.98  1004.64  1068.96  1004.35  1070.95  1003.52  1072.77  1002.21  1074.28  1000.52  1075.37  998.602  1075.93  996.599  1075.93  994.678  1075.37  992.993  1074.28  991.681  1072.77  990.849  1070.95  990.564  1068.96  990.849  1066.98  991.681  1065.16  992.993  1063.65  994.678  1062.56  996.599  1062  998.602  1062  1000.52  1062.56  " style="fill: none; stroke: purple; stroke-width: 0.500000; fill-type: evenodd"  fill-opacity="1.000000" />
   <path d="M 920.076  1062.66  921.825  1063.67  923.199  1065.15  924.075  1066.97  924.376  1068.96  924.075  1070.96  923.199  1072.78  921.825  1074.26  920.076  1075.27  918.107  1075.72  916.093  1075.57  914.213  1074.83  912.634  1073.57  911.497  1071.9  910.901  1069.97  910.901  1067.96  911.497  1066.03  912.634  1064.36  914.213  1063.1  916.093  1062.36  918.107  1062.21  920.076  1062.66  " style="fill: none; stroke: purple; stroke-width: 0.500000; fill-type: evenodd"  fill-opacity="1.000000" />
   <path d="M 980.025  1062.79  981.738  1063.78  983.083  1065.23  983.941  1067.01  984.236  1068.96  983.941  1070.92  983.083  1072.7  981.738  1074.15  980.025  1075.14  978.097  1075.58  976.125  1075.43  974.283  1074.71  972.737  1073.48  971.623  1071.84  971.04  1069.95  971.04  1067.98  971.623  1066.09  972.737  1064.45  974.283  1063.22  976.125  1062.5  978.097  1062.35  980.025  1062.79  " style="fill: none; stroke: purple; stroke-width: 0.500000; fill-type: evenodd"  fill-opacity="1.000000" />
   <path d="M 959.606  1062.79  961.414  1063.72  962.85  1065.15  963.771  1066.96  964.089  1068.96  963.771  1070.97  962.85  1072.78  961.414  1074.21  959.606  1075.14  957.601  1075.45  955.596  1075.14  953.787  1074.21  952.352  1072.78  951.431  1070.97  951.113  1068.96  951.431  1066.96  952.352  1065.15  953.787  1063.72  955.596  1062.79  957.601  1062.48  959.606  1062.79  " style="fill: none; stroke: purple; stroke-width: 0.500000; fill-type: evenodd"  fill-opacity="1.000000" />
   <path d="M 939.558  1062.94  941.324  1063.84  942.725  1065.24  943.624  1067.01  943.934  1068.96  943.624  1070.92  942.725  1072.69  941.324  1074.09  939.558  1074.99  937.601  1075.3  935.644  1074.99  933.878  1074.09  932.477  1072.69  931.578  1070.92  931.268  1068.96  931.578  1067.01  932.477  1065.24  933.878  1063.84  935.644  1062.94  937.601  1062.63  939.558  1062.94  " style="fill: none; stroke: purple; stroke-width: 0.500000; fill-type: evenodd"  fill-opacity="1.000000" />
   <path d="M 1059.79  1040.81  1061.82  1041.65  1063.57  1042.99  1064.91  1044.74  1065.76  1046.78  1066.05  1048.96  1065.76  1051.15  1064.91  1053.19  1063.57  1054.94  1061.82  1056.28  1059.79  1057.12  1057.6  1057.41  1055.42  1057.12  1053.38  1056.28  1051.63  1054.94  1050.29  1053.19  1049.44  1051.15  1049.16  1048.96  1049.44  1046.78  1050.29  1044.74  1051.63  1042.99  1053.38  1041.65  1055.42  1040.81  1057.6  1040.52  1059.79  1040.81  " style="fill: none; stroke: purple; stroke-width: 0.500000; fill-type: evenodd"  fill-opacity="1.000000" />
   <path d="M 1039.71  1041.1  1041.67  1041.91  1043.36  1043.21  1044.65  1044.89  1045.47  1046.86  1045.74  1048.96  1045.47  1051.07  1044.65  1053.04  1043.36  1054.72  1041.67  1056.02  1039.71  1056.83  1037.6  1057.11  1035.49  1056.83  1033.53  1056.02  1031.84  1054.72  1030.55  1053.04  1029.74  1051.07  1029.46  1048.96  1029.74  1046.86  1030.55  1044.89  1031.84  1043.21  1033.53  1041.91  1035.49  1041.1  1037.6  1040.82  1039.71  1041.1  " style="fill: none; stroke: purple; stroke-width: 0.500000; fill-type: evenodd"  fill-opacity="1.000000" />
   <path d="M 1019.21  1041.24  1021.23  1041.96  1022.98  1043.2  1024.34  1044.87  1025.2  1046.84  1025.49  1048.96  1025.2  1051.09  1024.34  1053.06  1022.98  1054.73  1021.23  1055.97  1019.21  1056.69  1017.06  1056.83  1014.96  1056.4  1013.05  1055.41  1011.48  1053.94  1010.37  1052.11  1009.79  1050.04  1009.79  1047.89  1010.37  1045.82  1011.48  1043.99  1013.05  1042.52  1014.96  1041.53  1017.06  1041.1  1019.21  1041.24  " style="fill: none; stroke: purple; stroke-width: 0.500000; fill-type: evenodd"  fill-opacity="1.000000" />
   <path d="M 1000.67  1042.24  1002.44  1043.38  1003.82  1044.97  1004.69  1046.88  1004.99  1048.96  1004.69  1051.05  1003.82  1052.96  1002.44  1054.55  1000.67  1055.69  998.652  1056.28  996.549  1056.28  994.531  1055.69  992.762  1054.55  991.385  1052.96  990.511  1051.05  990.212  1048.96  990.511  1046.88  991.385  1044.97  992.762  1043.38  994.531  1042.24  996.549  1041.65  998.652  1041.65  1000.67  1042.24  " style="fill: none; stroke: purple; stroke-width: 0.500000; fill-type: evenodd"  fill-opacity="1.000000" />
   <path d="M 900.575  1042.45  902.289  1043.55  903.624  1045.09  904.47  1046.95  904.76  1048.96  904.47  1050.98  903.624  1052.84  902.289  1054.38  900.575  1055.48  898.62  1056.05  896.582  1056.05  894.627  1055.48  892.912  1054.38  891.578  1052.84  890.732  1050.98  890.441  1048.96  890.732  1046.95  891.578  1045.09  892.912  1043.55  894.627  1042.45  896.582  1041.88  898.62  1041.88  900.575  1042.45  " style="fill: none; stroke: purple; stroke-width: 0.500000; fill-type: evenodd"  fill-opacity="1.000000" />
   <path d="M 980.076  1042.66  981.825  1043.67  983.199  1045.15  984.075  1046.97  984.376  1048.96  984.075  1050.96  983.199  1052.78  981.825  1054.26  980.076  1055.27  978.107  1055.72  976.093  1055.57  974.213  1054.83  972.634  1053.57  971.497  1051.9  970.901  1049.97  970.901  1047.96  971.497  1046.03  972.634  1044.36  974.213  1043.1  976.093  1042.36  978.107  1042.21  980.076  1042.66  " style="fill: none; stroke: purple; stroke-width: 0.500000; fill-type: evenodd"  fill-opacity="1.000000" />
   <path d="M 920.025  1042.79  921.738  1043.78  923.083  1045.23  923.941  1047.01  924.236  1048.96  923.941  1050.92  923.083  1052.7  921.738  1054.15  920.025  1055.14  918.097  1055.58  916.125  1055.43  914.283  1054.71  912.737  1053.48  911.623  1051.84  911.04  1049.95  911.04  1047.98  911.623  1046.09  912.737  1044.45  914.283  1043.22  916.125  1042.5  918.097  1042.35  920.025  1042.79  " style="fill: none; stroke: purple; stroke-width: 0.500000; fill-type: evenodd"  fill-opacity="1.000000" />
   <path d="M 959.558  1042.94  961.324  1043.84  962.725  1045.24  963.624  1047.01  963.934  1048.96  963.624  1050.92  962.725  1052.69  961.324  1054.09  959.558  1054.99  957.601  1055.3  955.644  1054.99  953.878  1054.09  952.477  1052.69  951.578  1050.92  951.268  1048.96  951.578  1047.01  952.477  1045.24  953.878  1043.84  955.644  1042.94  957.601  1042.63  959.558  1042.94  " style="fill: none; stroke: purple; stroke-width: 0.500000; fill-type: evenodd"  fill-opacity="1.000000" />
   <path d="M 939.558  1042.94  941.324  1043.84  942.725  1045.24  943.624  1047.01  943.934  1048.96  943.624  1050.92  942.725  1052.69  941.324  1054.09  939.558  1054.99  937.601  1055.3  935.644  1054.99  933.878  1054.09  932.477  1052.69  931.578  1050.92  931.268  1048.96  931.578  1047.01  932.477  1045.24  933.878  1043.84  935.644  1042.94  937.601  1042.63  939.558  1042.94  " style="fill: none; stroke: purple; stroke-width: 0.500000; fill-type: evenodd"  fill-opacity="1.000000" />
   <path d="M 1099.75  1020.95  1101.75  1021.78  1103.47  1023.1  1104.79  1024.82  1105.62  1026.82  1105.9  1028.96  1105.62  1031.11  1104.79  1033.11  1103.47  1034.83  1101.75  1036.15  1099.75  1036.98  1097.6  1037.26  1095.45  1036.98  1093.45  1036.15  1091.73  1034.83  1090.41  1033.11  1089.58  1031.11  1089.3  1028.96  1089.58  1026.82  1090.41  1024.82  1091.73  1023.1  1093.45  1021.78  1095.45  1020.95  1097.6  1020.67  1099.75  1020.95  " style="fill: none; stroke: purple; stroke-width: 0.500000; fill-type: evenodd"  fill-opacity="1.000000" />
   <path d="M 1079.19  1021.33  1081.19  1022.04  1082.92  1023.27  1084.26  1024.91  1085.11  1026.86  1085.4  1028.96  1085.11  1031.07  1084.26  1033.01  1082.92  1034.66  1081.19  1035.89  1079.19  1036.6  1077.07  1036.74  1074.99  1036.31  1073.11  1035.33  1071.55  1033.88  1070.45  1032.07  1069.88  1030.03  1069.88  1027.9  1070.45  1025.86  1071.55  1024.05  1073.11  1022.6  1074.99  1021.62  1077.07  1021.19  1079.19  1021.33  " style="fill: none; stroke: purple; stroke-width: 0.500000; fill-type: evenodd"  fill-opacity="1.000000" />
   <path d="M 1039.19  1021.33  1041.19  1022.04  1042.92  1023.27  1044.26  1024.91  1045.11  1026.86  1045.4  1028.96  1045.11  1031.07  1044.26  1033.01  1042.92  1034.66  1041.19  1035.89  1039.19  1036.6  1037.07  1036.74  1034.99  1036.31  1033.11  1035.33  1031.55  1033.88  1030.45  1032.07  1029.88  1030.03  1029.88  1027.9  1030.45  1025.86  1031.55  1024.05  1033.11  1022.6  1034.99  1021.62  1037.07  1021.19  1039.19  1021.33  " style="fill: none; stroke: purple; stroke-width: 0.500000; fill-type: evenodd"  fill-opacity="1.000000" />
   <path d="M 1059.19  1021.33  1061.19  1022.04  1062.92  1023.27  1064.26  1024.91  1065.11  1026.86  1065.4  1028.96  1065.11  1031.07  1064.26  1033.01  1062.92  1034.66  1061.19  1035.89  1059.19  1036.6  1057.07  1036.74  1054.99  1036.31  1053.11  1035.33  1051.55  1033.88  1050.45  1032.07  1049.88  1030.03  1049.88  1027.9  1050.45  1025.86  1051.55  1024.05  1053.11  1022.6  1054.99  1021.62  1057.07  1021.19  1059.19  1021.33  " style="fill: none; stroke: purple; stroke-width: 0.500000; fill-type: evenodd"  fill-opacity="1.000000" />
   <path d="M 900.715  1022.15  902.51  1023.3  903.907  1024.91  904.794  1026.85  905.098  1028.96  904.794  1031.08  903.907  1033.02  902.51  1034.63  900.715  1035.78  898.668  1036.39  896.534  1036.39  894.487  1035.78  892.692  1034.63  891.294  1033.02  890.408  1031.08  890.104  1028.96  890.408  1026.85  891.294  1024.91  892.692  1023.3  894.487  1022.15  896.534  1021.54  898.668  1021.54  900.715  1022.15  " style="fill: none; stroke: purple; stroke-width: 0.500000; fill-type: evenodd"  fill-opacity="1.000000" />
   <path d="M 980.624  1022.35  982.366  1023.47  983.722  1025.03  984.583  1026.91  984.877  1028.96  984.583  1031.01  983.722  1032.9  982.366  1034.46  980.624  1035.58  978.636  1036.17  976.565  1036.17  974.578  1035.58  972.836  1034.46  971.479  1032.9  970.619  1031.01  970.324  1028.96  970.619  1026.91  971.479  1025.03  972.836  1023.47  974.578  1022.35  976.565  1021.76  978.636  1021.76  980.624  1022.35  " style="fill: none; stroke: purple; stroke-width: 0.500000; fill-type: evenodd"  fill-opacity="1.000000" />
   <path d="M 960.125  1022.53  961.909  1023.56  963.309  1025.07  964.203  1026.93  964.51  1028.96  964.203  1031  963.309  1032.86  961.909  1034.37  960.125  1035.4  958.117  1035.85  956.063  1035.7  954.146  1034.95  952.536  1033.66  951.376  1031.96  950.769  1029.99  950.769  1027.94  951.376  1025.97  952.536  1024.27  954.146  1022.98  956.063  1022.23  958.117  1022.08  960.125  1022.53  " style="fill: none; stroke: purple; stroke-width: 0.500000; fill-type: evenodd"  fill-opacity="1.000000" />
   <path d="M 920.125  1022.53  921.909  1023.56  923.309  1025.07  924.203  1026.93  924.51  1028.96  924.203  1031  923.309  1032.86  921.909  1034.37  920.125  1035.4  918.117  1035.85  916.063  1035.7  914.146  1034.95  912.536  1033.66  911.376  1031.96  910.769  1029.99  910.769  1027.94  911.376  1025.97  912.536  1024.27  914.146  1022.98  916.063  1022.23  918.117  1022.08  920.125  1022.53  " style="fill: none; stroke: purple; stroke-width: 0.500000; fill-type: evenodd"  fill-opacity="1.000000" />
   <path d="M 940.025  1022.79  941.738  1023.78  943.083  1025.23  943.941  1027.01  944.236  1028.96  943.941  1030.92  943.083  1032.7  941.738  1034.15  940.025  1035.14  938.097  1035.58  936.125  1035.43  934.283  1034.71  932.737  1033.48  931.623  1031.84  931.04  1029.95  931.04  1027.98  931.623  1026.09  932.737  1024.45  934.283  1023.22  936.125  1022.5  938.097  1022.35  940.025  1022.79  " style="fill: none; stroke: purple; stroke-width: 0.500000; fill-type: evenodd"  fill-opacity="1.000000" />
   <path d="M 899.687  1001.18  901.631  1001.98  903.301  1003.27  904.582  1004.93  905.387  1006.88  905.661  1008.96  905.387  1011.05  904.582  1013  903.301  1014.66  901.631  1015.95  899.687  1016.75  897.601  1017.03  895.515  1016.75  893.571  1015.95  891.901  1014.66  890.62  1013  889.815  1011.05  889.54  1008.96  889.815  1006.88  890.62  1004.93  891.901  1003.27  893.571  1001.98  895.515  1001.18  897.601  1000.9  899.687  1001.18  " style="fill: none; stroke: purple; stroke-width: 0.500000; fill-type: evenodd"  fill-opacity="1.000000" />
   <path d="M 1099.17  1001.43  1101.14  1002.13  1102.86  1003.34  1104.18  1004.96  1105.01  1006.89  1105.3  1008.96  1105.01  1011.04  1104.18  1012.97  1102.86  1014.59  1101.14  1015.8  1099.17  1016.5  1097.08  1016.65  1095.02  1016.22  1093.16  1015.25  1091.63  1013.82  1090.54  1012.03  1089.97  1010.01  1089.97  1007.92  1090.54  1005.9  1091.63  1004.11  1093.16  1002.67  1095.02  1001.71  1097.08  1001.28  1099.17  1001.43  " style="fill: none; stroke: purple; stroke-width: 0.500000; fill-type: evenodd"  fill-opacity="1.000000" />
   <path d="M 959.147  1001.52  961.097  1002.22  962.788  1003.41  964.094  1005.02  964.919  1006.91  965.201  1008.96  964.919  1011.02  964.094  1012.91  962.788  1014.52  961.097  1015.71  959.147  1016.41  957.082  1016.55  955.056  1016.13  953.218  1015.17  951.705  1013.76  950.63  1011.99  950.072  1010  950.072  1007.93  950.63  1005.94  951.705  1004.17  953.218  1002.76  955.056  1001.8  957.082  1001.38  959.147  1001.52  " style="fill: none; stroke: purple; stroke-width: 0.500000; fill-type: evenodd"  fill-opacity="1.000000" />
   <path d="M 940.67  1002.24  942.44  1003.38  943.817  1004.97  944.69  1006.88  944.99  1008.96  944.69  1011.05  943.817  1012.96  942.44  1014.55  940.67  1015.69  938.652  1016.28  936.549  1016.28  934.531  1015.69  932.762  1014.55  931.385  1012.96  930.511  1011.05  930.212  1008.96  930.511  1006.88  931.385  1004.97  932.762  1003.38  934.531  1002.24  936.549  1001.65  938.652  1001.65  940.67  1002.24  " style="fill: none; stroke: purple; stroke-width: 0.500000; fill-type: evenodd"  fill-opacity="1.000000" />
   <path d="M 920.67  1002.24  922.44  1003.38  923.817  1004.97  924.69  1006.88  924.99  1008.96  924.69  1011.05  923.817  1012.96  922.44  1014.55  920.67  1015.69  918.652  1016.28  916.549  1016.28  914.531  1015.69  912.762  1014.55  911.385  1012.96  910.511  1011.05  910.212  1008.96  910.511  1006.88  911.385  1004.97  912.762  1003.38  914.531  1002.24  916.549  1001.65  918.652  1001.65  920.67  1002.24  " style="fill: none; stroke: purple; stroke-width: 0.500000; fill-type: evenodd"  fill-opacity="1.000000" />
   <path d="M 1040.62  1002.35  1042.37  1003.47  1043.72  1005.03  1044.58  1006.91  1044.88  1008.96  1044.58  1011.01  1043.72  1012.9  1042.37  1014.46  1040.62  1015.58  1038.64  1016.17  1036.57  1016.17  1034.58  1015.58  1032.84  1014.46  1031.48  1012.9  1030.62  1011.01  1030.32  1008.96  1030.62  1006.91  1031.48  1005.03  1032.84  1003.47  1034.58  1002.35  1036.57  1001.76  1038.64  1001.76  1040.62  1002.35  " style="fill: none; stroke: purple; stroke-width: 0.500000; fill-type: evenodd"  fill-opacity="1.000000" />
   <path d="M 1080.58  1002.45  1082.29  1003.55  1083.62  1005.09  1084.47  1006.95  1084.76  1008.96  1084.47  1010.98  1083.62  1012.84  1082.29  1014.38  1080.58  1015.48  1078.62  1016.05  1076.58  1016.05  1074.63  1015.48  1072.91  1014.38  1071.58  1012.84  1070.73  1010.98  1070.44  1008.96  1070.73  1006.95  1071.58  1005.09  1072.91  1003.55  1074.63  1002.45  1076.58  1001.88  1078.62  1001.88  1080.58  1002.45  " style="fill: none; stroke: purple; stroke-width: 0.500000; fill-type: evenodd"  fill-opacity="1.000000" />
   <path d="M 1060.52  1002.56  1062.21  1003.65  1063.52  1005.16  1064.35  1006.98  1064.64  1008.96  1064.35  1010.95  1063.52  1012.77  1062.21  1014.28  1060.52  1015.37  1058.6  1015.93  1056.6  1015.93  1054.68  1015.37  1052.99  1014.28  1051.68  1012.77  1050.85  1010.95  1050.56  1008.96  1050.85  1006.98  1051.68  1005.16  1052.99  1003.65  1054.68  1002.56  1056.6  1002  1058.6  1002  1060.52  1002.56  " style="fill: none; stroke: purple; stroke-width: 0.500000; fill-type: evenodd"  fill-opacity="1.000000" />
   <path d="M 939.768  980.877  941.787  981.714  943.521  983.044  944.852  984.778  945.688  986.798  945.974  988.965  945.688  991.132  944.852  993.151  943.521  994.885  941.787  996.216  939.768  997.052  937.601  997.338  935.434  997.052  933.414  996.216  931.68  994.885  930.35  993.151  929.513  991.132  929.228  988.965  929.513  986.798  930.35  984.778  931.68  983.044  933.414  981.714  935.434  980.877  937.601  980.592  939.768  980.877  " style="fill: none; stroke: purple; stroke-width: 0.500000; fill-type: evenodd"  fill-opacity="1.000000" />
   <path d="M 1100.62  982.346  1102.37  983.466  1103.72  985.031  1104.58  986.915  1104.88  988.965  1104.58  991.015  1103.72  992.899  1102.37  994.464  1100.62  995.584  1098.64  996.167  1096.57  996.167  1094.58  995.584  1092.84  994.464  1091.48  992.899  1090.62  991.015  1090.32  988.965  1090.62  986.915  1091.48  985.031  1092.84  983.466  1094.58  982.346  1096.57  981.762  1098.64  981.762  1100.62  982.346  " style="fill: none; stroke: purple; stroke-width: 0.500000; fill-type: evenodd"  fill-opacity="1.000000" />
   <path d="M 1020.62  982.346  1022.37  983.466  1023.72  985.031  1024.58  986.915  1024.88  988.965  1024.58  991.015  1023.72  992.899  1022.37  994.464  1020.62  995.584  1018.64  996.167  1016.57  996.167  1014.58  995.584  1012.84  994.464  1011.48  992.899  1010.62  991.015  1010.32  988.965  1010.62  986.915  1011.48  985.031  1012.84  983.466  1014.58  982.346  1016.57  981.762  1018.64  981.762  1020.62  982.346  " style="fill: none; stroke: purple; stroke-width: 0.500000; fill-type: evenodd"  fill-opacity="1.000000" />
   <path d="M 1080.08  982.658  1081.83  983.668  1083.2  985.148  1084.08  986.968  1084.38  988.965  1084.08  990.962  1083.2  992.781  1081.83  994.262  1080.08  995.272  1078.11  995.721  1076.09  995.57  1074.21  994.832  1072.63  993.573  1071.5  991.904  1070.9  989.975  1070.9  987.955  1071.5  986.025  1072.63  984.356  1074.21  983.097  1076.09  982.359  1078.11  982.209  1080.08  982.658  " style="fill: none; stroke: purple; stroke-width: 0.500000; fill-type: evenodd"  fill-opacity="1.000000" />
   <path d="M 1040.02  982.789  1041.74  983.777  1043.08  985.227  1043.94  987.009  1044.24  988.965  1043.94  990.92  1043.08  992.702  1041.74  994.152  1040.02  995.141  1038.1  995.581  1036.12  995.433  1034.28  994.711  1032.74  993.478  1031.62  991.844  1031.04  989.954  1031.04  987.976  1031.62  986.086  1032.74  984.452  1034.28  983.219  1036.12  982.496  1038.1  982.348  1040.02  982.789  " style="fill: none; stroke: purple; stroke-width: 0.500000; fill-type: evenodd"  fill-opacity="1.000000" />
   <path d="M 1059.61  982.794  1061.41  983.716  1062.85  985.151  1063.77  986.96  1064.09  988.965  1063.77  990.97  1062.85  992.778  1061.41  994.214  1059.61  995.135  1057.6  995.453  1055.6  995.135  1053.79  994.214  1052.35  992.778  1051.43  990.97  1051.11  988.965  1051.43  986.96  1052.35  985.151  1053.79  983.716  1055.6  982.794  1057.6  982.477  1059.61  982.794  " style="fill: none; stroke: purple; stroke-width: 0.500000; fill-type: evenodd"  fill-opacity="1.000000" />
   <path d="M 960.809  960.505  962.741  961.519  964.373  962.965  965.612  964.76  966.386  966.8  966.648  968.965  966.386  971.13  965.612  973.169  964.373  974.964  962.741  976.411  960.809  977.424  958.691  977.946  956.51  977.946  954.393  977.424  952.461  976.411  950.829  974.964  949.59  973.169  948.816  971.13  948.553  968.965  948.816  966.8  949.59  964.76  950.829  962.965  952.461  961.519  954.393  960.505  956.51  959.983  958.691  959.983  960.809  960.505  " style="fill: none; stroke: purple; stroke-width: 0.500000; fill-type: evenodd"  fill-opacity="1.000000" />
   <path d="M 1000.72  962.146  1002.51  963.299  1003.91  964.912  1004.79  966.853  1005.1  968.965  1004.79  971.077  1003.91  973.018  1002.51  974.63  1000.72  975.784  998.668  976.385  996.534  976.385  994.487  975.784  992.692  974.63  991.294  973.018  990.408  971.077  990.104  968.965  990.408  966.853  991.294  964.912  992.692  963.299  994.487  962.146  996.534  961.544  998.668  961.544  1000.72  962.146  " style="fill: none; stroke: purple; stroke-width: 0.500000; fill-type: evenodd"  fill-opacity="1.000000" />
   <path d="M 1020.08  962.658  1021.83  963.668  1023.2  965.148  1024.08  966.968  1024.38  968.965  1024.08  970.962  1023.2  972.781  1021.83  974.262  1020.08  975.272  1018.11  975.721  1016.09  975.57  1014.21  974.832  1012.63  973.573  1011.5  971.904  1010.9  969.975  1010.9  967.955  1011.5  966.025  1012.63  964.356  1014.21  963.097  1016.09  962.359  1018.11  962.209  1020.08  962.658  " style="fill: none; stroke: purple; stroke-width: 0.500000; fill-type: evenodd"  fill-opacity="1.000000" />
   <path d="M 1079.61  962.794  1081.41  963.716  1082.85  965.151  1083.77  966.96  1084.09  968.965  1083.77  970.97  1082.85  972.778  1081.41  974.214  1079.61  975.135  1077.6  975.453  1075.6  975.135  1073.79  974.214  1072.35  972.778  1071.43  970.97  1071.11  968.965  1071.43  966.96  1072.35  965.151  1073.79  963.716  1075.6  962.794  1077.6  962.477  1079.61  962.794  " style="fill: none; stroke: purple; stroke-width: 0.500000; fill-type: evenodd"  fill-opacity="1.000000" />
   <path d="M 1059.56  962.941  1061.32  963.841  1062.72  965.242  1063.62  967.008  1063.93  968.965  1063.62  970.922  1062.72  972.687  1061.32  974.089  1059.56  974.988  1057.6  975.298  1055.64  974.988  1053.88  974.089  1052.48  972.687  1051.58  970.922  1051.27  968.965  1051.58  967.008  1052.48  965.242  1053.88  963.841  1055.64  962.941  1057.6  962.631  1059.56  962.941  " style="fill: none; stroke: purple; stroke-width: 0.500000; fill-type: evenodd"  fill-opacity="1.000000" />
   <path d="M 1039.51  963.096  1041.23  963.972  1042.59  965.338  1043.47  967.058  1043.77  968.965  1043.47  970.872  1042.59  972.592  1041.23  973.957  1039.51  974.834  1037.6  975.136  1035.69  974.834  1033.97  973.957  1032.61  972.592  1031.73  970.872  1031.43  968.965  1031.73  967.058  1032.61  965.338  1033.97  963.972  1035.69  963.096  1037.6  962.794  1039.51  963.096  " style="fill: none; stroke: purple; stroke-width: 0.500000; fill-type: evenodd"  fill-opacity="1.000000" />
   <path d="M 979.749  940.949  981.75  941.778  983.469  943.097  984.788  944.815  985.617  946.817  985.9  948.965  985.617  951.113  984.788  953.114  983.469  954.833  981.75  956.152  979.749  956.981  977.601  957.264  975.453  956.981  973.451  956.152  971.733  954.833  970.414  953.114  969.585  951.113  969.302  948.965  969.585  946.817  970.414  944.815  971.733  943.097  973.451  941.778  975.453  940.949  977.601  940.666  979.749  940.949  " style="fill: none; stroke: purple; stroke-width: 0.500000; fill-type: evenodd"  fill-opacity="1.000000" />
   <path d="M 1000.62  942.346  1002.37  943.466  1003.72  945.031  1004.58  946.915  1004.88  948.965  1004.58  951.015  1003.72  952.899  1002.37  954.464  1000.62  955.584  998.636  956.167  996.565  956.167  994.578  955.584  992.836  954.464  991.479  952.899  990.619  951.015  990.324  948.965  990.619  946.915  991.479  945.031  992.836  943.466  994.578  942.346  996.565  941.762  998.636  941.762  1000.62  942.346  " style="fill: none; stroke: purple; stroke-width: 0.500000; fill-type: evenodd"  fill-opacity="1.000000" />
   <path d="M 1080.12  942.533  1081.91  943.563  1083.31  945.073  1084.2  946.928  1084.51  948.965  1084.2  951.001  1083.31  952.857  1081.91  954.367  1080.12  955.396  1078.12  955.855  1076.06  955.701  1074.15  954.948  1072.54  953.664  1071.38  951.963  1070.77  949.995  1070.77  947.935  1071.38  945.967  1072.54  944.265  1074.15  942.981  1076.06  942.229  1078.12  942.075  1080.12  942.533  " style="fill: none; stroke: purple; stroke-width: 0.500000; fill-type: evenodd"  fill-opacity="1.000000" />
   <path d="M 1019.61  942.794  1021.41  943.716  1022.85  945.151  1023.77  946.96  1024.09  948.965  1023.77  950.97  1022.85  952.778  1021.41  954.214  1019.61  955.135  1017.6  955.453  1015.6  955.135  1013.79  954.214  1012.35  952.778  1011.43  950.97  1011.11  948.965  1011.43  946.96  1012.35  945.151  1013.79  943.716  1015.6  942.794  1017.6  942.477  1019.61  942.794  " style="fill: none; stroke: purple; stroke-width: 0.500000; fill-type: evenodd"  fill-opacity="1.000000" />
   <path d="M 1059.56  942.941  1061.32  943.841  1062.72  945.242  1063.62  947.008  1063.93  948.965  1063.62  950.922  1062.72  952.687  1061.32  954.089  1059.56  954.988  1057.6  955.298  1055.64  954.988  1053.88  954.089  1052.48  952.687  1051.58  950.922  1051.27  948.965  1051.58  947.008  1052.48  945.242  1053.88  943.841  1055.64  942.941  1057.6  942.631  1059.56  942.941  " style="fill: none; stroke: purple; stroke-width: 0.500000; fill-type: evenodd"  fill-opacity="1.000000" />
   <path d="M 1039.51  943.096  1041.23  943.972  1042.59  945.338  1043.47  947.058  1043.77  948.965  1043.47  950.872  1042.59  952.592  1041.23  953.957  1039.51  954.834  1037.6  955.136  1035.69  954.834  1033.97  953.957  1032.61  952.592  1031.73  950.872  1031.43  948.965  1031.73  947.058  1032.61  945.338  1033.97  943.972  1035.69  943.096  1037.6  942.794  1039.51  943.096  " style="fill: none; stroke: purple; stroke-width: 0.500000; fill-type: evenodd"  fill-opacity="1.000000" />
   <path d="M 1000.67  922.244  1002.44  923.381  1003.82  924.97  1004.69  926.883  1004.99  928.965  1004.69  931.046  1003.82  932.96  1002.44  934.549  1000.67  935.686  998.652  936.278  996.549  936.278  994.531  935.686  992.762  934.549  991.385  932.96  990.511  931.046  990.212  928.965  990.511  926.883  991.385  924.97  992.762  923.381  994.531  922.244  996.549  921.651  998.652  921.651  1000.67  922.244  " style="fill: none; stroke: purple; stroke-width: 0.500000; fill-type: evenodd"  fill-opacity="1.000000" />
   <path d="M 1060.08  922.658  1061.83  923.668  1063.2  925.148  1064.08  926.968  1064.38  928.965  1064.08  930.962  1063.2  932.781  1061.83  934.262  1060.08  935.272  1058.11  935.721  1056.09  935.57  1054.21  934.832  1052.63  933.573  1051.5  931.904  1050.9  929.975  1050.9  927.955  1051.5  926.025  1052.63  924.356  1054.21  923.097  1056.09  922.359  1058.11  922.209  1060.08  922.658  " style="fill: none; stroke: purple; stroke-width: 0.500000; fill-type: evenodd"  fill-opacity="1.000000" />
   <path d="M 1020.08  922.658  1021.83  923.668  1023.2  925.148  1024.08  926.968  1024.38  928.965  1024.08  930.962  1023.2  932.781  1021.83  934.262  1020.08  935.272  1018.11  935.721  1016.09  935.57  1014.21  934.832  1012.63  933.573  1011.5  931.904  1010.9  929.975  1010.9  927.955  1011.5  926.025  1012.63  924.356  1014.21  923.097  1016.09  922.359  1018.11  922.209  1020.08  922.658  " style="fill: none; stroke: purple; stroke-width: 0.500000; fill-type: evenodd"  fill-opacity="1.000000" />
   <path d="M 1039.61  922.794  1041.41  923.716  1042.85  925.151  1043.77  926.96  1044.09  928.965  1043.77  930.97  1042.85  932.778  1041.41  934.214  1039.61  935.135  1037.6  935.453  1035.6  935.135  1033.79  934.214  1032.35  932.778  1031.43  930.97  1031.11  928.965  1031.43  926.96  1032.35  925.151  1033.79  923.716  1035.6  922.794  1037.6  922.477  1039.61  922.794  " style="fill: none; stroke: purple; stroke-width: 0.500000; fill-type: evenodd"  fill-opacity="1.000000" />
   <path d="M 999.224  901.156  1001.27  901.884  1003.04  903.136  1004.42  904.821  1005.28  906.813  1005.58  908.965  1005.28  911.116  1004.42  913.109  1003.04  914.793  1001.27  916.046  999.224  916.773  997.057  916.921  994.93  916.48  993.002  915.48  991.414  913.998  990.286  912.142  989.7  910.051  989.7  907.879  990.286  905.787  991.414  903.932  993.002  902.449  994.93  901.45  997.057  901.008  999.224  901.156  " style="fill: none; stroke: purple; stroke-width: 0.500000; fill-type: evenodd"  fill-opacity="1.000000" />
   <path d="M 1020.67  902.244  1022.44  903.381  1023.82  904.97  1024.69  906.883  1024.99  908.965  1024.69  911.046  1023.82  912.96  1022.44  914.549  1020.67  915.686  1018.65  916.278  1016.55  916.278  1014.53  915.686  1012.76  914.549  1011.38  912.96  1010.51  911.046  1010.21  908.965  1010.51  906.883  1011.38  904.97  1012.76  903.381  1014.53  902.244  1016.55  901.651  1018.65  901.651  1020.67  902.244  " style="fill: none; stroke: purple; stroke-width: 0.500000; fill-type: evenodd"  fill-opacity="1.000000" />
   <path d="M 1040.58  902.452  1042.29  903.554  1043.62  905.094  1044.47  906.948  1044.76  908.965  1044.47  910.982  1043.62  912.835  1042.29  914.376  1040.58  915.477  1038.62  916.051  1036.58  916.051  1034.63  915.477  1032.91  914.376  1031.58  912.835  1030.73  910.982  1030.44  908.965  1030.73  906.948  1031.58  905.094  1032.91  903.554  1034.63  902.452  1036.58  901.878  1038.62  901.878  1040.58  902.452  " style="fill: none; stroke: purple; stroke-width: 0.500000; fill-type: evenodd"  fill-opacity="1.000000" />
</svg>
