<?xml version="1.0" encoding="UTF-8" standalone="yes"?>
<!DOCTYPE svg PUBLIC "-//W3C//DTD SVG 1.0//EN" "http://www.w3.org/TR/2001/REC-SVG-20010904/DTD/svg10.dtd">
<svg height="2000" width="2000" xmlns="http://www.w3.org/2000/svg" xmlns:svg="http://www.w3.org/2000/svg" xmlns:xlink="http://www.w3.org/1999/xlink">
   <marker id="endArrow" markerHeight="8" markerUnits="strokeWidth" markerWidth="10" orient="auto" refX="1" refY="5" viewBox="0 0 1000 1000">
      <polyline fill="darkblue" points="0,0 10,5 0,10 1,5" />
   </marker>
   <circle cx="1000" cy="1000" r="1" style="stroke:black; fill: red" />
   <circle cx="1000" cy="1000" r="800" style="stroke:black; fill: none" />
   <line x1="1075.384644" y1="1067.750000" x2="1075.384644" y2="1068.382935" style="stroke: green; stroke-width: 0.200000"/>
   <line x1="1076.384521" y1="1066.750000" x2="1076.384521" y2="1068.382935" style="stroke: green; stroke-width: 0.200000"/>
   <line x1="1077.384521" y1="1065.750000" x2="1077.384521" y2="1068.382935" style="stroke: green; stroke-width: 0.200000"/>
   <line x1="1078.384521" y1="1064.750122" x2="1078.384521" y2="1068.382935" style="stroke: green; stroke-width: 0.200000"/>
   <line x1="1079.384644" y1="1063.750122" x2="1079.384644" y2="1068.382935" style="stroke: green; stroke-width: 0.200000"/>
   <line x1="1080.384644" y1="1062.750122" x2="1080.384644" y2="1068.382935" style="stroke: green; stroke-width: 0.200000"/>
   <line x1="1081.384521" y1="1061.750244" x2="1081.384521" y2="1068.382935" style="stroke: green; stroke-width: 0.200000"/>
   <line x1="1082.384521" y1="1060.750244" x2="1082.384521" y2="1068.382935" style="stroke: green; stroke-width: 0.200000"/>
   <line x1="1083.384521" y1="1059.750122" x2="1083.384521" y2="1068.382935" style="stroke: green; stroke-width: 0.200000"/>
   <line x1="1084.384644" y1="1058.750122" x2="1084.384644" y2="1067.588989" style="stroke: green; stroke-width: 0.200000"/>
   <line x1="1086.384521" y1="1056.750244" x2="1086.384521" y2="1065.762085" style="stroke: green; stroke-width: 0.200000"/>
   <line x1="1087.384521" y1="1055.750244" x2="1087.384521" y2="1064.877686" style="stroke: green; stroke-width: 0.200000"/>
   <line x1="1088.384521" y1="1054.750122" x2="1088.384521" y2="1063.993408" style="stroke: green; stroke-width: 0.200000"/>
   <line x1="1089.384644" y1="1053.750122" x2="1089.384644" y2="1063.158081" style="stroke: green; stroke-width: 0.200000"/>
   <line x1="1090.384644" y1="1052.750122" x2="1090.384644" y2="1062.351318" style="stroke: green; stroke-width: 0.200000"/>
   <line x1="1091.384521" y1="1051.750244" x2="1091.384521" y2="1061.567749" style="stroke: green; stroke-width: 0.200000"/>
   <line x1="1092.384521" y1="1050.750244" x2="1092.384521" y2="1060.784180" style="stroke: green; stroke-width: 0.200000"/>
   <line x1="1093.384521" y1="1049.750122" x2="1093.384521" y2="1060.041016" style="stroke: green; stroke-width: 0.200000"/>
   <line x1="1094.384644" y1="1048.750122" x2="1094.384644" y2="1059.303467" style="stroke: green; stroke-width: 0.200000"/>
   <line x1="1095.384644" y1="1047.750122" x2="1095.384644" y2="1058.606934" style="stroke: green; stroke-width: 0.200000"/>
   <line x1="1096.384521" y1="1046.750244" x2="1096.384521" y2="1057.912842" style="stroke: green; stroke-width: 0.200000"/>
   <line x1="1097.384521" y1="1045.750244" x2="1097.384521" y2="1057.242188" style="stroke: green; stroke-width: 0.200000"/>
   <line x1="1098.384521" y1="1044.750122" x2="1098.384521" y2="1056.575195" style="stroke: green; stroke-width: 0.200000"/>
   <line x1="1099.384644" y1="1043.750122" x2="1099.384644" y2="1055.922974" style="stroke: green; stroke-width: 0.200000"/>
   <line x1="1100.384644" y1="1042.750122" x2="1100.384644" y2="1055.302246" style="stroke: green; stroke-width: 0.200000"/>
   <line x1="1101.384521" y1="1041.750244" x2="1101.384521" y2="1054.690796" style="stroke: green; stroke-width: 0.200000"/>
   <line x1="1102.384521" y1="1040.750244" x2="1102.384521" y2="1054.083740" style="stroke: green; stroke-width: 0.200000"/>
   <line x1="1103.384521" y1="1039.750244" x2="1103.384521" y2="1053.476685" style="stroke: green; stroke-width: 0.200000"/>
   <line x1="1104.384644" y1="1038.750122" x2="1104.384644" y2="1052.888306" style="stroke: green; stroke-width: 0.200000"/>
   <line x1="1105.384644" y1="1037.750122" x2="1105.384644" y2="1052.335083" style="stroke: green; stroke-width: 0.200000"/>
   <line x1="1106.384521" y1="1036.750244" x2="1106.384521" y2="1051.802856" style="stroke: green; stroke-width: 0.200000"/>
   <line x1="1107.384521" y1="1035.750244" x2="1107.384521" y2="1051.270630" style="stroke: green; stroke-width: 0.200000"/>
   <line x1="1108.384521" y1="1034.750244" x2="1108.384521" y2="1050.738403" style="stroke: green; stroke-width: 0.200000"/>
   <line x1="1109.384644" y1="1033.750122" x2="1109.384644" y2="1050.187500" style="stroke: green; stroke-width: 0.200000"/>
   <line x1="1110.384644" y1="1032.750122" x2="1110.384644" y2="1049.621460" style="stroke: green; stroke-width: 0.200000"/>
   <line x1="1111.384521" y1="1031.750244" x2="1111.384521" y2="1049.055420" style="stroke: green; stroke-width: 0.200000"/>
   <line x1="1112.384521" y1="1030.750244" x2="1112.384521" y2="1048.489380" style="stroke: green; stroke-width: 0.200000"/>
   <line x1="1113.384521" y1="1029.750244" x2="1113.384521" y2="1047.923340" style="stroke: green; stroke-width: 0.200000"/>
   <line x1="1114.384644" y1="1028.750122" x2="1114.384644" y2="1047.329102" style="stroke: green; stroke-width: 0.200000"/>
   <line x1="1115.384644" y1="1027.750122" x2="1115.384644" y2="1046.670898" style="stroke: green; stroke-width: 0.200000"/>
   <line x1="1116.384521" y1="1026.750244" x2="1116.384521" y2="1045.971191" style="stroke: green; stroke-width: 0.200000"/>
   <line x1="1117.384521" y1="1025.750244" x2="1117.384521" y2="1045.197998" style="stroke: green; stroke-width: 0.200000"/>
   <line x1="1118.384521" y1="1024.750244" x2="1118.384521" y2="1044.364014" style="stroke: green; stroke-width: 0.200000"/>
   <line x1="1119.384644" y1="1023.750122" x2="1119.384644" y2="1043.456787" style="stroke: green; stroke-width: 0.200000"/>
   <line x1="1120.384644" y1="1022.750183" x2="1120.384644" y2="1042.437256" style="stroke: green; stroke-width: 0.200000"/>
   <line x1="1121.384521" y1="1018.954407" x2="1121.384521" y2="1041.417969" style="stroke: green; stroke-width: 0.200000"/>
   <line x1="1122.384521" y1="1019.078064" x2="1122.384521" y2="1040.323486" style="stroke: green; stroke-width: 0.200000"/>
   <line x1="1123.384521" y1="1020.699951" x2="1123.384521" y2="1039.045898" style="stroke: green; stroke-width: 0.200000"/>
   <line x1="1124.384644" y1="1022.401611" x2="1124.384644" y2="1037.493530" style="stroke: green; stroke-width: 0.200000"/>
   <line x1="1125.384644" y1="1024.701782" x2="1125.384644" y2="1035.337524" style="stroke: green; stroke-width: 0.200000"/>
   <line x1="1120.384644" y1="1019.954346" x2="1120.384644" y2="1020.472351" style="stroke: green; stroke-width: 0.200000"/>
   <line x1="1047.384521" y1="1095.750122" x2="1047.384521" y2="1108.841431" style="stroke: green; stroke-width: 0.200000"/>
   <line x1="1048.384521" y1="1094.750122" x2="1048.384521" y2="1108.776978" style="stroke: green; stroke-width: 0.200000"/>
   <line x1="1046.384521" y1="1096.750244" x2="1046.384521" y2="1108.766479" style="stroke: green; stroke-width: 0.200000"/>
   <line x1="1049.384644" y1="1093.750122" x2="1049.384644" y2="1108.657593" style="stroke: green; stroke-width: 0.200000"/>
   <line x1="1045.384644" y1="1097.750122" x2="1045.384644" y2="1108.655029" style="stroke: green; stroke-width: 0.200000"/>
   <line x1="1050.384644" y1="1092.750122" x2="1050.384644" y2="1108.421997" style="stroke: green; stroke-width: 0.200000"/>
   <line x1="1044.384644" y1="1098.750122" x2="1044.384644" y2="1108.382080" style="stroke: green; stroke-width: 0.200000"/>
   <line x1="1051.384521" y1="1091.750244" x2="1051.384521" y2="1108.116943" style="stroke: green; stroke-width: 0.200000"/>
   <line x1="1043.384521" y1="1099.750122" x2="1043.384521" y2="1108.061768" style="stroke: green; stroke-width: 0.200000"/>
   <line x1="1052.384521" y1="1090.750122" x2="1052.384521" y2="1107.707764" style="stroke: green; stroke-width: 0.200000"/>
   <line x1="1042.384521" y1="1100.750122" x2="1042.384521" y2="1107.659424" style="stroke: green; stroke-width: 0.200000"/>
   <line x1="1041.384521" y1="1101.750244" x2="1041.384521" y2="1107.278809" style="stroke: green; stroke-width: 0.200000"/>
   <line x1="1053.384521" y1="1089.750122" x2="1053.384521" y2="1107.186890" style="stroke: green; stroke-width: 0.200000"/>
   <line x1="1040.384644" y1="1102.750122" x2="1040.384644" y2="1106.898071" style="stroke: green; stroke-width: 0.200000"/>
   <line x1="1054.384644" y1="1088.750000" x2="1054.384644" y2="1106.561157" style="stroke: green; stroke-width: 0.200000"/>
   <line x1="1039.384644" y1="1103.749023" x2="1039.384644" y2="1106.517456" style="stroke: green; stroke-width: 0.200000"/>
   <line x1="1038.384521" y1="1103.527222" x2="1038.384521" y2="1106.136841" style="stroke: green; stroke-width: 0.200000"/>
   <line x1="1055.384644" y1="1087.750000" x2="1055.384644" y2="1105.780762" style="stroke: green; stroke-width: 0.200000"/>
   <line x1="1037.384521" y1="1102.959229" x2="1037.384521" y2="1105.744507" style="stroke: green; stroke-width: 0.200000"/>
   <line x1="1036.384521" y1="1103.954346" x2="1036.384521" y2="1105.349854" style="stroke: green; stroke-width: 0.200000"/>
   <line x1="1035.384644" y1="1104.954346" x2="1035.384644" y2="1104.955078" style="stroke: green; stroke-width: 0.200000"/>
   <line x1="1056.384521" y1="1086.750000" x2="1056.384521" y2="1104.781738" style="stroke: green; stroke-width: 0.200000"/>
   <line x1="1057.384521" y1="1085.750000" x2="1057.384521" y2="1103.550781" style="stroke: green; stroke-width: 0.200000"/>
   <line x1="1058.384521" y1="1084.750122" x2="1058.384521" y2="1102.022949" style="stroke: green; stroke-width: 0.200000"/>
   <line x1="1059.384644" y1="1083.750122" x2="1059.384644" y2="1100.495117" style="stroke: green; stroke-width: 0.200000"/>
   <line x1="1060.384644" y1="1082.750122" x2="1060.384644" y2="1098.860229" style="stroke: green; stroke-width: 0.200000"/>
   <line x1="1061.384521" y1="1081.750244" x2="1061.384521" y2="1097.158447" style="stroke: green; stroke-width: 0.200000"/>
   <line x1="1062.384521" y1="1080.749756" x2="1062.384521" y2="1095.456787" style="stroke: green; stroke-width: 0.200000"/>
   <line x1="1063.384521" y1="1079.749878" x2="1063.384521" y2="1093.707031" style="stroke: green; stroke-width: 0.200000"/>
   <line x1="1064.384644" y1="1078.749878" x2="1064.384644" y2="1092.048096" style="stroke: green; stroke-width: 0.200000"/>
   <line x1="1065.384644" y1="1077.749878" x2="1065.384644" y2="1090.441528" style="stroke: green; stroke-width: 0.200000"/>
   <line x1="1066.384521" y1="1076.749878" x2="1066.384521" y2="1088.847412" style="stroke: green; stroke-width: 0.200000"/>
   <line x1="1067.384521" y1="1075.749878" x2="1067.384521" y2="1087.404907" style="stroke: green; stroke-width: 0.200000"/>
   <line x1="1068.384521" y1="1074.749878" x2="1068.384521" y2="1085.962524" style="stroke: green; stroke-width: 0.200000"/>
   <line x1="1069.384644" y1="1073.750000" x2="1069.384644" y2="1084.574951" style="stroke: green; stroke-width: 0.200000"/>
   <line x1="1070.384644" y1="1072.750000" x2="1070.384644" y2="1083.314575" style="stroke: green; stroke-width: 0.200000"/>
   <line x1="1071.384521" y1="1071.750000" x2="1071.384521" y2="1082.054199" style="stroke: green; stroke-width: 0.200000"/>
   <line x1="1072.384521" y1="1070.750000" x2="1072.384521" y2="1080.793823" style="stroke: green; stroke-width: 0.200000"/>
   <line x1="1073.384521" y1="1069.750000" x2="1073.384521" y2="1079.533447" style="stroke: green; stroke-width: 0.200000"/>
   <line x1="1074.384644" y1="1068.750000" x2="1074.384644" y2="1078.273071" style="stroke: green; stroke-width: 0.200000"/>
   <line x1="1075.384644" y1="1068.482910" x2="1075.384644" y2="1077.065918" style="stroke: green; stroke-width: 0.200000"/>
   <line x1="1076.384521" y1="1068.482910" x2="1076.384521" y2="1075.976318" style="stroke: green; stroke-width: 0.200000"/>
   <line x1="1077.384521" y1="1068.482910" x2="1077.384521" y2="1074.886719" style="stroke: green; stroke-width: 0.200000"/>
   <line x1="1078.384521" y1="1068.482910" x2="1078.384521" y2="1073.797241" style="stroke: green; stroke-width: 0.200000"/>
   <line x1="1079.384644" y1="1068.482910" x2="1079.384644" y2="1072.707764" style="stroke: green; stroke-width: 0.200000"/>
   <line x1="1080.384644" y1="1068.482910" x2="1080.384644" y2="1071.618286" style="stroke: green; stroke-width: 0.200000"/>
   <line x1="1081.384521" y1="1068.482910" x2="1081.384521" y2="1070.528687" style="stroke: green; stroke-width: 0.200000"/>
   <line x1="1082.384521" y1="1068.482910" x2="1082.384521" y2="1069.533813" style="stroke: green; stroke-width: 0.200000"/>
   <line x1="1083.384521" y1="1068.482910" x2="1083.384521" y2="1068.561523" style="stroke: green; stroke-width: 0.200000"/>
   <path d="M 1037.77  1101.45  1038.91  1102.1  1119.36  1021.65  1118.25  1019.97  1122.23  1015.99  1122.65  1016.64  1125.35  1021.02  1125.99  1022.21  1126.56  1023.47  1127.4  1026.07  1127.81  1028.77  1127.79  1031.49  1127.35  1034.12  1127.13  1034.86  1126.77  1035.93  1126.49  1036.65  1126.15  1037.37  1125.68  1038.26  1125.27  1038.96  1124.79  1039.65  1124.54  1040.02  1123.75  1041.03  1122.92  1041.99  1120.01  1044.96  1117.75  1046.85  1115.68  1048.29  1115.32  1048.52  1114.51  1049.01  1109.55  1051.82  1105.75  1053.84  1104.7  1054.43  1101.49  1056.38  1099.87  1057.38  1097.36  1059.06  1095.31  1060.48  1093.41  1061.88  1091.05  1063.74  1089.65  1064.88  1086.07  1068.05  1082.65  1071.37  1076.21  1078.38  1070.29  1085.85  1067.56  1089.78  1065.02  1093.87  1063.84  1095.93  1061.05  1100.7  1058.6  1104.43  1058.01  1105.2  1057.25  1106.08  1056.87  1106.45  1056.45  1106.85  1055.48  1107.63  1054.75  1108.13  1053.49  1108.86  1053.2  1108.97  1052.63  1109.24  1051.39  1109.72  1050.9  1109.83  1050.52  1109.95  1049.27  1110.22  1049  1110.25  1047.14  1110.36  1045.17  1110.15  1044.93  1110.11  1043.1  1109.57  1042.12  1109.16  1037.68  1107.47  1032.71  1105.51  1037.12  1101.1  " style="fill: none; stroke: darkmagenta; stroke-width: 0.200000; fill-type: evenodd"  fill-opacity="1.000000" />
   <path d="M 1037.12  1101.1  1037.13  1101.09  1037.77  1101.45  " style="fill: none; stroke: red; stroke-width: 0.200000; fill-type: evenodd"  fill-opacity="1.000000" />
   <path d="M 1124.48  1021.52  1125.09  1022.66  1125.63  1023.83  1126.42  1026.3  1126.81  1028.85  1126.79  1031.4  1126.37  1033.9  1126.18  1034.56  1125.83  1035.59  1125.57  1036.26  1125.26  1036.92  1124.8  1037.77  1124.43  1038.43  1123.97  1039.08  1123.73  1039.42  1122.98  1040.4  1122.19  1041.31  1119.33  1044.23  1117.14  1046.05  1115.13  1047.46  1114.8  1047.67  1114.01  1048.14  1109.07  1050.94  1105.27  1052.96  1104.2  1053.57  1100.96  1055.53  1099.33  1056.54  1096.8  1058.23  1094.73  1059.67  1092.81  1061.09  1090.42  1062.96  1089  1064.12  1085.39  1067.31  1081.94  1070.67  1075.45  1077.73  1069.48  1085.25  1066.73  1089.23  1064.16  1093.36  1062.98  1095.43  1060.2  1100.17  1057.79  1103.85  1057.23  1104.57  1056.52  1105.39  1056.17  1105.74  1055.79  1106.1  1054.88  1106.83  1054.22  1107.28  1053.05  1107.95  1052.8  1108.06  1052.23  1108.32  1051.1  1108.76  1050.65  1108.86  1050.27  1108.98  1049.1  1109.23  1048.91  1109.26  1047.17  1109.36  1045.31  1109.16  1045.17  1109.13  1043.44  1108.62  1042.49  1108.23  1038.04  1106.54  1034.49  1105.14  1037.3  1102.33  1039.08  1103.35  1120.65  1021.78  1119.54  1020.1  1122.05  1017.58  1124.48  1021.52  " style="fill: none; stroke: black; stroke-width: 0.200000; fill-type: evenodd"  fill-opacity="1.000000" />
</svg>
