<?xml version="1.0" encoding="UTF-8" standalone="yes"?>
<!DOCTYPE svg PUBLIC "-//W3C//DTD SVG 1.0//EN" "http://www.w3.org/TR/2001/REC-SVG-20010904/DTD/svg10.dtd">
<svg height="2000" width="2000" xmlns="http://www.w3.org/2000/svg" xmlns:svg="http://www.w3.org/2000/svg" xmlns:xlink="http://www.w3.org/1999/xlink">
   <marker id="endArrow" markerHeight="8" markerUnits="strokeWidth" markerWidth="10" orient="auto" refX="1" refY="5" viewBox="0 0 1000 1000">
      <polyline fill="darkblue" points="0,0 10,5 0,10 1,5" />
   </marker>
   <circle cx="1000" cy="1000" r="1" style="stroke:black; fill: red" />
   <circle cx="1000" cy="1000" r="800" style="stroke:black; fill: none" />
   <path d="M 999.826  1099.22  1001.94  1099.96  1003.84  1101.15  1005.42  1102.73  1006.61  1104.63  1007.35  1106.74  1007.6  1108.96  1007.35  1111.19  1006.61  1113.3  1005.42  1115.2  1003.84  1116.78  1001.94  1117.97  999.826  1118.71  997.601  1118.96  995.376  1118.71  993.262  1117.97  991.366  1116.78  989.783  1115.2  988.591  1113.3  987.852  1111.19  987.601  1108.96  987.852  1106.74  988.591  1104.63  989.783  1102.73  991.366  1101.15  993.262  1099.96  995.376  1099.22  997.601  1098.96  999.826  1099.22  " style="fill: none; stroke: purple; stroke-width: 0.500000; fill-type: evenodd"  fill-opacity="1.000000" />
   <path d="M 1019.83  1079.22  1021.94  1079.96  1023.84  1081.15  1025.42  1082.73  1026.61  1084.63  1027.35  1086.74  1027.6  1088.96  1027.35  1091.19  1026.61  1093.3  1025.42  1095.2  1023.84  1096.78  1021.94  1097.97  1019.83  1098.71  1017.6  1098.96  1015.38  1098.71  1013.26  1097.97  1011.37  1096.78  1009.78  1095.2  1008.59  1093.3  1007.85  1091.19  1007.6  1088.96  1007.85  1086.74  1008.59  1084.63  1009.78  1082.73  1011.37  1081.15  1013.26  1079.96  1015.38  1079.22  1017.6  1078.96  1019.83  1079.22  " style="fill: none; stroke: purple; stroke-width: 0.500000; fill-type: evenodd"  fill-opacity="1.000000" />
   <path d="M 999.826  1079.22  1001.94  1079.96  1003.84  1081.15  1005.42  1082.73  1006.61  1084.63  1007.35  1086.74  1007.6  1088.96  1007.35  1091.19  1006.61  1093.3  1005.42  1095.2  1003.84  1096.78  1001.94  1097.97  999.826  1098.71  997.601  1098.96  995.376  1098.71  993.262  1097.97  991.366  1096.78  989.783  1095.2  988.591  1093.3  987.852  1091.19  987.601  1088.96  987.852  1086.74  988.591  1084.63  989.783  1082.73  991.366  1081.15  993.262  1079.96  995.376  1079.22  997.601  1078.96  999.826  1079.22  " style="fill: none; stroke: purple; stroke-width: 0.500000; fill-type: evenodd"  fill-opacity="1.000000" />
   <path d="M 979.826  1079.22  981.94  1079.96  983.836  1081.15  985.419  1082.73  986.611  1084.63  987.35  1086.74  987.601  1088.96  987.35  1091.19  986.611  1093.3  985.419  1095.2  983.836  1096.78  981.94  1097.97  979.826  1098.71  977.601  1098.96  975.376  1098.71  973.262  1097.97  971.366  1096.78  969.783  1095.2  968.591  1093.3  967.852  1091.19  967.601  1088.96  967.852  1086.74  968.591  1084.63  969.783  1082.73  971.366  1081.15  973.262  1079.96  975.376  1079.22  977.601  1078.96  979.826  1079.22  " style="fill: none; stroke: purple; stroke-width: 0.500000; fill-type: evenodd"  fill-opacity="1.000000" />
   <path d="M 939.826  1079.22  941.94  1079.96  943.836  1081.15  945.419  1082.73  946.611  1084.63  947.35  1086.74  947.601  1088.96  947.35  1091.19  946.611  1093.3  945.419  1095.2  943.836  1096.78  941.94  1097.97  939.826  1098.71  937.601  1098.96  935.376  1098.71  933.262  1097.97  931.366  1096.78  929.783  1095.2  928.591  1093.3  927.852  1091.19  927.601  1088.96  927.852  1086.74  928.591  1084.63  929.783  1082.73  931.366  1081.15  933.262  1079.96  935.376  1079.22  937.601  1078.96  939.826  1079.22  " style="fill: none; stroke: purple; stroke-width: 0.500000; fill-type: evenodd"  fill-opacity="1.000000" />
   <path d="M 959.316  1079.24  961.513  1079.9  963.498  1081.04  965.166  1082.62  966.426  1084.53  967.211  1086.69  967.477  1088.96  967.211  1091.24  966.426  1093.4  965.166  1095.31  963.498  1096.89  961.513  1098.03  959.316  1098.69  957.027  1098.82  954.768  1098.43  952.663  1097.52  950.824  1096.15  949.35  1094.39  948.321  1092.34  947.792  1090.11  947.792  1087.82  948.321  1085.59  949.35  1083.54  950.824  1081.78  952.663  1080.41  954.768  1079.5  957.027  1079.11  959.316  1079.24  " style="fill: none; stroke: purple; stroke-width: 0.500000; fill-type: evenodd"  fill-opacity="1.000000" />
   <path d="M 1039.83  1059.22  1041.94  1059.96  1043.84  1061.15  1045.42  1062.73  1046.61  1064.63  1047.35  1066.74  1047.6  1068.96  1047.35  1071.19  1046.61  1073.3  1045.42  1075.2  1043.84  1076.78  1041.94  1077.97  1039.83  1078.71  1037.6  1078.96  1035.38  1078.71  1033.26  1077.97  1031.37  1076.78  1029.78  1075.2  1028.59  1073.3  1027.85  1071.19  1027.6  1068.96  1027.85  1066.74  1028.59  1064.63  1029.78  1062.73  1031.37  1061.15  1033.26  1059.96  1035.38  1059.22  1037.6  1058.96  1039.83  1059.22  " style="fill: none; stroke: purple; stroke-width: 0.500000; fill-type: evenodd"  fill-opacity="1.000000" />
   <path d="M 1019.83  1059.22  1021.94  1059.96  1023.84  1061.15  1025.42  1062.73  1026.61  1064.63  1027.35  1066.74  1027.6  1068.96  1027.35  1071.19  1026.61  1073.3  1025.42  1075.2  1023.84  1076.78  1021.94  1077.97  1019.83  1078.71  1017.6  1078.96  1015.38  1078.71  1013.26  1077.97  1011.37  1076.78  1009.78  1075.2  1008.59  1073.3  1007.85  1071.19  1007.6  1068.96  1007.85  1066.74  1008.59  1064.63  1009.78  1062.73  1011.37  1061.15  1013.26  1059.96  1015.38  1059.22  1017.6  1058.96  1019.83  1059.22  " style="fill: none; stroke: purple; stroke-width: 0.500000; fill-type: evenodd"  fill-opacity="1.000000" />
   <path d="M 999.826  1059.22  1001.94  1059.96  1003.84  1061.15  1005.42  1062.73  1006.61  1064.63  1007.35  1066.74  1007.6  1068.96  1007.35  1071.19  1006.61  1073.3  1005.42  1075.2  1003.84  1076.78  1001.94  1077.97  999.826  1078.71  997.601  1078.96  995.376  1078.71  993.262  1077.97  991.366  1076.78  989.783  1075.2  988.591  1073.3  987.852  1071.19  987.601  1068.96  987.852  1066.74  988.591  1064.63  989.783  1062.73  991.366  1061.15  993.262  1059.96  995.376  1059.22  997.601  1058.96  999.826  1059.22  " style="fill: none; stroke: purple; stroke-width: 0.500000; fill-type: evenodd"  fill-opacity="1.000000" />
   <path d="M 919.316  1059.24  921.513  1059.9  923.498  1061.04  925.166  1062.62  926.426  1064.53  927.211  1066.69  927.477  1068.96  927.211  1071.24  926.426  1073.4  925.166  1075.31  923.498  1076.89  921.513  1078.03  919.316  1078.69  917.027  1078.82  914.768  1078.43  912.663  1077.52  910.824  1076.15  909.35  1074.39  908.321  1072.34  907.792  1070.11  907.792  1067.82  908.321  1065.59  909.35  1063.54  910.824  1061.78  912.663  1060.41  914.768  1059.5  917.027  1059.11  919.316  1059.24  " style="fill: none; stroke: purple; stroke-width: 0.500000; fill-type: evenodd"  fill-opacity="1.000000" />
   <path d="M 979.304  1059.3  981.486  1059.96  983.459  1061.1  985.115  1062.66  986.367  1064.56  987.146  1066.7  987.41  1068.96  987.146  1071.23  986.367  1073.37  985.115  1075.27  983.459  1076.83  981.486  1077.97  979.304  1078.63  977.031  1078.76  974.788  1078.36  972.696  1077.46  970.869  1076.1  969.405  1074.36  968.383  1072.32  967.858  1070.1  967.858  1067.83  968.383  1065.61  969.405  1063.57  970.869  1061.83  972.696  1060.47  974.788  1059.57  977.031  1059.17  979.304  1059.3  " style="fill: none; stroke: purple; stroke-width: 0.500000; fill-type: evenodd"  fill-opacity="1.000000" />
   <path d="M 959.292  1059.37  961.459  1060.02  963.417  1061.15  965.062  1062.7  966.305  1064.59  967.078  1066.72  967.341  1068.96  967.078  1071.21  966.305  1073.34  965.062  1075.23  963.417  1076.78  961.459  1077.91  959.292  1078.56  957.035  1078.69  954.807  1078.3  952.731  1077.4  950.917  1076.05  949.463  1074.32  948.448  1072.3  947.927  1070.1  947.927  1067.83  948.448  1065.63  949.463  1063.61  950.917  1061.88  952.731  1060.53  954.807  1059.63  957.035  1059.24  959.292  1059.37  " style="fill: none; stroke: purple; stroke-width: 0.500000; fill-type: evenodd"  fill-opacity="1.000000" />
   <path d="M 939.279  1059.44  941.43  1060.09  943.373  1061.21  945.006  1062.75  946.239  1064.63  947.007  1066.74  947.268  1068.96  947.007  1071.19  946.239  1073.3  945.006  1075.18  943.373  1076.72  941.43  1077.84  939.279  1078.48  937.039  1078.62  934.828  1078.23  932.768  1077.34  930.967  1076  929.525  1074.28  928.517  1072.27  928  1070.09  928  1067.84  928.517  1065.66  929.525  1063.65  930.967  1061.93  932.768  1060.59  934.828  1059.7  937.039  1059.31  939.279  1059.44  " style="fill: none; stroke: purple; stroke-width: 0.500000; fill-type: evenodd"  fill-opacity="1.000000" />
   <path d="M 899.826  1039.22  901.94  1039.96  903.836  1041.15  905.419  1042.73  906.611  1044.63  907.35  1046.74  907.601  1048.96  907.35  1051.19  906.611  1053.3  905.419  1055.2  903.836  1056.78  901.94  1057.97  899.826  1058.71  897.601  1058.96  895.376  1058.71  893.262  1057.97  891.366  1056.78  889.783  1055.2  888.591  1053.3  887.852  1051.19  887.601  1048.96  887.852  1046.74  888.591  1044.63  889.783  1042.73  891.366  1041.15  893.262  1039.96  895.376  1039.22  897.601  1038.96  899.826  1039.22  " style="fill: none; stroke: purple; stroke-width: 0.500000; fill-type: evenodd"  fill-opacity="1.000000" />
   <path d="M 1059.83  1039.22  1061.94  1039.96  1063.84  1041.15  1065.42  1042.73  1066.61  1044.63  1067.35  1046.74  1067.6  1048.96  1067.35  1051.19  1066.61  1053.3  1065.42  1055.2  1063.84  1056.78  1061.94  1057.97  1059.83  1058.71  1057.6  1058.96  1055.38  1058.71  1053.26  1057.97  1051.37  1056.78  1049.78  1055.2  1048.59  1053.3  1047.85  1051.19  1047.6  1048.96  1047.85  1046.74  1048.59  1044.63  1049.78  1042.73  1051.37  1041.15  1053.26  1039.96  1055.38  1039.22  1057.6  1038.96  1059.83  1039.22  " style="fill: none; stroke: purple; stroke-width: 0.500000; fill-type: evenodd"  fill-opacity="1.000000" />
   <path d="M 1019.83  1039.22  1021.94  1039.96  1023.84  1041.15  1025.42  1042.73  1026.61  1044.63  1027.35  1046.74  1027.6  1048.96  1027.35  1051.19  1026.61  1053.3  1025.42  1055.2  1023.84  1056.78  1021.94  1057.97  1019.83  1058.71  1017.6  1058.96  1015.38  1058.71  1013.26  1057.97  1011.37  1056.78  1009.78  1055.2  1008.59  1053.3  1007.85  1051.19  1007.6  1048.96  1007.85  1046.74  1008.59  1044.63  1009.78  1042.73  1011.37  1041.15  1013.26  1039.96  1015.38  1039.22  1017.6  1038.96  1019.83  1039.22  " style="fill: none; stroke: purple; stroke-width: 0.500000; fill-type: evenodd"  fill-opacity="1.000000" />
   <path d="M 999.826  1039.22  1001.94  1039.96  1003.84  1041.15  1005.42  1042.73  1006.61  1044.63  1007.35  1046.74  1007.6  1048.96  1007.35  1051.19  1006.61  1053.3  1005.42  1055.2  1003.84  1056.78  1001.94  1057.97  999.826  1058.71  997.601  1058.96  995.376  1058.71  993.262  1057.97  991.366  1056.78  989.783  1055.2  988.591  1053.3  987.852  1051.19  987.601  1048.96  987.852  1046.74  988.591  1044.63  989.783  1042.73  991.366  1041.15  993.262  1039.96  995.376  1039.22  997.601  1038.96  999.826  1039.22  " style="fill: none; stroke: purple; stroke-width: 0.500000; fill-type: evenodd"  fill-opacity="1.000000" />
   <path d="M 1039.83  1039.22  1041.94  1039.96  1043.84  1041.15  1045.42  1042.73  1046.61  1044.63  1047.35  1046.74  1047.6  1048.96  1047.35  1051.19  1046.61  1053.3  1045.42  1055.2  1043.84  1056.78  1041.94  1057.97  1039.83  1058.71  1037.6  1058.96  1035.38  1058.71  1033.26  1057.97  1031.37  1056.78  1029.78  1055.2  1028.59  1053.3  1027.85  1051.19  1027.6  1048.96  1027.85  1046.74  1028.59  1044.63  1029.78  1042.73  1031.37  1041.15  1033.26  1039.96  1035.38  1039.22  1037.6  1038.96  1039.83  1039.22  " style="fill: none; stroke: purple; stroke-width: 0.500000; fill-type: evenodd"  fill-opacity="1.000000" />
   <path d="M 979.316  1039.24  981.513  1039.9  983.498  1041.04  985.166  1042.62  986.426  1044.53  987.211  1046.69  987.477  1048.96  987.211  1051.24  986.426  1053.4  985.166  1055.31  983.498  1056.89  981.513  1058.03  979.316  1058.69  977.027  1058.82  974.768  1058.43  972.663  1057.52  970.824  1056.15  969.35  1054.39  968.321  1052.34  967.792  1050.11  967.792  1047.82  968.321  1045.59  969.35  1043.54  970.824  1041.78  972.663  1040.41  974.768  1039.5  977.027  1039.11  979.316  1039.24  " style="fill: none; stroke: purple; stroke-width: 0.500000; fill-type: evenodd"  fill-opacity="1.000000" />
   <path d="M 919.304  1039.3  921.486  1039.96  923.459  1041.1  925.115  1042.66  926.367  1044.56  927.146  1046.7  927.41  1048.96  927.146  1051.23  926.367  1053.37  925.115  1055.27  923.459  1056.83  921.486  1057.97  919.304  1058.63  917.031  1058.76  914.788  1058.36  912.696  1057.46  910.869  1056.1  909.405  1054.36  908.383  1052.32  907.858  1050.1  907.858  1047.83  908.383  1045.61  909.405  1043.57  910.869  1041.83  912.696  1040.47  914.788  1039.57  917.031  1039.17  919.304  1039.3  " style="fill: none; stroke: purple; stroke-width: 0.500000; fill-type: evenodd"  fill-opacity="1.000000" />
   <path d="M 959.279  1039.44  961.43  1040.09  963.373  1041.21  965.006  1042.75  966.239  1044.63  967.007  1046.74  967.268  1048.96  967.007  1051.19  966.239  1053.3  965.006  1055.18  963.373  1056.72  961.43  1057.84  959.279  1058.48  957.039  1058.62  954.828  1058.23  952.768  1057.34  950.967  1056  949.525  1054.28  948.517  1052.27  948  1050.09  948  1047.84  948.517  1045.66  949.525  1043.65  950.967  1041.93  952.768  1040.59  954.828  1039.7  957.039  1039.31  959.279  1039.44  " style="fill: none; stroke: purple; stroke-width: 0.500000; fill-type: evenodd"  fill-opacity="1.000000" />
   <path d="M 939.279  1039.44  941.43  1040.09  943.373  1041.21  945.006  1042.75  946.239  1044.63  947.007  1046.74  947.268  1048.96  947.007  1051.19  946.239  1053.3  945.006  1055.18  943.373  1056.72  941.43  1057.84  939.279  1058.48  937.039  1058.62  934.828  1058.23  932.768  1057.34  930.967  1056  929.525  1054.28  928.517  1052.27  928  1050.09  928  1047.84  928.517  1045.66  929.525  1043.65  930.967  1041.93  932.768  1040.59  934.828  1039.7  937.039  1039.31  939.279  1039.44  " style="fill: none; stroke: purple; stroke-width: 0.500000; fill-type: evenodd"  fill-opacity="1.000000" />
   <path d="M 979.826  1019.22  981.94  1019.96  983.836  1021.15  985.419  1022.73  986.611  1024.63  987.35  1026.74  987.601  1028.96  987.35  1031.19  986.611  1033.3  985.419  1035.2  983.836  1036.78  981.94  1037.97  979.826  1038.71  977.601  1038.96  975.376  1038.71  973.262  1037.97  971.366  1036.78  969.783  1035.2  968.591  1033.3  967.852  1031.19  967.601  1028.96  967.852  1026.74  968.591  1024.63  969.783  1022.73  971.366  1021.15  973.262  1019.96  975.376  1019.22  977.601  1018.96  979.826  1019.22  " style="fill: none; stroke: purple; stroke-width: 0.500000; fill-type: evenodd"  fill-opacity="1.000000" />
   <path d="M 1039.83  1019.22  1041.94  1019.96  1043.84  1021.15  1045.42  1022.73  1046.61  1024.63  1047.35  1026.74  1047.6  1028.96  1047.35  1031.19  1046.61  1033.3  1045.42  1035.2  1043.84  1036.78  1041.94  1037.97  1039.83  1038.71  1037.6  1038.96  1035.38  1038.71  1033.26  1037.97  1031.37  1036.78  1029.78  1035.2  1028.59  1033.3  1027.85  1031.19  1027.6  1028.96  1027.85  1026.74  1028.59  1024.63  1029.78  1022.73  1031.37  1021.15  1033.26  1019.96  1035.38  1019.22  1037.6  1018.96  1039.83  1019.22  " style="fill: none; stroke: purple; stroke-width: 0.500000; fill-type: evenodd"  fill-opacity="1.000000" />
   <path d="M 899.826  1019.22  901.94  1019.96  903.836  1021.15  905.419  1022.73  906.611  1024.63  907.35  1026.74  907.601  1028.96  907.35  1031.19  906.611  1033.3  905.419  1035.2  903.836  1036.78  901.94  1037.97  899.826  1038.71  897.601  1038.96  895.376  1038.71  893.262  1037.97  891.366  1036.78  889.783  1035.2  888.591  1033.3  887.852  1031.19  887.601  1028.96  887.852  1026.74  888.591  1024.63  889.783  1022.73  891.366  1021.15  893.262  1019.96  895.376  1019.22  897.601  1018.96  899.826  1019.22  " style="fill: none; stroke: purple; stroke-width: 0.500000; fill-type: evenodd"  fill-opacity="1.000000" />
   <path d="M 1079.83  1019.22  1081.94  1019.96  1083.84  1021.15  1085.42  1022.73  1086.61  1024.63  1087.35  1026.74  1087.6  1028.96  1087.35  1031.19  1086.61  1033.3  1085.42  1035.2  1083.84  1036.78  1081.94  1037.97  1079.83  1038.71  1077.6  1038.96  1075.38  1038.71  1073.26  1037.97  1071.37  1036.78  1069.78  1035.2  1068.59  1033.3  1067.85  1031.19  1067.6  1028.96  1067.85  1026.74  1068.59  1024.63  1069.78  1022.73  1071.37  1021.15  1073.26  1019.96  1075.38  1019.22  1077.6  1018.96  1079.83  1019.22  " style="fill: none; stroke: purple; stroke-width: 0.500000; fill-type: evenodd"  fill-opacity="1.000000" />
   <path d="M 1099.83  1019.22  1101.94  1019.96  1103.84  1021.15  1105.42  1022.73  1106.61  1024.63  1107.35  1026.74  1107.6  1028.96  1107.35  1031.19  1106.61  1033.3  1105.42  1035.2  1103.84  1036.78  1101.94  1037.97  1099.83  1038.71  1097.6  1038.96  1095.38  1038.71  1093.26  1037.97  1091.37  1036.78  1089.78  1035.2  1088.59  1033.3  1087.85  1031.19  1087.6  1028.96  1087.85  1026.74  1088.59  1024.63  1089.78  1022.73  1091.37  1021.15  1093.26  1019.96  1095.38  1019.22  1097.6  1018.96  1099.83  1019.22  " style="fill: none; stroke: purple; stroke-width: 0.500000; fill-type: evenodd"  fill-opacity="1.000000" />
   <path d="M 1059.83  1019.22  1061.94  1019.96  1063.84  1021.15  1065.42  1022.73  1066.61  1024.63  1067.35  1026.74  1067.6  1028.96  1067.35  1031.19  1066.61  1033.3  1065.42  1035.2  1063.84  1036.78  1061.94  1037.97  1059.83  1038.71  1057.6  1038.96  1055.38  1038.71  1053.26  1037.97  1051.37  1036.78  1049.78  1035.2  1048.59  1033.3  1047.85  1031.19  1047.6  1028.96  1047.85  1026.74  1048.59  1024.63  1049.78  1022.73  1051.37  1021.15  1053.26  1019.96  1055.38  1019.22  1057.6  1018.96  1059.83  1019.22  " style="fill: none; stroke: purple; stroke-width: 0.500000; fill-type: evenodd"  fill-opacity="1.000000" />
   <path d="M 959.327  1019.18  961.538  1019.84  963.536  1020.99  965.215  1022.58  966.483  1024.5  967.272  1026.67  967.54  1028.96  967.272  1031.26  966.483  1033.43  965.215  1035.35  963.536  1036.94  961.538  1038.09  959.327  1038.75  957.023  1038.89  954.75  1038.49  952.631  1037.57  950.78  1036.19  949.297  1034.43  948.261  1032.36  947.729  1030.12  947.729  1027.81  948.261  1025.57  949.297  1023.5  950.78  1021.74  952.631  1020.36  954.75  1019.44  957.023  1019.04  959.327  1019.18  " style="fill: none; stroke: purple; stroke-width: 0.500000; fill-type: evenodd"  fill-opacity="1.000000" />
   <path d="M 919.327  1019.18  921.538  1019.84  923.536  1020.99  925.215  1022.58  926.483  1024.5  927.272  1026.67  927.54  1028.96  927.272  1031.26  926.483  1033.43  925.215  1035.35  923.536  1036.94  921.538  1038.09  919.327  1038.75  917.023  1038.89  914.75  1038.49  912.631  1037.57  910.78  1036.19  909.297  1034.43  908.261  1032.36  907.729  1030.12  907.729  1027.81  908.261  1025.57  909.297  1023.5  910.78  1021.74  912.631  1020.36  914.75  1019.44  917.023  1019.04  919.327  1019.18  " style="fill: none; stroke: purple; stroke-width: 0.500000; fill-type: evenodd"  fill-opacity="1.000000" />
   <path d="M 939.304  1019.3  941.486  1019.96  943.459  1021.1  945.115  1022.66  946.367  1024.56  947.146  1026.7  947.41  1028.96  947.146  1031.23  946.367  1033.37  945.115  1035.27  943.459  1036.83  941.486  1037.97  939.304  1038.63  937.031  1038.76  934.788  1038.36  932.696  1037.46  930.869  1036.1  929.405  1034.36  928.383  1032.32  927.858  1030.1  927.858  1027.83  928.383  1025.61  929.405  1023.57  930.869  1021.83  932.696  1020.47  934.788  1019.57  937.031  1019.17  939.304  1019.3  " style="fill: none; stroke: purple; stroke-width: 0.500000; fill-type: evenodd"  fill-opacity="1.000000" />
   <path d="M 1039.83  999.216  1041.94  999.955  1043.84  1001.15  1045.42  1002.73  1046.61  1004.63  1047.35  1006.74  1047.6  1008.96  1047.35  1011.19  1046.61  1013.3  1045.42  1015.2  1043.84  1016.78  1041.94  1017.97  1039.83  1018.71  1037.6  1018.96  1035.38  1018.71  1033.26  1017.97  1031.37  1016.78  1029.78  1015.2  1028.59  1013.3  1027.85  1011.19  1027.6  1008.96  1027.85  1006.74  1028.59  1004.63  1029.78  1002.73  1031.37  1001.15  1033.26  999.955  1035.38  999.216  1037.6  998.965  1039.83  999.216  " style="fill: none; stroke: purple; stroke-width: 0.500000; fill-type: evenodd"  fill-opacity="1.000000" />
   <path d="M 1079.83  999.216  1081.94  999.955  1083.84  1001.15  1085.42  1002.73  1086.61  1004.63  1087.35  1006.74  1087.6  1008.96  1087.35  1011.19  1086.61  1013.3  1085.42  1015.2  1083.84  1016.78  1081.94  1017.97  1079.83  1018.71  1077.6  1018.96  1075.38  1018.71  1073.26  1017.97  1071.37  1016.78  1069.78  1015.2  1068.59  1013.3  1067.85  1011.19  1067.6  1008.96  1067.85  1006.74  1068.59  1004.63  1069.78  1002.73  1071.37  1001.15  1073.26  999.955  1075.38  999.216  1077.6  998.965  1079.83  999.216  " style="fill: none; stroke: purple; stroke-width: 0.500000; fill-type: evenodd"  fill-opacity="1.000000" />
   <path d="M 899.826  999.216  901.94  999.955  903.836  1001.15  905.419  1002.73  906.611  1004.63  907.35  1006.74  907.601  1008.96  907.35  1011.19  906.611  1013.3  905.419  1015.2  903.836  1016.78  901.94  1017.97  899.826  1018.71  897.601  1018.96  895.376  1018.71  893.262  1017.97  891.366  1016.78  889.783  1015.2  888.591  1013.3  887.852  1011.19  887.601  1008.96  887.852  1006.74  888.591  1004.63  889.783  1002.73  891.366  1001.15  893.262  999.955  895.376  999.216  897.601  998.965  899.826  999.216  " style="fill: none; stroke: purple; stroke-width: 0.500000; fill-type: evenodd"  fill-opacity="1.000000" />
   <path d="M 919.826  999.216  921.94  999.955  923.836  1001.15  925.419  1002.73  926.611  1004.63  927.35  1006.74  927.601  1008.96  927.35  1011.19  926.611  1013.3  925.419  1015.2  923.836  1016.78  921.94  1017.97  919.826  1018.71  917.601  1018.96  915.376  1018.71  913.262  1017.97  911.366  1016.78  909.783  1015.2  908.591  1013.3  907.852  1011.19  907.601  1008.96  907.852  1006.74  908.591  1004.63  909.783  1002.73  911.366  1001.15  913.262  999.955  915.376  999.216  917.601  998.965  919.826  999.216  " style="fill: none; stroke: purple; stroke-width: 0.500000; fill-type: evenodd"  fill-opacity="1.000000" />
   <path d="M 1059.83  999.216  1061.94  999.955  1063.84  1001.15  1065.42  1002.73  1066.61  1004.63  1067.35  1006.74  1067.6  1008.96  1067.35  1011.19  1066.61  1013.3  1065.42  1015.2  1063.84  1016.78  1061.94  1017.97  1059.83  1018.71  1057.6  1018.96  1055.38  1018.71  1053.26  1017.97  1051.37  1016.78  1049.78  1015.2  1048.59  1013.3  1047.85  1011.19  1047.6  1008.96  1047.85  1006.74  1048.59  1004.63  1049.78  1002.73  1051.37  1001.15  1053.26  999.955  1055.38  999.216  1057.6  998.965  1059.83  999.216  " style="fill: none; stroke: purple; stroke-width: 0.500000; fill-type: evenodd"  fill-opacity="1.000000" />
   <path d="M 1099.83  999.216  1101.94  999.955  1103.84  1001.15  1105.42  1002.73  1106.61  1004.63  1107.35  1006.74  1107.6  1008.96  1107.35  1011.19  1106.61  1013.3  1105.42  1015.2  1103.84  1016.78  1101.94  1017.97  1099.83  1018.71  1097.6  1018.96  1095.38  1018.71  1093.26  1017.97  1091.37  1016.78  1089.78  1015.2  1088.59  1013.3  1087.85  1011.19  1087.6  1008.96  1087.85  1006.74  1088.59  1004.63  1089.78  1002.73  1091.37  1001.15  1093.26  999.955  1095.38  999.216  1097.6  998.965  1099.83  999.216  " style="fill: none; stroke: purple; stroke-width: 0.500000; fill-type: evenodd"  fill-opacity="1.000000" />
   <path d="M 959.826  999.216  961.94  999.955  963.836  1001.15  965.419  1002.73  966.611  1004.63  967.35  1006.74  967.601  1008.96  967.35  1011.19  966.611  1013.3  965.419  1015.2  963.836  1016.78  961.94  1017.97  959.826  1018.71  957.601  1018.96  955.376  1018.71  953.262  1017.97  951.366  1016.78  949.783  1015.2  948.591  1013.3  947.852  1011.19  947.601  1008.96  947.852  1006.74  948.591  1004.63  949.783  1002.73  951.366  1001.15  953.262  999.955  955.376  999.216  957.601  998.965  959.826  999.216  " style="fill: none; stroke: purple; stroke-width: 0.500000; fill-type: evenodd"  fill-opacity="1.000000" />
   <path d="M 939.826  999.216  941.94  999.955  943.836  1001.15  945.419  1002.73  946.611  1004.63  947.35  1006.74  947.601  1008.96  947.35  1011.19  946.611  1013.3  945.419  1015.2  943.836  1016.78  941.94  1017.97  939.826  1018.71  937.601  1018.96  935.376  1018.71  933.262  1017.97  931.366  1016.78  929.783  1015.2  928.591  1013.3  927.852  1011.19  927.601  1008.96  927.852  1006.74  928.591  1004.63  929.783  1002.73  931.366  1001.15  933.262  999.955  935.376  999.216  937.601  998.965  939.826  999.216  " style="fill: none; stroke: purple; stroke-width: 0.500000; fill-type: evenodd"  fill-opacity="1.000000" />
   <path d="M 1099.83  979.216  1101.94  979.955  1103.84  981.146  1105.42  982.73  1106.61  984.626  1107.35  986.74  1107.6  988.965  1107.35  991.19  1106.61  993.304  1105.42  995.2  1103.84  996.783  1101.94  997.974  1099.83  998.714  1097.6  998.965  1095.38  998.714  1093.26  997.974  1091.37  996.783  1089.78  995.2  1088.59  993.304  1087.85  991.19  1087.6  988.965  1087.85  986.74  1088.59  984.626  1089.78  982.73  1091.37  981.146  1093.26  979.955  1095.38  979.216  1097.6  978.965  1099.83  979.216  " style="fill: none; stroke: purple; stroke-width: 0.500000; fill-type: evenodd"  fill-opacity="1.000000" />
   <path d="M 939.826  979.216  941.94  979.955  943.836  981.146  945.419  982.73  946.611  984.626  947.35  986.74  947.601  988.965  947.35  991.19  946.611  993.304  945.419  995.2  943.836  996.783  941.94  997.974  939.826  998.714  937.601  998.965  935.376  998.714  933.262  997.974  931.366  996.783  929.783  995.2  928.591  993.304  927.852  991.19  927.601  988.965  927.852  986.74  928.591  984.626  929.783  982.73  931.366  981.146  933.262  979.955  935.376  979.216  937.601  978.965  939.826  979.216  " style="fill: none; stroke: purple; stroke-width: 0.500000; fill-type: evenodd"  fill-opacity="1.000000" />
   <path d="M 1019.83  979.216  1021.94  979.955  1023.84  981.146  1025.42  982.73  1026.61  984.626  1027.35  986.74  1027.6  988.965  1027.35  991.19  1026.61  993.304  1025.42  995.2  1023.84  996.783  1021.94  997.974  1019.83  998.714  1017.6  998.965  1015.38  998.714  1013.26  997.974  1011.37  996.783  1009.78  995.2  1008.59  993.304  1007.85  991.19  1007.6  988.965  1007.85  986.74  1008.59  984.626  1009.78  982.73  1011.37  981.146  1013.26  979.955  1015.38  979.216  1017.6  978.965  1019.83  979.216  " style="fill: none; stroke: purple; stroke-width: 0.500000; fill-type: evenodd"  fill-opacity="1.000000" />
   <path d="M 1079.32  979.239  1081.51  979.897  1083.5  981.043  1085.17  982.617  1086.43  984.532  1087.21  986.687  1087.48  988.965  1087.21  991.242  1086.43  993.397  1085.17  995.313  1083.5  996.887  1081.51  998.033  1079.32  998.691  1077.03  998.824  1074.77  998.426  1072.66  997.518  1070.82  996.148  1069.35  994.392  1068.32  992.343  1067.79  990.111  1067.79  987.818  1068.32  985.587  1069.35  983.538  1070.82  981.781  1072.66  980.412  1074.77  979.504  1077.03  979.106  1079.32  979.239  " style="fill: none; stroke: purple; stroke-width: 0.500000; fill-type: evenodd"  fill-opacity="1.000000" />
   <path d="M 1039.3  979.304  1041.49  979.958  1043.46  981.096  1045.12  982.659  1046.37  984.562  1047.15  986.703  1047.41  988.965  1047.15  991.227  1046.37  993.367  1045.12  995.27  1043.46  996.833  1041.49  997.972  1039.3  998.625  1037.03  998.758  1034.79  998.362  1032.7  997.46  1030.87  996.1  1029.41  994.355  1028.38  992.32  1027.86  990.104  1027.86  987.826  1028.38  985.61  1029.41  983.574  1030.87  981.83  1032.7  980.469  1034.79  979.567  1037.03  979.172  1039.3  979.304  " style="fill: none; stroke: purple; stroke-width: 0.500000; fill-type: evenodd"  fill-opacity="1.000000" />
   <path d="M 1059.29  979.373  1061.46  980.021  1063.42  981.152  1065.06  982.704  1066.3  984.594  1067.08  986.719  1067.34  988.965  1067.08  991.211  1066.3  993.336  1065.06  995.225  1063.42  996.777  1061.46  997.908  1059.29  998.557  1057.03  998.688  1054.81  998.295  1052.73  997.4  1050.92  996.049  1049.46  994.317  1048.45  992.296  1047.93  990.096  1047.93  987.834  1048.45  985.634  1049.46  983.613  1050.92  981.88  1052.73  980.53  1054.81  979.634  1057.03  979.241  1059.29  979.373  " style="fill: none; stroke: purple; stroke-width: 0.500000; fill-type: evenodd"  fill-opacity="1.000000" />
   <path d="M 959.826  959.216  961.94  959.955  963.836  961.146  965.419  962.73  966.611  964.626  967.35  966.74  967.601  968.965  967.35  971.19  966.611  973.304  965.419  975.2  963.836  976.783  961.94  977.974  959.826  978.714  957.601  978.965  955.376  978.714  953.262  977.974  951.366  976.783  949.783  975.2  948.591  973.304  947.852  971.19  947.601  968.965  947.852  966.74  948.591  964.626  949.783  962.73  951.366  961.146  953.262  959.955  955.376  959.216  957.601  958.965  959.826  959.216  " style="fill: none; stroke: purple; stroke-width: 0.500000; fill-type: evenodd"  fill-opacity="1.000000" />
   <path d="M 999.826  959.216  1001.94  959.955  1003.84  961.146  1005.42  962.73  1006.61  964.626  1007.35  966.74  1007.6  968.965  1007.35  971.19  1006.61  973.304  1005.42  975.2  1003.84  976.783  1001.94  977.974  999.826  978.714  997.601  978.965  995.376  978.714  993.262  977.974  991.366  976.783  989.783  975.2  988.591  973.304  987.852  971.19  987.601  968.965  987.852  966.74  988.591  964.626  989.783  962.73  991.366  961.146  993.262  959.955  995.376  959.216  997.601  958.965  999.826  959.216  " style="fill: none; stroke: purple; stroke-width: 0.500000; fill-type: evenodd"  fill-opacity="1.000000" />
   <path d="M 1019.32  959.239  1021.51  959.897  1023.5  961.043  1025.17  962.617  1026.43  964.532  1027.21  966.687  1027.48  968.965  1027.21  971.242  1026.43  973.397  1025.17  975.313  1023.5  976.887  1021.51  978.033  1019.32  978.691  1017.03  978.824  1014.77  978.426  1012.66  977.518  1010.82  976.148  1009.35  974.392  1008.32  972.343  1007.79  970.111  1007.79  967.818  1008.32  965.587  1009.35  963.538  1010.82  961.781  1012.66  960.412  1014.77  959.504  1017.03  959.106  1019.32  959.239  " style="fill: none; stroke: purple; stroke-width: 0.500000; fill-type: evenodd"  fill-opacity="1.000000" />
   <path d="M 1079.29  959.373  1081.46  960.021  1083.42  961.152  1085.06  962.704  1086.3  964.594  1087.08  966.719  1087.34  968.965  1087.08  971.211  1086.3  973.336  1085.06  975.225  1083.42  976.777  1081.46  977.908  1079.29  978.557  1077.03  978.688  1074.81  978.295  1072.73  977.4  1070.92  976.049  1069.46  974.317  1068.45  972.296  1067.93  970.096  1067.93  967.834  1068.45  965.634  1069.46  963.613  1070.92  961.88  1072.73  960.53  1074.81  959.634  1077.03  959.241  1079.29  959.373  " style="fill: none; stroke: purple; stroke-width: 0.500000; fill-type: evenodd"  fill-opacity="1.000000" />
   <path d="M 1059.28  959.445  1061.43  960.089  1063.37  961.211  1065.01  962.751  1066.24  964.626  1067.01  966.736  1067.27  968.965  1067.01  971.194  1066.24  973.303  1065.01  975.178  1063.37  976.719  1061.43  977.841  1059.28  978.485  1057.04  978.615  1054.83  978.225  1052.77  977.336  1050.97  975.996  1049.52  974.277  1048.52  972.271  1048  970.087  1048  967.843  1048.52  965.659  1049.52  963.653  1050.97  961.934  1052.77  960.593  1054.83  959.704  1057.04  959.315  1059.28  959.445  " style="fill: none; stroke: purple; stroke-width: 0.500000; fill-type: evenodd"  fill-opacity="1.000000" />
   <path d="M 1039.27  959.521  1041.4  960.159  1043.33  961.273  1044.95  962.801  1046.17  964.661  1046.93  966.753  1047.19  968.965  1046.93  971.176  1046.17  973.269  1044.95  975.129  1043.33  976.657  1041.4  977.77  1039.27  978.409  1037.04  978.538  1034.85  978.152  1032.81  977.27  1031.02  975.94  1029.59  974.234  1028.59  972.245  1028.08  970.078  1028.08  967.852  1028.59  965.685  1029.59  963.695  1031.02  961.989  1032.81  960.66  1034.85  959.778  1037.04  959.391  1039.27  959.521  " style="fill: none; stroke: purple; stroke-width: 0.500000; fill-type: evenodd"  fill-opacity="1.000000" />
   <path d="M 999.826  939.216  1001.94  939.955  1003.84  941.146  1005.42  942.73  1006.61  944.626  1007.35  946.74  1007.6  948.965  1007.35  951.19  1006.61  953.304  1005.42  955.2  1003.84  956.783  1001.94  957.974  999.826  958.714  997.601  958.965  995.376  958.714  993.262  957.974  991.366  956.783  989.783  955.2  988.591  953.304  987.852  951.19  987.601  948.965  987.852  946.74  988.591  944.626  989.783  942.73  991.366  941.146  993.262  939.955  995.376  939.216  997.601  938.965  999.826  939.216  " style="fill: none; stroke: purple; stroke-width: 0.500000; fill-type: evenodd"  fill-opacity="1.000000" />
   <path d="M 979.826  939.216  981.94  939.955  983.836  941.146  985.419  942.73  986.611  944.626  987.35  946.74  987.601  948.965  987.35  951.19  986.611  953.304  985.419  955.2  983.836  956.783  981.94  957.974  979.826  958.714  977.601  958.965  975.376  958.714  973.262  957.974  971.366  956.783  969.783  955.2  968.591  953.304  967.852  951.19  967.601  948.965  967.852  946.74  968.591  944.626  969.783  942.73  971.366  941.146  973.262  939.955  975.376  939.216  977.601  938.965  979.826  939.216  " style="fill: none; stroke: purple; stroke-width: 0.500000; fill-type: evenodd"  fill-opacity="1.000000" />
   <path d="M 1079.33  939.176  1081.54  939.838  1083.54  940.992  1085.21  942.576  1086.48  944.504  1087.27  946.673  1087.54  948.965  1087.27  951.257  1086.48  953.426  1085.21  955.354  1083.54  956.937  1081.54  958.091  1079.33  958.753  1077.02  958.887  1074.75  958.487  1072.63  957.573  1070.78  956.194  1069.3  954.427  1068.26  952.364  1067.73  950.119  1067.73  947.811  1068.26  945.565  1069.3  943.503  1070.78  941.735  1072.63  940.357  1074.75  939.443  1077.02  939.042  1079.33  939.176  " style="fill: none; stroke: purple; stroke-width: 0.500000; fill-type: evenodd"  fill-opacity="1.000000" />
   <path d="M 1019.29  939.373  1021.46  940.021  1023.42  941.152  1025.06  942.704  1026.3  944.594  1027.08  946.719  1027.34  948.965  1027.08  951.211  1026.3  953.336  1025.06  955.225  1023.42  956.777  1021.46  957.908  1019.29  958.557  1017.03  958.688  1014.81  958.295  1012.73  957.4  1010.92  956.049  1009.46  954.317  1008.45  952.296  1007.93  950.096  1007.93  947.834  1008.45  945.634  1009.46  943.613  1010.92  941.88  1012.73  940.53  1014.81  939.634  1017.03  939.241  1019.29  939.373  " style="fill: none; stroke: purple; stroke-width: 0.500000; fill-type: evenodd"  fill-opacity="1.000000" />
   <path d="M 1059.28  939.445  1061.43  940.089  1063.37  941.211  1065.01  942.751  1066.24  944.626  1067.01  946.736  1067.27  948.965  1067.01  951.194  1066.24  953.303  1065.01  955.178  1063.37  956.719  1061.43  957.841  1059.28  958.485  1057.04  958.615  1054.83  958.225  1052.77  957.336  1050.97  955.996  1049.52  954.277  1048.52  952.271  1048  950.087  1048  947.843  1048.52  945.659  1049.52  943.653  1050.97  941.934  1052.77  940.593  1054.83  939.704  1057.04  939.315  1059.28  939.445  " style="fill: none; stroke: purple; stroke-width: 0.500000; fill-type: evenodd"  fill-opacity="1.000000" />
   <path d="M 1039.27  939.521  1041.4  940.159  1043.33  941.273  1044.95  942.801  1046.17  944.661  1046.93  946.753  1047.19  948.965  1046.93  951.176  1046.17  953.269  1044.95  955.129  1043.33  956.657  1041.4  957.77  1039.27  958.409  1037.04  958.538  1034.85  958.152  1032.81  957.27  1031.02  955.94  1029.59  954.234  1028.59  952.245  1028.08  950.078  1028.08  947.852  1028.59  945.685  1029.59  943.695  1031.02  941.989  1032.81  940.66  1034.85  939.778  1037.04  939.391  1039.27  939.521  " style="fill: none; stroke: purple; stroke-width: 0.500000; fill-type: evenodd"  fill-opacity="1.000000" />
   <path d="M 999.826  919.216  1001.94  919.955  1003.84  921.146  1005.42  922.73  1006.61  924.626  1007.35  926.74  1007.6  928.965  1007.35  931.19  1006.61  933.304  1005.42  935.2  1003.84  936.783  1001.94  937.974  999.826  938.714  997.601  938.965  995.376  938.714  993.262  937.974  991.366  936.783  989.783  935.2  988.591  933.304  987.852  931.19  987.601  928.965  987.852  926.74  988.591  924.626  989.783  922.73  991.366  921.146  993.262  919.955  995.376  919.216  997.601  918.965  999.826  919.216  " style="fill: none; stroke: purple; stroke-width: 0.500000; fill-type: evenodd"  fill-opacity="1.000000" />
   <path d="M 1059.32  919.239  1061.51  919.897  1063.5  921.043  1065.17  922.617  1066.43  924.532  1067.21  926.687  1067.48  928.965  1067.21  931.242  1066.43  933.397  1065.17  935.313  1063.5  936.887  1061.51  938.033  1059.32  938.691  1057.03  938.824  1054.77  938.426  1052.66  937.518  1050.82  936.148  1049.35  934.392  1048.32  932.343  1047.79  930.111  1047.79  927.818  1048.32  925.587  1049.35  923.538  1050.82  921.781  1052.66  920.412  1054.77  919.504  1057.03  919.106  1059.32  919.239  " style="fill: none; stroke: purple; stroke-width: 0.500000; fill-type: evenodd"  fill-opacity="1.000000" />
   <path d="M 1019.32  919.239  1021.51  919.897  1023.5  921.043  1025.17  922.617  1026.43  924.532  1027.21  926.687  1027.48  928.965  1027.21  931.242  1026.43  933.397  1025.17  935.313  1023.5  936.887  1021.51  938.033  1019.32  938.691  1017.03  938.824  1014.77  938.426  1012.66  937.518  1010.82  936.148  1009.35  934.392  1008.32  932.343  1007.79  930.111  1007.79  927.818  1008.32  925.587  1009.35  923.538  1010.82  921.781  1012.66  920.412  1014.77  919.504  1017.03  919.106  1019.32  919.239  " style="fill: none; stroke: purple; stroke-width: 0.500000; fill-type: evenodd"  fill-opacity="1.000000" />
   <path d="M 1039.29  919.373  1041.46  920.021  1043.42  921.152  1045.06  922.704  1046.3  924.594  1047.08  926.719  1047.34  928.965  1047.08  931.211  1046.3  933.336  1045.06  935.225  1043.42  936.777  1041.46  937.908  1039.29  938.557  1037.03  938.688  1034.81  938.295  1032.73  937.4  1030.92  936.049  1029.46  934.317  1028.45  932.296  1027.93  930.096  1027.93  927.834  1028.45  925.634  1029.46  923.613  1030.92  921.88  1032.73  920.53  1034.81  919.634  1037.03  919.241  1039.29  919.373  " style="fill: none; stroke: purple; stroke-width: 0.500000; fill-type: evenodd"  fill-opacity="1.000000" />
   <path d="M 999.826  899.216  1001.94  899.955  1003.84  901.146  1005.42  902.73  1006.61  904.626  1007.35  906.74  1007.6  908.965  1007.35  911.19  1006.61  913.304  1005.42  915.2  1003.84  916.783  1001.94  917.974  999.826  918.714  997.601  918.965  995.376  918.714  993.262  917.974  991.366  916.783  989.783  915.2  988.591  913.304  987.852  911.19  987.601  908.965  987.852  906.74  988.591  904.626  989.783  902.73  991.366  901.146  993.262  899.955  995.376  899.216  997.601  898.965  999.826  899.216  " style="fill: none; stroke: purple; stroke-width: 0.500000; fill-type: evenodd"  fill-opacity="1.000000" />
   <path d="M 1039.83  899.216  1041.94  899.955  1043.84  901.146  1045.42  902.73  1046.61  904.626  1047.35  906.74  1047.6  908.965  1047.35  911.19  1046.61  913.304  1045.42  915.2  1043.84  916.783  1041.94  917.974  1039.83  918.714  1037.6  918.965  1035.38  918.714  1033.26  917.974  1031.37  916.783  1029.78  915.2  1028.59  913.304  1027.85  911.19  1027.6  908.965  1027.85  906.74  1028.59  904.626  1029.78  902.73  1031.37  901.146  1033.26  899.955  1035.38  899.216  1037.6  898.965  1039.83  899.216  " style="fill: none; stroke: purple; stroke-width: 0.500000; fill-type: evenodd"  fill-opacity="1.000000" />
   <path d="M 1019.83  899.216  1021.94  899.955  1023.84  901.146  1025.42  902.73  1026.61  904.626  1027.35  906.74  1027.6  908.965  1027.35  911.19  1026.61  913.304  1025.42  915.2  1023.84  916.783  1021.94  917.974  1019.83  918.714  1017.6  918.965  1015.38  918.714  1013.26  917.974  1011.37  916.783  1009.78  915.2  1008.59  913.304  1007.85  911.19  1007.6  908.965  1007.85  906.74  1008.59  904.626  1009.78  902.73  1011.37  901.146  1013.26  899.955  1015.38  899.216  1017.6  898.965  1019.83  899.216  " style="fill: none; stroke: purple; stroke-width: 0.500000; fill-type: evenodd"  fill-opacity="1.000000" />
</svg>
