<?xml version="1.0" encoding="UTF-8" standalone="yes"?>
<!DOCTYPE svg PUBLIC "-//W3C//DTD SVG 1.0//EN" "http://www.w3.org/TR/2001/REC-SVG-20010904/DTD/svg10.dtd">
<svg height="2000" width="2000" xmlns="http://www.w3.org/2000/svg" xmlns:svg="http://www.w3.org/2000/svg" xmlns:xlink="http://www.w3.org/1999/xlink">
   <marker id="endArrow" markerHeight="8" markerUnits="strokeWidth" markerWidth="10" orient="auto" refX="1" refY="5" viewBox="0 0 1000 1000">
      <polyline fill="darkblue" points="0,0 10,5 0,10 1,5" />
   </marker>
   <circle cx="1000" cy="1000" r="1" style="stroke:black; fill: red" />
   <circle cx="1000" cy="1000" r="800" style="stroke:black; fill: none" />
   <line x1="822.903992" y1="1317.796021" x2="822.903992" y2="1358.013428" style="stroke: green; stroke-width: 0.200000"/>
   <line x1="823.904053" y1="1319.332520" x2="823.904053" y2="1358.013428" style="stroke: green; stroke-width: 0.200000"/>
   <line x1="824.904053" y1="1320.776123" x2="824.904053" y2="1358.013428" style="stroke: green; stroke-width: 0.200000"/>
   <line x1="825.903992" y1="1322.196777" x2="825.903992" y2="1358.013428" style="stroke: green; stroke-width: 0.200000"/>
   <line x1="826.903992" y1="1323.617432" x2="826.903992" y2="1358.013428" style="stroke: green; stroke-width: 0.200000"/>
   <line x1="827.903992" y1="1325.130127" x2="827.903992" y2="1358.013428" style="stroke: green; stroke-width: 0.200000"/>
   <line x1="828.904053" y1="1326.936035" x2="828.904053" y2="1358.013428" style="stroke: green; stroke-width: 0.200000"/>
   <line x1="829.904053" y1="1328.710938" x2="829.904053" y2="1358.013428" style="stroke: green; stroke-width: 0.200000"/>
   <line x1="830.903992" y1="1330.260620" x2="830.903992" y2="1358.013428" style="stroke: green; stroke-width: 0.200000"/>
   <line x1="831.903992" y1="1331.810181" x2="831.903992" y2="1358.013428" style="stroke: green; stroke-width: 0.200000"/>
   <line x1="832.903992" y1="1333.359863" x2="832.903992" y2="1358.013428" style="stroke: green; stroke-width: 0.200000"/>
   <line x1="833.904053" y1="1334.909424" x2="833.904053" y2="1358.013428" style="stroke: green; stroke-width: 0.200000"/>
   <line x1="834.904053" y1="1337.123047" x2="834.904053" y2="1358.013428" style="stroke: green; stroke-width: 0.200000"/>
   <line x1="835.903992" y1="1339.197021" x2="835.903992" y2="1358.013428" style="stroke: green; stroke-width: 0.200000"/>
   <line x1="836.903992" y1="1341.259155" x2="836.903992" y2="1358.013428" style="stroke: green; stroke-width: 0.200000"/>
   <line x1="837.903992" y1="1343.321411" x2="837.903992" y2="1358.013428" style="stroke: green; stroke-width: 0.200000"/>
   <line x1="838.904053" y1="1345.383545" x2="838.904053" y2="1358.013428" style="stroke: green; stroke-width: 0.200000"/>
   <line x1="839.904053" y1="1347.390137" x2="839.904053" y2="1358.013428" style="stroke: green; stroke-width: 0.200000"/>
   <line x1="840.903992" y1="1349.795532" x2="840.903992" y2="1358.013428" style="stroke: green; stroke-width: 0.200000"/>
   <line x1="841.903992" y1="1352.364746" x2="841.903992" y2="1358.013428" style="stroke: green; stroke-width: 0.200000"/>
   <line x1="842.903992" y1="1354.934204" x2="842.903992" y2="1358.013428" style="stroke: green; stroke-width: 0.200000"/>
   <line x1="843.904053" y1="1357.503662" x2="843.904053" y2="1358.013428" style="stroke: green; stroke-width: 0.200000"/>
   <line x1="821.903992" y1="1316.575806" x2="821.903992" y2="1357.619751" style="stroke: green; stroke-width: 0.200000"/>
   <line x1="820.903992" y1="1315.355713" x2="820.903992" y2="1356.428955" style="stroke: green; stroke-width: 0.200000"/>
   <line x1="819.904053" y1="1314.135498" x2="819.904053" y2="1355.238281" style="stroke: green; stroke-width: 0.200000"/>
   <line x1="818.904053" y1="1312.915161" x2="818.904053" y2="1354.047607" style="stroke: green; stroke-width: 0.200000"/>
   <line x1="817.903992" y1="1311.538696" x2="817.903992" y2="1352.857056" style="stroke: green; stroke-width: 0.200000"/>
   <line x1="816.903992" y1="1310.457520" x2="816.903992" y2="1351.674072" style="stroke: green; stroke-width: 0.200000"/>
   <line x1="815.903992" y1="1310.036011" x2="815.903992" y2="1350.515015" style="stroke: green; stroke-width: 0.200000"/>
   <line x1="814.904053" y1="1309.614502" x2="814.904053" y2="1349.453735" style="stroke: green; stroke-width: 0.200000"/>
   <line x1="813.904053" y1="1309.193115" x2="813.904053" y2="1348.457764" style="stroke: green; stroke-width: 0.200000"/>
   <line x1="812.903992" y1="1308.800537" x2="812.903992" y2="1347.461670" style="stroke: green; stroke-width: 0.200000"/>
   <line x1="811.903992" y1="1308.464478" x2="811.903992" y2="1346.465576" style="stroke: green; stroke-width: 0.200000"/>
   <line x1="810.903992" y1="1308.128540" x2="810.903992" y2="1345.469482" style="stroke: green; stroke-width: 0.200000"/>
   <line x1="809.904053" y1="1308.394531" x2="809.904053" y2="1344.473389" style="stroke: green; stroke-width: 0.200000"/>
   <line x1="808.904053" y1="1308.973389" x2="808.904053" y2="1343.477295" style="stroke: green; stroke-width: 0.200000"/>
   <line x1="807.903992" y1="1309.552246" x2="807.903992" y2="1342.481201" style="stroke: green; stroke-width: 0.200000"/>
   <line x1="806.903992" y1="1310.131348" x2="806.903992" y2="1341.555420" style="stroke: green; stroke-width: 0.200000"/>
   <line x1="805.903992" y1="1310.710327" x2="805.903992" y2="1340.737427" style="stroke: green; stroke-width: 0.200000"/>
   <line x1="804.904053" y1="1311.289185" x2="804.904053" y2="1339.919434" style="stroke: green; stroke-width: 0.200000"/>
   <line x1="803.904053" y1="1311.868286" x2="803.904053" y2="1339.066284" style="stroke: green; stroke-width: 0.200000"/>
   <line x1="802.903992" y1="1312.352783" x2="802.903992" y2="1338.160889" style="stroke: green; stroke-width: 0.200000"/>
   <line x1="801.903992" y1="1312.818604" x2="801.903992" y2="1337.255371" style="stroke: green; stroke-width: 0.200000"/>
   <line x1="800.903992" y1="1314.051636" x2="800.903992" y2="1336.349976" style="stroke: green; stroke-width: 0.200000"/>
   <line x1="799.904053" y1="1315.543701" x2="799.904053" y2="1335.192383" style="stroke: green; stroke-width: 0.200000"/>
   <line x1="798.904053" y1="1317.035522" x2="798.904053" y2="1333.677368" style="stroke: green; stroke-width: 0.200000"/>
   <line x1="797.903992" y1="1318.890625" x2="797.903992" y2="1332.162354" style="stroke: green; stroke-width: 0.200000"/>
   <line x1="796.903992" y1="1321.756592" x2="796.903992" y2="1330.647217" style="stroke: green; stroke-width: 0.200000"/>
   <line x1="795.903992" y1="1324.622681" x2="795.903992" y2="1329.132568" style="stroke: green; stroke-width: 0.200000"/>
   <line x1="840.903992" y1="1358.113525" x2="840.903992" y2="1379.030640" style="stroke: green; stroke-width: 0.200000"/>
   <line x1="839.904053" y1="1358.113525" x2="839.904053" y2="1378.950317" style="stroke: green; stroke-width: 0.200000"/>
   <line x1="841.903992" y1="1358.113525" x2="841.903992" y2="1378.767212" style="stroke: green; stroke-width: 0.200000"/>
   <line x1="842.903992" y1="1358.113525" x2="842.903992" y2="1378.503906" style="stroke: green; stroke-width: 0.200000"/>
   <line x1="843.904053" y1="1358.113525" x2="843.904053" y2="1378.240479" style="stroke: green; stroke-width: 0.200000"/>
   <line x1="838.904053" y1="1358.113525" x2="838.904053" y2="1378.114014" style="stroke: green; stroke-width: 0.200000"/>
   <line x1="844.904053" y1="1360.072998" x2="844.904053" y2="1377.976562" style="stroke: green; stroke-width: 0.200000"/>
   <line x1="837.903992" y1="1358.113525" x2="837.903992" y2="1377.277832" style="stroke: green; stroke-width: 0.200000"/>
   <line x1="836.903992" y1="1358.113525" x2="836.903992" y2="1376.441650" style="stroke: green; stroke-width: 0.200000"/>
   <line x1="835.903992" y1="1358.113525" x2="835.903992" y2="1375.605469" style="stroke: green; stroke-width: 0.200000"/>
   <line x1="834.904053" y1="1358.113525" x2="834.904053" y2="1374.769165" style="stroke: green; stroke-width: 0.200000"/>
   <line x1="833.904053" y1="1358.113525" x2="833.904053" y2="1373.932861" style="stroke: green; stroke-width: 0.200000"/>
   <line x1="832.903992" y1="1358.113525" x2="832.903992" y2="1372.674805" style="stroke: green; stroke-width: 0.200000"/>
   <line x1="831.903992" y1="1358.113525" x2="831.903992" y2="1371.261475" style="stroke: green; stroke-width: 0.200000"/>
   <line x1="830.903992" y1="1358.113525" x2="830.903992" y2="1369.848145" style="stroke: green; stroke-width: 0.200000"/>
   <line x1="829.904053" y1="1358.113525" x2="829.904053" y2="1368.435181" style="stroke: green; stroke-width: 0.200000"/>
   <line x1="828.904053" y1="1358.113525" x2="828.904053" y2="1367.021973" style="stroke: green; stroke-width: 0.200000"/>
   <line x1="827.903992" y1="1358.113525" x2="827.903992" y2="1365.611328" style="stroke: green; stroke-width: 0.200000"/>
   <line x1="826.903992" y1="1358.113525" x2="826.903992" y2="1364.289429" style="stroke: green; stroke-width: 0.200000"/>
   <line x1="825.903992" y1="1358.113525" x2="825.903992" y2="1362.967529" style="stroke: green; stroke-width: 0.200000"/>
   <line x1="824.904053" y1="1358.113525" x2="824.904053" y2="1361.645630" style="stroke: green; stroke-width: 0.200000"/>
   <line x1="823.904053" y1="1358.113525" x2="823.904053" y2="1360.323730" style="stroke: green; stroke-width: 0.200000"/>
   <line x1="822.903992" y1="1358.113525" x2="822.903992" y2="1358.999512" style="stroke: green; stroke-width: 0.200000"/>
   <line x1="845.903992" y1="1362.812500" x2="845.903992" y2="1377.713135" style="stroke: green; stroke-width: 0.200000"/>
   <line x1="846.903992" y1="1367.337158" x2="846.903992" y2="1377.449829" style="stroke: green; stroke-width: 0.200000"/>
   <line x1="847.903992" y1="1371.459351" x2="847.903992" y2="1377.186401" style="stroke: green; stroke-width: 0.200000"/>
   <line x1="848.904053" y1="1375.775146" x2="848.904053" y2="1376.727905" style="stroke: green; stroke-width: 0.200000"/>
   <line x1="961.440369" y1="1206.174194" x2="961.440369" y2="1235.355103" style="stroke: green; stroke-width: 0.200000"/>
   <line x1="962.440308" y1="1207.441406" x2="962.440308" y2="1235.355103" style="stroke: green; stroke-width: 0.200000"/>
   <line x1="963.440308" y1="1208.708618" x2="963.440308" y2="1235.355103" style="stroke: green; stroke-width: 0.200000"/>
   <line x1="964.440369" y1="1209.881470" x2="964.440369" y2="1235.355103" style="stroke: green; stroke-width: 0.200000"/>
   <line x1="965.440369" y1="1210.784302" x2="965.440369" y2="1235.355103" style="stroke: green; stroke-width: 0.200000"/>
   <line x1="966.440369" y1="1211.781128" x2="966.440369" y2="1235.355103" style="stroke: green; stroke-width: 0.200000"/>
   <line x1="967.440308" y1="1212.768066" x2="967.440308" y2="1235.355103" style="stroke: green; stroke-width: 0.200000"/>
   <line x1="968.440308" y1="1213.731201" x2="968.440308" y2="1235.355103" style="stroke: green; stroke-width: 0.200000"/>
   <line x1="969.440369" y1="1214.694336" x2="969.440369" y2="1235.355103" style="stroke: green; stroke-width: 0.200000"/>
   <line x1="970.440369" y1="1215.657471" x2="970.440369" y2="1235.355103" style="stroke: green; stroke-width: 0.200000"/>
   <line x1="971.440369" y1="1216.620605" x2="971.440369" y2="1235.355103" style="stroke: green; stroke-width: 0.200000"/>
   <line x1="972.440308" y1="1217.583984" x2="972.440308" y2="1235.355103" style="stroke: green; stroke-width: 0.200000"/>
   <line x1="973.440308" y1="1218.547363" x2="973.440308" y2="1235.355103" style="stroke: green; stroke-width: 0.200000"/>
   <line x1="974.440369" y1="1219.510498" x2="974.440369" y2="1235.355103" style="stroke: green; stroke-width: 0.200000"/>
   <line x1="960.440369" y1="1204.906982" x2="960.440369" y2="1235.246094" style="stroke: green; stroke-width: 0.200000"/>
   <line x1="959.440369" y1="1203.650146" x2="959.440369" y2="1234.572632" style="stroke: green; stroke-width: 0.200000"/>
   <line x1="958.440308" y1="1202.425659" x2="958.440308" y2="1233.994019" style="stroke: green; stroke-width: 0.200000"/>
   <line x1="957.440308" y1="1201.201416" x2="957.440308" y2="1233.415283" style="stroke: green; stroke-width: 0.200000"/>
   <line x1="956.440369" y1="1199.984009" x2="956.440369" y2="1232.836670" style="stroke: green; stroke-width: 0.200000"/>
   <line x1="955.440369" y1="1198.779175" x2="955.440369" y2="1232.258057" style="stroke: green; stroke-width: 0.200000"/>
   <line x1="954.440369" y1="1197.574585" x2="954.440369" y2="1231.679443" style="stroke: green; stroke-width: 0.200000"/>
   <line x1="953.440308" y1="1196.369751" x2="953.440308" y2="1230.911255" style="stroke: green; stroke-width: 0.200000"/>
   <line x1="952.440308" y1="1195.092041" x2="952.440308" y2="1230.120972" style="stroke: green; stroke-width: 0.200000"/>
   <line x1="951.440369" y1="1193.795410" x2="951.440369" y2="1229.330688" style="stroke: green; stroke-width: 0.200000"/>
   <line x1="950.440369" y1="1192.499023" x2="950.440369" y2="1228.540405" style="stroke: green; stroke-width: 0.200000"/>
   <line x1="949.440369" y1="1191.279175" x2="949.440369" y2="1227.753662" style="stroke: green; stroke-width: 0.200000"/>
   <line x1="948.440308" y1="1190.575806" x2="948.440308" y2="1226.973389" style="stroke: green; stroke-width: 0.200000"/>
   <line x1="947.440308" y1="1189.872314" x2="947.440308" y2="1226.193237" style="stroke: green; stroke-width: 0.200000"/>
   <line x1="946.440369" y1="1189.496338" x2="946.440369" y2="1225.412964" style="stroke: green; stroke-width: 0.200000"/>
   <line x1="945.440369" y1="1189.141724" x2="945.440369" y2="1224.632690" style="stroke: green; stroke-width: 0.200000"/>
   <line x1="944.440369" y1="1188.787109" x2="944.440369" y2="1223.852417" style="stroke: green; stroke-width: 0.200000"/>
   <line x1="943.440308" y1="1188.417358" x2="943.440308" y2="1223.072388" style="stroke: green; stroke-width: 0.200000"/>
   <line x1="942.440308" y1="1187.946411" x2="942.440308" y2="1222.292114" style="stroke: green; stroke-width: 0.200000"/>
   <line x1="941.440369" y1="1187.475464" x2="941.440369" y2="1221.487183" style="stroke: green; stroke-width: 0.200000"/>
   <line x1="940.440369" y1="1187.004517" x2="940.440369" y2="1220.407349" style="stroke: green; stroke-width: 0.200000"/>
   <line x1="939.440369" y1="1186.533691" x2="939.440369" y2="1219.313721" style="stroke: green; stroke-width: 0.200000"/>
   <line x1="938.440308" y1="1186.098145" x2="938.440308" y2="1218.220093" style="stroke: green; stroke-width: 0.200000"/>
   <line x1="937.440308" y1="1185.666748" x2="937.440308" y2="1217.126587" style="stroke: green; stroke-width: 0.200000"/>
   <line x1="936.440369" y1="1185.461182" x2="936.440369" y2="1216.032959" style="stroke: green; stroke-width: 0.200000"/>
   <line x1="935.440369" y1="1185.842896" x2="935.440369" y2="1214.939331" style="stroke: green; stroke-width: 0.200000"/>
   <line x1="934.440369" y1="1186.224609" x2="934.440369" y2="1213.919556" style="stroke: green; stroke-width: 0.200000"/>
   <line x1="933.440308" y1="1186.606323" x2="933.440308" y2="1212.905884" style="stroke: green; stroke-width: 0.200000"/>
   <line x1="932.440308" y1="1186.988037" x2="932.440308" y2="1211.892212" style="stroke: green; stroke-width: 0.200000"/>
   <line x1="931.440369" y1="1187.540283" x2="931.440369" y2="1210.878662" style="stroke: green; stroke-width: 0.200000"/>
   <line x1="930.440369" y1="1188.203247" x2="930.440369" y2="1209.234863" style="stroke: green; stroke-width: 0.200000"/>
   <line x1="929.440369" y1="1189.023438" x2="929.440369" y2="1207.339966" style="stroke: green; stroke-width: 0.200000"/>
   <line x1="928.440308" y1="1190.000854" x2="928.440308" y2="1205.526733" style="stroke: green; stroke-width: 0.200000"/>
   <line x1="927.440308" y1="1190.978271" x2="927.440308" y2="1203.713501" style="stroke: green; stroke-width: 0.200000"/>
   <line x1="926.440369" y1="1191.955688" x2="926.440369" y2="1201.900146" style="stroke: green; stroke-width: 0.200000"/>
   <line x1="925.440369" y1="1198.257812" x2="925.440369" y2="1200.086914" style="stroke: green; stroke-width: 0.200000"/>
   <line x1="975.440369" y1="1220.260132" x2="975.440369" y2="1235.355103" style="stroke: green; stroke-width: 0.200000"/>
   <line x1="976.440369" y1="1220.937622" x2="976.440369" y2="1235.355103" style="stroke: green; stroke-width: 0.200000"/>
   <line x1="977.440308" y1="1221.626343" x2="977.440308" y2="1235.355103" style="stroke: green; stroke-width: 0.200000"/>
   <line x1="978.440308" y1="1222.373535" x2="978.440308" y2="1235.355103" style="stroke: green; stroke-width: 0.200000"/>
   <line x1="979.440369" y1="1223.120850" x2="979.440369" y2="1235.355103" style="stroke: green; stroke-width: 0.200000"/>
   <line x1="980.440369" y1="1223.868042" x2="980.440369" y2="1235.355103" style="stroke: green; stroke-width: 0.200000"/>
   <line x1="981.440369" y1="1224.615356" x2="981.440369" y2="1235.355103" style="stroke: green; stroke-width: 0.200000"/>
   <line x1="982.440308" y1="1225.321289" x2="982.440308" y2="1235.355103" style="stroke: green; stroke-width: 0.200000"/>
   <line x1="983.440308" y1="1226.023560" x2="983.440308" y2="1235.355103" style="stroke: green; stroke-width: 0.200000"/>
   <line x1="984.440369" y1="1226.752930" x2="984.440369" y2="1235.355103" style="stroke: green; stroke-width: 0.200000"/>
   <line x1="985.440369" y1="1227.611328" x2="985.440369" y2="1235.355103" style="stroke: green; stroke-width: 0.200000"/>
   <line x1="986.440369" y1="1228.277344" x2="986.440369" y2="1235.355103" style="stroke: green; stroke-width: 0.200000"/>
   <line x1="987.440308" y1="1228.926514" x2="987.440308" y2="1235.355103" style="stroke: green; stroke-width: 0.200000"/>
   <line x1="988.440308" y1="1229.575806" x2="988.440308" y2="1235.355103" style="stroke: green; stroke-width: 0.200000"/>
   <line x1="989.440369" y1="1230.224976" x2="989.440369" y2="1235.355103" style="stroke: green; stroke-width: 0.200000"/>
   <line x1="990.440369" y1="1230.874268" x2="990.440369" y2="1235.355103" style="stroke: green; stroke-width: 0.200000"/>
   <line x1="991.440369" y1="1231.534180" x2="991.440369" y2="1235.355103" style="stroke: green; stroke-width: 0.200000"/>
   <line x1="992.440308" y1="1232.318237" x2="992.440308" y2="1235.355103" style="stroke: green; stroke-width: 0.200000"/>
   <line x1="993.440308" y1="1233.102295" x2="993.440308" y2="1235.355103" style="stroke: green; stroke-width: 0.200000"/>
   <line x1="994.440369" y1="1233.886353" x2="994.440369" y2="1235.355103" style="stroke: green; stroke-width: 0.200000"/>
   <line x1="995.440369" y1="1234.670288" x2="995.440369" y2="1235.355103" style="stroke: green; stroke-width: 0.200000"/>
   <line x1="974.440369" y1="1235.455200" x2="974.440369" y2="1243.598755" style="stroke: green; stroke-width: 0.200000"/>
   <line x1="973.440308" y1="1235.455200" x2="973.440308" y2="1243.018921" style="stroke: green; stroke-width: 0.200000"/>
   <line x1="972.440308" y1="1235.455200" x2="972.440308" y2="1242.439209" style="stroke: green; stroke-width: 0.200000"/>
   <line x1="971.440369" y1="1235.455200" x2="971.440369" y2="1241.859253" style="stroke: green; stroke-width: 0.200000"/>
   <line x1="970.440369" y1="1235.455200" x2="970.440369" y2="1241.279297" style="stroke: green; stroke-width: 0.200000"/>
   <line x1="969.440369" y1="1235.455200" x2="969.440369" y2="1240.699341" style="stroke: green; stroke-width: 0.200000"/>
   <line x1="968.440308" y1="1235.455200" x2="968.440308" y2="1240.149048" style="stroke: green; stroke-width: 0.200000"/>
   <line x1="967.440308" y1="1235.455200" x2="967.440308" y2="1239.656860" style="stroke: green; stroke-width: 0.200000"/>
   <line x1="966.440369" y1="1235.455200" x2="966.440369" y2="1239.164551" style="stroke: green; stroke-width: 0.200000"/>
   <line x1="965.440369" y1="1235.455200" x2="965.440369" y2="1238.631226" style="stroke: green; stroke-width: 0.200000"/>
   <line x1="964.440369" y1="1235.455200" x2="964.440369" y2="1237.954346" style="stroke: green; stroke-width: 0.200000"/>
   <line x1="963.440308" y1="1235.455200" x2="963.440308" y2="1237.277344" style="stroke: green; stroke-width: 0.200000"/>
   <line x1="962.440308" y1="1235.455200" x2="962.440308" y2="1236.600220" style="stroke: green; stroke-width: 0.200000"/>
   <line x1="961.440369" y1="1235.455200" x2="961.440369" y2="1235.923096" style="stroke: green; stroke-width: 0.200000"/>
   <line x1="1013.440308" y1="1247.341431" x2="1013.440308" y2="1265.286621" style="stroke: green; stroke-width: 0.200000"/>
   <line x1="1014.440369" y1="1248.138550" x2="1014.440369" y2="1265.260376" style="stroke: green; stroke-width: 0.200000"/>
   <line x1="1015.440369" y1="1249.230347" x2="1015.440369" y2="1265.234375" style="stroke: green; stroke-width: 0.200000"/>
   <line x1="1012.440308" y1="1246.544312" x2="1012.440308" y2="1265.217651" style="stroke: green; stroke-width: 0.200000"/>
   <line x1="1016.440369" y1="1250.417236" x2="1016.440369" y2="1265.208252" style="stroke: green; stroke-width: 0.200000"/>
   <line x1="1017.440308" y1="1251.604004" x2="1017.440308" y2="1265.182129" style="stroke: green; stroke-width: 0.200000"/>
   <line x1="1018.440308" y1="1252.790894" x2="1018.440308" y2="1265.156128" style="stroke: green; stroke-width: 0.200000"/>
   <line x1="1019.440369" y1="1254.126099" x2="1019.440369" y2="1265.129883" style="stroke: green; stroke-width: 0.200000"/>
   <line x1="1011.440369" y1="1245.747192" x2="1011.440369" y2="1264.673218" style="stroke: green; stroke-width: 0.200000"/>
   <line x1="1010.440369" y1="1244.949951" x2="1010.440369" y2="1264.103149" style="stroke: green; stroke-width: 0.200000"/>
   <line x1="1009.440369" y1="1244.152710" x2="1009.440369" y2="1263.533081" style="stroke: green; stroke-width: 0.200000"/>
   <line x1="1008.440308" y1="1243.368530" x2="1008.440308" y2="1262.951416" style="stroke: green; stroke-width: 0.200000"/>
   <line x1="1007.440308" y1="1242.591919" x2="1007.440308" y2="1262.340210" style="stroke: green; stroke-width: 0.200000"/>
   <line x1="1006.440369" y1="1241.900146" x2="1006.440369" y2="1261.729004" style="stroke: green; stroke-width: 0.200000"/>
   <line x1="1005.440369" y1="1241.260498" x2="1005.440369" y2="1261.117920" style="stroke: green; stroke-width: 0.200000"/>
   <line x1="1004.440369" y1="1240.620972" x2="1004.440369" y2="1260.506714" style="stroke: green; stroke-width: 0.200000"/>
   <line x1="1003.440308" y1="1239.981201" x2="1003.440308" y2="1259.895630" style="stroke: green; stroke-width: 0.200000"/>
   <line x1="1002.440308" y1="1239.341797" x2="1002.440308" y2="1259.252808" style="stroke: green; stroke-width: 0.200000"/>
   <line x1="1001.440369" y1="1238.690186" x2="1001.440369" y2="1258.651001" style="stroke: green; stroke-width: 0.200000"/>
   <line x1="1000.440369" y1="1238.034058" x2="1000.440369" y2="1258.058105" style="stroke: green; stroke-width: 0.200000"/>
   <line x1="999.440369" y1="1237.377930" x2="999.440369" y2="1257.465332" style="stroke: green; stroke-width: 0.200000"/>
   <line x1="998.440308" y1="1236.761353" x2="998.440308" y2="1256.872437" style="stroke: green; stroke-width: 0.200000"/>
   <line x1="997.440308" y1="1236.202881" x2="997.440308" y2="1256.279541" style="stroke: green; stroke-width: 0.200000"/>
   <line x1="996.440369" y1="1235.455200" x2="996.440369" y2="1255.686646" style="stroke: green; stroke-width: 0.200000"/>
   <line x1="995.440369" y1="1235.455200" x2="995.440369" y2="1255.093750" style="stroke: green; stroke-width: 0.200000"/>
   <line x1="994.440369" y1="1235.455200" x2="994.440369" y2="1254.500854" style="stroke: green; stroke-width: 0.200000"/>
   <line x1="993.440308" y1="1235.455200" x2="993.440308" y2="1253.907959" style="stroke: green; stroke-width: 0.200000"/>
   <line x1="992.440308" y1="1235.455200" x2="992.440308" y2="1253.300293" style="stroke: green; stroke-width: 0.200000"/>
   <line x1="991.440369" y1="1235.455200" x2="991.440369" y2="1252.697632" style="stroke: green; stroke-width: 0.200000"/>
   <line x1="990.440369" y1="1235.455200" x2="990.440369" y2="1252.156738" style="stroke: green; stroke-width: 0.200000"/>
   <line x1="989.440369" y1="1235.455200" x2="989.440369" y2="1251.615723" style="stroke: green; stroke-width: 0.200000"/>
   <line x1="988.440308" y1="1235.455200" x2="988.440308" y2="1251.074463" style="stroke: green; stroke-width: 0.200000"/>
   <line x1="987.440308" y1="1235.455200" x2="987.440308" y2="1250.533569" style="stroke: green; stroke-width: 0.200000"/>
   <line x1="986.440369" y1="1235.455200" x2="986.440369" y2="1249.992554" style="stroke: green; stroke-width: 0.200000"/>
   <line x1="985.440369" y1="1235.455200" x2="985.440369" y2="1249.451538" style="stroke: green; stroke-width: 0.200000"/>
   <line x1="984.440369" y1="1235.455200" x2="984.440369" y2="1248.910400" style="stroke: green; stroke-width: 0.200000"/>
   <line x1="983.440308" y1="1235.455200" x2="983.440308" y2="1248.362671" style="stroke: green; stroke-width: 0.200000"/>
   <line x1="982.440308" y1="1235.455200" x2="982.440308" y2="1247.811401" style="stroke: green; stroke-width: 0.200000"/>
   <line x1="981.440369" y1="1235.455200" x2="981.440369" y2="1247.260010" style="stroke: green; stroke-width: 0.200000"/>
   <line x1="980.440369" y1="1235.455200" x2="980.440369" y2="1246.708740" style="stroke: green; stroke-width: 0.200000"/>
   <line x1="979.440369" y1="1235.455200" x2="979.440369" y2="1246.157471" style="stroke: green; stroke-width: 0.200000"/>
   <line x1="978.440308" y1="1235.455200" x2="978.440308" y2="1245.664062" style="stroke: green; stroke-width: 0.200000"/>
   <line x1="977.440308" y1="1235.455200" x2="977.440308" y2="1245.179321" style="stroke: green; stroke-width: 0.200000"/>
   <line x1="976.440369" y1="1235.455200" x2="976.440369" y2="1244.694580" style="stroke: green; stroke-width: 0.200000"/>
   <line x1="975.440369" y1="1235.455200" x2="975.440369" y2="1244.178711" style="stroke: green; stroke-width: 0.200000"/>
   <line x1="1012.912537" y1="1265.300293" x2="1012.912537" y2="1265.300537" style="stroke: green; stroke-width: 0.200000"/>
   <path d="M 793.502  1327.82  793.345  1327.25  793.643  1326.55  796.816  1317.46  800.639  1311.75  803.046  1310.63  810.397  1306.38  813.774  1307.51  818.387  1309.45  819.508  1311.29  824.643  1317.55  825.235  1318.64  828.938  1323.9  831.07  1327.75  835.316  1334.33  836.321  1336.62  840.934  1346.13  841.508  1347.21  847.262  1362  848.165  1366.17  850.076  1374.05  850.754  1377.29  849.048  1378.44  839.849  1380.86  832.609  1374.8  832.376  1374.58  832.185  1374.25  826.722  1366.53  821.707  1359.91  820.987  1358.86  816.006  1352.93  814.216  1350.85  814.198  1350.84  " style="fill: none; stroke: darkmagenta; stroke-width: 0.200000; fill-type: evenodd"  fill-opacity="1.000000" />
   <path d="M 814.198  1350.84  813.918  1350.59  806.294  1342.99  803.328  1340.57  799.171  1336.8  793.69  1328.5  793.502  1327.82  " style="fill: none; stroke: red; stroke-width: 0.200000; fill-type: evenodd"  fill-opacity="1.000000" />
   <path d="M 813.42  1308.45  817.702  1310.25  818.69  1311.87  823.81  1318.11  824.384  1319.17  828.089  1324.43  830.212  1328.27  834.432  1334.81  835.413  1337.04  840.042  1346.59  840.598  1347.63  846.301  1362.29  847.19  1366.4  849.1  1374.27  849.637  1376.84  848.631  1377.51  840.094  1379.76  833.273  1374.06  833.168  1373.96  833.028  1373.71  827.529  1365.94  822.518  1359.32  821.783  1358.25  816.767  1352.28  814.93  1350.15  814.605  1349.86  806.965  1342.25  803.98  1339.81  799.936  1336.15  794.611  1328.08  794.402  1327.32  794.576  1326.91  797.718  1317.91  801.314  1312.54  803.508  1311.52  810.507  1307.47  813.42  1308.45  " style="fill: none; stroke: black; stroke-width: 0.200000; fill-type: evenodd"  fill-opacity="1.000000" />
   <path d="M 1005.87  1263.14  1002.46  1261.05  1001.49  1260.42  992.56  1255.13  990.796  1254.05  983.379  1250.04  978.621  1247.42  975.063  1245.69  968.072  1241.64  964.908  1240.08  958.68  1235.87  953.491  1232.86  948.865  1229.21  941.038  1223.1  940.353  1222.53  934.275  1215.89  929.886  1211.44  928.506  1208.75  923.674  1199.99  923.687  1199.78  925.001  1191.26  928.994  1187.36  931.356  1185.8  936.752  1183.74  939.954  1185.12  944.142  1187.09  948.074  1188.48  950.618  1190.27  954.405  1195.18  957.965  1199.47  960.854  1203.01  965.29  1208.63  966.252  1209.48  968.196  1211.41  975.641  1218.58  978.147  1220.28  982.408  1223.47  985.188  1225.42  986.421  1226.48  992.234  1230.25  998.116  1234.86  999.622  1235.7  1002.99  1237.91  1007.93  1241.07  1009.99  1242.67  1015.74  1247.25  1020.03  1252.35  1021.73  1254.79  1021.08  1257.6  1022.08  1266.56  1012.56  1266.81  " style="fill: none; stroke: darkmagenta; stroke-width: 0.200000; fill-type: evenodd"  fill-opacity="1.000000" />
   <path d="M 1012.56  1266.81  1012.3  1266.82  1011.45  1266.4  1007.96  1264.42  1005.87  1263.14  " style="fill: none; stroke: red; stroke-width: 0.200000; fill-type: evenodd"  fill-opacity="1.000000" />
   <path d="M 939.543  1186.03  943.76  1188.02  947.611  1189.38  949.919  1191  953.624  1195.81  957.193  1200.11  960.074  1203.64  964.561  1209.32  965.569  1210.21  967.496  1212.13  975.009  1219.36  977.567  1221.1  981.821  1224.28  984.573  1226.21  985.82  1227.28  991.652  1231.07  997.56  1235.7  999.104  1236.56  1002.44  1238.75  1007.35  1241.89  1009.37  1243.46  1015.03  1247.97  1019.24  1252.96  1020.66  1255  1020.07  1257.54  1020.97  1265.59  1012.52  1265.81  1011.91  1265.52  1008.47  1263.56  1002.99  1260.21  1002.02  1259.57  993.076  1254.27  991.294  1253.19  983.859  1249.16  979.081  1246.53  975.533  1244.81  968.544  1240.76  965.411  1239.22  959.211  1235.02  954.054  1232.03  949.483  1228.42  941.664  1222.32  941.044  1221.81  935.001  1215.2  930.706  1210.85  929.388  1208.28  924.7  1199.78  925.939  1191.75  929.625  1188.14  931.816  1186.69  936.729  1184.82  939.543  1186.03  " style="fill: none; stroke: black; stroke-width: 0.200000; fill-type: evenodd"  fill-opacity="1.000000" />
</svg>
