<?xml version="1.0" encoding="UTF-8" standalone="yes"?>
<!DOCTYPE svg PUBLIC "-//W3C//DTD SVG 1.0//EN" "http://www.w3.org/TR/2001/REC-SVG-20010904/DTD/svg10.dtd">
<svg height="2000" width="2000" xmlns="http://www.w3.org/2000/svg" xmlns:svg="http://www.w3.org/2000/svg" xmlns:xlink="http://www.w3.org/1999/xlink">
   <marker id="endArrow" markerHeight="8" markerUnits="strokeWidth" markerWidth="10" orient="auto" refX="1" refY="5" viewBox="0 0 1000 1000">
      <polyline fill="darkblue" points="0,0 10,5 0,10 1,5" />
   </marker>
   <circle cx="1000" cy="1000" r="1" style="stroke:black; fill: red" />
   <circle cx="1000" cy="1000" r="800" style="stroke:black; fill: none" />
   <line x1="797.757812" y1="1234.713867" x2="797.757812" y2="1240.825439" style="stroke: green; stroke-width: 0.200000"/>
   <line x1="798.757812" y1="1227.312866" x2="798.757812" y2="1240.825439" style="stroke: green; stroke-width: 0.200000"/>
   <line x1="799.757812" y1="1221.561646" x2="799.757812" y2="1240.825439" style="stroke: green; stroke-width: 0.200000"/>
   <line x1="800.757812" y1="1218.279297" x2="800.757812" y2="1240.825439" style="stroke: green; stroke-width: 0.200000"/>
   <line x1="801.757812" y1="1214.267944" x2="801.757812" y2="1240.825439" style="stroke: green; stroke-width: 0.200000"/>
   <line x1="802.757812" y1="1210.337646" x2="802.757812" y2="1240.825439" style="stroke: green; stroke-width: 0.200000"/>
   <line x1="803.757812" y1="1207.852295" x2="803.757812" y2="1240.825439" style="stroke: green; stroke-width: 0.200000"/>
   <line x1="804.757812" y1="1206.098877" x2="804.757812" y2="1240.825439" style="stroke: green; stroke-width: 0.200000"/>
   <line x1="805.757812" y1="1204.345581" x2="805.757812" y2="1240.825439" style="stroke: green; stroke-width: 0.200000"/>
   <line x1="806.757812" y1="1202.592285" x2="806.757812" y2="1240.825439" style="stroke: green; stroke-width: 0.200000"/>
   <line x1="807.757812" y1="1200.838989" x2="807.757812" y2="1240.825439" style="stroke: green; stroke-width: 0.200000"/>
   <line x1="808.757812" y1="1198.600830" x2="808.757812" y2="1240.825439" style="stroke: green; stroke-width: 0.200000"/>
   <line x1="809.757812" y1="1196.849609" x2="809.757812" y2="1240.825439" style="stroke: green; stroke-width: 0.200000"/>
   <line x1="810.757812" y1="1196.195557" x2="810.757812" y2="1240.825439" style="stroke: green; stroke-width: 0.200000"/>
   <line x1="811.757812" y1="1195.541504" x2="811.757812" y2="1240.825439" style="stroke: green; stroke-width: 0.200000"/>
   <line x1="812.757812" y1="1194.887573" x2="812.757812" y2="1240.825439" style="stroke: green; stroke-width: 0.200000"/>
   <line x1="813.757812" y1="1194.233521" x2="813.757812" y2="1240.825439" style="stroke: green; stroke-width: 0.200000"/>
   <line x1="814.757812" y1="1193.460815" x2="814.757812" y2="1240.825439" style="stroke: green; stroke-width: 0.200000"/>
   <line x1="815.757812" y1="1192.621948" x2="815.757812" y2="1240.825439" style="stroke: green; stroke-width: 0.200000"/>
   <line x1="816.757812" y1="1191.782959" x2="816.757812" y2="1240.825439" style="stroke: green; stroke-width: 0.200000"/>
   <line x1="817.757812" y1="1190.944092" x2="817.757812" y2="1240.825439" style="stroke: green; stroke-width: 0.200000"/>
   <line x1="818.757812" y1="1191.740479" x2="818.757812" y2="1240.825439" style="stroke: green; stroke-width: 0.200000"/>
   <line x1="819.757812" y1="1192.805908" x2="819.757812" y2="1240.825439" style="stroke: green; stroke-width: 0.200000"/>
   <line x1="820.757812" y1="1193.871338" x2="820.757812" y2="1240.825439" style="stroke: green; stroke-width: 0.200000"/>
   <line x1="821.757812" y1="1194.764526" x2="821.757812" y2="1240.825439" style="stroke: green; stroke-width: 0.200000"/>
   <line x1="822.757812" y1="1195.435303" x2="822.757812" y2="1240.825439" style="stroke: green; stroke-width: 0.200000"/>
   <line x1="823.757812" y1="1196.105957" x2="823.757812" y2="1240.825439" style="stroke: green; stroke-width: 0.200000"/>
   <line x1="824.757812" y1="1196.776611" x2="824.757812" y2="1240.825439" style="stroke: green; stroke-width: 0.200000"/>
   <line x1="825.757812" y1="1197.447388" x2="825.757812" y2="1240.825439" style="stroke: green; stroke-width: 0.200000"/>
   <line x1="826.757812" y1="1198.471191" x2="826.757812" y2="1240.825439" style="stroke: green; stroke-width: 0.200000"/>
   <line x1="827.757812" y1="1200.263672" x2="827.757812" y2="1240.825439" style="stroke: green; stroke-width: 0.200000"/>
   <line x1="828.757812" y1="1202.056152" x2="828.757812" y2="1240.825439" style="stroke: green; stroke-width: 0.200000"/>
   <line x1="829.757812" y1="1203.755005" x2="829.757812" y2="1240.825439" style="stroke: green; stroke-width: 0.200000"/>
   <line x1="830.757812" y1="1205.399536" x2="830.757812" y2="1240.825439" style="stroke: green; stroke-width: 0.200000"/>
   <line x1="831.757812" y1="1207.044067" x2="831.757812" y2="1240.825439" style="stroke: green; stroke-width: 0.200000"/>
   <line x1="832.757812" y1="1208.688599" x2="832.757812" y2="1240.825439" style="stroke: green; stroke-width: 0.200000"/>
   <line x1="833.757812" y1="1210.755127" x2="833.757812" y2="1240.825439" style="stroke: green; stroke-width: 0.200000"/>
   <line x1="834.757812" y1="1213.160278" x2="834.757812" y2="1240.825439" style="stroke: green; stroke-width: 0.200000"/>
   <line x1="835.757812" y1="1215.490479" x2="835.757812" y2="1240.825439" style="stroke: green; stroke-width: 0.200000"/>
   <line x1="836.757812" y1="1217.794434" x2="836.757812" y2="1240.825439" style="stroke: green; stroke-width: 0.200000"/>
   <line x1="837.757812" y1="1220.098633" x2="837.757812" y2="1240.825439" style="stroke: green; stroke-width: 0.200000"/>
   <line x1="838.757812" y1="1222.490479" x2="838.757812" y2="1240.825439" style="stroke: green; stroke-width: 0.200000"/>
   <line x1="839.757812" y1="1225.199463" x2="839.757812" y2="1240.825439" style="stroke: green; stroke-width: 0.200000"/>
   <line x1="840.757812" y1="1227.908447" x2="840.757812" y2="1240.825439" style="stroke: green; stroke-width: 0.200000"/>
   <line x1="841.757812" y1="1230.617432" x2="841.757812" y2="1240.825439" style="stroke: green; stroke-width: 0.200000"/>
   <line x1="842.757812" y1="1233.442627" x2="842.757812" y2="1240.825439" style="stroke: green; stroke-width: 0.200000"/>
   <line x1="843.757812" y1="1236.301880" x2="843.757812" y2="1240.825439" style="stroke: green; stroke-width: 0.200000"/>
   <line x1="844.757812" y1="1240.329590" x2="844.757812" y2="1240.825439" style="stroke: green; stroke-width: 0.200000"/>
   <line x1="812.757812" y1="1240.925537" x2="812.757812" y2="1290.925415" style="stroke: green; stroke-width: 0.200000"/>
   <line x1="813.757812" y1="1240.925537" x2="813.757812" y2="1290.925415" style="stroke: green; stroke-width: 0.200000"/>
   <line x1="814.757812" y1="1240.925537" x2="814.757812" y2="1290.925415" style="stroke: green; stroke-width: 0.200000"/>
   <line x1="815.757812" y1="1240.925537" x2="815.757812" y2="1290.925415" style="stroke: green; stroke-width: 0.200000"/>
   <line x1="816.757812" y1="1240.925537" x2="816.757812" y2="1290.925415" style="stroke: green; stroke-width: 0.200000"/>
   <line x1="817.757812" y1="1240.925537" x2="817.757812" y2="1290.925415" style="stroke: green; stroke-width: 0.200000"/>
   <line x1="818.757812" y1="1240.925537" x2="818.757812" y2="1290.925415" style="stroke: green; stroke-width: 0.200000"/>
   <line x1="819.757812" y1="1240.925537" x2="819.757812" y2="1290.925415" style="stroke: green; stroke-width: 0.200000"/>
   <line x1="820.757812" y1="1240.925537" x2="820.757812" y2="1290.925415" style="stroke: green; stroke-width: 0.200000"/>
   <line x1="821.757812" y1="1240.925537" x2="821.757812" y2="1290.925415" style="stroke: green; stroke-width: 0.200000"/>
   <line x1="822.757812" y1="1240.925537" x2="822.757812" y2="1290.925415" style="stroke: green; stroke-width: 0.200000"/>
   <line x1="823.757812" y1="1240.925537" x2="823.757812" y2="1290.925415" style="stroke: green; stroke-width: 0.200000"/>
   <line x1="824.757812" y1="1240.925537" x2="824.757812" y2="1290.925415" style="stroke: green; stroke-width: 0.200000"/>
   <line x1="825.757812" y1="1240.925537" x2="825.757812" y2="1290.925415" style="stroke: green; stroke-width: 0.200000"/>
   <line x1="826.757812" y1="1240.925537" x2="826.757812" y2="1290.925415" style="stroke: green; stroke-width: 0.200000"/>
   <line x1="827.757812" y1="1240.925537" x2="827.757812" y2="1290.925415" style="stroke: green; stroke-width: 0.200000"/>
   <line x1="828.757812" y1="1240.925537" x2="828.757812" y2="1290.925415" style="stroke: green; stroke-width: 0.200000"/>
   <line x1="829.757812" y1="1240.925537" x2="829.757812" y2="1290.925415" style="stroke: green; stroke-width: 0.200000"/>
   <line x1="830.757812" y1="1240.925537" x2="830.757812" y2="1290.925415" style="stroke: green; stroke-width: 0.200000"/>
   <line x1="831.757812" y1="1240.925537" x2="831.757812" y2="1290.925415" style="stroke: green; stroke-width: 0.200000"/>
   <line x1="832.757812" y1="1240.925537" x2="832.757812" y2="1290.925415" style="stroke: green; stroke-width: 0.200000"/>
   <line x1="833.757812" y1="1240.925537" x2="833.757812" y2="1290.925415" style="stroke: green; stroke-width: 0.200000"/>
   <line x1="834.757812" y1="1240.925537" x2="834.757812" y2="1290.925415" style="stroke: green; stroke-width: 0.200000"/>
   <line x1="835.757812" y1="1240.925537" x2="835.757812" y2="1290.925415" style="stroke: green; stroke-width: 0.200000"/>
   <line x1="836.757812" y1="1240.925537" x2="836.757812" y2="1290.925415" style="stroke: green; stroke-width: 0.200000"/>
   <line x1="837.757812" y1="1240.925537" x2="837.757812" y2="1290.925415" style="stroke: green; stroke-width: 0.200000"/>
   <line x1="838.757812" y1="1240.925537" x2="838.757812" y2="1290.925415" style="stroke: green; stroke-width: 0.200000"/>
   <line x1="839.757812" y1="1240.925537" x2="839.757812" y2="1290.925415" style="stroke: green; stroke-width: 0.200000"/>
   <line x1="840.757812" y1="1240.925537" x2="840.757812" y2="1290.925415" style="stroke: green; stroke-width: 0.200000"/>
   <line x1="841.757812" y1="1240.925537" x2="841.757812" y2="1290.925415" style="stroke: green; stroke-width: 0.200000"/>
   <line x1="842.757812" y1="1240.925537" x2="842.757812" y2="1290.925415" style="stroke: green; stroke-width: 0.200000"/>
   <line x1="843.757812" y1="1240.925537" x2="843.757812" y2="1290.925415" style="stroke: green; stroke-width: 0.200000"/>
   <line x1="844.757812" y1="1240.925537" x2="844.757812" y2="1290.925415" style="stroke: green; stroke-width: 0.200000"/>
   <line x1="845.757812" y1="1246.085693" x2="845.757812" y2="1290.925415" style="stroke: green; stroke-width: 0.200000"/>
   <line x1="846.757812" y1="1251.035034" x2="846.757812" y2="1290.925415" style="stroke: green; stroke-width: 0.200000"/>
   <line x1="811.757812" y1="1240.925537" x2="811.757812" y2="1286.963989" style="stroke: green; stroke-width: 0.200000"/>
   <line x1="810.757812" y1="1240.925537" x2="810.757812" y2="1281.839844" style="stroke: green; stroke-width: 0.200000"/>
   <line x1="809.757812" y1="1240.925537" x2="809.757812" y2="1277.350220" style="stroke: green; stroke-width: 0.200000"/>
   <line x1="808.757812" y1="1240.925537" x2="808.757812" y2="1273.547729" style="stroke: green; stroke-width: 0.200000"/>
   <line x1="807.757812" y1="1240.925537" x2="807.757812" y2="1269.657227" style="stroke: green; stroke-width: 0.200000"/>
   <line x1="806.757812" y1="1240.925537" x2="806.757812" y2="1266.592896" style="stroke: green; stroke-width: 0.200000"/>
   <line x1="805.757812" y1="1240.925537" x2="805.757812" y2="1264.582397" style="stroke: green; stroke-width: 0.200000"/>
   <line x1="804.757812" y1="1240.925537" x2="804.757812" y2="1262.572144" style="stroke: green; stroke-width: 0.200000"/>
   <line x1="803.757812" y1="1240.925537" x2="803.757812" y2="1260.717651" style="stroke: green; stroke-width: 0.200000"/>
   <line x1="802.757812" y1="1240.925537" x2="802.757812" y2="1258.895142" style="stroke: green; stroke-width: 0.200000"/>
   <line x1="801.757812" y1="1240.925537" x2="801.757812" y2="1256.995850" style="stroke: green; stroke-width: 0.200000"/>
   <line x1="800.757812" y1="1240.925537" x2="800.757812" y2="1255.096436" style="stroke: green; stroke-width: 0.200000"/>
   <line x1="799.757812" y1="1240.925537" x2="799.757812" y2="1252.587402" style="stroke: green; stroke-width: 0.200000"/>
   <line x1="798.757812" y1="1240.925537" x2="798.757812" y2="1249.481323" style="stroke: green; stroke-width: 0.200000"/>
   <line x1="797.757812" y1="1240.925537" x2="797.757812" y2="1246.374878" style="stroke: green; stroke-width: 0.200000"/>
   <line x1="847.757812" y1="1256.274414" x2="847.757812" y2="1288.318604" style="stroke: green; stroke-width: 0.200000"/>
   <line x1="823.757812" y1="1291.025513" x2="823.757812" y2="1341.025513" style="stroke: green; stroke-width: 0.200000"/>
   <line x1="824.757812" y1="1291.025513" x2="824.757812" y2="1341.025513" style="stroke: green; stroke-width: 0.200000"/>
   <line x1="825.757812" y1="1291.025513" x2="825.757812" y2="1341.025513" style="stroke: green; stroke-width: 0.200000"/>
   <line x1="826.757812" y1="1291.025513" x2="826.757812" y2="1341.025513" style="stroke: green; stroke-width: 0.200000"/>
   <line x1="827.757812" y1="1291.025513" x2="827.757812" y2="1341.025513" style="stroke: green; stroke-width: 0.200000"/>
   <line x1="828.757812" y1="1291.025513" x2="828.757812" y2="1341.025513" style="stroke: green; stroke-width: 0.200000"/>
   <line x1="829.757812" y1="1291.025513" x2="829.757812" y2="1341.025513" style="stroke: green; stroke-width: 0.200000"/>
   <line x1="830.757812" y1="1291.025513" x2="830.757812" y2="1341.025513" style="stroke: green; stroke-width: 0.200000"/>
   <line x1="831.757812" y1="1291.025513" x2="831.757812" y2="1341.025513" style="stroke: green; stroke-width: 0.200000"/>
   <line x1="832.757812" y1="1291.025513" x2="832.757812" y2="1341.025513" style="stroke: green; stroke-width: 0.200000"/>
   <line x1="833.757812" y1="1291.025513" x2="833.757812" y2="1341.025513" style="stroke: green; stroke-width: 0.200000"/>
   <line x1="834.757812" y1="1291.025513" x2="834.757812" y2="1341.025513" style="stroke: green; stroke-width: 0.200000"/>
   <line x1="835.757812" y1="1291.025513" x2="835.757812" y2="1341.025513" style="stroke: green; stroke-width: 0.200000"/>
   <line x1="836.757812" y1="1291.025513" x2="836.757812" y2="1341.025513" style="stroke: green; stroke-width: 0.200000"/>
   <line x1="837.757812" y1="1291.025513" x2="837.757812" y2="1341.025513" style="stroke: green; stroke-width: 0.200000"/>
   <line x1="838.757812" y1="1291.025513" x2="838.757812" y2="1341.025513" style="stroke: green; stroke-width: 0.200000"/>
   <line x1="839.757812" y1="1291.025513" x2="839.757812" y2="1341.025513" style="stroke: green; stroke-width: 0.200000"/>
   <line x1="840.757812" y1="1291.025513" x2="840.757812" y2="1341.025513" style="stroke: green; stroke-width: 0.200000"/>
   <line x1="822.757812" y1="1291.025513" x2="822.757812" y2="1339.084961" style="stroke: green; stroke-width: 0.200000"/>
   <line x1="841.757812" y1="1291.025513" x2="841.757812" y2="1336.510010" style="stroke: green; stroke-width: 0.200000"/>
   <line x1="821.757812" y1="1291.025513" x2="821.757812" y2="1335.311890" style="stroke: green; stroke-width: 0.200000"/>
   <line x1="820.757812" y1="1291.025513" x2="820.757812" y2="1331.607544" style="stroke: green; stroke-width: 0.200000"/>
   <line x1="842.757812" y1="1291.025513" x2="842.757812" y2="1327.715942" style="stroke: green; stroke-width: 0.200000"/>
   <line x1="819.757812" y1="1291.025513" x2="819.757812" y2="1327.459473" style="stroke: green; stroke-width: 0.200000"/>
   <line x1="818.757812" y1="1291.025513" x2="818.757812" y2="1323.133057" style="stroke: green; stroke-width: 0.200000"/>
   <line x1="843.757812" y1="1291.025513" x2="843.757812" y2="1318.752686" style="stroke: green; stroke-width: 0.200000"/>
   <line x1="817.757812" y1="1291.025513" x2="817.757812" y2="1318.657471" style="stroke: green; stroke-width: 0.200000"/>
   <line x1="844.757812" y1="1291.025513" x2="844.757812" y2="1313.990967" style="stroke: green; stroke-width: 0.200000"/>
   <line x1="816.757812" y1="1291.025513" x2="816.757812" y2="1313.851196" style="stroke: green; stroke-width: 0.200000"/>
   <line x1="815.757812" y1="1291.025513" x2="815.757812" y2="1308.812256" style="stroke: green; stroke-width: 0.200000"/>
   <line x1="845.757812" y1="1291.025513" x2="845.757812" y2="1305.533936" style="stroke: green; stroke-width: 0.200000"/>
   <line x1="814.757812" y1="1291.025513" x2="814.757812" y2="1302.919800" style="stroke: green; stroke-width: 0.200000"/>
   <line x1="846.757812" y1="1291.025513" x2="846.757812" y2="1298.516846" style="stroke: green; stroke-width: 0.200000"/>
   <line x1="813.757812" y1="1291.025513" x2="813.757812" y2="1297.372070" style="stroke: green; stroke-width: 0.200000"/>
   <line x1="812.757812" y1="1291.025513" x2="812.757812" y2="1292.088623" style="stroke: green; stroke-width: 0.200000"/>
   <line x1="839.757812" y1="1341.125488" x2="839.757812" y2="1347.920410" style="stroke: green; stroke-width: 0.200000"/>
   <line x1="838.757812" y1="1341.125488" x2="838.757812" y2="1347.681396" style="stroke: green; stroke-width: 0.200000"/>
   <line x1="837.757812" y1="1341.125488" x2="837.757812" y2="1347.442383" style="stroke: green; stroke-width: 0.200000"/>
   <line x1="836.757812" y1="1341.125488" x2="836.757812" y2="1347.203369" style="stroke: green; stroke-width: 0.200000"/>
   <line x1="835.757812" y1="1341.125488" x2="835.757812" y2="1346.964233" style="stroke: green; stroke-width: 0.200000"/>
   <line x1="834.757812" y1="1341.125488" x2="834.757812" y2="1346.725342" style="stroke: green; stroke-width: 0.200000"/>
   <line x1="833.757812" y1="1341.125488" x2="833.757812" y2="1346.514771" style="stroke: green; stroke-width: 0.200000"/>
   <line x1="832.757812" y1="1341.125488" x2="832.757812" y2="1346.320923" style="stroke: green; stroke-width: 0.200000"/>
   <line x1="831.757812" y1="1341.125488" x2="831.757812" y2="1346.127319" style="stroke: green; stroke-width: 0.200000"/>
   <line x1="830.757812" y1="1341.125488" x2="830.757812" y2="1345.933716" style="stroke: green; stroke-width: 0.200000"/>
   <line x1="829.757812" y1="1341.125488" x2="829.757812" y2="1345.739868" style="stroke: green; stroke-width: 0.200000"/>
   <line x1="840.757812" y1="1341.125488" x2="840.757812" y2="1345.723755" style="stroke: green; stroke-width: 0.200000"/>
   <line x1="828.757812" y1="1341.125488" x2="828.757812" y2="1345.546265" style="stroke: green; stroke-width: 0.200000"/>
   <line x1="827.757812" y1="1341.125488" x2="827.757812" y2="1345.352661" style="stroke: green; stroke-width: 0.200000"/>
   <line x1="826.757812" y1="1341.125488" x2="826.757812" y2="1345.158813" style="stroke: green; stroke-width: 0.200000"/>
   <line x1="825.757812" y1="1341.125488" x2="825.757812" y2="1344.965210" style="stroke: green; stroke-width: 0.200000"/>
   <line x1="824.757812" y1="1341.125488" x2="824.757812" y2="1344.771484" style="stroke: green; stroke-width: 0.200000"/>
   <line x1="823.757812" y1="1341.125488" x2="823.757812" y2="1342.429932" style="stroke: green; stroke-width: 0.200000"/>
   <line x1="893.137695" y1="1149.743774" x2="893.137695" y2="1197.365234" style="stroke: green; stroke-width: 0.200000"/>
   <line x1="894.137634" y1="1150.075806" x2="894.137634" y2="1197.365234" style="stroke: green; stroke-width: 0.200000"/>
   <line x1="895.137634" y1="1150.407715" x2="895.137634" y2="1197.365234" style="stroke: green; stroke-width: 0.200000"/>
   <line x1="896.137634" y1="1150.739624" x2="896.137634" y2="1197.365234" style="stroke: green; stroke-width: 0.200000"/>
   <line x1="897.137573" y1="1151.071533" x2="897.137573" y2="1197.365234" style="stroke: green; stroke-width: 0.200000"/>
   <line x1="898.137695" y1="1151.435303" x2="898.137695" y2="1197.365234" style="stroke: green; stroke-width: 0.200000"/>
   <line x1="899.137634" y1="1152.093872" x2="899.137634" y2="1197.365234" style="stroke: green; stroke-width: 0.200000"/>
   <line x1="900.137634" y1="1152.752441" x2="900.137634" y2="1197.365234" style="stroke: green; stroke-width: 0.200000"/>
   <line x1="901.137634" y1="1153.428345" x2="901.137634" y2="1197.365234" style="stroke: green; stroke-width: 0.200000"/>
   <line x1="902.137573" y1="1154.104248" x2="902.137573" y2="1197.365234" style="stroke: green; stroke-width: 0.200000"/>
   <line x1="903.137695" y1="1154.780151" x2="903.137695" y2="1197.365234" style="stroke: green; stroke-width: 0.200000"/>
   <line x1="904.137634" y1="1155.456177" x2="904.137634" y2="1197.365234" style="stroke: green; stroke-width: 0.200000"/>
   <line x1="905.137634" y1="1156.132080" x2="905.137634" y2="1197.365234" style="stroke: green; stroke-width: 0.200000"/>
   <line x1="906.137634" y1="1156.808105" x2="906.137634" y2="1197.365234" style="stroke: green; stroke-width: 0.200000"/>
   <line x1="907.137573" y1="1157.473511" x2="907.137573" y2="1197.365234" style="stroke: green; stroke-width: 0.200000"/>
   <line x1="908.137695" y1="1158.006836" x2="908.137695" y2="1197.365234" style="stroke: green; stroke-width: 0.200000"/>
   <line x1="909.137634" y1="1158.540283" x2="909.137634" y2="1197.365234" style="stroke: green; stroke-width: 0.200000"/>
   <line x1="910.137634" y1="1159.073730" x2="910.137634" y2="1197.365234" style="stroke: green; stroke-width: 0.200000"/>
   <line x1="911.137634" y1="1159.607178" x2="911.137634" y2="1197.365234" style="stroke: green; stroke-width: 0.200000"/>
   <line x1="912.137573" y1="1160.192749" x2="912.137573" y2="1197.365234" style="stroke: green; stroke-width: 0.200000"/>
   <line x1="913.137695" y1="1160.905273" x2="913.137695" y2="1197.365234" style="stroke: green; stroke-width: 0.200000"/>
   <line x1="914.137634" y1="1161.617920" x2="914.137634" y2="1197.365234" style="stroke: green; stroke-width: 0.200000"/>
   <line x1="892.137573" y1="1149.411865" x2="892.137573" y2="1196.930542" style="stroke: green; stroke-width: 0.200000"/>
   <line x1="891.137634" y1="1149.079834" x2="891.137634" y2="1196.223389" style="stroke: green; stroke-width: 0.200000"/>
   <line x1="890.137634" y1="1148.748047" x2="890.137634" y2="1195.516113" style="stroke: green; stroke-width: 0.200000"/>
   <line x1="889.137634" y1="1148.416016" x2="889.137634" y2="1194.808838" style="stroke: green; stroke-width: 0.200000"/>
   <line x1="888.137695" y1="1148.055908" x2="888.137695" y2="1194.101685" style="stroke: green; stroke-width: 0.200000"/>
   <line x1="887.137573" y1="1147.670654" x2="887.137573" y2="1193.394531" style="stroke: green; stroke-width: 0.200000"/>
   <line x1="886.137634" y1="1147.441040" x2="886.137634" y2="1192.503540" style="stroke: green; stroke-width: 0.200000"/>
   <line x1="885.137634" y1="1147.441284" x2="885.137634" y2="1191.556885" style="stroke: green; stroke-width: 0.200000"/>
   <line x1="884.137634" y1="1147.555054" x2="884.137634" y2="1190.610229" style="stroke: green; stroke-width: 0.200000"/>
   <line x1="883.137695" y1="1147.668579" x2="883.137695" y2="1189.690552" style="stroke: green; stroke-width: 0.200000"/>
   <line x1="882.137573" y1="1147.782227" x2="882.137573" y2="1188.880493" style="stroke: green; stroke-width: 0.200000"/>
   <line x1="881.137634" y1="1147.895752" x2="881.137634" y2="1188.070557" style="stroke: green; stroke-width: 0.200000"/>
   <line x1="880.137634" y1="1148.009399" x2="880.137634" y2="1187.260620" style="stroke: green; stroke-width: 0.200000"/>
   <line x1="879.137634" y1="1148.123047" x2="879.137634" y2="1186.450806" style="stroke: green; stroke-width: 0.200000"/>
   <line x1="878.137695" y1="1148.236694" x2="878.137695" y2="1185.498535" style="stroke: green; stroke-width: 0.200000"/>
   <line x1="877.137573" y1="1148.423218" x2="877.137573" y2="1184.482788" style="stroke: green; stroke-width: 0.200000"/>
   <line x1="876.137634" y1="1148.662842" x2="876.137634" y2="1183.467041" style="stroke: green; stroke-width: 0.200000"/>
   <line x1="875.137634" y1="1148.902344" x2="875.137634" y2="1182.451294" style="stroke: green; stroke-width: 0.200000"/>
   <line x1="874.137634" y1="1149.300903" x2="874.137634" y2="1181.509033" style="stroke: green; stroke-width: 0.200000"/>
   <line x1="873.137695" y1="1150.080811" x2="873.137695" y2="1180.598999" style="stroke: green; stroke-width: 0.200000"/>
   <line x1="872.137573" y1="1150.860840" x2="872.137573" y2="1179.364258" style="stroke: green; stroke-width: 0.200000"/>
   <line x1="871.137634" y1="1151.640869" x2="871.137634" y2="1177.933228" style="stroke: green; stroke-width: 0.200000"/>
   <line x1="870.137634" y1="1152.420898" x2="870.137634" y2="1176.502075" style="stroke: green; stroke-width: 0.200000"/>
   <line x1="869.137634" y1="1153.200928" x2="869.137634" y2="1175.083252" style="stroke: green; stroke-width: 0.200000"/>
   <line x1="868.137695" y1="1153.980835" x2="868.137695" y2="1173.770630" style="stroke: green; stroke-width: 0.200000"/>
   <line x1="867.137573" y1="1154.822876" x2="867.137573" y2="1172.458008" style="stroke: green; stroke-width: 0.200000"/>
   <line x1="866.137634" y1="1157.648193" x2="866.137634" y2="1169.447998" style="stroke: green; stroke-width: 0.200000"/>
   <line x1="865.137634" y1="1160.534058" x2="865.137634" y2="1165.793091" style="stroke: green; stroke-width: 0.200000"/>
   <line x1="915.137634" y1="1162.330566" x2="915.137634" y2="1197.365234" style="stroke: green; stroke-width: 0.200000"/>
   <line x1="916.137634" y1="1162.869751" x2="916.137634" y2="1197.365234" style="stroke: green; stroke-width: 0.200000"/>
   <line x1="917.137573" y1="1163.374023" x2="917.137573" y2="1197.365234" style="stroke: green; stroke-width: 0.200000"/>
   <line x1="918.137695" y1="1163.878418" x2="918.137695" y2="1197.365234" style="stroke: green; stroke-width: 0.200000"/>
   <line x1="919.137634" y1="1164.382812" x2="919.137634" y2="1197.365234" style="stroke: green; stroke-width: 0.200000"/>
   <line x1="920.137634" y1="1164.835815" x2="920.137634" y2="1197.365234" style="stroke: green; stroke-width: 0.200000"/>
   <line x1="921.137634" y1="1165.026367" x2="921.137634" y2="1197.365234" style="stroke: green; stroke-width: 0.200000"/>
   <line x1="922.137573" y1="1165.217041" x2="922.137573" y2="1197.365234" style="stroke: green; stroke-width: 0.200000"/>
   <line x1="923.137695" y1="1165.407593" x2="923.137695" y2="1197.365234" style="stroke: green; stroke-width: 0.200000"/>
   <line x1="924.137634" y1="1165.598267" x2="924.137634" y2="1197.365234" style="stroke: green; stroke-width: 0.200000"/>
   <line x1="925.137634" y1="1165.754028" x2="925.137634" y2="1197.365234" style="stroke: green; stroke-width: 0.200000"/>
   <line x1="926.137634" y1="1165.879150" x2="926.137634" y2="1197.365234" style="stroke: green; stroke-width: 0.200000"/>
   <line x1="927.137573" y1="1166.004395" x2="927.137573" y2="1197.365234" style="stroke: green; stroke-width: 0.200000"/>
   <line x1="928.137695" y1="1166.129395" x2="928.137695" y2="1197.365234" style="stroke: green; stroke-width: 0.200000"/>
   <line x1="929.137634" y1="1166.254639" x2="929.137634" y2="1197.365234" style="stroke: green; stroke-width: 0.200000"/>
   <line x1="930.137634" y1="1166.379761" x2="930.137634" y2="1197.365234" style="stroke: green; stroke-width: 0.200000"/>
   <line x1="931.137634" y1="1166.510986" x2="931.137634" y2="1197.365234" style="stroke: green; stroke-width: 0.200000"/>
   <line x1="932.137573" y1="1166.702271" x2="932.137573" y2="1197.365234" style="stroke: green; stroke-width: 0.200000"/>
   <line x1="933.137695" y1="1166.893555" x2="933.137695" y2="1197.365234" style="stroke: green; stroke-width: 0.200000"/>
   <line x1="934.137634" y1="1167.084839" x2="934.137634" y2="1197.365234" style="stroke: green; stroke-width: 0.200000"/>
   <line x1="935.137634" y1="1167.227295" x2="935.137634" y2="1197.365234" style="stroke: green; stroke-width: 0.200000"/>
   <line x1="936.137634" y1="1167.354614" x2="936.137634" y2="1197.365234" style="stroke: green; stroke-width: 0.200000"/>
   <line x1="937.137573" y1="1167.481812" x2="937.137573" y2="1197.365234" style="stroke: green; stroke-width: 0.200000"/>
   <line x1="938.137695" y1="1167.608887" x2="938.137695" y2="1197.365234" style="stroke: green; stroke-width: 0.200000"/>
   <line x1="939.137634" y1="1168.142212" x2="939.137634" y2="1197.365234" style="stroke: green; stroke-width: 0.200000"/>
   <line x1="940.137634" y1="1168.798340" x2="940.137634" y2="1197.365234" style="stroke: green; stroke-width: 0.200000"/>
   <line x1="941.137634" y1="1169.454590" x2="941.137634" y2="1197.365234" style="stroke: green; stroke-width: 0.200000"/>
   <line x1="942.137573" y1="1170.110840" x2="942.137573" y2="1197.365234" style="stroke: green; stroke-width: 0.200000"/>
   <line x1="943.137695" y1="1170.721924" x2="943.137695" y2="1197.365234" style="stroke: green; stroke-width: 0.200000"/>
   <line x1="944.137634" y1="1171.318115" x2="944.137634" y2="1197.365234" style="stroke: green; stroke-width: 0.200000"/>
   <line x1="945.137634" y1="1171.930542" x2="945.137634" y2="1197.365234" style="stroke: green; stroke-width: 0.200000"/>
   <line x1="946.137634" y1="1172.560669" x2="946.137634" y2="1197.365234" style="stroke: green; stroke-width: 0.200000"/>
   <line x1="947.137573" y1="1173.190796" x2="947.137573" y2="1197.365234" style="stroke: green; stroke-width: 0.200000"/>
   <line x1="948.137695" y1="1173.820923" x2="948.137695" y2="1197.365234" style="stroke: green; stroke-width: 0.200000"/>
   <line x1="949.137634" y1="1174.451172" x2="949.137634" y2="1197.365234" style="stroke: green; stroke-width: 0.200000"/>
   <line x1="950.137634" y1="1175.081299" x2="950.137634" y2="1197.365234" style="stroke: green; stroke-width: 0.200000"/>
   <line x1="951.137634" y1="1175.537476" x2="951.137634" y2="1197.365234" style="stroke: green; stroke-width: 0.200000"/>
   <line x1="952.137573" y1="1175.913818" x2="952.137573" y2="1197.365234" style="stroke: green; stroke-width: 0.200000"/>
   <line x1="953.137695" y1="1176.290161" x2="953.137695" y2="1197.365234" style="stroke: green; stroke-width: 0.200000"/>
   <line x1="954.137634" y1="1176.666504" x2="954.137634" y2="1197.365234" style="stroke: green; stroke-width: 0.200000"/>
   <line x1="955.137634" y1="1177.042969" x2="955.137634" y2="1197.365234" style="stroke: green; stroke-width: 0.200000"/>
   <line x1="956.137634" y1="1177.419434" x2="956.137634" y2="1197.365234" style="stroke: green; stroke-width: 0.200000"/>
   <line x1="957.137573" y1="1177.795532" x2="957.137573" y2="1197.365234" style="stroke: green; stroke-width: 0.200000"/>
   <line x1="958.137695" y1="1178.171875" x2="958.137695" y2="1197.365234" style="stroke: green; stroke-width: 0.200000"/>
   <line x1="959.137634" y1="1178.563965" x2="959.137634" y2="1197.365234" style="stroke: green; stroke-width: 0.200000"/>
   <line x1="960.137634" y1="1179.283691" x2="960.137634" y2="1197.365234" style="stroke: green; stroke-width: 0.200000"/>
   <line x1="961.137634" y1="1180.003540" x2="961.137634" y2="1197.365234" style="stroke: green; stroke-width: 0.200000"/>
   <line x1="962.137573" y1="1180.723389" x2="962.137573" y2="1197.365234" style="stroke: green; stroke-width: 0.200000"/>
   <line x1="963.137695" y1="1190.449951" x2="963.137695" y2="1197.365234" style="stroke: green; stroke-width: 0.200000"/>
   <line x1="964.137634" y1="1191.945068" x2="964.137634" y2="1197.365234" style="stroke: green; stroke-width: 0.200000"/>
   <line x1="963.137695" y1="1181.442749" x2="963.137695" y2="1188.842651" style="stroke: green; stroke-width: 0.200000"/>
   <line x1="964.137634" y1="1182.162476" x2="964.137634" y2="1187.968628" style="stroke: green; stroke-width: 0.200000"/>
   <line x1="965.137634" y1="1193.439819" x2="965.137634" y2="1197.365234" style="stroke: green; stroke-width: 0.200000"/>
   <line x1="966.137634" y1="1194.934570" x2="966.137634" y2="1197.365234" style="stroke: green; stroke-width: 0.200000"/>
   <line x1="967.137573" y1="1196.429565" x2="967.137573" y2="1197.365234" style="stroke: green; stroke-width: 0.200000"/>
   <line x1="965.137634" y1="1182.882202" x2="965.137634" y2="1187.094360" style="stroke: green; stroke-width: 0.200000"/>
   <line x1="966.137634" y1="1183.601807" x2="966.137634" y2="1186.219971" style="stroke: green; stroke-width: 0.200000"/>
   <line x1="967.137573" y1="1184.321533" x2="967.137573" y2="1185.345825" style="stroke: green; stroke-width: 0.200000"/>
   <line x1="914.137634" y1="1197.465332" x2="914.137634" y2="1209.098022" style="stroke: green; stroke-width: 0.200000"/>
   <line x1="913.137695" y1="1197.465332" x2="913.137695" y2="1208.610352" style="stroke: green; stroke-width: 0.200000"/>
   <line x1="912.137573" y1="1197.465332" x2="912.137573" y2="1208.116333" style="stroke: green; stroke-width: 0.200000"/>
   <line x1="911.137634" y1="1197.465332" x2="911.137634" y2="1207.622437" style="stroke: green; stroke-width: 0.200000"/>
   <line x1="910.137634" y1="1197.465332" x2="910.137634" y2="1207.128540" style="stroke: green; stroke-width: 0.200000"/>
   <line x1="909.137634" y1="1197.465332" x2="909.137634" y2="1206.634644" style="stroke: green; stroke-width: 0.200000"/>
   <line x1="908.137695" y1="1197.465332" x2="908.137695" y2="1206.140625" style="stroke: green; stroke-width: 0.200000"/>
   <line x1="907.137573" y1="1197.465332" x2="907.137573" y2="1205.646729" style="stroke: green; stroke-width: 0.200000"/>
   <line x1="906.137634" y1="1197.465332" x2="906.137634" y2="1205.149902" style="stroke: green; stroke-width: 0.200000"/>
   <line x1="905.137634" y1="1197.465332" x2="905.137634" y2="1204.562012" style="stroke: green; stroke-width: 0.200000"/>
   <line x1="904.137634" y1="1197.465332" x2="904.137634" y2="1203.973999" style="stroke: green; stroke-width: 0.200000"/>
   <line x1="903.137695" y1="1197.465332" x2="903.137695" y2="1203.385986" style="stroke: green; stroke-width: 0.200000"/>
   <line x1="902.137573" y1="1197.465332" x2="902.137573" y2="1202.798096" style="stroke: green; stroke-width: 0.200000"/>
   <line x1="901.137634" y1="1197.465332" x2="901.137634" y2="1202.286865" style="stroke: green; stroke-width: 0.200000"/>
   <line x1="900.137634" y1="1197.465332" x2="900.137634" y2="1201.821167" style="stroke: green; stroke-width: 0.200000"/>
   <line x1="899.137634" y1="1197.465332" x2="899.137634" y2="1201.355347" style="stroke: green; stroke-width: 0.200000"/>
   <line x1="898.137695" y1="1197.465332" x2="898.137695" y2="1200.889648" style="stroke: green; stroke-width: 0.200000"/>
   <line x1="897.137573" y1="1197.465332" x2="897.137573" y2="1200.423950" style="stroke: green; stroke-width: 0.200000"/>
   <line x1="896.137634" y1="1197.465332" x2="896.137634" y2="1199.958252" style="stroke: green; stroke-width: 0.200000"/>
   <line x1="895.137634" y1="1197.465332" x2="895.137634" y2="1199.232056" style="stroke: green; stroke-width: 0.200000"/>
   <line x1="894.137634" y1="1197.465332" x2="894.137634" y2="1198.456543" style="stroke: green; stroke-width: 0.200000"/>
   <line x1="893.137695" y1="1197.465332" x2="893.137695" y2="1197.681030" style="stroke: green; stroke-width: 0.200000"/>
   <line x1="948.137695" y1="1197.465332" x2="948.137695" y2="1216.512573" style="stroke: green; stroke-width: 0.200000"/>
   <line x1="947.137573" y1="1197.465332" x2="947.137573" y2="1216.482178" style="stroke: green; stroke-width: 0.200000"/>
   <line x1="949.137634" y1="1209.602539" x2="949.137634" y2="1216.457886" style="stroke: green; stroke-width: 0.200000"/>
   <line x1="946.137634" y1="1197.465332" x2="946.137634" y2="1216.404907" style="stroke: green; stroke-width: 0.200000"/>
   <line x1="950.137634" y1="1213.659790" x2="950.137634" y2="1216.350220" style="stroke: green; stroke-width: 0.200000"/>
   <line x1="945.137634" y1="1197.465332" x2="945.137634" y2="1216.327515" style="stroke: green; stroke-width: 0.200000"/>
   <line x1="944.137634" y1="1197.465332" x2="944.137634" y2="1216.250122" style="stroke: green; stroke-width: 0.200000"/>
   <line x1="943.137695" y1="1197.465332" x2="943.137695" y2="1216.172729" style="stroke: green; stroke-width: 0.200000"/>
   <line x1="942.137573" y1="1197.465332" x2="942.137573" y2="1216.095337" style="stroke: green; stroke-width: 0.200000"/>
   <line x1="941.137634" y1="1197.465332" x2="941.137634" y2="1216.017944" style="stroke: green; stroke-width: 0.200000"/>
   <line x1="940.137634" y1="1197.465332" x2="940.137634" y2="1215.907227" style="stroke: green; stroke-width: 0.200000"/>
   <line x1="939.137634" y1="1197.465332" x2="939.137634" y2="1215.792725" style="stroke: green; stroke-width: 0.200000"/>
   <line x1="938.137695" y1="1197.465332" x2="938.137695" y2="1215.678101" style="stroke: green; stroke-width: 0.200000"/>
   <line x1="937.137573" y1="1197.465332" x2="937.137573" y2="1215.563477" style="stroke: green; stroke-width: 0.200000"/>
   <line x1="936.137634" y1="1197.465332" x2="936.137634" y2="1215.448975" style="stroke: green; stroke-width: 0.200000"/>
   <line x1="935.137634" y1="1197.465332" x2="935.137634" y2="1215.334351" style="stroke: green; stroke-width: 0.200000"/>
   <line x1="934.137634" y1="1197.465332" x2="934.137634" y2="1215.219849" style="stroke: green; stroke-width: 0.200000"/>
   <line x1="933.137695" y1="1197.465332" x2="933.137695" y2="1215.014038" style="stroke: green; stroke-width: 0.200000"/>
   <line x1="932.137573" y1="1197.465332" x2="932.137573" y2="1214.752197" style="stroke: green; stroke-width: 0.200000"/>
   <line x1="931.137634" y1="1197.465332" x2="931.137634" y2="1214.489380" style="stroke: green; stroke-width: 0.200000"/>
   <line x1="930.137634" y1="1197.465332" x2="930.137634" y2="1214.234375" style="stroke: green; stroke-width: 0.200000"/>
   <line x1="929.137634" y1="1197.465332" x2="929.137634" y2="1213.979248" style="stroke: green; stroke-width: 0.200000"/>
   <line x1="928.137695" y1="1197.465332" x2="928.137695" y2="1213.724121" style="stroke: green; stroke-width: 0.200000"/>
   <line x1="927.137573" y1="1197.465332" x2="927.137573" y2="1213.469116" style="stroke: green; stroke-width: 0.200000"/>
   <line x1="926.137634" y1="1197.465332" x2="926.137634" y2="1213.213989" style="stroke: green; stroke-width: 0.200000"/>
   <line x1="925.137634" y1="1197.465332" x2="925.137634" y2="1212.958862" style="stroke: green; stroke-width: 0.200000"/>
   <line x1="924.137634" y1="1197.465332" x2="924.137634" y2="1212.699341" style="stroke: green; stroke-width: 0.200000"/>
   <line x1="923.137695" y1="1197.465332" x2="923.137695" y2="1212.361816" style="stroke: green; stroke-width: 0.200000"/>
   <line x1="922.137573" y1="1197.465332" x2="922.137573" y2="1212.024170" style="stroke: green; stroke-width: 0.200000"/>
   <line x1="921.137634" y1="1197.465332" x2="921.137634" y2="1211.686646" style="stroke: green; stroke-width: 0.200000"/>
   <line x1="920.137634" y1="1197.465332" x2="920.137634" y2="1211.348999" style="stroke: green; stroke-width: 0.200000"/>
   <line x1="919.137634" y1="1197.465332" x2="919.137634" y2="1211.011475" style="stroke: green; stroke-width: 0.200000"/>
   <line x1="918.137695" y1="1197.465332" x2="918.137695" y2="1210.673950" style="stroke: green; stroke-width: 0.200000"/>
   <line x1="917.137573" y1="1197.465332" x2="917.137573" y2="1210.336426" style="stroke: green; stroke-width: 0.200000"/>
   <line x1="916.137634" y1="1197.465332" x2="916.137634" y2="1209.998779" style="stroke: green; stroke-width: 0.200000"/>
   <line x1="915.137634" y1="1197.465332" x2="915.137634" y2="1209.572510" style="stroke: green; stroke-width: 0.200000"/>
   <line x1="949.137634" y1="1197.465332" x2="949.137634" y2="1209.539429" style="stroke: green; stroke-width: 0.200000"/>
   <line x1="950.137634" y1="1197.465332" x2="950.137634" y2="1209.121582" style="stroke: green; stroke-width: 0.200000"/>
   <line x1="951.137634" y1="1197.465332" x2="951.137634" y2="1208.703857" style="stroke: green; stroke-width: 0.200000"/>
   <line x1="952.137573" y1="1197.465332" x2="952.137573" y2="1208.285889" style="stroke: green; stroke-width: 0.200000"/>
   <line x1="953.137695" y1="1197.465332" x2="953.137695" y2="1207.868164" style="stroke: green; stroke-width: 0.200000"/>
   <line x1="954.137634" y1="1197.465332" x2="954.137634" y2="1207.450317" style="stroke: green; stroke-width: 0.200000"/>
   <line x1="955.137634" y1="1197.465332" x2="955.137634" y2="1207.032471" style="stroke: green; stroke-width: 0.200000"/>
   <line x1="956.137634" y1="1197.465332" x2="956.137634" y2="1206.614746" style="stroke: green; stroke-width: 0.200000"/>
   <line x1="957.137573" y1="1197.465332" x2="957.137573" y2="1206.196899" style="stroke: green; stroke-width: 0.200000"/>
   <line x1="958.137695" y1="1197.465332" x2="958.137695" y2="1205.779053" style="stroke: green; stroke-width: 0.200000"/>
   <line x1="959.137634" y1="1197.465332" x2="959.137634" y2="1205.361328" style="stroke: green; stroke-width: 0.200000"/>
   <line x1="960.137634" y1="1197.465332" x2="960.137634" y2="1204.943481" style="stroke: green; stroke-width: 0.200000"/>
   <line x1="961.137634" y1="1197.465332" x2="961.137634" y2="1204.525635" style="stroke: green; stroke-width: 0.200000"/>
   <line x1="962.137573" y1="1197.465332" x2="962.137573" y2="1204.142578" style="stroke: green; stroke-width: 0.200000"/>
   <line x1="963.137695" y1="1197.465332" x2="963.137695" y2="1203.828857" style="stroke: green; stroke-width: 0.200000"/>
   <line x1="964.137634" y1="1197.465332" x2="964.137634" y2="1203.515137" style="stroke: green; stroke-width: 0.200000"/>
   <line x1="965.137634" y1="1197.465332" x2="965.137634" y2="1203.201416" style="stroke: green; stroke-width: 0.200000"/>
   <line x1="966.137634" y1="1197.465332" x2="966.137634" y2="1202.688354" style="stroke: green; stroke-width: 0.200000"/>
   <line x1="967.137573" y1="1197.465332" x2="967.137573" y2="1202.118774" style="stroke: green; stroke-width: 0.200000"/>
   <line x1="968.137695" y1="1197.840454" x2="968.137695" y2="1201.549194" style="stroke: green; stroke-width: 0.200000"/>
   <line x1="969.137634" y1="1199.048706" x2="969.137634" y2="1200.979614" style="stroke: green; stroke-width: 0.200000"/>
   <line x1="970.137634" y1="1200.256836" x2="970.137634" y2="1200.410034" style="stroke: green; stroke-width: 0.200000"/>
   <line x1="836.457153" y1="1347.131592" x2="836.457153" y2="1357.631836" style="stroke: green; stroke-width: 0.200000"/>
   <line x1="835.457153" y1="1346.892578" x2="835.457153" y2="1357.392822" style="stroke: green; stroke-width: 0.200000"/>
   <line x1="834.457153" y1="1346.653564" x2="834.457153" y2="1357.153809" style="stroke: green; stroke-width: 0.200000"/>
   <line x1="833.457153" y1="1346.456543" x2="833.457153" y2="1356.914795" style="stroke: green; stroke-width: 0.200000"/>
   <line x1="832.457214" y1="1346.262817" x2="832.457214" y2="1356.675781" style="stroke: green; stroke-width: 0.200000"/>
   <line x1="831.457153" y1="1346.069214" x2="831.457153" y2="1356.436768" style="stroke: green; stroke-width: 0.200000"/>
   <line x1="830.457153" y1="1345.875488" x2="830.457153" y2="1356.197632" style="stroke: green; stroke-width: 0.200000"/>
   <line x1="829.457153" y1="1345.681763" x2="829.457153" y2="1355.982788" style="stroke: green; stroke-width: 0.200000"/>
   <line x1="837.457214" y1="1347.370605" x2="837.457214" y2="1355.354004" style="stroke: green; stroke-width: 0.200000"/>
   <line x1="828.457153" y1="1345.488159" x2="828.457153" y2="1355.336914" style="stroke: green; stroke-width: 0.200000"/>
   <line x1="838.457153" y1="1347.609741" x2="838.457153" y2="1353.035889" style="stroke: green; stroke-width: 0.200000"/>
   <line x1="827.457214" y1="1345.294434" x2="827.457214" y2="1352.541626" style="stroke: green; stroke-width: 0.200000"/>
   <line x1="839.457153" y1="1347.848633" x2="839.457153" y2="1350.638184" style="stroke: green; stroke-width: 0.200000"/>
   <line x1="826.457153" y1="1345.100708" x2="826.457153" y2="1349.746582" style="stroke: green; stroke-width: 0.200000"/>
   <line x1="840.457153" y1="1348.087769" x2="840.457153" y2="1348.102417" style="stroke: green; stroke-width: 0.200000"/>
   <line x1="825.457153" y1="1344.907104" x2="825.457153" y2="1347.067383" style="stroke: green; stroke-width: 0.200000"/>
   <line x1="951.131836" y1="1208.706299" x2="951.131836" y2="1216.271729" style="stroke: green; stroke-width: 0.200000"/>
   <line x1="952.131836" y1="1208.288452" x2="952.131836" y2="1216.192627" style="stroke: green; stroke-width: 0.200000"/>
   <line x1="953.131775" y1="1207.870850" x2="953.131775" y2="1216.113525" style="stroke: green; stroke-width: 0.200000"/>
   <line x1="954.131775" y1="1207.452881" x2="954.131775" y2="1216.034546" style="stroke: green; stroke-width: 0.200000"/>
   <line x1="955.131836" y1="1207.035034" x2="955.131836" y2="1215.955566" style="stroke: green; stroke-width: 0.200000"/>
   <line x1="956.131836" y1="1206.617310" x2="956.131836" y2="1215.876587" style="stroke: green; stroke-width: 0.200000"/>
   <line x1="957.131836" y1="1206.199463" x2="957.131836" y2="1215.797485" style="stroke: green; stroke-width: 0.200000"/>
   <line x1="958.131775" y1="1205.781494" x2="958.131775" y2="1215.710938" style="stroke: green; stroke-width: 0.200000"/>
   <line x1="959.131775" y1="1205.363892" x2="959.131775" y2="1215.623169" style="stroke: green; stroke-width: 0.200000"/>
   <line x1="960.131836" y1="1204.946045" x2="960.131836" y2="1215.535522" style="stroke: green; stroke-width: 0.200000"/>
   <line x1="961.131836" y1="1204.528076" x2="961.131836" y2="1215.447754" style="stroke: green; stroke-width: 0.200000"/>
   <line x1="962.131836" y1="1204.144409" x2="962.131836" y2="1215.359985" style="stroke: green; stroke-width: 0.200000"/>
   <line x1="963.131775" y1="1203.830688" x2="963.131775" y2="1215.272339" style="stroke: green; stroke-width: 0.200000"/>
   <line x1="964.131775" y1="1203.517090" x2="964.131775" y2="1215.184570" style="stroke: green; stroke-width: 0.200000"/>
   <line x1="965.131836" y1="1203.203369" x2="965.131836" y2="1214.901245" style="stroke: green; stroke-width: 0.200000"/>
   <line x1="966.131836" y1="1202.691772" x2="966.131836" y2="1214.587524" style="stroke: green; stroke-width: 0.200000"/>
   <line x1="967.131836" y1="1202.122192" x2="967.131836" y2="1214.273804" style="stroke: green; stroke-width: 0.200000"/>
   <line x1="968.131775" y1="1201.552612" x2="968.131775" y2="1213.960205" style="stroke: green; stroke-width: 0.200000"/>
   <line x1="969.131775" y1="1200.983032" x2="969.131775" y2="1213.646484" style="stroke: green; stroke-width: 0.200000"/>
   <line x1="950.131836" y1="1209.124146" x2="950.131836" y2="1213.635742" style="stroke: green; stroke-width: 0.200000"/>
   <line x1="970.131836" y1="1200.413574" x2="970.131836" y2="1213.332764" style="stroke: green; stroke-width: 0.200000"/>
   <line x1="971.131836" y1="1187.432861" x2="971.131836" y2="1213.019043" style="stroke: green; stroke-width: 0.200000"/>
   <line x1="972.131836" y1="1188.211670" x2="972.131836" y2="1212.630981" style="stroke: green; stroke-width: 0.200000"/>
   <line x1="973.131775" y1="1189.023926" x2="973.131775" y2="1212.061523" style="stroke: green; stroke-width: 0.200000"/>
   <line x1="974.131775" y1="1189.850586" x2="974.131775" y2="1211.491943" style="stroke: green; stroke-width: 0.200000"/>
   <line x1="975.131836" y1="1190.716431" x2="975.131836" y2="1210.994263" style="stroke: green; stroke-width: 0.200000"/>
   <line x1="976.131836" y1="1191.599854" x2="976.131836" y2="1210.552734" style="stroke: green; stroke-width: 0.200000"/>
   <line x1="977.131836" y1="1192.488770" x2="977.131836" y2="1210.111084" style="stroke: green; stroke-width: 0.200000"/>
   <line x1="978.131775" y1="1193.697021" x2="978.131775" y2="1209.669434" style="stroke: green; stroke-width: 0.200000"/>
   <line x1="949.131775" y1="1209.541992" x2="949.131775" y2="1209.578491" style="stroke: green; stroke-width: 0.200000"/>
   <line x1="979.131775" y1="1194.905151" x2="979.131775" y2="1209.227905" style="stroke: green; stroke-width: 0.200000"/>
   <line x1="980.131836" y1="1196.113403" x2="980.131836" y2="1208.410767" style="stroke: green; stroke-width: 0.200000"/>
   <line x1="981.131836" y1="1197.416504" x2="981.131836" y2="1207.538940" style="stroke: green; stroke-width: 0.200000"/>
   <line x1="982.131836" y1="1199.307129" x2="982.131836" y2="1206.667236" style="stroke: green; stroke-width: 0.200000"/>
   <line x1="983.131775" y1="1201.197754" x2="983.131775" y2="1205.795532" style="stroke: green; stroke-width: 0.200000"/>
   <line x1="984.131775" y1="1203.088379" x2="984.131775" y2="1204.923828" style="stroke: green; stroke-width: 0.200000"/>
   <line x1="970.131836" y1="1186.654053" x2="970.131836" y2="1200.249634" style="stroke: green; stroke-width: 0.200000"/>
   <line x1="969.131775" y1="1185.875244" x2="969.131775" y2="1199.041504" style="stroke: green; stroke-width: 0.200000"/>
   <line x1="968.131775" y1="1185.096436" x2="968.131775" y2="1197.833252" style="stroke: green; stroke-width: 0.200000"/>
   <line x1="967.131836" y1="1185.351074" x2="967.131836" y2="1196.420654" style="stroke: green; stroke-width: 0.200000"/>
   <line x1="966.131836" y1="1186.225220" x2="966.131836" y2="1194.925781" style="stroke: green; stroke-width: 0.200000"/>
   <line x1="965.131836" y1="1187.099609" x2="965.131836" y2="1193.431030" style="stroke: green; stroke-width: 0.200000"/>
   <line x1="964.131775" y1="1187.973755" x2="964.131775" y2="1191.936279" style="stroke: green; stroke-width: 0.200000"/>
   <line x1="963.131775" y1="1188.847900" x2="963.131775" y2="1190.440918" style="stroke: green; stroke-width: 0.200000"/>
   <path d="M 827.071  1355.91  824.728  1349.36  822.595  1343.77  821.381  1339.74  819.666  1333.27  818.922  1330.61  818.643  1329.3  816.599  1320.45  814.419  1309.98  814.297  1309.17  813.012  1301.6  812.416  1298.35  810.698  1289.27  809.826  1285  808.84  1279.76  806.928  1272.49  806.64  1271.15  805.564  1267.56  804.403  1265.23  " style="fill: none; stroke: darkmagenta; stroke-width: 0.200000; fill-type: evenodd"  fill-opacity="1.000000" />
   <path d="M 804.403  1265.23  803.147  1262.7  801.717  1260.14  798.876  1254.74  796.22  1246.49  795.819  1245.53  795.587  1242.66  795.697  1240.89  " style="fill: none; stroke: red; stroke-width: 0.200000; fill-type: evenodd"  fill-opacity="1.000000" />
   <path d="M 795.697  1240.89  795.964  1236.62  796.245  1234.71  797.176  1227.69  798.188  1221.55  799.145  1218.55  801.005  1211.09  801.449  1209.43  801.629  1208.56  806.443  1200.12  808.254  1196.04  813.22  1192.79  818.022  1188.76  822.298  1193.32  827.577  1196.86  830.421  1201.96  834.142  1208.08  835.377  1210.67  836.272  1212.91  839.933  1221.34  843.395  1230.72  845.516  1236.79  845.896  1238.25  846.065  1239.09  847.467  1247.16  849.21  1255.35  849.333  1257.62  849.702  1266.83  850.052  1276.54  849.938  1278.75  849.355  1287.2  848.668  1295.55  848.079  1299.95  846.875  1308.29  846.293  1313.98  845.188  1319.24  844.362  1327.05  843.956  1330.04  843.379  1335.54  842.663  1341.78  842.203  1346.34  " style="fill: none; stroke: darkmagenta; stroke-width: 0.200000; fill-type: evenodd"  fill-opacity="1.000000" />
   <path d="M 842.203  1346.34  842.011  1348.25  840.478  1352.14  837.351  1359.39  829.673  1357.55  827.507  1357.13  827.071  1355.91  " style="fill: none; stroke: red; stroke-width: 0.200000; fill-type: evenodd"  fill-opacity="1.000000" />
   <path d="M 828.212  1356.14  825.666  1349.02  823.542  1343.45  822.343  1339.47  820.631  1333.01  819.894  1330.37  819.62  1329.08  817.576  1320.24  815.404  1309.8  815.284  1309.01  813.997  1301.43  813.399  1298.16  811.679  1289.08  810.807  1284.81  809.816  1279.54  807.901  1272.26  807.61  1270.9  806.497  1267.19  804.032  1262.23  802.596  1259.66  799.801  1254.35  797.159  1246.14  796.803  1245.29  796.589  1242.65  796.959  1236.72  797.236  1234.85  798.165  1227.84  799.163  1221.78  800.108  1218.82  801.974  1211.34  802.423  1209.66  802.576  1208.91  807.337  1200.57  809.048  1196.72  813.817  1193.6  817.94  1190.14  821.647  1194.09  826.821  1197.56  829.557  1202.46  833.261  1208.55  834.461  1211.07  835.349  1213.29  839.005  1221.72  842.454  1231.06  844.559  1237.08  844.921  1238.47  845.082  1239.27  846.485  1247.35  848.216  1255.49  848.334  1257.67  848.703  1266.86  849.051  1276.54  848.94  1278.69  848.358  1287.13  847.673  1295.44  847.089  1299.81  845.882  1308.17  845.303  1313.83  844.199  1319.08  843.369  1326.93  842.963  1329.92  842.385  1335.43  841.668  1341.67  841.03  1348.01  839.554  1351.76  836.851  1358.02  " style="fill: none; stroke: black; stroke-width: 0.200000; fill-type: evenodd"  fill-opacity="1.000000" />
   <path d="M 836.851  1358.02  836.765  1358.22  829.885  1356.57  828.256  1356.26  828.212  1356.14  " style="fill: none; stroke: red; stroke-width: 0.200000; fill-type: evenodd"  fill-opacity="1.000000" />
   <path d="M 931.158  1216.04  923.767  1214.16  915.222  1211.27  913.161  1210.29  905.454  1206.49  901.067  1203.91  895.193  1201.17  891.611  1198.4  885.952  1194.39  882.346  1190.98  877.82  1187.31  873.792  1183.22  871.628  1181.25  868.029  1176.1  865.562  1172.86  863.891  1167.07  862.855  1162.54  865.807  1154.02  866.494  1153.36  873.766  1147.69  877.457  1146.8  885.893  1145.85  887.828  1146.29  888.957  1146.78  898.7  1150.01  900.973  1151.51  907.838  1156.15  912.638  1158.71  916.082  1161.16  920.46  1163.37  924.84  1164.21  931.281  1165.01  934.612  1165.65  938.903  1166.19  943.182  1169  945.442  1170.35  951.123  1173.93  958.663  1176.77  " style="fill: none; stroke: darkmagenta; stroke-width: 0.200000; fill-type: evenodd"  fill-opacity="1.000000" />
   <path d="M 958.663  1176.77  959.807  1177.2  968.036  1183.12  973.368  1187.27  975.415  1188.97  978.196  1191.42  982.246  1196.32  986.662  1204.66  985.873  1205.4  980.073  1210.45  975.246  1212.58  972.444  1214.18  965.095  1216.48  964.729  1216.64  957.391  1217.28  950.043  1217.86  949.031  1217.98  947.695  1218.03  940.89  1217.5  933.664  1216.68  932.607  1216.43  931.161  1216.04  931.158  1216.04  " style="fill: none; stroke: red; stroke-width: 0.200000; fill-type: evenodd"  fill-opacity="1.000000" />
   <path d="M 961.003  1215.96  957.308  1216.28  949.945  1216.87  948.955  1216.98  947.715  1217.03  940.986  1216.51  933.834  1215.69  932.849  1215.46  931.414  1215.08  924.051  1213.2  915.597  1210.34  913.597  1209.39  905.93  1205.61  901.533  1203.02  895.717  1200.31  892.206  1197.59  886.587  1193.62  883.005  1190.23  878.493  1186.57  874.486  1182.5  872.383  1180.59  868.837  1175.51  866.471  1172.41  864.86  1166.82  863.894  1162.6  866.673  1154.58  867.15  1154.12  874.21  1148.61  877.631  1147.79  885.836  1146.86  887.516  1147.24  888.602  1147.71  898.26  1150.92  900.418  1152.34  907.322  1157.01  912.11  1159.56  915.564  1162.02  920.135  1164.33  924.684  1165.19  931.125  1166  934.455  1166.64  938.548  1167.16  942.651  1169.85  944.919  1171.2  950.676  1174.83  959.33  1178.09  967.436  1183.92  972.742  1188.05  974.766  1189.73  976.036  1190.85  " style="fill: none; stroke: black; stroke-width: 0.200000; fill-type: evenodd"  fill-opacity="1.000000" />
   <path d="M 976.036  1190.85  977.475  1192.12  981.411  1196.87  985.423  1204.46  979.53  1209.6  974.795  1211.69  972.042  1213.26  964.751  1215.54  964.486  1215.66  961.003  1215.96  " style="fill: none; stroke: red; stroke-width: 0.200000; fill-type: evenodd"  fill-opacity="1.000000" />
   <path d="M 1003.1  1248.83  1003.83  1249.56  1004.1  1250.56  1003.83  1251.56  1003.1  1252.29  1002.1  1252.56  1001.1  1252.29  1000.37  1251.56  1000.1  1250.56  1000.37  1249.56  1001.1  1248.83  1002.1  1248.56  1003.1  1248.83  " style="fill: none; stroke: purple; stroke-width: 0.500000; fill-type: evenodd"  fill-opacity="1.000000" />
   <path d="M 1003.1  1228.83  1003.83  1229.56  1004.1  1230.56  1003.83  1231.56  1003.1  1232.29  1002.1  1232.56  1001.1  1232.29  1000.37  1231.56  1000.1  1230.56  1000.37  1229.56  1001.1  1228.83  1002.1  1228.56  1003.1  1228.83  " style="fill: none; stroke: purple; stroke-width: 0.500000; fill-type: evenodd"  fill-opacity="1.000000" />
</svg>
