<?xml version="1.0" encoding="UTF-8" standalone="yes"?>
<!DOCTYPE svg PUBLIC "-//W3C//DTD SVG 1.0//EN" "http://www.w3.org/TR/2001/REC-SVG-20010904/DTD/svg10.dtd">
<svg height="2000" width="2000" xmlns="http://www.w3.org/2000/svg" xmlns:svg="http://www.w3.org/2000/svg" xmlns:xlink="http://www.w3.org/1999/xlink">
   <marker id="endArrow" markerHeight="8" markerUnits="strokeWidth" markerWidth="10" orient="auto" refX="1" refY="5" viewBox="0 0 1000 1000">
      <polyline fill="darkblue" points="0,0 10,5 0,10 1,5" />
   </marker>
   <circle cx="1000" cy="1000" r="1" style="stroke:black; fill: red" />
   <circle cx="1000" cy="1000" r="800" style="stroke:black; fill: none" />
   <line x1="961.083008" y1="1074.541382" x2="925.185303" y2="1074.541382" style="stroke: green; stroke-width: 0.200000"/>
   <line x1="961.083008" y1="1073.541382" x2="923.902039" y2="1073.541382" style="stroke: green; stroke-width: 0.200000"/>
   <line x1="961.083008" y1="1072.541382" x2="922.793213" y2="1072.541382" style="stroke: green; stroke-width: 0.200000"/>
   <line x1="961.083008" y1="1071.541382" x2="921.684265" y2="1071.541382" style="stroke: green; stroke-width: 0.200000"/>
   <line x1="961.083008" y1="1070.541382" x2="920.575256" y2="1070.541382" style="stroke: green; stroke-width: 0.200000"/>
   <line x1="961.083008" y1="1069.541382" x2="919.466431" y2="1069.541382" style="stroke: green; stroke-width: 0.200000"/>
   <line x1="961.083008" y1="1068.541382" x2="918.395630" y2="1068.541382" style="stroke: green; stroke-width: 0.200000"/>
   <line x1="961.083008" y1="1067.541382" x2="917.546936" y2="1067.541382" style="stroke: green; stroke-width: 0.200000"/>
   <line x1="961.083008" y1="1066.541382" x2="916.772766" y2="1066.541382" style="stroke: green; stroke-width: 0.200000"/>
   <line x1="961.083008" y1="1065.541382" x2="915.998596" y2="1065.541382" style="stroke: green; stroke-width: 0.200000"/>
   <line x1="961.083008" y1="1064.541382" x2="915.252686" y2="1064.541382" style="stroke: green; stroke-width: 0.200000"/>
   <line x1="961.083008" y1="1063.541382" x2="914.555359" y2="1063.541382" style="stroke: green; stroke-width: 0.200000"/>
   <line x1="961.083008" y1="1062.541382" x2="913.858093" y2="1062.541382" style="stroke: green; stroke-width: 0.200000"/>
   <line x1="961.083008" y1="1061.541382" x2="913.160889" y2="1061.541382" style="stroke: green; stroke-width: 0.200000"/>
   <line x1="961.083008" y1="1060.541382" x2="912.618774" y2="1060.541382" style="stroke: green; stroke-width: 0.200000"/>
   <line x1="961.083008" y1="1059.541382" x2="912.198120" y2="1059.541382" style="stroke: green; stroke-width: 0.200000"/>
   <line x1="961.083008" y1="1058.541382" x2="911.801392" y2="1058.541382" style="stroke: green; stroke-width: 0.200000"/>
   <line x1="961.083008" y1="1057.541382" x2="911.501709" y2="1057.541382" style="stroke: green; stroke-width: 0.200000"/>
   <line x1="961.083008" y1="1056.541382" x2="911.202026" y2="1056.541382" style="stroke: green; stroke-width: 0.200000"/>
   <line x1="961.083008" y1="1055.541382" x2="911.117432" y2="1055.541382" style="stroke: green; stroke-width: 0.200000"/>
   <line x1="961.083008" y1="1054.541382" x2="911.163208" y2="1054.541382" style="stroke: green; stroke-width: 0.200000"/>
   <line x1="961.083008" y1="1053.541382" x2="911.324097" y2="1053.541382" style="stroke: green; stroke-width: 0.200000"/>
   <line x1="961.083008" y1="1052.541382" x2="911.599060" y2="1052.541382" style="stroke: green; stroke-width: 0.200000"/>
   <line x1="961.083008" y1="1051.541382" x2="911.920288" y2="1051.541382" style="stroke: green; stroke-width: 0.200000"/>
   <line x1="961.083008" y1="1050.541382" x2="912.241577" y2="1050.541382" style="stroke: green; stroke-width: 0.200000"/>
   <line x1="961.083008" y1="1049.541382" x2="912.562866" y2="1049.541382" style="stroke: green; stroke-width: 0.200000"/>
   <line x1="961.083008" y1="1048.541382" x2="912.935425" y2="1048.541382" style="stroke: green; stroke-width: 0.200000"/>
   <line x1="961.083008" y1="1047.541382" x2="913.339233" y2="1047.541382" style="stroke: green; stroke-width: 0.200000"/>
   <line x1="961.083008" y1="1046.541382" x2="913.766846" y2="1046.541382" style="stroke: green; stroke-width: 0.200000"/>
   <line x1="961.083008" y1="1045.541382" x2="914.314941" y2="1045.541382" style="stroke: green; stroke-width: 0.200000"/>
   <line x1="961.083008" y1="1044.541382" x2="914.863159" y2="1044.541382" style="stroke: green; stroke-width: 0.200000"/>
   <line x1="961.083008" y1="1043.541382" x2="915.411255" y2="1043.541382" style="stroke: green; stroke-width: 0.200000"/>
   <line x1="961.083008" y1="1042.541382" x2="915.984985" y2="1042.541382" style="stroke: green; stroke-width: 0.200000"/>
   <line x1="961.083008" y1="1041.541382" x2="916.576538" y2="1041.541382" style="stroke: green; stroke-width: 0.200000"/>
   <line x1="961.083008" y1="1040.541382" x2="917.168030" y2="1040.541382" style="stroke: green; stroke-width: 0.200000"/>
   <line x1="961.083008" y1="1039.541382" x2="917.759521" y2="1039.541382" style="stroke: green; stroke-width: 0.200000"/>
   <line x1="961.083008" y1="1038.541382" x2="918.455872" y2="1038.541382" style="stroke: green; stroke-width: 0.200000"/>
   <line x1="961.083008" y1="1037.541382" x2="919.174927" y2="1037.541382" style="stroke: green; stroke-width: 0.200000"/>
   <line x1="961.083008" y1="1036.541382" x2="920.002747" y2="1036.541382" style="stroke: green; stroke-width: 0.200000"/>
   <line x1="960.611572" y1="1035.541382" x2="920.830566" y2="1035.541382" style="stroke: green; stroke-width: 0.200000"/>
   <line x1="959.154114" y1="1034.541382" x2="921.658325" y2="1034.541382" style="stroke: green; stroke-width: 0.200000"/>
   <line x1="957.696655" y1="1033.541382" x2="922.486084" y2="1033.541382" style="stroke: green; stroke-width: 0.200000"/>
   <line x1="956.239258" y1="1032.541382" x2="923.317566" y2="1032.541382" style="stroke: green; stroke-width: 0.200000"/>
   <line x1="954.627747" y1="1031.541382" x2="924.234375" y2="1031.541382" style="stroke: green; stroke-width: 0.200000"/>
   <line x1="952.989441" y1="1030.541382" x2="925.276489" y2="1030.541382" style="stroke: green; stroke-width: 0.200000"/>
   <line x1="951.222046" y1="1029.541382" x2="926.319702" y2="1029.541382" style="stroke: green; stroke-width: 0.200000"/>
   <line x1="949.181396" y1="1028.541382" x2="927.421570" y2="1028.541382" style="stroke: green; stroke-width: 0.200000"/>
   <line x1="947.140747" y1="1027.541382" x2="928.523315" y2="1027.541382" style="stroke: green; stroke-width: 0.200000"/>
   <line x1="944.661987" y1="1026.541382" x2="929.625122" y2="1026.541382" style="stroke: green; stroke-width: 0.200000"/>
   <line x1="941.479797" y1="1025.541382" x2="931.313110" y2="1025.541382" style="stroke: green; stroke-width: 0.200000"/>
   <line x1="976.585327" y1="1074.541382" x2="961.182983" y2="1074.541382" style="stroke: green; stroke-width: 0.200000"/>
   <line x1="977.592224" y1="1073.541382" x2="961.182983" y2="1073.541382" style="stroke: green; stroke-width: 0.200000"/>
   <line x1="978.540161" y1="1072.541382" x2="961.182983" y2="1072.541382" style="stroke: green; stroke-width: 0.200000"/>
   <line x1="979.488159" y1="1071.541382" x2="961.182983" y2="1071.541382" style="stroke: green; stroke-width: 0.200000"/>
   <line x1="980.484985" y1="1070.541382" x2="961.182983" y2="1070.541382" style="stroke: green; stroke-width: 0.200000"/>
   <line x1="981.481873" y1="1069.541382" x2="961.182983" y2="1069.541382" style="stroke: green; stroke-width: 0.200000"/>
   <line x1="982.301392" y1="1068.541382" x2="961.182983" y2="1068.541382" style="stroke: green; stroke-width: 0.200000"/>
   <line x1="982.866150" y1="1067.541382" x2="961.182983" y2="1067.541382" style="stroke: green; stroke-width: 0.200000"/>
   <line x1="983.231689" y1="1066.541382" x2="961.182983" y2="1066.541382" style="stroke: green; stroke-width: 0.200000"/>
   <line x1="983.383545" y1="1065.541382" x2="961.182983" y2="1065.541382" style="stroke: green; stroke-width: 0.200000"/>
   <line x1="983.464478" y1="1064.541382" x2="961.182983" y2="1064.541382" style="stroke: green; stroke-width: 0.200000"/>
   <line x1="983.385986" y1="1063.541382" x2="961.182983" y2="1063.541382" style="stroke: green; stroke-width: 0.200000"/>
   <line x1="983.176331" y1="1062.541382" x2="961.182983" y2="1062.541382" style="stroke: green; stroke-width: 0.200000"/>
   <line x1="982.952393" y1="1061.541382" x2="961.182983" y2="1061.541382" style="stroke: green; stroke-width: 0.200000"/>
   <line x1="982.648438" y1="1060.541382" x2="961.182983" y2="1060.541382" style="stroke: green; stroke-width: 0.200000"/>
   <line x1="982.088135" y1="1059.541382" x2="961.182983" y2="1059.541382" style="stroke: green; stroke-width: 0.200000"/>
   <line x1="981.527954" y1="1058.541382" x2="961.182983" y2="1058.541382" style="stroke: green; stroke-width: 0.200000"/>
   <line x1="980.999878" y1="1057.541382" x2="961.182983" y2="1057.541382" style="stroke: green; stroke-width: 0.200000"/>
   <line x1="980.496704" y1="1056.541382" x2="961.182983" y2="1056.541382" style="stroke: green; stroke-width: 0.200000"/>
   <line x1="979.916870" y1="1055.541382" x2="961.182983" y2="1055.541382" style="stroke: green; stroke-width: 0.200000"/>
   <line x1="979.189087" y1="1054.541382" x2="961.182983" y2="1054.541382" style="stroke: green; stroke-width: 0.200000"/>
   <line x1="978.437622" y1="1053.541382" x2="961.182983" y2="1053.541382" style="stroke: green; stroke-width: 0.200000"/>
   <line x1="977.686279" y1="1052.541382" x2="961.182983" y2="1052.541382" style="stroke: green; stroke-width: 0.200000"/>
   <line x1="976.934875" y1="1051.541382" x2="961.182983" y2="1051.541382" style="stroke: green; stroke-width: 0.200000"/>
   <line x1="976.165894" y1="1050.541382" x2="961.182983" y2="1050.541382" style="stroke: green; stroke-width: 0.200000"/>
   <line x1="975.291504" y1="1049.541382" x2="961.182983" y2="1049.541382" style="stroke: green; stroke-width: 0.200000"/>
   <line x1="974.406982" y1="1048.541382" x2="961.182983" y2="1048.541382" style="stroke: green; stroke-width: 0.200000"/>
   <line x1="973.522339" y1="1047.541382" x2="961.182983" y2="1047.541382" style="stroke: green; stroke-width: 0.200000"/>
   <line x1="972.637817" y1="1046.541382" x2="961.182983" y2="1046.541382" style="stroke: green; stroke-width: 0.200000"/>
   <line x1="971.753174" y1="1045.541382" x2="961.182983" y2="1045.541382" style="stroke: green; stroke-width: 0.200000"/>
   <line x1="970.755859" y1="1044.541382" x2="961.182983" y2="1044.541382" style="stroke: green; stroke-width: 0.200000"/>
   <line x1="969.737610" y1="1043.541382" x2="961.182983" y2="1043.541382" style="stroke: green; stroke-width: 0.200000"/>
   <line x1="968.719421" y1="1042.541382" x2="961.182983" y2="1042.541382" style="stroke: green; stroke-width: 0.200000"/>
   <line x1="967.701172" y1="1041.541382" x2="961.182983" y2="1041.541382" style="stroke: green; stroke-width: 0.200000"/>
   <line x1="966.664185" y1="1040.541382" x2="961.182983" y2="1040.541382" style="stroke: green; stroke-width: 0.200000"/>
   <line x1="965.491211" y1="1039.541382" x2="961.182983" y2="1039.541382" style="stroke: green; stroke-width: 0.200000"/>
   <line x1="964.318115" y1="1038.541382" x2="961.182983" y2="1038.541382" style="stroke: green; stroke-width: 0.200000"/>
   <line x1="963.145081" y1="1037.541382" x2="961.182983" y2="1037.541382" style="stroke: green; stroke-width: 0.200000"/>
   <line x1="961.972046" y1="1036.541382" x2="961.182983" y2="1036.541382" style="stroke: green; stroke-width: 0.200000"/>
   <line x1="955.849670" y1="1085.541382" x2="947.996582" y2="1085.541382" style="stroke: green; stroke-width: 0.200000"/>
   <line x1="959.152100" y1="1084.541382" x2="944.402588" y2="1084.541382" style="stroke: green; stroke-width: 0.200000"/>
   <line x1="961.083008" y1="1083.541382" x2="941.451172" y2="1083.541382" style="stroke: green; stroke-width: 0.200000"/>
   <line x1="961.083008" y1="1082.541382" x2="938.715942" y2="1082.541382" style="stroke: green; stroke-width: 0.200000"/>
   <line x1="961.083008" y1="1081.541382" x2="936.767883" y2="1081.541382" style="stroke: green; stroke-width: 0.200000"/>
   <line x1="961.083008" y1="1080.541382" x2="934.784668" y2="1080.541382" style="stroke: green; stroke-width: 0.200000"/>
   <line x1="961.083008" y1="1079.541382" x2="932.790466" y2="1079.541382" style="stroke: green; stroke-width: 0.200000"/>
   <line x1="961.083008" y1="1078.541382" x2="931.020996" y2="1078.541382" style="stroke: green; stroke-width: 0.200000"/>
   <line x1="961.083008" y1="1077.541382" x2="929.562012" y2="1077.541382" style="stroke: green; stroke-width: 0.200000"/>
   <line x1="961.083008" y1="1076.541382" x2="928.103088" y2="1076.541382" style="stroke: green; stroke-width: 0.200000"/>
   <line x1="961.083008" y1="1075.541382" x2="926.644226" y2="1075.541382" style="stroke: green; stroke-width: 0.200000"/>
   <line x1="962.193665" y1="1083.541382" x2="961.182983" y2="1083.541382" style="stroke: green; stroke-width: 0.200000"/>
   <line x1="964.203979" y1="1082.541382" x2="961.182983" y2="1082.541382" style="stroke: green; stroke-width: 0.200000"/>
   <line x1="966.214233" y1="1081.541382" x2="961.182983" y2="1081.541382" style="stroke: green; stroke-width: 0.200000"/>
   <line x1="968.147705" y1="1080.541382" x2="961.182983" y2="1080.541382" style="stroke: green; stroke-width: 0.200000"/>
   <line x1="970.022705" y1="1079.541382" x2="961.182983" y2="1079.541382" style="stroke: green; stroke-width: 0.200000"/>
   <line x1="971.420593" y1="1078.541382" x2="961.182983" y2="1078.541382" style="stroke: green; stroke-width: 0.200000"/>
   <line x1="972.703125" y1="1077.541382" x2="961.182983" y2="1077.541382" style="stroke: green; stroke-width: 0.200000"/>
   <line x1="973.985596" y1="1076.541382" x2="961.182983" y2="1076.541382" style="stroke: green; stroke-width: 0.200000"/>
   <line x1="975.279053" y1="1075.541382" x2="961.182983" y2="1075.541382" style="stroke: green; stroke-width: 0.200000"/>
   <line x1="1059.205688" y1="968.930542" x2="1018.355713" y2="968.930542" style="stroke: green; stroke-width: 0.200000"/>
   <line x1="1059.205688" y1="967.930542" x2="1017.790894" y2="967.930542" style="stroke: green; stroke-width: 0.200000"/>
   <line x1="1059.205688" y1="966.930542" x2="1017.226013" y2="966.930542" style="stroke: green; stroke-width: 0.200000"/>
   <line x1="1059.205688" y1="965.930542" x2="1016.632935" y2="965.930542" style="stroke: green; stroke-width: 0.200000"/>
   <line x1="1059.205688" y1="964.930481" x2="1016.038818" y2="964.930481" style="stroke: green; stroke-width: 0.200000"/>
   <line x1="1059.205688" y1="963.930542" x2="1015.516479" y2="963.930542" style="stroke: green; stroke-width: 0.200000"/>
   <line x1="1059.205688" y1="962.930542" x2="1015.017639" y2="962.930542" style="stroke: green; stroke-width: 0.200000"/>
   <line x1="1059.205688" y1="961.930542" x2="1014.518738" y2="961.930542" style="stroke: green; stroke-width: 0.200000"/>
   <line x1="1059.205688" y1="960.930542" x2="1014.019836" y2="960.930542" style="stroke: green; stroke-width: 0.200000"/>
   <line x1="1059.205688" y1="959.930481" x2="1013.530640" y2="959.930481" style="stroke: green; stroke-width: 0.200000"/>
   <line x1="1059.205688" y1="958.930542" x2="1013.072205" y2="958.930542" style="stroke: green; stroke-width: 0.200000"/>
   <line x1="1059.205688" y1="957.930542" x2="1012.613831" y2="957.930542" style="stroke: green; stroke-width: 0.200000"/>
   <line x1="1059.205688" y1="956.930542" x2="1012.155396" y2="956.930542" style="stroke: green; stroke-width: 0.200000"/>
   <line x1="1059.205688" y1="955.930542" x2="1011.717834" y2="955.930542" style="stroke: green; stroke-width: 0.200000"/>
   <line x1="1059.205688" y1="954.930481" x2="1011.308960" y2="954.930481" style="stroke: green; stroke-width: 0.200000"/>
   <line x1="1059.205688" y1="953.930542" x2="1010.935425" y2="953.930542" style="stroke: green; stroke-width: 0.200000"/>
   <line x1="1059.205688" y1="952.930542" x2="1010.588501" y2="952.930542" style="stroke: green; stroke-width: 0.200000"/>
   <line x1="1059.205688" y1="951.930542" x2="1010.260864" y2="951.930542" style="stroke: green; stroke-width: 0.200000"/>
   <line x1="1059.205688" y1="950.930542" x2="1009.994507" y2="950.930542" style="stroke: green; stroke-width: 0.200000"/>
   <line x1="1059.205688" y1="949.930481" x2="1009.705688" y2="949.930481" style="stroke: green; stroke-width: 0.200000"/>
   <line x1="1059.205688" y1="948.930542" x2="1009.574341" y2="948.930542" style="stroke: green; stroke-width: 0.200000"/>
   <line x1="1059.205688" y1="947.930542" x2="1009.447144" y2="947.930542" style="stroke: green; stroke-width: 0.200000"/>
   <line x1="1059.205688" y1="946.930542" x2="1009.320007" y2="946.930542" style="stroke: green; stroke-width: 0.200000"/>
   <line x1="1059.205688" y1="945.930542" x2="1009.223267" y2="945.930542" style="stroke: green; stroke-width: 0.200000"/>
   <line x1="1059.205688" y1="944.930481" x2="1009.396423" y2="944.930481" style="stroke: green; stroke-width: 0.200000"/>
   <line x1="1059.205688" y1="943.930542" x2="1009.569702" y2="943.930542" style="stroke: green; stroke-width: 0.200000"/>
   <line x1="1059.205688" y1="942.930542" x2="1009.788208" y2="942.930542" style="stroke: green; stroke-width: 0.200000"/>
   <line x1="1059.205688" y1="941.930542" x2="1010.263306" y2="941.930542" style="stroke: green; stroke-width: 0.200000"/>
   <line x1="1059.205688" y1="940.930542" x2="1010.738403" y2="940.930542" style="stroke: green; stroke-width: 0.200000"/>
   <line x1="1059.205688" y1="939.930481" x2="1011.417847" y2="939.930481" style="stroke: green; stroke-width: 0.200000"/>
   <line x1="1059.205688" y1="938.930542" x2="1012.164673" y2="938.930542" style="stroke: green; stroke-width: 0.200000"/>
   <line x1="1059.205688" y1="937.930542" x2="1012.911499" y2="937.930542" style="stroke: green; stroke-width: 0.200000"/>
   <line x1="1059.205688" y1="936.930542" x2="1013.658386" y2="936.930542" style="stroke: green; stroke-width: 0.200000"/>
   <line x1="1059.205688" y1="935.930542" x2="1014.410950" y2="935.930542" style="stroke: green; stroke-width: 0.200000"/>
   <line x1="1059.205688" y1="934.930481" x2="1015.171509" y2="934.930481" style="stroke: green; stroke-width: 0.200000"/>
   <line x1="1059.205688" y1="933.930542" x2="1015.994751" y2="933.930542" style="stroke: green; stroke-width: 0.200000"/>
   <line x1="1059.205688" y1="932.930542" x2="1016.957764" y2="932.930542" style="stroke: green; stroke-width: 0.200000"/>
   <line x1="1059.205688" y1="931.930542" x2="1017.920776" y2="931.930542" style="stroke: green; stroke-width: 0.200000"/>
   <line x1="1059.205688" y1="930.930542" x2="1018.883789" y2="930.930542" style="stroke: green; stroke-width: 0.200000"/>
   <line x1="1058.281982" y1="929.930481" x2="1019.846863" y2="929.930481" style="stroke: green; stroke-width: 0.200000"/>
   <line x1="1057.255859" y1="928.930542" x2="1020.815369" y2="928.930542" style="stroke: green; stroke-width: 0.200000"/>
   <line x1="1056.120483" y1="927.930542" x2="1021.831421" y2="927.930542" style="stroke: green; stroke-width: 0.200000"/>
   <line x1="1054.937866" y1="926.930542" x2="1023.225220" y2="926.930542" style="stroke: green; stroke-width: 0.200000"/>
   <line x1="1053.702271" y1="925.930542" x2="1024.619019" y2="925.930542" style="stroke: green; stroke-width: 0.200000"/>
   <line x1="1052.342407" y1="924.930481" x2="1026.012817" y2="924.930481" style="stroke: green; stroke-width: 0.200000"/>
   <line x1="1050.982544" y1="923.930542" x2="1027.406494" y2="923.930542" style="stroke: green; stroke-width: 0.200000"/>
   <line x1="1049.454224" y1="922.930542" x2="1028.806763" y2="922.930542" style="stroke: green; stroke-width: 0.200000"/>
   <line x1="1047.788574" y1="921.930542" x2="1030.974365" y2="921.930542" style="stroke: green; stroke-width: 0.200000"/>
   <line x1="1045.895142" y1="920.930542" x2="1033.141968" y2="920.930542" style="stroke: green; stroke-width: 0.200000"/>
   <line x1="1043.424561" y1="919.930481" x2="1035.407227" y2="919.930481" style="stroke: green; stroke-width: 0.200000"/>
   <line x1="1083.167847" y1="968.930542" x2="1059.305664" y2="968.930542" style="stroke: green; stroke-width: 0.200000"/>
   <line x1="1083.019287" y1="967.930542" x2="1059.305664" y2="967.930542" style="stroke: green; stroke-width: 0.200000"/>
   <line x1="1082.782715" y1="966.930542" x2="1059.305664" y2="966.930542" style="stroke: green; stroke-width: 0.200000"/>
   <line x1="1082.537109" y1="965.930542" x2="1059.305664" y2="965.930542" style="stroke: green; stroke-width: 0.200000"/>
   <line x1="1082.286621" y1="964.930481" x2="1059.305664" y2="964.930481" style="stroke: green; stroke-width: 0.200000"/>
   <line x1="1082.000366" y1="963.930542" x2="1059.305664" y2="963.930542" style="stroke: green; stroke-width: 0.200000"/>
   <line x1="1081.687256" y1="962.930542" x2="1059.305664" y2="962.930542" style="stroke: green; stroke-width: 0.200000"/>
   <line x1="1081.354004" y1="961.930542" x2="1059.305664" y2="961.930542" style="stroke: green; stroke-width: 0.200000"/>
   <line x1="1080.911377" y1="960.930542" x2="1059.305664" y2="960.930542" style="stroke: green; stroke-width: 0.200000"/>
   <line x1="1080.442017" y1="959.930481" x2="1059.305664" y2="959.930481" style="stroke: green; stroke-width: 0.200000"/>
   <line x1="1079.972656" y1="958.930542" x2="1059.305664" y2="958.930542" style="stroke: green; stroke-width: 0.200000"/>
   <line x1="1079.503296" y1="957.930542" x2="1059.305664" y2="957.930542" style="stroke: green; stroke-width: 0.200000"/>
   <line x1="1079.033936" y1="956.930542" x2="1059.305664" y2="956.930542" style="stroke: green; stroke-width: 0.200000"/>
   <line x1="1078.535400" y1="955.930542" x2="1059.305664" y2="955.930542" style="stroke: green; stroke-width: 0.200000"/>
   <line x1="1078.021484" y1="954.930481" x2="1059.305664" y2="954.930481" style="stroke: green; stroke-width: 0.200000"/>
   <line x1="1077.475098" y1="953.930542" x2="1059.305664" y2="953.930542" style="stroke: green; stroke-width: 0.200000"/>
   <line x1="1076.860840" y1="952.930542" x2="1059.305664" y2="952.930542" style="stroke: green; stroke-width: 0.200000"/>
   <line x1="1076.246582" y1="951.930542" x2="1059.305664" y2="951.930542" style="stroke: green; stroke-width: 0.200000"/>
   <line x1="1075.632324" y1="950.930542" x2="1059.305664" y2="950.930542" style="stroke: green; stroke-width: 0.200000"/>
   <line x1="1075.002686" y1="949.930481" x2="1059.305664" y2="949.930481" style="stroke: green; stroke-width: 0.200000"/>
   <line x1="1074.359375" y1="948.930542" x2="1059.305664" y2="948.930542" style="stroke: green; stroke-width: 0.200000"/>
   <line x1="1073.716064" y1="947.930542" x2="1059.305664" y2="947.930542" style="stroke: green; stroke-width: 0.200000"/>
   <line x1="1073.047363" y1="946.930542" x2="1059.305664" y2="946.930542" style="stroke: green; stroke-width: 0.200000"/>
   <line x1="1072.298462" y1="945.930542" x2="1059.305664" y2="945.930542" style="stroke: green; stroke-width: 0.200000"/>
   <line x1="1071.549316" y1="944.930481" x2="1059.305664" y2="944.930481" style="stroke: green; stroke-width: 0.200000"/>
   <line x1="1070.800415" y1="943.930542" x2="1059.305664" y2="943.930542" style="stroke: green; stroke-width: 0.200000"/>
   <line x1="1070.051392" y1="942.930542" x2="1059.305664" y2="942.930542" style="stroke: green; stroke-width: 0.200000"/>
   <line x1="1069.302490" y1="941.930542" x2="1059.305664" y2="941.930542" style="stroke: green; stroke-width: 0.200000"/>
   <line x1="1068.553467" y1="940.930542" x2="1059.305664" y2="940.930542" style="stroke: green; stroke-width: 0.200000"/>
   <line x1="1067.718140" y1="939.930481" x2="1059.305664" y2="939.930481" style="stroke: green; stroke-width: 0.200000"/>
   <line x1="1066.843750" y1="938.930542" x2="1059.305664" y2="938.930542" style="stroke: green; stroke-width: 0.200000"/>
   <line x1="1065.969360" y1="937.930542" x2="1059.305664" y2="937.930542" style="stroke: green; stroke-width: 0.200000"/>
   <line x1="1065.095093" y1="936.930542" x2="1059.305664" y2="936.930542" style="stroke: green; stroke-width: 0.200000"/>
   <line x1="1064.220703" y1="935.930542" x2="1059.305664" y2="935.930542" style="stroke: green; stroke-width: 0.200000"/>
   <line x1="1063.346436" y1="934.930481" x2="1059.305664" y2="934.930481" style="stroke: green; stroke-width: 0.200000"/>
   <line x1="1062.386353" y1="933.930542" x2="1059.305664" y2="933.930542" style="stroke: green; stroke-width: 0.200000"/>
   <line x1="1061.360229" y1="932.930542" x2="1059.305664" y2="932.930542" style="stroke: green; stroke-width: 0.200000"/>
   <line x1="1060.334229" y1="931.930542" x2="1059.305664" y2="931.930542" style="stroke: green; stroke-width: 0.200000"/>
   <line x1="1059.307983" y1="930.930542" x2="1059.305664" y2="930.930542" style="stroke: green; stroke-width: 0.200000"/>
   <line x1="1058.034058" y1="1000.930542" x2="1057.012329" y2="1000.930542" style="stroke: green; stroke-width: 0.200000"/>
   <line x1="1059.205688" y1="999.930481" x2="1052.535767" y2="999.930481" style="stroke: green; stroke-width: 0.200000"/>
   <line x1="1059.205688" y1="998.930542" x2="1050.361938" y2="998.930542" style="stroke: green; stroke-width: 0.200000"/>
   <line x1="1059.205688" y1="997.930542" x2="1048.188110" y2="997.930542" style="stroke: green; stroke-width: 0.200000"/>
   <line x1="1059.205688" y1="996.930542" x2="1046.407959" y2="996.930542" style="stroke: green; stroke-width: 0.200000"/>
   <line x1="1059.205688" y1="995.930542" x2="1044.840820" y2="995.930542" style="stroke: green; stroke-width: 0.200000"/>
   <line x1="1059.205688" y1="994.930481" x2="1043.343628" y2="994.930481" style="stroke: green; stroke-width: 0.200000"/>
   <line x1="1059.205688" y1="993.930542" x2="1041.846436" y2="993.930542" style="stroke: green; stroke-width: 0.200000"/>
   <line x1="1059.205688" y1="992.930542" x2="1040.481445" y2="992.930542" style="stroke: green; stroke-width: 0.200000"/>
   <line x1="1059.205688" y1="991.930542" x2="1039.175659" y2="991.930542" style="stroke: green; stroke-width: 0.200000"/>
   <line x1="1059.205688" y1="990.930542" x2="1037.869751" y2="990.930542" style="stroke: green; stroke-width: 0.200000"/>
   <line x1="1059.205688" y1="989.930481" x2="1036.654053" y2="989.930481" style="stroke: green; stroke-width: 0.200000"/>
   <line x1="1059.205688" y1="988.930542" x2="1035.516235" y2="988.930542" style="stroke: green; stroke-width: 0.200000"/>
   <line x1="1059.205688" y1="987.930542" x2="1034.354004" y2="987.930542" style="stroke: green; stroke-width: 0.200000"/>
   <line x1="1059.205688" y1="986.930542" x2="1033.182495" y2="986.930542" style="stroke: green; stroke-width: 0.200000"/>
   <line x1="1059.205688" y1="985.930542" x2="1032.090210" y2="985.930542" style="stroke: green; stroke-width: 0.200000"/>
   <line x1="1059.205688" y1="984.930481" x2="1031.091553" y2="984.930481" style="stroke: green; stroke-width: 0.200000"/>
   <line x1="1059.205688" y1="983.930542" x2="1030.093018" y2="983.930542" style="stroke: green; stroke-width: 0.200000"/>
   <line x1="1059.205688" y1="982.930542" x2="1029.094360" y2="982.930542" style="stroke: green; stroke-width: 0.200000"/>
   <line x1="1059.205688" y1="981.930542" x2="1028.095703" y2="981.930542" style="stroke: green; stroke-width: 0.200000"/>
   <line x1="1059.205688" y1="980.930542" x2="1027.216553" y2="980.930542" style="stroke: green; stroke-width: 0.200000"/>
   <line x1="1059.205688" y1="979.930481" x2="1026.347168" y2="979.930481" style="stroke: green; stroke-width: 0.200000"/>
   <line x1="1059.205688" y1="978.930542" x2="1025.499756" y2="978.930542" style="stroke: green; stroke-width: 0.200000"/>
   <line x1="1059.205688" y1="977.930542" x2="1024.652344" y2="977.930542" style="stroke: green; stroke-width: 0.200000"/>
   <line x1="1059.205688" y1="976.930542" x2="1023.840271" y2="976.930542" style="stroke: green; stroke-width: 0.200000"/>
   <line x1="1059.205688" y1="975.930542" x2="1023.082947" y2="975.930542" style="stroke: green; stroke-width: 0.200000"/>
   <line x1="1059.205688" y1="974.930481" x2="1022.333130" y2="974.930481" style="stroke: green; stroke-width: 0.200000"/>
   <line x1="1059.205688" y1="973.930542" x2="1021.617126" y2="973.930542" style="stroke: green; stroke-width: 0.200000"/>
   <line x1="1059.205688" y1="972.930542" x2="1020.901184" y2="972.930542" style="stroke: green; stroke-width: 0.200000"/>
   <line x1="1059.205688" y1="971.930542" x2="1020.217041" y2="971.930542" style="stroke: green; stroke-width: 0.200000"/>
   <line x1="1059.205688" y1="970.930542" x2="1019.568848" y2="970.930542" style="stroke: green; stroke-width: 0.200000"/>
   <line x1="1059.205688" y1="969.930481" x2="1018.920654" y2="969.930481" style="stroke: green; stroke-width: 0.200000"/>
   <line x1="1061.991699" y1="999.930481" x2="1059.305664" y2="999.930481" style="stroke: green; stroke-width: 0.200000"/>
   <line x1="1063.387207" y1="998.930542" x2="1059.305664" y2="998.930542" style="stroke: green; stroke-width: 0.200000"/>
   <line x1="1064.723267" y1="997.930542" x2="1059.305664" y2="997.930542" style="stroke: green; stroke-width: 0.200000"/>
   <line x1="1066.059326" y1="996.930542" x2="1059.305664" y2="996.930542" style="stroke: green; stroke-width: 0.200000"/>
   <line x1="1067.410156" y1="995.930542" x2="1059.305664" y2="995.930542" style="stroke: green; stroke-width: 0.200000"/>
   <line x1="1068.652832" y1="994.930481" x2="1059.305664" y2="994.930481" style="stroke: green; stroke-width: 0.200000"/>
   <line x1="1069.695435" y1="993.930542" x2="1059.305664" y2="993.930542" style="stroke: green; stroke-width: 0.200000"/>
   <line x1="1070.738037" y1="992.930542" x2="1059.305664" y2="992.930542" style="stroke: green; stroke-width: 0.200000"/>
   <line x1="1071.780762" y1="991.930542" x2="1059.305664" y2="991.930542" style="stroke: green; stroke-width: 0.200000"/>
   <line x1="1072.823364" y1="990.930542" x2="1059.305664" y2="990.930542" style="stroke: green; stroke-width: 0.200000"/>
   <line x1="1073.943115" y1="989.930481" x2="1059.305664" y2="989.930481" style="stroke: green; stroke-width: 0.200000"/>
   <line x1="1074.822021" y1="988.930542" x2="1059.305664" y2="988.930542" style="stroke: green; stroke-width: 0.200000"/>
   <line x1="1075.546753" y1="987.930542" x2="1059.305664" y2="987.930542" style="stroke: green; stroke-width: 0.200000"/>
   <line x1="1076.271484" y1="986.930542" x2="1059.305664" y2="986.930542" style="stroke: green; stroke-width: 0.200000"/>
   <line x1="1076.996216" y1="985.930542" x2="1059.305664" y2="985.930542" style="stroke: green; stroke-width: 0.200000"/>
   <line x1="1077.720947" y1="984.930481" x2="1059.305664" y2="984.930481" style="stroke: green; stroke-width: 0.200000"/>
   <line x1="1078.445679" y1="983.930542" x2="1059.305664" y2="983.930542" style="stroke: green; stroke-width: 0.200000"/>
   <line x1="1079.170410" y1="982.930542" x2="1059.305664" y2="982.930542" style="stroke: green; stroke-width: 0.200000"/>
   <line x1="1079.716797" y1="981.930542" x2="1059.305664" y2="981.930542" style="stroke: green; stroke-width: 0.200000"/>
   <line x1="1080.198242" y1="980.930542" x2="1059.305664" y2="980.930542" style="stroke: green; stroke-width: 0.200000"/>
   <line x1="1080.679810" y1="979.930481" x2="1059.305664" y2="979.930481" style="stroke: green; stroke-width: 0.200000"/>
   <line x1="1081.161133" y1="978.930542" x2="1059.305664" y2="978.930542" style="stroke: green; stroke-width: 0.200000"/>
   <line x1="1081.642700" y1="977.930542" x2="1059.305664" y2="977.930542" style="stroke: green; stroke-width: 0.200000"/>
   <line x1="1082.109497" y1="976.930542" x2="1059.305664" y2="976.930542" style="stroke: green; stroke-width: 0.200000"/>
   <line x1="1082.555054" y1="975.930542" x2="1059.305664" y2="975.930542" style="stroke: green; stroke-width: 0.200000"/>
   <line x1="1082.964722" y1="974.930481" x2="1059.305664" y2="974.930481" style="stroke: green; stroke-width: 0.200000"/>
   <line x1="1083.149292" y1="973.930542" x2="1059.305664" y2="973.930542" style="stroke: green; stroke-width: 0.200000"/>
   <line x1="1083.333862" y1="972.930542" x2="1059.305664" y2="972.930542" style="stroke: green; stroke-width: 0.200000"/>
   <line x1="1083.467529" y1="971.930542" x2="1059.305664" y2="971.930542" style="stroke: green; stroke-width: 0.200000"/>
   <line x1="1083.401123" y1="970.930542" x2="1059.305664" y2="970.930542" style="stroke: green; stroke-width: 0.200000"/>
   <line x1="1083.284546" y1="969.930481" x2="1059.305664" y2="969.930481" style="stroke: green; stroke-width: 0.200000"/>
   <path d="M 934.914  1023.1  935.702  1023.13  937.24  1023.13  938.184  1023.22  938.532  1023.34  939.167  1023.41  943.279  1024.45  944.523  1024.87  947.584  1026.09  952.598  1028.55  956.838  1031.13  962.234  1034.84  962.593  1035.1  967.82  1039.56  972.703  1044.35  977.244  1049.48  977.838  1050.25  980.963  1054.41  981.533  1055.26  982.609  1057.4  984.152  1060.16  984.271  1060.57  984.831  1063.07  984.999  1064.17  984.862  1065.87  984.602  1067.45  983.916  1068.77  983.211  1069.93  980.564  1072.59  977.807  1075.5  975.587  1077.19  971.36  1080.49  970.094  1081.24  969.862  1081.33  967.632  1082.51  962.687  1084.97  960.126  1085.81  955.78  1087.13  954.891  1087.32  953.408  1087.37  952.077  1087.32  950.771  1087.33  949.889  1087.22  947.764  1087.03  947.12  1086.91  944.795  1086.21  943.735  1085.91  941.896  1085.27  939.254  1084.4  938.463  1084.1  935.254  1082.45  932.364  1081.01  930.666  1080.12  923.529  1075.22  918.454  1070.65  917.015  1069.3  914.3  1065.8  911.696  1062.06  911.485  1061.72  910.447  1059.25  909.719  1056.82  909.67  1056.48  909.577  1054.89  909.604  1054.65  909.806  1053.67  909.866  1053.03  911.272  1048.66  911.723  1047.51  912.321  1046.06  914.333  1042.39  916.597  1038.56  917.967  1036.65  922.146  1031.6  923.135  1030.52  925.274  1028.47  928.768  1025.29  929.816  1024.63  931.419  1023.8  933.094  1023.46  934.644  1023.1  934.914  1023.1  " style="fill: none; stroke: red; stroke-width: 0.200000; fill-type: evenodd"  fill-opacity="1.000000" />
   <path d="M 934.89  1024.1  935.684  1024.13  937.192  1024.13  937.974  1024.21  938.317  1024.32  938.989  1024.4  942.995  1025.41  944.177  1025.81  947.179  1027  952.117  1029.42  956.295  1031.97  961.654  1035.65  961.971  1035.88  967.144  1040.29  971.978  1045.04  976.474  1050.12  977.044  1050.85  980.146  1054.98  980.667  1055.77  981.726  1057.87  983.224  1060.55  983.302  1060.82  983.847  1063.25  983.993  1064.21  983.869  1065.74  983.641  1067.13  983.044  1068.28  982.419  1069.31  979.847  1071.89  977.136  1074.75  974.976  1076.4  970.794  1079.66  969.66  1080.34  969.452  1080.42  967.175  1081.62  962.306  1084.04  959.825  1084.86  955.531  1086.16  954.77  1086.32  953.407  1086.37  952.09  1086.32  950.828  1086.33  949.995  1086.23  947.896  1086.03  947.352  1085.94  945.075  1085.25  944.035  1084.96  942.218  1084.32  939.587  1083.45  938.87  1083.18  935.705  1081.56  932.82  1080.12  931.183  1079.26  924.149  1074.44  919.13  1069.91  917.756  1068.63  915.106  1065.2  912.534  1061.52  912.379  1061.26  911.39  1058.91  910.698  1056.6  910.666  1056.38  910.58  1054.92  910.593  1054.81  910.796  1053.81  910.851  1053.23  912.214  1048.99  912.651  1047.88  913.224  1046.49  915.202  1042.88  917.436  1039.11  918.759  1037.26  922.901  1032.26  923.851  1031.22  925.956  1029.2  929.377  1026.09  930.314  1025.49  931.753  1024.75  933.306  1024.44  934.753  1024.1  934.89  1024.1  " style="fill: none; stroke: red; stroke-width: 0.200000; fill-type: evenodd"  fill-opacity="1.000000" />
   <path d="M 1039.76  917.597  1042.74  918.07  1042.9  918.12  1045.68  919.188  1047.15  919.853  1047.87  920.229  1051.19  922.223  1051.48  922.424  1054.77  924.854  1056.33  926.133  1058.07  927.628  1064.06  933.463  1069.49  939.675  1074.46  946.315  1076.61  949.661  1078.98  953.518  1080.22  955.923  1082.51  960.811  1082.85  961.612  1083.62  964.098  1084.16  966.219  1084.56  967.936  1084.94  971.205  1084.97  972.072  1084.94  972.469  1084.41  975.381  1084.05  976.256  1083.29  977.969  1080.66  983.435  1075.46  990.603  1074.22  991.674  1069.17  996.515  1067.93  997.401  1062.86  1001.2  1061.11  1001.9  1060.02  1002.32  1059.88  1002.36  1057.18  1002.46  1054.71  1002.15  1053.39  1001.88  1052.01  1001.34  1047.14  999.098  1046.48  998.726  1044.85  997.742  1040.51  994.842  1036.31  991.627  1034.23  989.794  1031.53  987.49  1026.98  982.934  1025.42  981.151  1022.97  978.261  1021.25  976.001  1019.28  973.246  1017.64  970.706  1015.91  967.648  1014.58  965.403  1012.29  960.818  1010.51  956.948  1009.73  955.032  1008.89  952.609  1008.54  951.311  1008.23  950.21  1007.7  946.085  1007.7  945.963  1008.27  942.619  1009.02  941.085  1009.56  939.908  1012.9  935.441  1014.56  933.262  1019.41  928.219  1020.73  926.877  1028.03  921.637  1034.23  918.779  1036.46  917.915  1037.1  917.786  1038.19  917.614  1038.58  917.578  1039.76  917.597  " style="fill: none; stroke: red; stroke-width: 0.200000; fill-type: evenodd"  fill-opacity="1.000000" />
   <path d="M 1039.68  918.596  1042.51  919.046  1042.58  919.066  1045.3  920.112  1046.71  920.752  1047.38  921.101  1050.65  923.065  1050.9  923.239  1054.16  925.643  1055.69  926.899  1057.39  928.366  1063.33  934.151  1068.71  940.305  1073.64  946.886  1075.77  950.193  1078.11  954.009  1079.32  956.364  1081.6  961.216  1081.91  961.954  1082.66  964.369  1083.18  966.455  1083.58  968.109  1083.95  971.28  1083.97  972.053  1083.95  972.341  1083.44  975.099  1083.13  975.864  1082.38  977.548  1079.79  982.92  1074.72  989.921  1073.54  990.933  1068.53  995.744  1067.34  996.595  1062.36  1000.32  1060.75  1000.97  1059.71  1001.37  1057.23  1001.46  1054.87  1001.16  1053.68  1000.92  1052.4  1000.42  1047.59  998.206  1046.98  997.863  1045.39  996.898  1041.09  994.028  1036.95  990.853  1034.88  989.038  1032.21  986.756  1027.71  982.25  1026.17  980.498  1023.75  977.636  1022.06  975.408  1020.11  972.683  1018.49  970.188  1016.77  967.147  1015.45  964.924  1013.19  960.386  1011.43  956.55  1010.67  954.678  1009.85  952.316  1009.51  951.043  1009.21  950.007  1008.7  946.02  1009.24  942.928  1009.92  941.513  1010.43  940.423  1013.7  936.043  1015.32  933.914  1020.13  928.916  1021.38  927.639  1028.54  922.505  1034.62  919.7  1036.74  918.879  1037.28  918.77  1038.31  918.607  1038.62  918.578  1039.68  918.596  " style="fill: none; stroke: red; stroke-width: 0.200000; fill-type: evenodd"  fill-opacity="1.000000" />
   <path d="M 998.722  1107.02  999.543  1107.84  999.843  1108.96  999.543  1110.09  998.722  1110.91  997.601  1111.21  996.48  1110.91  995.659  1110.09  995.359  1108.96  995.659  1107.84  996.48  1107.02  997.601  1106.72  998.722  1107.02  " style="fill: none; stroke: purple; stroke-width: 0.500000; fill-type: evenodd"  fill-opacity="1.000000" />
   <path d="M 1018.63  1087.19  1019.38  1087.94  1019.65  1088.96  1019.38  1089.99  1018.63  1090.74  1017.6  1091.01  1016.58  1090.74  1015.83  1089.99  1015.55  1088.96  1015.83  1087.94  1016.58  1087.19  1017.6  1086.92  1018.63  1087.19  " style="fill: none; stroke: purple; stroke-width: 0.500000; fill-type: evenodd"  fill-opacity="1.000000" />
   <path d="M 998.601  1087.23  999.333  1087.96  999.601  1088.96  999.333  1089.96  998.601  1090.7  997.601  1090.96  996.601  1090.7  995.869  1089.96  995.601  1088.96  995.869  1087.96  996.601  1087.23  997.601  1086.96  998.601  1087.23  " style="fill: none; stroke: purple; stroke-width: 0.500000; fill-type: evenodd"  fill-opacity="1.000000" />
   <path d="M 1039.54  1066.53  1040.4  1067.61  1040.71  1068.96  1040.4  1070.31  1039.54  1071.4  1038.29  1072  1036.91  1072  1035.66  1071.4  1034.8  1070.31  1034.49  1068.96  1034.8  1067.61  1035.66  1066.53  1036.91  1065.93  1038.29  1065.93  1039.54  1066.53  " style="fill: none; stroke: purple; stroke-width: 0.500000; fill-type: evenodd"  fill-opacity="1.000000" />
   <path d="M 1018.6  1067.23  1019.33  1067.96  1019.6  1068.96  1019.33  1069.96  1018.6  1070.7  1017.6  1070.96  1016.6  1070.7  1015.87  1069.96  1015.6  1068.96  1015.87  1067.96  1016.6  1067.23  1017.6  1066.96  1018.6  1067.23  " style="fill: none; stroke: purple; stroke-width: 0.500000; fill-type: evenodd"  fill-opacity="1.000000" />
   <path d="M 1059.54  1046.53  1060.4  1047.61  1060.71  1048.96  1060.4  1050.31  1059.54  1051.4  1058.29  1052  1056.91  1052  1055.66  1051.4  1054.8  1050.31  1054.49  1048.96  1054.8  1047.61  1055.66  1046.53  1056.91  1045.93  1058.29  1045.93  1059.54  1046.53  " style="fill: none; stroke: purple; stroke-width: 0.500000; fill-type: evenodd"  fill-opacity="1.000000" />
   <path d="M 1038.82  1046.86  1039.7  1047.75  1040.03  1048.96  1039.7  1050.18  1038.82  1051.07  1037.6  1051.39  1036.39  1051.07  1035.5  1050.18  1035.17  1048.96  1035.5  1047.75  1036.39  1046.86  1037.6  1046.54  1038.82  1046.86  " style="fill: none; stroke: purple; stroke-width: 0.500000; fill-type: evenodd"  fill-opacity="1.000000" />
   <path d="M 1018.6  1047.23  1019.33  1047.96  1019.6  1048.96  1019.33  1049.96  1018.6  1050.7  1017.6  1050.96  1016.6  1050.7  1015.87  1049.96  1015.6  1048.96  1015.87  1047.96  1016.6  1047.23  1017.6  1046.96  1018.6  1047.23  " style="fill: none; stroke: purple; stroke-width: 0.500000; fill-type: evenodd"  fill-opacity="1.000000" />
   <path d="M 1099.18  1026.68  1100.06  1027.67  1100.38  1028.96  1100.06  1030.26  1099.18  1031.25  1097.94  1031.73  1096.61  1031.57  1095.52  1030.81  1094.9  1029.63  1094.9  1028.3  1095.52  1027.12  1096.61  1026.36  1097.94  1026.2  1099.18  1026.68  " style="fill: none; stroke: purple; stroke-width: 0.500000; fill-type: evenodd"  fill-opacity="1.000000" />
   <path d="M 1058.6  1027.23  1059.33  1027.96  1059.6  1028.96  1059.33  1029.96  1058.6  1030.7  1057.6  1030.96  1056.6  1030.7  1055.87  1029.96  1055.6  1028.96  1055.87  1027.96  1056.6  1027.23  1057.6  1026.96  1058.6  1027.23  " style="fill: none; stroke: purple; stroke-width: 0.500000; fill-type: evenodd"  fill-opacity="1.000000" />
   <path d="M 1038.6  1027.23  1039.33  1027.96  1039.6  1028.96  1039.33  1029.96  1038.6  1030.7  1037.6  1030.96  1036.6  1030.7  1035.87  1029.96  1035.6  1028.96  1035.87  1027.96  1036.6  1027.23  1037.6  1026.96  1038.6  1027.23  " style="fill: none; stroke: purple; stroke-width: 0.500000; fill-type: evenodd"  fill-opacity="1.000000" />
   <path d="M 1078.6  1027.23  1079.33  1027.96  1079.6  1028.96  1079.33  1029.96  1078.6  1030.7  1077.6  1030.96  1076.6  1030.7  1075.87  1029.96  1075.6  1028.96  1075.87  1027.96  1076.6  1027.23  1077.6  1026.96  1078.6  1027.23  " style="fill: none; stroke: purple; stroke-width: 0.500000; fill-type: evenodd"  fill-opacity="1.000000" />
   <path d="M 898.356  1027.17  896.392  1030.49  895.869  1029.96  895.601  1028.96  895.869  1027.96  896.601  1027.23  897.601  1026.96  898.356  1027.17  " style="fill: none; stroke: purple; stroke-width: 0.500000; fill-type: evenodd"  fill-opacity="1.000000" />
   <path d="M 898.722  1007.02  899.543  1007.84  899.843  1008.96  899.543  1010.09  898.722  1010.91  897.601  1011.21  896.48  1010.91  895.659  1010.09  895.359  1008.96  895.659  1007.84  896.48  1007.02  897.601  1006.72  898.722  1007.02  " style="fill: none; stroke: purple; stroke-width: 0.500000; fill-type: evenodd"  fill-opacity="1.000000" />
   <path d="M 1098.6  1007.23  1099.33  1007.96  1099.6  1008.96  1099.33  1009.96  1098.6  1010.7  1097.6  1010.96  1096.6  1010.7  1095.87  1009.96  1095.6  1008.96  1095.87  1007.96  1096.6  1007.23  1097.6  1006.96  1098.6  1007.23  " style="fill: none; stroke: purple; stroke-width: 0.500000; fill-type: evenodd"  fill-opacity="1.000000" />
   <path d="M 915.851  1008.03  915.869  1007.96  916.601  1007.23  917.467  1007  915.851  1008.03  " style="fill: none; stroke: purple; stroke-width: 0.500000; fill-type: evenodd"  fill-opacity="1.000000" />
   <path d="M 958.601  1007.23  959.211  1007.84  957.483  1007  957.601  1006.96  958.601  1007.23  " style="fill: none; stroke: purple; stroke-width: 0.500000; fill-type: evenodd"  fill-opacity="1.000000" />
   <path d="M 939.276  986.538  940.212  987.594  940.55  988.965  940.212  990.335  939.276  991.392  937.956  991.892  936.555  991.722  935.393  990.92  934.737  989.671  934.737  988.259  935.393  987.009  936.555  986.207  937.956  986.037  939.276  986.538  " style="fill: none; stroke: purple; stroke-width: 0.500000; fill-type: evenodd"  fill-opacity="1.000000" />
   <path d="M 959.314  964.829  960.766  965.8  961.736  967.252  962.077  968.965  961.736  970.678  960.766  972.13  959.314  973.1  957.601  973.441  955.888  973.1  954.436  972.13  953.465  970.678  953.125  968.965  953.465  967.252  954.436  965.8  955.888  964.829  957.601  964.489  959.314  964.829  " style="fill: none; stroke: purple; stroke-width: 0.500000; fill-type: evenodd"  fill-opacity="1.000000" />
   <path d="M 979.181  946.676  980.064  947.672  980.382  948.965  980.064  950.258  979.181  951.254  977.936  951.726  976.615  951.566  975.519  950.809  974.9  949.63  974.9  948.299  975.519  947.12  976.615  946.364  977.936  946.203  979.181  946.676  " style="fill: none; stroke: purple; stroke-width: 0.500000; fill-type: evenodd"  fill-opacity="1.000000" />
   <path d="M 998.626  907.19  999.376  907.94  999.65  908.965  999.376  909.99  998.626  910.74  997.601  911.014  996.576  910.74  995.826  909.99  995.552  908.965  995.826  907.94  996.576  907.19  997.601  906.915  998.626  907.19  " style="fill: none; stroke: purple; stroke-width: 0.500000; fill-type: evenodd"  fill-opacity="1.000000" />
</svg>
