<?xml version="1.0" encoding="UTF-8" standalone="yes"?>
<!DOCTYPE svg PUBLIC "-//W3C//DTD SVG 1.0//EN" "http://www.w3.org/TR/2001/REC-SVG-20010904/DTD/svg10.dtd">
<svg height="2000" width="2000" xmlns="http://www.w3.org/2000/svg" xmlns:svg="http://www.w3.org/2000/svg" xmlns:xlink="http://www.w3.org/1999/xlink">
   <marker id="endArrow" markerHeight="8" markerUnits="strokeWidth" markerWidth="10" orient="auto" refX="1" refY="5" viewBox="0 0 1000 1000">
      <polyline fill="darkblue" points="0,0 10,5 0,10 1,5" />
   </marker>
   <circle cx="1000" cy="1000" r="1" style="stroke:black; fill: red" />
   <circle cx="1000" cy="1000" r="800" style="stroke:black; fill: none" />
   <line x1="1067.151978" y1="1047.349121" x2="1067.151978" y2="1047.433960" style="stroke: green; stroke-width: 0.200000"/>
   <line x1="1068.152100" y1="1046.349121" x2="1068.152100" y2="1047.433960" style="stroke: green; stroke-width: 0.200000"/>
   <line x1="1069.152100" y1="1045.349121" x2="1069.152100" y2="1047.433960" style="stroke: green; stroke-width: 0.200000"/>
   <line x1="1070.152100" y1="1044.349121" x2="1070.152100" y2="1047.433960" style="stroke: green; stroke-width: 0.200000"/>
   <line x1="1071.152100" y1="1043.349121" x2="1071.152100" y2="1047.433960" style="stroke: green; stroke-width: 0.200000"/>
   <line x1="1072.151978" y1="1042.349121" x2="1072.151978" y2="1047.433960" style="stroke: green; stroke-width: 0.200000"/>
   <line x1="1073.152100" y1="1041.349121" x2="1073.152100" y2="1047.433960" style="stroke: green; stroke-width: 0.200000"/>
   <line x1="1074.152100" y1="1040.349121" x2="1074.152100" y2="1047.433960" style="stroke: green; stroke-width: 0.200000"/>
   <line x1="1075.152100" y1="1039.461548" x2="1075.152100" y2="1047.433960" style="stroke: green; stroke-width: 0.200000"/>
   <line x1="1076.152100" y1="1040.461548" x2="1076.152100" y2="1047.433960" style="stroke: green; stroke-width: 0.200000"/>
   <line x1="1077.151978" y1="1041.461426" x2="1077.151978" y2="1047.433960" style="stroke: green; stroke-width: 0.200000"/>
   <line x1="1078.152100" y1="1042.461426" x2="1078.152100" y2="1047.433960" style="stroke: green; stroke-width: 0.200000"/>
   <line x1="1079.152100" y1="1041.570557" x2="1079.152100" y2="1047.433960" style="stroke: green; stroke-width: 0.200000"/>
   <line x1="1080.152100" y1="1040.570557" x2="1080.152100" y2="1047.433960" style="stroke: green; stroke-width: 0.200000"/>
   <line x1="1081.152100" y1="1039.570557" x2="1081.152100" y2="1047.433960" style="stroke: green; stroke-width: 0.200000"/>
   <line x1="1082.151978" y1="1038.570557" x2="1082.151978" y2="1047.433960" style="stroke: green; stroke-width: 0.200000"/>
   <line x1="1083.152100" y1="1037.570557" x2="1083.152100" y2="1047.433960" style="stroke: green; stroke-width: 0.200000"/>
   <line x1="1084.152100" y1="1036.570557" x2="1084.152100" y2="1047.433960" style="stroke: green; stroke-width: 0.200000"/>
   <line x1="1085.152100" y1="1035.570557" x2="1085.152100" y2="1047.433960" style="stroke: green; stroke-width: 0.200000"/>
   <line x1="1086.152100" y1="1034.570557" x2="1086.152100" y2="1047.433960" style="stroke: green; stroke-width: 0.200000"/>
   <line x1="1087.151978" y1="1033.570557" x2="1087.151978" y2="1047.433960" style="stroke: green; stroke-width: 0.200000"/>
   <line x1="1088.152100" y1="1032.570557" x2="1088.152100" y2="1047.433960" style="stroke: green; stroke-width: 0.200000"/>
   <line x1="1089.152100" y1="1031.570557" x2="1089.152100" y2="1047.433960" style="stroke: green; stroke-width: 0.200000"/>
   <line x1="1090.152100" y1="1030.570557" x2="1090.152100" y2="1047.433960" style="stroke: green; stroke-width: 0.200000"/>
   <line x1="1091.152100" y1="1029.570557" x2="1091.152100" y2="1047.433960" style="stroke: green; stroke-width: 0.200000"/>
   <line x1="1092.151978" y1="1028.570557" x2="1092.151978" y2="1047.433960" style="stroke: green; stroke-width: 0.200000"/>
   <line x1="1093.152100" y1="1027.570557" x2="1093.152100" y2="1047.433960" style="stroke: green; stroke-width: 0.200000"/>
   <line x1="1094.152100" y1="1026.570557" x2="1094.152100" y2="1047.433960" style="stroke: green; stroke-width: 0.200000"/>
   <line x1="1095.152100" y1="1025.570557" x2="1095.152100" y2="1047.433960" style="stroke: green; stroke-width: 0.200000"/>
   <line x1="1096.152100" y1="1024.570557" x2="1096.152100" y2="1047.433960" style="stroke: green; stroke-width: 0.200000"/>
   <line x1="1097.151978" y1="1023.570557" x2="1097.151978" y2="1047.433960" style="stroke: green; stroke-width: 0.200000"/>
   <line x1="1098.152100" y1="1022.570496" x2="1098.152100" y2="1047.433960" style="stroke: green; stroke-width: 0.200000"/>
   <line x1="1099.152100" y1="1021.570496" x2="1099.152100" y2="1047.433960" style="stroke: green; stroke-width: 0.200000"/>
   <line x1="1100.152100" y1="1020.570557" x2="1100.152100" y2="1047.433960" style="stroke: green; stroke-width: 0.200000"/>
   <line x1="1101.152100" y1="1019.570557" x2="1101.152100" y2="1047.433960" style="stroke: green; stroke-width: 0.200000"/>
   <line x1="1102.151978" y1="1018.570557" x2="1102.151978" y2="1047.433960" style="stroke: green; stroke-width: 0.200000"/>
   <line x1="1103.152100" y1="1017.570496" x2="1103.152100" y2="1047.433960" style="stroke: green; stroke-width: 0.200000"/>
   <line x1="1104.152100" y1="1016.570496" x2="1104.152100" y2="1047.433960" style="stroke: green; stroke-width: 0.200000"/>
   <line x1="1105.152100" y1="1015.570557" x2="1105.152100" y2="1047.087891" style="stroke: green; stroke-width: 0.200000"/>
   <line x1="1106.152100" y1="1014.570557" x2="1106.152100" y2="1046.426514" style="stroke: green; stroke-width: 0.200000"/>
   <line x1="1107.151978" y1="1013.570557" x2="1107.151978" y2="1045.613037" style="stroke: green; stroke-width: 0.200000"/>
   <line x1="1108.152100" y1="1012.570496" x2="1108.152100" y2="1044.726685" style="stroke: green; stroke-width: 0.200000"/>
   <line x1="1109.152100" y1="1011.570496" x2="1109.152100" y2="1043.793335" style="stroke: green; stroke-width: 0.200000"/>
   <line x1="1110.152100" y1="1010.570557" x2="1110.152100" y2="1042.830322" style="stroke: green; stroke-width: 0.200000"/>
   <line x1="1111.152100" y1="1009.570557" x2="1111.152100" y2="1041.850830" style="stroke: green; stroke-width: 0.200000"/>
   <line x1="1112.151978" y1="1008.570557" x2="1112.151978" y2="1040.785645" style="stroke: green; stroke-width: 0.200000"/>
   <line x1="1113.152100" y1="1007.570496" x2="1113.152100" y2="1039.720581" style="stroke: green; stroke-width: 0.200000"/>
   <line x1="1114.152100" y1="1006.570496" x2="1114.152100" y2="1038.655396" style="stroke: green; stroke-width: 0.200000"/>
   <line x1="1115.152100" y1="1005.570557" x2="1115.152100" y2="1037.590210" style="stroke: green; stroke-width: 0.200000"/>
   <line x1="1116.152100" y1="1004.570557" x2="1116.152100" y2="1036.525146" style="stroke: green; stroke-width: 0.200000"/>
   <line x1="1117.151978" y1="998.413757" x2="1117.151978" y2="1035.432373" style="stroke: green; stroke-width: 0.200000"/>
   <line x1="1118.152100" y1="999.920044" x2="1118.152100" y2="1034.278564" style="stroke: green; stroke-width: 0.200000"/>
   <line x1="1119.152100" y1="1001.426331" x2="1119.152100" y2="1033.124756" style="stroke: green; stroke-width: 0.200000"/>
   <line x1="1120.152100" y1="1002.932617" x2="1120.152100" y2="1031.809204" style="stroke: green; stroke-width: 0.200000"/>
   <line x1="1121.152100" y1="1004.614868" x2="1121.152100" y2="1030.367920" style="stroke: green; stroke-width: 0.200000"/>
   <line x1="1122.151978" y1="1006.558594" x2="1122.151978" y2="1028.552490" style="stroke: green; stroke-width: 0.200000"/>
   <line x1="1123.152100" y1="1008.976318" x2="1123.152100" y2="1026.411377" style="stroke: green; stroke-width: 0.200000"/>
   <line x1="1124.152100" y1="1012.673828" x2="1124.152100" y2="1022.758179" style="stroke: green; stroke-width: 0.200000"/>
   <line x1="1116.152100" y1="997.783569" x2="1116.152100" y2="1001.902344" style="stroke: green; stroke-width: 0.200000"/>
   <line x1="1115.152100" y1="998.783569" x2="1115.152100" y2="999.943237" style="stroke: green; stroke-width: 0.200000"/>
   <line x1="1024.152100" y1="1096.570557" x2="1024.152100" y2="1097.534058" style="stroke: green; stroke-width: 0.200000"/>
   <line x1="1025.152100" y1="1095.570557" x2="1025.152100" y2="1097.534058" style="stroke: green; stroke-width: 0.200000"/>
   <line x1="1026.152100" y1="1094.570557" x2="1026.152100" y2="1097.534058" style="stroke: green; stroke-width: 0.200000"/>
   <line x1="1027.151978" y1="1093.570557" x2="1027.151978" y2="1097.534058" style="stroke: green; stroke-width: 0.200000"/>
   <line x1="1028.152100" y1="1092.570557" x2="1028.152100" y2="1097.534058" style="stroke: green; stroke-width: 0.200000"/>
   <line x1="1029.152100" y1="1091.570557" x2="1029.152100" y2="1097.534058" style="stroke: green; stroke-width: 0.200000"/>
   <line x1="1030.152100" y1="1084.349121" x2="1030.152100" y2="1097.534058" style="stroke: green; stroke-width: 0.200000"/>
   <line x1="1031.152100" y1="1083.349121" x2="1031.152100" y2="1097.534058" style="stroke: green; stroke-width: 0.200000"/>
   <line x1="1032.151978" y1="1082.349121" x2="1032.151978" y2="1097.534058" style="stroke: green; stroke-width: 0.200000"/>
   <line x1="1033.152100" y1="1081.349121" x2="1033.152100" y2="1097.534058" style="stroke: green; stroke-width: 0.200000"/>
   <line x1="1034.152100" y1="1080.349121" x2="1034.152100" y2="1097.534058" style="stroke: green; stroke-width: 0.200000"/>
   <line x1="1035.152100" y1="1079.349121" x2="1035.152100" y2="1097.534058" style="stroke: green; stroke-width: 0.200000"/>
   <line x1="1036.152100" y1="1078.349121" x2="1036.152100" y2="1097.534058" style="stroke: green; stroke-width: 0.200000"/>
   <line x1="1037.151978" y1="1077.349121" x2="1037.151978" y2="1097.534058" style="stroke: green; stroke-width: 0.200000"/>
   <line x1="1038.152100" y1="1076.349121" x2="1038.152100" y2="1097.534058" style="stroke: green; stroke-width: 0.200000"/>
   <line x1="1039.152100" y1="1075.349121" x2="1039.152100" y2="1097.534058" style="stroke: green; stroke-width: 0.200000"/>
   <line x1="1040.152100" y1="1074.349121" x2="1040.152100" y2="1097.534058" style="stroke: green; stroke-width: 0.200000"/>
   <line x1="1041.152100" y1="1073.349121" x2="1041.152100" y2="1097.534058" style="stroke: green; stroke-width: 0.200000"/>
   <line x1="1042.151978" y1="1072.349121" x2="1042.151978" y2="1097.534058" style="stroke: green; stroke-width: 0.200000"/>
   <line x1="1043.152100" y1="1071.349121" x2="1043.152100" y2="1097.534058" style="stroke: green; stroke-width: 0.200000"/>
   <line x1="1044.152100" y1="1070.349121" x2="1044.152100" y2="1097.534058" style="stroke: green; stroke-width: 0.200000"/>
   <line x1="1045.152100" y1="1069.349121" x2="1045.152100" y2="1097.534058" style="stroke: green; stroke-width: 0.200000"/>
   <line x1="1046.152100" y1="1068.349121" x2="1046.152100" y2="1097.534058" style="stroke: green; stroke-width: 0.200000"/>
   <line x1="1047.151978" y1="1067.349121" x2="1047.151978" y2="1097.193726" style="stroke: green; stroke-width: 0.200000"/>
   <line x1="1048.152100" y1="1066.349121" x2="1048.152100" y2="1095.526978" style="stroke: green; stroke-width: 0.200000"/>
   <line x1="1049.152100" y1="1065.349121" x2="1049.152100" y2="1093.480469" style="stroke: green; stroke-width: 0.200000"/>
   <line x1="1050.152100" y1="1064.349121" x2="1050.152100" y2="1091.320312" style="stroke: green; stroke-width: 0.200000"/>
   <line x1="1029.152100" y1="1085.349121" x2="1029.152100" y2="1090.790771" style="stroke: green; stroke-width: 0.200000"/>
   <line x1="1028.152100" y1="1086.349121" x2="1028.152100" y2="1089.790771" style="stroke: green; stroke-width: 0.200000"/>
   <line x1="1051.152100" y1="1063.349121" x2="1051.152100" y2="1089.172729" style="stroke: green; stroke-width: 0.200000"/>
   <line x1="1027.151978" y1="1087.349121" x2="1027.151978" y2="1088.790771" style="stroke: green; stroke-width: 0.200000"/>
   <line x1="1052.151978" y1="1062.349121" x2="1052.151978" y2="1087.369629" style="stroke: green; stroke-width: 0.200000"/>
   <line x1="1053.152100" y1="1061.349121" x2="1053.152100" y2="1085.488525" style="stroke: green; stroke-width: 0.200000"/>
   <line x1="1054.152100" y1="1060.349121" x2="1054.152100" y2="1083.877197" style="stroke: green; stroke-width: 0.200000"/>
   <line x1="1055.152100" y1="1059.349121" x2="1055.152100" y2="1082.264282" style="stroke: green; stroke-width: 0.200000"/>
   <line x1="1056.152100" y1="1058.349121" x2="1056.152100" y2="1080.684814" style="stroke: green; stroke-width: 0.200000"/>
   <line x1="1057.151978" y1="1057.349121" x2="1057.151978" y2="1079.319092" style="stroke: green; stroke-width: 0.200000"/>
   <line x1="1058.152100" y1="1056.349121" x2="1058.152100" y2="1077.894043" style="stroke: green; stroke-width: 0.200000"/>
   <line x1="1059.152100" y1="1055.349121" x2="1059.152100" y2="1076.539917" style="stroke: green; stroke-width: 0.200000"/>
   <line x1="1060.152100" y1="1054.349121" x2="1060.152100" y2="1075.312378" style="stroke: green; stroke-width: 0.200000"/>
   <line x1="1061.152100" y1="1053.349121" x2="1061.152100" y2="1074.045776" style="stroke: green; stroke-width: 0.200000"/>
   <line x1="1062.151978" y1="1052.349121" x2="1062.151978" y2="1072.841797" style="stroke: green; stroke-width: 0.200000"/>
   <line x1="1063.152100" y1="1051.349121" x2="1063.152100" y2="1071.766602" style="stroke: green; stroke-width: 0.200000"/>
   <line x1="1064.152100" y1="1050.349121" x2="1064.152100" y2="1070.691162" style="stroke: green; stroke-width: 0.200000"/>
   <line x1="1065.152100" y1="1049.349121" x2="1065.152100" y2="1069.615967" style="stroke: green; stroke-width: 0.200000"/>
   <line x1="1066.152100" y1="1048.349121" x2="1066.152100" y2="1068.520386" style="stroke: green; stroke-width: 0.200000"/>
   <line x1="1067.151978" y1="1047.534058" x2="1067.151978" y2="1067.423950" style="stroke: green; stroke-width: 0.200000"/>
   <line x1="1068.152100" y1="1047.534058" x2="1068.152100" y2="1066.327393" style="stroke: green; stroke-width: 0.200000"/>
   <line x1="1069.152100" y1="1047.534058" x2="1069.152100" y2="1065.367554" style="stroke: green; stroke-width: 0.200000"/>
   <line x1="1070.152100" y1="1047.534058" x2="1070.152100" y2="1064.449585" style="stroke: green; stroke-width: 0.200000"/>
   <line x1="1071.152100" y1="1047.534058" x2="1071.152100" y2="1063.546753" style="stroke: green; stroke-width: 0.200000"/>
   <line x1="1072.151978" y1="1047.534058" x2="1072.151978" y2="1062.668091" style="stroke: green; stroke-width: 0.200000"/>
   <line x1="1073.152100" y1="1047.534058" x2="1073.152100" y2="1061.888306" style="stroke: green; stroke-width: 0.200000"/>
   <line x1="1074.152100" y1="1047.534058" x2="1074.152100" y2="1061.130493" style="stroke: green; stroke-width: 0.200000"/>
   <line x1="1075.152100" y1="1047.534058" x2="1075.152100" y2="1060.373657" style="stroke: green; stroke-width: 0.200000"/>
   <line x1="1076.152100" y1="1047.534058" x2="1076.152100" y2="1059.654785" style="stroke: green; stroke-width: 0.200000"/>
   <line x1="1077.151978" y1="1047.534058" x2="1077.151978" y2="1059.043457" style="stroke: green; stroke-width: 0.200000"/>
   <line x1="1078.152100" y1="1047.534058" x2="1078.152100" y2="1058.432007" style="stroke: green; stroke-width: 0.200000"/>
   <line x1="1079.152100" y1="1047.534058" x2="1079.152100" y2="1057.820557" style="stroke: green; stroke-width: 0.200000"/>
   <line x1="1080.152100" y1="1047.534058" x2="1080.152100" y2="1057.208984" style="stroke: green; stroke-width: 0.200000"/>
   <line x1="1081.152100" y1="1047.534058" x2="1081.152100" y2="1056.719360" style="stroke: green; stroke-width: 0.200000"/>
   <line x1="1082.151978" y1="1047.534058" x2="1082.151978" y2="1056.239502" style="stroke: green; stroke-width: 0.200000"/>
   <line x1="1083.152100" y1="1047.534058" x2="1083.152100" y2="1055.759521" style="stroke: green; stroke-width: 0.200000"/>
   <line x1="1084.152100" y1="1047.534058" x2="1084.152100" y2="1055.277832" style="stroke: green; stroke-width: 0.200000"/>
   <line x1="1085.152100" y1="1047.534058" x2="1085.152100" y2="1054.793823" style="stroke: green; stroke-width: 0.200000"/>
   <line x1="1086.152100" y1="1047.534058" x2="1086.152100" y2="1054.381958" style="stroke: green; stroke-width: 0.200000"/>
   <line x1="1087.151978" y1="1047.534058" x2="1087.151978" y2="1053.970215" style="stroke: green; stroke-width: 0.200000"/>
   <line x1="1088.152100" y1="1047.534058" x2="1088.152100" y2="1053.558472" style="stroke: green; stroke-width: 0.200000"/>
   <line x1="1089.152100" y1="1047.534058" x2="1089.152100" y2="1053.146729" style="stroke: green; stroke-width: 0.200000"/>
   <line x1="1090.152100" y1="1047.534058" x2="1090.152100" y2="1052.753662" style="stroke: green; stroke-width: 0.200000"/>
   <line x1="1091.152100" y1="1047.534058" x2="1091.152100" y2="1052.407227" style="stroke: green; stroke-width: 0.200000"/>
   <line x1="1092.151978" y1="1047.534058" x2="1092.151978" y2="1052.060669" style="stroke: green; stroke-width: 0.200000"/>
   <line x1="1093.152100" y1="1047.534058" x2="1093.152100" y2="1051.714111" style="stroke: green; stroke-width: 0.200000"/>
   <line x1="1094.152100" y1="1047.534058" x2="1094.152100" y2="1051.367554" style="stroke: green; stroke-width: 0.200000"/>
   <line x1="1095.152100" y1="1047.534058" x2="1095.152100" y2="1051.026367" style="stroke: green; stroke-width: 0.200000"/>
   <line x1="1096.152100" y1="1047.534058" x2="1096.152100" y2="1050.738647" style="stroke: green; stroke-width: 0.200000"/>
   <line x1="1097.151978" y1="1047.534058" x2="1097.151978" y2="1050.450928" style="stroke: green; stroke-width: 0.200000"/>
   <line x1="1098.152100" y1="1047.534058" x2="1098.152100" y2="1050.163208" style="stroke: green; stroke-width: 0.200000"/>
   <line x1="1099.152100" y1="1047.534058" x2="1099.152100" y2="1049.873169" style="stroke: green; stroke-width: 0.200000"/>
   <line x1="1100.152100" y1="1047.534058" x2="1100.152100" y2="1049.514526" style="stroke: green; stroke-width: 0.200000"/>
   <line x1="1101.152100" y1="1047.534058" x2="1101.152100" y2="1049.156006" style="stroke: green; stroke-width: 0.200000"/>
   <line x1="1102.151978" y1="1047.534058" x2="1102.151978" y2="1048.741333" style="stroke: green; stroke-width: 0.200000"/>
   <line x1="1103.152100" y1="1047.534058" x2="1103.152100" y2="1048.240845" style="stroke: green; stroke-width: 0.200000"/>
   <line x1="1104.152100" y1="1047.534058" x2="1104.152100" y2="1047.740234" style="stroke: green; stroke-width: 0.200000"/>
   <line x1="1021.152039" y1="1099.570557" x2="1021.152039" y2="1114.897705" style="stroke: green; stroke-width: 0.200000"/>
   <line x1="1022.152039" y1="1098.570557" x2="1022.152039" y2="1114.887573" style="stroke: green; stroke-width: 0.200000"/>
   <line x1="1023.152100" y1="1097.634033" x2="1023.152100" y2="1114.864990" style="stroke: green; stroke-width: 0.200000"/>
   <line x1="1020.152039" y1="1100.570557" x2="1020.152039" y2="1114.850464" style="stroke: green; stroke-width: 0.200000"/>
   <line x1="1019.152100" y1="1101.570557" x2="1019.152100" y2="1114.780396" style="stroke: green; stroke-width: 0.200000"/>
   <line x1="1024.152100" y1="1097.634033" x2="1024.152100" y2="1114.769653" style="stroke: green; stroke-width: 0.200000"/>
   <line x1="1018.152100" y1="1102.570557" x2="1018.152100" y2="1114.664429" style="stroke: green; stroke-width: 0.200000"/>
   <line x1="1025.152100" y1="1097.634033" x2="1025.152100" y2="1114.653809" style="stroke: green; stroke-width: 0.200000"/>
   <line x1="1017.152039" y1="1103.570557" x2="1017.152039" y2="1114.511841" style="stroke: green; stroke-width: 0.200000"/>
   <line x1="1026.152100" y1="1097.634033" x2="1026.152100" y2="1114.479248" style="stroke: green; stroke-width: 0.200000"/>
   <line x1="1016.152039" y1="1104.570557" x2="1016.152039" y2="1114.325684" style="stroke: green; stroke-width: 0.200000"/>
   <line x1="1027.151978" y1="1097.634033" x2="1027.151978" y2="1114.263550" style="stroke: green; stroke-width: 0.200000"/>
   <line x1="1015.152039" y1="1105.570557" x2="1015.152039" y2="1114.084595" style="stroke: green; stroke-width: 0.200000"/>
   <line x1="1028.152100" y1="1097.634033" x2="1028.152100" y2="1114.015137" style="stroke: green; stroke-width: 0.200000"/>
   <line x1="1014.152100" y1="1106.570557" x2="1014.152100" y2="1113.823242" style="stroke: green; stroke-width: 0.200000"/>
   <line x1="1029.152100" y1="1097.634033" x2="1029.152100" y2="1113.697754" style="stroke: green; stroke-width: 0.200000"/>
   <line x1="1013.152100" y1="1107.570557" x2="1013.152100" y2="1113.486816" style="stroke: green; stroke-width: 0.200000"/>
   <line x1="1030.152100" y1="1097.634033" x2="1030.152100" y2="1113.349121" style="stroke: green; stroke-width: 0.200000"/>
   <line x1="1012.152039" y1="1108.570557" x2="1012.152039" y2="1113.135620" style="stroke: green; stroke-width: 0.200000"/>
   <line x1="1031.152100" y1="1097.634033" x2="1031.152100" y2="1112.940552" style="stroke: green; stroke-width: 0.200000"/>
   <line x1="1011.152039" y1="1108.452881" x2="1011.152039" y2="1112.755859" style="stroke: green; stroke-width: 0.200000"/>
   <line x1="1032.151978" y1="1097.634033" x2="1032.151978" y2="1112.466797" style="stroke: green; stroke-width: 0.200000"/>
   <line x1="1010.152039" y1="1108.310547" x2="1010.152039" y2="1112.376221" style="stroke: green; stroke-width: 0.200000"/>
   <line x1="1009.152100" y1="1108.168213" x2="1009.152100" y2="1111.996582" style="stroke: green; stroke-width: 0.200000"/>
   <line x1="1033.152100" y1="1097.634033" x2="1033.152100" y2="1111.943237" style="stroke: green; stroke-width: 0.200000"/>
   <line x1="1008.152100" y1="1108.026001" x2="1008.152100" y2="1111.616943" style="stroke: green; stroke-width: 0.200000"/>
   <line x1="1034.152100" y1="1097.634033" x2="1034.152100" y2="1111.345459" style="stroke: green; stroke-width: 0.200000"/>
   <line x1="1007.152039" y1="1107.883545" x2="1007.152039" y2="1111.237183" style="stroke: green; stroke-width: 0.200000"/>
   <line x1="1006.152039" y1="1107.783569" x2="1006.152039" y2="1110.857544" style="stroke: green; stroke-width: 0.200000"/>
   <line x1="1035.152100" y1="1097.634033" x2="1035.152100" y2="1110.651001" style="stroke: green; stroke-width: 0.200000"/>
   <line x1="1005.152039" y1="1108.783569" x2="1005.152039" y2="1110.477783" style="stroke: green; stroke-width: 0.200000"/>
   <line x1="1004.152100" y1="1109.783447" x2="1004.152100" y2="1110.098145" style="stroke: green; stroke-width: 0.200000"/>
   <line x1="1036.152100" y1="1097.634033" x2="1036.152100" y2="1109.867554" style="stroke: green; stroke-width: 0.200000"/>
   <line x1="1037.151978" y1="1097.634033" x2="1037.151978" y2="1108.976807" style="stroke: green; stroke-width: 0.200000"/>
   <line x1="1038.152100" y1="1097.634033" x2="1038.152100" y2="1107.959473" style="stroke: green; stroke-width: 0.200000"/>
   <line x1="1039.152100" y1="1097.634033" x2="1039.152100" y2="1106.868896" style="stroke: green; stroke-width: 0.200000"/>
   <line x1="1040.152100" y1="1097.634033" x2="1040.152100" y2="1105.776245" style="stroke: green; stroke-width: 0.200000"/>
   <line x1="1041.152100" y1="1097.634033" x2="1041.152100" y2="1104.668213" style="stroke: green; stroke-width: 0.200000"/>
   <line x1="1042.151978" y1="1097.634033" x2="1042.151978" y2="1103.560303" style="stroke: green; stroke-width: 0.200000"/>
   <line x1="1043.152100" y1="1097.634033" x2="1043.152100" y2="1102.456299" style="stroke: green; stroke-width: 0.200000"/>
   <line x1="1044.152100" y1="1097.634033" x2="1044.152100" y2="1101.356689" style="stroke: green; stroke-width: 0.200000"/>
   <line x1="1045.152100" y1="1097.634033" x2="1045.152100" y2="1100.115967" style="stroke: green; stroke-width: 0.200000"/>
   <line x1="1046.152100" y1="1097.634033" x2="1046.152100" y2="1098.755371" style="stroke: green; stroke-width: 0.200000"/>
   <line x1="972.279358" y1="934.562988" x2="972.279358" y2="935.197632" style="stroke: green; stroke-width: 0.200000"/>
   <line x1="974.279297" y1="927.869629" x2="974.279297" y2="935.197632" style="stroke: green; stroke-width: 0.200000"/>
   <line x1="975.279419" y1="923.799072" x2="975.279419" y2="935.197632" style="stroke: green; stroke-width: 0.200000"/>
   <line x1="976.279358" y1="919.449951" x2="976.279358" y2="935.197632" style="stroke: green; stroke-width: 0.200000"/>
   <line x1="977.279358" y1="916.459290" x2="977.279358" y2="935.197632" style="stroke: green; stroke-width: 0.200000"/>
   <line x1="978.279358" y1="914.376892" x2="978.279358" y2="935.197632" style="stroke: green; stroke-width: 0.200000"/>
   <line x1="979.279297" y1="912.703796" x2="979.279297" y2="935.197632" style="stroke: green; stroke-width: 0.200000"/>
   <line x1="980.279419" y1="911.418457" x2="980.279419" y2="935.197632" style="stroke: green; stroke-width: 0.200000"/>
   <line x1="981.279358" y1="910.255798" x2="981.279358" y2="935.197632" style="stroke: green; stroke-width: 0.200000"/>
   <line x1="982.279358" y1="909.244995" x2="982.279358" y2="935.197632" style="stroke: green; stroke-width: 0.200000"/>
   <line x1="983.279358" y1="908.202454" x2="983.279358" y2="935.197632" style="stroke: green; stroke-width: 0.200000"/>
   <line x1="984.279297" y1="907.142822" x2="984.279297" y2="935.197632" style="stroke: green; stroke-width: 0.200000"/>
   <line x1="985.279419" y1="906.083130" x2="985.279419" y2="934.927246" style="stroke: green; stroke-width: 0.200000"/>
   <line x1="986.279358" y1="905.023560" x2="986.279358" y2="933.927124" style="stroke: green; stroke-width: 0.200000"/>
   <line x1="987.279358" y1="904.004883" x2="987.279358" y2="932.927124" style="stroke: green; stroke-width: 0.200000"/>
   <line x1="988.279358" y1="903.060303" x2="988.279358" y2="931.927124" style="stroke: green; stroke-width: 0.200000"/>
   <line x1="989.279297" y1="902.115723" x2="989.279297" y2="930.927124" style="stroke: green; stroke-width: 0.200000"/>
   <line x1="990.279419" y1="901.171021" x2="990.279419" y2="929.927124" style="stroke: green; stroke-width: 0.200000"/>
   <line x1="991.279358" y1="900.226440" x2="991.279358" y2="928.927063" style="stroke: green; stroke-width: 0.200000"/>
   <line x1="992.279358" y1="899.281860" x2="992.279358" y2="927.927124" style="stroke: green; stroke-width: 0.200000"/>
   <line x1="993.279358" y1="898.337158" x2="993.279358" y2="926.927124" style="stroke: green; stroke-width: 0.200000"/>
   <line x1="994.279297" y1="897.467773" x2="994.279297" y2="925.927124" style="stroke: green; stroke-width: 0.200000"/>
   <line x1="995.279419" y1="896.616516" x2="995.279419" y2="924.927124" style="stroke: green; stroke-width: 0.200000"/>
   <line x1="996.279358" y1="895.765137" x2="996.279358" y2="923.927063" style="stroke: green; stroke-width: 0.200000"/>
   <line x1="997.279358" y1="894.938049" x2="997.279358" y2="922.927124" style="stroke: green; stroke-width: 0.200000"/>
   <line x1="998.279358" y1="894.150879" x2="998.279358" y2="921.927124" style="stroke: green; stroke-width: 0.200000"/>
   <line x1="999.279297" y1="893.363708" x2="999.279297" y2="920.927124" style="stroke: green; stroke-width: 0.200000"/>
   <line x1="1000.279419" y1="892.576538" x2="1000.279419" y2="919.927124" style="stroke: green; stroke-width: 0.200000"/>
   <line x1="1001.279358" y1="891.841187" x2="1001.279358" y2="918.927063" style="stroke: green; stroke-width: 0.200000"/>
   <line x1="1002.279358" y1="891.117188" x2="1002.279358" y2="917.927124" style="stroke: green; stroke-width: 0.200000"/>
   <line x1="1003.279358" y1="890.393188" x2="1003.279358" y2="916.927124" style="stroke: green; stroke-width: 0.200000"/>
   <line x1="1004.279297" y1="889.673462" x2="1004.279297" y2="915.927124" style="stroke: green; stroke-width: 0.200000"/>
   <line x1="1005.279419" y1="888.984131" x2="1005.279419" y2="914.927063" style="stroke: green; stroke-width: 0.200000"/>
   <line x1="1006.279358" y1="888.294739" x2="1006.279358" y2="913.927063" style="stroke: green; stroke-width: 0.200000"/>
   <line x1="1007.279358" y1="887.606140" x2="1007.279358" y2="912.927124" style="stroke: green; stroke-width: 0.200000"/>
   <line x1="1008.279358" y1="887.031250" x2="1008.279358" y2="911.927124" style="stroke: green; stroke-width: 0.200000"/>
   <line x1="1009.279297" y1="886.549561" x2="1009.279297" y2="910.927124" style="stroke: green; stroke-width: 0.200000"/>
   <line x1="1010.279419" y1="886.145874" x2="1010.279419" y2="909.927063" style="stroke: green; stroke-width: 0.200000"/>
   <line x1="1011.279358" y1="885.816101" x2="1011.279358" y2="908.927063" style="stroke: green; stroke-width: 0.200000"/>
   <line x1="1012.279358" y1="885.553955" x2="1012.279358" y2="907.927124" style="stroke: green; stroke-width: 0.200000"/>
   <line x1="1013.279358" y1="885.366089" x2="1013.279358" y2="906.927124" style="stroke: green; stroke-width: 0.200000"/>
   <line x1="1014.279297" y1="885.256653" x2="1014.279297" y2="905.927124" style="stroke: green; stroke-width: 0.200000"/>
   <line x1="1015.279419" y1="885.205750" x2="1015.279419" y2="904.927063" style="stroke: green; stroke-width: 0.200000"/>
   <line x1="1016.279358" y1="885.213989" x2="1016.279358" y2="903.927063" style="stroke: green; stroke-width: 0.200000"/>
   <line x1="1017.279358" y1="885.290588" x2="1017.279358" y2="902.927124" style="stroke: green; stroke-width: 0.200000"/>
   <line x1="1018.279358" y1="885.443970" x2="1018.279358" y2="901.927124" style="stroke: green; stroke-width: 0.200000"/>
   <line x1="1019.279297" y1="885.658936" x2="1019.279297" y2="900.927124" style="stroke: green; stroke-width: 0.200000"/>
   <line x1="1020.279419" y1="885.938965" x2="1020.279419" y2="899.927063" style="stroke: green; stroke-width: 0.200000"/>
   <line x1="1021.279358" y1="886.293457" x2="1021.279358" y2="898.927063" style="stroke: green; stroke-width: 0.200000"/>
   <line x1="1022.279358" y1="886.745483" x2="1022.279358" y2="897.927124" style="stroke: green; stroke-width: 0.200000"/>
   <line x1="1023.279358" y1="887.282837" x2="1023.279358" y2="896.927124" style="stroke: green; stroke-width: 0.200000"/>
   <line x1="1024.279297" y1="887.918396" x2="1024.279297" y2="895.927063" style="stroke: green; stroke-width: 0.200000"/>
   <line x1="1025.279419" y1="888.669800" x2="1025.279419" y2="894.927063" style="stroke: green; stroke-width: 0.200000"/>
   <line x1="1029.279297" y1="892.773926" x2="1029.279297" y2="894.491699" style="stroke: green; stroke-width: 0.200000"/>
   <line x1="1028.279297" y1="891.682861" x2="1028.279297" y2="894.464172" style="stroke: green; stroke-width: 0.200000"/>
   <line x1="1026.279419" y1="889.560913" x2="1026.279419" y2="893.927063" style="stroke: green; stroke-width: 0.200000"/>
   <line x1="1027.279297" y1="890.591797" x2="1027.279297" y2="893.464050" style="stroke: green; stroke-width: 0.200000"/>
   <line x1="919.279297" y1="985.145996" x2="919.279297" y2="985.297546" style="stroke: green; stroke-width: 0.200000"/>
   <line x1="920.279419" y1="984.890381" x2="920.279419" y2="985.297546" style="stroke: green; stroke-width: 0.200000"/>
   <line x1="921.279358" y1="984.633179" x2="921.279358" y2="985.297546" style="stroke: green; stroke-width: 0.200000"/>
   <line x1="922.279358" y1="984.307251" x2="922.279358" y2="985.297546" style="stroke: green; stroke-width: 0.200000"/>
   <line x1="923.279358" y1="983.981628" x2="923.279358" y2="985.297546" style="stroke: green; stroke-width: 0.200000"/>
   <line x1="924.279297" y1="983.629272" x2="924.279297" y2="985.297546" style="stroke: green; stroke-width: 0.200000"/>
   <line x1="925.279419" y1="983.121826" x2="925.279419" y2="985.297546" style="stroke: green; stroke-width: 0.200000"/>
   <line x1="926.279358" y1="982.395752" x2="926.279358" y2="985.297546" style="stroke: green; stroke-width: 0.200000"/>
   <line x1="927.279358" y1="981.490784" x2="927.279358" y2="985.297546" style="stroke: green; stroke-width: 0.200000"/>
   <line x1="928.279358" y1="980.607605" x2="928.279358" y2="985.297546" style="stroke: green; stroke-width: 0.200000"/>
   <line x1="929.279297" y1="979.794434" x2="929.279297" y2="985.297546" style="stroke: green; stroke-width: 0.200000"/>
   <line x1="930.279419" y1="979.068726" x2="930.279419" y2="985.297546" style="stroke: green; stroke-width: 0.200000"/>
   <line x1="931.279358" y1="978.383728" x2="931.279358" y2="985.297546" style="stroke: green; stroke-width: 0.200000"/>
   <line x1="932.279358" y1="977.763733" x2="932.279358" y2="985.297546" style="stroke: green; stroke-width: 0.200000"/>
   <line x1="933.279358" y1="977.143860" x2="933.279358" y2="985.297546" style="stroke: green; stroke-width: 0.200000"/>
   <line x1="934.279297" y1="976.502136" x2="934.279297" y2="985.297546" style="stroke: green; stroke-width: 0.200000"/>
   <line x1="935.279419" y1="975.944153" x2="935.279419" y2="985.297546" style="stroke: green; stroke-width: 0.200000"/>
   <line x1="936.279358" y1="975.386841" x2="936.279358" y2="985.297546" style="stroke: green; stroke-width: 0.200000"/>
   <line x1="937.279358" y1="974.803345" x2="937.279358" y2="985.297546" style="stroke: green; stroke-width: 0.200000"/>
   <line x1="938.279358" y1="974.218689" x2="938.279358" y2="985.297546" style="stroke: green; stroke-width: 0.200000"/>
   <line x1="939.279297" y1="973.629150" x2="939.279297" y2="985.297546" style="stroke: green; stroke-width: 0.200000"/>
   <line x1="940.279419" y1="973.025757" x2="940.279419" y2="985.297546" style="stroke: green; stroke-width: 0.200000"/>
   <line x1="941.279358" y1="972.422424" x2="941.279358" y2="985.297546" style="stroke: green; stroke-width: 0.200000"/>
   <line x1="942.279358" y1="971.746216" x2="942.279358" y2="985.297546" style="stroke: green; stroke-width: 0.200000"/>
   <line x1="943.279358" y1="971.062561" x2="943.279358" y2="985.297546" style="stroke: green; stroke-width: 0.200000"/>
   <line x1="944.279297" y1="970.379089" x2="944.279297" y2="985.297546" style="stroke: green; stroke-width: 0.200000"/>
   <line x1="945.279419" y1="969.630615" x2="945.279419" y2="985.297546" style="stroke: green; stroke-width: 0.200000"/>
   <line x1="946.279358" y1="968.825317" x2="946.279358" y2="985.297546" style="stroke: green; stroke-width: 0.200000"/>
   <line x1="947.279358" y1="968.020081" x2="947.279358" y2="985.297546" style="stroke: green; stroke-width: 0.200000"/>
   <line x1="948.279358" y1="967.174927" x2="948.279358" y2="985.297546" style="stroke: green; stroke-width: 0.200000"/>
   <line x1="949.279297" y1="966.263489" x2="949.279297" y2="984.395996" style="stroke: green; stroke-width: 0.200000"/>
   <line x1="950.279419" y1="965.343750" x2="950.279419" y2="983.408325" style="stroke: green; stroke-width: 0.200000"/>
   <line x1="951.279358" y1="964.375610" x2="951.279358" y2="982.420593" style="stroke: green; stroke-width: 0.200000"/>
   <line x1="952.279358" y1="963.342896" x2="952.279358" y2="981.432800" style="stroke: green; stroke-width: 0.200000"/>
   <line x1="953.279358" y1="962.310181" x2="953.279358" y2="980.445007" style="stroke: green; stroke-width: 0.200000"/>
   <line x1="954.279297" y1="961.195068" x2="954.279297" y2="979.457275" style="stroke: green; stroke-width: 0.200000"/>
   <line x1="955.279419" y1="960.022583" x2="955.279419" y2="978.469482" style="stroke: green; stroke-width: 0.200000"/>
   <line x1="956.279358" y1="958.850159" x2="956.279358" y2="977.481628" style="stroke: green; stroke-width: 0.200000"/>
   <line x1="957.279358" y1="957.507812" x2="957.279358" y2="976.493835" style="stroke: green; stroke-width: 0.200000"/>
   <line x1="958.279358" y1="956.157227" x2="958.279358" y2="975.506042" style="stroke: green; stroke-width: 0.200000"/>
   <line x1="959.279297" y1="954.690491" x2="959.279297" y2="974.518311" style="stroke: green; stroke-width: 0.200000"/>
   <line x1="960.279419" y1="953.124451" x2="960.279419" y2="973.530518" style="stroke: green; stroke-width: 0.200000"/>
   <line x1="961.279358" y1="951.549744" x2="961.279358" y2="972.534180" style="stroke: green; stroke-width: 0.200000"/>
   <line x1="962.279358" y1="949.864197" x2="962.279358" y2="971.530273" style="stroke: green; stroke-width: 0.200000"/>
   <line x1="963.279358" y1="948.225708" x2="963.279358" y2="970.526367" style="stroke: green; stroke-width: 0.200000"/>
   <line x1="964.279297" y1="946.637634" x2="964.279297" y2="969.522400" style="stroke: green; stroke-width: 0.200000"/>
   <line x1="965.279419" y1="945.130249" x2="965.279419" y2="968.518555" style="stroke: green; stroke-width: 0.200000"/>
   <line x1="966.279358" y1="943.788208" x2="966.279358" y2="967.514587" style="stroke: green; stroke-width: 0.200000"/>
   <line x1="967.279358" y1="942.590088" x2="967.279358" y2="966.519897" style="stroke: green; stroke-width: 0.200000"/>
   <line x1="968.279358" y1="941.520996" x2="968.279358" y2="965.527283" style="stroke: green; stroke-width: 0.200000"/>
   <line x1="969.279297" y1="940.527954" x2="969.279297" y2="964.534546" style="stroke: green; stroke-width: 0.200000"/>
   <line x1="970.279419" y1="939.404663" x2="970.279419" y2="963.541870" style="stroke: green; stroke-width: 0.200000"/>
   <line x1="971.279358" y1="937.459839" x2="971.279358" y2="962.549194" style="stroke: green; stroke-width: 0.200000"/>
   <line x1="972.279358" y1="935.297546" x2="972.279358" y2="961.556519" style="stroke: green; stroke-width: 0.200000"/>
   <line x1="974.279297" y1="935.297546" x2="974.279297" y2="959.548340" style="stroke: green; stroke-width: 0.200000"/>
   <line x1="975.279419" y1="935.297546" x2="975.279419" y2="958.540771" style="stroke: green; stroke-width: 0.200000"/>
   <line x1="976.279358" y1="935.297546" x2="976.279358" y2="957.533203" style="stroke: green; stroke-width: 0.200000"/>
   <line x1="977.279358" y1="935.297546" x2="977.279358" y2="956.525757" style="stroke: green; stroke-width: 0.200000"/>
   <line x1="978.279358" y1="942.588623" x2="978.279358" y2="955.518250" style="stroke: green; stroke-width: 0.200000"/>
   <line x1="979.279297" y1="945.347229" x2="979.279297" y2="954.510803" style="stroke: green; stroke-width: 0.200000"/>
   <line x1="980.279419" y1="946.427551" x2="980.279419" y2="953.503418" style="stroke: green; stroke-width: 0.200000"/>
   <line x1="981.279358" y1="947.507874" x2="981.279358" y2="952.495972" style="stroke: green; stroke-width: 0.200000"/>
   <line x1="982.279358" y1="948.588196" x2="982.279358" y2="951.488403" style="stroke: green; stroke-width: 0.200000"/>
   <line x1="979.279297" y1="943.588745" x2="979.279297" y2="944.491943" style="stroke: green; stroke-width: 0.200000"/>
   <line x1="978.279358" y1="935.297546" x2="978.279358" y2="941.927429" style="stroke: green; stroke-width: 0.200000"/>
   <line x1="979.279297" y1="935.297546" x2="979.279297" y2="940.927368" style="stroke: green; stroke-width: 0.200000"/>
   <line x1="980.279419" y1="935.297546" x2="980.279419" y2="939.927368" style="stroke: green; stroke-width: 0.200000"/>
   <line x1="981.279358" y1="935.297546" x2="981.279358" y2="938.927246" style="stroke: green; stroke-width: 0.200000"/>
   <line x1="982.279358" y1="935.297546" x2="982.279358" y2="937.927246" style="stroke: green; stroke-width: 0.200000"/>
   <line x1="983.279358" y1="935.297546" x2="983.279358" y2="936.927246" style="stroke: green; stroke-width: 0.200000"/>
   <line x1="984.279297" y1="935.297546" x2="984.279297" y2="935.927185" style="stroke: green; stroke-width: 0.200000"/>
   <line x1="876.279358" y1="1019.486450" x2="876.279358" y2="1035.397583" style="stroke: green; stroke-width: 0.200000"/>
   <line x1="877.279358" y1="1017.746887" x2="877.279358" y2="1035.397583" style="stroke: green; stroke-width: 0.200000"/>
   <line x1="878.279358" y1="1016.053589" x2="878.279358" y2="1035.397583" style="stroke: green; stroke-width: 0.200000"/>
   <line x1="879.279297" y1="1014.420044" x2="879.279297" y2="1035.397583" style="stroke: green; stroke-width: 0.200000"/>
   <line x1="880.279419" y1="1012.983948" x2="880.279419" y2="1035.397583" style="stroke: green; stroke-width: 0.200000"/>
   <line x1="881.279358" y1="1011.547913" x2="881.279358" y2="1035.397583" style="stroke: green; stroke-width: 0.200000"/>
   <line x1="882.279358" y1="1010.170166" x2="882.279358" y2="1035.397583" style="stroke: green; stroke-width: 0.200000"/>
   <line x1="883.279358" y1="1008.918579" x2="883.279358" y2="1035.397583" style="stroke: green; stroke-width: 0.200000"/>
   <line x1="884.279297" y1="1007.667114" x2="884.279297" y2="1035.397583" style="stroke: green; stroke-width: 0.200000"/>
   <line x1="875.279419" y1="1021.521606" x2="875.279419" y2="1035.029053" style="stroke: green; stroke-width: 0.200000"/>
   <line x1="885.279419" y1="1006.435486" x2="885.279419" y2="1034.927002" style="stroke: green; stroke-width: 0.200000"/>
   <line x1="886.279358" y1="1005.314636" x2="886.279358" y2="1033.927124" style="stroke: green; stroke-width: 0.200000"/>
   <line x1="874.279297" y1="1023.420410" x2="874.279297" y2="1033.282227" style="stroke: green; stroke-width: 0.200000"/>
   <line x1="887.279358" y1="1004.193787" x2="887.279358" y2="1032.927124" style="stroke: green; stroke-width: 0.200000"/>
   <line x1="888.279358" y1="1003.072998" x2="888.279358" y2="1031.927124" style="stroke: green; stroke-width: 0.200000"/>
   <line x1="889.279297" y1="1002.023682" x2="889.279297" y2="1030.927124" style="stroke: green; stroke-width: 0.200000"/>
   <line x1="890.279419" y1="1000.994141" x2="890.279419" y2="1029.927002" style="stroke: green; stroke-width: 0.200000"/>
   <line x1="873.279358" y1="1026.760620" x2="873.279358" y2="1029.844238" style="stroke: green; stroke-width: 0.200000"/>
   <line x1="891.279358" y1="999.964478" x2="891.279358" y2="1028.927124" style="stroke: green; stroke-width: 0.200000"/>
   <line x1="892.279358" y1="998.953186" x2="892.279358" y2="1027.927124" style="stroke: green; stroke-width: 0.200000"/>
   <line x1="893.279358" y1="997.994629" x2="893.279358" y2="1026.927124" style="stroke: green; stroke-width: 0.200000"/>
   <line x1="894.279297" y1="997.036133" x2="894.279297" y2="1025.927124" style="stroke: green; stroke-width: 0.200000"/>
   <line x1="895.279419" y1="996.077576" x2="895.279419" y2="1024.927002" style="stroke: green; stroke-width: 0.200000"/>
   <line x1="896.279358" y1="995.119080" x2="896.279358" y2="1023.927063" style="stroke: green; stroke-width: 0.200000"/>
   <line x1="897.279358" y1="994.160522" x2="897.279358" y2="1022.927124" style="stroke: green; stroke-width: 0.200000"/>
   <line x1="898.279358" y1="993.213806" x2="898.279358" y2="1021.927124" style="stroke: green; stroke-width: 0.200000"/>
   <line x1="899.279297" y1="992.309875" x2="899.279297" y2="1020.927124" style="stroke: green; stroke-width: 0.200000"/>
   <line x1="900.279419" y1="991.527771" x2="900.279419" y2="1019.927063" style="stroke: green; stroke-width: 0.200000"/>
   <line x1="901.279358" y1="990.741028" x2="901.279358" y2="1018.927063" style="stroke: green; stroke-width: 0.200000"/>
   <line x1="902.279358" y1="990.144592" x2="902.279358" y2="1017.927124" style="stroke: green; stroke-width: 0.200000"/>
   <line x1="903.279358" y1="989.548218" x2="903.279358" y2="1016.927124" style="stroke: green; stroke-width: 0.200000"/>
   <line x1="904.279297" y1="989.084717" x2="904.279297" y2="1015.927124" style="stroke: green; stroke-width: 0.200000"/>
   <line x1="905.279419" y1="988.656006" x2="905.279419" y2="1014.927063" style="stroke: green; stroke-width: 0.200000"/>
   <line x1="906.279358" y1="988.271362" x2="906.279358" y2="1013.927063" style="stroke: green; stroke-width: 0.200000"/>
   <line x1="907.279358" y1="987.995117" x2="907.279358" y2="1012.927124" style="stroke: green; stroke-width: 0.200000"/>
   <line x1="908.279358" y1="987.745728" x2="908.279358" y2="1011.927124" style="stroke: green; stroke-width: 0.200000"/>
   <line x1="909.279297" y1="987.513794" x2="909.279297" y2="1010.927124" style="stroke: green; stroke-width: 0.200000"/>
   <line x1="910.279419" y1="987.291870" x2="910.279419" y2="1009.927063" style="stroke: green; stroke-width: 0.200000"/>
   <line x1="911.279358" y1="987.070007" x2="911.279358" y2="1008.927063" style="stroke: green; stroke-width: 0.200000"/>
   <line x1="912.279358" y1="986.848145" x2="912.279358" y2="1007.927124" style="stroke: green; stroke-width: 0.200000"/>
   <line x1="913.279358" y1="986.626282" x2="913.279358" y2="1006.927124" style="stroke: green; stroke-width: 0.200000"/>
   <line x1="914.279297" y1="986.404419" x2="914.279297" y2="1005.927124" style="stroke: green; stroke-width: 0.200000"/>
   <line x1="915.279419" y1="986.168884" x2="915.279419" y2="1004.927124" style="stroke: green; stroke-width: 0.200000"/>
   <line x1="916.279358" y1="985.913147" x2="916.279358" y2="1003.927063" style="stroke: green; stroke-width: 0.200000"/>
   <line x1="917.279358" y1="985.657471" x2="917.279358" y2="1002.927124" style="stroke: green; stroke-width: 0.200000"/>
   <line x1="918.279358" y1="985.401733" x2="918.279358" y2="1001.927124" style="stroke: green; stroke-width: 0.200000"/>
   <line x1="919.279297" y1="985.397583" x2="919.279297" y2="1000.927124" style="stroke: green; stroke-width: 0.200000"/>
   <line x1="920.279419" y1="985.397583" x2="920.279419" y2="999.927124" style="stroke: green; stroke-width: 0.200000"/>
   <line x1="921.279358" y1="985.397583" x2="921.279358" y2="998.927246" style="stroke: green; stroke-width: 0.200000"/>
   <line x1="922.279358" y1="985.397583" x2="922.279358" y2="997.927246" style="stroke: green; stroke-width: 0.200000"/>
   <line x1="923.279358" y1="985.397583" x2="923.279358" y2="996.927246" style="stroke: green; stroke-width: 0.200000"/>
   <line x1="924.279297" y1="985.397583" x2="924.279297" y2="995.927246" style="stroke: green; stroke-width: 0.200000"/>
   <line x1="938.279358" y1="985.397583" x2="938.279358" y2="995.294495" style="stroke: green; stroke-width: 0.200000"/>
   <line x1="937.279358" y1="985.397583" x2="937.279358" y2="995.291870" style="stroke: green; stroke-width: 0.200000"/>
   <line x1="925.279419" y1="985.397583" x2="925.279419" y2="994.927368" style="stroke: green; stroke-width: 0.200000"/>
   <line x1="936.279358" y1="985.397583" x2="936.279358" y2="994.466064" style="stroke: green; stroke-width: 0.200000"/>
   <line x1="939.279297" y1="985.397583" x2="939.279297" y2="994.346924" style="stroke: green; stroke-width: 0.200000"/>
   <line x1="926.279358" y1="985.397583" x2="926.279358" y2="993.927368" style="stroke: green; stroke-width: 0.200000"/>
   <line x1="935.279419" y1="985.397583" x2="935.279419" y2="993.540100" style="stroke: green; stroke-width: 0.200000"/>
   <line x1="940.279419" y1="985.397583" x2="940.279419" y2="993.340332" style="stroke: green; stroke-width: 0.200000"/>
   <line x1="927.279358" y1="985.397583" x2="927.279358" y2="992.927368" style="stroke: green; stroke-width: 0.200000"/>
   <line x1="934.279297" y1="985.397583" x2="934.279297" y2="992.614380" style="stroke: green; stroke-width: 0.200000"/>
   <line x1="931.279358" y1="985.397583" x2="931.279358" y2="992.492065" style="stroke: green; stroke-width: 0.200000"/>
   <line x1="941.279358" y1="985.397583" x2="941.279358" y2="992.333862" style="stroke: green; stroke-width: 0.200000"/>
   <line x1="928.279358" y1="985.397583" x2="928.279358" y2="991.927429" style="stroke: green; stroke-width: 0.200000"/>
   <line x1="930.279419" y1="985.397583" x2="930.279419" y2="991.917969" style="stroke: green; stroke-width: 0.200000"/>
   <line x1="933.279358" y1="985.397583" x2="933.279358" y2="991.688293" style="stroke: green; stroke-width: 0.200000"/>
   <line x1="932.279358" y1="985.397583" x2="932.279358" y2="991.492065" style="stroke: green; stroke-width: 0.200000"/>
   <line x1="942.279358" y1="985.397583" x2="942.279358" y2="991.327271" style="stroke: green; stroke-width: 0.200000"/>
   <line x1="929.279297" y1="985.397583" x2="929.279297" y2="990.927368" style="stroke: green; stroke-width: 0.200000"/>
   <line x1="943.279358" y1="985.397583" x2="943.279358" y2="990.322754" style="stroke: green; stroke-width: 0.200000"/>
   <line x1="944.279297" y1="985.397583" x2="944.279297" y2="989.334961" style="stroke: green; stroke-width: 0.200000"/>
   <line x1="945.279419" y1="985.397583" x2="945.279419" y2="988.347168" style="stroke: green; stroke-width: 0.200000"/>
   <line x1="946.279358" y1="985.397583" x2="946.279358" y2="987.359375" style="stroke: green; stroke-width: 0.200000"/>
   <line x1="947.279358" y1="985.397583" x2="947.279358" y2="986.371582" style="stroke: green; stroke-width: 0.200000"/>
   <line x1="882.279358" y1="1040.224487" x2="882.279358" y2="1041.491821" style="stroke: green; stroke-width: 0.200000"/>
   <line x1="881.279358" y1="1039.224609" x2="881.279358" y2="1041.418457" style="stroke: green; stroke-width: 0.200000"/>
   <line x1="880.279419" y1="1035.497559" x2="880.279419" y2="1040.385010" style="stroke: green; stroke-width: 0.200000"/>
   <line x1="879.279297" y1="1035.497559" x2="879.279297" y2="1039.351562" style="stroke: green; stroke-width: 0.200000"/>
   <line x1="881.279358" y1="1035.497559" x2="881.279358" y2="1038.927124" style="stroke: green; stroke-width: 0.200000"/>
   <line x1="878.279358" y1="1035.497559" x2="878.279358" y2="1038.318115" style="stroke: green; stroke-width: 0.200000"/>
   <line x1="882.279358" y1="1035.497559" x2="882.279358" y2="1037.927124" style="stroke: green; stroke-width: 0.200000"/>
   <line x1="877.279358" y1="1035.497559" x2="877.279358" y2="1037.284668" style="stroke: green; stroke-width: 0.200000"/>
   <line x1="883.279358" y1="1035.497559" x2="883.279358" y2="1036.927124" style="stroke: green; stroke-width: 0.200000"/>
   <line x1="876.279358" y1="1035.497559" x2="876.279358" y2="1036.226929" style="stroke: green; stroke-width: 0.200000"/>
   <line x1="884.279297" y1="1035.497559" x2="884.279297" y2="1035.927002" style="stroke: green; stroke-width: 0.200000"/>
   <line x1="970.593323" y1="938.927612" x2="970.593323" y2="938.929443" style="stroke: green; stroke-width: 0.200000"/>
   <path d="M 1055  1085.32  1054.65  1085.86  1053.16  1088.68  1052.32  1090.15  1050.87  1093.38  1049.24  1096.72  1048.87  1097.26  1047.72  1099.12  1047.28  1099.76  1046.04  1101.43  1045.04  1102.63  1044.15  1103.59  1041.13  1106.93  1038.85  1109.41  1037.77  1110.46  1036.5  1111.53  1035.11  1112.52  1033.62  1113.41  1032.04  1114.2  1030.39  1114.87  1028.67  1115.43  1026.9  1115.87  1025.09  1116.19  1023.2  1116.37  1021.28  1116.41  1019.35  1116.31  1017.45  1116.09  1015.57  1115.74  1013.75  1115.27  1011.99  1114.68  1001.22  1110.59  1005.66  1106.16  1011.6  1107  1027.42  1091.18  1024.31  1088.07  1075.1  1037.28  1078.21  1040.4  1115.22  1003.38  1112.93  998.886  1116.72  995.095  1117.36  996.016  1121.5  1002.26  1122.61  1004.14  1123.62  1006.14  1124.48  1008.22  1125.16  1010.32  1125.56  1012.06  1125.71  1012.83  1125.97  1014.51  1126.07  1015.88  1126.13  1017.51  1126.14  1018.73  1125.98  1020.82  1125.67  1022.86  1125.2  1024.85  1124.95  1025.77  1124.61  1026.84  1122.94  1030.42  1121.75  1032.15  1120.71  1033.62  1120.36  1034.03  1117.95  1036.8  1112.06  1043.08  1109.56  1045.49  1107.39  1047.4  1104.96  1049.01  1102.35  1050.32  1099.58  1051.31  1095.52  1052.48  1090.4  1054.26  1085.54  1056.26  1084.75  1056.66  1080.94  1058.48  1080.52  1058.74  " style="fill: none; stroke: darkmagenta; stroke-width: 0.200000; fill-type: evenodd"  fill-opacity="1.000000" />
   <path d="M 1080.52  1058.74  1077.64  1060.49  1076.74  1061.05  1074.11  1063.04  1072.92  1063.97  1070.78  1065.9  1069.41  1067.17  1066.3  1070.58  1062.96  1074.17  1061.27  1076.32  1059.99  1077.88  1058.3  1080.29  1057.21  1081.77  1055.59  1084.41  1055  1085.32  " style="fill: none; stroke: red; stroke-width: 0.200000; fill-type: evenodd"  fill-opacity="1.000000" />
   <path d="M 1120.66  1002.79  1121.74  1004.62  1122.71  1006.56  1123.54  1008.56  1124.19  1010.58  1124.58  1012.26  1124.72  1012.99  1124.97  1014.63  1125.08  1015.94  1125.13  1017.53  1125.14  1018.7  1124.99  1020.7  1124.69  1022.67  1124.23  1024.6  1123.99  1025.49  1123.67  1026.48  1122.06  1029.92  1120.93  1031.58  1119.92  1033  1119.6  1033.37  1117.21  1036.13  1111.35  1042.37  1108.88  1044.75  1106.78  1046.61  1104.46  1048.15  1101.95  1049.4  1099.27  1050.36  1095.21  1051.53  1090.04  1053.32  1085.12  1055.35  1084.3  1055.76  1080.47  1057.6  1077.12  1059.64  1076.17  1060.23  1073.5  1062.25  1072.28  1063.2  1070.11  1065.16  1068.7  1066.47  1065.57  1069.9  1062.2  1073.52  1060.49  1075.69  1059.19  1077.28  1057.49  1079.71  1056.38  1081.21  1054.75  1083.88  1053.79  1085.35  1052.28  1088.19  1051.43  1089.7  1049.97  1092.95  1048.37  1096.22  1048.03  1096.72  1046.89  1098.57  1046.46  1099.18  1045.26  1100.81  1044.29  1101.97  1043.41  1102.91  1040.39  1106.26  1038.13  1108.72  1037.1  1109.72  1035.89  1110.74  1034.56  1111.68  1033.14  1112.53  1031.63  1113.28  1030.05  1113.93  1028.4  1114.47  1026.7  1114.89  1024.96  1115.19  1023.14  1115.37  1021.29  1115.4  1019.44  1115.32  1017.6  1115.1  1015.79  1114.77  1014.03  1114.31  1012.32  1113.74  1003.02  1110.2  1006.01  1107.22  1011.95  1108.06  1028.84  1091.18  1025.72  1088.07  1075.1  1038.7  1078.21  1041.81  1116.44  1003.57  1114.15  999.079  1116.58  996.649  1120.66  1002.79  " style="fill: none; stroke: black; stroke-width: 0.200000; fill-type: evenodd"  fill-opacity="1.000000" />
   <path d="M 959.157  952.101  959.726  951.23  961.206  948.734  962.695  946.313  964.071  944.238  965.3  942.594  966.623  941.053  968.72  938.97  969.158  938.403  969.5  937.837  969.781  937.206  971.448  932.375  972.522  928.616  973.362  925.529  974.639  919.735  975.42  916.987  976.565  914.323  978.049  911.838  978.903  910.734  979.851  909.567  981.549  907.85  985.862  903.281  992.471  897.037  995.951  894.075  999.554  891.238  1003.29  888.534  1006.44  886.363  1006.97  886.024  1007.61  885.69  1008.94  885.05  1010.32  884.528  1011.74  884.129  1013.19  883.857  1014.66  883.712  1016.13  883.697  1016.42  883.721  1017.61  883.812  1019.07  884.054  1020.5  884.424  1021.89  884.918  1023.23  885.532  1024.52  886.261  1025.73  887.1  1026.87  888.042  1027.91  889.065  1032.18  893.715  1028.79  897.099  1027.01  895.317  980.07  942.258  981.852  944.04  980.949  944.943  983.995  948.233  984.264  948.599  984.388  948.822  984.493  949.062  984.574  949.312  984.632  949.568  984.664  949.829  984.672  950.091  984.654  950.353  984.612  950.612  984.545  950.866  984.454  951.112  984.343  951.343  984.099  951.722  984.04  951.884  983.866  952.019  973.799  962.161  967.517  968.397  961.808  974.128  944.229  991.493  939.762  995.989  939.669  996.237  939.482  996.319  939.089  996.575  938.86  996.687  938.613  996.778  938.359  996.846  938.1  996.888  937.837  996.906  937.575  996.899  937.314  996.866  937.057  996.809  936.807  996.728  936.566  996.622  936.336  996.495  936.122  996.347  935.963  996.218  932.698  993.194  931.066  994.826  929.284  993.044  883.252  1039.08  885.034  1040.86  881.79  1044.1  875.32  1037.42  874.073  1035.93  873.069  1034.28  872.324  1032.49  871.85  1030.62  871.657  1028.7  871.749  1026.78  872.117  1024.87  872.777  1023.05  873.959  1020.81  875.093  1018.5  877.785  1013.94  880.761  1009.67  883.981  1005.64  887.397  1001.81  890.965  998.136  896.389  992.937  898.088  991.331  898.924  990.696  900.299  989.579  902.804  988.085  905.483  986.937  906.77  986.576  908.3  986.195  914.529  984.813  920.841  983.199  923.178  982.437  923.846  982.191  924.462  981.865  925.036  981.481  925.583  981.023  926.842  979.848  928.095  978.818  928.406  978.574  930.071  977.369  932.882  975.626  933.509  975.214  935.576  974.062  938.247  972.501  939.855  971.53  " style="fill: none; stroke: darkmagenta; stroke-width: 0.200000; fill-type: evenodd"  fill-opacity="1.000000" />
   <path d="M 939.855  971.53  940.561  971.104  943.851  968.855  946.928  966.378  948.711  964.753  949.836  963.71  952.58  960.877  955.15  957.864  957.53  954.649  958.767  952.697  959.157  952.101  " style="fill: none; stroke: red; stroke-width: 0.200000; fill-type: evenodd"  fill-opacity="1.000000" />
   <path d="M 1016.34  884.717  1017.49  884.805  1018.86  885.034  1020.2  885.381  1021.51  885.846  1022.78  886.423  1023.99  887.109  1025.13  887.898  1026.2  888.785  1027.19  889.76  1030.79  893.685  1028.79  895.685  1027.01  893.903  978.655  942.258  980.438  944.04  979.562  944.916  983.223  948.872  983.421  949.141  983.491  949.266  983.557  949.418  983.609  949.577  983.646  949.74  983.666  949.905  983.671  950.072  983.66  950.239  983.633  950.403  983.59  950.565  983.533  950.721  983.469  950.853  983.201  951.269  973.092  961.454  966.811  967.689  961.103  973.42  943.523  990.785  938.903  995.435  938.868  995.525  938.596  995.703  938.467  995.766  938.31  995.824  938.149  995.867  937.984  995.894  937.818  995.905  937.65  995.901  937.485  995.88  937.321  995.844  937.162  995.792  937.009  995.725  936.863  995.644  936.723  995.547  936.62  995.463  932.672  991.807  931.066  993.412  929.284  991.63  881.838  1039.08  883.62  1040.86  881.801  1042.68  876.064  1036.75  874.888  1035.35  873.963  1033.82  873.275  1032.18  872.838  1030.45  872.659  1028.67  872.744  1026.9  873.083  1025.14  873.693  1023.46  874.851  1021.26  875.974  1018.97  878.627  1014.48  881.563  1010.27  884.745  1006.28  888.129  1002.49  891.67  998.845  897.078  993.661  898.736  992.095  899.542  991.483  900.874  990.401  903.259  988.978  905.817  987.882  907.026  987.543  908.53  987.168  914.761  985.786  921.12  984.16  923.506  983.382  924.255  983.106  924.975  982.725  925.637  982.282  926.246  981.773  927.501  980.6  928.722  979.598  929.009  979.372  930.628  978.2  933.42  976.469  934.028  976.07  936.072  974.931  938.758  973.361  941.102  971.946  944.448  969.659  947.579  967.137  949.387  965.489  950.536  964.426  953.32  961.55  955.933  958.486  958.355  955.215  959.608  953.238  960.575  951.758  962.062  949.251  963.538  946.851  964.889  944.814  966.08  943.22  967.356  941.734  969.472  939.633  969.985  938.969  970.388  938.301  970.712  937.573  972.402  932.675  973.485  928.885  974.334  925.768  975.609  919.98  976.365  917.322  977.457  914.778  978.877  912.403  979.686  911.356  980.596  910.235  982.268  908.545  986.569  903.988  993.139  897.782  996.584  894.849  1000.16  892.037  1003.87  889.351  1006.99  887.198  1007.48  886.89  1008.06  886.583  1009.33  885.97  1010.63  885.479  1011.97  885.104  1013.33  884.848  1014.71  884.712  1016.1  884.698  1016.34  884.717  " style="fill: none; stroke: black; stroke-width: 0.200000; fill-type: evenodd"  fill-opacity="1.000000" />
</svg>
