<?xml version="1.0" encoding="UTF-8" standalone="yes"?>
<!DOCTYPE svg PUBLIC "-//W3C//DTD SVG 1.0//EN" "http://www.w3.org/TR/2001/REC-SVG-20010904/DTD/svg10.dtd">
<svg height="2000" width="2000" xmlns="http://www.w3.org/2000/svg" xmlns:svg="http://www.w3.org/2000/svg" xmlns:xlink="http://www.w3.org/1999/xlink">
   <marker id="endArrow" markerHeight="8" markerUnits="strokeWidth" markerWidth="10" orient="auto" refX="1" refY="5" viewBox="0 0 1000 1000">
      <polyline fill="darkblue" points="0,0 10,5 0,10 1,5" />
   </marker>
   <circle cx="1000" cy="1000" r="1" style="stroke:black; fill: red" />
   <circle cx="1000" cy="1000" r="800" style="stroke:black; fill: none" />
   <line x1="1078.934204" y1="1071.208984" x2="1078.817993" y2="1071.208984" style="stroke: green; stroke-width: 0.200000"/>
   <line x1="1081.046875" y1="1070.208984" x2="1077.951172" y2="1070.208984" style="stroke: green; stroke-width: 0.200000"/>
   <line x1="1082.277344" y1="1069.208862" x2="1078.951172" y2="1069.208862" style="stroke: green; stroke-width: 0.200000"/>
   <line x1="1083.388550" y1="1068.208984" x2="1079.951050" y2="1068.208984" style="stroke: green; stroke-width: 0.200000"/>
   <line x1="1084.552856" y1="1067.208984" x2="1080.951050" y2="1067.208984" style="stroke: green; stroke-width: 0.200000"/>
   <line x1="1085.717529" y1="1066.208984" x2="1081.951050" y2="1066.208984" style="stroke: green; stroke-width: 0.200000"/>
   <line x1="1086.871704" y1="1065.208984" x2="1082.951050" y2="1065.208984" style="stroke: green; stroke-width: 0.200000"/>
   <line x1="1088.000122" y1="1064.208862" x2="1083.951050" y2="1064.208862" style="stroke: green; stroke-width: 0.200000"/>
   <line x1="1088.496460" y1="1063.208984" x2="1084.951050" y2="1063.208984" style="stroke: green; stroke-width: 0.200000"/>
   <line x1="1111.041138" y1="1042.768066" x2="1109.768555" y2="1042.768066" style="stroke: green; stroke-width: 0.200000"/>
   <line x1="1112.128052" y1="1041.768066" x2="1109.187500" y2="1041.768066" style="stroke: green; stroke-width: 0.200000"/>
   <line x1="1113.138672" y1="1040.768066" x2="1110.187500" y2="1040.768066" style="stroke: green; stroke-width: 0.200000"/>
   <line x1="1113.808105" y1="1039.768188" x2="1110.630981" y2="1039.768188" style="stroke: green; stroke-width: 0.200000"/>
   <line x1="1114.202148" y1="1038.768066" x2="1110.239502" y2="1038.768066" style="stroke: green; stroke-width: 0.200000"/>
   <line x1="1114.414062" y1="1037.768066" x2="1110.391968" y2="1037.768066" style="stroke: green; stroke-width: 0.200000"/>
   <line x1="1114.359009" y1="1036.768066" x2="1111.391846" y2="1036.768066" style="stroke: green; stroke-width: 0.200000"/>
   <line x1="1113.974854" y1="1035.768066" x2="1112.391846" y2="1035.768066" style="stroke: green; stroke-width: 0.200000"/>
   <path d="M 1108.96  1037.08  1113.45  1032.59  1114.64  1034.09  1114.72  1034.15  1115.21  1034.9  1115.45  1035.34  1115.64  1035.8  1115.8  1036.3  1115.9  1036.84  1115.94  1037.67  1115.81  1038.61  1115.44  1039.86  1114.97  1040.8  1114.36  1041.65  1113.72  1042.34  1108.32  1047.31  1106.95  1048.6  1097.68  1057.5  1095.4  1059.61  1092.59  1062.14  1087.53  1066.63  1084.39  1069.33  1083.11  1070.47  1082.93  1070.67  1082.12  1071.3  1081.33  1071.82  1080.55  1072.25  1080.19  1072.41  1079.83  1072.54  1079.48  1072.64  1079.13  1072.7  1078.81  1072.72  1078.7  1072.71  1078.49  1072.69  1078.2  1072.61  1077.84  1072.43  1077.71  1072.22  1076.7  1071.25  1075.76  1070.27  1082.23  1063.81  " style="fill: none; stroke: darkmagenta; stroke-width: 0.200000; fill-type: evenodd"  fill-opacity="1.000000" />
   <path d="M 1082.23  1063.81  1084.91  1061.13  1085.85  1061.2  " style="fill: none; stroke: red; stroke-width: 0.200000; fill-type: evenodd"  fill-opacity="1.000000" />
   <path d="M 1085.85  1061.2  1087.05  1061.29  1087.54  1061.3  1109.03  1039.8  1108.53  1038.52  " style="fill: none; stroke: darkmagenta; stroke-width: 0.200000; fill-type: evenodd"  fill-opacity="1.000000" />
   <path d="M 1108.53  1038.52  1108.25  1037.79  1108.96  1037.08  " style="fill: none; stroke: red; stroke-width: 0.200000; fill-type: evenodd"  fill-opacity="1.000000" />
   <path d="M 1113.95  1034.83  1113.98  1034.85  1114.35  1035.41  1114.55  1035.78  1114.7  1036.14  1114.82  1036.55  1114.91  1036.96  1114.94  1037.62  1114.83  1038.4  1114.51  1039.49  1114.11  1040.28  1113.59  1041.02  1113.01  1041.63  1107.64  1046.57  1106.26  1047.87  1096.99  1056.77  1094.72  1058.87  1091.93  1061.4  1086.87  1065.88  1083.73  1068.58  1082.42  1069.75  1082.26  1069.92  1081.53  1070.49  1080.81  1070.97  1080.11  1071.35  1079.81  1071.48  1079.52  1071.59  1079.25  1071.66  1079.01  1071.7  1078.64  1071.73  1077.15  1070.3  1085.3  1062.16  1087  1062.29  1087.94  1062.31  1110.2  1040.05  1109.42  1038.04  1113.36  1034.09  1113.95  1034.83  " style="fill: none; stroke: black; stroke-width: 0.200000; fill-type: evenodd"  fill-opacity="1.000000" />
   <path d="M 1109.32  1043.02  1106.69  1045.54  1106.68  1045.55  1105.32  1046.87  1105.31  1046.88  1096.14  1055.87  1093.93  1058  " style="fill: none; stroke: grey; stroke-width: 0.200000; fill-type: evenodd"  fill-opacity="1.000000" />
   <path d="M 1093.93  1058  1091.2  1060.59  1088.82  1062.83  " style="fill: none; stroke: grey; stroke-width: 0.200000; fill-type: evenodd"  fill-opacity="1.000000" />
</svg>
