<?xml version="1.0" encoding="UTF-8" standalone="yes"?>
<!DOCTYPE svg PUBLIC "-//W3C//DTD SVG 1.0//EN" "http://www.w3.org/TR/2001/REC-SVG-20010904/DTD/svg10.dtd">
<svg height="2000" width="2000" xmlns="http://www.w3.org/2000/svg" xmlns:svg="http://www.w3.org/2000/svg" xmlns:xlink="http://www.w3.org/1999/xlink">
   <marker id="endArrow" markerHeight="8" markerUnits="strokeWidth" markerWidth="10" orient="auto" refX="1" refY="5" viewBox="0 0 1000 1000">
      <polyline fill="darkblue" points="0,0 10,5 0,10 1,5" />
   </marker>
   <circle cx="1000" cy="1000" r="1" style="stroke:black; fill: red" />
   <circle cx="1000" cy="1000" r="800" style="stroke:black; fill: none" />
   <line x1="1076.981567" y1="1027.787476" x2="1054.983398" y2="1027.787476" style="stroke: green; stroke-width: 0.200000"/>
   <line x1="1076.981567" y1="1026.787476" x2="1055.983521" y2="1026.787476" style="stroke: green; stroke-width: 0.200000"/>
   <line x1="1076.981567" y1="1025.787476" x2="1063.204834" y2="1025.787476" style="stroke: green; stroke-width: 0.200000"/>
   <line x1="1061.478027" y1="1025.787476" x2="1056.983521" y2="1025.787476" style="stroke: green; stroke-width: 0.200000"/>
   <line x1="1060.478027" y1="1024.787476" x2="1057.983521" y2="1024.787476" style="stroke: green; stroke-width: 0.200000"/>
   <line x1="1076.981567" y1="1024.787476" x2="1064.204834" y2="1024.787476" style="stroke: green; stroke-width: 0.200000"/>
   <line x1="1059.478027" y1="1023.787537" x2="1058.983398" y2="1023.787537" style="stroke: green; stroke-width: 0.200000"/>
   <line x1="1076.981567" y1="1023.787537" x2="1065.204834" y2="1023.787537" style="stroke: green; stroke-width: 0.200000"/>
   <line x1="1076.981567" y1="1022.787476" x2="1066.204834" y2="1022.787476" style="stroke: green; stroke-width: 0.200000"/>
   <line x1="1076.981567" y1="1021.787476" x2="1067.204834" y2="1021.787476" style="stroke: green; stroke-width: 0.200000"/>
   <line x1="1076.981567" y1="1020.787476" x2="1068.204834" y2="1020.787476" style="stroke: green; stroke-width: 0.200000"/>
   <line x1="1076.981567" y1="1019.787537" x2="1069.204834" y2="1019.787537" style="stroke: green; stroke-width: 0.200000"/>
   <line x1="1076.981567" y1="1018.787537" x2="1070.204834" y2="1018.787537" style="stroke: green; stroke-width: 0.200000"/>
   <line x1="1076.981567" y1="1017.787476" x2="1071.204834" y2="1017.787476" style="stroke: green; stroke-width: 0.200000"/>
   <line x1="1076.981567" y1="1016.787476" x2="1072.204834" y2="1016.787476" style="stroke: green; stroke-width: 0.200000"/>
   <line x1="1076.981567" y1="1015.787476" x2="1073.204834" y2="1015.787476" style="stroke: green; stroke-width: 0.200000"/>
   <line x1="1076.981567" y1="1014.787537" x2="1074.204834" y2="1014.787537" style="stroke: green; stroke-width: 0.200000"/>
   <line x1="1076.981567" y1="1013.787537" x2="1075.204834" y2="1013.787537" style="stroke: green; stroke-width: 0.200000"/>
   <line x1="1076.981567" y1="1012.787476" x2="1076.204834" y2="1012.787476" style="stroke: green; stroke-width: 0.200000"/>
   <line x1="1109.063477" y1="1027.787476" x2="1077.081543" y2="1027.787476" style="stroke: green; stroke-width: 0.200000"/>
   <line x1="1109.916504" y1="1026.787476" x2="1077.081543" y2="1026.787476" style="stroke: green; stroke-width: 0.200000"/>
   <line x1="1110.749390" y1="1025.787476" x2="1077.081543" y2="1025.787476" style="stroke: green; stroke-width: 0.200000"/>
   <line x1="1111.576904" y1="1024.787476" x2="1077.081543" y2="1024.787476" style="stroke: green; stroke-width: 0.200000"/>
   <line x1="1112.398804" y1="1023.787537" x2="1077.081543" y2="1023.787537" style="stroke: green; stroke-width: 0.200000"/>
   <line x1="1113.220703" y1="1022.787476" x2="1077.081543" y2="1022.787476" style="stroke: green; stroke-width: 0.200000"/>
   <line x1="1114.042480" y1="1021.787476" x2="1077.081543" y2="1021.787476" style="stroke: green; stroke-width: 0.200000"/>
   <line x1="1114.835938" y1="1020.787476" x2="1077.081543" y2="1020.787476" style="stroke: green; stroke-width: 0.200000"/>
   <line x1="1115.561035" y1="1019.787537" x2="1077.081543" y2="1019.787537" style="stroke: green; stroke-width: 0.200000"/>
   <line x1="1116.156982" y1="1018.787537" x2="1077.081543" y2="1018.787537" style="stroke: green; stroke-width: 0.200000"/>
   <line x1="1116.711426" y1="1017.787476" x2="1077.081543" y2="1017.787476" style="stroke: green; stroke-width: 0.200000"/>
   <line x1="1117.153564" y1="1016.787476" x2="1077.081543" y2="1016.787476" style="stroke: green; stroke-width: 0.200000"/>
   <line x1="1117.574341" y1="1015.787476" x2="1077.081543" y2="1015.787476" style="stroke: green; stroke-width: 0.200000"/>
   <line x1="1117.911377" y1="1014.787537" x2="1077.081543" y2="1014.787537" style="stroke: green; stroke-width: 0.200000"/>
   <line x1="1118.222168" y1="1013.787537" x2="1077.081543" y2="1013.787537" style="stroke: green; stroke-width: 0.200000"/>
   <line x1="1118.466919" y1="1012.787476" x2="1077.081543" y2="1012.787476" style="stroke: green; stroke-width: 0.200000"/>
   <line x1="1118.668457" y1="1011.787476" x2="1077.204834" y2="1011.787476" style="stroke: green; stroke-width: 0.200000"/>
   <line x1="1118.840210" y1="1010.787476" x2="1078.204834" y2="1010.787476" style="stroke: green; stroke-width: 0.200000"/>
   <line x1="1118.955566" y1="1009.787537" x2="1079.204834" y2="1009.787537" style="stroke: green; stroke-width: 0.200000"/>
   <line x1="1119.009399" y1="1008.787537" x2="1080.204834" y2="1008.787537" style="stroke: green; stroke-width: 0.200000"/>
   <line x1="1119.021973" y1="1007.787476" x2="1081.204834" y2="1007.787476" style="stroke: green; stroke-width: 0.200000"/>
   <line x1="1118.988403" y1="1006.787476" x2="1082.204834" y2="1006.787476" style="stroke: green; stroke-width: 0.200000"/>
   <line x1="1118.954590" y1="1005.787476" x2="1083.204834" y2="1005.787476" style="stroke: green; stroke-width: 0.200000"/>
   <line x1="1118.858276" y1="1004.787537" x2="1084.204834" y2="1004.787537" style="stroke: green; stroke-width: 0.200000"/>
   <line x1="1118.750244" y1="1003.787537" x2="1085.204834" y2="1003.787537" style="stroke: green; stroke-width: 0.200000"/>
   <line x1="1118.599121" y1="1002.787476" x2="1086.204834" y2="1002.787476" style="stroke: green; stroke-width: 0.200000"/>
   <line x1="1118.417847" y1="1001.787476" x2="1087.204834" y2="1001.787476" style="stroke: green; stroke-width: 0.200000"/>
   <line x1="1118.213013" y1="1000.787476" x2="1088.204834" y2="1000.787476" style="stroke: green; stroke-width: 0.200000"/>
   <line x1="1117.958252" y1="999.787537" x2="1089.204834" y2="999.787537" style="stroke: green; stroke-width: 0.200000"/>
   <line x1="1117.698853" y1="998.787537" x2="1090.204834" y2="998.787537" style="stroke: green; stroke-width: 0.200000"/>
   <line x1="1117.369507" y1="997.787476" x2="1091.204834" y2="997.787476" style="stroke: green; stroke-width: 0.200000"/>
   <line x1="1117.039917" y1="996.787476" x2="1092.204834" y2="996.787476" style="stroke: green; stroke-width: 0.200000"/>
   <line x1="1116.620605" y1="995.787476" x2="1093.204834" y2="995.787476" style="stroke: green; stroke-width: 0.200000"/>
   <line x1="1116.169922" y1="994.787537" x2="1094.204834" y2="994.787537" style="stroke: green; stroke-width: 0.200000"/>
   <line x1="1115.673584" y1="993.787537" x2="1095.204834" y2="993.787537" style="stroke: green; stroke-width: 0.200000"/>
   <line x1="1115.144775" y1="992.787476" x2="1096.204834" y2="992.787476" style="stroke: green; stroke-width: 0.200000"/>
   <line x1="1114.585693" y1="991.787476" x2="1097.204834" y2="991.787476" style="stroke: green; stroke-width: 0.200000"/>
   <line x1="1113.973267" y1="990.787476" x2="1098.204834" y2="990.787476" style="stroke: green; stroke-width: 0.200000"/>
   <line x1="1113.342529" y1="989.787537" x2="1099.204834" y2="989.787537" style="stroke: green; stroke-width: 0.200000"/>
   <line x1="1112.647217" y1="988.787537" x2="1100.204834" y2="988.787537" style="stroke: green; stroke-width: 0.200000"/>
   <line x1="1111.936768" y1="987.787476" x2="1101.204834" y2="987.787476" style="stroke: green; stroke-width: 0.200000"/>
   <line x1="1111.163818" y1="986.787476" x2="1102.204834" y2="986.787476" style="stroke: green; stroke-width: 0.200000"/>
   <line x1="1110.390869" y1="985.787476" x2="1103.204834" y2="985.787476" style="stroke: green; stroke-width: 0.200000"/>
   <line x1="1109.618042" y1="984.787537" x2="1104.204834" y2="984.787537" style="stroke: green; stroke-width: 0.200000"/>
   <line x1="1108.845093" y1="983.787537" x2="1105.204834" y2="983.787537" style="stroke: green; stroke-width: 0.200000"/>
   <line x1="1108.072266" y1="982.787476" x2="1104.937012" y2="982.787476" style="stroke: green; stroke-width: 0.200000"/>
   <line x1="1107.284546" y1="981.787476" x2="1104.223755" y2="981.787476" style="stroke: green; stroke-width: 0.200000"/>
   <line x1="1106.483398" y1="980.787476" x2="1103.510498" y2="980.787476" style="stroke: green; stroke-width: 0.200000"/>
   <line x1="1105.683838" y1="979.787537" x2="1102.797119" y2="979.787537" style="stroke: green; stroke-width: 0.200000"/>
   <line x1="1104.885376" y1="978.787537" x2="1103.417847" y2="978.787537" style="stroke: green; stroke-width: 0.200000"/>
   <line x1="1026.881592" y1="1077.787476" x2="1011.204834" y2="1077.787476" style="stroke: green; stroke-width: 0.200000"/>
   <line x1="1026.881592" y1="1076.787476" x2="1012.204895" y2="1076.787476" style="stroke: green; stroke-width: 0.200000"/>
   <line x1="1026.881592" y1="1075.787476" x2="1013.204895" y2="1075.787476" style="stroke: green; stroke-width: 0.200000"/>
   <line x1="1026.881592" y1="1074.787476" x2="1013.148804" y2="1074.787476" style="stroke: green; stroke-width: 0.200000"/>
   <line x1="1026.881592" y1="1073.787598" x2="1012.148804" y2="1073.787598" style="stroke: green; stroke-width: 0.200000"/>
   <line x1="1026.881592" y1="1072.787476" x2="1011.148804" y2="1072.787476" style="stroke: green; stroke-width: 0.200000"/>
   <line x1="1026.881592" y1="1071.787476" x2="1010.983521" y2="1071.787476" style="stroke: green; stroke-width: 0.200000"/>
   <line x1="1026.881592" y1="1070.787476" x2="1011.983521" y2="1070.787476" style="stroke: green; stroke-width: 0.200000"/>
   <line x1="1026.881592" y1="1069.787476" x2="1012.983459" y2="1069.787476" style="stroke: green; stroke-width: 0.200000"/>
   <line x1="1026.881592" y1="1068.787598" x2="1013.983459" y2="1068.787598" style="stroke: green; stroke-width: 0.200000"/>
   <line x1="1026.881592" y1="1067.787476" x2="1014.983459" y2="1067.787476" style="stroke: green; stroke-width: 0.200000"/>
   <line x1="1026.881592" y1="1066.787476" x2="1015.983521" y2="1066.787476" style="stroke: green; stroke-width: 0.200000"/>
   <line x1="1026.881592" y1="1065.787476" x2="1016.983521" y2="1065.787476" style="stroke: green; stroke-width: 0.200000"/>
   <line x1="1026.881592" y1="1064.787476" x2="1017.983459" y2="1064.787476" style="stroke: green; stroke-width: 0.200000"/>
   <line x1="1026.881592" y1="1063.787598" x2="1018.983459" y2="1063.787598" style="stroke: green; stroke-width: 0.200000"/>
   <line x1="1026.881592" y1="1062.787476" x2="1019.983459" y2="1062.787476" style="stroke: green; stroke-width: 0.200000"/>
   <line x1="1026.881592" y1="1061.787476" x2="1020.983521" y2="1061.787476" style="stroke: green; stroke-width: 0.200000"/>
   <line x1="1026.881592" y1="1060.787476" x2="1021.983521" y2="1060.787476" style="stroke: green; stroke-width: 0.200000"/>
   <line x1="1026.881592" y1="1059.787476" x2="1022.983459" y2="1059.787476" style="stroke: green; stroke-width: 0.200000"/>
   <line x1="1026.881592" y1="1058.787598" x2="1023.983459" y2="1058.787598" style="stroke: green; stroke-width: 0.200000"/>
   <line x1="1026.881592" y1="1057.787476" x2="1024.983398" y2="1057.787476" style="stroke: green; stroke-width: 0.200000"/>
   <line x1="1026.881592" y1="1056.787476" x2="1025.983521" y2="1056.787476" style="stroke: green; stroke-width: 0.200000"/>
   <line x1="1039.672119" y1="1077.787476" x2="1026.981567" y2="1077.787476" style="stroke: green; stroke-width: 0.200000"/>
   <line x1="1040.034668" y1="1076.787476" x2="1026.981567" y2="1076.787476" style="stroke: green; stroke-width: 0.200000"/>
   <line x1="1040.544678" y1="1075.787476" x2="1026.981567" y2="1075.787476" style="stroke: green; stroke-width: 0.200000"/>
   <line x1="1041.036743" y1="1074.787476" x2="1026.981567" y2="1074.787476" style="stroke: green; stroke-width: 0.200000"/>
   <line x1="1041.501587" y1="1073.787598" x2="1026.981567" y2="1073.787598" style="stroke: green; stroke-width: 0.200000"/>
   <line x1="1041.966431" y1="1072.787476" x2="1026.981567" y2="1072.787476" style="stroke: green; stroke-width: 0.200000"/>
   <line x1="1042.499268" y1="1071.787476" x2="1026.981567" y2="1071.787476" style="stroke: green; stroke-width: 0.200000"/>
   <line x1="1043.136475" y1="1070.787476" x2="1026.981567" y2="1070.787476" style="stroke: green; stroke-width: 0.200000"/>
   <line x1="1043.731323" y1="1069.787476" x2="1026.981567" y2="1069.787476" style="stroke: green; stroke-width: 0.200000"/>
   <line x1="1044.325806" y1="1068.787598" x2="1026.981567" y2="1068.787598" style="stroke: green; stroke-width: 0.200000"/>
   <line x1="1044.948853" y1="1067.787476" x2="1026.981567" y2="1067.787476" style="stroke: green; stroke-width: 0.200000"/>
   <line x1="1045.724854" y1="1066.787476" x2="1026.981567" y2="1066.787476" style="stroke: green; stroke-width: 0.200000"/>
   <line x1="1046.475098" y1="1065.787476" x2="1026.981567" y2="1065.787476" style="stroke: green; stroke-width: 0.200000"/>
   <line x1="1047.217285" y1="1064.787476" x2="1026.981567" y2="1064.787476" style="stroke: green; stroke-width: 0.200000"/>
   <line x1="1048.004272" y1="1063.787598" x2="1026.981567" y2="1063.787598" style="stroke: green; stroke-width: 0.200000"/>
   <line x1="1048.921875" y1="1062.787476" x2="1026.981567" y2="1062.787476" style="stroke: green; stroke-width: 0.200000"/>
   <line x1="1049.817139" y1="1061.787476" x2="1026.981567" y2="1061.787476" style="stroke: green; stroke-width: 0.200000"/>
   <line x1="1050.706543" y1="1060.787476" x2="1026.981567" y2="1060.787476" style="stroke: green; stroke-width: 0.200000"/>
   <line x1="1051.705933" y1="1059.787476" x2="1026.981567" y2="1059.787476" style="stroke: green; stroke-width: 0.200000"/>
   <line x1="1052.764648" y1="1058.787598" x2="1026.981567" y2="1058.787598" style="stroke: green; stroke-width: 0.200000"/>
   <line x1="1053.823364" y1="1057.787476" x2="1026.981567" y2="1057.787476" style="stroke: green; stroke-width: 0.200000"/>
   <line x1="1054.941772" y1="1056.787476" x2="1026.981567" y2="1056.787476" style="stroke: green; stroke-width: 0.200000"/>
   <line x1="1056.200684" y1="1055.787476" x2="1026.983521" y2="1055.787476" style="stroke: green; stroke-width: 0.200000"/>
   <line x1="1057.459473" y1="1054.787476" x2="1027.983521" y2="1054.787476" style="stroke: green; stroke-width: 0.200000"/>
   <line x1="1058.783936" y1="1053.787598" x2="1028.983398" y2="1053.787598" style="stroke: green; stroke-width: 0.200000"/>
   <line x1="1060.323242" y1="1052.787476" x2="1029.983398" y2="1052.787476" style="stroke: green; stroke-width: 0.200000"/>
   <line x1="1061.862427" y1="1051.787476" x2="1030.983521" y2="1051.787476" style="stroke: green; stroke-width: 0.200000"/>
   <line x1="1063.604980" y1="1050.787476" x2="1031.983521" y2="1050.787476" style="stroke: green; stroke-width: 0.200000"/>
   <line x1="1065.559692" y1="1049.787476" x2="1032.983521" y2="1049.787476" style="stroke: green; stroke-width: 0.200000"/>
   <line x1="1067.611206" y1="1048.787598" x2="1033.983398" y2="1048.787598" style="stroke: green; stroke-width: 0.200000"/>
   <line x1="1070.199097" y1="1047.787476" x2="1034.983398" y2="1047.787476" style="stroke: green; stroke-width: 0.200000"/>
   <line x1="1072.683594" y1="1046.787476" x2="1035.983521" y2="1046.787476" style="stroke: green; stroke-width: 0.200000"/>
   <line x1="1075.728760" y1="1045.787476" x2="1036.983521" y2="1045.787476" style="stroke: green; stroke-width: 0.200000"/>
   <line x1="1076.981567" y1="1044.787476" x2="1037.983521" y2="1044.787476" style="stroke: green; stroke-width: 0.200000"/>
   <line x1="1076.981567" y1="1043.787598" x2="1038.983398" y2="1043.787598" style="stroke: green; stroke-width: 0.200000"/>
   <line x1="1076.981567" y1="1042.787476" x2="1039.983398" y2="1042.787476" style="stroke: green; stroke-width: 0.200000"/>
   <line x1="1076.981567" y1="1041.787476" x2="1040.983521" y2="1041.787476" style="stroke: green; stroke-width: 0.200000"/>
   <line x1="1076.981567" y1="1040.787476" x2="1041.983521" y2="1040.787476" style="stroke: green; stroke-width: 0.200000"/>
   <line x1="1076.981567" y1="1039.787476" x2="1042.983521" y2="1039.787476" style="stroke: green; stroke-width: 0.200000"/>
   <line x1="1076.981567" y1="1038.787598" x2="1043.983398" y2="1038.787598" style="stroke: green; stroke-width: 0.200000"/>
   <line x1="1076.981567" y1="1037.787476" x2="1044.983398" y2="1037.787476" style="stroke: green; stroke-width: 0.200000"/>
   <line x1="1076.981567" y1="1036.787476" x2="1045.983521" y2="1036.787476" style="stroke: green; stroke-width: 0.200000"/>
   <line x1="1076.981567" y1="1035.787476" x2="1046.983521" y2="1035.787476" style="stroke: green; stroke-width: 0.200000"/>
   <line x1="1076.981567" y1="1034.787476" x2="1047.983521" y2="1034.787476" style="stroke: green; stroke-width: 0.200000"/>
   <line x1="1076.981567" y1="1033.787598" x2="1048.983398" y2="1033.787598" style="stroke: green; stroke-width: 0.200000"/>
   <line x1="1076.981567" y1="1032.787476" x2="1049.983398" y2="1032.787476" style="stroke: green; stroke-width: 0.200000"/>
   <line x1="1076.981567" y1="1031.787476" x2="1050.983521" y2="1031.787476" style="stroke: green; stroke-width: 0.200000"/>
   <line x1="1076.981567" y1="1030.787476" x2="1051.983521" y2="1030.787476" style="stroke: green; stroke-width: 0.200000"/>
   <line x1="1076.981567" y1="1029.787476" x2="1052.983521" y2="1029.787476" style="stroke: green; stroke-width: 0.200000"/>
   <line x1="1076.981567" y1="1028.787598" x2="1053.983398" y2="1028.787598" style="stroke: green; stroke-width: 0.200000"/>
   <line x1="1079.275879" y1="1044.787476" x2="1077.081543" y2="1044.787476" style="stroke: green; stroke-width: 0.200000"/>
   <line x1="1083.689575" y1="1043.787598" x2="1077.081543" y2="1043.787598" style="stroke: green; stroke-width: 0.200000"/>
   <line x1="1088.622070" y1="1042.787476" x2="1077.081543" y2="1042.787476" style="stroke: green; stroke-width: 0.200000"/>
   <line x1="1092.491821" y1="1041.787476" x2="1077.081543" y2="1041.787476" style="stroke: green; stroke-width: 0.200000"/>
   <line x1="1094.916138" y1="1040.787476" x2="1077.081543" y2="1040.787476" style="stroke: green; stroke-width: 0.200000"/>
   <line x1="1096.656616" y1="1039.787476" x2="1077.081543" y2="1039.787476" style="stroke: green; stroke-width: 0.200000"/>
   <line x1="1098.023804" y1="1038.787598" x2="1077.081543" y2="1038.787598" style="stroke: green; stroke-width: 0.200000"/>
   <line x1="1099.257568" y1="1037.787476" x2="1077.081543" y2="1037.787476" style="stroke: green; stroke-width: 0.200000"/>
   <line x1="1100.319824" y1="1036.787476" x2="1077.081543" y2="1036.787476" style="stroke: green; stroke-width: 0.200000"/>
   <line x1="1101.347412" y1="1035.787476" x2="1077.081543" y2="1035.787476" style="stroke: green; stroke-width: 0.200000"/>
   <line x1="1102.375000" y1="1034.787476" x2="1077.081543" y2="1034.787476" style="stroke: green; stroke-width: 0.200000"/>
   <line x1="1103.400391" y1="1033.787598" x2="1077.081543" y2="1033.787598" style="stroke: green; stroke-width: 0.200000"/>
   <line x1="1104.344238" y1="1032.787476" x2="1077.081543" y2="1032.787476" style="stroke: green; stroke-width: 0.200000"/>
   <line x1="1105.287964" y1="1031.787476" x2="1077.081543" y2="1031.787476" style="stroke: green; stroke-width: 0.200000"/>
   <line x1="1106.231812" y1="1030.787476" x2="1077.081543" y2="1030.787476" style="stroke: green; stroke-width: 0.200000"/>
   <line x1="1107.175659" y1="1029.787476" x2="1077.081543" y2="1029.787476" style="stroke: green; stroke-width: 0.200000"/>
   <line x1="1108.119629" y1="1028.787598" x2="1077.081543" y2="1028.787598" style="stroke: green; stroke-width: 0.200000"/>
   <line x1="1011.581360" y1="1112.787476" x2="996.459290" y2="1112.787476" style="stroke: green; stroke-width: 0.200000"/>
   <line x1="1014.544312" y1="1111.787476" x2="992.879150" y2="1111.787476" style="stroke: green; stroke-width: 0.200000"/>
   <line x1="1016.739868" y1="1110.787476" x2="990.164856" y2="1110.787476" style="stroke: green; stroke-width: 0.200000"/>
   <line x1="1018.477905" y1="1109.787476" x2="987.682861" y2="1109.787476" style="stroke: green; stroke-width: 0.200000"/>
   <line x1="1019.894470" y1="1108.787598" x2="985.200867" y2="1108.787598" style="stroke: green; stroke-width: 0.200000"/>
   <line x1="1021.112427" y1="1107.787476" x2="982.781128" y2="1107.787476" style="stroke: green; stroke-width: 0.200000"/>
   <line x1="1022.105469" y1="1106.787476" x2="980.386475" y2="1106.787476" style="stroke: green; stroke-width: 0.200000"/>
   <line x1="1023.098450" y1="1105.787476" x2="977.991882" y2="1105.787476" style="stroke: green; stroke-width: 0.200000"/>
   <line x1="1024.091553" y1="1104.787476" x2="977.417908" y2="1104.787476" style="stroke: green; stroke-width: 0.200000"/>
   <line x1="981.753052" y1="1103.787598" x2="978.417908" y2="1103.787598" style="stroke: green; stroke-width: 0.200000"/>
   <line x1="1025.079834" y1="1103.787598" x2="985.204834" y2="1103.787598" style="stroke: green; stroke-width: 0.200000"/>
   <line x1="1026.058716" y1="1102.787476" x2="986.204834" y2="1102.787476" style="stroke: green; stroke-width: 0.200000"/>
   <line x1="1026.881592" y1="1101.787476" x2="987.204834" y2="1101.787476" style="stroke: green; stroke-width: 0.200000"/>
   <line x1="1026.881592" y1="1100.787476" x2="988.204895" y2="1100.787476" style="stroke: green; stroke-width: 0.200000"/>
   <line x1="1026.881592" y1="1099.787476" x2="989.204834" y2="1099.787476" style="stroke: green; stroke-width: 0.200000"/>
   <line x1="1026.881592" y1="1098.787598" x2="990.204834" y2="1098.787598" style="stroke: green; stroke-width: 0.200000"/>
   <line x1="1026.881592" y1="1097.787476" x2="991.204834" y2="1097.787476" style="stroke: green; stroke-width: 0.200000"/>
   <line x1="1026.881592" y1="1096.787476" x2="992.204834" y2="1096.787476" style="stroke: green; stroke-width: 0.200000"/>
   <line x1="1026.881592" y1="1095.787476" x2="993.204895" y2="1095.787476" style="stroke: green; stroke-width: 0.200000"/>
   <line x1="1026.881592" y1="1094.787476" x2="994.204834" y2="1094.787476" style="stroke: green; stroke-width: 0.200000"/>
   <line x1="1026.881592" y1="1093.787598" x2="995.204834" y2="1093.787598" style="stroke: green; stroke-width: 0.200000"/>
   <line x1="1026.881592" y1="1092.787476" x2="996.204834" y2="1092.787476" style="stroke: green; stroke-width: 0.200000"/>
   <line x1="1026.881592" y1="1091.787476" x2="997.204895" y2="1091.787476" style="stroke: green; stroke-width: 0.200000"/>
   <line x1="1026.881592" y1="1090.787476" x2="998.204895" y2="1090.787476" style="stroke: green; stroke-width: 0.200000"/>
   <line x1="1026.881592" y1="1089.787476" x2="999.204834" y2="1089.787476" style="stroke: green; stroke-width: 0.200000"/>
   <line x1="1026.881592" y1="1088.787598" x2="1000.204834" y2="1088.787598" style="stroke: green; stroke-width: 0.200000"/>
   <line x1="1026.881592" y1="1087.787476" x2="1001.204834" y2="1087.787476" style="stroke: green; stroke-width: 0.200000"/>
   <line x1="1026.881592" y1="1086.787476" x2="1002.204895" y2="1086.787476" style="stroke: green; stroke-width: 0.200000"/>
   <line x1="1026.881592" y1="1085.787476" x2="1003.204895" y2="1085.787476" style="stroke: green; stroke-width: 0.200000"/>
   <line x1="1026.881592" y1="1084.787476" x2="1004.204834" y2="1084.787476" style="stroke: green; stroke-width: 0.200000"/>
   <line x1="1026.881592" y1="1083.787598" x2="1005.204834" y2="1083.787598" style="stroke: green; stroke-width: 0.200000"/>
   <line x1="1026.881592" y1="1082.787476" x2="1006.204834" y2="1082.787476" style="stroke: green; stroke-width: 0.200000"/>
   <line x1="1026.881592" y1="1081.787476" x2="1007.204895" y2="1081.787476" style="stroke: green; stroke-width: 0.200000"/>
   <line x1="1026.881592" y1="1080.787476" x2="1008.204895" y2="1080.787476" style="stroke: green; stroke-width: 0.200000"/>
   <line x1="1026.881592" y1="1079.787476" x2="1009.204834" y2="1079.787476" style="stroke: green; stroke-width: 0.200000"/>
   <line x1="1026.881592" y1="1078.787598" x2="1010.204834" y2="1078.787598" style="stroke: green; stroke-width: 0.200000"/>
   <line x1="1027.037598" y1="1101.787476" x2="1026.981567" y2="1101.787476" style="stroke: green; stroke-width: 0.200000"/>
   <line x1="1028.016479" y1="1100.787476" x2="1026.981567" y2="1100.787476" style="stroke: green; stroke-width: 0.200000"/>
   <line x1="1028.995483" y1="1099.787476" x2="1026.981567" y2="1099.787476" style="stroke: green; stroke-width: 0.200000"/>
   <line x1="1029.974243" y1="1098.787598" x2="1026.981567" y2="1098.787598" style="stroke: green; stroke-width: 0.200000"/>
   <line x1="1030.944702" y1="1097.787476" x2="1026.981567" y2="1097.787476" style="stroke: green; stroke-width: 0.200000"/>
   <line x1="1031.794922" y1="1096.787476" x2="1026.981567" y2="1096.787476" style="stroke: green; stroke-width: 0.200000"/>
   <line x1="1032.645020" y1="1095.787476" x2="1026.981567" y2="1095.787476" style="stroke: green; stroke-width: 0.200000"/>
   <line x1="1033.369019" y1="1094.787476" x2="1026.981567" y2="1094.787476" style="stroke: green; stroke-width: 0.200000"/>
   <line x1="1034.006836" y1="1093.787598" x2="1026.981567" y2="1093.787598" style="stroke: green; stroke-width: 0.200000"/>
   <line x1="1034.563843" y1="1092.787476" x2="1026.981567" y2="1092.787476" style="stroke: green; stroke-width: 0.200000"/>
   <line x1="1035.041870" y1="1091.787476" x2="1026.981567" y2="1091.787476" style="stroke: green; stroke-width: 0.200000"/>
   <line x1="1035.488037" y1="1090.787476" x2="1026.981567" y2="1090.787476" style="stroke: green; stroke-width: 0.200000"/>
   <line x1="1035.835571" y1="1089.787476" x2="1026.981567" y2="1089.787476" style="stroke: green; stroke-width: 0.200000"/>
   <line x1="1036.146729" y1="1088.787598" x2="1026.981567" y2="1088.787598" style="stroke: green; stroke-width: 0.200000"/>
   <line x1="1036.415894" y1="1087.787476" x2="1026.981567" y2="1087.787476" style="stroke: green; stroke-width: 0.200000"/>
   <line x1="1036.615479" y1="1086.787476" x2="1026.981567" y2="1086.787476" style="stroke: green; stroke-width: 0.200000"/>
   <line x1="1036.947388" y1="1085.787476" x2="1026.981567" y2="1085.787476" style="stroke: green; stroke-width: 0.200000"/>
   <line x1="1037.287109" y1="1084.787476" x2="1026.981567" y2="1084.787476" style="stroke: green; stroke-width: 0.200000"/>
   <line x1="1037.572998" y1="1083.787598" x2="1026.981567" y2="1083.787598" style="stroke: green; stroke-width: 0.200000"/>
   <line x1="1037.858521" y1="1082.787476" x2="1026.981567" y2="1082.787476" style="stroke: green; stroke-width: 0.200000"/>
   <line x1="1038.144043" y1="1081.787476" x2="1026.981567" y2="1081.787476" style="stroke: green; stroke-width: 0.200000"/>
   <line x1="1038.538208" y1="1080.787476" x2="1026.981567" y2="1080.787476" style="stroke: green; stroke-width: 0.200000"/>
   <line x1="1038.947388" y1="1079.787476" x2="1026.981567" y2="1079.787476" style="stroke: green; stroke-width: 0.200000"/>
   <line x1="1039.309692" y1="1078.787598" x2="1026.981567" y2="1078.787598" style="stroke: green; stroke-width: 0.200000"/>
   <line x1="964.138306" y1="1060.085205" x2="958.009888" y2="1060.085205" style="stroke: green; stroke-width: 0.200000"/>
   <line x1="965.560303" y1="1059.085205" x2="956.612915" y2="1059.085205" style="stroke: green; stroke-width: 0.200000"/>
   <line x1="966.425110" y1="1058.085205" x2="955.751831" y2="1058.085205" style="stroke: green; stroke-width: 0.200000"/>
   <line x1="967.012390" y1="1057.085205" x2="955.166321" y2="1057.085205" style="stroke: green; stroke-width: 0.200000"/>
   <line x1="967.390503" y1="1056.085205" x2="954.786438" y2="1056.085205" style="stroke: green; stroke-width: 0.200000"/>
   <line x1="967.594971" y1="1055.085205" x2="954.577271" y2="1055.085205" style="stroke: green; stroke-width: 0.200000"/>
   <line x1="967.643433" y1="1054.085205" x2="954.522705" y2="1054.085205" style="stroke: green; stroke-width: 0.200000"/>
   <line x1="967.539734" y1="1053.085205" x2="954.624023" y2="1053.085205" style="stroke: green; stroke-width: 0.200000"/>
   <line x1="967.283020" y1="1052.085205" x2="954.895630" y2="1052.085205" style="stroke: green; stroke-width: 0.200000"/>
   <line x1="966.824707" y1="1051.085205" x2="955.342285" y2="1051.085205" style="stroke: green; stroke-width: 0.200000"/>
   <line x1="966.130066" y1="1050.085205" x2="956.019165" y2="1050.085205" style="stroke: green; stroke-width: 0.200000"/>
   <line x1="965.119019" y1="1049.085205" x2="957.079956" y2="1049.085205" style="stroke: green; stroke-width: 0.200000"/>
   <line x1="963.272705" y1="1048.085205" x2="958.905945" y2="1048.085205" style="stroke: green; stroke-width: 0.200000"/>
   <line x1="891.676880" y1="1034.959595" x2="876.328857" y2="1034.959595" style="stroke: green; stroke-width: 0.200000"/>
   <line x1="892.676941" y1="1033.959717" x2="876.052246" y2="1033.959717" style="stroke: green; stroke-width: 0.200000"/>
   <line x1="893.676880" y1="1032.959717" x2="875.841736" y2="1032.959717" style="stroke: green; stroke-width: 0.200000"/>
   <line x1="894.676880" y1="1031.959717" x2="875.703369" y2="1031.959717" style="stroke: green; stroke-width: 0.200000"/>
   <line x1="895.676880" y1="1030.959717" x2="875.666382" y2="1030.959717" style="stroke: green; stroke-width: 0.200000"/>
   <line x1="896.676880" y1="1029.959595" x2="875.701416" y2="1029.959595" style="stroke: green; stroke-width: 0.200000"/>
   <line x1="897.676941" y1="1028.959717" x2="875.835571" y2="1028.959717" style="stroke: green; stroke-width: 0.200000"/>
   <line x1="898.676880" y1="1027.959717" x2="876.046875" y2="1027.959717" style="stroke: green; stroke-width: 0.200000"/>
   <line x1="899.676880" y1="1026.959717" x2="876.362183" y2="1026.959717" style="stroke: green; stroke-width: 0.200000"/>
   <line x1="900.676880" y1="1025.959717" x2="876.774048" y2="1025.959717" style="stroke: green; stroke-width: 0.200000"/>
   <line x1="901.676880" y1="1024.959595" x2="877.296143" y2="1024.959595" style="stroke: green; stroke-width: 0.200000"/>
   <line x1="902.676941" y1="1023.959656" x2="877.831421" y2="1023.959656" style="stroke: green; stroke-width: 0.200000"/>
   <line x1="903.676880" y1="1022.959656" x2="878.366638" y2="1022.959656" style="stroke: green; stroke-width: 0.200000"/>
   <line x1="904.676880" y1="1021.959717" x2="878.913574" y2="1021.959717" style="stroke: green; stroke-width: 0.200000"/>
   <line x1="905.676880" y1="1020.959717" x2="879.533081" y2="1020.959717" style="stroke: green; stroke-width: 0.200000"/>
   <line x1="906.676880" y1="1019.959656" x2="880.152649" y2="1019.959656" style="stroke: green; stroke-width: 0.200000"/>
   <line x1="907.676941" y1="1018.959656" x2="880.772217" y2="1018.959656" style="stroke: green; stroke-width: 0.200000"/>
   <line x1="908.676880" y1="1017.959656" x2="881.391846" y2="1017.959656" style="stroke: green; stroke-width: 0.200000"/>
   <line x1="909.676880" y1="1016.959717" x2="882.087158" y2="1016.959717" style="stroke: green; stroke-width: 0.200000"/>
   <line x1="910.676880" y1="1015.959717" x2="882.803894" y2="1015.959717" style="stroke: green; stroke-width: 0.200000"/>
   <line x1="911.676880" y1="1014.959656" x2="883.520569" y2="1014.959656" style="stroke: green; stroke-width: 0.200000"/>
   <line x1="912.676941" y1="1013.959656" x2="884.237366" y2="1013.959656" style="stroke: green; stroke-width: 0.200000"/>
   <line x1="913.676880" y1="1012.959656" x2="885.011108" y2="1012.959656" style="stroke: green; stroke-width: 0.200000"/>
   <line x1="914.676880" y1="1011.959717" x2="885.823303" y2="1011.959717" style="stroke: green; stroke-width: 0.200000"/>
   <line x1="915.676880" y1="1010.959717" x2="886.635376" y2="1010.959717" style="stroke: green; stroke-width: 0.200000"/>
   <line x1="916.676880" y1="1009.959656" x2="887.447449" y2="1009.959656" style="stroke: green; stroke-width: 0.200000"/>
   <line x1="917.676941" y1="1008.959656" x2="888.311768" y2="1008.959656" style="stroke: green; stroke-width: 0.200000"/>
   <line x1="918.676880" y1="1007.959656" x2="889.211975" y2="1007.959656" style="stroke: green; stroke-width: 0.200000"/>
   <line x1="919.676880" y1="1006.959717" x2="890.112183" y2="1006.959717" style="stroke: green; stroke-width: 0.200000"/>
   <line x1="920.676880" y1="1005.959717" x2="891.012451" y2="1005.959717" style="stroke: green; stroke-width: 0.200000"/>
   <line x1="921.676880" y1="1004.959656" x2="891.970154" y2="1004.959656" style="stroke: green; stroke-width: 0.200000"/>
   <line x1="922.676880" y1="1003.959656" x2="892.946655" y2="1003.959656" style="stroke: green; stroke-width: 0.200000"/>
   <line x1="923.676880" y1="1002.959656" x2="893.923035" y2="1002.959656" style="stroke: green; stroke-width: 0.200000"/>
   <line x1="924.676880" y1="1001.959717" x2="894.903442" y2="1001.959717" style="stroke: green; stroke-width: 0.200000"/>
   <line x1="925.659790" y1="1000.959717" x2="895.950562" y2="1000.959717" style="stroke: green; stroke-width: 0.200000"/>
   <line x1="925.659790" y1="999.959656" x2="896.997681" y2="999.959656" style="stroke: green; stroke-width: 0.200000"/>
   <line x1="925.659790" y1="998.959656" x2="898.044800" y2="998.959656" style="stroke: green; stroke-width: 0.200000"/>
   <line x1="925.659790" y1="997.959656" x2="899.091919" y2="997.959656" style="stroke: green; stroke-width: 0.200000"/>
   <line x1="925.659790" y1="996.959717" x2="900.139099" y2="996.959717" style="stroke: green; stroke-width: 0.200000"/>
   <line x1="925.659790" y1="995.959717" x2="901.186218" y2="995.959717" style="stroke: green; stroke-width: 0.200000"/>
   <line x1="925.659790" y1="994.959656" x2="902.410767" y2="994.959656" style="stroke: green; stroke-width: 0.200000"/>
   <line x1="925.659790" y1="993.959656" x2="903.770752" y2="993.959656" style="stroke: green; stroke-width: 0.200000"/>
   <line x1="925.659790" y1="992.959656" x2="905.449158" y2="992.959656" style="stroke: green; stroke-width: 0.200000"/>
   <line x1="925.659790" y1="991.959717" x2="907.757263" y2="991.959717" style="stroke: green; stroke-width: 0.200000"/>
   <line x1="925.659790" y1="990.959717" x2="911.578857" y2="990.959717" style="stroke: green; stroke-width: 0.200000"/>
   <line x1="925.659790" y1="989.959656" x2="916.606689" y2="989.959656" style="stroke: green; stroke-width: 0.200000"/>
   <line x1="925.659790" y1="988.959656" x2="921.276367" y2="988.959656" style="stroke: green; stroke-width: 0.200000"/>
   <line x1="925.659790" y1="987.959656" x2="925.461121" y2="987.959656" style="stroke: green; stroke-width: 0.200000"/>
   <line x1="926.676880" y1="999.959656" x2="925.759766" y2="999.959656" style="stroke: green; stroke-width: 0.200000"/>
   <line x1="927.676880" y1="998.959656" x2="925.759766" y2="998.959656" style="stroke: green; stroke-width: 0.200000"/>
   <line x1="928.676880" y1="997.959656" x2="925.759766" y2="997.959656" style="stroke: green; stroke-width: 0.200000"/>
   <line x1="935.444580" y1="996.959717" x2="935.321045" y2="996.959717" style="stroke: green; stroke-width: 0.200000"/>
   <line x1="929.676880" y1="996.959717" x2="925.759766" y2="996.959717" style="stroke: green; stroke-width: 0.200000"/>
   <line x1="936.444580" y1="995.959717" x2="934.321045" y2="995.959717" style="stroke: green; stroke-width: 0.200000"/>
   <line x1="930.676880" y1="995.959717" x2="925.759766" y2="995.959717" style="stroke: green; stroke-width: 0.200000"/>
   <line x1="937.444519" y1="994.959656" x2="933.320984" y2="994.959656" style="stroke: green; stroke-width: 0.200000"/>
   <line x1="931.676880" y1="994.959656" x2="925.759766" y2="994.959656" style="stroke: green; stroke-width: 0.200000"/>
   <line x1="938.444519" y1="993.959656" x2="925.759766" y2="993.959656" style="stroke: green; stroke-width: 0.200000"/>
   <line x1="939.444519" y1="992.959656" x2="925.759766" y2="992.959656" style="stroke: green; stroke-width: 0.200000"/>
   <line x1="940.444580" y1="991.959717" x2="925.759766" y2="991.959717" style="stroke: green; stroke-width: 0.200000"/>
   <line x1="941.444580" y1="990.959717" x2="925.759766" y2="990.959717" style="stroke: green; stroke-width: 0.200000"/>
   <line x1="940.771851" y1="989.959656" x2="925.759766" y2="989.959656" style="stroke: green; stroke-width: 0.200000"/>
   <line x1="939.771851" y1="988.959656" x2="925.759766" y2="988.959656" style="stroke: green; stroke-width: 0.200000"/>
   <line x1="938.771912" y1="987.959656" x2="925.759766" y2="987.959656" style="stroke: green; stroke-width: 0.200000"/>
   <line x1="937.771851" y1="986.959717" x2="929.444214" y2="986.959717" style="stroke: green; stroke-width: 0.200000"/>
   <line x1="936.581177" y1="985.959717" x2="934.127563" y2="985.959717" style="stroke: green; stroke-width: 0.200000"/>
   <line x1="886.598022" y1="1046.959717" x2="885.863953" y2="1046.959717" style="stroke: green; stroke-width: 0.200000"/>
   <line x1="887.598022" y1="1045.959717" x2="884.892883" y2="1045.959717" style="stroke: green; stroke-width: 0.200000"/>
   <line x1="886.991272" y1="1044.959595" x2="883.921875" y2="1044.959595" style="stroke: green; stroke-width: 0.200000"/>
   <line x1="886.009766" y1="1043.959717" x2="882.950928" y2="1043.959717" style="stroke: green; stroke-width: 0.200000"/>
   <line x1="885.028320" y1="1042.959717" x2="882.008118" y2="1042.959717" style="stroke: green; stroke-width: 0.200000"/>
   <line x1="884.676880" y1="1041.959717" x2="881.066895" y2="1041.959717" style="stroke: green; stroke-width: 0.200000"/>
   <line x1="885.676880" y1="1040.959717" x2="880.125671" y2="1040.959717" style="stroke: green; stroke-width: 0.200000"/>
   <line x1="886.676880" y1="1039.959595" x2="879.227844" y2="1039.959595" style="stroke: green; stroke-width: 0.200000"/>
   <line x1="887.676941" y1="1038.959717" x2="878.432373" y2="1038.959717" style="stroke: green; stroke-width: 0.200000"/>
   <line x1="888.676880" y1="1037.959717" x2="877.760315" y2="1037.959717" style="stroke: green; stroke-width: 0.200000"/>
   <line x1="889.676880" y1="1036.959717" x2="877.178833" y2="1036.959717" style="stroke: green; stroke-width: 0.200000"/>
   <line x1="890.676880" y1="1035.959717" x2="876.712708" y2="1035.959717" style="stroke: green; stroke-width: 0.200000"/>
   <line x1="1044.812500" y1="979.456543" x2="1038.684448" y2="979.456543" style="stroke: green; stroke-width: 0.200000"/>
   <line x1="1046.234619" y1="978.456482" x2="1037.287354" y2="978.456482" style="stroke: green; stroke-width: 0.200000"/>
   <line x1="1047.099365" y1="977.456543" x2="1036.426270" y2="977.456543" style="stroke: green; stroke-width: 0.200000"/>
   <line x1="1047.686646" y1="976.456543" x2="1035.849487" y2="976.456543" style="stroke: green; stroke-width: 0.200000"/>
   <line x1="1048.064819" y1="975.456543" x2="1035.460815" y2="975.456543" style="stroke: green; stroke-width: 0.200000"/>
   <line x1="1048.269165" y1="974.456543" x2="1035.251587" y2="974.456543" style="stroke: green; stroke-width: 0.200000"/>
   <line x1="1048.317749" y1="973.456482" x2="1035.197021" y2="973.456482" style="stroke: green; stroke-width: 0.200000"/>
   <line x1="1048.214111" y1="972.456543" x2="1035.298340" y2="972.456543" style="stroke: green; stroke-width: 0.200000"/>
   <line x1="1047.957397" y1="971.456543" x2="1035.569824" y2="971.456543" style="stroke: green; stroke-width: 0.200000"/>
   <line x1="1047.499023" y1="970.456543" x2="1036.016479" y2="970.456543" style="stroke: green; stroke-width: 0.200000"/>
   <line x1="1046.804443" y1="969.456543" x2="1036.693359" y2="969.456543" style="stroke: green; stroke-width: 0.200000"/>
   <line x1="1045.793335" y1="968.456482" x2="1037.754028" y2="968.456482" style="stroke: green; stroke-width: 0.200000"/>
   <line x1="1043.947266" y1="967.456543" x2="1039.580078" y2="967.456543" style="stroke: green; stroke-width: 0.200000"/>
   <line x1="990.208191" y1="936.428345" x2="975.613159" y2="936.428345" style="stroke: green; stroke-width: 0.200000"/>
   <line x1="991.208191" y1="935.428406" x2="975.834900" y2="935.428406" style="stroke: green; stroke-width: 0.200000"/>
   <line x1="992.208191" y1="934.428345" x2="976.071472" y2="934.428345" style="stroke: green; stroke-width: 0.200000"/>
   <line x1="993.208130" y1="933.428345" x2="976.321411" y2="933.428345" style="stroke: green; stroke-width: 0.200000"/>
   <line x1="994.208252" y1="932.428345" x2="976.571533" y2="932.428345" style="stroke: green; stroke-width: 0.200000"/>
   <line x1="995.208191" y1="931.428345" x2="976.816101" y2="931.428345" style="stroke: green; stroke-width: 0.200000"/>
   <line x1="996.208191" y1="930.428406" x2="977.030151" y2="930.428406" style="stroke: green; stroke-width: 0.200000"/>
   <line x1="997.208191" y1="929.428345" x2="977.244202" y2="929.428345" style="stroke: green; stroke-width: 0.200000"/>
   <line x1="998.208130" y1="928.428345" x2="977.416992" y2="928.428345" style="stroke: green; stroke-width: 0.200000"/>
   <line x1="999.208252" y1="927.428345" x2="977.608093" y2="927.428345" style="stroke: green; stroke-width: 0.200000"/>
   <line x1="1000.208191" y1="926.428345" x2="977.799133" y2="926.428345" style="stroke: green; stroke-width: 0.200000"/>
   <line x1="1001.208191" y1="925.428406" x2="977.990234" y2="925.428406" style="stroke: green; stroke-width: 0.200000"/>
   <line x1="1002.208191" y1="924.428345" x2="978.172913" y2="924.428345" style="stroke: green; stroke-width: 0.200000"/>
   <line x1="1003.208130" y1="923.428345" x2="978.341125" y2="923.428345" style="stroke: green; stroke-width: 0.200000"/>
   <line x1="1004.208130" y1="922.428345" x2="978.538513" y2="922.428345" style="stroke: green; stroke-width: 0.200000"/>
   <line x1="1005.208191" y1="921.428345" x2="978.776733" y2="921.428345" style="stroke: green; stroke-width: 0.200000"/>
   <line x1="1006.208191" y1="920.428406" x2="979.014954" y2="920.428406" style="stroke: green; stroke-width: 0.200000"/>
   <line x1="1007.208191" y1="919.428345" x2="979.339661" y2="919.428345" style="stroke: green; stroke-width: 0.200000"/>
   <line x1="1008.208130" y1="918.428345" x2="979.741089" y2="918.428345" style="stroke: green; stroke-width: 0.200000"/>
   <line x1="1009.208130" y1="917.428345" x2="980.161682" y2="917.428345" style="stroke: green; stroke-width: 0.200000"/>
   <line x1="1010.208191" y1="916.428345" x2="980.719604" y2="916.428345" style="stroke: green; stroke-width: 0.200000"/>
   <line x1="1011.208191" y1="915.428406" x2="981.319824" y2="915.428406" style="stroke: green; stroke-width: 0.200000"/>
   <line x1="1012.208191" y1="914.428345" x2="982.022583" y2="914.428345" style="stroke: green; stroke-width: 0.200000"/>
   <line x1="1013.208130" y1="913.428345" x2="982.787781" y2="913.428345" style="stroke: green; stroke-width: 0.200000"/>
   <line x1="1014.208130" y1="912.428345" x2="983.661560" y2="912.428345" style="stroke: green; stroke-width: 0.200000"/>
   <line x1="1015.208191" y1="911.428345" x2="984.582581" y2="911.428345" style="stroke: green; stroke-width: 0.200000"/>
   <line x1="1016.208191" y1="910.428406" x2="985.503662" y2="910.428406" style="stroke: green; stroke-width: 0.200000"/>
   <line x1="1017.208191" y1="909.428345" x2="986.424683" y2="909.428345" style="stroke: green; stroke-width: 0.200000"/>
   <line x1="1018.208130" y1="908.428345" x2="987.345703" y2="908.428345" style="stroke: green; stroke-width: 0.200000"/>
   <line x1="1019.208130" y1="907.428345" x2="988.284363" y2="907.428345" style="stroke: green; stroke-width: 0.200000"/>
   <line x1="1020.208191" y1="906.428345" x2="989.303467" y2="906.428345" style="stroke: green; stroke-width: 0.200000"/>
   <line x1="1021.208191" y1="905.428406" x2="990.322571" y2="905.428406" style="stroke: green; stroke-width: 0.200000"/>
   <line x1="1022.031555" y1="904.428345" x2="991.341614" y2="904.428345" style="stroke: green; stroke-width: 0.200000"/>
   <line x1="1022.031555" y1="903.428345" x2="992.360718" y2="903.428345" style="stroke: green; stroke-width: 0.200000"/>
   <line x1="1022.031555" y1="902.428345" x2="993.379822" y2="902.428345" style="stroke: green; stroke-width: 0.200000"/>
   <line x1="1022.031555" y1="901.428345" x2="994.398865" y2="901.428345" style="stroke: green; stroke-width: 0.200000"/>
   <line x1="1022.031555" y1="900.428406" x2="995.500854" y2="900.428406" style="stroke: green; stroke-width: 0.200000"/>
   <line x1="1022.031555" y1="899.428345" x2="996.660400" y2="899.428345" style="stroke: green; stroke-width: 0.200000"/>
   <line x1="1022.031555" y1="898.428345" x2="997.819885" y2="898.428345" style="stroke: green; stroke-width: 0.200000"/>
   <line x1="1022.031555" y1="897.428345" x2="998.979431" y2="897.428345" style="stroke: green; stroke-width: 0.200000"/>
   <line x1="1022.031555" y1="896.428345" x2="1000.138855" y2="896.428345" style="stroke: green; stroke-width: 0.200000"/>
   <line x1="1022.031555" y1="895.428406" x2="1001.298340" y2="895.428406" style="stroke: green; stroke-width: 0.200000"/>
   <line x1="1022.031555" y1="894.428345" x2="1002.584961" y2="894.428345" style="stroke: green; stroke-width: 0.200000"/>
   <line x1="1022.031555" y1="893.428345" x2="1003.877930" y2="893.428345" style="stroke: green; stroke-width: 0.200000"/>
   <line x1="1022.031555" y1="892.428345" x2="1005.170959" y2="892.428345" style="stroke: green; stroke-width: 0.200000"/>
   <line x1="1022.031555" y1="891.428345" x2="1006.510132" y2="891.428345" style="stroke: green; stroke-width: 0.200000"/>
   <line x1="1022.031555" y1="890.428406" x2="1007.874146" y2="890.428406" style="stroke: green; stroke-width: 0.200000"/>
   <line x1="1022.031555" y1="889.428345" x2="1009.303711" y2="889.428345" style="stroke: green; stroke-width: 0.200000"/>
   <line x1="1022.031555" y1="888.428345" x2="1011.154663" y2="888.428345" style="stroke: green; stroke-width: 0.200000"/>
   <line x1="1020.927063" y1="887.428345" x2="1014.015808" y2="887.428345" style="stroke: green; stroke-width: 0.200000"/>
   <line x1="1022.208191" y1="904.428345" x2="1022.131592" y2="904.428345" style="stroke: green; stroke-width: 0.200000"/>
   <line x1="1023.208130" y1="903.428345" x2="1022.131592" y2="903.428345" style="stroke: green; stroke-width: 0.200000"/>
   <line x1="1024.208130" y1="902.428345" x2="1022.131592" y2="902.428345" style="stroke: green; stroke-width: 0.200000"/>
   <line x1="1025.208130" y1="901.428345" x2="1022.131592" y2="901.428345" style="stroke: green; stroke-width: 0.200000"/>
   <line x1="1026.208252" y1="900.428406" x2="1022.131592" y2="900.428406" style="stroke: green; stroke-width: 0.200000"/>
   <line x1="1034.129395" y1="899.428345" x2="1033.062744" y2="899.428345" style="stroke: green; stroke-width: 0.200000"/>
   <line x1="1027.208130" y1="899.428345" x2="1022.131592" y2="899.428345" style="stroke: green; stroke-width: 0.200000"/>
   <line x1="1035.129272" y1="898.428345" x2="1032.115601" y2="898.428345" style="stroke: green; stroke-width: 0.200000"/>
   <line x1="1028.208130" y1="898.428345" x2="1022.131592" y2="898.428345" style="stroke: green; stroke-width: 0.200000"/>
   <line x1="1034.234863" y1="897.428345" x2="1031.168457" y2="897.428345" style="stroke: green; stroke-width: 0.200000"/>
   <line x1="1029.208130" y1="897.428345" x2="1022.131592" y2="897.428345" style="stroke: green; stroke-width: 0.200000"/>
   <line x1="1033.277710" y1="896.428345" x2="1030.221191" y2="896.428345" style="stroke: green; stroke-width: 0.200000"/>
   <line x1="1030.208130" y1="896.428345" x2="1022.131592" y2="896.428345" style="stroke: green; stroke-width: 0.200000"/>
   <line x1="1032.320435" y1="895.428406" x2="1022.131592" y2="895.428406" style="stroke: green; stroke-width: 0.200000"/>
   <line x1="1031.363281" y1="894.428345" x2="1022.131592" y2="894.428345" style="stroke: green; stroke-width: 0.200000"/>
   <line x1="1030.406250" y1="893.428345" x2="1022.131592" y2="893.428345" style="stroke: green; stroke-width: 0.200000"/>
   <line x1="1029.448975" y1="892.428345" x2="1022.131592" y2="892.428345" style="stroke: green; stroke-width: 0.200000"/>
   <line x1="1028.370850" y1="891.428345" x2="1022.131592" y2="891.428345" style="stroke: green; stroke-width: 0.200000"/>
   <line x1="1027.232666" y1="890.428406" x2="1022.131592" y2="890.428406" style="stroke: green; stroke-width: 0.200000"/>
   <line x1="1025.791626" y1="889.428345" x2="1022.131592" y2="889.428345" style="stroke: green; stroke-width: 0.200000"/>
   <line x1="1023.874512" y1="888.428345" x2="1022.131592" y2="888.428345" style="stroke: green; stroke-width: 0.200000"/>
   <line x1="977.975830" y1="954.428345" x2="976.770935" y2="954.428345" style="stroke: green; stroke-width: 0.200000"/>
   <line x1="978.975830" y1="953.428345" x2="975.770935" y2="953.428345" style="stroke: green; stroke-width: 0.200000"/>
   <line x1="979.975891" y1="952.428345" x2="974.770996" y2="952.428345" style="stroke: green; stroke-width: 0.200000"/>
   <line x1="980.975891" y1="951.428345" x2="973.770996" y2="951.428345" style="stroke: green; stroke-width: 0.200000"/>
   <line x1="981.975830" y1="950.428406" x2="972.777649" y2="950.428406" style="stroke: green; stroke-width: 0.200000"/>
   <line x1="982.975830" y1="949.428345" x2="972.198364" y2="949.428345" style="stroke: green; stroke-width: 0.200000"/>
   <line x1="983.975891" y1="948.428345" x2="972.117676" y2="948.428345" style="stroke: green; stroke-width: 0.200000"/>
   <line x1="983.118896" y1="947.428345" x2="972.411621" y2="947.428345" style="stroke: green; stroke-width: 0.200000"/>
   <line x1="982.118896" y1="946.428345" x2="972.758667" y2="946.428345" style="stroke: green; stroke-width: 0.200000"/>
   <line x1="981.208191" y1="945.428406" x2="973.105530" y2="945.428406" style="stroke: green; stroke-width: 0.200000"/>
   <line x1="982.208252" y1="944.428345" x2="973.398071" y2="944.428345" style="stroke: green; stroke-width: 0.200000"/>
   <line x1="983.208252" y1="943.428345" x2="973.681946" y2="943.428345" style="stroke: green; stroke-width: 0.200000"/>
   <line x1="984.208252" y1="942.428345" x2="973.948303" y2="942.428345" style="stroke: green; stroke-width: 0.200000"/>
   <line x1="985.208191" y1="941.428345" x2="974.211548" y2="941.428345" style="stroke: green; stroke-width: 0.200000"/>
   <line x1="986.208191" y1="940.428406" x2="974.508667" y2="940.428406" style="stroke: green; stroke-width: 0.200000"/>
   <line x1="987.208191" y1="939.428345" x2="974.805786" y2="939.428345" style="stroke: green; stroke-width: 0.200000"/>
   <line x1="988.208252" y1="938.428345" x2="975.102844" y2="938.428345" style="stroke: green; stroke-width: 0.200000"/>
   <line x1="989.208252" y1="937.428345" x2="975.359497" y2="937.428345" style="stroke: green; stroke-width: 0.200000"/>
   <line x1="1118.827148" y1="1010.884155" x2="1118.827026" y2="1010.884155" style="stroke: green; stroke-width: 0.200000"/>
   <path d="M 1015.39  1113.07  1014.16  1113.56  1012.25  1114.17  1010.28  1114.65  1009.24  1114.84  1008.16  1114.98  1005.95  1115.14  1003.72  1115.17  1001.48  1115.07  999.253  1114.84  997.669  1114.59  996.992  1114.46  994.665  1113.89  992.4  1113.21  990.259  1112.44  983.919  1109.89  974.239  1105.85  978.508  1101.58  981.504  1102.22  984.166  1102.71  1011.56  1075.32  1008.45  1072.2  1059.23  1021.42  1062.34  1024.53  1103.51  983.365  1100.68  979.403  1104.36  975.725  1107.32  979.432  1108.88  981.382  1113.3  987.094  1114.75  989.191  1116.11  991.407  1117.33  993.712  1118.27  995.791  1118.39  996.094  1119.16  998.428  1119.76  1000.79  1120.19  1003.16  1120.45  1005.52  1120.52  1007.85  1120.53  1008.53  1120.44  1010.17  1120.31  1011.14  1120.15  1012.01  " style="fill: none; stroke: darkmagenta; stroke-width: 0.200000; fill-type: evenodd"  fill-opacity="1.000000" />
   <path d="M 1120.15  1012.01  1120.02  1012.73  1119.59  1014.49  1118.91  1016.51  1118.07  1018.43  1117.07  1020.23  1116.81  1020.61  1115.95  1021.81  1115.93  1021.85  1112.33  1026.23  1110.36  1028.6  1104.45  1034.87  1101.05  1038.17  1100.24  1038.92  1097.97  1040.77  1095.37  1042.26  1092.52  1043.39  1089.51  1044.14  1084.45  1045.18  1083.62  1045.32  1077.99  1046.62  1072.81  1048.32  1071.62  1048.84  1068.83  1049.95  1067.89  1050.28  1063.4  1052.58  1059.3  1055.24  1055.55  1058.22  1052.1  1061.48  1050.23  1063.58  1048.93  1065  1047.1  1067.46  1046.07  1068.79  1044.42  1071.57  1043.57  1072.9  1042.17  1075.91  1041.42  1077.35  1040.29  1080.48  1039.61  1082.11  1038.72  1085.23  1038.08  1087.12  1037.87  1088.15  1037.7  1088.8  1037.38  1089.91  1036.82  1091.52  1036.09  1093.08  1035.58  1094.11  1034.44  1095.89  1033.99  1096.53  1032  1098.86  1025.82  1105.17  1022.11  1108.91  1021.14  1109.72  1020.82  1109.97  1019.34  1111.02  1017.72  1111.98  1015.99  1112.83  1015.39  1113.07  " style="fill: none; stroke: red; stroke-width: 0.200000; fill-type: evenodd"  fill-opacity="1.000000" />
   <path d="M 1106.54  980.056  1108.1  982.001  1112.49  987.686  1113.92  989.738  1115.24  991.902  1116.43  994.152  1117.35  996.185  1117.45  996.44  1118.2  998.708  1118.78  1001  1119.2  1003.3  1119.45  1005.59  1119.52  1007.87  1119.53  1008.5  1119.44  1010.08  1119.32  1010.98  1119.05  1012.53  1118.63  1014.21  1117.98  1016.15  1117.17  1017.99  1116.22  1019.71  1115.99  1020.04  1115.02  1021.39  1111.56  1025.6  1109.61  1027.94  1103.73  1034.16  1100.36  1037.45  1099.58  1038.17  1097.4  1039.94  1094.93  1041.36  1092.22  1042.44  1089.29  1043.16  1084.26  1044.19  1083.42  1044.34  1077.72  1045.66  1072.46  1047.39  1071.23  1047.91  1068.48  1049.01  1067.49  1049.36  1062.9  1051.71  1058.71  1054.43  1054.89  1057.46  1051.38  1060.78  1049.48  1062.91  1048.16  1064.36  1046.31  1066.85  1045.24  1068.23  1043.57  1071.04  1042.69  1072.42  1041.27  1075.47  1040.51  1076.95  1039.36  1080.12  1038.67  1081.78  1037.77  1084.93  1037.11  1086.86  1036.9  1087.93  1036.74  1088.54  1036.43  1089.61  1035.89  1091.15  1035.19  1092.65  1034.71  1093.62  1033.61  1095.33  1033.2  1095.91  1031.26  1098.19  1025.11  1104.47  1021.43  1108.18  1020.52  1108.94  1020.23  1109.16  1018.79  1110.18  1017.24  1111.1  1015.58  1111.91  1013.82  1112.61  1011.98  1113.2  1010.07  1113.67  1009.08  1113.85  1008.06  1113.99  1005.91  1114.14  1003.73  1114.17  1001.55  1114.07  999.382  1113.85  997.841  1113.6  997.204  1113.48  994.928  1112.93  992.713  1112.26  990.615  1111.51  984.298  1108.96  976.001  1105.5  978.83  1102.67  981.309  1103.2  984.502  1103.78  1012.97  1075.32  1009.86  1072.2  1059.23  1022.83  1062.34  1025.94  1104.81  983.473  1101.99  979.512  1104.28  977.223  1106.54  980.056  " style="fill: none; stroke: black; stroke-width: 0.200000; fill-type: evenodd"  fill-opacity="1.000000" />
   <path d="M 961.494  1046.23  962.115  1046.25  963.44  1046.54  964.7  1047.04  965.857  1047.74  966.805  1048.55  967.355  1049.19  967.413  1049.29  967.68  1049.6  968.33  1050.68  968.668  1051.51  968.828  1051.93  969.111  1053.26  969.167  1054.62  968.994  1055.97  968.599  1057.27  967.99  1058.48  967.472  1059.21  967.192  1059.57  966.555  1060.21  966.218  1060.52  965.485  1061.04  965.1  1061.29  964.29  1061.68  963.869  1061.86  963.005  1062.11  962.559  1062.22  961.665  1062.32  961.208  1062.35  960.31  1062.31  959.854  1062.26  958.976  1062.06  958.535  1061.94  957.701  1061.6  957.288  1061.4  956.523  1060.93  956.151  1060.67  955.542  1060.14  955.222  1059.82  954.684  1059.2  953.949  1058.05  953.417  1056.81  953.101  1055.49  953.01  1054.13  953.147  1052.79  953.508  1051.48  953.949  1050.52  954.08  1050.25  954.853  1049.13  955.801  1048.16  956.898  1047.36  958.112  1046.76  959.411  1046.37  960.755  1046.2  961.494  1046.23  " style="fill: none; stroke: darkmagenta; stroke-width: 0.200000; fill-type: evenodd"  fill-opacity="1.000000" />
   <path d="M 961.452  1047.23  961.993  1047.25  963.148  1047.5  964.252  1047.94  965.268  1048.56  966.097  1049.26  966.545  1049.78  966.601  1049.87  966.865  1050.19  967.434  1051.13  967.736  1051.87  967.866  1052.21  968.115  1053.39  968.164  1054.58  968.013  1055.76  967.667  1056.89  967.13  1057.97  966.668  1058.62  966.44  1058.91  965.863  1059.49  965.588  1059.74  964.924  1060.21  964.609  1060.42  963.876  1060.77  963.532  1060.92  962.749  1061.15  962.385  1061.23  961.576  1061.33  961.202  1061.35  960.388  1061.31  960.016  1061.27  959.221  1061.09  958.861  1060.99  958.106  1060.68  957.768  1060.52  957.075  1060.1  956.767  1059.88  956.223  1059.41  955.955  1059.14  955.487  1058.6  954.836  1057.59  954.37  1056.49  954.093  1055.34  954.014  1054.15  954.133  1052.97  954.45  1051.82  954.853  1050.95  954.946  1050.76  955.628  1049.77  956.458  1048.92  957.418  1048.22  958.482  1047.69  959.62  1047.35  960.792  1047.2  961.452  1047.23  " style="fill: none; stroke: black; stroke-width: 0.200000; fill-type: evenodd"  fill-opacity="1.000000" />
   <path d="M 935.508  984.193  935.966  984.222  936.243  984.267  936.691  984.379  937.166  984.568  937.646  984.837  937.961  985.073  938.283  985.35  943.729  990.796  935.383  999.142  932.499  996.259  886.47  1042.29  889.898  1045.78  886.21  1049.47  881.818  1044.95  878.33  1041.24  876.854  1039.38  875.632  1037.28  875.326  1036.53  874.745  1035.02  874.642  1034.59  874.226  1032.56  874.167  1031.05  874.159  1030.18  874.406  1028.34  874.52  1027.82  874.991  1026.32  875.253  1025.68  875.51  1025.12  877.062  1022.2  877.528  1021.35  877.875  1020.78  880.28  1016.91  883.332  1012.65  886.638  1008.58  890.139  1004.69  893.792  1000.95  900.237  994.792  902.428  993.014  904.931  991.522  907.602  990.397  910.314  989.675  911.634  989.422  912.916  989.239  919.258  987.838  920.258  987.649  922.807  987.086  928.851  985.553  934.853  984.271  935.136  984.178  935.388  984.139  935.508  984.193  " style="fill: none; stroke: darkmagenta; stroke-width: 0.200000; fill-type: evenodd"  fill-opacity="1.000000" />
   <path d="M 935.853  985.217  936.042  985.247  936.383  985.333  936.735  985.473  937.1  985.677  937.335  985.853  937.602  986.083  942.315  990.796  935.383  997.728  932.499  994.844  885.062  1042.28  888.491  1045.77  886.22  1048.04  882.541  1044.25  879.087  1040.59  877.682  1038.82  876.531  1036.84  876.256  1036.16  875.702  1034.72  875.618  1034.37  875.222  1032.44  875.167  1031.02  875.16  1030.24  875.392  1028.51  875.487  1028.07  875.932  1026.66  876.171  1026.07  876.406  1025.56  877.942  1022.67  878.394  1021.85  878.727  1021.3  881.112  1017.46  884.128  1013.25  887.398  1009.23  890.868  1005.37  894.495  1001.66  900.898  995.543  903.002  993.836  905.383  992.417  907.927  991.346  910.538  990.651  911.799  990.408  913.094  990.224  919.459  988.817  920.459  988.628  923.037  988.059  929.078  986.527  935.116  985.238  935.288  985.181  935.853  985.217  " style="fill: none; stroke: black; stroke-width: 0.200000; fill-type: evenodd"  fill-opacity="1.000000" />
   <path d="M 1042.17  965.605  1042.79  965.625  1044.11  965.909  1045.37  966.41  1046.53  967.114  1047.48  967.924  1048.03  968.561  1048.09  968.656  1048.35  968.974  1049  970.047  1049.34  970.876  1049.5  971.304  1049.79  972.636  1049.84  973.993  1049.67  975.339  1049.27  976.638  1048.66  977.856  1048.15  978.583  1047.87  978.946  1047.23  979.582  1046.89  979.893  1046.16  980.413  1045.77  980.662  1044.97  981.054  1044.54  981.234  1043.68  981.485  1043.23  981.591  1042.34  981.695  1041.88  981.725  1040.99  981.679  1040.53  981.63  1039.65  981.435  1039.21  981.31  1038.38  980.972  1037.96  980.774  1037.2  980.302  1036.82  980.038  1036.2  979.498  1035.36  978.565  1034.63  977.43  1034.41  976.894  1034.23  976.517  1034.09  976.183  1033.78  974.86  1033.68  973.506  1033.82  972.157  1034.18  970.848  1034.62  969.893  1034.75  969.623  1035.53  968.504  1036.47  967.533  1037.57  966.734  1038.79  966.13  1040.09  965.737  1041.43  965.567  1042.17  965.605  " style="fill: none; stroke: darkmagenta; stroke-width: 0.200000; fill-type: evenodd"  fill-opacity="1.000000" />
   <path d="M 1042.12  966.604  1042.67  966.622  1043.82  966.869  1044.93  967.308  1045.94  967.927  1046.77  968.635  1047.22  969.154  1047.27  969.244  1047.54  969.559  1048.11  970.497  1048.41  971.241  1048.54  971.585  1048.79  972.761  1048.84  973.949  1048.69  975.129  1048.34  976.266  1047.8  977.339  1047.34  977.987  1047.11  978.284  1046.54  978.859  1046.26  979.114  1045.6  979.585  1045.28  979.789  1044.55  980.143  1044.21  980.291  1043.42  980.518  1043.06  980.605  1042.25  980.699  1041.88  980.723  1041.06  980.681  1040.69  980.642  1039.9  980.465  1039.53  980.363  1038.78  980.057  1038.44  979.895  1037.75  979.467  1037.44  979.249  1036.9  978.782  1036.15  977.955  1035.52  976.968  1035.32  976.49  1035.14  976.113  1035.05  975.877  1034.77  974.709  1034.69  973.523  1034.81  972.341  1035.12  971.193  1035.53  970.32  1035.62  970.128  1036.3  969.142  1037.13  968.291  1038.09  967.592  1039.16  967.062  1040.29  966.719  1041.47  966.571  1042.12  966.604  " style="fill: none; stroke: black; stroke-width: 0.200000; fill-type: evenodd"  fill-opacity="1.000000" />
   <path d="M 970.604  948.117  970.73  947.853  970.966  947.019  971.722  944.842  972.356  942.606  972.694  941.269  973.676  937.963  974.204  935.882  974.452  934.723  975.323  931.237  975.779  929.109  975.915  928.298  976.634  924.532  976.969  922.545  977.694  919.502  978.493  917.512  978.878  916.617  979.858  914.922  980.474  913.984  981.87  912.159  986.366  907.278  987.208  906.384  993.549  900.16  994.145  899.617  1000.4  894.218  1004.72  890.882  1007.63  888.744  1008.4  888.219  1009.57  887.55  1010.66  887  1012.16  886.399  1013.7  885.959  1015  885.701  1016.53  885.536  1018.03  885.515  1019.55  885.645  1021.05  885.908  1022.53  886.302  1023.97  886.823  1025.38  887.468  1026.72  888.231  1028  889.11  1030.17  891.013  1037.26  898.419  1033.55  902.126  1030.19  898.572  983.285  945.473  986.168  948.357  977.373  957.152  971.717  951.495  971.373  951.094  971.069  950.623  970.836  950.121  970.718  949.744  970.634  949.381  970.61  949.089  970.52  948.786  970.566  948.252  " style="fill: none; stroke: darkmagenta; stroke-width: 0.200000; fill-type: evenodd"  fill-opacity="1.000000" />
   <path d="M 970.566  948.252  970.572  948.185  970.604  948.117  " style="fill: none; stroke: red; stroke-width: 0.200000; fill-type: evenodd"  fill-opacity="1.000000" />
   <path d="M 1019.42  886.638  1020.83  886.885  1022.23  887.257  1023.6  887.75  1024.92  888.359  1026.19  889.08  1027.39  889.901  1029.48  891.735  1035.86  898.404  1033.57  900.693  1030.21  897.138  981.87  945.473  984.754  948.357  977.373  955.738  972.451  950.815  972.177  950.495  971.947  950.14  971.771  949.759  971.683  949.481  971.624  949.227  971.598  948.904  971.532  948.683  971.552  948.452  971.669  948.207  971.92  947.32  972.676  945.143  973.322  942.865  973.659  941.534  974.641  938.229  975.178  936.11  975.426  934.949  976.298  931.463  976.761  929.296  976.899  928.474  977.619  924.709  977.949  922.745  978.649  919.806  979.416  917.896  979.773  917.066  980.71  915.447  981.29  914.563  982.637  912.803  987.098  907.96  987.922  907.083  994.237  900.887  994.809  900.365  1001.04  894.993  1005.32  891.681  1008.21  889.559  1008.93  889.067  1010.04  888.431  1011.07  887.913  1012.49  887.346  1013.93  886.932  1015.15  886.69  1016.59  886.535  1018  886.516  1019.42  886.638  " style="fill: none; stroke: black; stroke-width: 0.200000; fill-type: evenodd"  fill-opacity="1.000000" />
   <path d="M 959.427  969.612  959.333  969.965  958.601  970.697  957.601  970.965  956.601  970.697  955.869  969.965  955.601  968.965  955.869  967.965  956.601  967.233  956.954  967.138  959.427  969.612  " style="fill: none; stroke: purple; stroke-width: 0.500000; fill-type: evenodd"  fill-opacity="1.000000" />
</svg>
