<?xml version="1.0" encoding="UTF-8" standalone="yes"?>
<!DOCTYPE svg PUBLIC "-//W3C//DTD SVG 1.0//EN" "http://www.w3.org/TR/2001/REC-SVG-20010904/DTD/svg10.dtd">
<svg height="2000" width="2000" xmlns="http://www.w3.org/2000/svg" xmlns:svg="http://www.w3.org/2000/svg" xmlns:xlink="http://www.w3.org/1999/xlink">
   <marker id="endArrow" markerHeight="8" markerUnits="strokeWidth" markerWidth="10" orient="auto" refX="1" refY="5" viewBox="0 0 1000 1000">
      <polyline fill="darkblue" points="0,0 10,5 0,10 1,5" />
   </marker>
   <circle cx="1000" cy="1000" r="1" style="stroke:black; fill: red" />
   <circle cx="1000" cy="1000" r="800" style="stroke:black; fill: none" />
   <line x1="802.219604" y1="1059.069702" x2="756.501404" y2="1059.069702" style="stroke: green; stroke-width: 0.200000"/>
   <line x1="802.219604" y1="1058.069702" x2="756.515137" y2="1058.069702" style="stroke: green; stroke-width: 0.200000"/>
   <line x1="802.219604" y1="1057.069702" x2="756.528809" y2="1057.069702" style="stroke: green; stroke-width: 0.200000"/>
   <line x1="802.219604" y1="1056.069702" x2="756.542480" y2="1056.069702" style="stroke: green; stroke-width: 0.200000"/>
   <line x1="802.219604" y1="1055.069702" x2="756.556152" y2="1055.069702" style="stroke: green; stroke-width: 0.200000"/>
   <line x1="802.219604" y1="1054.069702" x2="756.799805" y2="1054.069702" style="stroke: green; stroke-width: 0.200000"/>
   <line x1="802.219604" y1="1053.069702" x2="757.044739" y2="1053.069702" style="stroke: green; stroke-width: 0.200000"/>
   <line x1="802.219604" y1="1052.069702" x2="757.289673" y2="1052.069702" style="stroke: green; stroke-width: 0.200000"/>
   <line x1="802.219604" y1="1051.069702" x2="757.534668" y2="1051.069702" style="stroke: green; stroke-width: 0.200000"/>
   <line x1="802.219604" y1="1050.069702" x2="757.768250" y2="1050.069702" style="stroke: green; stroke-width: 0.200000"/>
   <line x1="802.219604" y1="1049.069702" x2="757.992798" y2="1049.069702" style="stroke: green; stroke-width: 0.200000"/>
   <line x1="802.219604" y1="1048.069702" x2="758.217285" y2="1048.069702" style="stroke: green; stroke-width: 0.200000"/>
   <line x1="802.219604" y1="1047.069702" x2="758.441833" y2="1047.069702" style="stroke: green; stroke-width: 0.200000"/>
   <line x1="802.219604" y1="1046.069702" x2="758.710022" y2="1046.069702" style="stroke: green; stroke-width: 0.200000"/>
   <line x1="802.219604" y1="1045.069702" x2="759.104858" y2="1045.069702" style="stroke: green; stroke-width: 0.200000"/>
   <line x1="802.219604" y1="1044.069702" x2="759.499573" y2="1044.069702" style="stroke: green; stroke-width: 0.200000"/>
   <line x1="802.219604" y1="1043.069702" x2="759.894409" y2="1043.069702" style="stroke: green; stroke-width: 0.200000"/>
   <line x1="802.219604" y1="1042.069702" x2="760.307678" y2="1042.069702" style="stroke: green; stroke-width: 0.200000"/>
   <line x1="802.219604" y1="1041.069702" x2="760.731750" y2="1041.069702" style="stroke: green; stroke-width: 0.200000"/>
   <line x1="802.219604" y1="1040.069702" x2="761.155701" y2="1040.069702" style="stroke: green; stroke-width: 0.200000"/>
   <line x1="802.219604" y1="1039.069702" x2="761.579712" y2="1039.069702" style="stroke: green; stroke-width: 0.200000"/>
   <line x1="802.219604" y1="1038.069702" x2="762.003723" y2="1038.069702" style="stroke: green; stroke-width: 0.200000"/>
   <line x1="802.219604" y1="1037.069702" x2="762.485962" y2="1037.069702" style="stroke: green; stroke-width: 0.200000"/>
   <line x1="802.219604" y1="1036.069702" x2="763.075562" y2="1036.069702" style="stroke: green; stroke-width: 0.200000"/>
   <line x1="802.219604" y1="1035.069702" x2="763.665161" y2="1035.069702" style="stroke: green; stroke-width: 0.200000"/>
   <line x1="802.219604" y1="1034.069702" x2="764.254761" y2="1034.069702" style="stroke: green; stroke-width: 0.200000"/>
   <line x1="802.219604" y1="1033.069702" x2="764.844910" y2="1033.069702" style="stroke: green; stroke-width: 0.200000"/>
   <line x1="802.219604" y1="1032.069702" x2="765.442261" y2="1032.069702" style="stroke: green; stroke-width: 0.200000"/>
   <line x1="802.219604" y1="1031.069702" x2="766.039673" y2="1031.069702" style="stroke: green; stroke-width: 0.200000"/>
   <line x1="802.219604" y1="1030.069702" x2="766.637024" y2="1030.069702" style="stroke: green; stroke-width: 0.200000"/>
   <line x1="802.219604" y1="1029.069702" x2="767.275391" y2="1029.069702" style="stroke: green; stroke-width: 0.200000"/>
   <line x1="802.219604" y1="1028.069702" x2="768.094177" y2="1028.069702" style="stroke: green; stroke-width: 0.200000"/>
   <line x1="802.219604" y1="1027.069702" x2="768.913025" y2="1027.069702" style="stroke: green; stroke-width: 0.200000"/>
   <line x1="802.219604" y1="1026.069702" x2="769.731934" y2="1026.069702" style="stroke: green; stroke-width: 0.200000"/>
   <line x1="802.219604" y1="1025.069702" x2="770.556335" y2="1025.069702" style="stroke: green; stroke-width: 0.200000"/>
   <line x1="802.219604" y1="1024.069702" x2="771.430603" y2="1024.069702" style="stroke: green; stroke-width: 0.200000"/>
   <line x1="802.219604" y1="1023.069702" x2="772.304932" y2="1023.069702" style="stroke: green; stroke-width: 0.200000"/>
   <line x1="802.219604" y1="1022.069702" x2="773.242126" y2="1022.069702" style="stroke: green; stroke-width: 0.200000"/>
   <line x1="802.219604" y1="1021.069702" x2="774.385071" y2="1021.069702" style="stroke: green; stroke-width: 0.200000"/>
   <line x1="802.219604" y1="1020.069702" x2="775.528015" y2="1020.069702" style="stroke: green; stroke-width: 0.200000"/>
   <line x1="802.219604" y1="1019.069763" x2="776.671082" y2="1019.069763" style="stroke: green; stroke-width: 0.200000"/>
   <line x1="802.219604" y1="1018.069702" x2="777.814026" y2="1018.069702" style="stroke: green; stroke-width: 0.200000"/>
   <line x1="802.219604" y1="1017.069702" x2="778.956970" y2="1017.069702" style="stroke: green; stroke-width: 0.200000"/>
   <line x1="802.219604" y1="1016.069702" x2="780.132935" y2="1016.069702" style="stroke: green; stroke-width: 0.200000"/>
   <line x1="802.219604" y1="1015.069702" x2="781.617920" y2="1015.069702" style="stroke: green; stroke-width: 0.200000"/>
   <line x1="802.219604" y1="1014.069763" x2="783.102783" y2="1014.069763" style="stroke: green; stroke-width: 0.200000"/>
   <line x1="802.219604" y1="1013.069702" x2="784.587463" y2="1013.069702" style="stroke: green; stroke-width: 0.200000"/>
   <line x1="802.219604" y1="1012.069702" x2="786.072449" y2="1012.069702" style="stroke: green; stroke-width: 0.200000"/>
   <line x1="802.219604" y1="1011.069702" x2="787.692261" y2="1011.069702" style="stroke: green; stroke-width: 0.200000"/>
   <line x1="802.219604" y1="1010.069702" x2="792.092224" y2="1010.069702" style="stroke: green; stroke-width: 0.200000"/>
   <line x1="852.319580" y1="1059.069702" x2="802.319580" y2="1059.069702" style="stroke: green; stroke-width: 0.200000"/>
   <line x1="852.319580" y1="1058.069702" x2="802.319580" y2="1058.069702" style="stroke: green; stroke-width: 0.200000"/>
   <line x1="852.319580" y1="1057.069702" x2="802.319580" y2="1057.069702" style="stroke: green; stroke-width: 0.200000"/>
   <line x1="852.319580" y1="1056.069702" x2="802.319580" y2="1056.069702" style="stroke: green; stroke-width: 0.200000"/>
   <line x1="852.036682" y1="1055.069702" x2="802.319580" y2="1055.069702" style="stroke: green; stroke-width: 0.200000"/>
   <line x1="850.630127" y1="1054.069702" x2="802.319580" y2="1054.069702" style="stroke: green; stroke-width: 0.200000"/>
   <line x1="849.223633" y1="1053.069702" x2="802.319580" y2="1053.069702" style="stroke: green; stroke-width: 0.200000"/>
   <line x1="847.987610" y1="1052.069702" x2="802.319580" y2="1052.069702" style="stroke: green; stroke-width: 0.200000"/>
   <line x1="846.906250" y1="1051.069702" x2="802.319580" y2="1051.069702" style="stroke: green; stroke-width: 0.200000"/>
   <line x1="845.824890" y1="1050.069702" x2="802.319580" y2="1050.069702" style="stroke: green; stroke-width: 0.200000"/>
   <line x1="844.743530" y1="1049.069702" x2="802.319580" y2="1049.069702" style="stroke: green; stroke-width: 0.200000"/>
   <line x1="844.077148" y1="1048.069702" x2="802.319580" y2="1048.069702" style="stroke: green; stroke-width: 0.200000"/>
   <line x1="843.445679" y1="1047.069702" x2="802.319580" y2="1047.069702" style="stroke: green; stroke-width: 0.200000"/>
   <line x1="842.814209" y1="1046.069702" x2="802.319580" y2="1046.069702" style="stroke: green; stroke-width: 0.200000"/>
   <line x1="842.105225" y1="1045.069702" x2="802.319580" y2="1045.069702" style="stroke: green; stroke-width: 0.200000"/>
   <line x1="841.314758" y1="1044.069702" x2="802.319580" y2="1044.069702" style="stroke: green; stroke-width: 0.200000"/>
   <line x1="840.524231" y1="1043.069702" x2="802.319580" y2="1043.069702" style="stroke: green; stroke-width: 0.200000"/>
   <line x1="839.733765" y1="1042.069702" x2="802.319580" y2="1042.069702" style="stroke: green; stroke-width: 0.200000"/>
   <line x1="838.943237" y1="1041.069702" x2="802.319580" y2="1041.069702" style="stroke: green; stroke-width: 0.200000"/>
   <line x1="838.152710" y1="1040.069702" x2="802.319580" y2="1040.069702" style="stroke: green; stroke-width: 0.200000"/>
   <line x1="837.519287" y1="1039.069702" x2="802.319580" y2="1039.069702" style="stroke: green; stroke-width: 0.200000"/>
   <line x1="836.899719" y1="1038.069702" x2="802.319580" y2="1038.069702" style="stroke: green; stroke-width: 0.200000"/>
   <line x1="836.280151" y1="1037.069702" x2="802.319580" y2="1037.069702" style="stroke: green; stroke-width: 0.200000"/>
   <line x1="835.660522" y1="1036.069702" x2="802.319580" y2="1036.069702" style="stroke: green; stroke-width: 0.200000"/>
   <line x1="835.040894" y1="1035.069702" x2="802.319580" y2="1035.069702" style="stroke: green; stroke-width: 0.200000"/>
   <line x1="834.421326" y1="1034.069702" x2="802.319580" y2="1034.069702" style="stroke: green; stroke-width: 0.200000"/>
   <line x1="833.801758" y1="1033.069702" x2="802.319580" y2="1033.069702" style="stroke: green; stroke-width: 0.200000"/>
   <line x1="833.182129" y1="1032.069702" x2="802.319580" y2="1032.069702" style="stroke: green; stroke-width: 0.200000"/>
   <line x1="832.508423" y1="1031.069702" x2="802.319580" y2="1031.069702" style="stroke: green; stroke-width: 0.200000"/>
   <line x1="831.740051" y1="1030.069702" x2="802.319580" y2="1030.069702" style="stroke: green; stroke-width: 0.200000"/>
   <line x1="830.971619" y1="1029.069702" x2="802.319580" y2="1029.069702" style="stroke: green; stroke-width: 0.200000"/>
   <line x1="830.203308" y1="1028.069702" x2="802.319580" y2="1028.069702" style="stroke: green; stroke-width: 0.200000"/>
   <line x1="829.434937" y1="1027.069702" x2="802.319580" y2="1027.069702" style="stroke: green; stroke-width: 0.200000"/>
   <line x1="828.666504" y1="1026.069702" x2="802.319580" y2="1026.069702" style="stroke: green; stroke-width: 0.200000"/>
   <line x1="827.898193" y1="1025.069702" x2="802.319580" y2="1025.069702" style="stroke: green; stroke-width: 0.200000"/>
   <line x1="827.026855" y1="1024.069702" x2="802.319580" y2="1024.069702" style="stroke: green; stroke-width: 0.200000"/>
   <line x1="825.943054" y1="1023.069702" x2="802.319580" y2="1023.069702" style="stroke: green; stroke-width: 0.200000"/>
   <line x1="824.859253" y1="1022.069702" x2="802.319580" y2="1022.069702" style="stroke: green; stroke-width: 0.200000"/>
   <line x1="823.775513" y1="1021.069702" x2="802.319580" y2="1021.069702" style="stroke: green; stroke-width: 0.200000"/>
   <line x1="822.691650" y1="1020.069702" x2="802.319580" y2="1020.069702" style="stroke: green; stroke-width: 0.200000"/>
   <line x1="821.607910" y1="1019.069763" x2="802.319580" y2="1019.069763" style="stroke: green; stroke-width: 0.200000"/>
   <line x1="820.187317" y1="1018.069702" x2="802.319580" y2="1018.069702" style="stroke: green; stroke-width: 0.200000"/>
   <line x1="818.573914" y1="1017.069702" x2="802.319580" y2="1017.069702" style="stroke: green; stroke-width: 0.200000"/>
   <line x1="817.019043" y1="1016.069702" x2="802.319580" y2="1016.069702" style="stroke: green; stroke-width: 0.200000"/>
   <line x1="815.522156" y1="1015.069702" x2="802.319580" y2="1015.069702" style="stroke: green; stroke-width: 0.200000"/>
   <line x1="814.025208" y1="1014.069763" x2="802.319580" y2="1014.069763" style="stroke: green; stroke-width: 0.200000"/>
   <line x1="811.874023" y1="1013.069702" x2="802.319580" y2="1013.069702" style="stroke: green; stroke-width: 0.200000"/>
   <line x1="809.554688" y1="1012.069702" x2="802.319580" y2="1012.069702" style="stroke: green; stroke-width: 0.200000"/>
   <line x1="807.235657" y1="1011.069702" x2="802.319580" y2="1011.069702" style="stroke: green; stroke-width: 0.200000"/>
   <line x1="803.436768" y1="1010.069702" x2="802.319580" y2="1010.069702" style="stroke: green; stroke-width: 0.200000"/>
   <line x1="858.183472" y1="1059.069702" x2="852.419556" y2="1059.069702" style="stroke: green; stroke-width: 0.200000"/>
   <line x1="856.635376" y1="1058.069702" x2="852.419556" y2="1058.069702" style="stroke: green; stroke-width: 0.200000"/>
   <line x1="855.087524" y1="1057.069702" x2="852.419556" y2="1057.069702" style="stroke: green; stroke-width: 0.200000"/>
   <line x1="853.539673" y1="1056.069702" x2="852.419556" y2="1056.069702" style="stroke: green; stroke-width: 0.200000"/>
   <line x1="802.219604" y1="1109.069702" x2="752.681030" y2="1109.069702" style="stroke: green; stroke-width: 0.200000"/>
   <line x1="802.219604" y1="1108.069702" x2="752.828979" y2="1108.069702" style="stroke: green; stroke-width: 0.200000"/>
   <line x1="802.219604" y1="1107.069702" x2="752.976807" y2="1107.069702" style="stroke: green; stroke-width: 0.200000"/>
   <line x1="802.219604" y1="1106.069702" x2="753.124695" y2="1106.069702" style="stroke: green; stroke-width: 0.200000"/>
   <line x1="802.219604" y1="1105.069702" x2="753.272583" y2="1105.069702" style="stroke: green; stroke-width: 0.200000"/>
   <line x1="802.219604" y1="1104.069702" x2="753.420471" y2="1104.069702" style="stroke: green; stroke-width: 0.200000"/>
   <line x1="802.219604" y1="1103.069702" x2="753.568359" y2="1103.069702" style="stroke: green; stroke-width: 0.200000"/>
   <line x1="802.219604" y1="1102.069702" x2="753.716187" y2="1102.069702" style="stroke: green; stroke-width: 0.200000"/>
   <line x1="802.219604" y1="1101.069702" x2="753.864136" y2="1101.069702" style="stroke: green; stroke-width: 0.200000"/>
   <line x1="802.219604" y1="1100.069702" x2="754.033875" y2="1100.069702" style="stroke: green; stroke-width: 0.200000"/>
   <line x1="802.219604" y1="1099.069702" x2="754.202637" y2="1099.069702" style="stroke: green; stroke-width: 0.200000"/>
   <line x1="802.219604" y1="1098.069702" x2="754.359009" y2="1098.069702" style="stroke: green; stroke-width: 0.200000"/>
   <line x1="802.219604" y1="1097.069702" x2="754.515381" y2="1097.069702" style="stroke: green; stroke-width: 0.200000"/>
   <line x1="802.219604" y1="1096.069702" x2="754.671753" y2="1096.069702" style="stroke: green; stroke-width: 0.200000"/>
   <line x1="802.219604" y1="1095.069702" x2="754.828125" y2="1095.069702" style="stroke: green; stroke-width: 0.200000"/>
   <line x1="802.219604" y1="1094.069702" x2="754.984497" y2="1094.069702" style="stroke: green; stroke-width: 0.200000"/>
   <line x1="802.219604" y1="1093.069702" x2="755.140930" y2="1093.069702" style="stroke: green; stroke-width: 0.200000"/>
   <line x1="802.219604" y1="1092.069702" x2="755.297302" y2="1092.069702" style="stroke: green; stroke-width: 0.200000"/>
   <line x1="802.219604" y1="1091.069702" x2="755.453613" y2="1091.069702" style="stroke: green; stroke-width: 0.200000"/>
   <line x1="802.219604" y1="1090.069702" x2="755.610046" y2="1090.069702" style="stroke: green; stroke-width: 0.200000"/>
   <line x1="802.219604" y1="1089.069702" x2="755.766479" y2="1089.069702" style="stroke: green; stroke-width: 0.200000"/>
   <line x1="802.219604" y1="1088.069702" x2="755.922791" y2="1088.069702" style="stroke: green; stroke-width: 0.200000"/>
   <line x1="802.219604" y1="1087.069702" x2="756.070068" y2="1087.069702" style="stroke: green; stroke-width: 0.200000"/>
   <line x1="802.219604" y1="1086.069702" x2="756.211426" y2="1086.069702" style="stroke: green; stroke-width: 0.200000"/>
   <line x1="802.219604" y1="1085.069702" x2="756.352661" y2="1085.069702" style="stroke: green; stroke-width: 0.200000"/>
   <line x1="802.219604" y1="1084.069702" x2="756.494019" y2="1084.069702" style="stroke: green; stroke-width: 0.200000"/>
   <line x1="802.219604" y1="1083.069702" x2="756.635254" y2="1083.069702" style="stroke: green; stroke-width: 0.200000"/>
   <line x1="802.219604" y1="1082.069702" x2="756.776611" y2="1082.069702" style="stroke: green; stroke-width: 0.200000"/>
   <line x1="802.219604" y1="1081.069702" x2="756.917847" y2="1081.069702" style="stroke: green; stroke-width: 0.200000"/>
   <line x1="802.219604" y1="1080.069702" x2="757.059265" y2="1080.069702" style="stroke: green; stroke-width: 0.200000"/>
   <line x1="802.219604" y1="1079.069702" x2="757.173218" y2="1079.069702" style="stroke: green; stroke-width: 0.200000"/>
   <line x1="802.219604" y1="1078.069702" x2="757.106567" y2="1078.069702" style="stroke: green; stroke-width: 0.200000"/>
   <line x1="802.219604" y1="1077.069702" x2="757.039856" y2="1077.069702" style="stroke: green; stroke-width: 0.200000"/>
   <line x1="802.219604" y1="1076.069702" x2="756.977539" y2="1076.069702" style="stroke: green; stroke-width: 0.200000"/>
   <line x1="802.219604" y1="1075.069702" x2="756.926941" y2="1075.069702" style="stroke: green; stroke-width: 0.200000"/>
   <line x1="802.219604" y1="1074.069702" x2="756.876343" y2="1074.069702" style="stroke: green; stroke-width: 0.200000"/>
   <line x1="802.219604" y1="1073.069702" x2="756.825684" y2="1073.069702" style="stroke: green; stroke-width: 0.200000"/>
   <line x1="802.219604" y1="1072.069702" x2="756.775146" y2="1072.069702" style="stroke: green; stroke-width: 0.200000"/>
   <line x1="802.219604" y1="1071.069702" x2="756.724548" y2="1071.069702" style="stroke: green; stroke-width: 0.200000"/>
   <line x1="802.219604" y1="1070.069702" x2="756.673950" y2="1070.069702" style="stroke: green; stroke-width: 0.200000"/>
   <line x1="802.219604" y1="1069.069702" x2="756.623291" y2="1069.069702" style="stroke: green; stroke-width: 0.200000"/>
   <line x1="802.219604" y1="1068.069702" x2="756.572754" y2="1068.069702" style="stroke: green; stroke-width: 0.200000"/>
   <line x1="802.219604" y1="1067.069702" x2="756.520630" y2="1067.069702" style="stroke: green; stroke-width: 0.200000"/>
   <line x1="802.219604" y1="1066.069702" x2="756.432983" y2="1066.069702" style="stroke: green; stroke-width: 0.200000"/>
   <line x1="802.219604" y1="1065.069702" x2="756.419189" y2="1065.069702" style="stroke: green; stroke-width: 0.200000"/>
   <line x1="802.219604" y1="1064.069702" x2="756.432983" y2="1064.069702" style="stroke: green; stroke-width: 0.200000"/>
   <line x1="802.219604" y1="1063.069702" x2="756.446594" y2="1063.069702" style="stroke: green; stroke-width: 0.200000"/>
   <line x1="802.219604" y1="1062.069702" x2="756.460327" y2="1062.069702" style="stroke: green; stroke-width: 0.200000"/>
   <line x1="802.219604" y1="1061.069702" x2="756.473999" y2="1061.069702" style="stroke: green; stroke-width: 0.200000"/>
   <line x1="802.219604" y1="1060.069702" x2="756.487732" y2="1060.069702" style="stroke: green; stroke-width: 0.200000"/>
   <line x1="852.319580" y1="1109.069702" x2="802.319580" y2="1109.069702" style="stroke: green; stroke-width: 0.200000"/>
   <line x1="852.319580" y1="1108.069702" x2="802.319580" y2="1108.069702" style="stroke: green; stroke-width: 0.200000"/>
   <line x1="852.319580" y1="1107.069702" x2="802.319580" y2="1107.069702" style="stroke: green; stroke-width: 0.200000"/>
   <line x1="852.319580" y1="1106.069702" x2="802.319580" y2="1106.069702" style="stroke: green; stroke-width: 0.200000"/>
   <line x1="852.319580" y1="1105.069702" x2="802.319580" y2="1105.069702" style="stroke: green; stroke-width: 0.200000"/>
   <line x1="852.319580" y1="1104.069702" x2="802.319580" y2="1104.069702" style="stroke: green; stroke-width: 0.200000"/>
   <line x1="852.319580" y1="1103.069702" x2="802.319580" y2="1103.069702" style="stroke: green; stroke-width: 0.200000"/>
   <line x1="852.319580" y1="1102.069702" x2="802.319580" y2="1102.069702" style="stroke: green; stroke-width: 0.200000"/>
   <line x1="852.319580" y1="1101.069702" x2="802.319580" y2="1101.069702" style="stroke: green; stroke-width: 0.200000"/>
   <line x1="852.319580" y1="1100.069702" x2="802.319580" y2="1100.069702" style="stroke: green; stroke-width: 0.200000"/>
   <line x1="852.319580" y1="1099.069702" x2="802.319580" y2="1099.069702" style="stroke: green; stroke-width: 0.200000"/>
   <line x1="852.319580" y1="1098.069702" x2="802.319580" y2="1098.069702" style="stroke: green; stroke-width: 0.200000"/>
   <line x1="852.319580" y1="1097.069702" x2="802.319580" y2="1097.069702" style="stroke: green; stroke-width: 0.200000"/>
   <line x1="852.319580" y1="1096.069702" x2="802.319580" y2="1096.069702" style="stroke: green; stroke-width: 0.200000"/>
   <line x1="852.319580" y1="1095.069702" x2="802.319580" y2="1095.069702" style="stroke: green; stroke-width: 0.200000"/>
   <line x1="852.319580" y1="1094.069702" x2="802.319580" y2="1094.069702" style="stroke: green; stroke-width: 0.200000"/>
   <line x1="852.319580" y1="1093.069702" x2="802.319580" y2="1093.069702" style="stroke: green; stroke-width: 0.200000"/>
   <line x1="852.319580" y1="1092.069702" x2="802.319580" y2="1092.069702" style="stroke: green; stroke-width: 0.200000"/>
   <line x1="852.319580" y1="1091.069702" x2="802.319580" y2="1091.069702" style="stroke: green; stroke-width: 0.200000"/>
   <line x1="852.319580" y1="1090.069702" x2="802.319580" y2="1090.069702" style="stroke: green; stroke-width: 0.200000"/>
   <line x1="852.319580" y1="1089.069702" x2="802.319580" y2="1089.069702" style="stroke: green; stroke-width: 0.200000"/>
   <line x1="852.319580" y1="1088.069702" x2="802.319580" y2="1088.069702" style="stroke: green; stroke-width: 0.200000"/>
   <line x1="852.319580" y1="1087.069702" x2="802.319580" y2="1087.069702" style="stroke: green; stroke-width: 0.200000"/>
   <line x1="852.319580" y1="1086.069702" x2="802.319580" y2="1086.069702" style="stroke: green; stroke-width: 0.200000"/>
   <line x1="852.319580" y1="1085.069702" x2="802.319580" y2="1085.069702" style="stroke: green; stroke-width: 0.200000"/>
   <line x1="852.319580" y1="1084.069702" x2="802.319580" y2="1084.069702" style="stroke: green; stroke-width: 0.200000"/>
   <line x1="852.319580" y1="1083.069702" x2="802.319580" y2="1083.069702" style="stroke: green; stroke-width: 0.200000"/>
   <line x1="852.319580" y1="1082.069702" x2="802.319580" y2="1082.069702" style="stroke: green; stroke-width: 0.200000"/>
   <line x1="852.319580" y1="1081.069702" x2="802.319580" y2="1081.069702" style="stroke: green; stroke-width: 0.200000"/>
   <line x1="852.319580" y1="1080.069702" x2="802.319580" y2="1080.069702" style="stroke: green; stroke-width: 0.200000"/>
   <line x1="852.319580" y1="1079.069702" x2="802.319580" y2="1079.069702" style="stroke: green; stroke-width: 0.200000"/>
   <line x1="852.319580" y1="1078.069702" x2="802.319580" y2="1078.069702" style="stroke: green; stroke-width: 0.200000"/>
   <line x1="852.319580" y1="1077.069702" x2="802.319580" y2="1077.069702" style="stroke: green; stroke-width: 0.200000"/>
   <line x1="852.319580" y1="1076.069702" x2="802.319580" y2="1076.069702" style="stroke: green; stroke-width: 0.200000"/>
   <line x1="852.319580" y1="1075.069702" x2="802.319580" y2="1075.069702" style="stroke: green; stroke-width: 0.200000"/>
   <line x1="852.319580" y1="1074.069702" x2="802.319580" y2="1074.069702" style="stroke: green; stroke-width: 0.200000"/>
   <line x1="852.319580" y1="1073.069702" x2="802.319580" y2="1073.069702" style="stroke: green; stroke-width: 0.200000"/>
   <line x1="852.319580" y1="1072.069702" x2="802.319580" y2="1072.069702" style="stroke: green; stroke-width: 0.200000"/>
   <line x1="852.319580" y1="1071.069702" x2="802.319580" y2="1071.069702" style="stroke: green; stroke-width: 0.200000"/>
   <line x1="852.319580" y1="1070.069702" x2="802.319580" y2="1070.069702" style="stroke: green; stroke-width: 0.200000"/>
   <line x1="852.319580" y1="1069.069702" x2="802.319580" y2="1069.069702" style="stroke: green; stroke-width: 0.200000"/>
   <line x1="852.319580" y1="1068.069702" x2="802.319580" y2="1068.069702" style="stroke: green; stroke-width: 0.200000"/>
   <line x1="852.319580" y1="1067.069702" x2="802.319580" y2="1067.069702" style="stroke: green; stroke-width: 0.200000"/>
   <line x1="852.319580" y1="1066.069702" x2="802.319580" y2="1066.069702" style="stroke: green; stroke-width: 0.200000"/>
   <line x1="852.319580" y1="1065.069702" x2="802.319580" y2="1065.069702" style="stroke: green; stroke-width: 0.200000"/>
   <line x1="852.319580" y1="1064.069702" x2="802.319580" y2="1064.069702" style="stroke: green; stroke-width: 0.200000"/>
   <line x1="852.319580" y1="1063.069702" x2="802.319580" y2="1063.069702" style="stroke: green; stroke-width: 0.200000"/>
   <line x1="852.319580" y1="1062.069702" x2="802.319580" y2="1062.069702" style="stroke: green; stroke-width: 0.200000"/>
   <line x1="852.319580" y1="1061.069702" x2="802.319580" y2="1061.069702" style="stroke: green; stroke-width: 0.200000"/>
   <line x1="852.319580" y1="1060.069702" x2="802.319580" y2="1060.069702" style="stroke: green; stroke-width: 0.200000"/>
   <line x1="892.748962" y1="1109.069702" x2="852.419556" y2="1109.069702" style="stroke: green; stroke-width: 0.200000"/>
   <line x1="892.451416" y1="1108.069702" x2="852.419556" y2="1108.069702" style="stroke: green; stroke-width: 0.200000"/>
   <line x1="892.153809" y1="1107.069702" x2="852.419556" y2="1107.069702" style="stroke: green; stroke-width: 0.200000"/>
   <line x1="891.856201" y1="1106.069702" x2="852.419556" y2="1106.069702" style="stroke: green; stroke-width: 0.200000"/>
   <line x1="891.558716" y1="1105.069702" x2="852.419556" y2="1105.069702" style="stroke: green; stroke-width: 0.200000"/>
   <line x1="891.223022" y1="1104.069702" x2="852.419556" y2="1104.069702" style="stroke: green; stroke-width: 0.200000"/>
   <line x1="890.857239" y1="1103.069702" x2="852.419556" y2="1103.069702" style="stroke: green; stroke-width: 0.200000"/>
   <line x1="890.491577" y1="1102.069702" x2="852.419556" y2="1102.069702" style="stroke: green; stroke-width: 0.200000"/>
   <line x1="890.125854" y1="1101.069702" x2="852.419556" y2="1101.069702" style="stroke: green; stroke-width: 0.200000"/>
   <line x1="889.760193" y1="1100.069702" x2="852.419556" y2="1100.069702" style="stroke: green; stroke-width: 0.200000"/>
   <line x1="889.394470" y1="1099.069702" x2="852.419556" y2="1099.069702" style="stroke: green; stroke-width: 0.200000"/>
   <line x1="889.028809" y1="1098.069702" x2="852.419556" y2="1098.069702" style="stroke: green; stroke-width: 0.200000"/>
   <line x1="888.663086" y1="1097.069702" x2="852.419556" y2="1097.069702" style="stroke: green; stroke-width: 0.200000"/>
   <line x1="888.297424" y1="1096.069702" x2="852.419556" y2="1096.069702" style="stroke: green; stroke-width: 0.200000"/>
   <line x1="887.917175" y1="1095.069702" x2="852.419556" y2="1095.069702" style="stroke: green; stroke-width: 0.200000"/>
   <line x1="887.514160" y1="1094.069702" x2="852.419556" y2="1094.069702" style="stroke: green; stroke-width: 0.200000"/>
   <line x1="887.110352" y1="1093.069702" x2="852.419556" y2="1093.069702" style="stroke: green; stroke-width: 0.200000"/>
   <line x1="886.696472" y1="1092.069702" x2="852.419556" y2="1092.069702" style="stroke: green; stroke-width: 0.200000"/>
   <line x1="886.282654" y1="1091.069702" x2="852.419556" y2="1091.069702" style="stroke: green; stroke-width: 0.200000"/>
   <line x1="885.868774" y1="1090.069702" x2="852.419556" y2="1090.069702" style="stroke: green; stroke-width: 0.200000"/>
   <line x1="885.454834" y1="1089.069702" x2="852.419556" y2="1089.069702" style="stroke: green; stroke-width: 0.200000"/>
   <line x1="885.041016" y1="1088.069702" x2="852.419556" y2="1088.069702" style="stroke: green; stroke-width: 0.200000"/>
   <line x1="884.627136" y1="1087.069702" x2="852.419556" y2="1087.069702" style="stroke: green; stroke-width: 0.200000"/>
   <line x1="884.149048" y1="1086.069702" x2="852.419556" y2="1086.069702" style="stroke: green; stroke-width: 0.200000"/>
   <line x1="883.602539" y1="1085.069702" x2="852.419556" y2="1085.069702" style="stroke: green; stroke-width: 0.200000"/>
   <line x1="883.055969" y1="1084.069702" x2="852.419556" y2="1084.069702" style="stroke: green; stroke-width: 0.200000"/>
   <line x1="882.509460" y1="1083.069702" x2="852.419556" y2="1083.069702" style="stroke: green; stroke-width: 0.200000"/>
   <line x1="881.962891" y1="1082.069702" x2="852.419556" y2="1082.069702" style="stroke: green; stroke-width: 0.200000"/>
   <line x1="881.416321" y1="1081.069702" x2="852.419556" y2="1081.069702" style="stroke: green; stroke-width: 0.200000"/>
   <line x1="880.835815" y1="1080.069702" x2="852.419556" y2="1080.069702" style="stroke: green; stroke-width: 0.200000"/>
   <line x1="880.172180" y1="1079.069702" x2="852.419556" y2="1079.069702" style="stroke: green; stroke-width: 0.200000"/>
   <line x1="879.392944" y1="1078.069702" x2="852.419556" y2="1078.069702" style="stroke: green; stroke-width: 0.200000"/>
   <line x1="878.465637" y1="1077.069702" x2="852.419556" y2="1077.069702" style="stroke: green; stroke-width: 0.200000"/>
   <line x1="877.538452" y1="1076.069702" x2="852.419556" y2="1076.069702" style="stroke: green; stroke-width: 0.200000"/>
   <line x1="876.611206" y1="1075.069702" x2="852.419556" y2="1075.069702" style="stroke: green; stroke-width: 0.200000"/>
   <line x1="875.683960" y1="1074.069702" x2="852.419556" y2="1074.069702" style="stroke: green; stroke-width: 0.200000"/>
   <line x1="874.756714" y1="1073.069702" x2="852.419556" y2="1073.069702" style="stroke: green; stroke-width: 0.200000"/>
   <line x1="873.829468" y1="1072.069702" x2="852.419556" y2="1072.069702" style="stroke: green; stroke-width: 0.200000"/>
   <line x1="872.841797" y1="1071.069702" x2="852.419556" y2="1071.069702" style="stroke: green; stroke-width: 0.200000"/>
   <line x1="871.766663" y1="1070.069702" x2="852.419556" y2="1070.069702" style="stroke: green; stroke-width: 0.200000"/>
   <line x1="870.691467" y1="1069.069702" x2="852.419556" y2="1069.069702" style="stroke: green; stroke-width: 0.200000"/>
   <line x1="869.616150" y1="1068.069702" x2="852.419556" y2="1068.069702" style="stroke: green; stroke-width: 0.200000"/>
   <line x1="868.541016" y1="1067.069702" x2="852.419556" y2="1067.069702" style="stroke: green; stroke-width: 0.200000"/>
   <line x1="867.331665" y1="1066.069702" x2="852.419556" y2="1066.069702" style="stroke: green; stroke-width: 0.200000"/>
   <line x1="866.093750" y1="1065.069702" x2="852.419556" y2="1065.069702" style="stroke: green; stroke-width: 0.200000"/>
   <line x1="864.855713" y1="1064.069702" x2="852.419556" y2="1064.069702" style="stroke: green; stroke-width: 0.200000"/>
   <line x1="863.617798" y1="1063.069702" x2="852.419556" y2="1063.069702" style="stroke: green; stroke-width: 0.200000"/>
   <line x1="862.379822" y1="1062.069702" x2="852.419556" y2="1062.069702" style="stroke: green; stroke-width: 0.200000"/>
   <line x1="861.141907" y1="1061.069702" x2="852.419556" y2="1061.069702" style="stroke: green; stroke-width: 0.200000"/>
   <line x1="859.731323" y1="1060.069702" x2="852.419556" y2="1060.069702" style="stroke: green; stroke-width: 0.200000"/>
   <line x1="802.219604" y1="1159.069702" x2="760.112549" y2="1159.069702" style="stroke: green; stroke-width: 0.200000"/>
   <line x1="802.219604" y1="1158.069702" x2="759.827637" y2="1158.069702" style="stroke: green; stroke-width: 0.200000"/>
   <line x1="802.219604" y1="1157.069702" x2="759.569702" y2="1157.069702" style="stroke: green; stroke-width: 0.200000"/>
   <line x1="802.219604" y1="1156.069702" x2="759.311768" y2="1156.069702" style="stroke: green; stroke-width: 0.200000"/>
   <line x1="802.219604" y1="1155.069702" x2="759.053833" y2="1155.069702" style="stroke: green; stroke-width: 0.200000"/>
   <line x1="802.219604" y1="1154.069702" x2="758.795837" y2="1154.069702" style="stroke: green; stroke-width: 0.200000"/>
   <line x1="802.219604" y1="1153.069702" x2="758.537964" y2="1153.069702" style="stroke: green; stroke-width: 0.200000"/>
   <line x1="802.219604" y1="1152.069702" x2="758.280029" y2="1152.069702" style="stroke: green; stroke-width: 0.200000"/>
   <line x1="802.219604" y1="1151.069702" x2="758.022095" y2="1151.069702" style="stroke: green; stroke-width: 0.200000"/>
   <line x1="802.219604" y1="1150.069702" x2="757.764160" y2="1150.069702" style="stroke: green; stroke-width: 0.200000"/>
   <line x1="802.219604" y1="1149.069702" x2="757.507935" y2="1149.069702" style="stroke: green; stroke-width: 0.200000"/>
   <line x1="802.219604" y1="1148.069702" x2="757.276733" y2="1148.069702" style="stroke: green; stroke-width: 0.200000"/>
   <line x1="802.219604" y1="1147.069702" x2="757.045593" y2="1147.069702" style="stroke: green; stroke-width: 0.200000"/>
   <line x1="802.219604" y1="1146.069702" x2="756.814453" y2="1146.069702" style="stroke: green; stroke-width: 0.200000"/>
   <line x1="802.219604" y1="1145.069702" x2="756.583313" y2="1145.069702" style="stroke: green; stroke-width: 0.200000"/>
   <line x1="802.219604" y1="1144.069702" x2="756.362610" y2="1144.069702" style="stroke: green; stroke-width: 0.200000"/>
   <line x1="802.219604" y1="1143.069702" x2="756.145569" y2="1143.069702" style="stroke: green; stroke-width: 0.200000"/>
   <line x1="802.219604" y1="1142.069702" x2="755.928406" y2="1142.069702" style="stroke: green; stroke-width: 0.200000"/>
   <line x1="802.219604" y1="1141.069702" x2="755.711365" y2="1141.069702" style="stroke: green; stroke-width: 0.200000"/>
   <line x1="802.219604" y1="1140.069702" x2="755.497986" y2="1140.069702" style="stroke: green; stroke-width: 0.200000"/>
   <line x1="802.219604" y1="1139.069702" x2="755.322021" y2="1139.069702" style="stroke: green; stroke-width: 0.200000"/>
   <line x1="802.219604" y1="1138.069702" x2="755.145996" y2="1138.069702" style="stroke: green; stroke-width: 0.200000"/>
   <line x1="802.219604" y1="1137.069702" x2="754.970093" y2="1137.069702" style="stroke: green; stroke-width: 0.200000"/>
   <line x1="802.219604" y1="1136.069702" x2="754.794189" y2="1136.069702" style="stroke: green; stroke-width: 0.200000"/>
   <line x1="802.219604" y1="1135.069702" x2="754.612366" y2="1135.069702" style="stroke: green; stroke-width: 0.200000"/>
   <line x1="802.219604" y1="1134.069702" x2="754.411682" y2="1134.069702" style="stroke: green; stroke-width: 0.200000"/>
   <line x1="802.219604" y1="1133.069702" x2="754.211060" y2="1133.069702" style="stroke: green; stroke-width: 0.200000"/>
   <line x1="802.219604" y1="1132.069702" x2="754.010498" y2="1132.069702" style="stroke: green; stroke-width: 0.200000"/>
   <line x1="802.219604" y1="1131.069702" x2="753.822571" y2="1131.069702" style="stroke: green; stroke-width: 0.200000"/>
   <line x1="802.219604" y1="1130.069702" x2="753.696838" y2="1130.069702" style="stroke: green; stroke-width: 0.200000"/>
   <line x1="802.219604" y1="1129.069702" x2="753.571167" y2="1129.069702" style="stroke: green; stroke-width: 0.200000"/>
   <line x1="802.219604" y1="1128.069702" x2="753.445435" y2="1128.069702" style="stroke: green; stroke-width: 0.200000"/>
   <line x1="802.219604" y1="1127.069702" x2="753.319763" y2="1127.069702" style="stroke: green; stroke-width: 0.200000"/>
   <line x1="802.219604" y1="1126.069702" x2="753.194092" y2="1126.069702" style="stroke: green; stroke-width: 0.200000"/>
   <line x1="802.219604" y1="1125.069702" x2="753.068359" y2="1125.069702" style="stroke: green; stroke-width: 0.200000"/>
   <line x1="802.219604" y1="1124.069702" x2="752.927612" y2="1124.069702" style="stroke: green; stroke-width: 0.200000"/>
   <line x1="802.219604" y1="1123.069702" x2="752.745117" y2="1123.069702" style="stroke: green; stroke-width: 0.200000"/>
   <line x1="802.219604" y1="1122.069702" x2="752.562622" y2="1122.069702" style="stroke: green; stroke-width: 0.200000"/>
   <line x1="802.219604" y1="1121.069702" x2="752.380127" y2="1121.069702" style="stroke: green; stroke-width: 0.200000"/>
   <line x1="802.219604" y1="1120.069702" x2="752.223022" y2="1120.069702" style="stroke: green; stroke-width: 0.200000"/>
   <line x1="802.219604" y1="1119.069702" x2="752.251526" y2="1119.069702" style="stroke: green; stroke-width: 0.200000"/>
   <line x1="802.219604" y1="1118.069702" x2="752.279968" y2="1118.069702" style="stroke: green; stroke-width: 0.200000"/>
   <line x1="802.219604" y1="1117.069702" x2="752.308411" y2="1117.069702" style="stroke: green; stroke-width: 0.200000"/>
   <line x1="802.219604" y1="1116.069702" x2="752.336914" y2="1116.069702" style="stroke: green; stroke-width: 0.200000"/>
   <line x1="802.219604" y1="1115.069702" x2="752.365356" y2="1115.069702" style="stroke: green; stroke-width: 0.200000"/>
   <line x1="802.219604" y1="1114.069702" x2="752.393799" y2="1114.069702" style="stroke: green; stroke-width: 0.200000"/>
   <line x1="802.219604" y1="1113.069702" x2="752.422241" y2="1113.069702" style="stroke: green; stroke-width: 0.200000"/>
   <line x1="802.219604" y1="1112.069702" x2="752.450806" y2="1112.069702" style="stroke: green; stroke-width: 0.200000"/>
   <line x1="802.219604" y1="1111.069702" x2="752.495972" y2="1111.069702" style="stroke: green; stroke-width: 0.200000"/>
   <line x1="802.219604" y1="1110.069702" x2="752.545044" y2="1110.069702" style="stroke: green; stroke-width: 0.200000"/>
   <line x1="852.319580" y1="1159.069702" x2="802.319580" y2="1159.069702" style="stroke: green; stroke-width: 0.200000"/>
   <line x1="852.319580" y1="1158.069702" x2="802.319580" y2="1158.069702" style="stroke: green; stroke-width: 0.200000"/>
   <line x1="852.319580" y1="1157.069702" x2="802.319580" y2="1157.069702" style="stroke: green; stroke-width: 0.200000"/>
   <line x1="852.319580" y1="1156.069702" x2="802.319580" y2="1156.069702" style="stroke: green; stroke-width: 0.200000"/>
   <line x1="852.319580" y1="1155.069702" x2="802.319580" y2="1155.069702" style="stroke: green; stroke-width: 0.200000"/>
   <line x1="852.319580" y1="1154.069702" x2="802.319580" y2="1154.069702" style="stroke: green; stroke-width: 0.200000"/>
   <line x1="852.319580" y1="1153.069702" x2="802.319580" y2="1153.069702" style="stroke: green; stroke-width: 0.200000"/>
   <line x1="852.319580" y1="1152.069702" x2="802.319580" y2="1152.069702" style="stroke: green; stroke-width: 0.200000"/>
   <line x1="852.319580" y1="1151.069702" x2="802.319580" y2="1151.069702" style="stroke: green; stroke-width: 0.200000"/>
   <line x1="852.319580" y1="1150.069702" x2="802.319580" y2="1150.069702" style="stroke: green; stroke-width: 0.200000"/>
   <line x1="852.319580" y1="1149.069702" x2="802.319580" y2="1149.069702" style="stroke: green; stroke-width: 0.200000"/>
   <line x1="852.319580" y1="1148.069702" x2="802.319580" y2="1148.069702" style="stroke: green; stroke-width: 0.200000"/>
   <line x1="852.319580" y1="1147.069702" x2="802.319580" y2="1147.069702" style="stroke: green; stroke-width: 0.200000"/>
   <line x1="852.319580" y1="1146.069702" x2="802.319580" y2="1146.069702" style="stroke: green; stroke-width: 0.200000"/>
   <line x1="852.319580" y1="1145.069702" x2="802.319580" y2="1145.069702" style="stroke: green; stroke-width: 0.200000"/>
   <line x1="852.319580" y1="1144.069702" x2="802.319580" y2="1144.069702" style="stroke: green; stroke-width: 0.200000"/>
   <line x1="852.319580" y1="1143.069702" x2="802.319580" y2="1143.069702" style="stroke: green; stroke-width: 0.200000"/>
   <line x1="852.319580" y1="1142.069702" x2="802.319580" y2="1142.069702" style="stroke: green; stroke-width: 0.200000"/>
   <line x1="852.319580" y1="1141.069702" x2="802.319580" y2="1141.069702" style="stroke: green; stroke-width: 0.200000"/>
   <line x1="852.319580" y1="1140.069702" x2="802.319580" y2="1140.069702" style="stroke: green; stroke-width: 0.200000"/>
   <line x1="852.319580" y1="1139.069702" x2="802.319580" y2="1139.069702" style="stroke: green; stroke-width: 0.200000"/>
   <line x1="852.319580" y1="1138.069702" x2="802.319580" y2="1138.069702" style="stroke: green; stroke-width: 0.200000"/>
   <line x1="852.319580" y1="1137.069702" x2="802.319580" y2="1137.069702" style="stroke: green; stroke-width: 0.200000"/>
   <line x1="852.319580" y1="1136.069702" x2="802.319580" y2="1136.069702" style="stroke: green; stroke-width: 0.200000"/>
   <line x1="852.319580" y1="1135.069702" x2="802.319580" y2="1135.069702" style="stroke: green; stroke-width: 0.200000"/>
   <line x1="852.319580" y1="1134.069702" x2="802.319580" y2="1134.069702" style="stroke: green; stroke-width: 0.200000"/>
   <line x1="852.319580" y1="1133.069702" x2="802.319580" y2="1133.069702" style="stroke: green; stroke-width: 0.200000"/>
   <line x1="852.319580" y1="1132.069702" x2="802.319580" y2="1132.069702" style="stroke: green; stroke-width: 0.200000"/>
   <line x1="852.319580" y1="1131.069702" x2="802.319580" y2="1131.069702" style="stroke: green; stroke-width: 0.200000"/>
   <line x1="852.319580" y1="1130.069702" x2="802.319580" y2="1130.069702" style="stroke: green; stroke-width: 0.200000"/>
   <line x1="852.319580" y1="1129.069702" x2="802.319580" y2="1129.069702" style="stroke: green; stroke-width: 0.200000"/>
   <line x1="852.319580" y1="1128.069702" x2="802.319580" y2="1128.069702" style="stroke: green; stroke-width: 0.200000"/>
   <line x1="852.319580" y1="1127.069702" x2="802.319580" y2="1127.069702" style="stroke: green; stroke-width: 0.200000"/>
   <line x1="852.319580" y1="1126.069702" x2="802.319580" y2="1126.069702" style="stroke: green; stroke-width: 0.200000"/>
   <line x1="852.319580" y1="1125.069702" x2="802.319580" y2="1125.069702" style="stroke: green; stroke-width: 0.200000"/>
   <line x1="852.319580" y1="1124.069702" x2="802.319580" y2="1124.069702" style="stroke: green; stroke-width: 0.200000"/>
   <line x1="852.319580" y1="1123.069702" x2="802.319580" y2="1123.069702" style="stroke: green; stroke-width: 0.200000"/>
   <line x1="852.319580" y1="1122.069702" x2="802.319580" y2="1122.069702" style="stroke: green; stroke-width: 0.200000"/>
   <line x1="852.319580" y1="1121.069702" x2="802.319580" y2="1121.069702" style="stroke: green; stroke-width: 0.200000"/>
   <line x1="852.319580" y1="1120.069702" x2="802.319580" y2="1120.069702" style="stroke: green; stroke-width: 0.200000"/>
   <line x1="852.319580" y1="1119.069702" x2="802.319580" y2="1119.069702" style="stroke: green; stroke-width: 0.200000"/>
   <line x1="852.319580" y1="1118.069702" x2="802.319580" y2="1118.069702" style="stroke: green; stroke-width: 0.200000"/>
   <line x1="852.319580" y1="1117.069702" x2="802.319580" y2="1117.069702" style="stroke: green; stroke-width: 0.200000"/>
   <line x1="852.319580" y1="1116.069702" x2="802.319580" y2="1116.069702" style="stroke: green; stroke-width: 0.200000"/>
   <line x1="852.319580" y1="1115.069702" x2="802.319580" y2="1115.069702" style="stroke: green; stroke-width: 0.200000"/>
   <line x1="852.319580" y1="1114.069702" x2="802.319580" y2="1114.069702" style="stroke: green; stroke-width: 0.200000"/>
   <line x1="852.319580" y1="1113.069702" x2="802.319580" y2="1113.069702" style="stroke: green; stroke-width: 0.200000"/>
   <line x1="852.319580" y1="1112.069702" x2="802.319580" y2="1112.069702" style="stroke: green; stroke-width: 0.200000"/>
   <line x1="852.319580" y1="1111.069702" x2="802.319580" y2="1111.069702" style="stroke: green; stroke-width: 0.200000"/>
   <line x1="852.319580" y1="1110.069702" x2="802.319580" y2="1110.069702" style="stroke: green; stroke-width: 0.200000"/>
   <line x1="894.193604" y1="1159.069702" x2="852.419556" y2="1159.069702" style="stroke: green; stroke-width: 0.200000"/>
   <line x1="894.460693" y1="1158.069702" x2="852.419556" y2="1158.069702" style="stroke: green; stroke-width: 0.200000"/>
   <line x1="894.727722" y1="1157.069702" x2="852.419556" y2="1157.069702" style="stroke: green; stroke-width: 0.200000"/>
   <line x1="894.923096" y1="1156.069702" x2="852.419556" y2="1156.069702" style="stroke: green; stroke-width: 0.200000"/>
   <line x1="895.090942" y1="1155.069702" x2="852.419556" y2="1155.069702" style="stroke: green; stroke-width: 0.200000"/>
   <line x1="895.258789" y1="1154.069702" x2="852.419556" y2="1154.069702" style="stroke: green; stroke-width: 0.200000"/>
   <line x1="895.426636" y1="1153.069702" x2="852.419556" y2="1153.069702" style="stroke: green; stroke-width: 0.200000"/>
   <line x1="895.594482" y1="1152.069702" x2="852.419556" y2="1152.069702" style="stroke: green; stroke-width: 0.200000"/>
   <line x1="895.762390" y1="1151.069702" x2="852.419556" y2="1151.069702" style="stroke: green; stroke-width: 0.200000"/>
   <line x1="895.930237" y1="1150.069702" x2="852.419556" y2="1150.069702" style="stroke: green; stroke-width: 0.200000"/>
   <line x1="896.098083" y1="1149.069702" x2="852.419556" y2="1149.069702" style="stroke: green; stroke-width: 0.200000"/>
   <line x1="896.277344" y1="1148.069702" x2="852.419556" y2="1148.069702" style="stroke: green; stroke-width: 0.200000"/>
   <line x1="896.323242" y1="1147.069702" x2="852.419556" y2="1147.069702" style="stroke: green; stroke-width: 0.200000"/>
   <line x1="896.437927" y1="1146.069702" x2="852.419556" y2="1146.069702" style="stroke: green; stroke-width: 0.200000"/>
   <line x1="896.552490" y1="1145.069702" x2="852.419556" y2="1145.069702" style="stroke: green; stroke-width: 0.200000"/>
   <line x1="896.667175" y1="1144.069702" x2="852.419556" y2="1144.069702" style="stroke: green; stroke-width: 0.200000"/>
   <line x1="896.781738" y1="1143.069702" x2="852.419556" y2="1143.069702" style="stroke: green; stroke-width: 0.200000"/>
   <line x1="896.896423" y1="1142.069702" x2="852.419556" y2="1142.069702" style="stroke: green; stroke-width: 0.200000"/>
   <line x1="897.011047" y1="1141.069702" x2="852.419556" y2="1141.069702" style="stroke: green; stroke-width: 0.200000"/>
   <line x1="897.125732" y1="1140.069702" x2="852.419556" y2="1140.069702" style="stroke: green; stroke-width: 0.200000"/>
   <line x1="897.240295" y1="1139.069702" x2="852.419556" y2="1139.069702" style="stroke: green; stroke-width: 0.200000"/>
   <line x1="897.303345" y1="1138.069702" x2="852.419556" y2="1138.069702" style="stroke: green; stroke-width: 0.200000"/>
   <line x1="897.337952" y1="1137.069702" x2="852.419556" y2="1137.069702" style="stroke: green; stroke-width: 0.200000"/>
   <line x1="897.372681" y1="1136.069702" x2="852.419556" y2="1136.069702" style="stroke: green; stroke-width: 0.200000"/>
   <line x1="897.407288" y1="1135.069702" x2="852.419556" y2="1135.069702" style="stroke: green; stroke-width: 0.200000"/>
   <line x1="897.367310" y1="1134.069702" x2="852.419556" y2="1134.069702" style="stroke: green; stroke-width: 0.200000"/>
   <line x1="897.295410" y1="1133.069702" x2="852.419556" y2="1133.069702" style="stroke: green; stroke-width: 0.200000"/>
   <line x1="897.223450" y1="1132.069702" x2="852.419556" y2="1132.069702" style="stroke: green; stroke-width: 0.200000"/>
   <line x1="897.151428" y1="1131.069702" x2="852.419556" y2="1131.069702" style="stroke: green; stroke-width: 0.200000"/>
   <line x1="897.079468" y1="1130.069702" x2="852.419556" y2="1130.069702" style="stroke: green; stroke-width: 0.200000"/>
   <line x1="897.007507" y1="1129.069702" x2="852.419556" y2="1129.069702" style="stroke: green; stroke-width: 0.200000"/>
   <line x1="896.902954" y1="1128.069702" x2="852.419556" y2="1128.069702" style="stroke: green; stroke-width: 0.200000"/>
   <line x1="896.777954" y1="1127.069702" x2="852.419556" y2="1127.069702" style="stroke: green; stroke-width: 0.200000"/>
   <line x1="896.652893" y1="1126.069702" x2="852.419556" y2="1126.069702" style="stroke: green; stroke-width: 0.200000"/>
   <line x1="896.527832" y1="1125.069702" x2="852.419556" y2="1125.069702" style="stroke: green; stroke-width: 0.200000"/>
   <line x1="896.402893" y1="1124.069702" x2="852.419556" y2="1124.069702" style="stroke: green; stroke-width: 0.200000"/>
   <line x1="896.198792" y1="1123.069702" x2="852.419556" y2="1123.069702" style="stroke: green; stroke-width: 0.200000"/>
   <line x1="895.992188" y1="1122.069702" x2="852.419556" y2="1122.069702" style="stroke: green; stroke-width: 0.200000"/>
   <line x1="895.785522" y1="1121.069702" x2="852.419556" y2="1121.069702" style="stroke: green; stroke-width: 0.200000"/>
   <line x1="895.578918" y1="1120.069702" x2="852.419556" y2="1120.069702" style="stroke: green; stroke-width: 0.200000"/>
   <line x1="895.372314" y1="1119.069702" x2="852.419556" y2="1119.069702" style="stroke: green; stroke-width: 0.200000"/>
   <line x1="895.162842" y1="1118.069702" x2="852.419556" y2="1118.069702" style="stroke: green; stroke-width: 0.200000"/>
   <line x1="894.930908" y1="1117.069702" x2="852.419556" y2="1117.069702" style="stroke: green; stroke-width: 0.200000"/>
   <line x1="894.698975" y1="1116.069702" x2="852.419556" y2="1116.069702" style="stroke: green; stroke-width: 0.200000"/>
   <line x1="894.466919" y1="1115.069702" x2="852.419556" y2="1115.069702" style="stroke: green; stroke-width: 0.200000"/>
   <line x1="894.234985" y1="1114.069702" x2="852.419556" y2="1114.069702" style="stroke: green; stroke-width: 0.200000"/>
   <line x1="893.939270" y1="1113.069702" x2="852.419556" y2="1113.069702" style="stroke: green; stroke-width: 0.200000"/>
   <line x1="893.641663" y1="1112.069702" x2="852.419556" y2="1112.069702" style="stroke: green; stroke-width: 0.200000"/>
   <line x1="893.344116" y1="1111.069702" x2="852.419556" y2="1111.069702" style="stroke: green; stroke-width: 0.200000"/>
   <line x1="893.046509" y1="1110.069702" x2="852.419556" y2="1110.069702" style="stroke: green; stroke-width: 0.200000"/>
   <line x1="802.219604" y1="1198.069702" x2="802.016296" y2="1198.069702" style="stroke: green; stroke-width: 0.200000"/>
   <line x1="802.219604" y1="1197.069702" x2="799.772705" y2="1197.069702" style="stroke: green; stroke-width: 0.200000"/>
   <line x1="802.219604" y1="1196.069702" x2="797.757202" y2="1196.069702" style="stroke: green; stroke-width: 0.200000"/>
   <line x1="802.219604" y1="1195.069702" x2="796.140991" y2="1195.069702" style="stroke: green; stroke-width: 0.200000"/>
   <line x1="802.219604" y1="1194.069702" x2="794.524841" y2="1194.069702" style="stroke: green; stroke-width: 0.200000"/>
   <line x1="802.219604" y1="1193.069702" x2="792.908691" y2="1193.069702" style="stroke: green; stroke-width: 0.200000"/>
   <line x1="802.219604" y1="1192.069702" x2="791.292480" y2="1192.069702" style="stroke: green; stroke-width: 0.200000"/>
   <line x1="802.219604" y1="1191.069702" x2="789.932922" y2="1191.069702" style="stroke: green; stroke-width: 0.200000"/>
   <line x1="802.219604" y1="1190.069702" x2="788.689270" y2="1190.069702" style="stroke: green; stroke-width: 0.200000"/>
   <line x1="802.219604" y1="1189.069702" x2="787.445618" y2="1189.069702" style="stroke: green; stroke-width: 0.200000"/>
   <line x1="802.219604" y1="1188.069702" x2="786.201904" y2="1188.069702" style="stroke: green; stroke-width: 0.200000"/>
   <line x1="802.219604" y1="1187.069702" x2="784.958252" y2="1187.069702" style="stroke: green; stroke-width: 0.200000"/>
   <line x1="802.219604" y1="1186.069702" x2="783.714600" y2="1186.069702" style="stroke: green; stroke-width: 0.200000"/>
   <line x1="802.219604" y1="1185.069702" x2="782.677612" y2="1185.069702" style="stroke: green; stroke-width: 0.200000"/>
   <line x1="802.219604" y1="1184.069702" x2="781.474365" y2="1184.069702" style="stroke: green; stroke-width: 0.200000"/>
   <line x1="802.219604" y1="1183.069702" x2="780.243469" y2="1183.069702" style="stroke: green; stroke-width: 0.200000"/>
   <line x1="802.219604" y1="1182.069702" x2="779.012512" y2="1182.069702" style="stroke: green; stroke-width: 0.200000"/>
   <line x1="802.219604" y1="1181.069702" x2="777.781494" y2="1181.069702" style="stroke: green; stroke-width: 0.200000"/>
   <line x1="802.219604" y1="1180.069702" x2="776.550598" y2="1180.069702" style="stroke: green; stroke-width: 0.200000"/>
   <line x1="802.219604" y1="1179.069702" x2="775.473938" y2="1179.069702" style="stroke: green; stroke-width: 0.200000"/>
   <line x1="802.219604" y1="1178.069702" x2="774.480530" y2="1178.069702" style="stroke: green; stroke-width: 0.200000"/>
   <line x1="802.219604" y1="1177.069702" x2="773.493103" y2="1177.069702" style="stroke: green; stroke-width: 0.200000"/>
   <line x1="802.219604" y1="1176.069702" x2="772.548340" y2="1176.069702" style="stroke: green; stroke-width: 0.200000"/>
   <line x1="802.219604" y1="1175.069702" x2="771.603699" y2="1175.069702" style="stroke: green; stroke-width: 0.200000"/>
   <line x1="802.219604" y1="1174.069702" x2="770.659058" y2="1174.069702" style="stroke: green; stroke-width: 0.200000"/>
   <line x1="802.219604" y1="1173.069702" x2="769.692993" y2="1173.069702" style="stroke: green; stroke-width: 0.200000"/>
   <line x1="802.219604" y1="1172.069702" x2="768.714661" y2="1172.069702" style="stroke: green; stroke-width: 0.200000"/>
   <line x1="802.219604" y1="1171.069702" x2="767.736267" y2="1171.069702" style="stroke: green; stroke-width: 0.200000"/>
   <line x1="802.219604" y1="1170.069702" x2="766.757874" y2="1170.069702" style="stroke: green; stroke-width: 0.200000"/>
   <line x1="802.219604" y1="1169.069702" x2="765.779541" y2="1169.069702" style="stroke: green; stroke-width: 0.200000"/>
   <line x1="802.219604" y1="1168.069702" x2="764.853149" y2="1168.069702" style="stroke: green; stroke-width: 0.200000"/>
   <line x1="802.219604" y1="1167.069702" x2="764.167358" y2="1167.069702" style="stroke: green; stroke-width: 0.200000"/>
   <line x1="802.219604" y1="1166.069702" x2="763.584534" y2="1166.069702" style="stroke: green; stroke-width: 0.200000"/>
   <line x1="802.219604" y1="1165.069702" x2="763.088501" y2="1165.069702" style="stroke: green; stroke-width: 0.200000"/>
   <line x1="802.219604" y1="1164.069702" x2="762.592529" y2="1164.069702" style="stroke: green; stroke-width: 0.200000"/>
   <line x1="802.219604" y1="1163.069702" x2="762.096497" y2="1163.069702" style="stroke: green; stroke-width: 0.200000"/>
   <line x1="802.219604" y1="1162.069702" x2="761.600464" y2="1162.069702" style="stroke: green; stroke-width: 0.200000"/>
   <line x1="802.219604" y1="1161.069702" x2="761.104492" y2="1161.069702" style="stroke: green; stroke-width: 0.200000"/>
   <line x1="802.219604" y1="1160.069702" x2="760.608521" y2="1160.069702" style="stroke: green; stroke-width: 0.200000"/>
   <line x1="836.137817" y1="1204.069702" x2="822.300049" y2="1204.069702" style="stroke: green; stroke-width: 0.200000"/>
   <line x1="841.744934" y1="1203.069702" x2="816.926758" y2="1203.069702" style="stroke: green; stroke-width: 0.200000"/>
   <line x1="845.453735" y1="1202.069702" x2="813.157837" y2="1202.069702" style="stroke: green; stroke-width: 0.200000"/>
   <line x1="849.011292" y1="1201.069702" x2="810.012085" y2="1201.069702" style="stroke: green; stroke-width: 0.200000"/>
   <line x1="852.319580" y1="1200.069702" x2="807.031494" y2="1200.069702" style="stroke: green; stroke-width: 0.200000"/>
   <line x1="852.319580" y1="1199.069702" x2="804.523926" y2="1199.069702" style="stroke: green; stroke-width: 0.200000"/>
   <line x1="852.319580" y1="1198.069702" x2="802.319580" y2="1198.069702" style="stroke: green; stroke-width: 0.200000"/>
   <line x1="852.319580" y1="1197.069702" x2="802.319580" y2="1197.069702" style="stroke: green; stroke-width: 0.200000"/>
   <line x1="852.319580" y1="1196.069702" x2="802.319580" y2="1196.069702" style="stroke: green; stroke-width: 0.200000"/>
   <line x1="852.319580" y1="1195.069702" x2="802.319580" y2="1195.069702" style="stroke: green; stroke-width: 0.200000"/>
   <line x1="852.319580" y1="1194.069702" x2="802.319580" y2="1194.069702" style="stroke: green; stroke-width: 0.200000"/>
   <line x1="852.319580" y1="1193.069702" x2="802.319580" y2="1193.069702" style="stroke: green; stroke-width: 0.200000"/>
   <line x1="852.319580" y1="1192.069702" x2="802.319580" y2="1192.069702" style="stroke: green; stroke-width: 0.200000"/>
   <line x1="852.319580" y1="1191.069702" x2="802.319580" y2="1191.069702" style="stroke: green; stroke-width: 0.200000"/>
   <line x1="852.319580" y1="1190.069702" x2="802.319580" y2="1190.069702" style="stroke: green; stroke-width: 0.200000"/>
   <line x1="852.319580" y1="1189.069702" x2="802.319580" y2="1189.069702" style="stroke: green; stroke-width: 0.200000"/>
   <line x1="852.319580" y1="1188.069702" x2="802.319580" y2="1188.069702" style="stroke: green; stroke-width: 0.200000"/>
   <line x1="852.319580" y1="1187.069702" x2="802.319580" y2="1187.069702" style="stroke: green; stroke-width: 0.200000"/>
   <line x1="852.319580" y1="1186.069702" x2="802.319580" y2="1186.069702" style="stroke: green; stroke-width: 0.200000"/>
   <line x1="852.319580" y1="1185.069702" x2="802.319580" y2="1185.069702" style="stroke: green; stroke-width: 0.200000"/>
   <line x1="852.319580" y1="1184.069702" x2="802.319580" y2="1184.069702" style="stroke: green; stroke-width: 0.200000"/>
   <line x1="852.319580" y1="1183.069702" x2="802.319580" y2="1183.069702" style="stroke: green; stroke-width: 0.200000"/>
   <line x1="852.319580" y1="1182.069702" x2="802.319580" y2="1182.069702" style="stroke: green; stroke-width: 0.200000"/>
   <line x1="852.319580" y1="1181.069702" x2="802.319580" y2="1181.069702" style="stroke: green; stroke-width: 0.200000"/>
   <line x1="852.319580" y1="1180.069702" x2="802.319580" y2="1180.069702" style="stroke: green; stroke-width: 0.200000"/>
   <line x1="852.319580" y1="1179.069702" x2="802.319580" y2="1179.069702" style="stroke: green; stroke-width: 0.200000"/>
   <line x1="852.319580" y1="1178.069702" x2="802.319580" y2="1178.069702" style="stroke: green; stroke-width: 0.200000"/>
   <line x1="852.319580" y1="1177.069702" x2="802.319580" y2="1177.069702" style="stroke: green; stroke-width: 0.200000"/>
   <line x1="852.319580" y1="1176.069702" x2="802.319580" y2="1176.069702" style="stroke: green; stroke-width: 0.200000"/>
   <line x1="852.319580" y1="1175.069702" x2="802.319580" y2="1175.069702" style="stroke: green; stroke-width: 0.200000"/>
   <line x1="852.319580" y1="1174.069702" x2="802.319580" y2="1174.069702" style="stroke: green; stroke-width: 0.200000"/>
   <line x1="852.319580" y1="1173.069702" x2="802.319580" y2="1173.069702" style="stroke: green; stroke-width: 0.200000"/>
   <line x1="852.319580" y1="1172.069702" x2="802.319580" y2="1172.069702" style="stroke: green; stroke-width: 0.200000"/>
   <line x1="852.319580" y1="1171.069702" x2="802.319580" y2="1171.069702" style="stroke: green; stroke-width: 0.200000"/>
   <line x1="852.319580" y1="1170.069702" x2="802.319580" y2="1170.069702" style="stroke: green; stroke-width: 0.200000"/>
   <line x1="852.319580" y1="1169.069702" x2="802.319580" y2="1169.069702" style="stroke: green; stroke-width: 0.200000"/>
   <line x1="852.319580" y1="1168.069702" x2="802.319580" y2="1168.069702" style="stroke: green; stroke-width: 0.200000"/>
   <line x1="852.319580" y1="1167.069702" x2="802.319580" y2="1167.069702" style="stroke: green; stroke-width: 0.200000"/>
   <line x1="852.319580" y1="1166.069702" x2="802.319580" y2="1166.069702" style="stroke: green; stroke-width: 0.200000"/>
   <line x1="852.319580" y1="1165.069702" x2="802.319580" y2="1165.069702" style="stroke: green; stroke-width: 0.200000"/>
   <line x1="852.319580" y1="1164.069702" x2="802.319580" y2="1164.069702" style="stroke: green; stroke-width: 0.200000"/>
   <line x1="852.319580" y1="1163.069702" x2="802.319580" y2="1163.069702" style="stroke: green; stroke-width: 0.200000"/>
   <line x1="852.319580" y1="1162.069702" x2="802.319580" y2="1162.069702" style="stroke: green; stroke-width: 0.200000"/>
   <line x1="852.319580" y1="1161.069702" x2="802.319580" y2="1161.069702" style="stroke: green; stroke-width: 0.200000"/>
   <line x1="852.319580" y1="1160.069702" x2="802.319580" y2="1160.069702" style="stroke: green; stroke-width: 0.200000"/>
   <line x1="854.793945" y1="1199.069702" x2="852.419556" y2="1199.069702" style="stroke: green; stroke-width: 0.200000"/>
   <line x1="856.935181" y1="1198.069702" x2="852.419556" y2="1198.069702" style="stroke: green; stroke-width: 0.200000"/>
   <line x1="859.076477" y1="1197.069702" x2="852.419556" y2="1197.069702" style="stroke: green; stroke-width: 0.200000"/>
   <line x1="861.150818" y1="1196.069702" x2="852.419556" y2="1196.069702" style="stroke: green; stroke-width: 0.200000"/>
   <line x1="863.070618" y1="1195.069702" x2="852.419556" y2="1195.069702" style="stroke: green; stroke-width: 0.200000"/>
   <line x1="864.884155" y1="1194.069702" x2="852.419556" y2="1194.069702" style="stroke: green; stroke-width: 0.200000"/>
   <line x1="866.434326" y1="1193.069702" x2="852.419556" y2="1193.069702" style="stroke: green; stroke-width: 0.200000"/>
   <line x1="867.984375" y1="1192.069702" x2="852.419556" y2="1192.069702" style="stroke: green; stroke-width: 0.200000"/>
   <line x1="869.616211" y1="1191.069702" x2="852.419556" y2="1191.069702" style="stroke: green; stroke-width: 0.200000"/>
   <line x1="871.274414" y1="1190.069702" x2="852.419556" y2="1190.069702" style="stroke: green; stroke-width: 0.200000"/>
   <line x1="872.932678" y1="1189.069702" x2="852.419556" y2="1189.069702" style="stroke: green; stroke-width: 0.200000"/>
   <line x1="874.590820" y1="1188.069702" x2="852.419556" y2="1188.069702" style="stroke: green; stroke-width: 0.200000"/>
   <line x1="876.092407" y1="1187.069702" x2="852.419556" y2="1187.069702" style="stroke: green; stroke-width: 0.200000"/>
   <line x1="877.123047" y1="1186.069702" x2="852.419556" y2="1186.069702" style="stroke: green; stroke-width: 0.200000"/>
   <line x1="878.195679" y1="1185.069702" x2="852.419556" y2="1185.069702" style="stroke: green; stroke-width: 0.200000"/>
   <line x1="879.297607" y1="1184.069702" x2="852.419556" y2="1184.069702" style="stroke: green; stroke-width: 0.200000"/>
   <line x1="880.399719" y1="1183.069702" x2="852.419556" y2="1183.069702" style="stroke: green; stroke-width: 0.200000"/>
   <line x1="881.501709" y1="1182.069702" x2="852.419556" y2="1182.069702" style="stroke: green; stroke-width: 0.200000"/>
   <line x1="882.603699" y1="1181.069702" x2="852.419556" y2="1181.069702" style="stroke: green; stroke-width: 0.200000"/>
   <line x1="883.453125" y1="1180.069702" x2="852.419556" y2="1180.069702" style="stroke: green; stroke-width: 0.200000"/>
   <line x1="884.196228" y1="1179.069702" x2="852.419556" y2="1179.069702" style="stroke: green; stroke-width: 0.200000"/>
   <line x1="884.939331" y1="1178.069702" x2="852.419556" y2="1178.069702" style="stroke: green; stroke-width: 0.200000"/>
   <line x1="885.682495" y1="1177.069702" x2="852.419556" y2="1177.069702" style="stroke: green; stroke-width: 0.200000"/>
   <line x1="886.425659" y1="1176.069702" x2="852.419556" y2="1176.069702" style="stroke: green; stroke-width: 0.200000"/>
   <line x1="887.188660" y1="1175.069702" x2="852.419556" y2="1175.069702" style="stroke: green; stroke-width: 0.200000"/>
   <line x1="887.967468" y1="1174.069702" x2="852.419556" y2="1174.069702" style="stroke: green; stroke-width: 0.200000"/>
   <line x1="888.633423" y1="1173.069702" x2="852.419556" y2="1173.069702" style="stroke: green; stroke-width: 0.200000"/>
   <line x1="889.091492" y1="1172.069702" x2="852.419556" y2="1172.069702" style="stroke: green; stroke-width: 0.200000"/>
   <line x1="889.549622" y1="1171.069702" x2="852.419556" y2="1171.069702" style="stroke: green; stroke-width: 0.200000"/>
   <line x1="890.007690" y1="1170.069702" x2="852.419556" y2="1170.069702" style="stroke: green; stroke-width: 0.200000"/>
   <line x1="890.465759" y1="1169.069702" x2="852.419556" y2="1169.069702" style="stroke: green; stroke-width: 0.200000"/>
   <line x1="890.955078" y1="1168.069702" x2="852.419556" y2="1168.069702" style="stroke: green; stroke-width: 0.200000"/>
   <line x1="891.468567" y1="1167.069702" x2="852.419556" y2="1167.069702" style="stroke: green; stroke-width: 0.200000"/>
   <line x1="891.982117" y1="1166.069702" x2="852.419556" y2="1166.069702" style="stroke: green; stroke-width: 0.200000"/>
   <line x1="892.495667" y1="1165.069702" x2="852.419556" y2="1165.069702" style="stroke: green; stroke-width: 0.200000"/>
   <line x1="892.835754" y1="1164.069702" x2="852.419556" y2="1164.069702" style="stroke: green; stroke-width: 0.200000"/>
   <line x1="893.117676" y1="1163.069702" x2="852.419556" y2="1163.069702" style="stroke: green; stroke-width: 0.200000"/>
   <line x1="893.392395" y1="1162.069702" x2="852.419556" y2="1162.069702" style="stroke: green; stroke-width: 0.200000"/>
   <line x1="893.659424" y1="1161.069702" x2="852.419556" y2="1161.069702" style="stroke: green; stroke-width: 0.200000"/>
   <line x1="893.926514" y1="1160.069702" x2="852.419556" y2="1160.069702" style="stroke: green; stroke-width: 0.200000"/>
   <path d="M 804.719  1008.7  805.649  1008.8  806.634  1009.18  814.439  1012.54  818.583  1015.31  822.125  1017.51  828.51  1023.4  828.638  1023.58  834.023  1030.58  839.319  1039.13  843.716  1044.69  845.823  1048.02  849.502  1051.43  853.325  1054.15  861.115  1059.18  861.473  1059.43  861.873  1059.73  869.336  1065.76  874.343  1070.42  880.982  1077.58  882.314  1079.58  885.768  1085.91  888.53  1092.58  889.474  1094.92  892.852  1104.16  895.679  1113.66  896.654  1117.86  897.88  1123.79  898.473  1128.54  898.919  1134.74  898.778  1138.83  897.812  1147.25  897.771  1148.26  897.648  1148.9  896.269  1157.11  894.709  1162.95  894.027  1165.37  892.016  1169.29  889.763  1174.21  887.947  1176.54  884.047  1181.79  878.444  1186.87  877.198  1188.12  876.26  1188.81  869.157  1193.1  865.194  1195.65  861.235  1197.72  854.5  1200.86  852.334  1201.7  847.266  1203.11  842.743  1204.41  839.421  1205.04  833.034  1206.11  828.706  1206.21  823.17  1205.75  817.036  1204.65  813.015  1203.6  807.175  1201.74  800.965  1199.27  797.527  1197.69  789.922  1192.99  782.592  1187.09  781.546  1186.06  775.112  1180.83  772.532  1178.24  769.231  1174.74  763.9  1169.29  763.323  1168.54  762.466  1167.19  758.643  1159.48  756.066  1149.49  755.06  1145.14  754.042  1140.45  753.186  1135.58  752.363  1131.48  751.493  1124.56  750.716  1120.3  750.957  1111.83  751.056  1109.8  752.395  1100.75  752.692  1099.02  754.501  1087.45  755.675  1079.15  755.494  1076.43  755.028  1067.21  754.923  1066.02  754.911  1065.63  755.059  1054.87  756.183  1050.28  757.171  1045.88  758.651  1042.14  760.936  1036.74  763.512  1032.38  765.893  1028.39  769.323  1024.2  771.912  1021.24  779.073  1014.97  785.385  1010.72  787.223  1009.6  788.891  1009.2  795.835  1007.77  804.719  1008.7  " style="fill: none; stroke: darkmagenta; stroke-width: 0.200000; fill-type: evenodd"  fill-opacity="1.000000" />
   <path d="M 804.609  1009.69  805.411  1009.78  806.258  1010.1  813.959  1013.42  818.042  1016.15  821.517  1018.31  827.751  1024.06  827.831  1024.17  833.2  1031.15  838.499  1039.7  842.899  1045.27  845.047  1048.67  848.871  1052.21  852.764  1054.97  860.555  1060.01  860.884  1060.24  861.258  1060.52  868.681  1066.52  873.635  1071.12  880.194  1078.2  881.457  1080.1  884.865  1086.34  887.604  1092.96  888.54  1095.28  891.902  1104.47  894.712  1113.91  895.677  1118.08  896.893  1123.96  897.477  1128.64  897.918  1134.76  897.78  1138.75  896.815  1147.17  896.775  1148.14  896.664  1148.72  895.291  1156.9  893.744  1162.69  893.092  1165  891.116  1168.85  888.902  1173.68  887.151  1175.93  883.302  1181.11  877.754  1186.15  876.542  1187.36  875.702  1187.98  868.627  1192.25  864.691  1194.79  860.792  1196.82  854.107  1199.94  852.018  1200.75  846.995  1202.15  842.511  1203.43  839.245  1204.05  832.939  1205.11  828.736  1205.21  823.301  1204.76  817.251  1203.67  813.293  1202.64  807.512  1200.8  801.358  1198.35  798  1196.81  790.5  1192.17  783.258  1186.34  782.214  1185.31  775.783  1180.09  773.251  1177.54  769.952  1174.05  764.658  1168.64  764.144  1167.96  763.338  1166.7  759.585  1159.13  757.037  1149.25  756.036  1144.92  755.023  1140.26  754.168  1135.4  753.35  1131.32  752.482  1124.41  751.718  1120.23  751.956  1111.86  752.053  1109.9  753.383  1100.91  753.679  1099.18  755.49  1087.6  756.68  1079.18  756.492  1076.37  756.025  1067.14  755.922  1065.96  755.912  1065.62  756.057  1055  757.157  1050.51  758.13  1046.18  759.576  1042.51  761.831  1037.2  764.372  1032.89  766.714  1028.97  770.087  1024.85  772.62  1021.95  779.684  1015.77  785.926  1011.57  787.611  1010.53  789.108  1010.17  795.885  1008.78  804.609  1009.69  " style="fill: none; stroke: black; stroke-width: 0.200000; fill-type: evenodd"  fill-opacity="1.000000" />
   <path d="M 823.267  1348.54  824.122  1349.39  824.435  1350.56  824.122  1351.73  823.267  1352.58  822.099  1352.9  820.931  1352.58  820.076  1351.73  819.763  1350.56  820.076  1349.39  820.931  1348.54  822.099  1348.22  823.267  1348.54  " style="fill: none; stroke: purple; stroke-width: 0.500000; fill-type: evenodd"  fill-opacity="1.000000" />
   <path d="M 843.099  1348.83  843.831  1349.56  844.099  1350.56  843.831  1351.56  843.099  1352.29  842.099  1352.56  841.099  1352.29  840.367  1351.56  840.099  1350.56  840.367  1349.56  841.099  1348.83  842.099  1348.56  843.099  1348.83  " style="fill: none; stroke: purple; stroke-width: 0.500000; fill-type: evenodd"  fill-opacity="1.000000" />
   <path d="M 823.099  1328.83  823.831  1329.56  824.099  1330.56  823.831  1331.56  823.099  1332.29  822.099  1332.56  821.099  1332.29  820.367  1331.56  820.099  1330.56  820.367  1329.56  821.099  1328.83  822.099  1328.56  823.099  1328.83  " style="fill: none; stroke: purple; stroke-width: 0.500000; fill-type: evenodd"  fill-opacity="1.000000" />
   <path d="M 803.167  1308.71  803.948  1309.49  804.234  1310.56  803.948  1311.63  803.167  1312.41  802.099  1312.69  801.032  1312.41  800.251  1311.63  799.965  1310.56  800.251  1309.49  801.032  1308.71  802.099  1308.42  803.167  1308.71  " style="fill: none; stroke: purple; stroke-width: 0.500000; fill-type: evenodd"  fill-opacity="1.000000" />
   <path d="M 823.099  1308.83  823.831  1309.56  824.099  1310.56  823.831  1311.56  823.099  1312.29  822.099  1312.56  821.099  1312.29  820.367  1311.56  820.099  1310.56  820.367  1309.56  821.099  1308.83  822.099  1308.56  823.099  1308.83  " style="fill: none; stroke: purple; stroke-width: 0.500000; fill-type: evenodd"  fill-opacity="1.000000" />
   <path d="M 843.099  1288.83  843.831  1289.56  844.099  1290.56  843.831  1291.56  843.099  1292.29  842.099  1292.56  841.099  1292.29  840.367  1291.56  840.099  1290.56  840.367  1289.56  841.099  1288.83  842.099  1288.56  843.099  1288.83  " style="fill: none; stroke: purple; stroke-width: 0.500000; fill-type: evenodd"  fill-opacity="1.000000" />
   <path d="M 823.099  1288.83  823.831  1289.56  824.099  1290.56  823.831  1291.56  823.099  1292.29  822.099  1292.56  821.099  1292.29  820.367  1291.56  820.099  1290.56  820.367  1289.56  821.099  1288.83  822.099  1288.56  823.099  1288.83  " style="fill: none; stroke: purple; stroke-width: 0.500000; fill-type: evenodd"  fill-opacity="1.000000" />
   <path d="M 803.099  1288.83  803.831  1289.56  804.099  1290.56  803.831  1291.56  803.099  1292.29  802.099  1292.56  801.099  1292.29  800.367  1291.56  800.099  1290.56  800.367  1289.56  801.099  1288.83  802.099  1288.56  803.099  1288.83  " style="fill: none; stroke: purple; stroke-width: 0.500000; fill-type: evenodd"  fill-opacity="1.000000" />
   <path d="M 843.099  1268.83  843.831  1269.56  844.099  1270.56  843.831  1271.56  843.099  1272.29  842.099  1272.56  841.099  1272.29  840.367  1271.56  840.099  1270.56  840.367  1269.56  841.099  1268.83  842.099  1268.56  843.099  1268.83  " style="fill: none; stroke: purple; stroke-width: 0.500000; fill-type: evenodd"  fill-opacity="1.000000" />
   <path d="M 823.099  1268.83  823.831  1269.56  824.099  1270.56  823.831  1271.56  823.099  1272.29  822.099  1272.56  821.099  1272.29  820.367  1271.56  820.099  1270.56  820.367  1269.56  821.099  1268.83  822.099  1268.56  823.099  1268.83  " style="fill: none; stroke: purple; stroke-width: 0.500000; fill-type: evenodd"  fill-opacity="1.000000" />
   <path d="M 1004.53  1244.38  1006.24  1245.37  1007.59  1246.82  1008.45  1248.6  1008.74  1250.56  1008.45  1252.52  1007.59  1254.3  1006.24  1255.75  1004.53  1256.74  1002.6  1257.18  1000.62  1257.03  998.779  1256.31  997.231  1255.08  996.116  1253.44  995.533  1251.55  995.533  1249.57  996.116  1247.68  997.231  1246.04  998.779  1244.81  1000.62  1244.08  1002.6  1243.94  1004.53  1244.38  " style="fill: none; stroke: purple; stroke-width: 0.500000; fill-type: evenodd"  fill-opacity="1.000000" />
   <path d="M 843.099  1248.83  843.831  1249.56  844.099  1250.56  843.831  1251.56  843.099  1252.29  842.099  1252.56  841.099  1252.29  840.367  1251.56  840.099  1250.56  840.367  1249.56  841.099  1248.83  842.099  1248.56  843.099  1248.83  " style="fill: none; stroke: purple; stroke-width: 0.500000; fill-type: evenodd"  fill-opacity="1.000000" />
   <path d="M 823.099  1248.83  823.831  1249.56  824.099  1250.56  823.831  1251.56  823.099  1252.29  822.099  1252.56  821.099  1252.29  820.367  1251.56  820.099  1250.56  820.367  1249.56  821.099  1248.83  822.099  1248.56  823.099  1248.83  " style="fill: none; stroke: purple; stroke-width: 0.500000; fill-type: evenodd"  fill-opacity="1.000000" />
   <path d="M 803.099  1248.83  803.831  1249.56  804.099  1250.56  803.831  1251.56  803.099  1252.29  802.099  1252.56  801.099  1252.29  800.367  1251.56  800.099  1250.56  800.367  1249.56  801.099  1248.83  802.099  1248.56  803.099  1248.83  " style="fill: none; stroke: purple; stroke-width: 0.500000; fill-type: evenodd"  fill-opacity="1.000000" />
   <path d="M 1005.13  1223.92  1006.88  1225.04  1008.24  1226.61  1009.1  1228.5  1009.4  1230.56  1009.1  1232.62  1008.24  1234.51  1006.88  1236.08  1005.13  1237.2  1003.14  1237.78  1001.06  1237.78  999.067  1237.2  997.32  1236.08  995.959  1234.51  995.096  1232.62  994.801  1230.56  995.096  1228.5  995.959  1226.61  997.32  1225.04  999.067  1223.92  1001.06  1223.33  1003.14  1223.33  1005.13  1223.92  " style="fill: none; stroke: purple; stroke-width: 0.500000; fill-type: evenodd"  fill-opacity="1.000000" />
   <path d="M 985.105  1223.98  986.837  1225.09  988.185  1226.65  989.041  1228.52  989.334  1230.56  989.041  1232.6  988.185  1234.47  986.837  1236.03  985.105  1237.14  983.129  1237.72  981.07  1237.72  979.094  1237.14  977.362  1236.03  976.013  1234.47  975.158  1232.6  974.865  1230.56  975.158  1228.52  976.013  1226.65  977.362  1225.09  979.094  1223.98  981.07  1223.4  983.129  1223.4  985.105  1223.98  " style="fill: none; stroke: purple; stroke-width: 0.500000; fill-type: evenodd"  fill-opacity="1.000000" />
   <path d="M 965.092  1224.01  966.818  1225.11  968.16  1226.66  969.012  1228.53  969.304  1230.56  969.012  1232.59  968.16  1234.45  966.818  1236  965.092  1237.11  963.125  1237.69  961.074  1237.69  959.106  1237.11  957.381  1236  956.038  1234.45  955.186  1232.59  954.895  1230.56  955.186  1228.53  956.038  1226.66  957.381  1225.11  959.106  1224.01  961.074  1223.43  963.125  1223.43  965.092  1224.01  " style="fill: none; stroke: purple; stroke-width: 0.500000; fill-type: evenodd"  fill-opacity="1.000000" />
   <path d="M 844.006  1228.17  844.855  1229.23  845.158  1230.56  844.855  1231.89  844.006  1232.95  842.78  1233.54  841.419  1233.54  840.192  1232.95  839.344  1231.89  839.041  1230.56  839.344  1229.23  840.192  1228.17  841.419  1227.58  842.78  1227.58  844.006  1228.17  " style="fill: none; stroke: purple; stroke-width: 0.500000; fill-type: evenodd"  fill-opacity="1.000000" />
   <path d="M 823.099  1228.83  823.831  1229.56  824.099  1230.56  823.831  1231.56  823.099  1232.29  822.099  1232.56  821.099  1232.29  820.367  1231.56  820.099  1230.56  820.367  1229.56  821.099  1228.83  822.099  1228.56  823.099  1228.83  " style="fill: none; stroke: purple; stroke-width: 0.500000; fill-type: evenodd"  fill-opacity="1.000000" />
   <path d="M 1004.23  1202.62  1006.21  1203.44  1007.91  1204.75  1009.22  1206.45  1010.04  1208.43  1010.32  1210.56  1010.04  1212.69  1009.22  1214.67  1007.91  1216.37  1006.21  1217.68  1004.23  1218.5  1002.1  1218.78  999.971  1218.5  997.988  1217.68  996.285  1216.37  994.979  1214.67  994.157  1212.69  993.877  1210.56  994.157  1208.43  994.979  1206.45  996.285  1204.75  997.988  1203.44  999.971  1202.62  1002.1  1202.34  1004.23  1202.62  " style="fill: none; stroke: purple; stroke-width: 0.500000; fill-type: evenodd"  fill-opacity="1.000000" />
   <path d="M 923.694  1202.88  925.706  1203.6  927.45  1204.83  928.797  1206.49  929.648  1208.44  929.938  1210.56  929.648  1212.67  928.797  1214.63  927.45  1216.29  925.706  1217.52  923.694  1218.23  921.564  1218.38  919.474  1217.95  917.579  1216.96  916.019  1215.51  914.909  1213.68  914.333  1211.63  914.333  1209.49  914.909  1207.44  916.019  1205.61  917.579  1204.15  919.474  1203.17  921.564  1202.74  923.694  1202.88  " style="fill: none; stroke: purple; stroke-width: 0.500000; fill-type: evenodd"  fill-opacity="1.000000" />
   <path d="M 985.198  1203.77  986.984  1204.92  988.374  1206.53  989.256  1208.46  989.558  1210.56  989.256  1212.66  988.374  1214.59  986.984  1216.2  985.198  1217.34  983.161  1217.94  981.038  1217.94  979.001  1217.34  977.215  1216.2  975.825  1214.59  974.943  1212.66  974.641  1210.56  974.943  1208.46  975.825  1206.53  977.215  1204.92  979.001  1203.77  981.038  1203.18  983.161  1203.18  985.198  1203.77  " style="fill: none; stroke: purple; stroke-width: 0.500000; fill-type: evenodd"  fill-opacity="1.000000" />
   <path d="M 965.128  1203.93  966.874  1205.05  968.232  1206.62  969.094  1208.51  969.39  1210.56  969.094  1212.61  968.232  1214.5  966.874  1216.07  965.128  1217.19  963.137  1217.78  961.062  1217.78  959.071  1217.19  957.325  1216.07  955.966  1214.5  955.104  1212.61  954.809  1210.56  955.104  1208.51  955.966  1206.62  957.325  1205.05  959.071  1203.93  961.062  1203.34  963.137  1203.34  965.128  1203.93  " style="fill: none; stroke: purple; stroke-width: 0.500000; fill-type: evenodd"  fill-opacity="1.000000" />
   <path d="M 945.053  1204.09  946.756  1205.19  948.082  1206.71  948.922  1208.56  949.211  1210.56  948.922  1212.56  948.082  1214.4  946.756  1215.93  945.053  1217.03  943.111  1217.6  941.087  1217.6  939.145  1217.03  937.443  1215.93  936.117  1214.4  935.276  1212.56  934.988  1210.56  935.276  1208.56  936.117  1206.71  937.443  1205.19  939.145  1204.09  941.087  1203.52  943.111  1203.52  945.053  1204.09  " style="fill: none; stroke: purple; stroke-width: 0.500000; fill-type: evenodd"  fill-opacity="1.000000" />
   <path d="M 909.22  1186.45  910.041  1188.43  910.322  1190.56  910.041  1192.69  909.22  1194.67  907.913  1196.37  906.21  1197.68  904.227  1198.5  902.099  1198.78  899.971  1198.5  898.357  1197.83  900.051  1196.3  905.059  1189.56  908.266  1185.44  908.333  1185.29  909.22  1186.45  " style="fill: none; stroke: purple; stroke-width: 0.500000; fill-type: evenodd"  fill-opacity="1.000000" />
   <path d="M 963.704  1182.84  965.728  1183.56  967.483  1184.8  968.838  1186.46  969.694  1188.43  969.986  1190.56  969.694  1192.69  968.838  1194.66  967.483  1196.32  965.728  1197.56  963.704  1198.28  961.561  1198.43  959.458  1197.99  957.551  1197  955.982  1195.54  954.865  1193.7  954.286  1191.63  954.286  1189.49  954.865  1187.42  955.982  1185.58  957.551  1184.12  959.458  1183.13  961.561  1182.69  963.704  1182.84  " style="fill: none; stroke: purple; stroke-width: 0.500000; fill-type: evenodd"  fill-opacity="1.000000" />
   <path d="M 923.703  1182.84  925.725  1183.56  927.478  1184.8  928.832  1186.46  929.688  1188.43  929.98  1190.56  929.688  1192.69  928.832  1194.65  927.478  1196.32  925.725  1197.56  923.703  1198.27  921.562  1198.42  919.46  1197.98  917.555  1197  915.986  1195.53  914.871  1193.7  914.292  1191.63  914.292  1189.49  914.871  1187.42  915.986  1185.59  917.555  1184.12  919.46  1183.13  921.562  1182.7  923.703  1182.84  " style="fill: none; stroke: purple; stroke-width: 0.500000; fill-type: evenodd"  fill-opacity="1.000000" />
   <path d="M 943.638  1183.16  945.578  1183.85  947.26  1185.03  948.559  1186.63  949.379  1188.52  949.66  1190.56  949.379  1192.6  948.559  1194.49  947.26  1196.08  945.578  1197.27  943.638  1197.96  941.583  1198.1  939.568  1197.68  937.74  1196.74  936.235  1195.33  935.165  1193.57  934.609  1191.59  934.609  1189.53  935.165  1187.55  936.235  1185.79  937.74  1184.38  939.568  1183.44  941.583  1183.02  943.638  1183.16  " style="fill: none; stroke: purple; stroke-width: 0.500000; fill-type: evenodd"  fill-opacity="1.000000" />
   <path d="M 945.318  1162.07  947.256  1163.09  948.894  1164.54  950.137  1166.34  950.913  1168.39  951.176  1170.56  950.913  1172.73  950.137  1174.78  948.894  1176.58  947.256  1178.03  945.318  1179.05  943.193  1179.57  941.005  1179.57  938.881  1179.05  936.943  1178.03  935.305  1176.58  934.062  1174.78  933.286  1172.73  933.022  1170.56  933.286  1168.39  934.062  1166.34  935.305  1164.54  936.943  1163.09  938.881  1162.07  941.005  1161.55  943.193  1161.55  945.318  1162.07  " style="fill: none; stroke: purple; stroke-width: 0.500000; fill-type: evenodd"  fill-opacity="1.000000" />
   <path d="M 924.755  1162.39  926.703  1163.3  928.363  1164.68  929.629  1166.42  930.422  1168.42  930.692  1170.56  930.422  1172.7  929.629  1174.7  928.363  1176.44  926.703  1177.81  924.755  1178.73  922.639  1179.13  920.489  1179  918.441  1178.33  916.622  1177.18  915.148  1175.61  914.11  1173.72  914.043  1173.46  914.137  1173.28  915.442  1168.65  916.715  1163.88  918.441  1162.78  920.489  1162.12  922.639  1161.98  924.755  1162.39  " style="fill: none; stroke: purple; stroke-width: 0.500000; fill-type: evenodd"  fill-opacity="1.000000" />
</svg>
