<?xml version="1.0" encoding="UTF-8" standalone="yes"?>
<!DOCTYPE svg PUBLIC "-//W3C//DTD SVG 1.0//EN" "http://www.w3.org/TR/2001/REC-SVG-20010904/DTD/svg10.dtd">
<svg height="2000" width="2000" xmlns="http://www.w3.org/2000/svg" xmlns:svg="http://www.w3.org/2000/svg" xmlns:xlink="http://www.w3.org/1999/xlink">
   <marker id="endArrow" markerHeight="8" markerUnits="strokeWidth" markerWidth="10" orient="auto" refX="1" refY="5" viewBox="0 0 1000 1000">
      <polyline fill="darkblue" points="0,0 10,5 0,10 1,5" />
   </marker>
   <circle cx="1000" cy="1000" r="1" style="stroke:black; fill: red" />
   <circle cx="1000" cy="1000" r="800" style="stroke:black; fill: none" />
   <line x1="1049.242798" y1="1019.105347" x2="1049.242798" y2="1019.855469" style="stroke: green; stroke-width: 0.200000"/>
   <line x1="1050.242798" y1="1018.105408" x2="1050.242798" y2="1019.855469" style="stroke: green; stroke-width: 0.200000"/>
   <line x1="1051.242798" y1="1017.105408" x2="1051.242798" y2="1019.855469" style="stroke: green; stroke-width: 0.200000"/>
   <line x1="1052.242798" y1="1016.552185" x2="1052.242798" y2="1019.855469" style="stroke: green; stroke-width: 0.200000"/>
   <line x1="1053.242798" y1="1017.552246" x2="1053.242798" y2="1019.855469" style="stroke: green; stroke-width: 0.200000"/>
   <line x1="1054.242798" y1="1018.552246" x2="1054.242798" y2="1019.855469" style="stroke: green; stroke-width: 0.200000"/>
   <line x1="1055.242798" y1="1019.326721" x2="1055.242798" y2="1019.855469" style="stroke: green; stroke-width: 0.200000"/>
   <line x1="1056.242798" y1="1018.326721" x2="1056.242798" y2="1019.855469" style="stroke: green; stroke-width: 0.200000"/>
   <line x1="1057.242798" y1="1017.326721" x2="1057.242798" y2="1019.855469" style="stroke: green; stroke-width: 0.200000"/>
   <line x1="1058.242798" y1="1016.326782" x2="1058.242798" y2="1019.855469" style="stroke: green; stroke-width: 0.200000"/>
   <line x1="1059.242798" y1="1015.326782" x2="1059.242798" y2="1019.855469" style="stroke: green; stroke-width: 0.200000"/>
   <line x1="1060.242798" y1="1014.326721" x2="1060.242798" y2="1019.855469" style="stroke: green; stroke-width: 0.200000"/>
   <line x1="1061.242798" y1="1013.326721" x2="1061.242798" y2="1019.855469" style="stroke: green; stroke-width: 0.200000"/>
   <line x1="1062.242798" y1="1012.326721" x2="1062.242798" y2="1019.855469" style="stroke: green; stroke-width: 0.200000"/>
   <line x1="1063.242798" y1="1011.326782" x2="1063.242798" y2="1019.855469" style="stroke: green; stroke-width: 0.200000"/>
   <line x1="1064.242798" y1="1010.326782" x2="1064.242798" y2="1019.855469" style="stroke: green; stroke-width: 0.200000"/>
   <line x1="1065.242798" y1="1009.326782" x2="1065.242798" y2="1019.855469" style="stroke: green; stroke-width: 0.200000"/>
   <line x1="1066.242798" y1="1008.326721" x2="1066.242798" y2="1019.855469" style="stroke: green; stroke-width: 0.200000"/>
   <line x1="1067.242798" y1="1007.326721" x2="1067.242798" y2="1019.855469" style="stroke: green; stroke-width: 0.200000"/>
   <line x1="1068.242798" y1="1006.326782" x2="1068.242798" y2="1019.855469" style="stroke: green; stroke-width: 0.200000"/>
   <line x1="1069.242798" y1="1005.326782" x2="1069.242798" y2="1019.855469" style="stroke: green; stroke-width: 0.200000"/>
   <line x1="1070.242798" y1="1004.326782" x2="1070.242798" y2="1019.855469" style="stroke: green; stroke-width: 0.200000"/>
   <line x1="1071.242798" y1="1003.326782" x2="1071.242798" y2="1019.855469" style="stroke: green; stroke-width: 0.200000"/>
   <line x1="1072.242798" y1="1002.326721" x2="1072.242798" y2="1019.855469" style="stroke: green; stroke-width: 0.200000"/>
   <line x1="1073.242798" y1="1001.326782" x2="1073.242798" y2="1019.855469" style="stroke: green; stroke-width: 0.200000"/>
   <line x1="1074.242798" y1="1000.326782" x2="1074.242798" y2="1019.855469" style="stroke: green; stroke-width: 0.200000"/>
   <line x1="1075.242798" y1="999.326782" x2="1075.242798" y2="1019.855469" style="stroke: green; stroke-width: 0.200000"/>
   <line x1="1076.242798" y1="998.326782" x2="1076.242798" y2="1019.855469" style="stroke: green; stroke-width: 0.200000"/>
   <line x1="1077.242798" y1="997.326782" x2="1077.242798" y2="1019.855469" style="stroke: green; stroke-width: 0.200000"/>
   <line x1="1078.242798" y1="996.326782" x2="1078.242798" y2="1019.855469" style="stroke: green; stroke-width: 0.200000"/>
   <line x1="1079.242798" y1="995.326782" x2="1079.242798" y2="1019.855469" style="stroke: green; stroke-width: 0.200000"/>
   <line x1="1080.242798" y1="994.326782" x2="1080.242798" y2="1019.855469" style="stroke: green; stroke-width: 0.200000"/>
   <line x1="1081.242798" y1="993.326782" x2="1081.242798" y2="1019.855469" style="stroke: green; stroke-width: 0.200000"/>
   <line x1="1082.242798" y1="992.326782" x2="1082.242798" y2="1019.855469" style="stroke: green; stroke-width: 0.200000"/>
   <line x1="1083.242798" y1="991.326843" x2="1083.242798" y2="1019.855469" style="stroke: green; stroke-width: 0.200000"/>
   <line x1="1084.242798" y1="990.326782" x2="1084.242798" y2="1019.855469" style="stroke: green; stroke-width: 0.200000"/>
   <line x1="1085.242798" y1="989.326782" x2="1085.242798" y2="1019.855469" style="stroke: green; stroke-width: 0.200000"/>
   <line x1="1086.242798" y1="988.326782" x2="1086.242798" y2="1019.855469" style="stroke: green; stroke-width: 0.200000"/>
   <line x1="1087.242798" y1="987.326782" x2="1087.242798" y2="1019.855469" style="stroke: green; stroke-width: 0.200000"/>
   <line x1="1088.242798" y1="986.326843" x2="1088.242798" y2="1019.855469" style="stroke: green; stroke-width: 0.200000"/>
   <line x1="1089.242798" y1="985.326843" x2="1089.242798" y2="1019.855469" style="stroke: green; stroke-width: 0.200000"/>
   <line x1="1090.242798" y1="984.326782" x2="1090.242798" y2="1019.855469" style="stroke: green; stroke-width: 0.200000"/>
   <line x1="1091.242798" y1="983.326782" x2="1091.242798" y2="1019.855469" style="stroke: green; stroke-width: 0.200000"/>
   <line x1="1092.242798" y1="982.326782" x2="1092.242798" y2="1019.855469" style="stroke: green; stroke-width: 0.200000"/>
   <line x1="1093.242798" y1="981.326843" x2="1093.242798" y2="1019.855469" style="stroke: green; stroke-width: 0.200000"/>
   <line x1="1094.242798" y1="980.326843" x2="1094.242798" y2="1019.855469" style="stroke: green; stroke-width: 0.200000"/>
   <line x1="1095.242798" y1="979.326843" x2="1095.242798" y2="1019.855469" style="stroke: green; stroke-width: 0.200000"/>
   <line x1="1096.242798" y1="978.326904" x2="1096.242798" y2="1019.855469" style="stroke: green; stroke-width: 0.200000"/>
   <line x1="1097.242798" y1="977.326782" x2="1097.242798" y2="1019.855469" style="stroke: green; stroke-width: 0.200000"/>
   <line x1="1098.242798" y1="976.326843" x2="1098.242798" y2="1019.855469" style="stroke: green; stroke-width: 0.200000"/>
   <line x1="1099.242798" y1="975.326843" x2="1099.242798" y2="1019.855469" style="stroke: green; stroke-width: 0.200000"/>
   <line x1="1100.242798" y1="972.692139" x2="1100.242798" y2="1019.855469" style="stroke: green; stroke-width: 0.200000"/>
   <line x1="1101.242798" y1="973.899658" x2="1101.242798" y2="1019.855469" style="stroke: green; stroke-width: 0.200000"/>
   <line x1="1102.242798" y1="975.107361" x2="1102.242798" y2="1019.855469" style="stroke: green; stroke-width: 0.200000"/>
   <line x1="1103.242798" y1="976.314941" x2="1103.242798" y2="1019.855469" style="stroke: green; stroke-width: 0.200000"/>
   <line x1="1104.242798" y1="977.537842" x2="1104.242798" y2="1019.855469" style="stroke: green; stroke-width: 0.200000"/>
   <line x1="1105.242798" y1="978.770630" x2="1105.242798" y2="1019.855469" style="stroke: green; stroke-width: 0.200000"/>
   <line x1="1106.242798" y1="980.062805" x2="1106.242798" y2="1019.424805" style="stroke: green; stroke-width: 0.200000"/>
   <line x1="1107.242798" y1="981.385132" x2="1107.242798" y2="1018.219116" style="stroke: green; stroke-width: 0.200000"/>
   <line x1="1108.242798" y1="982.845825" x2="1108.242798" y2="1017.018982" style="stroke: green; stroke-width: 0.200000"/>
   <line x1="1109.242798" y1="984.374756" x2="1109.242798" y2="1015.819031" style="stroke: green; stroke-width: 0.200000"/>
   <line x1="1110.242798" y1="986.154480" x2="1110.242798" y2="1014.518555" style="stroke: green; stroke-width: 0.200000"/>
   <line x1="1111.242798" y1="988.188721" x2="1111.242798" y2="1013.104309" style="stroke: green; stroke-width: 0.200000"/>
   <line x1="1112.242798" y1="990.534973" x2="1112.242798" y2="1011.429199" style="stroke: green; stroke-width: 0.200000"/>
   <line x1="1113.242798" y1="993.361328" x2="1113.242798" y2="1009.103516" style="stroke: green; stroke-width: 0.200000"/>
   <line x1="1114.242798" y1="998.522217" x2="1114.242798" y2="1004.957275" style="stroke: green; stroke-width: 0.200000"/>
   <line x1="1099.242798" y1="971.484497" x2="1099.242798" y2="974.993408" style="stroke: green; stroke-width: 0.200000"/>
   <line x1="1098.242798" y1="970.247681" x2="1098.242798" y2="973.758179" style="stroke: green; stroke-width: 0.200000"/>
   <line x1="1097.242798" y1="970.539795" x2="1097.242798" y2="972.522827" style="stroke: green; stroke-width: 0.200000"/>
   <line x1="1005.242798" y1="1069.326782" x2="1005.242798" y2="1069.955566" style="stroke: green; stroke-width: 0.200000"/>
   <line x1="1006.242737" y1="1068.326782" x2="1006.242737" y2="1069.955566" style="stroke: green; stroke-width: 0.200000"/>
   <line x1="1007.242798" y1="1061.105347" x2="1007.242798" y2="1069.955566" style="stroke: green; stroke-width: 0.200000"/>
   <line x1="1008.242798" y1="1060.105347" x2="1008.242798" y2="1069.955566" style="stroke: green; stroke-width: 0.200000"/>
   <line x1="1009.242798" y1="1059.105347" x2="1009.242798" y2="1069.955566" style="stroke: green; stroke-width: 0.200000"/>
   <line x1="1010.242798" y1="1058.105347" x2="1010.242798" y2="1069.955566" style="stroke: green; stroke-width: 0.200000"/>
   <line x1="1011.242737" y1="1057.105347" x2="1011.242737" y2="1069.955566" style="stroke: green; stroke-width: 0.200000"/>
   <line x1="1012.242798" y1="1056.105347" x2="1012.242798" y2="1069.955566" style="stroke: green; stroke-width: 0.200000"/>
   <line x1="1013.242798" y1="1055.105347" x2="1013.242798" y2="1069.955566" style="stroke: green; stroke-width: 0.200000"/>
   <line x1="1014.242798" y1="1054.105347" x2="1014.242798" y2="1069.955566" style="stroke: green; stroke-width: 0.200000"/>
   <line x1="1015.242798" y1="1053.105347" x2="1015.242798" y2="1069.955566" style="stroke: green; stroke-width: 0.200000"/>
   <line x1="1006.242737" y1="1062.105347" x2="1006.242737" y2="1067.881470" style="stroke: green; stroke-width: 0.200000"/>
   <line x1="1005.242798" y1="1063.105347" x2="1005.242798" y2="1066.881470" style="stroke: green; stroke-width: 0.200000"/>
   <line x1="1004.242798" y1="1064.105347" x2="1004.242798" y2="1065.881470" style="stroke: green; stroke-width: 0.200000"/>
   <line x1="1016.242737" y1="1052.105347" x2="1016.242737" y2="1069.955566" style="stroke: green; stroke-width: 0.200000"/>
   <line x1="1017.242798" y1="1051.105347" x2="1017.242798" y2="1069.955566" style="stroke: green; stroke-width: 0.200000"/>
   <line x1="1018.242798" y1="1050.105347" x2="1018.242798" y2="1069.955566" style="stroke: green; stroke-width: 0.200000"/>
   <line x1="1019.242798" y1="1049.105347" x2="1019.242798" y2="1069.955566" style="stroke: green; stroke-width: 0.200000"/>
   <line x1="1020.242798" y1="1048.105347" x2="1020.242798" y2="1069.955566" style="stroke: green; stroke-width: 0.200000"/>
   <line x1="1021.242737" y1="1047.105347" x2="1021.242737" y2="1069.031494" style="stroke: green; stroke-width: 0.200000"/>
   <line x1="1022.242798" y1="1046.105347" x2="1022.242798" y2="1065.785889" style="stroke: green; stroke-width: 0.200000"/>
   <line x1="1023.242798" y1="1045.105347" x2="1023.242798" y2="1062.707642" style="stroke: green; stroke-width: 0.200000"/>
   <line x1="1024.242798" y1="1044.105347" x2="1024.242798" y2="1060.018188" style="stroke: green; stroke-width: 0.200000"/>
   <line x1="1025.242798" y1="1043.105347" x2="1025.242798" y2="1057.628418" style="stroke: green; stroke-width: 0.200000"/>
   <line x1="1026.242798" y1="1042.105347" x2="1026.242798" y2="1055.711426" style="stroke: green; stroke-width: 0.200000"/>
   <line x1="1027.242798" y1="1041.105347" x2="1027.242798" y2="1053.836792" style="stroke: green; stroke-width: 0.200000"/>
   <line x1="1028.242798" y1="1040.105347" x2="1028.242798" y2="1052.143066" style="stroke: green; stroke-width: 0.200000"/>
   <line x1="1029.242798" y1="1039.105347" x2="1029.242798" y2="1050.749756" style="stroke: green; stroke-width: 0.200000"/>
   <line x1="1030.242798" y1="1038.105347" x2="1030.242798" y2="1049.356567" style="stroke: green; stroke-width: 0.200000"/>
   <line x1="1031.242798" y1="1037.105347" x2="1031.242798" y2="1047.982666" style="stroke: green; stroke-width: 0.200000"/>
   <line x1="1032.242798" y1="1036.105347" x2="1032.242798" y2="1046.797241" style="stroke: green; stroke-width: 0.200000"/>
   <line x1="1033.242798" y1="1035.105347" x2="1033.242798" y2="1045.774414" style="stroke: green; stroke-width: 0.200000"/>
   <line x1="1034.242798" y1="1034.105347" x2="1034.242798" y2="1044.751709" style="stroke: green; stroke-width: 0.200000"/>
   <line x1="1035.242798" y1="1033.105347" x2="1035.242798" y2="1043.728882" style="stroke: green; stroke-width: 0.200000"/>
   <line x1="1036.242798" y1="1032.105347" x2="1036.242798" y2="1042.733887" style="stroke: green; stroke-width: 0.200000"/>
   <line x1="1037.242798" y1="1031.105347" x2="1037.242798" y2="1041.944824" style="stroke: green; stroke-width: 0.200000"/>
   <line x1="1038.242798" y1="1030.105347" x2="1038.242798" y2="1041.205811" style="stroke: green; stroke-width: 0.200000"/>
   <line x1="1039.242798" y1="1029.105347" x2="1039.242798" y2="1040.466553" style="stroke: green; stroke-width: 0.200000"/>
   <line x1="1040.242798" y1="1028.105347" x2="1040.242798" y2="1039.727539" style="stroke: green; stroke-width: 0.200000"/>
   <line x1="1041.242798" y1="1027.105469" x2="1041.242798" y2="1039.003784" style="stroke: green; stroke-width: 0.200000"/>
   <line x1="1042.242798" y1="1026.105347" x2="1042.242798" y2="1038.337891" style="stroke: green; stroke-width: 0.200000"/>
   <line x1="1043.242798" y1="1025.105347" x2="1043.242798" y2="1037.812500" style="stroke: green; stroke-width: 0.200000"/>
   <line x1="1044.242798" y1="1024.105347" x2="1044.242798" y2="1037.286987" style="stroke: green; stroke-width: 0.200000"/>
   <line x1="1045.242798" y1="1023.105408" x2="1045.242798" y2="1036.761597" style="stroke: green; stroke-width: 0.200000"/>
   <line x1="1046.242798" y1="1022.105408" x2="1046.242798" y2="1036.248291" style="stroke: green; stroke-width: 0.200000"/>
   <line x1="1047.242798" y1="1021.105347" x2="1047.242798" y2="1035.738770" style="stroke: green; stroke-width: 0.200000"/>
   <line x1="1048.242798" y1="1020.105347" x2="1048.242798" y2="1035.229004" style="stroke: green; stroke-width: 0.200000"/>
   <line x1="1049.242798" y1="1019.955505" x2="1049.242798" y2="1034.863037" style="stroke: green; stroke-width: 0.200000"/>
   <line x1="1050.242798" y1="1019.955505" x2="1050.242798" y2="1034.499878" style="stroke: green; stroke-width: 0.200000"/>
   <line x1="1051.242798" y1="1019.955505" x2="1051.242798" y2="1034.153931" style="stroke: green; stroke-width: 0.200000"/>
   <line x1="1052.242798" y1="1019.955505" x2="1052.242798" y2="1033.816406" style="stroke: green; stroke-width: 0.200000"/>
   <line x1="1053.242798" y1="1019.955505" x2="1053.242798" y2="1033.478271" style="stroke: green; stroke-width: 0.200000"/>
   <line x1="1054.242798" y1="1019.955505" x2="1054.242798" y2="1033.117188" style="stroke: green; stroke-width: 0.200000"/>
   <line x1="1055.242798" y1="1019.955505" x2="1055.242798" y2="1032.773926" style="stroke: green; stroke-width: 0.200000"/>
   <line x1="1056.242798" y1="1019.955505" x2="1056.242798" y2="1032.479004" style="stroke: green; stroke-width: 0.200000"/>
   <line x1="1057.242798" y1="1019.955505" x2="1057.242798" y2="1032.183472" style="stroke: green; stroke-width: 0.200000"/>
   <line x1="1058.242798" y1="1019.955505" x2="1058.242798" y2="1031.901123" style="stroke: green; stroke-width: 0.200000"/>
   <line x1="1059.242798" y1="1019.955505" x2="1059.242798" y2="1031.646606" style="stroke: green; stroke-width: 0.200000"/>
   <line x1="1060.242798" y1="1019.955505" x2="1060.242798" y2="1031.389526" style="stroke: green; stroke-width: 0.200000"/>
   <line x1="1061.242798" y1="1019.955505" x2="1061.242798" y2="1031.095703" style="stroke: green; stroke-width: 0.200000"/>
   <line x1="1062.242798" y1="1019.955505" x2="1062.242798" y2="1030.860107" style="stroke: green; stroke-width: 0.200000"/>
   <line x1="1063.242798" y1="1019.955505" x2="1063.242798" y2="1030.662720" style="stroke: green; stroke-width: 0.200000"/>
   <line x1="1064.242798" y1="1019.955505" x2="1064.242798" y2="1030.465332" style="stroke: green; stroke-width: 0.200000"/>
   <line x1="1065.242798" y1="1019.955505" x2="1065.242798" y2="1030.267944" style="stroke: green; stroke-width: 0.200000"/>
   <line x1="1075.242798" y1="1019.955505" x2="1075.242798" y2="1038.380249" style="stroke: green; stroke-width: 0.200000"/>
   <line x1="1076.242798" y1="1019.955505" x2="1076.242798" y2="1038.251709" style="stroke: green; stroke-width: 0.200000"/>
   <line x1="1077.242798" y1="1019.955505" x2="1077.242798" y2="1038.127563" style="stroke: green; stroke-width: 0.200000"/>
   <line x1="1078.242798" y1="1019.955505" x2="1078.242798" y2="1037.990356" style="stroke: green; stroke-width: 0.200000"/>
   <line x1="1079.242798" y1="1019.955505" x2="1079.242798" y2="1037.853027" style="stroke: green; stroke-width: 0.200000"/>
   <line x1="1080.242798" y1="1019.955505" x2="1080.242798" y2="1037.715820" style="stroke: green; stroke-width: 0.200000"/>
   <line x1="1081.242798" y1="1019.955505" x2="1081.242798" y2="1037.578369" style="stroke: green; stroke-width: 0.200000"/>
   <line x1="1082.242798" y1="1019.955505" x2="1082.242798" y2="1037.451538" style="stroke: green; stroke-width: 0.200000"/>
   <line x1="1083.242798" y1="1019.955505" x2="1083.242798" y2="1037.330322" style="stroke: green; stroke-width: 0.200000"/>
   <line x1="1084.242798" y1="1019.955505" x2="1084.242798" y2="1037.158203" style="stroke: green; stroke-width: 0.200000"/>
   <line x1="1074.242798" y1="1019.955505" x2="1074.242798" y2="1037.064697" style="stroke: green; stroke-width: 0.200000"/>
   <line x1="1085.242798" y1="1019.955505" x2="1085.242798" y2="1036.985840" style="stroke: green; stroke-width: 0.200000"/>
   <line x1="1086.242798" y1="1019.955505" x2="1086.242798" y2="1036.715820" style="stroke: green; stroke-width: 0.200000"/>
   <line x1="1087.242798" y1="1019.955505" x2="1087.242798" y2="1036.368408" style="stroke: green; stroke-width: 0.200000"/>
   <line x1="1088.242798" y1="1019.955505" x2="1088.242798" y2="1036.020996" style="stroke: green; stroke-width: 0.200000"/>
   <line x1="1089.242798" y1="1019.955505" x2="1089.242798" y2="1035.523193" style="stroke: green; stroke-width: 0.200000"/>
   <line x1="1090.242798" y1="1019.955505" x2="1090.242798" y2="1034.994019" style="stroke: green; stroke-width: 0.200000"/>
   <line x1="1091.242798" y1="1019.955505" x2="1091.242798" y2="1034.349243" style="stroke: green; stroke-width: 0.200000"/>
   <line x1="1092.242798" y1="1019.955505" x2="1092.242798" y2="1033.535645" style="stroke: green; stroke-width: 0.200000"/>
   <line x1="1073.242798" y1="1019.955505" x2="1073.242798" y2="1033.147339" style="stroke: green; stroke-width: 0.200000"/>
   <line x1="1093.242798" y1="1019.955505" x2="1093.242798" y2="1032.697021" style="stroke: green; stroke-width: 0.200000"/>
   <line x1="1094.242798" y1="1019.955505" x2="1094.242798" y2="1031.791260" style="stroke: green; stroke-width: 0.200000"/>
   <line x1="1095.242798" y1="1019.955505" x2="1095.242798" y2="1030.885376" style="stroke: green; stroke-width: 0.200000"/>
   <line x1="1066.242798" y1="1019.955505" x2="1066.242798" y2="1030.070557" style="stroke: green; stroke-width: 0.200000"/>
   <line x1="1096.242798" y1="1019.955505" x2="1096.242798" y2="1029.979492" style="stroke: green; stroke-width: 0.200000"/>
   <line x1="1067.242798" y1="1019.955505" x2="1067.242798" y2="1029.873047" style="stroke: green; stroke-width: 0.200000"/>
   <line x1="1068.242798" y1="1019.955505" x2="1068.242798" y2="1029.675659" style="stroke: green; stroke-width: 0.200000"/>
   <line x1="1069.242798" y1="1019.955505" x2="1069.242798" y2="1029.478271" style="stroke: green; stroke-width: 0.200000"/>
   <line x1="1070.242798" y1="1019.955505" x2="1070.242798" y2="1029.280884" style="stroke: green; stroke-width: 0.200000"/>
   <line x1="1072.242798" y1="1019.955505" x2="1072.242798" y2="1029.228638" style="stroke: green; stroke-width: 0.200000"/>
   <line x1="1071.242798" y1="1019.955505" x2="1071.242798" y2="1029.083496" style="stroke: green; stroke-width: 0.200000"/>
   <line x1="1097.242798" y1="1019.955505" x2="1097.242798" y2="1029.073730" style="stroke: green; stroke-width: 0.200000"/>
   <line x1="1098.242798" y1="1019.955505" x2="1098.242798" y2="1028.163940" style="stroke: green; stroke-width: 0.200000"/>
   <line x1="1099.242798" y1="1019.955505" x2="1099.242798" y2="1027.111572" style="stroke: green; stroke-width: 0.200000"/>
   <line x1="1100.242798" y1="1019.955505" x2="1100.242798" y2="1026.059082" style="stroke: green; stroke-width: 0.200000"/>
   <line x1="1101.242798" y1="1019.955505" x2="1101.242798" y2="1025.006592" style="stroke: green; stroke-width: 0.200000"/>
   <line x1="1102.242798" y1="1019.955505" x2="1102.242798" y2="1023.962463" style="stroke: green; stroke-width: 0.200000"/>
   <line x1="1103.242798" y1="1019.955505" x2="1103.242798" y2="1022.923340" style="stroke: green; stroke-width: 0.200000"/>
   <line x1="1104.242798" y1="1019.955505" x2="1104.242798" y2="1021.858887" style="stroke: green; stroke-width: 0.200000"/>
   <line x1="1105.242798" y1="1019.955505" x2="1105.242798" y2="1020.641846" style="stroke: green; stroke-width: 0.200000"/>
   <line x1="994.242798" y1="1080.326782" x2="994.242798" y2="1111.500854" style="stroke: green; stroke-width: 0.200000"/>
   <line x1="995.242798" y1="1079.326782" x2="995.242798" y2="1111.495972" style="stroke: green; stroke-width: 0.200000"/>
   <line x1="993.242798" y1="1081.326782" x2="993.242798" y2="1111.456421" style="stroke: green; stroke-width: 0.200000"/>
   <line x1="996.242737" y1="1078.326782" x2="996.242737" y2="1111.449951" style="stroke: green; stroke-width: 0.200000"/>
   <line x1="992.242798" y1="1082.326782" x2="992.242798" y2="1111.385010" style="stroke: green; stroke-width: 0.200000"/>
   <line x1="997.242798" y1="1077.326782" x2="997.242798" y2="1111.361816" style="stroke: green; stroke-width: 0.200000"/>
   <line x1="991.242737" y1="1083.326782" x2="991.242737" y2="1111.312622" style="stroke: green; stroke-width: 0.200000"/>
   <line x1="998.242798" y1="1076.326782" x2="998.242798" y2="1111.269043" style="stroke: green; stroke-width: 0.200000"/>
   <line x1="990.242798" y1="1084.326782" x2="990.242798" y2="1111.191895" style="stroke: green; stroke-width: 0.200000"/>
   <line x1="999.242798" y1="1075.326782" x2="999.242798" y2="1111.120605" style="stroke: green; stroke-width: 0.200000"/>
   <line x1="989.242798" y1="1085.326782" x2="989.242798" y2="1111.070923" style="stroke: green; stroke-width: 0.200000"/>
   <line x1="1000.242798" y1="1074.326782" x2="1000.242798" y2="1110.972168" style="stroke: green; stroke-width: 0.200000"/>
   <line x1="988.242798" y1="1086.326782" x2="988.242798" y2="1110.923340" style="stroke: green; stroke-width: 0.200000"/>
   <line x1="1001.242737" y1="1073.326782" x2="1001.242737" y2="1110.762085" style="stroke: green; stroke-width: 0.200000"/>
   <line x1="987.242798" y1="1087.326782" x2="987.242798" y2="1110.753784" style="stroke: green; stroke-width: 0.200000"/>
   <line x1="986.242737" y1="1088.326782" x2="986.242737" y2="1110.580078" style="stroke: green; stroke-width: 0.200000"/>
   <line x1="1002.242798" y1="1072.326782" x2="1002.242798" y2="1110.548828" style="stroke: green; stroke-width: 0.200000"/>
   <line x1="985.242798" y1="1089.326782" x2="985.242798" y2="1110.360718" style="stroke: green; stroke-width: 0.200000"/>
   <line x1="1003.242798" y1="1071.326782" x2="1003.242798" y2="1110.271240" style="stroke: green; stroke-width: 0.200000"/>
   <line x1="984.242798" y1="1090.326782" x2="984.242798" y2="1110.121338" style="stroke: green; stroke-width: 0.200000"/>
   <line x1="1004.242798" y1="1070.326782" x2="1004.242798" y2="1109.986938" style="stroke: green; stroke-width: 0.200000"/>
   <line x1="983.242798" y1="1091.326782" x2="983.242798" y2="1109.833862" style="stroke: green; stroke-width: 0.200000"/>
   <line x1="1005.242798" y1="1070.055542" x2="1005.242798" y2="1109.626221" style="stroke: green; stroke-width: 0.200000"/>
   <line x1="982.242798" y1="1092.326782" x2="982.242798" y2="1109.527344" style="stroke: green; stroke-width: 0.200000"/>
   <line x1="1006.242737" y1="1070.055542" x2="1006.242737" y2="1109.230713" style="stroke: green; stroke-width: 0.200000"/>
   <line x1="981.242737" y1="1093.326782" x2="981.242737" y2="1109.221313" style="stroke: green; stroke-width: 0.200000"/>
   <line x1="980.242798" y1="1094.326782" x2="980.242798" y2="1108.869751" style="stroke: green; stroke-width: 0.200000"/>
   <line x1="1007.242798" y1="1070.055542" x2="1007.242798" y2="1108.704590" style="stroke: green; stroke-width: 0.200000"/>
   <line x1="979.242798" y1="1095.326782" x2="979.242798" y2="1108.515747" style="stroke: green; stroke-width: 0.200000"/>
   <line x1="978.242798" y1="1096.326782" x2="978.242798" y2="1108.142822" style="stroke: green; stroke-width: 0.200000"/>
   <line x1="1008.242798" y1="1070.055542" x2="1008.242798" y2="1108.106445" style="stroke: green; stroke-width: 0.200000"/>
   <line x1="977.242798" y1="1097.326782" x2="977.242798" y2="1107.738770" style="stroke: green; stroke-width: 0.200000"/>
   <line x1="1009.242798" y1="1070.055542" x2="1009.242798" y2="1107.456299" style="stroke: green; stroke-width: 0.200000"/>
   <line x1="976.242737" y1="1098.326660" x2="976.242737" y2="1107.334717" style="stroke: green; stroke-width: 0.200000"/>
   <line x1="975.242798" y1="1099.326782" x2="975.242798" y2="1106.899292" style="stroke: green; stroke-width: 0.200000"/>
   <line x1="1010.242798" y1="1070.055542" x2="1010.242798" y2="1106.736816" style="stroke: green; stroke-width: 0.200000"/>
   <line x1="974.242798" y1="1100.326782" x2="974.242798" y2="1106.443237" style="stroke: green; stroke-width: 0.200000"/>
   <line x1="973.242798" y1="1101.326782" x2="973.242798" y2="1105.987305" style="stroke: green; stroke-width: 0.200000"/>
   <line x1="1011.242737" y1="1070.055542" x2="1011.242737" y2="1105.878540" style="stroke: green; stroke-width: 0.200000"/>
   <line x1="972.242798" y1="1101.699341" x2="972.242798" y2="1105.531250" style="stroke: green; stroke-width: 0.200000"/>
   <line x1="971.242737" y1="1101.450317" x2="971.242737" y2="1105.075317" style="stroke: green; stroke-width: 0.200000"/>
   <line x1="1012.242798" y1="1070.055542" x2="1012.242798" y2="1105.011353" style="stroke: green; stroke-width: 0.200000"/>
   <line x1="970.242798" y1="1101.201416" x2="970.242798" y2="1104.619263" style="stroke: green; stroke-width: 0.200000"/>
   <line x1="969.242798" y1="1100.951416" x2="969.242798" y2="1104.163330" style="stroke: green; stroke-width: 0.200000"/>
   <line x1="1013.242798" y1="1070.055542" x2="1013.242798" y2="1104.144409" style="stroke: green; stroke-width: 0.200000"/>
   <line x1="968.242798" y1="1100.665039" x2="968.242798" y2="1103.702637" style="stroke: green; stroke-width: 0.200000"/>
   <line x1="1014.242798" y1="1070.055542" x2="1014.242798" y2="1103.272339" style="stroke: green; stroke-width: 0.200000"/>
   <line x1="967.242798" y1="1100.539673" x2="967.242798" y2="1103.237549" style="stroke: green; stroke-width: 0.200000"/>
   <line x1="966.242737" y1="1101.539795" x2="966.242737" y2="1102.772461" style="stroke: green; stroke-width: 0.200000"/>
   <line x1="1015.242798" y1="1094.901001" x2="1015.242798" y2="1102.332886" style="stroke: green; stroke-width: 0.200000"/>
   <line x1="1015.242798" y1="1070.055542" x2="1015.242798" y2="1092.383789" style="stroke: green; stroke-width: 0.200000"/>
   <line x1="1016.242737" y1="1095.285034" x2="1016.242737" y2="1101.393311" style="stroke: green; stroke-width: 0.200000"/>
   <line x1="1017.242798" y1="1095.669189" x2="1017.242798" y2="1100.453857" style="stroke: green; stroke-width: 0.200000"/>
   <line x1="1018.242798" y1="1096.053345" x2="1018.242798" y2="1099.514404" style="stroke: green; stroke-width: 0.200000"/>
   <line x1="1019.242798" y1="1096.437500" x2="1019.242798" y2="1098.574951" style="stroke: green; stroke-width: 0.200000"/>
   <line x1="1020.242798" y1="1096.821655" x2="1020.242798" y2="1097.573730" style="stroke: green; stroke-width: 0.200000"/>
   <line x1="1016.242737" y1="1070.055542" x2="1016.242737" y2="1089.470337" style="stroke: green; stroke-width: 0.200000"/>
   <line x1="1017.242798" y1="1070.055542" x2="1017.242798" y2="1086.556763" style="stroke: green; stroke-width: 0.200000"/>
   <line x1="1018.242798" y1="1070.055542" x2="1018.242798" y2="1083.447998" style="stroke: green; stroke-width: 0.200000"/>
   <line x1="1019.242798" y1="1070.055542" x2="1019.242798" y2="1078.395386" style="stroke: green; stroke-width: 0.200000"/>
   <line x1="1020.242798" y1="1070.055542" x2="1020.242798" y2="1073.300171" style="stroke: green; stroke-width: 0.200000"/>
   <line x1="961.440979" y1="1047.347900" x2="961.440979" y2="1061.212280" style="stroke: green; stroke-width: 0.200000"/>
   <line x1="960.440979" y1="1047.359863" x2="960.440979" y2="1061.190674" style="stroke: green; stroke-width: 0.200000"/>
   <line x1="962.440918" y1="1047.467163" x2="962.440918" y2="1061.093018" style="stroke: green; stroke-width: 0.200000"/>
   <line x1="959.440979" y1="1047.519897" x2="959.440979" y2="1061.026733" style="stroke: green; stroke-width: 0.200000"/>
   <line x1="963.440918" y1="1047.742065" x2="963.440918" y2="1060.823364" style="stroke: green; stroke-width: 0.200000"/>
   <line x1="958.440918" y1="1047.836792" x2="958.440918" y2="1060.703857" style="stroke: green; stroke-width: 0.200000"/>
   <line x1="964.440979" y1="1048.191162" x2="964.440979" y2="1060.376831" style="stroke: green; stroke-width: 0.200000"/>
   <line x1="957.440918" y1="1048.347290" x2="957.440918" y2="1060.193970" style="stroke: green; stroke-width: 0.200000"/>
   <line x1="965.440979" y1="1048.860107" x2="965.440979" y2="1059.709717" style="stroke: green; stroke-width: 0.200000"/>
   <line x1="956.440979" y1="1049.097168" x2="956.440979" y2="1059.450073" style="stroke: green; stroke-width: 0.200000"/>
   <line x1="966.440979" y1="1049.858154" x2="966.440979" y2="1058.703125" style="stroke: green; stroke-width: 0.200000"/>
   <line x1="955.440979" y1="1050.244507" x2="955.440979" y2="1058.298584" style="stroke: green; stroke-width: 0.200000"/>
   <line x1="967.440918" y1="1051.442627" x2="967.440918" y2="1057.097290" style="stroke: green; stroke-width: 0.200000"/>
   <line x1="954.440979" y1="1052.286865" x2="954.440979" y2="1056.259277" style="stroke: green; stroke-width: 0.200000"/>
   <line x1="881.574707" y1="1026.010254" x2="881.574707" y2="1040.924438" style="stroke: green; stroke-width: 0.200000"/>
   <line x1="882.574707" y1="1024.296753" x2="882.574707" y2="1040.924438" style="stroke: green; stroke-width: 0.200000"/>
   <line x1="883.574707" y1="1022.695190" x2="883.574707" y2="1040.924438" style="stroke: green; stroke-width: 0.200000"/>
   <line x1="884.574646" y1="1021.147522" x2="884.574646" y2="1040.924438" style="stroke: green; stroke-width: 0.200000"/>
   <line x1="885.574646" y1="1019.627136" x2="885.574646" y2="1040.924438" style="stroke: green; stroke-width: 0.200000"/>
   <line x1="886.574707" y1="1018.252808" x2="886.574707" y2="1040.924438" style="stroke: green; stroke-width: 0.200000"/>
   <line x1="887.574707" y1="1016.902832" x2="887.574707" y2="1040.924438" style="stroke: green; stroke-width: 0.200000"/>
   <line x1="888.574707" y1="1015.569153" x2="888.574707" y2="1040.924438" style="stroke: green; stroke-width: 0.200000"/>
   <line x1="889.574646" y1="1014.352478" x2="889.574646" y2="1040.924438" style="stroke: green; stroke-width: 0.200000"/>
   <line x1="890.574646" y1="1013.147583" x2="890.574646" y2="1040.924438" style="stroke: green; stroke-width: 0.200000"/>
   <line x1="891.574707" y1="1011.958069" x2="891.574707" y2="1040.924438" style="stroke: green; stroke-width: 0.200000"/>
   <line x1="892.574707" y1="1010.838318" x2="892.574707" y2="1040.924438" style="stroke: green; stroke-width: 0.200000"/>
   <line x1="893.574707" y1="1009.739441" x2="893.574707" y2="1040.924438" style="stroke: green; stroke-width: 0.200000"/>
   <line x1="894.574646" y1="1008.662659" x2="894.574646" y2="1040.924438" style="stroke: green; stroke-width: 0.200000"/>
   <line x1="895.574646" y1="1007.605042" x2="895.574646" y2="1040.924438" style="stroke: green; stroke-width: 0.200000"/>
   <line x1="896.574707" y1="1006.592285" x2="896.574707" y2="1040.924438" style="stroke: green; stroke-width: 0.200000"/>
   <line x1="897.574707" y1="1005.586182" x2="897.574707" y2="1040.924438" style="stroke: green; stroke-width: 0.200000"/>
   <line x1="898.574707" y1="1004.595093" x2="898.574707" y2="1040.924438" style="stroke: green; stroke-width: 0.200000"/>
   <line x1="899.574646" y1="1003.645752" x2="899.574646" y2="1040.924438" style="stroke: green; stroke-width: 0.200000"/>
   <line x1="900.574646" y1="1002.718567" x2="900.574646" y2="1040.924438" style="stroke: green; stroke-width: 0.200000"/>
   <line x1="901.574707" y1="1001.776489" x2="901.574707" y2="1040.038818" style="stroke: green; stroke-width: 0.200000"/>
   <line x1="880.574646" y1="1027.778931" x2="880.574646" y2="1039.367920" style="stroke: green; stroke-width: 0.200000"/>
   <line x1="902.574707" y1="1000.770325" x2="902.574707" y2="1039.038818" style="stroke: green; stroke-width: 0.200000"/>
   <line x1="903.574707" y1="999.805908" x2="903.574707" y2="1038.038818" style="stroke: green; stroke-width: 0.200000"/>
   <line x1="904.574646" y1="999.006348" x2="904.574646" y2="1037.038818" style="stroke: green; stroke-width: 0.200000"/>
   <line x1="879.574646" y1="1030.466675" x2="879.574646" y2="1036.333984" style="stroke: green; stroke-width: 0.200000"/>
   <line x1="905.574646" y1="998.245361" x2="905.574646" y2="1036.038818" style="stroke: green; stroke-width: 0.200000"/>
   <line x1="906.574707" y1="997.535767" x2="906.574707" y2="1035.038818" style="stroke: green; stroke-width: 0.200000"/>
   <line x1="907.574707" y1="996.972412" x2="907.574707" y2="1034.038818" style="stroke: green; stroke-width: 0.200000"/>
   <line x1="908.574707" y1="996.417847" x2="908.574707" y2="1033.038818" style="stroke: green; stroke-width: 0.200000"/>
   <line x1="909.574646" y1="996.033386" x2="909.574646" y2="1032.038818" style="stroke: green; stroke-width: 0.200000"/>
   <line x1="910.574646" y1="995.648926" x2="910.574646" y2="1031.038818" style="stroke: green; stroke-width: 0.200000"/>
   <line x1="911.574707" y1="995.341492" x2="911.574707" y2="1030.038818" style="stroke: green; stroke-width: 0.200000"/>
   <line x1="912.574707" y1="995.110352" x2="912.574707" y2="1029.038818" style="stroke: green; stroke-width: 0.200000"/>
   <line x1="913.574707" y1="994.879150" x2="913.574707" y2="1028.038818" style="stroke: green; stroke-width: 0.200000"/>
   <line x1="914.574646" y1="994.681641" x2="914.574646" y2="1027.038818" style="stroke: green; stroke-width: 0.200000"/>
   <line x1="915.574646" y1="994.495728" x2="915.574646" y2="1026.038818" style="stroke: green; stroke-width: 0.200000"/>
   <line x1="916.574707" y1="994.336609" x2="916.574707" y2="1025.038818" style="stroke: green; stroke-width: 0.200000"/>
   <line x1="917.574707" y1="994.179688" x2="917.574707" y2="1024.038818" style="stroke: green; stroke-width: 0.200000"/>
   <line x1="918.574707" y1="994.022827" x2="918.574707" y2="1023.038818" style="stroke: green; stroke-width: 0.200000"/>
   <line x1="919.574646" y1="993.865967" x2="919.574646" y2="1022.038818" style="stroke: green; stroke-width: 0.200000"/>
   <line x1="920.574646" y1="993.703857" x2="920.574646" y2="1021.038818" style="stroke: green; stroke-width: 0.200000"/>
   <line x1="921.574707" y1="993.520264" x2="921.574707" y2="1020.038818" style="stroke: green; stroke-width: 0.200000"/>
   <line x1="922.574707" y1="993.336731" x2="922.574707" y2="1019.038818" style="stroke: green; stroke-width: 0.200000"/>
   <line x1="923.574707" y1="993.153076" x2="923.574707" y2="1018.038818" style="stroke: green; stroke-width: 0.200000"/>
   <line x1="924.574646" y1="992.969421" x2="924.574646" y2="1017.038818" style="stroke: green; stroke-width: 0.200000"/>
   <line x1="925.574646" y1="992.808105" x2="925.574646" y2="1016.038818" style="stroke: green; stroke-width: 0.200000"/>
   <line x1="926.574707" y1="992.658020" x2="926.574707" y2="1015.038818" style="stroke: green; stroke-width: 0.200000"/>
   <line x1="927.574707" y1="992.502808" x2="927.574707" y2="1014.038818" style="stroke: green; stroke-width: 0.200000"/>
   <line x1="928.574707" y1="992.341003" x2="928.574707" y2="1013.038818" style="stroke: green; stroke-width: 0.200000"/>
   <line x1="929.574646" y1="992.179260" x2="929.574646" y2="1012.038818" style="stroke: green; stroke-width: 0.200000"/>
   <line x1="930.574646" y1="992.017517" x2="930.574646" y2="1011.038818" style="stroke: green; stroke-width: 0.200000"/>
   <line x1="931.574707" y1="991.860718" x2="931.574707" y2="1010.038818" style="stroke: green; stroke-width: 0.200000"/>
   <line x1="932.574707" y1="991.732849" x2="932.574707" y2="1009.038818" style="stroke: green; stroke-width: 0.200000"/>
   <line x1="933.574707" y1="991.605347" x2="933.574707" y2="1008.038818" style="stroke: green; stroke-width: 0.200000"/>
   <line x1="934.574646" y1="991.481018" x2="934.574646" y2="1007.038818" style="stroke: green; stroke-width: 0.200000"/>
   <line x1="935.574646" y1="991.362976" x2="935.574646" y2="1006.038818" style="stroke: green; stroke-width: 0.200000"/>
   <line x1="936.574707" y1="991.245117" x2="936.574707" y2="1005.038818" style="stroke: green; stroke-width: 0.200000"/>
   <line x1="942.574707" y1="991.787109" x2="942.574707" y2="1004.213318" style="stroke: green; stroke-width: 0.200000"/>
   <line x1="937.574707" y1="991.154419" x2="937.574707" y2="1004.038818" style="stroke: green; stroke-width: 0.200000"/>
   <line x1="943.574707" y1="992.762451" x2="943.574707" y2="1003.806458" style="stroke: green; stroke-width: 0.200000"/>
   <line x1="941.574707" y1="991.168762" x2="941.574707" y2="1003.213379" style="stroke: green; stroke-width: 0.200000"/>
   <line x1="938.574707" y1="991.069580" x2="938.574707" y2="1003.038818" style="stroke: green; stroke-width: 0.200000"/>
   <line x1="944.574646" y1="993.762451" x2="944.574646" y2="1002.806458" style="stroke: green; stroke-width: 0.200000"/>
   <line x1="940.574646" y1="990.951172" x2="940.574646" y2="1002.213257" style="stroke: green; stroke-width: 0.200000"/>
   <line x1="939.574646" y1="990.984741" x2="939.574646" y2="1002.038818" style="stroke: green; stroke-width: 0.200000"/>
   <line x1="945.574646" y1="994.762512" x2="945.574646" y2="1001.806519" style="stroke: green; stroke-width: 0.200000"/>
   <line x1="946.574707" y1="995.762451" x2="946.574707" y2="1000.806519" style="stroke: green; stroke-width: 0.200000"/>
   <line x1="947.574707" y1="996.762451" x2="947.574707" y2="999.806458" style="stroke: green; stroke-width: 0.200000"/>
   <line x1="948.574707" y1="997.762451" x2="948.574707" y2="998.806458" style="stroke: green; stroke-width: 0.200000"/>
   <line x1="893.574707" y1="1051.688843" x2="893.574707" y2="1054.793457" style="stroke: green; stroke-width: 0.200000"/>
   <line x1="894.574646" y1="1052.712646" x2="894.574646" y2="1053.959961" style="stroke: green; stroke-width: 0.200000"/>
   <line x1="892.574707" y1="1050.665039" x2="892.574707" y2="1053.805176" style="stroke: green; stroke-width: 0.200000"/>
   <line x1="891.574707" y1="1041.024414" x2="891.574707" y2="1052.816895" style="stroke: green; stroke-width: 0.200000"/>
   <line x1="890.574646" y1="1041.024414" x2="890.574646" y2="1051.828613" style="stroke: green; stroke-width: 0.200000"/>
   <line x1="889.574646" y1="1041.024414" x2="889.574646" y2="1050.834229" style="stroke: green; stroke-width: 0.200000"/>
   <line x1="888.574707" y1="1041.024414" x2="888.574707" y2="1049.791748" style="stroke: green; stroke-width: 0.200000"/>
   <line x1="892.574707" y1="1041.024414" x2="892.574707" y2="1049.038818" style="stroke: green; stroke-width: 0.200000"/>
   <line x1="887.574707" y1="1041.024414" x2="887.574707" y2="1048.749146" style="stroke: green; stroke-width: 0.200000"/>
   <line x1="893.574707" y1="1041.024414" x2="893.574707" y2="1048.038818" style="stroke: green; stroke-width: 0.200000"/>
   <line x1="886.574707" y1="1041.024414" x2="886.574707" y2="1047.706543" style="stroke: green; stroke-width: 0.200000"/>
   <line x1="894.574646" y1="1041.024414" x2="894.574646" y2="1047.038818" style="stroke: green; stroke-width: 0.200000"/>
   <line x1="885.574646" y1="1041.024414" x2="885.574646" y2="1046.664062" style="stroke: green; stroke-width: 0.200000"/>
   <line x1="895.574646" y1="1041.024414" x2="895.574646" y2="1046.038818" style="stroke: green; stroke-width: 0.200000"/>
   <line x1="884.574646" y1="1041.024414" x2="884.574646" y2="1045.534790" style="stroke: green; stroke-width: 0.200000"/>
   <line x1="896.574707" y1="1041.024414" x2="896.574707" y2="1045.038818" style="stroke: green; stroke-width: 0.200000"/>
   <line x1="883.574707" y1="1041.024414" x2="883.574707" y2="1044.323242" style="stroke: green; stroke-width: 0.200000"/>
   <line x1="897.574707" y1="1041.024414" x2="897.574707" y2="1044.038818" style="stroke: green; stroke-width: 0.200000"/>
   <line x1="898.574707" y1="1041.024414" x2="898.574707" y2="1043.038818" style="stroke: green; stroke-width: 0.200000"/>
   <line x1="882.574707" y1="1041.024414" x2="882.574707" y2="1042.992310" style="stroke: green; stroke-width: 0.200000"/>
   <line x1="899.574646" y1="1041.024414" x2="899.574646" y2="1042.038818" style="stroke: green; stroke-width: 0.200000"/>
   <line x1="881.574707" y1="1041.024414" x2="881.574707" y2="1041.396729" style="stroke: green; stroke-width: 0.200000"/>
   <line x1="900.574646" y1="1041.024414" x2="900.574646" y2="1041.038818" style="stroke: green; stroke-width: 0.200000"/>
   <line x1="1042.115234" y1="966.719116" x2="1042.115234" y2="980.583496" style="stroke: green; stroke-width: 0.200000"/>
   <line x1="1041.115112" y1="966.731079" x2="1041.115112" y2="980.561890" style="stroke: green; stroke-width: 0.200000"/>
   <line x1="1043.115112" y1="966.838379" x2="1043.115112" y2="980.464233" style="stroke: green; stroke-width: 0.200000"/>
   <line x1="1040.115112" y1="966.891235" x2="1040.115112" y2="980.397949" style="stroke: green; stroke-width: 0.200000"/>
   <line x1="1044.115112" y1="967.113342" x2="1044.115112" y2="980.194641" style="stroke: green; stroke-width: 0.200000"/>
   <line x1="1039.115112" y1="967.208008" x2="1039.115112" y2="980.075073" style="stroke: green; stroke-width: 0.200000"/>
   <line x1="1045.115112" y1="967.562500" x2="1045.115112" y2="979.748169" style="stroke: green; stroke-width: 0.200000"/>
   <line x1="1038.115112" y1="967.718567" x2="1038.115112" y2="979.565186" style="stroke: green; stroke-width: 0.200000"/>
   <line x1="1046.115112" y1="968.231262" x2="1046.115112" y2="979.081055" style="stroke: green; stroke-width: 0.200000"/>
   <line x1="1037.115234" y1="968.468567" x2="1037.115234" y2="978.817139" style="stroke: green; stroke-width: 0.200000"/>
   <line x1="1047.115234" y1="969.229248" x2="1047.115234" y2="978.074585" style="stroke: green; stroke-width: 0.200000"/>
   <line x1="1036.115112" y1="969.616089" x2="1036.115112" y2="977.655090" style="stroke: green; stroke-width: 0.200000"/>
   <line x1="1048.115112" y1="970.813538" x2="1048.115112" y2="976.468872" style="stroke: green; stroke-width: 0.200000"/>
   <line x1="1035.115112" y1="971.658447" x2="1035.115112" y2="975.629944" style="stroke: green; stroke-width: 0.200000"/>
   <line x1="979.889221" y1="939.526306" x2="979.889221" y2="940.031677" style="stroke: green; stroke-width: 0.200000"/>
   <line x1="980.889221" y1="933.480225" x2="980.889221" y2="940.031677" style="stroke: green; stroke-width: 0.200000"/>
   <line x1="981.889282" y1="925.899536" x2="981.889282" y2="940.031677" style="stroke: green; stroke-width: 0.200000"/>
   <line x1="982.889282" y1="921.382751" x2="982.889282" y2="940.031677" style="stroke: green; stroke-width: 0.200000"/>
   <line x1="983.889221" y1="919.034912" x2="983.889221" y2="940.031677" style="stroke: green; stroke-width: 0.200000"/>
   <line x1="984.889221" y1="917.385864" x2="984.889221" y2="940.031677" style="stroke: green; stroke-width: 0.200000"/>
   <line x1="985.889221" y1="915.985779" x2="985.889221" y2="940.031677" style="stroke: green; stroke-width: 0.200000"/>
   <line x1="986.889282" y1="914.873108" x2="986.889282" y2="940.031677" style="stroke: green; stroke-width: 0.200000"/>
   <line x1="987.889282" y1="913.782410" x2="987.889282" y2="940.031677" style="stroke: green; stroke-width: 0.200000"/>
   <line x1="988.889221" y1="912.700867" x2="988.889221" y2="940.031677" style="stroke: green; stroke-width: 0.200000"/>
   <line x1="989.889221" y1="911.623901" x2="989.889221" y2="940.031677" style="stroke: green; stroke-width: 0.200000"/>
   <line x1="990.889221" y1="910.546875" x2="990.889221" y2="940.031677" style="stroke: green; stroke-width: 0.200000"/>
   <line x1="991.889282" y1="909.518921" x2="991.889282" y2="940.031677" style="stroke: green; stroke-width: 0.200000"/>
   <line x1="992.889282" y1="908.499512" x2="992.889282" y2="940.031677" style="stroke: green; stroke-width: 0.200000"/>
   <line x1="993.889221" y1="907.480103" x2="993.889221" y2="940.031677" style="stroke: green; stroke-width: 0.200000"/>
   <line x1="994.889221" y1="906.460693" x2="994.889221" y2="940.031677" style="stroke: green; stroke-width: 0.200000"/>
   <line x1="995.889221" y1="905.441345" x2="995.889221" y2="940.031677" style="stroke: green; stroke-width: 0.200000"/>
   <line x1="996.889282" y1="904.421997" x2="996.889282" y2="940.031677" style="stroke: green; stroke-width: 0.200000"/>
   <line x1="997.889282" y1="903.459778" x2="997.889282" y2="940.031677" style="stroke: green; stroke-width: 0.200000"/>
   <line x1="998.889221" y1="902.581726" x2="998.889221" y2="940.031677" style="stroke: green; stroke-width: 0.200000"/>
   <line x1="999.889221" y1="901.703613" x2="999.889221" y2="940.031677" style="stroke: green; stroke-width: 0.200000"/>
   <line x1="1000.889221" y1="900.825562" x2="1000.889221" y2="940.031677" style="stroke: green; stroke-width: 0.200000"/>
   <line x1="1001.889282" y1="899.947510" x2="1001.889282" y2="939.724243" style="stroke: green; stroke-width: 0.200000"/>
   <line x1="1002.889282" y1="899.069458" x2="1002.889282" y2="938.724304" style="stroke: green; stroke-width: 0.200000"/>
   <line x1="1003.889221" y1="898.191406" x2="1003.889221" y2="937.724243" style="stroke: green; stroke-width: 0.200000"/>
   <line x1="1004.889221" y1="897.378845" x2="1004.889221" y2="936.724243" style="stroke: green; stroke-width: 0.200000"/>
   <line x1="1005.889221" y1="896.629944" x2="1005.889221" y2="935.724243" style="stroke: green; stroke-width: 0.200000"/>
   <line x1="1006.889282" y1="895.881042" x2="1006.889282" y2="934.724243" style="stroke: green; stroke-width: 0.200000"/>
   <line x1="1007.889282" y1="895.132202" x2="1007.889282" y2="933.724304" style="stroke: green; stroke-width: 0.200000"/>
   <line x1="1008.889221" y1="894.383301" x2="1008.889221" y2="932.724243" style="stroke: green; stroke-width: 0.200000"/>
   <line x1="1009.889221" y1="893.634521" x2="1009.889221" y2="931.724243" style="stroke: green; stroke-width: 0.200000"/>
   <line x1="1010.889221" y1="892.885620" x2="1010.889221" y2="930.724243" style="stroke: green; stroke-width: 0.200000"/>
   <line x1="1011.889282" y1="892.270874" x2="1011.889282" y2="929.724243" style="stroke: green; stroke-width: 0.200000"/>
   <line x1="1012.889282" y1="891.710876" x2="1012.889282" y2="928.724304" style="stroke: green; stroke-width: 0.200000"/>
   <line x1="1013.889221" y1="891.217712" x2="1013.889221" y2="927.724243" style="stroke: green; stroke-width: 0.200000"/>
   <line x1="1014.889221" y1="890.839905" x2="1014.889221" y2="926.724243" style="stroke: green; stroke-width: 0.200000"/>
   <line x1="1015.889221" y1="890.539246" x2="1015.889221" y2="925.724243" style="stroke: green; stroke-width: 0.200000"/>
   <line x1="1016.889282" y1="890.307373" x2="1016.889282" y2="924.724243" style="stroke: green; stroke-width: 0.200000"/>
   <line x1="1017.889282" y1="890.138245" x2="1017.889282" y2="923.724243" style="stroke: green; stroke-width: 0.200000"/>
   <line x1="1018.889221" y1="890.060059" x2="1018.889221" y2="922.724243" style="stroke: green; stroke-width: 0.200000"/>
   <line x1="1019.889221" y1="890.040283" x2="1019.889221" y2="921.724243" style="stroke: green; stroke-width: 0.200000"/>
   <line x1="1020.889221" y1="890.071777" x2="1020.889221" y2="920.724243" style="stroke: green; stroke-width: 0.200000"/>
   <line x1="1021.889282" y1="890.173706" x2="1021.889282" y2="919.724243" style="stroke: green; stroke-width: 0.200000"/>
   <line x1="1022.889282" y1="890.369812" x2="1022.889282" y2="918.724243" style="stroke: green; stroke-width: 0.200000"/>
   <line x1="1023.889221" y1="890.624634" x2="1023.889221" y2="917.724243" style="stroke: green; stroke-width: 0.200000"/>
   <line x1="1024.889160" y1="890.945129" x2="1024.889160" y2="916.724243" style="stroke: green; stroke-width: 0.200000"/>
   <line x1="1025.889160" y1="891.343872" x2="1025.889160" y2="915.724243" style="stroke: green; stroke-width: 0.200000"/>
   <line x1="1026.889282" y1="891.792114" x2="1026.889282" y2="914.724243" style="stroke: green; stroke-width: 0.200000"/>
   <line x1="1027.889282" y1="892.299500" x2="1027.889282" y2="913.724243" style="stroke: green; stroke-width: 0.200000"/>
   <line x1="1028.889282" y1="892.901306" x2="1028.889282" y2="912.724243" style="stroke: green; stroke-width: 0.200000"/>
   <line x1="1029.889160" y1="893.567627" x2="1029.889160" y2="911.724243" style="stroke: green; stroke-width: 0.200000"/>
   <line x1="1030.889160" y1="894.323792" x2="1030.889160" y2="910.724243" style="stroke: green; stroke-width: 0.200000"/>
   <line x1="1031.889282" y1="895.226074" x2="1031.889282" y2="909.724243" style="stroke: green; stroke-width: 0.200000"/>
   <line x1="1032.889282" y1="896.128479" x2="1032.889282" y2="908.724243" style="stroke: green; stroke-width: 0.200000"/>
   <line x1="1033.889282" y1="897.119507" x2="1033.889282" y2="907.724243" style="stroke: green; stroke-width: 0.200000"/>
   <line x1="1040.889160" y1="904.422302" x2="1040.889160" y2="907.645386" style="stroke: green; stroke-width: 0.200000"/>
   <line x1="1034.889160" y1="898.160278" x2="1034.889160" y2="906.724243" style="stroke: green; stroke-width: 0.200000"/>
   <line x1="1041.889282" y1="905.487305" x2="1041.889282" y2="906.645447" style="stroke: green; stroke-width: 0.200000"/>
   <line x1="1039.889160" y1="903.363892" x2="1039.889160" y2="906.626465" style="stroke: green; stroke-width: 0.200000"/>
   <line x1="1035.889160" y1="899.200989" x2="1035.889160" y2="905.724243" style="stroke: green; stroke-width: 0.200000"/>
   <line x1="1038.889282" y1="902.323120" x2="1038.889282" y2="905.568726" style="stroke: green; stroke-width: 0.200000"/>
   <line x1="1036.889282" y1="900.241699" x2="1036.889282" y2="904.724182" style="stroke: green; stroke-width: 0.200000"/>
   <line x1="1037.889282" y1="901.282410" x2="1037.889282" y2="904.511047" style="stroke: green; stroke-width: 0.200000"/>
   <line x1="984.889221" y1="940.131714" x2="984.889221" y2="962.491821" style="stroke: green; stroke-width: 0.200000"/>
   <line x1="983.889221" y1="940.131714" x2="983.889221" y2="961.546631" style="stroke: green; stroke-width: 0.200000"/>
   <line x1="985.889221" y1="940.131714" x2="985.889221" y2="961.491821" style="stroke: green; stroke-width: 0.200000"/>
   <line x1="982.889282" y1="940.131714" x2="982.889282" y2="960.546631" style="stroke: green; stroke-width: 0.200000"/>
   <line x1="986.889282" y1="940.131714" x2="986.889282" y2="960.491882" style="stroke: green; stroke-width: 0.200000"/>
   <line x1="981.889282" y1="940.131714" x2="981.889282" y2="959.546631" style="stroke: green; stroke-width: 0.200000"/>
   <line x1="987.889282" y1="940.131714" x2="987.889282" y2="959.491882" style="stroke: green; stroke-width: 0.200000"/>
   <line x1="980.889221" y1="940.131714" x2="980.889221" y2="958.546692" style="stroke: green; stroke-width: 0.200000"/>
   <line x1="988.889221" y1="953.198730" x2="988.889221" y2="958.491882" style="stroke: green; stroke-width: 0.200000"/>
   <line x1="979.889221" y1="940.131714" x2="979.889221" y2="957.546631" style="stroke: green; stroke-width: 0.200000"/>
   <line x1="989.889221" y1="954.198669" x2="989.889221" y2="957.491943" style="stroke: green; stroke-width: 0.200000"/>
   <line x1="978.889221" y1="944.736267" x2="978.889221" y2="956.546631" style="stroke: green; stroke-width: 0.200000"/>
   <line x1="990.889221" y1="955.198669" x2="990.889221" y2="956.491943" style="stroke: green; stroke-width: 0.200000"/>
   <line x1="977.889282" y1="949.544678" x2="977.889282" y2="955.486328" style="stroke: green; stroke-width: 0.200000"/>
   <line x1="988.889221" y1="940.131714" x2="988.889221" y2="952.724243" style="stroke: green; stroke-width: 0.200000"/>
   <line x1="989.889221" y1="940.131714" x2="989.889221" y2="951.724243" style="stroke: green; stroke-width: 0.200000"/>
   <line x1="990.889221" y1="940.131714" x2="990.889221" y2="950.724243" style="stroke: green; stroke-width: 0.200000"/>
   <line x1="991.889282" y1="940.131714" x2="991.889282" y2="949.724243" style="stroke: green; stroke-width: 0.200000"/>
   <line x1="992.889282" y1="940.131714" x2="992.889282" y2="948.724304" style="stroke: green; stroke-width: 0.200000"/>
   <line x1="993.889221" y1="940.131714" x2="993.889221" y2="947.724304" style="stroke: green; stroke-width: 0.200000"/>
   <line x1="994.889221" y1="940.131714" x2="994.889221" y2="946.724243" style="stroke: green; stroke-width: 0.200000"/>
   <line x1="995.889221" y1="940.131714" x2="995.889221" y2="945.724243" style="stroke: green; stroke-width: 0.200000"/>
   <line x1="996.889282" y1="940.131714" x2="996.889282" y2="944.724243" style="stroke: green; stroke-width: 0.200000"/>
   <line x1="997.889282" y1="940.131714" x2="997.889282" y2="943.724304" style="stroke: green; stroke-width: 0.200000"/>
   <line x1="998.889221" y1="940.131714" x2="998.889221" y2="942.724243" style="stroke: green; stroke-width: 0.200000"/>
   <line x1="999.889221" y1="940.131714" x2="999.889221" y2="941.724243" style="stroke: green; stroke-width: 0.200000"/>
   <line x1="1000.889221" y1="940.131714" x2="1000.889221" y2="940.724243" style="stroke: green; stroke-width: 0.200000"/>
   <line x1="1019.270386" y1="1078.240112" x2="1019.270386" y2="1078.902588" style="stroke: green; stroke-width: 0.200000"/>
   <line x1="1020.270386" y1="1073.177002" x2="1020.270386" y2="1078.902588" style="stroke: green; stroke-width: 0.200000"/>
   <line x1="1021.270447" y1="1068.939331" x2="1021.270447" y2="1078.902588" style="stroke: green; stroke-width: 0.200000"/>
   <line x1="1022.270447" y1="1065.699341" x2="1022.270447" y2="1078.902588" style="stroke: green; stroke-width: 0.200000"/>
   <line x1="1023.270386" y1="1062.633667" x2="1023.270386" y2="1078.902588" style="stroke: green; stroke-width: 0.200000"/>
   <line x1="1024.270386" y1="1059.944214" x2="1024.270386" y2="1078.902588" style="stroke: green; stroke-width: 0.200000"/>
   <line x1="1025.270386" y1="1057.575806" x2="1025.270386" y2="1078.902588" style="stroke: green; stroke-width: 0.200000"/>
   <line x1="1026.270508" y1="1055.658691" x2="1026.270508" y2="1078.902588" style="stroke: green; stroke-width: 0.200000"/>
   <line x1="1027.270386" y1="1053.786255" x2="1027.270386" y2="1078.902588" style="stroke: green; stroke-width: 0.200000"/>
   <line x1="1028.270386" y1="1052.104614" x2="1028.270386" y2="1078.902588" style="stroke: green; stroke-width: 0.200000"/>
   <line x1="1029.270386" y1="1050.711426" x2="1029.270386" y2="1078.902588" style="stroke: green; stroke-width: 0.200000"/>
   <line x1="1030.270386" y1="1049.318237" x2="1030.270386" y2="1075.135376" style="stroke: green; stroke-width: 0.200000"/>
   <line x1="1031.270508" y1="1047.946167" x2="1031.270508" y2="1071.624390" style="stroke: green; stroke-width: 0.200000"/>
   <line x1="1032.270386" y1="1046.769043" x2="1032.270386" y2="1068.666504" style="stroke: green; stroke-width: 0.200000"/>
   <line x1="1033.270386" y1="1045.746338" x2="1033.270386" y2="1066.311768" style="stroke: green; stroke-width: 0.200000"/>
   <line x1="1034.270386" y1="1044.723511" x2="1034.270386" y2="1064.046753" style="stroke: green; stroke-width: 0.200000"/>
   <line x1="1035.270386" y1="1043.700684" x2="1035.270386" y2="1062.222290" style="stroke: green; stroke-width: 0.200000"/>
   <line x1="1036.270508" y1="1042.706787" x2="1036.270508" y2="1060.385254" style="stroke: green; stroke-width: 0.200000"/>
   <line x1="1037.270386" y1="1041.924561" x2="1037.270386" y2="1058.587402" style="stroke: green; stroke-width: 0.200000"/>
   <line x1="1038.270386" y1="1041.185425" x2="1038.270386" y2="1057.216064" style="stroke: green; stroke-width: 0.200000"/>
   <line x1="1039.270386" y1="1040.446289" x2="1039.270386" y2="1055.891602" style="stroke: green; stroke-width: 0.200000"/>
   <line x1="1040.270386" y1="1039.707153" x2="1040.270386" y2="1054.567139" style="stroke: green; stroke-width: 0.200000"/>
   <line x1="1041.270508" y1="1038.984009" x2="1041.270508" y2="1053.502075" style="stroke: green; stroke-width: 0.200000"/>
   <line x1="1042.270386" y1="1038.323486" x2="1042.270386" y2="1052.501221" style="stroke: green; stroke-width: 0.200000"/>
   <line x1="1043.270386" y1="1037.798096" x2="1043.270386" y2="1051.517578" style="stroke: green; stroke-width: 0.200000"/>
   <line x1="1044.270386" y1="1037.272583" x2="1044.270386" y2="1050.534180" style="stroke: green; stroke-width: 0.200000"/>
   <line x1="1045.270386" y1="1036.747070" x2="1045.270386" y2="1049.795044" style="stroke: green; stroke-width: 0.200000"/>
   <line x1="1046.270508" y1="1036.234375" x2="1046.270508" y2="1049.068359" style="stroke: green; stroke-width: 0.200000"/>
   <line x1="1047.270386" y1="1035.724731" x2="1047.270386" y2="1048.347656" style="stroke: green; stroke-width: 0.200000"/>
   <line x1="1048.270386" y1="1035.216309" x2="1048.270386" y2="1047.627075" style="stroke: green; stroke-width: 0.200000"/>
   <line x1="1049.270386" y1="1034.853149" x2="1049.270386" y2="1046.993896" style="stroke: green; stroke-width: 0.200000"/>
   <line x1="1050.270386" y1="1034.489990" x2="1050.270386" y2="1046.480591" style="stroke: green; stroke-width: 0.200000"/>
   <line x1="1051.270508" y1="1034.144775" x2="1051.270508" y2="1045.967529" style="stroke: green; stroke-width: 0.200000"/>
   <line x1="1052.270386" y1="1033.807129" x2="1052.270386" y2="1045.425781" style="stroke: green; stroke-width: 0.200000"/>
   <line x1="1053.270386" y1="1033.468994" x2="1053.270386" y2="1044.852417" style="stroke: green; stroke-width: 0.200000"/>
   <line x1="1054.270386" y1="1033.106445" x2="1054.270386" y2="1044.317017" style="stroke: green; stroke-width: 0.200000"/>
   <line x1="1055.270386" y1="1032.765869" x2="1055.270386" y2="1043.894165" style="stroke: green; stroke-width: 0.200000"/>
   <line x1="1056.270508" y1="1032.470947" x2="1056.270508" y2="1043.471436" style="stroke: green; stroke-width: 0.200000"/>
   <line x1="1057.270386" y1="1032.175415" x2="1057.270386" y2="1043.074219" style="stroke: green; stroke-width: 0.200000"/>
   <line x1="1058.270386" y1="1031.894165" x2="1058.270386" y2="1042.680908" style="stroke: green; stroke-width: 0.200000"/>
   <line x1="1059.270386" y1="1031.639771" x2="1059.270386" y2="1042.281250" style="stroke: green; stroke-width: 0.200000"/>
   <line x1="1060.270386" y1="1031.380615" x2="1060.270386" y2="1041.906128" style="stroke: green; stroke-width: 0.200000"/>
   <line x1="1061.270508" y1="1031.088745" x2="1061.270508" y2="1041.581787" style="stroke: green; stroke-width: 0.200000"/>
   <line x1="1062.270386" y1="1030.854736" x2="1062.270386" y2="1041.257568" style="stroke: green; stroke-width: 0.200000"/>
   <line x1="1063.270386" y1="1030.657349" x2="1063.270386" y2="1040.953857" style="stroke: green; stroke-width: 0.200000"/>
   <line x1="1064.270386" y1="1030.459961" x2="1064.270386" y2="1040.698364" style="stroke: green; stroke-width: 0.200000"/>
   <line x1="1065.270386" y1="1030.262573" x2="1065.270386" y2="1040.400879" style="stroke: green; stroke-width: 0.200000"/>
   <line x1="1066.270508" y1="1030.065186" x2="1066.270508" y2="1040.140991" style="stroke: green; stroke-width: 0.200000"/>
   <line x1="1067.270386" y1="1029.867676" x2="1067.270386" y2="1039.901245" style="stroke: green; stroke-width: 0.200000"/>
   <line x1="1068.270386" y1="1029.670288" x2="1068.270386" y2="1039.661377" style="stroke: green; stroke-width: 0.200000"/>
   <line x1="1069.270386" y1="1029.472900" x2="1069.270386" y2="1039.421509" style="stroke: green; stroke-width: 0.200000"/>
   <line x1="1070.270386" y1="1029.275513" x2="1070.270386" y2="1039.235596" style="stroke: green; stroke-width: 0.200000"/>
   <line x1="1071.270508" y1="1029.078125" x2="1071.270508" y2="1039.063477" style="stroke: green; stroke-width: 0.200000"/>
   <line x1="1072.270386" y1="1029.337402" x2="1072.270386" y2="1038.891357" style="stroke: green; stroke-width: 0.200000"/>
   <line x1="1073.270386" y1="1033.256104" x2="1073.270386" y2="1038.719238" style="stroke: green; stroke-width: 0.200000"/>
   <line x1="1074.270386" y1="1037.173340" x2="1074.270386" y2="1038.547241" style="stroke: green; stroke-width: 0.200000"/>
   <line x1="1020.270386" y1="1079.002563" x2="1020.270386" y2="1096.832153" style="stroke: green; stroke-width: 0.200000"/>
   <line x1="1021.270447" y1="1079.002563" x2="1021.270447" y2="1096.526123" style="stroke: green; stroke-width: 0.200000"/>
   <line x1="1019.270386" y1="1079.002563" x2="1019.270386" y2="1096.447998" style="stroke: green; stroke-width: 0.200000"/>
   <line x1="1018.270386" y1="1083.349365" x2="1018.270386" y2="1096.063721" style="stroke: green; stroke-width: 0.200000"/>
   <line x1="1017.270447" y1="1086.476562" x2="1017.270447" y2="1095.679688" style="stroke: green; stroke-width: 0.200000"/>
   <line x1="1022.270447" y1="1079.002563" x2="1022.270447" y2="1095.506836" style="stroke: green; stroke-width: 0.200000"/>
   <line x1="1016.270447" y1="1089.390015" x2="1016.270447" y2="1095.295532" style="stroke: green; stroke-width: 0.200000"/>
   <line x1="1015.270386" y1="1092.303589" x2="1015.270386" y2="1094.911377" style="stroke: green; stroke-width: 0.200000"/>
   <line x1="1023.270386" y1="1079.002563" x2="1023.270386" y2="1094.482300" style="stroke: green; stroke-width: 0.200000"/>
   <line x1="1024.270386" y1="1079.002563" x2="1024.270386" y2="1093.307129" style="stroke: green; stroke-width: 0.200000"/>
   <line x1="1025.270386" y1="1079.002563" x2="1025.270386" y2="1092.100952" style="stroke: green; stroke-width: 0.200000"/>
   <line x1="1026.270508" y1="1079.002563" x2="1026.270508" y2="1090.472290" style="stroke: green; stroke-width: 0.200000"/>
   <line x1="1027.270386" y1="1079.002563" x2="1027.270386" y2="1088.241455" style="stroke: green; stroke-width: 0.200000"/>
   <line x1="1028.270386" y1="1079.002563" x2="1028.270386" y2="1084.282349" style="stroke: green; stroke-width: 0.200000"/>
   <line x1="1029.270386" y1="1079.002563" x2="1029.270386" y2="1079.525635" style="stroke: green; stroke-width: 0.200000"/>
   <line x1="1110.836914" y1="987.362427" x2="1110.836914" y2="987.362915" style="stroke: green; stroke-width: 0.200000"/>
   <path d="M 999.972  1112.53  998.343  1112.77  996.068  1112.97  994.761  1113.01  993.645  1112.99  991.115  1112.81  988.571  1112.5  986.032  1112.07  984.388  1111.71  983.425  1111.46  980.734  1110.63  978.098  1109.7  975.527  1108.66  974.844  1108.37  968.126  1105.3  963.709  1103.25  962.816  1102.85  966.932  1098.73  969.658  1099.51  972.284  1100.16  1004.34  1068.1  1001.23  1064.99  1052.02  1014.21  1055.13  1017.32  1097.38  975.072  1094.34  971.321  1098.05  967.614  1100.26  970.36  1104.79  975.838  1106.76  978.261  1108.46  980.511  1110.12  982.936  1110.54  983.617  1111.52  985.346  1112.71  987.778  1113.76  990.27  1114.64  992.804  1115.16  994.653  1115.32  995.346  1115.69  997.768  1115.8  999.239  " style="fill: none; stroke: darkmagenta; stroke-width: 0.200000; fill-type: evenodd"  fill-opacity="1.000000" />
   <path d="M 1115.8  999.239  1115.88  1000.17  1115.88  1001.4  1115.99  1002.42  1115.99  1002.62  1115.78  1004.9  1115.6  1005.89  1115.38  1007.09  1114.81  1009.2  1114.06  1011.19  1113.1  1013.04  1111.97  1014.7  1110.76  1016.34  1107.72  1019.99  1105.22  1023.03  1102.71  1025.64  1099.26  1029.27  1093.95  1034.08  1091.67  1035.94  1089.02  1037.34  1086.11  1038.35  1085.62  1038.44  1082.97  1038.9  1082.52  1038.93  1081.91  1039  1076.97  1039.68  1075.72  1039.82  1069.78  1040.84  1065.94  1041.76  1064.97  1042.07  1063.39  1042.47  1060.49  1043.41  1060.15  1043.53  1059.74  1043.72  1056.97  1044.8  1054.68  1045.77  1052.51  1047.01  1049.63  1048.49  1046.49  1050.76  1045.25  1051.68  1042.77  1054.11  1041.55  1055.36  1039.16  1058.53  1038.45  1059.51  1036.57  1062.97  1035.89  1064.08  1033.77  1068.9  1033.44  1069.96  1032.35  1073.08  1031.81  1075.23  1031.49  1076.31  1029.91  1083.71  1029.58  1085.38  1029.1  1087.39  1028.88  1088.17  1028.64  1088.86  1027.79  1090.86  1026.26  1093.35  1025.38  1094.32  1024.34  1095.54  1020.52  1099.43  1015.18  1104.45  1011.26  1107.85  1010.62  1108.33  1009.92  1108.81  1008.38  1109.8  1006.66  1110.71  1004.74  1111.4  1002.7  1111.98  1000.56  1112.44  999.972  1112.53  " style="fill: none; stroke: red; stroke-width: 0.200000; fill-type: evenodd"  fill-opacity="1.000000" />
   <path d="M 1027.53  1088.91  1026.9  1090.4  1025.46  1092.75  1024.63  1093.66  1023.61  1094.86  1019.82  1098.72  1014.51  1103.71  1010.63  1107.07  1010.03  1107.52  1009.37  1107.98  1007.88  1108.93  1006.25  1109.79  1004.43  1110.45  1002.46  1111.01  1000.38  1111.46  998.226  1111.78  996.008  1111.97  994.756  1112.01  993.691  1111.99  991.211  1111.81  988.715  1111.51  986.222  1111.09  984.621  1110.74  983.698  1110.5  981.047  1109.68  978.452  1108.77  975.914  1107.74  975.251  1107.45  968.544  1104.39  964.543  1102.53  967.223  1099.85  969.4  1100.48  972.592  1101.27  1005.76  1068.1  1002.65  1064.99  1052.02  1015.62  1055.13  1018.73  1098.72  975.142  1095.68  971.392  1097.97  969.109  1099.48  970.992  1104.02  976.472  1105.97  978.878  1107.65  981.095  1109.28  983.479  1109.68  984.124  1110.63  985.813  1111.8  988.192  1112.82  990.629  1113.69  993.104  1114.19  994.898  1114.33  995.532  1114.69  997.883  1114.88  1000.21  1114.88  1001.45  1114.99  1002.47  1114.99  1002.57  1114.78  1004.76  1114.62  1005.71  1114.41  1006.87  1113.86  1008.89  1113.14  1010.78  1112.24  1012.52  1111.16  1014.12  1109.97  1015.73  1106.95  1019.35  1104.47  1022.36  1101.98  1024.95  1098.57  1028.55  1093.3  1033.32  1091.11  1035.1  1088.62  1036.42  1085.85  1037.38  1085.44  1037.46  1082.85  1037.9  1082.43  1037.93  1081.79  1038.01  1076.84  1038.69  1075.58  1038.83  1069.58  1039.86  1065.67  1040.8  1064.94  1041.03  " style="fill: none; stroke: black; stroke-width: 0.200000; fill-type: evenodd"  fill-opacity="1.000000" />
   <path d="M 1064.94  1041.03  1064.7  1041.1  1063.11  1041.51  1060.17  1042.46  1059.78  1042.6  1059.35  1042.79  1056.59  1043.88  1054.24  1044.87  1052.04  1046.14  1049.11  1047.64  1045.9  1049.95  1044.59  1050.92  1042.06  1053.41  1040.79  1054.71  1038.35  1057.93  1037.61  1058.98  1035.7  1062.47  1035.01  1063.62  1032.83  1068.55  1032.49  1069.65  1031.39  1072.8  1030.84  1074.97  1030.52  1076.06  1029.33  1081.65  " style="fill: none; stroke: red; stroke-width: 0.200000; fill-type: evenodd"  fill-opacity="1.000000" />
   <path d="M 1029.33  1081.65  1028.93  1083.51  1028.61  1085.17  1028.24  1086.69  " style="fill: none; stroke: black; stroke-width: 0.200000; fill-type: evenodd"  fill-opacity="1.000000" />
   <path d="M 1028.24  1086.69  1028.13  1087.14  1027.93  1087.87  1027.71  1088.5  1027.53  1088.91  " style="fill: none; stroke: red; stroke-width: 0.200000; fill-type: evenodd"  fill-opacity="1.000000" />
   <path d="M 961.092  1045.84  962.095  1045.86  963.492  1046.15  964.821  1046.67  966.042  1047.4  967.075  1048.28  967.995  1049.38  968.7  1050.56  968.897  1051.04  969.214  1051.88  969.5  1053.28  969.547  1054.71  969.353  1056.13  968.922  1057.49  968.694  1057.96  968.271  1058.76  967.966  1059.19  967.414  1059.9  967.042  1060.28  966.377  1060.89  965.948  1061.19  965.19  1061.68  964.716  1061.91  963.887  1062.26  963.381  1062.41  962.504  1062.62  961.981  1062.68  961.081  1062.74  960.555  1062.71  959.658  1062.62  959.144  1062.5  958.276  1062.26  957.788  1062.06  956.974  1061.67  956.526  1061.39  955.792  1060.87  955.434  1060.56  954.8  1059.93  954.481  1059.56  954.307  1059.28  953.811  1058.58  953.688  1058.38  953.559  1058.06  953.188  1057.28  953.1  1057.07  952.743  1055.68  952.625  1054.26  952.748  1052.83  953.107  1051.46  953.269  1051.12  953.607  1050.33  953.691  1050.16  954.492  1048.97  955.476  1047.94  956.62  1047.08  957.891  1046.43  959.253  1046.01  960.663  1045.82  961.092  1045.84  " style="fill: none; stroke: darkmagenta; stroke-width: 0.200000; fill-type: evenodd"  fill-opacity="1.000000" />
   <path d="M 961.053  1046.84  961.981  1046.86  963.207  1047.11  964.379  1047.57  965.457  1048.22  966.363  1048.99  967.178  1049.96  967.802  1051  967.966  1051.41  968.25  1052.16  968.504  1053.4  968.545  1054.66  968.373  1055.91  967.99  1057.12  967.802  1057.51  967.418  1058.23  967.162  1058.59  966.662  1059.24  966.349  1059.55  965.747  1060.11  965.387  1060.36  964.699  1060.81  964.302  1061  963.549  1061.32  963.126  1061.44  962.329  1061.63  961.891  1061.68  961.074  1061.74  960.633  1061.71  959.82  1061.63  959.389  1061.53  958.601  1061.31  958.192  1061.14  957.454  1060.79  957.078  1060.56  956.408  1060.08  956.115  1059.83  955.533  1059.25  955.291  1058.97  955.142  1058.73  954.645  1058.02  954.582  1057.92  954.474  1057.66  954.103  1056.88  954.052  1056.75  953.733  1055.51  953.629  1054.26  953.737  1053  954.05  1051.81  954.18  1051.54  954.517  1050.75  954.56  1050.66  955.274  1049.6  956.142  1048.69  957.15  1047.93  958.271  1047.36  959.471  1046.99  960.705  1046.82  961.053  1046.84  " style="fill: none; stroke: black; stroke-width: 0.200000; fill-type: evenodd"  fill-opacity="1.000000" />
   <path d="M 942.352  989.876  942.629  990.008  943.071  990.277  943.514  990.613  943.91  990.977  951.218  998.284  942.871  1006.63  939.987  1003.75  893.88  1049.85  895.744  1051.76  897.352  1053.3  893.665  1056.99  888.619  1052  883.966  1047.15  881.666  1044.37  879.983  1041.68  878.753  1038.99  878.038  1036.4  877.843  1035.12  877.803  1034.61  877.752  1033.88  877.761  1032.65  877.82  1031.99  " style="fill: none; stroke: darkmagenta; stroke-width: 0.200000; fill-type: evenodd"  fill-opacity="1.000000" />
   <path d="M 877.82  1031.99  877.869  1031.44  878.014  1030.6  878.074  1030.27  878.377  1029.14  878.708  1028.22  878.866  1027.83  879.226  1027.12  880.008  1025.72  881.439  1023.27  882.593  1021.44  884.252  1018.9  885.662  1016.96  887.344  1014.7  888.987  1012.71  890.676  1010.7  892.517  1008.67  894.203  1006.86  896.205  1004.83  897.882  1003.17  900.344  1000.89  901.962  999.26  903.045  998.25  904.097  997.509  905.342  996.509  907.885  995.076  910.631  994.021  913.526  993.351  915.396  993.004  920.129  992.261  924.67  991.428  926.907  991.092  931.213  990.395  934.035  990.035  936.6  989.732  940.283  989.419  940.57  989.443  941.214  989.509  941.693  989.62  942.167  989.788  942.352  989.876  " style="fill: none; stroke: red; stroke-width: 0.200000; fill-type: evenodd"  fill-opacity="1.000000" />
   <path d="M 940.478  990.439  941.05  990.497  941.413  990.582  941.784  990.713  942.152  990.889  942.507  991.104  942.872  991.382  943.218  991.699  949.804  998.284  942.871  1005.22  939.987  1002.33  892.474  1049.85  895.04  1052.47  895.922  1053.32  893.661  1055.58  889.331  1051.3  884.714  1046.49  882.479  1043.78  880.865  1041.21  879.695  1038.65  879.017  1036.19  878.837  1035.01  878.8  1034.53  878.752  1033.84  878.761  1032.69  878.862  1031.57  878.998  1030.78  879.05  1030.49  879.332  1029.44  879.642  1028.58  879.776  1028.25  880.109  1027.59  880.877  1026.21  882.294  1023.79  883.434  1021.98  885.076  1019.46  886.468  1017.55  888.132  1015.32  889.756  1013.35  891.429  1011.36  893.253  1009.35  894.925  1007.55  896.912  1005.54  898.574  1003.89  901.039  1001.61  902.658  999.978  903.676  999.028  904.698  998.309  905.904  997.34  908.312  995.984  910.925  994.979  913.73  994.331  915.565  993.99  920.297  993.247  924.834  992.414  927.062  992.08  931.356  991.385  934.157  991.027  936.701  990.727  940.284  990.423  940.478  990.439  " style="fill: none; stroke: black; stroke-width: 0.200000; fill-type: evenodd"  fill-opacity="1.000000" />
   <path d="M 1041.77  965.209  1042.77  965.236  1044.17  965.523  1045.5  966.042  1046.72  966.774  1047.75  967.651  1048.67  968.749  1049.37  969.927  1049.57  970.412  1049.89  971.253  1050.17  972.655  1050.22  974.082  1050.03  975.497  1049.6  976.865  1049.37  977.335  1048.94  978.132  1048.64  978.561  1048.09  979.275  1047.72  979.647  1047.05  980.258  1046.62  980.562  1045.86  981.052  1045.39  981.281  1044.56  981.635  1044.06  981.782  1043.18  981.991  1042.66  982.052  1041.75  982.109  1041.23  982.083  1040.33  981.987  1039.82  981.873  1038.95  981.627  1038.46  981.429  1037.65  981.04  1037.2  980.764  1036.47  980.244  1036.09  979.924  1035.92  979.724  1035.31  979.115  1035.16  978.932  1034.98  978.651  1034.48  977.948  1034.36  977.749  1034.23  977.433  1033.86  976.656  1033.77  976.439  1033.42  975.049  1033.3  973.627  1033.42  972.205  1033.78  970.831  1033.94  970.495  1034.28  969.703  1034.37  969.529  1035.17  968.34  1036.15  967.307  1037.29  966.454  1038.57  965.805  1039.93  965.378  1041.34  965.187  1041.77  965.209  " style="fill: none; stroke: darkmagenta; stroke-width: 0.200000; fill-type: evenodd"  fill-opacity="1.000000" />
   <path d="M 1041.73  966.209  1042.65  966.233  1043.88  966.486  1045.05  966.943  1046.13  967.589  1047.04  968.359  1047.85  969.33  1048.48  970.375  1048.64  970.777  1048.92  971.532  1049.18  972.772  1049.22  974.03  1049.05  975.277  1048.66  976.495  1048.48  976.882  1048.09  977.606  1047.84  977.965  1047.34  978.613  1047.02  978.925  1046.42  979.479  1046.06  979.734  1045.37  980.179  1044.98  980.37  1044.22  980.692  1043.8  980.815  1043  981.005  1042.57  981.056  1041.75  981.108  1041.31  981.085  1040.49  980.998  1040.06  980.903  1039.28  980.68  1038.87  980.514  1038.13  980.161  1037.75  979.929  1037.08  979.455  1036.8  979.215  1036.66  979.043  1036.05  978.434  1035.97  978.339  1035.82  978.099  1035.32  977.396  1035.26  977.294  1035.15  977.029  1034.78  976.252  1034.73  976.125  1034.41  974.882  1034.3  973.628  1034.41  972.375  1034.72  971.178  1034.85  970.91  1035.19  970.118  1035.23  970.029  1035.95  968.969  1036.82  968.058  1037.82  967.306  1038.94  966.734  1040.15  966.358  1041.38  966.191  1041.73  966.209  " style="fill: none; stroke: black; stroke-width: 0.200000; fill-type: evenodd"  fill-opacity="1.000000" />
   <path d="M 1011.08  890.991  1011.31  890.888  1011.96  890.498  1013.3  889.838  1014.7  889.307  1016.17  888.91  1017.67  888.651  1019.21  888.531  1019.54  888.536  1020.76  888.551  1022.31  888.709  1022.8  888.802  1023.94  889.065  1025.55  889.582  1027.13  890.235  1028.68  891.02  1030.18  891.929  1031.62  892.961  1034.29  895.374  1041.24  902.61  1044.54  906.117  1040.84  909.815  1037.48  906.258  990.773  952.961  993.657  955.845  984.862  964.64  977.194  956.973  976.807  956.546  976.469  956.087  976.182  955.593  976.026  955.237  " style="fill: none; stroke: darkmagenta; stroke-width: 0.200000; fill-type: evenodd"  fill-opacity="1.000000" />
   <path d="M 976.026  955.237  975.957  955.079  975.797  954.55  975.709  954.025  975.692  953.763  975.709  953.296  975.687  953.107  975.702  952.982  976.527  948.684  977.094  946.182  977.424  944.415  977.66  942.968  978.06  941.181  978.435  939.145  978.734  937.122  979.189  934.792  979.596  931.922  979.741  930.66  980.47  925.195  980.599  924.511  " style="fill: none; stroke: red; stroke-width: 0.200000; fill-type: evenodd"  fill-opacity="1.000000" />
   <path d="M 980.599  924.511  980.771  923.605  " style="fill: none; stroke: darkmagenta; stroke-width: 0.200000; fill-type: evenodd"  fill-opacity="1.000000" />
   <path d="M 980.771  923.605  980.889  922.976  " style="fill: none; stroke: red; stroke-width: 0.200000; fill-type: evenodd"  fill-opacity="1.000000" />
   <path d="M 980.889  922.976  980.918  922.825  " style="fill: none; stroke: darkmagenta; stroke-width: 0.200000; fill-type: evenodd"  fill-opacity="1.000000" />
   <path d="M 980.918  922.825  981.003  922.375  981.28  921.464  981.61  920.482  981.971  919.562  982.607  918.24  983.345  916.974  984.628  915.152  985.093  914.613  987.115  912.407  988.589  910.82  " style="fill: none; stroke: red; stroke-width: 0.200000; fill-type: evenodd"  fill-opacity="1.000000" />
   <path d="M 988.589  910.82  989.953  909.351  992.172  907.09  " style="fill: none; stroke: darkmagenta; stroke-width: 0.200000; fill-type: evenodd"  fill-opacity="1.000000" />
   <path d="M 992.172  907.09  996.453  902.725  1003.44  896.593  1006.25  894.488  " style="fill: none; stroke: red; stroke-width: 0.200000; fill-type: evenodd"  fill-opacity="1.000000" />
   <path d="M 1006.25  894.488  1006.34  894.421  " style="fill: none; stroke: darkmagenta; stroke-width: 0.200000; fill-type: evenodd"  fill-opacity="1.000000" />
   <path d="M 1006.34  894.421  1007.63  893.454  " style="fill: none; stroke: red; stroke-width: 0.200000; fill-type: evenodd"  fill-opacity="1.000000" />
   <path d="M 1007.63  893.454  1008.64  892.698  " style="fill: none; stroke: darkmagenta; stroke-width: 0.200000; fill-type: evenodd"  fill-opacity="1.000000" />
   <path d="M 1008.64  892.698  1010.64  891.195  1011.08  890.991  " style="fill: none; stroke: red; stroke-width: 0.200000; fill-type: evenodd"  fill-opacity="1.000000" />
   <path d="M 1019.53  889.536  1020.7  889.55  1022.17  889.7  1022.59  889.781  1023.67  890.03  1025.2  890.522  1026.72  891.145  1028.19  891.894  1029.63  892.764  1030.99  893.741  1033.6  896.093  1040.52  903.299  1043.15  906.096  1040.86  908.381  1037.5  904.823  989.359  952.961  992.243  955.845  984.862  963.226  977.918  956.282  977.582  955.912  977.307  955.538  977.075  955.139  976.897  954.732  976.772  954.321  976.703  953.911  976.693  953.75  976.711  953.257  976.694  953.115  977.506  948.889  978.073  946.384  978.409  944.588  978.642  943.158  979.04  941.381  979.422  939.309  979.72  937.291  980.175  934.958  980.588  932.049  980.733  930.783  981.458  925.354  981.975  922.614  982.233  921.769  982.55  920.824  982.888  919.963  983.491  918.709  984.188  917.515  985.417  915.768  985.841  915.278  987.85  913.086  990.677  910.041  997.141  903.452  1004.07  897.37  1011.16  892.058  1011.78  891.773  1012.44  891.377  1013.69  890.757  1015.01  890.259  1016.38  889.888  1017.8  889.644  1019.24  889.532  1019.53  889.536  " style="fill: none; stroke: black; stroke-width: 0.200000; fill-type: evenodd"  fill-opacity="1.000000" />
</svg>
