<?xml version="1.0" encoding="UTF-8" standalone="yes"?>
<!DOCTYPE svg PUBLIC "-//W3C//DTD SVG 1.0//EN" "http://www.w3.org/TR/2001/REC-SVG-20010904/DTD/svg10.dtd">
<svg height="2000" width="2000" xmlns="http://www.w3.org/2000/svg" xmlns:svg="http://www.w3.org/2000/svg" xmlns:xlink="http://www.w3.org/1999/xlink">
   <marker id="endArrow" markerHeight="8" markerUnits="strokeWidth" markerWidth="10" orient="auto" refX="1" refY="5" viewBox="0 0 1000 1000">
      <polyline fill="darkblue" points="0,0 10,5 0,10 1,5" />
   </marker>
   <circle cx="1000" cy="1000" r="1" style="stroke:black; fill: red" />
   <circle cx="1000" cy="1000" r="800" style="stroke:black; fill: none" />
   <line x1="841.102417" y1="1375.182373" x2="837.387695" y2="1375.182373" style="stroke: green; stroke-width: 0.200000"/>
   <line x1="841.373901" y1="1374.182251" x2="834.318298" y2="1374.182251" style="stroke: green; stroke-width: 0.200000"/>
   <line x1="841.065735" y1="1373.182373" x2="832.702271" y2="1373.182373" style="stroke: green; stroke-width: 0.200000"/>
   <line x1="840.757568" y1="1372.182373" x2="828.715332" y2="1372.182373" style="stroke: green; stroke-width: 0.200000"/>
   <line x1="840.449463" y1="1371.182251" x2="827.733459" y2="1371.182251" style="stroke: green; stroke-width: 0.200000"/>
   <line x1="840.141296" y1="1370.182373" x2="826.751648" y2="1370.182373" style="stroke: green; stroke-width: 0.200000"/>
   <line x1="839.773682" y1="1369.182251" x2="825.769714" y2="1369.182251" style="stroke: green; stroke-width: 0.200000"/>
   <line x1="839.342102" y1="1368.182373" x2="824.787842" y2="1368.182373" style="stroke: green; stroke-width: 0.200000"/>
   <line x1="838.910583" y1="1367.182373" x2="823.764404" y2="1367.182373" style="stroke: green; stroke-width: 0.200000"/>
   <line x1="838.479004" y1="1366.182251" x2="822.726990" y2="1366.182251" style="stroke: green; stroke-width: 0.200000"/>
   <line x1="837.998352" y1="1365.182373" x2="821.689514" y2="1365.182373" style="stroke: green; stroke-width: 0.200000"/>
   <line x1="837.511292" y1="1364.182251" x2="820.444885" y2="1364.182251" style="stroke: green; stroke-width: 0.200000"/>
   <line x1="837.024231" y1="1363.182373" x2="819.161377" y2="1363.182373" style="stroke: green; stroke-width: 0.200000"/>
   <line x1="836.537170" y1="1362.182373" x2="817.877930" y2="1362.182373" style="stroke: green; stroke-width: 0.200000"/>
   <line x1="836.050110" y1="1361.182251" x2="816.594604" y2="1361.182251" style="stroke: green; stroke-width: 0.200000"/>
   <line x1="835.563049" y1="1360.182373" x2="815.568604" y2="1360.182373" style="stroke: green; stroke-width: 0.200000"/>
   <line x1="835.075989" y1="1359.182251" x2="814.575745" y2="1359.182251" style="stroke: green; stroke-width: 0.200000"/>
   <line x1="834.588867" y1="1358.182373" x2="813.558655" y2="1358.182373" style="stroke: green; stroke-width: 0.200000"/>
   <line x1="833.983276" y1="1357.182373" x2="812.535339" y2="1357.182373" style="stroke: green; stroke-width: 0.200000"/>
   <line x1="833.218872" y1="1356.182251" x2="811.512085" y2="1356.182251" style="stroke: green; stroke-width: 0.200000"/>
   <line x1="832.454346" y1="1355.182373" x2="810.488892" y2="1355.182373" style="stroke: green; stroke-width: 0.200000"/>
   <line x1="831.689941" y1="1354.182251" x2="809.465637" y2="1354.182251" style="stroke: green; stroke-width: 0.200000"/>
   <line x1="830.925415" y1="1353.182373" x2="808.442383" y2="1353.182373" style="stroke: green; stroke-width: 0.200000"/>
   <line x1="830.161011" y1="1352.182373" x2="807.397949" y2="1352.182373" style="stroke: green; stroke-width: 0.200000"/>
   <line x1="829.396484" y1="1351.182251" x2="806.411072" y2="1351.182251" style="stroke: green; stroke-width: 0.200000"/>
   <line x1="828.632080" y1="1350.182373" x2="805.931274" y2="1350.182373" style="stroke: green; stroke-width: 0.200000"/>
   <line x1="827.867554" y1="1349.182251" x2="805.451538" y2="1349.182251" style="stroke: green; stroke-width: 0.200000"/>
   <line x1="827.178650" y1="1348.182373" x2="804.971680" y2="1348.182373" style="stroke: green; stroke-width: 0.200000"/>
   <line x1="826.183350" y1="1347.182373" x2="804.491882" y2="1347.182373" style="stroke: green; stroke-width: 0.200000"/>
   <line x1="825.152832" y1="1346.182251" x2="804.012146" y2="1346.182251" style="stroke: green; stroke-width: 0.200000"/>
   <line x1="824.122253" y1="1345.182373" x2="803.532349" y2="1345.182373" style="stroke: green; stroke-width: 0.200000"/>
   <line x1="823.091675" y1="1344.182251" x2="803.052490" y2="1344.182251" style="stroke: green; stroke-width: 0.200000"/>
   <line x1="822.061096" y1="1343.182373" x2="802.572754" y2="1343.182373" style="stroke: green; stroke-width: 0.200000"/>
   <line x1="821.030518" y1="1342.182373" x2="802.092957" y2="1342.182373" style="stroke: green; stroke-width: 0.200000"/>
   <line x1="819.999939" y1="1341.182251" x2="802.738525" y2="1341.182251" style="stroke: green; stroke-width: 0.200000"/>
   <line x1="819.043884" y1="1340.182373" x2="804.260193" y2="1340.182373" style="stroke: green; stroke-width: 0.200000"/>
   <line x1="816.651550" y1="1339.182251" x2="805.781799" y2="1339.182251" style="stroke: green; stroke-width: 0.200000"/>
   <line x1="814.232544" y1="1338.182373" x2="807.303406" y2="1338.182373" style="stroke: green; stroke-width: 0.200000"/>
   <line x1="811.813477" y1="1337.182373" x2="808.825073" y2="1337.182373" style="stroke: green; stroke-width: 0.200000"/>
   <line x1="998.097534" y1="1248.721191" x2="981.030884" y2="1248.721191" style="stroke: green; stroke-width: 0.200000"/>
   <line x1="998.097534" y1="1247.721191" x2="979.357666" y2="1247.721191" style="stroke: green; stroke-width: 0.200000"/>
   <line x1="998.097534" y1="1246.721191" x2="977.776489" y2="1246.721191" style="stroke: green; stroke-width: 0.200000"/>
   <line x1="998.097534" y1="1245.721191" x2="976.699768" y2="1245.721191" style="stroke: green; stroke-width: 0.200000"/>
   <line x1="998.097534" y1="1244.721191" x2="975.622925" y2="1244.721191" style="stroke: green; stroke-width: 0.200000"/>
   <line x1="998.097534" y1="1243.721191" x2="974.478455" y2="1243.721191" style="stroke: green; stroke-width: 0.200000"/>
   <line x1="998.097534" y1="1242.721191" x2="973.242188" y2="1242.721191" style="stroke: green; stroke-width: 0.200000"/>
   <line x1="998.097534" y1="1241.721191" x2="972.005981" y2="1241.721191" style="stroke: green; stroke-width: 0.200000"/>
   <line x1="997.816284" y1="1240.721191" x2="970.769714" y2="1240.721191" style="stroke: green; stroke-width: 0.200000"/>
   <line x1="996.790405" y1="1239.721191" x2="969.533447" y2="1239.721191" style="stroke: green; stroke-width: 0.200000"/>
   <line x1="995.764526" y1="1238.721191" x2="968.297241" y2="1238.721191" style="stroke: green; stroke-width: 0.200000"/>
   <line x1="994.761414" y1="1237.721191" x2="967.382751" y2="1237.721191" style="stroke: green; stroke-width: 0.200000"/>
   <line x1="993.772644" y1="1236.721191" x2="966.545166" y2="1236.721191" style="stroke: green; stroke-width: 0.200000"/>
   <line x1="992.783875" y1="1235.721191" x2="965.567932" y2="1235.721191" style="stroke: green; stroke-width: 0.200000"/>
   <line x1="991.781006" y1="1234.721191" x2="964.590759" y2="1234.721191" style="stroke: green; stroke-width: 0.200000"/>
   <line x1="990.777649" y1="1233.721191" x2="963.613525" y2="1233.721191" style="stroke: green; stroke-width: 0.200000"/>
   <line x1="989.774292" y1="1232.721191" x2="962.636353" y2="1232.721191" style="stroke: green; stroke-width: 0.200000"/>
   <line x1="988.770996" y1="1231.721191" x2="961.658997" y2="1231.721191" style="stroke: green; stroke-width: 0.200000"/>
   <line x1="987.685913" y1="1230.721191" x2="960.681763" y2="1230.721191" style="stroke: green; stroke-width: 0.200000"/>
   <line x1="986.471313" y1="1229.721191" x2="959.745605" y2="1229.721191" style="stroke: green; stroke-width: 0.200000"/>
   <line x1="985.257507" y1="1228.721191" x2="959.087402" y2="1228.721191" style="stroke: green; stroke-width: 0.200000"/>
   <line x1="984.138123" y1="1227.721191" x2="958.360229" y2="1227.721191" style="stroke: green; stroke-width: 0.200000"/>
   <line x1="983.243103" y1="1226.721191" x2="957.672424" y2="1226.721191" style="stroke: green; stroke-width: 0.200000"/>
   <line x1="982.348267" y1="1225.721191" x2="956.984619" y2="1225.721191" style="stroke: green; stroke-width: 0.200000"/>
   <line x1="981.453247" y1="1224.721191" x2="956.296875" y2="1224.721191" style="stroke: green; stroke-width: 0.200000"/>
   <line x1="980.558228" y1="1223.721191" x2="955.609070" y2="1223.721191" style="stroke: green; stroke-width: 0.200000"/>
   <line x1="979.606079" y1="1222.721191" x2="954.921326" y2="1222.721191" style="stroke: green; stroke-width: 0.200000"/>
   <line x1="978.642639" y1="1221.721191" x2="954.179749" y2="1221.721191" style="stroke: green; stroke-width: 0.200000"/>
   <line x1="977.679138" y1="1220.721191" x2="953.284607" y2="1220.721191" style="stroke: green; stroke-width: 0.200000"/>
   <line x1="976.715637" y1="1219.721191" x2="952.673279" y2="1219.721191" style="stroke: green; stroke-width: 0.200000"/>
   <line x1="975.838257" y1="1218.721191" x2="952.253662" y2="1218.721191" style="stroke: green; stroke-width: 0.200000"/>
   <line x1="975.023438" y1="1217.721191" x2="951.834106" y2="1217.721191" style="stroke: green; stroke-width: 0.200000"/>
   <line x1="974.209106" y1="1216.721191" x2="951.414490" y2="1216.721191" style="stroke: green; stroke-width: 0.200000"/>
   <line x1="973.394836" y1="1215.721191" x2="950.994873" y2="1215.721191" style="stroke: green; stroke-width: 0.200000"/>
   <line x1="972.580566" y1="1214.721191" x2="950.575256" y2="1214.721191" style="stroke: green; stroke-width: 0.200000"/>
   <line x1="971.772156" y1="1213.721191" x2="950.155701" y2="1213.721191" style="stroke: green; stroke-width: 0.200000"/>
   <line x1="970.981995" y1="1212.721191" x2="949.708130" y2="1212.721191" style="stroke: green; stroke-width: 0.200000"/>
   <line x1="970.191895" y1="1211.721191" x2="949.230042" y2="1211.721191" style="stroke: green; stroke-width: 0.200000"/>
   <line x1="969.401733" y1="1210.721191" x2="948.752075" y2="1210.721191" style="stroke: green; stroke-width: 0.200000"/>
   <line x1="968.611450" y1="1209.721191" x2="948.273987" y2="1209.721191" style="stroke: green; stroke-width: 0.200000"/>
   <line x1="966.872009" y1="1208.721191" x2="948.247192" y2="1208.721191" style="stroke: green; stroke-width: 0.200000"/>
   <line x1="964.942322" y1="1207.721191" x2="948.222168" y2="1207.721191" style="stroke: green; stroke-width: 0.200000"/>
   <line x1="963.618713" y1="1206.721191" x2="948.197083" y2="1206.721191" style="stroke: green; stroke-width: 0.200000"/>
   <line x1="962.880371" y1="1205.721191" x2="948.172058" y2="1205.721191" style="stroke: green; stroke-width: 0.200000"/>
   <line x1="962.142029" y1="1204.721191" x2="948.147034" y2="1204.721191" style="stroke: green; stroke-width: 0.200000"/>
   <line x1="961.403687" y1="1203.721191" x2="948.121948" y2="1203.721191" style="stroke: green; stroke-width: 0.200000"/>
   <line x1="960.665344" y1="1202.721191" x2="948.097778" y2="1202.721191" style="stroke: green; stroke-width: 0.200000"/>
   <line x1="959.927002" y1="1201.721191" x2="948.107605" y2="1201.721191" style="stroke: green; stroke-width: 0.200000"/>
   <line x1="959.188599" y1="1200.721191" x2="948.117554" y2="1200.721191" style="stroke: green; stroke-width: 0.200000"/>
   <line x1="958.450256" y1="1199.721191" x2="955.985168" y2="1199.721191" style="stroke: green; stroke-width: 0.200000"/>
   <line x1="951.467529" y1="1199.721191" x2="949.066528" y2="1199.721191" style="stroke: green; stroke-width: 0.200000"/>
   <line x1="1006.791504" y1="1248.721191" x2="998.197571" y2="1248.721191" style="stroke: green; stroke-width: 0.200000"/>
   <line x1="1005.731812" y1="1247.721191" x2="998.197571" y2="1247.721191" style="stroke: green; stroke-width: 0.200000"/>
   <line x1="1004.672119" y1="1246.721191" x2="998.197571" y2="1246.721191" style="stroke: green; stroke-width: 0.200000"/>
   <line x1="1003.612366" y1="1245.721191" x2="998.197571" y2="1245.721191" style="stroke: green; stroke-width: 0.200000"/>
   <line x1="1002.552734" y1="1244.721191" x2="998.197571" y2="1244.721191" style="stroke: green; stroke-width: 0.200000"/>
   <line x1="1001.375793" y1="1243.721191" x2="998.197571" y2="1243.721191" style="stroke: green; stroke-width: 0.200000"/>
   <line x1="1000.176636" y1="1242.721191" x2="998.197571" y2="1242.721191" style="stroke: green; stroke-width: 0.200000"/>
   <line x1="998.977539" y1="1241.721191" x2="998.197571" y2="1241.721191" style="stroke: green; stroke-width: 0.200000"/>
   <line x1="998.097534" y1="1259.721191" x2="997.189819" y2="1259.721191" style="stroke: green; stroke-width: 0.200000"/>
   <line x1="998.097534" y1="1258.721191" x2="995.650391" y2="1258.721191" style="stroke: green; stroke-width: 0.200000"/>
   <line x1="998.097534" y1="1257.721191" x2="994.110962" y2="1257.721191" style="stroke: green; stroke-width: 0.200000"/>
   <line x1="998.097534" y1="1256.721191" x2="992.571350" y2="1256.721191" style="stroke: green; stroke-width: 0.200000"/>
   <line x1="998.097534" y1="1255.721191" x2="990.989075" y2="1255.721191" style="stroke: green; stroke-width: 0.200000"/>
   <line x1="998.097534" y1="1254.721191" x2="989.379395" y2="1254.721191" style="stroke: green; stroke-width: 0.200000"/>
   <line x1="998.097534" y1="1253.721191" x2="987.952209" y2="1253.721191" style="stroke: green; stroke-width: 0.200000"/>
   <line x1="998.097534" y1="1252.721191" x2="986.678772" y2="1252.721191" style="stroke: green; stroke-width: 0.200000"/>
   <line x1="998.097534" y1="1251.721191" x2="985.405518" y2="1251.721191" style="stroke: green; stroke-width: 0.200000"/>
   <line x1="998.097534" y1="1250.721191" x2="984.132324" y2="1250.721191" style="stroke: green; stroke-width: 0.200000"/>
   <line x1="998.097534" y1="1249.721191" x2="982.704712" y2="1249.721191" style="stroke: green; stroke-width: 0.200000"/>
   <line x1="1012.454834" y1="1268.721191" x2="1010.768311" y2="1268.721191" style="stroke: green; stroke-width: 0.200000"/>
   <line x1="1014.350464" y1="1267.721191" x2="1009.285034" y2="1267.721191" style="stroke: green; stroke-width: 0.200000"/>
   <line x1="1016.072998" y1="1266.721191" x2="1007.802063" y2="1266.721191" style="stroke: green; stroke-width: 0.200000"/>
   <line x1="1017.501770" y1="1265.721191" x2="1006.309082" y2="1265.721191" style="stroke: green; stroke-width: 0.200000"/>
   <line x1="1018.787842" y1="1264.721191" x2="1004.790405" y2="1264.721191" style="stroke: green; stroke-width: 0.200000"/>
   <line x1="1018.323730" y1="1263.721191" x2="1003.272705" y2="1263.721191" style="stroke: green; stroke-width: 0.200000"/>
   <line x1="1017.859741" y1="1262.721191" x2="1001.755127" y2="1262.721191" style="stroke: green; stroke-width: 0.200000"/>
   <line x1="1017.395630" y1="1261.721191" x2="1000.237366" y2="1261.721191" style="stroke: green; stroke-width: 0.200000"/>
   <line x1="1016.931641" y1="1260.721191" x2="998.719604" y2="1260.721191" style="stroke: green; stroke-width: 0.200000"/>
   <line x1="1016.467529" y1="1259.721191" x2="998.197571" y2="1259.721191" style="stroke: green; stroke-width: 0.200000"/>
   <line x1="1016.003479" y1="1258.721191" x2="998.197571" y2="1258.721191" style="stroke: green; stroke-width: 0.200000"/>
   <line x1="1015.506470" y1="1257.721191" x2="998.197571" y2="1257.721191" style="stroke: green; stroke-width: 0.200000"/>
   <line x1="1014.678833" y1="1256.721191" x2="998.197571" y2="1256.721191" style="stroke: green; stroke-width: 0.200000"/>
   <line x1="1013.766968" y1="1255.721191" x2="998.197571" y2="1255.721191" style="stroke: green; stroke-width: 0.200000"/>
   <line x1="1012.880981" y1="1254.721191" x2="998.197571" y2="1254.721191" style="stroke: green; stroke-width: 0.200000"/>
   <line x1="1011.999756" y1="1253.721191" x2="998.197571" y2="1253.721191" style="stroke: green; stroke-width: 0.200000"/>
   <line x1="1011.118408" y1="1252.721191" x2="998.197571" y2="1252.721191" style="stroke: green; stroke-width: 0.200000"/>
   <line x1="1010.237122" y1="1251.721191" x2="998.197571" y2="1251.721191" style="stroke: green; stroke-width: 0.200000"/>
   <line x1="1009.103027" y1="1250.721191" x2="998.197571" y2="1250.721191" style="stroke: green; stroke-width: 0.200000"/>
   <line x1="1007.851440" y1="1249.721191" x2="998.197571" y2="1249.721191" style="stroke: green; stroke-width: 0.200000"/>
   <path d="M 811.149  1335.28  819.902  1338.9  820.815  1339.88  828.274  1347.12  828.913  1348.08  835.593  1356.82  839.792  1365.44  841.391  1369.14  843.262  1375.22  840.671  1377.64  834.166  1375.85  831.159  1373.99  828.341  1373.94  823.485  1369  820.542  1366.16  815.451  1362.19  813.318  1360.04  806.91  1353.78  805.244  1352.22  800.602  1342.54  800.278  1342.13  800.302  1340.99  809.793  1334.75  811.149  1335.28  " style="fill: none; stroke: darkmagenta; stroke-width: 0.200000; fill-type: evenodd"  fill-opacity="1.000000" />
   <path d="M 810.775  1336.21  819.319  1339.74  820.1  1340.58  827.501  1347.76  828.099  1348.66  834.737  1357.35  838.883  1365.86  840.451  1369.49  842.122  1374.91  840.396  1376.53  834.57  1374.93  831.451  1373  828.768  1372.95  824.189  1368.29  821.199  1365.4  816.116  1361.44  814.022  1359.33  807.602  1353.06  806.064  1351.62  801.243  1341.57  809.909  1335.87  810.775  1336.21  " style="fill: none; stroke: black; stroke-width: 0.200000; fill-type: evenodd"  fill-opacity="1.000000" />
   <path d="M 964.994  1206.06  969.456  1208.37  973.134  1213.03  977.431  1218.3  981.511  1222.54  985.445  1226.93  989.164  1230  993.817  1234.63  996.425  1237.27  999.046  1239.83  1003.38  1243.44  1009.08  1248.81  1010.9  1250.21  1014.75  1254.58  1016.65  1256.66  1017.35  1258.07  1020.71  1265.3  1016.33  1268.37  1011.41  1270.97  1005.91  1267.26  997.223  1261.53  991.163  1257.59  987.782  1255.49  982.498  1251.34  977.039  1248.08  974.02  1245.28  966.966  1239.57  965.511  1237.81  958.549  1230.68  958.31  1230.2  957.14  1228.59  953.231  1222.91  951.638  1221.13  948.568  1213.81  946.781  1210.08  946.598  1202.76  946.63  1199.48  948.85  1198.09  954.414  1198.37  958.981  1197.92  964.994  1206.06  " style="fill: none; stroke: darkmagenta; stroke-width: 0.200000; fill-type: evenodd"  fill-opacity="1.000000" />
   <path d="M 964.327  1206.84  968.805  1209.16  972.354  1213.65  976.682  1218.97  980.778  1223.22  984.751  1227.66  988.492  1230.74  993.109  1235.34  995.721  1237.98  998.376  1240.57  1002.72  1244.19  1008.43  1249.58  1010.22  1250.94  1014.01  1255.24  1015.82  1257.23  1016.45  1258.5  1019.45  1264.97  1015.8  1267.52  1011.48  1269.8  1006.47  1266.42  997.77  1260.69  991.699  1256.75  988.356  1254.67  983.066  1250.52  977.642  1247.28  974.676  1244.52  967.674  1238.86  966.256  1237.14  959.375  1230.1  959.169  1229.68  957.956  1228.02  954.018  1222.29  952.495  1220.59  949.481  1213.4  947.775  1209.84  947.598  1202.75  947.624  1200.04  949.115  1199.1  954.438  1199.37  958.515  1198.97  964.327  1206.84  " style="fill: none; stroke: black; stroke-width: 0.200000; fill-type: evenodd"  fill-opacity="1.000000" />
</svg>
