<?xml version="1.0" encoding="UTF-8" standalone="yes"?>
<!DOCTYPE svg PUBLIC "-//W3C//DTD SVG 1.0//EN" "http://www.w3.org/TR/2001/REC-SVG-20010904/DTD/svg10.dtd">
<svg height="2000" width="2000" xmlns="http://www.w3.org/2000/svg" xmlns:svg="http://www.w3.org/2000/svg" xmlns:xlink="http://www.w3.org/1999/xlink">
   <marker id="endArrow" markerHeight="8" markerUnits="strokeWidth" markerWidth="10" orient="auto" refX="1" refY="5" viewBox="0 0 1000 1000">
      <polyline fill="darkblue" points="0,0 10,5 0,10 1,5" />
   </marker>
   <circle cx="1000" cy="1000" r="1" style="stroke:black; fill: red" />
   <circle cx="1000" cy="1000" r="800" style="stroke:black; fill: none" />
   <line x1="1063.819946" y1="1039.142944" x2="1063.819946" y2="1040.061523" style="stroke: green; stroke-width: 0.200000"/>
   <line x1="1064.819946" y1="1038.143066" x2="1064.819946" y2="1040.061523" style="stroke: green; stroke-width: 0.200000"/>
   <line x1="1065.819946" y1="1037.142944" x2="1065.819946" y2="1040.061523" style="stroke: green; stroke-width: 0.200000"/>
   <line x1="1066.819946" y1="1036.142944" x2="1066.819946" y2="1040.061523" style="stroke: green; stroke-width: 0.200000"/>
   <line x1="1067.819946" y1="1035.142944" x2="1067.819946" y2="1040.061523" style="stroke: green; stroke-width: 0.200000"/>
   <line x1="1068.819946" y1="1034.142944" x2="1068.819946" y2="1040.061523" style="stroke: green; stroke-width: 0.200000"/>
   <line x1="1069.819946" y1="1034.129395" x2="1069.819946" y2="1040.061523" style="stroke: green; stroke-width: 0.200000"/>
   <line x1="1070.819946" y1="1035.129395" x2="1070.819946" y2="1040.061523" style="stroke: green; stroke-width: 0.200000"/>
   <line x1="1071.819946" y1="1036.129395" x2="1071.819946" y2="1040.061523" style="stroke: green; stroke-width: 0.200000"/>
   <line x1="1072.819946" y1="1036.364380" x2="1072.819946" y2="1040.061523" style="stroke: green; stroke-width: 0.200000"/>
   <line x1="1073.819946" y1="1035.364380" x2="1073.819946" y2="1040.061523" style="stroke: green; stroke-width: 0.200000"/>
   <line x1="1074.819946" y1="1034.364380" x2="1074.819946" y2="1040.061523" style="stroke: green; stroke-width: 0.200000"/>
   <line x1="1075.819946" y1="1033.364380" x2="1075.819946" y2="1040.061523" style="stroke: green; stroke-width: 0.200000"/>
   <line x1="1076.819946" y1="1032.364380" x2="1076.819946" y2="1040.061523" style="stroke: green; stroke-width: 0.200000"/>
   <line x1="1077.819946" y1="1031.364380" x2="1077.819946" y2="1040.061523" style="stroke: green; stroke-width: 0.200000"/>
   <line x1="1078.819946" y1="1030.364380" x2="1078.819946" y2="1040.061523" style="stroke: green; stroke-width: 0.200000"/>
   <line x1="1079.819946" y1="1029.364380" x2="1079.819946" y2="1040.061523" style="stroke: green; stroke-width: 0.200000"/>
   <line x1="1080.819946" y1="1028.364380" x2="1080.819946" y2="1040.061523" style="stroke: green; stroke-width: 0.200000"/>
   <line x1="1081.819946" y1="1027.364380" x2="1081.819946" y2="1040.061523" style="stroke: green; stroke-width: 0.200000"/>
   <line x1="1082.819946" y1="1026.364380" x2="1082.819946" y2="1040.061523" style="stroke: green; stroke-width: 0.200000"/>
   <line x1="1083.819946" y1="1025.364380" x2="1083.819946" y2="1040.061523" style="stroke: green; stroke-width: 0.200000"/>
   <line x1="1084.819946" y1="1024.364380" x2="1084.819946" y2="1040.061523" style="stroke: green; stroke-width: 0.200000"/>
   <line x1="1085.819946" y1="1023.364319" x2="1085.819946" y2="1040.061523" style="stroke: green; stroke-width: 0.200000"/>
   <line x1="1086.819946" y1="1022.364380" x2="1086.819946" y2="1040.061523" style="stroke: green; stroke-width: 0.200000"/>
   <line x1="1087.819946" y1="1021.364380" x2="1087.819946" y2="1040.061523" style="stroke: green; stroke-width: 0.200000"/>
   <line x1="1088.819946" y1="1020.364380" x2="1088.819946" y2="1040.061523" style="stroke: green; stroke-width: 0.200000"/>
   <line x1="1089.819946" y1="1019.364380" x2="1089.819946" y2="1040.061523" style="stroke: green; stroke-width: 0.200000"/>
   <line x1="1090.819946" y1="1018.364319" x2="1090.819946" y2="1040.061523" style="stroke: green; stroke-width: 0.200000"/>
   <line x1="1091.819946" y1="1017.364380" x2="1091.819946" y2="1040.061523" style="stroke: green; stroke-width: 0.200000"/>
   <line x1="1092.819946" y1="1016.364380" x2="1092.819946" y2="1040.061523" style="stroke: green; stroke-width: 0.200000"/>
   <line x1="1093.819946" y1="1015.364380" x2="1093.819946" y2="1040.061523" style="stroke: green; stroke-width: 0.200000"/>
   <line x1="1094.819946" y1="1014.364380" x2="1094.819946" y2="1040.061523" style="stroke: green; stroke-width: 0.200000"/>
   <line x1="1095.819946" y1="1013.364319" x2="1095.819946" y2="1040.061523" style="stroke: green; stroke-width: 0.200000"/>
   <line x1="1096.819946" y1="1012.364380" x2="1096.819946" y2="1040.061523" style="stroke: green; stroke-width: 0.200000"/>
   <line x1="1097.819946" y1="1011.364380" x2="1097.819946" y2="1040.061523" style="stroke: green; stroke-width: 0.200000"/>
   <line x1="1098.819946" y1="1010.364380" x2="1098.819946" y2="1040.061523" style="stroke: green; stroke-width: 0.200000"/>
   <line x1="1099.819946" y1="1009.364380" x2="1099.819946" y2="1040.061523" style="stroke: green; stroke-width: 0.200000"/>
   <line x1="1100.819946" y1="1008.364319" x2="1100.819946" y2="1040.061523" style="stroke: green; stroke-width: 0.200000"/>
   <line x1="1101.819946" y1="1007.364380" x2="1101.819946" y2="1040.061523" style="stroke: green; stroke-width: 0.200000"/>
   <line x1="1102.819946" y1="1006.364380" x2="1102.819946" y2="1040.061523" style="stroke: green; stroke-width: 0.200000"/>
   <line x1="1103.819946" y1="1005.364380" x2="1103.819946" y2="1040.061523" style="stroke: green; stroke-width: 0.200000"/>
   <line x1="1104.819946" y1="1004.364380" x2="1104.819946" y2="1040.061523" style="stroke: green; stroke-width: 0.200000"/>
   <line x1="1105.819946" y1="1003.364319" x2="1105.819946" y2="1040.061523" style="stroke: green; stroke-width: 0.200000"/>
   <line x1="1106.819946" y1="1002.364380" x2="1106.819946" y2="1040.061523" style="stroke: green; stroke-width: 0.200000"/>
   <line x1="1107.819946" y1="1001.364380" x2="1107.819946" y2="1040.061523" style="stroke: green; stroke-width: 0.200000"/>
   <line x1="1108.819946" y1="1000.364380" x2="1108.819946" y2="1039.510986" style="stroke: green; stroke-width: 0.200000"/>
   <line x1="1109.819946" y1="999.364380" x2="1109.819946" y2="1038.442749" style="stroke: green; stroke-width: 0.200000"/>
   <line x1="1110.819946" y1="998.364319" x2="1110.819946" y2="1037.374512" style="stroke: green; stroke-width: 0.200000"/>
   <line x1="1111.819946" y1="997.364380" x2="1111.819946" y2="1036.306396" style="stroke: green; stroke-width: 0.200000"/>
   <line x1="1112.819946" y1="996.364380" x2="1112.819946" y2="1035.238159" style="stroke: green; stroke-width: 0.200000"/>
   <line x1="1113.819946" y1="992.102722" x2="1113.819946" y2="1034.169922" style="stroke: green; stroke-width: 0.200000"/>
   <line x1="1114.819946" y1="993.518066" x2="1114.819946" y2="1033.072632" style="stroke: green; stroke-width: 0.200000"/>
   <line x1="1115.819946" y1="994.936462" x2="1115.819946" y2="1031.886719" style="stroke: green; stroke-width: 0.200000"/>
   <line x1="1116.819946" y1="996.372437" x2="1116.819946" y2="1030.700806" style="stroke: green; stroke-width: 0.200000"/>
   <line x1="1117.819946" y1="997.808472" x2="1117.819946" y2="1029.514893" style="stroke: green; stroke-width: 0.200000"/>
   <line x1="1118.819946" y1="999.384827" x2="1118.819946" y2="1028.244873" style="stroke: green; stroke-width: 0.200000"/>
   <line x1="1119.819946" y1="1001.155090" x2="1119.819946" y2="1026.780884" style="stroke: green; stroke-width: 0.200000"/>
   <line x1="1120.819946" y1="1003.220703" x2="1120.819946" y2="1024.980347" style="stroke: green; stroke-width: 0.200000"/>
   <line x1="1121.819946" y1="1005.778809" x2="1121.819946" y2="1022.616089" style="stroke: green; stroke-width: 0.200000"/>
   <line x1="1122.819946" y1="1010.047302" x2="1122.819946" y2="1018.495483" style="stroke: green; stroke-width: 0.200000"/>
   <line x1="1112.819946" y1="990.717773" x2="1112.819946" y2="995.562744" style="stroke: green; stroke-width: 0.200000"/>
   <line x1="1111.819946" y1="990.577393" x2="1111.819946" y2="993.757202" style="stroke: green; stroke-width: 0.200000"/>
   <line x1="1110.819946" y1="991.577393" x2="1110.819946" y2="992.010010" style="stroke: green; stroke-width: 0.200000"/>
   <line x1="1019.819946" y1="1089.364380" x2="1019.819946" y2="1090.161499" style="stroke: green; stroke-width: 0.200000"/>
   <line x1="1020.819946" y1="1088.364380" x2="1020.819946" y2="1090.161499" style="stroke: green; stroke-width: 0.200000"/>
   <line x1="1021.820007" y1="1087.364380" x2="1021.820007" y2="1090.161499" style="stroke: green; stroke-width: 0.200000"/>
   <line x1="1022.819946" y1="1086.364380" x2="1022.819946" y2="1090.161499" style="stroke: green; stroke-width: 0.200000"/>
   <line x1="1023.819946" y1="1079.142944" x2="1023.819946" y2="1090.161499" style="stroke: green; stroke-width: 0.200000"/>
   <line x1="1024.819946" y1="1078.143066" x2="1024.819946" y2="1090.161499" style="stroke: green; stroke-width: 0.200000"/>
   <line x1="1025.819946" y1="1077.142944" x2="1025.819946" y2="1090.161499" style="stroke: green; stroke-width: 0.200000"/>
   <line x1="1026.819946" y1="1076.142944" x2="1026.819946" y2="1090.161499" style="stroke: green; stroke-width: 0.200000"/>
   <line x1="1027.819946" y1="1075.142944" x2="1027.819946" y2="1090.161499" style="stroke: green; stroke-width: 0.200000"/>
   <line x1="1028.819946" y1="1074.142944" x2="1028.819946" y2="1090.161499" style="stroke: green; stroke-width: 0.200000"/>
   <line x1="1029.819946" y1="1073.143066" x2="1029.819946" y2="1090.161499" style="stroke: green; stroke-width: 0.200000"/>
   <line x1="1030.819946" y1="1072.142944" x2="1030.819946" y2="1090.161499" style="stroke: green; stroke-width: 0.200000"/>
   <line x1="1031.819946" y1="1071.142944" x2="1031.819946" y2="1090.161499" style="stroke: green; stroke-width: 0.200000"/>
   <line x1="1032.819946" y1="1070.142944" x2="1032.819946" y2="1090.161499" style="stroke: green; stroke-width: 0.200000"/>
   <line x1="1033.819946" y1="1069.142944" x2="1033.819946" y2="1090.161499" style="stroke: green; stroke-width: 0.200000"/>
   <line x1="1034.819946" y1="1068.143066" x2="1034.819946" y2="1090.161499" style="stroke: green; stroke-width: 0.200000"/>
   <line x1="1035.819946" y1="1067.142944" x2="1035.819946" y2="1090.161499" style="stroke: green; stroke-width: 0.200000"/>
   <line x1="1036.819946" y1="1066.142944" x2="1036.819946" y2="1090.161499" style="stroke: green; stroke-width: 0.200000"/>
   <line x1="1037.819946" y1="1065.142944" x2="1037.819946" y2="1090.161499" style="stroke: green; stroke-width: 0.200000"/>
   <line x1="1038.819946" y1="1064.142944" x2="1038.819946" y2="1090.161499" style="stroke: green; stroke-width: 0.200000"/>
   <line x1="1039.819946" y1="1063.143066" x2="1039.819946" y2="1090.161499" style="stroke: green; stroke-width: 0.200000"/>
   <line x1="1040.819946" y1="1062.142944" x2="1040.819946" y2="1090.161499" style="stroke: green; stroke-width: 0.200000"/>
   <line x1="1041.819946" y1="1061.142944" x2="1041.819946" y2="1090.161499" style="stroke: green; stroke-width: 0.200000"/>
   <line x1="1042.819946" y1="1060.142944" x2="1042.819946" y2="1090.161499" style="stroke: green; stroke-width: 0.200000"/>
   <line x1="1043.819946" y1="1059.142944" x2="1043.819946" y2="1090.161499" style="stroke: green; stroke-width: 0.200000"/>
   <line x1="1022.819946" y1="1080.142944" x2="1022.819946" y2="1084.458618" style="stroke: green; stroke-width: 0.200000"/>
   <line x1="1021.820007" y1="1081.142944" x2="1021.820007" y2="1083.458618" style="stroke: green; stroke-width: 0.200000"/>
   <line x1="1020.819946" y1="1082.142944" x2="1020.819946" y2="1082.458618" style="stroke: green; stroke-width: 0.200000"/>
   <line x1="1044.819946" y1="1058.143066" x2="1044.819946" y2="1090.161499" style="stroke: green; stroke-width: 0.200000"/>
   <line x1="1045.819946" y1="1057.142944" x2="1045.819946" y2="1090.161499" style="stroke: green; stroke-width: 0.200000"/>
   <line x1="1046.819946" y1="1056.142944" x2="1046.819946" y2="1087.967407" style="stroke: green; stroke-width: 0.200000"/>
   <line x1="1047.819946" y1="1055.142944" x2="1047.819946" y2="1085.931519" style="stroke: green; stroke-width: 0.200000"/>
   <line x1="1048.819946" y1="1054.142944" x2="1048.819946" y2="1083.863281" style="stroke: green; stroke-width: 0.200000"/>
   <line x1="1049.819946" y1="1053.143066" x2="1049.819946" y2="1082.011230" style="stroke: green; stroke-width: 0.200000"/>
   <line x1="1050.819946" y1="1052.142944" x2="1050.819946" y2="1080.301880" style="stroke: green; stroke-width: 0.200000"/>
   <line x1="1051.819946" y1="1051.142944" x2="1051.819946" y2="1078.547119" style="stroke: green; stroke-width: 0.200000"/>
   <line x1="1052.819946" y1="1050.142944" x2="1052.819946" y2="1077.130249" style="stroke: green; stroke-width: 0.200000"/>
   <line x1="1053.819946" y1="1049.142944" x2="1053.819946" y2="1075.633301" style="stroke: green; stroke-width: 0.200000"/>
   <line x1="1054.819946" y1="1048.143066" x2="1054.819946" y2="1074.194824" style="stroke: green; stroke-width: 0.200000"/>
   <line x1="1055.819946" y1="1047.142944" x2="1055.819946" y2="1072.946167" style="stroke: green; stroke-width: 0.200000"/>
   <line x1="1056.819946" y1="1046.142944" x2="1056.819946" y2="1071.653809" style="stroke: green; stroke-width: 0.200000"/>
   <line x1="1057.819946" y1="1045.142944" x2="1057.819946" y2="1070.397827" style="stroke: green; stroke-width: 0.200000"/>
   <line x1="1058.819946" y1="1044.142944" x2="1058.819946" y2="1069.257935" style="stroke: green; stroke-width: 0.200000"/>
   <line x1="1059.819946" y1="1043.143066" x2="1059.819946" y2="1068.146973" style="stroke: green; stroke-width: 0.200000"/>
   <line x1="1060.819946" y1="1042.142944" x2="1060.819946" y2="1067.082031" style="stroke: green; stroke-width: 0.200000"/>
   <line x1="1061.819946" y1="1041.142944" x2="1061.819946" y2="1066.017090" style="stroke: green; stroke-width: 0.200000"/>
   <line x1="1062.819946" y1="1040.161499" x2="1062.819946" y2="1064.973022" style="stroke: green; stroke-width: 0.200000"/>
   <line x1="1063.819946" y1="1040.161499" x2="1063.819946" y2="1063.957764" style="stroke: green; stroke-width: 0.200000"/>
   <line x1="1064.819946" y1="1040.161499" x2="1064.819946" y2="1063.021973" style="stroke: green; stroke-width: 0.200000"/>
   <line x1="1065.819946" y1="1040.161499" x2="1065.819946" y2="1062.130005" style="stroke: green; stroke-width: 0.200000"/>
   <line x1="1066.819946" y1="1040.161499" x2="1066.819946" y2="1061.237915" style="stroke: green; stroke-width: 0.200000"/>
   <line x1="1067.819946" y1="1040.161499" x2="1067.819946" y2="1060.346558" style="stroke: green; stroke-width: 0.200000"/>
   <line x1="1068.819946" y1="1040.161499" x2="1068.819946" y2="1059.598511" style="stroke: green; stroke-width: 0.200000"/>
   <line x1="1069.819946" y1="1040.161499" x2="1069.819946" y2="1058.850586" style="stroke: green; stroke-width: 0.200000"/>
   <line x1="1070.819946" y1="1040.161499" x2="1070.819946" y2="1058.102539" style="stroke: green; stroke-width: 0.200000"/>
   <line x1="1071.819946" y1="1040.161499" x2="1071.819946" y2="1057.359375" style="stroke: green; stroke-width: 0.200000"/>
   <line x1="1072.819946" y1="1040.161499" x2="1072.819946" y2="1056.761353" style="stroke: green; stroke-width: 0.200000"/>
   <line x1="1073.819946" y1="1040.161499" x2="1073.819946" y2="1056.163330" style="stroke: green; stroke-width: 0.200000"/>
   <line x1="1074.819946" y1="1040.161499" x2="1074.819946" y2="1055.565308" style="stroke: green; stroke-width: 0.200000"/>
   <line x1="1075.819946" y1="1040.161499" x2="1075.819946" y2="1054.967407" style="stroke: green; stroke-width: 0.200000"/>
   <line x1="1076.819946" y1="1040.161499" x2="1076.819946" y2="1054.457764" style="stroke: green; stroke-width: 0.200000"/>
   <line x1="1077.819946" y1="1040.161499" x2="1077.819946" y2="1053.993286" style="stroke: green; stroke-width: 0.200000"/>
   <line x1="1078.819946" y1="1040.161499" x2="1078.819946" y2="1053.528931" style="stroke: green; stroke-width: 0.200000"/>
   <line x1="1079.819946" y1="1040.161499" x2="1079.819946" y2="1053.064575" style="stroke: green; stroke-width: 0.200000"/>
   <line x1="1080.819946" y1="1040.161499" x2="1080.819946" y2="1052.600098" style="stroke: green; stroke-width: 0.200000"/>
   <line x1="1081.819946" y1="1040.161499" x2="1081.819946" y2="1052.207520" style="stroke: green; stroke-width: 0.200000"/>
   <line x1="1082.819946" y1="1040.161499" x2="1082.819946" y2="1051.823853" style="stroke: green; stroke-width: 0.200000"/>
   <line x1="1083.819946" y1="1040.161499" x2="1083.819946" y2="1051.440063" style="stroke: green; stroke-width: 0.200000"/>
   <line x1="1084.819946" y1="1040.161499" x2="1084.819946" y2="1051.056152" style="stroke: green; stroke-width: 0.200000"/>
   <line x1="1085.819946" y1="1040.161499" x2="1085.819946" y2="1050.672485" style="stroke: green; stroke-width: 0.200000"/>
   <line x1="1086.819946" y1="1040.161499" x2="1086.819946" y2="1050.346313" style="stroke: green; stroke-width: 0.200000"/>
   <line x1="1087.819946" y1="1040.161499" x2="1087.819946" y2="1050.032104" style="stroke: green; stroke-width: 0.200000"/>
   <line x1="1088.819946" y1="1040.161499" x2="1088.819946" y2="1049.717896" style="stroke: green; stroke-width: 0.200000"/>
   <line x1="1089.819946" y1="1040.161499" x2="1089.819946" y2="1049.403564" style="stroke: green; stroke-width: 0.200000"/>
   <line x1="1090.819946" y1="1040.161499" x2="1090.819946" y2="1049.089478" style="stroke: green; stroke-width: 0.200000"/>
   <line x1="1091.819946" y1="1040.161499" x2="1091.819946" y2="1048.805664" style="stroke: green; stroke-width: 0.200000"/>
   <line x1="1092.819946" y1="1040.161499" x2="1092.819946" y2="1048.553345" style="stroke: green; stroke-width: 0.200000"/>
   <line x1="1093.819946" y1="1040.161499" x2="1093.819946" y2="1048.301147" style="stroke: green; stroke-width: 0.200000"/>
   <line x1="1094.819946" y1="1040.161499" x2="1094.819946" y2="1048.048828" style="stroke: green; stroke-width: 0.200000"/>
   <line x1="1095.819946" y1="1040.161499" x2="1095.819946" y2="1047.796387" style="stroke: green; stroke-width: 0.200000"/>
   <line x1="1096.819946" y1="1040.161499" x2="1096.819946" y2="1047.448853" style="stroke: green; stroke-width: 0.200000"/>
   <line x1="1097.819946" y1="1040.161499" x2="1097.819946" y2="1047.090332" style="stroke: green; stroke-width: 0.200000"/>
   <line x1="1098.819946" y1="1040.161499" x2="1098.819946" y2="1046.778076" style="stroke: green; stroke-width: 0.200000"/>
   <line x1="1099.819946" y1="1040.161499" x2="1099.819946" y2="1046.362061" style="stroke: green; stroke-width: 0.200000"/>
   <line x1="1100.819946" y1="1040.161499" x2="1100.819946" y2="1045.942627" style="stroke: green; stroke-width: 0.200000"/>
   <line x1="1101.819946" y1="1040.161499" x2="1101.819946" y2="1045.423218" style="stroke: green; stroke-width: 0.200000"/>
   <line x1="1102.819946" y1="1040.161499" x2="1102.819946" y2="1044.783447" style="stroke: green; stroke-width: 0.200000"/>
   <line x1="1103.819946" y1="1040.161499" x2="1103.819946" y2="1044.125488" style="stroke: green; stroke-width: 0.200000"/>
   <line x1="1104.819946" y1="1040.161499" x2="1104.819946" y2="1043.237183" style="stroke: green; stroke-width: 0.200000"/>
   <line x1="1105.819946" y1="1040.161499" x2="1105.819946" y2="1042.322021" style="stroke: green; stroke-width: 0.200000"/>
   <line x1="1106.819946" y1="1040.161499" x2="1106.819946" y2="1041.388672" style="stroke: green; stroke-width: 0.200000"/>
   <line x1="1107.819946" y1="1040.161499" x2="1107.819946" y2="1040.455078" style="stroke: green; stroke-width: 0.200000"/>
   <line x1="1015.819946" y1="1093.364380" x2="1015.819946" y2="1114.833862" style="stroke: green; stroke-width: 0.200000"/>
   <line x1="1016.820007" y1="1092.364380" x2="1016.820007" y2="1114.827393" style="stroke: green; stroke-width: 0.200000"/>
   <line x1="1014.819946" y1="1094.364380" x2="1014.819946" y2="1114.819458" style="stroke: green; stroke-width: 0.200000"/>
   <line x1="1017.819946" y1="1091.364380" x2="1017.819946" y2="1114.771606" style="stroke: green; stroke-width: 0.200000"/>
   <line x1="1013.819946" y1="1095.364380" x2="1013.819946" y2="1114.761963" style="stroke: green; stroke-width: 0.200000"/>
   <line x1="1018.819946" y1="1090.364380" x2="1018.819946" y2="1114.699951" style="stroke: green; stroke-width: 0.200000"/>
   <line x1="1012.819946" y1="1096.364380" x2="1012.819946" y2="1114.676758" style="stroke: green; stroke-width: 0.200000"/>
   <line x1="1019.819946" y1="1090.261475" x2="1019.819946" y2="1114.560425" style="stroke: green; stroke-width: 0.200000"/>
   <line x1="1011.820007" y1="1097.364380" x2="1011.820007" y2="1114.553101" style="stroke: green; stroke-width: 0.200000"/>
   <line x1="1020.819946" y1="1090.261475" x2="1020.819946" y2="1114.406494" style="stroke: green; stroke-width: 0.200000"/>
   <line x1="1010.819946" y1="1098.364380" x2="1010.819946" y2="1114.394043" style="stroke: green; stroke-width: 0.200000"/>
   <line x1="1009.819946" y1="1099.364380" x2="1009.819946" y2="1114.202759" style="stroke: green; stroke-width: 0.200000"/>
   <line x1="1021.820007" y1="1090.261475" x2="1021.820007" y2="1114.170044" style="stroke: green; stroke-width: 0.200000"/>
   <line x1="1008.819946" y1="1100.364380" x2="1008.819946" y2="1113.963867" style="stroke: green; stroke-width: 0.200000"/>
   <line x1="1022.819946" y1="1090.261475" x2="1022.819946" y2="1113.911865" style="stroke: green; stroke-width: 0.200000"/>
   <line x1="1007.819946" y1="1101.364380" x2="1007.819946" y2="1113.702515" style="stroke: green; stroke-width: 0.200000"/>
   <line x1="1023.819946" y1="1090.261475" x2="1023.819946" y2="1113.600098" style="stroke: green; stroke-width: 0.200000"/>
   <line x1="1006.820007" y1="1102.364380" x2="1006.820007" y2="1113.372437" style="stroke: green; stroke-width: 0.200000"/>
   <line x1="1024.819946" y1="1090.261475" x2="1024.819946" y2="1113.240967" style="stroke: green; stroke-width: 0.200000"/>
   <line x1="1005.819946" y1="1103.364380" x2="1005.819946" y2="1113.030273" style="stroke: green; stroke-width: 0.200000"/>
   <line x1="1025.819946" y1="1090.261475" x2="1025.819946" y2="1112.848755" style="stroke: green; stroke-width: 0.200000"/>
   <line x1="1004.819946" y1="1104.364380" x2="1004.819946" y2="1112.648438" style="stroke: green; stroke-width: 0.200000"/>
   <line x1="1026.819946" y1="1090.261475" x2="1026.819946" y2="1112.372925" style="stroke: green; stroke-width: 0.200000"/>
   <line x1="1003.819946" y1="1105.364380" x2="1003.819946" y2="1112.266724" style="stroke: green; stroke-width: 0.200000"/>
   <line x1="1002.819946" y1="1106.364380" x2="1002.819946" y2="1111.885010" style="stroke: green; stroke-width: 0.200000"/>
   <line x1="1027.819946" y1="1090.261475" x2="1027.819946" y2="1111.855103" style="stroke: green; stroke-width: 0.200000"/>
   <line x1="1001.820007" y1="1107.108398" x2="1001.820007" y2="1111.503174" style="stroke: green; stroke-width: 0.200000"/>
   <line x1="1028.819946" y1="1090.261475" x2="1028.819946" y2="1111.278687" style="stroke: green; stroke-width: 0.200000"/>
   <line x1="1000.819946" y1="1106.963379" x2="1000.819946" y2="1111.121582" style="stroke: green; stroke-width: 0.200000"/>
   <line x1="999.819946" y1="1106.818237" x2="999.819946" y2="1110.739746" style="stroke: green; stroke-width: 0.200000"/>
   <line x1="1029.819946" y1="1090.261475" x2="1029.819946" y2="1110.600952" style="stroke: green; stroke-width: 0.200000"/>
   <line x1="998.819946" y1="1106.669678" x2="998.819946" y2="1110.357910" style="stroke: green; stroke-width: 0.200000"/>
   <line x1="997.819946" y1="1106.509766" x2="997.819946" y2="1109.976318" style="stroke: green; stroke-width: 0.200000"/>
   <line x1="1030.819946" y1="1090.261475" x2="1030.819946" y2="1109.845215" style="stroke: green; stroke-width: 0.200000"/>
   <line x1="996.820007" y1="1106.349854" x2="996.820007" y2="1109.594482" style="stroke: green; stroke-width: 0.200000"/>
   <line x1="995.819946" y1="1106.577393" x2="995.819946" y2="1109.212769" style="stroke: green; stroke-width: 0.200000"/>
   <line x1="1031.819946" y1="1090.261475" x2="1031.819946" y2="1109.012329" style="stroke: green; stroke-width: 0.200000"/>
   <line x1="994.819946" y1="1107.577393" x2="994.819946" y2="1108.831055" style="stroke: green; stroke-width: 0.200000"/>
   <line x1="1032.819946" y1="1090.261475" x2="1032.819946" y2="1108.010986" style="stroke: green; stroke-width: 0.200000"/>
   <line x1="1033.819946" y1="1090.261475" x2="1033.819946" y2="1106.946045" style="stroke: green; stroke-width: 0.200000"/>
   <line x1="1034.819946" y1="1090.261475" x2="1034.819946" y2="1105.881104" style="stroke: green; stroke-width: 0.200000"/>
   <line x1="1035.819946" y1="1090.261475" x2="1035.819946" y2="1104.794312" style="stroke: green; stroke-width: 0.200000"/>
   <line x1="1036.819946" y1="1090.261475" x2="1036.819946" y2="1103.705444" style="stroke: green; stroke-width: 0.200000"/>
   <line x1="1037.819946" y1="1090.261475" x2="1037.819946" y2="1102.616699" style="stroke: green; stroke-width: 0.200000"/>
   <line x1="1038.819946" y1="1090.261475" x2="1038.819946" y2="1101.550415" style="stroke: green; stroke-width: 0.200000"/>
   <line x1="1039.819946" y1="1090.261475" x2="1039.819946" y2="1100.475830" style="stroke: green; stroke-width: 0.200000"/>
   <line x1="1040.819946" y1="1090.261475" x2="1040.819946" y2="1099.380859" style="stroke: green; stroke-width: 0.200000"/>
   <line x1="1041.819946" y1="1090.261475" x2="1041.819946" y2="1098.086792" style="stroke: green; stroke-width: 0.200000"/>
   <line x1="1042.819946" y1="1090.261475" x2="1042.819946" y2="1096.652222" style="stroke: green; stroke-width: 0.200000"/>
   <line x1="1043.819946" y1="1090.261475" x2="1043.819946" y2="1094.905518" style="stroke: green; stroke-width: 0.200000"/>
   <line x1="1044.819946" y1="1090.261475" x2="1044.819946" y2="1092.784546" style="stroke: green; stroke-width: 0.200000"/>
   <line x1="1045.819946" y1="1090.261475" x2="1045.819946" y2="1090.409058" style="stroke: green; stroke-width: 0.200000"/>
   <line x1="874.384521" y1="1024.237549" x2="874.384521" y2="1033.640625" style="stroke: green; stroke-width: 0.200000"/>
   <line x1="875.384521" y1="1022.343262" x2="875.384521" y2="1033.640625" style="stroke: green; stroke-width: 0.200000"/>
   <line x1="876.384521" y1="1020.449097" x2="876.384521" y2="1033.640625" style="stroke: green; stroke-width: 0.200000"/>
   <line x1="877.384583" y1="1018.554932" x2="877.384583" y2="1033.640625" style="stroke: green; stroke-width: 0.200000"/>
   <line x1="878.384521" y1="1016.946899" x2="878.384521" y2="1033.640625" style="stroke: green; stroke-width: 0.200000"/>
   <line x1="879.384521" y1="1015.366882" x2="879.384521" y2="1033.640625" style="stroke: green; stroke-width: 0.200000"/>
   <line x1="880.384521" y1="1013.892273" x2="880.384521" y2="1033.640625" style="stroke: green; stroke-width: 0.200000"/>
   <line x1="881.384521" y1="1012.417664" x2="881.384521" y2="1033.640625" style="stroke: green; stroke-width: 0.200000"/>
   <line x1="882.384583" y1="1011.014709" x2="882.384583" y2="1033.640625" style="stroke: green; stroke-width: 0.200000"/>
   <line x1="883.384521" y1="1009.792358" x2="883.384521" y2="1033.640625" style="stroke: green; stroke-width: 0.200000"/>
   <line x1="884.384521" y1="1008.569946" x2="884.384521" y2="1033.640625" style="stroke: green; stroke-width: 0.200000"/>
   <line x1="885.384521" y1="1007.347656" x2="885.384521" y2="1033.640625" style="stroke: green; stroke-width: 0.200000"/>
   <line x1="886.384521" y1="1006.125244" x2="886.384521" y2="1033.640625" style="stroke: green; stroke-width: 0.200000"/>
   <line x1="887.384583" y1="1005.041626" x2="887.384583" y2="1033.074707" style="stroke: green; stroke-width: 0.200000"/>
   <line x1="888.384521" y1="1003.970642" x2="888.384521" y2="1032.074585" style="stroke: green; stroke-width: 0.200000"/>
   <line x1="889.384521" y1="1002.914124" x2="889.384521" y2="1031.074585" style="stroke: green; stroke-width: 0.200000"/>
   <line x1="890.384521" y1="1001.878784" x2="890.384521" y2="1030.074585" style="stroke: green; stroke-width: 0.200000"/>
   <line x1="873.384521" y1="1028.123901" x2="873.384521" y2="1029.687256" style="stroke: green; stroke-width: 0.200000"/>
   <line x1="891.384521" y1="1000.843567" x2="891.384521" y2="1029.074585" style="stroke: green; stroke-width: 0.200000"/>
   <line x1="892.384583" y1="999.808289" x2="892.384583" y2="1028.074707" style="stroke: green; stroke-width: 0.200000"/>
   <line x1="893.384521" y1="998.773071" x2="893.384521" y2="1027.074585" style="stroke: green; stroke-width: 0.200000"/>
   <line x1="894.384521" y1="997.816406" x2="894.384521" y2="1026.074585" style="stroke: green; stroke-width: 0.200000"/>
   <line x1="895.384521" y1="996.884521" x2="895.384521" y2="1025.074585" style="stroke: green; stroke-width: 0.200000"/>
   <line x1="896.384521" y1="995.952698" x2="896.384521" y2="1024.074585" style="stroke: green; stroke-width: 0.200000"/>
   <line x1="897.384583" y1="995.020813" x2="897.384583" y2="1023.074646" style="stroke: green; stroke-width: 0.200000"/>
   <line x1="898.384521" y1="994.047546" x2="898.384521" y2="1022.074585" style="stroke: green; stroke-width: 0.200000"/>
   <line x1="899.384521" y1="993.070618" x2="899.384521" y2="1021.074585" style="stroke: green; stroke-width: 0.200000"/>
   <line x1="900.384521" y1="992.244812" x2="900.384521" y2="1020.074585" style="stroke: green; stroke-width: 0.200000"/>
   <line x1="901.384521" y1="991.470947" x2="901.384521" y2="1019.074646" style="stroke: green; stroke-width: 0.200000"/>
   <line x1="902.384583" y1="990.855469" x2="902.384583" y2="1018.074585" style="stroke: green; stroke-width: 0.200000"/>
   <line x1="903.384521" y1="990.226990" x2="903.384521" y2="1017.074585" style="stroke: green; stroke-width: 0.200000"/>
   <line x1="904.384521" y1="989.710327" x2="904.384521" y2="1016.074585" style="stroke: green; stroke-width: 0.200000"/>
   <line x1="905.384521" y1="989.284546" x2="905.384521" y2="1015.074585" style="stroke: green; stroke-width: 0.200000"/>
   <line x1="906.384521" y1="988.870850" x2="906.384521" y2="1014.074646" style="stroke: green; stroke-width: 0.200000"/>
   <line x1="907.384583" y1="988.597412" x2="907.384583" y2="1013.074585" style="stroke: green; stroke-width: 0.200000"/>
   <line x1="908.384521" y1="988.323914" x2="908.384521" y2="1012.074585" style="stroke: green; stroke-width: 0.200000"/>
   <line x1="909.384521" y1="988.060974" x2="909.384521" y2="1011.074585" style="stroke: green; stroke-width: 0.200000"/>
   <line x1="910.384521" y1="987.814880" x2="910.384521" y2="1010.074585" style="stroke: green; stroke-width: 0.200000"/>
   <line x1="911.384521" y1="987.568665" x2="911.384521" y2="1009.074646" style="stroke: green; stroke-width: 0.200000"/>
   <line x1="912.384583" y1="987.322449" x2="912.384583" y2="1008.074585" style="stroke: green; stroke-width: 0.200000"/>
   <line x1="913.384521" y1="987.076294" x2="913.384521" y2="1007.074585" style="stroke: green; stroke-width: 0.200000"/>
   <line x1="914.384521" y1="986.830078" x2="914.384521" y2="1006.074585" style="stroke: green; stroke-width: 0.200000"/>
   <line x1="915.384521" y1="986.583862" x2="915.384521" y2="1005.074585" style="stroke: green; stroke-width: 0.200000"/>
   <line x1="916.384521" y1="986.337646" x2="916.384521" y2="1004.074585" style="stroke: green; stroke-width: 0.200000"/>
   <line x1="917.384583" y1="986.091553" x2="917.384583" y2="1003.074585" style="stroke: green; stroke-width: 0.200000"/>
   <line x1="918.384521" y1="985.845337" x2="918.384521" y2="1002.074585" style="stroke: green; stroke-width: 0.200000"/>
   <line x1="919.384521" y1="985.599121" x2="919.384521" y2="1001.074585" style="stroke: green; stroke-width: 0.200000"/>
   <line x1="920.384521" y1="985.352905" x2="920.384521" y2="1000.074585" style="stroke: green; stroke-width: 0.200000"/>
   <line x1="921.384521" y1="985.106750" x2="921.384521" y2="999.074585" style="stroke: green; stroke-width: 0.200000"/>
   <line x1="922.384583" y1="984.820557" x2="922.384583" y2="998.074585" style="stroke: green; stroke-width: 0.200000"/>
   <line x1="924.384521" y1="984.218994" x2="924.384521" y2="996.074585" style="stroke: green; stroke-width: 0.200000"/>
   <line x1="925.384521" y1="983.918152" x2="925.384521" y2="995.074768" style="stroke: green; stroke-width: 0.200000"/>
   <line x1="937.384583" y1="993.442139" x2="937.384583" y2="994.486938" style="stroke: green; stroke-width: 0.200000"/>
   <line x1="936.384521" y1="992.536377" x2="936.384521" y2="994.479065" style="stroke: green; stroke-width: 0.200000"/>
   <line x1="926.384521" y1="987.321533" x2="926.384521" y2="994.074707" style="stroke: green; stroke-width: 0.200000"/>
   <line x1="935.384521" y1="991.537170" x2="935.384521" y2="993.622131" style="stroke: green; stroke-width: 0.200000"/>
   <line x1="927.384583" y1="987.709656" x2="927.384583" y2="993.074707" style="stroke: green; stroke-width: 0.200000"/>
   <line x1="934.384521" y1="990.537170" x2="934.384521" y2="992.702637" style="stroke: green; stroke-width: 0.200000"/>
   <line x1="931.384521" y1="989.262085" x2="931.384521" y2="992.639465" style="stroke: green; stroke-width: 0.200000"/>
   <line x1="928.384521" y1="988.097778" x2="928.384521" y2="992.074707" style="stroke: green; stroke-width: 0.200000"/>
   <line x1="930.384521" y1="988.873962" x2="930.384521" y2="992.023193" style="stroke: green; stroke-width: 0.200000"/>
   <line x1="933.384521" y1="990.038330" x2="933.384521" y2="991.782898" style="stroke: green; stroke-width: 0.200000"/>
   <line x1="932.384583" y1="989.650208" x2="932.384583" y2="991.639465" style="stroke: green; stroke-width: 0.200000"/>
   <line x1="929.384521" y1="988.485840" x2="929.384521" y2="991.074768" style="stroke: green; stroke-width: 0.200000"/>
   <line x1="881.384521" y1="1039.329712" x2="881.384521" y2="1042.051270" style="stroke: green; stroke-width: 0.200000"/>
   <line x1="882.384583" y1="1040.329712" x2="882.384583" y2="1041.639282" style="stroke: green; stroke-width: 0.200000"/>
   <line x1="880.384521" y1="1033.740601" x2="880.384521" y2="1041.016357" style="stroke: green; stroke-width: 0.200000"/>
   <line x1="879.384521" y1="1033.740601" x2="879.384521" y2="1039.981445" style="stroke: green; stroke-width: 0.200000"/>
   <line x1="881.384521" y1="1033.740601" x2="881.384521" y2="1039.074585" style="stroke: green; stroke-width: 0.200000"/>
   <line x1="878.384521" y1="1033.740601" x2="878.384521" y2="1038.946411" style="stroke: green; stroke-width: 0.200000"/>
   <line x1="882.384583" y1="1033.740601" x2="882.384583" y2="1038.074707" style="stroke: green; stroke-width: 0.200000"/>
   <line x1="877.384583" y1="1033.740601" x2="877.384583" y2="1037.911499" style="stroke: green; stroke-width: 0.200000"/>
   <line x1="883.384521" y1="1033.740601" x2="883.384521" y2="1037.074585" style="stroke: green; stroke-width: 0.200000"/>
   <line x1="876.384521" y1="1033.740601" x2="876.384521" y2="1036.835083" style="stroke: green; stroke-width: 0.200000"/>
   <line x1="884.384521" y1="1033.740601" x2="884.384521" y2="1036.074585" style="stroke: green; stroke-width: 0.200000"/>
   <line x1="875.384521" y1="1033.740601" x2="875.384521" y2="1035.614014" style="stroke: green; stroke-width: 0.200000"/>
   <line x1="885.384521" y1="1033.740601" x2="885.384521" y2="1035.074585" style="stroke: green; stroke-width: 0.200000"/>
   <line x1="886.384521" y1="1033.740601" x2="886.384521" y2="1034.074585" style="stroke: green; stroke-width: 0.200000"/>
   <line x1="874.384521" y1="1033.740601" x2="874.384521" y2="1033.862427" style="stroke: green; stroke-width: 0.200000"/>
   <line x1="972.593872" y1="934.251587" x2="972.593872" y2="935.193970" style="stroke: green; stroke-width: 0.200000"/>
   <line x1="973.593811" y1="930.821655" x2="973.593811" y2="935.193970" style="stroke: green; stroke-width: 0.200000"/>
   <line x1="974.593872" y1="927.313354" x2="974.593872" y2="935.193970" style="stroke: green; stroke-width: 0.200000"/>
   <line x1="975.593872" y1="923.072815" x2="975.593872" y2="935.193970" style="stroke: green; stroke-width: 0.200000"/>
   <line x1="976.593872" y1="919.139465" x2="976.593872" y2="935.193970" style="stroke: green; stroke-width: 0.200000"/>
   <line x1="977.593872" y1="916.356873" x2="977.593872" y2="935.193970" style="stroke: green; stroke-width: 0.200000"/>
   <line x1="978.593811" y1="914.423889" x2="978.593811" y2="935.193970" style="stroke: green; stroke-width: 0.200000"/>
   <line x1="979.593872" y1="912.850891" x2="979.593872" y2="935.193970" style="stroke: green; stroke-width: 0.200000"/>
   <line x1="980.593872" y1="911.580078" x2="980.593872" y2="935.193970" style="stroke: green; stroke-width: 0.200000"/>
   <line x1="981.593872" y1="910.410095" x2="981.593872" y2="935.193970" style="stroke: green; stroke-width: 0.200000"/>
   <line x1="982.593872" y1="909.337646" x2="982.593872" y2="935.193970" style="stroke: green; stroke-width: 0.200000"/>
   <line x1="983.593811" y1="908.265259" x2="983.593811" y2="935.193970" style="stroke: green; stroke-width: 0.200000"/>
   <line x1="984.593872" y1="907.192749" x2="984.593872" y2="935.193970" style="stroke: green; stroke-width: 0.200000"/>
   <line x1="985.593872" y1="906.130737" x2="985.593872" y2="934.865234" style="stroke: green; stroke-width: 0.200000"/>
   <line x1="986.593872" y1="905.084961" x2="986.593872" y2="933.865295" style="stroke: green; stroke-width: 0.200000"/>
   <line x1="987.593872" y1="904.101807" x2="987.593872" y2="932.865295" style="stroke: green; stroke-width: 0.200000"/>
   <line x1="988.593811" y1="903.147095" x2="988.593811" y2="931.865295" style="stroke: green; stroke-width: 0.200000"/>
   <line x1="989.593872" y1="902.192505" x2="989.593872" y2="930.865356" style="stroke: green; stroke-width: 0.200000"/>
   <line x1="990.593872" y1="901.237915" x2="990.593872" y2="929.865234" style="stroke: green; stroke-width: 0.200000"/>
   <line x1="991.593872" y1="900.283264" x2="991.593872" y2="928.865295" style="stroke: green; stroke-width: 0.200000"/>
   <line x1="992.593872" y1="899.328674" x2="992.593872" y2="927.865295" style="stroke: green; stroke-width: 0.200000"/>
   <line x1="993.593811" y1="898.394775" x2="993.593811" y2="926.865295" style="stroke: green; stroke-width: 0.200000"/>
   <line x1="994.593872" y1="897.562744" x2="994.593872" y2="925.865356" style="stroke: green; stroke-width: 0.200000"/>
   <line x1="995.593872" y1="896.730652" x2="995.593872" y2="924.865234" style="stroke: green; stroke-width: 0.200000"/>
   <line x1="996.593872" y1="895.898682" x2="996.593872" y2="923.865295" style="stroke: green; stroke-width: 0.200000"/>
   <line x1="997.593872" y1="895.066589" x2="997.593872" y2="922.865295" style="stroke: green; stroke-width: 0.200000"/>
   <line x1="998.593811" y1="894.234558" x2="998.593811" y2="921.865295" style="stroke: green; stroke-width: 0.200000"/>
   <line x1="999.593872" y1="893.402588" x2="999.593872" y2="920.865234" style="stroke: green; stroke-width: 0.200000"/>
   <line x1="1000.593872" y1="892.591187" x2="1000.593872" y2="919.865234" style="stroke: green; stroke-width: 0.200000"/>
   <line x1="1001.593872" y1="891.852112" x2="1001.593872" y2="918.865295" style="stroke: green; stroke-width: 0.200000"/>
   <line x1="1002.593872" y1="891.113037" x2="1002.593872" y2="917.865295" style="stroke: green; stroke-width: 0.200000"/>
   <line x1="1003.593811" y1="890.374023" x2="1003.593811" y2="916.865295" style="stroke: green; stroke-width: 0.200000"/>
   <line x1="1004.593872" y1="889.654175" x2="1004.593872" y2="915.865234" style="stroke: green; stroke-width: 0.200000"/>
   <line x1="1005.593872" y1="888.949036" x2="1005.593872" y2="914.865234" style="stroke: green; stroke-width: 0.200000"/>
   <line x1="1006.593872" y1="888.243958" x2="1006.593872" y2="913.865295" style="stroke: green; stroke-width: 0.200000"/>
   <line x1="1007.593872" y1="887.559937" x2="1007.593872" y2="912.865295" style="stroke: green; stroke-width: 0.200000"/>
   <line x1="1008.593811" y1="887.011230" x2="1008.593811" y2="911.865295" style="stroke: green; stroke-width: 0.200000"/>
   <line x1="1009.593872" y1="886.518616" x2="1009.593872" y2="910.865234" style="stroke: green; stroke-width: 0.200000"/>
   <line x1="1010.593872" y1="886.123291" x2="1010.593872" y2="909.865234" style="stroke: green; stroke-width: 0.200000"/>
   <line x1="1011.593872" y1="885.801392" x2="1011.593872" y2="908.865295" style="stroke: green; stroke-width: 0.200000"/>
   <line x1="1012.593872" y1="885.546936" x2="1012.593872" y2="907.865295" style="stroke: green; stroke-width: 0.200000"/>
   <line x1="1013.593811" y1="885.355286" x2="1013.593811" y2="906.865295" style="stroke: green; stroke-width: 0.200000"/>
   <line x1="1014.593872" y1="885.249084" x2="1014.593872" y2="905.865234" style="stroke: green; stroke-width: 0.200000"/>
   <line x1="1015.593872" y1="885.205444" x2="1015.593872" y2="904.865234" style="stroke: green; stroke-width: 0.200000"/>
   <line x1="1016.593872" y1="885.220642" x2="1016.593872" y2="903.865295" style="stroke: green; stroke-width: 0.200000"/>
   <line x1="1017.593872" y1="885.290222" x2="1017.593872" y2="902.865295" style="stroke: green; stroke-width: 0.200000"/>
   <line x1="1018.593811" y1="885.448730" x2="1018.593811" y2="901.865234" style="stroke: green; stroke-width: 0.200000"/>
   <line x1="1019.593872" y1="885.669678" x2="1019.593872" y2="900.865234" style="stroke: green; stroke-width: 0.200000"/>
   <line x1="1021.593872" y1="886.310364" x2="1021.593872" y2="898.865295" style="stroke: green; stroke-width: 0.200000"/>
   <line x1="1022.593872" y1="886.756897" x2="1022.593872" y2="897.865295" style="stroke: green; stroke-width: 0.200000"/>
   <line x1="1023.593811" y1="887.298279" x2="1023.593811" y2="896.865234" style="stroke: green; stroke-width: 0.200000"/>
   <line x1="1024.593872" y1="887.937317" x2="1024.593872" y2="895.865234" style="stroke: green; stroke-width: 0.200000"/>
   <line x1="1025.593872" y1="888.691772" x2="1025.593872" y2="894.865234" style="stroke: green; stroke-width: 0.200000"/>
   <line x1="1028.593872" y1="891.679138" x2="1028.593872" y2="894.778809" style="stroke: green; stroke-width: 0.200000"/>
   <line x1="1029.593872" y1="892.749084" x2="1029.593872" y2="894.429993" style="stroke: green; stroke-width: 0.200000"/>
   <line x1="1026.593872" y1="889.585266" x2="1026.593872" y2="893.865295" style="stroke: green; stroke-width: 0.200000"/>
   <line x1="1027.593872" y1="890.609131" x2="1027.593872" y2="893.778564" style="stroke: green; stroke-width: 0.200000"/>
   <line x1="980.593872" y1="946.771729" x2="980.593872" y2="950.750488" style="stroke: green; stroke-width: 0.200000"/>
   <line x1="981.593872" y1="947.853760" x2="981.593872" y2="950.558411" style="stroke: green; stroke-width: 0.200000"/>
   <line x1="979.593872" y1="945.689758" x2="979.593872" y2="949.750488" style="stroke: green; stroke-width: 0.200000"/>
   <line x1="978.593811" y1="942.903320" x2="978.593811" y2="948.750549" style="stroke: green; stroke-width: 0.200000"/>
   <line x1="977.593872" y1="935.293945" x2="977.593872" y2="947.750488" style="stroke: green; stroke-width: 0.200000"/>
   <line x1="976.593872" y1="935.293945" x2="976.593872" y2="945.539246" style="stroke: green; stroke-width: 0.200000"/>
   <line x1="979.593872" y1="943.903320" x2="979.593872" y2="944.430054" style="stroke: green; stroke-width: 0.200000"/>
   <line x1="975.593872" y1="935.293945" x2="975.593872" y2="942.959534" style="stroke: green; stroke-width: 0.200000"/>
   <line x1="978.593811" y1="935.293945" x2="978.593811" y2="941.865356" style="stroke: green; stroke-width: 0.200000"/>
   <line x1="979.593872" y1="935.293945" x2="979.593872" y2="940.865417" style="stroke: green; stroke-width: 0.200000"/>
   <line x1="974.593872" y1="935.293945" x2="974.593872" y2="940.379761" style="stroke: green; stroke-width: 0.200000"/>
   <line x1="970.593872" y1="940.114746" x2="970.593872" y2="940.136780" style="stroke: green; stroke-width: 0.200000"/>
   <line x1="971.593872" y1="937.183167" x2="971.593872" y2="940.024353" style="stroke: green; stroke-width: 0.200000"/>
   <line x1="972.593872" y1="935.293945" x2="972.593872" y2="939.911804" style="stroke: green; stroke-width: 0.200000"/>
   <line x1="980.593872" y1="935.293945" x2="980.593872" y2="939.865417" style="stroke: green; stroke-width: 0.200000"/>
   <line x1="973.593811" y1="935.293945" x2="973.593811" y2="939.799255" style="stroke: green; stroke-width: 0.200000"/>
   <line x1="981.593872" y1="935.293945" x2="981.593872" y2="938.865417" style="stroke: green; stroke-width: 0.200000"/>
   <line x1="982.593872" y1="935.293945" x2="982.593872" y2="937.865479" style="stroke: green; stroke-width: 0.200000"/>
   <line x1="983.593811" y1="935.293945" x2="983.593811" y2="936.865295" style="stroke: green; stroke-width: 0.200000"/>
   <line x1="984.593872" y1="935.293945" x2="984.593872" y2="935.865356" style="stroke: green; stroke-width: 0.200000"/>
   <line x1="937.973267" y1="980.282959" x2="937.973267" y2="993.975159" style="stroke: green; stroke-width: 0.200000"/>
   <line x1="938.973267" y1="980.031006" x2="938.973267" y2="993.082336" style="stroke: green; stroke-width: 0.200000"/>
   <line x1="936.973267" y1="980.517456" x2="936.973267" y2="993.069458" style="stroke: green; stroke-width: 0.200000"/>
   <line x1="935.973267" y1="980.654053" x2="935.973267" y2="992.125732" style="stroke: green; stroke-width: 0.200000"/>
   <line x1="939.973206" y1="979.815979" x2="939.973206" y2="992.095886" style="stroke: green; stroke-width: 0.200000"/>
   <line x1="934.973206" y1="980.754639" x2="934.973206" y2="991.125732" style="stroke: green; stroke-width: 0.200000"/>
   <line x1="940.973267" y1="979.694519" x2="940.973267" y2="991.109497" style="stroke: green; stroke-width: 0.200000"/>
   <line x1="933.973267" y1="981.009033" x2="933.973267" y2="990.266663" style="stroke: green; stroke-width: 0.200000"/>
   <line x1="941.973267" y1="979.656860" x2="941.973267" y2="990.122986" style="stroke: green; stroke-width: 0.200000"/>
   <line x1="932.973267" y1="981.356323" x2="932.973267" y2="989.878540" style="stroke: green; stroke-width: 0.200000"/>
   <line x1="931.973267" y1="981.734131" x2="931.973267" y2="989.490417" style="stroke: green; stroke-width: 0.200000"/>
   <line x1="930.973267" y1="982.097778" x2="930.973267" y2="989.102295" style="stroke: green; stroke-width: 0.200000"/>
   <line x1="942.973267" y1="979.703430" x2="942.973267" y2="989.088501" style="stroke: green; stroke-width: 0.200000"/>
   <line x1="929.973206" y1="982.449402" x2="929.973206" y2="988.714233" style="stroke: green; stroke-width: 0.200000"/>
   <line x1="928.973267" y1="982.789246" x2="928.973267" y2="988.326111" style="stroke: green; stroke-width: 0.200000"/>
   <line x1="943.973267" y1="979.737549" x2="943.973267" y2="988.122070" style="stroke: green; stroke-width: 0.200000"/>
   <line x1="927.973267" y1="983.129150" x2="927.973267" y2="987.937988" style="stroke: green; stroke-width: 0.200000"/>
   <line x1="926.973267" y1="983.440186" x2="926.973267" y2="987.549927" style="stroke: green; stroke-width: 0.200000"/>
   <line x1="925.973267" y1="987.141174" x2="925.973267" y2="987.161804" style="stroke: green; stroke-width: 0.200000"/>
   <line x1="944.973206" y1="980.262695" x2="944.973206" y2="987.155762" style="stroke: green; stroke-width: 0.200000"/>
   <line x1="945.973267" y1="981.309265" x2="945.973267" y2="986.189331" style="stroke: green; stroke-width: 0.200000"/>
   <line x1="946.973267" y1="982.403625" x2="946.973267" y2="985.129395" style="stroke: green; stroke-width: 0.200000"/>
   <line x1="947.973267" y1="983.248657" x2="947.973267" y2="983.725891" style="stroke: green; stroke-width: 0.200000"/>
   <line x1="970.420532" y1="940.622620" x2="970.420532" y2="961.132202" style="stroke: green; stroke-width: 0.200000"/>
   <line x1="971.420532" y1="940.043945" x2="971.420532" y2="960.601318" style="stroke: green; stroke-width: 0.200000"/>
   <line x1="969.420532" y1="943.132690" x2="969.420532" y2="960.188538" style="stroke: green; stroke-width: 0.200000"/>
   <line x1="972.420532" y1="939.931396" x2="972.420532" y2="959.815796" style="stroke: green; stroke-width: 0.200000"/>
   <line x1="968.420471" y1="945.636353" x2="968.420471" y2="959.244751" style="stroke: green; stroke-width: 0.200000"/>
   <line x1="973.420471" y1="939.818848" x2="973.420471" y2="958.839722" style="stroke: green; stroke-width: 0.200000"/>
   <line x1="967.420532" y1="952.071289" x2="967.420532" y2="958.251221" style="stroke: green; stroke-width: 0.200000"/>
   <line x1="974.420532" y1="939.932861" x2="974.420532" y2="957.826538" style="stroke: green; stroke-width: 0.200000"/>
   <line x1="975.420532" y1="942.512573" x2="975.420532" y2="956.813293" style="stroke: green; stroke-width: 0.200000"/>
   <line x1="976.420532" y1="945.092285" x2="976.420532" y2="955.800110" style="stroke: green; stroke-width: 0.200000"/>
   <line x1="977.420532" y1="947.577271" x2="977.420532" y2="954.786926" style="stroke: green; stroke-width: 0.200000"/>
   <line x1="978.420471" y1="948.577271" x2="978.420471" y2="953.773682" style="stroke: green; stroke-width: 0.200000"/>
   <line x1="979.420532" y1="949.577271" x2="979.420532" y2="952.760498" style="stroke: green; stroke-width: 0.200000"/>
   <line x1="980.420532" y1="950.577332" x2="980.420532" y2="951.747314" style="stroke: green; stroke-width: 0.200000"/>
   <path d="M 1032.09  1110.75  1031.17  1111.49  1029.7  1112.5  1028.13  1113.41  1026.47  1114.21  1024.73  1114.89  1022.93  1115.45  1021.08  1115.88  1020.08  1116.05  1019.14  1116.18  1017.13  1116.32  1015.11  1116.34  1013.1  1116.22  1011.11  1115.98  1009.16  1115.6  1007.27  1115.11  1005.38  1114.47  992.611  1109.59  991.224  1109.05  995.635  1104.64  999.287  1105.23  1001.51  1105.55  1021.65  1085.41  1018.54  1082.3  1069.33  1031.52  1072.44  1034.63  1111.25  995.817  1109.91  993.395  1108.77  991.511  1112.51  987.768  1114.54  990.53  1116.9  993.861  1119.29  997.293  1120.5  999.247  1121.62  1001.33  1122.59  1003.49  1123.39  1005.72  1123.96  1007.9  1124.35  1010.1  1124.59  1012.31  1124.65  1014.51  1124.55  1016.68  1124.29  1018.82  1123.87  1020.89  1123.71  1021.56  1123.3  1022.94  1122.56  1024.86  1121.64  1026.68  1120.59  1028.39  1119.41  1029.95  1117.39  1032.36  1115.69  1034.36  1109.8  1040.66  1106.75  1043.51  1105.13  1044.99  1104.61  1045.42  1102.16  1046.99  1101.83  1047.15  1099.37  1048.18  1097.83  1048.66  1096.66  1049.13  1091.73  1050.37  1086.48  1052.02  1084.71  1052.7  " style="fill: none; stroke: darkmagenta; stroke-width: 0.200000; fill-type: evenodd"  fill-opacity="1.000000" />
   <path d="M 1084.71  1052.7  1081.51  1053.93  1076.86  1056.09  1072.62  1058.63  1068.77  1061.51  1065.21  1064.68  1063.48  1066.44  1060.54  1069.57  1058.74  1071.62  1056.88  1074.03  1055.8  1075.37  1054.01  1078.05  1053.1  1079.33  1051.44  1082.25  1050.66  1083.51  1049.16  1086.6  1048.46  1087.92  1046.57  1092.53  1045.44  1095.1  1044.02  1097.58  1042.36  1099.92  1040.41  1102.05  1039.27  1103.26  1036.01  1106.81  1033.67  1109.31  1033.22  1109.78  1032.52  1110.39  1032.09  1110.75  " style="fill: none; stroke: red; stroke-width: 0.200000; fill-type: evenodd"  fill-opacity="1.000000" />
   <path d="M 1113.73  991.115  1116.08  994.435  1118.45  997.842  1119.63  999.747  1120.72  1001.77  1121.66  1003.87  1122.44  1006.02  1122.98  1008.11  1123.36  1010.24  1123.59  1012.37  1123.65  1014.5  1123.56  1016.6  1123.3  1018.66  1122.89  1020.68  1122.75  1021.3  1122.35  1022.62  1121.64  1024.46  1120.77  1026.2  1119.76  1027.82  1118.63  1029.33  1116.63  1031.72  1114.95  1033.7  1109.09  1039.95  1106.07  1042.77  1104.47  1044.23  1104.02  1044.61  1101.67  1046.11  1101.42  1046.23  1099.02  1047.24  1097.49  1047.72  1096.35  1048.18  1091.46  1049.41  1086.16  1051.08  1081.12  1053.01  1076.39  1055.21  1072.07  1057.79  1068.13  1060.74  1064.52  1063.96  1062.76  1065.75  1059.8  1068.89  1057.97  1070.99  1056.09  1073.41  1054.99  1074.78  1053.18  1077.49  1052.26  1078.79  1050.58  1081.73  1049.78  1083.03  1048.27  1086.15  1047.55  1087.5  1045.65  1092.14  1044.54  1094.65  1043.17  1097.04  1041.58  1099.29  1039.68  1101.37  1038.54  1102.57  1035.27  1106.13  1032.95  1108.62  1032.52  1109.05  1031.88  1109.63  1030.57  1110.69  1029.16  1111.66  1027.66  1112.52  1026.07  1113.29  1024.4  1113.94  1022.67  1114.48  1020.89  1114.9  1019.93  1115.06  1019.03  1115.19  1017.09  1115.33  1015.13  1115.34  1013.19  1115.23  1011.27  1114.99  1009.39  1114.63  1007.56  1114.15  1005.71  1113.52  993.014  1108.68  995.981  1105.71  999.136  1106.21  1001.87  1106.61  1023.07  1085.41  1019.96  1082.3  1069.33  1032.93  1072.44  1036.04  1112.49  995.991  1110.77  992.894  1110.03  991.664  1112.39  989.297  1113.73  991.115  " style="fill: none; stroke: black; stroke-width: 0.200000; fill-type: evenodd"  fill-opacity="1.000000" />
   <path d="M 933.602  994.02  932.832  993.313  931.193  994.952  929.41  993.17  883.378  1039.2  885.161  1040.98  881.655  1044.49  875.486  1038.1  874.132  1036.45  873.503  1035.43  873.097  1034.61  872.999  1034.46  872.327  1032.63  872.292  1032.49  871.921  1030.59  871.895  1030.33  871.843  1028.53  871.861  1028.17  872.175  1026.07  872.657  1024.53  872.791  1024.2  872.79  1024.14  873.016  1023.62  876.393  1017.22  877.369  1015.77  877.882  1014.91  880.897  1010.46  885.532  1004.8  886.869  1003.42  887.521  1002.68  892.573  997.454  896.43  993.861  898.414  991.922  898.77  991.613  899.932  990.677  900.652  990.148  901.919  989.385  902.236  989.153  903.383  988.507  905.81  987.473  908.62  986.704  921.256  983.594  927.252  981.79  929.863  980.903  931.216  980.417  933.134  979.692  933.765  979.507  934.497  979.323  " style="fill: none; stroke: darkmagenta; stroke-width: 0.200000; fill-type: evenodd"  fill-opacity="1.000000" />
   <path d="M 934.497  979.323  934.678  979.277  936.32  979.112  936.905  979.005  938.885  978.506  939.701  978.339  940.705  978.205  941.028  978.184  942.331  978.143  942.841  978.208  943.706  978.164  945.069  978.414  945.465  978.844  945.86  978.962  948.141  981.458  948.94  982.102  949.264  982.411  949.593  982.332  949.753  983.027  949.747  983.294  949.69  983.565  949.596  983.839  949.468  984.125  949.31  984.42  948.891  985.074  948.229  985.968  947.753  986.525  947.34  986.954  945.433  988.797  " style="fill: none; stroke: red; stroke-width: 0.200000; fill-type: evenodd"  fill-opacity="1.000000" />
   <path d="M 945.433  988.797  943.716  990.456  943.142  991.077  938.838  995.322  938.601  995.522  938.127  995.805  937.653  995.995  937.195  996.085  936.747  996.097  936.327  996.039  935.846  995.892  935.67  995.801  " style="fill: none; stroke: darkmagenta; stroke-width: 0.200000; fill-type: evenodd"  fill-opacity="1.000000" />
   <path d="M 935.67  995.801  935.444  995.684  935.279  995.563  933.602  994.02  " style="fill: none; stroke: red; stroke-width: 0.200000; fill-type: evenodd"  fill-opacity="1.000000" />
   <path d="M 945.64  987.207  943.001  989.757  942.424  990.381  938.164  994.583  938.018  994.706  937.682  994.906  937.368  995.032  937.083  995.088  936.802  995.095  936.543  995.06  936.225  994.962  935.973  994.832  935.916  994.79  932.803  991.928  931.193  993.538  929.41  991.756  881.964  1039.2  883.746  1040.98  881.667  1043.06  876.233  1037.44  874.948  1035.87  874.378  1034.94  873.969  1034.12  873.9  1034.01  873.284  1032.33  873.268  1032.27  872.911  1030.45  872.893  1030.27  872.844  1028.54  872.858  1028.27  873.152  1026.29  873.6  1024.87  873.796  1024.38  873.795  1024.33  873.918  1024.05  877.253  1017.73  878.214  1016.31  878.726  1015.45  881.699  1011.06  886.28  1005.46  887.602  1004.1  888.254  1003.36  893.274  998.168  897.12  994.584  899.092  992.657  899.412  992.38  900.542  991.47  901.208  990.981  902.474  990.218  902.779  989.994  903.826  989.405  906.14  988.42  908.872  987.672  921.519  984.559  927.557  982.743  930.193  981.847  931.562  981.355  933.452  980.641  934.028  980.472  934.851  980.265  936.46  980.103  936.687  980.062  " style="fill: none; stroke: black; stroke-width: 0.200000; fill-type: evenodd"  fill-opacity="1.000000" />
   <path d="M 936.687  980.062  937.117  979.983  939.108  979.482  939.868  979.326  940.804  979.201  941.076  979.183  942.283  979.145  942.803  979.212  943.641  979.169  944.559  979.337  944.915  979.724  945.309  979.841  947.454  982.189  948.28  982.854  948.744  983.297  948.57  983.683  948.447  983.913  948.067  984.506  947.447  985.345  947.013  985.853  946.632  986.247  945.64  987.207  " style="fill: none; stroke: red; stroke-width: 0.200000; fill-type: evenodd"  fill-opacity="1.000000" />
   <path d="M 983.601  947.968  983.723  948.221  983.849  948.669  983.896  949.167  983.872  949.558  983.773  949.998  983.589  950.44  983.39  950.769  983.252  950.931  983.185  951.082  975.811  958.552  " style="fill: none; stroke: darkmagenta; stroke-width: 0.200000; fill-type: evenodd"  fill-opacity="1.000000" />
   <path d="M 975.811  958.552  973.896  960.493  973.538  960.833  972.935  961.349  972.014  962.027  971.384  962.427  971.087  962.586  970.8  962.714  970.524  962.809  970.253  962.865  969.975  962.871  969.255  962.696  969.402  962.233  966.19  959.203  966.007  958.758  965.729  958.619  965.507  957.407  965.458  957.268  965.303  956.115  965.387  954.439  965.558  953.43  966  951.562  966.221  950.928  966.333  950.166  966.361  949.738  966.361  949.139  966.281  948.253  " style="fill: none; stroke: red; stroke-width: 0.200000; fill-type: evenodd"  fill-opacity="1.000000" />
   <path d="M 966.281  948.253  966.256  947.979  966.261  947.654  966.335  947.042  966.415  946.692  966.606  946.135  968.998  940.146  971.298  933.405  973.244  926.577  974.704  920.262  975.169  918.667  975.481  917.497  976.617  914.819  978.098  912.318  978.914  911.303  979.88  910.049  984.11  905.513  985.847  903.696  992.42  897.421  992.953  896.961  999.445  891.575  1003.15  888.838  1006.65  886.369  1007.75  885.754  1009.07  885.106  1010.45  884.572  1011.87  884.161  1013.32  883.876  1014.79  883.72  1016.27  883.693  1017.14  883.757  1017.75  883.796  1019.21  884.028  1020.65  884.387  1022.05  884.87  1023.4  885.474  1024.69  886.194  1025.92  887.024  1027.07  887.958  1028.11  888.969  1032.49  893.653  1028.92  897.226  1027.14  895.443  980.196  942.384  981.978  944.167  981.068  945.077  981.777  945.846  " style="fill: none; stroke: darkmagenta; stroke-width: 0.200000; fill-type: evenodd"  fill-opacity="1.000000" />
   <path d="M 981.777  945.846  983.214  947.405  983.306  947.485  983.515  947.789  983.601  947.968  " style="fill: none; stroke: red; stroke-width: 0.200000; fill-type: evenodd"  fill-opacity="1.000000" />
   <path d="M 967.284  950.574  967.328  950.271  967.361  949.771  967.361  949.094  967.257  947.942  967.26  947.723  967.322  947.214  967.378  946.966  967.544  946.483  969.937  940.493  972.253  933.704  974.213  926.827  975.672  920.515  976.133  918.936  976.429  917.822  977.512  915.271  978.922  912.889  979.7  911.922  980.643  910.696  984.837  906.199  986.554  904.403  993.092  898.162  993.599  897.724  1000.06  892.362  1003.73  889.648  1007.18  887.217  1008.22  886.639  1009.47  886.023  1010.77  885.52  1012.1  885.134  1013.47  884.866  1014.85  884.719  1016.24  884.694  1017.07  884.755  1017.64  884.791  1019.01  885.009  1020.36  885.347  1021.68  885.801  1022.95  886.369  1024.17  887.047  1025.32  887.828  1026.4  888.707  1027.4  889.67  1031.1  893.63  1028.92  895.811  1027.14  894.029  978.782  942.384  980.564  944.167  979.682  945.049  982.515  948.122  982.554  948.156  982.647  948.292  982.784  948.575  982.862  948.853  982.893  949.183  982.879  949.417  982.817  949.693  982.694  949.986  982.576  950.182  982.396  950.393  982.345  950.509  974.089  958.873  " style="fill: none; stroke: black; stroke-width: 0.200000; fill-type: evenodd"  fill-opacity="1.000000" />
   <path d="M 974.089  958.873  973.195  959.78  972.868  960.091  972.313  960.565  971.449  961.201  970.879  961.563  970.413  961.812  967.033  958.623  966.789  958.03  966.623  957.948  966.477  957.148  966.435  957.031  966.306  956.073  966.383  954.548  966.538  953.629  966.961  951.843  967.197  951.167  967.284  950.574  " style="fill: none; stroke: red; stroke-width: 0.200000; fill-type: evenodd"  fill-opacity="1.000000" />
</svg>
