<?xml version="1.0" encoding="UTF-8" standalone="yes"?>
<!DOCTYPE svg PUBLIC "-//W3C//DTD SVG 1.0//EN" "http://www.w3.org/TR/2001/REC-SVG-20010904/DTD/svg10.dtd">
<svg height="2000" width="2000" xmlns="http://www.w3.org/2000/svg" xmlns:svg="http://www.w3.org/2000/svg" xmlns:xlink="http://www.w3.org/1999/xlink">
   <marker id="endArrow" markerHeight="8" markerUnits="strokeWidth" markerWidth="10" orient="auto" refX="1" refY="5" viewBox="0 0 1000 1000">
      <polyline fill="darkblue" points="0,0 10,5 0,10 1,5" />
   </marker>
   <circle cx="1000" cy="1000" r="1" style="stroke:black; fill: red" />
   <circle cx="1000" cy="1000" r="800" style="stroke:black; fill: none" />
   <line x1="844.373779" y1="1236.160156" x2="797.740784" y2="1236.160156" style="stroke: green; stroke-width: 0.200000"/>
   <line x1="844.113892" y1="1235.160156" x2="797.608398" y2="1235.160156" style="stroke: green; stroke-width: 0.200000"/>
   <line x1="843.854065" y1="1234.160156" x2="797.585083" y2="1234.160156" style="stroke: green; stroke-width: 0.200000"/>
   <line x1="843.594360" y1="1233.160156" x2="797.637085" y2="1233.160156" style="stroke: green; stroke-width: 0.200000"/>
   <line x1="843.334473" y1="1232.160156" x2="797.769531" y2="1232.160156" style="stroke: green; stroke-width: 0.200000"/>
   <line x1="843.074646" y1="1231.160156" x2="797.901978" y2="1231.160156" style="stroke: green; stroke-width: 0.200000"/>
   <line x1="842.814819" y1="1230.160156" x2="798.034363" y2="1230.160156" style="stroke: green; stroke-width: 0.200000"/>
   <line x1="842.487305" y1="1229.160156" x2="798.166870" y2="1229.160156" style="stroke: green; stroke-width: 0.200000"/>
   <line x1="842.119446" y1="1228.160156" x2="798.299194" y2="1228.160156" style="stroke: green; stroke-width: 0.200000"/>
   <line x1="841.751587" y1="1227.160156" x2="798.434204" y2="1227.160156" style="stroke: green; stroke-width: 0.200000"/>
   <line x1="841.383667" y1="1226.160156" x2="798.598999" y2="1226.160156" style="stroke: green; stroke-width: 0.200000"/>
   <line x1="841.015686" y1="1225.160156" x2="798.763916" y2="1225.160156" style="stroke: green; stroke-width: 0.200000"/>
   <line x1="840.647827" y1="1224.160156" x2="798.928833" y2="1224.160156" style="stroke: green; stroke-width: 0.200000"/>
   <line x1="840.279907" y1="1223.160156" x2="799.093689" y2="1223.160156" style="stroke: green; stroke-width: 0.200000"/>
   <line x1="839.912048" y1="1222.160156" x2="799.258545" y2="1222.160156" style="stroke: green; stroke-width: 0.200000"/>
   <line x1="839.544128" y1="1221.160156" x2="799.423462" y2="1221.160156" style="stroke: green; stroke-width: 0.200000"/>
   <line x1="839.143677" y1="1220.160156" x2="799.588318" y2="1220.160156" style="stroke: green; stroke-width: 0.200000"/>
   <line x1="838.709717" y1="1219.160156" x2="799.753296" y2="1219.160156" style="stroke: green; stroke-width: 0.200000"/>
   <line x1="838.275696" y1="1218.160156" x2="799.959717" y2="1218.160156" style="stroke: green; stroke-width: 0.200000"/>
   <line x1="837.841675" y1="1217.160156" x2="800.227112" y2="1217.160156" style="stroke: green; stroke-width: 0.200000"/>
   <line x1="837.407593" y1="1216.160156" x2="800.494385" y2="1216.160156" style="stroke: green; stroke-width: 0.200000"/>
   <line x1="837.000061" y1="1215.160156" x2="800.761780" y2="1215.160156" style="stroke: green; stroke-width: 0.200000"/>
   <line x1="836.600952" y1="1214.160156" x2="801.029114" y2="1214.160156" style="stroke: green; stroke-width: 0.200000"/>
   <line x1="836.201782" y1="1213.160156" x2="801.296448" y2="1213.160156" style="stroke: green; stroke-width: 0.200000"/>
   <line x1="835.802734" y1="1212.160156" x2="801.563782" y2="1212.160156" style="stroke: green; stroke-width: 0.200000"/>
   <line x1="835.403687" y1="1211.160156" x2="801.831116" y2="1211.160156" style="stroke: green; stroke-width: 0.200000"/>
   <line x1="834.999268" y1="1210.160156" x2="802.098328" y2="1210.160156" style="stroke: green; stroke-width: 0.200000"/>
   <line x1="834.521973" y1="1209.160156" x2="802.330078" y2="1209.160156" style="stroke: green; stroke-width: 0.200000"/>
   <line x1="834.044678" y1="1208.160156" x2="802.537292" y2="1208.160156" style="stroke: green; stroke-width: 0.200000"/>
   <line x1="833.567261" y1="1207.160156" x2="802.744507" y2="1207.160156" style="stroke: green; stroke-width: 0.200000"/>
   <line x1="833.089966" y1="1206.160156" x2="802.951721" y2="1206.160156" style="stroke: green; stroke-width: 0.200000"/>
   <line x1="832.612671" y1="1205.160156" x2="803.325317" y2="1205.160156" style="stroke: green; stroke-width: 0.200000"/>
   <line x1="832.135376" y1="1204.160156" x2="803.895935" y2="1204.160156" style="stroke: green; stroke-width: 0.200000"/>
   <line x1="831.575378" y1="1203.160156" x2="804.466309" y2="1203.160156" style="stroke: green; stroke-width: 0.200000"/>
   <line x1="830.991089" y1="1202.160156" x2="805.036682" y2="1202.160156" style="stroke: green; stroke-width: 0.200000"/>
   <line x1="830.433228" y1="1201.160156" x2="805.606995" y2="1201.160156" style="stroke: green; stroke-width: 0.200000"/>
   <line x1="829.875244" y1="1200.160156" x2="806.141113" y2="1200.160156" style="stroke: green; stroke-width: 0.200000"/>
   <line x1="829.317383" y1="1199.160156" x2="806.585388" y2="1199.160156" style="stroke: green; stroke-width: 0.200000"/>
   <line x1="828.759521" y1="1198.160156" x2="807.029663" y2="1198.160156" style="stroke: green; stroke-width: 0.200000"/>
   <line x1="828.201599" y1="1197.160156" x2="807.473877" y2="1197.160156" style="stroke: green; stroke-width: 0.200000"/>
   <line x1="827.643738" y1="1196.160156" x2="807.918152" y2="1196.160156" style="stroke: green; stroke-width: 0.200000"/>
   <line x1="827.085815" y1="1195.160156" x2="808.362366" y2="1195.160156" style="stroke: green; stroke-width: 0.200000"/>
   <line x1="826.209045" y1="1194.160156" x2="808.806702" y2="1194.160156" style="stroke: green; stroke-width: 0.200000"/>
   <line x1="824.718079" y1="1193.160156" x2="809.321045" y2="1193.160156" style="stroke: green; stroke-width: 0.200000"/>
   <line x1="823.698608" y1="1192.160156" x2="810.850159" y2="1192.160156" style="stroke: green; stroke-width: 0.200000"/>
   <line x1="822.760071" y1="1191.160156" x2="812.044189" y2="1191.160156" style="stroke: green; stroke-width: 0.200000"/>
   <line x1="821.821533" y1="1190.160156" x2="813.236206" y2="1190.160156" style="stroke: green; stroke-width: 0.200000"/>
   <line x1="820.895630" y1="1189.160156" x2="814.414612" y2="1189.160156" style="stroke: green; stroke-width: 0.200000"/>
   <line x1="820.102600" y1="1188.160156" x2="815.364685" y2="1188.160156" style="stroke: green; stroke-width: 0.200000"/>
   <line x1="819.309631" y1="1187.160156" x2="816.314697" y2="1187.160156" style="stroke: green; stroke-width: 0.200000"/>
   <line x1="847.572998" y1="1286.160156" x2="811.957764" y2="1286.160156" style="stroke: green; stroke-width: 0.200000"/>
   <line x1="847.572998" y1="1285.160156" x2="811.769653" y2="1285.160156" style="stroke: green; stroke-width: 0.200000"/>
   <line x1="847.572998" y1="1284.160156" x2="811.581543" y2="1284.160156" style="stroke: green; stroke-width: 0.200000"/>
   <line x1="847.572998" y1="1283.160278" x2="811.393494" y2="1283.160278" style="stroke: green; stroke-width: 0.200000"/>
   <line x1="847.572998" y1="1282.160156" x2="811.205383" y2="1282.160156" style="stroke: green; stroke-width: 0.200000"/>
   <line x1="847.572998" y1="1281.160156" x2="811.017334" y2="1281.160156" style="stroke: green; stroke-width: 0.200000"/>
   <line x1="847.572998" y1="1280.160156" x2="810.829224" y2="1280.160156" style="stroke: green; stroke-width: 0.200000"/>
   <line x1="847.572998" y1="1279.160156" x2="810.641113" y2="1279.160156" style="stroke: green; stroke-width: 0.200000"/>
   <line x1="847.572998" y1="1278.160156" x2="810.420288" y2="1278.160156" style="stroke: green; stroke-width: 0.200000"/>
   <line x1="847.572998" y1="1277.160156" x2="810.157349" y2="1277.160156" style="stroke: green; stroke-width: 0.200000"/>
   <line x1="847.572998" y1="1276.160156" x2="809.894348" y2="1276.160156" style="stroke: green; stroke-width: 0.200000"/>
   <line x1="847.572998" y1="1275.160156" x2="809.631348" y2="1275.160156" style="stroke: green; stroke-width: 0.200000"/>
   <line x1="847.572998" y1="1274.160156" x2="809.368347" y2="1274.160156" style="stroke: green; stroke-width: 0.200000"/>
   <line x1="847.572998" y1="1273.160156" x2="809.128723" y2="1273.160156" style="stroke: green; stroke-width: 0.200000"/>
   <line x1="847.572998" y1="1272.160156" x2="808.913025" y2="1272.160156" style="stroke: green; stroke-width: 0.200000"/>
   <line x1="847.572998" y1="1271.160156" x2="808.697266" y2="1271.160156" style="stroke: green; stroke-width: 0.200000"/>
   <line x1="847.572998" y1="1270.160156" x2="808.481506" y2="1270.160156" style="stroke: green; stroke-width: 0.200000"/>
   <line x1="847.572998" y1="1269.160156" x2="808.190857" y2="1269.160156" style="stroke: green; stroke-width: 0.200000"/>
   <line x1="847.572998" y1="1268.160156" x2="807.891296" y2="1268.160156" style="stroke: green; stroke-width: 0.200000"/>
   <line x1="847.572998" y1="1267.160156" x2="807.591797" y2="1267.160156" style="stroke: green; stroke-width: 0.200000"/>
   <line x1="847.572998" y1="1266.160156" x2="807.292236" y2="1266.160156" style="stroke: green; stroke-width: 0.200000"/>
   <line x1="847.572998" y1="1265.160156" x2="806.992737" y2="1265.160156" style="stroke: green; stroke-width: 0.200000"/>
   <line x1="847.572998" y1="1264.160156" x2="806.693054" y2="1264.160156" style="stroke: green; stroke-width: 0.200000"/>
   <line x1="847.572998" y1="1263.160156" x2="806.393494" y2="1263.160156" style="stroke: green; stroke-width: 0.200000"/>
   <line x1="847.572998" y1="1262.160156" x2="806.093994" y2="1262.160156" style="stroke: green; stroke-width: 0.200000"/>
   <line x1="847.572998" y1="1261.160156" x2="805.808960" y2="1261.160156" style="stroke: green; stroke-width: 0.200000"/>
   <line x1="847.572998" y1="1260.160156" x2="805.482666" y2="1260.160156" style="stroke: green; stroke-width: 0.200000"/>
   <line x1="847.572998" y1="1259.160156" x2="804.956055" y2="1259.160156" style="stroke: green; stroke-width: 0.200000"/>
   <line x1="847.572998" y1="1258.160156" x2="804.429565" y2="1258.160156" style="stroke: green; stroke-width: 0.200000"/>
   <line x1="847.572998" y1="1257.160156" x2="803.902954" y2="1257.160156" style="stroke: green; stroke-width: 0.200000"/>
   <line x1="847.572998" y1="1256.160156" x2="803.376526" y2="1256.160156" style="stroke: green; stroke-width: 0.200000"/>
   <line x1="847.572998" y1="1255.160156" x2="802.850037" y2="1255.160156" style="stroke: green; stroke-width: 0.200000"/>
   <line x1="847.572998" y1="1254.160156" x2="802.323547" y2="1254.160156" style="stroke: green; stroke-width: 0.200000"/>
   <line x1="847.572998" y1="1253.160156" x2="801.796936" y2="1253.160156" style="stroke: green; stroke-width: 0.200000"/>
   <line x1="847.572998" y1="1252.160156" x2="801.417603" y2="1252.160156" style="stroke: green; stroke-width: 0.200000"/>
   <line x1="847.422363" y1="1251.160156" x2="801.095642" y2="1251.160156" style="stroke: green; stroke-width: 0.200000"/>
   <line x1="847.209534" y1="1250.160156" x2="800.773804" y2="1250.160156" style="stroke: green; stroke-width: 0.200000"/>
   <line x1="846.996826" y1="1249.160156" x2="800.451904" y2="1249.160156" style="stroke: green; stroke-width: 0.200000"/>
   <line x1="846.784058" y1="1248.160156" x2="800.129944" y2="1248.160156" style="stroke: green; stroke-width: 0.200000"/>
   <line x1="846.583496" y1="1247.160156" x2="799.724182" y2="1247.160156" style="stroke: green; stroke-width: 0.200000"/>
   <line x1="846.409790" y1="1246.160156" x2="799.306702" y2="1246.160156" style="stroke: green; stroke-width: 0.200000"/>
   <line x1="846.235962" y1="1245.160156" x2="798.889221" y2="1245.160156" style="stroke: green; stroke-width: 0.200000"/>
   <line x1="846.062256" y1="1244.160156" x2="798.471680" y2="1244.160156" style="stroke: green; stroke-width: 0.200000"/>
   <line x1="845.888550" y1="1243.160156" x2="798.388184" y2="1243.160156" style="stroke: green; stroke-width: 0.200000"/>
   <line x1="845.691650" y1="1242.160156" x2="798.307434" y2="1242.160156" style="stroke: green; stroke-width: 0.200000"/>
   <line x1="845.491882" y1="1241.160156" x2="798.226562" y2="1241.160156" style="stroke: green; stroke-width: 0.200000"/>
   <line x1="845.291992" y1="1240.160156" x2="798.145874" y2="1240.160156" style="stroke: green; stroke-width: 0.200000"/>
   <line x1="845.092102" y1="1239.160156" x2="798.065125" y2="1239.160156" style="stroke: green; stroke-width: 0.200000"/>
   <line x1="844.892212" y1="1238.160156" x2="797.984375" y2="1238.160156" style="stroke: green; stroke-width: 0.200000"/>
   <line x1="844.633667" y1="1237.160156" x2="797.903809" y2="1237.160156" style="stroke: green; stroke-width: 0.200000"/>
   <line x1="847.756409" y1="1286.160156" x2="847.673035" y2="1286.160156" style="stroke: green; stroke-width: 0.200000"/>
   <line x1="847.825439" y1="1285.160156" x2="847.673035" y2="1285.160156" style="stroke: green; stroke-width: 0.200000"/>
   <line x1="847.894592" y1="1284.160156" x2="847.673035" y2="1284.160156" style="stroke: green; stroke-width: 0.200000"/>
   <line x1="847.957031" y1="1283.160278" x2="847.673035" y2="1283.160278" style="stroke: green; stroke-width: 0.200000"/>
   <line x1="848.008545" y1="1282.160156" x2="847.673035" y2="1282.160156" style="stroke: green; stroke-width: 0.200000"/>
   <line x1="848.060242" y1="1281.160156" x2="847.673035" y2="1281.160156" style="stroke: green; stroke-width: 0.200000"/>
   <line x1="848.111877" y1="1280.160156" x2="847.673035" y2="1280.160156" style="stroke: green; stroke-width: 0.200000"/>
   <line x1="848.163452" y1="1279.160156" x2="847.673035" y2="1279.160156" style="stroke: green; stroke-width: 0.200000"/>
   <line x1="848.215027" y1="1278.160156" x2="847.673035" y2="1278.160156" style="stroke: green; stroke-width: 0.200000"/>
   <line x1="848.266602" y1="1277.160156" x2="847.673035" y2="1277.160156" style="stroke: green; stroke-width: 0.200000"/>
   <line x1="848.318176" y1="1276.160156" x2="847.673035" y2="1276.160156" style="stroke: green; stroke-width: 0.200000"/>
   <line x1="848.369751" y1="1275.160156" x2="847.673035" y2="1275.160156" style="stroke: green; stroke-width: 0.200000"/>
   <line x1="848.421387" y1="1274.160156" x2="847.673035" y2="1274.160156" style="stroke: green; stroke-width: 0.200000"/>
   <line x1="848.472778" y1="1273.160156" x2="847.673035" y2="1273.160156" style="stroke: green; stroke-width: 0.200000"/>
   <line x1="848.502808" y1="1272.160156" x2="847.673035" y2="1272.160156" style="stroke: green; stroke-width: 0.200000"/>
   <line x1="848.464844" y1="1271.160156" x2="847.673035" y2="1271.160156" style="stroke: green; stroke-width: 0.200000"/>
   <line x1="848.426819" y1="1270.160156" x2="847.673035" y2="1270.160156" style="stroke: green; stroke-width: 0.200000"/>
   <line x1="848.388977" y1="1269.160156" x2="847.673035" y2="1269.160156" style="stroke: green; stroke-width: 0.200000"/>
   <line x1="848.351074" y1="1268.160156" x2="847.673035" y2="1268.160156" style="stroke: green; stroke-width: 0.200000"/>
   <line x1="848.313049" y1="1267.160156" x2="847.673035" y2="1267.160156" style="stroke: green; stroke-width: 0.200000"/>
   <line x1="848.274902" y1="1266.160156" x2="847.673035" y2="1266.160156" style="stroke: green; stroke-width: 0.200000"/>
   <line x1="848.236938" y1="1265.160156" x2="847.673035" y2="1265.160156" style="stroke: green; stroke-width: 0.200000"/>
   <line x1="848.198914" y1="1264.160156" x2="847.673035" y2="1264.160156" style="stroke: green; stroke-width: 0.200000"/>
   <line x1="848.160950" y1="1263.160156" x2="847.673035" y2="1263.160156" style="stroke: green; stroke-width: 0.200000"/>
   <line x1="848.122925" y1="1262.160156" x2="847.673035" y2="1262.160156" style="stroke: green; stroke-width: 0.200000"/>
   <line x1="848.076111" y1="1261.160156" x2="847.673035" y2="1261.160156" style="stroke: green; stroke-width: 0.200000"/>
   <line x1="848.019043" y1="1260.160156" x2="847.673035" y2="1260.160156" style="stroke: green; stroke-width: 0.200000"/>
   <line x1="847.961914" y1="1259.160156" x2="847.673035" y2="1259.160156" style="stroke: green; stroke-width: 0.200000"/>
   <line x1="847.904785" y1="1258.160156" x2="847.673035" y2="1258.160156" style="stroke: green; stroke-width: 0.200000"/>
   <line x1="847.847778" y1="1257.160156" x2="847.673035" y2="1257.160156" style="stroke: green; stroke-width: 0.200000"/>
   <line x1="847.792236" y1="1256.160156" x2="847.673035" y2="1256.160156" style="stroke: green; stroke-width: 0.200000"/>
   <line x1="847.741760" y1="1255.160156" x2="847.673035" y2="1255.160156" style="stroke: green; stroke-width: 0.200000"/>
   <line x1="847.691284" y1="1254.160156" x2="847.673035" y2="1254.160156" style="stroke: green; stroke-width: 0.200000"/>
   <line x1="840.876770" y1="1336.160156" x2="821.977600" y2="1336.160156" style="stroke: green; stroke-width: 0.200000"/>
   <line x1="840.991699" y1="1335.160156" x2="821.697754" y2="1335.160156" style="stroke: green; stroke-width: 0.200000"/>
   <line x1="841.106506" y1="1334.160156" x2="821.418091" y2="1334.160156" style="stroke: green; stroke-width: 0.200000"/>
   <line x1="841.215881" y1="1333.160278" x2="821.138245" y2="1333.160278" style="stroke: green; stroke-width: 0.200000"/>
   <line x1="841.320740" y1="1332.160156" x2="820.858276" y2="1332.160156" style="stroke: green; stroke-width: 0.200000"/>
   <line x1="841.425476" y1="1331.160156" x2="820.578491" y2="1331.160156" style="stroke: green; stroke-width: 0.200000"/>
   <line x1="841.550354" y1="1330.160156" x2="820.320984" y2="1330.160156" style="stroke: green; stroke-width: 0.200000"/>
   <line x1="841.686462" y1="1329.160156" x2="820.108948" y2="1329.160156" style="stroke: green; stroke-width: 0.200000"/>
   <line x1="841.822632" y1="1328.160278" x2="819.897217" y2="1328.160278" style="stroke: green; stroke-width: 0.200000"/>
   <line x1="841.958862" y1="1327.160156" x2="819.685303" y2="1327.160156" style="stroke: green; stroke-width: 0.200000"/>
   <line x1="842.095032" y1="1326.160156" x2="819.454834" y2="1326.160156" style="stroke: green; stroke-width: 0.200000"/>
   <line x1="842.231201" y1="1325.160156" x2="819.223633" y2="1325.160156" style="stroke: green; stroke-width: 0.200000"/>
   <line x1="842.356567" y1="1324.160156" x2="818.992554" y2="1324.160156" style="stroke: green; stroke-width: 0.200000"/>
   <line x1="842.462402" y1="1323.160278" x2="818.761536" y2="1323.160278" style="stroke: green; stroke-width: 0.200000"/>
   <line x1="842.568115" y1="1322.160156" x2="818.530396" y2="1322.160156" style="stroke: green; stroke-width: 0.200000"/>
   <line x1="842.673889" y1="1321.160156" x2="818.299683" y2="1321.160156" style="stroke: green; stroke-width: 0.200000"/>
   <line x1="842.779663" y1="1320.160156" x2="818.087158" y2="1320.160156" style="stroke: green; stroke-width: 0.200000"/>
   <line x1="842.966858" y1="1319.160156" x2="817.875305" y2="1319.160156" style="stroke: green; stroke-width: 0.200000"/>
   <line x1="843.176819" y1="1318.160278" x2="817.663330" y2="1318.160278" style="stroke: green; stroke-width: 0.200000"/>
   <line x1="843.386841" y1="1317.160156" x2="817.452026" y2="1317.160156" style="stroke: green; stroke-width: 0.200000"/>
   <line x1="843.596802" y1="1316.160156" x2="817.244751" y2="1316.160156" style="stroke: green; stroke-width: 0.200000"/>
   <line x1="843.806824" y1="1315.160156" x2="817.037415" y2="1315.160156" style="stroke: green; stroke-width: 0.200000"/>
   <line x1="844.016785" y1="1314.160156" x2="816.830078" y2="1314.160156" style="stroke: green; stroke-width: 0.200000"/>
   <line x1="844.226807" y1="1313.160278" x2="816.622803" y2="1313.160278" style="stroke: green; stroke-width: 0.200000"/>
   <line x1="844.436768" y1="1312.160156" x2="816.415466" y2="1312.160156" style="stroke: green; stroke-width: 0.200000"/>
   <line x1="844.646851" y1="1311.160156" x2="816.208191" y2="1311.160156" style="stroke: green; stroke-width: 0.200000"/>
   <line x1="844.799133" y1="1310.160156" x2="816.015747" y2="1310.160156" style="stroke: green; stroke-width: 0.200000"/>
   <line x1="844.901489" y1="1309.160156" x2="815.863953" y2="1309.160156" style="stroke: green; stroke-width: 0.200000"/>
   <line x1="845.003906" y1="1308.160278" x2="815.712219" y2="1308.160278" style="stroke: green; stroke-width: 0.200000"/>
   <line x1="845.139893" y1="1307.160156" x2="815.550537" y2="1307.160156" style="stroke: green; stroke-width: 0.200000"/>
   <line x1="845.284363" y1="1306.160156" x2="815.379883" y2="1306.160156" style="stroke: green; stroke-width: 0.200000"/>
   <line x1="845.428772" y1="1305.160156" x2="815.209290" y2="1305.160156" style="stroke: green; stroke-width: 0.200000"/>
   <line x1="845.573120" y1="1304.160156" x2="815.038574" y2="1304.160156" style="stroke: green; stroke-width: 0.200000"/>
   <line x1="845.709839" y1="1303.160278" x2="814.868042" y2="1303.160278" style="stroke: green; stroke-width: 0.200000"/>
   <line x1="845.843506" y1="1302.160156" x2="814.697327" y2="1302.160156" style="stroke: green; stroke-width: 0.200000"/>
   <line x1="845.977112" y1="1301.160156" x2="814.526733" y2="1301.160156" style="stroke: green; stroke-width: 0.200000"/>
   <line x1="846.110779" y1="1300.160156" x2="814.356140" y2="1300.160156" style="stroke: green; stroke-width: 0.200000"/>
   <line x1="846.244446" y1="1299.160156" x2="814.185486" y2="1299.160156" style="stroke: green; stroke-width: 0.200000"/>
   <line x1="846.378052" y1="1298.160278" x2="814.014893" y2="1298.160278" style="stroke: green; stroke-width: 0.200000"/>
   <line x1="846.511719" y1="1297.160156" x2="813.848145" y2="1297.160156" style="stroke: green; stroke-width: 0.200000"/>
   <line x1="846.645386" y1="1296.160156" x2="813.697449" y2="1296.160156" style="stroke: green; stroke-width: 0.200000"/>
   <line x1="846.778931" y1="1295.160156" x2="813.546814" y2="1295.160156" style="stroke: green; stroke-width: 0.200000"/>
   <line x1="846.912598" y1="1294.160156" x2="813.396118" y2="1294.160156" style="stroke: green; stroke-width: 0.200000"/>
   <line x1="847.046204" y1="1293.160278" x2="813.245544" y2="1293.160278" style="stroke: green; stroke-width: 0.200000"/>
   <line x1="847.179871" y1="1292.160156" x2="813.094849" y2="1292.160156" style="stroke: green; stroke-width: 0.200000"/>
   <line x1="847.313538" y1="1291.160156" x2="812.926025" y2="1291.160156" style="stroke: green; stroke-width: 0.200000"/>
   <line x1="847.438049" y1="1290.160156" x2="812.736694" y2="1290.160156" style="stroke: green; stroke-width: 0.200000"/>
   <line x1="847.520264" y1="1289.160156" x2="812.547241" y2="1289.160156" style="stroke: green; stroke-width: 0.200000"/>
   <line x1="847.572998" y1="1288.160278" x2="812.357849" y2="1288.160278" style="stroke: green; stroke-width: 0.200000"/>
   <line x1="847.572998" y1="1287.160156" x2="812.155090" y2="1287.160156" style="stroke: green; stroke-width: 0.200000"/>
   <line x1="847.684937" y1="1287.160156" x2="847.673035" y2="1287.160156" style="stroke: green; stroke-width: 0.200000"/>
   <line x1="839.879761" y1="1345.160156" x2="837.728760" y2="1345.160156" style="stroke: green; stroke-width: 0.200000"/>
   <line x1="839.980469" y1="1344.160156" x2="832.715942" y2="1344.160156" style="stroke: green; stroke-width: 0.200000"/>
   <line x1="840.081177" y1="1343.160278" x2="827.552612" y2="1343.160278" style="stroke: green; stroke-width: 0.200000"/>
   <line x1="840.187683" y1="1342.160156" x2="823.800110" y2="1342.160156" style="stroke: green; stroke-width: 0.200000"/>
   <line x1="840.302612" y1="1341.160156" x2="823.418945" y2="1341.160156" style="stroke: green; stroke-width: 0.200000"/>
   <line x1="840.417419" y1="1340.160156" x2="823.081604" y2="1340.160156" style="stroke: green; stroke-width: 0.200000"/>
   <line x1="840.532227" y1="1339.160156" x2="822.790527" y2="1339.160156" style="stroke: green; stroke-width: 0.200000"/>
   <line x1="840.647095" y1="1338.160278" x2="822.524780" y2="1338.160278" style="stroke: green; stroke-width: 0.200000"/>
   <line x1="840.761963" y1="1337.160156" x2="822.257446" y2="1337.160156" style="stroke: green; stroke-width: 0.200000"/>
   <line x1="912.442627" y1="1195.667725" x2="889.982666" y2="1195.667725" style="stroke: green; stroke-width: 0.200000"/>
   <line x1="912.442627" y1="1194.667725" x2="888.568726" y2="1194.667725" style="stroke: green; stroke-width: 0.200000"/>
   <line x1="912.442627" y1="1193.667725" x2="887.154663" y2="1193.667725" style="stroke: green; stroke-width: 0.200000"/>
   <line x1="912.442627" y1="1192.667725" x2="885.754639" y2="1192.667725" style="stroke: green; stroke-width: 0.200000"/>
   <line x1="912.442627" y1="1191.667725" x2="884.698364" y2="1191.667725" style="stroke: green; stroke-width: 0.200000"/>
   <line x1="912.442627" y1="1190.667725" x2="883.543213" y2="1190.667725" style="stroke: green; stroke-width: 0.200000"/>
   <line x1="912.442627" y1="1189.667725" x2="882.308594" y2="1189.667725" style="stroke: green; stroke-width: 0.200000"/>
   <line x1="912.442627" y1="1188.667725" x2="881.073975" y2="1188.667725" style="stroke: green; stroke-width: 0.200000"/>
   <line x1="912.442627" y1="1187.667725" x2="879.839355" y2="1187.667725" style="stroke: green; stroke-width: 0.200000"/>
   <line x1="912.442627" y1="1186.667725" x2="878.604614" y2="1186.667725" style="stroke: green; stroke-width: 0.200000"/>
   <line x1="912.442627" y1="1185.667725" x2="877.434692" y2="1185.667725" style="stroke: green; stroke-width: 0.200000"/>
   <line x1="912.442627" y1="1184.667725" x2="876.450134" y2="1184.667725" style="stroke: green; stroke-width: 0.200000"/>
   <line x1="912.442627" y1="1183.667725" x2="875.465637" y2="1183.667725" style="stroke: green; stroke-width: 0.200000"/>
   <line x1="912.442627" y1="1182.667725" x2="874.416260" y2="1182.667725" style="stroke: green; stroke-width: 0.200000"/>
   <line x1="912.442627" y1="1181.667725" x2="873.317322" y2="1181.667725" style="stroke: green; stroke-width: 0.200000"/>
   <line x1="912.442627" y1="1180.667725" x2="872.218506" y2="1180.667725" style="stroke: green; stroke-width: 0.200000"/>
   <line x1="912.442627" y1="1179.667725" x2="871.119446" y2="1179.667725" style="stroke: green; stroke-width: 0.200000"/>
   <line x1="912.442627" y1="1178.667725" x2="870.406433" y2="1178.667725" style="stroke: green; stroke-width: 0.200000"/>
   <line x1="912.442627" y1="1177.667725" x2="869.707642" y2="1177.667725" style="stroke: green; stroke-width: 0.200000"/>
   <line x1="912.442627" y1="1176.667725" x2="869.008850" y2="1176.667725" style="stroke: green; stroke-width: 0.200000"/>
   <line x1="912.442627" y1="1175.667725" x2="868.267944" y2="1175.667725" style="stroke: green; stroke-width: 0.200000"/>
   <line x1="912.442627" y1="1174.667725" x2="867.506165" y2="1174.667725" style="stroke: green; stroke-width: 0.200000"/>
   <line x1="912.442627" y1="1173.667725" x2="866.744324" y2="1173.667725" style="stroke: green; stroke-width: 0.200000"/>
   <line x1="912.442627" y1="1172.667725" x2="865.982422" y2="1172.667725" style="stroke: green; stroke-width: 0.200000"/>
   <line x1="912.442627" y1="1171.667725" x2="865.220642" y2="1171.667725" style="stroke: green; stroke-width: 0.200000"/>
   <line x1="912.442627" y1="1170.667725" x2="864.708740" y2="1170.667725" style="stroke: green; stroke-width: 0.200000"/>
   <line x1="912.442627" y1="1169.667725" x2="864.420410" y2="1169.667725" style="stroke: green; stroke-width: 0.200000"/>
   <line x1="912.442627" y1="1168.667725" x2="864.132141" y2="1168.667725" style="stroke: green; stroke-width: 0.200000"/>
   <line x1="912.442627" y1="1167.667725" x2="863.879883" y2="1167.667725" style="stroke: green; stroke-width: 0.200000"/>
   <line x1="912.442627" y1="1166.667725" x2="863.651123" y2="1166.667725" style="stroke: green; stroke-width: 0.200000"/>
   <line x1="912.442627" y1="1165.667725" x2="863.422302" y2="1165.667725" style="stroke: green; stroke-width: 0.200000"/>
   <line x1="912.442627" y1="1164.667725" x2="863.193604" y2="1164.667725" style="stroke: green; stroke-width: 0.200000"/>
   <line x1="912.442627" y1="1163.667725" x2="862.964783" y2="1163.667725" style="stroke: green; stroke-width: 0.200000"/>
   <line x1="912.442627" y1="1162.667725" x2="862.736084" y2="1162.667725" style="stroke: green; stroke-width: 0.200000"/>
   <line x1="912.442627" y1="1161.667725" x2="862.507263" y2="1161.667725" style="stroke: green; stroke-width: 0.200000"/>
   <line x1="912.442627" y1="1160.667725" x2="862.691650" y2="1160.667725" style="stroke: green; stroke-width: 0.200000"/>
   <line x1="912.288696" y1="1159.667725" x2="863.038879" y2="1159.667725" style="stroke: green; stroke-width: 0.200000"/>
   <line x1="910.413879" y1="1158.667725" x2="863.386108" y2="1158.667725" style="stroke: green; stroke-width: 0.200000"/>
   <line x1="908.539124" y1="1157.667725" x2="863.733276" y2="1157.667725" style="stroke: green; stroke-width: 0.200000"/>
   <line x1="906.664368" y1="1156.667725" x2="864.080505" y2="1156.667725" style="stroke: green; stroke-width: 0.200000"/>
   <line x1="905.123535" y1="1155.667725" x2="864.427795" y2="1155.667725" style="stroke: green; stroke-width: 0.200000"/>
   <line x1="903.644165" y1="1154.667725" x2="864.775024" y2="1154.667725" style="stroke: green; stroke-width: 0.200000"/>
   <line x1="902.164856" y1="1153.667725" x2="865.122192" y2="1153.667725" style="stroke: green; stroke-width: 0.200000"/>
   <line x1="900.655823" y1="1152.667725" x2="866.064392" y2="1152.667725" style="stroke: green; stroke-width: 0.200000"/>
   <line x1="899.137329" y1="1151.667725" x2="867.103638" y2="1151.667725" style="stroke: green; stroke-width: 0.200000"/>
   <line x1="897.618713" y1="1150.667725" x2="868.150940" y2="1150.667725" style="stroke: green; stroke-width: 0.200000"/>
   <line x1="894.971619" y1="1149.667725" x2="869.432983" y2="1149.667725" style="stroke: green; stroke-width: 0.200000"/>
   <line x1="891.958984" y1="1148.667725" x2="870.715027" y2="1148.667725" style="stroke: green; stroke-width: 0.200000"/>
   <line x1="889.198486" y1="1147.667725" x2="872.360474" y2="1147.667725" style="stroke: green; stroke-width: 0.200000"/>
   <line x1="886.598877" y1="1146.667725" x2="876.535522" y2="1146.667725" style="stroke: green; stroke-width: 0.200000"/>
   <line x1="962.542603" y1="1195.667725" x2="912.542603" y2="1195.667725" style="stroke: green; stroke-width: 0.200000"/>
   <line x1="962.542603" y1="1194.667725" x2="912.542603" y2="1194.667725" style="stroke: green; stroke-width: 0.200000"/>
   <line x1="962.542603" y1="1193.667725" x2="912.542603" y2="1193.667725" style="stroke: green; stroke-width: 0.200000"/>
   <line x1="962.511292" y1="1192.667725" x2="912.542603" y2="1192.667725" style="stroke: green; stroke-width: 0.200000"/>
   <line x1="962.542603" y1="1191.667725" x2="912.542603" y2="1191.667725" style="stroke: green; stroke-width: 0.200000"/>
   <line x1="962.542603" y1="1190.667725" x2="912.542603" y2="1190.667725" style="stroke: green; stroke-width: 0.200000"/>
   <line x1="962.542603" y1="1189.667725" x2="912.542603" y2="1189.667725" style="stroke: green; stroke-width: 0.200000"/>
   <line x1="962.542603" y1="1188.667725" x2="912.542603" y2="1188.667725" style="stroke: green; stroke-width: 0.200000"/>
   <line x1="962.542603" y1="1187.667725" x2="912.542603" y2="1187.667725" style="stroke: green; stroke-width: 0.200000"/>
   <line x1="962.542603" y1="1186.667725" x2="912.542603" y2="1186.667725" style="stroke: green; stroke-width: 0.200000"/>
   <line x1="962.542603" y1="1185.667725" x2="912.542603" y2="1185.667725" style="stroke: green; stroke-width: 0.200000"/>
   <line x1="962.542603" y1="1184.667725" x2="912.542603" y2="1184.667725" style="stroke: green; stroke-width: 0.200000"/>
   <line x1="962.542603" y1="1183.667725" x2="912.542603" y2="1183.667725" style="stroke: green; stroke-width: 0.200000"/>
   <line x1="962.542603" y1="1182.667725" x2="912.542603" y2="1182.667725" style="stroke: green; stroke-width: 0.200000"/>
   <line x1="961.176819" y1="1181.667725" x2="912.542603" y2="1181.667725" style="stroke: green; stroke-width: 0.200000"/>
   <line x1="959.773071" y1="1180.667725" x2="912.542603" y2="1180.667725" style="stroke: green; stroke-width: 0.200000"/>
   <line x1="958.362915" y1="1179.667725" x2="912.542603" y2="1179.667725" style="stroke: green; stroke-width: 0.200000"/>
   <line x1="957.033020" y1="1178.667725" x2="912.542603" y2="1178.667725" style="stroke: green; stroke-width: 0.200000"/>
   <line x1="955.717834" y1="1177.667725" x2="912.542603" y2="1177.667725" style="stroke: green; stroke-width: 0.200000"/>
   <line x1="953.304688" y1="1176.667725" x2="912.542603" y2="1176.667725" style="stroke: green; stroke-width: 0.200000"/>
   <line x1="950.647034" y1="1175.667725" x2="912.542603" y2="1175.667725" style="stroke: green; stroke-width: 0.200000"/>
   <line x1="948.827271" y1="1174.667725" x2="912.542603" y2="1174.667725" style="stroke: green; stroke-width: 0.200000"/>
   <line x1="947.240356" y1="1173.667725" x2="912.542603" y2="1173.667725" style="stroke: green; stroke-width: 0.200000"/>
   <line x1="945.611267" y1="1172.667725" x2="912.542603" y2="1172.667725" style="stroke: green; stroke-width: 0.200000"/>
   <line x1="943.933777" y1="1171.667725" x2="912.542603" y2="1171.667725" style="stroke: green; stroke-width: 0.200000"/>
   <line x1="942.256226" y1="1170.667725" x2="912.542603" y2="1170.667725" style="stroke: green; stroke-width: 0.200000"/>
   <line x1="940.688354" y1="1169.667725" x2="912.542603" y2="1169.667725" style="stroke: green; stroke-width: 0.200000"/>
   <line x1="939.164551" y1="1168.667725" x2="912.542603" y2="1168.667725" style="stroke: green; stroke-width: 0.200000"/>
   <line x1="937.640747" y1="1167.667725" x2="912.542603" y2="1167.667725" style="stroke: green; stroke-width: 0.200000"/>
   <line x1="936.117004" y1="1166.667725" x2="912.542603" y2="1166.667725" style="stroke: green; stroke-width: 0.200000"/>
   <line x1="934.586121" y1="1165.667725" x2="912.542603" y2="1165.667725" style="stroke: green; stroke-width: 0.200000"/>
   <line x1="931.054382" y1="1164.667725" x2="912.542603" y2="1164.667725" style="stroke: green; stroke-width: 0.200000"/>
   <line x1="923.682007" y1="1163.667725" x2="912.542603" y2="1163.667725" style="stroke: green; stroke-width: 0.200000"/>
   <line x1="918.435181" y1="1162.667725" x2="912.542603" y2="1162.667725" style="stroke: green; stroke-width: 0.200000"/>
   <line x1="915.618652" y1="1161.667725" x2="912.542603" y2="1161.667725" style="stroke: green; stroke-width: 0.200000"/>
   <line x1="914.095947" y1="1160.667725" x2="912.542603" y2="1160.667725" style="stroke: green; stroke-width: 0.200000"/>
   <line x1="964.518066" y1="1195.667725" x2="962.642578" y2="1195.667725" style="stroke: green; stroke-width: 0.200000"/>
   <line x1="963.849243" y1="1194.667725" x2="962.642578" y2="1194.667725" style="stroke: green; stroke-width: 0.200000"/>
   <line x1="963.180237" y1="1193.667725" x2="962.642578" y2="1193.667725" style="stroke: green; stroke-width: 0.200000"/>
   <line x1="962.969727" y1="1191.667725" x2="962.642578" y2="1191.667725" style="stroke: green; stroke-width: 0.200000"/>
   <line x1="964.310852" y1="1190.667725" x2="962.642578" y2="1190.667725" style="stroke: green; stroke-width: 0.200000"/>
   <line x1="965.652588" y1="1189.667725" x2="962.642578" y2="1189.667725" style="stroke: green; stroke-width: 0.200000"/>
   <line x1="966.994385" y1="1188.667725" x2="962.642578" y2="1188.667725" style="stroke: green; stroke-width: 0.200000"/>
   <line x1="968.336182" y1="1187.667725" x2="962.642578" y2="1187.667725" style="stroke: green; stroke-width: 0.200000"/>
   <line x1="967.947693" y1="1186.667725" x2="962.642578" y2="1186.667725" style="stroke: green; stroke-width: 0.200000"/>
   <line x1="966.664368" y1="1185.667725" x2="962.642578" y2="1185.667725" style="stroke: green; stroke-width: 0.200000"/>
   <line x1="965.352051" y1="1184.667725" x2="962.642578" y2="1184.667725" style="stroke: green; stroke-width: 0.200000"/>
   <line x1="963.960266" y1="1183.667725" x2="962.642578" y2="1183.667725" style="stroke: green; stroke-width: 0.200000"/>
   <line x1="912.442627" y1="1207.667725" x2="912.242981" y2="1207.667725" style="stroke: green; stroke-width: 0.200000"/>
   <line x1="912.442627" y1="1206.667725" x2="910.074341" y2="1206.667725" style="stroke: green; stroke-width: 0.200000"/>
   <line x1="912.442627" y1="1205.667725" x2="908.049805" y2="1205.667725" style="stroke: green; stroke-width: 0.200000"/>
   <line x1="912.442627" y1="1204.667725" x2="906.025269" y2="1204.667725" style="stroke: green; stroke-width: 0.200000"/>
   <line x1="912.442627" y1="1203.667725" x2="904.228638" y2="1203.667725" style="stroke: green; stroke-width: 0.200000"/>
   <line x1="912.442627" y1="1202.667725" x2="902.485657" y2="1202.667725" style="stroke: green; stroke-width: 0.200000"/>
   <line x1="912.442627" y1="1201.667725" x2="900.338440" y2="1201.667725" style="stroke: green; stroke-width: 0.200000"/>
   <line x1="912.442627" y1="1200.667725" x2="898.191162" y2="1200.667725" style="stroke: green; stroke-width: 0.200000"/>
   <line x1="912.442627" y1="1199.667725" x2="896.043945" y2="1199.667725" style="stroke: green; stroke-width: 0.200000"/>
   <line x1="912.442627" y1="1198.667725" x2="894.126099" y2="1198.667725" style="stroke: green; stroke-width: 0.200000"/>
   <line x1="912.442627" y1="1197.667725" x2="892.810669" y2="1197.667725" style="stroke: green; stroke-width: 0.200000"/>
   <line x1="912.442627" y1="1196.667725" x2="891.396851" y2="1196.667725" style="stroke: green; stroke-width: 0.200000"/>
   <line x1="946.783081" y1="1214.667725" x2="940.464966" y2="1214.667725" style="stroke: green; stroke-width: 0.200000"/>
   <line x1="946.536621" y1="1213.667725" x2="932.706055" y2="1213.667725" style="stroke: green; stroke-width: 0.200000"/>
   <line x1="946.290161" y1="1212.667725" x2="927.597107" y2="1212.667725" style="stroke: green; stroke-width: 0.200000"/>
   <line x1="946.043701" y1="1211.667725" x2="923.844727" y2="1211.667725" style="stroke: green; stroke-width: 0.200000"/>
   <line x1="945.797180" y1="1210.667725" x2="920.882324" y2="1210.667725" style="stroke: green; stroke-width: 0.200000"/>
   <line x1="945.550781" y1="1209.667725" x2="917.919861" y2="1209.667725" style="stroke: green; stroke-width: 0.200000"/>
   <line x1="945.304260" y1="1208.667725" x2="914.764709" y2="1208.667725" style="stroke: green; stroke-width: 0.200000"/>
   <line x1="945.677551" y1="1207.667725" x2="912.542603" y2="1207.667725" style="stroke: green; stroke-width: 0.200000"/>
   <line x1="948.070740" y1="1206.667725" x2="912.542603" y2="1206.667725" style="stroke: green; stroke-width: 0.200000"/>
   <line x1="950.464417" y1="1205.667725" x2="912.542603" y2="1205.667725" style="stroke: green; stroke-width: 0.200000"/>
   <line x1="952.857910" y1="1204.667725" x2="912.542603" y2="1204.667725" style="stroke: green; stroke-width: 0.200000"/>
   <line x1="955.250977" y1="1203.667725" x2="912.542603" y2="1203.667725" style="stroke: green; stroke-width: 0.200000"/>
   <line x1="957.644104" y1="1202.667725" x2="912.542603" y2="1202.667725" style="stroke: green; stroke-width: 0.200000"/>
   <line x1="960.037598" y1="1201.667725" x2="912.542603" y2="1201.667725" style="stroke: green; stroke-width: 0.200000"/>
   <line x1="962.397156" y1="1200.667725" x2="912.542603" y2="1200.667725" style="stroke: green; stroke-width: 0.200000"/>
   <line x1="962.542603" y1="1199.667725" x2="912.542603" y2="1199.667725" style="stroke: green; stroke-width: 0.200000"/>
   <line x1="962.542603" y1="1198.667725" x2="912.542603" y2="1198.667725" style="stroke: green; stroke-width: 0.200000"/>
   <line x1="962.542603" y1="1197.667725" x2="912.542603" y2="1197.667725" style="stroke: green; stroke-width: 0.200000"/>
   <line x1="962.542603" y1="1196.667725" x2="912.542603" y2="1196.667725" style="stroke: green; stroke-width: 0.200000"/>
   <line x1="963.954163" y1="1199.667725" x2="962.642578" y2="1199.667725" style="stroke: green; stroke-width: 0.200000"/>
   <line x1="965.483521" y1="1198.667725" x2="962.642578" y2="1198.667725" style="stroke: green; stroke-width: 0.200000"/>
   <line x1="965.855835" y1="1197.667725" x2="962.642578" y2="1197.667725" style="stroke: green; stroke-width: 0.200000"/>
   <line x1="965.187012" y1="1196.667725" x2="962.642578" y2="1196.667725" style="stroke: green; stroke-width: 0.200000"/>
   <line x1="835.960693" y1="1355.090942" x2="835.345215" y2="1355.090942" style="stroke: green; stroke-width: 0.200000"/>
   <line x1="836.392090" y1="1354.091064" x2="830.803162" y2="1354.091064" style="stroke: green; stroke-width: 0.200000"/>
   <line x1="836.823425" y1="1353.090942" x2="827.869141" y2="1353.090942" style="stroke: green; stroke-width: 0.200000"/>
   <line x1="837.249451" y1="1352.090942" x2="827.511353" y2="1352.090942" style="stroke: green; stroke-width: 0.200000"/>
   <line x1="837.643799" y1="1351.091064" x2="827.153625" y2="1351.091064" style="stroke: green; stroke-width: 0.200000"/>
   <line x1="838.038208" y1="1350.090942" x2="826.795776" y2="1350.090942" style="stroke: green; stroke-width: 0.200000"/>
   <line x1="838.432556" y1="1349.091064" x2="826.438049" y2="1349.091064" style="stroke: green; stroke-width: 0.200000"/>
   <line x1="838.826904" y1="1348.090942" x2="826.060242" y2="1348.090942" style="stroke: green; stroke-width: 0.200000"/>
   <line x1="839.221252" y1="1347.090942" x2="825.679199" y2="1347.090942" style="stroke: green; stroke-width: 0.200000"/>
   <line x1="839.615601" y1="1346.091064" x2="825.297974" y2="1346.091064" style="stroke: green; stroke-width: 0.200000"/>
   <line x1="837.438721" y1="1345.090942" x2="824.916931" y2="1345.090942" style="stroke: green; stroke-width: 0.200000"/>
   <line x1="832.358093" y1="1344.091064" x2="824.535828" y2="1344.091064" style="stroke: green; stroke-width: 0.200000"/>
   <line x1="827.194824" y1="1343.090942" x2="824.154663" y2="1343.090942" style="stroke: green; stroke-width: 0.200000"/>
   <line x1="952.882690" y1="1214.143921" x2="946.654053" y2="1214.143921" style="stroke: green; stroke-width: 0.200000"/>
   <line x1="961.260742" y1="1213.143921" x2="946.407593" y2="1213.143921" style="stroke: green; stroke-width: 0.200000"/>
   <line x1="963.653931" y1="1212.143921" x2="946.161133" y2="1212.143921" style="stroke: green; stroke-width: 0.200000"/>
   <line x1="966.544678" y1="1211.143921" x2="945.914673" y2="1211.143921" style="stroke: green; stroke-width: 0.200000"/>
   <line x1="969.210815" y1="1210.143921" x2="945.668213" y2="1210.143921" style="stroke: green; stroke-width: 0.200000"/>
   <line x1="970.966553" y1="1209.143921" x2="945.421753" y2="1209.143921" style="stroke: green; stroke-width: 0.200000"/>
   <line x1="972.722229" y1="1208.143921" x2="945.175232" y2="1208.143921" style="stroke: green; stroke-width: 0.200000"/>
   <line x1="974.478027" y1="1207.143921" x2="946.931274" y2="1207.143921" style="stroke: green; stroke-width: 0.200000"/>
   <line x1="976.056519" y1="1206.143921" x2="949.324463" y2="1206.143921" style="stroke: green; stroke-width: 0.200000"/>
   <line x1="977.134460" y1="1205.143921" x2="951.718445" y2="1205.143921" style="stroke: green; stroke-width: 0.200000"/>
   <line x1="978.212341" y1="1204.143921" x2="954.111328" y2="1204.143921" style="stroke: green; stroke-width: 0.200000"/>
   <line x1="979.290283" y1="1203.143921" x2="956.504639" y2="1203.143921" style="stroke: green; stroke-width: 0.200000"/>
   <line x1="980.368164" y1="1202.143921" x2="958.898193" y2="1202.143921" style="stroke: green; stroke-width: 0.200000"/>
   <line x1="980.394226" y1="1201.143921" x2="961.291382" y2="1201.143921" style="stroke: green; stroke-width: 0.200000"/>
   <line x1="979.865234" y1="1200.143921" x2="963.226013" y2="1200.143921" style="stroke: green; stroke-width: 0.200000"/>
   <line x1="979.336304" y1="1199.143921" x2="964.755371" y2="1199.143921" style="stroke: green; stroke-width: 0.200000"/>
   <line x1="978.772827" y1="1198.143921" x2="966.174561" y2="1198.143921" style="stroke: green; stroke-width: 0.200000"/>
   <line x1="977.945190" y1="1197.143921" x2="965.505676" y2="1197.143921" style="stroke: green; stroke-width: 0.200000"/>
   <line x1="977.117432" y1="1196.143921" x2="964.836731" y2="1196.143921" style="stroke: green; stroke-width: 0.200000"/>
   <line x1="976.289734" y1="1195.143921" x2="964.167725" y2="1195.143921" style="stroke: green; stroke-width: 0.200000"/>
   <line x1="975.462097" y1="1194.143921" x2="963.499084" y2="1194.143921" style="stroke: green; stroke-width: 0.200000"/>
   <line x1="974.634460" y1="1193.143921" x2="962.829956" y2="1193.143921" style="stroke: green; stroke-width: 0.200000"/>
   <line x1="973.895142" y1="1192.143921" x2="962.330933" y2="1192.143921" style="stroke: green; stroke-width: 0.200000"/>
   <line x1="973.226196" y1="1191.143921" x2="963.671997" y2="1191.143921" style="stroke: green; stroke-width: 0.200000"/>
   <line x1="972.321899" y1="1190.143921" x2="965.013794" y2="1190.143921" style="stroke: green; stroke-width: 0.200000"/>
   <line x1="971.127197" y1="1189.143921" x2="966.355591" y2="1189.143921" style="stroke: green; stroke-width: 0.200000"/>
   <line x1="969.843140" y1="1188.143921" x2="967.697205" y2="1188.143921" style="stroke: green; stroke-width: 0.200000"/>
   <path d="M 826.475  1353.65  824.98  1349.47  821.827  1341.2  821.423  1339.86  820.86  1337.73  818.934  1330.85  818.214  1327.45  816.827  1321.45  816.007  1317.58  814.579  1310.69  814.159  1307.92  812.396  1297.59  811.536  1291.88  810.868  1288.35  810.566  1286.87  809.071  1278.93  807.776  1274  807.005  1270.43  804.393  1261.71  804.329  1261.41  804.132  1260.81  803.497  1259.61  " style="fill: none; stroke: darkmagenta; stroke-width: 0.200000; fill-type: evenodd"  fill-opacity="1.000000" />
   <path d="M 803.497  1259.61  800.262  1253.46  798.683  1248.56  796.993  1244.51  796.39  1237.05  " style="fill: none; stroke: red; stroke-width: 0.200000; fill-type: evenodd"  fill-opacity="1.000000" />
   <path d="M 796.39  1237.05  796.376  1236.88  796.125  1235.9  796.071  1233.56  796.937  1227.02  798.383  1218.25  800.748  1209.41  801.644  1205.08  804.673  1199.77  808.031  1192.21  809.964  1190.95  813.332  1188.12  816.688  1184.59  819.591  1185.1  822.101  1188.27  825.476  1191.86  827.853  1193.46  832.551  1201.88  833.281  1203.08  836.406  1209.63  838.686  1215.34  840.75  1220.09  844.151  1229.34  846.35  1237.8  847.343  1242.77  848.11  1247.19  849.069  1251.69  849.302  1256.31  849.601  1261.55  850.013  1272.41  849.435  1283.63  849.196  1287.08  848.915  1290.5  847.1  1304.08  846.513  1308.15  846.228  1310.93  844.286  1320.17  843.808  1324.7  842.952  1330.98  842.651  1333.86  841.631  1342.73  841.512  1343.92  " style="fill: none; stroke: darkmagenta; stroke-width: 0.200000; fill-type: evenodd"  fill-opacity="1.000000" />
   <path d="M 841.512  1343.92  841.316  1345.87  838.579  1352.81  836.781  1356.98  832.376  1355.92  826.911  1354.86  826.475  1353.65  " style="fill: none; stroke: red; stroke-width: 0.200000; fill-type: evenodd"  fill-opacity="1.000000" />
   <path d="M 827.616  1353.87  825.919  1349.12  822.774  1340.87  822.386  1339.58  821.825  1337.47  819.905  1330.61  819.191  1327.23  817.804  1321.23  816.986  1317.37  815.564  1310.52  815.147  1307.76  813.384  1297.43  812.522  1291.71  811.849  1288.16  811.547  1286.68  810.047  1278.71  808.749  1273.77  807.974  1270.18  805.362  1261.46  805.295  1261.15  805.056  1260.42  801.187  1253.07  799.622  1248.21  797.977  1244.27  797.366  1236.71  797.122  1235.76  797.072  1233.62  797.926  1227.17  799.362  1218.46  801.721  1209.64  802.591  1205.44  805.567  1200.22  808.825  1192.89  810.561  1191.75  814.018  1188.85  817.043  1185.67  819.044  1186.02  821.343  1188.92  824.825  1192.63  827.097  1194.15  831.687  1202.38  832.4  1203.55  835.49  1210.03  837.763  1215.72  839.821  1220.47  843.195  1229.64  845.375  1238.03  846.36  1242.95  847.129  1247.38  848.074  1251.82  848.303  1256.37  848.602  1261.6  849.012  1272.4  848.437  1283.57  848.199  1287.01  847.921  1290.39  846.11  1303.94  845.52  1308.02  845.239  1310.77  843.297  1320.02  842.815  1324.58  841.959  1330.86  841.656  1333.75  840.637  1342.63  840.335  1345.63  837.654  1352.43  836.281  1355.61  " style="fill: none; stroke: black; stroke-width: 0.200000; fill-type: evenodd"  fill-opacity="1.000000" />
   <path d="M 836.281  1355.61  836.196  1355.81  832.587  1354.95  827.66  1353.99  827.616  1353.87  " style="fill: none; stroke: red; stroke-width: 0.200000; fill-type: evenodd"  fill-opacity="1.000000" />
   <path d="M 927.924  1214.3  923.938  1213.28  916.706  1210.84  914.131  1210.04  910.862  1208.73  904.713  1205.69  901.99  1204.09  893.685  1200.22  892.21  1199.08  884.842  1193.87  883.238  1192.35  876.68  1187.04  874  1184.32  869.947  1180.63  867.565  1177.22  863.498  1171.88  862.565  1168.65  860.885  1161.3  863.872  1152.7  867.125  1149.57  871.17  1146.41  877.834  1144.81  882.78  1144.25  887.655  1145.37  890.585  1146.63  897.907  1149.06  902.633  1152.17  907.148  1155.23  914.686  1159.25  915.987  1160.17  917.583  1160.98  925.099  1162.41  933.35  1163.44  934.963  1164.14  935.52  1164.48  942.571  1169.11  947.176  1171.85  950.74  1174.1  955.075  1175.73  " style="fill: none; stroke: darkmagenta; stroke-width: 0.200000; fill-type: evenodd"  fill-opacity="1.000000" />
   <path d="M 955.075  1175.73  956.212  1176.16  959.034  1178.31  961.555  1180.09  966.617  1183.73  972.623  1188.41  974.037  1189.66  975.471  1191.8  980.122  1197.42  982.604  1202.12  977.007  1207.31  976.389  1207.85  975.88  1208.07  969.174  1211.89  965.063  1213.18  960.721  1214.99  956.806  1215.34  952.926  1215.65  948.526  1216.16  942.829  1216.37  940.71  1216.21  937.3  1215.81  933.063  1215.2  930.651  1214.99  927.924  1214.3  " style="fill: none; stroke: red; stroke-width: 0.200000; fill-type: evenodd"  fill-opacity="1.000000" />
   <path d="M 956.996  1214.32  956.723  1214.34  952.829  1214.65  948.449  1215.16  942.849  1215.37  940.806  1215.21  937.428  1214.82  933.178  1214.21  930.819  1214.01  924.222  1212.32  917.014  1209.89  914.466  1209.1  911.271  1207.82  905.189  1204.81  902.456  1203.21  894.209  1199.36  892.805  1198.28  885.478  1193.09  883.897  1191.6  877.353  1186.3  874.693  1183.6  870.703  1179.96  868.373  1176.63  864.407  1171.42  863.534  1168.4  861.923  1161.36  864.738  1153.25  867.781  1150.32  871.614  1147.33  878.008  1145.8  882.723  1145.27  887.343  1146.33  890.229  1147.57  897.467  1149.97  902.078  1153.01  906.631  1156.08  914.159  1160.1  915.469  1161.03  917.258  1161.94  924.943  1163.4  933.085  1164.42  934.499  1165.03  934.982  1165.33  942.04  1169.96  946.653  1172.71  950.292  1175  955.723  1177.04  958.442  1179.11  960.974  1180.91  966.018  1184.53  971.984  1189.18  973.278  1190.32  974.669  1192.4  976.213  1194.27  " style="fill: none; stroke: black; stroke-width: 0.200000; fill-type: evenodd"  fill-opacity="1.000000" />
   <path d="M 976.213  1194.27  979.286  1197.98  981.362  1201.9  976.339  1206.56  975.846  1206.99  975.43  1207.18  968.772  1210.97  964.72  1212.24  960.479  1214.01  956.996  1214.32  " style="fill: none; stroke: red; stroke-width: 0.200000; fill-type: evenodd"  fill-opacity="1.000000" />
   <path d="M 1003.1  1248.83  1003.83  1249.56  1004.1  1250.56  1003.83  1251.56  1003.1  1252.29  1002.1  1252.56  1001.1  1252.29  1000.37  1251.56  1000.1  1250.56  1000.37  1249.56  1001.1  1248.83  1002.1  1248.56  1003.1  1248.83  " style="fill: none; stroke: purple; stroke-width: 0.500000; fill-type: evenodd"  fill-opacity="1.000000" />
   <path d="M 983.099  1228.83  983.831  1229.56  984.099  1230.56  983.831  1231.56  983.099  1232.29  982.099  1232.56  981.099  1232.29  980.367  1231.56  980.099  1230.56  980.146  1230.38  982.951  1228.79  983.099  1228.83  " style="fill: none; stroke: purple; stroke-width: 0.500000; fill-type: evenodd"  fill-opacity="1.000000" />
   <path d="M 1003.1  1228.83  1003.83  1229.56  1004.1  1230.56  1003.83  1231.56  1003.1  1232.29  1002.1  1232.56  1001.1  1232.29  1000.37  1231.56  1000.1  1230.56  1000.37  1229.56  1001.1  1228.83  1002.1  1228.56  1003.1  1228.83  " style="fill: none; stroke: purple; stroke-width: 0.500000; fill-type: evenodd"  fill-opacity="1.000000" />
</svg>
