<?xml version="1.0" encoding="UTF-8" standalone="yes"?>
<!DOCTYPE svg PUBLIC "-//W3C//DTD SVG 1.0//EN" "http://www.w3.org/TR/2001/REC-SVG-20010904/DTD/svg10.dtd">
<svg height="2000" width="2000" xmlns="http://www.w3.org/2000/svg" xmlns:svg="http://www.w3.org/2000/svg" xmlns:xlink="http://www.w3.org/1999/xlink">
   <marker id="endArrow" markerHeight="8" markerUnits="strokeWidth" markerWidth="10" orient="auto" refX="1" refY="5" viewBox="0 0 1000 1000">
      <polyline fill="darkblue" points="0,0 10,5 0,10 1,5" />
   </marker>
   <circle cx="1000" cy="1000" r="1" style="stroke:black; fill: red" />
   <circle cx="1000" cy="1000" r="800" style="stroke:black; fill: none" />
   <line x1="801.427734" y1="1079.655518" x2="757.694702" y2="1079.655518" style="stroke: green; stroke-width: 0.200000"/>
   <line x1="801.427734" y1="1078.655518" x2="758.017456" y2="1078.655518" style="stroke: green; stroke-width: 0.200000"/>
   <line x1="801.427734" y1="1077.655518" x2="758.340088" y2="1077.655518" style="stroke: green; stroke-width: 0.200000"/>
   <line x1="801.427734" y1="1076.655518" x2="758.690308" y2="1076.655518" style="stroke: green; stroke-width: 0.200000"/>
   <line x1="801.427734" y1="1075.655518" x2="759.102783" y2="1075.655518" style="stroke: green; stroke-width: 0.200000"/>
   <line x1="801.427734" y1="1074.655518" x2="759.515259" y2="1074.655518" style="stroke: green; stroke-width: 0.200000"/>
   <line x1="801.427734" y1="1073.655518" x2="759.927673" y2="1073.655518" style="stroke: green; stroke-width: 0.200000"/>
   <line x1="801.427734" y1="1072.655518" x2="760.427368" y2="1072.655518" style="stroke: green; stroke-width: 0.200000"/>
   <line x1="801.427734" y1="1071.655518" x2="760.850159" y2="1071.655518" style="stroke: green; stroke-width: 0.200000"/>
   <line x1="801.427734" y1="1070.655518" x2="761.217407" y2="1070.655518" style="stroke: green; stroke-width: 0.200000"/>
   <line x1="801.427734" y1="1069.655518" x2="761.584534" y2="1069.655518" style="stroke: green; stroke-width: 0.200000"/>
   <line x1="801.427734" y1="1068.655518" x2="761.951843" y2="1068.655518" style="stroke: green; stroke-width: 0.200000"/>
   <line x1="801.427734" y1="1067.655518" x2="762.319031" y2="1067.655518" style="stroke: green; stroke-width: 0.200000"/>
   <line x1="801.427734" y1="1066.655518" x2="762.686279" y2="1066.655518" style="stroke: green; stroke-width: 0.200000"/>
   <line x1="801.427734" y1="1065.655518" x2="763.053528" y2="1065.655518" style="stroke: green; stroke-width: 0.200000"/>
   <line x1="801.427734" y1="1064.655518" x2="763.449646" y2="1064.655518" style="stroke: green; stroke-width: 0.200000"/>
   <line x1="801.427734" y1="1063.655518" x2="763.999634" y2="1063.655518" style="stroke: green; stroke-width: 0.200000"/>
   <line x1="801.427734" y1="1062.655518" x2="764.639832" y2="1062.655518" style="stroke: green; stroke-width: 0.200000"/>
   <line x1="801.427734" y1="1061.655518" x2="765.280090" y2="1061.655518" style="stroke: green; stroke-width: 0.200000"/>
   <line x1="801.427734" y1="1060.655518" x2="765.920349" y2="1060.655518" style="stroke: green; stroke-width: 0.200000"/>
   <line x1="801.427734" y1="1059.655518" x2="766.560608" y2="1059.655518" style="stroke: green; stroke-width: 0.200000"/>
   <line x1="801.427734" y1="1058.655518" x2="767.200867" y2="1058.655518" style="stroke: green; stroke-width: 0.200000"/>
   <line x1="801.427734" y1="1057.655518" x2="767.841125" y2="1057.655518" style="stroke: green; stroke-width: 0.200000"/>
   <line x1="801.427734" y1="1056.655518" x2="768.591980" y2="1056.655518" style="stroke: green; stroke-width: 0.200000"/>
   <line x1="801.427734" y1="1055.655518" x2="769.348450" y2="1055.655518" style="stroke: green; stroke-width: 0.200000"/>
   <line x1="801.427734" y1="1054.655518" x2="770.104858" y2="1054.655518" style="stroke: green; stroke-width: 0.200000"/>
   <line x1="801.427734" y1="1053.655518" x2="770.861267" y2="1053.655518" style="stroke: green; stroke-width: 0.200000"/>
   <line x1="801.427734" y1="1052.655518" x2="771.617737" y2="1052.655518" style="stroke: green; stroke-width: 0.200000"/>
   <line x1="801.427734" y1="1051.655518" x2="772.374207" y2="1051.655518" style="stroke: green; stroke-width: 0.200000"/>
   <line x1="801.427734" y1="1050.655518" x2="773.116760" y2="1050.655518" style="stroke: green; stroke-width: 0.200000"/>
   <line x1="801.427734" y1="1049.655518" x2="773.998535" y2="1049.655518" style="stroke: green; stroke-width: 0.200000"/>
   <line x1="801.427734" y1="1048.655518" x2="774.991943" y2="1048.655518" style="stroke: green; stroke-width: 0.200000"/>
   <line x1="801.427734" y1="1047.655518" x2="776.054749" y2="1047.655518" style="stroke: green; stroke-width: 0.200000"/>
   <line x1="801.427734" y1="1046.655518" x2="777.117554" y2="1046.655518" style="stroke: green; stroke-width: 0.200000"/>
   <line x1="801.427734" y1="1045.655518" x2="778.180298" y2="1045.655518" style="stroke: green; stroke-width: 0.200000"/>
   <line x1="801.427734" y1="1044.655518" x2="779.243164" y2="1044.655518" style="stroke: green; stroke-width: 0.200000"/>
   <line x1="801.427734" y1="1043.655518" x2="780.450134" y2="1043.655518" style="stroke: green; stroke-width: 0.200000"/>
   <line x1="801.427734" y1="1042.655518" x2="781.789795" y2="1042.655518" style="stroke: green; stroke-width: 0.200000"/>
   <line x1="801.427734" y1="1041.655518" x2="783.129395" y2="1041.655518" style="stroke: green; stroke-width: 0.200000"/>
   <line x1="801.427734" y1="1040.655518" x2="784.468994" y2="1040.655518" style="stroke: green; stroke-width: 0.200000"/>
   <line x1="801.427734" y1="1039.655518" x2="785.763611" y2="1039.655518" style="stroke: green; stroke-width: 0.200000"/>
   <line x1="801.427734" y1="1038.655518" x2="787.040344" y2="1038.655518" style="stroke: green; stroke-width: 0.200000"/>
   <line x1="801.427734" y1="1037.655518" x2="788.504333" y2="1037.655518" style="stroke: green; stroke-width: 0.200000"/>
   <line x1="801.427734" y1="1036.655518" x2="790.166260" y2="1036.655518" style="stroke: green; stroke-width: 0.200000"/>
   <line x1="801.427734" y1="1035.655518" x2="792.105957" y2="1035.655518" style="stroke: green; stroke-width: 0.200000"/>
   <line x1="801.427734" y1="1034.655518" x2="794.045532" y2="1034.655518" style="stroke: green; stroke-width: 0.200000"/>
   <line x1="801.427734" y1="1033.655518" x2="795.985229" y2="1033.655518" style="stroke: green; stroke-width: 0.200000"/>
   <line x1="801.427734" y1="1032.655518" x2="798.407349" y2="1032.655518" style="stroke: green; stroke-width: 0.200000"/>
   <line x1="851.527771" y1="1079.655518" x2="801.527771" y2="1079.655518" style="stroke: green; stroke-width: 0.200000"/>
   <line x1="851.527771" y1="1078.655518" x2="801.527771" y2="1078.655518" style="stroke: green; stroke-width: 0.200000"/>
   <line x1="851.527771" y1="1077.655518" x2="801.527771" y2="1077.655518" style="stroke: green; stroke-width: 0.200000"/>
   <line x1="851.527771" y1="1076.655518" x2="801.527771" y2="1076.655518" style="stroke: green; stroke-width: 0.200000"/>
   <line x1="851.527771" y1="1075.655518" x2="801.527771" y2="1075.655518" style="stroke: green; stroke-width: 0.200000"/>
   <line x1="851.527771" y1="1074.655518" x2="801.527771" y2="1074.655518" style="stroke: green; stroke-width: 0.200000"/>
   <line x1="851.527771" y1="1073.655518" x2="801.527771" y2="1073.655518" style="stroke: green; stroke-width: 0.200000"/>
   <line x1="851.527771" y1="1072.655518" x2="801.527771" y2="1072.655518" style="stroke: green; stroke-width: 0.200000"/>
   <line x1="851.527771" y1="1071.655518" x2="801.527771" y2="1071.655518" style="stroke: green; stroke-width: 0.200000"/>
   <line x1="851.527771" y1="1070.655518" x2="801.527771" y2="1070.655518" style="stroke: green; stroke-width: 0.200000"/>
   <line x1="851.527771" y1="1069.655518" x2="801.527771" y2="1069.655518" style="stroke: green; stroke-width: 0.200000"/>
   <line x1="851.527771" y1="1068.655518" x2="801.527771" y2="1068.655518" style="stroke: green; stroke-width: 0.200000"/>
   <line x1="851.527771" y1="1067.655518" x2="801.527771" y2="1067.655518" style="stroke: green; stroke-width: 0.200000"/>
   <line x1="851.527771" y1="1066.655518" x2="801.527771" y2="1066.655518" style="stroke: green; stroke-width: 0.200000"/>
   <line x1="851.527771" y1="1065.655518" x2="801.527771" y2="1065.655518" style="stroke: green; stroke-width: 0.200000"/>
   <line x1="851.527771" y1="1064.655518" x2="801.527771" y2="1064.655518" style="stroke: green; stroke-width: 0.200000"/>
   <line x1="851.527771" y1="1063.655518" x2="801.527771" y2="1063.655518" style="stroke: green; stroke-width: 0.200000"/>
   <line x1="851.527771" y1="1062.655518" x2="801.527771" y2="1062.655518" style="stroke: green; stroke-width: 0.200000"/>
   <line x1="851.527771" y1="1061.655518" x2="801.527771" y2="1061.655518" style="stroke: green; stroke-width: 0.200000"/>
   <line x1="851.527771" y1="1060.655518" x2="801.527771" y2="1060.655518" style="stroke: green; stroke-width: 0.200000"/>
   <line x1="851.527771" y1="1059.655518" x2="801.527771" y2="1059.655518" style="stroke: green; stroke-width: 0.200000"/>
   <line x1="851.527771" y1="1058.655518" x2="801.527771" y2="1058.655518" style="stroke: green; stroke-width: 0.200000"/>
   <line x1="851.527771" y1="1057.655518" x2="801.527771" y2="1057.655518" style="stroke: green; stroke-width: 0.200000"/>
   <line x1="850.638184" y1="1056.655518" x2="801.527771" y2="1056.655518" style="stroke: green; stroke-width: 0.200000"/>
   <line x1="849.501404" y1="1055.655518" x2="801.527771" y2="1055.655518" style="stroke: green; stroke-width: 0.200000"/>
   <line x1="848.364502" y1="1054.655518" x2="801.527771" y2="1054.655518" style="stroke: green; stroke-width: 0.200000"/>
   <line x1="847.227844" y1="1053.655518" x2="801.527771" y2="1053.655518" style="stroke: green; stroke-width: 0.200000"/>
   <line x1="846.214233" y1="1052.655518" x2="801.527771" y2="1052.655518" style="stroke: green; stroke-width: 0.200000"/>
   <line x1="845.218567" y1="1051.655518" x2="801.527771" y2="1051.655518" style="stroke: green; stroke-width: 0.200000"/>
   <line x1="844.150330" y1="1050.655518" x2="801.527771" y2="1050.655518" style="stroke: green; stroke-width: 0.200000"/>
   <line x1="842.639404" y1="1049.655518" x2="801.527771" y2="1049.655518" style="stroke: green; stroke-width: 0.200000"/>
   <line x1="841.128479" y1="1048.655518" x2="801.527771" y2="1048.655518" style="stroke: green; stroke-width: 0.200000"/>
   <line x1="839.617432" y1="1047.655518" x2="801.527771" y2="1047.655518" style="stroke: green; stroke-width: 0.200000"/>
   <line x1="838.106567" y1="1046.655518" x2="801.527771" y2="1046.655518" style="stroke: green; stroke-width: 0.200000"/>
   <line x1="837.019592" y1="1045.655518" x2="801.527771" y2="1045.655518" style="stroke: green; stroke-width: 0.200000"/>
   <line x1="836.059448" y1="1044.655518" x2="801.527771" y2="1044.655518" style="stroke: green; stroke-width: 0.200000"/>
   <line x1="835.047546" y1="1043.655518" x2="801.527771" y2="1043.655518" style="stroke: green; stroke-width: 0.200000"/>
   <line x1="833.758423" y1="1042.655518" x2="801.527771" y2="1042.655518" style="stroke: green; stroke-width: 0.200000"/>
   <line x1="832.469238" y1="1041.655518" x2="801.527771" y2="1041.655518" style="stroke: green; stroke-width: 0.200000"/>
   <line x1="831.180176" y1="1040.655518" x2="801.527771" y2="1040.655518" style="stroke: green; stroke-width: 0.200000"/>
   <line x1="829.891052" y1="1039.655518" x2="801.527771" y2="1039.655518" style="stroke: green; stroke-width: 0.200000"/>
   <line x1="828.601929" y1="1038.655518" x2="801.527771" y2="1038.655518" style="stroke: green; stroke-width: 0.200000"/>
   <line x1="827.460083" y1="1037.655518" x2="801.527771" y2="1037.655518" style="stroke: green; stroke-width: 0.200000"/>
   <line x1="826.122131" y1="1036.655518" x2="801.527771" y2="1036.655518" style="stroke: green; stroke-width: 0.200000"/>
   <line x1="824.554504" y1="1035.655518" x2="801.527771" y2="1035.655518" style="stroke: green; stroke-width: 0.200000"/>
   <line x1="822.559143" y1="1034.655518" x2="801.527771" y2="1034.655518" style="stroke: green; stroke-width: 0.200000"/>
   <line x1="820.303650" y1="1033.655518" x2="801.527771" y2="1033.655518" style="stroke: green; stroke-width: 0.200000"/>
   <line x1="817.541565" y1="1032.655518" x2="801.527771" y2="1032.655518" style="stroke: green; stroke-width: 0.200000"/>
   <line x1="813.275452" y1="1031.655518" x2="801.707703" y2="1031.655518" style="stroke: green; stroke-width: 0.200000"/>
   <line x1="809.215088" y1="1030.655518" x2="806.427612" y2="1030.655518" style="stroke: green; stroke-width: 0.200000"/>
   <line x1="869.746033" y1="1079.655518" x2="851.627808" y2="1079.655518" style="stroke: green; stroke-width: 0.200000"/>
   <line x1="869.157410" y1="1078.655518" x2="851.627808" y2="1078.655518" style="stroke: green; stroke-width: 0.200000"/>
   <line x1="868.568787" y1="1077.655518" x2="851.627808" y2="1077.655518" style="stroke: green; stroke-width: 0.200000"/>
   <line x1="867.824768" y1="1076.655518" x2="851.627808" y2="1076.655518" style="stroke: green; stroke-width: 0.200000"/>
   <line x1="867.064819" y1="1075.655518" x2="851.627808" y2="1075.655518" style="stroke: green; stroke-width: 0.200000"/>
   <line x1="866.177063" y1="1074.655518" x2="851.627808" y2="1074.655518" style="stroke: green; stroke-width: 0.200000"/>
   <line x1="865.285950" y1="1073.655518" x2="851.627808" y2="1073.655518" style="stroke: green; stroke-width: 0.200000"/>
   <line x1="864.394836" y1="1072.655518" x2="851.627808" y2="1072.655518" style="stroke: green; stroke-width: 0.200000"/>
   <line x1="863.503662" y1="1071.655518" x2="851.627808" y2="1071.655518" style="stroke: green; stroke-width: 0.200000"/>
   <line x1="862.612549" y1="1070.655518" x2="851.627808" y2="1070.655518" style="stroke: green; stroke-width: 0.200000"/>
   <line x1="861.721436" y1="1069.655518" x2="851.627808" y2="1069.655518" style="stroke: green; stroke-width: 0.200000"/>
   <line x1="860.819092" y1="1068.655518" x2="851.627808" y2="1068.655518" style="stroke: green; stroke-width: 0.200000"/>
   <line x1="859.861450" y1="1067.655518" x2="851.627808" y2="1067.655518" style="stroke: green; stroke-width: 0.200000"/>
   <line x1="859.126099" y1="1066.655518" x2="851.627808" y2="1066.655518" style="stroke: green; stroke-width: 0.200000"/>
   <line x1="858.390808" y1="1065.655518" x2="851.627808" y2="1065.655518" style="stroke: green; stroke-width: 0.200000"/>
   <line x1="857.655518" y1="1064.655518" x2="851.627808" y2="1064.655518" style="stroke: green; stroke-width: 0.200000"/>
   <line x1="856.920105" y1="1063.655518" x2="851.627808" y2="1063.655518" style="stroke: green; stroke-width: 0.200000"/>
   <line x1="856.184753" y1="1062.655518" x2="851.627808" y2="1062.655518" style="stroke: green; stroke-width: 0.200000"/>
   <line x1="855.449707" y1="1061.655518" x2="851.627808" y2="1061.655518" style="stroke: green; stroke-width: 0.200000"/>
   <line x1="854.714355" y1="1060.655518" x2="851.627808" y2="1060.655518" style="stroke: green; stroke-width: 0.200000"/>
   <line x1="853.828064" y1="1059.655518" x2="851.627808" y2="1059.655518" style="stroke: green; stroke-width: 0.200000"/>
   <line x1="852.908813" y1="1058.655518" x2="851.627808" y2="1058.655518" style="stroke: green; stroke-width: 0.200000"/>
   <line x1="851.774841" y1="1057.655518" x2="851.627808" y2="1057.655518" style="stroke: green; stroke-width: 0.200000"/>
   <line x1="801.427734" y1="1129.655518" x2="755.106140" y2="1129.655518" style="stroke: green; stroke-width: 0.200000"/>
   <line x1="801.427734" y1="1128.655518" x2="754.687988" y2="1128.655518" style="stroke: green; stroke-width: 0.200000"/>
   <line x1="801.427734" y1="1127.655518" x2="754.283386" y2="1127.655518" style="stroke: green; stroke-width: 0.200000"/>
   <line x1="801.427734" y1="1126.655518" x2="753.878784" y2="1126.655518" style="stroke: green; stroke-width: 0.200000"/>
   <line x1="801.427734" y1="1125.655518" x2="753.474426" y2="1125.655518" style="stroke: green; stroke-width: 0.200000"/>
   <line x1="801.427734" y1="1124.655518" x2="753.069824" y2="1124.655518" style="stroke: green; stroke-width: 0.200000"/>
   <line x1="801.427734" y1="1123.655518" x2="752.665283" y2="1123.655518" style="stroke: green; stroke-width: 0.200000"/>
   <line x1="801.427734" y1="1122.655518" x2="752.247070" y2="1122.655518" style="stroke: green; stroke-width: 0.200000"/>
   <line x1="801.427734" y1="1121.655518" x2="751.818848" y2="1121.655518" style="stroke: green; stroke-width: 0.200000"/>
   <line x1="801.427734" y1="1120.655518" x2="751.444702" y2="1120.655518" style="stroke: green; stroke-width: 0.200000"/>
   <line x1="801.427734" y1="1119.655518" x2="751.433411" y2="1119.655518" style="stroke: green; stroke-width: 0.200000"/>
   <line x1="801.427734" y1="1118.655518" x2="751.449341" y2="1118.655518" style="stroke: green; stroke-width: 0.200000"/>
   <line x1="801.427734" y1="1117.655518" x2="751.492371" y2="1117.655518" style="stroke: green; stroke-width: 0.200000"/>
   <line x1="801.427734" y1="1116.655518" x2="751.535400" y2="1116.655518" style="stroke: green; stroke-width: 0.200000"/>
   <line x1="801.427734" y1="1115.655518" x2="751.578430" y2="1115.655518" style="stroke: green; stroke-width: 0.200000"/>
   <line x1="801.427734" y1="1114.655518" x2="751.621399" y2="1114.655518" style="stroke: green; stroke-width: 0.200000"/>
   <line x1="801.427734" y1="1113.655518" x2="751.664429" y2="1113.655518" style="stroke: green; stroke-width: 0.200000"/>
   <line x1="801.427734" y1="1112.655518" x2="751.707458" y2="1112.655518" style="stroke: green; stroke-width: 0.200000"/>
   <line x1="801.427734" y1="1111.655518" x2="751.750488" y2="1111.655518" style="stroke: green; stroke-width: 0.200000"/>
   <line x1="801.427734" y1="1110.655518" x2="751.788940" y2="1110.655518" style="stroke: green; stroke-width: 0.200000"/>
   <line x1="801.427734" y1="1109.655518" x2="751.824585" y2="1109.655518" style="stroke: green; stroke-width: 0.200000"/>
   <line x1="801.427734" y1="1108.655518" x2="751.860229" y2="1108.655518" style="stroke: green; stroke-width: 0.200000"/>
   <line x1="801.427734" y1="1107.655518" x2="751.930054" y2="1107.655518" style="stroke: green; stroke-width: 0.200000"/>
   <line x1="801.427734" y1="1106.655518" x2="752.086426" y2="1106.655518" style="stroke: green; stroke-width: 0.200000"/>
   <line x1="801.427734" y1="1105.655518" x2="752.242920" y2="1105.655518" style="stroke: green; stroke-width: 0.200000"/>
   <line x1="801.427734" y1="1104.655518" x2="752.399597" y2="1104.655518" style="stroke: green; stroke-width: 0.200000"/>
   <line x1="801.427734" y1="1103.655518" x2="752.555908" y2="1103.655518" style="stroke: green; stroke-width: 0.200000"/>
   <line x1="801.427734" y1="1102.655518" x2="752.712402" y2="1102.655518" style="stroke: green; stroke-width: 0.200000"/>
   <line x1="801.427734" y1="1101.655518" x2="752.849854" y2="1101.655518" style="stroke: green; stroke-width: 0.200000"/>
   <line x1="801.427734" y1="1100.655518" x2="752.977661" y2="1100.655518" style="stroke: green; stroke-width: 0.200000"/>
   <line x1="801.427734" y1="1099.655518" x2="753.105469" y2="1099.655518" style="stroke: green; stroke-width: 0.200000"/>
   <line x1="801.427734" y1="1098.655518" x2="753.233276" y2="1098.655518" style="stroke: green; stroke-width: 0.200000"/>
   <line x1="801.427734" y1="1097.655518" x2="753.361084" y2="1097.655518" style="stroke: green; stroke-width: 0.200000"/>
   <line x1="801.427734" y1="1096.655518" x2="753.488770" y2="1096.655518" style="stroke: green; stroke-width: 0.200000"/>
   <line x1="801.427734" y1="1095.655518" x2="753.616577" y2="1095.655518" style="stroke: green; stroke-width: 0.200000"/>
   <line x1="801.427734" y1="1094.655518" x2="753.755432" y2="1094.655518" style="stroke: green; stroke-width: 0.200000"/>
   <line x1="801.427734" y1="1093.655518" x2="753.912231" y2="1093.655518" style="stroke: green; stroke-width: 0.200000"/>
   <line x1="801.427734" y1="1092.655518" x2="754.068909" y2="1092.655518" style="stroke: green; stroke-width: 0.200000"/>
   <line x1="801.427734" y1="1091.655518" x2="754.301392" y2="1091.655518" style="stroke: green; stroke-width: 0.200000"/>
   <line x1="801.427734" y1="1090.655518" x2="754.597717" y2="1090.655518" style="stroke: green; stroke-width: 0.200000"/>
   <line x1="801.427734" y1="1089.655518" x2="754.894104" y2="1089.655518" style="stroke: green; stroke-width: 0.200000"/>
   <line x1="801.427734" y1="1088.655518" x2="755.190491" y2="1088.655518" style="stroke: green; stroke-width: 0.200000"/>
   <line x1="801.427734" y1="1087.655518" x2="755.486938" y2="1087.655518" style="stroke: green; stroke-width: 0.200000"/>
   <line x1="801.427734" y1="1086.655518" x2="755.783325" y2="1086.655518" style="stroke: green; stroke-width: 0.200000"/>
   <line x1="801.427734" y1="1085.655518" x2="756.079712" y2="1085.655518" style="stroke: green; stroke-width: 0.200000"/>
   <line x1="801.427734" y1="1084.655518" x2="756.376038" y2="1084.655518" style="stroke: green; stroke-width: 0.200000"/>
   <line x1="801.427734" y1="1083.655518" x2="756.585022" y2="1083.655518" style="stroke: green; stroke-width: 0.200000"/>
   <line x1="801.427734" y1="1082.655518" x2="756.748779" y2="1082.655518" style="stroke: green; stroke-width: 0.200000"/>
   <line x1="801.427734" y1="1081.655518" x2="757.049438" y2="1081.655518" style="stroke: green; stroke-width: 0.200000"/>
   <line x1="801.427734" y1="1080.655518" x2="757.372070" y2="1080.655518" style="stroke: green; stroke-width: 0.200000"/>
   <line x1="851.527771" y1="1129.655518" x2="801.527771" y2="1129.655518" style="stroke: green; stroke-width: 0.200000"/>
   <line x1="851.527771" y1="1128.655518" x2="801.527771" y2="1128.655518" style="stroke: green; stroke-width: 0.200000"/>
   <line x1="851.527771" y1="1127.655518" x2="801.527771" y2="1127.655518" style="stroke: green; stroke-width: 0.200000"/>
   <line x1="851.527771" y1="1126.655518" x2="801.527771" y2="1126.655518" style="stroke: green; stroke-width: 0.200000"/>
   <line x1="851.527771" y1="1125.655518" x2="801.527771" y2="1125.655518" style="stroke: green; stroke-width: 0.200000"/>
   <line x1="851.527771" y1="1124.655518" x2="801.527771" y2="1124.655518" style="stroke: green; stroke-width: 0.200000"/>
   <line x1="851.527771" y1="1123.655518" x2="801.527771" y2="1123.655518" style="stroke: green; stroke-width: 0.200000"/>
   <line x1="851.527771" y1="1122.655518" x2="801.527771" y2="1122.655518" style="stroke: green; stroke-width: 0.200000"/>
   <line x1="851.527771" y1="1121.655518" x2="801.527771" y2="1121.655518" style="stroke: green; stroke-width: 0.200000"/>
   <line x1="851.527771" y1="1120.655518" x2="801.527771" y2="1120.655518" style="stroke: green; stroke-width: 0.200000"/>
   <line x1="851.527771" y1="1119.655518" x2="801.527771" y2="1119.655518" style="stroke: green; stroke-width: 0.200000"/>
   <line x1="851.527771" y1="1118.655518" x2="801.527771" y2="1118.655518" style="stroke: green; stroke-width: 0.200000"/>
   <line x1="851.527771" y1="1117.655518" x2="801.527771" y2="1117.655518" style="stroke: green; stroke-width: 0.200000"/>
   <line x1="851.527771" y1="1116.655518" x2="801.527771" y2="1116.655518" style="stroke: green; stroke-width: 0.200000"/>
   <line x1="851.527771" y1="1115.655518" x2="801.527771" y2="1115.655518" style="stroke: green; stroke-width: 0.200000"/>
   <line x1="851.527771" y1="1114.655518" x2="801.527771" y2="1114.655518" style="stroke: green; stroke-width: 0.200000"/>
   <line x1="851.527771" y1="1113.655518" x2="801.527771" y2="1113.655518" style="stroke: green; stroke-width: 0.200000"/>
   <line x1="851.527771" y1="1112.655518" x2="801.527771" y2="1112.655518" style="stroke: green; stroke-width: 0.200000"/>
   <line x1="851.527771" y1="1111.655518" x2="801.527771" y2="1111.655518" style="stroke: green; stroke-width: 0.200000"/>
   <line x1="851.527771" y1="1110.655518" x2="801.527771" y2="1110.655518" style="stroke: green; stroke-width: 0.200000"/>
   <line x1="851.527771" y1="1109.655518" x2="801.527771" y2="1109.655518" style="stroke: green; stroke-width: 0.200000"/>
   <line x1="851.527771" y1="1108.655518" x2="801.527771" y2="1108.655518" style="stroke: green; stroke-width: 0.200000"/>
   <line x1="851.527771" y1="1107.655518" x2="801.527771" y2="1107.655518" style="stroke: green; stroke-width: 0.200000"/>
   <line x1="851.527771" y1="1106.655518" x2="801.527771" y2="1106.655518" style="stroke: green; stroke-width: 0.200000"/>
   <line x1="851.527771" y1="1105.655518" x2="801.527771" y2="1105.655518" style="stroke: green; stroke-width: 0.200000"/>
   <line x1="851.527771" y1="1104.655518" x2="801.527771" y2="1104.655518" style="stroke: green; stroke-width: 0.200000"/>
   <line x1="851.527771" y1="1103.655518" x2="801.527771" y2="1103.655518" style="stroke: green; stroke-width: 0.200000"/>
   <line x1="851.527771" y1="1102.655518" x2="801.527771" y2="1102.655518" style="stroke: green; stroke-width: 0.200000"/>
   <line x1="851.527771" y1="1101.655518" x2="801.527771" y2="1101.655518" style="stroke: green; stroke-width: 0.200000"/>
   <line x1="851.527771" y1="1100.655518" x2="801.527771" y2="1100.655518" style="stroke: green; stroke-width: 0.200000"/>
   <line x1="851.527771" y1="1099.655518" x2="801.527771" y2="1099.655518" style="stroke: green; stroke-width: 0.200000"/>
   <line x1="851.527771" y1="1098.655518" x2="801.527771" y2="1098.655518" style="stroke: green; stroke-width: 0.200000"/>
   <line x1="851.527771" y1="1097.655518" x2="801.527771" y2="1097.655518" style="stroke: green; stroke-width: 0.200000"/>
   <line x1="851.527771" y1="1096.655518" x2="801.527771" y2="1096.655518" style="stroke: green; stroke-width: 0.200000"/>
   <line x1="851.527771" y1="1095.655518" x2="801.527771" y2="1095.655518" style="stroke: green; stroke-width: 0.200000"/>
   <line x1="851.527771" y1="1094.655518" x2="801.527771" y2="1094.655518" style="stroke: green; stroke-width: 0.200000"/>
   <line x1="851.527771" y1="1093.655518" x2="801.527771" y2="1093.655518" style="stroke: green; stroke-width: 0.200000"/>
   <line x1="851.527771" y1="1092.655518" x2="801.527771" y2="1092.655518" style="stroke: green; stroke-width: 0.200000"/>
   <line x1="851.527771" y1="1091.655518" x2="801.527771" y2="1091.655518" style="stroke: green; stroke-width: 0.200000"/>
   <line x1="851.527771" y1="1090.655518" x2="801.527771" y2="1090.655518" style="stroke: green; stroke-width: 0.200000"/>
   <line x1="851.527771" y1="1089.655518" x2="801.527771" y2="1089.655518" style="stroke: green; stroke-width: 0.200000"/>
   <line x1="851.527771" y1="1088.655518" x2="801.527771" y2="1088.655518" style="stroke: green; stroke-width: 0.200000"/>
   <line x1="851.527771" y1="1087.655518" x2="801.527771" y2="1087.655518" style="stroke: green; stroke-width: 0.200000"/>
   <line x1="851.527771" y1="1086.655518" x2="801.527771" y2="1086.655518" style="stroke: green; stroke-width: 0.200000"/>
   <line x1="851.527771" y1="1085.655518" x2="801.527771" y2="1085.655518" style="stroke: green; stroke-width: 0.200000"/>
   <line x1="851.527771" y1="1084.655518" x2="801.527771" y2="1084.655518" style="stroke: green; stroke-width: 0.200000"/>
   <line x1="851.527771" y1="1083.655518" x2="801.527771" y2="1083.655518" style="stroke: green; stroke-width: 0.200000"/>
   <line x1="851.527771" y1="1082.655518" x2="801.527771" y2="1082.655518" style="stroke: green; stroke-width: 0.200000"/>
   <line x1="851.527771" y1="1081.655518" x2="801.527771" y2="1081.655518" style="stroke: green; stroke-width: 0.200000"/>
   <line x1="851.527771" y1="1080.655518" x2="801.527771" y2="1080.655518" style="stroke: green; stroke-width: 0.200000"/>
   <line x1="884.626160" y1="1129.655518" x2="851.627808" y2="1129.655518" style="stroke: green; stroke-width: 0.200000"/>
   <line x1="884.267944" y1="1128.655518" x2="851.627808" y2="1128.655518" style="stroke: green; stroke-width: 0.200000"/>
   <line x1="884.002625" y1="1127.655518" x2="851.627808" y2="1127.655518" style="stroke: green; stroke-width: 0.200000"/>
   <line x1="883.751709" y1="1126.655518" x2="851.627808" y2="1126.655518" style="stroke: green; stroke-width: 0.200000"/>
   <line x1="883.500732" y1="1125.655518" x2="851.627808" y2="1125.655518" style="stroke: green; stroke-width: 0.200000"/>
   <line x1="883.249817" y1="1124.655518" x2="851.627808" y2="1124.655518" style="stroke: green; stroke-width: 0.200000"/>
   <line x1="882.998901" y1="1123.655518" x2="851.627808" y2="1123.655518" style="stroke: green; stroke-width: 0.200000"/>
   <line x1="882.747925" y1="1122.655518" x2="851.627808" y2="1122.655518" style="stroke: green; stroke-width: 0.200000"/>
   <line x1="882.497009" y1="1121.655518" x2="851.627808" y2="1121.655518" style="stroke: green; stroke-width: 0.200000"/>
   <line x1="882.246155" y1="1120.655518" x2="851.627808" y2="1120.655518" style="stroke: green; stroke-width: 0.200000"/>
   <line x1="881.995239" y1="1119.655518" x2="851.627808" y2="1119.655518" style="stroke: green; stroke-width: 0.200000"/>
   <line x1="881.736145" y1="1118.655518" x2="851.627808" y2="1118.655518" style="stroke: green; stroke-width: 0.200000"/>
   <line x1="881.476746" y1="1117.655518" x2="851.627808" y2="1117.655518" style="stroke: green; stroke-width: 0.200000"/>
   <line x1="881.209961" y1="1116.655518" x2="851.627808" y2="1116.655518" style="stroke: green; stroke-width: 0.200000"/>
   <line x1="880.940674" y1="1115.655518" x2="851.627808" y2="1115.655518" style="stroke: green; stroke-width: 0.200000"/>
   <line x1="880.671509" y1="1114.655518" x2="851.627808" y2="1114.655518" style="stroke: green; stroke-width: 0.200000"/>
   <line x1="880.402283" y1="1113.655518" x2="851.627808" y2="1113.655518" style="stroke: green; stroke-width: 0.200000"/>
   <line x1="880.133118" y1="1112.655518" x2="851.627808" y2="1112.655518" style="stroke: green; stroke-width: 0.200000"/>
   <line x1="879.863892" y1="1111.655518" x2="851.627808" y2="1111.655518" style="stroke: green; stroke-width: 0.200000"/>
   <line x1="879.594727" y1="1110.655518" x2="851.627808" y2="1110.655518" style="stroke: green; stroke-width: 0.200000"/>
   <line x1="879.325500" y1="1109.655518" x2="851.627808" y2="1109.655518" style="stroke: green; stroke-width: 0.200000"/>
   <line x1="879.056274" y1="1108.655518" x2="851.627808" y2="1108.655518" style="stroke: green; stroke-width: 0.200000"/>
   <line x1="878.816589" y1="1107.655518" x2="851.627808" y2="1107.655518" style="stroke: green; stroke-width: 0.200000"/>
   <line x1="878.589966" y1="1106.655518" x2="851.627808" y2="1106.655518" style="stroke: green; stroke-width: 0.200000"/>
   <line x1="878.363159" y1="1105.655518" x2="851.627808" y2="1105.655518" style="stroke: green; stroke-width: 0.200000"/>
   <line x1="878.136536" y1="1104.655518" x2="851.627808" y2="1104.655518" style="stroke: green; stroke-width: 0.200000"/>
   <line x1="877.909790" y1="1103.655518" x2="851.627808" y2="1103.655518" style="stroke: green; stroke-width: 0.200000"/>
   <line x1="877.683105" y1="1102.655518" x2="851.627808" y2="1102.655518" style="stroke: green; stroke-width: 0.200000"/>
   <line x1="877.456360" y1="1101.655518" x2="851.627808" y2="1101.655518" style="stroke: green; stroke-width: 0.200000"/>
   <line x1="877.197876" y1="1100.655518" x2="851.627808" y2="1100.655518" style="stroke: green; stroke-width: 0.200000"/>
   <line x1="876.898804" y1="1099.655518" x2="851.627808" y2="1099.655518" style="stroke: green; stroke-width: 0.200000"/>
   <line x1="876.599731" y1="1098.655518" x2="851.627808" y2="1098.655518" style="stroke: green; stroke-width: 0.200000"/>
   <line x1="876.300659" y1="1097.655518" x2="851.627808" y2="1097.655518" style="stroke: green; stroke-width: 0.200000"/>
   <line x1="876.001587" y1="1096.655518" x2="851.627808" y2="1096.655518" style="stroke: green; stroke-width: 0.200000"/>
   <line x1="875.702454" y1="1095.655518" x2="851.627808" y2="1095.655518" style="stroke: green; stroke-width: 0.200000"/>
   <line x1="875.403381" y1="1094.655518" x2="851.627808" y2="1094.655518" style="stroke: green; stroke-width: 0.200000"/>
   <line x1="875.119629" y1="1093.655518" x2="851.627808" y2="1093.655518" style="stroke: green; stroke-width: 0.200000"/>
   <line x1="874.884521" y1="1092.655518" x2="851.627808" y2="1092.655518" style="stroke: green; stroke-width: 0.200000"/>
   <line x1="874.602112" y1="1091.655518" x2="851.627808" y2="1091.655518" style="stroke: green; stroke-width: 0.200000"/>
   <line x1="874.314209" y1="1090.655518" x2="851.627808" y2="1090.655518" style="stroke: green; stroke-width: 0.200000"/>
   <line x1="874.023987" y1="1089.655518" x2="851.627808" y2="1089.655518" style="stroke: green; stroke-width: 0.200000"/>
   <line x1="873.719238" y1="1088.655518" x2="851.627808" y2="1088.655518" style="stroke: green; stroke-width: 0.200000"/>
   <line x1="873.414551" y1="1087.655518" x2="851.627808" y2="1087.655518" style="stroke: green; stroke-width: 0.200000"/>
   <line x1="873.109802" y1="1086.655518" x2="851.627808" y2="1086.655518" style="stroke: green; stroke-width: 0.200000"/>
   <line x1="872.805115" y1="1085.655518" x2="851.627808" y2="1085.655518" style="stroke: green; stroke-width: 0.200000"/>
   <line x1="872.500366" y1="1084.655518" x2="851.627808" y2="1084.655518" style="stroke: green; stroke-width: 0.200000"/>
   <line x1="872.100281" y1="1083.655518" x2="851.627808" y2="1083.655518" style="stroke: green; stroke-width: 0.200000"/>
   <line x1="871.511780" y1="1082.655518" x2="851.627808" y2="1082.655518" style="stroke: green; stroke-width: 0.200000"/>
   <line x1="870.923157" y1="1081.655518" x2="851.627808" y2="1081.655518" style="stroke: green; stroke-width: 0.200000"/>
   <line x1="870.334534" y1="1080.655518" x2="851.627808" y2="1080.655518" style="stroke: green; stroke-width: 0.200000"/>
   <line x1="801.427734" y1="1180.655518" x2="786.622009" y2="1180.655518" style="stroke: green; stroke-width: 0.200000"/>
   <line x1="801.427734" y1="1179.655518" x2="785.931458" y2="1179.655518" style="stroke: green; stroke-width: 0.200000"/>
   <line x1="801.427734" y1="1178.655518" x2="785.241028" y2="1178.655518" style="stroke: green; stroke-width: 0.200000"/>
   <line x1="801.427734" y1="1177.655518" x2="784.550476" y2="1177.655518" style="stroke: green; stroke-width: 0.200000"/>
   <line x1="801.427734" y1="1176.655518" x2="783.859985" y2="1176.655518" style="stroke: green; stroke-width: 0.200000"/>
   <line x1="801.427734" y1="1175.655518" x2="783.169495" y2="1175.655518" style="stroke: green; stroke-width: 0.200000"/>
   <line x1="801.427734" y1="1174.655518" x2="782.478943" y2="1174.655518" style="stroke: green; stroke-width: 0.200000"/>
   <line x1="801.427734" y1="1173.655518" x2="781.804749" y2="1173.655518" style="stroke: green; stroke-width: 0.200000"/>
   <line x1="801.427734" y1="1172.655518" x2="781.167480" y2="1172.655518" style="stroke: green; stroke-width: 0.200000"/>
   <line x1="801.427734" y1="1171.655518" x2="780.563599" y2="1171.655518" style="stroke: green; stroke-width: 0.200000"/>
   <line x1="801.427734" y1="1170.655518" x2="779.959778" y2="1170.655518" style="stroke: green; stroke-width: 0.200000"/>
   <line x1="801.427734" y1="1169.655518" x2="779.355957" y2="1169.655518" style="stroke: green; stroke-width: 0.200000"/>
   <line x1="801.427734" y1="1168.655518" x2="778.752075" y2="1168.655518" style="stroke: green; stroke-width: 0.200000"/>
   <line x1="801.427734" y1="1167.655518" x2="778.148193" y2="1167.655518" style="stroke: green; stroke-width: 0.200000"/>
   <line x1="801.427734" y1="1166.655518" x2="777.532471" y2="1166.655518" style="stroke: green; stroke-width: 0.200000"/>
   <line x1="801.427734" y1="1165.655518" x2="776.914368" y2="1165.655518" style="stroke: green; stroke-width: 0.200000"/>
   <line x1="801.427734" y1="1164.655518" x2="776.296143" y2="1164.655518" style="stroke: green; stroke-width: 0.200000"/>
   <line x1="801.427734" y1="1163.655518" x2="775.678040" y2="1163.655518" style="stroke: green; stroke-width: 0.200000"/>
   <line x1="801.427734" y1="1162.655518" x2="775.041992" y2="1162.655518" style="stroke: green; stroke-width: 0.200000"/>
   <line x1="801.427734" y1="1161.655518" x2="774.404907" y2="1161.655518" style="stroke: green; stroke-width: 0.200000"/>
   <line x1="801.427734" y1="1160.655518" x2="773.767944" y2="1160.655518" style="stroke: green; stroke-width: 0.200000"/>
   <line x1="801.427734" y1="1159.655518" x2="773.130859" y2="1159.655518" style="stroke: green; stroke-width: 0.200000"/>
   <line x1="801.427734" y1="1158.655518" x2="772.493896" y2="1158.655518" style="stroke: green; stroke-width: 0.200000"/>
   <line x1="801.427734" y1="1157.655518" x2="771.856934" y2="1157.655518" style="stroke: green; stroke-width: 0.200000"/>
   <line x1="801.427734" y1="1156.655518" x2="771.219849" y2="1156.655518" style="stroke: green; stroke-width: 0.200000"/>
   <line x1="801.427734" y1="1155.655518" x2="770.582886" y2="1155.655518" style="stroke: green; stroke-width: 0.200000"/>
   <line x1="801.427734" y1="1154.655518" x2="769.945923" y2="1154.655518" style="stroke: green; stroke-width: 0.200000"/>
   <line x1="801.427734" y1="1153.655518" x2="769.370972" y2="1153.655518" style="stroke: green; stroke-width: 0.200000"/>
   <line x1="801.427734" y1="1152.655518" x2="768.840942" y2="1152.655518" style="stroke: green; stroke-width: 0.200000"/>
   <line x1="801.427734" y1="1151.655518" x2="768.310852" y2="1151.655518" style="stroke: green; stroke-width: 0.200000"/>
   <line x1="801.427734" y1="1150.655518" x2="767.780640" y2="1150.655518" style="stroke: green; stroke-width: 0.200000"/>
   <line x1="801.427734" y1="1149.655518" x2="767.250610" y2="1149.655518" style="stroke: green; stroke-width: 0.200000"/>
   <line x1="801.427734" y1="1148.655518" x2="766.646606" y2="1148.655518" style="stroke: green; stroke-width: 0.200000"/>
   <line x1="801.427734" y1="1147.655518" x2="765.922302" y2="1147.655518" style="stroke: green; stroke-width: 0.200000"/>
   <line x1="801.427734" y1="1146.655518" x2="765.197998" y2="1146.655518" style="stroke: green; stroke-width: 0.200000"/>
   <line x1="801.427734" y1="1145.655518" x2="764.525635" y2="1145.655518" style="stroke: green; stroke-width: 0.200000"/>
   <line x1="801.427734" y1="1144.655518" x2="763.893433" y2="1144.655518" style="stroke: green; stroke-width: 0.200000"/>
   <line x1="801.427734" y1="1143.655518" x2="763.261169" y2="1143.655518" style="stroke: green; stroke-width: 0.200000"/>
   <line x1="801.427734" y1="1142.655518" x2="762.628113" y2="1142.655518" style="stroke: green; stroke-width: 0.200000"/>
   <line x1="801.427734" y1="1141.655518" x2="761.982910" y2="1141.655518" style="stroke: green; stroke-width: 0.200000"/>
   <line x1="801.427734" y1="1140.655518" x2="761.337646" y2="1140.655518" style="stroke: green; stroke-width: 0.200000"/>
   <line x1="801.427734" y1="1139.655518" x2="760.692444" y2="1139.655518" style="stroke: green; stroke-width: 0.200000"/>
   <line x1="801.427734" y1="1138.655518" x2="760.047241" y2="1138.655518" style="stroke: green; stroke-width: 0.200000"/>
   <line x1="801.427734" y1="1137.655518" x2="759.473022" y2="1137.655518" style="stroke: green; stroke-width: 0.200000"/>
   <line x1="801.427734" y1="1136.655518" x2="758.930908" y2="1136.655518" style="stroke: green; stroke-width: 0.200000"/>
   <line x1="801.427734" y1="1135.655518" x2="758.388733" y2="1135.655518" style="stroke: green; stroke-width: 0.200000"/>
   <line x1="801.427734" y1="1134.655518" x2="757.846619" y2="1134.655518" style="stroke: green; stroke-width: 0.200000"/>
   <line x1="801.427734" y1="1133.655518" x2="757.304443" y2="1133.655518" style="stroke: green; stroke-width: 0.200000"/>
   <line x1="801.427734" y1="1132.655518" x2="756.755737" y2="1132.655518" style="stroke: green; stroke-width: 0.200000"/>
   <line x1="801.427734" y1="1131.655518" x2="756.205933" y2="1131.655518" style="stroke: green; stroke-width: 0.200000"/>
   <line x1="851.527771" y1="1180.655518" x2="801.527771" y2="1180.655518" style="stroke: green; stroke-width: 0.200000"/>
   <line x1="851.527771" y1="1179.655518" x2="801.527771" y2="1179.655518" style="stroke: green; stroke-width: 0.200000"/>
   <line x1="851.527771" y1="1178.655518" x2="801.527771" y2="1178.655518" style="stroke: green; stroke-width: 0.200000"/>
   <line x1="851.527771" y1="1177.655518" x2="801.527771" y2="1177.655518" style="stroke: green; stroke-width: 0.200000"/>
   <line x1="851.527771" y1="1176.655518" x2="801.527771" y2="1176.655518" style="stroke: green; stroke-width: 0.200000"/>
   <line x1="851.527771" y1="1175.655518" x2="801.527771" y2="1175.655518" style="stroke: green; stroke-width: 0.200000"/>
   <line x1="851.527771" y1="1174.655518" x2="801.527771" y2="1174.655518" style="stroke: green; stroke-width: 0.200000"/>
   <line x1="851.527771" y1="1173.655518" x2="801.527771" y2="1173.655518" style="stroke: green; stroke-width: 0.200000"/>
   <line x1="851.527771" y1="1172.655518" x2="801.527771" y2="1172.655518" style="stroke: green; stroke-width: 0.200000"/>
   <line x1="851.527771" y1="1171.655518" x2="801.527771" y2="1171.655518" style="stroke: green; stroke-width: 0.200000"/>
   <line x1="851.527771" y1="1170.655518" x2="801.527771" y2="1170.655518" style="stroke: green; stroke-width: 0.200000"/>
   <line x1="851.527771" y1="1169.655518" x2="801.527771" y2="1169.655518" style="stroke: green; stroke-width: 0.200000"/>
   <line x1="851.527771" y1="1168.655518" x2="801.527771" y2="1168.655518" style="stroke: green; stroke-width: 0.200000"/>
   <line x1="851.527771" y1="1167.655518" x2="801.527771" y2="1167.655518" style="stroke: green; stroke-width: 0.200000"/>
   <line x1="851.527771" y1="1166.655518" x2="801.527771" y2="1166.655518" style="stroke: green; stroke-width: 0.200000"/>
   <line x1="851.527771" y1="1165.655518" x2="801.527771" y2="1165.655518" style="stroke: green; stroke-width: 0.200000"/>
   <line x1="851.527771" y1="1164.655518" x2="801.527771" y2="1164.655518" style="stroke: green; stroke-width: 0.200000"/>
   <line x1="851.527771" y1="1163.655518" x2="801.527771" y2="1163.655518" style="stroke: green; stroke-width: 0.200000"/>
   <line x1="851.527771" y1="1162.655518" x2="801.527771" y2="1162.655518" style="stroke: green; stroke-width: 0.200000"/>
   <line x1="851.527771" y1="1161.655518" x2="801.527771" y2="1161.655518" style="stroke: green; stroke-width: 0.200000"/>
   <line x1="851.527771" y1="1160.655518" x2="801.527771" y2="1160.655518" style="stroke: green; stroke-width: 0.200000"/>
   <line x1="851.527771" y1="1159.655518" x2="801.527771" y2="1159.655518" style="stroke: green; stroke-width: 0.200000"/>
   <line x1="851.527771" y1="1158.655518" x2="801.527771" y2="1158.655518" style="stroke: green; stroke-width: 0.200000"/>
   <line x1="851.527771" y1="1157.655518" x2="801.527771" y2="1157.655518" style="stroke: green; stroke-width: 0.200000"/>
   <line x1="851.527771" y1="1156.655518" x2="801.527771" y2="1156.655518" style="stroke: green; stroke-width: 0.200000"/>
   <line x1="851.527771" y1="1155.655518" x2="801.527771" y2="1155.655518" style="stroke: green; stroke-width: 0.200000"/>
   <line x1="851.527771" y1="1154.655518" x2="801.527771" y2="1154.655518" style="stroke: green; stroke-width: 0.200000"/>
   <line x1="851.527771" y1="1153.655518" x2="801.527771" y2="1153.655518" style="stroke: green; stroke-width: 0.200000"/>
   <line x1="851.527771" y1="1152.655518" x2="801.527771" y2="1152.655518" style="stroke: green; stroke-width: 0.200000"/>
   <line x1="851.527771" y1="1151.655518" x2="801.527771" y2="1151.655518" style="stroke: green; stroke-width: 0.200000"/>
   <line x1="851.527771" y1="1150.655518" x2="801.527771" y2="1150.655518" style="stroke: green; stroke-width: 0.200000"/>
   <line x1="851.527771" y1="1149.655518" x2="801.527771" y2="1149.655518" style="stroke: green; stroke-width: 0.200000"/>
   <line x1="851.527771" y1="1148.655518" x2="801.527771" y2="1148.655518" style="stroke: green; stroke-width: 0.200000"/>
   <line x1="851.527771" y1="1147.655518" x2="801.527771" y2="1147.655518" style="stroke: green; stroke-width: 0.200000"/>
   <line x1="851.527771" y1="1146.655518" x2="801.527771" y2="1146.655518" style="stroke: green; stroke-width: 0.200000"/>
   <line x1="851.527771" y1="1145.655518" x2="801.527771" y2="1145.655518" style="stroke: green; stroke-width: 0.200000"/>
   <line x1="851.527771" y1="1144.655518" x2="801.527771" y2="1144.655518" style="stroke: green; stroke-width: 0.200000"/>
   <line x1="851.527771" y1="1143.655518" x2="801.527771" y2="1143.655518" style="stroke: green; stroke-width: 0.200000"/>
   <line x1="851.527771" y1="1142.655518" x2="801.527771" y2="1142.655518" style="stroke: green; stroke-width: 0.200000"/>
   <line x1="851.527771" y1="1141.655518" x2="801.527771" y2="1141.655518" style="stroke: green; stroke-width: 0.200000"/>
   <line x1="851.527771" y1="1140.655518" x2="801.527771" y2="1140.655518" style="stroke: green; stroke-width: 0.200000"/>
   <line x1="851.527771" y1="1139.655518" x2="801.527771" y2="1139.655518" style="stroke: green; stroke-width: 0.200000"/>
   <line x1="851.527771" y1="1138.655518" x2="801.527771" y2="1138.655518" style="stroke: green; stroke-width: 0.200000"/>
   <line x1="851.527771" y1="1137.655518" x2="801.527771" y2="1137.655518" style="stroke: green; stroke-width: 0.200000"/>
   <line x1="851.527771" y1="1136.655518" x2="801.527771" y2="1136.655518" style="stroke: green; stroke-width: 0.200000"/>
   <line x1="851.527771" y1="1135.655518" x2="801.527771" y2="1135.655518" style="stroke: green; stroke-width: 0.200000"/>
   <line x1="851.527771" y1="1134.655518" x2="801.527771" y2="1134.655518" style="stroke: green; stroke-width: 0.200000"/>
   <line x1="851.527771" y1="1133.655518" x2="801.527771" y2="1133.655518" style="stroke: green; stroke-width: 0.200000"/>
   <line x1="851.527771" y1="1132.655518" x2="801.527771" y2="1132.655518" style="stroke: green; stroke-width: 0.200000"/>
   <line x1="851.527771" y1="1131.655518" x2="801.527771" y2="1131.655518" style="stroke: green; stroke-width: 0.200000"/>
   <line x1="875.310425" y1="1180.655518" x2="851.627808" y2="1180.655518" style="stroke: green; stroke-width: 0.200000"/>
   <line x1="874.480530" y1="1179.655518" x2="851.627808" y2="1179.655518" style="stroke: green; stroke-width: 0.200000"/>
   <line x1="874.336487" y1="1178.655518" x2="851.627808" y2="1178.655518" style="stroke: green; stroke-width: 0.200000"/>
   <line x1="874.864807" y1="1177.655518" x2="851.627808" y2="1177.655518" style="stroke: green; stroke-width: 0.200000"/>
   <line x1="875.392822" y1="1176.655518" x2="851.627808" y2="1176.655518" style="stroke: green; stroke-width: 0.200000"/>
   <line x1="875.921021" y1="1175.655518" x2="851.627808" y2="1175.655518" style="stroke: green; stroke-width: 0.200000"/>
   <line x1="876.449219" y1="1174.655518" x2="851.627808" y2="1174.655518" style="stroke: green; stroke-width: 0.200000"/>
   <line x1="876.977417" y1="1173.655518" x2="851.627808" y2="1173.655518" style="stroke: green; stroke-width: 0.200000"/>
   <line x1="877.505493" y1="1172.655518" x2="851.627808" y2="1172.655518" style="stroke: green; stroke-width: 0.200000"/>
   <line x1="878.033691" y1="1171.655518" x2="851.627808" y2="1171.655518" style="stroke: green; stroke-width: 0.200000"/>
   <line x1="878.561951" y1="1170.655518" x2="851.627808" y2="1170.655518" style="stroke: green; stroke-width: 0.200000"/>
   <line x1="879.090088" y1="1169.655518" x2="851.627808" y2="1169.655518" style="stroke: green; stroke-width: 0.200000"/>
   <line x1="879.618286" y1="1168.655518" x2="851.627808" y2="1168.655518" style="stroke: green; stroke-width: 0.200000"/>
   <line x1="880.146484" y1="1167.655518" x2="851.627808" y2="1167.655518" style="stroke: green; stroke-width: 0.200000"/>
   <line x1="880.674683" y1="1166.655518" x2="851.627808" y2="1166.655518" style="stroke: green; stroke-width: 0.200000"/>
   <line x1="881.202759" y1="1165.655518" x2="851.627808" y2="1165.655518" style="stroke: green; stroke-width: 0.200000"/>
   <line x1="881.730957" y1="1164.655518" x2="851.627808" y2="1164.655518" style="stroke: green; stroke-width: 0.200000"/>
   <line x1="882.408447" y1="1163.655518" x2="851.627808" y2="1163.655518" style="stroke: green; stroke-width: 0.200000"/>
   <line x1="882.786194" y1="1162.655518" x2="851.627808" y2="1162.655518" style="stroke: green; stroke-width: 0.200000"/>
   <line x1="883.163940" y1="1161.655518" x2="851.627808" y2="1161.655518" style="stroke: green; stroke-width: 0.200000"/>
   <line x1="883.541626" y1="1160.655518" x2="851.627808" y2="1160.655518" style="stroke: green; stroke-width: 0.200000"/>
   <line x1="883.919434" y1="1159.655518" x2="851.627808" y2="1159.655518" style="stroke: green; stroke-width: 0.200000"/>
   <line x1="884.297241" y1="1158.655518" x2="851.627808" y2="1158.655518" style="stroke: green; stroke-width: 0.200000"/>
   <line x1="884.675049" y1="1157.655518" x2="851.627808" y2="1157.655518" style="stroke: green; stroke-width: 0.200000"/>
   <line x1="885.052795" y1="1156.655518" x2="851.627808" y2="1156.655518" style="stroke: green; stroke-width: 0.200000"/>
   <line x1="885.430603" y1="1155.655518" x2="851.627808" y2="1155.655518" style="stroke: green; stroke-width: 0.200000"/>
   <line x1="885.808411" y1="1154.655518" x2="851.627808" y2="1154.655518" style="stroke: green; stroke-width: 0.200000"/>
   <line x1="886.186157" y1="1153.655518" x2="851.627808" y2="1153.655518" style="stroke: green; stroke-width: 0.200000"/>
   <line x1="886.563965" y1="1152.655518" x2="851.627808" y2="1152.655518" style="stroke: green; stroke-width: 0.200000"/>
   <line x1="886.941772" y1="1151.655518" x2="851.627808" y2="1151.655518" style="stroke: green; stroke-width: 0.200000"/>
   <line x1="887.319580" y1="1150.655518" x2="851.627808" y2="1150.655518" style="stroke: green; stroke-width: 0.200000"/>
   <line x1="887.697266" y1="1149.655518" x2="851.627808" y2="1149.655518" style="stroke: green; stroke-width: 0.200000"/>
   <line x1="892.178345" y1="1148.655518" x2="888.933044" y2="1148.655518" style="stroke: green; stroke-width: 0.200000"/>
   <line x1="888.075012" y1="1148.655518" x2="851.627808" y2="1148.655518" style="stroke: green; stroke-width: 0.200000"/>
   <line x1="891.548706" y1="1147.655518" x2="851.627808" y2="1147.655518" style="stroke: green; stroke-width: 0.200000"/>
   <line x1="891.174683" y1="1146.655518" x2="851.627808" y2="1146.655518" style="stroke: green; stroke-width: 0.200000"/>
   <line x1="890.800781" y1="1145.655518" x2="851.627808" y2="1145.655518" style="stroke: green; stroke-width: 0.200000"/>
   <line x1="890.426758" y1="1144.655518" x2="851.627808" y2="1144.655518" style="stroke: green; stroke-width: 0.200000"/>
   <line x1="890.052795" y1="1143.655518" x2="851.627808" y2="1143.655518" style="stroke: green; stroke-width: 0.200000"/>
   <line x1="889.678894" y1="1142.655518" x2="851.627808" y2="1142.655518" style="stroke: green; stroke-width: 0.200000"/>
   <line x1="889.304871" y1="1141.655518" x2="851.627808" y2="1141.655518" style="stroke: green; stroke-width: 0.200000"/>
   <line x1="888.930908" y1="1140.655518" x2="851.627808" y2="1140.655518" style="stroke: green; stroke-width: 0.200000"/>
   <line x1="888.297363" y1="1139.655518" x2="851.627808" y2="1139.655518" style="stroke: green; stroke-width: 0.200000"/>
   <line x1="887.652222" y1="1138.655518" x2="851.627808" y2="1138.655518" style="stroke: green; stroke-width: 0.200000"/>
   <line x1="887.280579" y1="1137.655518" x2="851.627808" y2="1137.655518" style="stroke: green; stroke-width: 0.200000"/>
   <line x1="886.952454" y1="1136.655518" x2="851.627808" y2="1136.655518" style="stroke: green; stroke-width: 0.200000"/>
   <line x1="886.624207" y1="1135.655518" x2="851.627808" y2="1135.655518" style="stroke: green; stroke-width: 0.200000"/>
   <line x1="886.296082" y1="1134.655518" x2="851.627808" y2="1134.655518" style="stroke: green; stroke-width: 0.200000"/>
   <line x1="885.967896" y1="1133.655518" x2="851.627808" y2="1133.655518" style="stroke: green; stroke-width: 0.200000"/>
   <line x1="885.639709" y1="1132.655518" x2="851.627808" y2="1132.655518" style="stroke: green; stroke-width: 0.200000"/>
   <line x1="885.311523" y1="1131.655518" x2="851.627808" y2="1131.655518" style="stroke: green; stroke-width: 0.200000"/>
   <line x1="801.427734" y1="1194.655518" x2="800.487549" y2="1194.655518" style="stroke: green; stroke-width: 0.200000"/>
   <line x1="801.427734" y1="1193.655518" x2="799.523621" y2="1193.655518" style="stroke: green; stroke-width: 0.200000"/>
   <line x1="801.427734" y1="1192.655518" x2="798.559692" y2="1192.655518" style="stroke: green; stroke-width: 0.200000"/>
   <line x1="801.427734" y1="1191.655518" x2="797.595520" y2="1191.655518" style="stroke: green; stroke-width: 0.200000"/>
   <line x1="801.427734" y1="1190.655518" x2="796.396606" y2="1190.655518" style="stroke: green; stroke-width: 0.200000"/>
   <line x1="801.427734" y1="1189.655518" x2="795.076599" y2="1189.655518" style="stroke: green; stroke-width: 0.200000"/>
   <line x1="801.427734" y1="1188.655518" x2="793.756348" y2="1188.655518" style="stroke: green; stroke-width: 0.200000"/>
   <line x1="801.427734" y1="1187.655518" x2="792.658691" y2="1187.655518" style="stroke: green; stroke-width: 0.200000"/>
   <line x1="801.427734" y1="1186.655518" x2="791.742859" y2="1186.655518" style="stroke: green; stroke-width: 0.200000"/>
   <line x1="801.427734" y1="1185.655518" x2="790.827026" y2="1185.655518" style="stroke: green; stroke-width: 0.200000"/>
   <line x1="801.427734" y1="1184.655518" x2="789.911133" y2="1184.655518" style="stroke: green; stroke-width: 0.200000"/>
   <line x1="801.427734" y1="1183.655518" x2="789.049194" y2="1183.655518" style="stroke: green; stroke-width: 0.200000"/>
   <line x1="801.427734" y1="1182.655518" x2="788.207703" y2="1182.655518" style="stroke: green; stroke-width: 0.200000"/>
   <line x1="801.427734" y1="1181.655518" x2="787.366272" y2="1181.655518" style="stroke: green; stroke-width: 0.200000"/>
   <line x1="827.531372" y1="1219.655518" x2="825.364014" y2="1219.655518" style="stroke: green; stroke-width: 0.200000"/>
   <line x1="827.913757" y1="1218.655518" x2="824.947449" y2="1218.655518" style="stroke: green; stroke-width: 0.200000"/>
   <line x1="828.296143" y1="1217.655518" x2="824.591187" y2="1217.655518" style="stroke: green; stroke-width: 0.200000"/>
   <line x1="828.784912" y1="1216.655518" x2="824.305298" y2="1216.655518" style="stroke: green; stroke-width: 0.200000"/>
   <line x1="829.462036" y1="1215.655518" x2="824.021667" y2="1215.655518" style="stroke: green; stroke-width: 0.200000"/>
   <line x1="830.139221" y1="1214.655518" x2="823.738037" y2="1214.655518" style="stroke: green; stroke-width: 0.200000"/>
   <line x1="830.816528" y1="1213.655518" x2="823.454468" y2="1213.655518" style="stroke: green; stroke-width: 0.200000"/>
   <line x1="831.493652" y1="1212.655518" x2="823.170837" y2="1212.655518" style="stroke: green; stroke-width: 0.200000"/>
   <line x1="832.170776" y1="1211.655518" x2="822.887207" y2="1211.655518" style="stroke: green; stroke-width: 0.200000"/>
   <line x1="832.848022" y1="1210.655518" x2="822.603638" y2="1210.655518" style="stroke: green; stroke-width: 0.200000"/>
   <line x1="833.525269" y1="1209.655518" x2="822.319946" y2="1209.655518" style="stroke: green; stroke-width: 0.200000"/>
   <line x1="834.202637" y1="1208.655518" x2="822.036377" y2="1208.655518" style="stroke: green; stroke-width: 0.200000"/>
   <line x1="834.879761" y1="1207.655518" x2="821.752808" y2="1207.655518" style="stroke: green; stroke-width: 0.200000"/>
   <line x1="843.688110" y1="1206.655518" x2="843.000183" y2="1206.655518" style="stroke: green; stroke-width: 0.200000"/>
   <line x1="835.556946" y1="1206.655518" x2="821.469116" y2="1206.655518" style="stroke: green; stroke-width: 0.200000"/>
   <line x1="836.234131" y1="1205.655518" x2="821.185425" y2="1205.655518" style="stroke: green; stroke-width: 0.200000"/>
   <line x1="844.019897" y1="1205.655518" x2="840.546265" y2="1205.655518" style="stroke: green; stroke-width: 0.200000"/>
   <line x1="836.911255" y1="1204.655518" x2="820.901855" y2="1204.655518" style="stroke: green; stroke-width: 0.200000"/>
   <line x1="844.351807" y1="1204.655518" x2="838.092651" y2="1204.655518" style="stroke: green; stroke-width: 0.200000"/>
   <line x1="844.915649" y1="1203.655518" x2="820.498169" y2="1203.655518" style="stroke: green; stroke-width: 0.200000"/>
   <line x1="845.614136" y1="1202.655518" x2="820.175842" y2="1202.655518" style="stroke: green; stroke-width: 0.200000"/>
   <line x1="846.312622" y1="1201.655518" x2="819.853516" y2="1201.655518" style="stroke: green; stroke-width: 0.200000"/>
   <line x1="847.010498" y1="1200.655518" x2="819.531250" y2="1200.655518" style="stroke: green; stroke-width: 0.200000"/>
   <line x1="847.419189" y1="1199.655518" x2="818.857483" y2="1199.655518" style="stroke: green; stroke-width: 0.200000"/>
   <line x1="847.771362" y1="1198.655518" x2="817.392822" y2="1198.655518" style="stroke: green; stroke-width: 0.200000"/>
   <line x1="805.553528" y1="1197.655518" x2="804.425354" y2="1197.655518" style="stroke: green; stroke-width: 0.200000"/>
   <line x1="848.123779" y1="1197.655518" x2="815.928101" y2="1197.655518" style="stroke: green; stroke-width: 0.200000"/>
   <line x1="806.891602" y1="1196.655518" x2="803.156860" y2="1196.655518" style="stroke: green; stroke-width: 0.200000"/>
   <line x1="848.476074" y1="1196.655518" x2="814.463440" y2="1196.655518" style="stroke: green; stroke-width: 0.200000"/>
   <line x1="808.229736" y1="1195.655518" x2="801.725159" y2="1195.655518" style="stroke: green; stroke-width: 0.200000"/>
   <line x1="849.295105" y1="1195.655518" x2="812.998657" y2="1195.655518" style="stroke: green; stroke-width: 0.200000"/>
   <line x1="850.223938" y1="1194.655518" x2="811.533813" y2="1194.655518" style="stroke: green; stroke-width: 0.200000"/>
   <line x1="809.567993" y1="1194.655518" x2="801.527771" y2="1194.655518" style="stroke: green; stroke-width: 0.200000"/>
   <line x1="851.152466" y1="1193.655518" x2="801.527771" y2="1193.655518" style="stroke: green; stroke-width: 0.200000"/>
   <line x1="851.527771" y1="1192.655518" x2="801.527771" y2="1192.655518" style="stroke: green; stroke-width: 0.200000"/>
   <line x1="851.527771" y1="1191.655518" x2="801.527771" y2="1191.655518" style="stroke: green; stroke-width: 0.200000"/>
   <line x1="851.527771" y1="1190.655518" x2="801.527771" y2="1190.655518" style="stroke: green; stroke-width: 0.200000"/>
   <line x1="851.527771" y1="1189.655518" x2="801.527771" y2="1189.655518" style="stroke: green; stroke-width: 0.200000"/>
   <line x1="851.527771" y1="1188.655518" x2="801.527771" y2="1188.655518" style="stroke: green; stroke-width: 0.200000"/>
   <line x1="851.527771" y1="1187.655518" x2="801.527771" y2="1187.655518" style="stroke: green; stroke-width: 0.200000"/>
   <line x1="851.527771" y1="1186.655518" x2="801.527771" y2="1186.655518" style="stroke: green; stroke-width: 0.200000"/>
   <line x1="851.527771" y1="1185.655518" x2="801.527771" y2="1185.655518" style="stroke: green; stroke-width: 0.200000"/>
   <line x1="851.527771" y1="1184.655518" x2="801.527771" y2="1184.655518" style="stroke: green; stroke-width: 0.200000"/>
   <line x1="851.527771" y1="1183.655518" x2="801.527771" y2="1183.655518" style="stroke: green; stroke-width: 0.200000"/>
   <line x1="851.527771" y1="1182.655518" x2="801.527771" y2="1182.655518" style="stroke: green; stroke-width: 0.200000"/>
   <line x1="851.527771" y1="1181.655518" x2="801.527771" y2="1181.655518" style="stroke: green; stroke-width: 0.200000"/>
   <line x1="852.081299" y1="1192.655518" x2="851.627808" y2="1192.655518" style="stroke: green; stroke-width: 0.200000"/>
   <line x1="853.010132" y1="1191.655518" x2="851.627808" y2="1191.655518" style="stroke: green; stroke-width: 0.200000"/>
   <line x1="853.964844" y1="1190.655518" x2="851.627808" y2="1190.655518" style="stroke: green; stroke-width: 0.200000"/>
   <line x1="854.966736" y1="1189.655518" x2="851.627808" y2="1189.655518" style="stroke: green; stroke-width: 0.200000"/>
   <line x1="856.611328" y1="1188.655518" x2="851.627808" y2="1188.655518" style="stroke: green; stroke-width: 0.200000"/>
   <line x1="858.491516" y1="1187.655518" x2="851.627808" y2="1187.655518" style="stroke: green; stroke-width: 0.200000"/>
   <line x1="860.371643" y1="1186.655518" x2="851.627808" y2="1186.655518" style="stroke: green; stroke-width: 0.200000"/>
   <line x1="862.251831" y1="1185.655518" x2="851.627808" y2="1185.655518" style="stroke: green; stroke-width: 0.200000"/>
   <line x1="864.233521" y1="1184.655518" x2="851.627808" y2="1184.655518" style="stroke: green; stroke-width: 0.200000"/>
   <line x1="866.417725" y1="1183.655518" x2="851.627808" y2="1183.655518" style="stroke: green; stroke-width: 0.200000"/>
   <line x1="870.144531" y1="1182.655518" x2="851.627808" y2="1182.655518" style="stroke: green; stroke-width: 0.200000"/>
   <line x1="873.577148" y1="1181.655518" x2="851.627808" y2="1181.655518" style="stroke: green; stroke-width: 0.200000"/>
   <line x1="827.074341" y1="1236.427002" x2="825.333313" y2="1236.427002" style="stroke: green; stroke-width: 0.200000"/>
   <line x1="828.261658" y1="1235.427002" x2="824.012390" y2="1235.427002" style="stroke: green; stroke-width: 0.200000"/>
   <line x1="829.448853" y1="1234.427002" x2="822.691345" y2="1234.427002" style="stroke: green; stroke-width: 0.200000"/>
   <line x1="830.636108" y1="1233.427002" x2="821.370361" y2="1233.427002" style="stroke: green; stroke-width: 0.200000"/>
   <line x1="831.823425" y1="1232.427002" x2="820.049438" y2="1232.427002" style="stroke: green; stroke-width: 0.200000"/>
   <line x1="833.010742" y1="1231.427002" x2="818.728394" y2="1231.427002" style="stroke: green; stroke-width: 0.200000"/>
   <line x1="834.197937" y1="1230.427002" x2="818.301514" y2="1230.427002" style="stroke: green; stroke-width: 0.200000"/>
   <line x1="834.948975" y1="1229.427002" x2="817.941589" y2="1229.427002" style="stroke: green; stroke-width: 0.200000"/>
   <line x1="835.331360" y1="1228.427002" x2="817.572144" y2="1228.427002" style="stroke: green; stroke-width: 0.200000"/>
   <line x1="835.713623" y1="1227.427002" x2="817.215942" y2="1227.427002" style="stroke: green; stroke-width: 0.200000"/>
   <line x1="836.096069" y1="1226.427002" x2="816.859802" y2="1226.427002" style="stroke: green; stroke-width: 0.200000"/>
   <line x1="836.478394" y1="1225.427002" x2="816.503601" y2="1225.427002" style="stroke: green; stroke-width: 0.200000"/>
   <line x1="836.860718" y1="1224.427002" x2="816.147400" y2="1224.427002" style="stroke: green; stroke-width: 0.200000"/>
   <line x1="837.243103" y1="1223.427002" x2="815.791260" y2="1223.427002" style="stroke: green; stroke-width: 0.200000"/>
   <line x1="837.625488" y1="1222.427002" x2="815.435059" y2="1222.427002" style="stroke: green; stroke-width: 0.200000"/>
   <line x1="838.042358" y1="1221.427002" x2="815.078796" y2="1221.427002" style="stroke: green; stroke-width: 0.200000"/>
   <line x1="838.719543" y1="1220.427002" x2="826.706299" y2="1220.427002" style="stroke: green; stroke-width: 0.200000"/>
   <line x1="826.331116" y1="1220.427002" x2="814.794617" y2="1220.427002" style="stroke: green; stroke-width: 0.200000"/>
   <line x1="825.222107" y1="1219.427002" x2="814.553345" y2="1219.427002" style="stroke: green; stroke-width: 0.200000"/>
   <line x1="839.396729" y1="1219.427002" x2="827.618896" y2="1219.427002" style="stroke: green; stroke-width: 0.200000"/>
   <line x1="824.865967" y1="1218.427002" x2="814.312134" y2="1218.427002" style="stroke: green; stroke-width: 0.200000"/>
   <line x1="840.073853" y1="1218.427002" x2="828.001160" y2="1218.427002" style="stroke: green; stroke-width: 0.200000"/>
   <line x1="824.523987" y1="1217.427002" x2="814.070801" y2="1217.427002" style="stroke: green; stroke-width: 0.200000"/>
   <line x1="840.751038" y1="1217.427002" x2="828.383545" y2="1217.427002" style="stroke: green; stroke-width: 0.200000"/>
   <line x1="824.240356" y1="1216.427002" x2="813.829590" y2="1216.427002" style="stroke: green; stroke-width: 0.200000"/>
   <line x1="840.931763" y1="1216.427002" x2="828.939758" y2="1216.427002" style="stroke: green; stroke-width: 0.200000"/>
   <line x1="841.112427" y1="1215.427002" x2="829.616943" y2="1215.427002" style="stroke: green; stroke-width: 0.200000"/>
   <line x1="823.956787" y1="1215.427002" x2="813.586365" y2="1215.427002" style="stroke: green; stroke-width: 0.200000"/>
   <line x1="823.673157" y1="1214.427002" x2="813.302734" y2="1214.427002" style="stroke: green; stroke-width: 0.200000"/>
   <line x1="841.293213" y1="1214.427002" x2="830.294067" y2="1214.427002" style="stroke: green; stroke-width: 0.200000"/>
   <line x1="841.484863" y1="1213.427002" x2="830.971375" y2="1213.427002" style="stroke: green; stroke-width: 0.200000"/>
   <line x1="823.389587" y1="1213.427002" x2="813.019104" y2="1213.427002" style="stroke: green; stroke-width: 0.200000"/>
   <line x1="823.105957" y1="1212.427002" x2="812.735474" y2="1212.427002" style="stroke: green; stroke-width: 0.200000"/>
   <line x1="841.806702" y1="1212.427002" x2="831.648499" y2="1212.427002" style="stroke: green; stroke-width: 0.200000"/>
   <line x1="842.128601" y1="1211.427002" x2="832.325684" y2="1211.427002" style="stroke: green; stroke-width: 0.200000"/>
   <line x1="822.822327" y1="1211.427002" x2="812.440430" y2="1211.427002" style="stroke: green; stroke-width: 0.200000"/>
   <line x1="842.450500" y1="1210.427002" x2="833.002930" y2="1210.427002" style="stroke: green; stroke-width: 0.200000"/>
   <line x1="822.538696" y1="1210.427002" x2="812.118042" y2="1210.427002" style="stroke: green; stroke-width: 0.200000"/>
   <line x1="842.772339" y1="1209.427002" x2="833.680054" y2="1209.427002" style="stroke: green; stroke-width: 0.200000"/>
   <line x1="822.255127" y1="1209.427002" x2="811.795715" y2="1209.427002" style="stroke: green; stroke-width: 0.200000"/>
   <line x1="821.971436" y1="1208.427002" x2="811.473389" y2="1208.427002" style="stroke: green; stroke-width: 0.200000"/>
   <line x1="843.099915" y1="1208.427002" x2="834.357422" y2="1208.427002" style="stroke: green; stroke-width: 0.200000"/>
   <line x1="843.431763" y1="1207.427002" x2="835.034668" y2="1207.427002" style="stroke: green; stroke-width: 0.200000"/>
   <line x1="821.687866" y1="1207.427002" x2="811.151062" y2="1207.427002" style="stroke: green; stroke-width: 0.200000"/>
   <line x1="842.439026" y1="1206.427002" x2="835.711792" y2="1206.427002" style="stroke: green; stroke-width: 0.200000"/>
   <line x1="821.404175" y1="1206.427002" x2="810.828796" y2="1206.427002" style="stroke: green; stroke-width: 0.200000"/>
   <line x1="839.985413" y1="1205.427002" x2="836.388916" y2="1205.427002" style="stroke: green; stroke-width: 0.200000"/>
   <line x1="821.120605" y1="1205.427002" x2="810.506470" y2="1205.427002" style="stroke: green; stroke-width: 0.200000"/>
   <line x1="837.531799" y1="1204.427002" x2="837.065918" y2="1204.427002" style="stroke: green; stroke-width: 0.200000"/>
   <line x1="820.836914" y1="1204.427002" x2="809.879639" y2="1204.427002" style="stroke: green; stroke-width: 0.200000"/>
   <line x1="820.424438" y1="1203.427002" x2="808.414978" y2="1203.427002" style="stroke: green; stroke-width: 0.200000"/>
   <line x1="820.102173" y1="1202.427002" x2="807.418274" y2="1202.427002" style="stroke: green; stroke-width: 0.200000"/>
   <line x1="819.779785" y1="1201.427002" x2="806.791016" y2="1201.427002" style="stroke: green; stroke-width: 0.200000"/>
   <line x1="819.457458" y1="1200.427002" x2="806.163696" y2="1200.427002" style="stroke: green; stroke-width: 0.200000"/>
   <line x1="818.522644" y1="1199.427002" x2="805.536438" y2="1199.427002" style="stroke: green; stroke-width: 0.200000"/>
   <line x1="817.057983" y1="1198.427002" x2="804.909180" y2="1198.427002" style="stroke: green; stroke-width: 0.200000"/>
   <line x1="815.593262" y1="1197.427002" x2="805.859375" y2="1197.427002" style="stroke: green; stroke-width: 0.200000"/>
   <line x1="814.128540" y1="1196.427002" x2="807.197510" y2="1196.427002" style="stroke: green; stroke-width: 0.200000"/>
   <line x1="812.663879" y1="1195.427002" x2="808.535767" y2="1195.427002" style="stroke: green; stroke-width: 0.200000"/>
   <line x1="811.198975" y1="1194.427002" x2="809.873962" y2="1194.427002" style="stroke: green; stroke-width: 0.200000"/>
   <line x1="875.914673" y1="1180.306641" x2="875.422119" y2="1180.306641" style="stroke: green; stroke-width: 0.200000"/>
   <line x1="878.239258" y1="1179.306763" x2="873.992615" y2="1179.306763" style="stroke: green; stroke-width: 0.200000"/>
   <line x1="880.807617" y1="1178.306763" x2="874.520813" y2="1178.306763" style="stroke: green; stroke-width: 0.200000"/>
   <line x1="883.375977" y1="1177.306763" x2="875.049072" y2="1177.306763" style="stroke: green; stroke-width: 0.200000"/>
   <line x1="886.826416" y1="1176.306641" x2="875.577148" y2="1176.306641" style="stroke: green; stroke-width: 0.200000"/>
   <line x1="887.711243" y1="1175.306641" x2="876.105347" y2="1175.306641" style="stroke: green; stroke-width: 0.200000"/>
   <line x1="888.596069" y1="1174.306763" x2="876.633545" y2="1174.306763" style="stroke: green; stroke-width: 0.200000"/>
   <line x1="889.480896" y1="1173.306763" x2="877.161743" y2="1173.306763" style="stroke: green; stroke-width: 0.200000"/>
   <line x1="890.365723" y1="1172.306763" x2="877.689758" y2="1172.306763" style="stroke: green; stroke-width: 0.200000"/>
   <line x1="891.250610" y1="1171.306641" x2="878.218018" y2="1171.306641" style="stroke: green; stroke-width: 0.200000"/>
   <line x1="891.949219" y1="1170.306641" x2="878.746277" y2="1170.306641" style="stroke: green; stroke-width: 0.200000"/>
   <line x1="892.538452" y1="1169.306763" x2="879.274414" y2="1169.306763" style="stroke: green; stroke-width: 0.200000"/>
   <line x1="893.127686" y1="1168.306763" x2="879.802612" y2="1168.306763" style="stroke: green; stroke-width: 0.200000"/>
   <line x1="893.593689" y1="1167.306763" x2="880.330750" y2="1167.306763" style="stroke: green; stroke-width: 0.200000"/>
   <line x1="893.705566" y1="1166.306641" x2="880.858887" y2="1166.306641" style="stroke: green; stroke-width: 0.200000"/>
   <line x1="893.817627" y1="1165.306641" x2="881.387085" y2="1165.306641" style="stroke: green; stroke-width: 0.200000"/>
   <line x1="893.929504" y1="1164.306763" x2="881.986145" y2="1164.306763" style="stroke: green; stroke-width: 0.200000"/>
   <line x1="894.041443" y1="1163.306763" x2="882.540283" y2="1163.306763" style="stroke: green; stroke-width: 0.200000"/>
   <line x1="894.153381" y1="1162.306763" x2="882.918091" y2="1162.306763" style="stroke: green; stroke-width: 0.200000"/>
   <line x1="894.265381" y1="1161.306641" x2="883.295776" y2="1161.306641" style="stroke: green; stroke-width: 0.200000"/>
   <line x1="894.377319" y1="1160.306641" x2="883.673584" y2="1160.306641" style="stroke: green; stroke-width: 0.200000"/>
   <line x1="894.489197" y1="1159.306763" x2="884.051270" y2="1159.306763" style="stroke: green; stroke-width: 0.200000"/>
   <line x1="894.558350" y1="1158.306763" x2="884.429077" y2="1158.306763" style="stroke: green; stroke-width: 0.200000"/>
   <line x1="894.422241" y1="1157.306763" x2="884.806885" y2="1157.306763" style="stroke: green; stroke-width: 0.200000"/>
   <line x1="894.286133" y1="1156.306641" x2="885.184692" y2="1156.306641" style="stroke: green; stroke-width: 0.200000"/>
   <line x1="894.150024" y1="1155.306641" x2="885.562439" y2="1155.306641" style="stroke: green; stroke-width: 0.200000"/>
   <line x1="894.013916" y1="1154.306763" x2="885.940247" y2="1154.306763" style="stroke: green; stroke-width: 0.200000"/>
   <line x1="893.877808" y1="1153.306763" x2="886.318054" y2="1153.306763" style="stroke: green; stroke-width: 0.200000"/>
   <line x1="893.741760" y1="1152.306763" x2="886.695862" y2="1152.306763" style="stroke: green; stroke-width: 0.200000"/>
   <line x1="893.605652" y1="1151.306641" x2="887.073608" y2="1151.306641" style="stroke: green; stroke-width: 0.200000"/>
   <line x1="893.469543" y1="1150.306641" x2="887.451416" y2="1150.306641" style="stroke: green; stroke-width: 0.200000"/>
   <line x1="891.636108" y1="1149.306763" x2="887.829041" y2="1149.306763" style="stroke: green; stroke-width: 0.200000"/>
   <line x1="892.772217" y1="1149.377686" x2="891.931213" y2="1149.377686" style="stroke: green; stroke-width: 0.200000"/>
   <path d="M 885.836  1178.35  884.726  1178.39  877.071  1181.37  873.56  1183.4  867.478  1184.82  864.169  1186.33  856.601  1190.36  856.039  1190.7  854.689  1192.05  849.854  1197.26  848.471  1201.18  845.828  1204.97  844.337  1209.46  842.918  1213.87  842.76  1214.74  " style="fill: none; stroke: darkmagenta; stroke-width: 0.200000; fill-type: evenodd"  fill-opacity="1.000000" />
   <path d="M 842.76  1214.74  842.171  1218.01  839.302  1222.24  835.975  1230.94  835.48  1231.31  827.321  1238.18  826.518  1239.15  825.248  1238.24  817.344  1232.26  816.751  1230.53  816.218  1229.1  813.506  1221.48  812.148  1215.85  811.1  1212.16  809  1205.64  806.665  1204.05  806.66  1204.04  " style="fill: none; stroke: red; stroke-width: 0.200000; fill-type: evenodd"  fill-opacity="1.000000" />
   <path d="M 806.66  1204.04  803.189  1198.51  799.909  1196.22  796.269  1192.44  792.149  1189.32  788.532  1185.37  785.873  1182.21  780.801  1174.87  780.035  1173.68  776.764  1168.26  774.377  1164.4  768.381  1154.99  765.646  1149.83  763.64  1147.06  761.408  1143.53  758.556  1139.11  755.903  1134.22  753.698  1130.21  751.11  1123.81  749.95  1121.1  749.927  1119.13  750.268  1111.21  750.39  1107.8  751.279  1102.11  752.21  1094.83  752.674  1091.87  755.012  1083.98  755.31  1082.16  757.155  1076.45  758.651  1072.82  759.24  1071.69  761.763  1064.82  762.13  1063.89  762.284  1063.55  766.64  1056.75  771.405  1050.45  772.2  1049.37  773.527  1047.97  778.787  1043.03  783.938  1039.18  786.695  1037.02  789.032  1035.55  795.544  1032.2  799.53  1030.58  806.861  1029.03  809.148  1029.09  811.833  1029.78  819.096  1031.48  824.673  1033.95  827.764  1035.92  829.496  1037.45  836.256  1042.7  838.725  1045.27  845.319  1049.63  848.111  1052.43  853.947  1057.57  855.743  1059.52  861.048  1066.74  862.055  1067.78  868.204  1074.68  869.762  1076.73  873.681  1083.38  875.502  1089.36  876.311  1092.17  876.626  1093.51  878.781  1100.71  880.43  1107.99  882.863  1117.03  883.438  1119.24  885.656  1128.08  886.392  1130.14  888.929  1137.87  890.263  1139.94  893.027  1147.33  894.276  1148.85  " style="fill: none; stroke: darkmagenta; stroke-width: 0.200000; fill-type: evenodd"  fill-opacity="1.000000" />
   <path d="M 894.276  1148.85  894.885  1149.59  896.172  1159.04  895.967  1159.58  895.02  1168.05  892.797  1171.82  887.651  1177.64  886.014  1178.35  885.836  1178.35  " style="fill: none; stroke: red; stroke-width: 0.200000; fill-type: evenodd"  fill-opacity="1.000000" />
   <path d="M 887.388  1176.43  887.049  1176.81  885.791  1177.35  884.522  1177.4  876.637  1180.47  873.189  1182.46  867.153  1183.87  863.725  1185.44  856.104  1189.49  855.416  1189.91  853.969  1191.36  848.98  1196.73  847.573  1200.72  844.925  1204.51  843.386  1209.15  841.946  1213.63  841.374  1216.79  " style="fill: none; stroke: black; stroke-width: 0.200000; fill-type: evenodd"  fill-opacity="1.000000" />
   <path d="M 841.374  1216.79  841.224  1217.62  838.409  1221.78  835.146  1230.31  834.861  1230.52  826.278  1237.75  825.841  1237.44  818.191  1231.65  817.693  1230.19  817.158  1228.75  814.466  1221.2  813.251  1216.16  " style="fill: none; stroke: red; stroke-width: 0.200000; fill-type: evenodd"  fill-opacity="1.000000" />
   <path d="M 813.251  1216.16  813.116  1215.6  812.057  1211.87  811.86  1211.25  " style="fill: none; stroke: black; stroke-width: 0.200000; fill-type: evenodd"  fill-opacity="1.000000" />
   <path d="M 811.86  1211.25  810.346  1206.56  " style="fill: none; stroke: red; stroke-width: 0.200000; fill-type: evenodd"  fill-opacity="1.000000" />
   <path d="M 810.346  1206.56  809.847  1205.01  807.401  1203.34  803.929  1197.8  800.561  1195.45  796.935  1191.69  792.825  1188.58  789.284  1184.71  786.669  1181.6  781.632  1174.31  780.883  1173.15  777.617  1167.74  775.224  1163.87  769.246  1154.49  766.497  1149.3  764.468  1146.5  762.251  1142.99  759.417  1138.6  756.781  1133.74  754.603  1129.78  752.033  1123.43  750.947  1120.89  750.928  1119.15  751.267  1111.25  751.387  1107.89  752.27  1102.25  753.2  1094.97  753.652  1092.09  755.989  1084.2  756.284  1082.4  758.094  1076.79  759.558  1073.24  760.157  1072.09  762.698  1065.17  763.05  1064.28  763.163  1064.03  767.461  1057.32  772.207  1051.05  772.968  1050.01  774.232  1048.68  779.431  1043.79  784.545  1039.97  787.271  1037.84  789.528  1036.42  795.962  1033.11  799.823  1031.54  806.953  1030.03  809.01  1030.09  811.595  1030.75  818.776  1032.43  824.199  1034.84  827.161  1036.73  828.858  1038.22  835.586  1043.44  838.081  1046.04  844.682  1050.41  847.425  1053.16  853.247  1058.28  854.969  1060.16  860.283  1067.38  861.323  1068.46  867.432  1075.31  868.93  1077.28  872.759  1083.79  874.544  1089.65  875.343  1092.42  875.659  1093.77  877.813  1100.97  879.46  1108.23  881.896  1117.28  882.469  1119.49  884.698  1128.38  885.446  1130.46  888.019  1138.3  889.364  1140.39  892.148  1147.83  893.932  1150  895.147  1158.93  894.988  1159.35  894.873  1160.37  " style="fill: none; stroke: black; stroke-width: 0.200000; fill-type: evenodd"  fill-opacity="1.000000" />
   <path d="M 894.873  1160.37  894.05  1167.73  891.984  1171.23  887.388  1176.43  " style="fill: none; stroke: red; stroke-width: 0.200000; fill-type: evenodd"  fill-opacity="1.000000" />
   <path d="M 823.099  1348.83  823.831  1349.56  824.099  1350.56  823.831  1351.56  823.099  1352.29  822.099  1352.56  821.099  1352.29  820.367  1351.56  820.099  1350.56  820.367  1349.56  821.099  1348.83  822.099  1348.56  823.099  1348.83  " style="fill: none; stroke: purple; stroke-width: 0.500000; fill-type: evenodd"  fill-opacity="1.000000" />
   <path d="M 843.099  1348.83  843.831  1349.56  844.099  1350.56  843.831  1351.56  843.099  1352.29  842.099  1352.56  841.099  1352.29  840.367  1351.56  840.099  1350.56  840.367  1349.56  841.099  1348.83  842.099  1348.56  843.099  1348.83  " style="fill: none; stroke: purple; stroke-width: 0.500000; fill-type: evenodd"  fill-opacity="1.000000" />
   <path d="M 823.099  1328.83  823.831  1329.56  824.099  1330.56  823.831  1331.56  823.099  1332.29  822.099  1332.56  821.099  1332.29  820.367  1331.56  820.099  1330.56  820.367  1329.56  821.099  1328.83  822.099  1328.56  823.099  1328.83  " style="fill: none; stroke: purple; stroke-width: 0.500000; fill-type: evenodd"  fill-opacity="1.000000" />
   <path d="M 823.099  1308.83  823.831  1309.56  824.099  1310.56  823.831  1311.56  823.099  1312.29  822.099  1312.56  821.099  1312.29  820.367  1311.56  820.099  1310.56  820.367  1309.56  821.099  1308.83  822.099  1308.56  823.099  1308.83  " style="fill: none; stroke: purple; stroke-width: 0.500000; fill-type: evenodd"  fill-opacity="1.000000" />
   <path d="M 803.099  1308.83  803.831  1309.56  804.099  1310.56  803.831  1311.56  803.099  1312.29  802.099  1312.56  801.099  1312.29  800.367  1311.56  800.099  1310.56  800.367  1309.56  801.099  1308.83  802.099  1308.56  803.099  1308.83  " style="fill: none; stroke: purple; stroke-width: 0.500000; fill-type: evenodd"  fill-opacity="1.000000" />
   <path d="M 843.099  1288.83  843.831  1289.56  844.099  1290.56  843.831  1291.56  843.099  1292.29  842.099  1292.56  841.099  1292.29  840.367  1291.56  840.099  1290.56  840.367  1289.56  841.099  1288.83  842.099  1288.56  843.099  1288.83  " style="fill: none; stroke: purple; stroke-width: 0.500000; fill-type: evenodd"  fill-opacity="1.000000" />
   <path d="M 823.099  1288.83  823.831  1289.56  824.099  1290.56  823.831  1291.56  823.099  1292.29  822.099  1292.56  821.099  1292.29  820.367  1291.56  820.099  1290.56  820.367  1289.56  821.099  1288.83  822.099  1288.56  823.099  1288.83  " style="fill: none; stroke: purple; stroke-width: 0.500000; fill-type: evenodd"  fill-opacity="1.000000" />
   <path d="M 803.099  1288.83  803.831  1289.56  804.099  1290.56  803.831  1291.56  803.099  1292.29  802.099  1292.56  801.099  1292.29  800.367  1291.56  800.099  1290.56  800.367  1289.56  801.099  1288.83  802.099  1288.56  803.099  1288.83  " style="fill: none; stroke: purple; stroke-width: 0.500000; fill-type: evenodd"  fill-opacity="1.000000" />
   <path d="M 843.099  1268.83  843.831  1269.56  844.099  1270.56  843.831  1271.56  843.099  1272.29  842.099  1272.56  841.099  1272.29  840.367  1271.56  840.099  1270.56  840.367  1269.56  841.099  1268.83  842.099  1268.56  843.099  1268.83  " style="fill: none; stroke: purple; stroke-width: 0.500000; fill-type: evenodd"  fill-opacity="1.000000" />
   <path d="M 823.099  1268.83  823.831  1269.56  824.099  1270.56  823.831  1271.56  823.099  1272.29  822.099  1272.56  821.099  1272.29  820.367  1271.56  820.099  1270.56  820.367  1269.56  821.099  1268.83  822.099  1268.56  823.099  1268.83  " style="fill: none; stroke: purple; stroke-width: 0.500000; fill-type: evenodd"  fill-opacity="1.000000" />
   <path d="M 1004.15  1246.45  1005.49  1247.47  1006.38  1248.9  1006.69  1250.56  1006.38  1252.22  1005.49  1253.65  1004.15  1254.67  1002.52  1255.13  1000.84  1254.97  999.333  1254.22  998.197  1252.98  997.588  1251.4  997.588  1249.72  998.197  1248.14  999.333  1246.9  1000.84  1246.14  1002.52  1245.99  1004.15  1246.45  " style="fill: none; stroke: purple; stroke-width: 0.500000; fill-type: evenodd"  fill-opacity="1.000000" />
   <path d="M 803.099  1248.83  803.831  1249.56  804.099  1250.56  803.831  1251.56  803.099  1252.29  802.099  1252.56  801.099  1252.29  800.367  1251.56  800.099  1250.56  800.367  1249.56  801.099  1248.83  802.099  1248.56  803.099  1248.83  " style="fill: none; stroke: purple; stroke-width: 0.500000; fill-type: evenodd"  fill-opacity="1.000000" />
   <path d="M 964.165  1226.41  965.524  1227.44  966.421  1228.89  966.734  1230.56  966.421  1232.23  965.524  1233.68  964.165  1234.71  962.527  1235.17  960.831  1235.02  959.307  1234.26  958.159  1233  957.544  1231.41  957.544  1229.71  958.159  1228.12  959.307  1226.86  960.831  1226.1  962.527  1225.94  964.165  1226.41  " style="fill: none; stroke: purple; stroke-width: 0.500000; fill-type: evenodd"  fill-opacity="1.000000" />
   <path d="M 984.15  1226.44  985.499  1227.46  986.39  1228.9  986.7  1230.56  986.39  1232.22  985.499  1233.66  984.15  1234.68  982.524  1235.14  980.84  1234.98  979.327  1234.23  978.188  1232.98  977.577  1231.4  977.577  1229.71  978.188  1228.14  979.327  1226.89  980.84  1226.13  982.524  1225.98  984.15  1226.44  " style="fill: none; stroke: purple; stroke-width: 0.500000; fill-type: evenodd"  fill-opacity="1.000000" />
   <path d="M 1004.12  1226.51  1005.45  1227.51  1006.32  1228.92  1006.63  1230.56  1006.32  1232.19  1005.45  1233.61  1004.12  1234.61  1002.52  1235.07  1000.86  1234.91  999.371  1234.17  998.25  1232.94  997.648  1231.39  997.648  1229.73  998.25  1228.18  999.371  1226.95  1000.86  1226.2  1002.52  1226.05  1004.12  1226.51  " style="fill: none; stroke: purple; stroke-width: 0.500000; fill-type: evenodd"  fill-opacity="1.000000" />
   <path d="M 1004.66  1206.12  1006.03  1207.26  1006.92  1208.8  1007.23  1210.56  1006.92  1212.31  1006.03  1213.86  1004.66  1215  1002.99  1215.61  1001.21  1215.61  999.534  1215  998.169  1213.86  997.278  1212.31  996.969  1210.56  997.278  1208.8  998.169  1207.26  999.534  1206.12  1001.21  1205.51  1002.99  1205.51  1004.66  1206.12  " style="fill: none; stroke: purple; stroke-width: 0.500000; fill-type: evenodd"  fill-opacity="1.000000" />
   <path d="M 923.692  1206.71  925.042  1207.62  925.944  1208.97  926.26  1210.56  925.944  1212.15  925.042  1213.5  923.692  1214.4  922.099  1214.72  920.507  1214.4  919.157  1213.5  918.255  1212.15  917.938  1210.56  918.255  1208.97  919.157  1207.62  920.507  1206.71  922.099  1206.4  923.692  1206.71  " style="fill: none; stroke: purple; stroke-width: 0.500000; fill-type: evenodd"  fill-opacity="1.000000" />
   <path d="M 983.678  1206.75  985.016  1207.64  985.91  1208.98  986.224  1210.56  985.91  1212.14  985.016  1213.48  983.678  1214.37  982.099  1214.68  980.521  1214.37  979.183  1213.48  978.288  1212.14  977.974  1210.56  978.288  1208.98  979.183  1207.64  980.521  1206.75  982.099  1206.43  983.678  1206.75  " style="fill: none; stroke: purple; stroke-width: 0.500000; fill-type: evenodd"  fill-opacity="1.000000" />
   <path d="M 963.289  1206.9  964.675  1207.7  965.616  1208.99  965.949  1210.56  965.616  1212.12  964.675  1213.42  963.289  1214.22  961.697  1214.39  960.175  1213.89  958.985  1212.82  958.334  1211.36  958.334  1209.76  958.985  1208.3  960.175  1207.23  961.697  1206.73  963.289  1206.9  " style="fill: none; stroke: purple; stroke-width: 0.500000; fill-type: evenodd"  fill-opacity="1.000000" />
   <path d="M 943.198  1207.18  944.479  1207.92  945.348  1209.11  945.655  1210.56  945.348  1212.01  944.479  1213.2  943.198  1213.94  941.728  1214.1  940.322  1213.64  939.223  1212.65  938.622  1211.3  938.622  1209.82  939.223  1208.47  940.322  1207.48  941.728  1207.02  943.198  1207.18  " style="fill: none; stroke: purple; stroke-width: 0.500000; fill-type: evenodd"  fill-opacity="1.000000" />
   <path d="M 963.293  1186.89  964.683  1187.69  965.627  1188.99  965.961  1190.56  965.627  1192.13  964.683  1193.43  963.293  1194.23  961.696  1194.4  960.169  1193.9  958.975  1192.83  958.322  1191.36  958.322  1189.76  958.975  1188.29  960.169  1187.21  961.696  1186.72  963.293  1186.89  " style="fill: none; stroke: purple; stroke-width: 0.500000; fill-type: evenodd"  fill-opacity="1.000000" />
   <path d="M 943.983  1188.2  944.821  1189.25  945.121  1190.56  944.821  1191.87  943.983  1192.92  942.772  1193.5  941.427  1193.5  940.216  1192.92  939.377  1191.87  939.078  1190.56  939.377  1189.25  940.216  1188.2  941.427  1187.61  942.772  1187.61  943.983  1188.2  " style="fill: none; stroke: purple; stroke-width: 0.500000; fill-type: evenodd"  fill-opacity="1.000000" />
   <path d="M 923.305  1188.47  924.187  1189.35  924.51  1190.56  924.187  1191.76  923.305  1192.65  922.099  1192.97  920.894  1192.65  920.012  1191.76  919.689  1190.56  920.012  1189.35  920.894  1188.47  922.099  1188.15  923.305  1188.47  " style="fill: none; stroke: purple; stroke-width: 0.500000; fill-type: evenodd"  fill-opacity="1.000000" />
   <path d="M 904.088  1191.71  903.248  1192.55  903.142  1192.58  904.132  1191.46  904.165  1191.42  904.088  1191.71  " style="fill: none; stroke: purple; stroke-width: 0.500000; fill-type: evenodd"  fill-opacity="1.000000" />
   <path d="M 944.317  1166.11  945.775  1167.21  946.738  1168.76  947.074  1170.56  946.738  1172.36  945.775  1173.91  944.317  1175.01  942.558  1175.51  940.738  1175.34  939.102  1174.53  937.87  1173.18  937.21  1171.47  937.21  1169.65  937.87  1167.94  939.102  1166.59  940.738  1165.77  942.558  1165.61  944.317  1166.11  " style="fill: none; stroke: purple; stroke-width: 0.500000; fill-type: evenodd"  fill-opacity="1.000000" />
   <path d="M 922.728  1173.09  922.421  1173.21  921.154  1173.05  920.956  1172.92  922.728  1173.09  " style="fill: none; stroke: purple; stroke-width: 0.500000; fill-type: evenodd"  fill-opacity="1.000000" />
   <path d="M 924.461  1169.32  924.766  1170.56  924.728  1170.71  924.435  1169.93  924.435  1169.93  924.02  1168.82  924.461  1169.32  " style="fill: none; stroke: purple; stroke-width: 0.500000; fill-type: evenodd"  fill-opacity="1.000000" />
</svg>
