<?xml version="1.0" encoding="UTF-8" standalone="yes"?>
<!DOCTYPE svg PUBLIC "-//W3C//DTD SVG 1.0//EN" "http://www.w3.org/TR/2001/REC-SVG-20010904/DTD/svg10.dtd">
<svg height="2000" width="2000" xmlns="http://www.w3.org/2000/svg" xmlns:svg="http://www.w3.org/2000/svg" xmlns:xlink="http://www.w3.org/1999/xlink">
   <marker id="endArrow" markerHeight="8" markerUnits="strokeWidth" markerWidth="10" orient="auto" refX="1" refY="5" viewBox="0 0 1000 1000">
      <polyline fill="darkblue" points="0,0 10,5 0,10 1,5" />
   </marker>
   <circle cx="1000" cy="1000" r="1" style="stroke:black; fill: red" />
   <circle cx="1000" cy="1000" r="800" style="stroke:black; fill: none" />
   <line x1="787.224609" y1="1115.298340" x2="787.224609" y2="1129.226074" style="stroke: green; stroke-width: 0.200000"/>
   <line x1="788.224609" y1="1111.466675" x2="788.224609" y2="1129.226074" style="stroke: green; stroke-width: 0.200000"/>
   <line x1="789.224609" y1="1108.538696" x2="789.224609" y2="1129.226074" style="stroke: green; stroke-width: 0.200000"/>
   <line x1="790.224609" y1="1106.231201" x2="790.224609" y2="1129.226074" style="stroke: green; stroke-width: 0.200000"/>
   <line x1="791.224609" y1="1103.923584" x2="791.224609" y2="1129.226074" style="stroke: green; stroke-width: 0.200000"/>
   <line x1="792.224609" y1="1101.616089" x2="792.224609" y2="1129.226074" style="stroke: green; stroke-width: 0.200000"/>
   <line x1="793.224609" y1="1099.356445" x2="793.224609" y2="1129.226074" style="stroke: green; stroke-width: 0.200000"/>
   <line x1="794.224609" y1="1097.669189" x2="794.224609" y2="1129.226074" style="stroke: green; stroke-width: 0.200000"/>
   <line x1="795.224609" y1="1096.167358" x2="795.224609" y2="1129.226074" style="stroke: green; stroke-width: 0.200000"/>
   <line x1="796.224609" y1="1094.665527" x2="796.224609" y2="1129.226074" style="stroke: green; stroke-width: 0.200000"/>
   <line x1="797.224609" y1="1093.163818" x2="797.224609" y2="1129.226074" style="stroke: green; stroke-width: 0.200000"/>
   <line x1="798.224609" y1="1091.661987" x2="798.224609" y2="1129.226074" style="stroke: green; stroke-width: 0.200000"/>
   <line x1="799.224609" y1="1090.160156" x2="799.224609" y2="1129.226074" style="stroke: green; stroke-width: 0.200000"/>
   <line x1="800.224609" y1="1089.091553" x2="800.224609" y2="1129.226074" style="stroke: green; stroke-width: 0.200000"/>
   <line x1="801.224609" y1="1088.143066" x2="801.224609" y2="1129.226074" style="stroke: green; stroke-width: 0.200000"/>
   <line x1="802.224609" y1="1087.194580" x2="802.224609" y2="1129.226074" style="stroke: green; stroke-width: 0.200000"/>
   <line x1="803.224609" y1="1086.579468" x2="803.224609" y2="1129.226074" style="stroke: green; stroke-width: 0.200000"/>
   <line x1="804.224609" y1="1085.990112" x2="804.224609" y2="1129.226074" style="stroke: green; stroke-width: 0.200000"/>
   <line x1="805.224609" y1="1085.400635" x2="805.224609" y2="1129.226074" style="stroke: green; stroke-width: 0.200000"/>
   <line x1="806.224609" y1="1084.811279" x2="806.224609" y2="1129.226074" style="stroke: green; stroke-width: 0.200000"/>
   <line x1="807.224609" y1="1084.221924" x2="807.224609" y2="1129.226074" style="stroke: green; stroke-width: 0.200000"/>
   <line x1="808.224609" y1="1083.632446" x2="808.224609" y2="1129.226074" style="stroke: green; stroke-width: 0.200000"/>
   <line x1="809.224609" y1="1083.043091" x2="809.224609" y2="1129.226074" style="stroke: green; stroke-width: 0.200000"/>
   <line x1="810.224609" y1="1082.530029" x2="810.224609" y2="1129.226074" style="stroke: green; stroke-width: 0.200000"/>
   <line x1="811.224609" y1="1082.136353" x2="811.224609" y2="1129.226074" style="stroke: green; stroke-width: 0.200000"/>
   <line x1="812.224609" y1="1081.742554" x2="812.224609" y2="1129.226074" style="stroke: green; stroke-width: 0.200000"/>
   <line x1="813.224609" y1="1081.436157" x2="813.224609" y2="1129.226074" style="stroke: green; stroke-width: 0.200000"/>
   <line x1="814.224609" y1="1081.194580" x2="814.224609" y2="1129.226074" style="stroke: green; stroke-width: 0.200000"/>
   <line x1="815.224609" y1="1080.989014" x2="815.224609" y2="1129.226074" style="stroke: green; stroke-width: 0.200000"/>
   <line x1="816.224609" y1="1080.783447" x2="816.224609" y2="1129.226074" style="stroke: green; stroke-width: 0.200000"/>
   <line x1="817.224609" y1="1080.577881" x2="817.224609" y2="1129.226074" style="stroke: green; stroke-width: 0.200000"/>
   <line x1="818.224609" y1="1080.372314" x2="818.224609" y2="1129.226074" style="stroke: green; stroke-width: 0.200000"/>
   <line x1="819.224609" y1="1080.166748" x2="819.224609" y2="1129.226074" style="stroke: green; stroke-width: 0.200000"/>
   <line x1="820.224609" y1="1079.961182" x2="820.224609" y2="1129.226074" style="stroke: green; stroke-width: 0.200000"/>
   <line x1="821.224609" y1="1079.760620" x2="821.224609" y2="1129.226074" style="stroke: green; stroke-width: 0.200000"/>
   <line x1="822.224609" y1="1079.586670" x2="822.224609" y2="1129.226074" style="stroke: green; stroke-width: 0.200000"/>
   <line x1="823.224609" y1="1079.412598" x2="823.224609" y2="1129.226074" style="stroke: green; stroke-width: 0.200000"/>
   <line x1="824.224609" y1="1079.238525" x2="824.224609" y2="1129.226074" style="stroke: green; stroke-width: 0.200000"/>
   <line x1="825.224609" y1="1079.230469" x2="825.224609" y2="1129.226074" style="stroke: green; stroke-width: 0.200000"/>
   <line x1="826.224609" y1="1079.238525" x2="826.224609" y2="1129.226074" style="stroke: green; stroke-width: 0.200000"/>
   <line x1="827.224609" y1="1079.327515" x2="827.224609" y2="1129.226074" style="stroke: green; stroke-width: 0.200000"/>
   <line x1="828.224609" y1="1079.416626" x2="828.224609" y2="1129.226074" style="stroke: green; stroke-width: 0.200000"/>
   <line x1="829.224609" y1="1079.505615" x2="829.224609" y2="1129.226074" style="stroke: green; stroke-width: 0.200000"/>
   <line x1="830.224609" y1="1079.594604" x2="830.224609" y2="1129.226074" style="stroke: green; stroke-width: 0.200000"/>
   <line x1="831.224609" y1="1079.683594" x2="831.224609" y2="1129.226074" style="stroke: green; stroke-width: 0.200000"/>
   <line x1="832.224609" y1="1079.772705" x2="832.224609" y2="1129.226074" style="stroke: green; stroke-width: 0.200000"/>
   <line x1="833.224609" y1="1079.861694" x2="833.224609" y2="1129.226074" style="stroke: green; stroke-width: 0.200000"/>
   <line x1="834.224609" y1="1079.950684" x2="834.224609" y2="1129.226074" style="stroke: green; stroke-width: 0.200000"/>
   <line x1="835.224609" y1="1080.119385" x2="835.224609" y2="1129.226074" style="stroke: green; stroke-width: 0.200000"/>
   <line x1="786.224609" y1="1119.365601" x2="786.224609" y2="1128.045898" style="stroke: green; stroke-width: 0.200000"/>
   <line x1="836.224609" y1="1080.294678" x2="836.224609" y2="1129.226074" style="stroke: green; stroke-width: 0.200000"/>
   <line x1="837.224609" y1="1080.469971" x2="837.224609" y2="1129.226074" style="stroke: green; stroke-width: 0.200000"/>
   <line x1="838.224609" y1="1080.645264" x2="838.224609" y2="1129.226074" style="stroke: green; stroke-width: 0.200000"/>
   <line x1="839.224609" y1="1080.820557" x2="839.224609" y2="1129.226074" style="stroke: green; stroke-width: 0.200000"/>
   <line x1="840.224609" y1="1080.995972" x2="840.224609" y2="1129.226074" style="stroke: green; stroke-width: 0.200000"/>
   <line x1="841.224609" y1="1081.171265" x2="841.224609" y2="1129.226074" style="stroke: green; stroke-width: 0.200000"/>
   <line x1="842.224609" y1="1081.419800" x2="842.224609" y2="1129.226074" style="stroke: green; stroke-width: 0.200000"/>
   <line x1="843.224609" y1="1081.816284" x2="843.224609" y2="1129.226074" style="stroke: green; stroke-width: 0.200000"/>
   <line x1="844.224609" y1="1082.177490" x2="844.224609" y2="1129.226074" style="stroke: green; stroke-width: 0.200000"/>
   <line x1="845.224609" y1="1082.548706" x2="845.224609" y2="1129.226074" style="stroke: green; stroke-width: 0.200000"/>
   <line x1="846.224609" y1="1083.023193" x2="846.224609" y2="1129.226074" style="stroke: green; stroke-width: 0.200000"/>
   <line x1="847.224609" y1="1083.511963" x2="847.224609" y2="1129.226074" style="stroke: green; stroke-width: 0.200000"/>
   <line x1="848.224609" y1="1084.021606" x2="848.224609" y2="1129.226074" style="stroke: green; stroke-width: 0.200000"/>
   <line x1="849.224609" y1="1084.531250" x2="849.224609" y2="1129.226074" style="stroke: green; stroke-width: 0.200000"/>
   <line x1="850.224609" y1="1085.041016" x2="850.224609" y2="1129.226074" style="stroke: green; stroke-width: 0.200000"/>
   <line x1="851.224609" y1="1085.550659" x2="851.224609" y2="1129.226074" style="stroke: green; stroke-width: 0.200000"/>
   <line x1="852.224609" y1="1086.060303" x2="852.224609" y2="1129.226074" style="stroke: green; stroke-width: 0.200000"/>
   <line x1="853.224609" y1="1086.569946" x2="853.224609" y2="1129.226074" style="stroke: green; stroke-width: 0.200000"/>
   <line x1="854.224609" y1="1087.349976" x2="854.224609" y2="1129.226074" style="stroke: green; stroke-width: 0.200000"/>
   <line x1="855.224609" y1="1088.534302" x2="855.224609" y2="1129.226074" style="stroke: green; stroke-width: 0.200000"/>
   <line x1="856.224609" y1="1089.718628" x2="856.224609" y2="1129.226074" style="stroke: green; stroke-width: 0.200000"/>
   <line x1="857.224609" y1="1090.952393" x2="857.224609" y2="1129.226074" style="stroke: green; stroke-width: 0.200000"/>
   <line x1="858.224609" y1="1092.476196" x2="858.224609" y2="1129.226074" style="stroke: green; stroke-width: 0.200000"/>
   <line x1="859.224609" y1="1094.000000" x2="859.224609" y2="1129.226074" style="stroke: green; stroke-width: 0.200000"/>
   <line x1="860.224609" y1="1095.523804" x2="860.224609" y2="1129.226074" style="stroke: green; stroke-width: 0.200000"/>
   <line x1="861.224609" y1="1097.726196" x2="861.224609" y2="1129.226074" style="stroke: green; stroke-width: 0.200000"/>
   <line x1="862.224609" y1="1100.686279" x2="862.224609" y2="1129.226074" style="stroke: green; stroke-width: 0.200000"/>
   <line x1="863.224609" y1="1104.177002" x2="863.224609" y2="1129.226074" style="stroke: green; stroke-width: 0.200000"/>
   <line x1="864.224609" y1="1108.014404" x2="864.224609" y2="1129.226074" style="stroke: green; stroke-width: 0.200000"/>
   <line x1="865.224609" y1="1110.922852" x2="865.224609" y2="1129.226074" style="stroke: green; stroke-width: 0.200000"/>
   <line x1="866.224609" y1="1116.217407" x2="866.224609" y2="1129.226074" style="stroke: green; stroke-width: 0.200000"/>
   <line x1="867.224609" y1="1119.879028" x2="867.224609" y2="1129.226074" style="stroke: green; stroke-width: 0.200000"/>
   <line x1="868.224609" y1="1122.351318" x2="868.224609" y2="1129.226074" style="stroke: green; stroke-width: 0.200000"/>
   <line x1="869.224609" y1="1125.106567" x2="869.224609" y2="1129.226074" style="stroke: green; stroke-width: 0.200000"/>
   <line x1="870.224609" y1="1127.630127" x2="870.224609" y2="1129.226074" style="stroke: green; stroke-width: 0.200000"/>
   <line x1="871.224609" y1="1129.200562" x2="871.224609" y2="1129.226074" style="stroke: green; stroke-width: 0.200000"/>
   <line x1="803.224609" y1="1129.326050" x2="803.224609" y2="1179.326050" style="stroke: green; stroke-width: 0.200000"/>
   <line x1="804.224609" y1="1129.326050" x2="804.224609" y2="1179.326050" style="stroke: green; stroke-width: 0.200000"/>
   <line x1="805.224609" y1="1129.326050" x2="805.224609" y2="1179.326050" style="stroke: green; stroke-width: 0.200000"/>
   <line x1="806.224609" y1="1129.326050" x2="806.224609" y2="1179.326050" style="stroke: green; stroke-width: 0.200000"/>
   <line x1="807.224609" y1="1129.326050" x2="807.224609" y2="1179.326050" style="stroke: green; stroke-width: 0.200000"/>
   <line x1="808.224609" y1="1129.326050" x2="808.224609" y2="1179.326050" style="stroke: green; stroke-width: 0.200000"/>
   <line x1="809.224609" y1="1129.326050" x2="809.224609" y2="1179.326050" style="stroke: green; stroke-width: 0.200000"/>
   <line x1="810.224609" y1="1129.326050" x2="810.224609" y2="1179.326050" style="stroke: green; stroke-width: 0.200000"/>
   <line x1="811.224609" y1="1129.326050" x2="811.224609" y2="1179.326050" style="stroke: green; stroke-width: 0.200000"/>
   <line x1="812.224609" y1="1129.326050" x2="812.224609" y2="1179.326050" style="stroke: green; stroke-width: 0.200000"/>
   <line x1="813.224609" y1="1129.326050" x2="813.224609" y2="1179.326050" style="stroke: green; stroke-width: 0.200000"/>
   <line x1="814.224609" y1="1129.326050" x2="814.224609" y2="1179.326050" style="stroke: green; stroke-width: 0.200000"/>
   <line x1="815.224609" y1="1129.326050" x2="815.224609" y2="1179.326050" style="stroke: green; stroke-width: 0.200000"/>
   <line x1="816.224609" y1="1129.326050" x2="816.224609" y2="1179.326050" style="stroke: green; stroke-width: 0.200000"/>
   <line x1="817.224609" y1="1129.326050" x2="817.224609" y2="1179.326050" style="stroke: green; stroke-width: 0.200000"/>
   <line x1="818.224609" y1="1129.326050" x2="818.224609" y2="1179.326050" style="stroke: green; stroke-width: 0.200000"/>
   <line x1="819.224609" y1="1129.326050" x2="819.224609" y2="1179.326050" style="stroke: green; stroke-width: 0.200000"/>
   <line x1="820.224609" y1="1129.326050" x2="820.224609" y2="1179.326050" style="stroke: green; stroke-width: 0.200000"/>
   <line x1="821.224609" y1="1129.326050" x2="821.224609" y2="1179.326050" style="stroke: green; stroke-width: 0.200000"/>
   <line x1="822.224609" y1="1129.326050" x2="822.224609" y2="1179.326050" style="stroke: green; stroke-width: 0.200000"/>
   <line x1="823.224609" y1="1129.326050" x2="823.224609" y2="1179.326050" style="stroke: green; stroke-width: 0.200000"/>
   <line x1="824.224609" y1="1129.326050" x2="824.224609" y2="1179.326050" style="stroke: green; stroke-width: 0.200000"/>
   <line x1="825.224609" y1="1129.326050" x2="825.224609" y2="1179.326050" style="stroke: green; stroke-width: 0.200000"/>
   <line x1="826.224609" y1="1129.326050" x2="826.224609" y2="1179.326050" style="stroke: green; stroke-width: 0.200000"/>
   <line x1="827.224609" y1="1129.326050" x2="827.224609" y2="1179.326050" style="stroke: green; stroke-width: 0.200000"/>
   <line x1="828.224609" y1="1129.326050" x2="828.224609" y2="1179.326050" style="stroke: green; stroke-width: 0.200000"/>
   <line x1="829.224609" y1="1129.326050" x2="829.224609" y2="1179.326050" style="stroke: green; stroke-width: 0.200000"/>
   <line x1="830.224609" y1="1129.326050" x2="830.224609" y2="1179.326050" style="stroke: green; stroke-width: 0.200000"/>
   <line x1="831.224609" y1="1129.326050" x2="831.224609" y2="1179.326050" style="stroke: green; stroke-width: 0.200000"/>
   <line x1="832.224609" y1="1129.326050" x2="832.224609" y2="1179.326050" style="stroke: green; stroke-width: 0.200000"/>
   <line x1="833.224609" y1="1129.326050" x2="833.224609" y2="1179.326050" style="stroke: green; stroke-width: 0.200000"/>
   <line x1="834.224609" y1="1176.666748" x2="834.224609" y2="1177.864746" style="stroke: green; stroke-width: 0.200000"/>
   <line x1="802.224609" y1="1129.326050" x2="802.224609" y2="1177.064575" style="stroke: green; stroke-width: 0.200000"/>
   <line x1="834.224609" y1="1129.326050" x2="834.224609" y2="1169.965820" style="stroke: green; stroke-width: 0.200000"/>
   <line x1="801.224609" y1="1129.326050" x2="801.224609" y2="1168.351562" style="stroke: green; stroke-width: 0.200000"/>
   <line x1="835.224609" y1="1129.326050" x2="835.224609" y2="1166.948364" style="stroke: green; stroke-width: 0.200000"/>
   <line x1="800.224609" y1="1129.326050" x2="800.224609" y2="1164.462769" style="stroke: green; stroke-width: 0.200000"/>
   <line x1="799.224609" y1="1129.326050" x2="799.224609" y2="1160.946045" style="stroke: green; stroke-width: 0.200000"/>
   <line x1="798.224609" y1="1129.326050" x2="798.224609" y2="1158.950806" style="stroke: green; stroke-width: 0.200000"/>
   <line x1="797.224609" y1="1129.326050" x2="797.224609" y2="1156.955566" style="stroke: green; stroke-width: 0.200000"/>
   <line x1="796.224609" y1="1129.326050" x2="796.224609" y2="1154.960327" style="stroke: green; stroke-width: 0.200000"/>
   <line x1="795.224609" y1="1129.326050" x2="795.224609" y2="1152.977417" style="stroke: green; stroke-width: 0.200000"/>
   <line x1="794.224609" y1="1129.326050" x2="794.224609" y2="1151.326172" style="stroke: green; stroke-width: 0.200000"/>
   <line x1="793.224609" y1="1129.326050" x2="793.224609" y2="1149.847656" style="stroke: green; stroke-width: 0.200000"/>
   <line x1="792.224609" y1="1129.326050" x2="792.224609" y2="1148.200195" style="stroke: green; stroke-width: 0.200000"/>
   <line x1="791.224609" y1="1129.326050" x2="791.224609" y2="1146.191650" style="stroke: green; stroke-width: 0.200000"/>
   <line x1="790.224609" y1="1129.326050" x2="790.224609" y2="1144.183105" style="stroke: green; stroke-width: 0.200000"/>
   <line x1="789.224609" y1="1129.326050" x2="789.224609" y2="1141.711426" style="stroke: green; stroke-width: 0.200000"/>
   <line x1="788.224609" y1="1129.326050" x2="788.224609" y2="1138.557129" style="stroke: green; stroke-width: 0.200000"/>
   <line x1="787.224609" y1="1129.326050" x2="787.224609" y2="1135.402710" style="stroke: green; stroke-width: 0.200000"/>
   <line x1="867.224609" y1="1129.326050" x2="867.224609" y2="1179.326050" style="stroke: green; stroke-width: 0.200000"/>
   <line x1="868.224609" y1="1129.326050" x2="868.224609" y2="1179.326050" style="stroke: green; stroke-width: 0.200000"/>
   <line x1="869.224609" y1="1129.326050" x2="869.224609" y2="1179.326050" style="stroke: green; stroke-width: 0.200000"/>
   <line x1="870.224609" y1="1129.326050" x2="870.224609" y2="1179.326050" style="stroke: green; stroke-width: 0.200000"/>
   <line x1="871.224609" y1="1129.326050" x2="871.224609" y2="1179.326050" style="stroke: green; stroke-width: 0.200000"/>
   <line x1="872.224609" y1="1131.199829" x2="872.224609" y2="1179.326050" style="stroke: green; stroke-width: 0.200000"/>
   <line x1="873.224609" y1="1133.199219" x2="873.224609" y2="1179.326050" style="stroke: green; stroke-width: 0.200000"/>
   <line x1="874.224609" y1="1135.198486" x2="874.224609" y2="1179.326050" style="stroke: green; stroke-width: 0.200000"/>
   <line x1="875.224609" y1="1136.538696" x2="875.224609" y2="1179.326050" style="stroke: green; stroke-width: 0.200000"/>
   <line x1="876.224609" y1="1136.896484" x2="876.224609" y2="1179.326050" style="stroke: green; stroke-width: 0.200000"/>
   <line x1="877.224609" y1="1137.254272" x2="877.224609" y2="1179.326050" style="stroke: green; stroke-width: 0.200000"/>
   <line x1="878.224609" y1="1137.653442" x2="878.224609" y2="1179.326050" style="stroke: green; stroke-width: 0.200000"/>
   <line x1="879.224609" y1="1138.080933" x2="879.224609" y2="1179.326050" style="stroke: green; stroke-width: 0.200000"/>
   <line x1="880.224609" y1="1138.508423" x2="880.224609" y2="1179.326050" style="stroke: green; stroke-width: 0.200000"/>
   <line x1="881.224609" y1="1139.124268" x2="881.224609" y2="1179.326050" style="stroke: green; stroke-width: 0.200000"/>
   <line x1="882.224609" y1="1139.758423" x2="882.224609" y2="1179.326050" style="stroke: green; stroke-width: 0.200000"/>
   <line x1="883.224609" y1="1140.392456" x2="883.224609" y2="1179.326050" style="stroke: green; stroke-width: 0.200000"/>
   <line x1="884.224609" y1="1141.026611" x2="884.224609" y2="1179.326050" style="stroke: green; stroke-width: 0.200000"/>
   <line x1="885.224609" y1="1141.660767" x2="885.224609" y2="1179.326050" style="stroke: green; stroke-width: 0.200000"/>
   <line x1="866.224609" y1="1129.326050" x2="866.224609" y2="1179.113159" style="stroke: green; stroke-width: 0.200000"/>
   <line x1="865.224609" y1="1129.326050" x2="865.224609" y2="1178.412598" style="stroke: green; stroke-width: 0.200000"/>
   <line x1="864.224609" y1="1129.326050" x2="864.224609" y2="1177.712158" style="stroke: green; stroke-width: 0.200000"/>
   <line x1="863.224609" y1="1129.326050" x2="863.224609" y2="1177.011475" style="stroke: green; stroke-width: 0.200000"/>
   <line x1="862.224609" y1="1129.326050" x2="862.224609" y2="1176.311157" style="stroke: green; stroke-width: 0.200000"/>
   <line x1="861.224609" y1="1129.326050" x2="861.224609" y2="1175.262695" style="stroke: green; stroke-width: 0.200000"/>
   <line x1="860.224609" y1="1129.326050" x2="860.224609" y2="1173.956909" style="stroke: green; stroke-width: 0.200000"/>
   <line x1="859.224609" y1="1129.326050" x2="859.224609" y2="1172.751465" style="stroke: green; stroke-width: 0.200000"/>
   <line x1="858.224609" y1="1129.326050" x2="858.224609" y2="1171.546265" style="stroke: green; stroke-width: 0.200000"/>
   <line x1="857.224609" y1="1129.326050" x2="857.224609" y2="1170.341064" style="stroke: green; stroke-width: 0.200000"/>
   <line x1="856.224609" y1="1129.326050" x2="856.224609" y2="1169.674805" style="stroke: green; stroke-width: 0.200000"/>
   <line x1="855.224609" y1="1129.326050" x2="855.224609" y2="1169.198730" style="stroke: green; stroke-width: 0.200000"/>
   <line x1="854.224609" y1="1129.326050" x2="854.224609" y2="1168.722778" style="stroke: green; stroke-width: 0.200000"/>
   <line x1="853.224609" y1="1129.326050" x2="853.224609" y2="1168.246704" style="stroke: green; stroke-width: 0.200000"/>
   <line x1="852.224609" y1="1129.326050" x2="852.224609" y2="1167.770752" style="stroke: green; stroke-width: 0.200000"/>
   <line x1="851.224609" y1="1129.326050" x2="851.224609" y2="1167.081055" style="stroke: green; stroke-width: 0.200000"/>
   <line x1="836.224609" y1="1129.326050" x2="836.224609" y2="1166.529297" style="stroke: green; stroke-width: 0.200000"/>
   <line x1="850.224609" y1="1129.326050" x2="850.224609" y2="1166.353149" style="stroke: green; stroke-width: 0.200000"/>
   <line x1="837.224609" y1="1129.326050" x2="837.224609" y2="1166.110107" style="stroke: green; stroke-width: 0.200000"/>
   <line x1="838.224609" y1="1129.326050" x2="838.224609" y2="1165.690918" style="stroke: green; stroke-width: 0.200000"/>
   <line x1="849.224609" y1="1129.326050" x2="849.224609" y2="1165.625244" style="stroke: green; stroke-width: 0.200000"/>
   <line x1="839.224609" y1="1129.326050" x2="839.224609" y2="1165.271729" style="stroke: green; stroke-width: 0.200000"/>
   <line x1="848.224609" y1="1129.326050" x2="848.224609" y2="1164.897339" style="stroke: green; stroke-width: 0.200000"/>
   <line x1="840.224609" y1="1129.326050" x2="840.224609" y2="1164.852539" style="stroke: green; stroke-width: 0.200000"/>
   <line x1="841.224609" y1="1129.326050" x2="841.224609" y2="1164.433472" style="stroke: green; stroke-width: 0.200000"/>
   <line x1="847.224609" y1="1129.326050" x2="847.224609" y2="1164.169434" style="stroke: green; stroke-width: 0.200000"/>
   <line x1="842.224609" y1="1129.326050" x2="842.224609" y2="1164.014282" style="stroke: green; stroke-width: 0.200000"/>
   <line x1="843.224609" y1="1129.326050" x2="843.224609" y2="1163.595093" style="stroke: green; stroke-width: 0.200000"/>
   <line x1="846.224609" y1="1129.326050" x2="846.224609" y2="1163.441528" style="stroke: green; stroke-width: 0.200000"/>
   <line x1="844.224609" y1="1129.326050" x2="844.224609" y2="1163.176025" style="stroke: green; stroke-width: 0.200000"/>
   <line x1="845.224609" y1="1129.326050" x2="845.224609" y2="1162.756836" style="stroke: green; stroke-width: 0.200000"/>
   <line x1="887.224609" y1="1142.839600" x2="887.224609" y2="1179.326050" style="stroke: green; stroke-width: 0.200000"/>
   <line x1="888.224609" y1="1143.425781" x2="888.224609" y2="1179.326050" style="stroke: green; stroke-width: 0.200000"/>
   <line x1="889.224609" y1="1143.893555" x2="889.224609" y2="1179.326050" style="stroke: green; stroke-width: 0.200000"/>
   <line x1="890.224609" y1="1144.343384" x2="890.224609" y2="1179.326050" style="stroke: green; stroke-width: 0.200000"/>
   <line x1="891.224609" y1="1144.792969" x2="891.224609" y2="1179.326050" style="stroke: green; stroke-width: 0.200000"/>
   <line x1="892.224609" y1="1145.242554" x2="892.224609" y2="1179.326050" style="stroke: green; stroke-width: 0.200000"/>
   <line x1="893.224609" y1="1145.692139" x2="893.224609" y2="1179.326050" style="stroke: green; stroke-width: 0.200000"/>
   <line x1="894.224609" y1="1146.147583" x2="894.224609" y2="1179.326050" style="stroke: green; stroke-width: 0.200000"/>
   <line x1="895.224609" y1="1146.641602" x2="895.224609" y2="1179.326050" style="stroke: green; stroke-width: 0.200000"/>
   <line x1="896.224609" y1="1147.135742" x2="896.224609" y2="1179.326050" style="stroke: green; stroke-width: 0.200000"/>
   <line x1="897.224609" y1="1147.629883" x2="897.224609" y2="1179.326050" style="stroke: green; stroke-width: 0.200000"/>
   <line x1="898.224609" y1="1148.124023" x2="898.224609" y2="1179.326050" style="stroke: green; stroke-width: 0.200000"/>
   <line x1="899.224609" y1="1148.634521" x2="899.224609" y2="1179.326050" style="stroke: green; stroke-width: 0.200000"/>
   <line x1="900.224609" y1="1149.252075" x2="900.224609" y2="1179.326050" style="stroke: green; stroke-width: 0.200000"/>
   <line x1="901.224609" y1="1149.869507" x2="901.224609" y2="1179.326050" style="stroke: green; stroke-width: 0.200000"/>
   <line x1="902.224609" y1="1150.487061" x2="902.224609" y2="1179.326050" style="stroke: green; stroke-width: 0.200000"/>
   <line x1="903.224609" y1="1151.040527" x2="903.224609" y2="1179.326050" style="stroke: green; stroke-width: 0.200000"/>
   <line x1="904.224609" y1="1151.490479" x2="904.224609" y2="1179.326050" style="stroke: green; stroke-width: 0.200000"/>
   <line x1="905.224609" y1="1151.940552" x2="905.224609" y2="1179.326050" style="stroke: green; stroke-width: 0.200000"/>
   <line x1="906.224609" y1="1152.390381" x2="906.224609" y2="1179.326050" style="stroke: green; stroke-width: 0.200000"/>
   <line x1="907.224609" y1="1152.840454" x2="907.224609" y2="1179.326050" style="stroke: green; stroke-width: 0.200000"/>
   <line x1="908.224609" y1="1153.290405" x2="908.224609" y2="1179.326050" style="stroke: green; stroke-width: 0.200000"/>
   <line x1="909.224609" y1="1153.740479" x2="909.224609" y2="1179.326050" style="stroke: green; stroke-width: 0.200000"/>
   <line x1="910.224609" y1="1154.190430" x2="910.224609" y2="1179.326050" style="stroke: green; stroke-width: 0.200000"/>
   <line x1="911.224609" y1="1154.648315" x2="911.224609" y2="1179.326050" style="stroke: green; stroke-width: 0.200000"/>
   <line x1="912.224609" y1="1155.126831" x2="912.224609" y2="1179.326050" style="stroke: green; stroke-width: 0.200000"/>
   <line x1="913.224609" y1="1155.715576" x2="913.224609" y2="1179.326050" style="stroke: green; stroke-width: 0.200000"/>
   <line x1="914.224609" y1="1156.304565" x2="914.224609" y2="1179.326050" style="stroke: green; stroke-width: 0.200000"/>
   <line x1="915.224609" y1="1156.893921" x2="915.224609" y2="1179.326050" style="stroke: green; stroke-width: 0.200000"/>
   <line x1="916.224609" y1="1157.482788" x2="916.224609" y2="1179.326050" style="stroke: green; stroke-width: 0.200000"/>
   <line x1="917.224609" y1="1158.071655" x2="917.224609" y2="1179.326050" style="stroke: green; stroke-width: 0.200000"/>
   <line x1="918.224609" y1="1158.660522" x2="918.224609" y2="1179.326050" style="stroke: green; stroke-width: 0.200000"/>
   <line x1="919.224609" y1="1159.249390" x2="919.224609" y2="1179.326050" style="stroke: green; stroke-width: 0.200000"/>
   <line x1="920.224609" y1="1159.838257" x2="920.224609" y2="1179.326050" style="stroke: green; stroke-width: 0.200000"/>
   <line x1="921.224609" y1="1160.256836" x2="921.224609" y2="1179.326050" style="stroke: green; stroke-width: 0.200000"/>
   <line x1="922.224609" y1="1160.852295" x2="922.224609" y2="1179.326050" style="stroke: green; stroke-width: 0.200000"/>
   <line x1="923.224609" y1="1161.448608" x2="923.224609" y2="1179.326050" style="stroke: green; stroke-width: 0.200000"/>
   <line x1="924.224609" y1="1162.074219" x2="924.224609" y2="1179.326050" style="stroke: green; stroke-width: 0.200000"/>
   <line x1="925.224609" y1="1162.714600" x2="925.224609" y2="1179.326050" style="stroke: green; stroke-width: 0.200000"/>
   <line x1="926.224609" y1="1163.354980" x2="926.224609" y2="1179.326050" style="stroke: green; stroke-width: 0.200000"/>
   <line x1="927.224609" y1="1163.995239" x2="927.224609" y2="1179.326050" style="stroke: green; stroke-width: 0.200000"/>
   <line x1="928.224609" y1="1164.635498" x2="928.224609" y2="1179.326050" style="stroke: green; stroke-width: 0.200000"/>
   <line x1="929.224609" y1="1165.276001" x2="929.224609" y2="1179.326050" style="stroke: green; stroke-width: 0.200000"/>
   <line x1="930.224609" y1="1165.942749" x2="930.224609" y2="1179.326050" style="stroke: green; stroke-width: 0.200000"/>
   <line x1="931.224609" y1="1166.809204" x2="931.224609" y2="1179.326050" style="stroke: green; stroke-width: 0.200000"/>
   <line x1="932.224609" y1="1167.551147" x2="932.224609" y2="1179.326050" style="stroke: green; stroke-width: 0.200000"/>
   <line x1="933.224609" y1="1168.293213" x2="933.224609" y2="1179.326050" style="stroke: green; stroke-width: 0.200000"/>
   <line x1="934.224609" y1="1169.035400" x2="934.224609" y2="1179.326050" style="stroke: green; stroke-width: 0.200000"/>
   <line x1="935.224609" y1="1169.777344" x2="935.224609" y2="1179.326050" style="stroke: green; stroke-width: 0.200000"/>
   <line x1="936.224609" y1="1170.519409" x2="936.224609" y2="1179.326050" style="stroke: green; stroke-width: 0.200000"/>
   <line x1="937.224609" y1="1171.261108" x2="937.224609" y2="1179.326050" style="stroke: green; stroke-width: 0.200000"/>
   <line x1="938.224609" y1="1172.094238" x2="938.224609" y2="1179.326050" style="stroke: green; stroke-width: 0.200000"/>
   <line x1="939.224609" y1="1172.959961" x2="939.224609" y2="1178.262451" style="stroke: green; stroke-width: 0.200000"/>
   <line x1="940.224609" y1="1173.825806" x2="940.224609" y2="1177.185303" style="stroke: green; stroke-width: 0.200000"/>
   <line x1="941.224609" y1="1174.691650" x2="941.224609" y2="1176.108154" style="stroke: green; stroke-width: 0.200000"/>
   <line x1="801.224609" y1="1198.197754" x2="801.224609" y2="1229.426147" style="stroke: green; stroke-width: 0.200000"/>
   <line x1="802.224609" y1="1187.575195" x2="802.224609" y2="1229.426147" style="stroke: green; stroke-width: 0.200000"/>
   <line x1="803.224609" y1="1179.426147" x2="803.224609" y2="1229.426147" style="stroke: green; stroke-width: 0.200000"/>
   <line x1="804.224609" y1="1179.426147" x2="804.224609" y2="1229.426147" style="stroke: green; stroke-width: 0.200000"/>
   <line x1="805.224609" y1="1179.426147" x2="805.224609" y2="1229.426147" style="stroke: green; stroke-width: 0.200000"/>
   <line x1="806.224609" y1="1179.426147" x2="806.224609" y2="1229.426147" style="stroke: green; stroke-width: 0.200000"/>
   <line x1="807.224609" y1="1179.426147" x2="807.224609" y2="1229.426147" style="stroke: green; stroke-width: 0.200000"/>
   <line x1="808.224609" y1="1179.426147" x2="808.224609" y2="1229.426147" style="stroke: green; stroke-width: 0.200000"/>
   <line x1="809.224609" y1="1179.426147" x2="809.224609" y2="1229.426147" style="stroke: green; stroke-width: 0.200000"/>
   <line x1="810.224609" y1="1179.426147" x2="810.224609" y2="1229.426147" style="stroke: green; stroke-width: 0.200000"/>
   <line x1="811.224609" y1="1179.426147" x2="811.224609" y2="1229.426147" style="stroke: green; stroke-width: 0.200000"/>
   <line x1="812.224609" y1="1179.426147" x2="812.224609" y2="1229.426147" style="stroke: green; stroke-width: 0.200000"/>
   <line x1="813.224609" y1="1179.426147" x2="813.224609" y2="1229.426147" style="stroke: green; stroke-width: 0.200000"/>
   <line x1="814.224609" y1="1179.426147" x2="814.224609" y2="1229.426147" style="stroke: green; stroke-width: 0.200000"/>
   <line x1="815.224609" y1="1179.426147" x2="815.224609" y2="1229.426147" style="stroke: green; stroke-width: 0.200000"/>
   <line x1="816.224609" y1="1179.426147" x2="816.224609" y2="1229.426147" style="stroke: green; stroke-width: 0.200000"/>
   <line x1="817.224609" y1="1179.426147" x2="817.224609" y2="1229.426147" style="stroke: green; stroke-width: 0.200000"/>
   <line x1="818.224609" y1="1179.426147" x2="818.224609" y2="1229.426147" style="stroke: green; stroke-width: 0.200000"/>
   <line x1="819.224609" y1="1179.426147" x2="819.224609" y2="1229.426147" style="stroke: green; stroke-width: 0.200000"/>
   <line x1="820.224609" y1="1179.426147" x2="820.224609" y2="1229.426147" style="stroke: green; stroke-width: 0.200000"/>
   <line x1="821.224609" y1="1179.426147" x2="821.224609" y2="1229.426147" style="stroke: green; stroke-width: 0.200000"/>
   <line x1="822.224609" y1="1179.426147" x2="822.224609" y2="1229.426147" style="stroke: green; stroke-width: 0.200000"/>
   <line x1="823.224609" y1="1179.426147" x2="823.224609" y2="1229.426147" style="stroke: green; stroke-width: 0.200000"/>
   <line x1="824.224609" y1="1179.426147" x2="824.224609" y2="1229.426147" style="stroke: green; stroke-width: 0.200000"/>
   <line x1="825.224609" y1="1179.426147" x2="825.224609" y2="1229.426147" style="stroke: green; stroke-width: 0.200000"/>
   <line x1="826.224609" y1="1179.426147" x2="826.224609" y2="1229.426147" style="stroke: green; stroke-width: 0.200000"/>
   <line x1="827.224609" y1="1179.426147" x2="827.224609" y2="1229.426147" style="stroke: green; stroke-width: 0.200000"/>
   <line x1="828.224609" y1="1179.426147" x2="828.224609" y2="1229.426147" style="stroke: green; stroke-width: 0.200000"/>
   <line x1="829.224609" y1="1179.426147" x2="829.224609" y2="1229.426147" style="stroke: green; stroke-width: 0.200000"/>
   <line x1="830.224609" y1="1179.426147" x2="830.224609" y2="1229.426147" style="stroke: green; stroke-width: 0.200000"/>
   <line x1="831.224609" y1="1179.426147" x2="831.224609" y2="1229.426147" style="stroke: green; stroke-width: 0.200000"/>
   <line x1="832.224609" y1="1179.426147" x2="832.224609" y2="1229.426147" style="stroke: green; stroke-width: 0.200000"/>
   <line x1="833.224609" y1="1184.964844" x2="833.224609" y2="1229.426147" style="stroke: green; stroke-width: 0.200000"/>
   <line x1="834.224609" y1="1188.424316" x2="834.224609" y2="1229.426147" style="stroke: green; stroke-width: 0.200000"/>
   <line x1="835.224609" y1="1191.883667" x2="835.224609" y2="1229.426147" style="stroke: green; stroke-width: 0.200000"/>
   <line x1="800.224609" y1="1211.810913" x2="800.224609" y2="1224.274170" style="stroke: green; stroke-width: 0.200000"/>
   <line x1="800.224609" y1="1203.908447" x2="800.224609" y2="1208.996338" style="stroke: green; stroke-width: 0.200000"/>
   <line x1="833.224609" y1="1179.426147" x2="833.224609" y2="1184.245972" style="stroke: green; stroke-width: 0.200000"/>
   <line x1="836.224609" y1="1196.901123" x2="836.224609" y2="1229.426147" style="stroke: green; stroke-width: 0.200000"/>
   <line x1="837.224609" y1="1199.970581" x2="837.224609" y2="1229.426147" style="stroke: green; stroke-width: 0.200000"/>
   <line x1="838.224609" y1="1202.592407" x2="838.224609" y2="1229.426147" style="stroke: green; stroke-width: 0.200000"/>
   <line x1="839.224609" y1="1205.214111" x2="839.224609" y2="1229.426147" style="stroke: green; stroke-width: 0.200000"/>
   <line x1="840.224609" y1="1207.835815" x2="840.224609" y2="1229.426147" style="stroke: green; stroke-width: 0.200000"/>
   <line x1="841.224609" y1="1210.457642" x2="841.224609" y2="1229.426147" style="stroke: green; stroke-width: 0.200000"/>
   <line x1="842.224609" y1="1213.193237" x2="842.224609" y2="1229.426147" style="stroke: green; stroke-width: 0.200000"/>
   <line x1="843.224609" y1="1216.742065" x2="843.224609" y2="1229.426147" style="stroke: green; stroke-width: 0.200000"/>
   <line x1="844.224609" y1="1220.540039" x2="844.224609" y2="1229.426147" style="stroke: green; stroke-width: 0.200000"/>
   <line x1="845.224609" y1="1224.338135" x2="845.224609" y2="1229.426147" style="stroke: green; stroke-width: 0.200000"/>
   <line x1="885.224609" y1="1179.426147" x2="885.224609" y2="1191.890869" style="stroke: green; stroke-width: 0.200000"/>
   <line x1="884.224609" y1="1179.426147" x2="884.224609" y2="1191.322632" style="stroke: green; stroke-width: 0.200000"/>
   <line x1="883.224609" y1="1179.426147" x2="883.224609" y2="1190.754395" style="stroke: green; stroke-width: 0.200000"/>
   <line x1="882.224609" y1="1179.426147" x2="882.224609" y2="1190.186279" style="stroke: green; stroke-width: 0.200000"/>
   <line x1="881.224609" y1="1179.426147" x2="881.224609" y2="1189.618042" style="stroke: green; stroke-width: 0.200000"/>
   <line x1="880.224609" y1="1179.426147" x2="880.224609" y2="1189.049805" style="stroke: green; stroke-width: 0.200000"/>
   <line x1="879.224609" y1="1179.426147" x2="879.224609" y2="1188.481445" style="stroke: green; stroke-width: 0.200000"/>
   <line x1="878.224609" y1="1179.426147" x2="878.224609" y2="1187.751953" style="stroke: green; stroke-width: 0.200000"/>
   <line x1="877.224609" y1="1179.426147" x2="877.224609" y2="1187.047607" style="stroke: green; stroke-width: 0.200000"/>
   <line x1="876.224609" y1="1179.426147" x2="876.224609" y2="1186.395508" style="stroke: green; stroke-width: 0.200000"/>
   <line x1="875.224609" y1="1179.426147" x2="875.224609" y2="1185.743652" style="stroke: green; stroke-width: 0.200000"/>
   <line x1="874.224609" y1="1179.426147" x2="874.224609" y2="1185.091675" style="stroke: green; stroke-width: 0.200000"/>
   <line x1="873.224609" y1="1179.426147" x2="873.224609" y2="1184.439575" style="stroke: green; stroke-width: 0.200000"/>
   <line x1="872.224609" y1="1179.426147" x2="872.224609" y2="1183.787720" style="stroke: green; stroke-width: 0.200000"/>
   <line x1="871.224609" y1="1179.426147" x2="871.224609" y2="1183.135742" style="stroke: green; stroke-width: 0.200000"/>
   <line x1="870.224609" y1="1179.426147" x2="870.224609" y2="1182.323120" style="stroke: green; stroke-width: 0.200000"/>
   <line x1="869.224609" y1="1179.426147" x2="869.224609" y2="1181.411011" style="stroke: green; stroke-width: 0.200000"/>
   <line x1="868.224609" y1="1179.426147" x2="868.224609" y2="1180.514282" style="stroke: green; stroke-width: 0.200000"/>
   <line x1="867.224609" y1="1179.426147" x2="867.224609" y2="1179.813721" style="stroke: green; stroke-width: 0.200000"/>
   <line x1="920.224609" y1="1179.426147" x2="920.224609" y2="1205.032349" style="stroke: green; stroke-width: 0.200000"/>
   <line x1="919.224609" y1="1179.426147" x2="919.224609" y2="1204.893311" style="stroke: green; stroke-width: 0.200000"/>
   <line x1="918.224609" y1="1179.426147" x2="918.224609" y2="1204.754272" style="stroke: green; stroke-width: 0.200000"/>
   <line x1="917.224609" y1="1179.426147" x2="917.224609" y2="1204.615234" style="stroke: green; stroke-width: 0.200000"/>
   <line x1="916.224609" y1="1179.426147" x2="916.224609" y2="1204.476196" style="stroke: green; stroke-width: 0.200000"/>
   <line x1="915.224609" y1="1179.426147" x2="915.224609" y2="1204.286743" style="stroke: green; stroke-width: 0.200000"/>
   <line x1="914.224609" y1="1179.426147" x2="914.224609" y2="1204.028442" style="stroke: green; stroke-width: 0.200000"/>
   <line x1="913.224609" y1="1179.426147" x2="913.224609" y2="1203.770264" style="stroke: green; stroke-width: 0.200000"/>
   <line x1="912.224609" y1="1179.426147" x2="912.224609" y2="1203.512085" style="stroke: green; stroke-width: 0.200000"/>
   <line x1="911.224609" y1="1179.426147" x2="911.224609" y2="1203.152344" style="stroke: green; stroke-width: 0.200000"/>
   <line x1="910.224609" y1="1179.426147" x2="910.224609" y2="1202.762573" style="stroke: green; stroke-width: 0.200000"/>
   <line x1="909.224609" y1="1179.426147" x2="909.224609" y2="1202.372681" style="stroke: green; stroke-width: 0.200000"/>
   <line x1="908.224609" y1="1179.426147" x2="908.224609" y2="1201.982788" style="stroke: green; stroke-width: 0.200000"/>
   <line x1="907.224609" y1="1179.426147" x2="907.224609" y2="1201.593018" style="stroke: green; stroke-width: 0.200000"/>
   <line x1="906.224609" y1="1179.426147" x2="906.224609" y2="1201.203247" style="stroke: green; stroke-width: 0.200000"/>
   <line x1="905.224609" y1="1179.426147" x2="905.224609" y2="1200.824951" style="stroke: green; stroke-width: 0.200000"/>
   <line x1="904.224609" y1="1179.426147" x2="904.224609" y2="1200.446533" style="stroke: green; stroke-width: 0.200000"/>
   <line x1="903.224609" y1="1179.426147" x2="903.224609" y2="1200.068237" style="stroke: green; stroke-width: 0.200000"/>
   <line x1="902.224609" y1="1179.426147" x2="902.224609" y2="1199.689819" style="stroke: green; stroke-width: 0.200000"/>
   <line x1="901.224609" y1="1179.426147" x2="901.224609" y2="1199.311401" style="stroke: green; stroke-width: 0.200000"/>
   <line x1="900.224609" y1="1179.426147" x2="900.224609" y2="1198.933105" style="stroke: green; stroke-width: 0.200000"/>
   <line x1="899.224609" y1="1179.426147" x2="899.224609" y2="1198.554810" style="stroke: green; stroke-width: 0.200000"/>
   <line x1="898.224609" y1="1179.426147" x2="898.224609" y2="1198.123535" style="stroke: green; stroke-width: 0.200000"/>
   <line x1="897.224609" y1="1179.426147" x2="897.224609" y2="1197.652710" style="stroke: green; stroke-width: 0.200000"/>
   <line x1="896.224609" y1="1179.426147" x2="896.224609" y2="1197.205078" style="stroke: green; stroke-width: 0.200000"/>
   <line x1="921.224609" y1="1179.426147" x2="921.224609" y2="1197.072510" style="stroke: green; stroke-width: 0.200000"/>
   <line x1="922.224609" y1="1179.426147" x2="922.224609" y2="1197.000000" style="stroke: green; stroke-width: 0.200000"/>
   <line x1="923.224609" y1="1179.426147" x2="923.224609" y2="1196.927612" style="stroke: green; stroke-width: 0.200000"/>
   <line x1="924.224609" y1="1179.426147" x2="924.224609" y2="1196.855103" style="stroke: green; stroke-width: 0.200000"/>
   <line x1="925.224609" y1="1179.426147" x2="925.224609" y2="1196.782593" style="stroke: green; stroke-width: 0.200000"/>
   <line x1="895.224609" y1="1179.426147" x2="895.224609" y2="1196.757324" style="stroke: green; stroke-width: 0.200000"/>
   <line x1="926.224609" y1="1179.426147" x2="926.224609" y2="1196.710083" style="stroke: green; stroke-width: 0.200000"/>
   <line x1="927.224609" y1="1179.426147" x2="927.224609" y2="1196.637695" style="stroke: green; stroke-width: 0.200000"/>
   <line x1="928.224609" y1="1179.426147" x2="928.224609" y2="1196.565186" style="stroke: green; stroke-width: 0.200000"/>
   <line x1="929.224609" y1="1179.426147" x2="929.224609" y2="1196.492798" style="stroke: green; stroke-width: 0.200000"/>
   <line x1="930.224609" y1="1179.426147" x2="930.224609" y2="1196.420288" style="stroke: green; stroke-width: 0.200000"/>
   <line x1="931.224609" y1="1179.426147" x2="931.224609" y2="1196.347778" style="stroke: green; stroke-width: 0.200000"/>
   <line x1="894.224609" y1="1179.426147" x2="894.224609" y2="1196.309692" style="stroke: green; stroke-width: 0.200000"/>
   <line x1="932.224609" y1="1179.426147" x2="932.224609" y2="1196.275391" style="stroke: green; stroke-width: 0.200000"/>
   <line x1="933.224609" y1="1179.426147" x2="933.224609" y2="1196.202881" style="stroke: green; stroke-width: 0.200000"/>
   <line x1="934.224609" y1="1179.426147" x2="934.224609" y2="1196.005127" style="stroke: green; stroke-width: 0.200000"/>
   <line x1="893.224609" y1="1179.426147" x2="893.224609" y2="1195.862061" style="stroke: green; stroke-width: 0.200000"/>
   <line x1="935.224609" y1="1179.426147" x2="935.224609" y2="1195.796875" style="stroke: green; stroke-width: 0.200000"/>
   <line x1="936.224609" y1="1179.426147" x2="936.224609" y2="1195.588623" style="stroke: green; stroke-width: 0.200000"/>
   <line x1="892.224609" y1="1179.426147" x2="892.224609" y2="1195.414551" style="stroke: green; stroke-width: 0.200000"/>
   <line x1="891.224609" y1="1179.426147" x2="891.224609" y2="1194.966919" style="stroke: green; stroke-width: 0.200000"/>
   <line x1="890.224609" y1="1179.426147" x2="890.224609" y2="1194.519287" style="stroke: green; stroke-width: 0.200000"/>
   <line x1="889.224609" y1="1179.426147" x2="889.224609" y2="1194.071655" style="stroke: green; stroke-width: 0.200000"/>
   <line x1="888.224609" y1="1179.426147" x2="888.224609" y2="1193.624023" style="stroke: green; stroke-width: 0.200000"/>
   <line x1="887.224609" y1="1179.426147" x2="887.224609" y2="1193.027222" style="stroke: green; stroke-width: 0.200000"/>
   <line x1="937.224609" y1="1182.562744" x2="937.224609" y2="1195.380371" style="stroke: green; stroke-width: 0.200000"/>
   <line x1="938.224609" y1="1183.652222" x2="938.224609" y2="1195.172241" style="stroke: green; stroke-width: 0.200000"/>
   <line x1="939.224609" y1="1184.741455" x2="939.224609" y2="1194.964111" style="stroke: green; stroke-width: 0.200000"/>
   <line x1="940.224609" y1="1185.830933" x2="940.224609" y2="1194.755859" style="stroke: green; stroke-width: 0.200000"/>
   <line x1="941.224609" y1="1186.920410" x2="941.224609" y2="1193.772705" style="stroke: green; stroke-width: 0.200000"/>
   <line x1="942.224609" y1="1188.841553" x2="942.224609" y2="1192.601318" style="stroke: green; stroke-width: 0.200000"/>
   <line x1="937.224609" y1="1179.426147" x2="937.224609" y2="1180.416138" style="stroke: green; stroke-width: 0.200000"/>
   <line x1="811.224609" y1="1229.526123" x2="811.224609" y2="1279.526123" style="stroke: green; stroke-width: 0.200000"/>
   <line x1="812.224609" y1="1229.526123" x2="812.224609" y2="1279.526123" style="stroke: green; stroke-width: 0.200000"/>
   <line x1="813.224609" y1="1229.526123" x2="813.224609" y2="1279.526123" style="stroke: green; stroke-width: 0.200000"/>
   <line x1="814.224609" y1="1229.526123" x2="814.224609" y2="1279.526123" style="stroke: green; stroke-width: 0.200000"/>
   <line x1="815.224609" y1="1229.526123" x2="815.224609" y2="1279.526123" style="stroke: green; stroke-width: 0.200000"/>
   <line x1="816.224609" y1="1229.526123" x2="816.224609" y2="1279.526123" style="stroke: green; stroke-width: 0.200000"/>
   <line x1="817.224609" y1="1229.526123" x2="817.224609" y2="1279.526123" style="stroke: green; stroke-width: 0.200000"/>
   <line x1="818.224609" y1="1229.526123" x2="818.224609" y2="1279.526123" style="stroke: green; stroke-width: 0.200000"/>
   <line x1="819.224609" y1="1229.526123" x2="819.224609" y2="1279.526123" style="stroke: green; stroke-width: 0.200000"/>
   <line x1="820.224609" y1="1229.526123" x2="820.224609" y2="1279.526123" style="stroke: green; stroke-width: 0.200000"/>
   <line x1="821.224609" y1="1229.526123" x2="821.224609" y2="1279.526123" style="stroke: green; stroke-width: 0.200000"/>
   <line x1="822.224609" y1="1229.526123" x2="822.224609" y2="1279.526123" style="stroke: green; stroke-width: 0.200000"/>
   <line x1="823.224609" y1="1229.526123" x2="823.224609" y2="1279.526123" style="stroke: green; stroke-width: 0.200000"/>
   <line x1="824.224609" y1="1229.526123" x2="824.224609" y2="1279.526123" style="stroke: green; stroke-width: 0.200000"/>
   <line x1="825.224609" y1="1229.526123" x2="825.224609" y2="1279.526123" style="stroke: green; stroke-width: 0.200000"/>
   <line x1="826.224609" y1="1229.526123" x2="826.224609" y2="1279.526123" style="stroke: green; stroke-width: 0.200000"/>
   <line x1="827.224609" y1="1229.526123" x2="827.224609" y2="1279.526123" style="stroke: green; stroke-width: 0.200000"/>
   <line x1="828.224609" y1="1229.526123" x2="828.224609" y2="1279.526123" style="stroke: green; stroke-width: 0.200000"/>
   <line x1="829.224609" y1="1229.526123" x2="829.224609" y2="1279.526123" style="stroke: green; stroke-width: 0.200000"/>
   <line x1="830.224609" y1="1229.526123" x2="830.224609" y2="1279.526123" style="stroke: green; stroke-width: 0.200000"/>
   <line x1="831.224609" y1="1229.526123" x2="831.224609" y2="1279.526123" style="stroke: green; stroke-width: 0.200000"/>
   <line x1="832.224609" y1="1229.526123" x2="832.224609" y2="1279.526123" style="stroke: green; stroke-width: 0.200000"/>
   <line x1="833.224609" y1="1229.526123" x2="833.224609" y2="1279.526123" style="stroke: green; stroke-width: 0.200000"/>
   <line x1="834.224609" y1="1229.526123" x2="834.224609" y2="1279.526123" style="stroke: green; stroke-width: 0.200000"/>
   <line x1="835.224609" y1="1229.526123" x2="835.224609" y2="1279.526123" style="stroke: green; stroke-width: 0.200000"/>
   <line x1="810.224609" y1="1229.526123" x2="810.224609" y2="1273.093384" style="stroke: green; stroke-width: 0.200000"/>
   <line x1="809.224609" y1="1229.526123" x2="809.224609" y2="1264.664429" style="stroke: green; stroke-width: 0.200000"/>
   <line x1="808.224609" y1="1229.526123" x2="808.224609" y2="1256.130615" style="stroke: green; stroke-width: 0.200000"/>
   <line x1="807.224609" y1="1229.526123" x2="807.224609" y2="1252.015503" style="stroke: green; stroke-width: 0.200000"/>
   <line x1="806.224609" y1="1229.526123" x2="806.224609" y2="1248.168335" style="stroke: green; stroke-width: 0.200000"/>
   <line x1="805.224609" y1="1229.526123" x2="805.224609" y2="1244.831787" style="stroke: green; stroke-width: 0.200000"/>
   <line x1="804.224609" y1="1229.526123" x2="804.224609" y2="1241.853271" style="stroke: green; stroke-width: 0.200000"/>
   <line x1="803.224609" y1="1229.526123" x2="803.224609" y2="1238.922607" style="stroke: green; stroke-width: 0.200000"/>
   <line x1="802.224609" y1="1229.526123" x2="802.224609" y2="1234.666504" style="stroke: green; stroke-width: 0.200000"/>
   <line x1="801.224609" y1="1229.526123" x2="801.224609" y2="1229.682617" style="stroke: green; stroke-width: 0.200000"/>
   <line x1="836.224609" y1="1229.526123" x2="836.224609" y2="1279.526123" style="stroke: green; stroke-width: 0.200000"/>
   <line x1="837.224609" y1="1229.526123" x2="837.224609" y2="1279.526123" style="stroke: green; stroke-width: 0.200000"/>
   <line x1="838.224609" y1="1229.526123" x2="838.224609" y2="1279.526123" style="stroke: green; stroke-width: 0.200000"/>
   <line x1="839.224609" y1="1229.526123" x2="839.224609" y2="1279.526123" style="stroke: green; stroke-width: 0.200000"/>
   <line x1="840.224609" y1="1229.526123" x2="840.224609" y2="1279.526123" style="stroke: green; stroke-width: 0.200000"/>
   <line x1="841.224609" y1="1229.526123" x2="841.224609" y2="1279.526123" style="stroke: green; stroke-width: 0.200000"/>
   <line x1="842.224609" y1="1229.526123" x2="842.224609" y2="1279.526123" style="stroke: green; stroke-width: 0.200000"/>
   <line x1="843.224609" y1="1229.526123" x2="843.224609" y2="1279.526123" style="stroke: green; stroke-width: 0.200000"/>
   <line x1="844.224609" y1="1229.526123" x2="844.224609" y2="1279.526123" style="stroke: green; stroke-width: 0.200000"/>
   <line x1="845.224609" y1="1229.526123" x2="845.224609" y2="1279.526123" style="stroke: green; stroke-width: 0.200000"/>
   <line x1="846.224609" y1="1232.437866" x2="846.224609" y2="1279.230835" style="stroke: green; stroke-width: 0.200000"/>
   <line x1="847.224609" y1="1244.594971" x2="847.224609" y2="1269.842773" style="stroke: green; stroke-width: 0.200000"/>
   <line x1="821.224609" y1="1279.626099" x2="821.224609" y2="1329.626221" style="stroke: green; stroke-width: 0.200000"/>
   <line x1="822.224609" y1="1279.626099" x2="822.224609" y2="1329.626221" style="stroke: green; stroke-width: 0.200000"/>
   <line x1="823.224609" y1="1279.626099" x2="823.224609" y2="1329.626221" style="stroke: green; stroke-width: 0.200000"/>
   <line x1="824.224609" y1="1279.626099" x2="824.224609" y2="1329.626221" style="stroke: green; stroke-width: 0.200000"/>
   <line x1="825.224609" y1="1279.626099" x2="825.224609" y2="1329.626221" style="stroke: green; stroke-width: 0.200000"/>
   <line x1="826.224609" y1="1279.626099" x2="826.224609" y2="1329.626221" style="stroke: green; stroke-width: 0.200000"/>
   <line x1="827.224609" y1="1279.626099" x2="827.224609" y2="1329.626221" style="stroke: green; stroke-width: 0.200000"/>
   <line x1="828.224609" y1="1279.626099" x2="828.224609" y2="1329.626221" style="stroke: green; stroke-width: 0.200000"/>
   <line x1="829.224609" y1="1279.626099" x2="829.224609" y2="1329.626221" style="stroke: green; stroke-width: 0.200000"/>
   <line x1="830.224609" y1="1279.626099" x2="830.224609" y2="1329.626221" style="stroke: green; stroke-width: 0.200000"/>
   <line x1="831.224609" y1="1279.626099" x2="831.224609" y2="1329.626221" style="stroke: green; stroke-width: 0.200000"/>
   <line x1="832.224609" y1="1279.626099" x2="832.224609" y2="1329.626221" style="stroke: green; stroke-width: 0.200000"/>
   <line x1="833.224609" y1="1279.626099" x2="833.224609" y2="1329.626221" style="stroke: green; stroke-width: 0.200000"/>
   <line x1="834.224609" y1="1279.626099" x2="834.224609" y2="1329.626221" style="stroke: green; stroke-width: 0.200000"/>
   <line x1="835.224609" y1="1279.626099" x2="835.224609" y2="1329.626221" style="stroke: green; stroke-width: 0.200000"/>
   <line x1="820.224609" y1="1279.626099" x2="820.224609" y2="1329.386963" style="stroke: green; stroke-width: 0.200000"/>
   <line x1="819.224609" y1="1279.626099" x2="819.224609" y2="1327.530518" style="stroke: green; stroke-width: 0.200000"/>
   <line x1="818.224609" y1="1279.626099" x2="818.224609" y2="1323.500732" style="stroke: green; stroke-width: 0.200000"/>
   <line x1="817.224609" y1="1279.626099" x2="817.224609" y2="1318.187378" style="stroke: green; stroke-width: 0.200000"/>
   <line x1="816.224609" y1="1279.626099" x2="816.224609" y2="1312.572266" style="stroke: green; stroke-width: 0.200000"/>
   <line x1="815.224609" y1="1279.626099" x2="815.224609" y2="1306.839600" style="stroke: green; stroke-width: 0.200000"/>
   <line x1="814.224609" y1="1279.626099" x2="814.224609" y2="1300.395264" style="stroke: green; stroke-width: 0.200000"/>
   <line x1="813.224609" y1="1279.626099" x2="813.224609" y2="1293.580444" style="stroke: green; stroke-width: 0.200000"/>
   <line x1="812.224609" y1="1279.626099" x2="812.224609" y2="1286.824219" style="stroke: green; stroke-width: 0.200000"/>
   <line x1="811.224609" y1="1279.626099" x2="811.224609" y2="1280.332153" style="stroke: green; stroke-width: 0.200000"/>
   <line x1="836.224609" y1="1279.626099" x2="836.224609" y2="1328.958984" style="stroke: green; stroke-width: 0.200000"/>
   <line x1="837.224609" y1="1279.626099" x2="837.224609" y2="1322.105591" style="stroke: green; stroke-width: 0.200000"/>
   <line x1="838.224609" y1="1279.626099" x2="838.224609" y2="1316.867920" style="stroke: green; stroke-width: 0.200000"/>
   <line x1="839.224609" y1="1279.626099" x2="839.224609" y2="1312.226074" style="stroke: green; stroke-width: 0.200000"/>
   <line x1="840.224609" y1="1279.626099" x2="840.224609" y2="1308.906006" style="stroke: green; stroke-width: 0.200000"/>
   <line x1="841.224609" y1="1279.626099" x2="841.224609" y2="1304.905029" style="stroke: green; stroke-width: 0.200000"/>
   <line x1="842.224609" y1="1279.626099" x2="842.224609" y2="1301.032837" style="stroke: green; stroke-width: 0.200000"/>
   <line x1="843.224609" y1="1279.626099" x2="843.224609" y2="1296.930908" style="stroke: green; stroke-width: 0.200000"/>
   <line x1="844.224609" y1="1279.626099" x2="844.224609" y2="1292.745117" style="stroke: green; stroke-width: 0.200000"/>
   <line x1="845.224609" y1="1279.626099" x2="845.224609" y2="1286.911011" style="stroke: green; stroke-width: 0.200000"/>
   <line x1="835.224609" y1="1329.726074" x2="835.224609" y2="1330.898682" style="stroke: green; stroke-width: 0.200000"/>
   <line x1="834.224609" y1="1329.726074" x2="834.224609" y2="1330.834717" style="stroke: green; stroke-width: 0.200000"/>
   <line x1="833.224609" y1="1329.726074" x2="833.224609" y2="1330.770386" style="stroke: green; stroke-width: 0.200000"/>
   <line x1="832.224609" y1="1329.726074" x2="832.224609" y2="1330.706177" style="stroke: green; stroke-width: 0.200000"/>
   <line x1="831.224609" y1="1329.726074" x2="831.224609" y2="1330.642090" style="stroke: green; stroke-width: 0.200000"/>
   <line x1="830.224609" y1="1329.726074" x2="830.224609" y2="1330.577881" style="stroke: green; stroke-width: 0.200000"/>
   <line x1="829.224609" y1="1329.726074" x2="829.224609" y2="1330.513672" style="stroke: green; stroke-width: 0.200000"/>
   <line x1="828.224609" y1="1329.726074" x2="828.224609" y2="1330.449463" style="stroke: green; stroke-width: 0.200000"/>
   <line x1="827.224609" y1="1329.726074" x2="827.224609" y2="1330.385254" style="stroke: green; stroke-width: 0.200000"/>
   <line x1="826.224609" y1="1329.726074" x2="826.224609" y2="1330.321045" style="stroke: green; stroke-width: 0.200000"/>
   <line x1="825.224609" y1="1329.726074" x2="825.224609" y2="1330.256958" style="stroke: green; stroke-width: 0.200000"/>
   <line x1="824.224609" y1="1329.726074" x2="824.224609" y2="1330.192749" style="stroke: green; stroke-width: 0.200000"/>
   <line x1="823.224609" y1="1329.726074" x2="823.224609" y2="1330.128418" style="stroke: green; stroke-width: 0.200000"/>
   <line x1="822.224609" y1="1329.726074" x2="822.224609" y2="1330.064453" style="stroke: green; stroke-width: 0.200000"/>
   <line x1="821.224609" y1="1329.726074" x2="821.224609" y2="1330.000000" style="stroke: green; stroke-width: 0.200000"/>
   <line x1="831.650452" y1="1330.669556" x2="831.650452" y2="1342.195312" style="stroke: green; stroke-width: 0.200000"/>
   <line x1="830.650391" y1="1330.605347" x2="830.650391" y2="1342.028198" style="stroke: green; stroke-width: 0.200000"/>
   <line x1="832.650452" y1="1330.733643" x2="832.650452" y2="1341.898193" style="stroke: green; stroke-width: 0.200000"/>
   <line x1="829.650391" y1="1330.541016" x2="829.650391" y2="1341.861084" style="stroke: green; stroke-width: 0.200000"/>
   <line x1="828.650452" y1="1330.476807" x2="828.650452" y2="1341.694092" style="stroke: green; stroke-width: 0.200000"/>
   <line x1="827.650452" y1="1330.412720" x2="827.650452" y2="1341.526978" style="stroke: green; stroke-width: 0.200000"/>
   <line x1="826.650452" y1="1330.348511" x2="826.650452" y2="1341.359863" style="stroke: green; stroke-width: 0.200000"/>
   <line x1="825.650391" y1="1330.284424" x2="825.650391" y2="1341.192749" style="stroke: green; stroke-width: 0.200000"/>
   <line x1="824.650391" y1="1330.220215" x2="824.650391" y2="1339.231689" style="stroke: green; stroke-width: 0.200000"/>
   <line x1="833.650452" y1="1330.797852" x2="833.650452" y2="1339.063843" style="stroke: green; stroke-width: 0.200000"/>
   <line x1="823.650452" y1="1330.156006" x2="823.650452" y2="1337.107910" style="stroke: green; stroke-width: 0.200000"/>
   <line x1="834.650391" y1="1330.862061" x2="834.650391" y2="1336.229370" style="stroke: green; stroke-width: 0.200000"/>
   <line x1="822.650452" y1="1330.091797" x2="822.650452" y2="1334.777954" style="stroke: green; stroke-width: 0.200000"/>
   <line x1="835.650391" y1="1330.926270" x2="835.650391" y2="1332.310547" style="stroke: green; stroke-width: 0.200000"/>
   <line x1="821.650452" y1="1330.027588" x2="821.650452" y2="1332.283325" style="stroke: green; stroke-width: 0.200000"/>
   <line x1="820.650391" y1="1329.963379" x2="820.650391" y2="1330.101440" style="stroke: green; stroke-width: 0.200000"/>
   <line x1="930.499390" y1="1196.400391" x2="930.499390" y2="1206.379761" style="stroke: green; stroke-width: 0.200000"/>
   <line x1="931.499390" y1="1196.328003" x2="931.499390" y2="1206.367920" style="stroke: green; stroke-width: 0.200000"/>
   <line x1="929.499390" y1="1196.472900" x2="929.499390" y2="1206.313477" style="stroke: green; stroke-width: 0.200000"/>
   <line x1="932.499390" y1="1196.255615" x2="932.499390" y2="1206.295410" style="stroke: green; stroke-width: 0.200000"/>
   <line x1="928.499390" y1="1196.545410" x2="928.499390" y2="1206.247192" style="stroke: green; stroke-width: 0.200000"/>
   <line x1="933.499390" y1="1196.156128" x2="933.499390" y2="1206.223022" style="stroke: green; stroke-width: 0.200000"/>
   <line x1="927.499390" y1="1196.617920" x2="927.499390" y2="1206.180908" style="stroke: green; stroke-width: 0.200000"/>
   <line x1="934.499390" y1="1195.947998" x2="934.499390" y2="1206.150513" style="stroke: green; stroke-width: 0.200000"/>
   <line x1="926.499390" y1="1196.690430" x2="926.499390" y2="1206.114502" style="stroke: green; stroke-width: 0.200000"/>
   <line x1="925.499390" y1="1196.762817" x2="925.499390" y2="1206.033447" style="stroke: green; stroke-width: 0.200000"/>
   <line x1="935.499390" y1="1195.739868" x2="935.499390" y2="1206.002808" style="stroke: green; stroke-width: 0.200000"/>
   <line x1="924.499390" y1="1196.835205" x2="924.499390" y2="1205.837524" style="stroke: green; stroke-width: 0.200000"/>
   <line x1="936.499390" y1="1195.531494" x2="936.499390" y2="1205.794556" style="stroke: green; stroke-width: 0.200000"/>
   <line x1="923.499390" y1="1196.907715" x2="923.499390" y2="1205.641357" style="stroke: green; stroke-width: 0.200000"/>
   <line x1="937.499390" y1="1195.323364" x2="937.499390" y2="1205.586426" style="stroke: green; stroke-width: 0.200000"/>
   <line x1="922.499390" y1="1196.980225" x2="922.499390" y2="1205.445435" style="stroke: green; stroke-width: 0.200000"/>
   <line x1="938.499390" y1="1195.115112" x2="938.499390" y2="1205.378174" style="stroke: green; stroke-width: 0.200000"/>
   <line x1="921.499390" y1="1197.052612" x2="921.499390" y2="1205.249390" style="stroke: green; stroke-width: 0.200000"/>
   <line x1="939.499390" y1="1194.906982" x2="939.499390" y2="1205.219971" style="stroke: green; stroke-width: 0.200000"/>
   <line x1="940.499390" y1="1194.622314" x2="940.499390" y2="1205.104492" style="stroke: green; stroke-width: 0.200000"/>
   <line x1="941.499390" y1="1193.450928" x2="941.499390" y2="1204.989136" style="stroke: green; stroke-width: 0.200000"/>
   <line x1="942.499390" y1="1192.279541" x2="942.499390" y2="1204.873657" style="stroke: green; stroke-width: 0.200000"/>
   <line x1="943.499390" y1="1176.511475" x2="943.499390" y2="1204.758179" style="stroke: green; stroke-width: 0.200000"/>
   <line x1="944.499390" y1="1177.301270" x2="944.499390" y2="1204.642700" style="stroke: green; stroke-width: 0.200000"/>
   <line x1="945.499390" y1="1178.091064" x2="945.499390" y2="1204.304932" style="stroke: green; stroke-width: 0.200000"/>
   <line x1="946.499390" y1="1178.880981" x2="946.499390" y2="1203.829956" style="stroke: green; stroke-width: 0.200000"/>
   <line x1="947.499390" y1="1179.670898" x2="947.499390" y2="1203.354980" style="stroke: green; stroke-width: 0.200000"/>
   <line x1="948.499390" y1="1180.460693" x2="948.499390" y2="1202.880127" style="stroke: green; stroke-width: 0.200000"/>
   <line x1="949.499390" y1="1181.250610" x2="949.499390" y2="1202.364990" style="stroke: green; stroke-width: 0.200000"/>
   <line x1="950.499390" y1="1182.040527" x2="950.499390" y2="1201.193604" style="stroke: green; stroke-width: 0.200000"/>
   <line x1="951.499390" y1="1183.035767" x2="951.499390" y2="1200.022217" style="stroke: green; stroke-width: 0.200000"/>
   <line x1="952.499390" y1="1186.345459" x2="952.499390" y2="1198.850952" style="stroke: green; stroke-width: 0.200000"/>
   <line x1="953.499390" y1="1187.739258" x2="953.499390" y2="1197.766235" style="stroke: green; stroke-width: 0.200000"/>
   <line x1="954.499390" y1="1189.133057" x2="954.499390" y2="1196.696899" style="stroke: green; stroke-width: 0.200000"/>
   <line x1="955.499390" y1="1190.526855" x2="955.499390" y2="1195.627563" style="stroke: green; stroke-width: 0.200000"/>
   <line x1="956.499390" y1="1191.920654" x2="956.499390" y2="1194.558350" style="stroke: green; stroke-width: 0.200000"/>
   <line x1="957.499390" y1="1193.314453" x2="957.499390" y2="1193.489014" style="stroke: green; stroke-width: 0.200000"/>
   <line x1="942.499390" y1="1175.721558" x2="942.499390" y2="1190.982544" style="stroke: green; stroke-width: 0.200000"/>
   <line x1="941.499390" y1="1175.812378" x2="941.499390" y2="1187.219482" style="stroke: green; stroke-width: 0.200000"/>
   <line x1="940.499390" y1="1176.889526" x2="940.499390" y2="1186.130127" style="stroke: green; stroke-width: 0.200000"/>
   <line x1="939.499390" y1="1177.966553" x2="939.499390" y2="1185.040771" style="stroke: green; stroke-width: 0.200000"/>
   <line x1="938.499390" y1="1179.043579" x2="938.499390" y2="1183.951294" style="stroke: green; stroke-width: 0.200000"/>
   <line x1="937.499390" y1="1180.120483" x2="937.499390" y2="1182.861938" style="stroke: green; stroke-width: 0.200000"/>
   <line x1="936.499390" y1="1181.197388" x2="936.499390" y2="1181.772705" style="stroke: green; stroke-width: 0.200000"/>
   <path d="M 823.665  1340.87  823.386  1340.07  821.831  1336.76  819.685  1331.41  817.898  1328.41  816.482  1322.7  815.422  1316.56  814.802  1313.16  814.218  1309.66  813.242  1304.35  812.378  1297.91  811.838  1294.53  811.121  1289.13  810.341  1284.86  810.079  1282.73  808.949  1275.44  808.412  1269.98  807.941  1266.61  806.805  1256.83  806.677  1255.87  804.482  1247.43  803.496  1244.35  801.792  1239.38  800.007  1231.78  " style="fill: none; stroke: darkmagenta; stroke-width: 0.200000; fill-type: evenodd"  fill-opacity="1.000000" />
   <path d="M 800.007  1231.78  799.921  1231.42  799.836  1230.42  798.447  1222.91  798.021  1220.22  798.078  1219.95  798.078  1219.94  " style="fill: none; stroke: red; stroke-width: 0.200000; fill-type: evenodd"  fill-opacity="1.000000" />
   <path d="M 798.078  1219.94  798.078  1219.14  798.862  1210.18  798.289  1205.6  799.613  1199.94  800.218  1190.25  800.357  1189.96  801.648  1181.21  799.829  1173.38  800.37  1171.12  799.576  1167.94  797.997  1161.84  793.987  1153.84  793.492  1152.92  791.245  1149.6  788.748  1144.58  787.852  1142.34  785.648  1135.39  784.943  1130.9  784.632  1126.91  784.59  1120.14  784.839  1118.5  786.87  1110.72  787.712  1108.26  791.783  1098.86  792.335  1097.87  792.907  1096.94  798.287  1088.86  801.388  1085.92  809.175  1081.33  812.155  1080.16  813.688  1079.77  820.784  1078.31  824.108  1077.74  826.148  1077.73  834.499  1078.47  842.304  1079.84  844.3  1080.63  845.414  1080.98  847.481  1081.96  854.775  1085.68  858.283  1089.83  862.445  1096.17  862.922  1098.57  863.898  1100.75  865.588  1107.37  867.236  1112.16  867.9  1117.55  870.22  1123.28  871.224  1126.45  872.23  1127.86  875.895  1135.19  878.179  1136  881.014  1137.21  886.143  1140.47  889.047  1142.17  894.732  1144.73  899.82  1147.24  903.547  1149.54  911.561  1153.15  912.912  1153.79  921.158  1158.65  921.527  1158.69  924.344  1160.37  931.017  1164.64  932.088  1165.58  932.615  1165.97  " style="fill: none; stroke: darkmagenta; stroke-width: 0.200000; fill-type: evenodd"  fill-opacity="1.000000" />
   <path d="M 932.615  1165.97  938.426  1170.29  942.478  1173.79  951.837  1181.19  953.538  1183.04  953.879  1185.7  959.506  1193.54  953.769  1199.67  950.374  1203.65  945.3  1206.06  939.199  1206.76  935.153  1207.61  930.941  1207.91  925.418  1207.55  920.553  1206.59  915.356  1205.87  911.535  1204.88  910.536  1204.49  " style="fill: none; stroke: red; stroke-width: 0.200000; fill-type: evenodd"  fill-opacity="1.000000" />
   <path d="M 910.536  1204.49  905.688  1202.6  898.076  1199.72  897.104  1199.24  887.368  1194.88  886.991  1194.62  878.335  1189.7  876.782  1188.55  869.921  1184.08  867.357  1181.74  860.749  1177.11  859.05  1174.89  856.021  1171.24  851.302  1168.99  845.063  1164.45  836.253  1168.14  835.229  1172.05  835.812  1177.38  834.998  1182.88  834.683  1184.61  837.208  1193.34  837.794  1197.26  843.126  1211.23  843.922  1213.5  846.938  1224.95  847.024  1225.43  848.082  1235.91  848.406  1240.55  848.842  1246  849.183  1251.49  849.078  1255.66  849.011  1259.62  848.847  1265.94  848.667  1271.72  848.104  1276.1  847.5  1281.22  846.851  1285.73  846.493  1289.29  " style="fill: none; stroke: darkmagenta; stroke-width: 0.200000; fill-type: evenodd"  fill-opacity="1.000000" />
   <path d="M 846.493  1289.29  846.424  1289.97  844.961  1296.14  843.372  1302.66  842.666  1305.32  841.771  1308.97  840.287  1313.9  839.069  1320.62  838.279  1324.38  838.122  1325.47  837.648  1329.73  836.692  1334.95  833.539  1343.89  832.127  1343.8  824.218  1342.47  823.665  1340.87  " style="fill: none; stroke: red; stroke-width: 0.200000; fill-type: evenodd"  fill-opacity="1.000000" />
   <path d="M 930.838  1206.9  925.548  1206.55  920.718  1205.61  915.551  1204.89  911.842  1203.93  906.047  1201.67  898.476  1198.81  897.53  1198.34  887.864  1194.01  887.526  1193.77  878.881  1188.86  877.353  1187.73  870.535  1183.28  867.984  1180.96  861.449  1176.38  859.832  1174.27  856.649  1170.43  851.816  1168.13  845.196  1163.31  835.411  1167.41  834.214  1171.97  834.804  1177.37  834.011  1182.72  833.657  1184.66  836.229  1193.56  836.821  1197.51  842.186  1211.58  842.965  1213.79  845.961  1225.17  846.033  1225.57  847.086  1235.99  847.408  1240.62  847.844  1246.07  848.182  1251.51  848.079  1255.64  848.012  1259.6  847.847  1265.91  847.669  1271.64  847.112  1275.98  846.508  1281.09  845.858  1285.61  845.436  1289.8  843.989  1295.91  842.403  1302.41  841.697  1305.07  840.806  1308.71  839.313  1313.66  838.087  1320.43  837.294  1324.21  837.13  1325.34  836.658  1329.58  835.722  1334.69  833.391  1341.3  " style="fill: none; stroke: black; stroke-width: 0.200000; fill-type: evenodd"  fill-opacity="1.000000" />
   <path d="M 833.391  1341.3  832.848  1342.84  832.242  1342.8  824.969  1341.59  824.69  1340.78  " style="fill: none; stroke: red; stroke-width: 0.200000; fill-type: evenodd"  fill-opacity="1.000000" />
   <path d="M 824.69  1340.78  824.314  1339.69  822.748  1336.36  820.584  1330.97  818.833  1328.03  817.461  1322.5  816.407  1316.38  815.787  1312.98  815.203  1309.48  814.229  1304.19  813.368  1297.77  812.827  1294.38  812.109  1288.97  811.33  1284.71  811.069  1282.59  809.941  1275.32  809.405  1269.86  808.933  1266.48  807.797  1256.71  807.66  1255.68  805.443  1247.15  804.445  1244.04  802.754  1239.1  800.911  1231.26  800.828  1230.29  799.433  1222.74  799.038  1220.24  799.078  1220.05  799.078  1219.19  799.867  1210.17  799.303  1205.65  800.606  1200.09  801.204  1190.5  801.325  1190.25  802.665  1181.17  800.856  1173.38  801.399  1171.11  800.546  1167.7  798.938  1161.49  794.875  1153.38  794.349  1152.4  792.111  1149.09  789.661  1144.17  788.794  1142.01  786.624  1135.16  785.937  1130.79  785.631  1126.86  785.591  1120.21  785.82  1118.7  787.828  1111.01  788.645  1108.62  792.681  1099.31  793.199  1098.37  793.749  1097.48  799.057  1089.51  801.994  1086.72  809.614  1082.23  812.461  1081.11  813.911  1080.75  820.971  1079.3  824.197  1078.74  826.106  1078.73  834.368  1079.46  842.03  1080.81  843.966  1081.57  845.049  1081.91  847.04  1082.86  854.141  1086.48  857.481  1090.43  861.502  1096.56  861.963  1098.88  862.95  1101.08  864.629  1107.65  866.256  1112.39  866.923  1117.8  869.278  1123.62  870.319  1126.9  871.37  1128.37  875.18  1135.99  877.814  1136.93  880.547  1138.1  885.622  1141.32  888.588  1143.06  894.306  1145.63  899.335  1148.12  903.077  1150.43  911.14  1154.05  912.442  1154.68  920.832  1159.62  921.198  1159.66  923.818  1161.22  930.414  1165.44  931.459  1166.36  937.8  1171.07  941.84  1174.56  950.184  1181.15  " style="fill: none; stroke: black; stroke-width: 0.200000; fill-type: evenodd"  fill-opacity="1.000000" />
   <path d="M 950.184  1181.15  951.155  1181.92  952.586  1183.48  952.919  1186.07  958.215  1193.46  953.023  1199.01  949.752  1202.84  945.02  1205.09  939.04  1205.78  935.015  1206.61  930.938  1206.91  930.838  1206.9  " style="fill: none; stroke: red; stroke-width: 0.200000; fill-type: evenodd"  fill-opacity="1.000000" />
   <path d="M 1003.3  1248.47  1004.19  1249.35  1004.51  1250.56  1004.19  1251.76  1003.3  1252.65  1002.1  1252.97  1000.89  1252.65  1000.01  1251.76  999.689  1250.56  1000.01  1249.35  1000.89  1248.47  1002.1  1248.15  1003.3  1248.47  " style="fill: none; stroke: purple; stroke-width: 0.500000; fill-type: evenodd"  fill-opacity="1.000000" />
   <path d="M 963.099  1228.83  963.831  1229.56  964.099  1230.56  963.831  1231.56  963.099  1232.29  962.099  1232.56  961.099  1232.29  960.367  1231.56  960.099  1230.56  960.367  1229.56  961.099  1228.83  962.099  1228.56  963.099  1228.83  " style="fill: none; stroke: purple; stroke-width: 0.500000; fill-type: evenodd"  fill-opacity="1.000000" />
   <path d="M 983.099  1228.83  983.831  1229.56  984.099  1230.56  983.831  1231.56  983.099  1232.29  982.099  1232.56  981.099  1232.29  980.367  1231.56  980.099  1230.56  980.367  1229.56  981.099  1228.83  982.099  1228.56  983.099  1228.83  " style="fill: none; stroke: purple; stroke-width: 0.500000; fill-type: evenodd"  fill-opacity="1.000000" />
   <path d="M 1003.1  1228.83  1003.83  1229.56  1004.1  1230.56  1003.83  1231.56  1003.1  1232.29  1002.1  1232.56  1001.1  1232.29  1000.37  1231.56  1000.1  1230.56  1000.37  1229.56  1001.1  1228.83  1002.1  1228.56  1003.1  1228.83  " style="fill: none; stroke: purple; stroke-width: 0.500000; fill-type: evenodd"  fill-opacity="1.000000" />
   <path d="M 1003.1  1208.83  1003.83  1209.56  1004.1  1210.56  1003.83  1211.56  1003.1  1212.29  1002.1  1212.56  1001.1  1212.29  1000.37  1211.56  1000.1  1210.56  1000.37  1209.56  1001.1  1208.83  1002.1  1208.56  1003.1  1208.83  " style="fill: none; stroke: purple; stroke-width: 0.500000; fill-type: evenodd"  fill-opacity="1.000000" />
   <path d="M 983.099  1208.83  983.831  1209.56  984.099  1210.56  983.831  1211.56  983.099  1212.29  982.099  1212.56  981.099  1212.29  980.367  1211.56  980.099  1210.56  980.367  1209.56  981.099  1208.83  982.099  1208.56  983.099  1208.83  " style="fill: none; stroke: purple; stroke-width: 0.500000; fill-type: evenodd"  fill-opacity="1.000000" />
</svg>
