<?xml version="1.0" encoding="UTF-8" standalone="yes"?>
<!DOCTYPE svg PUBLIC "-//W3C//DTD SVG 1.0//EN" "http://www.w3.org/TR/2001/REC-SVG-20010904/DTD/svg10.dtd">
<svg height="2000" width="2000" xmlns="http://www.w3.org/2000/svg" xmlns:svg="http://www.w3.org/2000/svg" xmlns:xlink="http://www.w3.org/1999/xlink">
   <marker id="endArrow" markerHeight="8" markerUnits="strokeWidth" markerWidth="10" orient="auto" refX="1" refY="5" viewBox="0 0 1000 1000">
      <polyline fill="darkblue" points="0,0 10,5 0,10 1,5" />
   </marker>
   <circle cx="1000" cy="1000" r="1" style="stroke:black; fill: red" />
   <circle cx="1000" cy="1000" r="800" style="stroke:black; fill: none" />
   <line x1="810.788208" y1="1287.563477" x2="810.788208" y2="1337.145996" style="stroke: green; stroke-width: 0.200000"/>
   <line x1="811.788208" y1="1287.191284" x2="811.788208" y2="1337.145996" style="stroke: green; stroke-width: 0.200000"/>
   <line x1="812.788147" y1="1287.265503" x2="812.788147" y2="1337.145996" style="stroke: green; stroke-width: 0.200000"/>
   <line x1="813.788147" y1="1287.339844" x2="813.788147" y2="1337.145996" style="stroke: green; stroke-width: 0.200000"/>
   <line x1="814.788208" y1="1287.414062" x2="814.788208" y2="1337.145996" style="stroke: green; stroke-width: 0.200000"/>
   <line x1="815.788208" y1="1287.488281" x2="815.788208" y2="1337.145996" style="stroke: green; stroke-width: 0.200000"/>
   <line x1="816.788208" y1="1288.239624" x2="816.788208" y2="1337.145996" style="stroke: green; stroke-width: 0.200000"/>
   <line x1="817.788147" y1="1289.409058" x2="817.788147" y2="1337.145996" style="stroke: green; stroke-width: 0.200000"/>
   <line x1="818.788147" y1="1290.578491" x2="818.788147" y2="1337.145996" style="stroke: green; stroke-width: 0.200000"/>
   <line x1="819.788208" y1="1291.747925" x2="819.788208" y2="1337.145996" style="stroke: green; stroke-width: 0.200000"/>
   <line x1="820.788208" y1="1292.917358" x2="820.788208" y2="1337.145996" style="stroke: green; stroke-width: 0.200000"/>
   <line x1="821.788208" y1="1294.086792" x2="821.788208" y2="1337.145996" style="stroke: green; stroke-width: 0.200000"/>
   <line x1="822.788147" y1="1295.371216" x2="822.788147" y2="1337.145996" style="stroke: green; stroke-width: 0.200000"/>
   <line x1="823.788147" y1="1297.609375" x2="823.788147" y2="1337.145996" style="stroke: green; stroke-width: 0.200000"/>
   <line x1="824.788208" y1="1299.847412" x2="824.788208" y2="1337.145996" style="stroke: green; stroke-width: 0.200000"/>
   <line x1="825.788208" y1="1302.085571" x2="825.788208" y2="1337.145996" style="stroke: green; stroke-width: 0.200000"/>
   <line x1="826.788208" y1="1304.323608" x2="826.788208" y2="1337.145996" style="stroke: green; stroke-width: 0.200000"/>
   <line x1="827.788147" y1="1306.076050" x2="827.788147" y2="1337.145996" style="stroke: green; stroke-width: 0.200000"/>
   <line x1="828.788147" y1="1307.816162" x2="828.788147" y2="1337.145996" style="stroke: green; stroke-width: 0.200000"/>
   <line x1="829.788208" y1="1309.727661" x2="829.788208" y2="1337.145996" style="stroke: green; stroke-width: 0.200000"/>
   <line x1="830.788208" y1="1312.489990" x2="830.788208" y2="1337.145996" style="stroke: green; stroke-width: 0.200000"/>
   <line x1="831.788208" y1="1315.252075" x2="831.788208" y2="1337.145996" style="stroke: green; stroke-width: 0.200000"/>
   <line x1="832.788147" y1="1317.739136" x2="832.788147" y2="1337.145996" style="stroke: green; stroke-width: 0.200000"/>
   <line x1="833.788147" y1="1319.544189" x2="833.788147" y2="1337.145996" style="stroke: green; stroke-width: 0.200000"/>
   <line x1="834.788208" y1="1321.374512" x2="834.788208" y2="1337.145996" style="stroke: green; stroke-width: 0.200000"/>
   <line x1="835.788208" y1="1324.041870" x2="835.788208" y2="1337.145996" style="stroke: green; stroke-width: 0.200000"/>
   <line x1="836.788208" y1="1326.709473" x2="836.788208" y2="1337.145996" style="stroke: green; stroke-width: 0.200000"/>
   <line x1="837.788147" y1="1329.126465" x2="837.788147" y2="1337.145996" style="stroke: green; stroke-width: 0.200000"/>
   <line x1="838.788147" y1="1331.389771" x2="838.788147" y2="1337.145996" style="stroke: green; stroke-width: 0.200000"/>
   <line x1="839.788208" y1="1333.653076" x2="839.788208" y2="1337.145996" style="stroke: green; stroke-width: 0.200000"/>
   <line x1="840.788208" y1="1336.650635" x2="840.788208" y2="1337.145996" style="stroke: green; stroke-width: 0.200000"/>
   <line x1="809.788208" y1="1288.631348" x2="809.788208" y2="1336.434204" style="stroke: green; stroke-width: 0.200000"/>
   <line x1="808.788147" y1="1289.698975" x2="808.788147" y2="1335.465332" style="stroke: green; stroke-width: 0.200000"/>
   <line x1="807.788147" y1="1290.766724" x2="807.788147" y2="1334.496582" style="stroke: green; stroke-width: 0.200000"/>
   <line x1="806.788208" y1="1291.834595" x2="806.788208" y2="1333.482056" style="stroke: green; stroke-width: 0.200000"/>
   <line x1="805.788208" y1="1292.840088" x2="805.788208" y2="1332.360107" style="stroke: green; stroke-width: 0.200000"/>
   <line x1="804.788208" y1="1293.462036" x2="804.788208" y2="1331.238037" style="stroke: green; stroke-width: 0.200000"/>
   <line x1="803.788147" y1="1294.298706" x2="803.788147" y2="1330.135498" style="stroke: green; stroke-width: 0.200000"/>
   <line x1="802.788147" y1="1295.909180" x2="802.788147" y2="1329.166504" style="stroke: green; stroke-width: 0.200000"/>
   <line x1="801.788208" y1="1297.519531" x2="801.788208" y2="1328.197632" style="stroke: green; stroke-width: 0.200000"/>
   <line x1="800.788208" y1="1299.129883" x2="800.788208" y2="1327.228516" style="stroke: green; stroke-width: 0.200000"/>
   <line x1="799.788208" y1="1300.740479" x2="799.788208" y2="1326.224243" style="stroke: green; stroke-width: 0.200000"/>
   <line x1="798.788147" y1="1302.350952" x2="798.788147" y2="1324.981445" style="stroke: green; stroke-width: 0.200000"/>
   <line x1="797.788147" y1="1303.646973" x2="797.788147" y2="1323.738403" style="stroke: green; stroke-width: 0.200000"/>
   <line x1="796.788208" y1="1305.868164" x2="796.788208" y2="1318.723022" style="stroke: green; stroke-width: 0.200000"/>
   <line x1="795.788208" y1="1310.991699" x2="795.788208" y2="1315.778687" style="stroke: green; stroke-width: 0.200000"/>
   <line x1="841.788208" y1="1339.964355" x2="841.788208" y2="1378.962280" style="stroke: green; stroke-width: 0.200000"/>
   <line x1="840.788208" y1="1337.246094" x2="840.788208" y2="1378.932495" style="stroke: green; stroke-width: 0.200000"/>
   <line x1="842.788147" y1="1343.312866" x2="842.788147" y2="1378.825806" style="stroke: green; stroke-width: 0.200000"/>
   <line x1="843.788147" y1="1346.685547" x2="843.788147" y2="1378.647705" style="stroke: green; stroke-width: 0.200000"/>
   <line x1="844.788208" y1="1349.217529" x2="844.788208" y2="1378.469849" style="stroke: green; stroke-width: 0.200000"/>
   <line x1="839.788208" y1="1337.246094" x2="839.788208" y2="1377.939697" style="stroke: green; stroke-width: 0.200000"/>
   <line x1="838.788147" y1="1337.246094" x2="838.788147" y2="1376.976440" style="stroke: green; stroke-width: 0.200000"/>
   <line x1="837.788147" y1="1337.246094" x2="837.788147" y2="1376.034546" style="stroke: green; stroke-width: 0.200000"/>
   <line x1="836.788208" y1="1337.246094" x2="836.788208" y2="1375.092285" style="stroke: green; stroke-width: 0.200000"/>
   <line x1="835.788208" y1="1337.246094" x2="835.788208" y2="1374.150391" style="stroke: green; stroke-width: 0.200000"/>
   <line x1="834.788208" y1="1337.246094" x2="834.788208" y2="1373.208252" style="stroke: green; stroke-width: 0.200000"/>
   <line x1="833.788147" y1="1337.246094" x2="833.788147" y2="1372.266235" style="stroke: green; stroke-width: 0.200000"/>
   <line x1="832.788147" y1="1337.246094" x2="832.788147" y2="1370.613403" style="stroke: green; stroke-width: 0.200000"/>
   <line x1="831.788208" y1="1337.246094" x2="831.788208" y2="1368.882324" style="stroke: green; stroke-width: 0.200000"/>
   <line x1="830.788208" y1="1337.246094" x2="830.788208" y2="1367.069580" style="stroke: green; stroke-width: 0.200000"/>
   <line x1="829.788208" y1="1337.246094" x2="829.788208" y2="1365.180908" style="stroke: green; stroke-width: 0.200000"/>
   <line x1="828.788147" y1="1337.246094" x2="828.788147" y2="1363.296143" style="stroke: green; stroke-width: 0.200000"/>
   <line x1="827.788147" y1="1337.246094" x2="827.788147" y2="1361.567993" style="stroke: green; stroke-width: 0.200000"/>
   <line x1="826.788208" y1="1337.246094" x2="826.788208" y2="1359.840088" style="stroke: green; stroke-width: 0.200000"/>
   <line x1="825.788208" y1="1337.246094" x2="825.788208" y2="1358.111694" style="stroke: green; stroke-width: 0.200000"/>
   <line x1="824.788208" y1="1337.246094" x2="824.788208" y2="1356.384033" style="stroke: green; stroke-width: 0.200000"/>
   <line x1="823.788147" y1="1337.246094" x2="823.788147" y2="1354.873779" style="stroke: green; stroke-width: 0.200000"/>
   <line x1="822.788147" y1="1337.246094" x2="822.788147" y2="1353.563721" style="stroke: green; stroke-width: 0.200000"/>
   <line x1="821.788208" y1="1337.246094" x2="821.788208" y2="1352.159302" style="stroke: green; stroke-width: 0.200000"/>
   <line x1="820.788208" y1="1337.246094" x2="820.788208" y2="1350.721191" style="stroke: green; stroke-width: 0.200000"/>
   <line x1="819.788208" y1="1337.246094" x2="819.788208" y2="1349.282959" style="stroke: green; stroke-width: 0.200000"/>
   <line x1="818.788147" y1="1337.246094" x2="818.788147" y2="1347.858765" style="stroke: green; stroke-width: 0.200000"/>
   <line x1="817.788147" y1="1337.246094" x2="817.788147" y2="1346.440674" style="stroke: green; stroke-width: 0.200000"/>
   <line x1="816.788208" y1="1337.246094" x2="816.788208" y2="1345.022705" style="stroke: green; stroke-width: 0.200000"/>
   <line x1="815.788208" y1="1337.246094" x2="815.788208" y2="1343.581421" style="stroke: green; stroke-width: 0.200000"/>
   <line x1="814.788208" y1="1337.246094" x2="814.788208" y2="1342.232056" style="stroke: green; stroke-width: 0.200000"/>
   <line x1="813.788147" y1="1337.246094" x2="813.788147" y2="1341.027710" style="stroke: green; stroke-width: 0.200000"/>
   <line x1="812.788147" y1="1337.246094" x2="812.788147" y2="1339.823486" style="stroke: green; stroke-width: 0.200000"/>
   <line x1="811.788208" y1="1337.246094" x2="811.788208" y2="1338.618896" style="stroke: green; stroke-width: 0.200000"/>
   <line x1="810.788208" y1="1337.246094" x2="810.788208" y2="1337.414673" style="stroke: green; stroke-width: 0.200000"/>
   <line x1="845.788208" y1="1352.861572" x2="845.788208" y2="1378.291748" style="stroke: green; stroke-width: 0.200000"/>
   <line x1="846.788208" y1="1356.856934" x2="846.788208" y2="1378.113892" style="stroke: green; stroke-width: 0.200000"/>
   <line x1="847.788147" y1="1361.181519" x2="847.788147" y2="1377.935791" style="stroke: green; stroke-width: 0.200000"/>
   <line x1="848.788147" y1="1365.508423" x2="848.788147" y2="1377.757690" style="stroke: green; stroke-width: 0.200000"/>
   <line x1="949.258484" y1="1194.247070" x2="949.258484" y2="1229.226562" style="stroke: green; stroke-width: 0.200000"/>
   <line x1="950.258545" y1="1195.521973" x2="950.258545" y2="1229.226562" style="stroke: green; stroke-width: 0.200000"/>
   <line x1="951.258545" y1="1196.777344" x2="951.258545" y2="1229.226562" style="stroke: green; stroke-width: 0.200000"/>
   <line x1="952.258545" y1="1198.032715" x2="952.258545" y2="1229.226562" style="stroke: green; stroke-width: 0.200000"/>
   <line x1="953.258545" y1="1199.265015" x2="953.258545" y2="1229.226562" style="stroke: green; stroke-width: 0.200000"/>
   <line x1="954.258484" y1="1200.492920" x2="954.258484" y2="1229.226562" style="stroke: green; stroke-width: 0.200000"/>
   <line x1="955.258545" y1="1201.720703" x2="955.258545" y2="1229.226562" style="stroke: green; stroke-width: 0.200000"/>
   <line x1="956.258545" y1="1202.948975" x2="956.258545" y2="1229.226562" style="stroke: green; stroke-width: 0.200000"/>
   <line x1="957.258545" y1="1204.176880" x2="957.258545" y2="1229.226562" style="stroke: green; stroke-width: 0.200000"/>
   <line x1="958.258545" y1="1205.096436" x2="958.258545" y2="1229.226562" style="stroke: green; stroke-width: 0.200000"/>
   <line x1="959.258484" y1="1205.992798" x2="959.258484" y2="1229.226562" style="stroke: green; stroke-width: 0.200000"/>
   <line x1="960.258545" y1="1206.921265" x2="960.258545" y2="1229.226562" style="stroke: green; stroke-width: 0.200000"/>
   <line x1="961.258545" y1="1207.838623" x2="961.258545" y2="1229.226562" style="stroke: green; stroke-width: 0.200000"/>
   <line x1="962.258545" y1="1208.716064" x2="962.258545" y2="1229.226562" style="stroke: green; stroke-width: 0.200000"/>
   <line x1="963.258545" y1="1209.593628" x2="963.258545" y2="1229.226562" style="stroke: green; stroke-width: 0.200000"/>
   <line x1="948.258545" y1="1192.959595" x2="948.258545" y2="1229.119141" style="stroke: green; stroke-width: 0.200000"/>
   <line x1="947.258545" y1="1191.671997" x2="947.258545" y2="1228.551270" style="stroke: green; stroke-width: 0.200000"/>
   <line x1="946.258545" y1="1190.393188" x2="946.258545" y2="1227.909912" style="stroke: green; stroke-width: 0.200000"/>
   <line x1="945.258545" y1="1189.189453" x2="945.258545" y2="1227.268311" style="stroke: green; stroke-width: 0.200000"/>
   <line x1="944.258484" y1="1187.985962" x2="944.258484" y2="1226.626709" style="stroke: green; stroke-width: 0.200000"/>
   <line x1="943.258545" y1="1186.782837" x2="943.258545" y2="1225.985229" style="stroke: green; stroke-width: 0.200000"/>
   <line x1="942.258545" y1="1185.578979" x2="942.258545" y2="1225.343750" style="stroke: green; stroke-width: 0.200000"/>
   <line x1="941.258545" y1="1184.375366" x2="941.258545" y2="1224.646973" style="stroke: green; stroke-width: 0.200000"/>
   <line x1="940.258545" y1="1183.439819" x2="940.258545" y2="1223.881714" style="stroke: green; stroke-width: 0.200000"/>
   <line x1="939.258484" y1="1183.039307" x2="939.258484" y2="1223.095581" style="stroke: green; stroke-width: 0.200000"/>
   <line x1="938.258545" y1="1182.638672" x2="938.258545" y2="1222.266235" style="stroke: green; stroke-width: 0.200000"/>
   <line x1="937.258545" y1="1182.238037" x2="937.258545" y2="1221.436890" style="stroke: green; stroke-width: 0.200000"/>
   <line x1="936.258545" y1="1181.837402" x2="936.258545" y2="1220.607666" style="stroke: green; stroke-width: 0.200000"/>
   <line x1="935.258545" y1="1181.436768" x2="935.258545" y2="1219.778320" style="stroke: green; stroke-width: 0.200000"/>
   <line x1="934.258484" y1="1181.036133" x2="934.258484" y2="1218.949097" style="stroke: green; stroke-width: 0.200000"/>
   <line x1="933.258545" y1="1180.635498" x2="933.258545" y2="1218.119751" style="stroke: green; stroke-width: 0.200000"/>
   <line x1="932.258545" y1="1180.244263" x2="932.258545" y2="1217.290527" style="stroke: green; stroke-width: 0.200000"/>
   <line x1="931.258545" y1="1179.910156" x2="931.258545" y2="1216.479004" style="stroke: green; stroke-width: 0.200000"/>
   <line x1="930.258545" y1="1179.576172" x2="930.258545" y2="1215.667480" style="stroke: green; stroke-width: 0.200000"/>
   <line x1="929.258484" y1="1179.242188" x2="929.258484" y2="1214.856079" style="stroke: green; stroke-width: 0.200000"/>
   <line x1="928.258545" y1="1179.480713" x2="928.258545" y2="1213.883789" style="stroke: green; stroke-width: 0.200000"/>
   <line x1="927.258545" y1="1179.747314" x2="927.258545" y2="1212.831543" style="stroke: green; stroke-width: 0.200000"/>
   <line x1="926.258545" y1="1180.013916" x2="926.258545" y2="1211.779297" style="stroke: green; stroke-width: 0.200000"/>
   <line x1="925.258545" y1="1180.280518" x2="925.258545" y2="1210.722900" style="stroke: green; stroke-width: 0.200000"/>
   <line x1="924.258484" y1="1180.547119" x2="924.258484" y2="1209.659058" style="stroke: green; stroke-width: 0.200000"/>
   <line x1="923.258545" y1="1180.813721" x2="923.258545" y2="1208.595215" style="stroke: green; stroke-width: 0.200000"/>
   <line x1="922.258545" y1="1181.080444" x2="922.258545" y2="1207.531494" style="stroke: green; stroke-width: 0.200000"/>
   <line x1="921.258545" y1="1181.316895" x2="921.258545" y2="1206.467651" style="stroke: green; stroke-width: 0.200000"/>
   <line x1="920.258545" y1="1181.936523" x2="920.258545" y2="1205.400513" style="stroke: green; stroke-width: 0.200000"/>
   <line x1="919.258484" y1="1182.944092" x2="919.258484" y2="1204.316162" style="stroke: green; stroke-width: 0.200000"/>
   <line x1="918.258545" y1="1183.968384" x2="918.258545" y2="1203.031738" style="stroke: green; stroke-width: 0.200000"/>
   <line x1="917.258545" y1="1185.005615" x2="917.258545" y2="1200.919922" style="stroke: green; stroke-width: 0.200000"/>
   <line x1="916.258545" y1="1186.042969" x2="916.258545" y2="1198.808105" style="stroke: green; stroke-width: 0.200000"/>
   <line x1="915.258545" y1="1187.944580" x2="915.258545" y2="1196.696289" style="stroke: green; stroke-width: 0.200000"/>
   <line x1="914.258484" y1="1194.035278" x2="914.258484" y2="1194.551758" style="stroke: green; stroke-width: 0.200000"/>
   <line x1="965.258545" y1="1211.385986" x2="965.258545" y2="1229.226562" style="stroke: green; stroke-width: 0.200000"/>
   <line x1="966.258545" y1="1212.382812" x2="966.258545" y2="1229.226562" style="stroke: green; stroke-width: 0.200000"/>
   <line x1="967.258545" y1="1213.348022" x2="967.258545" y2="1229.226562" style="stroke: green; stroke-width: 0.200000"/>
   <line x1="968.258545" y1="1213.991211" x2="968.258545" y2="1229.226562" style="stroke: green; stroke-width: 0.200000"/>
   <line x1="969.258484" y1="1214.634277" x2="969.258484" y2="1229.226562" style="stroke: green; stroke-width: 0.200000"/>
   <line x1="970.258545" y1="1215.277344" x2="970.258545" y2="1229.226562" style="stroke: green; stroke-width: 0.200000"/>
   <line x1="971.258545" y1="1215.920532" x2="971.258545" y2="1229.226562" style="stroke: green; stroke-width: 0.200000"/>
   <line x1="972.258545" y1="1216.583496" x2="972.258545" y2="1229.226562" style="stroke: green; stroke-width: 0.200000"/>
   <line x1="973.258545" y1="1217.289795" x2="973.258545" y2="1229.226562" style="stroke: green; stroke-width: 0.200000"/>
   <line x1="974.258484" y1="1217.996094" x2="974.258484" y2="1229.226562" style="stroke: green; stroke-width: 0.200000"/>
   <line x1="975.258545" y1="1218.702515" x2="975.258545" y2="1229.226562" style="stroke: green; stroke-width: 0.200000"/>
   <line x1="976.258545" y1="1219.408813" x2="976.258545" y2="1229.226562" style="stroke: green; stroke-width: 0.200000"/>
   <line x1="977.258545" y1="1220.114990" x2="977.258545" y2="1229.226562" style="stroke: green; stroke-width: 0.200000"/>
   <line x1="978.258545" y1="1220.814575" x2="978.258545" y2="1229.226562" style="stroke: green; stroke-width: 0.200000"/>
   <line x1="979.258484" y1="1221.520020" x2="979.258484" y2="1229.226562" style="stroke: green; stroke-width: 0.200000"/>
   <line x1="980.258545" y1="1222.151123" x2="980.258545" y2="1229.226562" style="stroke: green; stroke-width: 0.200000"/>
   <line x1="981.258545" y1="1222.708618" x2="981.258545" y2="1229.226562" style="stroke: green; stroke-width: 0.200000"/>
   <line x1="982.258545" y1="1223.266113" x2="982.258545" y2="1229.226562" style="stroke: green; stroke-width: 0.200000"/>
   <line x1="983.258545" y1="1223.823486" x2="983.258545" y2="1229.226562" style="stroke: green; stroke-width: 0.200000"/>
   <line x1="984.258484" y1="1224.380981" x2="984.258484" y2="1229.226562" style="stroke: green; stroke-width: 0.200000"/>
   <line x1="985.258545" y1="1224.938477" x2="985.258545" y2="1229.226562" style="stroke: green; stroke-width: 0.200000"/>
   <line x1="986.258545" y1="1225.495850" x2="986.258545" y2="1229.226562" style="stroke: green; stroke-width: 0.200000"/>
   <line x1="987.258545" y1="1226.166504" x2="987.258545" y2="1229.226562" style="stroke: green; stroke-width: 0.200000"/>
   <line x1="988.258545" y1="1226.868408" x2="988.258545" y2="1229.226562" style="stroke: green; stroke-width: 0.200000"/>
   <line x1="989.258484" y1="1227.570435" x2="989.258484" y2="1229.226562" style="stroke: green; stroke-width: 0.200000"/>
   <line x1="990.258545" y1="1228.272461" x2="990.258545" y2="1229.226562" style="stroke: green; stroke-width: 0.200000"/>
   <line x1="991.258545" y1="1228.954956" x2="991.258545" y2="1229.226562" style="stroke: green; stroke-width: 0.200000"/>
   <line x1="963.258545" y1="1229.326538" x2="963.258545" y2="1237.060547" style="stroke: green; stroke-width: 0.200000"/>
   <line x1="962.258545" y1="1229.326538" x2="962.258545" y2="1236.567139" style="stroke: green; stroke-width: 0.200000"/>
   <line x1="961.258545" y1="1229.326538" x2="961.258545" y2="1236.108032" style="stroke: green; stroke-width: 0.200000"/>
   <line x1="960.258545" y1="1229.326538" x2="960.258545" y2="1235.692261" style="stroke: green; stroke-width: 0.200000"/>
   <line x1="959.258484" y1="1229.326538" x2="959.258484" y2="1235.276123" style="stroke: green; stroke-width: 0.200000"/>
   <line x1="958.258545" y1="1229.326538" x2="958.258545" y2="1234.817017" style="stroke: green; stroke-width: 0.200000"/>
   <line x1="957.258545" y1="1229.326538" x2="957.258545" y2="1234.235718" style="stroke: green; stroke-width: 0.200000"/>
   <line x1="956.258545" y1="1229.326538" x2="956.258545" y2="1233.654297" style="stroke: green; stroke-width: 0.200000"/>
   <line x1="955.258545" y1="1229.326538" x2="955.258545" y2="1233.072754" style="stroke: green; stroke-width: 0.200000"/>
   <line x1="954.258484" y1="1229.326538" x2="954.258484" y2="1232.491577" style="stroke: green; stroke-width: 0.200000"/>
   <line x1="953.258545" y1="1229.326538" x2="953.258545" y2="1231.910156" style="stroke: green; stroke-width: 0.200000"/>
   <line x1="952.258545" y1="1229.326538" x2="952.258545" y2="1231.328613" style="stroke: green; stroke-width: 0.200000"/>
   <line x1="951.258545" y1="1229.326538" x2="951.258545" y2="1230.747314" style="stroke: green; stroke-width: 0.200000"/>
   <line x1="950.258545" y1="1229.326538" x2="950.258545" y2="1230.200562" style="stroke: green; stroke-width: 0.200000"/>
   <line x1="949.258484" y1="1229.326538" x2="949.258484" y2="1229.659912" style="stroke: green; stroke-width: 0.200000"/>
   <line x1="1002.258545" y1="1235.128906" x2="1002.258545" y2="1254.415771" style="stroke: green; stroke-width: 0.200000"/>
   <line x1="1001.258545" y1="1234.539307" x2="1001.258545" y2="1254.375732" style="stroke: green; stroke-width: 0.200000"/>
   <line x1="1003.258545" y1="1235.768066" x2="1003.258545" y2="1253.918091" style="stroke: green; stroke-width: 0.200000"/>
   <line x1="1000.258545" y1="1233.980835" x2="1000.258545" y2="1253.799072" style="stroke: green; stroke-width: 0.200000"/>
   <line x1="1004.258484" y1="1236.368652" x2="1004.258484" y2="1253.419434" style="stroke: green; stroke-width: 0.200000"/>
   <line x1="999.258484" y1="1233.389038" x2="999.258484" y2="1253.294922" style="stroke: green; stroke-width: 0.200000"/>
   <line x1="1005.258545" y1="1236.969116" x2="1005.258545" y2="1252.920898" style="stroke: green; stroke-width: 0.200000"/>
   <line x1="998.258545" y1="1232.785522" x2="998.258545" y2="1252.790894" style="stroke: green; stroke-width: 0.200000"/>
   <line x1="1006.258545" y1="1237.569702" x2="1006.258545" y2="1252.422241" style="stroke: green; stroke-width: 0.200000"/>
   <line x1="997.258545" y1="1232.182129" x2="997.258545" y2="1252.286865" style="stroke: green; stroke-width: 0.200000"/>
   <line x1="1007.258545" y1="1238.170288" x2="1007.258545" y2="1251.923584" style="stroke: green; stroke-width: 0.200000"/>
   <line x1="996.258545" y1="1231.578613" x2="996.258545" y2="1251.782959" style="stroke: green; stroke-width: 0.200000"/>
   <line x1="1008.258545" y1="1238.770874" x2="1008.258545" y2="1251.424927" style="stroke: green; stroke-width: 0.200000"/>
   <line x1="995.258545" y1="1230.975342" x2="995.258545" y2="1251.278931" style="stroke: green; stroke-width: 0.200000"/>
   <line x1="1009.258484" y1="1239.371460" x2="1009.258484" y2="1250.926270" style="stroke: green; stroke-width: 0.200000"/>
   <line x1="994.258484" y1="1230.377441" x2="994.258484" y2="1250.774902" style="stroke: green; stroke-width: 0.200000"/>
   <line x1="1010.258545" y1="1239.971924" x2="1010.258545" y2="1250.427734" style="stroke: green; stroke-width: 0.200000"/>
   <line x1="993.258545" y1="1229.903320" x2="993.258545" y2="1250.270752" style="stroke: green; stroke-width: 0.200000"/>
   <line x1="1011.258545" y1="1240.788696" x2="1011.258545" y2="1249.929077" style="stroke: green; stroke-width: 0.200000"/>
   <line x1="992.258545" y1="1229.429077" x2="992.258545" y2="1249.766724" style="stroke: green; stroke-width: 0.200000"/>
   <line x1="1012.258545" y1="1241.625488" x2="1012.258545" y2="1249.430420" style="stroke: green; stroke-width: 0.200000"/>
   <line x1="991.258545" y1="1229.326538" x2="991.258545" y2="1249.262817" style="stroke: green; stroke-width: 0.200000"/>
   <line x1="1013.258545" y1="1242.462402" x2="1013.258545" y2="1248.931763" style="stroke: green; stroke-width: 0.200000"/>
   <line x1="990.258545" y1="1229.326538" x2="990.258545" y2="1248.758789" style="stroke: green; stroke-width: 0.200000"/>
   <line x1="1014.258484" y1="1243.321411" x2="1014.258484" y2="1248.433105" style="stroke: green; stroke-width: 0.200000"/>
   <line x1="989.258484" y1="1229.326538" x2="989.258484" y2="1248.254883" style="stroke: green; stroke-width: 0.200000"/>
   <line x1="988.258545" y1="1229.326538" x2="988.258545" y2="1247.750854" style="stroke: green; stroke-width: 0.200000"/>
   <line x1="987.258545" y1="1229.326538" x2="987.258545" y2="1247.313965" style="stroke: green; stroke-width: 0.200000"/>
   <line x1="986.258545" y1="1229.326538" x2="986.258545" y2="1246.941772" style="stroke: green; stroke-width: 0.200000"/>
   <line x1="985.258545" y1="1229.326538" x2="985.258545" y2="1246.569580" style="stroke: green; stroke-width: 0.200000"/>
   <line x1="984.258484" y1="1229.326538" x2="984.258484" y2="1246.197388" style="stroke: green; stroke-width: 0.200000"/>
   <line x1="983.258545" y1="1229.326538" x2="983.258545" y2="1245.825317" style="stroke: green; stroke-width: 0.200000"/>
   <line x1="982.258545" y1="1229.326538" x2="982.258545" y2="1245.453003" style="stroke: green; stroke-width: 0.200000"/>
   <line x1="981.258545" y1="1229.326538" x2="981.258545" y2="1245.038452" style="stroke: green; stroke-width: 0.200000"/>
   <line x1="980.258545" y1="1229.326538" x2="980.258545" y2="1244.623901" style="stroke: green; stroke-width: 0.200000"/>
   <line x1="979.258484" y1="1229.326538" x2="979.258484" y2="1244.209473" style="stroke: green; stroke-width: 0.200000"/>
   <line x1="978.258545" y1="1229.326538" x2="978.258545" y2="1243.794922" style="stroke: green; stroke-width: 0.200000"/>
   <line x1="977.258545" y1="1229.326538" x2="977.258545" y2="1243.380371" style="stroke: green; stroke-width: 0.200000"/>
   <line x1="976.258545" y1="1229.326538" x2="976.258545" y2="1242.965820" style="stroke: green; stroke-width: 0.200000"/>
   <line x1="975.258545" y1="1229.326538" x2="975.258545" y2="1242.551392" style="stroke: green; stroke-width: 0.200000"/>
   <line x1="974.258484" y1="1229.326538" x2="974.258484" y2="1242.136841" style="stroke: green; stroke-width: 0.200000"/>
   <line x1="973.258545" y1="1229.326538" x2="973.258545" y2="1241.722290" style="stroke: green; stroke-width: 0.200000"/>
   <line x1="972.258545" y1="1229.326538" x2="972.258545" y2="1241.346924" style="stroke: green; stroke-width: 0.200000"/>
   <line x1="971.258545" y1="1229.326538" x2="971.258545" y2="1241.008545" style="stroke: green; stroke-width: 0.200000"/>
   <line x1="970.258545" y1="1229.326538" x2="970.258545" y2="1240.515015" style="stroke: green; stroke-width: 0.200000"/>
   <line x1="969.258484" y1="1229.326538" x2="969.258484" y2="1240.021484" style="stroke: green; stroke-width: 0.200000"/>
   <line x1="968.258545" y1="1229.326538" x2="968.258545" y2="1239.528076" style="stroke: green; stroke-width: 0.200000"/>
   <line x1="967.258545" y1="1229.326538" x2="967.258545" y2="1239.034546" style="stroke: green; stroke-width: 0.200000"/>
   <line x1="966.258545" y1="1229.326538" x2="966.258545" y2="1238.541138" style="stroke: green; stroke-width: 0.200000"/>
   <line x1="965.258545" y1="1229.326538" x2="965.258545" y2="1238.047607" style="stroke: green; stroke-width: 0.200000"/>
   <line x1="1015.258545" y1="1244.243530" x2="1015.258545" y2="1247.934692" style="stroke: green; stroke-width: 0.200000"/>
   <line x1="1016.258545" y1="1245.165894" x2="1016.258545" y2="1247.436035" style="stroke: green; stroke-width: 0.200000"/>
   <line x1="1017.258545" y1="1246.088379" x2="1017.258545" y2="1246.937378" style="stroke: green; stroke-width: 0.200000"/>
   <line x1="1014.924561" y1="1248.101318" x2="1014.924561" y2="1261.452393" style="stroke: green; stroke-width: 0.200000"/>
   <line x1="1013.924561" y1="1248.599731" x2="1013.924561" y2="1260.969727" style="stroke: green; stroke-width: 0.200000"/>
   <line x1="1015.924622" y1="1247.602661" x2="1015.924622" y2="1260.798462" style="stroke: green; stroke-width: 0.200000"/>
   <line x1="1012.924561" y1="1249.098389" x2="1012.924561" y2="1260.487183" style="stroke: green; stroke-width: 0.200000"/>
   <line x1="1016.924561" y1="1247.104004" x2="1016.924561" y2="1260.094116" style="stroke: green; stroke-width: 0.200000"/>
   <line x1="1011.924561" y1="1249.597046" x2="1011.924561" y2="1260.001343" style="stroke: green; stroke-width: 0.200000"/>
   <line x1="1010.924622" y1="1250.095703" x2="1010.924622" y2="1259.431274" style="stroke: green; stroke-width: 0.200000"/>
   <line x1="1017.924561" y1="1246.928589" x2="1017.924561" y2="1259.389771" style="stroke: green; stroke-width: 0.200000"/>
   <line x1="1009.924561" y1="1250.594360" x2="1009.924561" y2="1258.889282" style="stroke: green; stroke-width: 0.200000"/>
   <line x1="1018.924561" y1="1248.610352" x2="1018.924561" y2="1258.685425" style="stroke: green; stroke-width: 0.200000"/>
   <line x1="1008.924561" y1="1251.092896" x2="1008.924561" y2="1258.371094" style="stroke: green; stroke-width: 0.200000"/>
   <line x1="1019.924561" y1="1250.292114" x2="1019.924561" y2="1257.981201" style="stroke: green; stroke-width: 0.200000"/>
   <line x1="1007.924561" y1="1251.591553" x2="1007.924561" y2="1257.853027" style="stroke: green; stroke-width: 0.200000"/>
   <line x1="1006.924561" y1="1252.090210" x2="1006.924561" y2="1257.334961" style="stroke: green; stroke-width: 0.200000"/>
   <line x1="1020.924622" y1="1251.973877" x2="1020.924622" y2="1257.276855" style="stroke: green; stroke-width: 0.200000"/>
   <line x1="1005.924622" y1="1252.588867" x2="1005.924622" y2="1256.816895" style="stroke: green; stroke-width: 0.200000"/>
   <line x1="1021.924561" y1="1253.638428" x2="1021.924561" y2="1256.537964" style="stroke: green; stroke-width: 0.200000"/>
   <line x1="1004.924561" y1="1253.087402" x2="1004.924561" y2="1256.298706" style="stroke: green; stroke-width: 0.200000"/>
   <line x1="1003.924561" y1="1253.586060" x2="1003.924561" y2="1255.780640" style="stroke: green; stroke-width: 0.200000"/>
   <line x1="1002.924561" y1="1254.083862" x2="1002.924561" y2="1255.262573" style="stroke: green; stroke-width: 0.200000"/>
   <line x1="1001.924561" y1="1254.582642" x2="1001.924561" y2="1254.744507" style="stroke: green; stroke-width: 0.200000"/>
   <path d="M 795.967  1323.62  795.764  1320.37  793.646  1314.14  795.544  1304.41  796.48  1302.88  797.474  1301.62  802.916  1292.86  804.968  1291.58  810.575  1285.6  816.904  1286.07  823.296  1293.54  824.003  1294.41  828.325  1304.09  829.685  1306.3  831.159  1309.11  833.87  1316.6  836.125  1320.67  838.557  1327.16  841.824  1334.55  842.258  1336.35  843.537  1340.56  845.297  1346.5  846.444  1349.3  848.252  1356.53  850.536  1366.41  850.626  1367.37  851.108  1378.87  842.098  1380.47  840.141  1380.41  838.377  1378.65  832.5  1373.11  829.994  1368.77  827.499  1364.06  823.309  1356.82  822.137  1355.12  821.459  1354.31  818.247  1349.69  815.194  1345.36  814.012  1343.64  813.274  1342.76  " style="fill: none; stroke: darkmagenta; stroke-width: 0.200000; fill-type: evenodd"  fill-opacity="1.000000" />
   <path d="M 813.274  1342.76  809.637  1338.38  806.004  1334.86  802.831  1331.3  798.807  1327.4  795.984  1323.89  795.967  1323.62  " style="fill: none; stroke: red; stroke-width: 0.200000; fill-type: evenodd"  fill-opacity="1.000000" />
   <path d="M 816.415  1287.03  822.527  1294.18  823.143  1294.94  827.439  1304.55  828.816  1306.79  830.242  1309.51  832.957  1317.01  835.214  1321.09  837.631  1327.53  840.873  1334.87  841.293  1336.61  842.579  1340.85  844.353  1346.83  845.491  1349.62  847.28  1356.76  849.547  1366.57  849.628  1367.43  850.073  1378.04  842.025  1379.47  840.568  1379.43  839.074  1377.93  833.293  1372.49  830.869  1368.29  828.374  1363.58  824.155  1356.29  822.933  1354.51  822.254  1353.7  819.066  1349.12  816.014  1344.79  814.81  1343.04  810.372  1337.7  806.726  1334.16  803.553  1330.6  799.547  1326.72  796.963  1323.51  796.753  1320.17  794.679  1314.07  796.491  1304.78  797.302  1303.46  798.294  1302.2  803.643  1293.59  805.608  1292.36  810.978  1286.63  816.415  1287.03  " style="fill: none; stroke: black; stroke-width: 0.200000; fill-type: evenodd"  fill-opacity="1.000000" />
   <path d="M 999.794  1255.26  999.543  1255.12  987.167  1248.88  981.713  1246.85  972.664  1243.1  971.609  1242.71  970.841  1242.48  961.083  1237.66  957.852  1236.32  950.378  1231.97  946.764  1230.02  940.843  1226.22  938.651  1224.54  931.311  1218.45  927.906  1215.69  924.535  1212.14  919.322  1206.6  917.195  1204.29  913.558  1196.61  912.651  1194.65  913.255  1190.58  914.057  1186.17  917.751  1182.33  920.031  1180.04  921.399  1179.76  929.26  1177.66  932.916  1178.88  941.459  1182.3  941.629  1182.47  947.534  1189.58  951.038  1194.09  953.589  1197.3  958.459  1203.28  959.906  1204.55  962.049  1206.54  965.97  1209.98  968.115  1212.12  972.781  1215.12  978.878  1219.42  979.727  1220  980.464  1220.55  987.274  1224.35  991.931  1227.61  995.013  1229.08  1000.75  1232.54  1002.72  1233.64  1003.75  1234.32  1011.22  1238.8  1014.99  1241.96  1018.81  1245.48  1023.12  1252.73  1024.04  1254.05  1023.72  1255.45  " style="fill: none; stroke: darkmagenta; stroke-width: 0.200000; fill-type: evenodd"  fill-opacity="1.000000" />
   <path d="M 1023.72  1255.45  1023.25  1257.48  1015.11  1263.21  1011.26  1261.35  1009.75  1260.49  1000.94  1255.93  999.794  1255.26  " style="fill: none; stroke: red; stroke-width: 0.200000; fill-type: evenodd"  fill-opacity="1.000000" />
   <path d="M 1012.71  1260.94  1011.73  1260.46  1010.23  1259.61  1001.42  1255.05  1000.02  1254.24  987.567  1247.96  982.078  1245.92  973.031  1242.17  971.928  1241.76  971.209  1241.54  961.496  1236.75  958.298  1235.42  950.868  1231.1  947.273  1229.15  941.418  1225.4  939.274  1223.76  931.945  1217.68  928.587  1214.95  925.261  1211.46  920.054  1205.92  918.034  1203.73  914.464  1196.19  913.684  1194.5  914.242  1190.75  914.987  1186.64  918.466  1183.03  920.527  1180.96  921.628  1180.73  929.228  1178.7  932.571  1179.82  940.896  1183.16  946.755  1190.21  950.252  1194.71  952.811  1197.92  957.737  1203.97  959.236  1205.29  961.379  1207.28  965.287  1210.71  967.484  1212.9  972.222  1215.95  978.309  1220.25  979.147  1220.81  979.919  1221.39  986.742  1225.19  991.426  1228.48  994.539  1229.96  1000.25  1233.41  1002.2  1234.49  1003.22  1235.16  1010.63  1239.61  1014.33  1242.71  1018.02  1246.11  1022.28  1253.27  1022.97  1254.26  1022.56  1256.03  " style="fill: none; stroke: black; stroke-width: 0.200000; fill-type: evenodd"  fill-opacity="1.000000" />
   <path d="M 1022.56  1256.03  1022.36  1256.88  1015.01  1262.05  1012.71  1260.94  " style="fill: none; stroke: red; stroke-width: 0.200000; fill-type: evenodd"  fill-opacity="1.000000" />
</svg>
