<?xml version="1.0" encoding="UTF-8" standalone="yes"?>
<!DOCTYPE svg PUBLIC "-//W3C//DTD SVG 1.0//EN" "http://www.w3.org/TR/2001/REC-SVG-20010904/DTD/svg10.dtd">
<svg height="2000" width="2000" xmlns="http://www.w3.org/2000/svg" xmlns:svg="http://www.w3.org/2000/svg" xmlns:xlink="http://www.w3.org/1999/xlink">
   <marker id="endArrow" markerHeight="8" markerUnits="strokeWidth" markerWidth="10" orient="auto" refX="1" refY="5" viewBox="0 0 1000 1000">
      <polyline fill="darkblue" points="0,0 10,5 0,10 1,5" />
   </marker>
   <circle cx="1000" cy="1000" r="1" style="stroke:black; fill: red" />
   <circle cx="1000" cy="1000" r="800" style="stroke:black; fill: none" />
   <line x1="797.174683" y1="1245.177368" x2="797.174683" y2="1249.754150" style="stroke: green; stroke-width: 0.200000"/>
   <line x1="798.174683" y1="1235.840332" x2="798.174683" y2="1249.754150" style="stroke: green; stroke-width: 0.200000"/>
   <line x1="799.174683" y1="1229.014282" x2="799.174683" y2="1249.754150" style="stroke: green; stroke-width: 0.200000"/>
   <line x1="800.174683" y1="1225.637939" x2="800.174683" y2="1249.754150" style="stroke: green; stroke-width: 0.200000"/>
   <line x1="801.174683" y1="1222.504395" x2="801.174683" y2="1249.754150" style="stroke: green; stroke-width: 0.200000"/>
   <line x1="802.174683" y1="1219.301514" x2="802.174683" y2="1249.754150" style="stroke: green; stroke-width: 0.200000"/>
   <line x1="803.174683" y1="1215.417603" x2="803.174683" y2="1249.754150" style="stroke: green; stroke-width: 0.200000"/>
   <line x1="804.174683" y1="1214.005737" x2="804.174683" y2="1249.754150" style="stroke: green; stroke-width: 0.200000"/>
   <line x1="805.174683" y1="1212.593872" x2="805.174683" y2="1249.754150" style="stroke: green; stroke-width: 0.200000"/>
   <line x1="806.174683" y1="1211.173584" x2="806.174683" y2="1249.754150" style="stroke: green; stroke-width: 0.200000"/>
   <line x1="807.174683" y1="1209.354858" x2="807.174683" y2="1249.754150" style="stroke: green; stroke-width: 0.200000"/>
   <line x1="808.174683" y1="1207.536255" x2="808.174683" y2="1249.754150" style="stroke: green; stroke-width: 0.200000"/>
   <line x1="809.174683" y1="1205.717651" x2="809.174683" y2="1249.754150" style="stroke: green; stroke-width: 0.200000"/>
   <line x1="810.174683" y1="1204.514648" x2="810.174683" y2="1249.754150" style="stroke: green; stroke-width: 0.200000"/>
   <line x1="811.174683" y1="1203.953613" x2="811.174683" y2="1249.754150" style="stroke: green; stroke-width: 0.200000"/>
   <line x1="812.174683" y1="1203.392578" x2="812.174683" y2="1249.754150" style="stroke: green; stroke-width: 0.200000"/>
   <line x1="813.174683" y1="1202.768066" x2="813.174683" y2="1249.754150" style="stroke: green; stroke-width: 0.200000"/>
   <line x1="814.174683" y1="1202.108887" x2="814.174683" y2="1249.754150" style="stroke: green; stroke-width: 0.200000"/>
   <line x1="815.174683" y1="1201.449951" x2="815.174683" y2="1249.754150" style="stroke: green; stroke-width: 0.200000"/>
   <line x1="816.174683" y1="1200.790771" x2="816.174683" y2="1249.754150" style="stroke: green; stroke-width: 0.200000"/>
   <line x1="817.174683" y1="1200.131714" x2="817.174683" y2="1249.754150" style="stroke: green; stroke-width: 0.200000"/>
   <line x1="818.174683" y1="1200.033936" x2="818.174683" y2="1249.754150" style="stroke: green; stroke-width: 0.200000"/>
   <line x1="819.174683" y1="1200.688965" x2="819.174683" y2="1249.754150" style="stroke: green; stroke-width: 0.200000"/>
   <line x1="820.174683" y1="1201.343872" x2="820.174683" y2="1249.754150" style="stroke: green; stroke-width: 0.200000"/>
   <line x1="821.174683" y1="1201.998901" x2="821.174683" y2="1249.754150" style="stroke: green; stroke-width: 0.200000"/>
   <line x1="822.174683" y1="1202.653931" x2="822.174683" y2="1249.754150" style="stroke: green; stroke-width: 0.200000"/>
   <line x1="823.174683" y1="1203.308960" x2="823.174683" y2="1249.754150" style="stroke: green; stroke-width: 0.200000"/>
   <line x1="824.174683" y1="1203.948608" x2="824.174683" y2="1249.754150" style="stroke: green; stroke-width: 0.200000"/>
   <line x1="825.174683" y1="1204.404297" x2="825.174683" y2="1249.754150" style="stroke: green; stroke-width: 0.200000"/>
   <line x1="826.174683" y1="1205.187744" x2="826.174683" y2="1249.754150" style="stroke: green; stroke-width: 0.200000"/>
   <line x1="827.174683" y1="1206.866699" x2="827.174683" y2="1249.754150" style="stroke: green; stroke-width: 0.200000"/>
   <line x1="828.174683" y1="1208.545898" x2="828.174683" y2="1249.754150" style="stroke: green; stroke-width: 0.200000"/>
   <line x1="829.174683" y1="1210.225098" x2="829.174683" y2="1249.754150" style="stroke: green; stroke-width: 0.200000"/>
   <line x1="830.174683" y1="1211.904175" x2="830.174683" y2="1249.754150" style="stroke: green; stroke-width: 0.200000"/>
   <line x1="831.174683" y1="1213.354370" x2="831.174683" y2="1249.754150" style="stroke: green; stroke-width: 0.200000"/>
   <line x1="832.174683" y1="1214.709717" x2="832.174683" y2="1249.754150" style="stroke: green; stroke-width: 0.200000"/>
   <line x1="833.174683" y1="1216.423096" x2="833.174683" y2="1249.754150" style="stroke: green; stroke-width: 0.200000"/>
   <line x1="834.174683" y1="1218.541260" x2="834.174683" y2="1249.754150" style="stroke: green; stroke-width: 0.200000"/>
   <line x1="835.174683" y1="1220.659424" x2="835.174683" y2="1249.754150" style="stroke: green; stroke-width: 0.200000"/>
   <line x1="836.174683" y1="1222.777710" x2="836.174683" y2="1249.754150" style="stroke: green; stroke-width: 0.200000"/>
   <line x1="837.174683" y1="1225.125000" x2="837.174683" y2="1249.754150" style="stroke: green; stroke-width: 0.200000"/>
   <line x1="838.174683" y1="1227.827637" x2="838.174683" y2="1249.754150" style="stroke: green; stroke-width: 0.200000"/>
   <line x1="839.174683" y1="1230.530396" x2="839.174683" y2="1249.754150" style="stroke: green; stroke-width: 0.200000"/>
   <line x1="840.174683" y1="1233.233032" x2="840.174683" y2="1249.754150" style="stroke: green; stroke-width: 0.200000"/>
   <line x1="841.174683" y1="1236.023438" x2="841.174683" y2="1249.754150" style="stroke: green; stroke-width: 0.200000"/>
   <line x1="842.174683" y1="1238.860107" x2="842.174683" y2="1249.754150" style="stroke: green; stroke-width: 0.200000"/>
   <line x1="843.174683" y1="1241.696899" x2="843.174683" y2="1249.754150" style="stroke: green; stroke-width: 0.200000"/>
   <line x1="844.174683" y1="1244.533569" x2="844.174683" y2="1249.754150" style="stroke: green; stroke-width: 0.200000"/>
   <line x1="845.174683" y1="1249.590332" x2="845.174683" y2="1249.754150" style="stroke: green; stroke-width: 0.200000"/>
   <line x1="814.174683" y1="1249.854126" x2="814.174683" y2="1299.854126" style="stroke: green; stroke-width: 0.200000"/>
   <line x1="815.174683" y1="1249.854126" x2="815.174683" y2="1299.854126" style="stroke: green; stroke-width: 0.200000"/>
   <line x1="816.174683" y1="1249.854126" x2="816.174683" y2="1299.854126" style="stroke: green; stroke-width: 0.200000"/>
   <line x1="817.174683" y1="1249.854126" x2="817.174683" y2="1299.854126" style="stroke: green; stroke-width: 0.200000"/>
   <line x1="818.174683" y1="1249.854126" x2="818.174683" y2="1299.854126" style="stroke: green; stroke-width: 0.200000"/>
   <line x1="819.174683" y1="1249.854126" x2="819.174683" y2="1299.854126" style="stroke: green; stroke-width: 0.200000"/>
   <line x1="820.174683" y1="1249.854126" x2="820.174683" y2="1299.854126" style="stroke: green; stroke-width: 0.200000"/>
   <line x1="821.174683" y1="1249.854126" x2="821.174683" y2="1299.854126" style="stroke: green; stroke-width: 0.200000"/>
   <line x1="822.174683" y1="1249.854126" x2="822.174683" y2="1299.854126" style="stroke: green; stroke-width: 0.200000"/>
   <line x1="823.174683" y1="1249.854126" x2="823.174683" y2="1299.854126" style="stroke: green; stroke-width: 0.200000"/>
   <line x1="824.174683" y1="1249.854126" x2="824.174683" y2="1299.854126" style="stroke: green; stroke-width: 0.200000"/>
   <line x1="825.174683" y1="1249.854126" x2="825.174683" y2="1299.854126" style="stroke: green; stroke-width: 0.200000"/>
   <line x1="826.174683" y1="1249.854126" x2="826.174683" y2="1299.854126" style="stroke: green; stroke-width: 0.200000"/>
   <line x1="827.174683" y1="1249.854126" x2="827.174683" y2="1299.854126" style="stroke: green; stroke-width: 0.200000"/>
   <line x1="828.174683" y1="1249.854126" x2="828.174683" y2="1299.854126" style="stroke: green; stroke-width: 0.200000"/>
   <line x1="829.174683" y1="1249.854126" x2="829.174683" y2="1299.854126" style="stroke: green; stroke-width: 0.200000"/>
   <line x1="830.174683" y1="1249.854126" x2="830.174683" y2="1299.854126" style="stroke: green; stroke-width: 0.200000"/>
   <line x1="831.174683" y1="1249.854126" x2="831.174683" y2="1299.854126" style="stroke: green; stroke-width: 0.200000"/>
   <line x1="832.174683" y1="1249.854126" x2="832.174683" y2="1299.854126" style="stroke: green; stroke-width: 0.200000"/>
   <line x1="833.174683" y1="1249.854126" x2="833.174683" y2="1299.854126" style="stroke: green; stroke-width: 0.200000"/>
   <line x1="834.174683" y1="1249.854126" x2="834.174683" y2="1299.854126" style="stroke: green; stroke-width: 0.200000"/>
   <line x1="835.174683" y1="1249.854126" x2="835.174683" y2="1299.854126" style="stroke: green; stroke-width: 0.200000"/>
   <line x1="836.174683" y1="1249.854126" x2="836.174683" y2="1299.854126" style="stroke: green; stroke-width: 0.200000"/>
   <line x1="837.174683" y1="1249.854126" x2="837.174683" y2="1299.854126" style="stroke: green; stroke-width: 0.200000"/>
   <line x1="838.174683" y1="1249.854126" x2="838.174683" y2="1299.854126" style="stroke: green; stroke-width: 0.200000"/>
   <line x1="839.174683" y1="1249.854126" x2="839.174683" y2="1299.854126" style="stroke: green; stroke-width: 0.200000"/>
   <line x1="840.174683" y1="1249.854126" x2="840.174683" y2="1299.854126" style="stroke: green; stroke-width: 0.200000"/>
   <line x1="841.174683" y1="1249.854126" x2="841.174683" y2="1299.854126" style="stroke: green; stroke-width: 0.200000"/>
   <line x1="842.174683" y1="1249.854126" x2="842.174683" y2="1299.854126" style="stroke: green; stroke-width: 0.200000"/>
   <line x1="843.174683" y1="1249.854126" x2="843.174683" y2="1299.854126" style="stroke: green; stroke-width: 0.200000"/>
   <line x1="844.174683" y1="1249.854126" x2="844.174683" y2="1299.854126" style="stroke: green; stroke-width: 0.200000"/>
   <line x1="845.174683" y1="1249.854126" x2="845.174683" y2="1299.854126" style="stroke: green; stroke-width: 0.200000"/>
   <line x1="846.174683" y1="1255.018799" x2="846.174683" y2="1299.854126" style="stroke: green; stroke-width: 0.200000"/>
   <line x1="813.174683" y1="1249.854126" x2="813.174683" y2="1297.982910" style="stroke: green; stroke-width: 0.200000"/>
   <line x1="812.174683" y1="1249.854126" x2="812.174683" y2="1292.653809" style="stroke: green; stroke-width: 0.200000"/>
   <line x1="811.174683" y1="1249.854126" x2="811.174683" y2="1287.606934" style="stroke: green; stroke-width: 0.200000"/>
   <line x1="810.174683" y1="1249.854126" x2="810.174683" y2="1282.708862" style="stroke: green; stroke-width: 0.200000"/>
   <line x1="809.174683" y1="1249.854126" x2="809.174683" y2="1279.603027" style="stroke: green; stroke-width: 0.200000"/>
   <line x1="808.174683" y1="1249.854126" x2="808.174683" y2="1277.265503" style="stroke: green; stroke-width: 0.200000"/>
   <line x1="807.174683" y1="1249.854126" x2="807.174683" y2="1274.928101" style="stroke: green; stroke-width: 0.200000"/>
   <line x1="806.174683" y1="1249.854126" x2="806.174683" y2="1272.621094" style="stroke: green; stroke-width: 0.200000"/>
   <line x1="805.174683" y1="1249.854126" x2="805.174683" y2="1270.840820" style="stroke: green; stroke-width: 0.200000"/>
   <line x1="804.174683" y1="1249.854126" x2="804.174683" y2="1269.060669" style="stroke: green; stroke-width: 0.200000"/>
   <line x1="803.174683" y1="1249.854126" x2="803.174683" y2="1267.155518" style="stroke: green; stroke-width: 0.200000"/>
   <line x1="802.174683" y1="1249.854126" x2="802.174683" y2="1265.145020" style="stroke: green; stroke-width: 0.200000"/>
   <line x1="801.174683" y1="1249.854126" x2="801.174683" y2="1263.277710" style="stroke: green; stroke-width: 0.200000"/>
   <line x1="800.174683" y1="1249.854126" x2="800.174683" y2="1261.484863" style="stroke: green; stroke-width: 0.200000"/>
   <line x1="799.174683" y1="1249.854126" x2="799.174683" y2="1259.691895" style="stroke: green; stroke-width: 0.200000"/>
   <line x1="798.174683" y1="1249.854126" x2="798.174683" y2="1257.899048" style="stroke: green; stroke-width: 0.200000"/>
   <line x1="797.174683" y1="1249.854126" x2="797.174683" y2="1251.935669" style="stroke: green; stroke-width: 0.200000"/>
   <line x1="847.174683" y1="1260.311646" x2="847.174683" y2="1298.958496" style="stroke: green; stroke-width: 0.200000"/>
   <line x1="848.174683" y1="1278.281494" x2="848.174683" y2="1287.341919" style="stroke: green; stroke-width: 0.200000"/>
   <line x1="826.174683" y1="1299.954102" x2="826.174683" y2="1349.954102" style="stroke: green; stroke-width: 0.200000"/>
   <line x1="827.174683" y1="1299.954102" x2="827.174683" y2="1349.954102" style="stroke: green; stroke-width: 0.200000"/>
   <line x1="828.174683" y1="1299.954102" x2="828.174683" y2="1349.954102" style="stroke: green; stroke-width: 0.200000"/>
   <line x1="829.174683" y1="1299.954102" x2="829.174683" y2="1349.954102" style="stroke: green; stroke-width: 0.200000"/>
   <line x1="830.174683" y1="1299.954102" x2="830.174683" y2="1349.954102" style="stroke: green; stroke-width: 0.200000"/>
   <line x1="831.174683" y1="1299.954102" x2="831.174683" y2="1349.954102" style="stroke: green; stroke-width: 0.200000"/>
   <line x1="832.174683" y1="1299.954102" x2="832.174683" y2="1349.954102" style="stroke: green; stroke-width: 0.200000"/>
   <line x1="833.174683" y1="1299.954102" x2="833.174683" y2="1349.954102" style="stroke: green; stroke-width: 0.200000"/>
   <line x1="834.174683" y1="1299.954102" x2="834.174683" y2="1349.954102" style="stroke: green; stroke-width: 0.200000"/>
   <line x1="835.174683" y1="1299.954102" x2="835.174683" y2="1349.954102" style="stroke: green; stroke-width: 0.200000"/>
   <line x1="836.174683" y1="1299.954102" x2="836.174683" y2="1349.954102" style="stroke: green; stroke-width: 0.200000"/>
   <line x1="837.174683" y1="1299.954102" x2="837.174683" y2="1349.954102" style="stroke: green; stroke-width: 0.200000"/>
   <line x1="838.174683" y1="1299.954102" x2="838.174683" y2="1349.954102" style="stroke: green; stroke-width: 0.200000"/>
   <line x1="839.174683" y1="1299.954102" x2="839.174683" y2="1349.954102" style="stroke: green; stroke-width: 0.200000"/>
   <line x1="840.174683" y1="1299.954102" x2="840.174683" y2="1349.954102" style="stroke: green; stroke-width: 0.200000"/>
   <line x1="841.174683" y1="1299.954102" x2="841.174683" y2="1349.954102" style="stroke: green; stroke-width: 0.200000"/>
   <line x1="842.174683" y1="1299.954102" x2="842.174683" y2="1349.016113" style="stroke: green; stroke-width: 0.200000"/>
   <line x1="825.174683" y1="1299.954102" x2="825.174683" y2="1347.183350" style="stroke: green; stroke-width: 0.200000"/>
   <line x1="824.174683" y1="1299.954102" x2="824.174683" y2="1343.868652" style="stroke: green; stroke-width: 0.200000"/>
   <line x1="823.174683" y1="1299.954102" x2="823.174683" y2="1340.554199" style="stroke: green; stroke-width: 0.200000"/>
   <line x1="843.174683" y1="1299.954102" x2="843.174683" y2="1340.382812" style="stroke: green; stroke-width: 0.200000"/>
   <line x1="822.174683" y1="1299.954102" x2="822.174683" y2="1336.979492" style="stroke: green; stroke-width: 0.200000"/>
   <line x1="821.174683" y1="1299.954102" x2="821.174683" y2="1333.447876" style="stroke: green; stroke-width: 0.200000"/>
   <line x1="820.174683" y1="1299.954102" x2="820.174683" y2="1329.961060" style="stroke: green; stroke-width: 0.200000"/>
   <line x1="844.174683" y1="1299.954102" x2="844.174683" y2="1326.889648" style="stroke: green; stroke-width: 0.200000"/>
   <line x1="819.174683" y1="1299.954102" x2="819.174683" y2="1325.948364" style="stroke: green; stroke-width: 0.200000"/>
   <line x1="818.174683" y1="1299.954102" x2="818.174683" y2="1321.563843" style="stroke: green; stroke-width: 0.200000"/>
   <line x1="817.174683" y1="1299.954102" x2="817.174683" y2="1317.683105" style="stroke: green; stroke-width: 0.200000"/>
   <line x1="845.174683" y1="1299.954102" x2="845.174683" y2="1316.933716" style="stroke: green; stroke-width: 0.200000"/>
   <line x1="816.174683" y1="1299.954102" x2="816.174683" y2="1313.088623" style="stroke: green; stroke-width: 0.200000"/>
   <line x1="815.174683" y1="1299.954102" x2="815.174683" y2="1308.493896" style="stroke: green; stroke-width: 0.200000"/>
   <line x1="846.174683" y1="1299.954102" x2="846.174683" y2="1307.953125" style="stroke: green; stroke-width: 0.200000"/>
   <line x1="814.174683" y1="1299.954102" x2="814.174683" y2="1303.384766" style="stroke: green; stroke-width: 0.200000"/>
   <line x1="837.174683" y1="1350.054199" x2="837.174683" y2="1361.819946" style="stroke: green; stroke-width: 0.200000"/>
   <line x1="836.174683" y1="1350.054199" x2="836.174683" y2="1361.300293" style="stroke: green; stroke-width: 0.200000"/>
   <line x1="835.174683" y1="1350.054199" x2="835.174683" y2="1360.953857" style="stroke: green; stroke-width: 0.200000"/>
   <line x1="838.174683" y1="1350.054199" x2="838.174683" y2="1360.904419" style="stroke: green; stroke-width: 0.200000"/>
   <line x1="834.174683" y1="1350.054199" x2="834.174683" y2="1360.682251" style="stroke: green; stroke-width: 0.200000"/>
   <line x1="833.174683" y1="1350.054199" x2="833.174683" y2="1360.410400" style="stroke: green; stroke-width: 0.200000"/>
   <line x1="832.174683" y1="1350.054199" x2="832.174683" y2="1360.138916" style="stroke: green; stroke-width: 0.200000"/>
   <line x1="831.174683" y1="1350.054199" x2="831.174683" y2="1359.867188" style="stroke: green; stroke-width: 0.200000"/>
   <line x1="830.174683" y1="1350.054199" x2="830.174683" y2="1359.595703" style="stroke: green; stroke-width: 0.200000"/>
   <line x1="839.174683" y1="1350.054199" x2="839.174683" y2="1358.860474" style="stroke: green; stroke-width: 0.200000"/>
   <line x1="829.174683" y1="1350.054199" x2="829.174683" y2="1357.871704" style="stroke: green; stroke-width: 0.200000"/>
   <line x1="840.174683" y1="1350.054199" x2="840.174683" y2="1356.540649" style="stroke: green; stroke-width: 0.200000"/>
   <line x1="828.174683" y1="1350.054199" x2="828.174683" y2="1355.267090" style="stroke: green; stroke-width: 0.200000"/>
   <line x1="841.174683" y1="1350.054199" x2="841.174683" y2="1354.220947" style="stroke: green; stroke-width: 0.200000"/>
   <line x1="827.174683" y1="1350.054199" x2="827.174683" y2="1352.662354" style="stroke: green; stroke-width: 0.200000"/>
   <line x1="826.174683" y1="1350.054199" x2="826.174683" y2="1350.057617" style="stroke: green; stroke-width: 0.200000"/>
   <line x1="897.123352" y1="1152.726807" x2="897.123352" y2="1200.270020" style="stroke: green; stroke-width: 0.200000"/>
   <line x1="898.123291" y1="1152.975830" x2="898.123291" y2="1200.270020" style="stroke: green; stroke-width: 0.200000"/>
   <line x1="899.123291" y1="1153.200806" x2="899.123291" y2="1200.270020" style="stroke: green; stroke-width: 0.200000"/>
   <line x1="900.123291" y1="1153.553101" x2="900.123291" y2="1200.270020" style="stroke: green; stroke-width: 0.200000"/>
   <line x1="901.123352" y1="1154.238159" x2="901.123352" y2="1200.270020" style="stroke: green; stroke-width: 0.200000"/>
   <line x1="902.123352" y1="1154.923218" x2="902.123352" y2="1200.270020" style="stroke: green; stroke-width: 0.200000"/>
   <line x1="903.123291" y1="1155.608276" x2="903.123291" y2="1200.270020" style="stroke: green; stroke-width: 0.200000"/>
   <line x1="904.123291" y1="1156.293335" x2="904.123291" y2="1200.270020" style="stroke: green; stroke-width: 0.200000"/>
   <line x1="905.123291" y1="1156.978394" x2="905.123291" y2="1200.270020" style="stroke: green; stroke-width: 0.200000"/>
   <line x1="906.123352" y1="1157.663452" x2="906.123352" y2="1200.270020" style="stroke: green; stroke-width: 0.200000"/>
   <line x1="907.123352" y1="1158.348511" x2="907.123352" y2="1200.270020" style="stroke: green; stroke-width: 0.200000"/>
   <line x1="908.123291" y1="1158.993408" x2="908.123291" y2="1200.270020" style="stroke: green; stroke-width: 0.200000"/>
   <line x1="909.123291" y1="1159.885864" x2="909.123291" y2="1200.270020" style="stroke: green; stroke-width: 0.200000"/>
   <line x1="910.123291" y1="1160.598633" x2="910.123291" y2="1200.270020" style="stroke: green; stroke-width: 0.200000"/>
   <line x1="911.123352" y1="1161.311279" x2="911.123352" y2="1200.270020" style="stroke: green; stroke-width: 0.200000"/>
   <line x1="912.123352" y1="1162.023682" x2="912.123352" y2="1200.270020" style="stroke: green; stroke-width: 0.200000"/>
   <line x1="913.123291" y1="1162.736328" x2="913.123291" y2="1200.270020" style="stroke: green; stroke-width: 0.200000"/>
   <line x1="914.123291" y1="1163.448975" x2="914.123291" y2="1200.270020" style="stroke: green; stroke-width: 0.200000"/>
   <line x1="915.123291" y1="1164.161621" x2="915.123291" y2="1200.270020" style="stroke: green; stroke-width: 0.200000"/>
   <line x1="916.123352" y1="1164.743652" x2="916.123352" y2="1200.270020" style="stroke: green; stroke-width: 0.200000"/>
   <line x1="917.123352" y1="1165.248047" x2="917.123352" y2="1200.270020" style="stroke: green; stroke-width: 0.200000"/>
   <line x1="918.123291" y1="1165.752686" x2="918.123291" y2="1200.270020" style="stroke: green; stroke-width: 0.200000"/>
   <line x1="896.123352" y1="1152.401245" x2="896.123352" y2="1199.556152" style="stroke: green; stroke-width: 0.200000"/>
   <line x1="895.123291" y1="1152.075684" x2="895.123291" y2="1198.780518" style="stroke: green; stroke-width: 0.200000"/>
   <line x1="894.123291" y1="1151.750244" x2="894.123291" y2="1198.005127" style="stroke: green; stroke-width: 0.200000"/>
   <line x1="893.123291" y1="1151.424683" x2="893.123291" y2="1197.229492" style="stroke: green; stroke-width: 0.200000"/>
   <line x1="892.123352" y1="1151.099121" x2="892.123352" y2="1196.453979" style="stroke: green; stroke-width: 0.200000"/>
   <line x1="891.123352" y1="1150.773560" x2="891.123352" y2="1195.691040" style="stroke: green; stroke-width: 0.200000"/>
   <line x1="890.123291" y1="1150.448120" x2="890.123291" y2="1194.983887" style="stroke: green; stroke-width: 0.200000"/>
   <line x1="889.123291" y1="1150.348145" x2="889.123291" y2="1194.276367" style="stroke: green; stroke-width: 0.200000"/>
   <line x1="888.123291" y1="1150.520752" x2="888.123291" y2="1193.329834" style="stroke: green; stroke-width: 0.200000"/>
   <line x1="887.123352" y1="1150.693237" x2="887.123352" y2="1192.383057" style="stroke: green; stroke-width: 0.200000"/>
   <line x1="886.123352" y1="1150.851562" x2="886.123352" y2="1191.436523" style="stroke: green; stroke-width: 0.200000"/>
   <line x1="885.123291" y1="1150.980957" x2="885.123291" y2="1190.489868" style="stroke: green; stroke-width: 0.200000"/>
   <line x1="884.123291" y1="1151.110229" x2="884.123291" y2="1189.543213" style="stroke: green; stroke-width: 0.200000"/>
   <line x1="883.123291" y1="1151.239502" x2="883.123291" y2="1188.596558" style="stroke: green; stroke-width: 0.200000"/>
   <line x1="882.123352" y1="1151.368896" x2="882.123352" y2="1187.649902" style="stroke: green; stroke-width: 0.200000"/>
   <line x1="881.123352" y1="1151.498169" x2="881.123352" y2="1186.761719" style="stroke: green; stroke-width: 0.200000"/>
   <line x1="880.123291" y1="1151.627441" x2="880.123291" y2="1185.748901" style="stroke: green; stroke-width: 0.200000"/>
   <line x1="879.123291" y1="1151.756836" x2="879.123291" y2="1184.652222" style="stroke: green; stroke-width: 0.200000"/>
   <line x1="878.123291" y1="1152.378174" x2="878.123291" y2="1183.547363" style="stroke: green; stroke-width: 0.200000"/>
   <line x1="877.123352" y1="1153.034058" x2="877.123352" y2="1182.442505" style="stroke: green; stroke-width: 0.200000"/>
   <line x1="876.123352" y1="1153.734009" x2="876.123352" y2="1181.337524" style="stroke: green; stroke-width: 0.200000"/>
   <line x1="875.123291" y1="1154.453003" x2="875.123291" y2="1180.130737" style="stroke: green; stroke-width: 0.200000"/>
   <line x1="874.123291" y1="1155.171875" x2="874.123291" y2="1178.694702" style="stroke: green; stroke-width: 0.200000"/>
   <line x1="873.123291" y1="1155.890747" x2="873.123291" y2="1177.258789" style="stroke: green; stroke-width: 0.200000"/>
   <line x1="872.123352" y1="1156.609619" x2="872.123352" y2="1175.822876" style="stroke: green; stroke-width: 0.200000"/>
   <line x1="871.123352" y1="1157.636963" x2="871.123352" y2="1174.386841" style="stroke: green; stroke-width: 0.200000"/>
   <line x1="870.123291" y1="1160.391968" x2="870.123291" y2="1170.966675" style="stroke: green; stroke-width: 0.200000"/>
   <line x1="869.123291" y1="1163.146851" x2="869.123291" y2="1167.505737" style="stroke: green; stroke-width: 0.200000"/>
   <line x1="919.123291" y1="1166.257080" x2="919.123291" y2="1200.270020" style="stroke: green; stroke-width: 0.200000"/>
   <line x1="920.123291" y1="1166.761230" x2="920.123291" y2="1200.270020" style="stroke: green; stroke-width: 0.200000"/>
   <line x1="921.123352" y1="1167.265625" x2="921.123352" y2="1200.270020" style="stroke: green; stroke-width: 0.200000"/>
   <line x1="922.123352" y1="1167.794556" x2="922.123352" y2="1200.270020" style="stroke: green; stroke-width: 0.200000"/>
   <line x1="923.123291" y1="1168.376465" x2="923.123291" y2="1200.270020" style="stroke: green; stroke-width: 0.200000"/>
   <line x1="924.123291" y1="1168.926025" x2="924.123291" y2="1200.270020" style="stroke: green; stroke-width: 0.200000"/>
   <line x1="925.123291" y1="1169.275757" x2="925.123291" y2="1200.270020" style="stroke: green; stroke-width: 0.200000"/>
   <line x1="926.123352" y1="1169.625488" x2="926.123352" y2="1200.270020" style="stroke: green; stroke-width: 0.200000"/>
   <line x1="927.123352" y1="1169.975342" x2="927.123352" y2="1200.270020" style="stroke: green; stroke-width: 0.200000"/>
   <line x1="928.123291" y1="1170.219727" x2="928.123291" y2="1200.270020" style="stroke: green; stroke-width: 0.200000"/>
   <line x1="929.123291" y1="1170.411133" x2="929.123291" y2="1200.270020" style="stroke: green; stroke-width: 0.200000"/>
   <line x1="930.123291" y1="1170.602417" x2="930.123291" y2="1200.270020" style="stroke: green; stroke-width: 0.200000"/>
   <line x1="931.123352" y1="1170.793701" x2="931.123352" y2="1200.270020" style="stroke: green; stroke-width: 0.200000"/>
   <line x1="932.123352" y1="1170.984985" x2="932.123352" y2="1200.270020" style="stroke: green; stroke-width: 0.200000"/>
   <line x1="933.123291" y1="1171.176270" x2="933.123291" y2="1200.270020" style="stroke: green; stroke-width: 0.200000"/>
   <line x1="934.123291" y1="1171.323120" x2="934.123291" y2="1200.270020" style="stroke: green; stroke-width: 0.200000"/>
   <line x1="935.123291" y1="1171.450317" x2="935.123291" y2="1200.270020" style="stroke: green; stroke-width: 0.200000"/>
   <line x1="936.123352" y1="1171.577393" x2="936.123352" y2="1200.270020" style="stroke: green; stroke-width: 0.200000"/>
   <line x1="937.123352" y1="1171.704590" x2="937.123352" y2="1200.270020" style="stroke: green; stroke-width: 0.200000"/>
   <line x1="938.123291" y1="1171.858276" x2="938.123291" y2="1200.270020" style="stroke: green; stroke-width: 0.200000"/>
   <line x1="939.123291" y1="1172.100830" x2="939.123291" y2="1200.270020" style="stroke: green; stroke-width: 0.200000"/>
   <line x1="940.123291" y1="1172.343262" x2="940.123291" y2="1200.270020" style="stroke: green; stroke-width: 0.200000"/>
   <line x1="941.123352" y1="1172.585815" x2="941.123352" y2="1200.270020" style="stroke: green; stroke-width: 0.200000"/>
   <line x1="942.123352" y1="1172.828369" x2="942.123352" y2="1200.270020" style="stroke: green; stroke-width: 0.200000"/>
   <line x1="943.123291" y1="1173.070923" x2="943.123291" y2="1200.270020" style="stroke: green; stroke-width: 0.200000"/>
   <line x1="944.123291" y1="1173.288696" x2="944.123291" y2="1200.270020" style="stroke: green; stroke-width: 0.200000"/>
   <line x1="945.123291" y1="1173.499146" x2="945.123291" y2="1200.270020" style="stroke: green; stroke-width: 0.200000"/>
   <line x1="946.123352" y1="1173.709595" x2="946.123352" y2="1200.270020" style="stroke: green; stroke-width: 0.200000"/>
   <line x1="947.123352" y1="1173.920166" x2="947.123352" y2="1200.270020" style="stroke: green; stroke-width: 0.200000"/>
   <line x1="948.123291" y1="1174.130737" x2="948.123291" y2="1200.270020" style="stroke: green; stroke-width: 0.200000"/>
   <line x1="949.123291" y1="1174.341187" x2="949.123291" y2="1200.270020" style="stroke: green; stroke-width: 0.200000"/>
   <line x1="950.123291" y1="1174.551758" x2="950.123291" y2="1200.270020" style="stroke: green; stroke-width: 0.200000"/>
   <line x1="951.123352" y1="1174.878052" x2="951.123352" y2="1200.270020" style="stroke: green; stroke-width: 0.200000"/>
   <line x1="952.123352" y1="1175.806763" x2="952.123352" y2="1200.270020" style="stroke: green; stroke-width: 0.200000"/>
   <line x1="953.123291" y1="1176.882812" x2="953.123291" y2="1200.270020" style="stroke: green; stroke-width: 0.200000"/>
   <line x1="954.123291" y1="1177.959106" x2="954.123291" y2="1200.270020" style="stroke: green; stroke-width: 0.200000"/>
   <line x1="955.123291" y1="1179.035156" x2="955.123291" y2="1200.270020" style="stroke: green; stroke-width: 0.200000"/>
   <line x1="956.123352" y1="1180.111328" x2="956.123352" y2="1200.270020" style="stroke: green; stroke-width: 0.200000"/>
   <line x1="957.123352" y1="1180.698364" x2="957.123352" y2="1200.270020" style="stroke: green; stroke-width: 0.200000"/>
   <line x1="958.123291" y1="1181.021240" x2="958.123291" y2="1200.270020" style="stroke: green; stroke-width: 0.200000"/>
   <line x1="959.123291" y1="1181.344116" x2="959.123291" y2="1200.270020" style="stroke: green; stroke-width: 0.200000"/>
   <line x1="960.123291" y1="1181.667114" x2="960.123291" y2="1200.270020" style="stroke: green; stroke-width: 0.200000"/>
   <line x1="961.123352" y1="1181.961792" x2="961.123352" y2="1200.270020" style="stroke: green; stroke-width: 0.200000"/>
   <line x1="962.123352" y1="1182.242920" x2="962.123352" y2="1200.270020" style="stroke: green; stroke-width: 0.200000"/>
   <line x1="963.123291" y1="1182.523926" x2="963.123291" y2="1200.270020" style="stroke: green; stroke-width: 0.200000"/>
   <line x1="964.123291" y1="1182.805054" x2="964.123291" y2="1200.270020" style="stroke: green; stroke-width: 0.200000"/>
   <line x1="965.123291" y1="1183.086304" x2="965.123291" y2="1200.270020" style="stroke: green; stroke-width: 0.200000"/>
   <line x1="966.123352" y1="1183.367798" x2="966.123352" y2="1200.270020" style="stroke: green; stroke-width: 0.200000"/>
   <line x1="967.123352" y1="1183.649048" x2="967.123352" y2="1200.270020" style="stroke: green; stroke-width: 0.200000"/>
   <line x1="968.123291" y1="1183.930176" x2="968.123291" y2="1200.270020" style="stroke: green; stroke-width: 0.200000"/>
   <line x1="969.123291" y1="1184.280151" x2="969.123291" y2="1200.270020" style="stroke: green; stroke-width: 0.200000"/>
   <line x1="970.123291" y1="1184.630371" x2="970.123291" y2="1200.270020" style="stroke: green; stroke-width: 0.200000"/>
   <line x1="971.123352" y1="1184.908447" x2="971.123352" y2="1200.270020" style="stroke: green; stroke-width: 0.200000"/>
   <line x1="972.123352" y1="1185.186401" x2="972.123352" y2="1200.270020" style="stroke: green; stroke-width: 0.200000"/>
   <line x1="973.123291" y1="1185.794189" x2="973.123291" y2="1200.270020" style="stroke: green; stroke-width: 0.200000"/>
   <line x1="974.123291" y1="1196.060547" x2="974.123291" y2="1200.270020" style="stroke: green; stroke-width: 0.200000"/>
   <line x1="975.123291" y1="1198.001465" x2="975.123291" y2="1200.270020" style="stroke: green; stroke-width: 0.200000"/>
   <line x1="976.123352" y1="1199.941772" x2="976.123352" y2="1200.270020" style="stroke: green; stroke-width: 0.200000"/>
   <line x1="974.123291" y1="1186.620850" x2="974.123291" y2="1195.393188" style="stroke: green; stroke-width: 0.200000"/>
   <line x1="975.123291" y1="1187.447510" x2="975.123291" y2="1194.412109" style="stroke: green; stroke-width: 0.200000"/>
   <line x1="976.123352" y1="1188.273804" x2="976.123352" y2="1193.431152" style="stroke: green; stroke-width: 0.200000"/>
   <line x1="977.123352" y1="1189.100464" x2="977.123352" y2="1192.450195" style="stroke: green; stroke-width: 0.200000"/>
   <line x1="978.123291" y1="1189.982056" x2="978.123291" y2="1191.468994" style="stroke: green; stroke-width: 0.200000"/>
   <line x1="918.123291" y1="1200.369995" x2="918.123291" y2="1211.797363" style="stroke: green; stroke-width: 0.200000"/>
   <line x1="917.123352" y1="1200.369995" x2="917.123352" y2="1211.331055" style="stroke: green; stroke-width: 0.200000"/>
   <line x1="916.123352" y1="1200.369995" x2="916.123352" y2="1210.864502" style="stroke: green; stroke-width: 0.200000"/>
   <line x1="915.123291" y1="1200.369995" x2="915.123291" y2="1210.398193" style="stroke: green; stroke-width: 0.200000"/>
   <line x1="914.123291" y1="1200.369995" x2="914.123291" y2="1209.911743" style="stroke: green; stroke-width: 0.200000"/>
   <line x1="913.123291" y1="1200.369995" x2="913.123291" y2="1209.424561" style="stroke: green; stroke-width: 0.200000"/>
   <line x1="912.123352" y1="1200.369995" x2="912.123352" y2="1208.937500" style="stroke: green; stroke-width: 0.200000"/>
   <line x1="911.123352" y1="1200.369995" x2="911.123352" y2="1208.450317" style="stroke: green; stroke-width: 0.200000"/>
   <line x1="910.123291" y1="1200.369995" x2="910.123291" y2="1207.963135" style="stroke: green; stroke-width: 0.200000"/>
   <line x1="909.123291" y1="1200.369995" x2="909.123291" y2="1207.476074" style="stroke: green; stroke-width: 0.200000"/>
   <line x1="908.123291" y1="1200.369995" x2="908.123291" y2="1206.988892" style="stroke: green; stroke-width: 0.200000"/>
   <line x1="907.123352" y1="1200.369995" x2="907.123352" y2="1206.449097" style="stroke: green; stroke-width: 0.200000"/>
   <line x1="906.123352" y1="1200.369995" x2="906.123352" y2="1205.861084" style="stroke: green; stroke-width: 0.200000"/>
   <line x1="905.123291" y1="1200.369995" x2="905.123291" y2="1205.273193" style="stroke: green; stroke-width: 0.200000"/>
   <line x1="904.123291" y1="1200.369995" x2="904.123291" y2="1204.685181" style="stroke: green; stroke-width: 0.200000"/>
   <line x1="903.123291" y1="1200.369995" x2="903.123291" y2="1204.097168" style="stroke: green; stroke-width: 0.200000"/>
   <line x1="902.123352" y1="1200.369995" x2="902.123352" y2="1203.509277" style="stroke: green; stroke-width: 0.200000"/>
   <line x1="901.123352" y1="1200.369995" x2="901.123352" y2="1202.921265" style="stroke: green; stroke-width: 0.200000"/>
   <line x1="900.123291" y1="1200.369995" x2="900.123291" y2="1202.333252" style="stroke: green; stroke-width: 0.200000"/>
   <line x1="899.123291" y1="1200.369995" x2="899.123291" y2="1201.842529" style="stroke: green; stroke-width: 0.200000"/>
   <line x1="898.123291" y1="1200.369995" x2="898.123291" y2="1201.107178" style="stroke: green; stroke-width: 0.200000"/>
   <line x1="948.123291" y1="1200.369995" x2="948.123291" y2="1219.117676" style="stroke: green; stroke-width: 0.200000"/>
   <line x1="947.123352" y1="1200.369995" x2="947.123352" y2="1219.041626" style="stroke: green; stroke-width: 0.200000"/>
   <line x1="946.123352" y1="1200.369995" x2="946.123352" y2="1218.965454" style="stroke: green; stroke-width: 0.200000"/>
   <line x1="945.123291" y1="1200.369995" x2="945.123291" y2="1218.889282" style="stroke: green; stroke-width: 0.200000"/>
   <line x1="944.123291" y1="1200.369995" x2="944.123291" y2="1218.813232" style="stroke: green; stroke-width: 0.200000"/>
   <line x1="943.123291" y1="1200.369995" x2="943.123291" y2="1218.737061" style="stroke: green; stroke-width: 0.200000"/>
   <line x1="942.123352" y1="1200.369995" x2="942.123352" y2="1218.660889" style="stroke: green; stroke-width: 0.200000"/>
   <line x1="941.123352" y1="1200.369995" x2="941.123352" y2="1218.574341" style="stroke: green; stroke-width: 0.200000"/>
   <line x1="940.123291" y1="1200.369995" x2="940.123291" y2="1218.459717" style="stroke: green; stroke-width: 0.200000"/>
   <line x1="939.123291" y1="1200.369995" x2="939.123291" y2="1218.332275" style="stroke: green; stroke-width: 0.200000"/>
   <line x1="938.123291" y1="1200.369995" x2="938.123291" y2="1218.101074" style="stroke: green; stroke-width: 0.200000"/>
   <line x1="937.123352" y1="1200.369995" x2="937.123352" y2="1217.869873" style="stroke: green; stroke-width: 0.200000"/>
   <line x1="936.123352" y1="1200.369995" x2="936.123352" y2="1217.638672" style="stroke: green; stroke-width: 0.200000"/>
   <line x1="935.123291" y1="1200.369995" x2="935.123291" y2="1217.407471" style="stroke: green; stroke-width: 0.200000"/>
   <line x1="934.123291" y1="1200.369995" x2="934.123291" y2="1217.176147" style="stroke: green; stroke-width: 0.200000"/>
   <line x1="933.123291" y1="1200.369995" x2="933.123291" y2="1216.944824" style="stroke: green; stroke-width: 0.200000"/>
   <line x1="932.123352" y1="1200.369995" x2="932.123352" y2="1216.683594" style="stroke: green; stroke-width: 0.200000"/>
   <line x1="931.123352" y1="1200.369995" x2="931.123352" y2="1216.414429" style="stroke: green; stroke-width: 0.200000"/>
   <line x1="930.123291" y1="1200.369995" x2="930.123291" y2="1216.145142" style="stroke: green; stroke-width: 0.200000"/>
   <line x1="929.123291" y1="1200.369995" x2="929.123291" y2="1215.875977" style="stroke: green; stroke-width: 0.200000"/>
   <line x1="928.123291" y1="1200.369995" x2="928.123291" y2="1215.606689" style="stroke: green; stroke-width: 0.200000"/>
   <line x1="927.123352" y1="1200.369995" x2="927.123352" y2="1215.337402" style="stroke: green; stroke-width: 0.200000"/>
   <line x1="926.123352" y1="1200.369995" x2="926.123352" y2="1215.068237" style="stroke: green; stroke-width: 0.200000"/>
   <line x1="925.123291" y1="1200.369995" x2="925.123291" y2="1214.798950" style="stroke: green; stroke-width: 0.200000"/>
   <line x1="924.123291" y1="1200.369995" x2="924.123291" y2="1214.529785" style="stroke: green; stroke-width: 0.200000"/>
   <line x1="923.123291" y1="1200.369995" x2="923.123291" y2="1214.129272" style="stroke: green; stroke-width: 0.200000"/>
   <line x1="922.123352" y1="1200.369995" x2="922.123352" y2="1213.662842" style="stroke: green; stroke-width: 0.200000"/>
   <line x1="921.123352" y1="1200.369995" x2="921.123352" y2="1213.196533" style="stroke: green; stroke-width: 0.200000"/>
   <line x1="920.123291" y1="1200.369995" x2="920.123291" y2="1212.730103" style="stroke: green; stroke-width: 0.200000"/>
   <line x1="919.123291" y1="1200.369995" x2="919.123291" y2="1212.263672" style="stroke: green; stroke-width: 0.200000"/>
   <line x1="949.123291" y1="1200.369995" x2="949.123291" y2="1210.465698" style="stroke: green; stroke-width: 0.200000"/>
   <line x1="950.123291" y1="1200.369995" x2="950.123291" y2="1210.377930" style="stroke: green; stroke-width: 0.200000"/>
   <line x1="951.123352" y1="1200.369995" x2="951.123352" y2="1210.290405" style="stroke: green; stroke-width: 0.200000"/>
   <line x1="952.123352" y1="1200.369995" x2="952.123352" y2="1210.202637" style="stroke: green; stroke-width: 0.200000"/>
   <line x1="953.123291" y1="1200.369995" x2="953.123291" y2="1210.114258" style="stroke: green; stroke-width: 0.200000"/>
   <line x1="954.123291" y1="1200.369995" x2="954.123291" y2="1210.026489" style="stroke: green; stroke-width: 0.200000"/>
   <line x1="955.123291" y1="1200.369995" x2="955.123291" y2="1209.938721" style="stroke: green; stroke-width: 0.200000"/>
   <line x1="956.123352" y1="1200.369995" x2="956.123352" y2="1209.851074" style="stroke: green; stroke-width: 0.200000"/>
   <line x1="957.123352" y1="1200.369995" x2="957.123352" y2="1209.763306" style="stroke: green; stroke-width: 0.200000"/>
   <line x1="958.123291" y1="1200.369995" x2="958.123291" y2="1209.675537" style="stroke: green; stroke-width: 0.200000"/>
   <line x1="959.123291" y1="1200.369995" x2="959.123291" y2="1209.588135" style="stroke: green; stroke-width: 0.200000"/>
   <line x1="960.123291" y1="1200.369995" x2="960.123291" y2="1209.500488" style="stroke: green; stroke-width: 0.200000"/>
   <line x1="961.123352" y1="1200.369995" x2="961.123352" y2="1209.412720" style="stroke: green; stroke-width: 0.200000"/>
   <line x1="962.123352" y1="1200.369995" x2="962.123352" y2="1209.337769" style="stroke: green; stroke-width: 0.200000"/>
   <line x1="963.123291" y1="1200.369995" x2="963.123291" y2="1209.267334" style="stroke: green; stroke-width: 0.200000"/>
   <line x1="964.123291" y1="1200.369995" x2="964.123291" y2="1209.196777" style="stroke: green; stroke-width: 0.200000"/>
   <line x1="965.123291" y1="1200.369995" x2="965.123291" y2="1209.096924" style="stroke: green; stroke-width: 0.200000"/>
   <line x1="966.123352" y1="1200.369995" x2="966.123352" y2="1208.847900" style="stroke: green; stroke-width: 0.200000"/>
   <line x1="967.123352" y1="1200.369995" x2="967.123352" y2="1208.598877" style="stroke: green; stroke-width: 0.200000"/>
   <line x1="968.123291" y1="1200.369995" x2="968.123291" y2="1208.349731" style="stroke: green; stroke-width: 0.200000"/>
   <line x1="969.123291" y1="1200.369995" x2="969.123291" y2="1208.100708" style="stroke: green; stroke-width: 0.200000"/>
   <line x1="970.123291" y1="1200.369995" x2="970.123291" y2="1207.851562" style="stroke: green; stroke-width: 0.200000"/>
   <line x1="971.123352" y1="1200.369995" x2="971.123352" y2="1207.602417" style="stroke: green; stroke-width: 0.200000"/>
   <line x1="972.123352" y1="1200.369995" x2="972.123352" y2="1207.353394" style="stroke: green; stroke-width: 0.200000"/>
   <line x1="973.123291" y1="1200.369995" x2="973.123291" y2="1207.201050" style="stroke: green; stroke-width: 0.200000"/>
   <line x1="974.123291" y1="1200.369995" x2="974.123291" y2="1206.825928" style="stroke: green; stroke-width: 0.200000"/>
   <line x1="975.123291" y1="1200.369995" x2="975.123291" y2="1206.440674" style="stroke: green; stroke-width: 0.200000"/>
   <line x1="976.123352" y1="1200.369995" x2="976.123352" y2="1206.043945" style="stroke: green; stroke-width: 0.200000"/>
   <line x1="977.123352" y1="1201.882812" x2="977.123352" y2="1205.602417" style="stroke: green; stroke-width: 0.200000"/>
   <line x1="978.123291" y1="1203.823486" x2="978.123291" y2="1205.160889" style="stroke: green; stroke-width: 0.200000"/>
   <line x1="957.928711" y1="1209.692749" x2="957.928711" y2="1219.713501" style="stroke: green; stroke-width: 0.200000"/>
   <line x1="956.928711" y1="1209.780518" x2="956.928711" y2="1219.661621" style="stroke: green; stroke-width: 0.200000"/>
   <line x1="958.928711" y1="1209.605225" x2="958.928711" y2="1219.641602" style="stroke: green; stroke-width: 0.200000"/>
   <line x1="955.928650" y1="1209.868286" x2="955.928650" y2="1219.603271" style="stroke: green; stroke-width: 0.200000"/>
   <line x1="959.928650" y1="1209.517578" x2="959.928650" y2="1219.569824" style="stroke: green; stroke-width: 0.200000"/>
   <line x1="954.928650" y1="1209.955933" x2="954.928650" y2="1219.544922" style="stroke: green; stroke-width: 0.200000"/>
   <line x1="960.928650" y1="1209.429810" x2="960.928650" y2="1219.497925" style="stroke: green; stroke-width: 0.200000"/>
   <line x1="953.928711" y1="1210.043701" x2="953.928711" y2="1219.486572" style="stroke: green; stroke-width: 0.200000"/>
   <line x1="952.928711" y1="1210.131348" x2="952.928711" y2="1219.428223" style="stroke: green; stroke-width: 0.200000"/>
   <line x1="961.928711" y1="1209.351562" x2="961.928711" y2="1219.426147" style="stroke: green; stroke-width: 0.200000"/>
   <line x1="951.928711" y1="1210.219849" x2="951.928711" y2="1219.369873" style="stroke: green; stroke-width: 0.200000"/>
   <line x1="962.928711" y1="1209.281128" x2="962.928711" y2="1219.354248" style="stroke: green; stroke-width: 0.200000"/>
   <line x1="950.928650" y1="1210.307495" x2="950.928650" y2="1219.311523" style="stroke: green; stroke-width: 0.200000"/>
   <line x1="963.928711" y1="1209.210571" x2="963.928711" y2="1219.282349" style="stroke: green; stroke-width: 0.200000"/>
   <line x1="949.928650" y1="1210.395142" x2="949.928650" y2="1219.253174" style="stroke: green; stroke-width: 0.200000"/>
   <line x1="964.928650" y1="1209.140015" x2="964.928650" y2="1219.210449" style="stroke: green; stroke-width: 0.200000"/>
   <line x1="965.928650" y1="1208.896362" x2="965.928650" y2="1219.138672" style="stroke: green; stroke-width: 0.200000"/>
   <line x1="966.928711" y1="1208.647339" x2="966.928711" y2="1219.066772" style="stroke: green; stroke-width: 0.200000"/>
   <line x1="967.928711" y1="1208.398315" x2="967.928711" y2="1218.970459" style="stroke: green; stroke-width: 0.200000"/>
   <line x1="948.928711" y1="1210.482910" x2="948.928711" y2="1218.764771" style="stroke: green; stroke-width: 0.200000"/>
   <line x1="968.928711" y1="1208.149170" x2="968.928711" y2="1218.721313" style="stroke: green; stroke-width: 0.200000"/>
   <line x1="969.928650" y1="1207.900146" x2="969.928650" y2="1218.472168" style="stroke: green; stroke-width: 0.200000"/>
   <line x1="970.928650" y1="1207.651001" x2="970.928650" y2="1218.223145" style="stroke: green; stroke-width: 0.200000"/>
   <line x1="971.928711" y1="1207.401978" x2="971.928711" y2="1217.974121" style="stroke: green; stroke-width: 0.200000"/>
   <line x1="972.928711" y1="1207.221924" x2="972.928711" y2="1217.867188" style="stroke: green; stroke-width: 0.200000"/>
   <line x1="973.928711" y1="1206.901123" x2="973.928711" y2="1217.760254" style="stroke: green; stroke-width: 0.200000"/>
   <line x1="974.928650" y1="1206.515747" x2="974.928650" y2="1217.653320" style="stroke: green; stroke-width: 0.200000"/>
   <line x1="975.928650" y1="1206.130127" x2="975.928650" y2="1217.546509" style="stroke: green; stroke-width: 0.200000"/>
   <line x1="976.928711" y1="1205.688477" x2="976.928711" y2="1217.439575" style="stroke: green; stroke-width: 0.200000"/>
   <line x1="977.928711" y1="1205.246826" x2="977.928711" y2="1217.230713" style="stroke: green; stroke-width: 0.200000"/>
   <line x1="978.928711" y1="1190.693848" x2="978.928711" y2="1216.845337" style="stroke: green; stroke-width: 0.200000"/>
   <line x1="979.928650" y1="1191.577271" x2="979.928650" y2="1216.459961" style="stroke: green; stroke-width: 0.200000"/>
   <line x1="980.928650" y1="1192.515137" x2="980.928650" y2="1216.074707" style="stroke: green; stroke-width: 0.200000"/>
   <line x1="981.928711" y1="1193.960693" x2="981.928711" y2="1215.689331" style="stroke: green; stroke-width: 0.200000"/>
   <line x1="982.928711" y1="1195.406128" x2="982.928711" y2="1215.303955" style="stroke: green; stroke-width: 0.200000"/>
   <line x1="983.928711" y1="1196.387085" x2="983.928711" y2="1215.005127" style="stroke: green; stroke-width: 0.200000"/>
   <line x1="984.928650" y1="1196.926758" x2="984.928650" y2="1214.759644" style="stroke: green; stroke-width: 0.200000"/>
   <line x1="985.928650" y1="1197.466309" x2="985.928650" y2="1214.514038" style="stroke: green; stroke-width: 0.200000"/>
   <line x1="986.928711" y1="1198.464111" x2="986.928711" y2="1213.767944" style="stroke: green; stroke-width: 0.200000"/>
   <line x1="987.928711" y1="1200.396240" x2="987.928711" y2="1212.913086" style="stroke: green; stroke-width: 0.200000"/>
   <line x1="988.928711" y1="1202.328369" x2="988.928711" y2="1212.058228" style="stroke: green; stroke-width: 0.200000"/>
   <line x1="989.928650" y1="1204.260498" x2="989.928650" y2="1211.203369" style="stroke: green; stroke-width: 0.200000"/>
   <line x1="990.928650" y1="1206.192505" x2="990.928650" y2="1210.314453" style="stroke: green; stroke-width: 0.200000"/>
   <line x1="991.928711" y1="1208.124756" x2="991.928711" y2="1209.402832" style="stroke: green; stroke-width: 0.200000"/>
   <line x1="977.928711" y1="1191.660278" x2="977.928711" y2="1203.445557" style="stroke: green; stroke-width: 0.200000"/>
   <line x1="976.928711" y1="1192.641357" x2="976.928711" y2="1201.504883" style="stroke: green; stroke-width: 0.200000"/>
   <line x1="975.928650" y1="1193.622192" x2="975.928650" y2="1199.563965" style="stroke: green; stroke-width: 0.200000"/>
   <line x1="974.928650" y1="1194.603271" x2="974.928650" y2="1197.623413" style="stroke: green; stroke-width: 0.200000"/>
   <line x1="973.928711" y1="1195.584351" x2="973.928711" y2="1195.682495" style="stroke: green; stroke-width: 0.200000"/>
   <line x1="948.878479" y1="1218.134888" x2="948.878479" y2="1218.137817" style="stroke: green; stroke-width: 0.200000"/>
   <path d="M 828.482  1360.25  824.399  1349.65  824.132  1348.92  821.295  1339.52  820.573  1336.79  818.307  1328.89  816.498  1320.96  815.766  1318.27  813.305  1306.95  812.107  1300.43  810.358  1291.1  808.477  1281.89  808.369  1281.53  806.953  1278.22  " style="fill: none; stroke: darkmagenta; stroke-width: 0.200000; fill-type: evenodd"  fill-opacity="1.000000" />
   <path d="M 806.953  1278.22  804.882  1273.38  802.391  1268.95  800.506  1265.16  796.759  1258.44  796.261  1257.13  796.227  1256.46  796.003  1254.66  " style="fill: none; stroke: red; stroke-width: 0.200000; fill-type: evenodd"  fill-opacity="1.000000" />
   <path d="M 796.003  1254.66  795.117  1247.54  795.991  1243.59  796.339  1238  797.526  1229.99  797.652  1229.03  797.795  1228.16  800.653  1219.21  801.739  1214.85  804.88  1210.41  808.577  1203.69  811.747  1201.91  817.745  1197.96  824.824  1202.6  826.955  1203.57  831.718  1211.56  833.999  1214.66  837.884  1222.88  838.299  1223.84  841.931  1233.66  845.701  1244.35  846.179  1247.1  846.81  1250.07  847.96  1256.47  849.355  1263.68  849.594  1269.96  849.613  1277.48  850.02  1282.39  849.672  1287.44  849.183  1293.38  848.744  1298.39  847.807  1307.14  847.598  1308.59  847.341  1311.1  846.546  1318.16  846.467  1320.19  845.419  1329.17  845.044  1336.91  844.376  1343.33  843.477  1350.74  843.402  1351.59  " style="fill: none; stroke: darkmagenta; stroke-width: 0.200000; fill-type: evenodd"  fill-opacity="1.000000" />
   <path d="M 843.402  1351.59  843.267  1353.16  839.806  1361.19  837.921  1363.9  835.324  1362.55  828.67  1360.74  828.482  1360.25  " style="fill: none; stroke: red; stroke-width: 0.200000; fill-type: evenodd"  fill-opacity="1.000000" />
   <path d="M 824.34  1203.47  826.256  1204.35  830.884  1212.12  833.137  1215.17  836.973  1223.3  837.371  1224.21  840.99  1234  844.73  1244.61  845.197  1247.29  845.828  1250.26  846.977  1256.66  848.358  1263.8  848.594  1269.98  848.613  1277.52  849.017  1282.4  848.674  1287.36  848.187  1293.29  847.749  1298.29  846.814  1307.02  846.605  1308.47  846.346  1311  845.548  1318.08  845.469  1320.11  844.421  1329.09  844.047  1336.83  843.383  1343.21  842.482  1350.63  842.284  1352.91  838.927  1360.7  837.602  1362.61  835.69  1361.61  829.421  1359.91  825.335  1349.3  825.081  1348.6  822.257  1339.24  821.537  1336.53  819.276  1328.64  817.468  1320.71  816.738  1318.03  814.285  1306.76  813.09  1300.24  811.339  1290.91  809.448  1281.65  809.31  1281.19  805.78  1272.94  803.275  1268.48  801.391  1264.69  797.668  1258.02  797.252  1256.93  797.223  1256.37  796.131  1247.59  796.984  1243.73  797.335  1238.11  798.516  1230.12  798.641  1229.18  798.77  1228.4  801.616  1219.48  802.664  1215.27  805.729  1210.95  809.316  1204.42  812.267  1202.77  817.747  1199.16  824.34  1203.47  " style="fill: none; stroke: black; stroke-width: 0.200000; fill-type: evenodd"  fill-opacity="1.000000" />
   <path d="M 936.66  1219.3  932.549  1218.35  923.273  1215.85  914.445  1211.74  906.936  1208.08  899.22  1203.54  898.208  1203.07  890.414  1197.03  888.17  1195.44  880.562  1188.24  880.1  1187.86  878.939  1186.68  874.255  1181.51  869.731  1175.01  866.846  1165.03  870.023  1156.27  875.974  1151.99  878.524  1150.32  886.23  1149.33  889.687  1148.73  897.761  1151.36  900.457  1151.96  908.561  1157.52  909.173  1157.87  910.07  1158.72  916.273  1163.14  922.521  1166.29  924.615  1167.51  927.85  1168.64  933.665  1169.75  938.166  1170.33  943.681  1171.66  951.42  1173.29  951.89  1173.59  952.228  1173.72  957.307  1179.18  960.902  1180.34  968.841  1182.57  970.343  1183.13  972.659  1183.78  " style="fill: none; stroke: darkmagenta; stroke-width: 0.200000; fill-type: evenodd"  fill-opacity="1.000000" />
   <path d="M 972.659  1183.78  973.231  1183.94  978.13  1187.99  981.961  1191.37  982.592  1192.28  " style="fill: none; stroke: red; stroke-width: 0.200000; fill-type: evenodd"  fill-opacity="1.000000" />
   <path d="M 982.592  1192.28  984.445  1194.96  985.724  1195.65  " style="fill: none; stroke: darkmagenta; stroke-width: 0.200000; fill-type: evenodd"  fill-opacity="1.000000" />
   <path d="M 985.724  1195.65  987.72  1196.73  990.583  1202.29  994.24  1209.33  991.323  1211.98  986.811  1215.84  983.759  1216.59  977.918  1218.84  972.19  1219.45  968.026  1220.49  959.066  1221.12  957.895  1221.22  949.717  1220.74  941.25  1220.1  938.979  1219.84  936.66  1219.3  " style="fill: none; stroke: red; stroke-width: 0.200000; fill-type: evenodd"  fill-opacity="1.000000" />
   <path d="M 959.753  1220.07  958.99  1220.13  957.882  1220.22  949.784  1219.75  941.345  1219.1  939.149  1218.85  932.792  1217.38  923.617  1214.91  914.875  1210.83  907.409  1207.2  899.686  1202.66  898.732  1202.21  891.009  1196.22  888.806  1194.66  881.221  1187.48  880.773  1187.12  879.666  1186  875.039  1180.88  870.646  1174.58  867.897  1165.06  870.858  1156.9  876.54  1152.82  878.88  1151.28  886.379  1150.31  889.613  1149.76  897.496  1152.32  900.05  1152.9  908.028  1158.36  908.571  1158.67  909.432  1159.49  915.755  1164  922.044  1167.17  924.195  1168.42  927.589  1169.61  933.508  1170.74  937.985  1171.31  943.46  1172.64  951.038  1174.23  951.443  1174.49  951.655  1174.57  956.751  1180.05  960.613  1181.3  968.53  1183.53  970.033  1184.09  972.758  1184.84  977.48  1188.75  981.208  1192.04  983.759  1195.73  986.534  1197.23  " style="fill: none; stroke: black; stroke-width: 0.200000; fill-type: evenodd"  fill-opacity="1.000000" />
   <path d="M 986.534  1197.23  986.973  1197.46  989.694  1202.74  992.998  1209.1  990.661  1211.23  986.342  1214.93  983.459  1215.64  977.681  1217.86  972.015  1218.47  967.869  1219.5  959.753  1220.07  " style="fill: none; stroke: red; stroke-width: 0.200000; fill-type: evenodd"  fill-opacity="1.000000" />
   <path d="M 1003.1  1248.83  1003.83  1249.56  1004.1  1250.56  1003.83  1251.56  1003.1  1252.29  1002.1  1252.56  1001.1  1252.29  1000.37  1251.56  1000.1  1250.56  1000.37  1249.56  1001.1  1248.83  1002.1  1248.56  1003.1  1248.83  " style="fill: none; stroke: purple; stroke-width: 0.500000; fill-type: evenodd"  fill-opacity="1.000000" />
   <path d="M 1004.1  1230.56  1003.83  1231.56  1003.1  1232.29  1002.1  1232.56  1001.1  1232.29  1000.9  1232.09  1003.84  1229.57  1004.1  1230.56  " style="fill: none; stroke: purple; stroke-width: 0.500000; fill-type: evenodd"  fill-opacity="1.000000" />
</svg>
