<?xml version="1.0" encoding="UTF-8" standalone="yes"?>
<!DOCTYPE svg PUBLIC "-//W3C//DTD SVG 1.0//EN" "http://www.w3.org/TR/2001/REC-SVG-20010904/DTD/svg10.dtd">
<svg height="2000" width="2000" xmlns="http://www.w3.org/2000/svg" xmlns:svg="http://www.w3.org/2000/svg" xmlns:xlink="http://www.w3.org/1999/xlink">
   <marker id="endArrow" markerHeight="8" markerUnits="strokeWidth" markerWidth="10" orient="auto" refX="1" refY="5" viewBox="0 0 1000 1000">
      <polyline fill="darkblue" points="0,0 10,5 0,10 1,5" />
   </marker>
   <circle cx="1000" cy="1000" r="1" style="stroke:black; fill: red" />
   <circle cx="1000" cy="1000" r="800" style="stroke:black; fill: none" />
   <line x1="845.151489" y1="1253.559692" x2="797.041687" y2="1253.559692" style="stroke: green; stroke-width: 0.200000"/>
   <line x1="844.971985" y1="1252.559570" x2="796.917053" y2="1252.559570" style="stroke: green; stroke-width: 0.200000"/>
   <line x1="844.792542" y1="1251.559570" x2="796.792847" y2="1251.559570" style="stroke: green; stroke-width: 0.200000"/>
   <line x1="844.613037" y1="1250.559570" x2="796.668701" y2="1250.559570" style="stroke: green; stroke-width: 0.200000"/>
   <line x1="844.433472" y1="1249.559570" x2="796.544189" y2="1249.559570" style="stroke: green; stroke-width: 0.200000"/>
   <line x1="844.253906" y1="1248.559692" x2="796.467224" y2="1248.559692" style="stroke: green; stroke-width: 0.200000"/>
   <line x1="843.973389" y1="1247.559570" x2="796.687744" y2="1247.559570" style="stroke: green; stroke-width: 0.200000"/>
   <line x1="843.638306" y1="1246.559570" x2="796.909058" y2="1246.559570" style="stroke: green; stroke-width: 0.200000"/>
   <line x1="843.294067" y1="1245.559570" x2="797.130188" y2="1245.559570" style="stroke: green; stroke-width: 0.200000"/>
   <line x1="842.940796" y1="1244.559570" x2="797.351379" y2="1244.559570" style="stroke: green; stroke-width: 0.200000"/>
   <line x1="842.587524" y1="1243.559692" x2="797.572632" y2="1243.559692" style="stroke: green; stroke-width: 0.200000"/>
   <line x1="842.234253" y1="1242.559570" x2="797.788025" y2="1242.559570" style="stroke: green; stroke-width: 0.200000"/>
   <line x1="841.881042" y1="1241.559570" x2="797.850403" y2="1241.559570" style="stroke: green; stroke-width: 0.200000"/>
   <line x1="841.527771" y1="1240.559570" x2="797.912720" y2="1240.559570" style="stroke: green; stroke-width: 0.200000"/>
   <line x1="841.174561" y1="1239.559570" x2="797.975220" y2="1239.559570" style="stroke: green; stroke-width: 0.200000"/>
   <line x1="840.821289" y1="1238.559692" x2="798.062439" y2="1238.559692" style="stroke: green; stroke-width: 0.200000"/>
   <line x1="840.468018" y1="1237.559570" x2="798.210449" y2="1237.559570" style="stroke: green; stroke-width: 0.200000"/>
   <line x1="840.114746" y1="1236.559570" x2="798.358459" y2="1236.559570" style="stroke: green; stroke-width: 0.200000"/>
   <line x1="839.760254" y1="1235.559570" x2="798.506531" y2="1235.559570" style="stroke: green; stroke-width: 0.200000"/>
   <line x1="839.390198" y1="1234.559570" x2="798.654541" y2="1234.559570" style="stroke: green; stroke-width: 0.200000"/>
   <line x1="839.020142" y1="1233.559692" x2="798.802551" y2="1233.559692" style="stroke: green; stroke-width: 0.200000"/>
   <line x1="838.650146" y1="1232.559570" x2="798.950562" y2="1232.559570" style="stroke: green; stroke-width: 0.200000"/>
   <line x1="838.280090" y1="1231.559570" x2="799.256470" y2="1231.559570" style="stroke: green; stroke-width: 0.200000"/>
   <line x1="837.910034" y1="1230.559570" x2="799.603638" y2="1230.559570" style="stroke: green; stroke-width: 0.200000"/>
   <line x1="837.515503" y1="1229.559570" x2="799.932861" y2="1229.559570" style="stroke: green; stroke-width: 0.200000"/>
   <line x1="837.090393" y1="1228.559692" x2="800.223389" y2="1228.559692" style="stroke: green; stroke-width: 0.200000"/>
   <line x1="836.665283" y1="1227.559570" x2="800.513916" y2="1227.559570" style="stroke: green; stroke-width: 0.200000"/>
   <line x1="836.240112" y1="1226.559570" x2="800.804565" y2="1226.559570" style="stroke: green; stroke-width: 0.200000"/>
   <line x1="835.805359" y1="1225.559570" x2="801.095276" y2="1225.559570" style="stroke: green; stroke-width: 0.200000"/>
   <line x1="835.333130" y1="1224.559570" x2="801.385864" y2="1224.559570" style="stroke: green; stroke-width: 0.200000"/>
   <line x1="834.860901" y1="1223.559692" x2="801.696777" y2="1223.559692" style="stroke: green; stroke-width: 0.200000"/>
   <line x1="834.388733" y1="1222.559570" x2="802.015869" y2="1222.559570" style="stroke: green; stroke-width: 0.200000"/>
   <line x1="833.916504" y1="1221.559570" x2="802.334961" y2="1221.559570" style="stroke: green; stroke-width: 0.200000"/>
   <line x1="833.444275" y1="1220.559570" x2="802.654053" y2="1220.559570" style="stroke: green; stroke-width: 0.200000"/>
   <line x1="832.972046" y1="1219.559570" x2="802.946228" y2="1219.559570" style="stroke: green; stroke-width: 0.200000"/>
   <line x1="832.499878" y1="1218.559692" x2="803.217896" y2="1218.559692" style="stroke: green; stroke-width: 0.200000"/>
   <line x1="831.931824" y1="1217.559570" x2="803.926270" y2="1217.559570" style="stroke: green; stroke-width: 0.200000"/>
   <line x1="831.194092" y1="1216.559570" x2="804.634521" y2="1216.559570" style="stroke: green; stroke-width: 0.200000"/>
   <line x1="830.456299" y1="1215.559570" x2="805.342896" y2="1215.559570" style="stroke: green; stroke-width: 0.200000"/>
   <line x1="829.718628" y1="1214.559570" x2="806.051147" y2="1214.559570" style="stroke: green; stroke-width: 0.200000"/>
   <line x1="828.980835" y1="1213.559692" x2="806.759583" y2="1213.559692" style="stroke: green; stroke-width: 0.200000"/>
   <line x1="828.251709" y1="1212.559570" x2="807.467896" y2="1212.559570" style="stroke: green; stroke-width: 0.200000"/>
   <line x1="827.656189" y1="1211.559570" x2="808.129578" y2="1211.559570" style="stroke: green; stroke-width: 0.200000"/>
   <line x1="827.060608" y1="1210.559570" x2="808.679443" y2="1210.559570" style="stroke: green; stroke-width: 0.200000"/>
   <line x1="826.465088" y1="1209.559570" x2="809.229248" y2="1209.559570" style="stroke: green; stroke-width: 0.200000"/>
   <line x1="825.869507" y1="1208.559692" x2="809.880432" y2="1208.559692" style="stroke: green; stroke-width: 0.200000"/>
   <line x1="824.543518" y1="1207.559570" x2="811.662720" y2="1207.559570" style="stroke: green; stroke-width: 0.200000"/>
   <line x1="822.348938" y1="1206.559570" x2="813.445129" y2="1206.559570" style="stroke: green; stroke-width: 0.200000"/>
   <line x1="820.154358" y1="1205.559570" x2="815.227417" y2="1205.559570" style="stroke: green; stroke-width: 0.200000"/>
   <line x1="818.474121" y1="1204.559570" x2="816.878174" y2="1204.559570" style="stroke: green; stroke-width: 0.200000"/>
   <line x1="846.437012" y1="1303.559570" x2="813.858276" y2="1303.559570" style="stroke: green; stroke-width: 0.200000"/>
   <line x1="846.437012" y1="1302.559692" x2="813.672363" y2="1302.559692" style="stroke: green; stroke-width: 0.200000"/>
   <line x1="846.437012" y1="1301.559570" x2="813.486450" y2="1301.559570" style="stroke: green; stroke-width: 0.200000"/>
   <line x1="846.437012" y1="1300.559692" x2="813.300537" y2="1300.559692" style="stroke: green; stroke-width: 0.200000"/>
   <line x1="846.437012" y1="1299.559570" x2="813.114685" y2="1299.559570" style="stroke: green; stroke-width: 0.200000"/>
   <line x1="846.437012" y1="1298.559570" x2="812.928772" y2="1298.559570" style="stroke: green; stroke-width: 0.200000"/>
   <line x1="846.437012" y1="1297.559692" x2="812.742920" y2="1297.559692" style="stroke: green; stroke-width: 0.200000"/>
   <line x1="846.437012" y1="1296.559570" x2="812.557068" y2="1296.559570" style="stroke: green; stroke-width: 0.200000"/>
   <line x1="846.437012" y1="1295.559692" x2="812.371155" y2="1295.559692" style="stroke: green; stroke-width: 0.200000"/>
   <line x1="846.437012" y1="1294.559570" x2="812.185120" y2="1294.559570" style="stroke: green; stroke-width: 0.200000"/>
   <line x1="846.437012" y1="1293.559570" x2="811.999268" y2="1293.559570" style="stroke: green; stroke-width: 0.200000"/>
   <line x1="846.437012" y1="1292.559692" x2="811.813416" y2="1292.559692" style="stroke: green; stroke-width: 0.200000"/>
   <line x1="846.437012" y1="1291.559570" x2="811.624390" y2="1291.559570" style="stroke: green; stroke-width: 0.200000"/>
   <line x1="846.437012" y1="1290.559692" x2="811.420227" y2="1290.559692" style="stroke: green; stroke-width: 0.200000"/>
   <line x1="846.437012" y1="1289.559570" x2="811.120850" y2="1289.559570" style="stroke: green; stroke-width: 0.200000"/>
   <line x1="846.437012" y1="1288.559570" x2="810.820190" y2="1288.559570" style="stroke: green; stroke-width: 0.200000"/>
   <line x1="846.437012" y1="1287.559692" x2="810.519470" y2="1287.559692" style="stroke: green; stroke-width: 0.200000"/>
   <line x1="846.437012" y1="1286.559570" x2="810.218811" y2="1286.559570" style="stroke: green; stroke-width: 0.200000"/>
   <line x1="846.437012" y1="1285.559692" x2="809.918152" y2="1285.559692" style="stroke: green; stroke-width: 0.200000"/>
   <line x1="846.437012" y1="1284.559570" x2="809.617432" y2="1284.559570" style="stroke: green; stroke-width: 0.200000"/>
   <line x1="846.437012" y1="1283.559570" x2="809.316772" y2="1283.559570" style="stroke: green; stroke-width: 0.200000"/>
   <line x1="846.437012" y1="1282.559692" x2="809.016113" y2="1282.559692" style="stroke: green; stroke-width: 0.200000"/>
   <line x1="846.437012" y1="1281.559570" x2="808.618652" y2="1281.559570" style="stroke: green; stroke-width: 0.200000"/>
   <line x1="846.437012" y1="1280.559692" x2="808.078613" y2="1280.559692" style="stroke: green; stroke-width: 0.200000"/>
   <line x1="846.437012" y1="1279.559570" x2="807.538818" y2="1279.559570" style="stroke: green; stroke-width: 0.200000"/>
   <line x1="846.437012" y1="1278.559692" x2="807.079468" y2="1278.559692" style="stroke: green; stroke-width: 0.200000"/>
   <line x1="846.437012" y1="1277.559570" x2="806.652954" y2="1277.559570" style="stroke: green; stroke-width: 0.200000"/>
   <line x1="846.437012" y1="1276.559570" x2="806.226318" y2="1276.559570" style="stroke: green; stroke-width: 0.200000"/>
   <line x1="846.437012" y1="1275.559570" x2="805.799805" y2="1275.559570" style="stroke: green; stroke-width: 0.200000"/>
   <line x1="846.437012" y1="1274.559570" x2="805.373291" y2="1274.559570" style="stroke: green; stroke-width: 0.200000"/>
   <line x1="846.437012" y1="1273.559692" x2="804.896606" y2="1273.559692" style="stroke: green; stroke-width: 0.200000"/>
   <line x1="846.437012" y1="1272.559570" x2="804.334961" y2="1272.559570" style="stroke: green; stroke-width: 0.200000"/>
   <line x1="846.437012" y1="1271.559570" x2="803.773193" y2="1271.559570" style="stroke: green; stroke-width: 0.200000"/>
   <line x1="846.437012" y1="1270.559570" x2="803.211548" y2="1270.559570" style="stroke: green; stroke-width: 0.200000"/>
   <line x1="846.437012" y1="1269.559570" x2="802.649841" y2="1269.559570" style="stroke: green; stroke-width: 0.200000"/>
   <line x1="846.437012" y1="1268.559692" x2="802.088013" y2="1268.559692" style="stroke: green; stroke-width: 0.200000"/>
   <line x1="846.437012" y1="1267.559570" x2="801.526367" y2="1267.559570" style="stroke: green; stroke-width: 0.200000"/>
   <line x1="846.437012" y1="1266.559570" x2="800.964600" y2="1266.559570" style="stroke: green; stroke-width: 0.200000"/>
   <line x1="846.437012" y1="1265.559570" x2="800.441833" y2="1265.559570" style="stroke: green; stroke-width: 0.200000"/>
   <line x1="846.437012" y1="1264.559570" x2="799.903687" y2="1264.559570" style="stroke: green; stroke-width: 0.200000"/>
   <line x1="846.437012" y1="1263.559692" x2="799.522217" y2="1263.559692" style="stroke: green; stroke-width: 0.200000"/>
   <line x1="846.437012" y1="1262.559570" x2="799.140747" y2="1262.559570" style="stroke: green; stroke-width: 0.200000"/>
   <line x1="846.437012" y1="1261.559570" x2="798.759216" y2="1261.559570" style="stroke: green; stroke-width: 0.200000"/>
   <line x1="846.437012" y1="1260.559570" x2="798.377747" y2="1260.559570" style="stroke: green; stroke-width: 0.200000"/>
   <line x1="846.267395" y1="1259.559570" x2="797.996216" y2="1259.559570" style="stroke: green; stroke-width: 0.200000"/>
   <line x1="846.073853" y1="1258.559692" x2="797.614746" y2="1258.559692" style="stroke: green; stroke-width: 0.200000"/>
   <line x1="845.880371" y1="1257.559570" x2="797.296082" y2="1257.559570" style="stroke: green; stroke-width: 0.200000"/>
   <line x1="845.690063" y1="1256.559570" x2="797.244507" y2="1256.559570" style="stroke: green; stroke-width: 0.200000"/>
   <line x1="845.510559" y1="1255.559570" x2="797.193054" y2="1255.559570" style="stroke: green; stroke-width: 0.200000"/>
   <line x1="845.331055" y1="1254.559570" x2="797.141479" y2="1254.559570" style="stroke: green; stroke-width: 0.200000"/>
   <line x1="846.838684" y1="1303.559570" x2="846.536987" y2="1303.559570" style="stroke: green; stroke-width: 0.200000"/>
   <line x1="846.946045" y1="1302.559692" x2="846.536987" y2="1302.559692" style="stroke: green; stroke-width: 0.200000"/>
   <line x1="847.053345" y1="1301.559570" x2="846.536987" y2="1301.559570" style="stroke: green; stroke-width: 0.200000"/>
   <line x1="847.160767" y1="1300.559692" x2="846.536987" y2="1300.559692" style="stroke: green; stroke-width: 0.200000"/>
   <line x1="847.268005" y1="1299.559570" x2="846.536987" y2="1299.559570" style="stroke: green; stroke-width: 0.200000"/>
   <line x1="847.375366" y1="1298.559570" x2="846.536987" y2="1298.559570" style="stroke: green; stroke-width: 0.200000"/>
   <line x1="847.463501" y1="1297.559692" x2="846.536987" y2="1297.559692" style="stroke: green; stroke-width: 0.200000"/>
   <line x1="847.551147" y1="1296.559570" x2="846.536987" y2="1296.559570" style="stroke: green; stroke-width: 0.200000"/>
   <line x1="847.638611" y1="1295.559692" x2="846.536987" y2="1295.559692" style="stroke: green; stroke-width: 0.200000"/>
   <line x1="847.726196" y1="1294.559570" x2="846.536987" y2="1294.559570" style="stroke: green; stroke-width: 0.200000"/>
   <line x1="847.813782" y1="1293.559570" x2="846.536987" y2="1293.559570" style="stroke: green; stroke-width: 0.200000"/>
   <line x1="847.901306" y1="1292.559692" x2="846.536987" y2="1292.559692" style="stroke: green; stroke-width: 0.200000"/>
   <line x1="847.988892" y1="1291.559570" x2="846.536987" y2="1291.559570" style="stroke: green; stroke-width: 0.200000"/>
   <line x1="848.076477" y1="1290.559692" x2="846.536987" y2="1290.559692" style="stroke: green; stroke-width: 0.200000"/>
   <line x1="848.160461" y1="1289.559570" x2="846.536987" y2="1289.559570" style="stroke: green; stroke-width: 0.200000"/>
   <line x1="848.242737" y1="1288.559570" x2="846.536987" y2="1288.559570" style="stroke: green; stroke-width: 0.200000"/>
   <line x1="848.324951" y1="1287.559692" x2="846.536987" y2="1287.559692" style="stroke: green; stroke-width: 0.200000"/>
   <line x1="848.395508" y1="1286.559570" x2="846.536987" y2="1286.559570" style="stroke: green; stroke-width: 0.200000"/>
   <line x1="848.464478" y1="1285.559692" x2="846.536987" y2="1285.559692" style="stroke: green; stroke-width: 0.200000"/>
   <line x1="848.442322" y1="1284.559570" x2="846.536987" y2="1284.559570" style="stroke: green; stroke-width: 0.200000"/>
   <line x1="848.359375" y1="1283.559570" x2="846.536987" y2="1283.559570" style="stroke: green; stroke-width: 0.200000"/>
   <line x1="848.276672" y1="1282.559692" x2="846.536987" y2="1282.559692" style="stroke: green; stroke-width: 0.200000"/>
   <line x1="848.193848" y1="1281.559570" x2="846.536987" y2="1281.559570" style="stroke: green; stroke-width: 0.200000"/>
   <line x1="848.110962" y1="1280.559692" x2="846.536987" y2="1280.559692" style="stroke: green; stroke-width: 0.200000"/>
   <line x1="848.028015" y1="1279.559570" x2="846.536987" y2="1279.559570" style="stroke: green; stroke-width: 0.200000"/>
   <line x1="847.945068" y1="1278.559692" x2="846.536987" y2="1278.559692" style="stroke: green; stroke-width: 0.200000"/>
   <line x1="847.862183" y1="1277.559570" x2="846.536987" y2="1277.559570" style="stroke: green; stroke-width: 0.200000"/>
   <line x1="847.856384" y1="1276.559570" x2="846.536987" y2="1276.559570" style="stroke: green; stroke-width: 0.200000"/>
   <line x1="847.853760" y1="1275.559570" x2="846.536987" y2="1275.559570" style="stroke: green; stroke-width: 0.200000"/>
   <line x1="847.851257" y1="1274.559570" x2="846.536987" y2="1274.559570" style="stroke: green; stroke-width: 0.200000"/>
   <line x1="847.848633" y1="1273.559692" x2="846.536987" y2="1273.559692" style="stroke: green; stroke-width: 0.200000"/>
   <line x1="847.846069" y1="1272.559570" x2="846.536987" y2="1272.559570" style="stroke: green; stroke-width: 0.200000"/>
   <line x1="847.843506" y1="1271.559570" x2="846.536987" y2="1271.559570" style="stroke: green; stroke-width: 0.200000"/>
   <line x1="847.840881" y1="1270.559570" x2="846.536987" y2="1270.559570" style="stroke: green; stroke-width: 0.200000"/>
   <line x1="847.838257" y1="1269.559570" x2="846.536987" y2="1269.559570" style="stroke: green; stroke-width: 0.200000"/>
   <line x1="847.835754" y1="1268.559692" x2="846.536987" y2="1268.559692" style="stroke: green; stroke-width: 0.200000"/>
   <line x1="847.759399" y1="1267.559570" x2="846.536987" y2="1267.559570" style="stroke: green; stroke-width: 0.200000"/>
   <line x1="847.599121" y1="1266.559570" x2="846.536987" y2="1266.559570" style="stroke: green; stroke-width: 0.200000"/>
   <line x1="847.428345" y1="1265.559570" x2="846.536987" y2="1265.559570" style="stroke: green; stroke-width: 0.200000"/>
   <line x1="847.234802" y1="1264.559570" x2="846.536987" y2="1264.559570" style="stroke: green; stroke-width: 0.200000"/>
   <line x1="847.041321" y1="1263.559692" x2="846.536987" y2="1263.559692" style="stroke: green; stroke-width: 0.200000"/>
   <line x1="846.847839" y1="1262.559570" x2="846.536987" y2="1262.559570" style="stroke: green; stroke-width: 0.200000"/>
   <line x1="846.654358" y1="1261.559570" x2="846.536987" y2="1261.559570" style="stroke: green; stroke-width: 0.200000"/>
   <line x1="842.464844" y1="1353.559570" x2="827.452759" y2="1353.559570" style="stroke: green; stroke-width: 0.200000"/>
   <line x1="842.551636" y1="1352.559692" x2="827.067200" y2="1352.559692" style="stroke: green; stroke-width: 0.200000"/>
   <line x1="842.638306" y1="1351.559570" x2="826.681519" y2="1351.559570" style="stroke: green; stroke-width: 0.200000"/>
   <line x1="842.725098" y1="1350.559692" x2="826.295898" y2="1350.559692" style="stroke: green; stroke-width: 0.200000"/>
   <line x1="842.827759" y1="1349.559570" x2="825.927856" y2="1349.559570" style="stroke: green; stroke-width: 0.200000"/>
   <line x1="842.949158" y1="1348.559570" x2="825.590271" y2="1348.559570" style="stroke: green; stroke-width: 0.200000"/>
   <line x1="843.070618" y1="1347.559692" x2="825.271545" y2="1347.559692" style="stroke: green; stroke-width: 0.200000"/>
   <line x1="843.192017" y1="1346.559570" x2="824.970337" y2="1346.559570" style="stroke: green; stroke-width: 0.200000"/>
   <line x1="843.313354" y1="1345.559692" x2="824.669128" y2="1345.559692" style="stroke: green; stroke-width: 0.200000"/>
   <line x1="843.434753" y1="1344.559570" x2="824.367920" y2="1344.559570" style="stroke: green; stroke-width: 0.200000"/>
   <line x1="843.556152" y1="1343.559570" x2="824.066650" y2="1343.559570" style="stroke: green; stroke-width: 0.200000"/>
   <line x1="843.677612" y1="1342.559692" x2="823.765381" y2="1342.559692" style="stroke: green; stroke-width: 0.200000"/>
   <line x1="843.798950" y1="1341.559570" x2="823.464233" y2="1341.559570" style="stroke: green; stroke-width: 0.200000"/>
   <line x1="843.873047" y1="1340.559692" x2="823.162964" y2="1340.559692" style="stroke: green; stroke-width: 0.200000"/>
   <line x1="843.876099" y1="1339.559570" x2="822.854919" y2="1339.559570" style="stroke: green; stroke-width: 0.200000"/>
   <line x1="843.929443" y1="1338.559570" x2="822.528381" y2="1338.559570" style="stroke: green; stroke-width: 0.200000"/>
   <line x1="843.998474" y1="1337.559692" x2="822.236816" y2="1337.559692" style="stroke: green; stroke-width: 0.200000"/>
   <line x1="844.065308" y1="1336.559570" x2="821.950317" y2="1336.559570" style="stroke: green; stroke-width: 0.200000"/>
   <line x1="844.113708" y1="1335.559692" x2="821.663818" y2="1335.559692" style="stroke: green; stroke-width: 0.200000"/>
   <line x1="844.162048" y1="1334.559570" x2="821.377319" y2="1334.559570" style="stroke: green; stroke-width: 0.200000"/>
   <line x1="844.210449" y1="1333.559570" x2="821.090820" y2="1333.559570" style="stroke: green; stroke-width: 0.200000"/>
   <line x1="844.258789" y1="1332.559692" x2="820.804382" y2="1332.559692" style="stroke: green; stroke-width: 0.200000"/>
   <line x1="844.307190" y1="1331.559570" x2="820.517944" y2="1331.559570" style="stroke: green; stroke-width: 0.200000"/>
   <line x1="844.355530" y1="1330.559692" x2="820.231445" y2="1330.559692" style="stroke: green; stroke-width: 0.200000"/>
   <line x1="844.403931" y1="1329.559570" x2="819.945007" y2="1329.559570" style="stroke: green; stroke-width: 0.200000"/>
   <line x1="844.485962" y1="1328.559570" x2="819.658508" y2="1328.559570" style="stroke: green; stroke-width: 0.200000"/>
   <line x1="844.602661" y1="1327.559692" x2="819.372009" y2="1327.559692" style="stroke: green; stroke-width: 0.200000"/>
   <line x1="844.719482" y1="1326.559570" x2="819.132935" y2="1326.559570" style="stroke: green; stroke-width: 0.200000"/>
   <line x1="844.836182" y1="1325.559692" x2="818.904907" y2="1325.559692" style="stroke: green; stroke-width: 0.200000"/>
   <line x1="844.953003" y1="1324.559570" x2="818.676758" y2="1324.559570" style="stroke: green; stroke-width: 0.200000"/>
   <line x1="845.069702" y1="1323.559570" x2="818.448730" y2="1323.559570" style="stroke: green; stroke-width: 0.200000"/>
   <line x1="845.126282" y1="1322.559692" x2="818.220581" y2="1322.559692" style="stroke: green; stroke-width: 0.200000"/>
   <line x1="845.165161" y1="1321.559570" x2="817.987122" y2="1321.559570" style="stroke: green; stroke-width: 0.200000"/>
   <line x1="845.204163" y1="1320.559692" x2="817.715332" y2="1320.559692" style="stroke: green; stroke-width: 0.200000"/>
   <line x1="845.243042" y1="1319.559570" x2="817.443542" y2="1319.559570" style="stroke: green; stroke-width: 0.200000"/>
   <line x1="845.281982" y1="1318.559570" x2="817.171753" y2="1318.559570" style="stroke: green; stroke-width: 0.200000"/>
   <line x1="845.377258" y1="1317.559692" x2="816.900024" y2="1317.559692" style="stroke: green; stroke-width: 0.200000"/>
   <line x1="845.489868" y1="1316.559570" x2="816.638428" y2="1316.559570" style="stroke: green; stroke-width: 0.200000"/>
   <line x1="845.602539" y1="1315.559692" x2="816.421204" y2="1315.559692" style="stroke: green; stroke-width: 0.200000"/>
   <line x1="845.715271" y1="1314.559570" x2="816.204102" y2="1314.559570" style="stroke: green; stroke-width: 0.200000"/>
   <line x1="845.827942" y1="1313.559570" x2="815.986877" y2="1313.559570" style="stroke: green; stroke-width: 0.200000"/>
   <line x1="845.940552" y1="1312.559692" x2="815.769714" y2="1312.559692" style="stroke: green; stroke-width: 0.200000"/>
   <line x1="846.053223" y1="1311.559570" x2="815.552490" y2="1311.559570" style="stroke: green; stroke-width: 0.200000"/>
   <line x1="846.165833" y1="1310.559692" x2="815.335327" y2="1310.559692" style="stroke: green; stroke-width: 0.200000"/>
   <line x1="846.233032" y1="1309.559570" x2="815.118164" y2="1309.559570" style="stroke: green; stroke-width: 0.200000"/>
   <line x1="846.302246" y1="1308.559570" x2="814.901062" y2="1308.559570" style="stroke: green; stroke-width: 0.200000"/>
   <line x1="846.409546" y1="1307.559692" x2="814.683838" y2="1307.559692" style="stroke: green; stroke-width: 0.200000"/>
   <line x1="846.437012" y1="1306.559570" x2="814.466614" y2="1306.559570" style="stroke: green; stroke-width: 0.200000"/>
   <line x1="846.437012" y1="1305.559692" x2="814.249512" y2="1305.559692" style="stroke: green; stroke-width: 0.200000"/>
   <line x1="846.437012" y1="1304.559570" x2="814.044128" y2="1304.559570" style="stroke: green; stroke-width: 0.200000"/>
   <line x1="846.624207" y1="1305.559692" x2="846.536987" y2="1305.559692" style="stroke: green; stroke-width: 0.200000"/>
   <line x1="846.731506" y1="1304.559570" x2="846.536987" y2="1304.559570" style="stroke: green; stroke-width: 0.200000"/>
   <line x1="837.906982" y1="1363.559570" x2="836.724854" y2="1363.559570" style="stroke: green; stroke-width: 0.200000"/>
   <line x1="838.601807" y1="1362.559692" x2="834.800415" y2="1362.559692" style="stroke: green; stroke-width: 0.200000"/>
   <line x1="839.296631" y1="1361.559570" x2="831.976257" y2="1361.559570" style="stroke: green; stroke-width: 0.200000"/>
   <line x1="839.991455" y1="1360.559692" x2="830.151917" y2="1360.559692" style="stroke: green; stroke-width: 0.200000"/>
   <line x1="840.493652" y1="1359.559570" x2="829.766357" y2="1359.559570" style="stroke: green; stroke-width: 0.200000"/>
   <line x1="840.924683" y1="1358.559570" x2="829.380798" y2="1358.559570" style="stroke: green; stroke-width: 0.200000"/>
   <line x1="841.355713" y1="1357.559692" x2="828.995239" y2="1357.559692" style="stroke: green; stroke-width: 0.200000"/>
   <line x1="841.786865" y1="1356.559570" x2="828.609558" y2="1356.559570" style="stroke: green; stroke-width: 0.200000"/>
   <line x1="842.217957" y1="1355.559692" x2="828.223938" y2="1355.559692" style="stroke: green; stroke-width: 0.200000"/>
   <line x1="842.378052" y1="1354.559570" x2="827.838379" y2="1354.559570" style="stroke: green; stroke-width: 0.200000"/>
   <line x1="920.515625" y1="1201.092651" x2="898.418274" y2="1201.092651" style="stroke: green; stroke-width: 0.200000"/>
   <line x1="920.515625" y1="1200.092651" x2="897.123779" y2="1200.092651" style="stroke: green; stroke-width: 0.200000"/>
   <line x1="920.515625" y1="1199.092651" x2="895.829224" y2="1199.092651" style="stroke: green; stroke-width: 0.200000"/>
   <line x1="920.515625" y1="1198.092651" x2="894.534912" y2="1198.092651" style="stroke: green; stroke-width: 0.200000"/>
   <line x1="920.515625" y1="1197.092651" x2="893.240417" y2="1197.092651" style="stroke: green; stroke-width: 0.200000"/>
   <line x1="920.515625" y1="1196.092651" x2="891.945923" y2="1196.092651" style="stroke: green; stroke-width: 0.200000"/>
   <line x1="920.515625" y1="1195.092651" x2="890.646362" y2="1195.092651" style="stroke: green; stroke-width: 0.200000"/>
   <line x1="920.515625" y1="1194.092651" x2="889.485474" y2="1194.092651" style="stroke: green; stroke-width: 0.200000"/>
   <line x1="920.515625" y1="1193.092651" x2="888.429199" y2="1193.092651" style="stroke: green; stroke-width: 0.200000"/>
   <line x1="920.515625" y1="1192.092651" x2="887.391479" y2="1192.092651" style="stroke: green; stroke-width: 0.200000"/>
   <line x1="920.515625" y1="1191.092651" x2="886.364868" y2="1191.092651" style="stroke: green; stroke-width: 0.200000"/>
   <line x1="920.515625" y1="1190.092651" x2="885.338196" y2="1190.092651" style="stroke: green; stroke-width: 0.200000"/>
   <line x1="920.515625" y1="1189.092651" x2="884.311584" y2="1189.092651" style="stroke: green; stroke-width: 0.200000"/>
   <line x1="920.515625" y1="1188.092651" x2="883.284973" y2="1188.092651" style="stroke: green; stroke-width: 0.200000"/>
   <line x1="920.515625" y1="1187.092651" x2="882.258362" y2="1187.092651" style="stroke: green; stroke-width: 0.200000"/>
   <line x1="920.515625" y1="1186.092651" x2="881.508240" y2="1186.092651" style="stroke: green; stroke-width: 0.200000"/>
   <line x1="920.515625" y1="1185.092651" x2="880.799805" y2="1185.092651" style="stroke: green; stroke-width: 0.200000"/>
   <line x1="920.515625" y1="1184.092651" x2="879.916992" y2="1184.092651" style="stroke: green; stroke-width: 0.200000"/>
   <line x1="920.515625" y1="1183.092651" x2="879.011963" y2="1183.092651" style="stroke: green; stroke-width: 0.200000"/>
   <line x1="920.515625" y1="1182.092651" x2="878.106934" y2="1182.092651" style="stroke: green; stroke-width: 0.200000"/>
   <line x1="920.515625" y1="1181.092651" x2="877.201843" y2="1181.092651" style="stroke: green; stroke-width: 0.200000"/>
   <line x1="920.515625" y1="1180.092651" x2="876.296875" y2="1180.092651" style="stroke: green; stroke-width: 0.200000"/>
   <line x1="920.515625" y1="1179.092651" x2="875.597473" y2="1179.092651" style="stroke: green; stroke-width: 0.200000"/>
   <line x1="920.515625" y1="1178.092651" x2="874.901123" y2="1178.092651" style="stroke: green; stroke-width: 0.200000"/>
   <line x1="920.515625" y1="1177.092651" x2="874.204712" y2="1177.092651" style="stroke: green; stroke-width: 0.200000"/>
   <line x1="920.515625" y1="1176.092651" x2="873.508362" y2="1176.092651" style="stroke: green; stroke-width: 0.200000"/>
   <line x1="920.515625" y1="1175.092651" x2="873.069214" y2="1175.092651" style="stroke: green; stroke-width: 0.200000"/>
   <line x1="920.515625" y1="1174.092651" x2="872.778687" y2="1174.092651" style="stroke: green; stroke-width: 0.200000"/>
   <line x1="920.515625" y1="1173.092651" x2="872.488281" y2="1173.092651" style="stroke: green; stroke-width: 0.200000"/>
   <line x1="920.515625" y1="1172.092651" x2="872.197754" y2="1172.092651" style="stroke: green; stroke-width: 0.200000"/>
   <line x1="920.515625" y1="1171.092651" x2="871.907227" y2="1171.092651" style="stroke: green; stroke-width: 0.200000"/>
   <line x1="920.515625" y1="1170.092651" x2="871.616760" y2="1170.092651" style="stroke: green; stroke-width: 0.200000"/>
   <line x1="920.515625" y1="1169.092651" x2="871.326233" y2="1169.092651" style="stroke: green; stroke-width: 0.200000"/>
   <line x1="920.515625" y1="1168.092651" x2="871.035767" y2="1168.092651" style="stroke: green; stroke-width: 0.200000"/>
   <line x1="918.813171" y1="1167.092651" x2="870.745239" y2="1167.092651" style="stroke: green; stroke-width: 0.200000"/>
   <line x1="916.932922" y1="1166.092651" x2="870.591370" y2="1166.092651" style="stroke: green; stroke-width: 0.200000"/>
   <line x1="915.137634" y1="1165.092651" x2="870.953308" y2="1165.092651" style="stroke: green; stroke-width: 0.200000"/>
   <line x1="913.734436" y1="1164.092651" x2="871.315247" y2="1164.092651" style="stroke: green; stroke-width: 0.200000"/>
   <line x1="912.488525" y1="1163.092651" x2="871.677185" y2="1163.092651" style="stroke: green; stroke-width: 0.200000"/>
   <line x1="911.436157" y1="1162.092651" x2="872.039062" y2="1162.092651" style="stroke: green; stroke-width: 0.200000"/>
   <line x1="910.383789" y1="1161.092651" x2="872.401001" y2="1161.092651" style="stroke: green; stroke-width: 0.200000"/>
   <line x1="909.331360" y1="1160.092651" x2="872.762939" y2="1160.092651" style="stroke: green; stroke-width: 0.200000"/>
   <line x1="908.065857" y1="1159.092651" x2="873.124878" y2="1159.092651" style="stroke: green; stroke-width: 0.200000"/>
   <line x1="906.322937" y1="1158.092651" x2="873.741516" y2="1158.092651" style="stroke: green; stroke-width: 0.200000"/>
   <line x1="904.776306" y1="1157.092651" x2="875.132507" y2="1157.092651" style="stroke: green; stroke-width: 0.200000"/>
   <line x1="903.316589" y1="1156.092651" x2="876.594727" y2="1156.092651" style="stroke: green; stroke-width: 0.200000"/>
   <line x1="901.856750" y1="1155.092651" x2="878.119507" y2="1155.092651" style="stroke: green; stroke-width: 0.200000"/>
   <line x1="899.552063" y1="1154.092651" x2="879.644226" y2="1154.092651" style="stroke: green; stroke-width: 0.200000"/>
   <line x1="895.362183" y1="1153.092651" x2="881.616821" y2="1153.092651" style="stroke: green; stroke-width: 0.200000"/>
   <line x1="892.290405" y1="1152.092651" x2="888.357239" y2="1152.092651" style="stroke: green; stroke-width: 0.200000"/>
   <line x1="970.615601" y1="1201.092651" x2="920.615601" y2="1201.092651" style="stroke: green; stroke-width: 0.200000"/>
   <line x1="970.615601" y1="1200.092651" x2="920.615601" y2="1200.092651" style="stroke: green; stroke-width: 0.200000"/>
   <line x1="970.615601" y1="1199.092651" x2="920.615601" y2="1199.092651" style="stroke: green; stroke-width: 0.200000"/>
   <line x1="970.615601" y1="1198.092651" x2="920.615601" y2="1198.092651" style="stroke: green; stroke-width: 0.200000"/>
   <line x1="970.615601" y1="1197.092651" x2="920.615601" y2="1197.092651" style="stroke: green; stroke-width: 0.200000"/>
   <line x1="970.615601" y1="1196.092651" x2="920.615601" y2="1196.092651" style="stroke: green; stroke-width: 0.200000"/>
   <line x1="970.615601" y1="1195.092651" x2="920.615601" y2="1195.092651" style="stroke: green; stroke-width: 0.200000"/>
   <line x1="970.615601" y1="1194.092651" x2="920.615601" y2="1194.092651" style="stroke: green; stroke-width: 0.200000"/>
   <line x1="970.615601" y1="1193.092651" x2="920.615601" y2="1193.092651" style="stroke: green; stroke-width: 0.200000"/>
   <line x1="970.615601" y1="1192.092651" x2="920.615601" y2="1192.092651" style="stroke: green; stroke-width: 0.200000"/>
   <line x1="970.615601" y1="1191.092651" x2="920.615601" y2="1191.092651" style="stroke: green; stroke-width: 0.200000"/>
   <line x1="970.615601" y1="1190.092651" x2="920.615601" y2="1190.092651" style="stroke: green; stroke-width: 0.200000"/>
   <line x1="970.615601" y1="1189.092651" x2="920.615601" y2="1189.092651" style="stroke: green; stroke-width: 0.200000"/>
   <line x1="970.615601" y1="1188.092651" x2="920.615601" y2="1188.092651" style="stroke: green; stroke-width: 0.200000"/>
   <line x1="970.615601" y1="1187.092651" x2="920.615601" y2="1187.092651" style="stroke: green; stroke-width: 0.200000"/>
   <line x1="969.490234" y1="1186.092651" x2="920.615601" y2="1186.092651" style="stroke: green; stroke-width: 0.200000"/>
   <line x1="966.810425" y1="1185.092651" x2="920.615601" y2="1185.092651" style="stroke: green; stroke-width: 0.200000"/>
   <line x1="963.474731" y1="1184.092651" x2="920.615601" y2="1184.092651" style="stroke: green; stroke-width: 0.200000"/>
   <line x1="960.051270" y1="1183.092651" x2="920.615601" y2="1183.092651" style="stroke: green; stroke-width: 0.200000"/>
   <line x1="956.954468" y1="1182.092651" x2="920.615601" y2="1182.092651" style="stroke: green; stroke-width: 0.200000"/>
   <line x1="954.690796" y1="1181.092651" x2="920.615601" y2="1181.092651" style="stroke: green; stroke-width: 0.200000"/>
   <line x1="953.761536" y1="1180.092651" x2="920.615601" y2="1180.092651" style="stroke: green; stroke-width: 0.200000"/>
   <line x1="952.832336" y1="1179.092651" x2="920.615601" y2="1179.092651" style="stroke: green; stroke-width: 0.200000"/>
   <line x1="951.903076" y1="1178.092651" x2="920.615601" y2="1178.092651" style="stroke: green; stroke-width: 0.200000"/>
   <line x1="948.881348" y1="1177.092651" x2="920.615601" y2="1177.092651" style="stroke: green; stroke-width: 0.200000"/>
   <line x1="944.523193" y1="1176.092651" x2="920.615601" y2="1176.092651" style="stroke: green; stroke-width: 0.200000"/>
   <line x1="940.252991" y1="1175.092651" x2="920.615601" y2="1175.092651" style="stroke: green; stroke-width: 0.200000"/>
   <line x1="936.129700" y1="1174.092651" x2="920.615601" y2="1174.092651" style="stroke: green; stroke-width: 0.200000"/>
   <line x1="932.523560" y1="1173.092651" x2="920.615601" y2="1173.092651" style="stroke: green; stroke-width: 0.200000"/>
   <line x1="929.664246" y1="1172.092651" x2="920.615601" y2="1172.092651" style="stroke: green; stroke-width: 0.200000"/>
   <line x1="926.804871" y1="1171.092651" x2="920.615601" y2="1171.092651" style="stroke: green; stroke-width: 0.200000"/>
   <line x1="923.969116" y1="1170.092651" x2="920.615601" y2="1170.092651" style="stroke: green; stroke-width: 0.200000"/>
   <line x1="922.250427" y1="1169.092651" x2="920.615601" y2="1169.092651" style="stroke: green; stroke-width: 0.200000"/>
   <line x1="979.282227" y1="1201.092651" x2="970.715576" y2="1201.092651" style="stroke: green; stroke-width: 0.200000"/>
   <line x1="978.766846" y1="1200.092651" x2="970.715576" y2="1200.092651" style="stroke: green; stroke-width: 0.200000"/>
   <line x1="978.251648" y1="1199.092651" x2="970.715576" y2="1199.092651" style="stroke: green; stroke-width: 0.200000"/>
   <line x1="977.736511" y1="1198.092651" x2="970.715576" y2="1198.092651" style="stroke: green; stroke-width: 0.200000"/>
   <line x1="977.430115" y1="1197.092651" x2="970.715576" y2="1197.092651" style="stroke: green; stroke-width: 0.200000"/>
   <line x1="978.449463" y1="1196.092651" x2="970.715576" y2="1196.092651" style="stroke: green; stroke-width: 0.200000"/>
   <line x1="979.468750" y1="1195.092651" x2="970.715576" y2="1195.092651" style="stroke: green; stroke-width: 0.200000"/>
   <line x1="980.488159" y1="1194.092651" x2="970.715576" y2="1194.092651" style="stroke: green; stroke-width: 0.200000"/>
   <line x1="981.507324" y1="1193.092651" x2="970.715576" y2="1193.092651" style="stroke: green; stroke-width: 0.200000"/>
   <line x1="980.880615" y1="1192.092651" x2="970.715576" y2="1192.092651" style="stroke: green; stroke-width: 0.200000"/>
   <line x1="980.188660" y1="1191.092651" x2="970.715576" y2="1191.092651" style="stroke: green; stroke-width: 0.200000"/>
   <line x1="979.497070" y1="1190.092651" x2="970.715576" y2="1190.092651" style="stroke: green; stroke-width: 0.200000"/>
   <line x1="978.805298" y1="1189.092651" x2="970.715576" y2="1189.092651" style="stroke: green; stroke-width: 0.200000"/>
   <line x1="976.318665" y1="1188.092651" x2="970.715576" y2="1188.092651" style="stroke: green; stroke-width: 0.200000"/>
   <line x1="972.723755" y1="1187.092651" x2="970.715576" y2="1187.092651" style="stroke: green; stroke-width: 0.200000"/>
   <line x1="920.515625" y1="1213.092651" x2="920.014771" y2="1213.092651" style="stroke: green; stroke-width: 0.200000"/>
   <line x1="920.515625" y1="1212.092651" x2="917.870605" y2="1212.092651" style="stroke: green; stroke-width: 0.200000"/>
   <line x1="920.515625" y1="1211.092651" x2="915.726440" y2="1211.092651" style="stroke: green; stroke-width: 0.200000"/>
   <line x1="920.515625" y1="1210.092651" x2="913.651794" y2="1210.092651" style="stroke: green; stroke-width: 0.200000"/>
   <line x1="920.515625" y1="1209.092651" x2="911.594360" y2="1209.092651" style="stroke: green; stroke-width: 0.200000"/>
   <line x1="920.515625" y1="1208.092651" x2="909.608887" y2="1208.092651" style="stroke: green; stroke-width: 0.200000"/>
   <line x1="920.515625" y1="1207.092651" x2="908.033691" y2="1207.092651" style="stroke: green; stroke-width: 0.200000"/>
   <line x1="920.515625" y1="1206.092651" x2="906.335571" y2="1206.092651" style="stroke: green; stroke-width: 0.200000"/>
   <line x1="920.515625" y1="1205.092651" x2="904.621521" y2="1205.092651" style="stroke: green; stroke-width: 0.200000"/>
   <line x1="920.515625" y1="1204.092651" x2="902.907471" y2="1204.092651" style="stroke: green; stroke-width: 0.200000"/>
   <line x1="920.515625" y1="1203.092651" x2="901.193481" y2="1203.092651" style="stroke: green; stroke-width: 0.200000"/>
   <line x1="920.515625" y1="1202.092651" x2="899.723022" y2="1202.092651" style="stroke: green; stroke-width: 0.200000"/>
   <line x1="957.041321" y1="1220.092651" x2="944.092041" y2="1220.092651" style="stroke: green; stroke-width: 0.200000"/>
   <line x1="957.002930" y1="1219.092651" x2="938.229126" y2="1219.092651" style="stroke: green; stroke-width: 0.200000"/>
   <line x1="956.964478" y1="1218.092651" x2="933.904541" y2="1218.092651" style="stroke: green; stroke-width: 0.200000"/>
   <line x1="956.926147" y1="1217.092651" x2="930.033325" y2="1217.092651" style="stroke: green; stroke-width: 0.200000"/>
   <line x1="956.887878" y1="1216.092651" x2="926.578918" y2="1216.092651" style="stroke: green; stroke-width: 0.200000"/>
   <line x1="956.849426" y1="1215.092651" x2="924.177246" y2="1215.092651" style="stroke: green; stroke-width: 0.200000"/>
   <line x1="956.811035" y1="1214.092651" x2="922.122925" y2="1214.092651" style="stroke: green; stroke-width: 0.200000"/>
   <line x1="956.772705" y1="1213.092651" x2="920.615601" y2="1213.092651" style="stroke: green; stroke-width: 0.200000"/>
   <line x1="956.734314" y1="1212.092651" x2="920.615601" y2="1212.092651" style="stroke: green; stroke-width: 0.200000"/>
   <line x1="966.272888" y1="1211.092651" x2="920.615601" y2="1211.092651" style="stroke: green; stroke-width: 0.200000"/>
   <line x1="970.473572" y1="1210.092651" x2="920.615601" y2="1210.092651" style="stroke: green; stroke-width: 0.200000"/>
   <line x1="970.615601" y1="1209.092651" x2="920.615601" y2="1209.092651" style="stroke: green; stroke-width: 0.200000"/>
   <line x1="970.615601" y1="1208.092651" x2="920.615601" y2="1208.092651" style="stroke: green; stroke-width: 0.200000"/>
   <line x1="970.615601" y1="1207.092651" x2="920.615601" y2="1207.092651" style="stroke: green; stroke-width: 0.200000"/>
   <line x1="970.615601" y1="1206.092651" x2="920.615601" y2="1206.092651" style="stroke: green; stroke-width: 0.200000"/>
   <line x1="970.615601" y1="1205.092651" x2="920.615601" y2="1205.092651" style="stroke: green; stroke-width: 0.200000"/>
   <line x1="970.615601" y1="1204.092651" x2="920.615601" y2="1204.092651" style="stroke: green; stroke-width: 0.200000"/>
   <line x1="970.615601" y1="1203.092651" x2="920.615601" y2="1203.092651" style="stroke: green; stroke-width: 0.200000"/>
   <line x1="970.615601" y1="1202.092651" x2="920.615601" y2="1202.092651" style="stroke: green; stroke-width: 0.200000"/>
   <line x1="976.800903" y1="1209.092651" x2="970.715576" y2="1209.092651" style="stroke: green; stroke-width: 0.200000"/>
   <line x1="979.396057" y1="1208.092651" x2="970.715576" y2="1208.092651" style="stroke: green; stroke-width: 0.200000"/>
   <line x1="982.375610" y1="1207.092651" x2="970.715576" y2="1207.092651" style="stroke: green; stroke-width: 0.200000"/>
   <line x1="981.858459" y1="1206.092651" x2="970.715576" y2="1206.092651" style="stroke: green; stroke-width: 0.200000"/>
   <line x1="981.343262" y1="1205.092651" x2="970.715576" y2="1205.092651" style="stroke: green; stroke-width: 0.200000"/>
   <line x1="980.828125" y1="1204.092651" x2="970.715576" y2="1204.092651" style="stroke: green; stroke-width: 0.200000"/>
   <line x1="980.312866" y1="1203.092651" x2="970.715576" y2="1203.092651" style="stroke: green; stroke-width: 0.200000"/>
   <line x1="979.797729" y1="1202.092651" x2="970.715576" y2="1202.092651" style="stroke: green; stroke-width: 0.200000"/>
   <line x1="969.546570" y1="1220.895752" x2="957.072205" y2="1220.895752" style="stroke: green; stroke-width: 0.200000"/>
   <line x1="978.278931" y1="1219.895752" x2="957.033813" y2="1219.895752" style="stroke: green; stroke-width: 0.200000"/>
   <line x1="982.397095" y1="1218.895752" x2="956.995483" y2="1218.895752" style="stroke: green; stroke-width: 0.200000"/>
   <line x1="986.468811" y1="1217.895752" x2="956.957092" y2="1217.895752" style="stroke: green; stroke-width: 0.200000"/>
   <line x1="989.386230" y1="1216.895752" x2="956.918701" y2="1216.895752" style="stroke: green; stroke-width: 0.200000"/>
   <line x1="990.555969" y1="1215.895752" x2="956.880432" y2="1215.895752" style="stroke: green; stroke-width: 0.200000"/>
   <line x1="991.725769" y1="1214.895752" x2="956.842041" y2="1214.895752" style="stroke: green; stroke-width: 0.200000"/>
   <line x1="992.895569" y1="1213.895752" x2="956.803589" y2="1213.895752" style="stroke: green; stroke-width: 0.200000"/>
   <line x1="994.102112" y1="1212.895752" x2="956.765198" y2="1212.895752" style="stroke: green; stroke-width: 0.200000"/>
   <line x1="995.374390" y1="1211.895752" x2="956.726807" y2="1211.895752" style="stroke: green; stroke-width: 0.200000"/>
   <line x1="995.422058" y1="1210.895752" x2="967.250000" y2="1210.895752" style="stroke: green; stroke-width: 0.200000"/>
   <line x1="994.955750" y1="1209.895752" x2="972.243347" y2="1209.895752" style="stroke: green; stroke-width: 0.200000"/>
   <line x1="994.597107" y1="1208.895752" x2="977.312073" y2="1208.895752" style="stroke: green; stroke-width: 0.200000"/>
   <line x1="994.238525" y1="1207.895752" x2="979.907227" y2="1207.895752" style="stroke: green; stroke-width: 0.200000"/>
   <line x1="993.859497" y1="1206.895752" x2="982.273499" y2="1206.895752" style="stroke: green; stroke-width: 0.200000"/>
   <line x1="993.341431" y1="1205.895752" x2="981.757141" y2="1205.895752" style="stroke: green; stroke-width: 0.200000"/>
   <line x1="992.823425" y1="1204.895752" x2="981.241943" y2="1204.895752" style="stroke: green; stroke-width: 0.200000"/>
   <line x1="992.305359" y1="1203.895752" x2="980.726624" y2="1203.895752" style="stroke: green; stroke-width: 0.200000"/>
   <line x1="991.787354" y1="1202.895752" x2="980.211548" y2="1202.895752" style="stroke: green; stroke-width: 0.200000"/>
   <line x1="991.269287" y1="1201.895752" x2="979.696411" y2="1201.895752" style="stroke: green; stroke-width: 0.200000"/>
   <line x1="990.751282" y1="1200.895752" x2="979.180908" y2="1200.895752" style="stroke: green; stroke-width: 0.200000"/>
   <line x1="990.233215" y1="1199.895752" x2="978.665527" y2="1199.895752" style="stroke: green; stroke-width: 0.200000"/>
   <line x1="988.987427" y1="1198.895752" x2="978.150391" y2="1198.895752" style="stroke: green; stroke-width: 0.200000"/>
   <line x1="987.134338" y1="1197.895752" x2="977.635193" y2="1197.895752" style="stroke: green; stroke-width: 0.200000"/>
   <line x1="985.281250" y1="1196.895752" x2="977.630920" y2="1196.895752" style="stroke: green; stroke-width: 0.200000"/>
   <line x1="983.511658" y1="1195.895752" x2="978.650269" y2="1195.895752" style="stroke: green; stroke-width: 0.200000"/>
   <line x1="982.819885" y1="1194.895752" x2="979.669678" y2="1194.895752" style="stroke: green; stroke-width: 0.200000"/>
   <line x1="982.128052" y1="1193.895752" x2="980.688965" y2="1193.895752" style="stroke: green; stroke-width: 0.200000"/>
   <line x1="982.224060" y1="1206.800781" x2="982.223145" y2="1206.800781" style="stroke: green; stroke-width: 0.200000"/>
   <path d="M 829.054  1361.88  827.348  1357.49  824.64  1350.43  823.999  1348.54  821.512  1340.28  821.052  1338.87  817.865  1327.74  816.565  1322.05  815.221  1317.1  812.644  1305.23  810.188  1292.02  809.962  1290.91  807.895  1284.04  " style="fill: none; stroke: darkmagenta; stroke-width: 0.200000; fill-type: evenodd"  fill-opacity="1.000000" />
   <path d="M 807.895  1284.04  807.445  1282.54  806.03  1279.92  803.758  1274.59  799.483  1266.98  799.185  1266.39  798.584  1265.31  796.722  1260.43  " style="fill: none; stroke: red; stroke-width: 0.200000; fill-type: evenodd"  fill-opacity="1.000000" />
   <path d="M 796.722  1260.43  795.821  1258.06  795.629  1254.35  794.917  1248.62  796.297  1242.39  796.527  1238.69  797.519  1231.99  798.411  1229.42  800.035  1223.84  801.407  1219.53  801.796  1217.97  806.695  1211.06  808.626  1207.54  815.345  1203.77  817.671  1202.24  820.376  1204.01  826.595  1206.85  829.539  1211.79  833.492  1217.15  837.271  1225.15  839.099  1229.45  841.198  1235.12  844.889  1245.57  845.388  1247.02  845.649  1247.84  847.206  1256.51  848.967  1265.62  849.334  1267.91  849.358  1277.45  849.996  1285.15  849.83  1287.56  849.599  1290.37  848.872  1298.67  847.787  1308.78  847.665  1310.65  846.788  1318.44  846.593  1323.45  845.924  1329.17  845.558  1336.75  845.377  1339.38  845.372  1341.05  844.264  1350.18  843.917  1354.17  " style="fill: none; stroke: darkmagenta; stroke-width: 0.200000; fill-type: evenodd"  fill-opacity="1.000000" />
   <path d="M 843.917  1354.17  843.783  1355.72  841.496  1361.02  838.072  1365.95  833.313  1363.48  829.245  1362.37  829.054  1361.88  " style="fill: none; stroke: red; stroke-width: 0.200000; fill-type: evenodd"  fill-opacity="1.000000" />
   <path d="M 819.892  1204.89  825.896  1207.63  828.705  1212.34  832.629  1217.66  836.358  1225.56  838.169  1229.82  840.258  1235.46  843.945  1245.9  844.439  1247.34  844.676  1248.08  846.223  1256.7  847.982  1265.79  848.334  1267.99  848.359  1277.5  848.993  1285.16  848.833  1287.48  848.602  1290.28  847.877  1298.57  846.79  1308.7  846.669  1310.56  845.79  1318.36  845.595  1323.37  844.927  1329.09  844.559  1336.69  844.377  1339.34  844.372  1340.99  843.269  1350.07  842.801  1355.47  840.618  1360.53  837.753  1364.66  833.679  1362.54  829.994  1361.54  828.281  1357.13  825.581  1350.1  824.952  1348.23  822.466  1339.98  822.008  1338.58  818.833  1327.49  817.536  1321.81  816.193  1316.86  813.624  1305.04  811.169  1291.83  810.932  1290.67  808.373  1282.16  806.932  1279.49  804.656  1274.15  800.367  1266.52  800.07  1265.92  799.493  1264.88  796.811  1257.85  796.626  1254.27  795.93  1248.67  797.29  1242.53  797.522  1238.8  798.494  1232.23  799.364  1229.73  800.991  1224.13  802.369  1219.81  802.721  1218.4  807.544  1211.59  809.365  1208.28  815.865  1204.63  817.673  1203.44  819.892  1204.89  " style="fill: none; stroke: black; stroke-width: 0.200000; fill-type: evenodd"  fill-opacity="1.000000" />
   <path d="M 939.317  1220.88  932.52  1219.31  926.594  1217.72  923.484  1216.43  920.748  1215.09  914.655  1212.25  909.112  1209.55  907.072  1208.26  899.784  1204.01  898.542  1203.08  889.815  1196.34  889.28  1195.96  886.998  1193.8  880.979  1187.94  879.547  1185.92  875.108  1181.01  871.883  1176.38  870.583  1171.96  868.939  1166.25  872.145  1157.39  874.935  1155.39  880.525  1151.72  885.166  1151.12  891.039  1150.11  896.332  1151.83  901.42  1152.98  906.586  1156.51  909.506  1158.19  913.917  1162.38  916.369  1164.13  918.862  1165.39  924.635  1168.74  933.159  1171.73  933.378  1171.84  933.824  1171.99  943.742  1174.4  948.139  1175.32  952.543  1176.58  955.881  1180.17  961.402  1181.95  966.6  1183.41  971.013  1185.06  978.768  1187.22  " style="fill: none; stroke: darkmagenta; stroke-width: 0.200000; fill-type: evenodd"  fill-opacity="1.000000" />
   <path d="M 978.768  1187.22  979.337  1187.38  979.588  1187.59  980.215  1188.49  " style="fill: none; stroke: red; stroke-width: 0.200000; fill-type: evenodd"  fill-opacity="1.000000" />
   <path d="M 980.215  1188.49  984.59  1194.82  989.12  1197.26  " style="fill: none; stroke: darkmagenta; stroke-width: 0.200000; fill-type: evenodd"  fill-opacity="1.000000" />
   <path d="M 989.12  1197.26  991.117  1198.34  995.304  1206.42  996.472  1209.68  997.703  1211.97  994.597  1214.41  989.625  1218.67  982.214  1220.49  980.424  1221.17  970.276  1222.26  969.6  1222.43  967.802  1222.55  959.546  1222.61  950.073  1222.05  941.79  1221.42  940.884  1221.25  939.317  1220.88  " style="fill: none; stroke: red; stroke-width: 0.200000; fill-type: evenodd"  fill-opacity="1.000000" />
   <path d="M 967.103  1221.56  959.573  1221.61  950.14  1221.05  941.924  1220.43  941.092  1220.27  932.762  1218.34  926.917  1216.77  923.896  1215.52  921.18  1214.19  915.085  1211.34  909.6  1208.68  907.592  1207.4  900.336  1203.17  899.146  1202.29  890.41  1195.54  889.915  1195.19  887.691  1193.08  881.742  1187.29  880.329  1185.29  875.892  1180.39  872.796  1175.94  871.544  1171.68  869.99  1166.29  872.98  1158.02  875.501  1156.21  880.881  1152.68  885.315  1152.11  890.965  1151.14  896.067  1152.8  901.013  1153.91  906.054  1157.36  908.904  1159  913.279  1163.15  915.851  1164.99  918.385  1166.27  924.215  1169.66  932.754  1172.64  932.982  1172.77  933.55  1172.95  943.521  1175.37  947.899  1176.29  952  1177.46  955.325  1181.04  961.113  1182.91  966.29  1184.37  970.704  1186.01  978.849  1188.28  983.904  1195.58  989.931  1198.84  " style="fill: none; stroke: black; stroke-width: 0.200000; fill-type: evenodd"  fill-opacity="1.000000" />
   <path d="M 989.931  1198.84  990.371  1199.07  994.385  1206.82  995.093  1208.8  " style="fill: none; stroke: red; stroke-width: 0.200000; fill-type: evenodd"  fill-opacity="1.000000" />
   <path d="M 995.093  1208.8  995.391  1209.63  " style="fill: none; stroke: black; stroke-width: 0.200000; fill-type: evenodd"  fill-opacity="1.000000" />
   <path d="M 995.391  1209.63  995.555  1210.09  996.424  1211.71  993.963  1213.64  989.155  1217.75  981.914  1219.53  980.187  1220.19  970.101  1221.27  969.443  1221.44  967.764  1221.56  967.103  1221.56  " style="fill: none; stroke: red; stroke-width: 0.200000; fill-type: evenodd"  fill-opacity="1.000000" />
   <path d="M 1003.1  1248.83  1003.83  1249.56  1004.1  1250.56  1003.83  1251.56  1003.1  1252.29  1002.1  1252.56  1001.1  1252.29  1000.37  1251.56  1000.1  1250.56  1000.37  1249.56  1001.1  1248.83  1002.1  1248.56  1003.1  1248.83  " style="fill: none; stroke: purple; stroke-width: 0.500000; fill-type: evenodd"  fill-opacity="1.000000" />
</svg>
