<?xml version="1.0" encoding="UTF-8" standalone="yes"?>
<!DOCTYPE svg PUBLIC "-//W3C//DTD SVG 1.0//EN" "http://www.w3.org/TR/2001/REC-SVG-20010904/DTD/svg10.dtd">
<svg height="2000" width="2000" xmlns="http://www.w3.org/2000/svg" xmlns:svg="http://www.w3.org/2000/svg" xmlns:xlink="http://www.w3.org/1999/xlink">
   <marker id="endArrow" markerHeight="8" markerUnits="strokeWidth" markerWidth="10" orient="auto" refX="1" refY="5" viewBox="0 0 1000 1000">
      <polyline fill="darkblue" points="0,0 10,5 0,10 1,5" />
   </marker>
   <circle cx="1000" cy="1000" r="1" style="stroke:black; fill: red" />
   <circle cx="1000" cy="1000" r="800" style="stroke:black; fill: none" />
   <line x1="1075.769287" y1="1066.620605" x2="1075.769287" y2="1067.456787" style="stroke: green; stroke-width: 0.200000"/>
   <line x1="1076.769287" y1="1065.620605" x2="1076.769287" y2="1067.456787" style="stroke: green; stroke-width: 0.200000"/>
   <line x1="1077.769287" y1="1064.620605" x2="1077.769287" y2="1067.456787" style="stroke: green; stroke-width: 0.200000"/>
   <line x1="1078.769287" y1="1063.620605" x2="1078.769287" y2="1067.456787" style="stroke: green; stroke-width: 0.200000"/>
   <line x1="1079.769287" y1="1062.620605" x2="1079.769287" y2="1067.456787" style="stroke: green; stroke-width: 0.200000"/>
   <line x1="1080.769287" y1="1061.620605" x2="1080.769287" y2="1067.456787" style="stroke: green; stroke-width: 0.200000"/>
   <line x1="1081.769287" y1="1060.620605" x2="1081.769287" y2="1067.456787" style="stroke: green; stroke-width: 0.200000"/>
   <line x1="1082.769287" y1="1059.620605" x2="1082.769287" y2="1067.456787" style="stroke: green; stroke-width: 0.200000"/>
   <line x1="1083.769287" y1="1058.620605" x2="1083.769287" y2="1067.456787" style="stroke: green; stroke-width: 0.200000"/>
   <line x1="1084.769287" y1="1057.620605" x2="1084.769287" y2="1066.751953" style="stroke: green; stroke-width: 0.200000"/>
   <line x1="1085.769287" y1="1056.620605" x2="1085.769287" y2="1065.885864" style="stroke: green; stroke-width: 0.200000"/>
   <line x1="1086.769287" y1="1055.620605" x2="1086.769287" y2="1065.019775" style="stroke: green; stroke-width: 0.200000"/>
   <line x1="1087.769287" y1="1054.620605" x2="1087.769287" y2="1064.153809" style="stroke: green; stroke-width: 0.200000"/>
   <line x1="1088.769287" y1="1053.620605" x2="1088.769287" y2="1063.351074" style="stroke: green; stroke-width: 0.200000"/>
   <line x1="1089.769287" y1="1052.620605" x2="1089.769287" y2="1062.581665" style="stroke: green; stroke-width: 0.200000"/>
   <line x1="1090.769287" y1="1051.620605" x2="1090.769287" y2="1061.812256" style="stroke: green; stroke-width: 0.200000"/>
   <line x1="1091.769287" y1="1050.620605" x2="1091.769287" y2="1061.042847" style="stroke: green; stroke-width: 0.200000"/>
   <line x1="1092.769287" y1="1049.620605" x2="1092.769287" y2="1060.328857" style="stroke: green; stroke-width: 0.200000"/>
   <line x1="1093.769287" y1="1048.620605" x2="1093.769287" y2="1059.634766" style="stroke: green; stroke-width: 0.200000"/>
   <line x1="1094.769287" y1="1047.620605" x2="1094.769287" y2="1058.940674" style="stroke: green; stroke-width: 0.200000"/>
   <line x1="1095.769287" y1="1046.620605" x2="1095.769287" y2="1058.246582" style="stroke: green; stroke-width: 0.200000"/>
   <line x1="1096.769287" y1="1045.620605" x2="1096.769287" y2="1057.579224" style="stroke: green; stroke-width: 0.200000"/>
   <line x1="1097.769287" y1="1044.620605" x2="1097.769287" y2="1056.961670" style="stroke: green; stroke-width: 0.200000"/>
   <line x1="1098.769287" y1="1043.620605" x2="1098.769287" y2="1056.344116" style="stroke: green; stroke-width: 0.200000"/>
   <line x1="1099.769287" y1="1042.620605" x2="1099.769287" y2="1055.726562" style="stroke: green; stroke-width: 0.200000"/>
   <line x1="1100.769287" y1="1041.620605" x2="1100.769287" y2="1055.109131" style="stroke: green; stroke-width: 0.200000"/>
   <line x1="1101.769287" y1="1040.620605" x2="1101.769287" y2="1054.507568" style="stroke: green; stroke-width: 0.200000"/>
   <line x1="1102.769287" y1="1039.620605" x2="1102.769287" y2="1053.942749" style="stroke: green; stroke-width: 0.200000"/>
   <line x1="1103.769287" y1="1038.620605" x2="1103.769287" y2="1053.377930" style="stroke: green; stroke-width: 0.200000"/>
   <line x1="1104.769287" y1="1037.620605" x2="1104.769287" y2="1052.816040" style="stroke: green; stroke-width: 0.200000"/>
   <line x1="1105.769287" y1="1036.620605" x2="1105.769287" y2="1052.283813" style="stroke: green; stroke-width: 0.200000"/>
   <line x1="1106.769287" y1="1035.620605" x2="1106.769287" y2="1051.751587" style="stroke: green; stroke-width: 0.200000"/>
   <line x1="1107.769287" y1="1034.620605" x2="1107.769287" y2="1051.219360" style="stroke: green; stroke-width: 0.200000"/>
   <line x1="1108.769287" y1="1033.620605" x2="1108.769287" y2="1050.687134" style="stroke: green; stroke-width: 0.200000"/>
   <line x1="1109.769287" y1="1032.620605" x2="1109.769287" y2="1050.172241" style="stroke: green; stroke-width: 0.200000"/>
   <line x1="1110.769287" y1="1031.620605" x2="1110.769287" y2="1049.660156" style="stroke: green; stroke-width: 0.200000"/>
   <line x1="1111.769287" y1="1030.620605" x2="1111.769287" y2="1049.114136" style="stroke: green; stroke-width: 0.200000"/>
   <line x1="1112.769287" y1="1029.620605" x2="1112.769287" y2="1048.509766" style="stroke: green; stroke-width: 0.200000"/>
   <line x1="1113.769287" y1="1028.620605" x2="1113.769287" y2="1047.935913" style="stroke: green; stroke-width: 0.200000"/>
   <line x1="1114.769287" y1="1027.620605" x2="1114.769287" y2="1047.308960" style="stroke: green; stroke-width: 0.200000"/>
   <line x1="1115.769287" y1="1026.620605" x2="1115.769287" y2="1046.674072" style="stroke: green; stroke-width: 0.200000"/>
   <line x1="1116.769287" y1="1025.620605" x2="1116.769287" y2="1045.906250" style="stroke: green; stroke-width: 0.200000"/>
   <line x1="1117.769287" y1="1024.620605" x2="1117.769287" y2="1045.079956" style="stroke: green; stroke-width: 0.200000"/>
   <line x1="1118.769287" y1="1023.620605" x2="1118.769287" y2="1044.175659" style="stroke: green; stroke-width: 0.200000"/>
   <line x1="1119.769287" y1="1022.620544" x2="1119.769287" y2="1043.148804" style="stroke: green; stroke-width: 0.200000"/>
   <line x1="1120.769287" y1="1021.620544" x2="1120.769287" y2="1042.121948" style="stroke: green; stroke-width: 0.200000"/>
   <line x1="1121.769287" y1="1017.824768" x2="1121.769287" y2="1041.095215" style="stroke: green; stroke-width: 0.200000"/>
   <line x1="1122.769287" y1="1018.450012" x2="1122.769287" y2="1039.981934" style="stroke: green; stroke-width: 0.200000"/>
   <line x1="1123.769287" y1="1020.021973" x2="1123.769287" y2="1038.625732" style="stroke: green; stroke-width: 0.200000"/>
   <line x1="1124.769287" y1="1021.735901" x2="1124.769287" y2="1036.895996" style="stroke: green; stroke-width: 0.200000"/>
   <line x1="1125.769287" y1="1024.277954" x2="1125.769287" y2="1034.542847" style="stroke: green; stroke-width: 0.200000"/>
   <line x1="1120.769287" y1="1018.824829" x2="1120.769287" y2="1019.755249" style="stroke: green; stroke-width: 0.200000"/>
   <line x1="1045.769287" y1="1096.620605" x2="1045.769287" y2="1110.127930" style="stroke: green; stroke-width: 0.200000"/>
   <line x1="1046.769287" y1="1095.620605" x2="1046.769287" y2="1110.101074" style="stroke: green; stroke-width: 0.200000"/>
   <line x1="1044.769287" y1="1097.620605" x2="1044.769287" y2="1110.067383" style="stroke: green; stroke-width: 0.200000"/>
   <line x1="1047.769287" y1="1094.620605" x2="1047.769287" y2="1109.976318" style="stroke: green; stroke-width: 0.200000"/>
   <line x1="1043.769287" y1="1098.620605" x2="1043.769287" y2="1109.921753" style="stroke: green; stroke-width: 0.200000"/>
   <line x1="1048.769287" y1="1093.620605" x2="1048.769287" y2="1109.765503" style="stroke: green; stroke-width: 0.200000"/>
   <line x1="1042.769287" y1="1099.620605" x2="1042.769287" y2="1109.686157" style="stroke: green; stroke-width: 0.200000"/>
   <line x1="1049.769287" y1="1092.620605" x2="1049.769287" y2="1109.467651" style="stroke: green; stroke-width: 0.200000"/>
   <line x1="1041.769287" y1="1100.620605" x2="1041.769287" y2="1109.359375" style="stroke: green; stroke-width: 0.200000"/>
   <line x1="1050.769287" y1="1091.620605" x2="1050.769287" y2="1109.097168" style="stroke: green; stroke-width: 0.200000"/>
   <line x1="1040.769287" y1="1101.620605" x2="1040.769287" y2="1108.950073" style="stroke: green; stroke-width: 0.200000"/>
   <line x1="1051.769287" y1="1090.620605" x2="1051.769287" y2="1108.578857" style="stroke: green; stroke-width: 0.200000"/>
   <line x1="1039.769287" y1="1102.620605" x2="1039.769287" y2="1108.559448" style="stroke: green; stroke-width: 0.200000"/>
   <line x1="1038.769287" y1="1103.620605" x2="1038.769287" y2="1108.168823" style="stroke: green; stroke-width: 0.200000"/>
   <line x1="1052.769287" y1="1089.620605" x2="1052.769287" y2="1108.013672" style="stroke: green; stroke-width: 0.200000"/>
   <line x1="1037.769287" y1="1104.619507" x2="1037.769287" y2="1107.778320" style="stroke: green; stroke-width: 0.200000"/>
   <line x1="1036.769287" y1="1104.897705" x2="1036.769287" y2="1107.387817" style="stroke: green; stroke-width: 0.200000"/>
   <line x1="1053.769287" y1="1088.620605" x2="1053.769287" y2="1107.230347" style="stroke: green; stroke-width: 0.200000"/>
   <line x1="1035.769287" y1="1104.338867" x2="1035.769287" y2="1106.997192" style="stroke: green; stroke-width: 0.200000"/>
   <line x1="1034.769287" y1="1104.824829" x2="1034.769287" y2="1106.606567" style="stroke: green; stroke-width: 0.200000"/>
   <line x1="1054.769287" y1="1087.620605" x2="1054.769287" y2="1106.306519" style="stroke: green; stroke-width: 0.200000"/>
   <line x1="1033.769287" y1="1105.824707" x2="1033.769287" y2="1106.216064" style="stroke: green; stroke-width: 0.200000"/>
   <line x1="1055.769287" y1="1086.620605" x2="1055.769287" y2="1105.176636" style="stroke: green; stroke-width: 0.200000"/>
   <line x1="1056.769287" y1="1085.620605" x2="1056.769287" y2="1103.800415" style="stroke: green; stroke-width: 0.200000"/>
   <line x1="1057.769287" y1="1084.620605" x2="1057.769287" y2="1102.341797" style="stroke: green; stroke-width: 0.200000"/>
   <line x1="1058.769287" y1="1083.620605" x2="1058.769287" y2="1100.809204" style="stroke: green; stroke-width: 0.200000"/>
   <line x1="1059.769287" y1="1082.620605" x2="1059.769287" y2="1099.109009" style="stroke: green; stroke-width: 0.200000"/>
   <line x1="1060.769287" y1="1081.620605" x2="1060.769287" y2="1097.390991" style="stroke: green; stroke-width: 0.200000"/>
   <line x1="1061.769287" y1="1080.620605" x2="1061.769287" y2="1095.669922" style="stroke: green; stroke-width: 0.200000"/>
   <line x1="1062.769287" y1="1079.620605" x2="1062.769287" y2="1093.792847" style="stroke: green; stroke-width: 0.200000"/>
   <line x1="1063.769287" y1="1078.620605" x2="1063.769287" y2="1092.076172" style="stroke: green; stroke-width: 0.200000"/>
   <line x1="1064.769287" y1="1077.620605" x2="1064.769287" y2="1090.447754" style="stroke: green; stroke-width: 0.200000"/>
   <line x1="1065.769287" y1="1076.620605" x2="1065.769287" y2="1088.860474" style="stroke: green; stroke-width: 0.200000"/>
   <line x1="1066.769287" y1="1075.620605" x2="1066.769287" y2="1087.406616" style="stroke: green; stroke-width: 0.200000"/>
   <line x1="1067.769287" y1="1074.620605" x2="1067.769287" y2="1085.952881" style="stroke: green; stroke-width: 0.200000"/>
   <line x1="1068.769287" y1="1073.620605" x2="1068.769287" y2="1084.567749" style="stroke: green; stroke-width: 0.200000"/>
   <line x1="1069.769287" y1="1072.620605" x2="1069.769287" y2="1083.309204" style="stroke: green; stroke-width: 0.200000"/>
   <line x1="1070.769287" y1="1071.620605" x2="1070.769287" y2="1082.050659" style="stroke: green; stroke-width: 0.200000"/>
   <line x1="1071.769287" y1="1070.620605" x2="1071.769287" y2="1080.792114" style="stroke: green; stroke-width: 0.200000"/>
   <line x1="1072.769287" y1="1069.620605" x2="1072.769287" y2="1079.533569" style="stroke: green; stroke-width: 0.200000"/>
   <line x1="1073.769287" y1="1068.620605" x2="1073.769287" y2="1078.275024" style="stroke: green; stroke-width: 0.200000"/>
   <line x1="1074.769287" y1="1067.620483" x2="1074.769287" y2="1077.078125" style="stroke: green; stroke-width: 0.200000"/>
   <line x1="1075.769287" y1="1067.556641" x2="1075.769287" y2="1075.995972" style="stroke: green; stroke-width: 0.200000"/>
   <line x1="1076.769287" y1="1067.556641" x2="1076.769287" y2="1074.913940" style="stroke: green; stroke-width: 0.200000"/>
   <line x1="1077.769287" y1="1067.556641" x2="1077.769287" y2="1073.831909" style="stroke: green; stroke-width: 0.200000"/>
   <line x1="1078.769287" y1="1067.556641" x2="1078.769287" y2="1072.749756" style="stroke: green; stroke-width: 0.200000"/>
   <line x1="1079.769287" y1="1067.556641" x2="1079.769287" y2="1071.667603" style="stroke: green; stroke-width: 0.200000"/>
   <line x1="1080.769287" y1="1067.556641" x2="1080.769287" y2="1070.585571" style="stroke: green; stroke-width: 0.200000"/>
   <line x1="1081.769287" y1="1067.556641" x2="1081.769287" y2="1069.603149" style="stroke: green; stroke-width: 0.200000"/>
   <line x1="1082.769287" y1="1067.556641" x2="1082.769287" y2="1068.642212" style="stroke: green; stroke-width: 0.200000"/>
   <line x1="1083.769287" y1="1067.556641" x2="1083.769287" y2="1067.681396" style="stroke: green; stroke-width: 0.200000"/>
   <path d="M 1123.5  1016.81  1125.43  1019.84  1126.15  1021.13  1126.76  1022.46  1127.65  1025.24  1128.09  1028.12  1128.07  1031.01  1127.59  1033.82  1127.51  1034.09  1126.79  1036.21  1126.68  1036.5  1126.54  1036.79  1125.36  1038.96  1124.58  1040.08  1123.74  1041.18  1123.29  1041.65  1122.96  1042.02  1119.4  1045.68  1117.14  1047.55  1116.55  1047.96  1114.62  1049.17  1113.3  1049.93  1112.17  1050.63  1109.6  1051.94  1105.41  1054.18  1102.23  1055.97  1097.43  1058.93  1096.9  1059.29  1092.92  1062.05  1089.06  1065.02  1085.45  1068.15  1082.02  1071.44  1075.56  1078.43  1069.62  1085.9  1066.91  1089.84  1065.65  1091.87  1064.38  1093.96  1063.07  1096.43  1060.15  1101.44  1059.11  1103.05  1058.56  1103.87  1057.07  1105.95  1056.44  1106.71  1055.31  1107.92  1054.82  1108.33  1053.64  1109.24  1053.43  1109.37  1051.84  1110.26  1051.35  1110.48  1049.87  1111.03  1048.86  1111.29  1047.76  1111.51  1046.66  1111.62  1045.54  1111.63  1044.42  1111.55  1043.32  1111.37  1042.24  1111.1  1041.22  1110.76  1040.23  1110.35  1030.8  1106.67  1035.18  1102.29  1036.97  1103.29  1119.59  1020.68  1118.46  1019.01  1122.42  1015.05  1123.5  1016.81  " style="fill: none; stroke: darkmagenta; stroke-width: 0.200000; fill-type: evenodd"  fill-opacity="1.000000" />
   <path d="M 1122.65  1017.34  1124.57  1020.35  1125.25  1021.58  1125.83  1022.83  1126.68  1025.47  1127.09  1028.19  1127.07  1030.92  1126.62  1033.59  1126.56  1033.79  1125.85  1035.87  1125.76  1036.11  1125.65  1036.34  1124.51  1038.44  1123.77  1039.49  1122.98  1040.52  1122.55  1040.97  1122.23  1041.34  1118.72  1044.94  1116.53  1046.75  1116  1047.12  1114.11  1048.32  1112.79  1049.07  1111.68  1049.76  1109.14  1051.06  1104.93  1053.3  1101.72  1055.11  1096.89  1058.09  1096.34  1058.46  1092.33  1061.24  1088.43  1064.24  1084.77  1067.41  1081.3  1070.74  1074.8  1077.78  1068.82  1085.31  1066.08  1089.3  1064.8  1091.35  1063.51  1093.46  1062.19  1095.94  1059.29  1100.92  1058.27  1102.5  1057.74  1103.31  1056.28  1105.34  1055.69  1106.05  1054.63  1107.19  1054.19  1107.55  1053.06  1108.42  1052.92  1108.52  1051.39  1109.37  1050.97  1109.56  1049.57  1110.08  1048.63  1110.32  1047.61  1110.52  1046.61  1110.62  1045.57  1110.63  1044.54  1110.55  1043.52  1110.39  1042.52  1110.14  1041.57  1109.82  1040.61  1109.42  1032.59  1106.29  1035.35  1103.53  1037.15  1104.54  1120.88  1020.81  1119.75  1019.14  1122.23  1016.65  1122.65  1017.34  " style="fill: none; stroke: black; stroke-width: 0.200000; fill-type: evenodd"  fill-opacity="1.000000" />
</svg>
