<?xml version="1.0" encoding="UTF-8" standalone="yes"?>
<!DOCTYPE svg PUBLIC "-//W3C//DTD SVG 1.0//EN" "http://www.w3.org/TR/2001/REC-SVG-20010904/DTD/svg10.dtd">
<svg height="2000" width="2000" xmlns="http://www.w3.org/2000/svg" xmlns:svg="http://www.w3.org/2000/svg" xmlns:xlink="http://www.w3.org/1999/xlink">
   <marker id="endArrow" markerHeight="8" markerUnits="strokeWidth" markerWidth="10" orient="auto" refX="1" refY="5" viewBox="0 0 1000 1000">
      <polyline fill="darkblue" points="0,0 10,5 0,10 1,5" />
   </marker>
   <circle cx="1000" cy="1000" r="1" style="stroke:black; fill: red" />
   <circle cx="1000" cy="1000" r="800" style="stroke:black; fill: none" />
   <line x1="801.720276" y1="1077.166992" x2="758.066467" y2="1077.166992" style="stroke: green; stroke-width: 0.200000"/>
   <line x1="801.720276" y1="1076.166992" x2="758.386902" y2="1076.166992" style="stroke: green; stroke-width: 0.200000"/>
   <line x1="801.720276" y1="1075.166992" x2="758.659912" y2="1075.166992" style="stroke: green; stroke-width: 0.200000"/>
   <line x1="801.720276" y1="1074.166992" x2="758.932861" y2="1074.166992" style="stroke: green; stroke-width: 0.200000"/>
   <line x1="801.720276" y1="1073.166992" x2="759.205933" y2="1073.166992" style="stroke: green; stroke-width: 0.200000"/>
   <line x1="801.720276" y1="1072.166992" x2="759.446777" y2="1072.166992" style="stroke: green; stroke-width: 0.200000"/>
   <line x1="801.720276" y1="1071.166992" x2="759.640503" y2="1071.166992" style="stroke: green; stroke-width: 0.200000"/>
   <line x1="801.720276" y1="1070.166992" x2="759.834106" y2="1070.166992" style="stroke: green; stroke-width: 0.200000"/>
   <line x1="801.720276" y1="1069.166992" x2="760.089966" y2="1069.166992" style="stroke: green; stroke-width: 0.200000"/>
   <line x1="801.720276" y1="1068.166992" x2="760.483643" y2="1068.166992" style="stroke: green; stroke-width: 0.200000"/>
   <line x1="801.720276" y1="1067.166992" x2="760.877319" y2="1067.166992" style="stroke: green; stroke-width: 0.200000"/>
   <line x1="801.720276" y1="1066.166992" x2="761.270996" y2="1066.166992" style="stroke: green; stroke-width: 0.200000"/>
   <line x1="801.720276" y1="1065.166992" x2="761.664673" y2="1065.166992" style="stroke: green; stroke-width: 0.200000"/>
   <line x1="801.720276" y1="1064.166992" x2="762.074097" y2="1064.166992" style="stroke: green; stroke-width: 0.200000"/>
   <line x1="801.720276" y1="1063.166992" x2="762.536560" y2="1063.166992" style="stroke: green; stroke-width: 0.200000"/>
   <line x1="801.720276" y1="1062.166992" x2="762.998962" y2="1062.166992" style="stroke: green; stroke-width: 0.200000"/>
   <line x1="801.720276" y1="1061.166992" x2="763.461365" y2="1061.166992" style="stroke: green; stroke-width: 0.200000"/>
   <line x1="801.720276" y1="1060.166992" x2="763.923828" y2="1060.166992" style="stroke: green; stroke-width: 0.200000"/>
   <line x1="801.720276" y1="1059.166992" x2="764.386108" y2="1059.166992" style="stroke: green; stroke-width: 0.200000"/>
   <line x1="801.720276" y1="1058.166992" x2="764.848572" y2="1058.166992" style="stroke: green; stroke-width: 0.200000"/>
   <line x1="801.720276" y1="1057.166992" x2="765.310974" y2="1057.166992" style="stroke: green; stroke-width: 0.200000"/>
   <line x1="801.720276" y1="1056.166992" x2="765.773376" y2="1056.166992" style="stroke: green; stroke-width: 0.200000"/>
   <line x1="801.720276" y1="1055.166992" x2="766.478516" y2="1055.166992" style="stroke: green; stroke-width: 0.200000"/>
   <line x1="801.720276" y1="1054.166992" x2="767.215942" y2="1054.166992" style="stroke: green; stroke-width: 0.200000"/>
   <line x1="801.720276" y1="1053.166992" x2="767.953369" y2="1053.166992" style="stroke: green; stroke-width: 0.200000"/>
   <line x1="801.720276" y1="1052.166992" x2="768.690796" y2="1052.166992" style="stroke: green; stroke-width: 0.200000"/>
   <line x1="801.720276" y1="1051.166992" x2="769.428162" y2="1051.166992" style="stroke: green; stroke-width: 0.200000"/>
   <line x1="801.720276" y1="1050.166992" x2="770.165649" y2="1050.166992" style="stroke: green; stroke-width: 0.200000"/>
   <line x1="801.720276" y1="1049.166992" x2="770.903015" y2="1049.166992" style="stroke: green; stroke-width: 0.200000"/>
   <line x1="801.720276" y1="1048.166992" x2="771.738647" y2="1048.166992" style="stroke: green; stroke-width: 0.200000"/>
   <line x1="801.720276" y1="1047.166992" x2="772.688904" y2="1047.166992" style="stroke: green; stroke-width: 0.200000"/>
   <line x1="801.720276" y1="1046.166992" x2="773.639038" y2="1046.166992" style="stroke: green; stroke-width: 0.200000"/>
   <line x1="801.720276" y1="1045.166992" x2="774.589294" y2="1045.166992" style="stroke: green; stroke-width: 0.200000"/>
   <line x1="801.720276" y1="1044.166992" x2="775.539490" y2="1044.166992" style="stroke: green; stroke-width: 0.200000"/>
   <line x1="801.720276" y1="1043.166992" x2="776.479736" y2="1043.166992" style="stroke: green; stroke-width: 0.200000"/>
   <line x1="801.720276" y1="1042.166992" x2="777.368103" y2="1042.166992" style="stroke: green; stroke-width: 0.200000"/>
   <line x1="801.720276" y1="1041.166992" x2="778.427979" y2="1041.166992" style="stroke: green; stroke-width: 0.200000"/>
   <line x1="801.720276" y1="1040.166992" x2="779.602417" y2="1040.166992" style="stroke: green; stroke-width: 0.200000"/>
   <line x1="801.720276" y1="1039.166992" x2="780.825562" y2="1039.166992" style="stroke: green; stroke-width: 0.200000"/>
   <line x1="801.720276" y1="1038.166992" x2="782.102356" y2="1038.166992" style="stroke: green; stroke-width: 0.200000"/>
   <line x1="801.720276" y1="1037.166992" x2="783.379150" y2="1037.166992" style="stroke: green; stroke-width: 0.200000"/>
   <line x1="801.720276" y1="1036.166992" x2="784.655884" y2="1036.166992" style="stroke: green; stroke-width: 0.200000"/>
   <line x1="801.720276" y1="1035.166992" x2="785.990234" y2="1035.166992" style="stroke: green; stroke-width: 0.200000"/>
   <line x1="801.720276" y1="1034.166992" x2="787.582153" y2="1034.166992" style="stroke: green; stroke-width: 0.200000"/>
   <line x1="801.720276" y1="1033.166992" x2="789.174133" y2="1033.166992" style="stroke: green; stroke-width: 0.200000"/>
   <line x1="801.720276" y1="1032.166992" x2="790.765991" y2="1032.166992" style="stroke: green; stroke-width: 0.200000"/>
   <line x1="801.720276" y1="1031.166992" x2="792.297363" y2="1031.166992" style="stroke: green; stroke-width: 0.200000"/>
   <line x1="801.720276" y1="1030.166992" x2="794.339661" y2="1030.166992" style="stroke: green; stroke-width: 0.200000"/>
   <line x1="801.720276" y1="1029.166992" x2="796.799194" y2="1029.166992" style="stroke: green; stroke-width: 0.200000"/>
   <line x1="801.720276" y1="1028.166992" x2="799.258667" y2="1028.166992" style="stroke: green; stroke-width: 0.200000"/>
   <line x1="851.820312" y1="1077.166992" x2="801.820312" y2="1077.166992" style="stroke: green; stroke-width: 0.200000"/>
   <line x1="851.820312" y1="1076.166992" x2="801.820312" y2="1076.166992" style="stroke: green; stroke-width: 0.200000"/>
   <line x1="851.820312" y1="1075.166992" x2="801.820312" y2="1075.166992" style="stroke: green; stroke-width: 0.200000"/>
   <line x1="851.820312" y1="1074.166992" x2="801.820312" y2="1074.166992" style="stroke: green; stroke-width: 0.200000"/>
   <line x1="851.820312" y1="1073.166992" x2="801.820312" y2="1073.166992" style="stroke: green; stroke-width: 0.200000"/>
   <line x1="851.820312" y1="1072.166992" x2="801.820312" y2="1072.166992" style="stroke: green; stroke-width: 0.200000"/>
   <line x1="851.820312" y1="1071.166992" x2="801.820312" y2="1071.166992" style="stroke: green; stroke-width: 0.200000"/>
   <line x1="851.820312" y1="1070.166992" x2="801.820312" y2="1070.166992" style="stroke: green; stroke-width: 0.200000"/>
   <line x1="851.820312" y1="1069.166992" x2="801.820312" y2="1069.166992" style="stroke: green; stroke-width: 0.200000"/>
   <line x1="851.820312" y1="1068.166992" x2="801.820312" y2="1068.166992" style="stroke: green; stroke-width: 0.200000"/>
   <line x1="851.820312" y1="1067.166992" x2="801.820312" y2="1067.166992" style="stroke: green; stroke-width: 0.200000"/>
   <line x1="851.820312" y1="1066.166992" x2="801.820312" y2="1066.166992" style="stroke: green; stroke-width: 0.200000"/>
   <line x1="851.820312" y1="1065.166992" x2="801.820312" y2="1065.166992" style="stroke: green; stroke-width: 0.200000"/>
   <line x1="851.820312" y1="1064.166992" x2="801.820312" y2="1064.166992" style="stroke: green; stroke-width: 0.200000"/>
   <line x1="851.820312" y1="1063.166992" x2="801.820312" y2="1063.166992" style="stroke: green; stroke-width: 0.200000"/>
   <line x1="851.820312" y1="1062.166992" x2="801.820312" y2="1062.166992" style="stroke: green; stroke-width: 0.200000"/>
   <line x1="851.820312" y1="1061.166992" x2="801.820312" y2="1061.166992" style="stroke: green; stroke-width: 0.200000"/>
   <line x1="851.820312" y1="1060.166992" x2="801.820312" y2="1060.166992" style="stroke: green; stroke-width: 0.200000"/>
   <line x1="851.820312" y1="1059.166992" x2="801.820312" y2="1059.166992" style="stroke: green; stroke-width: 0.200000"/>
   <line x1="851.510254" y1="1058.166992" x2="801.820312" y2="1058.166992" style="stroke: green; stroke-width: 0.200000"/>
   <line x1="850.591125" y1="1057.166992" x2="801.820312" y2="1057.166992" style="stroke: green; stroke-width: 0.200000"/>
   <line x1="849.467773" y1="1056.166992" x2="801.820312" y2="1056.166992" style="stroke: green; stroke-width: 0.200000"/>
   <line x1="848.343628" y1="1055.166992" x2="801.820312" y2="1055.166992" style="stroke: green; stroke-width: 0.200000"/>
   <line x1="847.348145" y1="1054.166992" x2="801.820312" y2="1054.166992" style="stroke: green; stroke-width: 0.200000"/>
   <line x1="846.352600" y1="1053.166992" x2="801.820312" y2="1053.166992" style="stroke: green; stroke-width: 0.200000"/>
   <line x1="845.357117" y1="1052.166992" x2="801.820312" y2="1052.166992" style="stroke: green; stroke-width: 0.200000"/>
   <line x1="844.361633" y1="1051.166992" x2="801.820312" y2="1051.166992" style="stroke: green; stroke-width: 0.200000"/>
   <line x1="843.366028" y1="1050.166992" x2="801.820312" y2="1050.166992" style="stroke: green; stroke-width: 0.200000"/>
   <line x1="842.370544" y1="1049.166992" x2="801.820312" y2="1049.166992" style="stroke: green; stroke-width: 0.200000"/>
   <line x1="841.033813" y1="1048.166992" x2="801.820312" y2="1048.166992" style="stroke: green; stroke-width: 0.200000"/>
   <line x1="839.737610" y1="1047.166992" x2="801.820312" y2="1047.166992" style="stroke: green; stroke-width: 0.200000"/>
   <line x1="838.777466" y1="1046.166992" x2="801.820312" y2="1046.166992" style="stroke: green; stroke-width: 0.200000"/>
   <line x1="837.817383" y1="1045.166992" x2="801.820312" y2="1045.166992" style="stroke: green; stroke-width: 0.200000"/>
   <line x1="836.857239" y1="1044.166992" x2="801.820312" y2="1044.166992" style="stroke: green; stroke-width: 0.200000"/>
   <line x1="835.897095" y1="1043.166992" x2="801.820312" y2="1043.166992" style="stroke: green; stroke-width: 0.200000"/>
   <line x1="834.937012" y1="1042.166992" x2="801.820312" y2="1042.166992" style="stroke: green; stroke-width: 0.200000"/>
   <line x1="833.812134" y1="1041.166992" x2="801.820312" y2="1041.166992" style="stroke: green; stroke-width: 0.200000"/>
   <line x1="832.522949" y1="1040.166992" x2="801.820312" y2="1040.166992" style="stroke: green; stroke-width: 0.200000"/>
   <line x1="831.334595" y1="1039.166992" x2="801.820312" y2="1039.166992" style="stroke: green; stroke-width: 0.200000"/>
   <line x1="830.200317" y1="1038.166992" x2="801.820312" y2="1038.166992" style="stroke: green; stroke-width: 0.200000"/>
   <line x1="829.066040" y1="1037.166992" x2="801.820312" y2="1037.166992" style="stroke: green; stroke-width: 0.200000"/>
   <line x1="827.931641" y1="1036.166992" x2="801.820312" y2="1036.166992" style="stroke: green; stroke-width: 0.200000"/>
   <line x1="826.704956" y1="1035.166992" x2="801.820312" y2="1035.166992" style="stroke: green; stroke-width: 0.200000"/>
   <line x1="825.137390" y1="1034.166992" x2="801.820312" y2="1034.166992" style="stroke: green; stroke-width: 0.200000"/>
   <line x1="823.569824" y1="1033.166992" x2="801.820312" y2="1033.166992" style="stroke: green; stroke-width: 0.200000"/>
   <line x1="822.002319" y1="1032.166992" x2="801.820312" y2="1032.166992" style="stroke: green; stroke-width: 0.200000"/>
   <line x1="820.434814" y1="1031.166992" x2="801.820312" y2="1031.166992" style="stroke: green; stroke-width: 0.200000"/>
   <line x1="818.631897" y1="1030.166992" x2="801.820312" y2="1030.166992" style="stroke: green; stroke-width: 0.200000"/>
   <line x1="815.056885" y1="1029.166992" x2="801.820312" y2="1029.166992" style="stroke: green; stroke-width: 0.200000"/>
   <line x1="811.146851" y1="1028.166992" x2="801.820312" y2="1028.166992" style="stroke: green; stroke-width: 0.200000"/>
   <line x1="867.911682" y1="1077.166992" x2="851.920227" y2="1077.166992" style="stroke: green; stroke-width: 0.200000"/>
   <line x1="867.151733" y1="1076.166992" x2="851.920227" y2="1076.166992" style="stroke: green; stroke-width: 0.200000"/>
   <line x1="866.391724" y1="1075.166992" x2="851.920227" y2="1075.166992" style="stroke: green; stroke-width: 0.200000"/>
   <line x1="865.629639" y1="1074.166992" x2="851.920227" y2="1074.166992" style="stroke: green; stroke-width: 0.200000"/>
   <line x1="864.738525" y1="1073.166992" x2="851.920227" y2="1073.166992" style="stroke: green; stroke-width: 0.200000"/>
   <line x1="863.847412" y1="1072.166992" x2="851.920227" y2="1072.166992" style="stroke: green; stroke-width: 0.200000"/>
   <line x1="862.956238" y1="1071.166992" x2="851.920227" y2="1071.166992" style="stroke: green; stroke-width: 0.200000"/>
   <line x1="862.012024" y1="1070.166992" x2="851.920227" y2="1070.166992" style="stroke: green; stroke-width: 0.200000"/>
   <line x1="861.041931" y1="1069.166992" x2="851.920227" y2="1069.166992" style="stroke: green; stroke-width: 0.200000"/>
   <line x1="860.071960" y1="1068.166992" x2="851.920227" y2="1068.166992" style="stroke: green; stroke-width: 0.200000"/>
   <line x1="859.101868" y1="1067.166992" x2="851.920227" y2="1067.166992" style="stroke: green; stroke-width: 0.200000"/>
   <line x1="858.158569" y1="1066.166992" x2="851.920227" y2="1066.166992" style="stroke: green; stroke-width: 0.200000"/>
   <line x1="857.423157" y1="1065.166992" x2="851.920227" y2="1065.166992" style="stroke: green; stroke-width: 0.200000"/>
   <line x1="856.687866" y1="1064.166992" x2="851.920227" y2="1064.166992" style="stroke: green; stroke-width: 0.200000"/>
   <line x1="855.952515" y1="1063.166992" x2="851.920227" y2="1063.166992" style="stroke: green; stroke-width: 0.200000"/>
   <line x1="855.186768" y1="1062.166992" x2="851.920227" y2="1062.166992" style="stroke: green; stroke-width: 0.200000"/>
   <line x1="854.267639" y1="1061.166992" x2="851.920227" y2="1061.166992" style="stroke: green; stroke-width: 0.200000"/>
   <line x1="853.348511" y1="1060.166992" x2="851.920227" y2="1060.166992" style="stroke: green; stroke-width: 0.200000"/>
   <line x1="852.429321" y1="1059.166992" x2="851.920227" y2="1059.166992" style="stroke: green; stroke-width: 0.200000"/>
   <line x1="801.720276" y1="1127.166992" x2="754.575562" y2="1127.166992" style="stroke: green; stroke-width: 0.200000"/>
   <line x1="801.720276" y1="1126.166992" x2="754.142761" y2="1126.166992" style="stroke: green; stroke-width: 0.200000"/>
   <line x1="801.720276" y1="1125.166992" x2="753.714600" y2="1125.166992" style="stroke: green; stroke-width: 0.200000"/>
   <line x1="801.720276" y1="1124.166992" x2="753.286377" y2="1124.166992" style="stroke: green; stroke-width: 0.200000"/>
   <line x1="801.720276" y1="1123.166992" x2="752.858215" y2="1123.166992" style="stroke: green; stroke-width: 0.200000"/>
   <line x1="801.720276" y1="1122.166992" x2="752.429932" y2="1122.166992" style="stroke: green; stroke-width: 0.200000"/>
   <line x1="801.720276" y1="1121.166992" x2="752.001831" y2="1121.166992" style="stroke: green; stroke-width: 0.200000"/>
   <line x1="801.720276" y1="1120.166992" x2="751.826904" y2="1120.166992" style="stroke: green; stroke-width: 0.200000"/>
   <line x1="801.720276" y1="1119.166992" x2="751.815674" y2="1119.166992" style="stroke: green; stroke-width: 0.200000"/>
   <line x1="801.720276" y1="1118.166992" x2="751.804321" y2="1118.166992" style="stroke: green; stroke-width: 0.200000"/>
   <line x1="801.720276" y1="1117.166992" x2="751.792969" y2="1117.166992" style="stroke: green; stroke-width: 0.200000"/>
   <line x1="801.720276" y1="1116.166992" x2="751.781677" y2="1116.166992" style="stroke: green; stroke-width: 0.200000"/>
   <line x1="801.720276" y1="1115.166992" x2="751.770386" y2="1115.166992" style="stroke: green; stroke-width: 0.200000"/>
   <line x1="801.720276" y1="1114.166992" x2="751.759094" y2="1114.166992" style="stroke: green; stroke-width: 0.200000"/>
   <line x1="801.720276" y1="1113.166992" x2="751.747803" y2="1113.166992" style="stroke: green; stroke-width: 0.200000"/>
   <line x1="801.720276" y1="1112.166992" x2="751.736511" y2="1112.166992" style="stroke: green; stroke-width: 0.200000"/>
   <line x1="801.720276" y1="1111.166992" x2="751.725220" y2="1111.166992" style="stroke: green; stroke-width: 0.200000"/>
   <line x1="801.720276" y1="1110.166992" x2="751.807373" y2="1110.166992" style="stroke: green; stroke-width: 0.200000"/>
   <line x1="801.720276" y1="1109.166992" x2="751.963257" y2="1109.166992" style="stroke: green; stroke-width: 0.200000"/>
   <line x1="801.720276" y1="1108.166992" x2="752.119202" y2="1108.166992" style="stroke: green; stroke-width: 0.200000"/>
   <line x1="801.720276" y1="1107.166992" x2="752.274902" y2="1107.166992" style="stroke: green; stroke-width: 0.200000"/>
   <line x1="801.720276" y1="1106.166992" x2="752.430908" y2="1106.166992" style="stroke: green; stroke-width: 0.200000"/>
   <line x1="801.720276" y1="1105.166992" x2="752.586792" y2="1105.166992" style="stroke: green; stroke-width: 0.200000"/>
   <line x1="801.720276" y1="1104.166992" x2="752.742676" y2="1104.166992" style="stroke: green; stroke-width: 0.200000"/>
   <line x1="801.720276" y1="1103.166992" x2="752.898621" y2="1103.166992" style="stroke: green; stroke-width: 0.200000"/>
   <line x1="801.720276" y1="1102.166992" x2="753.054565" y2="1102.166992" style="stroke: green; stroke-width: 0.200000"/>
   <line x1="801.720276" y1="1101.166992" x2="753.210510" y2="1101.166992" style="stroke: green; stroke-width: 0.200000"/>
   <line x1="801.720276" y1="1100.166992" x2="753.354004" y2="1100.166992" style="stroke: green; stroke-width: 0.200000"/>
   <line x1="801.720276" y1="1099.166992" x2="753.481812" y2="1099.166992" style="stroke: green; stroke-width: 0.200000"/>
   <line x1="801.720276" y1="1098.166992" x2="753.610352" y2="1098.166992" style="stroke: green; stroke-width: 0.200000"/>
   <line x1="801.720276" y1="1097.166992" x2="753.767212" y2="1097.166992" style="stroke: green; stroke-width: 0.200000"/>
   <line x1="801.720276" y1="1096.166992" x2="753.923950" y2="1096.166992" style="stroke: green; stroke-width: 0.200000"/>
   <line x1="801.720276" y1="1095.166992" x2="754.080688" y2="1095.166992" style="stroke: green; stroke-width: 0.200000"/>
   <line x1="801.720276" y1="1094.166992" x2="754.237427" y2="1094.166992" style="stroke: green; stroke-width: 0.200000"/>
   <line x1="801.720276" y1="1093.166992" x2="754.394165" y2="1093.166992" style="stroke: green; stroke-width: 0.200000"/>
   <line x1="801.720276" y1="1092.166992" x2="754.550903" y2="1092.166992" style="stroke: green; stroke-width: 0.200000"/>
   <line x1="801.720276" y1="1091.166992" x2="754.707642" y2="1091.166992" style="stroke: green; stroke-width: 0.200000"/>
   <line x1="801.720276" y1="1090.166992" x2="754.905518" y2="1090.166992" style="stroke: green; stroke-width: 0.200000"/>
   <line x1="801.720276" y1="1089.166992" x2="755.201965" y2="1089.166992" style="stroke: green; stroke-width: 0.200000"/>
   <line x1="801.720276" y1="1088.166992" x2="755.498169" y2="1088.166992" style="stroke: green; stroke-width: 0.200000"/>
   <line x1="801.720276" y1="1087.166992" x2="755.794617" y2="1087.166992" style="stroke: green; stroke-width: 0.200000"/>
   <line x1="801.720276" y1="1086.166992" x2="755.975708" y2="1086.166992" style="stroke: green; stroke-width: 0.200000"/>
   <line x1="801.720276" y1="1085.166992" x2="756.139526" y2="1085.166992" style="stroke: green; stroke-width: 0.200000"/>
   <line x1="801.720276" y1="1084.166992" x2="756.303406" y2="1084.166992" style="stroke: green; stroke-width: 0.200000"/>
   <line x1="801.720276" y1="1083.166992" x2="756.467224" y2="1083.166992" style="stroke: green; stroke-width: 0.200000"/>
   <line x1="801.720276" y1="1082.166992" x2="756.631104" y2="1082.166992" style="stroke: green; stroke-width: 0.200000"/>
   <line x1="801.720276" y1="1081.166992" x2="756.794922" y2="1081.166992" style="stroke: green; stroke-width: 0.200000"/>
   <line x1="801.720276" y1="1080.166992" x2="757.098450" y2="1080.166992" style="stroke: green; stroke-width: 0.200000"/>
   <line x1="801.720276" y1="1079.166992" x2="757.421143" y2="1079.166992" style="stroke: green; stroke-width: 0.200000"/>
   <line x1="801.720276" y1="1078.166992" x2="757.743835" y2="1078.166992" style="stroke: green; stroke-width: 0.200000"/>
   <line x1="851.820312" y1="1127.166992" x2="801.820312" y2="1127.166992" style="stroke: green; stroke-width: 0.200000"/>
   <line x1="851.820312" y1="1126.166992" x2="801.820312" y2="1126.166992" style="stroke: green; stroke-width: 0.200000"/>
   <line x1="851.820312" y1="1125.166992" x2="801.820312" y2="1125.166992" style="stroke: green; stroke-width: 0.200000"/>
   <line x1="851.820312" y1="1124.166992" x2="801.820312" y2="1124.166992" style="stroke: green; stroke-width: 0.200000"/>
   <line x1="851.820312" y1="1123.166992" x2="801.820312" y2="1123.166992" style="stroke: green; stroke-width: 0.200000"/>
   <line x1="851.820312" y1="1122.166992" x2="801.820312" y2="1122.166992" style="stroke: green; stroke-width: 0.200000"/>
   <line x1="851.820312" y1="1121.166992" x2="801.820312" y2="1121.166992" style="stroke: green; stroke-width: 0.200000"/>
   <line x1="851.820312" y1="1120.166992" x2="801.820312" y2="1120.166992" style="stroke: green; stroke-width: 0.200000"/>
   <line x1="851.820312" y1="1119.166992" x2="801.820312" y2="1119.166992" style="stroke: green; stroke-width: 0.200000"/>
   <line x1="851.820312" y1="1118.166992" x2="801.820312" y2="1118.166992" style="stroke: green; stroke-width: 0.200000"/>
   <line x1="851.820312" y1="1117.166992" x2="801.820312" y2="1117.166992" style="stroke: green; stroke-width: 0.200000"/>
   <line x1="851.820312" y1="1116.166992" x2="801.820312" y2="1116.166992" style="stroke: green; stroke-width: 0.200000"/>
   <line x1="851.820312" y1="1115.166992" x2="801.820312" y2="1115.166992" style="stroke: green; stroke-width: 0.200000"/>
   <line x1="851.820312" y1="1114.166992" x2="801.820312" y2="1114.166992" style="stroke: green; stroke-width: 0.200000"/>
   <line x1="851.820312" y1="1113.166992" x2="801.820312" y2="1113.166992" style="stroke: green; stroke-width: 0.200000"/>
   <line x1="851.820312" y1="1112.166992" x2="801.820312" y2="1112.166992" style="stroke: green; stroke-width: 0.200000"/>
   <line x1="851.820312" y1="1111.166992" x2="801.820312" y2="1111.166992" style="stroke: green; stroke-width: 0.200000"/>
   <line x1="851.820312" y1="1110.166992" x2="801.820312" y2="1110.166992" style="stroke: green; stroke-width: 0.200000"/>
   <line x1="851.820312" y1="1109.166992" x2="801.820312" y2="1109.166992" style="stroke: green; stroke-width: 0.200000"/>
   <line x1="851.820312" y1="1108.166992" x2="801.820312" y2="1108.166992" style="stroke: green; stroke-width: 0.200000"/>
   <line x1="851.820312" y1="1107.166992" x2="801.820312" y2="1107.166992" style="stroke: green; stroke-width: 0.200000"/>
   <line x1="851.820312" y1="1106.166992" x2="801.820312" y2="1106.166992" style="stroke: green; stroke-width: 0.200000"/>
   <line x1="851.820312" y1="1105.166992" x2="801.820312" y2="1105.166992" style="stroke: green; stroke-width: 0.200000"/>
   <line x1="851.820312" y1="1104.166992" x2="801.820312" y2="1104.166992" style="stroke: green; stroke-width: 0.200000"/>
   <line x1="851.820312" y1="1103.166992" x2="801.820312" y2="1103.166992" style="stroke: green; stroke-width: 0.200000"/>
   <line x1="851.820312" y1="1102.166992" x2="801.820312" y2="1102.166992" style="stroke: green; stroke-width: 0.200000"/>
   <line x1="851.820312" y1="1101.166992" x2="801.820312" y2="1101.166992" style="stroke: green; stroke-width: 0.200000"/>
   <line x1="851.820312" y1="1100.166992" x2="801.820312" y2="1100.166992" style="stroke: green; stroke-width: 0.200000"/>
   <line x1="851.820312" y1="1099.166992" x2="801.820312" y2="1099.166992" style="stroke: green; stroke-width: 0.200000"/>
   <line x1="851.820312" y1="1098.166992" x2="801.820312" y2="1098.166992" style="stroke: green; stroke-width: 0.200000"/>
   <line x1="851.820312" y1="1097.166992" x2="801.820312" y2="1097.166992" style="stroke: green; stroke-width: 0.200000"/>
   <line x1="851.820312" y1="1096.166992" x2="801.820312" y2="1096.166992" style="stroke: green; stroke-width: 0.200000"/>
   <line x1="851.820312" y1="1095.166992" x2="801.820312" y2="1095.166992" style="stroke: green; stroke-width: 0.200000"/>
   <line x1="851.820312" y1="1094.166992" x2="801.820312" y2="1094.166992" style="stroke: green; stroke-width: 0.200000"/>
   <line x1="851.820312" y1="1093.166992" x2="801.820312" y2="1093.166992" style="stroke: green; stroke-width: 0.200000"/>
   <line x1="851.820312" y1="1092.166992" x2="801.820312" y2="1092.166992" style="stroke: green; stroke-width: 0.200000"/>
   <line x1="851.820312" y1="1091.166992" x2="801.820312" y2="1091.166992" style="stroke: green; stroke-width: 0.200000"/>
   <line x1="851.820312" y1="1090.166992" x2="801.820312" y2="1090.166992" style="stroke: green; stroke-width: 0.200000"/>
   <line x1="851.820312" y1="1089.166992" x2="801.820312" y2="1089.166992" style="stroke: green; stroke-width: 0.200000"/>
   <line x1="851.820312" y1="1088.166992" x2="801.820312" y2="1088.166992" style="stroke: green; stroke-width: 0.200000"/>
   <line x1="851.820312" y1="1087.166992" x2="801.820312" y2="1087.166992" style="stroke: green; stroke-width: 0.200000"/>
   <line x1="851.820312" y1="1086.166992" x2="801.820312" y2="1086.166992" style="stroke: green; stroke-width: 0.200000"/>
   <line x1="851.820312" y1="1085.166992" x2="801.820312" y2="1085.166992" style="stroke: green; stroke-width: 0.200000"/>
   <line x1="851.820312" y1="1084.166992" x2="801.820312" y2="1084.166992" style="stroke: green; stroke-width: 0.200000"/>
   <line x1="851.820312" y1="1083.166992" x2="801.820312" y2="1083.166992" style="stroke: green; stroke-width: 0.200000"/>
   <line x1="851.820312" y1="1082.166992" x2="801.820312" y2="1082.166992" style="stroke: green; stroke-width: 0.200000"/>
   <line x1="851.820312" y1="1081.166992" x2="801.820312" y2="1081.166992" style="stroke: green; stroke-width: 0.200000"/>
   <line x1="851.820312" y1="1080.166992" x2="801.820312" y2="1080.166992" style="stroke: green; stroke-width: 0.200000"/>
   <line x1="851.820312" y1="1079.166992" x2="801.820312" y2="1079.166992" style="stroke: green; stroke-width: 0.200000"/>
   <line x1="851.820312" y1="1078.166992" x2="801.820312" y2="1078.166992" style="stroke: green; stroke-width: 0.200000"/>
   <line x1="884.841553" y1="1127.166992" x2="851.920227" y2="1127.166992" style="stroke: green; stroke-width: 0.200000"/>
   <line x1="884.589966" y1="1126.166992" x2="851.920227" y2="1126.166992" style="stroke: green; stroke-width: 0.200000"/>
   <line x1="884.338440" y1="1125.166992" x2="851.920227" y2="1125.166992" style="stroke: green; stroke-width: 0.200000"/>
   <line x1="884.086975" y1="1124.166992" x2="851.920227" y2="1124.166992" style="stroke: green; stroke-width: 0.200000"/>
   <line x1="883.835449" y1="1123.166992" x2="851.920227" y2="1123.166992" style="stroke: green; stroke-width: 0.200000"/>
   <line x1="883.583923" y1="1122.166992" x2="851.920227" y2="1122.166992" style="stroke: green; stroke-width: 0.200000"/>
   <line x1="883.332458" y1="1121.166992" x2="851.920227" y2="1121.166992" style="stroke: green; stroke-width: 0.200000"/>
   <line x1="883.080933" y1="1120.166992" x2="851.920227" y2="1120.166992" style="stroke: green; stroke-width: 0.200000"/>
   <line x1="882.815063" y1="1119.166992" x2="851.920227" y2="1119.166992" style="stroke: green; stroke-width: 0.200000"/>
   <line x1="882.514099" y1="1118.166992" x2="851.920227" y2="1118.166992" style="stroke: green; stroke-width: 0.200000"/>
   <line x1="882.213135" y1="1117.166992" x2="851.920227" y2="1117.166992" style="stroke: green; stroke-width: 0.200000"/>
   <line x1="881.927551" y1="1116.166992" x2="851.920227" y2="1116.166992" style="stroke: green; stroke-width: 0.200000"/>
   <line x1="881.680359" y1="1115.166992" x2="851.920227" y2="1115.166992" style="stroke: green; stroke-width: 0.200000"/>
   <line x1="881.433105" y1="1114.166992" x2="851.920227" y2="1114.166992" style="stroke: green; stroke-width: 0.200000"/>
   <line x1="881.185913" y1="1113.166992" x2="851.920227" y2="1113.166992" style="stroke: green; stroke-width: 0.200000"/>
   <line x1="880.938721" y1="1112.166992" x2="851.920227" y2="1112.166992" style="stroke: green; stroke-width: 0.200000"/>
   <line x1="880.691467" y1="1111.166992" x2="851.920227" y2="1111.166992" style="stroke: green; stroke-width: 0.200000"/>
   <line x1="880.444275" y1="1110.166992" x2="851.920227" y2="1110.166992" style="stroke: green; stroke-width: 0.200000"/>
   <line x1="880.152283" y1="1109.166992" x2="851.920227" y2="1109.166992" style="stroke: green; stroke-width: 0.200000"/>
   <line x1="879.847351" y1="1108.166992" x2="851.920227" y2="1108.166992" style="stroke: green; stroke-width: 0.200000"/>
   <line x1="879.542480" y1="1107.166992" x2="851.920227" y2="1107.166992" style="stroke: green; stroke-width: 0.200000"/>
   <line x1="879.237610" y1="1106.166992" x2="851.920227" y2="1106.166992" style="stroke: green; stroke-width: 0.200000"/>
   <line x1="878.932739" y1="1105.166992" x2="851.920227" y2="1105.166992" style="stroke: green; stroke-width: 0.200000"/>
   <line x1="878.627869" y1="1104.166992" x2="851.920227" y2="1104.166992" style="stroke: green; stroke-width: 0.200000"/>
   <line x1="878.322876" y1="1103.166992" x2="851.920227" y2="1103.166992" style="stroke: green; stroke-width: 0.200000"/>
   <line x1="878.068909" y1="1102.166992" x2="851.920227" y2="1102.166992" style="stroke: green; stroke-width: 0.200000"/>
   <line x1="877.842163" y1="1101.166992" x2="851.920227" y2="1101.166992" style="stroke: green; stroke-width: 0.200000"/>
   <line x1="877.553223" y1="1100.166992" x2="851.920227" y2="1100.166992" style="stroke: green; stroke-width: 0.200000"/>
   <line x1="877.254150" y1="1099.166992" x2="851.920227" y2="1099.166992" style="stroke: green; stroke-width: 0.200000"/>
   <line x1="876.966309" y1="1098.166992" x2="851.920227" y2="1098.166992" style="stroke: green; stroke-width: 0.200000"/>
   <line x1="876.701599" y1="1097.166992" x2="851.920227" y2="1097.166992" style="stroke: green; stroke-width: 0.200000"/>
   <line x1="876.436829" y1="1096.166992" x2="851.920227" y2="1096.166992" style="stroke: green; stroke-width: 0.200000"/>
   <line x1="876.172119" y1="1095.166992" x2="851.920227" y2="1095.166992" style="stroke: green; stroke-width: 0.200000"/>
   <line x1="875.907471" y1="1094.166992" x2="851.920227" y2="1094.166992" style="stroke: green; stroke-width: 0.200000"/>
   <line x1="875.642700" y1="1093.166992" x2="851.920227" y2="1093.166992" style="stroke: green; stroke-width: 0.200000"/>
   <line x1="875.249146" y1="1092.166992" x2="851.920227" y2="1092.166992" style="stroke: green; stroke-width: 0.200000"/>
   <line x1="874.825134" y1="1091.166992" x2="851.920227" y2="1091.166992" style="stroke: green; stroke-width: 0.200000"/>
   <line x1="874.401184" y1="1090.166992" x2="851.920227" y2="1090.166992" style="stroke: green; stroke-width: 0.200000"/>
   <line x1="873.977173" y1="1089.166992" x2="851.920227" y2="1089.166992" style="stroke: green; stroke-width: 0.200000"/>
   <line x1="873.554138" y1="1088.166992" x2="851.920227" y2="1088.166992" style="stroke: green; stroke-width: 0.200000"/>
   <line x1="873.249451" y1="1087.166992" x2="851.920227" y2="1087.166992" style="stroke: green; stroke-width: 0.200000"/>
   <line x1="872.944702" y1="1086.166992" x2="851.920227" y2="1086.166992" style="stroke: green; stroke-width: 0.200000"/>
   <line x1="872.640015" y1="1085.166992" x2="851.920227" y2="1085.166992" style="stroke: green; stroke-width: 0.200000"/>
   <line x1="872.335266" y1="1084.166992" x2="851.920227" y2="1084.166992" style="stroke: green; stroke-width: 0.200000"/>
   <line x1="871.990601" y1="1083.166992" x2="851.920227" y2="1083.166992" style="stroke: green; stroke-width: 0.200000"/>
   <line x1="871.402039" y1="1082.166992" x2="851.920227" y2="1082.166992" style="stroke: green; stroke-width: 0.200000"/>
   <line x1="870.813477" y1="1081.166992" x2="851.920227" y2="1081.166992" style="stroke: green; stroke-width: 0.200000"/>
   <line x1="870.191589" y1="1080.166992" x2="851.920227" y2="1080.166992" style="stroke: green; stroke-width: 0.200000"/>
   <line x1="869.431641" y1="1079.166992" x2="851.920227" y2="1079.166992" style="stroke: green; stroke-width: 0.200000"/>
   <line x1="868.671631" y1="1078.166992" x2="851.920227" y2="1078.166992" style="stroke: green; stroke-width: 0.200000"/>
   <line x1="801.720276" y1="1177.166992" x2="783.421021" y2="1177.166992" style="stroke: green; stroke-width: 0.200000"/>
   <line x1="801.720276" y1="1176.166992" x2="782.773743" y2="1176.166992" style="stroke: green; stroke-width: 0.200000"/>
   <line x1="801.720276" y1="1175.166992" x2="782.126465" y2="1175.166992" style="stroke: green; stroke-width: 0.200000"/>
   <line x1="801.720276" y1="1174.166992" x2="781.479187" y2="1174.166992" style="stroke: green; stroke-width: 0.200000"/>
   <line x1="801.720276" y1="1173.166992" x2="780.831909" y2="1173.166992" style="stroke: green; stroke-width: 0.200000"/>
   <line x1="801.720276" y1="1172.166992" x2="780.184631" y2="1172.166992" style="stroke: green; stroke-width: 0.200000"/>
   <line x1="801.720276" y1="1171.166992" x2="779.574341" y2="1171.166992" style="stroke: green; stroke-width: 0.200000"/>
   <line x1="801.720276" y1="1170.166992" x2="778.970459" y2="1170.166992" style="stroke: green; stroke-width: 0.200000"/>
   <line x1="801.720276" y1="1169.166992" x2="778.366638" y2="1169.166992" style="stroke: green; stroke-width: 0.200000"/>
   <line x1="801.720276" y1="1168.166992" x2="777.762817" y2="1168.166992" style="stroke: green; stroke-width: 0.200000"/>
   <line x1="801.720276" y1="1167.166992" x2="777.158936" y2="1167.166992" style="stroke: green; stroke-width: 0.200000"/>
   <line x1="801.720276" y1="1166.166992" x2="776.528931" y2="1166.166992" style="stroke: green; stroke-width: 0.200000"/>
   <line x1="801.720276" y1="1165.166992" x2="775.777222" y2="1165.166992" style="stroke: green; stroke-width: 0.200000"/>
   <line x1="801.720276" y1="1164.166992" x2="775.025513" y2="1164.166992" style="stroke: green; stroke-width: 0.200000"/>
   <line x1="801.720276" y1="1163.166992" x2="774.367676" y2="1163.166992" style="stroke: green; stroke-width: 0.200000"/>
   <line x1="801.720276" y1="1162.166992" x2="773.896729" y2="1162.166992" style="stroke: green; stroke-width: 0.200000"/>
   <line x1="801.720276" y1="1161.166992" x2="773.425842" y2="1161.166992" style="stroke: green; stroke-width: 0.200000"/>
   <line x1="801.720276" y1="1160.166992" x2="772.954834" y2="1160.166992" style="stroke: green; stroke-width: 0.200000"/>
   <line x1="801.720276" y1="1159.166992" x2="772.483887" y2="1159.166992" style="stroke: green; stroke-width: 0.200000"/>
   <line x1="801.720276" y1="1158.166992" x2="771.846558" y2="1158.166992" style="stroke: green; stroke-width: 0.200000"/>
   <line x1="801.720276" y1="1157.166992" x2="771.209167" y2="1157.166992" style="stroke: green; stroke-width: 0.200000"/>
   <line x1="801.720276" y1="1156.166992" x2="770.571838" y2="1156.166992" style="stroke: green; stroke-width: 0.200000"/>
   <line x1="801.720276" y1="1155.166992" x2="769.934448" y2="1155.166992" style="stroke: green; stroke-width: 0.200000"/>
   <line x1="801.720276" y1="1154.166992" x2="769.335571" y2="1154.166992" style="stroke: green; stroke-width: 0.200000"/>
   <line x1="801.720276" y1="1153.166992" x2="768.805542" y2="1153.166992" style="stroke: green; stroke-width: 0.200000"/>
   <line x1="801.720276" y1="1152.166992" x2="768.275513" y2="1152.166992" style="stroke: green; stroke-width: 0.200000"/>
   <line x1="801.720276" y1="1151.166992" x2="767.745422" y2="1151.166992" style="stroke: green; stroke-width: 0.200000"/>
   <line x1="801.720276" y1="1150.166992" x2="767.215454" y2="1150.166992" style="stroke: green; stroke-width: 0.200000"/>
   <line x1="801.720276" y1="1149.166992" x2="766.688171" y2="1149.166992" style="stroke: green; stroke-width: 0.200000"/>
   <line x1="801.720276" y1="1148.166992" x2="766.177612" y2="1148.166992" style="stroke: green; stroke-width: 0.200000"/>
   <line x1="801.720276" y1="1147.166992" x2="765.667053" y2="1147.166992" style="stroke: green; stroke-width: 0.200000"/>
   <line x1="801.720276" y1="1146.166992" x2="765.156494" y2="1146.166992" style="stroke: green; stroke-width: 0.200000"/>
   <line x1="801.720276" y1="1145.166992" x2="764.660278" y2="1145.166992" style="stroke: green; stroke-width: 0.200000"/>
   <line x1="801.720276" y1="1144.166992" x2="764.164673" y2="1144.166992" style="stroke: green; stroke-width: 0.200000"/>
   <line x1="801.720276" y1="1143.166992" x2="763.625366" y2="1143.166992" style="stroke: green; stroke-width: 0.200000"/>
   <line x1="801.720276" y1="1142.166992" x2="762.980103" y2="1142.166992" style="stroke: green; stroke-width: 0.200000"/>
   <line x1="801.720276" y1="1141.166992" x2="762.334839" y2="1141.166992" style="stroke: green; stroke-width: 0.200000"/>
   <line x1="801.720276" y1="1140.166992" x2="761.689575" y2="1140.166992" style="stroke: green; stroke-width: 0.200000"/>
   <line x1="801.720276" y1="1139.166992" x2="761.044373" y2="1139.166992" style="stroke: green; stroke-width: 0.200000"/>
   <line x1="801.720276" y1="1138.166992" x2="760.399170" y2="1138.166992" style="stroke: green; stroke-width: 0.200000"/>
   <line x1="801.720276" y1="1137.166992" x2="759.849365" y2="1137.166992" style="stroke: green; stroke-width: 0.200000"/>
   <line x1="801.720276" y1="1136.166992" x2="759.307251" y2="1136.166992" style="stroke: green; stroke-width: 0.200000"/>
   <line x1="801.720276" y1="1135.166992" x2="758.765137" y2="1135.166992" style="stroke: green; stroke-width: 0.200000"/>
   <line x1="801.720276" y1="1134.166992" x2="758.222961" y2="1134.166992" style="stroke: green; stroke-width: 0.200000"/>
   <line x1="801.720276" y1="1133.166992" x2="757.680786" y2="1133.166992" style="stroke: green; stroke-width: 0.200000"/>
   <line x1="801.720276" y1="1132.166992" x2="757.136536" y2="1132.166992" style="stroke: green; stroke-width: 0.200000"/>
   <line x1="801.720276" y1="1131.166992" x2="756.549011" y2="1131.166992" style="stroke: green; stroke-width: 0.200000"/>
   <line x1="801.720276" y1="1130.166992" x2="755.961426" y2="1130.166992" style="stroke: green; stroke-width: 0.200000"/>
   <line x1="801.720276" y1="1129.166992" x2="755.448364" y2="1129.166992" style="stroke: green; stroke-width: 0.200000"/>
   <line x1="801.720276" y1="1128.166992" x2="755.011963" y2="1128.166992" style="stroke: green; stroke-width: 0.200000"/>
   <line x1="851.820312" y1="1177.166992" x2="801.820312" y2="1177.166992" style="stroke: green; stroke-width: 0.200000"/>
   <line x1="851.820312" y1="1176.166992" x2="801.820312" y2="1176.166992" style="stroke: green; stroke-width: 0.200000"/>
   <line x1="851.820312" y1="1175.166992" x2="801.820312" y2="1175.166992" style="stroke: green; stroke-width: 0.200000"/>
   <line x1="851.820312" y1="1174.166992" x2="801.820312" y2="1174.166992" style="stroke: green; stroke-width: 0.200000"/>
   <line x1="851.820312" y1="1173.166992" x2="801.820312" y2="1173.166992" style="stroke: green; stroke-width: 0.200000"/>
   <line x1="851.820312" y1="1172.166992" x2="801.820312" y2="1172.166992" style="stroke: green; stroke-width: 0.200000"/>
   <line x1="851.820312" y1="1171.166992" x2="801.820312" y2="1171.166992" style="stroke: green; stroke-width: 0.200000"/>
   <line x1="851.820312" y1="1170.166992" x2="801.820312" y2="1170.166992" style="stroke: green; stroke-width: 0.200000"/>
   <line x1="851.820312" y1="1169.166992" x2="801.820312" y2="1169.166992" style="stroke: green; stroke-width: 0.200000"/>
   <line x1="851.820312" y1="1168.166992" x2="801.820312" y2="1168.166992" style="stroke: green; stroke-width: 0.200000"/>
   <line x1="851.820312" y1="1167.166992" x2="801.820312" y2="1167.166992" style="stroke: green; stroke-width: 0.200000"/>
   <line x1="851.820312" y1="1166.166992" x2="801.820312" y2="1166.166992" style="stroke: green; stroke-width: 0.200000"/>
   <line x1="851.820312" y1="1165.166992" x2="801.820312" y2="1165.166992" style="stroke: green; stroke-width: 0.200000"/>
   <line x1="851.820312" y1="1164.166992" x2="801.820312" y2="1164.166992" style="stroke: green; stroke-width: 0.200000"/>
   <line x1="851.820312" y1="1163.166992" x2="801.820312" y2="1163.166992" style="stroke: green; stroke-width: 0.200000"/>
   <line x1="851.820312" y1="1162.166992" x2="801.820312" y2="1162.166992" style="stroke: green; stroke-width: 0.200000"/>
   <line x1="851.820312" y1="1161.166992" x2="801.820312" y2="1161.166992" style="stroke: green; stroke-width: 0.200000"/>
   <line x1="851.820312" y1="1160.166992" x2="801.820312" y2="1160.166992" style="stroke: green; stroke-width: 0.200000"/>
   <line x1="851.820312" y1="1159.166992" x2="801.820312" y2="1159.166992" style="stroke: green; stroke-width: 0.200000"/>
   <line x1="851.820312" y1="1158.166992" x2="801.820312" y2="1158.166992" style="stroke: green; stroke-width: 0.200000"/>
   <line x1="851.820312" y1="1157.166992" x2="801.820312" y2="1157.166992" style="stroke: green; stroke-width: 0.200000"/>
   <line x1="851.820312" y1="1156.166992" x2="801.820312" y2="1156.166992" style="stroke: green; stroke-width: 0.200000"/>
   <line x1="851.820312" y1="1155.166992" x2="801.820312" y2="1155.166992" style="stroke: green; stroke-width: 0.200000"/>
   <line x1="851.820312" y1="1154.166992" x2="801.820312" y2="1154.166992" style="stroke: green; stroke-width: 0.200000"/>
   <line x1="851.820312" y1="1153.166992" x2="801.820312" y2="1153.166992" style="stroke: green; stroke-width: 0.200000"/>
   <line x1="851.820312" y1="1152.166992" x2="801.820312" y2="1152.166992" style="stroke: green; stroke-width: 0.200000"/>
   <line x1="851.820312" y1="1151.166992" x2="801.820312" y2="1151.166992" style="stroke: green; stroke-width: 0.200000"/>
   <line x1="851.820312" y1="1150.166992" x2="801.820312" y2="1150.166992" style="stroke: green; stroke-width: 0.200000"/>
   <line x1="851.820312" y1="1149.166992" x2="801.820312" y2="1149.166992" style="stroke: green; stroke-width: 0.200000"/>
   <line x1="851.820312" y1="1148.166992" x2="801.820312" y2="1148.166992" style="stroke: green; stroke-width: 0.200000"/>
   <line x1="851.820312" y1="1147.166992" x2="801.820312" y2="1147.166992" style="stroke: green; stroke-width: 0.200000"/>
   <line x1="851.820312" y1="1146.166992" x2="801.820312" y2="1146.166992" style="stroke: green; stroke-width: 0.200000"/>
   <line x1="851.820312" y1="1145.166992" x2="801.820312" y2="1145.166992" style="stroke: green; stroke-width: 0.200000"/>
   <line x1="851.820312" y1="1144.166992" x2="801.820312" y2="1144.166992" style="stroke: green; stroke-width: 0.200000"/>
   <line x1="851.820312" y1="1143.166992" x2="801.820312" y2="1143.166992" style="stroke: green; stroke-width: 0.200000"/>
   <line x1="851.820312" y1="1142.166992" x2="801.820312" y2="1142.166992" style="stroke: green; stroke-width: 0.200000"/>
   <line x1="851.820312" y1="1141.166992" x2="801.820312" y2="1141.166992" style="stroke: green; stroke-width: 0.200000"/>
   <line x1="851.820312" y1="1140.166992" x2="801.820312" y2="1140.166992" style="stroke: green; stroke-width: 0.200000"/>
   <line x1="851.820312" y1="1139.166992" x2="801.820312" y2="1139.166992" style="stroke: green; stroke-width: 0.200000"/>
   <line x1="851.820312" y1="1138.166992" x2="801.820312" y2="1138.166992" style="stroke: green; stroke-width: 0.200000"/>
   <line x1="851.820312" y1="1137.166992" x2="801.820312" y2="1137.166992" style="stroke: green; stroke-width: 0.200000"/>
   <line x1="851.820312" y1="1136.166992" x2="801.820312" y2="1136.166992" style="stroke: green; stroke-width: 0.200000"/>
   <line x1="851.820312" y1="1135.166992" x2="801.820312" y2="1135.166992" style="stroke: green; stroke-width: 0.200000"/>
   <line x1="851.820312" y1="1134.166992" x2="801.820312" y2="1134.166992" style="stroke: green; stroke-width: 0.200000"/>
   <line x1="851.820312" y1="1133.166992" x2="801.820312" y2="1133.166992" style="stroke: green; stroke-width: 0.200000"/>
   <line x1="851.820312" y1="1132.166992" x2="801.820312" y2="1132.166992" style="stroke: green; stroke-width: 0.200000"/>
   <line x1="851.820312" y1="1131.166992" x2="801.820312" y2="1131.166992" style="stroke: green; stroke-width: 0.200000"/>
   <line x1="851.820312" y1="1130.166992" x2="801.820312" y2="1130.166992" style="stroke: green; stroke-width: 0.200000"/>
   <line x1="851.820312" y1="1129.166992" x2="801.820312" y2="1129.166992" style="stroke: green; stroke-width: 0.200000"/>
   <line x1="851.820312" y1="1128.166992" x2="801.820312" y2="1128.166992" style="stroke: green; stroke-width: 0.200000"/>
   <line x1="881.641541" y1="1177.166992" x2="851.920227" y2="1177.166992" style="stroke: green; stroke-width: 0.200000"/>
   <line x1="882.934204" y1="1176.166992" x2="851.920227" y2="1176.166992" style="stroke: green; stroke-width: 0.200000"/>
   <line x1="884.226685" y1="1175.166992" x2="851.920227" y2="1175.166992" style="stroke: green; stroke-width: 0.200000"/>
   <line x1="884.916687" y1="1174.166992" x2="851.920227" y2="1174.166992" style="stroke: green; stroke-width: 0.200000"/>
   <line x1="885.444885" y1="1173.166992" x2="851.920227" y2="1173.166992" style="stroke: green; stroke-width: 0.200000"/>
   <line x1="885.973022" y1="1172.166992" x2="851.920227" y2="1172.166992" style="stroke: green; stroke-width: 0.200000"/>
   <line x1="886.501221" y1="1171.166992" x2="851.920227" y2="1171.166992" style="stroke: green; stroke-width: 0.200000"/>
   <line x1="887.029419" y1="1170.166992" x2="851.920227" y2="1170.166992" style="stroke: green; stroke-width: 0.200000"/>
   <line x1="887.557617" y1="1169.166992" x2="851.920227" y2="1169.166992" style="stroke: green; stroke-width: 0.200000"/>
   <line x1="888.091492" y1="1168.166992" x2="851.920227" y2="1168.166992" style="stroke: green; stroke-width: 0.200000"/>
   <line x1="888.660645" y1="1167.166992" x2="851.920227" y2="1167.166992" style="stroke: green; stroke-width: 0.200000"/>
   <line x1="888.927612" y1="1166.166992" x2="851.920227" y2="1166.166992" style="stroke: green; stroke-width: 0.200000"/>
   <line x1="889.041687" y1="1165.166992" x2="851.920227" y2="1165.166992" style="stroke: green; stroke-width: 0.200000"/>
   <line x1="889.155762" y1="1164.166992" x2="851.920227" y2="1164.166992" style="stroke: green; stroke-width: 0.200000"/>
   <line x1="889.278870" y1="1163.166992" x2="851.920227" y2="1163.166992" style="stroke: green; stroke-width: 0.200000"/>
   <line x1="889.656677" y1="1162.166992" x2="851.920227" y2="1162.166992" style="stroke: green; stroke-width: 0.200000"/>
   <line x1="890.034485" y1="1161.166992" x2="851.920227" y2="1161.166992" style="stroke: green; stroke-width: 0.200000"/>
   <line x1="890.412231" y1="1160.166992" x2="851.920227" y2="1160.166992" style="stroke: green; stroke-width: 0.200000"/>
   <line x1="890.790100" y1="1159.166992" x2="851.920227" y2="1159.166992" style="stroke: green; stroke-width: 0.200000"/>
   <line x1="891.167908" y1="1158.166992" x2="851.920227" y2="1158.166992" style="stroke: green; stroke-width: 0.200000"/>
   <line x1="891.545715" y1="1157.166992" x2="851.920227" y2="1157.166992" style="stroke: green; stroke-width: 0.200000"/>
   <line x1="891.476501" y1="1156.166992" x2="851.920227" y2="1156.166992" style="stroke: green; stroke-width: 0.200000"/>
   <line x1="891.322998" y1="1155.166992" x2="851.920227" y2="1155.166992" style="stroke: green; stroke-width: 0.200000"/>
   <line x1="891.169556" y1="1154.166992" x2="851.920227" y2="1154.166992" style="stroke: green; stroke-width: 0.200000"/>
   <line x1="891.016113" y1="1153.166992" x2="851.920227" y2="1153.166992" style="stroke: green; stroke-width: 0.200000"/>
   <line x1="890.862671" y1="1152.166992" x2="851.920227" y2="1152.166992" style="stroke: green; stroke-width: 0.200000"/>
   <line x1="890.711792" y1="1151.166992" x2="851.920227" y2="1151.166992" style="stroke: green; stroke-width: 0.200000"/>
   <line x1="890.911865" y1="1150.166992" x2="851.920227" y2="1150.166992" style="stroke: green; stroke-width: 0.200000"/>
   <line x1="891.111938" y1="1149.166992" x2="851.920227" y2="1149.166992" style="stroke: green; stroke-width: 0.200000"/>
   <line x1="891.311951" y1="1148.166992" x2="851.920227" y2="1148.166992" style="stroke: green; stroke-width: 0.200000"/>
   <line x1="890.974426" y1="1147.166992" x2="851.920227" y2="1147.166992" style="stroke: green; stroke-width: 0.200000"/>
   <line x1="890.609375" y1="1146.166992" x2="851.920227" y2="1146.166992" style="stroke: green; stroke-width: 0.200000"/>
   <line x1="890.244263" y1="1145.166992" x2="851.920227" y2="1145.166992" style="stroke: green; stroke-width: 0.200000"/>
   <line x1="889.879211" y1="1144.166992" x2="851.920227" y2="1144.166992" style="stroke: green; stroke-width: 0.200000"/>
   <line x1="889.514160" y1="1143.166992" x2="851.920227" y2="1143.166992" style="stroke: green; stroke-width: 0.200000"/>
   <line x1="889.149109" y1="1142.166992" x2="851.920227" y2="1142.166992" style="stroke: green; stroke-width: 0.200000"/>
   <line x1="888.784119" y1="1141.166992" x2="851.920227" y2="1141.166992" style="stroke: green; stroke-width: 0.200000"/>
   <line x1="888.419067" y1="1140.166992" x2="851.920227" y2="1140.166992" style="stroke: green; stroke-width: 0.200000"/>
   <line x1="888.208618" y1="1139.166992" x2="851.920227" y2="1139.166992" style="stroke: green; stroke-width: 0.200000"/>
   <line x1="888.015198" y1="1138.166992" x2="851.920227" y2="1138.166992" style="stroke: green; stroke-width: 0.200000"/>
   <line x1="887.753967" y1="1137.166992" x2="851.920227" y2="1137.166992" style="stroke: green; stroke-width: 0.200000"/>
   <line x1="887.442139" y1="1136.166992" x2="851.920227" y2="1136.166992" style="stroke: green; stroke-width: 0.200000"/>
   <line x1="887.130371" y1="1135.166992" x2="851.920227" y2="1135.166992" style="stroke: green; stroke-width: 0.200000"/>
   <line x1="886.818481" y1="1134.166992" x2="851.920227" y2="1134.166992" style="stroke: green; stroke-width: 0.200000"/>
   <line x1="886.506653" y1="1133.166992" x2="851.920227" y2="1133.166992" style="stroke: green; stroke-width: 0.200000"/>
   <line x1="886.194763" y1="1132.166992" x2="851.920227" y2="1132.166992" style="stroke: green; stroke-width: 0.200000"/>
   <line x1="885.882874" y1="1131.166992" x2="851.920227" y2="1131.166992" style="stroke: green; stroke-width: 0.200000"/>
   <line x1="885.596069" y1="1130.166992" x2="851.920227" y2="1130.166992" style="stroke: green; stroke-width: 0.200000"/>
   <line x1="885.344543" y1="1129.166992" x2="851.920227" y2="1129.166992" style="stroke: green; stroke-width: 0.200000"/>
   <line x1="885.093079" y1="1128.166992" x2="851.920227" y2="1128.166992" style="stroke: green; stroke-width: 0.200000"/>
   <line x1="801.272644" y1="1194.166992" x2="800.671997" y2="1194.166992" style="stroke: green; stroke-width: 0.200000"/>
   <line x1="800.989075" y1="1193.166992" x2="798.950928" y2="1193.166992" style="stroke: green; stroke-width: 0.200000"/>
   <line x1="800.705444" y1="1192.166992" x2="797.646851" y2="1192.166992" style="stroke: green; stroke-width: 0.200000"/>
   <line x1="800.421814" y1="1191.166992" x2="796.342834" y2="1191.166992" style="stroke: green; stroke-width: 0.200000"/>
   <line x1="800.138184" y1="1190.166992" x2="795.027832" y2="1190.166992" style="stroke: green; stroke-width: 0.200000"/>
   <line x1="799.854614" y1="1189.166992" x2="793.707581" y2="1189.166992" style="stroke: green; stroke-width: 0.200000"/>
   <line x1="799.570923" y1="1188.166992" x2="792.387329" y2="1188.166992" style="stroke: green; stroke-width: 0.200000"/>
   <line x1="801.720276" y1="1188.166992" x2="800.143799" y2="1188.166992" style="stroke: green; stroke-width: 0.200000"/>
   <line x1="801.720276" y1="1187.166992" x2="791.261292" y2="1187.166992" style="stroke: green; stroke-width: 0.200000"/>
   <line x1="801.720276" y1="1186.166992" x2="790.413086" y2="1186.166992" style="stroke: green; stroke-width: 0.200000"/>
   <line x1="801.720276" y1="1185.166992" x2="789.571533" y2="1185.166992" style="stroke: green; stroke-width: 0.200000"/>
   <line x1="801.720276" y1="1184.166992" x2="788.730103" y2="1184.166992" style="stroke: green; stroke-width: 0.200000"/>
   <line x1="801.720276" y1="1183.166992" x2="787.888550" y2="1183.166992" style="stroke: green; stroke-width: 0.200000"/>
   <line x1="801.720276" y1="1182.166992" x2="787.047119" y2="1182.166992" style="stroke: green; stroke-width: 0.200000"/>
   <line x1="801.720276" y1="1181.166992" x2="786.205566" y2="1181.166992" style="stroke: green; stroke-width: 0.200000"/>
   <line x1="801.720276" y1="1180.166992" x2="785.451782" y2="1180.166992" style="stroke: green; stroke-width: 0.200000"/>
   <line x1="801.720276" y1="1179.166992" x2="784.761292" y2="1179.166992" style="stroke: green; stroke-width: 0.200000"/>
   <line x1="801.720276" y1="1178.166992" x2="784.070801" y2="1178.166992" style="stroke: green; stroke-width: 0.200000"/>
   <line x1="828.288086" y1="1207.166992" x2="827.041260" y2="1207.166992" style="stroke: green; stroke-width: 0.200000"/>
   <line x1="828.886108" y1="1206.166992" x2="826.695312" y2="1206.166992" style="stroke: green; stroke-width: 0.200000"/>
   <line x1="829.688782" y1="1205.166992" x2="826.349548" y2="1205.166992" style="stroke: green; stroke-width: 0.200000"/>
   <line x1="830.979858" y1="1204.166992" x2="826.003662" y2="1204.166992" style="stroke: green; stroke-width: 0.200000"/>
   <line x1="832.271057" y1="1203.166992" x2="825.657959" y2="1203.166992" style="stroke: green; stroke-width: 0.200000"/>
   <line x1="833.562378" y1="1202.166992" x2="825.312012" y2="1202.166992" style="stroke: green; stroke-width: 0.200000"/>
   <line x1="834.853516" y1="1201.166992" x2="824.966125" y2="1201.166992" style="stroke: green; stroke-width: 0.200000"/>
   <line x1="836.144714" y1="1200.166992" x2="823.954468" y2="1200.166992" style="stroke: green; stroke-width: 0.200000"/>
   <line x1="837.435913" y1="1199.166992" x2="821.970215" y2="1199.166992" style="stroke: green; stroke-width: 0.200000"/>
   <line x1="846.424927" y1="1199.166992" x2="844.410095" y2="1199.166992" style="stroke: green; stroke-width: 0.200000"/>
   <line x1="847.345459" y1="1198.166992" x2="842.997742" y2="1198.166992" style="stroke: green; stroke-width: 0.200000"/>
   <line x1="838.727112" y1="1198.166992" x2="819.985962" y2="1198.166992" style="stroke: green; stroke-width: 0.200000"/>
   <line x1="840.018311" y1="1197.166992" x2="818.001770" y2="1197.166992" style="stroke: green; stroke-width: 0.200000"/>
   <line x1="848.369385" y1="1197.166992" x2="841.585388" y2="1197.166992" style="stroke: green; stroke-width: 0.200000"/>
   <line x1="849.966736" y1="1196.166992" x2="816.017517" y2="1196.166992" style="stroke: green; stroke-width: 0.200000"/>
   <line x1="850.968628" y1="1195.166992" x2="814.033264" y2="1195.166992" style="stroke: green; stroke-width: 0.200000"/>
   <line x1="851.820312" y1="1194.166992" x2="812.049011" y2="1194.166992" style="stroke: green; stroke-width: 0.200000"/>
   <line x1="851.820312" y1="1193.166992" x2="810.064819" y2="1193.166992" style="stroke: green; stroke-width: 0.200000"/>
   <line x1="851.820312" y1="1192.166992" x2="808.080566" y2="1192.166992" style="stroke: green; stroke-width: 0.200000"/>
   <line x1="851.820312" y1="1191.166992" x2="806.096313" y2="1191.166992" style="stroke: green; stroke-width: 0.200000"/>
   <line x1="851.820312" y1="1190.166992" x2="804.112061" y2="1190.166992" style="stroke: green; stroke-width: 0.200000"/>
   <line x1="851.820312" y1="1189.166992" x2="802.127808" y2="1189.166992" style="stroke: green; stroke-width: 0.200000"/>
   <line x1="851.820312" y1="1188.166992" x2="801.820312" y2="1188.166992" style="stroke: green; stroke-width: 0.200000"/>
   <line x1="851.820312" y1="1187.166992" x2="801.820312" y2="1187.166992" style="stroke: green; stroke-width: 0.200000"/>
   <line x1="851.820312" y1="1186.166992" x2="801.820312" y2="1186.166992" style="stroke: green; stroke-width: 0.200000"/>
   <line x1="851.820312" y1="1185.166992" x2="801.820312" y2="1185.166992" style="stroke: green; stroke-width: 0.200000"/>
   <line x1="851.820312" y1="1184.166992" x2="801.820312" y2="1184.166992" style="stroke: green; stroke-width: 0.200000"/>
   <line x1="851.820312" y1="1183.166992" x2="801.820312" y2="1183.166992" style="stroke: green; stroke-width: 0.200000"/>
   <line x1="851.820312" y1="1182.166992" x2="801.820312" y2="1182.166992" style="stroke: green; stroke-width: 0.200000"/>
   <line x1="851.820312" y1="1181.166992" x2="801.820312" y2="1181.166992" style="stroke: green; stroke-width: 0.200000"/>
   <line x1="851.820312" y1="1180.166992" x2="801.820312" y2="1180.166992" style="stroke: green; stroke-width: 0.200000"/>
   <line x1="851.820312" y1="1179.166992" x2="801.820312" y2="1179.166992" style="stroke: green; stroke-width: 0.200000"/>
   <line x1="851.820312" y1="1178.166992" x2="801.820312" y2="1178.166992" style="stroke: green; stroke-width: 0.200000"/>
   <line x1="851.970459" y1="1194.166992" x2="851.920227" y2="1194.166992" style="stroke: green; stroke-width: 0.200000"/>
   <line x1="852.972290" y1="1193.166992" x2="851.920227" y2="1193.166992" style="stroke: green; stroke-width: 0.200000"/>
   <line x1="853.974060" y1="1192.166992" x2="851.920227" y2="1192.166992" style="stroke: green; stroke-width: 0.200000"/>
   <line x1="854.998047" y1="1191.166992" x2="851.920227" y2="1191.166992" style="stroke: green; stroke-width: 0.200000"/>
   <line x1="856.629578" y1="1190.166992" x2="851.920227" y2="1190.166992" style="stroke: green; stroke-width: 0.200000"/>
   <line x1="858.261047" y1="1189.166992" x2="851.920227" y2="1189.166992" style="stroke: green; stroke-width: 0.200000"/>
   <line x1="859.971619" y1="1188.166992" x2="851.920227" y2="1188.166992" style="stroke: green; stroke-width: 0.200000"/>
   <line x1="861.851807" y1="1187.166992" x2="851.920227" y2="1187.166992" style="stroke: green; stroke-width: 0.200000"/>
   <line x1="863.872742" y1="1186.166992" x2="851.920227" y2="1186.166992" style="stroke: green; stroke-width: 0.200000"/>
   <line x1="866.057007" y1="1185.166992" x2="851.920227" y2="1185.166992" style="stroke: green; stroke-width: 0.200000"/>
   <line x1="868.241089" y1="1184.166992" x2="851.920227" y2="1184.166992" style="stroke: green; stroke-width: 0.200000"/>
   <line x1="870.570312" y1="1183.166992" x2="851.920227" y2="1183.166992" style="stroke: green; stroke-width: 0.200000"/>
   <line x1="872.303589" y1="1182.166992" x2="851.920227" y2="1182.166992" style="stroke: green; stroke-width: 0.200000"/>
   <line x1="874.036560" y1="1181.166992" x2="851.920227" y2="1181.166992" style="stroke: green; stroke-width: 0.200000"/>
   <line x1="875.769531" y1="1180.166992" x2="851.920227" y2="1180.166992" style="stroke: green; stroke-width: 0.200000"/>
   <line x1="877.770325" y1="1179.166992" x2="851.920227" y2="1179.166992" style="stroke: green; stroke-width: 0.200000"/>
   <line x1="880.338135" y1="1178.166992" x2="851.920227" y2="1178.166992" style="stroke: green; stroke-width: 0.200000"/>
   <line x1="827.785400" y1="1222.895508" x2="825.486694" y2="1222.895508" style="stroke: green; stroke-width: 0.200000"/>
   <line x1="829.655518" y1="1221.895508" x2="823.737488" y2="1221.895508" style="stroke: green; stroke-width: 0.200000"/>
   <line x1="831.525635" y1="1220.895508" x2="822.792297" y2="1220.895508" style="stroke: green; stroke-width: 0.200000"/>
   <line x1="833.395752" y1="1219.895508" x2="821.942871" y2="1219.895508" style="stroke: green; stroke-width: 0.200000"/>
   <line x1="834.033508" y1="1218.895508" x2="821.093506" y2="1218.895508" style="stroke: green; stroke-width: 0.200000"/>
   <line x1="834.633057" y1="1217.895508" x2="820.244141" y2="1217.895508" style="stroke: green; stroke-width: 0.200000"/>
   <line x1="835.232544" y1="1216.895508" x2="819.394836" y2="1216.895508" style="stroke: green; stroke-width: 0.200000"/>
   <line x1="835.832031" y1="1215.895508" x2="818.246704" y2="1215.895508" style="stroke: green; stroke-width: 0.200000"/>
   <line x1="836.431580" y1="1214.895508" x2="817.763184" y2="1214.895508" style="stroke: green; stroke-width: 0.200000"/>
   <line x1="837.031128" y1="1213.895508" x2="817.417297" y2="1213.895508" style="stroke: green; stroke-width: 0.200000"/>
   <line x1="837.630615" y1="1212.895508" x2="817.071411" y2="1212.895508" style="stroke: green; stroke-width: 0.200000"/>
   <line x1="838.230103" y1="1211.895508" x2="816.725464" y2="1211.895508" style="stroke: green; stroke-width: 0.200000"/>
   <line x1="839.519104" y1="1210.895508" x2="816.411377" y2="1210.895508" style="stroke: green; stroke-width: 0.200000"/>
   <line x1="840.745972" y1="1209.895508" x2="816.127686" y2="1209.895508" style="stroke: green; stroke-width: 0.200000"/>
   <line x1="841.077881" y1="1208.895508" x2="815.844116" y2="1208.895508" style="stroke: green; stroke-width: 0.200000"/>
   <line x1="827.497620" y1="1207.895508" x2="815.560425" y2="1207.895508" style="stroke: green; stroke-width: 0.200000"/>
   <line x1="841.409668" y1="1207.895508" x2="827.852478" y2="1207.895508" style="stroke: green; stroke-width: 0.200000"/>
   <line x1="826.947266" y1="1206.895508" x2="815.276855" y2="1206.895508" style="stroke: green; stroke-width: 0.200000"/>
   <line x1="841.741577" y1="1206.895508" x2="828.450562" y2="1206.895508" style="stroke: green; stroke-width: 0.200000"/>
   <line x1="826.601440" y1="1205.895508" x2="814.972595" y2="1205.895508" style="stroke: green; stroke-width: 0.200000"/>
   <line x1="842.073364" y1="1205.895508" x2="829.048523" y2="1205.895508" style="stroke: green; stroke-width: 0.200000"/>
   <line x1="826.255493" y1="1204.895508" x2="814.123474" y2="1204.895508" style="stroke: green; stroke-width: 0.200000"/>
   <line x1="842.405273" y1="1204.895508" x2="830.039429" y2="1204.895508" style="stroke: green; stroke-width: 0.200000"/>
   <line x1="825.909668" y1="1203.895508" x2="812.658813" y2="1203.895508" style="stroke: green; stroke-width: 0.200000"/>
   <line x1="843.010559" y1="1203.895508" x2="831.330505" y2="1203.895508" style="stroke: green; stroke-width: 0.200000"/>
   <line x1="843.709045" y1="1202.895508" x2="832.621765" y2="1202.895508" style="stroke: green; stroke-width: 0.200000"/>
   <line x1="825.563965" y1="1202.895508" x2="811.194336" y2="1202.895508" style="stroke: green; stroke-width: 0.200000"/>
   <line x1="825.218018" y1="1201.895508" x2="809.729736" y2="1201.895508" style="stroke: green; stroke-width: 0.200000"/>
   <line x1="844.407410" y1="1201.895508" x2="833.913025" y2="1201.895508" style="stroke: green; stroke-width: 0.200000"/>
   <line x1="845.105896" y1="1200.895508" x2="835.204224" y2="1200.895508" style="stroke: green; stroke-width: 0.200000"/>
   <line x1="824.872070" y1="1200.895508" x2="808.265137" y2="1200.895508" style="stroke: green; stroke-width: 0.200000"/>
   <line x1="823.415527" y1="1199.895508" x2="807.391663" y2="1199.895508" style="stroke: green; stroke-width: 0.200000"/>
   <line x1="845.438782" y1="1199.895508" x2="836.495422" y2="1199.895508" style="stroke: green; stroke-width: 0.200000"/>
   <line x1="844.026489" y1="1198.895508" x2="837.786621" y2="1198.895508" style="stroke: green; stroke-width: 0.200000"/>
   <line x1="821.431335" y1="1198.895508" x2="806.764404" y2="1198.895508" style="stroke: green; stroke-width: 0.200000"/>
   <line x1="842.614136" y1="1197.895508" x2="839.077820" y2="1197.895508" style="stroke: green; stroke-width: 0.200000"/>
   <line x1="819.447083" y1="1197.895508" x2="806.010071" y2="1197.895508" style="stroke: green; stroke-width: 0.200000"/>
   <line x1="841.201782" y1="1196.895508" x2="840.369019" y2="1196.895508" style="stroke: green; stroke-width: 0.200000"/>
   <line x1="817.462830" y1="1196.895508" x2="804.578308" y2="1196.895508" style="stroke: green; stroke-width: 0.200000"/>
   <line x1="815.478577" y1="1195.895508" x2="803.146606" y2="1195.895508" style="stroke: green; stroke-width: 0.200000"/>
   <line x1="813.494385" y1="1194.895508" x2="801.714844" y2="1194.895508" style="stroke: green; stroke-width: 0.200000"/>
   <line x1="811.510132" y1="1193.895508" x2="801.195740" y2="1193.895508" style="stroke: green; stroke-width: 0.200000"/>
   <line x1="809.525879" y1="1192.895508" x2="800.912170" y2="1192.895508" style="stroke: green; stroke-width: 0.200000"/>
   <line x1="807.541626" y1="1191.895508" x2="800.628540" y2="1191.895508" style="stroke: green; stroke-width: 0.200000"/>
   <line x1="805.557373" y1="1190.895508" x2="800.344910" y2="1190.895508" style="stroke: green; stroke-width: 0.200000"/>
   <line x1="803.573120" y1="1189.895508" x2="800.061279" y2="1189.895508" style="stroke: green; stroke-width: 0.200000"/>
   <line x1="801.589111" y1="1188.895508" x2="799.777710" y2="1188.895508" style="stroke: green; stroke-width: 0.200000"/>
   <line x1="799.604858" y1="1187.895508" x2="799.494019" y2="1187.895508" style="stroke: green; stroke-width: 0.200000"/>
   <line x1="801.402893" y1="1194.625610" x2="801.328491" y2="1194.625610" style="stroke: green; stroke-width: 0.200000"/>
   <path d="M 881.092  1179.48  877.598  1180.84  870.911  1184.7  870.43  1184.81  863.526  1187.98  860.118  1189.79  855.875  1192.39  850.782  1197.47  849.095  1198.48  847.134  1200.61  843.844  1205.32  842.878  1208.23  " style="fill: none; stroke: darkmagenta; stroke-width: 0.200000; fill-type: evenodd"  fill-opacity="1.000000" />
   <path d="M 842.878  1208.23  842.003  1210.87  839.373  1212.91  834.736  1220.64  834.669  1220.82  834.18  1221.18  826.573  1225.24  822.578  1222.96  818.291  1217.91  816.766  1216.6  815.125  1211.86  813.709  1206.86  813.657  1206.7  " style="fill: none; stroke: red; stroke-width: 0.200000; fill-type: evenodd"  fill-opacity="1.000000" />
   <path d="M 813.657  1206.7  813.529  1206.31  809.885  1203.82  " style="fill: none; stroke: darkmagenta; stroke-width: 0.200000; fill-type: evenodd"  fill-opacity="1.000000" />
   <path d="M 809.885  1203.82  806.73  1201.66  806.726  1201.66  " style="fill: none; stroke: red; stroke-width: 0.200000; fill-type: evenodd"  fill-opacity="1.000000" />
   <path d="M 806.726  1201.66  805.128  1199.11  799.534  1195.2  798.201  1194.48  795.01  1192.04  790.687  1188.76  790.051  1188.07  784.659  1181.66  782.783  1178.94  778.817  1172.81  775.417  1167.18  773.234  1164.28  771.168  1159.89  768.228  1155.28  765.429  1150  763.798  1146.81  762.508  1144.2  759.06  1138.86  755.857  1132.95  754.325  1130.34  752.953  1127.2  750.337  1121.09  750.219  1110.62  751.813  1100.4  752.122  1097.98  753.352  1090.13  754.368  1086.7  755.353  1080.69  756.937  1075.78  757.907  1072.23  758.521  1069.06  760.588  1063.81  764.461  1055.43  764.731  1055.01  770.148  1047.66  775.231  1042.31  776.672  1040.69  779.268  1038.48  784.836  1034.12  790.025  1030.86  792.283  1029.38  800.041  1026.23  800.597  1026.11  810.138  1026.36  818.427  1028.48  820.023  1029.1  821.075  1029.8  827.944  1034.18  833.03  1038.66  835.464  1040.55  841.079  1046.4  842.989  1047.66  849.461  1054.16  851.585  1056.03  856.499  1061.38  859.39  1065.31  863.764  1069.82  866.803  1073.23  871.587  1079.52  873.456  1082.7  874.968  1087.66  877.015  1092.49  878.497  1098.09  879.262  1100.65  879.667  1102.43  881.835  1109.54  883.445  1116.06  884.348  1119.06  887.145  1130.18  889.389  1137.37  889.833  1139.67  892.875  1148  892.233  1151.21  892.541  1153.22  " style="fill: none; stroke: darkmagenta; stroke-width: 0.200000; fill-type: evenodd"  fill-opacity="1.000000" />
   <path d="M 892.541  1153.22  893.148  1157.17  891.444  1161.68  " style="fill: none; stroke: red; stroke-width: 0.200000; fill-type: evenodd"  fill-opacity="1.000000" />
   <path d="M 891.444  1161.68  890.735  1163.56  890.307  1167.31  889.326  1169.03  885.68  1175.93  " style="fill: none; stroke: darkmagenta; stroke-width: 0.200000; fill-type: evenodd"  fill-opacity="1.000000" />
   <path d="M 885.68  1175.93  885.675  1175.94  881.106  1179.48  881.092  1179.48  " style="fill: none; stroke: red; stroke-width: 0.200000; fill-type: evenodd"  fill-opacity="1.000000" />
   <path d="M 814.888  1207.36  814.666  1206.57  814.376  1205.67  807.466  1200.96  805.867  1198.41  800.059  1194.35  798.746  1193.64  795.616  1191.24  791.363  1188.02  790.802  1187.41  785.455  1181.05  783.615  1178.39  779.665  1172.28  776.247  1166.62  774.095  1163.76  772.045  1159.41  769.093  1154.78  766.317  1149.54  764.691  1146.36  763.379  1143.71  759.921  1138.35  756.728  1132.46  755.217  1129.89  753.871  1126.8  751.335  1120.88  751.22  1110.69  752.803  1100.54  753.112  1098.12  754.329  1090.35  755.345  1086.93  756.327  1080.93  757.895  1076.07  758.881  1072.46  759.485  1069.34  761.508  1064.2  765.34  1055.91  765.556  1055.58  770.916  1048.31  775.968  1042.99  777.374  1041.41  779.901  1039.26  785.412  1034.94  790.564  1031.7  792.749  1030.27  800.335  1027.19  800.689  1027.11  809.999  1027.36  818.122  1029.44  819.561  1029.99  820.529  1030.63  827.341  1034.98  832.392  1039.43  834.793  1041.3  840.434  1047.17  842.352  1048.44  848.775  1054.89  850.884  1056.75  855.726  1062.02  858.625  1065.96  863.031  1070.5  866.031  1073.87  870.755  1080.08  872.534  1083.11  874.027  1088  876.066  1092.81  877.534  1098.36  878.294  1100.9  878.7  1102.69  880.871  1109.81  882.481  1116.32  883.384  1119.32  886.182  1130.45  888.418  1137.62  888.866  1139.93  891.839  1148.08  891.218  1151.19  892.12  1157.06  889.756  1163.32  889.337  1166.99  888.449  1168.55  884.892  1175.28  880.609  1178.6  877.164  1179.94  870.539  1183.76  870.104  1183.86  863.083  1187.08  859.621  1188.92  855.252  1191.6  850.163  1196.68  848.457  1197.7  846.353  1199.98  842.941  1204.87  841.46  1209.33  " style="fill: none; stroke: black; stroke-width: 0.200000; fill-type: evenodd"  fill-opacity="1.000000" />
   <path d="M 841.46  1209.33  841.15  1210.26  838.612  1212.23  833.845  1220.18  833.645  1220.33  826.59  1224.1  823.227  1222.18  819.003  1217.21  817.623  1216.02  816.079  1211.56  814.888  1207.36  " style="fill: none; stroke: red; stroke-width: 0.200000; fill-type: evenodd"  fill-opacity="1.000000" />
   <path d="M 823.099  1348.83  823.831  1349.56  824.099  1350.56  823.831  1351.56  823.099  1352.29  822.099  1352.56  821.099  1352.29  820.367  1351.56  820.099  1350.56  820.367  1349.56  821.099  1348.83  822.099  1348.56  823.099  1348.83  " style="fill: none; stroke: purple; stroke-width: 0.500000; fill-type: evenodd"  fill-opacity="1.000000" />
   <path d="M 843.099  1348.83  843.831  1349.56  844.099  1350.56  843.831  1351.56  843.099  1352.29  842.099  1352.56  841.099  1352.29  840.367  1351.56  840.099  1350.56  840.367  1349.56  841.099  1348.83  842.099  1348.56  843.099  1348.83  " style="fill: none; stroke: purple; stroke-width: 0.500000; fill-type: evenodd"  fill-opacity="1.000000" />
   <path d="M 823.099  1328.83  823.831  1329.56  824.099  1330.56  823.831  1331.56  823.099  1332.29  822.099  1332.56  821.099  1332.29  820.367  1331.56  820.099  1330.56  820.367  1329.56  821.099  1328.83  822.099  1328.56  823.099  1328.83  " style="fill: none; stroke: purple; stroke-width: 0.500000; fill-type: evenodd"  fill-opacity="1.000000" />
   <path d="M 823.099  1308.83  823.831  1309.56  824.099  1310.56  823.831  1311.56  823.099  1312.29  822.099  1312.56  821.099  1312.29  820.367  1311.56  820.099  1310.56  820.367  1309.56  821.099  1308.83  822.099  1308.56  823.099  1308.83  " style="fill: none; stroke: purple; stroke-width: 0.500000; fill-type: evenodd"  fill-opacity="1.000000" />
   <path d="M 803.099  1308.83  803.831  1309.56  804.099  1310.56  803.831  1311.56  803.099  1312.29  802.099  1312.56  801.099  1312.29  800.367  1311.56  800.099  1310.56  800.367  1309.56  801.099  1308.83  802.099  1308.56  803.099  1308.83  " style="fill: none; stroke: purple; stroke-width: 0.500000; fill-type: evenodd"  fill-opacity="1.000000" />
   <path d="M 843.099  1288.83  843.831  1289.56  844.099  1290.56  843.831  1291.56  843.099  1292.29  842.099  1292.56  841.099  1292.29  840.367  1291.56  840.099  1290.56  840.367  1289.56  841.099  1288.83  842.099  1288.56  843.099  1288.83  " style="fill: none; stroke: purple; stroke-width: 0.500000; fill-type: evenodd"  fill-opacity="1.000000" />
   <path d="M 823.099  1288.83  823.831  1289.56  824.099  1290.56  823.831  1291.56  823.099  1292.29  822.099  1292.56  821.099  1292.29  820.367  1291.56  820.099  1290.56  820.367  1289.56  821.099  1288.83  822.099  1288.56  823.099  1288.83  " style="fill: none; stroke: purple; stroke-width: 0.500000; fill-type: evenodd"  fill-opacity="1.000000" />
   <path d="M 803.099  1288.83  803.831  1289.56  804.099  1290.56  803.831  1291.56  803.099  1292.29  802.099  1292.56  801.099  1292.29  800.367  1291.56  800.099  1290.56  800.367  1289.56  801.099  1288.83  802.099  1288.56  803.099  1288.83  " style="fill: none; stroke: purple; stroke-width: 0.500000; fill-type: evenodd"  fill-opacity="1.000000" />
   <path d="M 843.099  1268.83  843.831  1269.56  844.099  1270.56  843.831  1271.56  843.099  1272.29  842.099  1272.56  841.099  1272.29  840.367  1271.56  840.099  1270.56  840.367  1269.56  841.099  1268.83  842.099  1268.56  843.099  1268.83  " style="fill: none; stroke: purple; stroke-width: 0.500000; fill-type: evenodd"  fill-opacity="1.000000" />
   <path d="M 823.099  1268.83  823.831  1269.56  824.099  1270.56  823.831  1271.56  823.099  1272.29  822.099  1272.56  821.099  1272.29  820.367  1271.56  820.099  1270.56  820.367  1269.56  821.099  1268.83  822.099  1268.56  823.099  1268.83  " style="fill: none; stroke: purple; stroke-width: 0.500000; fill-type: evenodd"  fill-opacity="1.000000" />
   <path d="M 1004.26  1246.22  1005.68  1247.29  1006.62  1248.81  1006.95  1250.56  1006.62  1252.31  1005.68  1253.82  1004.26  1254.9  1002.55  1255.38  1000.77  1255.22  999.179  1254.43  997.979  1253.11  997.336  1251.45  997.336  1249.67  997.979  1248.01  999.179  1246.69  1000.77  1245.9  1002.55  1245.73  1004.26  1246.22  " style="fill: none; stroke: purple; stroke-width: 0.500000; fill-type: evenodd"  fill-opacity="1.000000" />
   <path d="M 803.099  1248.83  803.831  1249.56  804.099  1250.56  803.831  1251.56  803.099  1252.29  802.099  1252.56  801.099  1252.29  800.367  1251.56  800.099  1250.56  800.367  1249.56  801.099  1248.83  802.099  1248.56  803.099  1248.83  " style="fill: none; stroke: purple; stroke-width: 0.500000; fill-type: evenodd"  fill-opacity="1.000000" />
   <path d="M 823.099  1248.83  823.831  1249.56  824.099  1250.56  823.831  1251.56  823.099  1252.29  822.099  1252.56  821.099  1252.29  820.367  1251.56  820.099  1250.56  820.367  1249.56  821.099  1248.83  822.099  1248.56  823.099  1248.83  " style="fill: none; stroke: purple; stroke-width: 0.500000; fill-type: evenodd"  fill-opacity="1.000000" />
   <path d="M 843.099  1248.83  843.831  1249.56  844.099  1250.56  843.831  1251.56  843.099  1252.29  842.099  1252.56  841.099  1252.29  840.367  1251.56  840.099  1250.56  840.28  1249.89  841.156  1250.5  841.157  1250.5  840.775  1249.15  841.099  1248.83  842.099  1248.56  843.099  1248.83  " style="fill: none; stroke: purple; stroke-width: 0.500000; fill-type: evenodd"  fill-opacity="1.000000" />
   <path d="M 964.308  1226.12  965.762  1227.22  966.721  1228.77  967.055  1230.56  966.721  1232.35  965.762  1233.9  964.308  1235  962.557  1235.49  960.743  1235.33  959.113  1234.51  957.886  1233.17  957.228  1231.47  957.228  1229.65  957.886  1227.95  959.113  1226.6  960.743  1225.79  962.557  1225.62  964.308  1226.12  " style="fill: none; stroke: purple; stroke-width: 0.500000; fill-type: evenodd"  fill-opacity="1.000000" />
   <path d="M 984.297  1226.15  985.743  1227.24  986.696  1228.78  987.029  1230.56  986.696  1232.34  985.743  1233.88  984.297  1234.97  982.554  1235.47  980.75  1235.3  979.128  1234.49  977.908  1233.15  977.253  1231.47  977.253  1229.65  977.908  1227.96  979.128  1226.62  980.75  1225.82  982.554  1225.65  984.297  1226.15  " style="fill: none; stroke: purple; stroke-width: 0.500000; fill-type: evenodd"  fill-opacity="1.000000" />
   <path d="M 1004.27  1226.2  1005.7  1227.28  1006.64  1228.8  1006.97  1230.56  1006.64  1232.32  1005.7  1233.84  1004.27  1234.92  1002.55  1235.41  1000.77  1235.25  999.162  1234.45  997.955  1233.13  997.308  1231.45  997.308  1229.66  997.955  1227.99  999.162  1226.67  1000.77  1225.87  1002.55  1225.71  1004.27  1226.2  " style="fill: none; stroke: purple; stroke-width: 0.500000; fill-type: evenodd"  fill-opacity="1.000000" />
   <path d="M 1003.45  1205.21  1005.12  1205.94  1006.45  1207.17  1007.32  1208.77  1007.62  1210.56  1007.32  1212.35  1006.45  1213.95  1005.12  1215.18  1003.45  1215.91  1001.64  1216.06  999.883  1215.61  998.363  1214.62  997.247  1213.18  996.658  1211.47  996.658  1209.65  997.247  1207.93  998.363  1206.5  999.883  1205.51  1001.64  1205.06  1003.45  1205.21  " style="fill: none; stroke: purple; stroke-width: 0.500000; fill-type: evenodd"  fill-opacity="1.000000" />
   <path d="M 924.159  1206.42  925.514  1207.45  926.408  1208.89  926.72  1210.56  926.408  1212.23  925.514  1213.67  924.159  1214.7  922.526  1215.16  920.835  1215  919.315  1214.25  918.171  1212.99  917.557  1211.41  917.557  1209.71  918.171  1208.13  919.315  1206.87  920.835  1206.11  922.526  1205.96  924.159  1206.42  " style="fill: none; stroke: purple; stroke-width: 0.500000; fill-type: evenodd"  fill-opacity="1.000000" />
   <path d="M 984.124  1206.49  985.456  1207.5  986.334  1208.92  986.641  1210.56  986.334  1212.2  985.456  1213.62  984.124  1214.62  982.518  1215.08  980.856  1214.93  979.362  1214.18  978.238  1212.95  977.635  1211.39  977.635  1209.72  978.238  1208.17  979.362  1206.93  980.856  1206.19  982.518  1206.04  984.124  1206.49  " style="fill: none; stroke: purple; stroke-width: 0.500000; fill-type: evenodd"  fill-opacity="1.000000" />
   <path d="M 963.737  1206.61  965.125  1207.53  966.053  1208.92  966.379  1210.56  966.053  1212.2  965.125  1213.59  963.737  1214.51  962.099  1214.84  960.462  1214.51  959.073  1213.59  958.146  1212.2  957.82  1210.56  958.146  1208.92  959.073  1207.53  960.462  1206.61  962.099  1206.28  963.737  1206.61  " style="fill: none; stroke: purple; stroke-width: 0.500000; fill-type: evenodd"  fill-opacity="1.000000" />
   <path d="M 943.335  1206.76  944.776  1207.59  945.754  1208.93  946.099  1210.56  945.754  1212.19  944.776  1213.53  943.335  1214.36  941.681  1214.54  940.099  1214.02  938.863  1212.91  938.187  1211.39  938.187  1209.73  938.863  1208.21  940.099  1207.1  941.681  1206.58  943.335  1206.76  " style="fill: none; stroke: purple; stroke-width: 0.500000; fill-type: evenodd"  fill-opacity="1.000000" />
   <path d="M 963.77  1186.53  965.186  1187.47  966.132  1188.89  966.464  1190.56  966.132  1192.23  965.186  1193.65  963.77  1194.59  962.099  1194.92  960.429  1194.59  959.013  1193.65  958.067  1192.23  957.735  1190.56  958.067  1188.89  959.013  1187.47  960.429  1186.53  962.099  1186.19  963.77  1186.53  " style="fill: none; stroke: purple; stroke-width: 0.500000; fill-type: evenodd"  fill-opacity="1.000000" />
   <path d="M 943.208  1187.15  944.501  1187.89  945.378  1189.1  945.688  1190.56  945.378  1192.02  944.501  1193.23  943.208  1193.97  941.724  1194.13  940.305  1193.67  939.196  1192.67  938.589  1191.31  938.589  1189.81  939.196  1188.45  940.305  1187.45  941.724  1186.99  943.208  1187.15  " style="fill: none; stroke: purple; stroke-width: 0.500000; fill-type: evenodd"  fill-opacity="1.000000" />
   <path d="M 924.028  1188.14  924.887  1189.22  925.193  1190.56  924.887  1191.9  924.028  1192.98  922.788  1193.58  921.411  1193.58  920.17  1192.98  919.312  1191.9  919.005  1190.56  919.312  1189.22  920.17  1188.14  921.411  1187.54  922.788  1187.54  924.028  1188.14  " style="fill: none; stroke: purple; stroke-width: 0.500000; fill-type: evenodd"  fill-opacity="1.000000" />
   <path d="M 944.843  1165.81  946.303  1167.03  947.256  1168.68  947.587  1170.56  947.256  1172.44  946.303  1174.09  944.843  1175.31  943.052  1175.96  941.147  1175.96  939.356  1175.31  937.896  1174.09  936.943  1172.44  936.612  1170.56  936.943  1168.68  937.896  1167.03  939.356  1165.81  941.147  1165.16  943.052  1165.16  944.843  1165.81  " style="fill: none; stroke: purple; stroke-width: 0.500000; fill-type: evenodd"  fill-opacity="1.000000" />
   <path d="M 925.169  1169.08  925.507  1170.56  925.169  1172.04  924.224  1173.22  922.858  1173.88  921.341  1173.88  919.975  1173.22  919.759  1172.95  925.014  1168.89  925.169  1169.08  " style="fill: none; stroke: purple; stroke-width: 0.500000; fill-type: evenodd"  fill-opacity="1.000000" />
</svg>
