<?xml version="1.0" encoding="UTF-8" standalone="yes"?>
<!DOCTYPE svg PUBLIC "-//W3C//DTD SVG 1.0//EN" "http://www.w3.org/TR/2001/REC-SVG-20010904/DTD/svg10.dtd">
<svg height="2000" width="2000" xmlns="http://www.w3.org/2000/svg" xmlns:svg="http://www.w3.org/2000/svg" xmlns:xlink="http://www.w3.org/1999/xlink">
   <marker id="endArrow" markerHeight="8" markerUnits="strokeWidth" markerWidth="10" orient="auto" refX="1" refY="5" viewBox="0 0 1000 1000">
      <polyline fill="darkblue" points="0,0 10,5 0,10 1,5" />
   </marker>
   <circle cx="1000" cy="1000" r="1" style="stroke:black; fill: red" />
   <circle cx="1000" cy="1000" r="800" style="stroke:black; fill: none" />
   <line x1="1080.741211" y1="1072.650757" x2="1073.835938" y2="1072.650757" style="stroke: green; stroke-width: 0.200000"/>
   <line x1="1081.635864" y1="1071.650635" x2="1074.835938" y2="1071.650635" style="stroke: green; stroke-width: 0.200000"/>
   <line x1="1082.597656" y1="1070.650757" x2="1075.835938" y2="1070.650757" style="stroke: green; stroke-width: 0.200000"/>
   <line x1="1083.559448" y1="1069.650757" x2="1076.835938" y2="1069.650757" style="stroke: green; stroke-width: 0.200000"/>
   <line x1="1084.570190" y1="1068.650757" x2="1077.835938" y2="1068.650757" style="stroke: green; stroke-width: 0.200000"/>
   <line x1="1085.598267" y1="1067.650757" x2="1078.835938" y2="1067.650757" style="stroke: green; stroke-width: 0.200000"/>
   <line x1="1086.626465" y1="1066.650635" x2="1079.835938" y2="1066.650635" style="stroke: green; stroke-width: 0.200000"/>
   <line x1="1087.654541" y1="1065.650757" x2="1080.835938" y2="1065.650757" style="stroke: green; stroke-width: 0.200000"/>
   <line x1="1088.682495" y1="1064.650757" x2="1081.835938" y2="1064.650757" style="stroke: green; stroke-width: 0.200000"/>
   <line x1="1089.732300" y1="1063.650757" x2="1082.835938" y2="1063.650757" style="stroke: green; stroke-width: 0.200000"/>
   <line x1="1090.827759" y1="1062.650757" x2="1083.835938" y2="1062.650757" style="stroke: green; stroke-width: 0.200000"/>
   <line x1="1091.922974" y1="1061.650635" x2="1084.835938" y2="1061.650635" style="stroke: green; stroke-width: 0.200000"/>
   <line x1="1093.018433" y1="1060.650757" x2="1085.835938" y2="1060.650757" style="stroke: green; stroke-width: 0.200000"/>
   <line x1="1094.317017" y1="1059.650757" x2="1086.835938" y2="1059.650757" style="stroke: green; stroke-width: 0.200000"/>
   <line x1="1095.475586" y1="1058.650757" x2="1087.835938" y2="1058.650757" style="stroke: green; stroke-width: 0.200000"/>
   <line x1="1096.674561" y1="1057.650757" x2="1088.835938" y2="1057.650757" style="stroke: green; stroke-width: 0.200000"/>
   <line x1="1096.953125" y1="1056.650635" x2="1089.835938" y2="1056.650635" style="stroke: green; stroke-width: 0.200000"/>
   <line x1="1096.953125" y1="1055.650757" x2="1090.835938" y2="1055.650757" style="stroke: green; stroke-width: 0.200000"/>
   <line x1="1096.953125" y1="1054.650757" x2="1091.835938" y2="1054.650757" style="stroke: green; stroke-width: 0.200000"/>
   <line x1="1096.953125" y1="1053.650757" x2="1092.835938" y2="1053.650757" style="stroke: green; stroke-width: 0.200000"/>
   <line x1="1096.953125" y1="1052.650757" x2="1093.835938" y2="1052.650757" style="stroke: green; stroke-width: 0.200000"/>
   <line x1="1096.953125" y1="1051.650635" x2="1094.835938" y2="1051.650635" style="stroke: green; stroke-width: 0.200000"/>
   <line x1="1096.953125" y1="1050.650757" x2="1095.835938" y2="1050.650757" style="stroke: green; stroke-width: 0.200000"/>
   <line x1="1096.953125" y1="1049.650757" x2="1096.835938" y2="1049.650757" style="stroke: green; stroke-width: 0.200000"/>
   <line x1="1097.899048" y1="1056.650635" x2="1097.053101" y2="1056.650635" style="stroke: green; stroke-width: 0.200000"/>
   <line x1="1099.213501" y1="1055.650757" x2="1097.053101" y2="1055.650757" style="stroke: green; stroke-width: 0.200000"/>
   <line x1="1100.507324" y1="1054.650757" x2="1097.053101" y2="1054.650757" style="stroke: green; stroke-width: 0.200000"/>
   <line x1="1101.713989" y1="1053.650757" x2="1097.053101" y2="1053.650757" style="stroke: green; stroke-width: 0.200000"/>
   <line x1="1103.117432" y1="1052.650757" x2="1097.053101" y2="1052.650757" style="stroke: green; stroke-width: 0.200000"/>
   <line x1="1104.473511" y1="1051.650635" x2="1097.053101" y2="1051.650635" style="stroke: green; stroke-width: 0.200000"/>
   <line x1="1105.772827" y1="1050.650757" x2="1097.053101" y2="1050.650757" style="stroke: green; stroke-width: 0.200000"/>
   <line x1="1107.314697" y1="1049.650757" x2="1097.053101" y2="1049.650757" style="stroke: green; stroke-width: 0.200000"/>
   <line x1="1108.722534" y1="1048.650757" x2="1097.835938" y2="1048.650757" style="stroke: green; stroke-width: 0.200000"/>
   <line x1="1110.147217" y1="1047.650757" x2="1098.835938" y2="1047.650757" style="stroke: green; stroke-width: 0.200000"/>
   <line x1="1111.719482" y1="1046.650635" x2="1099.835938" y2="1046.650635" style="stroke: green; stroke-width: 0.200000"/>
   <line x1="1113.291748" y1="1045.650757" x2="1100.835938" y2="1045.650757" style="stroke: green; stroke-width: 0.200000"/>
   <line x1="1114.765991" y1="1044.650757" x2="1101.835938" y2="1044.650757" style="stroke: green; stroke-width: 0.200000"/>
   <line x1="1116.213989" y1="1043.650757" x2="1102.835938" y2="1043.650757" style="stroke: green; stroke-width: 0.200000"/>
   <line x1="1117.493408" y1="1042.650757" x2="1103.835938" y2="1042.650757" style="stroke: green; stroke-width: 0.200000"/>
   <line x1="1118.684082" y1="1041.650635" x2="1104.835938" y2="1041.650635" style="stroke: green; stroke-width: 0.200000"/>
   <line x1="1119.795044" y1="1040.650757" x2="1105.835938" y2="1040.650757" style="stroke: green; stroke-width: 0.200000"/>
   <line x1="1120.831543" y1="1039.650757" x2="1106.835938" y2="1039.650757" style="stroke: green; stroke-width: 0.200000"/>
   <line x1="1121.674561" y1="1038.650757" x2="1107.835938" y2="1038.650757" style="stroke: green; stroke-width: 0.200000"/>
   <line x1="1122.474487" y1="1037.650757" x2="1108.835938" y2="1037.650757" style="stroke: green; stroke-width: 0.200000"/>
   <line x1="1123.012207" y1="1036.650635" x2="1109.835938" y2="1036.650635" style="stroke: green; stroke-width: 0.200000"/>
   <line x1="1123.390991" y1="1035.650757" x2="1110.835938" y2="1035.650757" style="stroke: green; stroke-width: 0.200000"/>
   <line x1="1123.666626" y1="1034.650757" x2="1111.835938" y2="1034.650757" style="stroke: green; stroke-width: 0.200000"/>
   <line x1="1123.836182" y1="1033.650757" x2="1112.835938" y2="1033.650757" style="stroke: green; stroke-width: 0.200000"/>
   <line x1="1123.899048" y1="1032.650757" x2="1113.835938" y2="1032.650757" style="stroke: green; stroke-width: 0.200000"/>
   <line x1="1123.875122" y1="1031.650635" x2="1114.835938" y2="1031.650635" style="stroke: green; stroke-width: 0.200000"/>
   <line x1="1123.732666" y1="1030.650757" x2="1115.835938" y2="1030.650757" style="stroke: green; stroke-width: 0.200000"/>
   <line x1="1123.492310" y1="1029.650757" x2="1116.835938" y2="1029.650757" style="stroke: green; stroke-width: 0.200000"/>
   <line x1="1123.164185" y1="1028.650757" x2="1117.835938" y2="1028.650757" style="stroke: green; stroke-width: 0.200000"/>
   <line x1="1122.666016" y1="1027.650757" x2="1118.835938" y2="1027.650757" style="stroke: green; stroke-width: 0.200000"/>
   <line x1="1122.103882" y1="1026.650635" x2="1119.075684" y2="1026.650635" style="stroke: green; stroke-width: 0.200000"/>
   <line x1="1121.510498" y1="1025.650757" x2="1118.471313" y2="1025.650757" style="stroke: green; stroke-width: 0.200000"/>
   <line x1="1120.917114" y1="1024.650757" x2="1119.040161" y2="1024.650757" style="stroke: green; stroke-width: 0.200000"/>
   <line x1="1120.308228" y1="1023.650757" x2="1120.040161" y2="1023.650757" style="stroke: green; stroke-width: 0.200000"/>
   <line x1="1056.177368" y1="1099.650757" x2="1050.886475" y2="1099.650757" style="stroke: green; stroke-width: 0.200000"/>
   <line x1="1058.637451" y1="1098.650757" x2="1049.109131" y2="1098.650757" style="stroke: green; stroke-width: 0.200000"/>
   <line x1="1060.317627" y1="1097.650757" x2="1047.913208" y2="1097.650757" style="stroke: green; stroke-width: 0.200000"/>
   <line x1="1061.629150" y1="1096.650635" x2="1047.039917" y2="1096.650635" style="stroke: green; stroke-width: 0.200000"/>
   <line x1="1062.700928" y1="1095.650757" x2="1048.039917" y2="1095.650757" style="stroke: green; stroke-width: 0.200000"/>
   <line x1="1063.610107" y1="1094.650757" x2="1049.040039" y2="1094.650757" style="stroke: green; stroke-width: 0.200000"/>
   <line x1="1052.596924" y1="1093.650757" x2="1050.040039" y2="1093.650757" style="stroke: green; stroke-width: 0.200000"/>
   <line x1="1064.368164" y1="1093.650757" x2="1052.835815" y2="1093.650757" style="stroke: green; stroke-width: 0.200000"/>
   <line x1="1065.057129" y1="1092.650757" x2="1053.835693" y2="1092.650757" style="stroke: green; stroke-width: 0.200000"/>
   <line x1="1065.728149" y1="1091.650635" x2="1054.835815" y2="1091.650635" style="stroke: green; stroke-width: 0.200000"/>
   <line x1="1066.385986" y1="1090.650757" x2="1055.835938" y2="1090.650757" style="stroke: green; stroke-width: 0.200000"/>
   <line x1="1067.074341" y1="1089.650757" x2="1056.835938" y2="1089.650757" style="stroke: green; stroke-width: 0.200000"/>
   <line x1="1067.763794" y1="1088.650757" x2="1057.835938" y2="1088.650757" style="stroke: green; stroke-width: 0.200000"/>
   <line x1="1068.494995" y1="1087.650757" x2="1058.835938" y2="1087.650757" style="stroke: green; stroke-width: 0.200000"/>
   <line x1="1069.233887" y1="1086.650635" x2="1059.835938" y2="1086.650635" style="stroke: green; stroke-width: 0.200000"/>
   <line x1="1069.972046" y1="1085.650757" x2="1060.835938" y2="1085.650757" style="stroke: green; stroke-width: 0.200000"/>
   <line x1="1070.695068" y1="1084.650757" x2="1061.835938" y2="1084.650757" style="stroke: green; stroke-width: 0.200000"/>
   <line x1="1071.441772" y1="1083.650757" x2="1062.835938" y2="1083.650757" style="stroke: green; stroke-width: 0.200000"/>
   <line x1="1072.209229" y1="1082.650757" x2="1063.835938" y2="1082.650757" style="stroke: green; stroke-width: 0.200000"/>
   <line x1="1072.985352" y1="1081.650635" x2="1064.835938" y2="1081.650635" style="stroke: green; stroke-width: 0.200000"/>
   <line x1="1073.783569" y1="1080.650757" x2="1065.835938" y2="1080.650757" style="stroke: green; stroke-width: 0.200000"/>
   <line x1="1074.588867" y1="1079.650757" x2="1066.835938" y2="1079.650757" style="stroke: green; stroke-width: 0.200000"/>
   <line x1="1075.408813" y1="1078.650757" x2="1067.835938" y2="1078.650757" style="stroke: green; stroke-width: 0.200000"/>
   <line x1="1076.228638" y1="1077.650757" x2="1068.835938" y2="1077.650757" style="stroke: green; stroke-width: 0.200000"/>
   <line x1="1077.103760" y1="1076.650635" x2="1069.835938" y2="1076.650635" style="stroke: green; stroke-width: 0.200000"/>
   <line x1="1078.015747" y1="1075.650757" x2="1070.835938" y2="1075.650757" style="stroke: green; stroke-width: 0.200000"/>
   <line x1="1078.934326" y1="1074.650757" x2="1071.835938" y2="1074.650757" style="stroke: green; stroke-width: 0.200000"/>
   <line x1="1079.847534" y1="1073.650757" x2="1072.835938" y2="1073.650757" style="stroke: green; stroke-width: 0.200000"/>
   <path d="M 1051.08  1091.5  1052.39  1091.98  1117.47  1026.89  1116.7  1025.62  1116.41  1025.16  1120.48  1021.09  1120.94  1021.81  1122.01  1023.56  1123.79  1026.56  1124.52  1027.98  1124.74  1028.59  1125.11  1029.81  1125.33  1031.05  1125.39  1031.74  1125.4  1032.95  1125.35  1033.68  1125.19  1034.69  1125.01  1035.53  1124.69  1036.5  1124.36  1037.31  1123.92  1038.17  1123.78  1038.39  1123.44  1038.93  1122.76  1039.69  1122.36  1040.25  1121.19  1041.42  1119.06  1043.33  1116.82  1045.08  1116.29  1045.42  1114.48  1046.67  1110.82  1049  1108.1  1050.93  1106.78  1051.77  1104.53  1053.5  1102.87  1054.64  1101.03  1056.16  1099.07  1057.63  1096.8  1059.49  1095.39  1060.72  1094.08  1061.71  1090.41  1065.06  1084.87  1070.45  1082.72  1072.68  1080.77  1074.86  1078.4  1077.44  1077.52  1078.44  1075.48  1080.92  1073.94  1082.85  1072.19  1085.14  1071.39  1086.26  1069.09  1089.37  1067.57  1091.58  1066.63  1093.01  1065.59  1094.53  1064.95  1095.39  1064.17  1096.3  1063.12  1097.35  1062.32  1098.03  1060.97  1099.03  1059.51  1099.88  1059.18  1100.05  1058.86  1100.24  1056.92  1101.02  1055.09  1101.45  1054.31  1101.54  1053.89  1101.56  1053.56  1101.57  1052.3  1101.48  1050.96  1101.24  1050.41  1101.07  1050.07  1100.95  1049.8  1100.83  1049.23  1100.53  1048.7  1100.21  1047.71  1099.49  1047.03  1098.86  1046.52  1098.44  1045.39  1097.29  1044.85  1096.72  1049.46  1092.11  " style="fill: none; stroke: darkmagenta; stroke-width: 0.200000; fill-type: evenodd"  fill-opacity="1.000000" />
   <path d="M 1049.46  1092.11  1050.34  1091.23  1051.08  1091.5  " style="fill: none; stroke: red; stroke-width: 0.200000; fill-type: evenodd"  fill-opacity="1.000000" />
   <path d="M 1121.16  1024.08  1122.92  1027.04  1123.6  1028.38  1123.79  1028.91  1124.13  1030.04  1124.34  1031.19  1124.39  1031.79  1124.4  1032.92  1124.36  1033.56  1124.21  1034.51  1124.04  1035.27  1123.75  1036.15  1123.45  1036.89  1123.05  1037.67  1122.94  1037.86  1122.64  1038.33  1121.98  1039.06  1121.59  1039.6  1120.5  1040.69  1118.42  1042.56  1116.24  1044.26  1115.74  1044.59  1113.93  1045.84  1110.27  1048.17  1107.54  1050.1  1106.21  1050.95  1103.94  1052.69  1102.27  1053.84  1100.42  1055.38  1098.45  1056.84  1096.15  1058.72  1094.75  1059.95  1093.44  1060.94  1089.72  1064.34  1084.16  1069.74  1081.99  1072  1080.03  1074.19  1077.66  1076.77  1076.76  1077.79  1074.71  1080.29  1073.16  1082.24  1071.39  1084.54  1070.58  1085.67  1068.28  1088.79  1066.74  1091.02  1065.8  1092.45  1064.77  1093.95  1064.17  1094.77  1063.44  1095.62  1062.44  1096.61  1061.7  1097.25  1060.42  1098.2  1059.04  1099  1058.71  1099.17  1058.42  1099.34  1056.61  1100.06  1054.91  1100.46  1054.22  1100.54  1053.85  1100.56  1053.59  1100.57  1052.42  1100.49  1051.2  1100.26  1050.73  1100.13  1050.45  1100.02  1050.23  1099.92  1049.72  1099.66  1049.25  1099.37  1048.35  1098.71  1047.68  1098.11  1047.2  1097.71  1046.25  1096.73  1050.6  1092.39  1052.64  1093.14  1118.73  1027.05  1117.68  1025.31  1120.3  1022.68  1121.16  1024.08  " style="fill: none; stroke: black; stroke-width: 0.200000; fill-type: evenodd"  fill-opacity="1.000000" />
</svg>
