<?xml version="1.0" encoding="UTF-8" standalone="yes"?>
<!DOCTYPE svg PUBLIC "-//W3C//DTD SVG 1.0//EN" "http://www.w3.org/TR/2001/REC-SVG-20010904/DTD/svg10.dtd">
<svg height="2000" width="2000" xmlns="http://www.w3.org/2000/svg" xmlns:svg="http://www.w3.org/2000/svg" xmlns:xlink="http://www.w3.org/1999/xlink">
   <marker id="endArrow" markerHeight="8" markerUnits="strokeWidth" markerWidth="10" orient="auto" refX="1" refY="5" viewBox="0 0 1000 1000">
      <polyline fill="darkblue" points="0,0 10,5 0,10 1,5" />
   </marker>
   <circle cx="1000" cy="1000" r="1" style="stroke:black; fill: red" />
   <circle cx="1000" cy="1000" r="800" style="stroke:black; fill: none" />
   <line x1="803.742615" y1="1063.173828" x2="757.697205" y2="1063.173828" style="stroke: green; stroke-width: 0.200000"/>
   <line x1="803.742615" y1="1062.173828" x2="757.802124" y2="1062.173828" style="stroke: green; stroke-width: 0.200000"/>
   <line x1="803.742615" y1="1061.173828" x2="757.907043" y2="1061.173828" style="stroke: green; stroke-width: 0.200000"/>
   <line x1="803.742615" y1="1060.173828" x2="758.011963" y2="1060.173828" style="stroke: green; stroke-width: 0.200000"/>
   <line x1="803.742615" y1="1059.173828" x2="758.116943" y2="1059.173828" style="stroke: green; stroke-width: 0.200000"/>
   <line x1="803.742615" y1="1058.173828" x2="758.221802" y2="1058.173828" style="stroke: green; stroke-width: 0.200000"/>
   <line x1="803.742615" y1="1057.173828" x2="758.327637" y2="1057.173828" style="stroke: green; stroke-width: 0.200000"/>
   <line x1="803.742615" y1="1056.173828" x2="758.535706" y2="1056.173828" style="stroke: green; stroke-width: 0.200000"/>
   <line x1="803.742615" y1="1055.173828" x2="758.860229" y2="1055.173828" style="stroke: green; stroke-width: 0.200000"/>
   <line x1="803.742615" y1="1054.173828" x2="759.164978" y2="1054.173828" style="stroke: green; stroke-width: 0.200000"/>
   <line x1="803.742615" y1="1053.173828" x2="759.458374" y2="1053.173828" style="stroke: green; stroke-width: 0.200000"/>
   <line x1="803.742615" y1="1052.173828" x2="759.751709" y2="1052.173828" style="stroke: green; stroke-width: 0.200000"/>
   <line x1="803.742615" y1="1051.173828" x2="760.045105" y2="1051.173828" style="stroke: green; stroke-width: 0.200000"/>
   <line x1="803.742615" y1="1050.173828" x2="760.338440" y2="1050.173828" style="stroke: green; stroke-width: 0.200000"/>
   <line x1="803.742615" y1="1049.173828" x2="760.631775" y2="1049.173828" style="stroke: green; stroke-width: 0.200000"/>
   <line x1="803.742615" y1="1048.173828" x2="760.925171" y2="1048.173828" style="stroke: green; stroke-width: 0.200000"/>
   <line x1="803.742615" y1="1047.173828" x2="761.218567" y2="1047.173828" style="stroke: green; stroke-width: 0.200000"/>
   <line x1="803.742615" y1="1046.173828" x2="761.616150" y2="1046.173828" style="stroke: green; stroke-width: 0.200000"/>
   <line x1="803.742615" y1="1045.173828" x2="762.048706" y2="1045.173828" style="stroke: green; stroke-width: 0.200000"/>
   <line x1="803.742615" y1="1044.173828" x2="762.481201" y2="1044.173828" style="stroke: green; stroke-width: 0.200000"/>
   <line x1="803.742615" y1="1043.173828" x2="762.913757" y2="1043.173828" style="stroke: green; stroke-width: 0.200000"/>
   <line x1="803.742615" y1="1042.173828" x2="763.346252" y2="1042.173828" style="stroke: green; stroke-width: 0.200000"/>
   <line x1="803.742615" y1="1041.173828" x2="763.778809" y2="1041.173828" style="stroke: green; stroke-width: 0.200000"/>
   <line x1="803.742615" y1="1040.173828" x2="764.220947" y2="1040.173828" style="stroke: green; stroke-width: 0.200000"/>
   <line x1="803.742615" y1="1039.173828" x2="764.758789" y2="1039.173828" style="stroke: green; stroke-width: 0.200000"/>
   <line x1="803.742615" y1="1038.173828" x2="765.400879" y2="1038.173828" style="stroke: green; stroke-width: 0.200000"/>
   <line x1="803.742615" y1="1037.173828" x2="766.057739" y2="1037.173828" style="stroke: green; stroke-width: 0.200000"/>
   <line x1="803.742615" y1="1036.173828" x2="766.714722" y2="1036.173828" style="stroke: green; stroke-width: 0.200000"/>
   <line x1="803.742615" y1="1035.173828" x2="767.371704" y2="1035.173828" style="stroke: green; stroke-width: 0.200000"/>
   <line x1="803.742615" y1="1034.173828" x2="768.028625" y2="1034.173828" style="stroke: green; stroke-width: 0.200000"/>
   <line x1="803.742615" y1="1033.173828" x2="768.685608" y2="1033.173828" style="stroke: green; stroke-width: 0.200000"/>
   <line x1="803.742615" y1="1032.173828" x2="769.342590" y2="1032.173828" style="stroke: green; stroke-width: 0.200000"/>
   <line x1="803.742615" y1="1031.173828" x2="770.024292" y2="1031.173828" style="stroke: green; stroke-width: 0.200000"/>
   <line x1="803.742615" y1="1030.173828" x2="770.875244" y2="1030.173828" style="stroke: green; stroke-width: 0.200000"/>
   <line x1="803.742615" y1="1029.173828" x2="771.726074" y2="1029.173828" style="stroke: green; stroke-width: 0.200000"/>
   <line x1="803.742615" y1="1028.173828" x2="772.576965" y2="1028.173828" style="stroke: green; stroke-width: 0.200000"/>
   <line x1="803.742615" y1="1027.173828" x2="773.427979" y2="1027.173828" style="stroke: green; stroke-width: 0.200000"/>
   <line x1="803.742615" y1="1026.173828" x2="774.278870" y2="1026.173828" style="stroke: green; stroke-width: 0.200000"/>
   <line x1="803.742615" y1="1025.173828" x2="775.129883" y2="1025.173828" style="stroke: green; stroke-width: 0.200000"/>
   <line x1="803.742615" y1="1024.173828" x2="776.268066" y2="1024.173828" style="stroke: green; stroke-width: 0.200000"/>
   <line x1="803.742615" y1="1023.173828" x2="777.604126" y2="1023.173828" style="stroke: green; stroke-width: 0.200000"/>
   <line x1="803.742615" y1="1022.173828" x2="778.940125" y2="1022.173828" style="stroke: green; stroke-width: 0.200000"/>
   <line x1="803.742615" y1="1021.173828" x2="780.276123" y2="1021.173828" style="stroke: green; stroke-width: 0.200000"/>
   <line x1="803.742615" y1="1020.173889" x2="781.612183" y2="1020.173889" style="stroke: green; stroke-width: 0.200000"/>
   <line x1="803.742615" y1="1019.173889" x2="782.974487" y2="1019.173889" style="stroke: green; stroke-width: 0.200000"/>
   <line x1="803.742615" y1="1018.173828" x2="784.510864" y2="1018.173828" style="stroke: green; stroke-width: 0.200000"/>
   <line x1="803.742615" y1="1017.173828" x2="786.047363" y2="1017.173828" style="stroke: green; stroke-width: 0.200000"/>
   <line x1="803.742615" y1="1016.173828" x2="787.583862" y2="1016.173828" style="stroke: green; stroke-width: 0.200000"/>
   <line x1="803.742615" y1="1015.173889" x2="789.665466" y2="1015.173889" style="stroke: green; stroke-width: 0.200000"/>
   <line x1="802.463013" y1="1014.173889" x2="793.933777" y2="1014.173889" style="stroke: green; stroke-width: 0.200000"/>
   <line x1="853.842651" y1="1063.173828" x2="803.842651" y2="1063.173828" style="stroke: green; stroke-width: 0.200000"/>
   <line x1="853.842651" y1="1062.173828" x2="803.842651" y2="1062.173828" style="stroke: green; stroke-width: 0.200000"/>
   <line x1="853.842651" y1="1061.173828" x2="803.842651" y2="1061.173828" style="stroke: green; stroke-width: 0.200000"/>
   <line x1="853.362183" y1="1060.173828" x2="803.842651" y2="1060.173828" style="stroke: green; stroke-width: 0.200000"/>
   <line x1="852.352783" y1="1059.173828" x2="803.842651" y2="1059.173828" style="stroke: green; stroke-width: 0.200000"/>
   <line x1="851.343384" y1="1058.173828" x2="803.842651" y2="1058.173828" style="stroke: green; stroke-width: 0.200000"/>
   <line x1="850.309082" y1="1057.173828" x2="803.842651" y2="1057.173828" style="stroke: green; stroke-width: 0.200000"/>
   <line x1="849.138550" y1="1056.173828" x2="803.842651" y2="1056.173828" style="stroke: green; stroke-width: 0.200000"/>
   <line x1="847.968079" y1="1055.173828" x2="803.842651" y2="1055.173828" style="stroke: green; stroke-width: 0.200000"/>
   <line x1="846.797546" y1="1054.173828" x2="803.842651" y2="1054.173828" style="stroke: green; stroke-width: 0.200000"/>
   <line x1="845.626953" y1="1053.173828" x2="803.842651" y2="1053.173828" style="stroke: green; stroke-width: 0.200000"/>
   <line x1="844.480347" y1="1052.173828" x2="803.842651" y2="1052.173828" style="stroke: green; stroke-width: 0.200000"/>
   <line x1="843.659912" y1="1051.173828" x2="803.842651" y2="1051.173828" style="stroke: green; stroke-width: 0.200000"/>
   <line x1="843.013184" y1="1050.173828" x2="803.842651" y2="1050.173828" style="stroke: green; stroke-width: 0.200000"/>
   <line x1="842.413452" y1="1049.173828" x2="803.842651" y2="1049.173828" style="stroke: green; stroke-width: 0.200000"/>
   <line x1="841.813843" y1="1048.173828" x2="803.842651" y2="1048.173828" style="stroke: green; stroke-width: 0.200000"/>
   <line x1="841.214111" y1="1047.173828" x2="803.842651" y2="1047.173828" style="stroke: green; stroke-width: 0.200000"/>
   <line x1="840.614502" y1="1046.173828" x2="803.842651" y2="1046.173828" style="stroke: green; stroke-width: 0.200000"/>
   <line x1="840.014771" y1="1045.173828" x2="803.842651" y2="1045.173828" style="stroke: green; stroke-width: 0.200000"/>
   <line x1="839.415161" y1="1044.173828" x2="803.842651" y2="1044.173828" style="stroke: green; stroke-width: 0.200000"/>
   <line x1="838.815369" y1="1043.173828" x2="803.842651" y2="1043.173828" style="stroke: green; stroke-width: 0.200000"/>
   <line x1="838.163391" y1="1042.173828" x2="803.842651" y2="1042.173828" style="stroke: green; stroke-width: 0.200000"/>
   <line x1="837.506714" y1="1041.173828" x2="803.842651" y2="1041.173828" style="stroke: green; stroke-width: 0.200000"/>
   <line x1="836.889771" y1="1040.173828" x2="803.842651" y2="1040.173828" style="stroke: green; stroke-width: 0.200000"/>
   <line x1="836.272888" y1="1039.173828" x2="803.842651" y2="1039.173828" style="stroke: green; stroke-width: 0.200000"/>
   <line x1="835.656006" y1="1038.173828" x2="803.842651" y2="1038.173828" style="stroke: green; stroke-width: 0.200000"/>
   <line x1="835.039062" y1="1037.173828" x2="803.842651" y2="1037.173828" style="stroke: green; stroke-width: 0.200000"/>
   <line x1="834.422119" y1="1036.173828" x2="803.842651" y2="1036.173828" style="stroke: green; stroke-width: 0.200000"/>
   <line x1="833.805237" y1="1035.173828" x2="803.842651" y2="1035.173828" style="stroke: green; stroke-width: 0.200000"/>
   <line x1="833.185425" y1="1034.173828" x2="803.842651" y2="1034.173828" style="stroke: green; stroke-width: 0.200000"/>
   <line x1="832.327881" y1="1033.173828" x2="803.842651" y2="1033.173828" style="stroke: green; stroke-width: 0.200000"/>
   <line x1="831.470337" y1="1032.173828" x2="803.842651" y2="1032.173828" style="stroke: green; stroke-width: 0.200000"/>
   <line x1="830.612793" y1="1031.173828" x2="803.842651" y2="1031.173828" style="stroke: green; stroke-width: 0.200000"/>
   <line x1="829.811462" y1="1030.173828" x2="803.842651" y2="1030.173828" style="stroke: green; stroke-width: 0.200000"/>
   <line x1="829.032654" y1="1029.173828" x2="803.842651" y2="1029.173828" style="stroke: green; stroke-width: 0.200000"/>
   <line x1="828.253906" y1="1028.173828" x2="803.842651" y2="1028.173828" style="stroke: green; stroke-width: 0.200000"/>
   <line x1="827.475220" y1="1027.173828" x2="803.842651" y2="1027.173828" style="stroke: green; stroke-width: 0.200000"/>
   <line x1="826.270630" y1="1026.173828" x2="803.842651" y2="1026.173828" style="stroke: green; stroke-width: 0.200000"/>
   <line x1="825.043945" y1="1025.173828" x2="803.842651" y2="1025.173828" style="stroke: green; stroke-width: 0.200000"/>
   <line x1="823.817261" y1="1024.173828" x2="803.842651" y2="1024.173828" style="stroke: green; stroke-width: 0.200000"/>
   <line x1="822.590698" y1="1023.173828" x2="803.842651" y2="1023.173828" style="stroke: green; stroke-width: 0.200000"/>
   <line x1="821.364075" y1="1022.173828" x2="803.842651" y2="1022.173828" style="stroke: green; stroke-width: 0.200000"/>
   <line x1="819.920776" y1="1021.173828" x2="803.842651" y2="1021.173828" style="stroke: green; stroke-width: 0.200000"/>
   <line x1="818.161926" y1="1020.173889" x2="803.842651" y2="1020.173889" style="stroke: green; stroke-width: 0.200000"/>
   <line x1="816.403076" y1="1019.173889" x2="803.842651" y2="1019.173889" style="stroke: green; stroke-width: 0.200000"/>
   <line x1="814.644165" y1="1018.173828" x2="803.842651" y2="1018.173828" style="stroke: green; stroke-width: 0.200000"/>
   <line x1="812.697998" y1="1017.173828" x2="803.842651" y2="1017.173828" style="stroke: green; stroke-width: 0.200000"/>
   <line x1="809.486328" y1="1016.173828" x2="803.842651" y2="1016.173828" style="stroke: green; stroke-width: 0.200000"/>
   <line x1="806.429688" y1="1015.173889" x2="803.842651" y2="1015.173889" style="stroke: green; stroke-width: 0.200000"/>
   <line x1="857.077393" y1="1063.173828" x2="853.942627" y2="1063.173828" style="stroke: green; stroke-width: 0.200000"/>
   <line x1="855.551880" y1="1062.173828" x2="853.942627" y2="1062.173828" style="stroke: green; stroke-width: 0.200000"/>
   <line x1="854.371582" y1="1061.173828" x2="853.942627" y2="1061.173828" style="stroke: green; stroke-width: 0.200000"/>
   <line x1="803.742615" y1="1113.173828" x2="754.060303" y2="1113.173828" style="stroke: green; stroke-width: 0.200000"/>
   <line x1="803.742615" y1="1112.173828" x2="754.139526" y2="1112.173828" style="stroke: green; stroke-width: 0.200000"/>
   <line x1="803.742615" y1="1111.173828" x2="754.218811" y2="1111.173828" style="stroke: green; stroke-width: 0.200000"/>
   <line x1="803.742615" y1="1110.173828" x2="754.298096" y2="1110.173828" style="stroke: green; stroke-width: 0.200000"/>
   <line x1="803.742615" y1="1109.173828" x2="754.377380" y2="1109.173828" style="stroke: green; stroke-width: 0.200000"/>
   <line x1="803.742615" y1="1108.173828" x2="754.456665" y2="1108.173828" style="stroke: green; stroke-width: 0.200000"/>
   <line x1="803.742615" y1="1107.173828" x2="754.573975" y2="1107.173828" style="stroke: green; stroke-width: 0.200000"/>
   <line x1="803.742615" y1="1106.173828" x2="754.734985" y2="1106.173828" style="stroke: green; stroke-width: 0.200000"/>
   <line x1="803.742615" y1="1105.173828" x2="754.895874" y2="1105.173828" style="stroke: green; stroke-width: 0.200000"/>
   <line x1="803.742615" y1="1104.173828" x2="755.056824" y2="1104.173828" style="stroke: green; stroke-width: 0.200000"/>
   <line x1="803.742615" y1="1103.173828" x2="755.217773" y2="1103.173828" style="stroke: green; stroke-width: 0.200000"/>
   <line x1="803.742615" y1="1102.173828" x2="755.378723" y2="1102.173828" style="stroke: green; stroke-width: 0.200000"/>
   <line x1="803.742615" y1="1101.173828" x2="755.539612" y2="1101.173828" style="stroke: green; stroke-width: 0.200000"/>
   <line x1="803.742615" y1="1100.173828" x2="755.700623" y2="1100.173828" style="stroke: green; stroke-width: 0.200000"/>
   <line x1="803.742615" y1="1099.173828" x2="755.861511" y2="1099.173828" style="stroke: green; stroke-width: 0.200000"/>
   <line x1="803.742615" y1="1098.173828" x2="756.022461" y2="1098.173828" style="stroke: green; stroke-width: 0.200000"/>
   <line x1="803.742615" y1="1097.173828" x2="756.183411" y2="1097.173828" style="stroke: green; stroke-width: 0.200000"/>
   <line x1="803.742615" y1="1096.173828" x2="756.370972" y2="1096.173828" style="stroke: green; stroke-width: 0.200000"/>
   <line x1="803.742615" y1="1095.173828" x2="756.539856" y2="1095.173828" style="stroke: green; stroke-width: 0.200000"/>
   <line x1="803.742615" y1="1094.173828" x2="756.690796" y2="1094.173828" style="stroke: green; stroke-width: 0.200000"/>
   <line x1="803.742615" y1="1093.173828" x2="756.841797" y2="1093.173828" style="stroke: green; stroke-width: 0.200000"/>
   <line x1="803.742615" y1="1092.173828" x2="756.992859" y2="1092.173828" style="stroke: green; stroke-width: 0.200000"/>
   <line x1="803.742615" y1="1091.173828" x2="757.143860" y2="1091.173828" style="stroke: green; stroke-width: 0.200000"/>
   <line x1="803.742615" y1="1090.173828" x2="757.294861" y2="1090.173828" style="stroke: green; stroke-width: 0.200000"/>
   <line x1="803.742615" y1="1089.173828" x2="757.445801" y2="1089.173828" style="stroke: green; stroke-width: 0.200000"/>
   <line x1="803.742615" y1="1088.173828" x2="757.596802" y2="1088.173828" style="stroke: green; stroke-width: 0.200000"/>
   <line x1="803.742615" y1="1087.173828" x2="757.747803" y2="1087.173828" style="stroke: green; stroke-width: 0.200000"/>
   <line x1="803.742615" y1="1086.173828" x2="757.898865" y2="1086.173828" style="stroke: green; stroke-width: 0.200000"/>
   <line x1="803.742615" y1="1085.173828" x2="758.022949" y2="1085.173828" style="stroke: green; stroke-width: 0.200000"/>
   <line x1="803.742615" y1="1084.173828" x2="758.075684" y2="1084.173828" style="stroke: green; stroke-width: 0.200000"/>
   <line x1="803.742615" y1="1083.173828" x2="758.026367" y2="1083.173828" style="stroke: green; stroke-width: 0.200000"/>
   <line x1="803.742615" y1="1082.173828" x2="757.976990" y2="1082.173828" style="stroke: green; stroke-width: 0.200000"/>
   <line x1="803.742615" y1="1081.173828" x2="757.927612" y2="1081.173828" style="stroke: green; stroke-width: 0.200000"/>
   <line x1="803.742615" y1="1080.173828" x2="757.878357" y2="1080.173828" style="stroke: green; stroke-width: 0.200000"/>
   <line x1="803.742615" y1="1079.173828" x2="757.828979" y2="1079.173828" style="stroke: green; stroke-width: 0.200000"/>
   <line x1="803.742615" y1="1078.173828" x2="757.779602" y2="1078.173828" style="stroke: green; stroke-width: 0.200000"/>
   <line x1="803.742615" y1="1077.173828" x2="757.730225" y2="1077.173828" style="stroke: green; stroke-width: 0.200000"/>
   <line x1="803.742615" y1="1076.173828" x2="757.680908" y2="1076.173828" style="stroke: green; stroke-width: 0.200000"/>
   <line x1="803.742615" y1="1075.173828" x2="757.618713" y2="1075.173828" style="stroke: green; stroke-width: 0.200000"/>
   <line x1="803.742615" y1="1074.173828" x2="757.554871" y2="1074.173828" style="stroke: green; stroke-width: 0.200000"/>
   <line x1="803.742615" y1="1073.173828" x2="757.535706" y2="1073.173828" style="stroke: green; stroke-width: 0.200000"/>
   <line x1="803.742615" y1="1072.173828" x2="757.536316" y2="1072.173828" style="stroke: green; stroke-width: 0.200000"/>
   <line x1="803.742615" y1="1071.173828" x2="757.536865" y2="1071.173828" style="stroke: green; stroke-width: 0.200000"/>
   <line x1="803.742615" y1="1070.173828" x2="757.537476" y2="1070.173828" style="stroke: green; stroke-width: 0.200000"/>
   <line x1="803.742615" y1="1069.173828" x2="757.538086" y2="1069.173828" style="stroke: green; stroke-width: 0.200000"/>
   <line x1="803.742615" y1="1068.173828" x2="757.538574" y2="1068.173828" style="stroke: green; stroke-width: 0.200000"/>
   <line x1="803.742615" y1="1067.173828" x2="757.539185" y2="1067.173828" style="stroke: green; stroke-width: 0.200000"/>
   <line x1="803.742615" y1="1066.173828" x2="757.539795" y2="1066.173828" style="stroke: green; stroke-width: 0.200000"/>
   <line x1="803.742615" y1="1065.173828" x2="757.540344" y2="1065.173828" style="stroke: green; stroke-width: 0.200000"/>
   <line x1="803.742615" y1="1064.173828" x2="757.592285" y2="1064.173828" style="stroke: green; stroke-width: 0.200000"/>
   <line x1="853.842651" y1="1113.173828" x2="803.842651" y2="1113.173828" style="stroke: green; stroke-width: 0.200000"/>
   <line x1="853.842651" y1="1112.173828" x2="803.842651" y2="1112.173828" style="stroke: green; stroke-width: 0.200000"/>
   <line x1="853.842651" y1="1111.173828" x2="803.842651" y2="1111.173828" style="stroke: green; stroke-width: 0.200000"/>
   <line x1="853.842651" y1="1110.173828" x2="803.842651" y2="1110.173828" style="stroke: green; stroke-width: 0.200000"/>
   <line x1="853.842651" y1="1109.173828" x2="803.842651" y2="1109.173828" style="stroke: green; stroke-width: 0.200000"/>
   <line x1="853.842651" y1="1108.173828" x2="803.842651" y2="1108.173828" style="stroke: green; stroke-width: 0.200000"/>
   <line x1="853.842651" y1="1107.173828" x2="803.842651" y2="1107.173828" style="stroke: green; stroke-width: 0.200000"/>
   <line x1="853.842651" y1="1106.173828" x2="803.842651" y2="1106.173828" style="stroke: green; stroke-width: 0.200000"/>
   <line x1="853.842651" y1="1105.173828" x2="803.842651" y2="1105.173828" style="stroke: green; stroke-width: 0.200000"/>
   <line x1="853.842651" y1="1104.173828" x2="803.842651" y2="1104.173828" style="stroke: green; stroke-width: 0.200000"/>
   <line x1="853.842651" y1="1103.173828" x2="803.842651" y2="1103.173828" style="stroke: green; stroke-width: 0.200000"/>
   <line x1="853.842651" y1="1102.173828" x2="803.842651" y2="1102.173828" style="stroke: green; stroke-width: 0.200000"/>
   <line x1="853.842651" y1="1101.173828" x2="803.842651" y2="1101.173828" style="stroke: green; stroke-width: 0.200000"/>
   <line x1="853.842651" y1="1100.173828" x2="803.842651" y2="1100.173828" style="stroke: green; stroke-width: 0.200000"/>
   <line x1="853.842651" y1="1099.173828" x2="803.842651" y2="1099.173828" style="stroke: green; stroke-width: 0.200000"/>
   <line x1="853.842651" y1="1098.173828" x2="803.842651" y2="1098.173828" style="stroke: green; stroke-width: 0.200000"/>
   <line x1="853.842651" y1="1097.173828" x2="803.842651" y2="1097.173828" style="stroke: green; stroke-width: 0.200000"/>
   <line x1="853.842651" y1="1096.173828" x2="803.842651" y2="1096.173828" style="stroke: green; stroke-width: 0.200000"/>
   <line x1="853.842651" y1="1095.173828" x2="803.842651" y2="1095.173828" style="stroke: green; stroke-width: 0.200000"/>
   <line x1="853.842651" y1="1094.173828" x2="803.842651" y2="1094.173828" style="stroke: green; stroke-width: 0.200000"/>
   <line x1="853.842651" y1="1093.173828" x2="803.842651" y2="1093.173828" style="stroke: green; stroke-width: 0.200000"/>
   <line x1="853.842651" y1="1092.173828" x2="803.842651" y2="1092.173828" style="stroke: green; stroke-width: 0.200000"/>
   <line x1="853.842651" y1="1091.173828" x2="803.842651" y2="1091.173828" style="stroke: green; stroke-width: 0.200000"/>
   <line x1="853.842651" y1="1090.173828" x2="803.842651" y2="1090.173828" style="stroke: green; stroke-width: 0.200000"/>
   <line x1="853.842651" y1="1089.173828" x2="803.842651" y2="1089.173828" style="stroke: green; stroke-width: 0.200000"/>
   <line x1="853.842651" y1="1088.173828" x2="803.842651" y2="1088.173828" style="stroke: green; stroke-width: 0.200000"/>
   <line x1="853.842651" y1="1087.173828" x2="803.842651" y2="1087.173828" style="stroke: green; stroke-width: 0.200000"/>
   <line x1="853.842651" y1="1086.173828" x2="803.842651" y2="1086.173828" style="stroke: green; stroke-width: 0.200000"/>
   <line x1="853.842651" y1="1085.173828" x2="803.842651" y2="1085.173828" style="stroke: green; stroke-width: 0.200000"/>
   <line x1="853.842651" y1="1084.173828" x2="803.842651" y2="1084.173828" style="stroke: green; stroke-width: 0.200000"/>
   <line x1="853.842651" y1="1083.173828" x2="803.842651" y2="1083.173828" style="stroke: green; stroke-width: 0.200000"/>
   <line x1="853.842651" y1="1082.173828" x2="803.842651" y2="1082.173828" style="stroke: green; stroke-width: 0.200000"/>
   <line x1="853.842651" y1="1081.173828" x2="803.842651" y2="1081.173828" style="stroke: green; stroke-width: 0.200000"/>
   <line x1="853.842651" y1="1080.173828" x2="803.842651" y2="1080.173828" style="stroke: green; stroke-width: 0.200000"/>
   <line x1="853.842651" y1="1079.173828" x2="803.842651" y2="1079.173828" style="stroke: green; stroke-width: 0.200000"/>
   <line x1="853.842651" y1="1078.173828" x2="803.842651" y2="1078.173828" style="stroke: green; stroke-width: 0.200000"/>
   <line x1="853.842651" y1="1077.173828" x2="803.842651" y2="1077.173828" style="stroke: green; stroke-width: 0.200000"/>
   <line x1="853.842651" y1="1076.173828" x2="803.842651" y2="1076.173828" style="stroke: green; stroke-width: 0.200000"/>
   <line x1="853.842651" y1="1075.173828" x2="803.842651" y2="1075.173828" style="stroke: green; stroke-width: 0.200000"/>
   <line x1="853.842651" y1="1074.173828" x2="803.842651" y2="1074.173828" style="stroke: green; stroke-width: 0.200000"/>
   <line x1="853.842651" y1="1073.173828" x2="803.842651" y2="1073.173828" style="stroke: green; stroke-width: 0.200000"/>
   <line x1="853.842651" y1="1072.173828" x2="803.842651" y2="1072.173828" style="stroke: green; stroke-width: 0.200000"/>
   <line x1="853.842651" y1="1071.173828" x2="803.842651" y2="1071.173828" style="stroke: green; stroke-width: 0.200000"/>
   <line x1="853.842651" y1="1070.173828" x2="803.842651" y2="1070.173828" style="stroke: green; stroke-width: 0.200000"/>
   <line x1="853.842651" y1="1069.173828" x2="803.842651" y2="1069.173828" style="stroke: green; stroke-width: 0.200000"/>
   <line x1="853.842651" y1="1068.173828" x2="803.842651" y2="1068.173828" style="stroke: green; stroke-width: 0.200000"/>
   <line x1="853.842651" y1="1067.173828" x2="803.842651" y2="1067.173828" style="stroke: green; stroke-width: 0.200000"/>
   <line x1="853.842651" y1="1066.173828" x2="803.842651" y2="1066.173828" style="stroke: green; stroke-width: 0.200000"/>
   <line x1="853.842651" y1="1065.173828" x2="803.842651" y2="1065.173828" style="stroke: green; stroke-width: 0.200000"/>
   <line x1="853.842651" y1="1064.173828" x2="803.842651" y2="1064.173828" style="stroke: green; stroke-width: 0.200000"/>
   <line x1="889.302856" y1="1113.173828" x2="853.942627" y2="1113.173828" style="stroke: green; stroke-width: 0.200000"/>
   <line x1="888.975342" y1="1112.173828" x2="853.942627" y2="1112.173828" style="stroke: green; stroke-width: 0.200000"/>
   <line x1="888.647827" y1="1111.173828" x2="853.942627" y2="1111.173828" style="stroke: green; stroke-width: 0.200000"/>
   <line x1="888.320374" y1="1110.173828" x2="853.942627" y2="1110.173828" style="stroke: green; stroke-width: 0.200000"/>
   <line x1="887.992859" y1="1109.173828" x2="853.942627" y2="1109.173828" style="stroke: green; stroke-width: 0.200000"/>
   <line x1="887.665344" y1="1108.173828" x2="853.942627" y2="1108.173828" style="stroke: green; stroke-width: 0.200000"/>
   <line x1="887.337891" y1="1107.173828" x2="853.942627" y2="1107.173828" style="stroke: green; stroke-width: 0.200000"/>
   <line x1="887.010376" y1="1106.173828" x2="853.942627" y2="1106.173828" style="stroke: green; stroke-width: 0.200000"/>
   <line x1="886.682861" y1="1105.173828" x2="853.942627" y2="1105.173828" style="stroke: green; stroke-width: 0.200000"/>
   <line x1="886.300720" y1="1104.173828" x2="853.942627" y2="1104.173828" style="stroke: green; stroke-width: 0.200000"/>
   <line x1="885.947876" y1="1103.173828" x2="853.942627" y2="1103.173828" style="stroke: green; stroke-width: 0.200000"/>
   <line x1="885.595032" y1="1102.173828" x2="853.942627" y2="1102.173828" style="stroke: green; stroke-width: 0.200000"/>
   <line x1="885.242188" y1="1101.173828" x2="853.942627" y2="1101.173828" style="stroke: green; stroke-width: 0.200000"/>
   <line x1="884.889282" y1="1100.173828" x2="853.942627" y2="1100.173828" style="stroke: green; stroke-width: 0.200000"/>
   <line x1="884.536438" y1="1099.173828" x2="853.942627" y2="1099.173828" style="stroke: green; stroke-width: 0.200000"/>
   <line x1="884.183655" y1="1098.173828" x2="853.942627" y2="1098.173828" style="stroke: green; stroke-width: 0.200000"/>
   <line x1="883.830811" y1="1097.173828" x2="853.942627" y2="1097.173828" style="stroke: green; stroke-width: 0.200000"/>
   <line x1="883.477905" y1="1096.173828" x2="853.942627" y2="1096.173828" style="stroke: green; stroke-width: 0.200000"/>
   <line x1="883.120178" y1="1095.173828" x2="853.942627" y2="1095.173828" style="stroke: green; stroke-width: 0.200000"/>
   <line x1="882.691772" y1="1094.173828" x2="853.942627" y2="1094.173828" style="stroke: green; stroke-width: 0.200000"/>
   <line x1="882.263428" y1="1093.173828" x2="853.942627" y2="1093.173828" style="stroke: green; stroke-width: 0.200000"/>
   <line x1="881.835083" y1="1092.173828" x2="853.942627" y2="1092.173828" style="stroke: green; stroke-width: 0.200000"/>
   <line x1="881.406799" y1="1091.173828" x2="853.942627" y2="1091.173828" style="stroke: green; stroke-width: 0.200000"/>
   <line x1="881.009460" y1="1090.173828" x2="853.942627" y2="1090.173828" style="stroke: green; stroke-width: 0.200000"/>
   <line x1="880.634399" y1="1089.173828" x2="853.942627" y2="1089.173828" style="stroke: green; stroke-width: 0.200000"/>
   <line x1="880.259338" y1="1088.173828" x2="853.942627" y2="1088.173828" style="stroke: green; stroke-width: 0.200000"/>
   <line x1="879.884338" y1="1087.173828" x2="853.942627" y2="1087.173828" style="stroke: green; stroke-width: 0.200000"/>
   <line x1="879.509338" y1="1086.173828" x2="853.942627" y2="1086.173828" style="stroke: green; stroke-width: 0.200000"/>
   <line x1="878.890869" y1="1085.173828" x2="853.942627" y2="1085.173828" style="stroke: green; stroke-width: 0.200000"/>
   <line x1="878.133545" y1="1084.173828" x2="853.942627" y2="1084.173828" style="stroke: green; stroke-width: 0.200000"/>
   <line x1="877.376160" y1="1083.173828" x2="853.942627" y2="1083.173828" style="stroke: green; stroke-width: 0.200000"/>
   <line x1="876.618896" y1="1082.173828" x2="853.942627" y2="1082.173828" style="stroke: green; stroke-width: 0.200000"/>
   <line x1="875.861572" y1="1081.173828" x2="853.942627" y2="1081.173828" style="stroke: green; stroke-width: 0.200000"/>
   <line x1="875.104309" y1="1080.173828" x2="853.942627" y2="1080.173828" style="stroke: green; stroke-width: 0.200000"/>
   <line x1="874.369507" y1="1079.173828" x2="853.942627" y2="1079.173828" style="stroke: green; stroke-width: 0.200000"/>
   <line x1="873.577332" y1="1078.173828" x2="853.942627" y2="1078.173828" style="stroke: green; stroke-width: 0.200000"/>
   <line x1="872.697693" y1="1077.173828" x2="853.942627" y2="1077.173828" style="stroke: green; stroke-width: 0.200000"/>
   <line x1="871.817993" y1="1076.173828" x2="853.942627" y2="1076.173828" style="stroke: green; stroke-width: 0.200000"/>
   <line x1="870.938354" y1="1075.173828" x2="853.942627" y2="1075.173828" style="stroke: green; stroke-width: 0.200000"/>
   <line x1="870.058655" y1="1074.173828" x2="853.942627" y2="1074.173828" style="stroke: green; stroke-width: 0.200000"/>
   <line x1="869.179016" y1="1073.173828" x2="853.942627" y2="1073.173828" style="stroke: green; stroke-width: 0.200000"/>
   <line x1="868.299316" y1="1072.173828" x2="853.942627" y2="1072.173828" style="stroke: green; stroke-width: 0.200000"/>
   <line x1="867.419678" y1="1071.173828" x2="853.942627" y2="1071.173828" style="stroke: green; stroke-width: 0.200000"/>
   <line x1="866.359924" y1="1070.173828" x2="853.942627" y2="1070.173828" style="stroke: green; stroke-width: 0.200000"/>
   <line x1="865.096130" y1="1069.173828" x2="853.942627" y2="1069.173828" style="stroke: green; stroke-width: 0.200000"/>
   <line x1="863.640381" y1="1068.173828" x2="853.942627" y2="1068.173828" style="stroke: green; stroke-width: 0.200000"/>
   <line x1="862.215271" y1="1067.173828" x2="853.942627" y2="1067.173828" style="stroke: green; stroke-width: 0.200000"/>
   <line x1="860.960571" y1="1066.173828" x2="853.942627" y2="1066.173828" style="stroke: green; stroke-width: 0.200000"/>
   <line x1="859.705750" y1="1065.173828" x2="853.942627" y2="1065.173828" style="stroke: green; stroke-width: 0.200000"/>
   <line x1="858.450989" y1="1064.173828" x2="853.942627" y2="1064.173828" style="stroke: green; stroke-width: 0.200000"/>
   <line x1="803.742615" y1="1163.173828" x2="766.599060" y2="1163.173828" style="stroke: green; stroke-width: 0.200000"/>
   <line x1="803.742615" y1="1162.173828" x2="766.102783" y2="1162.173828" style="stroke: green; stroke-width: 0.200000"/>
   <line x1="803.742615" y1="1161.173828" x2="765.606384" y2="1161.173828" style="stroke: green; stroke-width: 0.200000"/>
   <line x1="803.742615" y1="1160.173828" x2="765.110107" y2="1160.173828" style="stroke: green; stroke-width: 0.200000"/>
   <line x1="803.742615" y1="1159.173828" x2="764.613708" y2="1159.173828" style="stroke: green; stroke-width: 0.200000"/>
   <line x1="803.742615" y1="1158.173828" x2="764.117371" y2="1158.173828" style="stroke: green; stroke-width: 0.200000"/>
   <line x1="803.742615" y1="1157.173828" x2="763.621094" y2="1157.173828" style="stroke: green; stroke-width: 0.200000"/>
   <line x1="803.742615" y1="1156.173828" x2="763.249146" y2="1156.173828" style="stroke: green; stroke-width: 0.200000"/>
   <line x1="803.742615" y1="1155.173828" x2="762.982056" y2="1155.173828" style="stroke: green; stroke-width: 0.200000"/>
   <line x1="803.742615" y1="1154.173828" x2="762.714966" y2="1154.173828" style="stroke: green; stroke-width: 0.200000"/>
   <line x1="803.742615" y1="1153.173828" x2="762.447876" y2="1153.173828" style="stroke: green; stroke-width: 0.200000"/>
   <line x1="803.742615" y1="1152.173828" x2="762.180786" y2="1152.173828" style="stroke: green; stroke-width: 0.200000"/>
   <line x1="803.742615" y1="1151.173828" x2="761.913757" y2="1151.173828" style="stroke: green; stroke-width: 0.200000"/>
   <line x1="803.742615" y1="1150.173828" x2="761.646667" y2="1150.173828" style="stroke: green; stroke-width: 0.200000"/>
   <line x1="803.742615" y1="1149.173828" x2="761.379517" y2="1149.173828" style="stroke: green; stroke-width: 0.200000"/>
   <line x1="803.742615" y1="1148.173828" x2="761.112427" y2="1148.173828" style="stroke: green; stroke-width: 0.200000"/>
   <line x1="803.742615" y1="1147.173828" x2="760.864197" y2="1147.173828" style="stroke: green; stroke-width: 0.200000"/>
   <line x1="803.742615" y1="1146.173828" x2="760.574829" y2="1146.173828" style="stroke: green; stroke-width: 0.200000"/>
   <line x1="803.742615" y1="1145.173828" x2="760.264526" y2="1145.173828" style="stroke: green; stroke-width: 0.200000"/>
   <line x1="803.742615" y1="1144.173828" x2="759.954285" y2="1144.173828" style="stroke: green; stroke-width: 0.200000"/>
   <line x1="803.742615" y1="1143.173828" x2="759.644043" y2="1143.173828" style="stroke: green; stroke-width: 0.200000"/>
   <line x1="803.742615" y1="1142.173828" x2="759.333740" y2="1142.173828" style="stroke: green; stroke-width: 0.200000"/>
   <line x1="803.742615" y1="1141.173828" x2="759.023499" y2="1141.173828" style="stroke: green; stroke-width: 0.200000"/>
   <line x1="803.742615" y1="1140.173828" x2="758.713257" y2="1140.173828" style="stroke: green; stroke-width: 0.200000"/>
   <line x1="803.742615" y1="1139.173828" x2="758.403015" y2="1139.173828" style="stroke: green; stroke-width: 0.200000"/>
   <line x1="803.742615" y1="1138.173828" x2="758.131104" y2="1138.173828" style="stroke: green; stroke-width: 0.200000"/>
   <line x1="803.742615" y1="1137.173828" x2="757.946167" y2="1137.173828" style="stroke: green; stroke-width: 0.200000"/>
   <line x1="803.742615" y1="1136.173828" x2="757.761292" y2="1136.173828" style="stroke: green; stroke-width: 0.200000"/>
   <line x1="803.742615" y1="1135.173828" x2="757.576355" y2="1135.173828" style="stroke: green; stroke-width: 0.200000"/>
   <line x1="803.742615" y1="1134.173828" x2="757.391418" y2="1134.173828" style="stroke: green; stroke-width: 0.200000"/>
   <line x1="803.742615" y1="1133.173828" x2="757.206482" y2="1133.173828" style="stroke: green; stroke-width: 0.200000"/>
   <line x1="803.742615" y1="1132.173828" x2="757.021606" y2="1132.173828" style="stroke: green; stroke-width: 0.200000"/>
   <line x1="803.742615" y1="1131.173828" x2="756.761536" y2="1131.173828" style="stroke: green; stroke-width: 0.200000"/>
   <line x1="803.742615" y1="1130.173828" x2="756.375000" y2="1130.173828" style="stroke: green; stroke-width: 0.200000"/>
   <line x1="803.742615" y1="1129.173828" x2="755.988403" y2="1129.173828" style="stroke: green; stroke-width: 0.200000"/>
   <line x1="803.742615" y1="1128.173828" x2="755.601807" y2="1128.173828" style="stroke: green; stroke-width: 0.200000"/>
   <line x1="803.742615" y1="1127.173828" x2="755.261169" y2="1127.173828" style="stroke: green; stroke-width: 0.200000"/>
   <line x1="803.742615" y1="1126.173828" x2="755.114807" y2="1126.173828" style="stroke: green; stroke-width: 0.200000"/>
   <line x1="803.742615" y1="1125.173828" x2="754.968506" y2="1125.173828" style="stroke: green; stroke-width: 0.200000"/>
   <line x1="803.742615" y1="1124.173828" x2="754.822144" y2="1124.173828" style="stroke: green; stroke-width: 0.200000"/>
   <line x1="803.742615" y1="1123.173828" x2="754.675842" y2="1123.173828" style="stroke: green; stroke-width: 0.200000"/>
   <line x1="803.742615" y1="1122.173828" x2="754.529419" y2="1122.173828" style="stroke: green; stroke-width: 0.200000"/>
   <line x1="803.742615" y1="1121.173828" x2="754.383057" y2="1121.173828" style="stroke: green; stroke-width: 0.200000"/>
   <line x1="803.742615" y1="1120.173828" x2="754.236755" y2="1120.173828" style="stroke: green; stroke-width: 0.200000"/>
   <line x1="803.742615" y1="1119.173828" x2="754.090454" y2="1119.173828" style="stroke: green; stroke-width: 0.200000"/>
   <line x1="803.742615" y1="1118.173828" x2="753.916016" y2="1118.173828" style="stroke: green; stroke-width: 0.200000"/>
   <line x1="803.742615" y1="1117.173828" x2="753.743225" y2="1117.173828" style="stroke: green; stroke-width: 0.200000"/>
   <line x1="803.742615" y1="1116.173828" x2="753.822510" y2="1116.173828" style="stroke: green; stroke-width: 0.200000"/>
   <line x1="803.742615" y1="1115.173828" x2="753.901733" y2="1115.173828" style="stroke: green; stroke-width: 0.200000"/>
   <line x1="803.742615" y1="1114.173828" x2="753.981018" y2="1114.173828" style="stroke: green; stroke-width: 0.200000"/>
   <line x1="853.842651" y1="1163.173828" x2="803.842651" y2="1163.173828" style="stroke: green; stroke-width: 0.200000"/>
   <line x1="853.842651" y1="1162.173828" x2="803.842651" y2="1162.173828" style="stroke: green; stroke-width: 0.200000"/>
   <line x1="853.842651" y1="1161.173828" x2="803.842651" y2="1161.173828" style="stroke: green; stroke-width: 0.200000"/>
   <line x1="853.842651" y1="1160.173828" x2="803.842651" y2="1160.173828" style="stroke: green; stroke-width: 0.200000"/>
   <line x1="853.842651" y1="1159.173828" x2="803.842651" y2="1159.173828" style="stroke: green; stroke-width: 0.200000"/>
   <line x1="853.842651" y1="1158.173828" x2="803.842651" y2="1158.173828" style="stroke: green; stroke-width: 0.200000"/>
   <line x1="853.842651" y1="1157.173828" x2="803.842651" y2="1157.173828" style="stroke: green; stroke-width: 0.200000"/>
   <line x1="853.842651" y1="1156.173828" x2="803.842651" y2="1156.173828" style="stroke: green; stroke-width: 0.200000"/>
   <line x1="853.842651" y1="1155.173828" x2="803.842651" y2="1155.173828" style="stroke: green; stroke-width: 0.200000"/>
   <line x1="853.842651" y1="1154.173828" x2="803.842651" y2="1154.173828" style="stroke: green; stroke-width: 0.200000"/>
   <line x1="853.842651" y1="1153.173828" x2="803.842651" y2="1153.173828" style="stroke: green; stroke-width: 0.200000"/>
   <line x1="853.842651" y1="1152.173828" x2="803.842651" y2="1152.173828" style="stroke: green; stroke-width: 0.200000"/>
   <line x1="853.842651" y1="1151.173828" x2="803.842651" y2="1151.173828" style="stroke: green; stroke-width: 0.200000"/>
   <line x1="853.842651" y1="1150.173828" x2="803.842651" y2="1150.173828" style="stroke: green; stroke-width: 0.200000"/>
   <line x1="853.842651" y1="1149.173828" x2="803.842651" y2="1149.173828" style="stroke: green; stroke-width: 0.200000"/>
   <line x1="853.842651" y1="1148.173828" x2="803.842651" y2="1148.173828" style="stroke: green; stroke-width: 0.200000"/>
   <line x1="853.842651" y1="1147.173828" x2="803.842651" y2="1147.173828" style="stroke: green; stroke-width: 0.200000"/>
   <line x1="853.842651" y1="1146.173828" x2="803.842651" y2="1146.173828" style="stroke: green; stroke-width: 0.200000"/>
   <line x1="853.842651" y1="1145.173828" x2="803.842651" y2="1145.173828" style="stroke: green; stroke-width: 0.200000"/>
   <line x1="853.842651" y1="1144.173828" x2="803.842651" y2="1144.173828" style="stroke: green; stroke-width: 0.200000"/>
   <line x1="853.842651" y1="1143.173828" x2="803.842651" y2="1143.173828" style="stroke: green; stroke-width: 0.200000"/>
   <line x1="853.842651" y1="1142.173828" x2="803.842651" y2="1142.173828" style="stroke: green; stroke-width: 0.200000"/>
   <line x1="853.842651" y1="1141.173828" x2="803.842651" y2="1141.173828" style="stroke: green; stroke-width: 0.200000"/>
   <line x1="853.842651" y1="1140.173828" x2="803.842651" y2="1140.173828" style="stroke: green; stroke-width: 0.200000"/>
   <line x1="853.842651" y1="1139.173828" x2="803.842651" y2="1139.173828" style="stroke: green; stroke-width: 0.200000"/>
   <line x1="853.842651" y1="1138.173828" x2="803.842651" y2="1138.173828" style="stroke: green; stroke-width: 0.200000"/>
   <line x1="853.842651" y1="1137.173828" x2="803.842651" y2="1137.173828" style="stroke: green; stroke-width: 0.200000"/>
   <line x1="853.842651" y1="1136.173828" x2="803.842651" y2="1136.173828" style="stroke: green; stroke-width: 0.200000"/>
   <line x1="853.842651" y1="1135.173828" x2="803.842651" y2="1135.173828" style="stroke: green; stroke-width: 0.200000"/>
   <line x1="853.842651" y1="1134.173828" x2="803.842651" y2="1134.173828" style="stroke: green; stroke-width: 0.200000"/>
   <line x1="853.842651" y1="1133.173828" x2="803.842651" y2="1133.173828" style="stroke: green; stroke-width: 0.200000"/>
   <line x1="853.842651" y1="1132.173828" x2="803.842651" y2="1132.173828" style="stroke: green; stroke-width: 0.200000"/>
   <line x1="853.842651" y1="1131.173828" x2="803.842651" y2="1131.173828" style="stroke: green; stroke-width: 0.200000"/>
   <line x1="853.842651" y1="1130.173828" x2="803.842651" y2="1130.173828" style="stroke: green; stroke-width: 0.200000"/>
   <line x1="853.842651" y1="1129.173828" x2="803.842651" y2="1129.173828" style="stroke: green; stroke-width: 0.200000"/>
   <line x1="853.842651" y1="1128.173828" x2="803.842651" y2="1128.173828" style="stroke: green; stroke-width: 0.200000"/>
   <line x1="853.842651" y1="1127.173828" x2="803.842651" y2="1127.173828" style="stroke: green; stroke-width: 0.200000"/>
   <line x1="853.842651" y1="1126.173828" x2="803.842651" y2="1126.173828" style="stroke: green; stroke-width: 0.200000"/>
   <line x1="853.842651" y1="1125.173828" x2="803.842651" y2="1125.173828" style="stroke: green; stroke-width: 0.200000"/>
   <line x1="853.842651" y1="1124.173828" x2="803.842651" y2="1124.173828" style="stroke: green; stroke-width: 0.200000"/>
   <line x1="853.842651" y1="1123.173828" x2="803.842651" y2="1123.173828" style="stroke: green; stroke-width: 0.200000"/>
   <line x1="853.842651" y1="1122.173828" x2="803.842651" y2="1122.173828" style="stroke: green; stroke-width: 0.200000"/>
   <line x1="853.842651" y1="1121.173828" x2="803.842651" y2="1121.173828" style="stroke: green; stroke-width: 0.200000"/>
   <line x1="853.842651" y1="1120.173828" x2="803.842651" y2="1120.173828" style="stroke: green; stroke-width: 0.200000"/>
   <line x1="853.842651" y1="1119.173828" x2="803.842651" y2="1119.173828" style="stroke: green; stroke-width: 0.200000"/>
   <line x1="853.842651" y1="1118.173828" x2="803.842651" y2="1118.173828" style="stroke: green; stroke-width: 0.200000"/>
   <line x1="853.842651" y1="1117.173828" x2="803.842651" y2="1117.173828" style="stroke: green; stroke-width: 0.200000"/>
   <line x1="853.842651" y1="1116.173828" x2="803.842651" y2="1116.173828" style="stroke: green; stroke-width: 0.200000"/>
   <line x1="853.842651" y1="1115.173828" x2="803.842651" y2="1115.173828" style="stroke: green; stroke-width: 0.200000"/>
   <line x1="853.842651" y1="1114.173828" x2="803.842651" y2="1114.173828" style="stroke: green; stroke-width: 0.200000"/>
   <line x1="889.983643" y1="1163.173828" x2="853.942627" y2="1163.173828" style="stroke: green; stroke-width: 0.200000"/>
   <line x1="890.309692" y1="1162.173828" x2="853.942627" y2="1162.173828" style="stroke: green; stroke-width: 0.200000"/>
   <line x1="890.635681" y1="1161.173828" x2="853.942627" y2="1161.173828" style="stroke: green; stroke-width: 0.200000"/>
   <line x1="890.961670" y1="1160.173828" x2="853.942627" y2="1160.173828" style="stroke: green; stroke-width: 0.200000"/>
   <line x1="891.287720" y1="1159.173828" x2="853.942627" y2="1159.173828" style="stroke: green; stroke-width: 0.200000"/>
   <line x1="891.613708" y1="1158.173828" x2="853.942627" y2="1158.173828" style="stroke: green; stroke-width: 0.200000"/>
   <line x1="891.939758" y1="1157.173828" x2="853.942627" y2="1157.173828" style="stroke: green; stroke-width: 0.200000"/>
   <line x1="892.265747" y1="1156.173828" x2="853.942627" y2="1156.173828" style="stroke: green; stroke-width: 0.200000"/>
   <line x1="892.528198" y1="1155.173828" x2="853.942627" y2="1155.173828" style="stroke: green; stroke-width: 0.200000"/>
   <line x1="892.694092" y1="1154.173828" x2="853.942627" y2="1154.173828" style="stroke: green; stroke-width: 0.200000"/>
   <line x1="892.859985" y1="1153.173828" x2="853.942627" y2="1153.173828" style="stroke: green; stroke-width: 0.200000"/>
   <line x1="893.025818" y1="1152.173828" x2="853.942627" y2="1152.173828" style="stroke: green; stroke-width: 0.200000"/>
   <line x1="893.191650" y1="1151.173828" x2="853.942627" y2="1151.173828" style="stroke: green; stroke-width: 0.200000"/>
   <line x1="893.357544" y1="1150.173828" x2="853.942627" y2="1150.173828" style="stroke: green; stroke-width: 0.200000"/>
   <line x1="893.523438" y1="1149.173828" x2="853.942627" y2="1149.173828" style="stroke: green; stroke-width: 0.200000"/>
   <line x1="893.705505" y1="1148.173828" x2="853.942627" y2="1148.173828" style="stroke: green; stroke-width: 0.200000"/>
   <line x1="893.897400" y1="1147.173828" x2="853.942627" y2="1147.173828" style="stroke: green; stroke-width: 0.200000"/>
   <line x1="894.079590" y1="1146.173828" x2="853.942627" y2="1146.173828" style="stroke: green; stroke-width: 0.200000"/>
   <line x1="894.120728" y1="1145.173828" x2="853.942627" y2="1145.173828" style="stroke: green; stroke-width: 0.200000"/>
   <line x1="894.157349" y1="1144.173828" x2="853.942627" y2="1144.173828" style="stroke: green; stroke-width: 0.200000"/>
   <line x1="894.119873" y1="1143.173828" x2="853.942627" y2="1143.173828" style="stroke: green; stroke-width: 0.200000"/>
   <line x1="894.082520" y1="1142.173828" x2="853.942627" y2="1142.173828" style="stroke: green; stroke-width: 0.200000"/>
   <line x1="894.045044" y1="1141.173828" x2="853.942627" y2="1141.173828" style="stroke: green; stroke-width: 0.200000"/>
   <line x1="894.007629" y1="1140.173828" x2="853.942627" y2="1140.173828" style="stroke: green; stroke-width: 0.200000"/>
   <line x1="893.970276" y1="1139.173828" x2="853.942627" y2="1139.173828" style="stroke: green; stroke-width: 0.200000"/>
   <line x1="893.932800" y1="1138.173828" x2="853.942627" y2="1138.173828" style="stroke: green; stroke-width: 0.200000"/>
   <line x1="893.895386" y1="1137.173828" x2="853.942627" y2="1137.173828" style="stroke: green; stroke-width: 0.200000"/>
   <line x1="893.857971" y1="1136.173828" x2="853.942627" y2="1136.173828" style="stroke: green; stroke-width: 0.200000"/>
   <line x1="893.780823" y1="1135.173828" x2="853.942627" y2="1135.173828" style="stroke: green; stroke-width: 0.200000"/>
   <line x1="893.688660" y1="1134.173828" x2="853.942627" y2="1134.173828" style="stroke: green; stroke-width: 0.200000"/>
   <line x1="893.596497" y1="1133.173828" x2="853.942627" y2="1133.173828" style="stroke: green; stroke-width: 0.200000"/>
   <line x1="893.504333" y1="1132.173828" x2="853.942627" y2="1132.173828" style="stroke: green; stroke-width: 0.200000"/>
   <line x1="893.412170" y1="1131.173828" x2="853.942627" y2="1131.173828" style="stroke: green; stroke-width: 0.200000"/>
   <line x1="893.280762" y1="1130.173828" x2="853.942627" y2="1130.173828" style="stroke: green; stroke-width: 0.200000"/>
   <line x1="893.090271" y1="1129.173828" x2="853.942627" y2="1129.173828" style="stroke: green; stroke-width: 0.200000"/>
   <line x1="892.899780" y1="1128.173828" x2="853.942627" y2="1128.173828" style="stroke: green; stroke-width: 0.200000"/>
   <line x1="892.709290" y1="1127.173828" x2="853.942627" y2="1127.173828" style="stroke: green; stroke-width: 0.200000"/>
   <line x1="892.518799" y1="1126.173828" x2="853.942627" y2="1126.173828" style="stroke: green; stroke-width: 0.200000"/>
   <line x1="892.319946" y1="1125.173828" x2="853.942627" y2="1125.173828" style="stroke: green; stroke-width: 0.200000"/>
   <line x1="892.108215" y1="1124.173828" x2="853.942627" y2="1124.173828" style="stroke: green; stroke-width: 0.200000"/>
   <line x1="891.896423" y1="1123.173828" x2="853.942627" y2="1123.173828" style="stroke: green; stroke-width: 0.200000"/>
   <line x1="891.684692" y1="1122.173828" x2="853.942627" y2="1122.173828" style="stroke: green; stroke-width: 0.200000"/>
   <line x1="891.472900" y1="1121.173828" x2="853.942627" y2="1121.173828" style="stroke: green; stroke-width: 0.200000"/>
   <line x1="891.261292" y1="1120.173828" x2="853.942627" y2="1120.173828" style="stroke: green; stroke-width: 0.200000"/>
   <line x1="891.034546" y1="1119.173828" x2="853.942627" y2="1119.173828" style="stroke: green; stroke-width: 0.200000"/>
   <line x1="890.760498" y1="1118.173828" x2="853.942627" y2="1118.173828" style="stroke: green; stroke-width: 0.200000"/>
   <line x1="890.486450" y1="1117.173828" x2="853.942627" y2="1117.173828" style="stroke: green; stroke-width: 0.200000"/>
   <line x1="890.212402" y1="1116.173828" x2="853.942627" y2="1116.173828" style="stroke: green; stroke-width: 0.200000"/>
   <line x1="889.938354" y1="1115.173828" x2="853.942627" y2="1115.173828" style="stroke: green; stroke-width: 0.200000"/>
   <line x1="889.630432" y1="1114.173828" x2="853.942627" y2="1114.173828" style="stroke: green; stroke-width: 0.200000"/>
   <line x1="803.742615" y1="1197.173828" x2="801.963440" y2="1197.173828" style="stroke: green; stroke-width: 0.200000"/>
   <line x1="803.742615" y1="1196.173828" x2="800.039795" y2="1196.173828" style="stroke: green; stroke-width: 0.200000"/>
   <line x1="803.742615" y1="1195.173828" x2="798.116211" y2="1195.173828" style="stroke: green; stroke-width: 0.200000"/>
   <line x1="803.742615" y1="1194.173828" x2="796.211182" y2="1194.173828" style="stroke: green; stroke-width: 0.200000"/>
   <line x1="803.742615" y1="1193.173828" x2="794.499756" y2="1193.173828" style="stroke: green; stroke-width: 0.200000"/>
   <line x1="803.742615" y1="1192.173828" x2="793.141846" y2="1192.173828" style="stroke: green; stroke-width: 0.200000"/>
   <line x1="803.742615" y1="1191.173828" x2="792.048279" y2="1191.173828" style="stroke: green; stroke-width: 0.200000"/>
   <line x1="803.742615" y1="1190.173828" x2="790.954651" y2="1190.173828" style="stroke: green; stroke-width: 0.200000"/>
   <line x1="803.742615" y1="1189.173828" x2="789.861084" y2="1189.173828" style="stroke: green; stroke-width: 0.200000"/>
   <line x1="803.742615" y1="1188.173828" x2="788.767456" y2="1188.173828" style="stroke: green; stroke-width: 0.200000"/>
   <line x1="803.742615" y1="1187.173828" x2="787.673889" y2="1187.173828" style="stroke: green; stroke-width: 0.200000"/>
   <line x1="803.742615" y1="1186.173828" x2="786.610352" y2="1186.173828" style="stroke: green; stroke-width: 0.200000"/>
   <line x1="803.742615" y1="1185.173828" x2="785.605347" y2="1185.173828" style="stroke: green; stroke-width: 0.200000"/>
   <line x1="803.742615" y1="1184.173828" x2="784.600281" y2="1184.173828" style="stroke: green; stroke-width: 0.200000"/>
   <line x1="803.742615" y1="1183.173828" x2="783.595276" y2="1183.173828" style="stroke: green; stroke-width: 0.200000"/>
   <line x1="803.742615" y1="1182.173828" x2="782.590332" y2="1182.173828" style="stroke: green; stroke-width: 0.200000"/>
   <line x1="803.742615" y1="1181.173828" x2="781.585327" y2="1181.173828" style="stroke: green; stroke-width: 0.200000"/>
   <line x1="803.742615" y1="1180.173828" x2="780.580322" y2="1180.173828" style="stroke: green; stroke-width: 0.200000"/>
   <line x1="803.742615" y1="1179.173828" x2="779.584595" y2="1179.173828" style="stroke: green; stroke-width: 0.200000"/>
   <line x1="803.742615" y1="1178.173828" x2="778.649658" y2="1178.173828" style="stroke: green; stroke-width: 0.200000"/>
   <line x1="803.742615" y1="1177.173828" x2="777.651367" y2="1177.173828" style="stroke: green; stroke-width: 0.200000"/>
   <line x1="803.742615" y1="1176.173828" x2="776.646057" y2="1176.173828" style="stroke: green; stroke-width: 0.200000"/>
   <line x1="803.742615" y1="1175.173828" x2="775.640808" y2="1175.173828" style="stroke: green; stroke-width: 0.200000"/>
   <line x1="803.742615" y1="1174.173828" x2="774.635498" y2="1174.173828" style="stroke: green; stroke-width: 0.200000"/>
   <line x1="803.742615" y1="1173.173828" x2="773.630249" y2="1173.173828" style="stroke: green; stroke-width: 0.200000"/>
   <line x1="803.742615" y1="1172.173828" x2="772.687256" y2="1172.173828" style="stroke: green; stroke-width: 0.200000"/>
   <line x1="803.742615" y1="1171.173828" x2="771.993164" y2="1171.173828" style="stroke: green; stroke-width: 0.200000"/>
   <line x1="803.742615" y1="1170.173828" x2="771.299133" y2="1170.173828" style="stroke: green; stroke-width: 0.200000"/>
   <line x1="803.742615" y1="1169.173828" x2="770.605164" y2="1169.173828" style="stroke: green; stroke-width: 0.200000"/>
   <line x1="803.742615" y1="1168.173828" x2="769.911133" y2="1168.173828" style="stroke: green; stroke-width: 0.200000"/>
   <line x1="803.742615" y1="1167.173828" x2="769.217041" y2="1167.173828" style="stroke: green; stroke-width: 0.200000"/>
   <line x1="803.742615" y1="1166.173828" x2="768.401245" y2="1166.173828" style="stroke: green; stroke-width: 0.200000"/>
   <line x1="803.742615" y1="1165.173828" x2="767.591797" y2="1165.173828" style="stroke: green; stroke-width: 0.200000"/>
   <line x1="803.742615" y1="1164.173828" x2="767.095398" y2="1164.173828" style="stroke: green; stroke-width: 0.200000"/>
   <line x1="836.723877" y1="1203.173828" x2="822.485840" y2="1203.173828" style="stroke: green; stroke-width: 0.200000"/>
   <line x1="841.014893" y1="1202.173828" x2="817.482788" y2="1202.173828" style="stroke: green; stroke-width: 0.200000"/>
   <line x1="844.845642" y1="1201.173828" x2="813.588867" y2="1201.173828" style="stroke: green; stroke-width: 0.200000"/>
   <line x1="847.797791" y1="1200.173828" x2="810.117798" y2="1200.173828" style="stroke: green; stroke-width: 0.200000"/>
   <line x1="850.750000" y1="1199.173828" x2="807.294006" y2="1199.173828" style="stroke: green; stroke-width: 0.200000"/>
   <line x1="853.369141" y1="1198.173828" x2="804.600952" y2="1198.173828" style="stroke: green; stroke-width: 0.200000"/>
   <line x1="853.842651" y1="1197.173828" x2="803.842651" y2="1197.173828" style="stroke: green; stroke-width: 0.200000"/>
   <line x1="853.842651" y1="1196.173828" x2="803.842651" y2="1196.173828" style="stroke: green; stroke-width: 0.200000"/>
   <line x1="853.842651" y1="1195.173828" x2="803.842651" y2="1195.173828" style="stroke: green; stroke-width: 0.200000"/>
   <line x1="853.842651" y1="1194.173828" x2="803.842651" y2="1194.173828" style="stroke: green; stroke-width: 0.200000"/>
   <line x1="853.842651" y1="1193.173828" x2="803.842651" y2="1193.173828" style="stroke: green; stroke-width: 0.200000"/>
   <line x1="853.842651" y1="1192.173828" x2="803.842651" y2="1192.173828" style="stroke: green; stroke-width: 0.200000"/>
   <line x1="853.842651" y1="1191.173828" x2="803.842651" y2="1191.173828" style="stroke: green; stroke-width: 0.200000"/>
   <line x1="853.842651" y1="1190.173828" x2="803.842651" y2="1190.173828" style="stroke: green; stroke-width: 0.200000"/>
   <line x1="853.842651" y1="1189.173828" x2="803.842651" y2="1189.173828" style="stroke: green; stroke-width: 0.200000"/>
   <line x1="853.842651" y1="1188.173828" x2="803.842651" y2="1188.173828" style="stroke: green; stroke-width: 0.200000"/>
   <line x1="853.842651" y1="1187.173828" x2="803.842651" y2="1187.173828" style="stroke: green; stroke-width: 0.200000"/>
   <line x1="853.842651" y1="1186.173828" x2="803.842651" y2="1186.173828" style="stroke: green; stroke-width: 0.200000"/>
   <line x1="853.842651" y1="1185.173828" x2="803.842651" y2="1185.173828" style="stroke: green; stroke-width: 0.200000"/>
   <line x1="853.842651" y1="1184.173828" x2="803.842651" y2="1184.173828" style="stroke: green; stroke-width: 0.200000"/>
   <line x1="853.842651" y1="1183.173828" x2="803.842651" y2="1183.173828" style="stroke: green; stroke-width: 0.200000"/>
   <line x1="853.842651" y1="1182.173828" x2="803.842651" y2="1182.173828" style="stroke: green; stroke-width: 0.200000"/>
   <line x1="853.842651" y1="1181.173828" x2="803.842651" y2="1181.173828" style="stroke: green; stroke-width: 0.200000"/>
   <line x1="853.842651" y1="1180.173828" x2="803.842651" y2="1180.173828" style="stroke: green; stroke-width: 0.200000"/>
   <line x1="853.842651" y1="1179.173828" x2="803.842651" y2="1179.173828" style="stroke: green; stroke-width: 0.200000"/>
   <line x1="853.842651" y1="1178.173828" x2="803.842651" y2="1178.173828" style="stroke: green; stroke-width: 0.200000"/>
   <line x1="853.842651" y1="1177.173828" x2="803.842651" y2="1177.173828" style="stroke: green; stroke-width: 0.200000"/>
   <line x1="853.842651" y1="1176.173828" x2="803.842651" y2="1176.173828" style="stroke: green; stroke-width: 0.200000"/>
   <line x1="853.842651" y1="1175.173828" x2="803.842651" y2="1175.173828" style="stroke: green; stroke-width: 0.200000"/>
   <line x1="853.842651" y1="1174.173828" x2="803.842651" y2="1174.173828" style="stroke: green; stroke-width: 0.200000"/>
   <line x1="853.842651" y1="1173.173828" x2="803.842651" y2="1173.173828" style="stroke: green; stroke-width: 0.200000"/>
   <line x1="853.842651" y1="1172.173828" x2="803.842651" y2="1172.173828" style="stroke: green; stroke-width: 0.200000"/>
   <line x1="853.842651" y1="1171.173828" x2="803.842651" y2="1171.173828" style="stroke: green; stroke-width: 0.200000"/>
   <line x1="853.842651" y1="1170.173828" x2="803.842651" y2="1170.173828" style="stroke: green; stroke-width: 0.200000"/>
   <line x1="853.842651" y1="1169.173828" x2="803.842651" y2="1169.173828" style="stroke: green; stroke-width: 0.200000"/>
   <line x1="853.842651" y1="1168.173828" x2="803.842651" y2="1168.173828" style="stroke: green; stroke-width: 0.200000"/>
   <line x1="853.842651" y1="1167.173828" x2="803.842651" y2="1167.173828" style="stroke: green; stroke-width: 0.200000"/>
   <line x1="853.842651" y1="1166.173828" x2="803.842651" y2="1166.173828" style="stroke: green; stroke-width: 0.200000"/>
   <line x1="853.842651" y1="1165.173828" x2="803.842651" y2="1165.173828" style="stroke: green; stroke-width: 0.200000"/>
   <line x1="853.842651" y1="1164.173828" x2="803.842651" y2="1164.173828" style="stroke: green; stroke-width: 0.200000"/>
   <line x1="855.465942" y1="1197.173828" x2="853.942627" y2="1197.173828" style="stroke: green; stroke-width: 0.200000"/>
   <line x1="857.549194" y1="1196.173828" x2="853.942627" y2="1196.173828" style="stroke: green; stroke-width: 0.200000"/>
   <line x1="859.589783" y1="1195.173828" x2="853.942627" y2="1195.173828" style="stroke: green; stroke-width: 0.200000"/>
   <line x1="861.562378" y1="1194.173828" x2="853.942627" y2="1194.173828" style="stroke: green; stroke-width: 0.200000"/>
   <line x1="862.981873" y1="1193.173828" x2="853.942627" y2="1193.173828" style="stroke: green; stroke-width: 0.200000"/>
   <line x1="864.401306" y1="1192.173828" x2="853.942627" y2="1192.173828" style="stroke: green; stroke-width: 0.200000"/>
   <line x1="865.820862" y1="1191.173828" x2="853.942627" y2="1191.173828" style="stroke: green; stroke-width: 0.200000"/>
   <line x1="867.240356" y1="1190.173828" x2="853.942627" y2="1190.173828" style="stroke: green; stroke-width: 0.200000"/>
   <line x1="868.659790" y1="1189.173828" x2="853.942627" y2="1189.173828" style="stroke: green; stroke-width: 0.200000"/>
   <line x1="869.868774" y1="1188.173828" x2="853.942627" y2="1188.173828" style="stroke: green; stroke-width: 0.200000"/>
   <line x1="871.034851" y1="1187.173828" x2="853.942627" y2="1187.173828" style="stroke: green; stroke-width: 0.200000"/>
   <line x1="872.344299" y1="1186.173828" x2="853.942627" y2="1186.173828" style="stroke: green; stroke-width: 0.200000"/>
   <line x1="873.687744" y1="1185.173828" x2="853.942627" y2="1185.173828" style="stroke: green; stroke-width: 0.200000"/>
   <line x1="874.973389" y1="1184.173828" x2="853.942627" y2="1184.173828" style="stroke: green; stroke-width: 0.200000"/>
   <line x1="875.972839" y1="1183.173828" x2="853.942627" y2="1183.173828" style="stroke: green; stroke-width: 0.200000"/>
   <line x1="877.041382" y1="1182.173828" x2="853.942627" y2="1182.173828" style="stroke: green; stroke-width: 0.200000"/>
   <line x1="878.170288" y1="1181.173828" x2="853.942627" y2="1181.173828" style="stroke: green; stroke-width: 0.200000"/>
   <line x1="879.299194" y1="1180.173828" x2="853.942627" y2="1180.173828" style="stroke: green; stroke-width: 0.200000"/>
   <line x1="880.427979" y1="1179.173828" x2="853.942627" y2="1179.173828" style="stroke: green; stroke-width: 0.200000"/>
   <line x1="881.106323" y1="1178.173828" x2="853.942627" y2="1178.173828" style="stroke: green; stroke-width: 0.200000"/>
   <line x1="881.765015" y1="1177.173828" x2="853.942627" y2="1177.173828" style="stroke: green; stroke-width: 0.200000"/>
   <line x1="882.423645" y1="1176.173828" x2="853.942627" y2="1176.173828" style="stroke: green; stroke-width: 0.200000"/>
   <line x1="883.183228" y1="1175.173828" x2="853.942627" y2="1175.173828" style="stroke: green; stroke-width: 0.200000"/>
   <line x1="883.958191" y1="1174.173828" x2="853.942627" y2="1174.173828" style="stroke: green; stroke-width: 0.200000"/>
   <line x1="884.733154" y1="1173.173828" x2="853.942627" y2="1173.173828" style="stroke: green; stroke-width: 0.200000"/>
   <line x1="885.435120" y1="1172.173828" x2="853.942627" y2="1172.173828" style="stroke: green; stroke-width: 0.200000"/>
   <line x1="885.962524" y1="1171.173828" x2="853.942627" y2="1171.173828" style="stroke: green; stroke-width: 0.200000"/>
   <line x1="886.489990" y1="1170.173828" x2="853.942627" y2="1170.173828" style="stroke: green; stroke-width: 0.200000"/>
   <line x1="887.017456" y1="1169.173828" x2="853.942627" y2="1169.173828" style="stroke: green; stroke-width: 0.200000"/>
   <line x1="887.544861" y1="1168.173828" x2="853.942627" y2="1168.173828" style="stroke: green; stroke-width: 0.200000"/>
   <line x1="888.072266" y1="1167.173828" x2="853.942627" y2="1167.173828" style="stroke: green; stroke-width: 0.200000"/>
   <line x1="888.599792" y1="1166.173828" x2="853.942627" y2="1166.173828" style="stroke: green; stroke-width: 0.200000"/>
   <line x1="889.127197" y1="1165.173828" x2="853.942627" y2="1165.173828" style="stroke: green; stroke-width: 0.200000"/>
   <line x1="889.654602" y1="1164.173828" x2="853.942627" y2="1164.173828" style="stroke: green; stroke-width: 0.200000"/>
   <path d="M 801.743  1012.58  804.738  1012.93  807.627  1014.02  813.713  1015.92  821.487  1020.34  828.516  1026.07  831.529  1029.94  834.411  1033.3  838.799  1040.41  840.019  1042.26  844.563  1049.84  845.002  1050.48  845.608  1051.19  851.507  1056.22  855.995  1060.67  858.627  1062.4  863.3  1066.12  866.749  1068.49  868.409  1070.03  875.174  1077.72  875.935  1078.79  880.701  1085.08  882.62  1090.2  884.546  1094.69  887.712  1103.67  888.046  1104.52  891.274  1114.37  892.559  1119.06  893.873  1125.27  894.844  1130.36  895.345  1135.8  895.661  1144.23  895.571  1146.41  895.062  1149.06  893.923  1155.93  891.162  1164.36  891.058  1164.73  886.545  1173.28  883.731  1176.92  881.619  1180.12  877.467  1183.8  875.789  1185.48  872.196  1188.15  869.822  1190.19  862.174  1195.58  857.714  1197.76  853.119  1199.96  844.141  1203  843.615  1203.15  842.709  1203.32  833.545  1205.45  830.099  1205.4  822.039  1204.64  819.514  1204.24  811.401  1202.16  808.668  1201.28  801.493  1198.62  795.636  1195.57  792.873  1193.96  785.915  1187.6  778.632  1180.35  777.48  1179.12  771.672  1173.34  767.854  1167.84  766.396  1166.14  761.984  1157.25  759.653  1148.52  759.336  1147.24  756.729  1138.84  755.456  1131.96  753.829  1127.75  752.608  1119.4  752.232  1117.25  753.008  1107.46  754.751  1096.63  754.969  1095.53  756.423  1085.9  756.591  1084.52  756.178  1076.15  756.035  1073.91  756.041  1064.59  756.842  1056.95  757.123  1055.6  757.503  1054.51  759.879  1046.41  762.82  1039.61  763.536  1038.28  768.713  1030.4  774.302  1023.83  774.766  1023.43  781.914  1018.07  787.626  1014.36  788.644  1013.87  795.276  1012.32  801.743  1012.58  " style="fill: none; stroke: darkmagenta; stroke-width: 0.200000; fill-type: evenodd"  fill-opacity="1.000000" />
   <path d="M 801.666  1013.58  804.499  1013.91  807.301  1014.97  813.312  1016.84  820.92  1021.17  827.797  1026.77  830.754  1030.57  833.601  1033.89  837.956  1040.95  839.172  1042.8  843.722  1050.38  844.209  1051.09  844.9  1051.9  850.829  1056.96  855.363  1061.45  858.04  1063.21  862.705  1066.92  866.123  1069.27  867.692  1070.73  874.39  1078.34  875.129  1079.38  879.816  1085.57  881.691  1090.57  883.614  1095.06  886.775  1104.02  887.104  1104.85  890.316  1114.66  891.586  1119.3  892.893  1125.47  893.852  1130.5  894.347  1135.87  894.66  1144.23  894.575  1146.3  894.078  1148.89  892.949  1155.69  890.206  1164.07  890.125  1164.35  885.702  1172.74  882.917  1176.33  880.856  1179.46  876.781  1183.07  875.133  1184.72  871.571  1187.37  869.207  1189.4  861.663  1194.71  857.279  1196.86  852.741  1199.03  843.842  1202.04  843.383  1202.17  842.502  1202.34  833.437  1204.45  830.154  1204.4  822.163  1203.65  819.716  1203.26  811.679  1201.2  808.995  1200.34  801.899  1197.7  796.119  1194.7  793.47  1193.15  786.605  1186.87  779.35  1179.65  778.198  1178.42  772.441  1172.7  768.646  1167.23  767.237  1165.58  762.924  1156.89  760.621  1148.27  760.3  1146.97  757.702  1138.6  756.422  1131.68  754.803  1127.49  753.595  1119.24  753.239  1117.2  754.002  1107.58  755.735  1096.81  755.954  1095.71  757.414  1086.03  757.594  1084.56  757.176  1076.09  757.035  1073.88  757.041  1064.64  757.831  1057.11  758.089  1055.87  758.456  1054.82  760.821  1046.75  763.721  1040.05  764.396  1038.79  769.515  1031  775.017  1024.54  775.396  1024.2  782.487  1018.9  788.116  1015.23  788.976  1014.82  795.371  1013.32  801.666  1013.58  " style="fill: none; stroke: black; stroke-width: 0.200000; fill-type: evenodd"  fill-opacity="1.000000" />
   <path d="M 823.166  1348.71  823.946  1349.49  824.232  1350.56  823.946  1351.63  823.166  1352.41  822.099  1352.69  821.033  1352.41  820.253  1351.63  819.967  1350.56  820.253  1349.49  821.033  1348.71  822.099  1348.43  823.166  1348.71  " style="fill: none; stroke: purple; stroke-width: 0.500000; fill-type: evenodd"  fill-opacity="1.000000" />
   <path d="M 843.099  1348.83  843.831  1349.56  844.099  1350.56  843.831  1351.56  843.099  1352.29  842.099  1352.56  841.099  1352.29  840.367  1351.56  840.099  1350.56  840.367  1349.56  841.099  1348.83  842.099  1348.56  843.099  1348.83  " style="fill: none; stroke: purple; stroke-width: 0.500000; fill-type: evenodd"  fill-opacity="1.000000" />
   <path d="M 823.099  1328.83  823.831  1329.56  824.099  1330.56  823.831  1331.56  823.099  1332.29  822.099  1332.56  821.099  1332.29  820.367  1331.56  820.099  1330.56  820.367  1329.56  821.099  1328.83  822.099  1328.56  823.099  1328.83  " style="fill: none; stroke: purple; stroke-width: 0.500000; fill-type: evenodd"  fill-opacity="1.000000" />
   <path d="M 823.099  1308.83  823.831  1309.56  824.099  1310.56  823.831  1311.56  823.099  1312.29  822.099  1312.56  821.099  1312.29  820.367  1311.56  820.099  1310.56  820.367  1309.56  821.099  1308.83  822.099  1308.56  823.099  1308.83  " style="fill: none; stroke: purple; stroke-width: 0.500000; fill-type: evenodd"  fill-opacity="1.000000" />
   <path d="M 803.099  1308.83  803.831  1309.56  804.099  1310.56  803.831  1311.56  803.099  1312.29  802.099  1312.56  801.099  1312.29  800.367  1311.56  800.099  1310.56  800.367  1309.56  801.099  1308.83  802.099  1308.56  803.099  1308.83  " style="fill: none; stroke: purple; stroke-width: 0.500000; fill-type: evenodd"  fill-opacity="1.000000" />
   <path d="M 843.099  1288.83  843.831  1289.56  844.099  1290.56  843.831  1291.56  843.099  1292.29  842.099  1292.56  841.099  1292.29  840.367  1291.56  840.099  1290.56  840.367  1289.56  841.099  1288.83  842.099  1288.56  843.099  1288.83  " style="fill: none; stroke: purple; stroke-width: 0.500000; fill-type: evenodd"  fill-opacity="1.000000" />
   <path d="M 823.099  1288.83  823.831  1289.56  824.099  1290.56  823.831  1291.56  823.099  1292.29  822.099  1292.56  821.099  1292.29  820.367  1291.56  820.099  1290.56  820.367  1289.56  821.099  1288.83  822.099  1288.56  823.099  1288.83  " style="fill: none; stroke: purple; stroke-width: 0.500000; fill-type: evenodd"  fill-opacity="1.000000" />
   <path d="M 803.099  1288.83  803.831  1289.56  804.099  1290.56  803.831  1291.56  803.099  1292.29  802.099  1292.56  801.099  1292.29  800.367  1291.56  800.099  1290.56  800.367  1289.56  801.099  1288.83  802.099  1288.56  803.099  1288.83  " style="fill: none; stroke: purple; stroke-width: 0.500000; fill-type: evenodd"  fill-opacity="1.000000" />
   <path d="M 843.099  1268.83  843.831  1269.56  844.099  1270.56  843.831  1271.56  843.099  1272.29  842.099  1272.56  841.099  1272.29  840.367  1271.56  840.099  1270.56  840.367  1269.56  841.099  1268.83  842.099  1268.56  843.099  1268.83  " style="fill: none; stroke: purple; stroke-width: 0.500000; fill-type: evenodd"  fill-opacity="1.000000" />
   <path d="M 823.099  1268.83  823.831  1269.56  824.099  1270.56  823.831  1271.56  823.099  1272.29  822.099  1272.56  821.099  1272.29  820.367  1271.56  820.099  1270.56  820.367  1269.56  821.099  1268.83  822.099  1268.56  823.099  1268.83  " style="fill: none; stroke: purple; stroke-width: 0.500000; fill-type: evenodd"  fill-opacity="1.000000" />
   <path d="M 1003.99  1244.73  1005.7  1245.6  1007.06  1246.96  1007.93  1248.67  1008.23  1250.56  1007.93  1252.45  1007.06  1254.16  1005.7  1255.52  1003.99  1256.39  1002.1  1256.69  1000.21  1256.39  998.497  1255.52  997.142  1254.16  996.271  1252.45  995.971  1250.56  996.271  1248.67  997.142  1246.96  998.497  1245.6  1000.21  1244.73  1002.1  1244.43  1003.99  1244.73  " style="fill: none; stroke: purple; stroke-width: 0.500000; fill-type: evenodd"  fill-opacity="1.000000" />
   <path d="M 843.099  1248.83  843.831  1249.56  844.099  1250.56  843.831  1251.56  843.099  1252.29  842.099  1252.56  841.099  1252.29  840.367  1251.56  840.099  1250.56  840.367  1249.56  841.099  1248.83  842.099  1248.56  843.099  1248.83  " style="fill: none; stroke: purple; stroke-width: 0.500000; fill-type: evenodd"  fill-opacity="1.000000" />
   <path d="M 803.099  1248.83  803.831  1249.56  804.099  1250.56  803.831  1251.56  803.099  1252.29  802.099  1252.56  801.099  1252.29  800.367  1251.56  800.099  1250.56  800.367  1249.56  801.099  1248.83  802.099  1248.56  803.099  1248.83  " style="fill: none; stroke: purple; stroke-width: 0.500000; fill-type: evenodd"  fill-opacity="1.000000" />
   <path d="M 823.099  1248.83  823.831  1249.56  824.099  1250.56  823.831  1251.56  823.099  1252.29  822.099  1252.56  821.099  1252.29  820.367  1251.56  820.099  1250.56  820.367  1249.56  821.099  1248.83  822.099  1248.56  823.099  1248.83  " style="fill: none; stroke: purple; stroke-width: 0.500000; fill-type: evenodd"  fill-opacity="1.000000" />
   <path d="M 1004.51  1224.41  1006.22  1225.39  1007.56  1226.84  1008.41  1228.61  1008.71  1230.56  1008.41  1232.51  1007.56  1234.28  1006.22  1235.72  1004.51  1236.71  1002.59  1237.15  1000.63  1237  998.796  1236.28  997.257  1235.05  996.148  1233.43  995.567  1231.54  995.567  1229.57  996.148  1227.69  997.257  1226.07  998.796  1224.84  1000.63  1224.12  1002.59  1223.97  1004.51  1224.41  " style="fill: none; stroke: purple; stroke-width: 0.500000; fill-type: evenodd"  fill-opacity="1.000000" />
   <path d="M 984.502  1224.44  986.199  1225.42  987.533  1226.85  988.383  1228.62  988.676  1230.56  988.383  1232.5  987.533  1234.26  986.199  1235.7  984.502  1236.68  982.591  1237.12  980.636  1236.97  978.811  1236.25  977.279  1235.03  976.174  1233.41  975.597  1231.54  975.597  1229.58  976.174  1227.71  977.279  1226.09  978.811  1224.86  980.636  1224.15  982.591  1224  984.502  1224.44  " style="fill: none; stroke: purple; stroke-width: 0.500000; fill-type: evenodd"  fill-opacity="1.000000" />
   <path d="M 964.497  1224.45  966.191  1225.43  967.521  1226.86  968.37  1228.62  968.662  1230.56  968.37  1232.49  967.521  1234.26  966.191  1235.69  964.497  1236.67  962.59  1237.1  960.639  1236.96  958.818  1236.24  957.289  1235.02  956.187  1233.41  955.61  1231.54  955.61  1229.58  956.187  1227.71  957.289  1226.1  958.818  1224.88  960.639  1224.16  962.59  1224.02  964.497  1224.45  " style="fill: none; stroke: purple; stroke-width: 0.500000; fill-type: evenodd"  fill-opacity="1.000000" />
   <path d="M 843.237  1228.59  844.069  1229.42  844.374  1230.56  844.069  1231.7  843.237  1232.53  842.099  1232.83  840.962  1232.53  840.13  1231.7  839.825  1230.56  840.13  1229.42  840.962  1228.59  842.099  1228.28  843.237  1228.59  " style="fill: none; stroke: purple; stroke-width: 0.500000; fill-type: evenodd"  fill-opacity="1.000000" />
   <path d="M 823.099  1228.83  823.831  1229.56  824.099  1230.56  823.831  1231.56  823.099  1232.29  822.099  1232.56  821.099  1232.29  820.367  1231.56  820.099  1230.56  820.367  1229.56  821.099  1228.83  822.099  1228.56  823.099  1228.83  " style="fill: none; stroke: purple; stroke-width: 0.500000; fill-type: evenodd"  fill-opacity="1.000000" />
   <path d="M 1005.19  1203.78  1006.98  1204.93  1008.37  1206.53  1009.25  1208.46  1009.55  1210.56  1009.25  1212.66  1008.37  1214.59  1006.98  1216.19  1005.19  1217.34  1003.16  1217.93  1001.04  1217.93  999.005  1217.34  997.221  1216.19  995.833  1214.59  994.952  1212.66  994.65  1210.56  994.952  1208.46  995.833  1206.53  997.221  1204.93  999.005  1203.78  1001.04  1203.19  1003.16  1203.19  1005.19  1203.78  " style="fill: none; stroke: purple; stroke-width: 0.500000; fill-type: evenodd"  fill-opacity="1.000000" />
   <path d="M 924.627  1204.12  926.414  1205.15  927.817  1206.66  928.711  1208.52  929.019  1210.56  928.711  1212.6  927.817  1214.46  926.414  1215.97  924.627  1217  922.617  1217.46  920.56  1217.31  918.64  1216.55  917.027  1215.27  915.865  1213.56  915.257  1211.59  915.257  1209.53  915.865  1207.56  917.027  1205.85  918.64  1204.57  920.56  1203.81  922.617  1203.66  924.627  1204.12  " style="fill: none; stroke: purple; stroke-width: 0.500000; fill-type: evenodd"  fill-opacity="1.000000" />
   <path d="M 984.52  1204.39  986.23  1205.38  987.573  1206.83  988.43  1208.61  988.724  1210.56  988.43  1212.51  987.573  1214.29  986.23  1215.74  984.52  1216.73  982.594  1217.17  980.625  1217.02  978.787  1216.3  977.243  1215.07  976.13  1213.43  975.548  1211.55  975.548  1209.57  976.13  1207.68  977.243  1206.05  978.787  1204.82  980.625  1204.1  982.594  1203.95  984.52  1204.39  " style="fill: none; stroke: purple; stroke-width: 0.500000; fill-type: evenodd"  fill-opacity="1.000000" />
   <path d="M 964.086  1204.44  965.879  1205.36  967.301  1206.78  968.215  1208.57  968.53  1210.56  968.215  1212.55  967.301  1214.34  965.879  1215.76  964.086  1216.67  962.099  1216.99  960.112  1216.67  958.32  1215.76  956.897  1214.34  955.984  1212.55  955.669  1210.56  955.984  1208.57  956.897  1206.78  958.32  1205.36  960.112  1204.44  962.099  1204.13  964.086  1204.44  " style="fill: none; stroke: purple; stroke-width: 0.500000; fill-type: evenodd"  fill-opacity="1.000000" />
   <path d="M 944.022  1204.64  945.757  1205.53  947.133  1206.9  948.017  1208.64  948.322  1210.56  948.017  1212.48  947.133  1214.22  945.757  1215.59  944.022  1216.48  942.099  1216.78  940.177  1216.48  938.442  1215.59  937.065  1214.22  936.182  1212.48  935.877  1210.56  936.182  1208.64  937.065  1206.9  938.442  1205.53  940.177  1204.64  942.099  1204.34  944.022  1204.64  " style="fill: none; stroke: purple; stroke-width: 0.500000; fill-type: evenodd"  fill-opacity="1.000000" />
   <path d="M 964.613  1184.15  966.389  1185.18  967.784  1186.68  968.674  1188.53  968.98  1190.56  968.674  1192.59  967.784  1194.44  966.389  1195.94  964.613  1196.96  962.614  1197.42  960.568  1197.27  958.659  1196.52  957.056  1195.24  955.9  1193.54  955.296  1191.58  955.296  1189.53  955.9  1187.57  957.056  1185.88  958.659  1184.6  960.568  1183.85  962.614  1183.7  964.613  1184.15  " style="fill: none; stroke: purple; stroke-width: 0.500000; fill-type: evenodd"  fill-opacity="1.000000" />
   <path d="M 906.302  1185.29  907.669  1186.76  908.541  1188.57  908.84  1190.56  908.541  1192.55  907.669  1194.36  906.302  1195.83  904.562  1196.83  902.603  1197.28  900.599  1197.13  898.729  1196.4  897.158  1195.14  897.131  1195.1  898.007  1194.33  901.232  1189.43  904.688  1184.97  904.937  1184.5  906.302  1185.29  " style="fill: none; stroke: purple; stroke-width: 0.500000; fill-type: evenodd"  fill-opacity="1.000000" />
   <path d="M 924.479  1184.5  926.16  1185.47  927.481  1186.89  928.323  1188.64  928.612  1190.56  928.323  1192.48  927.481  1194.23  926.16  1195.65  924.479  1196.62  922.586  1197.05  920.65  1196.91  918.843  1196.2  917.325  1194.99  916.232  1193.39  915.659  1191.53  915.659  1189.59  916.232  1187.73  917.325  1186.13  918.843  1184.92  920.65  1184.21  922.586  1184.06  924.479  1184.5  " style="fill: none; stroke: purple; stroke-width: 0.500000; fill-type: evenodd"  fill-opacity="1.000000" />
   <path d="M 944.085  1184.45  945.876  1185.36  947.298  1186.78  948.21  1188.57  948.525  1190.56  948.21  1192.54  947.298  1194.34  945.876  1195.76  944.085  1196.67  942.099  1196.98  940.114  1196.67  938.323  1195.76  936.901  1194.34  935.988  1192.54  935.674  1190.56  935.988  1188.57  936.901  1186.78  938.323  1185.36  940.114  1184.45  942.099  1184.13  944.085  1184.45  " style="fill: none; stroke: purple; stroke-width: 0.500000; fill-type: evenodd"  fill-opacity="1.000000" />
   <path d="M 944.183  1162.78  946.125  1163.59  947.792  1164.87  949.072  1166.53  949.876  1168.48  950.151  1170.56  949.876  1172.64  949.072  1174.58  947.792  1176.25  946.125  1177.53  944.183  1178.34  942.099  1178.61  940.016  1178.34  938.074  1177.53  936.406  1176.25  935.127  1174.58  934.322  1172.64  934.048  1170.56  934.322  1168.48  935.127  1166.53  936.406  1164.87  938.074  1163.59  940.016  1162.78  942.099  1162.51  944.183  1162.78  " style="fill: none; stroke: purple; stroke-width: 0.500000; fill-type: evenodd"  fill-opacity="1.000000" />
   <path d="M 925.053  1164.09  926.756  1165.19  928.082  1166.71  928.922  1168.56  929.211  1170.56  928.922  1172.56  928.082  1174.4  926.756  1175.93  925.053  1177.03  923.111  1177.6  921.087  1177.6  919.145  1177.03  917.443  1175.93  916.117  1174.4  915.276  1172.56  914.988  1170.56  915.276  1168.56  916.117  1166.71  917.443  1165.19  919.145  1164.09  921.087  1163.52  923.111  1163.52  925.053  1164.09  " style="fill: none; stroke: purple; stroke-width: 0.500000; fill-type: evenodd"  fill-opacity="1.000000" />
</svg>
