<?xml version="1.0" encoding="UTF-8" standalone="yes"?>
<!DOCTYPE svg PUBLIC "-//W3C//DTD SVG 1.0//EN" "http://www.w3.org/TR/2001/REC-SVG-20010904/DTD/svg10.dtd">
<svg height="2000" width="2000" xmlns="http://www.w3.org/2000/svg" xmlns:svg="http://www.w3.org/2000/svg" xmlns:xlink="http://www.w3.org/1999/xlink">
   <marker id="endArrow" markerHeight="8" markerUnits="strokeWidth" markerWidth="10" orient="auto" refX="1" refY="5" viewBox="0 0 1000 1000">
      <polyline fill="darkblue" points="0,0 10,5 0,10 1,5" />
   </marker>
   <circle cx="1000" cy="1000" r="1" style="stroke:black; fill: red" />
   <circle cx="1000" cy="1000" r="800" style="stroke:black; fill: none" />
   <path d="M 903.45  1644.39  903.921  1644.82  905.894  1646.58  916.026  1654.92  927.073  1662.92  939.417  1670.82  955.255  1679.79  956.094  1680.13  957.279  1680.59  958.381  1680.99  954.887  1684.48  954.437  1684.26  953.169  1683.58  946.13  1679.72  944.143  1678.57  943.484  1678.18  943.341  1678.09  942.452  1677.56  939.299  1675.65  936.882  1674.25  932.681  1671.69  929.857  1669.85  928.108  1668.69  926.912  1667.93  924.463  1666.26  921.568  1664.26  920.879  1663.78  918.832  1662.29  914.587  1659.13  913.241  1658.09  911.123  1656.4  910.873  1656.19  910.545  1655.93  910.403  1655.81  907.812  1653.74  907.418  1653.4  906.022  1652.2  905.005  1651.33  902.678  1649.33  901.239  1648.06  900.721  1647.59  899.765  1646.7  902.745  1643.72  903.45  1644.39  " style="fill: none; stroke: Green; stroke-width: 1.000000; fill-type: evenodd"  fill-opacity="1.000000" />
   <path d="M 999.282  1646.87  963.434  1682.72  961.101  1681.93  960.217  1681.61  997.119  1644.71  999.282  1646.87  " style="fill: none; stroke: Green; stroke-width: 1.000000; fill-type: evenodd"  fill-opacity="1.000000" />
   <path d="M 999.277  1631.59  1000.23  1632.44  1001.9  1633.56  1002  1633.61  1003.74  1634.37  1004.12  1634.49  1005.17  1634.76  996.172  1643.76  948.862  1596.45  955.64  1589.67  956.455  1590.05  956.979  1589.29  999.277  1631.59  " style="fill: none; stroke: Green; stroke-width: 1.000000; fill-type: evenodd"  fill-opacity="1.000000" />
   <path d="M 948.225  1595.82  901.514  1642.53  899.212  1640.34  945.978  1593.57  948.225  1595.82  " style="fill: none; stroke: Green; stroke-width: 1.000000; fill-type: evenodd"  fill-opacity="1.000000" />
   <path d="M 1046.25  1593.68  1036.92  1603.01  1036.68  1601.92  1036.53  1601.5  1035.73  1599.86  1034.67  1598.35  1033.93  1597.54  991.271  1554.88  992.03  1554.33  991.681  1553.63  998.941  1546.37  1046.25  1593.68  " style="fill: none; stroke: Green; stroke-width: 1.000000; fill-type: evenodd"  fill-opacity="1.000000" />
   <path d="M 1092.89  1553.26  1049.36  1596.79  1047.2  1594.63  1090.95  1550.88  1092.89  1553.26  " style="fill: none; stroke: Green; stroke-width: 1.000000; fill-type: evenodd"  fill-opacity="1.000000" />
   <path d="M 1051.59  1498.93  1053.76  1501.25  1058.13  1506.03  1060.01  1508.1  1061.14  1509.33  1061.62  1509.87  1062.36  1510.71  1062.95  1511.38  1070.7  1520.17  1071.09  1520.62  1071.71  1521.34  1072.01  1521.68  1080.98  1532.22  1081.52  1532.85  1082.18  1533.65  1088.37  1541.13  1089.01  1541.9  1091.2  1544.55  1091.53  1544.95  1092.18  1545.75  1092.83  1546.54  1089.86  1549.51  1089.19  1548.69  1088.55  1547.93  1069.63  1525.35  1051.97  1505.47  1047.74  1500.9  1047.39  1500.52  1046.69  1499.78  1049.66  1496.81  1051.59  1498.93  " style="fill: none; stroke: Green; stroke-width: 1.000000; fill-type: evenodd"  fill-opacity="1.000000" />
   <path d="M 1044.34  1497.3  1045.5  1498.54  998.303  1545.74  996.057  1543.49  1043.32  1496.23  1044.34  1497.3  " style="fill: none; stroke: Green; stroke-width: 1.000000; fill-type: evenodd"  fill-opacity="1.000000" />
   <path d="M 1026.01  1284.54  1024.24  1284.54  1024.24  1109.54  1026.01  1109.54  1026.01  1284.54  " style="fill: none; stroke: Green; stroke-width: 1.000000; fill-type: evenodd"  fill-opacity="1.000000" />
   <path d="M 983.187  1284.54  981.417  1284.54  981.417  1109.54  983.187  1109.54  983.187  1284.54  " style="fill: none; stroke: Green; stroke-width: 1.000000; fill-type: evenodd"  fill-opacity="1.000000" />
   <path d="M 1015.56  1633.86  1015.74  1633.89  1016.03  1633.92  1016.21  1633.97  1016.37  1634.03  1016.53  1634.11  1016.65  1634.16  1016.79  1634.27  1016.93  1634.38  1017.02  1634.52  1017.06  1634.55  1017.1  1634.62  1017.3  1634.86  1017.38  1635.73  1018.12  1639.96  1018.14  1642.38  1018.5  1647.97  1018.45  1648.42  1018.42  1649.23  1018.26  1654.04  1018.34  1656.27  1018.23  1658.98  1018.05  1662.49  1017.91  1664.12  1017.85  1664.62  1017.52  1667.07  1017.25  1667.96  1016.63  1669.8  1016.23  1670.56  1015.25  1672.28  1014.34  1673.43  1013.47  1674.43  1012.88  1675.06  1012.53  1675.31  1008.45  1679.1  1007.19  1680.29  1005.91  1681.34  1001.53  1684.92  997.389  1687.94  995.965  1688.96  995.017  1689.53  994.575  1689.77  994.361  1689.88  992.913  1690.61  992.77  1690.67  990.982  1691.23  990.601  1691.33  988.886  1691.72  987.968  1691.87  986.653  1692.08  985.07  1692.24  984.298  1692.31  981.841  1692.41  981.558  1692.4  979.116  1692.21  977.428  1691.99  976.293  1691.85  975.214  1691.67  973.413  1691.37  972.991  1691.28  971.627  1690.99  970.726  1690.75  970.963  1689.72  973.393  1690.18  973.713  1690.22  976.446  1690.42  977.508  1690.45  979.081  1690.48  980.903  1690.43  981.599  1690.4  983.938  1690.19  983.979  1690.18  986.055  1689.68  986.48  1689.54  987.974  1689.05  988.969  1688.61  989.721  1688.3  991.145  1687.6  991.19  1687.57  992.976  1686.48  993.02  1686.45  997.696  1683.11  998.995  1682.16  999.81  1681.49  1004.64  1677.51  1009.43  1673.03  1009.97  1672.53  1010.11  1672.42  1011.37  1670.96  1011.64  1670.59  1011.89  1670.29  1013.07  1668.09  1013.23  1667.78  1013.89  1665.49  1014.02  1664.98  1014.18  1662.86  1014.27  1661.92  1014.34  1660.05  1014.15  1654.52  1014.08  1652.38  1014.06  1652.11  1013.94  1651.28  1013.49  1647.32  1013.26  1645.17  1013.22  1644.62  1011.46  1638.07  1011.38  1637.75  1011.17  1637.13  1011.06  1636.95  1011.05  1636.92  1010.89  1636.7  1010.67  1636.47  1010.4  1636.26  1010.09  1636.07  1009.75  1635.89  1009.23  1635.67  1009.32  1634.85  1010.3  1634.68  1010.41  1634.67  1010.62  1634.6  1010.97  1634.53  1011.3  1634.45  1011.38  1634.44  1011.68  1634.37  1011.83  1634.34  1012.05  1634.3  1012.36  1634.23  1012.54  1634.21  1012.86  1634.13  1013.1  1634.1  1013.62  1634.01  1013.72  1634  1013.98  1633.96  1013.98  1633.96  1014.56  1633.87  1014.66  1633.87  1015.08  1633.85  1015.23  1633.85  1015.42  1633.85  1015.56  1633.86  " style="fill: none; stroke: Green; stroke-width: 1.000000; fill-type: evenodd"  fill-opacity="1.000000" />
   <path d="M 941.417  1583.63  942.541  1583.75  946.766  1584.26  948.784  1584.51  950.903  1584.94  951.295  1585  951.931  1585.26  952.537  1585.56  953.158  1585.93  953.787  1586.36  954.413  1586.84  955.028  1587.37  955.601  1587.91  956.978  1589.29  956.455  1590.05  955.686  1589.7  955.309  1589.57  953.53  1589.08  946.003  1587.3  945.852  1587.27  937.013  1586.38  928.154  1586.49  926.862  1586.49  921.932  1586.76  920.642  1586.89  919.822  1587.04  918.771  1587.17  917.305  1587.6  915.857  1588.03  913.821  1589  913.217  1589.29  911.549  1590.46  910.894  1590.95  910.022  1591.72  908.026  1593.58  907.259  1594.29  906.64  1594.88  903.575  1597.85  902.939  1598.53  900.07  1601.59  899.359  1602.44  896.782  1605.53  895.937  1606.66  893.741  1609.66  892.708  1611.25  890.967  1613.99  889.643  1616.36  888.584  1618.09  888.542  1618.21  888.07  1619.18  887.89  1619.7  887.653  1620.49  887.39  1621.9  887.359  1622.28  887.271  1623.4  887.281  1624.14  887.297  1624.98  887.426  1626.2  887.472  1626.63  887.73  1627.98  887.805  1628.31  887.823  1628.37  888.252  1629.71  888.396  1630.22  888.736  1631.09  889.644  1633.27  889.673  1633.33  889.738  1633.45  890.842  1635.42  889.922  1635.97  889.496  1635.3  889.342  1635.1  888.73  1634.17  888.143  1633.2  887.851  1632.66  887.291  1631.62  887.047  1631.14  886.669  1630.17  885.879  1628.21  885.649  1627.55  885.219  1625.98  885.186  1625.84  884.944  1624.27  884.911  1623.82  884.837  1622.75  884.848  1622  884.864  1621.29  884.97  1620.32  885.02  1619.89  885.256  1618.78  885.304  1618.57  885.713  1617.32  885.734  1617.27  885.77  1617.17  886.223  1616.29  887.682  1613.7  888.613  1612.12  890.625  1609.07  891.422  1607.83  893.42  1605.18  894.495  1603.73  896.488  1601.39  897.807  1599.81  899.304  1598.21  901.326  1596.07  902.971  1594.46  905.015  1592.48  908.7  1589  908.794  1588.91  908.846  1588.88  911.121  1587.26  912.033  1586.79  913.709  1585.95  915.356  1585.42  916.549  1585.04  918.394  1584.71  919.616  1584.55  923.612  1584.2  929.411  1583.75  931.602  1583.62  931.942  1583.63  934.26  1583.6  941.417  1583.63  " style="fill: none; stroke: Green; stroke-width: 1.000000; fill-type: evenodd"  fill-opacity="1.000000" />
   <path d="M 1103.04  1560.85  1103.67  1562.08  1104.46  1563.64  1105.56  1566.07  1105.74  1566.48  1106.17  1567.57  1106.69  1569.17  1106.82  1569.66  1107.36  1571.75  1107.59  1572.94  1107.85  1574.31  1107.95  1575.19  1108.11  1575.91  1108.21  1576.89  1108.26  1579.29  1108.18  1580.4  1108.07  1581.55  1107.65  1583.68  1107.36  1584.64  1107.04  1585.68  1106.49  1586.97  1106.24  1587.53  1105.96  1588.03  1105.23  1589.18  1104.85  1589.71  1102.92  1592.48  1102.25  1593.29  1098.95  1597.33  1097.67  1598.87  1097.43  1599.17  1092.1  1604.57  1091.41  1605.29  1089.6  1606.91  1085.44  1610.58  1084.26  1611.39  1083.07  1612.18  1082.47  1612.45  1080.63  1613.3  1078.91  1613.78  1078.01  1614  1077.8  1614.05  1077.32  1614.09  1076.71  1614.12  1074.96  1614.28  1074.21  1614.35  1073.33  1614.36  1068.21  1614.38  1065.37  1614.26  1063.03  1614.3  1060.19  1614.46  1059.16  1614.41  1058.17  1614.37  1055.27  1614.43  1051.86  1614.54  1051.33  1614.49  1050.76  1614.43  1047.37  1614.38  1043.77  1614.2  1042.89  1614.01  1042.18  1613.91  1038.37  1613.44  1037.97  1613.28  1037.91  1613.22  1037.86  1613.18  1037.62  1612.94  1037.52  1612.75  1037.47  1612.66  1037.39  1612.51  1037.34  1612.38  1037.27  1612.11  1037.23  1611.92  1037.22  1611.62  1037.19  1611.48  1037.15  1611  1037.15  1610.74  1037.13  1610.51  1037.12  1610  1037.14  1609.47  1037.15  1608.97  1037.18  1608.46  1037.2  1608.25  1037.21  1607.95  1037.23  1607.75  1037.25  1607.46  1037.27  1607.33  1037.27  1606.97  1037.28  1606.9  1037.28  1606.88  1037.36  1606  1038.12  1605.81  1038.55  1606.47  1038.77  1606.76  1039  1607  1039.24  1607.21  1039.49  1607.36  1039.57  1607.4  1039.73  1607.47  1040.94  1607.92  1044.69  1608.72  1046.67  1609.25  1048.08  1609.56  1050.67  1609.85  1053.33  1610.08  1054.58  1610.28  1055.68  1610.44  1058.46  1610.54  1061.02  1610.67  1063.59  1610.96  1068.27  1611.2  1070.43  1611.29  1071.16  1611.28  1073.33  1611.25  1074.51  1611.22  1075.46  1611.05  1077.25  1610.67  1077.66  1610.57  1079.67  1609.75  1080.36  1609.45  1081.88  1608.4  1082.78  1607.89  1086.32  1604.84  1088.46  1602.97  1088.91  1602.57  1089.23  1602.24  1094.18  1597.26  1094.95  1596.48  1099.45  1590.95  1100.43  1589.77  1103.02  1586.02  1103.69  1584.9  1103.99  1584.35  1104.24  1583.73  1104.74  1582.48  1105.06  1581.34  1105.3  1580.46  1105.65  1578.3  1105.7  1577.6  1105.75  1575.97  1105.71  1575.17  1105.62  1573.52  1105.51  1573  1105.28  1570.99  1105.23  1570.72  1104.59  1568.23  1104.34  1567.44  1103.69  1565.42  1103  1563.62  1102.61  1562.62  1101.75  1560.7  1102.69  1560.23  1103.04  1560.85  " style="fill: none; stroke: Green; stroke-width: 1.000000; fill-type: evenodd"  fill-opacity="1.000000" />
   <path d="M 1024.84  1479.68  1025.07  1479.7  1026.34  1479.9  1026.83  1479.97  1027.84  1480.22  1028.62  1480.41  1029.33  1480.64  1030.42  1481.01  1030.8  1481.16  1032.23  1481.75  1032.3  1481.79  1034.16  1482.79  1035.21  1483.45  1036.09  1484  1035.55  1484.92  1034.96  1484.6  1033.64  1483.99  1033.02  1483.7  1032.11  1483.36  1031.09  1482.97  1030.57  1482.81  1029.18  1482.4  1028.2  1482.19  1027.37  1482.06  1026.02  1481.97  1025.65  1481.94  1024.56  1481.97  1024  1481.99  1023.12  1482.1  1022.41  1482.2  1021.72  1482.36  1020.91  1482.57  1020.37  1482.77  1019.5  1483.1  1018.6  1483.57  1018.17  1483.75  1017.21  1484.37  1015.12  1485.78  1013.7  1486.77  1011.37  1488.46  1010.11  1489.46  1007.8  1491.33  1006.62  1492.37  1004.38  1494.36  1000.45  1498.38  997.979  1500.88  995.168  1504.15  993.169  1506.31  992.96  1506.56  992.269  1507.73  991.359  1509.03  990.962  1509.91  990.125  1511.74  990.009  1512.17  989.605  1513.63  989.399  1514.5  989.332  1514.77  989.095  1517.18  989.02  1518.05  988.823  1523.96  988.827  1524.36  988.773  1532.83  988.764  1533.87  988.756  1534.04  988.994  1538.46  989.245  1542.79  989.255  1543.06  989.29  1543.31  990.162  1548.26  990.825  1551.01  991.07  1551.74  991.279  1552.39  991.742  1553.76  992.03  1554.33  991.27  1554.88  989.673  1553.28  989.119  1552.7  988.518  1552  987.966  1551.29  987.474  1550.58  987.052  1549.88  986.831  1549.44  986.74  1549.23  986.58  1548.71  986.572  1548.68  986.505  1548.37  986.472  1548.17  986.077  1545.44  986.027  1544.37  985.832  1539.29  985.787  1538.49  986.002  1534.42  986.142  1531.18  986.166  1528.51  986.458  1525.48  986.601  1523.22  986.732  1519.07  986.971  1515.56  987.229  1513.54  987.36  1512.45  987.493  1511.97  988.032  1509.96  988.176  1509.48  989.438  1506.85  991.005  1504.54  991.065  1504.46  994.575  1500.51  995.887  1499.05  1000.54  1494.35  1002.33  1492.53  1003.36  1491.6  1005.75  1489.47  1006.84  1488.56  1009.3  1486.56  1010.41  1485.72  1013.01  1483.81  1014.65  1482.63  1016.13  1481.67  1016.68  1481.37  1017.45  1481  1017.89  1480.81  1018.81  1480.42  1019.19  1480.31  1020.26  1479.99  1020.55  1479.94  1021.78  1479.71  1023.28  1479.59  1023.36  1479.59  1024.84  1479.68  " style="fill: none; stroke: Green; stroke-width: 1.000000; fill-type: evenodd"  fill-opacity="1.000000" />
   <path d="M 1006.27  1634.94  1006.92  1634.94  1007.58  1634.99  1008.47  1634.97  1009.32  1634.84  1009.23  1635.67  1009.75  1635.89  1010.09  1636.07  1010.4  1636.26  1010.67  1636.47  1010.89  1636.7  1011.05  1636.91  1011.17  1637.13  1011.38  1637.75  1011.46  1638.07  1013.22  1644.62  1013.26  1645.17  1013.49  1647.32  1013.94  1651.28  1014.06  1652.11  1014.08  1652.38  1014.15  1654.52  1014.34  1660.05  1014.27  1661.92  1014.18  1662.86  1014.02  1664.98  1013.89  1665.49  1013.23  1667.78  1013.07  1668.09  1011.89  1670.29  1011.64  1670.59  1011.37  1670.96  1010.11  1672.42  1009.97  1672.53  1009.43  1673.03  1004.64  1677.51  999.81  1681.49  998.995  1682.16  997.696  1683.11  993.02  1686.45  992.976  1686.48  991.19  1687.57  991.145  1687.6  989.721  1688.3  988.969  1688.61  987.974  1689.05  986.48  1689.54  986.055  1689.68  983.979  1690.18  983.938  1690.19  981.599  1690.4  980.903  1690.43  979.081  1690.48  977.508  1690.45  976.446  1690.42  973.713  1690.22  973.393  1690.18  970.963  1689.72  970.722  1690.76  968.31  1690.01  967.159  1689.67  965.935  1689.24  963.931  1688.56  963.578  1688.43  962.634  1688.07  961.112  1687.41  960.477  1687.13  958.601  1686.25  958.024  1686.01  956.906  1685.46  954.888  1684.48  958.381  1680.99  959.284  1681.31  960.205  1681.62  960.217  1681.61  961.101  1681.93  963.434  1682.72  999.282  1646.87  997.119  1644.71  997.119  1644.71  996.172  1643.76  1005.17  1634.77  1006.27  1634.94  " style="fill: none; stroke: Green; stroke-width: 1.000000; fill-type: evenodd"  fill-opacity="1.000000" />
   <path d="M 960.631  1630.44  961.992  1630.47  962.053  1630.48  963.388  1630.74  963.446  1630.77  964.718  1631.25  964.772  1631.28  965.943  1631.97  967.021  1632.88  967.94  1633.97  967.974  1634.02  968.657  1635.18  968.684  1635.25  969.16  1636.51  969.176  1636.59  969.432  1637.91  969.436  1637.98  969.465  1639.33  969.456  1639.4  969.257  1640.74  969.236  1640.81  968.814  1642.09  968.782  1642.15  968.149  1643.35  968.107  1643.41  967.282  1644.47  967.23  1644.52  966.237  1645.44  966.177  1645.48  965.044  1646.21  964.978  1646.24  963.738  1646.77  963.667  1646.79  962.355  1647.1  962.283  1647.11  960.937  1647.2  960.864  1647.2  959.522  1647.05  959.451  1647.04  958.153  1646.67  958.085  1646.64  956.869  1646.06  956.806  1646.02  955.705  1645.24  955.656  1645.2  954.702  1644.25  954.66  1644.2  954.635  1644.16  953.845  1643.04  953.825  1642.99  953.235  1641.76  953.223  1641.7  952.85  1640.39  952.848  1640.33  952.703  1638.97  952.709  1638.92  952.796  1637.55  952.812  1637.5  953.128  1636.17  953.153  1636.12  953.691  1634.86  953.723  1634.81  954.465  1633.67  954.504  1633.63  955.429  1632.62  955.475  1632.59  956.556  1631.75  956.608  1631.73  957.813  1631.09  957.869  1631.07  959.164  1630.65  959.224  1630.64  960.571  1630.44  960.631  1630.44  " style="fill: none; stroke: Green; stroke-width: 1.000000; fill-type: evenodd"  fill-opacity="1.000000" />
   <path d="M 945.852  1587.27  946.003  1587.3  953.53  1589.08  955.652  1589.66  948.862  1596.45  948.225  1595.82  948.225  1595.82  945.978  1593.57  899.212  1640.34  901.514  1642.53  901.501  1642.54  902.745  1643.72  899.764  1646.7  898.859  1645.86  897.956  1645.02  897.375  1644.48  896.907  1644.03  895.584  1642.71  894.594  1641.7  893.359  1640.34  892.69  1639.58  890.502  1636.82  890.307  1636.55  889.92  1635.97  890.842  1635.42  889.738  1633.45  889.673  1633.33  889.644  1633.27  888.736  1631.09  888.396  1630.22  888.253  1629.71  887.824  1628.37  887.805  1628.31  887.73  1627.98  887.472  1626.63  887.426  1626.2  887.297  1624.98  887.281  1624.14  887.271  1623.4  887.359  1622.28  887.391  1621.9  887.653  1620.49  887.891  1619.7  888.07  1619.18  888.542  1618.21  888.584  1618.09  889.643  1616.36  890.967  1613.99  892.708  1611.25  893.741  1609.66  895.937  1606.66  896.782  1605.53  899.359  1602.44  900.071  1601.59  902.939  1598.53  903.575  1597.85  906.64  1594.88  907.259  1594.29  908.026  1593.58  910.022  1591.72  910.895  1590.95  911.549  1590.46  913.217  1589.29  913.821  1589  915.857  1588.03  917.305  1587.6  918.771  1587.17  919.822  1587.04  920.642  1586.89  921.932  1586.76  926.862  1586.49  928.154  1586.49  937.013  1586.38  945.852  1587.27  " style="fill: none; stroke: Green; stroke-width: 1.000000; fill-type: evenodd"  fill-opacity="1.000000" />
   <path d="M 1095  1549.19  1096.6  1551.22  1096.96  1551.68  1097.34  1552.16  1098.09  1553.2  1099.45  1555.07  1101.48  1558.13  1101.55  1558.24  1102.69  1560.23  1101.75  1560.7  1102.61  1562.62  1103  1563.62  1103.69  1565.42  1104.34  1567.44  1104.59  1568.23  1105.23  1570.72  1105.28  1570.99  1105.51  1573  1105.62  1573.52  1105.71  1575.17  1105.75  1575.97  1105.7  1577.6  1105.65  1578.3  1105.3  1580.46  1105.06  1581.34  1104.74  1582.48  1104.24  1583.73  1103.99  1584.35  1103.69  1584.9  1103.02  1586.02  1100.43  1589.77  1099.45  1590.95  1094.95  1596.47  1094.18  1597.26  1089.23  1602.24  1088.91  1602.57  1088.46  1602.97  1086.32  1604.84  1082.78  1607.89  1081.88  1608.4  1080.36  1609.45  1079.67  1609.75  1077.66  1610.57  1077.25  1610.67  1075.46  1611.05  1074.51  1611.22  1073.33  1611.25  1071.16  1611.28  1070.43  1611.29  1068.27  1611.2  1063.59  1610.96  1061.02  1610.67  1058.46  1610.54  1055.68  1610.44  1054.58  1610.28  1053.33  1610.08  1050.67  1609.85  1048.08  1609.56  1046.67  1609.25  1044.69  1608.72  1040.94  1607.92  1039.73  1607.47  1039.57  1607.4  1039.49  1607.36  1039.24  1607.21  1039  1607  1038.77  1606.76  1038.55  1606.47  1038.12  1605.81  1037.36  1606  1037.31  1605.07  1037.24  1604.58  1037.2  1603.97  1037.06  1603.25  1036.97  1602.96  1046.25  1593.68  1047.2  1594.63  1047.2  1594.63  1049.36  1596.79  1092.89  1553.26  1090.95  1550.88  1090.96  1550.87  1089.86  1549.51  1092.83  1546.54  1095  1549.19  " style="fill: none; stroke: Green; stroke-width: 1.000000; fill-type: evenodd"  fill-opacity="1.000000" />
   <path d="M 1041.31  1549.81  1042.67  1549.84  1042.73  1549.85  1044.06  1550.11  1044.12  1550.14  1045.39  1550.62  1045.45  1550.65  1046.62  1551.34  1047.7  1552.25  1048.61  1553.34  1048.65  1553.39  1049.33  1554.56  1049.36  1554.62  1049.83  1555.89  1049.85  1555.96  1050.11  1557.28  1050.11  1557.35  1050.14  1558.7  1050.13  1558.78  1049.93  1560.11  1049.91  1560.18  1049.49  1561.46  1049.46  1561.53  1048.82  1562.72  1048.78  1562.78  1047.96  1563.84  1047.9  1563.9  1046.91  1564.81  1046.85  1564.85  1045.72  1565.58  1045.65  1565.61  1044.41  1566.14  1044.34  1566.16  1043.03  1566.48  1042.96  1566.48  1041.61  1566.57  1041.54  1566.57  1040.2  1566.42  1040.13  1566.41  1038.83  1566.04  1038.76  1566.01  1037.54  1565.43  1037.48  1565.39  1036.35  1564.59  1036.31  1564.54  1035.34  1563.58  1035.31  1563.53  1034.52  1562.41  1034.5  1562.36  1033.91  1561.13  1033.9  1561.07  1033.52  1559.76  1033.52  1559.7  1033.38  1558.34  1033.38  1558.29  1033.47  1556.92  1033.49  1556.87  1033.8  1555.54  1033.83  1555.49  1034.37  1554.23  1034.4  1554.19  1035.14  1553.04  1035.18  1553  1036.1  1551.99  1036.15  1551.96  1037.23  1551.12  1037.28  1551.1  1038.49  1550.46  1038.54  1550.44  1039.84  1550.02  1039.9  1550.01  1041.25  1549.81  1041.31  1549.81  " style="fill: none; stroke: Green; stroke-width: 1.000000; fill-type: evenodd"  fill-opacity="1.000000" />
   <path d="M 1026.02  1481.97  1027.37  1482.06  1028.2  1482.19  1029.18  1482.4  1030.57  1482.81  1031.09  1482.97  1032.11  1483.36  1033.02  1483.7  1033.64  1483.99  1034.96  1484.6  1035.55  1484.92  1036.09  1484  1036.64  1484.39  1037.95  1485.32  1038.24  1485.54  1039.95  1486.96  1041.87  1488.78  1041.98  1488.85  1042.58  1489.43  1043.8  1490.63  1044.53  1491.39  1044.57  1491.44  1049.65  1496.81  1046.69  1499.78  1045.51  1498.53  1045.5  1498.54  1044.34  1497.3  1043.32  1496.23  996.057  1543.49  998.303  1545.74  998.303  1545.74  998.941  1546.37  991.695  1553.62  991.279  1552.39  991.07  1551.74  990.825  1551.01  990.162  1548.26  989.29  1543.31  989.256  1543.06  989.245  1542.79  988.994  1538.46  988.756  1534.04  988.764  1533.87  988.773  1532.83  988.827  1524.36  988.823  1523.96  989.02  1518.05  989.095  1517.18  989.332  1514.77  989.399  1514.5  989.606  1513.63  990.009  1512.17  990.125  1511.74  990.962  1509.91  991.359  1509.03  992.269  1507.73  992.96  1506.56  993.169  1506.31  995.168  1504.15  997.979  1500.88  1000.45  1498.38  1004.38  1494.37  1006.62  1492.37  1007.8  1491.33  1010.11  1489.46  1011.37  1488.46  1013.7  1486.77  1015.12  1485.78  1017.21  1484.37  1018.17  1483.75  1018.6  1483.57  1019.5  1483.1  1020.37  1482.77  1020.91  1482.57  1021.72  1482.37  1022.41  1482.2  1023.12  1482.1  1024  1481.99  1024.56  1481.97  1025.65  1481.94  1026.02  1481.97  " style="fill: none; stroke: Green; stroke-width: 1.000000; fill-type: evenodd"  fill-opacity="1.000000" />
   <path d="M 1250  1184.84  1150.3  1184.84  1250  1284.54  1104.1  1284.54  1104.1  1109.54  1054.1  1109.54  1054.1  1284.54  1026.01  1284.54  1026.01  1109.54  981.417  1109.54  981.417  1284.54  950.28  1284.54  950.28  1084.54  750  1084.54  750  784.538  1250  784.538  1250  1184.84  " style="fill: none; stroke: Green; stroke-width: 1.000000; fill-type: evenodd"  fill-opacity="1.000000" />
   <path d="M 1180.31  1020.04  1180.31  1067.54  1225.31  1067.54  1225.31  1020.04  1180.31  1020.04  " style="fill: none; stroke: Blue; stroke-width: 1.000000; fill-type: evenodd"  fill-opacity="1.000000" />
   <path d="M 1125.31  1020.04  1125.31  1067.54  1170.31  1067.54  1170.31  1020.04  1125.31  1020.04  " style="fill: none; stroke: Blue; stroke-width: 1.000000; fill-type: evenodd"  fill-opacity="1.000000" />
   <path d="M 1055.35  1018.29  1055.35  1067.04  1104.1  1067.04  1104.1  1018.29  1055.35  1018.29  " style="fill: none; stroke: Blue; stroke-width: 1.000000; fill-type: evenodd"  fill-opacity="1.000000" />
   <path d="M 1003.8  1018.29  1003.8  1067.04  1052.55  1067.04  1052.55  1018.29  1003.8  1018.29  " style="fill: none; stroke: Blue; stroke-width: 1.000000; fill-type: evenodd"  fill-opacity="1.000000" />
   <path d="M 930.273  991.311  928.075  991.555  925.907  991.993  923.786  992.62  921.729  993.433  919.752  994.424  917.87  995.585  916.098  996.909  914.45  998.384  912.939  999.999  911.577  1001.74  910.374  1003.6  909.339  1005.55  908.481  1007.59  907.807  1009.7  907.322  1011.85  907.029  1014.05  906.931  1016.26  907.029  1018.47  907.322  1020.66  907.807  1022.82  908.481  1024.92  909.339  1026.96  910.374  1028.92  911.577  1030.77  912.939  1032.51  914.45  1034.13  916.098  1035.6  917.87  1036.93  919.752  1038.09  921.729  1039.08  923.786  1039.89  925.907  1040.52  928.075  1040.96  930.273  1041.2  932.484  1041.25  934.691  1041.1  936.877  1040.76  939.023  1040.23  941.114  1039.51  943.133  1038.61  945.065  1037.53  946.893  1036.28  948.605  1034.88  950.186  1033.34  951.624  1031.66  952.908  1029.86  954.028  1027.95  954.975  1025.95  955.742  1023.88  956.322  1021.74  956.711  1019.57  956.907  1017.36  956.907  1017.27  956.924  1016.48  956.924  1015.94  956.907  1015.15  956.711  1012.95  956.322  1010.77  955.742  1008.64  954.975  1006.56  954.028  1004.56  952.908  1002.66  951.624  1000.85  950.186  999.175  948.605  997.628  946.893  996.228  945.065  994.984  943.133  993.906  941.114  993.004  939.023  992.283  936.877  991.75  934.691  991.409  932.484  991.262  930.273  991.311  " style="fill: none; stroke: Blue; stroke-width: 1.000000; fill-type: evenodd"  fill-opacity="1.000000" />
   <path d="M 872.967  1006.41  871.613  1006.75  870.32  1007.27  869.111  1007.97  868.012  1008.82  867.043  1009.83  866.223  1010.96  865.568  1012.19  865.091  1013.5  864.801  1014.86  864.703  1016.26  864.801  1017.65  865.091  1019.01  865.568  1020.32  866.223  1021.56  867.043  1022.68  868.012  1023.69  869.111  1024.55  870.32  1025.24  871.613  1025.77  872.967  1026.1  874.354  1026.25  875.749  1026.2  877.122  1025.96  878.449  1025.53  879.703  1024.92  880.86  1024.14  881.897  1023.2  882.793  1022.13  883.533  1020.95  884.1  1019.68  884.485  1018.34  884.679  1016.95  884.696  1016.46  884.696  1016.05  884.679  1015.56  884.485  1014.18  884.1  1012.84  883.533  1011.56  882.793  1010.38  881.897  1009.31  880.86  1008.38  879.703  1007.6  878.449  1006.98  877.122  1006.55  875.749  1006.31  874.354  1006.26  872.967  1006.41  " style="fill: none; stroke: Blue; stroke-width: 1.000000; fill-type: evenodd"  fill-opacity="1.000000" />
   <path d="M 845.25  1011.35  844.312  1011.64  843.447  1012.1  842.69  1012.72  842.068  1013.48  841.606  1014.34  841.321  1015.28  841.225  1016.26  841.321  1017.23  841.606  1018.17  842.068  1019.03  842.69  1019.79  843.447  1020.41  844.312  1020.88  845.25  1021.16  846.225  1021.26  847.2  1021.16  848.138  1020.88  849.003  1020.41  849.761  1019.79  850.382  1019.03  850.844  1018.17  851.129  1017.23  851.225  1016.26  851.129  1015.28  850.844  1014.34  850.382  1013.48  849.761  1012.72  849.003  1012.1  848.138  1011.64  847.2  1011.35  846.225  1011.26  845.25  1011.35  " style="fill: none; stroke: Blue; stroke-width: 1.000000; fill-type: evenodd"  fill-opacity="1.000000" />
   <path d="M 830.289  1013.81  829.648  1014.04  829.091  1014.43  828.662  1014.96  828.391  1015.58  828.298  1016.26  828.391  1016.93  828.662  1017.56  829.092  1018.08  829.648  1018.48  830.289  1018.7  830.969  1018.75  831.635  1018.61  832.24  1018.3  832.737  1017.83  833.091  1017.25  833.275  1016.6  833.291  1016.35  833.291  1016.16  833.275  1015.92  833.091  1015.26  832.737  1014.68  832.24  1014.21  831.635  1013.9  830.969  1013.76  830.289  1013.81  " style="fill: none; stroke: Blue; stroke-width: 1.000000; fill-type: evenodd"  fill-opacity="1.000000" />
   <path d="M 1055.48  967.042  1055.48  1015.79  1104.23  1015.79  1104.23  967.042  1055.48  967.042  " style="fill: none; stroke: Blue; stroke-width: 1.000000; fill-type: evenodd"  fill-opacity="1.000000" />
   <path d="M 1003.71  967.042  1003.71  1015.79  1052.46  1015.79  1052.46  967.042  1003.71  967.042  " style="fill: none; stroke: Blue; stroke-width: 1.000000; fill-type: evenodd"  fill-opacity="1.000000" />
   <path d="M 1180.23  967.554  1180.23  1015.05  1225.23  1015.05  1225.23  967.554  1180.23  967.554  " style="fill: none; stroke: Blue; stroke-width: 1.000000; fill-type: evenodd"  fill-opacity="1.000000" />
   <path d="M 1125.23  967.554  1125.23  1015.05  1170.23  1015.05  1170.23  967.554  1125.23  967.554  " style="fill: none; stroke: Blue; stroke-width: 1.000000; fill-type: evenodd"  fill-opacity="1.000000" />
   <path d="M 852.813  1180.68  855.012  1180.93  857.18  1181.37  859.3  1181.99  861.357  1182.81  863.335  1183.8  865.217  1184.96  866.988  1186.28  868.636  1187.76  870.148  1189.37  871.51  1191.11  872.713  1192.97  873.748  1194.93  874.605  1196.96  875.28  1199.07  875.765  1201.23  876.058  1203.42  876.155  1205.63  876.058  1207.84  875.765  1210.03  875.28  1212.19  874.605  1214.3  873.748  1216.33  872.713  1218.29  871.51  1220.14  870.148  1221.89  868.636  1223.5  866.988  1224.98  865.217  1226.3  863.335  1227.46  861.357  1228.45  859.3  1229.27  857.18  1229.89  855.012  1230.33  852.813  1230.57  850.602  1230.62  848.396  1230.48  846.21  1230.14  844.064  1229.6  841.973  1228.88  839.954  1227.98  838.022  1226.9  836.194  1225.66  834.482  1224.26  832.901  1222.71  831.463  1221.03  830.179  1219.23  829.059  1217.32  828.112  1215.32  827.345  1213.25  826.765  1211.12  826.375  1208.94  826.18  1206.74  826.155  1205.63  826.18  1204.52  826.375  1202.32  826.765  1200.14  827.345  1198.01  828.112  1195.93  829.059  1193.94  830.179  1192.03  831.463  1190.23  832.901  1188.55  834.482  1187  836.194  1185.6  838.022  1184.36  839.954  1183.28  841.973  1182.38  844.064  1181.66  846.21  1181.12  848.396  1180.78  850.602  1180.64  852.813  1180.68  " style="fill: none; stroke: Green; stroke-width: 1.000000; fill-type: evenodd"  fill-opacity="1.000000" />
   <path d="M 1420  649.538  1380  649.538  1380  669.538  1360  669.538  1360  299.538  1420  299.538  1420  649.538  " style="fill: none; stroke: Green; stroke-width: 1.000000; fill-type: evenodd"  fill-opacity="1.000000" />
   <path d="M 640  669.538  620  669.538  620  649.538  580  649.538  580  549.174  640  549.174  640  669.538  " style="fill: none; stroke: Green; stroke-width: 1.000000; fill-type: evenodd"  fill-opacity="1.000000" />
   <path d="M 640  399.903  580  399.903  580  299.538  640  299.538  640  399.903  " style="fill: none; stroke: Green; stroke-width: 1.000000; fill-type: evenodd"  fill-opacity="1.000000" />
   <path d="M 1152.45  1166.95  1121.99  1166.95  1121.99  1150.75  1152.45  1166.95  " style="fill: none; stroke: Black; stroke-width: 1.000000; fill-type: evenodd"  fill-opacity="1.000000" />
   <path d="M 1232.11  1103.19  1131.21  1103.19  1121.99  1140.18  1121.99  1095.08  1125.17  1095.08  1125.17  1085.43  1232.11  1085.43  1232.11  1103.19  " style="fill: none; stroke: Black; stroke-width: 1.000000; fill-type: evenodd"  fill-opacity="1.000000" />
   <path d="M 1232.11  949.663  1122.12  949.663  1122.12  949.151  985.82  949.151  985.912  1081.75  982.734  1081.75  982.734  1091.65  968.17  1091.65  968.17  1066.65  945.957  1066.65  945.417  1056.89  947.711  1056.21  954.5  1052.81  960.265  1048.51  963.546  1045.3  967.979  1039.63  971.344  1033.27  972.935  1028.96  974.514  1021.94  974.85  1014.36  973.845  1006.83  971.652  999.976  969.686  995.828  965.772  989.79  960.583  984.245  954.5  979.701  947.711  976.298  940.429  974.144  933.277  973.35  928.688  973.452  921.579  974.561  914.4  977.035  907.768  980.735  901.891  985.544  896.953  991.313  894.113  996.151  888.737  991.95  881.493  989.024  874.354  988.273  869.227  988.812  863.002  990.834  859.082  993.098  855.894  995.589  850.759  993.462  841.691  993.462  835.072  996.203  826.509  995.618  817.56  1000.25  813.232  1005.57  810.5  1011.86  810.5  1020.65  813.733  1028.09  821.1  1034.97  832.236  1037.29  835.033  1036.29  841.691  1039.05  850.759  1039.05  856.049  1036.86  859.009  1039.52  865.461  1042.67  869.852  1043.77  874.354  1044.24  881.493  1043.49  888.149  1040.8  891.901  1038.27  893.931  1036.44  897.212  1041.5  901.891  1046.97  907.46  1051.53  911.365  1053.94  918.06  1056.93  914.398  1059.44  919.347  1066.65  767.891  1066.65  767.891  802.429  1232.11  802.429  1232.11  949.663  " style="fill: none; stroke: Black; stroke-width: 1.000000; fill-type: evenodd"  fill-opacity="1.000000" />
   <path d="M 1402.11  631.648  1377.89  631.648  1377.89  317.429  1402.11  317.429  1402.11  631.648  " style="fill: none; stroke: Black; stroke-width: 1.000000; fill-type: evenodd"  fill-opacity="1.000000" />
   <path d="M 961.948  1636.55  963.125  1637.38  963.511  1638.75  963.177  1640.16  962.051  1641.03  961.048  1641.19  959.831  1640.95  958.912  1639.86  958.717  1638.85  958.867  1637.86  959.489  1637.06  960.525  1636.39  961.948  1636.55  " style="fill: none; stroke: Black; stroke-width: 1.000000; fill-type: evenodd"  fill-opacity="1.000000" />
   <path d="M 1042.62  1555.92  1043.8  1556.75  1044.18  1558.12  1043.85  1559.54  1042.73  1560.4  1041.72  1560.56  1040.51  1560.32  1039.59  1559.23  1039.39  1558.22  1039.51  1557.43  1039.99  1556.54  1041.2  1555.76  1042.62  1555.92  " style="fill: none; stroke: Black; stroke-width: 1.000000; fill-type: evenodd"  fill-opacity="1.000000" />
   <path d="M 1206.81  1266.65  1121.99  1266.65  1121.99  1181.83  1206.81  1266.65  " style="fill: none; stroke: Black; stroke-width: 1.000000; fill-type: evenodd"  fill-opacity="1.000000" />
   <path d="M 852.852  1198.8  854.028  1199.2  855.296  1199.91  856.516  1201.07  857.346  1202.23  857.952  1203.8  858.167  1205.01  858.167  1206.25  857.948  1207.48  857.445  1208.84  856.487  1210.22  855.613  1211.08  854.585  1211.78  853.259  1212.37  851.6  1212.65  850.378  1212.63  849.159  1212.38  848.001  1211.92  846.942  1211.27  846.016  1210.44  845.249  1209.46  844.667  1208.36  844.295  1207.2  844.096  1205.52  844.288  1204.08  844.73  1202.7  845.626  1201.28  846.461  1200.38  847.458  1199.64  848.57  1199.08  849.741  1198.74  851.417  1198.57  852.852  1198.8  " style="fill: none; stroke: Black; stroke-width: 1.000000; fill-type: evenodd"  fill-opacity="1.000000" />
   <path d="M 1232.11  1166.95  1216.35  1166.95  1216.35  1166.95  1216.35  1166.95  1152.45  1166.95  1121.99  1150.75  1121.99  1140.18  1131.21  1103.19  1232.11  1103.19  1232.11  1166.95  " style="fill: none; stroke: Black; stroke-width: 1.000000; fill-type: evenodd"  fill-opacity="1.000000" />
   <path d="M 622.109  631.648  597.891  631.648  597.891  567.064  622.109  567.064  622.109  631.648  " style="fill: none; stroke: Black; stroke-width: 1.000000; fill-type: evenodd"  fill-opacity="1.000000" />
   <path d="M 622.109  382.012  597.891  382.012  597.891  317.429  622.109  317.429  622.109  382.012  " style="fill: none; stroke: Black; stroke-width: 1.000000; fill-type: evenodd"  fill-opacity="1.000000" />
</svg>
