<?xml version="1.0" encoding="UTF-8" standalone="yes"?>
<!DOCTYPE svg PUBLIC "-//W3C//DTD SVG 1.0//EN" "http://www.w3.org/TR/2001/REC-SVG-20010904/DTD/svg10.dtd">
<svg height="2000" width="2000" xmlns="http://www.w3.org/2000/svg" xmlns:svg="http://www.w3.org/2000/svg" xmlns:xlink="http://www.w3.org/1999/xlink">
   <marker id="endArrow" markerHeight="8" markerUnits="strokeWidth" markerWidth="10" orient="auto" refX="1" refY="5" viewBox="0 0 1000 1000">
      <polyline fill="darkblue" points="0,0 10,5 0,10 1,5" />
   </marker>
   <circle cx="1000" cy="1000" r="1" style="stroke:black; fill: red" />
   <circle cx="1000" cy="1000" r="800" style="stroke:black; fill: none" />
   <path d="M 988.381  1688.53  989.591  1688.72  985.379  1692.93  984.788  1692.69  982.296  1691.69  985.911  1688.07  988.381  1688.53  " style="fill: none; stroke: Green; stroke-width: 1.000000; fill-type: evenodd"  fill-opacity="1.000000" />
   <path d="M 1018.75  1666.34  995.442  1689.66  991.712  1689.06  1016.59  1664.18  1018.75  1666.34  " style="fill: none; stroke: Green; stroke-width: 1.000000; fill-type: evenodd"  fill-opacity="1.000000" />
   <path d="M 1065.72  1613.15  1015.64  1663.23  1013.48  1661.07  1063.56  1610.99  1065.72  1613.15  " style="fill: none; stroke: Green; stroke-width: 1.000000; fill-type: evenodd"  fill-opacity="1.000000" />
   <path d="M 1109.24  1575.86  1068.83  1616.27  1066.67  1614.1  1107.6  1573.17  1109.24  1575.86  " style="fill: none; stroke: Green; stroke-width: 1.000000; fill-type: evenodd"  fill-opacity="1.000000" />
   <path d="M 1109.1  1567.58  1109.8  1568.51  1106.63  1571.68  1104.92  1569.07  1107.92  1566.06  1109.1  1567.58  " style="fill: none; stroke: Green; stroke-width: 1.000000; fill-type: evenodd"  fill-opacity="1.000000" />
   <path d="M 959.991  1284.54  958.292  1284.54  958.292  1084.54  959.991  1084.54  959.991  1284.54  " style="fill: none; stroke: Green; stroke-width: 1.000000; fill-type: evenodd"  fill-opacity="1.000000" />
   <path d="M 1122.03  1596.27  1121.89  1597.91  1121.83  1598.58  1121.55  1600.31  1121.48  1600.7  1121.36  1601.27  1120.98  1602.76  1120.47  1604.2  1120.28  1604.7  1119.41  1606.53  1119.18  1606.91  1118.4  1608.24  1117.68  1609.19  1117.25  1609.84  1113.76  1614.03  1112.51  1615.54  1111.7  1616.4  1106.64  1621.81  1102.99  1625.21  1102.85  1625.33  1100.85  1627.05  1099.22  1628.05  1098.39  1628.55  1096.15  1629.53  1095.7  1629.73  1095.31  1629.84  1092.81  1630.54  1088.98  1631.35  1087.22  1631.76  1086.02  1632.11  1081.83  1633.31  1079.79  1634.05  1077.15  1634.92  1076.67  1635.08  1072.98  1636.68  1071.86  1637.16  1069.03  1638.75  1067.46  1639.62  1065.31  1641.15  1063.45  1642.43  1061.81  1643.83  1059.76  1645.53  1057.53  1647.69  1056.34  1648.87  1054.06  1651.42  1053.15  1652.42  1050.93  1655.33  1050.23  1656.22  1048.18  1659.46  1047.61  1660.3  1045.81  1663.8  1045.31  1664.66  1043.77  1668.32  1043.31  1669.29  1042.03  1673.01  1041.56  1674.15  1041.55  1674.22  1041.41  1674.91  1041.24  1675.37  1040.41  1677.51  1040.33  1677.66  1039.11  1679.99  1038.96  1680.19  1037.49  1682.3  1037.18  1682.67  1035.64  1684.46  1034.59  1685.63  1033.23  1687  1031.47  1688.88  1028.17  1692.29  1027.11  1693.36  1026.58  1693.87  1025.93  1694.39  1025  1695.1  1024.54  1695.46  1023.67  1696.02  1023.03  1696.43  1022.26  1696.85  1021.42  1697.3  1020.78  1697.59  1019.72  1698.06  1019.25  1698.23  1017.94  1698.71  1017.34  1698.88  1017.01  1697.89  1018.8  1697.18  1019.07  1697.04  1020.42  1696.31  1021.64  1695.52  1021.91  1695.34  1022.91  1694.56  1023.29  1694.27  1024.08  1693.64  1024.5  1693.25  1025.65  1692.09  1026.86  1690.87  1027.93  1689.78  1031.95  1685.61  1032.32  1685.23  1033.69  1683.7  1034.49  1682.77  1035.54  1681.53  1036.37  1680.33  1037.2  1679.22  1037.36  1678.92  1038.44  1676.72  1038.67  1676.14  1039.36  1674.07  1039.56  1673.51  1039.67  1672.93  1041.02  1668.97  1041.31  1667.96  1042.82  1664.32  1043.22  1663.24  1044.96  1659.85  1045.45  1658.82  1047.49  1655.6  1048.02  1654.71  1050.45  1651.59  1050.95  1650.91  1053.8  1647.8  1054.17  1647.39  1057.55  1644.23  1057.67  1644.11  1058.91  1643.13  1061.2  1641.23  1061.4  1641.05  1064.81  1638.7  1065.43  1638.26  1068.65  1636.48  1069.83  1635.81  1072.72  1634.57  1074.65  1633.74  1077.01  1632.96  1079.86  1632.02  1082.66  1631.38  1085.45  1630.64  1087.68  1630.19  1091.14  1629.41  1091.67  1629.26  1094.09  1628.63  1095.45  1628.06  1096.82  1627.49  1099.33  1626  1100.01  1625.46  1101.47  1624.16  1105.41  1620.48  1106.47  1619.35  1111.3  1614.23  1112.52  1612.76  1116.43  1608.03  1116.85  1607.47  1117.57  1606.42  1118.05  1605.58  1118.56  1604.68  1119.12  1603.47  1119.41  1602.83  1120.11  1600.88  1120.16  1600.68  1120.54  1598.76  1120.77  1597.44  1120.98  1596.14  1122.03  1596.27  " style="fill: none; stroke: Green; stroke-width: 1.000000; fill-type: evenodd"  fill-opacity="1.000000" />
   <path d="M 934.1  1568.12  930.057  1569.11  929.779  1568.07  931.043  1567.7  931.995  1567.46  932.82  1567.26  933.054  1567.21  933.14  1567.17  933.304  1567.16  933.943  1567.12  934.1  1568.12  " style="fill: none; stroke: Green; stroke-width: 1.000000; fill-type: evenodd"  fill-opacity="1.000000" />
   <path d="M 1026.71  1284.54  1025.2  1284.54  1025.2  1109.54  1026.71  1109.54  1026.71  1284.54  " style="fill: none; stroke: Green; stroke-width: 1.000000; fill-type: evenodd"  fill-opacity="1.000000" />
   <path d="M 982.223  1284.54  980.711  1284.54  980.711  1109.54  982.223  1109.54  982.223  1284.54  " style="fill: none; stroke: Green; stroke-width: 1.000000; fill-type: evenodd"  fill-opacity="1.000000" />
   <path d="M 640  533.456  580  533.456  580  530.654  640  530.654  640  533.456  " style="fill: none; stroke: Green; stroke-width: 1.000000; fill-type: evenodd"  fill-opacity="1.000000" />
   <path d="M 640  418.422  580  418.422  580  415.621  640  415.621  640  418.422  " style="fill: none; stroke: Green; stroke-width: 1.000000; fill-type: evenodd"  fill-opacity="1.000000" />
   <path d="M 1114.41  1574.59  1114.67  1574.94  1115  1575.38  1115.81  1576.51  1116.51  1577.52  1117.16  1578.54  1118.38  1580.67  1119.45  1582.87  1120.38  1585.14  1120.82  1586.49  1121.09  1587.41  1121.58  1589.67  1121.89  1591.92  1122.04  1594.17  1122.03  1595.41  1122.02  1596.27  1120.98  1596.14  1120.77  1597.44  1120.54  1598.76  1120.16  1600.68  1120.11  1600.88  1119.41  1602.83  1119.12  1603.47  1118.56  1604.68  1118.05  1605.58  1117.57  1606.42  1116.85  1607.47  1116.43  1608.03  1112.52  1612.76  1111.3  1614.23  1106.47  1619.35  1105.41  1620.48  1101.47  1624.16  1100.01  1625.46  1099.33  1626  1096.82  1627.49  1095.45  1628.06  1094.09  1628.63  1091.67  1629.26  1091.14  1629.41  1087.68  1630.19  1085.45  1630.64  1082.66  1631.38  1079.86  1632.02  1077.01  1632.96  1074.65  1633.74  1072.72  1634.57  1069.83  1635.81  1068.65  1636.48  1065.43  1638.26  1064.81  1638.7  1061.4  1641.05  1061.2  1641.23  1058.91  1643.13  1057.67  1644.11  1057.55  1644.23  1054.17  1647.39  1053.8  1647.8  1050.95  1650.91  1050.45  1651.59  1048.02  1654.71  1047.49  1655.6  1045.45  1658.82  1044.96  1659.85  1043.22  1663.24  1042.82  1664.32  1041.31  1667.96  1041.02  1668.97  1039.67  1672.93  1039.56  1673.51  1039.36  1674.07  1038.67  1676.14  1038.44  1676.72  1037.36  1678.92  1037.2  1679.22  1036.37  1680.33  1035.54  1681.53  1034.49  1682.77  1033.69  1683.7  1032.32  1685.23  1031.95  1685.61  1027.93  1689.78  1026.86  1690.87  1025.65  1692.09  1024.5  1693.25  1024.08  1693.64  1023.29  1694.27  1022.91  1694.56  1021.91  1695.34  1021.64  1695.52  1020.42  1696.31  1019.07  1697.04  1018.8  1697.18  1017.01  1697.89  1017.34  1698.88  1016.1  1699.23  1015.7  1699.32  1014.1  1699.6  1012.54  1699.77  1012.05  1699.82  1010.75  1699.88  1009.97  1699.92  1008.97  1699.9  1007.88  1699.89  1007.2  1699.84  1005.81  1699.73  1003.76  1699.45  1003.53  1699.4  1001.62  1698.98  999.525  1698.39  997.696  1697.76  997.594  1697.72  987.38  1693.73  985.379  1692.93  989.591  1688.72  991.712  1689.06  991.712  1689.06  995.442  1689.66  1018.75  1666.34  1016.59  1664.18  1016.59  1664.18  1015.64  1663.23  1065.72  1613.15  1066.67  1614.1  1066.67  1614.1  1068.83  1616.27  1109.24  1575.86  1107.6  1573.17  1107.61  1573.16  1106.63  1571.68  1109.8  1568.51  1114.41  1574.59  " style="fill: none; stroke: Green; stroke-width: 1.000000; fill-type: evenodd"  fill-opacity="1.000000" />
   <path d="M 961.72  1631.51  961.869  1631.51  962.055  1631.52  962.945  1631.72  963.092  1631.75  963.258  1631.79  964.117  1632.13  964.257  1632.19  964.399  1632.25  965.203  1632.74  965.332  1632.82  965.449  1632.89  966.176  1633.52  966.29  1633.61  966.917  1634.34  966.989  1634.46  967.086  1634.57  967.582  1635.37  967.657  1635.5  968.064  1636.51  968.117  1636.64  968.352  1637.7  968.38  1637.85  968.435  1638.93  968.439  1639.08  968.313  1640.15  968.291  1640.3  967.989  1641.34  967.942  1641.48  967.471  1642.45  967.401  1642.58  966.774  1643.47  966.682  1643.58  965.918  1644.35  965.808  1644.45  964.926  1645.08  964.801  1645.16  963.827  1645.63  963.69  1645.69  962.651  1645.99  962.506  1646.03  961.431  1646.15  961.282  1646.16  960.202  1646.1  960.053  1646.09  958.997  1645.85  958.854  1645.81  957.852  1645.41  957.717  1645.34  956.797  1644.77  956.675  1644.69  955.947  1644.06  955.842  1643.96  955.215  1643.23  954.854  1642.64  954.768  1642.52  954.56  1642.19  954.296  1641.53  954.231  1641.4  954.089  1641.05  953.933  1640.35  953.892  1640.2  953.814  1639.85  953.776  1639.11  953.76  1638.97  953.742  1638.62  953.829  1637.87  953.839  1637.72  953.877  1637.4  954.092  1636.66  954.126  1636.51  954.214  1636.21  954.555  1635.51  954.614  1635.37  954.744  1635.1  955.207  1634.45  955.288  1634.32  955.452  1634.09  956.028  1633.52  956.129  1633.41  956.318  1633.22  956.995  1632.74  957.114  1632.65  957.317  1632.5  958.08  1632.13  958.212  1632.06  958.423  1631.96  959.252  1631.72  959.394  1631.67  959.603  1631.61  960.477  1631.51  960.625  1631.49  960.826  1631.46  961.72  1631.51  " style="fill: none; stroke: Green; stroke-width: 1.000000; fill-type: evenodd"  fill-opacity="1.000000" />
   <path d="M 934.93  1567.49  935.019  1567.53  935.335  1567.73  935.429  1567.79  935.785  1568.1  938.958  1571.27  931.319  1578.91  929.537  1577.13  882.797  1623.87  884.727  1625.8  881.808  1628.72  879.694  1626.51  877.526  1624.24  876.99  1623.68  876.837  1623.5  875.793  1622.18  875.408  1621.6  874.742  1620.43  874.412  1619.73  874.362  1619.59  874.194  1619.22  873.973  1618.64  873.838  1618.08  873.489  1616.73  873.46  1616.39  873.298  1614.79  873.307  1614.65  873.383  1613.21  873.405  1612.85  873.815  1610.98  873.953  1610.6  874.525  1609.19  876.03  1606.23  876.632  1605.11  879.171  1600.91  879.244  1600.8  882.075  1596.78  882.234  1596.54  882.397  1596.35  885.495  1592.48  885.596  1592.36  888.811  1588.76  888.965  1588.6  892.22  1585.25  892.782  1584.66  894.412  1583.1  895.585  1581.97  899.582  1578.19  900.365  1577.59  901.766  1576.45  903.079  1575.66  904.221  1574.97  905.446  1574.44  906.852  1573.84  908.713  1573.31  909.544  1573.08  912.778  1572.32  921.994  1570.3  929.779  1568.07  930.057  1569.11  934.1  1568.12  933.935  1567.07  934.93  1567.49  " style="fill: none; stroke: Green; stroke-width: 1.000000; fill-type: evenodd"  fill-opacity="1.000000" />
   <path d="M 1042.39  1550.88  1042.54  1550.88  1042.73  1550.89  1043.62  1551.09  1043.77  1551.12  1043.93  1551.16  1044.79  1551.51  1044.93  1551.56  1045.07  1551.62  1045.88  1552.11  1046.01  1552.19  1046.12  1552.26  1046.85  1552.89  1046.96  1552.98  1047.59  1553.71  1047.66  1553.83  1047.76  1553.94  1048.25  1554.74  1048.33  1554.87  1048.74  1555.87  1048.79  1556.02  1049.03  1557.07  1049.05  1557.22  1049.11  1558.3  1049.11  1558.45  1048.99  1559.52  1048.97  1559.67  1048.66  1560.71  1048.62  1560.85  1048.15  1561.82  1048.07  1561.96  1047.45  1562.84  1047.36  1562.96  1046.59  1563.72  1046.48  1563.82  1045.6  1564.45  1045.47  1564.53  1044.5  1565  1044.36  1565.06  1043.33  1565.36  1043.18  1565.4  1042.11  1565.52  1041.96  1565.53  1040.88  1565.48  1040.73  1565.46  1039.67  1565.23  1039.53  1565.18  1038.53  1564.78  1038.39  1564.71  1037.47  1564.15  1037.35  1564.06  1036.62  1563.43  1036.26  1563.02  1036.16  1562.91  1035.89  1562.6  1035.53  1562.02  1035.44  1561.89  1035.24  1561.56  1034.97  1560.91  1034.91  1560.77  1034.76  1560.42  1034.61  1559.72  1034.57  1559.57  1034.49  1559.22  1034.45  1558.49  1034.43  1558.34  1034.42  1557.99  1034.5  1557.25  1034.51  1557.1  1034.55  1556.77  1034.77  1556.03  1034.8  1555.89  1034.89  1555.58  1035.23  1554.88  1035.29  1554.74  1035.42  1554.47  1035.88  1553.82  1035.96  1553.7  1036.13  1553.47  1036.7  1552.89  1036.8  1552.78  1036.99  1552.59  1037.67  1552.11  1037.79  1552.02  1037.99  1551.87  1038.75  1551.5  1038.89  1551.43  1039.1  1551.33  1039.92  1551.09  1040.07  1551.04  1040.28  1550.98  1041.15  1550.88  1041.3  1550.86  1041.5  1550.84  1042.39  1550.88  " style="fill: none; stroke: Green; stroke-width: 1.000000; fill-type: evenodd"  fill-opacity="1.000000" />
   <path d="M 1018  1469.56  1018.22  1469.57  1019.77  1469.84  1020.43  1469.96  1020.54  1469.98  1022.47  1470.6  1022.67  1470.67  1023.74  1471.18  1024  1471.3  1024.59  1471.58  1024.89  1471.75  1026.14  1472.57  1026.52  1472.82  1026.64  1472.9  1027.65  1473.78  1028.49  1474.52  1028.69  1474.72  1032.16  1478.36  1029.19  1481.33  1027.26  1479.4  979.615  1527.05  981.398  1528.83  973.31  1536.92  970.036  1533.65  969.759  1533.32  969.673  1533.19  969.555  1532.99  969.493  1532.86  969.445  1532.78  969.37  1532.6  969.329  1532.48  969.277  1532.35  969.239  1532.19  969.218  1532.08  969.183  1531.93  969.17  1531.78  969.166  1531.67  969.149  1531.47  969.12  1531.41  969.141  1531.17  969.169  1530.94  969.256  1530.76  969.31  1530.56  969.708  1529.31  970.814  1526.38  971.846  1522.94  972.951  1519.55  973.774  1516.29  974.766  1512.68  975.367  1509.71  976.277  1505.42  976.637  1504.22  976.856  1503.34  977.025  1502.79  977.661  1501.36  977.921  1500.71  978.085  1500.34  979.022  1498.8  979.333  1498.25  979.726  1497.76  980.086  1497.25  980.157  1497.13  981.045  1496.01  984.741  1492.14  986.742  1490.07  989.663  1487  990.249  1486.43  997.303  1479.99  1000.4  1477.59  1000.58  1477.45  1004.71  1474.26  1007.04  1472.65  1007.58  1472.25  1009.29  1471.25  1009.53  1471.13  1010.08  1470.91  1010.32  1470.81  1011.48  1470.33  1011.7  1470.27  1013.58  1469.79  1013.75  1469.75  1015.92  1469.51  1016.01  1469.51  1018  1469.56  " style="fill: none; stroke: Green; stroke-width: 1.000000; fill-type: evenodd"  fill-opacity="1.000000" />
   <path d="M 1250  1133.19  1154.49  1133.19  1154.3  1133.95  1248.43  1184  1248.22  1184.84  1150.3  1184.84  1250  1284.54  1104.1  1284.54  1104.1  1109.54  1054.1  1109.54  1054.1  1284.54  1026.71  1284.54  1026.71  1109.54  980.711  1109.54  980.711  1284.54  959.991  1284.54  959.991  1084.54  750  1084.54  750  784.538  1250  784.538  1250  1133.19  " style="fill: none; stroke: Green; stroke-width: 1.000000; fill-type: evenodd"  fill-opacity="1.000000" />
   <path d="M 1180.31  1020.04  1180.31  1067.54  1225.31  1067.54  1225.31  1020.04  1180.31  1020.04  " style="fill: none; stroke: Blue; stroke-width: 1.000000; fill-type: evenodd"  fill-opacity="1.000000" />
   <path d="M 1125.31  1020.04  1125.31  1067.54  1170.31  1067.54  1170.31  1020.04  1125.31  1020.04  " style="fill: none; stroke: Blue; stroke-width: 1.000000; fill-type: evenodd"  fill-opacity="1.000000" />
   <path d="M 1055.35  1018.29  1055.35  1067.04  1104.1  1067.04  1104.1  1018.29  1055.35  1018.29  " style="fill: none; stroke: Blue; stroke-width: 1.000000; fill-type: evenodd"  fill-opacity="1.000000" />
   <path d="M 1003.8  1018.29  1003.8  1067.04  1052.55  1067.04  1052.55  1018.29  1003.8  1018.29  " style="fill: none; stroke: Blue; stroke-width: 1.000000; fill-type: evenodd"  fill-opacity="1.000000" />
   <path d="M 930.273  991.311  928.075  991.555  925.907  991.993  923.786  992.62  921.729  993.433  919.752  994.424  917.87  995.585  916.098  996.909  914.45  998.384  912.939  999.999  911.577  1001.74  910.374  1003.6  909.339  1005.55  908.481  1007.59  907.807  1009.7  907.322  1011.85  907.029  1014.05  906.931  1016.26  907.029  1018.47  907.322  1020.66  907.807  1022.82  908.481  1024.92  909.339  1026.96  910.374  1028.92  911.577  1030.77  912.939  1032.51  914.45  1034.13  916.098  1035.6  917.87  1036.93  919.752  1038.09  921.729  1039.08  923.786  1039.89  925.907  1040.52  928.075  1040.96  930.273  1041.2  932.484  1041.25  934.691  1041.1  936.877  1040.76  939.023  1040.23  941.114  1039.51  943.133  1038.61  945.065  1037.53  946.893  1036.28  948.605  1034.88  950.186  1033.34  951.624  1031.66  952.943  1029.81  952.937  1029.81  954.028  1027.95  954.975  1025.95  955.742  1023.88  956.322  1021.74  956.711  1019.57  956.907  1017.36  956.907  1017.17  956.917  1016.72  956.917  1015.61  956.907  1015.15  956.711  1012.95  956.322  1010.77  955.742  1008.64  954.975  1006.56  954.028  1004.56  952.908  1002.66  951.624  1000.85  950.186  999.175  948.605  997.628  946.893  996.228  945.065  994.984  943.133  993.906  941.114  993.004  939.023  992.283  936.877  991.75  934.691  991.409  932.484  991.262  930.273  991.311  " style="fill: none; stroke: Blue; stroke-width: 1.000000; fill-type: evenodd"  fill-opacity="1.000000" />
   <path d="M 872.967  1006.41  871.613  1006.75  870.32  1007.27  869.111  1007.97  868.012  1008.82  867.043  1009.83  866.223  1010.96  865.568  1012.19  865.091  1013.5  864.801  1014.86  864.703  1016.26  864.801  1017.65  865.091  1019.01  865.568  1020.32  866.223  1021.56  867.043  1022.68  868.012  1023.69  869.111  1024.55  870.32  1025.24  871.613  1025.77  872.967  1026.1  874.354  1026.25  875.749  1026.2  877.122  1025.96  878.449  1025.53  879.703  1024.92  880.86  1024.14  881.897  1023.2  882.793  1022.13  883.533  1020.95  884.1  1019.68  884.485  1018.34  884.679  1016.95  884.689  1016.67  884.689  1015.85  884.679  1015.56  884.485  1014.18  884.1  1012.84  883.533  1011.56  882.793  1010.38  881.897  1009.31  880.86  1008.38  879.703  1007.6  878.449  1006.98  877.123  1006.55  875.749  1006.31  874.354  1006.26  872.967  1006.41  " style="fill: none; stroke: Blue; stroke-width: 1.000000; fill-type: evenodd"  fill-opacity="1.000000" />
   <path d="M 845.25  1011.35  844.312  1011.64  843.447  1012.1  842.69  1012.72  842.068  1013.48  841.606  1014.34  841.321  1015.28  841.225  1016.26  841.321  1017.23  841.606  1018.17  842.068  1019.03  842.69  1019.79  843.447  1020.41  844.312  1020.88  845.25  1021.16  846.225  1021.26  847.2  1021.16  848.138  1020.88  849.003  1020.41  849.761  1019.79  850.382  1019.03  850.844  1018.17  851.129  1017.23  851.225  1016.26  851.129  1015.28  850.844  1014.34  850.382  1013.48  849.761  1012.72  849.003  1012.1  848.138  1011.64  847.2  1011.35  846.225  1011.26  845.25  1011.35  " style="fill: none; stroke: Blue; stroke-width: 1.000000; fill-type: evenodd"  fill-opacity="1.000000" />
   <path d="M 830.289  1013.81  829.648  1014.04  829.092  1014.43  828.662  1014.96  828.391  1015.58  828.298  1016.26  828.391  1016.93  828.662  1017.56  829.092  1018.08  829.648  1018.48  830.289  1018.7  830.969  1018.75  831.635  1018.61  832.24  1018.3  832.737  1017.83  833.091  1017.25  833.275  1016.6  833.284  1016.46  833.284  1016.06  833.275  1015.92  833.091  1015.26  832.737  1014.68  832.24  1014.21  831.635  1013.9  830.969  1013.76  830.289  1013.81  " style="fill: none; stroke: Blue; stroke-width: 1.000000; fill-type: evenodd"  fill-opacity="1.000000" />
   <path d="M 1055.48  967.042  1055.48  1015.79  1104.23  1015.79  1104.23  967.042  1055.48  967.042  " style="fill: none; stroke: Blue; stroke-width: 1.000000; fill-type: evenodd"  fill-opacity="1.000000" />
   <path d="M 1003.71  967.042  1003.71  1015.79  1052.46  1015.79  1052.46  967.042  1003.71  967.042  " style="fill: none; stroke: Blue; stroke-width: 1.000000; fill-type: evenodd"  fill-opacity="1.000000" />
   <path d="M 1180.23  967.554  1180.23  1015.05  1225.23  1015.05  1225.23  967.554  1180.23  967.554  " style="fill: none; stroke: Blue; stroke-width: 1.000000; fill-type: evenodd"  fill-opacity="1.000000" />
   <path d="M 1125.23  967.554  1125.23  1015.05  1170.23  1015.05  1170.23  967.554  1125.23  967.554  " style="fill: none; stroke: Blue; stroke-width: 1.000000; fill-type: evenodd"  fill-opacity="1.000000" />
   <path d="M 852.892  1195.78  854.246  1196.12  855.539  1196.64  856.747  1197.34  857.847  1198.2  858.816  1199.2  859.636  1200.33  860.291  1201.56  860.768  1202.87  861.058  1204.24  861.155  1205.63  861.058  1207.02  860.768  1208.39  860.291  1209.7  859.636  1210.93  858.816  1212.06  857.847  1213.06  856.747  1213.92  855.539  1214.62  854.246  1215.14  852.892  1215.48  851.504  1215.62  850.11  1215.57  848.736  1215.33  847.409  1214.9  846.155  1214.29  844.999  1213.51  843.962  1212.58  843.065  1211.51  842.326  1210.32  841.758  1209.05  841.374  1207.71  841.18  1206.33  841.155  1205.63  841.18  1204.93  841.374  1203.55  841.758  1202.21  842.326  1200.93  843.065  1199.75  843.962  1198.68  844.999  1197.75  846.155  1196.97  847.409  1196.36  848.736  1195.93  850.11  1195.68  851.504  1195.64  852.892  1195.78  " style="fill: none; stroke: Green; stroke-width: 1.000000; fill-type: evenodd"  fill-opacity="1.000000" />
   <path d="M 1420  649.538  1380  649.538  1380  669.538  1360  669.538  1360  299.538  1420  299.538  1420  649.538  " style="fill: none; stroke: Green; stroke-width: 1.000000; fill-type: evenodd"  fill-opacity="1.000000" />
   <path d="M 640  669.538  620  669.538  620  649.538  580  649.538  580  533.456  640  533.456  640  669.538  " style="fill: none; stroke: Green; stroke-width: 1.000000; fill-type: evenodd"  fill-opacity="1.000000" />
   <path d="M 640  415.621  580  415.621  580  299.538  640  299.538  640  415.621  " style="fill: none; stroke: Green; stroke-width: 1.000000; fill-type: evenodd"  fill-opacity="1.000000" />
   <path d="M 1232.11  949.663  1122.12  949.663  1122.12  949.151  985.82  949.151  985.9  1063.47  973.005  1063.47  973.005  1066.65  945.957  1066.65  945.417  1056.89  947.711  1056.21  954.5  1052.81  960.265  1048.51  963.549  1045.29  968.026  1039.56  971.35  1033.25  972.935  1028.96  974.514  1021.94  974.85  1014.36  973.845  1006.83  971.652  999.976  969.686  995.828  965.772  989.79  960.583  984.245  954.5  979.701  947.711  976.298  940.429  974.144  933.277  973.35  928.688  973.452  921.579  974.561  914.4  977.035  907.768  980.735  901.892  985.544  896.953  991.313  894.113  996.151  888.737  991.95  881.493  989.024  874.354  988.273  869.227  988.812  863.002  990.834  859.082  993.098  855.894  995.589  850.759  993.462  841.691  993.462  835.072  996.203  826.509  995.618  817.56  1000.25  813.232  1005.57  810.5  1011.86  810.5  1020.65  813.733  1028.09  821.1  1034.97  832.236  1037.29  835.033  1036.29  841.691  1039.05  850.759  1039.05  856.049  1036.86  859.009  1039.52  865.461  1042.67  869.852  1043.77  874.354  1044.24  880.863  1043.56  885.766  1041.96  891.434  1038.69  893.931  1036.44  897.212  1041.5  901.891  1046.97  907.46  1051.53  911.366  1053.94  918.06  1056.93  914.398  1059.44  919.347  1066.65  767.891  1066.65  767.891  802.429  1232.11  802.429  1232.11  949.663  " style="fill: none; stroke: Black; stroke-width: 1.000000; fill-type: evenodd"  fill-opacity="1.000000" />
   <path d="M 1402.11  631.648  1377.89  631.648  1377.89  317.429  1402.11  317.429  1402.11  631.648  " style="fill: none; stroke: Black; stroke-width: 1.000000; fill-type: evenodd"  fill-opacity="1.000000" />
   <path d="M 1206.81  1266.65  1121.99  1266.65  1121.99  1181.83  1206.81  1266.65  " style="fill: none; stroke: Black; stroke-width: 1.000000; fill-type: evenodd"  fill-opacity="1.000000" />
   <path d="M 851.817  1201.68  853.47  1202.37  854.386  1203.19  854.596  1203.48  854.764  1203.8  855.12  1205.04  854.975  1206.82  854.474  1207.95  854.264  1208.24  854.015  1208.49  852.915  1209.24  851.943  1209.55  850.152  1209.51  848.954  1209.03  848.657  1208.83  848.392  1208.59  847.632  1207.54  847.158  1205.81  847.227  1204.83  847.974  1203.2  848.684  1202.47  849.834  1201.8  850.174  1201.69  850.526  1201.63  851.817  1201.68  " style="fill: none; stroke: Black; stroke-width: 1.000000; fill-type: evenodd"  fill-opacity="1.000000" />
   <path d="M 1232.11  1115.3  1183.23  1115.3  1183.23  1115.3  1183.23  1115.3  1140.51  1115.3  1137.36  1127.93  1135.93  1133.69  1135.93  1133.69  1133.56  1143.19  1152.67  1153.35  1152.67  1153.35  1172.81  1164.05  1172.09  1166.95  1121.99  1166.95  1121.99  1129.95  1121.99  1129.95  1121.99  1115.3  1121.99  1115.3  1121.99  1094.95  1124.67  1094.95  1124.67  1094.95  1125.17  1094.95  1125.17  1091.16  1125.17  1091.16  1125.17  1085.43  1125.93  1085.43  1125.93  1085.43  1232.11  1085.43  1232.11  1115.3  " style="fill: none; stroke: Black; stroke-width: 1.000000; fill-type: evenodd"  fill-opacity="1.000000" />
   <path d="M 622.109  631.648  597.891  631.648  597.891  548.545  622.109  548.545  622.109  631.648  " style="fill: none; stroke: Black; stroke-width: 1.000000; fill-type: evenodd"  fill-opacity="1.000000" />
   <path d="M 622.109  400.532  597.891  400.532  597.891  317.429  622.109  317.429  622.109  400.532  " style="fill: none; stroke: Black; stroke-width: 1.000000; fill-type: evenodd"  fill-opacity="1.000000" />
</svg>
