<?xml version="1.0" encoding="UTF-8" standalone="yes"?>
<!DOCTYPE svg PUBLIC "-//W3C//DTD SVG 1.0//EN" "http://www.w3.org/TR/2001/REC-SVG-20010904/DTD/svg10.dtd">
<svg height="2000" width="2000" xmlns="http://www.w3.org/2000/svg" xmlns:svg="http://www.w3.org/2000/svg" xmlns:xlink="http://www.w3.org/1999/xlink">
   <marker id="endArrow" markerHeight="8" markerUnits="strokeWidth" markerWidth="10" orient="auto" refX="1" refY="5" viewBox="0 0 1000 1000">
      <polyline fill="darkblue" points="0,0 10,5 0,10 1,5" />
   </marker>
   <circle cx="1000" cy="1000" r="1" style="stroke:black; fill: red" />
   <circle cx="1000" cy="1000" r="800" style="stroke:black; fill: none" />
   <path d="M 978.669  1686.66  974.624  1690.71  971.626  1689.38  975.104  1685.9  978.669  1686.66  " style="fill: none; stroke: Green; stroke-width: 1.000000; fill-type: evenodd"  fill-opacity="1.000000" />
   <path d="M 1012.26  1659.85  984.334  1687.78  980.678  1687.11  1010.1  1657.69  1012.26  1659.85  " style="fill: none; stroke: Green; stroke-width: 1.000000; fill-type: evenodd"  fill-opacity="1.000000" />
   <path d="M 1059.23  1606.66  1009.15  1656.74  1006.99  1654.58  1057.07  1604.5  1059.23  1606.66  " style="fill: none; stroke: Green; stroke-width: 1.000000; fill-type: evenodd"  fill-opacity="1.000000" />
   <path d="M 891.416  1632.59  888.432  1635.57  887.887  1635.04  887.556  1634.7  886.212  1633.3  889.196  1630.31  891.416  1632.59  " style="fill: none; stroke: Green; stroke-width: 1.000000; fill-type: evenodd"  fill-opacity="1.000000" />
   <path d="M 934.745  1582.34  887.997  1629.09  887.172  1628.24  885.76  1626.83  932.499  1580.09  934.745  1582.34  " style="fill: none; stroke: Green; stroke-width: 1.000000; fill-type: evenodd"  fill-opacity="1.000000" />
   <path d="M 1104.16  1567.96  1062.34  1609.78  1060.18  1607.61  1102.36  1565.43  1104.16  1567.96  " style="fill: none; stroke: Green; stroke-width: 1.000000; fill-type: evenodd"  fill-opacity="1.000000" />
   <path d="M 945.269  1577.58  937.629  1585.22  935.383  1582.97  943.022  1575.33  945.269  1577.58  " style="fill: none; stroke: Green; stroke-width: 1.000000; fill-type: evenodd"  fill-opacity="1.000000" />
   <path d="M 1104.39  1560.94  1101.34  1563.99  1099.47  1561.53  1102.46  1558.54  1104.39  1560.94  " style="fill: none; stroke: Green; stroke-width: 1.000000; fill-type: evenodd"  fill-opacity="1.000000" />
   <path d="M 987.708  1535.14  979.62  1543.23  977.374  1540.98  985.461  1532.9  987.708  1535.14  " style="fill: none; stroke: Green; stroke-width: 1.000000; fill-type: evenodd"  fill-opacity="1.000000" />
   <path d="M 1032.38  1484.7  984.824  1532.26  982.578  1530.01  1030.2  1482.39  1032.38  1484.7  " style="fill: none; stroke: Green; stroke-width: 1.000000; fill-type: evenodd"  fill-opacity="1.000000" />
   <path d="M 1038.75  1485.25  1035.75  1488.25  1033.56  1485.95  1036.56  1482.95  1038.75  1485.25  " style="fill: none; stroke: Green; stroke-width: 1.000000; fill-type: evenodd"  fill-opacity="1.000000" />
   <path d="M 955.442  1284.54  954.265  1284.54  954.265  1084.54  955.442  1084.54  955.442  1284.54  " style="fill: none; stroke: Green; stroke-width: 1.000000; fill-type: evenodd"  fill-opacity="1.000000" />
   <path d="M 1118.46  1585.59  1118.71  1587.91  1118.73  1588.61  1118.78  1590.21  1118.78  1592.39  1118.77  1592.54  1118.48  1594.71  1118.29  1595.57  1118.01  1596.81  1117.59  1598.14  1117.37  1598.82  1116.57  1600.72  1115.91  1601.96  1115.61  1602.49  1115.38  1602.84  1114.48  1604.11  1114.32  1604.36  1114.09  1604.61  1110.95  1608.39  1108.57  1611.28  1105.97  1614.01  1102.67  1617.52  1100.26  1619.75  1098.09  1621.77  1096.83  1622.84  1095.88  1623.63  1093.35  1625.08  1091.77  1625.71  1090.56  1626.16  1087.75  1626.81  1087.56  1626.85  1087.52  1626.86  1085.42  1627.22  1081.41  1627.95  1081.23  1627.99  1075.69  1629.21  1070.33  1630.79  1069.61  1631.08  1065.25  1632.63  1063.57  1633.49  1060.7  1634.95  1059.67  1635.62  1056.56  1637.64  1056  1638.08  1052.77  1640.65  1049.77  1643.51  1049.42  1643.83  1049.38  1643.86  1049.26  1643.99  1046.6  1646.91  1045.99  1647.62  1045.86  1647.8  1043.64  1650.75  1043.25  1651.29  1041.25  1654.64  1040.74  1655.53  1040.56  1655.88  1038.77  1659.74  1038.64  1660.07  1037.06  1664.5  1037  1664.64  1036.91  1664.95  1035.53  1669.95  1035.47  1670.21  1035.47  1670.23  1035.41  1670.51  1034.95  1672.29  1034.62  1673.44  1034.11  1674.96  1033.92  1675.41  1032.92  1677.5  1032.6  1678.03  1031.39  1679.87  1030.41  1681.04  1029.13  1682.56  1025.36  1686.43  1024.03  1687.8  1018.73  1692.87  1017.47  1693.85  1016.95  1694.21  1016.02  1694.88  1015.61  1695.12  1014.45  1695.81  1014.19  1695.94  1012.76  1696.64  1012.2  1696.87  1010.9  1697.31  1009.34  1697.73  1008.9  1697.85  1007.58  1698.11  1006.83  1698.26  1005.41  1698.45  1005.21  1697.44  1006.77  1697.01  1007.45  1696.83  1008.44  1696.49  1009.34  1696.18  1010.05  1695.87  1011.13  1695.41  1011.6  1695.16  1012.8  1694.53  1013.06  1694.36  1014.33  1693.55  1014.55  1693.41  1014.61  1693.37  1015.51  1692.59  1016.84  1691.41  1017.12  1691.09  1019.96  1688.42  1022.42  1686.06  1025.95  1682.43  1027.24  1681.14  1027.81  1680.45  1029.07  1678.93  1029.64  1678.07  1030.57  1676.53  1031.07  1675.49  1031.71  1673.97  1032.25  1672.37  1032.54  1671.29  1032.73  1670.4  1032.74  1670.07  1033.71  1665.7  1034.41  1663.17  1035.03  1661.1  1035.4  1660.16  1036.09  1658.23  1036.76  1656.58  1037.32  1655.36  1037.86  1654.32  1038.55  1652.9  1039.2  1651.76  1040.08  1650.22  1040.83  1649.04  1041.24  1648.37  1042.48  1646.6  1042.73  1646.31  1044.84  1643.75  1045.57  1642.89  1046.43  1642.04  1049.12  1639.4  1049.64  1638.97  1051.97  1637.15  1052.67  1636.56  1054.51  1635.27  1055.64  1634.58  1057.4  1633.56  1057.77  1633.34  1058.14  1633.11  1058.26  1633.04  1058.68  1632.84  1061.51  1631.49  1062.7  1630.92  1062.99  1630.8  1063.69  1630.56  1067.82  1629  1070.39  1628.29  1073.27  1627.5  1077.43  1626.69  1079.08  1626.32  1085.12  1625.36  1085.5  1625.3  1085.63  1625.3  1088.21  1624.77  1088.65  1624.67  1091.46  1623.62  1094.01  1622.21  1095.18  1621.23  1096.27  1620.45  1098.77  1618.13  1101.15  1615.87  1105.39  1611.39  1107.06  1609.64  1110.23  1605.78  1112.57  1602.97  1113.16  1602.22  1113.32  1601.98  1114.08  1600.85  1114.43  1600.34  1115.39  1598.57  1115.81  1597.59  1116.18  1596.66  1116.78  1594.63  1116.94  1593.84  1117.2  1592.5  1117.38  1591  1117.46  1590.29  1117.53  1588.29  1117.53  1588.08  1117.52  1588.05  1117.52  1588.01  1117.33  1585.63  1117.25  1585.13  1117.12  1584.32  1118.2  1584.13  1118.46  1585.59  " style="fill: none; stroke: Green; stroke-width: 1.000000; fill-type: evenodd"  fill-opacity="1.000000" />
   <path d="M 937.285  1570.56  937.342  1570.57  937.485  1570.6  937.552  1570.63  937.848  1570.71  938.284  1570.89  938.89  1571.25  938.622  1572.09  938.012  1572.03  937.839  1572.06  936.728  1572.19  932.007  1572.92  930.912  1573.1  927.749  1573.78  925.16  1574.24  924.843  1574.3  924.62  1574.33  919.145  1575.43  918.717  1575.51  916.304  1576.04  913.859  1576.4  912.175  1576.72  912.061  1576.74  910.052  1577.23  909.092  1577.51  907.573  1578.12  906.511  1578.59  905.208  1579.34  904.149  1579.99  902.568  1581.19  902.037  1581.62  901.031  1582.6  896.351  1587.04  893.542  1589.87  892.694  1590.74  889.919  1593.77  889.188  1594.58  886.482  1597.85  885.879  1598.6  883.283  1602.13  882.812  1602.79  880.367  1606.62  880.029  1607.17  879.764  1607.65  878.948  1609.07  877.954  1610.91  877.637  1611.59  877.558  1611.78  877.489  1611.96  877.194  1612.77  877.126  1613.01  876.913  1613.8  876.853  1614.11  876.705  1614.92  876.603  1615.98  875.539  1615.91  875.559  1615.31  875.617  1614.86  875.699  1614.17  875.747  1613.79  875.862  1613.21  876.013  1612.72  876.177  1612.16  876.334  1611.65  876.508  1611.19  876.685  1610.81  876.892  1610.35  877.579  1609.16  878.947  1606.64  880.697  1603.81  881.702  1602.24  883.713  1599.43  884.745  1598.02  887.003  1595.24  888.034  1593.99  890.517  1591.23  891.523  1590.13  894.201  1587.38  895.163  1586.41  896.764  1584.89  899.478  1582.24  901.217  1580.6  901.563  1580.33  903.202  1579.02  905.061  1577.87  905.466  1577.63  907.526  1576.7  907.869  1576.56  910.185  1575.86  910.345  1575.81  911.276  1575.62  916.203  1574.68  916.281  1574.67  918.294  1574.29  922.504  1573.36  928.189  1572.11  928.759  1572  928.858  1571.98  929.014  1571.95  934.872  1570.78  935.449  1570.69  936.27  1570.53  936.585  1570.51  936.655  1570.51  936.799  1570.5  937.285  1570.56  " style="fill: none; stroke: Green; stroke-width: 1.000000; fill-type: evenodd"  fill-opacity="1.000000" />
   <path d="M 987.702  1494.25  983.98  1498.35  983.553  1498.92  983.184  1499.35  982.707  1500.07  982.311  1500.64  981.9  1501.27  981.551  1501.86  981.476  1501.97  981.169  1502.6  980.652  1503.81  980.386  1504.47  980.229  1504.84  980.005  1505.55  979.945  1505.81  979.548  1507.47  979.329  1508.57  978.393  1514.68  978.374  1514.8  978.311  1515.09  977.905  1517.63  977.181  1521  977.13  1521.36  977.041  1521.82  976.579  1524.07  975.811  1527.15  975.682  1527.85  975.497  1528.67  974.372  1533.01  973.864  1535.22  973.849  1535.27  973.791  1535.53  973.781  1535.6  973.777  1535.68  973.764  1536.25  972.984  1536.48  972.732  1536.09  972.549  1535.69  972.499  1535.53  972.469  1535.45  972.388  1535.18  972.373  1535.07  972.357  1535  972.291  1534.51  972.309  1534.1  972.32  1534.03  972.383  1533.71  972.492  1533.29  972.567  1533.02  974.093  1527.6  974.745  1525  974.762  1524.92  975.766  1520.94  976.256  1518.64  976.264  1518.6  977.2  1514.23  977.479  1512.57  977.505  1512.43  978.285  1507.8  979.065  1504.52  979.356  1503.84  979.455  1503.59  980.375  1501.46  980.505  1501.26  980.659  1500.99  982.2  1498.64  982.4  1498.38  983.026  1497.63  983.757  1496.84  986.904  1493.51  987.702  1494.25  " style="fill: none; stroke: Green; stroke-width: 1.000000; fill-type: evenodd"  fill-opacity="1.000000" />
   <path d="M 1010.07  1474.6  1009.03  1475.4  1007.37  1476.6  1006.72  1475.73  1008.14  1474.64  1009.43  1473.73  1010.07  1474.6  " style="fill: none; stroke: Green; stroke-width: 1.000000; fill-type: evenodd"  fill-opacity="1.000000" />
   <path d="M 640  540.765  580  540.765  580  538.647  640  538.647  640  540.765  " style="fill: none; stroke: Green; stroke-width: 1.000000; fill-type: evenodd"  fill-opacity="1.000000" />
   <path d="M 640  410.429  580  410.429  580  408.312  640  408.312  640  410.429  " style="fill: none; stroke: Green; stroke-width: 1.000000; fill-type: evenodd"  fill-opacity="1.000000" />
   <path d="M 1108.49  1566.06  1109.6  1567.45  1111.17  1569.46  1111.54  1570  1112.74  1571.61  1113.31  1572.49  1114.13  1573.83  1115.32  1576.1  1115.79  1577.12  1116.37  1578.43  1116.99  1580.07  1117.26  1580.81  1117.99  1583.23  1118.2  1584.13  1117.12  1584.32  1117.25  1585.13  1117.33  1585.63  1117.52  1588.01  1117.52  1588.05  1117.53  1588.08  1117.53  1588.29  1117.46  1590.29  1117.38  1591  1117.2  1592.5  1116.94  1593.84  1116.78  1594.63  1116.18  1596.66  1115.81  1597.59  1115.39  1598.57  1114.43  1600.34  1114.08  1600.85  1113.32  1601.98  1113.16  1602.22  1112.57  1602.97  1110.23  1605.78  1107.06  1609.64  1105.39  1611.39  1101.15  1615.87  1098.77  1618.13  1096.27  1620.45  1095.18  1621.23  1094.01  1622.21  1091.46  1623.62  1088.65  1624.67  1088.21  1624.77  1085.63  1625.3  1085.5  1625.3  1085.12  1625.36  1079.08  1626.32  1077.43  1626.68  1073.27  1627.5  1070.39  1628.29  1067.82  1629  1063.69  1630.56  1062.99  1630.8  1062.7  1630.92  1061.51  1631.49  1058.68  1632.84  1058.26  1633.04  1058.14  1633.11  1057.77  1633.34  1057.4  1633.56  1055.64  1634.58  1054.51  1635.27  1052.67  1636.56  1051.97  1637.15  1049.64  1638.97  1049.12  1639.4  1046.43  1642.04  1045.57  1642.89  1044.84  1643.75  1042.73  1646.31  1042.48  1646.6  1041.24  1648.37  1040.83  1649.04  1040.08  1650.22  1039.2  1651.76  1038.55  1652.9  1037.86  1654.32  1037.32  1655.36  1036.76  1656.58  1036.09  1658.23  1035.4  1660.16  1035.03  1661.1  1034.41  1663.17  1033.71  1665.7  1032.74  1670.07  1032.73  1670.4  1032.54  1671.29  1032.25  1672.37  1031.71  1673.97  1031.07  1675.49  1030.57  1676.53  1029.64  1678.07  1029.07  1678.93  1027.81  1680.45  1027.24  1681.14  1025.95  1682.43  1022.42  1686.06  1019.96  1688.42  1017.12  1691.09  1016.84  1691.41  1015.51  1692.59  1014.61  1693.37  1014.55  1693.41  1014.33  1693.55  1013.06  1694.36  1012.8  1694.53  1011.6  1695.16  1011.13  1695.41  1010.05  1695.87  1009.34  1696.18  1008.44  1696.49  1007.45  1696.83  1006.77  1697.01  1005.21  1697.44  1005.41  1698.45  1004.71  1698.54  1003.97  1698.6  1002.54  1698.7  1000.35  1698.73  1000.16  1698.73  998.38  1698.58  998.003  1698.55  996.442  1698.34  995.645  1698.23  994.528  1698.02  993.314  1697.79  992.645  1697.63  991.028  1697.24  989.838  1696.88  988.711  1696.51  988.021  1696.26  986.414  1695.65  986.176  1695.55  982.778  1694.12  974.624  1690.71  978.669  1686.66  980.669  1687.09  980.678  1687.11  984.334  1687.78  1012.26  1659.85  1010.1  1657.69  1010.1  1657.69  1009.15  1656.74  1059.23  1606.66  1060.18  1607.61  1060.18  1607.61  1062.34  1609.78  1104.16  1567.96  1102.36  1565.43  1102.36  1565.43  1101.33  1564  1104.39  1560.94  1108.49  1566.06  " style="fill: none; stroke: Green; stroke-width: 1.000000; fill-type: evenodd"  fill-opacity="1.000000" />
   <path d="M 961.357  1631.15  961.906  1631.17  962.034  1631.17  962.648  1631.31  963.187  1631.41  963.301  1631.44  963.894  1631.68  964.407  1631.87  964.506  1631.91  965.059  1632.25  965.533  1632.53  965.614  1632.58  966.115  1633.01  966.535  1633.37  966.967  1633.87  967.016  1633.95  967.371  1634.37  967.712  1634.92  967.99  1635.4  968.271  1636.09  968.465  1636.6  968.626  1637.33  968.731  1637.87  968.769  1638.61  968.781  1639.16  968.694  1639.9  968.613  1640.45  968.405  1641.16  968.233  1641.68  967.908  1642.35  967.65  1642.84  967.218  1643.45  966.882  1643.88  966.355  1644.41  965.951  1644.78  965.343  1645.21  964.882  1645.51  964.211  1645.83  963.706  1646.05  962.99  1646.26  962.456  1646.39  961.715  1646.47  961.167  1646.51  960.422  1646.47  959.876  1646.41  959.149  1646.25  958.62  1646.1  957.93  1645.82  957.434  1645.58  956.8  1645.19  956.351  1644.87  955.85  1644.44  955.462  1644.05  955.03  1643.55  954.781  1643.15  954.464  1642.7  954.321  1642.47  954.139  1642.02  953.902  1641.52  953.804  1641.28  953.696  1640.8  953.547  1640.27  953.492  1640.03  953.466  1639.52  953.408  1638.97  953.396  1638.74  953.456  1638.22  953.491  1637.67  953.517  1637.45  953.665  1636.94  953.792  1636.4  953.853  1636.2  954.088  1635.71  954.304  1635.21  954.393  1635.02  954.712  1634.57  955.01  1634.11  955.123  1633.95  955.52  1633.55  955.892  1633.15  956.022  1633.02  956.489  1632.69  956.923  1632.35  957.064  1632.25  957.589  1632  958.074  1631.74  958.22  1631.67  958.791  1631.5  959.313  1631.33  959.457  1631.29  960.059  1631.22  960.602  1631.14  960.741  1631.12  961.357  1631.15  " style="fill: none; stroke: Green; stroke-width: 1.000000; fill-type: evenodd"  fill-opacity="1.000000" />
   <path d="M 943.022  1575.33  935.383  1582.97  934.746  1582.34  934.746  1582.34  932.499  1580.09  885.76  1626.83  887.172  1628.24  887.997  1629.09  889.196  1630.31  886.212  1633.3  883.855  1630.87  882.792  1629.78  882.14  1629.07  881.237  1628.11  879.983  1626.78  879.654  1626.37  878.918  1625.44  878.403  1624.8  877.69  1623.61  877.154  1622.71  876.244  1620.55  876.074  1619.89  875.759  1618.59  875.701  1618.32  875.591  1617.42  875.529  1615.91  876.603  1615.98  876.705  1614.92  876.853  1614.11  876.913  1613.8  877.126  1613.01  877.194  1612.77  877.489  1611.96  877.558  1611.78  877.637  1611.59  877.954  1610.91  878.948  1609.07  879.764  1607.65  880.029  1607.17  880.367  1606.62  882.812  1602.79  883.283  1602.13  885.879  1598.6  886.482  1597.85  889.188  1594.58  889.919  1593.77  892.695  1590.74  893.542  1589.87  896.351  1587.04  901.031  1582.6  902.037  1581.62  902.568  1581.19  904.149  1579.99  905.209  1579.34  906.511  1578.59  907.573  1578.12  909.092  1577.51  910.052  1577.23  912.061  1576.74  912.175  1576.72  913.859  1576.4  916.304  1576.04  918.717  1575.51  919.145  1575.43  924.62  1574.33  924.843  1574.3  925.16  1574.24  927.749  1573.78  930.912  1573.1  932.007  1572.92  936.728  1572.19  937.839  1572.06  938.012  1572.03  938.622  1572.09  938.902  1571.21  943.022  1575.33  " style="fill: none; stroke: Green; stroke-width: 1.000000; fill-type: evenodd"  fill-opacity="1.000000" />
   <path d="M 1042.03  1550.52  1042.58  1550.54  1042.71  1550.54  1043.32  1550.68  1043.86  1550.78  1043.98  1550.81  1044.57  1551.05  1045.08  1551.24  1045.18  1551.28  1045.73  1551.62  1046.21  1551.9  1046.29  1551.95  1046.79  1552.38  1047.21  1552.74  1047.64  1553.24  1047.69  1553.32  1048.04  1553.74  1048.39  1554.29  1048.66  1554.77  1048.94  1555.46  1049.14  1555.97  1049.3  1556.7  1049.41  1557.24  1049.44  1557.98  1049.45  1558.53  1049.37  1559.27  1049.29  1559.82  1049.08  1560.53  1048.91  1561.05  1048.58  1561.72  1048.32  1562.21  1047.89  1562.82  1047.56  1563.25  1047.03  1563.78  1046.62  1564.15  1046.02  1564.58  1045.56  1564.88  1044.89  1565.2  1044.38  1565.42  1043.67  1565.63  1043.13  1565.76  1042.39  1565.84  1041.84  1565.88  1041.1  1565.84  1040.55  1565.78  1039.82  1565.62  1039.29  1565.47  1038.6  1565.19  1038.11  1564.95  1037.47  1564.56  1037.03  1564.24  1036.53  1563.81  1036.28  1563.53  1035.89  1563.14  1035.7  1562.92  1035.46  1562.52  1035.14  1562.07  1035  1561.84  1034.81  1561.39  1034.58  1560.9  1034.48  1560.65  1034.37  1560.17  1034.22  1559.64  1034.17  1559.4  1034.14  1558.89  1034.08  1558.35  1034.07  1558.11  1034.13  1557.59  1034.17  1557.04  1034.19  1556.82  1034.34  1556.31  1034.47  1555.78  1034.53  1555.57  1034.76  1555.08  1034.98  1554.58  1035.07  1554.39  1035.39  1553.94  1035.68  1553.48  1035.8  1553.32  1036.19  1552.93  1036.57  1552.52  1036.7  1552.39  1037.16  1552.06  1037.6  1551.72  1037.74  1551.62  1038.26  1551.37  1038.75  1551.11  1038.89  1551.04  1039.46  1550.88  1039.99  1550.7  1040.13  1550.66  1040.73  1550.59  1041.28  1550.51  1041.41  1550.49  1042.03  1550.52  " style="fill: none; stroke: Green; stroke-width: 1.000000; fill-type: evenodd"  fill-opacity="1.000000" />
   <path d="M 1019.3  1471.37  1020.15  1471.44  1020.68  1471.53  1021.61  1471.69  1022.03  1471.8  1023.05  1472.06  1023.35  1472.17  1024.45  1472.56  1024.63  1472.64  1025.82  1473.18  1026.28  1473.44  1027.16  1473.96  1028.46  1474.87  1030.69  1476.83  1036.56  1482.95  1033.56  1485.95  1032.38  1484.7  1032.38  1484.7  1030.2  1482.39  982.578  1530.01  985.461  1532.9  977.374  1540.98  972.892  1536.5  973.764  1536.25  973.777  1535.68  973.781  1535.6  973.791  1535.53  973.849  1535.27  973.864  1535.22  974.372  1533.01  975.497  1528.67  975.682  1527.85  975.811  1527.15  976.579  1524.07  977.041  1521.82  977.13  1521.36  977.181  1521  977.905  1517.63  978.312  1515.09  978.374  1514.8  978.393  1514.68  979.329  1508.57  979.548  1507.47  979.945  1505.81  980.005  1505.55  980.229  1504.84  980.386  1504.47  980.652  1503.81  981.169  1502.6  981.476  1501.97  981.551  1501.86  981.9  1501.27  982.311  1500.64  982.708  1500.07  983.184  1499.35  983.553  1498.92  983.98  1498.35  987.703  1494.25  986.904  1493.51  988.209  1492.13  994.813  1485.59  997.406  1483.34  1001.8  1479.51  1004.43  1477.45  1005.47  1476.65  1006.72  1475.74  1007.37  1476.6  1009.03  1475.4  1010.07  1474.6  1009.45  1473.76  1010.29  1473.3  1011.16  1472.87  1011.58  1472.66  1012.45  1472.32  1012.93  1472.14  1013.79  1471.89  1014.32  1471.74  1015.15  1471.58  1015.75  1471.47  1016.53  1471.4  1017.21  1471.33  1017.92  1471.32  1018.68  1471.32  1019.3  1471.37  " style="fill: none; stroke: Green; stroke-width: 1.000000; fill-type: evenodd"  fill-opacity="1.000000" />
   <path d="M 1250  1133.19  1154.49  1133.19  1154.3  1133.95  1248.43  1184  1248.22  1184.84  1150.3  1184.84  1250  1284.54  1104.1  1284.54  1104.1  1109.54  1054.1  1109.54  1054.1  1284.54  1028.41  1284.54  1028.41  1109.54  979.019  1109.54  979.019  1284.54  955.442  1284.54  955.442  1084.54  750  1084.54  750  784.538  1250  784.538  1250  1133.19  " style="fill: none; stroke: Green; stroke-width: 1.000000; fill-type: evenodd"  fill-opacity="1.000000" />
   <path d="M 1180.31  1020.04  1180.31  1067.54  1225.31  1067.54  1225.31  1020.04  1180.31  1020.04  " style="fill: none; stroke: Blue; stroke-width: 1.000000; fill-type: evenodd"  fill-opacity="1.000000" />
   <path d="M 1125.31  1020.04  1125.31  1067.54  1170.31  1067.54  1170.31  1020.04  1125.31  1020.04  " style="fill: none; stroke: Blue; stroke-width: 1.000000; fill-type: evenodd"  fill-opacity="1.000000" />
   <path d="M 1055.35  1018.29  1055.35  1067.04  1104.1  1067.04  1104.1  1018.29  1055.35  1018.29  " style="fill: none; stroke: Blue; stroke-width: 1.000000; fill-type: evenodd"  fill-opacity="1.000000" />
   <path d="M 1003.8  1018.29  1003.8  1067.04  1052.55  1067.04  1052.55  1018.29  1003.8  1018.29  " style="fill: none; stroke: Blue; stroke-width: 1.000000; fill-type: evenodd"  fill-opacity="1.000000" />
   <path d="M 930.273  991.311  928.075  991.555  925.907  991.993  923.786  992.62  921.729  993.433  919.752  994.424  917.87  995.585  916.098  996.909  914.45  998.384  912.939  999.999  911.577  1001.74  910.374  1003.6  909.339  1005.55  908.481  1007.59  907.807  1009.7  907.322  1011.85  907.029  1014.05  906.931  1016.26  907.029  1018.47  907.322  1020.66  907.807  1022.82  908.481  1024.92  909.339  1026.96  910.374  1028.92  911.577  1030.77  912.939  1032.51  914.45  1034.13  916.098  1035.6  917.87  1036.93  919.752  1038.09  921.729  1039.08  923.786  1039.89  925.907  1040.52  928.075  1040.96  930.273  1041.2  932.484  1041.25  934.691  1041.1  936.877  1040.76  939.023  1040.23  941.114  1039.51  943.133  1038.61  945.065  1037.53  946.893  1036.28  948.605  1034.88  950.186  1033.34  951.624  1031.66  952.908  1029.86  954.028  1027.95  954.975  1025.95  955.742  1023.88  956.322  1021.74  956.711  1019.57  956.907  1017.36  956.907  1017.21  956.919  1016.64  956.919  1015.72  956.907  1015.15  956.711  1012.95  956.322  1010.77  955.742  1008.64  954.975  1006.56  954.028  1004.56  952.908  1002.66  951.624  1000.85  950.186  999.175  948.605  997.628  946.893  996.228  945.065  994.984  943.133  993.906  941.114  993.004  939.023  992.283  936.877  991.75  934.691  991.409  932.484  991.262  930.273  991.311  " style="fill: none; stroke: Blue; stroke-width: 1.000000; fill-type: evenodd"  fill-opacity="1.000000" />
   <path d="M 872.967  1006.41  871.613  1006.75  870.32  1007.27  869.111  1007.97  868.012  1008.82  867.043  1009.83  866.223  1010.96  865.568  1012.19  865.091  1013.5  864.801  1014.86  864.703  1016.26  864.801  1017.65  865.091  1019.01  865.568  1020.32  866.223  1021.56  867.043  1022.68  868.012  1023.69  869.111  1024.55  870.32  1025.24  871.613  1025.77  872.967  1026.1  874.354  1026.25  875.749  1026.2  877.122  1025.96  878.449  1025.53  879.703  1024.92  880.86  1024.14  881.897  1023.2  882.793  1022.13  883.533  1020.95  884.1  1019.68  884.485  1018.34  884.679  1016.95  884.691  1016.6  884.691  1015.92  884.679  1015.56  884.485  1014.18  884.1  1012.84  883.533  1011.56  882.793  1010.38  881.897  1009.31  880.86  1008.38  879.703  1007.6  878.449  1006.98  877.122  1006.55  875.749  1006.31  874.354  1006.26  872.967  1006.41  " style="fill: none; stroke: Blue; stroke-width: 1.000000; fill-type: evenodd"  fill-opacity="1.000000" />
   <path d="M 845.25  1011.35  844.312  1011.64  843.447  1012.1  842.69  1012.72  842.068  1013.48  841.606  1014.34  841.321  1015.28  841.225  1016.26  841.321  1017.23  841.606  1018.17  842.068  1019.03  842.69  1019.79  843.447  1020.41  844.312  1020.88  845.25  1021.16  846.225  1021.26  847.2  1021.16  848.138  1020.88  849.003  1020.41  849.761  1019.79  850.382  1019.03  850.844  1018.17  851.129  1017.23  851.225  1016.26  851.129  1015.28  850.844  1014.34  850.382  1013.48  849.761  1012.72  849.003  1012.1  848.138  1011.64  847.2  1011.35  846.225  1011.26  845.25  1011.35  " style="fill: none; stroke: Blue; stroke-width: 1.000000; fill-type: evenodd"  fill-opacity="1.000000" />
   <path d="M 830.289  1013.81  829.648  1014.04  829.092  1014.43  828.662  1014.96  828.391  1015.58  828.298  1016.26  828.391  1016.93  828.662  1017.56  829.092  1018.08  829.648  1018.48  830.289  1018.7  830.969  1018.75  831.635  1018.61  832.24  1018.3  832.737  1017.83  833.091  1017.25  833.275  1016.6  833.286  1016.42  833.286  1016.09  833.275  1015.92  833.091  1015.26  832.737  1014.68  832.24  1014.21  831.635  1013.9  830.969  1013.76  830.289  1013.81  " style="fill: none; stroke: Blue; stroke-width: 1.000000; fill-type: evenodd"  fill-opacity="1.000000" />
   <path d="M 1055.48  967.042  1055.48  1015.79  1104.23  1015.79  1104.23  967.042  1055.48  967.042  " style="fill: none; stroke: Blue; stroke-width: 1.000000; fill-type: evenodd"  fill-opacity="1.000000" />
   <path d="M 1003.71  967.042  1003.71  1015.79  1052.46  1015.79  1052.46  967.042  1003.71  967.042  " style="fill: none; stroke: Blue; stroke-width: 1.000000; fill-type: evenodd"  fill-opacity="1.000000" />
   <path d="M 1180.23  967.554  1180.23  1015.05  1225.23  1015.05  1225.23  967.554  1180.23  967.554  " style="fill: none; stroke: Blue; stroke-width: 1.000000; fill-type: evenodd"  fill-opacity="1.000000" />
   <path d="M 1125.23  967.554  1125.23  1015.05  1170.23  1015.05  1170.23  967.554  1125.23  967.554  " style="fill: none; stroke: Blue; stroke-width: 1.000000; fill-type: evenodd"  fill-opacity="1.000000" />
   <path d="M 852.892  1195.78  854.246  1196.12  855.539  1196.64  856.747  1197.34  857.847  1198.2  858.816  1199.2  859.636  1200.33  860.291  1201.56  860.768  1202.87  861.058  1204.24  861.155  1205.63  861.058  1207.02  860.768  1208.39  860.291  1209.7  859.636  1210.93  858.816  1212.06  857.847  1213.06  856.747  1213.92  855.539  1214.62  854.246  1215.14  852.892  1215.48  851.504  1215.62  850.11  1215.57  848.736  1215.33  847.409  1214.9  846.155  1214.29  844.999  1213.51  843.962  1212.58  843.065  1211.51  842.326  1210.32  841.758  1209.05  841.374  1207.71  841.18  1206.33  841.155  1205.63  841.18  1204.93  841.374  1203.55  841.758  1202.21  842.326  1200.93  843.065  1199.75  843.962  1198.68  844.999  1197.75  846.155  1196.97  847.409  1196.36  848.736  1195.93  850.11  1195.68  851.504  1195.64  852.892  1195.78  " style="fill: none; stroke: Green; stroke-width: 1.000000; fill-type: evenodd"  fill-opacity="1.000000" />
   <path d="M 1420  649.538  1380  649.538  1380  669.538  1360  669.538  1360  299.538  1420  299.538  1420  649.538  " style="fill: none; stroke: Green; stroke-width: 1.000000; fill-type: evenodd"  fill-opacity="1.000000" />
   <path d="M 640  669.538  620  669.538  620  649.538  580  649.538  580  540.765  640  540.765  640  669.538  " style="fill: none; stroke: Green; stroke-width: 1.000000; fill-type: evenodd"  fill-opacity="1.000000" />
   <path d="M 640  408.312  580  408.312  580  299.538  640  299.538  640  408.312  " style="fill: none; stroke: Green; stroke-width: 1.000000; fill-type: evenodd"  fill-opacity="1.000000" />
   <path d="M 1206.81  1266.65  1121.99  1266.65  1121.99  1181.83  1206.81  1266.65  " style="fill: none; stroke: Black; stroke-width: 1.000000; fill-type: evenodd"  fill-opacity="1.000000" />
   <path d="M 851.817  1201.68  853.47  1202.37  854.386  1203.19  854.596  1203.48  854.764  1203.8  855.12  1205.03  854.974  1206.78  854.174  1208.24  852.824  1209.27  851.943  1209.55  850.152  1209.51  848.954  1209.03  848.657  1208.83  848.392  1208.59  847.632  1207.54  847.158  1205.81  847.227  1204.83  847.974  1203.2  848.684  1202.47  849.834  1201.8  850.174  1201.69  850.526  1201.63  851.817  1201.68  " style="fill: none; stroke: Black; stroke-width: 1.000000; fill-type: evenodd"  fill-opacity="1.000000" />
   <path d="M 1232.11  1115.3  1140.51  1115.3  1133.56  1143.19  1172.81  1164.05  1172.09  1166.95  1121.99  1166.95  1121.99  1095.08  1125.17  1095.08  1125.17  1085.43  1232.11  1085.43  1232.11  1115.3  " style="fill: none; stroke: Black; stroke-width: 1.000000; fill-type: evenodd"  fill-opacity="1.000000" />
   <path d="M 622.109  631.648  597.891  631.648  597.891  556.538  622.109  556.538  622.109  631.648  " style="fill: none; stroke: Black; stroke-width: 1.000000; fill-type: evenodd"  fill-opacity="1.000000" />
   <path d="M 622.109  392.539  597.891  392.539  597.891  317.429  622.109  317.429  622.109  392.539  " style="fill: none; stroke: Black; stroke-width: 1.000000; fill-type: evenodd"  fill-opacity="1.000000" />
   <path d="M 1232.11  949.663  1122.12  949.663  1122.12  949.151  985.82  949.151  985.912  1081.75  982.734  1081.75  982.734  1091.65  972.155  1091.65  972.155  1066.65  945.957  1066.65  945.417  1056.89  947.711  1056.21  954.5  1052.81  960.265  1048.51  963.546  1045.3  967.979  1039.63  971.344  1033.27  972.935  1028.96  974.514  1021.94  974.85  1014.36  973.845  1006.83  971.652  999.976  969.686  995.828  965.772  989.79  960.583  984.245  954.5  979.701  947.711  976.298  940.429  974.144  933.277  973.35  928.688  973.452  921.579  974.561  914.4  977.035  907.768  980.735  901.891  985.544  896.953  991.313  894.113  996.151  888.737  991.95  881.493  989.024  874.354  988.273  869.227  988.812  863.002  990.835  859.082  993.098  855.894  995.589  850.759  993.462  841.691  993.462  835.072  996.203  826.509  995.618  817.56  1000.25  813.232  1005.57  810.5  1011.86  810.5  1020.65  813.734  1028.09  821.1  1034.97  832.236  1037.29  835.033  1036.29  841.691  1039.05  850.759  1039.05  856.049  1036.86  859.009  1039.52  865.461  1042.67  869.852  1043.77  874.354  1044.24  881.493  1043.49  888.149  1040.8  891.901  1038.27  893.931  1036.44  897.212  1041.5  901.891  1046.97  907.46  1051.53  911.366  1053.94  918.06  1056.93  914.398  1059.44  919.347  1066.65  767.891  1066.65  767.891  802.429  1232.11  802.429  1232.11  949.663  " style="fill: none; stroke: Black; stroke-width: 1.000000; fill-type: evenodd"  fill-opacity="1.000000" />
   <path d="M 1402.11  631.648  1377.89  631.648  1377.89  317.429  1402.11  317.429  1402.11  631.648  " style="fill: none; stroke: Black; stroke-width: 1.000000; fill-type: evenodd"  fill-opacity="1.000000" />
</svg>
