<?xml version="1.0" encoding="UTF-8" standalone="yes"?>
<!DOCTYPE svg PUBLIC "-//W3C//DTD SVG 1.0//EN" "http://www.w3.org/TR/2001/REC-SVG-20010904/DTD/svg10.dtd">
<svg height="2000" width="2000" xmlns="http://www.w3.org/2000/svg" xmlns:svg="http://www.w3.org/2000/svg" xmlns:xlink="http://www.w3.org/1999/xlink">
   <marker id="endArrow" markerHeight="8" markerUnits="strokeWidth" markerWidth="10" orient="auto" refX="1" refY="5" viewBox="0 0 1000 1000">
      <polyline fill="darkblue" points="0,0 10,5 0,10 1,5" />
   </marker>
   <circle cx="1000" cy="1000" r="1" style="stroke:black; fill: red" />
   <circle cx="1000" cy="1000" r="800" style="stroke:black; fill: none" />
   <path d="M 952.086  1629.81  953.24  1630.69  954.389  1632.22  956.615  1634.04  957.242  1635.81  956.892  1638.01  955.86  1638.95  955.494  1639.64  949.351  1644.75  948.43  1645.49  947.42  1645.7  946.866  1645.74  945.984  1645.11  940.145  1640.79  940.225  1640  940.257  1639.35  944.601  1633.69  945.723  1632.04  949.563  1629.75  949.994  1629.23  952.086  1629.81  " style="fill: none; stroke: Green; stroke-width: 1.000000; fill-type: evenodd"  fill-opacity="1.000000" />
   <path d="M 1049.19  1522.3  1055.97  1524.69  1056.79  1525.11  1057.63  1525.64  1059.31  1527.41  1062.15  1530.6  1062.68  1531.71  1063.28  1532.73  1064.57  1535.89  1064.98  1537.03  1065.64  1541.96  1065.72  1549.33  1065.42  1550.45  1062.79  1556.06  1061.79  1558.18  1057.92  1562.27  1055.75  1564.5  1050.74  1567.52  1049.54  1568.4  1048.82  1568.49  1048.78  1568.47  1046.1  1568.62  1045.45  1568.43  1044.22  1568.01  1040.35  1565.94  1037.92  1564.17  1036.01  1562.35  1032.97  1559.45  1030.84  1556.76  1028.79  1554.18  1027.67  1552.26  1025.32  1548.31  1025.18  1547.99  1024.36  1544.86  1023.52  1541.83  1023.53  1541.43  1023.71  1540.04  1023.98  1538.62  1024.08  1538.21  1025.36  1536.74  1028.52  1531.86  1030.6  1529.92  1035.27  1525.53  1040.9  1523.36  1044.4  1522.06  1045.18  1521.99  1047.08  1521.77  1049.19  1522.3  " style="fill: none; stroke: Green; stroke-width: 1.000000; fill-type: evenodd"  fill-opacity="1.000000" />
   <path d="M 1250  1184.84  1150.3  1184.84  1250  1284.54  750  1284.54  750  784.538  1250  784.538  1250  1184.84  " style="fill: none; stroke: Green; stroke-width: 1.000000; fill-type: evenodd"  fill-opacity="1.000000" />
   <path d="M 1125.31  1020.04  1125.31  1067.54  1170.31  1067.54  1170.31  1020.04  1125.31  1020.04  " style="fill: none; stroke: Blue; stroke-width: 1.000000; fill-type: evenodd"  fill-opacity="1.000000" />
   <path d="M 1180.31  1020.04  1180.31  1067.54  1225.31  1067.54  1225.31  1020.04  1180.31  1020.04  " style="fill: none; stroke: Blue; stroke-width: 1.000000; fill-type: evenodd"  fill-opacity="1.000000" />
   <path d="M 1055.35  1018.29  1055.35  1067.04  1104.1  1067.04  1104.1  1018.29  1055.35  1018.29  " style="fill: none; stroke: Blue; stroke-width: 1.000000; fill-type: evenodd"  fill-opacity="1.000000" />
   <path d="M 1003.8  1018.29  1003.8  1067.04  1052.55  1067.04  1052.55  1018.29  1003.8  1018.29  " style="fill: none; stroke: Blue; stroke-width: 1.000000; fill-type: evenodd"  fill-opacity="1.000000" />
   <path d="M 930.273  991.311  928.075  991.555  925.907  991.993  923.786  992.62  921.729  993.433  919.752  994.424  917.87  995.585  916.098  996.909  914.45  998.384  912.939  999.999  911.577  1001.74  910.374  1003.6  909.339  1005.55  908.481  1007.59  907.807  1009.7  907.322  1011.85  907.029  1014.05  906.931  1016.26  907.029  1018.47  907.322  1020.66  907.807  1022.82  908.481  1024.92  909.339  1026.96  910.374  1028.92  911.577  1030.77  912.939  1032.51  914.45  1034.13  916.098  1035.6  917.87  1036.93  919.752  1038.09  921.729  1039.08  923.786  1039.89  925.907  1040.52  928.075  1040.96  930.273  1041.2  932.484  1041.25  934.691  1041.1  936.877  1040.76  939.023  1040.23  941.114  1039.51  943.133  1038.61  945.065  1037.53  946.893  1036.28  948.605  1034.88  950.186  1033.34  951.624  1031.66  952.908  1029.86  954.028  1027.95  954.975  1025.95  955.742  1023.88  956.322  1021.74  956.711  1019.57  956.907  1017.36  956.931  1016.23  956.907  1015.15  956.711  1012.95  956.322  1010.77  955.742  1008.64  954.975  1006.56  954.028  1004.56  952.908  1002.66  951.624  1000.85  950.186  999.175  948.605  997.628  946.893  996.228  945.065  994.984  943.133  993.906  941.114  993.004  939.023  992.283  936.877  991.75  934.691  991.409  932.484  991.262  930.273  991.311  " style="fill: none; stroke: Blue; stroke-width: 1.000000; fill-type: evenodd"  fill-opacity="1.000000" />
   <path d="M 872.967  1006.41  871.613  1006.75  870.32  1007.27  869.111  1007.97  868.012  1008.82  867.043  1009.83  866.223  1010.96  865.568  1012.19  865.091  1013.5  864.801  1014.86  864.703  1016.26  864.801  1017.65  865.091  1019.01  865.568  1020.32  866.223  1021.56  867.043  1022.68  868.012  1023.69  869.112  1024.55  870.32  1025.24  871.613  1025.77  872.967  1026.1  874.354  1026.25  875.749  1026.2  877.122  1025.96  878.449  1025.53  879.703  1024.92  880.86  1024.14  881.897  1023.2  882.793  1022.13  883.533  1020.95  884.1  1019.68  884.485  1018.34  884.679  1016.95  884.703  1016.24  884.679  1015.56  884.485  1014.18  884.1  1012.84  883.533  1011.56  882.793  1010.38  881.897  1009.31  880.86  1008.38  879.703  1007.6  878.449  1006.98  877.122  1006.55  875.749  1006.31  874.354  1006.26  872.967  1006.41  " style="fill: none; stroke: Blue; stroke-width: 1.000000; fill-type: evenodd"  fill-opacity="1.000000" />
   <path d="M 845.25  1011.35  844.312  1011.64  843.447  1012.1  842.69  1012.72  842.068  1013.48  841.606  1014.34  841.321  1015.28  841.225  1016.26  841.321  1017.23  841.606  1018.17  842.068  1019.03  842.69  1019.79  843.447  1020.41  844.312  1020.88  845.25  1021.16  846.225  1021.26  847.201  1021.16  848.139  1020.88  849.003  1020.41  849.761  1019.79  850.382  1019.03  850.844  1018.17  851.129  1017.23  851.225  1016.26  851.129  1015.28  850.844  1014.34  850.382  1013.48  849.761  1012.72  849.003  1012.1  848.139  1011.64  847.201  1011.35  846.225  1011.26  845.25  1011.35  " style="fill: none; stroke: Blue; stroke-width: 1.000000; fill-type: evenodd"  fill-opacity="1.000000" />
   <path d="M 830.289  1013.81  829.648  1014.04  829.091  1014.43  828.662  1014.96  828.391  1015.58  828.298  1016.26  828.391  1016.93  828.662  1017.56  829.091  1018.08  829.648  1018.48  830.289  1018.7  830.969  1018.75  831.635  1018.61  832.24  1018.3  832.737  1017.83  833.091  1017.25  833.275  1016.6  833.298  1016.26  833.275  1015.92  833.091  1015.26  832.737  1014.68  832.24  1014.21  831.635  1013.9  830.969  1013.76  830.289  1013.81  " style="fill: none; stroke: Blue; stroke-width: 1.000000; fill-type: evenodd"  fill-opacity="1.000000" />
   <path d="M 1003.71  967.042  1003.71  1015.79  1052.46  1015.79  1052.46  967.042  1003.71  967.042  " style="fill: none; stroke: Blue; stroke-width: 1.000000; fill-type: evenodd"  fill-opacity="1.000000" />
   <path d="M 1055.48  967.042  1055.48  1015.79  1104.23  1015.79  1104.23  967.042  1055.48  967.042  " style="fill: none; stroke: Blue; stroke-width: 1.000000; fill-type: evenodd"  fill-opacity="1.000000" />
   <path d="M 1125.23  967.554  1125.23  1015.05  1170.23  1015.05  1170.23  967.554  1125.23  967.554  " style="fill: none; stroke: Blue; stroke-width: 1.000000; fill-type: evenodd"  fill-opacity="1.000000" />
   <path d="M 1180.23  967.554  1180.23  1015.05  1225.23  1015.05  1225.23  967.554  1180.23  967.554  " style="fill: none; stroke: Blue; stroke-width: 1.000000; fill-type: evenodd"  fill-opacity="1.000000" />
   <path d="M 1420  649.538  1380  649.538  1380  669.538  1360  669.538  1360  299.538  1420  299.538  1420  649.538  " style="fill: none; stroke: Green; stroke-width: 1.000000; fill-type: evenodd"  fill-opacity="1.000000" />
   <path d="M 640  669.538  620  669.538  620  649.538  580  649.538  580  555.055  640  555.055  640  669.538  " style="fill: none; stroke: Green; stroke-width: 1.000000; fill-type: evenodd"  fill-opacity="1.000000" />
   <path d="M 640  394.021  580  394.021  580  299.538  640  299.538  640  394.021  " style="fill: none; stroke: Green; stroke-width: 1.000000; fill-type: evenodd"  fill-opacity="1.000000" />
   <path d="M 1230.88  948.432  1123.35  948.432  1123.35  947.92  984.588  947.92  984.683  1086.16  1106.19  1086.16  1106.19  1086.66  1230.88  1086.66  1230.88  1165.71  1104.13  1165.71  1203.84  1265.42  1203.83  1265.42  769.122  1265.42  769.122  803.66  1230.88  803.66  1230.88  948.432  " style="fill: none; stroke: Black; stroke-width: 1.000000; fill-type: evenodd"  fill-opacity="1.000000" />
   <path d="M 928.579  972.222  921.281  973.361  913.895  975.907  907.073  979.713  901.027  984.66  895.947  990.595  893.889  994.099  888.73  990.619  881.794  987.817  874.354  987.035  868.969  987.601  862.499  989.703  858.392  992.074  855.702  994.176  851.005  992.23  841.446  992.23  834.868  994.955  826.248  994.366  816.765  999.279  812.17  1004.93  809.268  1011.61  809.268  1020.9  812.706  1028.82  819.499  1035.16  827.629  1038.05  834.868  1037.56  841.446  1040.28  851.004  1040.28  855.803  1038.29  858.314  1040.56  865.037  1043.83  869.638  1044.98  874.354  1045.48  881.794  1044.7  888.73  1041.89  893.787  1038.48  896.223  1042.24  901.027  1047.85  906.743  1052.53  910.788  1055.03  917.532  1058.04  925.114  1059.92  932.909  1060.44  940.674  1059.58  948.165  1057.36  955.149  1053.86  961.067  1049.44  964.465  1046.12  969.016  1040.3  972.471  1033.77  974.119  1029.31  975.74  1022.11  976.085  1014.3  975.051  1006.56  972.8  999.522  970.764  995.227  966.746  989.028  961.408  983.324  955.149  978.649  948.165  975.148  940.674  972.932  933.332  972.117  928.579  972.222  " style="fill: none; stroke: Red; stroke-width: 1.000000; fill-type: evenodd"  fill-opacity="1.000000" />
   <path d="M 1400.88  630.416  1379.12  630.416  1379.12  318.66  1400.88  318.66  1400.88  630.416  " style="fill: none; stroke: Black; stroke-width: 1.000000; fill-type: evenodd"  fill-opacity="1.000000" />
   <path d="M 620.878  630.416  599.122  630.416  599.122  574.177  620.878  574.177  620.878  630.416  " style="fill: none; stroke: Black; stroke-width: 1.000000; fill-type: evenodd"  fill-opacity="1.000000" />
   <path d="M 620.878  374.899  599.122  374.899  599.122  318.66  620.878  318.66  620.878  374.899  " style="fill: none; stroke: Black; stroke-width: 1.000000; fill-type: evenodd"  fill-opacity="1.000000" />
</svg>
