<?xml version="1.0" encoding="UTF-8" standalone="yes"?>
<!DOCTYPE svg PUBLIC "-//W3C//DTD SVG 1.0//EN" "http://www.w3.org/TR/2001/REC-SVG-20010904/DTD/svg10.dtd">
<svg height="2000" width="2000" xmlns="http://www.w3.org/2000/svg" xmlns:svg="http://www.w3.org/2000/svg" xmlns:xlink="http://www.w3.org/1999/xlink">
   <marker id="endArrow" markerHeight="8" markerUnits="strokeWidth" markerWidth="10" orient="auto" refX="1" refY="5" viewBox="0 0 1000 1000">
      <polyline fill="darkblue" points="0,0 10,5 0,10 1,5" />
   </marker>
   <circle cx="1000" cy="1000" r="1" style="stroke:black; fill: red" />
   <circle cx="1000" cy="1000" r="800" style="stroke:black; fill: none" />
   <path d="M 993.321  1689.32  989.068  1693.57  985.949  1692.36  989.591  1688.72  993.321  1689.32  " style="fill: none; stroke: Green; stroke-width: 1.000000; fill-type: evenodd"  fill-opacity="1.000000" />
   <path d="M 1020.92  1668.51  999.172  1690.25  995.442  1689.66  1018.75  1666.34  1020.92  1668.51  " style="fill: none; stroke: Green; stroke-width: 1.000000; fill-type: evenodd"  fill-opacity="1.000000" />
   <path d="M 1067.88  1615.32  1017.81  1665.4  1015.64  1663.23  1065.72  1613.15  1067.88  1615.32  " style="fill: none; stroke: Green; stroke-width: 1.000000; fill-type: evenodd"  fill-opacity="1.000000" />
   <path d="M 962.062  1631.64  963.243  1631.9  964.364  1632.36  965.394  1632.99  966.209  1633.69  966.9  1634.5  966.98  1634.63  966.991  1634.64  967.546  1635.54  968.001  1636.66  968.263  1637.84  968.325  1639.05  968.184  1640.25  967.845  1641.41  967.318  1642.5  966.616  1643.49  965.76  1644.34  964.774  1645.04  963.684  1645.57  962.522  1645.91  961.321  1646.04  960.112  1645.98  958.932  1645.72  957.816  1645.27  956.782  1644.63  955.973  1643.93  955.277  1643.12  954.878  1642.47  954.869  1642.46  954.64  1642.09  954.184  1640.97  953.921  1639.79  953.858  1638.58  953.997  1637.38  954.334  1636.22  954.861  1635.13  955.561  1634.14  956.416  1633.29  957.402  1632.58  958.491  1632.06  959.652  1631.72  960.854  1631.58  962.062  1631.64  " style="fill: none; stroke: Green; stroke-width: 1.000000; fill-type: evenodd"  fill-opacity="1.000000" />
   <path d="M 1110.34  1577.68  1110.84  1578.59  1071  1618.43  1068.83  1616.27  1109.24  1575.86  1110.34  1577.68  " style="fill: none; stroke: Green; stroke-width: 1.000000; fill-type: evenodd"  fill-opacity="1.000000" />
   <path d="M 1111.52  1571.11  1108.31  1574.33  1107.49  1572.97  1106.63  1571.68  1109.68  1568.63  1111.52  1571.11  " style="fill: none; stroke: Green; stroke-width: 1.000000; fill-type: evenodd"  fill-opacity="1.000000" />
   <path d="M 1042.74  1551.01  1043.92  1551.27  1045.04  1551.73  1046.07  1552.36  1046.88  1553.06  1047.57  1553.87  1047.65  1553.99  1047.66  1554.01  1048.22  1554.91  1048.68  1556.03  1048.94  1557.21  1049  1558.42  1048.86  1559.62  1048.52  1560.78  1047.99  1561.87  1047.29  1562.86  1046.43  1563.71  1045.45  1564.41  1044.36  1564.94  1043.2  1565.28  1041.99  1565.42  1040.79  1565.35  1039.61  1565.09  1038.49  1564.64  1037.46  1564  1036.65  1563.31  1036.26  1562.85  1036.25  1562.83  1035.95  1562.49  1035.55  1561.85  1035.54  1561.83  1035.31  1561.46  1035.02  1560.75  1035.02  1560.73  1034.86  1560.34  1034.69  1559.57  1034.68  1559.55  1034.59  1559.16  1034.55  1558.35  1034.55  1558.33  1034.53  1557.95  1034.67  1556.75  1035.01  1555.59  1035.53  1554.5  1036.24  1553.51  1037.09  1552.66  1038.08  1551.96  1039.16  1551.43  1040.33  1551.09  1041.53  1550.95  1042.74  1551.01  " style="fill: none; stroke: Green; stroke-width: 1.000000; fill-type: evenodd"  fill-opacity="1.000000" />
   <path d="M 961.895  1284.54  959.991  1284.54  959.991  1084.54  961.895  1084.54  961.895  1284.54  " style="fill: none; stroke: Green; stroke-width: 1.000000; fill-type: evenodd"  fill-opacity="1.000000" />
   <path d="M 1122.89  1598.79  1122.68  1600.45  1122.26  1602.5  1122.01  1603.58  1121.74  1604.54  1121.22  1605.94  1121.02  1606.46  1120.16  1608.28  1119.57  1609.29  1119.15  1609.99  1118.14  1611.32  1117.97  1611.54  1116.83  1612.92  1113.63  1616.74  1111.37  1619.14  1107.75  1623.01  1105.41  1625.32  1104.45  1626.22  1104.21  1626.45  1102.27  1628.05  1099.84  1629.57  1097.16  1630.74  1094.9  1631.4  1094.28  1631.57  1093.35  1631.77  1088.93  1632.82  1085.9  1633.7  1083.54  1634.38  1081.48  1635.13  1078.46  1636.22  1073.77  1638.41  1069.48  1640.96  1068.64  1641.59  1065.82  1643.59  1065.51  1643.81  1062.43  1646.44  1061.84  1646.92  1061.2  1647.55  1058.42  1650.27  1057.59  1651.2  1055.23  1653.82  1054.3  1655.03  1052.28  1657.6  1051.36  1659.05  1049.62  1661.63  1048.77  1663.27  1047.25  1665.93  1046.52  1667.67  1045.16  1670.48  1044.56  1672.23  1043.33  1675.27  1043.31  1675.44  1043.26  1675.68  1042.97  1676.44  1042.21  1678.26  1041.71  1679.21  1040.87  1680.72  1040.06  1681.93  1039.29  1683.03  1037.98  1684.56  1037.46  1685.18  1036.19  1686.5  1034.42  1688.29  1030.07  1692.92  1029.58  1693.43  1028.78  1694.16  1028.43  1694.48  1028.25  1694.63  1027.11  1695.57  1026.2  1696.2  1025.65  1696.56  1024.24  1697.31  1024.03  1697.43  1022.72  1698.01  1022.32  1698.19  1020.92  1698.69  1020.52  1697.7  1021.42  1697.3  1022.26  1696.85  1023.03  1696.43  1023.67  1696.02  1024.54  1695.46  1025  1695.1  1025.93  1694.39  1026.58  1693.87  1027.11  1693.36  1028.17  1692.29  1031.47  1688.88  1033.23  1687  1034.59  1685.63  1035.64  1684.46  1037.18  1682.67  1037.49  1682.3  1038.96  1680.19  1039.11  1679.99  1040.33  1677.66  1040.41  1677.51  1041.24  1675.37  1041.41  1674.91  1041.55  1674.22  1041.56  1674.15  1042.03  1673.01  1043.31  1669.29  1043.77  1668.32  1045.31  1664.66  1045.81  1663.8  1047.61  1660.3  1048.18  1659.46  1050.23  1656.22  1050.93  1655.33  1053.15  1652.42  1054.06  1651.42  1056.34  1648.87  1057.53  1647.69  1059.76  1645.53  1061.81  1643.83  1063.45  1642.43  1065.31  1641.15  1067.46  1639.62  1069.03  1638.75  1071.86  1637.16  1072.98  1636.68  1076.67  1635.08  1077.15  1634.92  1079.79  1634.05  1081.83  1633.31  1086.02  1632.11  1087.22  1631.76  1088.98  1631.35  1092.81  1630.54  1095.31  1629.84  1095.7  1629.73  1096.15  1629.53  1098.39  1628.55  1099.22  1628.05  1100.85  1627.05  1102.85  1625.33  1102.99  1625.21  1106.64  1621.81  1111.7  1616.4  1112.51  1615.54  1113.76  1614.03  1117.25  1609.84  1117.68  1609.19  1118.4  1608.24  1119.18  1606.91  1119.41  1606.53  1120.28  1604.7  1120.47  1604.2  1120.98  1602.76  1121.36  1601.27  1121.48  1600.7  1121.55  1600.31  1121.82  1598.64  1122.89  1598.79  " style="fill: none; stroke: Green; stroke-width: 1.000000; fill-type: evenodd"  fill-opacity="1.000000" />
   <path d="M 1025.2  1284.54  1023.1  1284.54  1023.1  1109.54  1025.2  1109.54  1025.2  1284.54  " style="fill: none; stroke: Green; stroke-width: 1.000000; fill-type: evenodd"  fill-opacity="1.000000" />
   <path d="M 984.324  1284.54  982.223  1284.54  982.223  1109.54  984.324  1109.54  984.324  1284.54  " style="fill: none; stroke: Green; stroke-width: 1.000000; fill-type: evenodd"  fill-opacity="1.000000" />
   <path d="M 640  530.654  580  530.654  580  527.229  640  527.229  640  530.654  " style="fill: none; stroke: Green; stroke-width: 1.000000; fill-type: evenodd"  fill-opacity="1.000000" />
   <path d="M 640  421.848  580  421.848  580  418.422  640  418.422  640  421.848  " style="fill: none; stroke: Green; stroke-width: 1.000000; fill-type: evenodd"  fill-opacity="1.000000" />
   <path d="M 1113.69  1574.03  1114.97  1575.8  1116.43  1577.77  1117.08  1578.69  1117.61  1579.49  1118.38  1580.69  1119.61  1582.84  1120.57  1584.95  1121.37  1587.14  1122.02  1589.37  1122.5  1591.62  1122.82  1593.87  1122.97  1596.12  1122.95  1598.8  1121.82  1598.64  1121.55  1600.31  1121.48  1600.7  1121.36  1601.27  1120.98  1602.76  1120.47  1604.2  1120.28  1604.7  1119.41  1606.53  1119.18  1606.91  1118.4  1608.24  1117.68  1609.19  1117.25  1609.84  1113.76  1614.03  1112.51  1615.54  1111.7  1616.4  1106.64  1621.81  1102.99  1625.21  1102.85  1625.33  1100.85  1627.05  1099.22  1628.05  1098.39  1628.55  1096.15  1629.53  1095.7  1629.73  1095.31  1629.84  1092.81  1630.54  1088.98  1631.35  1087.22  1631.76  1086.02  1632.11  1081.83  1633.31  1079.79  1634.05  1077.15  1634.92  1076.67  1635.08  1072.98  1636.68  1071.86  1637.16  1069.03  1638.75  1067.46  1639.62  1065.31  1641.15  1063.45  1642.43  1061.81  1643.83  1059.76  1645.53  1057.53  1647.69  1056.34  1648.87  1054.06  1651.42  1053.15  1652.42  1050.93  1655.33  1050.23  1656.22  1048.18  1659.46  1047.61  1660.3  1045.81  1663.8  1045.31  1664.66  1043.77  1668.32  1043.31  1669.29  1042.03  1673.01  1041.56  1674.15  1041.55  1674.22  1041.41  1674.91  1041.24  1675.37  1040.41  1677.51  1040.33  1677.66  1039.11  1679.99  1038.96  1680.19  1037.49  1682.3  1037.18  1682.67  1035.64  1684.46  1034.59  1685.63  1033.23  1687  1031.47  1688.88  1028.17  1692.29  1027.1  1693.36  1026.58  1693.87  1025.93  1694.39  1025  1695.1  1024.54  1695.46  1023.67  1696.02  1023.03  1696.43  1022.26  1696.85  1021.42  1697.3  1020.52  1697.7  1020.93  1698.72  1019.53  1699.11  1018.67  1699.35  1017.87  1699.52  1016.77  1699.75  1016.2  1699.83  1014.83  1700.03  1014.51  1700.05  1012.87  1700.18  1012.43  1700.18  1010.8  1700.15  1009.24  1700.03  1008.71  1699.99  1007.47  1699.82  1006.65  1699.71  1005.74  1699.52  1004.63  1699.3  1002.67  1698.77  1001.77  1698.46  1000.73  1698.1  996.609  1696.53  990.587  1694.17  990.003  1693.93  989.068  1693.57  993.321  1689.32  995.442  1689.66  999.172  1690.25  1020.92  1668.51  1018.75  1666.34  1018.75  1666.34  1017.81  1665.4  1067.88  1615.32  1068.83  1616.27  1068.83  1616.27  1071  1618.43  1110.84  1578.59  1110.34  1577.68  1109.24  1575.86  1109.24  1575.86  1108.31  1574.33  1111.52  1571.11  1113.69  1574.03  " style="fill: none; stroke: Green; stroke-width: 1.000000; fill-type: evenodd"  fill-opacity="1.000000" />
   <path d="M 933.255  1566.29  933.471  1566.32  933.591  1566.34  933.812  1566.4  933.922  1566.43  933.975  1566.45  934.132  1566.51  934.286  1566.59  934.435  1566.67  934.58  1566.76  934.696  1566.85  934.8  1566.93  934.833  1566.95  935.257  1567.31  935.507  1567.52  935.948  1567.92  936.906  1568.72  937.141  1568.94  937.906  1569.65  938.179  1569.92  939.199  1570.94  931.272  1578.86  929.489  1577.08  882.75  1623.82  884.532  1625.6  881.654  1628.48  876.445  1623.08  875.264  1621.63  874.836  1620.97  874.727  1620.78  874.366  1620.12  874.24  1619.91  874.192  1619.78  873.89  1619.11  873.645  1618.58  873.503  1618.2  873.342  1617.55  873.027  1616.33  872.983  1615.85  872.837  1614.42  872.857  1614.1  872.937  1612.52  873.323  1610.66  873.355  1610.57  873.652  1609.82  874.01  1608.93  874.026  1608.88  874.951  1607.15  876.26  1604.72  876.865  1603.58  878.272  1601.25  878.945  1600.26  880.523  1598.02  881.839  1596.07  883.318  1594.27  885.044  1592.11  885.889  1591.08  887.684  1589.07  888.591  1588.13  890.386  1586.28  893.089  1583.47  898.251  1578.52  899.227  1577.6  899.371  1577.48  899.668  1577.26  901.406  1575.84  901.549  1575.74  903.431  1574.61  903.968  1574.3  906  1573.42  906.545  1573.2  908.22  1572.7  909.173  1572.44  916.506  1570.72  920.46  1569.81  921.613  1569.54  927.622  1567.83  927.846  1567.76  928.348  1567.59  928.817  1567.45  932.274  1566.4  932.602  1566.32  932.663  1566.31  932.937  1566.28  933.255  1566.29  " style="fill: none; stroke: Green; stroke-width: 1.000000; fill-type: evenodd"  fill-opacity="1.000000" />
   <path d="M 1017.14  1469.17  1018.01  1469.23  1018.95  1469.38  1019.8  1469.52  1020.53  1469.71  1020.98  1469.85  1021.63  1470.08  1022.29  1470.28  1022.35  1470.31  1022.93  1470.57  1024.07  1471.11  1024.54  1471.37  1024.94  1471.64  1025.34  1471.91  1026.2  1472.47  1026.51  1472.72  1027.75  1473.79  1027.99  1474.03  1028.25  1474.28  1029.55  1475.65  1031.93  1478.2  1029  1481.14  1027.22  1479.35  979.568  1527  981.35  1528.78  973.019  1537.12  972.599  1536.7  972.463  1536.56  972.307  1536.41  972.197  1536.28  970.967  1534.94  969.407  1533.16  969.145  1532.87  969.082  1532.81  968.869  1532.5  968.838  1532.46  968.799  1532.39  968.597  1532.03  968.563  1531.95  968.533  1531.86  968.497  1531.77  968.472  1531.68  968.444  1531.59  968.425  1531.49  968.405  1531.4  968.391  1531.32  968.364  1531.03  968.365  1530.92  968.361  1530.87  968.372  1530.72  968.371  1530.71  968.379  1530.62  968.43  1530.33  968.528  1529.98  968.541  1529.95  969.945  1526.12  970.08  1525.75  972.228  1519.23  972.316  1518.97  974.085  1512.58  974.217  1512.12  975.249  1507.35  975.632  1505.6  975.697  1505.37  976.195  1503.72  976.413  1502.87  976.791  1501.96  976.954  1501.45  977.499  1500.24  978.066  1499.28  978.203  1498.98  978.926  1497.79  979.853  1496.59  979.919  1496.48  980.658  1495.55  983.056  1493.05  986.663  1489.31  988.609  1487.28  990.947  1485.03  993.171  1483.01  996.215  1480.44  998.451  1478.42  1000.11  1477.14  1002.02  1475.69  1004.09  1474.09  1005.26  1473.28  1007.24  1471.84  1008.53  1471.08  1009.51  1470.59  1009.67  1470.53  1010.66  1470.14  1011.04  1469.99  1012.03  1469.7  1012.66  1469.54  1013.65  1469.34  1013.81  1469.32  1014.77  1469.22  1015.35  1469.16  1016.27  1469.14  1017.14  1469.17  " style="fill: none; stroke: Green; stroke-width: 1.000000; fill-type: evenodd"  fill-opacity="1.000000" />
   <path d="M 1250  1133.19  1154.49  1133.19  1154.3  1133.95  1248.43  1184  1248.22  1184.84  1150.3  1184.84  1250  1284.54  1104.1  1284.54  1104.1  1109.54  1054.1  1109.54  1054.1  1284.54  1025.2  1284.54  1025.2  1109.54  982.223  1109.54  982.223  1284.54  961.895  1284.54  961.895  1084.54  750  1084.54  750  784.538  1250  784.538  1250  1133.19  " style="fill: none; stroke: Green; stroke-width: 1.000000; fill-type: evenodd"  fill-opacity="1.000000" />
   <path d="M 1180.31  1020.04  1180.31  1067.54  1225.31  1067.54  1225.31  1020.04  1180.31  1020.04  " style="fill: none; stroke: Blue; stroke-width: 1.000000; fill-type: evenodd"  fill-opacity="1.000000" />
   <path d="M 1125.31  1020.04  1125.31  1067.54  1170.31  1067.54  1170.31  1020.04  1125.31  1020.04  " style="fill: none; stroke: Blue; stroke-width: 1.000000; fill-type: evenodd"  fill-opacity="1.000000" />
   <path d="M 1055.35  1018.29  1055.35  1067.04  1104.1  1067.04  1104.1  1018.29  1055.35  1018.29  " style="fill: none; stroke: Blue; stroke-width: 1.000000; fill-type: evenodd"  fill-opacity="1.000000" />
   <path d="M 1003.8  1018.29  1003.8  1067.04  1052.55  1067.04  1052.55  1018.29  1003.8  1018.29  " style="fill: none; stroke: Blue; stroke-width: 1.000000; fill-type: evenodd"  fill-opacity="1.000000" />
   <path d="M 930.273  991.311  928.075  991.555  925.907  991.993  923.786  992.62  921.729  993.433  919.752  994.424  917.87  995.585  916.098  996.909  914.45  998.384  912.939  999.999  911.577  1001.74  910.374  1003.6  909.339  1005.55  908.481  1007.59  907.807  1009.7  907.322  1011.85  907.029  1014.05  906.931  1016.26  907.029  1018.47  907.322  1020.66  907.807  1022.82  908.481  1024.92  909.339  1026.96  910.374  1028.92  911.577  1030.77  912.939  1032.51  914.45  1034.13  916.098  1035.6  917.87  1036.93  919.752  1038.09  921.729  1039.08  923.786  1039.89  925.907  1040.52  928.075  1040.96  930.273  1041.2  932.484  1041.25  934.691  1041.1  936.877  1040.76  939.023  1040.23  941.114  1039.51  943.133  1038.61  945.065  1037.53  946.893  1036.28  948.605  1034.88  950.186  1033.34  951.624  1031.66  952.908  1029.86  954.028  1027.95  954.975  1025.95  955.742  1023.88  956.322  1021.74  956.711  1019.57  956.907  1017.36  956.907  1017.16  956.916  1016.75  956.916  1015.57  956.907  1015.15  956.711  1012.95  956.322  1010.77  955.742  1008.64  954.975  1006.56  954.028  1004.56  952.908  1002.66  951.624  1000.85  950.186  999.175  948.605  997.628  946.893  996.228  945.065  994.984  943.133  993.906  941.114  993.004  939.023  992.283  936.877  991.75  934.691  991.409  932.484  991.262  930.273  991.311  " style="fill: none; stroke: Blue; stroke-width: 1.000000; fill-type: evenodd"  fill-opacity="1.000000" />
   <path d="M 872.967  1006.41  871.613  1006.75  870.32  1007.27  869.111  1007.97  868.012  1008.82  867.043  1009.83  866.223  1010.96  865.568  1012.19  865.091  1013.5  864.801  1014.86  864.703  1016.26  864.801  1017.65  865.091  1019.01  865.568  1020.32  866.223  1021.56  867.043  1022.68  868.012  1023.69  869.111  1024.55  870.32  1025.24  871.613  1025.77  872.967  1026.1  874.354  1026.25  875.749  1026.2  877.123  1025.96  878.449  1025.53  879.703  1024.92  880.86  1024.14  881.897  1023.2  882.793  1022.13  883.533  1020.95  884.1  1019.68  884.485  1018.34  884.679  1016.95  884.688  1016.69  884.688  1015.82  884.679  1015.56  884.485  1014.18  884.1  1012.84  883.533  1011.56  882.793  1010.38  881.897  1009.31  880.86  1008.38  879.703  1007.6  878.449  1006.98  877.122  1006.55  875.749  1006.31  874.354  1006.26  872.967  1006.41  " style="fill: none; stroke: Blue; stroke-width: 1.000000; fill-type: evenodd"  fill-opacity="1.000000" />
   <path d="M 845.25  1011.35  844.312  1011.64  843.447  1012.1  842.69  1012.72  842.068  1013.48  841.606  1014.34  841.321  1015.28  841.225  1016.26  841.321  1017.23  841.606  1018.17  842.068  1019.03  842.69  1019.79  843.447  1020.41  844.312  1020.88  845.25  1021.16  846.225  1021.26  847.2  1021.16  848.138  1020.88  849.003  1020.41  849.761  1019.79  850.382  1019.03  850.844  1018.17  851.129  1017.23  851.225  1016.26  851.129  1015.28  850.844  1014.34  850.382  1013.48  849.761  1012.72  849.003  1012.1  848.138  1011.64  847.2  1011.35  846.225  1011.26  845.25  1011.35  " style="fill: none; stroke: Blue; stroke-width: 1.000000; fill-type: evenodd"  fill-opacity="1.000000" />
   <path d="M 830.289  1013.81  829.648  1014.04  829.092  1014.43  828.662  1014.96  828.391  1015.58  828.298  1016.26  828.391  1016.93  828.662  1017.56  829.092  1018.08  829.648  1018.48  830.289  1018.7  830.969  1018.75  831.635  1018.61  832.24  1018.3  832.737  1017.83  833.091  1017.25  833.275  1016.6  833.283  1016.47  833.283  1016.04  833.275  1015.92  833.091  1015.26  832.737  1014.68  832.24  1014.21  831.635  1013.9  830.969  1013.76  830.289  1013.81  " style="fill: none; stroke: Blue; stroke-width: 1.000000; fill-type: evenodd"  fill-opacity="1.000000" />
   <path d="M 1055.48  967.042  1055.48  1015.79  1104.23  1015.79  1104.23  967.042  1055.48  967.042  " style="fill: none; stroke: Blue; stroke-width: 1.000000; fill-type: evenodd"  fill-opacity="1.000000" />
   <path d="M 1003.71  967.042  1003.71  1015.79  1052.46  1015.79  1052.46  967.042  1003.71  967.042  " style="fill: none; stroke: Blue; stroke-width: 1.000000; fill-type: evenodd"  fill-opacity="1.000000" />
   <path d="M 1180.23  967.554  1180.23  1015.05  1225.23  1015.05  1225.23  967.554  1180.23  967.554  " style="fill: none; stroke: Blue; stroke-width: 1.000000; fill-type: evenodd"  fill-opacity="1.000000" />
   <path d="M 1125.23  967.554  1125.23  1015.05  1170.23  1015.05  1170.23  967.554  1125.23  967.554  " style="fill: none; stroke: Blue; stroke-width: 1.000000; fill-type: evenodd"  fill-opacity="1.000000" />
   <path d="M 852.892  1195.78  854.246  1196.12  855.539  1196.64  856.747  1197.34  857.847  1198.2  858.816  1199.2  859.636  1200.33  860.291  1201.56  860.768  1202.87  861.058  1204.24  861.155  1205.63  861.058  1207.02  860.768  1208.39  860.291  1209.7  859.636  1210.93  858.816  1212.06  857.847  1213.06  856.747  1213.92  855.539  1214.62  854.246  1215.14  852.892  1215.48  851.504  1215.62  850.11  1215.57  848.736  1215.33  847.409  1214.9  846.155  1214.29  844.999  1213.51  843.962  1212.58  843.065  1211.51  842.326  1210.32  841.758  1209.05  841.374  1207.71  841.18  1206.33  841.155  1205.63  841.18  1204.93  841.374  1203.55  841.758  1202.21  842.326  1200.93  843.065  1199.75  843.962  1198.68  844.999  1197.75  846.155  1196.97  847.409  1196.36  848.736  1195.93  850.11  1195.68  851.504  1195.64  852.892  1195.78  " style="fill: none; stroke: Green; stroke-width: 1.000000; fill-type: evenodd"  fill-opacity="1.000000" />
   <path d="M 1420  649.538  1380  649.538  1380  669.538  1360  669.538  1360  299.538  1420  299.538  1420  649.538  " style="fill: none; stroke: Green; stroke-width: 1.000000; fill-type: evenodd"  fill-opacity="1.000000" />
   <path d="M 640  669.538  620  669.538  620  649.538  580  649.538  580  530.654  640  530.654  640  669.538  " style="fill: none; stroke: Green; stroke-width: 1.000000; fill-type: evenodd"  fill-opacity="1.000000" />
   <path d="M 640  418.422  580  418.422  580  299.538  640  299.538  640  418.422  " style="fill: none; stroke: Green; stroke-width: 1.000000; fill-type: evenodd"  fill-opacity="1.000000" />
   <path d="M 1232.11  949.663  1122.12  949.663  1122.12  949.151  985.82  949.151  985.9  1063.47  974.703  1063.47  974.703  1066.65  945.957  1066.65  945.417  1056.89  947.711  1056.21  954.5  1052.81  960.265  1048.51  963.546  1045.3  967.979  1039.63  971.344  1033.27  972.935  1028.96  974.514  1021.94  974.85  1014.36  973.845  1006.83  971.652  999.976  969.686  995.828  965.772  989.79  960.583  984.245  954.5  979.701  947.711  976.298  940.429  974.144  933.277  973.35  928.688  973.452  921.579  974.561  914.4  977.035  907.768  980.735  901.892  985.544  896.953  991.313  894.113  996.151  888.737  991.95  881.493  989.024  874.354  988.273  869.227  988.812  863.002  990.835  859.082  993.098  855.894  995.589  850.759  993.462  841.691  993.462  835.072  996.203  826.509  995.618  816.41  1000.85  811.173  1009.46  810.068  1017.5  812.438  1025.96  817.56  1032.26  825.359  1036.3  833.457  1036.85  835.033  1036.29  841.691  1039.05  850.759  1039.05  856.049  1036.86  859.009  1039.52  865.461  1042.67  869.852  1043.77  874.354  1044.24  881.493  1043.49  888.149  1040.8  891.901  1038.27  893.931  1036.44  897.212  1041.5  901.891  1046.97  907.46  1051.53  911.366  1053.94  918.06  1056.93  914.398  1059.44  919.347  1066.65  767.891  1066.65  767.891  802.429  1232.11  802.429  1232.11  949.663  " style="fill: none; stroke: Black; stroke-width: 1.000000; fill-type: evenodd"  fill-opacity="1.000000" />
   <path d="M 1402.11  631.648  1377.89  631.648  1377.89  317.429  1402.11  317.429  1402.11  631.648  " style="fill: none; stroke: Black; stroke-width: 1.000000; fill-type: evenodd"  fill-opacity="1.000000" />
   <path d="M 1091.23  1620.39  1082.75  1622.65  1081.29  1620.12  1087.08  1614.33  1091.23  1620.39  " style="fill: none; stroke: Black; stroke-width: 1.000000; fill-type: evenodd"  fill-opacity="1.000000" />
   <path d="M 1206.81  1266.65  1121.99  1266.65  1121.99  1181.83  1206.81  1266.65  " style="fill: none; stroke: Black; stroke-width: 1.000000; fill-type: evenodd"  fill-opacity="1.000000" />
   <path d="M 851.817  1201.68  853.47  1202.37  854.386  1203.19  854.596  1203.48  854.764  1203.8  855.12  1205.03  854.974  1206.78  854.174  1208.24  852.824  1209.27  851.943  1209.55  850.152  1209.51  848.954  1209.03  848.657  1208.83  848.392  1208.59  847.632  1207.54  847.158  1205.81  847.227  1204.83  847.974  1203.2  848.684  1202.47  849.834  1201.8  850.174  1201.69  850.526  1201.63  851.817  1201.68  " style="fill: none; stroke: Black; stroke-width: 1.000000; fill-type: evenodd"  fill-opacity="1.000000" />
   <path d="M 1232.11  1115.3  1183.23  1115.3  1183.23  1115.3  1183.23  1115.3  1140.51  1115.3  1139.09  1121.02  1137.49  1127.42  1135.93  1133.69  1135.93  1133.69  1133.56  1143.19  1152.67  1153.35  1172.81  1164.05  1172.09  1166.95  1121.99  1166.95  1121.99  1129.95  1121.99  1129.95  1121.99  1115.3  1121.99  1115.3  1121.99  1094.95  1124.67  1094.95  1124.67  1094.95  1125.17  1094.95  1125.17  1091.16  1125.17  1091.16  1125.17  1085.43  1125.93  1085.43  1125.93  1085.43  1232.11  1085.43  1232.11  1115.3  " style="fill: none; stroke: Black; stroke-width: 1.000000; fill-type: evenodd"  fill-opacity="1.000000" />
   <path d="M 622.109  631.648  597.891  631.648  597.891  545.119  622.109  545.119  622.109  631.648  " style="fill: none; stroke: Black; stroke-width: 1.000000; fill-type: evenodd"  fill-opacity="1.000000" />
   <path d="M 622.109  403.957  597.891  403.957  597.891  317.429  622.109  317.429  622.109  403.957  " style="fill: none; stroke: Black; stroke-width: 1.000000; fill-type: evenodd"  fill-opacity="1.000000" />
</svg>
