<?xml version="1.0" encoding="UTF-8" standalone="yes"?>
<!DOCTYPE svg PUBLIC "-//W3C//DTD SVG 1.0//EN" "http://www.w3.org/TR/2001/REC-SVG-20010904/DTD/svg10.dtd">
<svg height="2000" width="2000" xmlns="http://www.w3.org/2000/svg" xmlns:svg="http://www.w3.org/2000/svg" xmlns:xlink="http://www.w3.org/1999/xlink">
   <marker id="endArrow" markerHeight="8" markerUnits="strokeWidth" markerWidth="10" orient="auto" refX="1" refY="5" viewBox="0 0 1000 1000">
      <polyline fill="darkblue" points="0,0 10,5 0,10 1,5" />
   </marker>
   <circle cx="1000" cy="1000" r="1" style="stroke:black; fill: red" />
   <circle cx="1000" cy="1000" r="800" style="stroke:black; fill: none" />
   <path d="M 1012.84  1284.54  994.586  1284.54  994.586  1109.54  1012.84  1109.54  1012.84  1284.54  " style="fill: none; stroke: Green; stroke-width: 1.000000; fill-type: evenodd"  fill-opacity="1.000000" />
   <path d="M 930.961  1596.24  934.228  1596.66  936.477  1597.02  940.227  1597.73  942.358  1598.26  947.571  1599.61  947.984  1599.73  948.513  1599.9  951.09  1600.85  953.576  1601.85  954.045  1602.08  954.582  1602.29  955.365  1602.67  960.247  1605.2  960.381  1605.26  961.981  1606.2  965.442  1608.38  965.547  1608.44  967.891  1610.05  970.501  1611.99  972.679  1613.72  974.801  1615.53  975.573  1616.14  978.778  1619.07  980.613  1620.84  983.701  1624.07  985.467  1626.02  989.243  1630.53  989.325  1630.64  993.126  1636.1  993.502  1636.66  993.654  1636.9  994.774  1638.94  996.829  1642.78  997.078  1643.47  997.921  1645.67  999.333  1649.22  1000.26  1652.62  1000.49  1653.84  1000.75  1656.19  1000.69  1657.09  1000.45  1659.34  1000.33  1659.7  999.411  1662.05  999.296  1662.21  997.752  1664.27  997.135  1664.88  995.338  1666.6  994.95  1666.95  989.733  1671.48  989.431  1671.73  985.441  1674.64  983.476  1676.04  983.266  1676.16  976.975  1679.75  974.764  1680.95  974.408  1681.12  973.514  1681.39  972.76  1681.66  972.388  1681.76  970.837  1682.23  970.136  1682.36  968.794  1682.47  968.377  1682.51  966.461  1682.52  965.837  1682.5  964.473  1682.41  963.171  1682.38  962.229  1682.27  959.721  1681.96  958.469  1681.7  957.862  1681.55  952.569  1680.09  950.837  1679.54  949.23  1678.9  948.349  1678.56  946.239  1677.67  943.606  1676.58  943.254  1676.42  942.683  1676.16  939.926  1674.74  937.751  1673.63  936.547  1672.98  935.111  1672.23  932.778  1670.81  929.767  1669  928.761  1668.38  928.025  1667.92  923.555  1664.81  921.328  1663.27  914.887  1658.18  914.525  1657.86  908.684  1652.41  908.603  1652.32  905.711  1649.13  905.377  1648.74  905.153  1648.44  904.144  1647.11  903.147  1645.83  902.863  1645.45  902.593  1645.07  902.28  1644.63  901.336  1643.15  900.473  1641.75  900.04  1640.99  899.302  1639.49  898.29  1637.05  897.649  1635.13  897.553  1634.76  897.212  1632.74  897.156  1631.93  897.084  1630.85  897.14  1629.63  897.167  1629.09  897.425  1627.67  897.459  1627.49  897.51  1627.3  897.935  1626.21  897.978  1626.13  898.077  1625.93  899.144  1623.83  901.296  1619.92  901.64  1619.25  903.152  1616.91  905.71  1613.29  908.006  1610.36  909.915  1608.23  912.993  1604.91  914.73  1603.32  916.624  1601.54  919.102  1599.27  920.553  1598.37  921.533  1597.74  921.931  1597.49  923.213  1597  925.03  1596.49  927.232  1596.12  927.901  1596.1  928.548  1596.08  930.961  1596.24  " style="fill: none; stroke: Green; stroke-width: 1.000000; fill-type: evenodd"  fill-opacity="1.000000" />
   <path d="M 930.83  1600.49  928.724  1600.72  928.018  1600.79  926.994  1601.13  925.137  1601.75  923.58  1602.69  922.7  1603.28  920.09  1605.66  916.65  1608.94  910.903  1615.48  909.029  1618.27  905.935  1622.82  905.368  1623.98  904.888  1624.84  902.31  1630.33  902.09  1630.91  901.919  1631.71  901.829  1632.44  901.716  1633.41  901.743  1634.69  901.758  1635.28  902.014  1637.11  902.058  1637.3  902.074  1637.35  902.669  1639.07  902.906  1639.85  903.339  1640.88  904.114  1642.49  904.202  1642.66  904.357  1643  905.009  1644.24  905.601  1645.24  906.125  1646.02  906.621  1646.8  908.055  1648.74  909.428  1650.45  911.96  1653.14  915.52  1656.74  920.189  1660.63  922.021  1662.12  922.648  1662.56  925.357  1664.44  928.194  1666.38  928.904  1666.88  932.38  1668.87  936.239  1671.12  936.506  1671.25  939.68  1672.71  942.215  1673.91  942.99  1674.25  944.143  1674.77  946.007  1675.43  946.994  1675.79  948.846  1676.37  951.192  1677.15  951.664  1677.28  952.73  1677.59  954.256  1677.87  954.86  1678  956.712  1678.26  959.343  1678.58  960.136  1678.64  961.001  1678.66  961.284  1678.65  962.373  1678.67  963.187  1678.6  963.365  1678.58  963.88  1678.54  964.219  1678.47  966.424  1677.9  967.243  1677.74  967.379  1677.69  968.08  1677.4  968.837  1677.02  972.888  1675.28  973.026  1675.21  979.274  1671.45  980.169  1670.82  985.142  1667.05  986.297  1666.05  990.542  1662.13  991.592  1661.22  992.242  1660.47  993.005  1659.4  993.827  1658.2  994.376  1656.48  994.671  1655.37  994.7  1653.87  994.66  1652.02  994.457  1651.01  993.653  1648.14  993.391  1647.44  992.446  1645.34  991.101  1642.71  989.769  1640.2  988.224  1637.95  985.671  1634.1  983.498  1631.32  982.388  1630  978.649  1625.87  977.682  1624.86  973.725  1621.03  972.782  1620.17  972.555  1619.99  968.252  1616.32  967.758  1615.93  962.764  1612.22  962.594  1612.1  961.263  1611.26  957.011  1608.65  956.357  1608.33  951.385  1605.91  949.794  1605.28  946.151  1603.95  943.608  1603.1  941.622  1602.52  939.739  1602.04  935.445  1600.97  935.166  1600.92  934.525  1600.84  931.354  1600.47  930.83  1600.49  " style="fill: none; stroke: Blue; stroke-width: 1.000000; fill-type: evenodd"  fill-opacity="1.000000" />
   <path d="M 1031.53  1490.94  1033.75  1491.19  1034.59  1491.32  1034.7  1491.35  1036.54  1491.81  1036.81  1491.88  1037.11  1491.99  1039.08  1492.77  1041.54  1493.94  1041.91  1494.14  1043.35  1495.01  1044.42  1495.74  1044.99  1496.11  1046.56  1497.19  1049.64  1499.47  1050.91  1500.49  1052.59  1501.95  1055.04  1504.16  1055.64  1504.73  1058.28  1507.36  1061.21  1510.29  1061.32  1510.4  1063.74  1513.03  1062.94  1513.78  1060.2  1510.93  1058.95  1509.73  1055.43  1506.44  1054.14  1505.31  1050.83  1502.6  1047.52  1500.25  1047.07  1499.94  1046.07  1499.35  1044  1498.13  1043.31  1497.76  1041.6  1496.96  1039.11  1496  1038.36  1495.77  1036.91  1495.44  1034.91  1495.19  1033.06  1495.18  1031.39  1495.4  1031.36  1495.41  1030.02  1495.93  1029.94  1495.89  1024.22  1499.14  1021.54  1500.7  1020.52  1501.56  1017.61  1503.82  1013.97  1506.9  1011.7  1509.23  1009.16  1512.1  1006.29  1515.7  1004.83  1517.37  1003.74  1518.77  1003.32  1519.61  1002.36  1521.27  1002.21  1521.74  1001.62  1523.75  1001.49  1524.3  1001.45  1526.65  1001.41  1527.87  1001.59  1529.33  1001.94  1531.84  1001.96  1531.96  1003.19  1536.58  1003.82  1538.73  1003.85  1538.85  1004.97  1542.12  1005.68  1543.84  1007.25  1547.84  1007.82  1549.09  1010.41  1554.34  1010.62  1554.77  1012.88  1558.57  1013.92  1560.25  1014.11  1560.51  1014.21  1560.67  1017.86  1565.59  1018.08  1565.9  1018.41  1566.3  1022.2  1570.71  1022.52  1571.11  1022.85  1571.46  1026.91  1575.54  1027.41  1576.07  1028.15  1576.76  1032.65  1580.64  1032.92  1580.86  1034.81  1582.29  1036.34  1583.44  1036.96  1583.83  1037.1  1583.92  1042.32  1587.32  1044.05  1588.3  1047.66  1590.25  1051.2  1591.87  1052.67  1592.5  1055.39  1593.48  1058.04  1594.3  1058.75  1594.45  1059.54  1594.64  1061.22  1594.74  1063.21  1594.87  1066.17  1594.37  1066.39  1594.34  1067.67  1593.68  1068.98  1593.01  1075.3  1588.19  1075.55  1587.99  1081.44  1582.26  1081.71  1582.04  1085.63  1576.94  1087.02  1575.14  1090.16  1569.73  1090.38  1569.38  1090.6  1568.95  1091.1  1567.52  1091.26  1567.11  1091.67  1565.01  1091.82  1562.68  1091.77  1561.65  1091.55  1559.96  1091.52  1559.73  1091.04  1557.43  1090.41  1555.07  1090.02  1553.67  1088.94  1550.63  1088.84  1550.41  1088.79  1550.29  1088.06  1548.62  1087.38  1547.19  1086.77  1546  1085.19  1542.92  1084.21  1541.27  1080.76  1535.72  1080.65  1535.56  1076  1529.06  1073.83  1526.32  1074.68  1525.63  1076.73  1528.13  1076.79  1528.21  1081.57  1534.49  1082.42  1535.69  1086.24  1541.25  1086.37  1541.46  1088.32  1544.69  1089.01  1545.9  1089.52  1546.82  1090.4  1548.35  1091.22  1549.94  1091.7  1551.02  1093.12  1554.21  1094.23  1556.98  1094.28  1557.14  1094.55  1557.9  1095.13  1560.16  1095.28  1560.94  1095.66  1562.97  1095.78  1564.17  1096.01  1565.16  1096.06  1565.81  1096.05  1568.25  1095.79  1570.5  1095.74  1570.69  1095.23  1572.45  1094.66  1573.69  1094.43  1574.18  1093.97  1574.88  1092.66  1577.1  1091.59  1578.85  1091.43  1579.08  1091.1  1579.6  1087.23  1584.42  1085.68  1586.37  1081.84  1590.1  1079.55  1592.36  1073.64  1597.14  1073.04  1597.61  1071.13  1598.6  1070.48  1598.99  1067.49  1599.81  1063.97  1599.84  1060.71  1599.34  1060.15  1599.21  1055.93  1598.09  1053.2  1597.23  1050.7  1596.34  1045.34  1594.06  1045.13  1593.96  1044.29  1593.51  1039.32  1590.92  1039.28  1590.89  1038.02  1590.05  1033.8  1587.3  1033.05  1586.73  1032.44  1586.23  1030.5  1584.76  1029.29  1583.77  1029.22  1583.7  1026.84  1581.65  1024.32  1579.3  1022.62  1577.49  1020.47  1575.32  1019.38  1574.15  1018.28  1572.81  1016.19  1570.39  1014.85  1568.75  1013.94  1567.48  1011.79  1564.58  1010.73  1563.1  1008.94  1560.53  1007.87  1558.8  1006  1555.28  1004.48  1552.49  1002.62  1548.07  1001.83  1546.06  1001.72  1545.78  1001.54  1545.25  999.864  1539.49  999.277  1537.29  998.404  1532.77  997.989  1530.53  997.64  1527.67  997.525  1526.31  997.437  1523.92  997.419  1523.19  997.453  1522.83  997.559  1522  997.9  1520.16  998.159  1519.39  998.865  1517.5  999.64  1516.18  1000.27  1515.15  1001.2  1513.96  1001.85  1513.32  1003.5  1511.51  1005.86  1508.53  1005.95  1508.44  1009.24  1505.06  1011.18  1502.91  1012.28  1501.98  1014.11  1500.42  1015.72  1499.04  1017.53  1497.69  1018.43  1496.92  1019.37  1496.34  1021.05  1495.27  1025.33  1492.66  1026.43  1491.97  1026.53  1492.01  1026.94  1491.82  1028.58  1491.27  1028.87  1491.2  1030.88  1490.96  1031.39  1490.93  1031.53  1490.94  " style="fill: none; stroke: Green; stroke-width: 1.000000; fill-type: evenodd"  fill-opacity="1.000000" />
   <path d="M 934.525  1600.84  935.166  1600.92  935.445  1600.97  939.739  1602.04  941.622  1602.52  943.608  1603.1  946.151  1603.95  949.794  1605.28  951.385  1605.91  956.357  1608.33  957.011  1608.65  961.263  1611.26  962.594  1612.1  962.764  1612.22  967.758  1615.93  968.252  1616.32  972.555  1619.99  972.782  1620.17  973.725  1621.03  977.682  1624.86  978.649  1625.87  982.388  1630  983.498  1631.32  985.671  1634.1  988.224  1637.95  989.769  1640.2  991.101  1642.71  992.446  1645.34  993.391  1647.44  993.653  1648.14  994.457  1651.01  994.66  1652.02  994.7  1653.87  994.671  1655.37  994.376  1656.48  993.827  1658.2  993.005  1659.4  992.242  1660.47  991.592  1661.22  990.542  1662.13  986.297  1666.05  985.142  1667.05  980.169  1670.82  979.274  1671.45  973.026  1675.21  972.888  1675.28  968.837  1677.02  968.08  1677.4  967.379  1677.69  967.243  1677.74  966.424  1677.9  964.219  1678.47  963.88  1678.53  963.365  1678.58  963.187  1678.6  962.373  1678.67  961.284  1678.65  961.001  1678.66  960.136  1678.64  959.343  1678.58  956.712  1678.26  954.86  1678  954.256  1677.87  952.73  1677.59  951.664  1677.28  951.192  1677.15  948.846  1676.37  946.994  1675.79  946.007  1675.43  944.143  1674.77  942.99  1674.25  942.215  1673.91  939.68  1672.71  936.506  1671.25  936.239  1671.12  932.38  1668.87  928.904  1666.87  928.194  1666.38  925.357  1664.44  922.648  1662.56  922.021  1662.12  920.189  1660.63  915.521  1656.74  911.96  1653.14  909.428  1650.45  908.055  1648.74  906.621  1646.8  906.125  1646.02  905.601  1645.24  905.009  1644.24  904.357  1643  904.202  1642.66  904.114  1642.49  903.339  1640.88  902.906  1639.85  902.669  1639.07  902.074  1637.35  902.058  1637.3  902.014  1637.11  901.758  1635.28  901.743  1634.69  901.716  1633.41  901.829  1632.44  901.919  1631.71  902.09  1630.91  902.31  1630.33  904.888  1624.84  905.368  1623.98  905.935  1622.82  909.029  1618.27  910.903  1615.48  916.65  1608.94  920.09  1605.66  922.7  1603.28  923.58  1602.69  925.137  1601.75  926.994  1601.13  928.018  1600.79  928.724  1600.72  930.83  1600.49  931.354  1600.47  934.525  1600.84  " style="fill: none; stroke: Green; stroke-width: 1.000000; fill-type: evenodd"  fill-opacity="1.000000" />
   <path d="M 1034.91  1495.19  1036.91  1495.44  1038.36  1495.77  1039.11  1496  1041.6  1496.96  1043.31  1497.77  1044  1498.13  1046.07  1499.35  1047.07  1499.94  1047.52  1500.25  1050.83  1502.6  1054.14  1505.31  1055.43  1506.44  1058.95  1509.73  1060.2  1510.93  1062.94  1513.78  1063.74  1513.03  1066.62  1516.18  1071.74  1522.06  1074.68  1525.63  1073.83  1526.32  1076  1529.07  1080.65  1535.56  1080.76  1535.72  1084.21  1541.27  1085.19  1542.92  1086.77  1546  1087.38  1547.19  1088.06  1548.62  1088.79  1550.29  1088.84  1550.41  1088.94  1550.63  1090.02  1553.67  1090.41  1555.07  1091.04  1557.43  1091.52  1559.73  1091.55  1559.96  1091.77  1561.65  1091.82  1562.68  1091.67  1565.01  1091.26  1567.11  1091.1  1567.52  1090.6  1568.95  1090.38  1569.38  1090.16  1569.73  1087.02  1575.14  1085.63  1576.94  1081.71  1582.04  1081.44  1582.26  1075.55  1587.99  1075.3  1588.19  1068.98  1593.01  1067.67  1593.68  1066.39  1594.34  1066.17  1594.37  1063.21  1594.87  1061.22  1594.74  1059.54  1594.64  1058.75  1594.45  1058.04  1594.3  1055.39  1593.48  1052.67  1592.5  1051.2  1591.87  1047.66  1590.25  1044.05  1588.3  1042.32  1587.32  1037.1  1583.92  1036.96  1583.83  1036.34  1583.44  1034.81  1582.29  1032.92  1580.86  1032.65  1580.64  1028.15  1576.76  1027.41  1576.07  1026.91  1575.54  1022.85  1571.46  1022.52  1571.11  1022.2  1570.71  1018.41  1566.3  1018.08  1565.9  1017.86  1565.59  1014.21  1560.67  1014.11  1560.51  1013.92  1560.25  1012.88  1558.57  1010.62  1554.77  1010.41  1554.34  1007.82  1549.09  1007.25  1547.84  1005.68  1543.84  1004.97  1542.12  1003.85  1538.85  1003.82  1538.73  1003.19  1536.58  1001.96  1531.96  1001.94  1531.84  1001.59  1529.33  1001.41  1527.87  1001.45  1526.65  1001.49  1524.3  1001.62  1523.75  1002.21  1521.74  1002.36  1521.27  1003.32  1519.61  1003.74  1518.77  1004.83  1517.37  1006.29  1515.7  1009.16  1512.1  1011.7  1509.23  1013.97  1506.9  1017.61  1503.82  1020.52  1501.56  1021.54  1500.7  1024.22  1499.14  1029.94  1495.89  1030.02  1495.93  1031.38  1495.4  1033.06  1495.18  1034.91  1495.19  " style="fill: none; stroke: Green; stroke-width: 1.000000; fill-type: evenodd"  fill-opacity="1.000000" />
   <path d="M 1250  1184.84  1150.3  1184.84  1250  1284.54  1012.84  1284.54  1012.84  1109.54  994.586  1109.54  994.586  1284.54  750  1284.54  750  784.538  1250  784.538  1250  1184.84  " style="fill: none; stroke: Green; stroke-width: 1.000000; fill-type: evenodd"  fill-opacity="1.000000" />
   <path d="M 1180.31  1020.04  1180.31  1067.54  1225.31  1067.54  1225.31  1020.04  1180.31  1020.04  " style="fill: none; stroke: Blue; stroke-width: 1.000000; fill-type: evenodd"  fill-opacity="1.000000" />
   <path d="M 1125.31  1020.04  1125.31  1067.54  1170.31  1067.54  1170.31  1020.04  1125.31  1020.04  " style="fill: none; stroke: Blue; stroke-width: 1.000000; fill-type: evenodd"  fill-opacity="1.000000" />
   <path d="M 1055.35  1018.29  1055.35  1067.04  1104.1  1067.04  1104.1  1018.29  1055.35  1018.29  " style="fill: none; stroke: Blue; stroke-width: 1.000000; fill-type: evenodd"  fill-opacity="1.000000" />
   <path d="M 1003.8  1018.29  1003.8  1067.04  1052.55  1067.04  1052.55  1018.29  1003.8  1018.29  " style="fill: none; stroke: Blue; stroke-width: 1.000000; fill-type: evenodd"  fill-opacity="1.000000" />
   <path d="M 930.273  991.311  928.075  991.555  925.907  991.993  923.786  992.62  921.729  993.433  919.752  994.424  917.87  995.585  916.098  996.909  914.45  998.384  912.939  999.999  911.577  1001.74  910.374  1003.6  909.339  1005.55  908.481  1007.59  907.807  1009.7  907.322  1011.85  907.029  1014.05  906.931  1016.26  907.029  1018.47  907.322  1020.66  907.807  1022.82  908.481  1024.92  909.339  1026.96  910.374  1028.92  911.577  1030.77  912.939  1032.51  914.45  1034.13  916.098  1035.6  917.87  1036.93  919.752  1038.09  921.729  1039.08  923.786  1039.89  925.907  1040.52  928.075  1040.96  930.273  1041.2  932.484  1041.25  934.691  1041.1  936.877  1040.76  939.023  1040.23  941.114  1039.51  943.133  1038.61  945.065  1037.53  946.893  1036.28  948.605  1034.88  950.186  1033.34  951.624  1031.66  952.908  1029.86  954.028  1027.95  954.975  1025.95  955.742  1023.88  956.322  1021.74  956.711  1019.57  956.907  1017.36  956.928  1016.38  956.928  1016.08  956.907  1015.15  956.711  1012.95  956.322  1010.77  955.742  1008.64  954.975  1006.56  954.028  1004.56  952.908  1002.66  951.624  1000.85  950.186  999.175  948.605  997.628  946.893  996.228  945.065  994.984  943.133  993.906  941.114  993.004  939.023  992.283  936.877  991.75  934.691  991.409  932.484  991.262  930.273  991.311  " style="fill: none; stroke: Blue; stroke-width: 1.000000; fill-type: evenodd"  fill-opacity="1.000000" />
   <path d="M 872.967  1006.41  871.613  1006.75  870.32  1007.27  869.111  1007.97  868.012  1008.82  867.043  1009.83  866.223  1010.96  865.568  1012.19  865.091  1013.5  864.801  1014.86  864.703  1016.26  864.801  1017.65  865.091  1019.01  865.568  1020.32  866.223  1021.56  867.043  1022.68  868.012  1023.69  869.111  1024.55  870.32  1025.24  871.613  1025.77  872.967  1026.1  874.354  1026.25  875.749  1026.2  877.122  1025.96  878.449  1025.53  879.703  1024.92  880.86  1024.14  881.897  1023.2  882.793  1022.13  883.533  1020.95  884.1  1019.68  884.485  1018.34  884.679  1016.95  884.7  1016.36  884.7  1016.15  884.679  1015.56  884.485  1014.18  884.1  1012.84  883.533  1011.56  882.793  1010.38  881.897  1009.31  880.86  1008.38  879.703  1007.6  878.449  1006.98  877.122  1006.55  875.749  1006.31  874.354  1006.26  872.967  1006.41  " style="fill: none; stroke: Blue; stroke-width: 1.000000; fill-type: evenodd"  fill-opacity="1.000000" />
   <path d="M 845.25  1011.35  844.312  1011.64  843.447  1012.1  842.69  1012.72  842.068  1013.48  841.606  1014.34  841.321  1015.28  841.225  1016.26  841.321  1017.23  841.606  1018.17  842.068  1019.03  842.69  1019.79  843.447  1020.41  844.312  1020.88  845.25  1021.16  846.225  1021.26  847.2  1021.16  848.138  1020.88  849.003  1020.41  849.761  1019.79  850.382  1019.03  850.844  1018.17  851.129  1017.23  851.225  1016.26  851.129  1015.28  850.844  1014.34  850.382  1013.48  849.761  1012.72  849.003  1012.1  848.138  1011.64  847.2  1011.35  846.225  1011.26  845.25  1011.35  " style="fill: none; stroke: Blue; stroke-width: 1.000000; fill-type: evenodd"  fill-opacity="1.000000" />
   <path d="M 830.289  1013.81  829.648  1014.04  829.092  1014.43  828.662  1014.96  828.391  1015.58  828.298  1016.26  828.391  1016.93  828.662  1017.56  829.092  1018.08  829.648  1018.48  830.289  1018.7  830.969  1018.75  831.635  1018.61  832.24  1018.3  832.737  1017.83  833.091  1017.25  833.275  1016.6  833.294  1016.31  833.294  1016.2  833.275  1015.92  833.091  1015.26  832.737  1014.68  832.24  1014.21  831.635  1013.9  830.969  1013.76  830.289  1013.81  " style="fill: none; stroke: Blue; stroke-width: 1.000000; fill-type: evenodd"  fill-opacity="1.000000" />
   <path d="M 1055.48  967.042  1055.48  1015.79  1104.23  1015.79  1104.23  967.042  1055.48  967.042  " style="fill: none; stroke: Blue; stroke-width: 1.000000; fill-type: evenodd"  fill-opacity="1.000000" />
   <path d="M 1003.71  967.042  1003.71  1015.79  1052.46  1015.79  1052.46  967.042  1003.71  967.042  " style="fill: none; stroke: Blue; stroke-width: 1.000000; fill-type: evenodd"  fill-opacity="1.000000" />
   <path d="M 1180.23  967.554  1180.23  1015.05  1225.23  1015.05  1225.23  967.554  1180.23  967.554  " style="fill: none; stroke: Blue; stroke-width: 1.000000; fill-type: evenodd"  fill-opacity="1.000000" />
   <path d="M 1125.23  967.554  1125.23  1015.05  1170.23  1015.05  1170.23  967.554  1125.23  967.554  " style="fill: none; stroke: Blue; stroke-width: 1.000000; fill-type: evenodd"  fill-opacity="1.000000" />
   <path d="M 1420  649.538  1380  649.538  1380  669.538  1360  669.538  1360  299.538  1420  299.538  1420  649.538  " style="fill: none; stroke: Green; stroke-width: 1.000000; fill-type: evenodd"  fill-opacity="1.000000" />
   <path d="M 640  669.538  620  669.538  620  649.538  580  649.538  580  553.063  640  553.063  640  669.538  " style="fill: none; stroke: Green; stroke-width: 1.000000; fill-type: evenodd"  fill-opacity="1.000000" />
   <path d="M 640  396.013  580  396.013  580  299.538  640  299.538  640  396.013  " style="fill: none; stroke: Green; stroke-width: 1.000000; fill-type: evenodd"  fill-opacity="1.000000" />
   <path d="M 1206.81  1266.65  1134.1  1266.65  1134.1  1193.94  1206.81  1266.65  " style="fill: none; stroke: Black; stroke-width: 1.000000; fill-type: evenodd"  fill-opacity="1.000000" />
   <path d="M 1232.11  1166.95  1134.1  1166.95  1134.1  1085.43  1232.11  1085.43  1232.11  1166.95  " style="fill: none; stroke: Black; stroke-width: 1.000000; fill-type: evenodd"  fill-opacity="1.000000" />
   <path d="M 1232.11  949.663  1122.12  949.663  1122.12  949.151  985.82  949.151  985.864  1012.54  974.607  1012.54  973.845  1006.83  971.652  999.976  969.686  995.828  965.772  989.79  960.583  984.245  954.5  979.701  947.711  976.298  940.429  974.144  933.277  973.35  928.688  973.452  921.579  974.561  914.4  977.035  907.768  980.735  901.892  985.544  896.953  991.313  894.113  996.151  888.737  991.95  881.493  989.024  874.354  988.273  869.227  988.812  863.002  990.835  859.082  993.098  855.894  995.589  850.759  993.462  841.691  993.462  835.072  996.203  826.509  995.618  817.56  1000.25  813.232  1005.57  810.5  1011.86  810.5  1020.65  813.733  1028.09  821.1  1034.97  832.236  1037.29  835.033  1036.29  841.691  1039.05  850.759  1039.05  856.049  1036.86  859.009  1039.52  865.461  1042.67  869.853  1043.77  874.354  1044.24  881.493  1043.49  888.149  1040.8  891.901  1038.27  893.931  1036.44  897.212  1041.5  901.891  1046.97  907.46  1051.53  911.366  1053.94  912.712  1054.54  767.891  1054.54  767.891  802.429  1232.11  802.429  1232.11  949.663  " style="fill: none; stroke: Black; stroke-width: 1.000000; fill-type: evenodd"  fill-opacity="1.000000" />
   <path d="M 1402.11  631.648  1377.89  631.648  1377.89  317.429  1402.11  317.429  1402.11  631.648  " style="fill: none; stroke: Black; stroke-width: 1.000000; fill-type: evenodd"  fill-opacity="1.000000" />
   <path d="M 985.915  1084.93  1042.84  1084.93  1042.84  1266.65  964.586  1266.65  964.586  1079.54  985.911  1079.54  985.915  1084.93  " style="fill: none; stroke: Black; stroke-width: 1.000000; fill-type: evenodd"  fill-opacity="1.000000" />
   <path d="M 917.935  1056.87  925.305  1058.7  943.586  1059.92  943.586  1105.93  964.586  1105.93  964.586  1266.65  767.891  1266.65  767.891  1054.54  912.712  1054.54  917.935  1056.87  " style="fill: none; stroke: Black; stroke-width: 1.000000; fill-type: evenodd"  fill-opacity="1.000000" />
   <path d="M 936.528  1615.26  942.879  1616.92  947.662  1618.85  947.894  1618.94  951.567  1620.84  955.516  1623.28  961.563  1627.75  967.993  1633.54  972.069  1637.88  975.008  1641.4  978.252  1646.06  980.567  1650.33  982.112  1654.3  978.219  1657.76  973.812  1660.95  967.682  1664.4  967.182  1664.56  966.332  1664.58  962.884  1664.28  956.631  1662.58  950.246  1659.93  943.89  1656.63  937.783  1652.92  931.988  1648.89  926.547  1644.59  921.45  1639.85  919.186  1637.33  917.07  1634.53  915.906  1632.64  915.393  1631.48  916.954  1628.55  921.712  1621.88  925.684  1617.54  929.4  1614.11  936.528  1615.26  " style="fill: none; stroke: Black; stroke-width: 1.000000; fill-type: evenodd"  fill-opacity="1.000000" />
   <path d="M 1039.67  1514.44  1043.34  1517.73  1048.31  1522.7  1058.16  1533.71  1062.67  1539.2  1067.89  1546.12  1071.24  1551.03  1074.45  1556.52  1077.31  1562.96  1078.04  1566.68  1076.44  1569.29  1072.4  1574.33  1067.65  1578.97  1064.2  1581.76  1059.02  1580.29  1052.85  1577.79  1048.39  1575.47  1044.18  1572.71  1041.89  1570.95  1036.71  1566.37  1032.7  1562.2  1028.95  1557.72  1025.41  1552.87  1023.23  1549.6  1020.68  1544.84  1018.64  1539.89  1016.7  1533.14  1015.69  1527.84  1015.48  1525.01  1019.44  1520.21  1023.51  1515.92  1028.72  1511.59  1032.46  1509.28  1039.67  1514.44  " style="fill: none; stroke: Black; stroke-width: 1.000000; fill-type: evenodd"  fill-opacity="1.000000" />
   <path d="M 1107.42  1085.43  1134.1  1085.43  1134.1  1166.95  1107.11  1166.95  1134.1  1193.94  1134.1  1193.94  1134.1  1193.94  1134.1  1266.65  1042.84  1266.65  1042.84  1084.93  1107.42  1084.93  1107.42  1085.43  " style="fill: none; stroke: Black; stroke-width: 1.000000; fill-type: evenodd"  fill-opacity="1.000000" />
   <path d="M 985.879  1033.54  985.911  1079.54  964.586  1079.54  964.586  1105.93  943.586  1105.93  943.586  1059.92  928.65  1058.93  932.285  1059.17  932.882  1059.21  932.882  1059.21  937.279  1058.72  940.429  1058.37  941.876  1057.94  941.886  1057.94  947.624  1056.24  947.624  1056.24  947.711  1056.21  951.054  1054.54  951.055  1054.54  952.701  1053.71  954.5  1052.81  960.265  1048.51  961.253  1047.54  963.546  1045.3  967.979  1039.63  971.201  1033.54  971.344  1033.27  972.935  1028.96  974.514  1021.94  974.85  1014.36  974.607  1012.54  985.864  1012.54  985.879  1033.54  " style="fill: none; stroke: Black; stroke-width: 1.000000; fill-type: evenodd"  fill-opacity="1.000000" />
   <path d="M 917.935  1056.87  912.712  1054.54  912.712  1054.54  917.935  1056.87  " style="fill: none; stroke: Black; stroke-width: 1.000000; fill-type: evenodd"  fill-opacity="1.000000" />
   <path d="M 622.109  631.648  597.891  631.648  597.891  570.954  622.109  570.954  622.109  631.648  " style="fill: none; stroke: Black; stroke-width: 1.000000; fill-type: evenodd"  fill-opacity="1.000000" />
   <path d="M 622.109  378.123  597.891  378.123  597.891  317.429  622.109  317.429  622.109  378.123  " style="fill: none; stroke: Black; stroke-width: 1.000000; fill-type: evenodd"  fill-opacity="1.000000" />
</svg>
