<?xml version="1.0" encoding="UTF-8" standalone="yes"?>
<!DOCTYPE svg PUBLIC "-//W3C//DTD SVG 1.0//EN" "http://www.w3.org/TR/2001/REC-SVG-20010904/DTD/svg10.dtd">
<svg height="2000" width="2000" xmlns="http://www.w3.org/2000/svg" xmlns:svg="http://www.w3.org/2000/svg" xmlns:xlink="http://www.w3.org/1999/xlink">
   <marker id="endArrow" markerHeight="8" markerUnits="strokeWidth" markerWidth="10" orient="auto" refX="1" refY="5" viewBox="0 0 1000 1000">
      <polyline fill="darkblue" points="0,0 10,5 0,10 1,5" />
   </marker>
   <circle cx="1000" cy="1000" r="1" style="stroke:black; fill: red" />
   <circle cx="1000" cy="1000" r="800" style="stroke:black; fill: none" />
   <path d="M 985.911  1688.07  981.741  1692.24  978.689  1690.97  982.255  1687.4  985.911  1688.07  " style="fill: none; stroke: Green; stroke-width: 1.000000; fill-type: evenodd"  fill-opacity="1.000000" />
   <path d="M 1016.59  1664.18  991.712  1689.06  987.982  1688.46  1014.43  1662.02  1016.59  1664.18  " style="fill: none; stroke: Green; stroke-width: 1.000000; fill-type: evenodd"  fill-opacity="1.000000" />
   <path d="M 1063.56  1610.99  1013.48  1661.07  1011.32  1658.91  1061.39  1608.83  1063.56  1610.99  " style="fill: none; stroke: Green; stroke-width: 1.000000; fill-type: evenodd"  fill-opacity="1.000000" />
   <path d="M 886.974  1628.04  884.008  1631.01  881.792  1628.73  884.727  1625.8  886.974  1628.04  " style="fill: none; stroke: Green; stroke-width: 1.000000; fill-type: evenodd"  fill-opacity="1.000000" />
   <path d="M 1107.61  1573.16  1066.67  1614.1  1064.5  1611.94  1105.89  1570.55  1107.61  1573.16  " style="fill: none; stroke: Green; stroke-width: 1.000000; fill-type: evenodd"  fill-opacity="1.000000" />
   <path d="M 940.776  1573.09  933.136  1580.73  931.319  1578.91  938.958  1571.27  940.776  1573.09  " style="fill: none; stroke: Green; stroke-width: 1.000000; fill-type: evenodd"  fill-opacity="1.000000" />
   <path d="M 1108.05  1565.93  1104.92  1569.07  1104.47  1568.39  1103.14  1566.52  1106.16  1563.5  1108.05  1565.93  " style="fill: none; stroke: Green; stroke-width: 1.000000; fill-type: evenodd"  fill-opacity="1.000000" />
   <path d="M 983.215  1530.65  975.127  1538.74  973.31  1536.92  981.398  1528.83  983.215  1530.65  " style="fill: none; stroke: Green; stroke-width: 1.000000; fill-type: evenodd"  fill-opacity="1.000000" />
   <path d="M 1034.36  1480.66  1031.38  1483.64  1029.19  1481.33  1032.16  1478.36  1034.36  1480.66  " style="fill: none; stroke: Green; stroke-width: 1.000000; fill-type: evenodd"  fill-opacity="1.000000" />
   <path d="M 958.292  1284.54  956.781  1284.54  956.781  1084.54  958.292  1084.54  958.292  1284.54  " style="fill: none; stroke: Green; stroke-width: 1.000000; fill-type: evenodd"  fill-opacity="1.000000" />
   <path d="M 1121.1  1593.02  1121.09  1594.45  1121.04  1595  1120.9  1596.63  1120.77  1597.44  1120.54  1598.76  1120.16  1600.68  1120.11  1600.88  1119.41  1602.83  1119.12  1603.47  1118.56  1604.68  1118.05  1605.58  1117.57  1606.42  1116.85  1607.47  1116.43  1608.03  1112.52  1612.76  1111.3  1614.23  1106.47  1619.35  1105.41  1620.48  1101.47  1624.16  1100.01  1625.46  1099.33  1626  1096.82  1627.49  1095.45  1628.06  1094.09  1628.63  1091.67  1629.26  1091.14  1629.41  1087.68  1630.19  1085.45  1630.64  1082.66  1631.38  1079.86  1632.02  1077.01  1632.96  1074.65  1633.74  1072.72  1634.57  1069.83  1635.81  1068.65  1636.48  1065.43  1638.26  1064.81  1638.7  1061.4  1641.05  1061.2  1641.23  1058.91  1643.13  1057.67  1644.11  1057.55  1644.23  1054.17  1647.39  1053.8  1647.8  1050.95  1650.91  1050.45  1651.59  1048.02  1654.71  1047.49  1655.6  1045.45  1658.82  1044.96  1659.85  1043.22  1663.24  1042.82  1664.32  1041.31  1667.96  1041.02  1668.97  1039.67  1672.93  1039.56  1673.51  1039.36  1674.07  1038.67  1676.14  1038.44  1676.72  1037.36  1678.92  1037.2  1679.22  1036.37  1680.33  1035.54  1681.53  1034.49  1682.77  1033.69  1683.7  1032.32  1685.23  1031.95  1685.61  1027.93  1689.78  1026.86  1690.87  1025.65  1692.09  1024.5  1693.25  1024.08  1693.64  1023.29  1694.27  1022.91  1694.56  1021.91  1695.34  1021.64  1695.52  1020.42  1696.31  1019.07  1697.04  1018.8  1697.18  1016.99  1697.89  1015.58  1698.34  1015.11  1698.49  1013.61  1698.86  1013.33  1697.83  1013.99  1697.62  1014.96  1697.23  1015.78  1696.91  1016.51  1696.55  1017.48  1696.08  1017.99  1695.77  1019.06  1695.14  1019.39  1694.91  1020.52  1694.1  1020.83  1693.87  1021.73  1693.12  1021.75  1693.1  1025.47  1689.36  1028.91  1685.85  1030.58  1684.13  1031.64  1683.05  1031.74  1682.94  1033.59  1680.76  1033.78  1680.48  1034.03  1680.14  1035.14  1678.4  1035.64  1677.41  1036.36  1675.87  1036.9  1674.3  1037.22  1673.21  1037.38  1672.58  1037.59  1671.53  1038.24  1669.61  1039.14  1666.48  1039.82  1664.84  1040.97  1661.69  1041.72  1660.23  1043.13  1657.2  1043.99  1655.84  1045.65  1653.05  1046.7  1651.69  1048.54  1649.22  1049.85  1647.79  1051.74  1645.67  1053.41  1644.11  1055.22  1642.38  1056.89  1641.05  1059.01  1639.37  1060.44  1638.44  1063.15  1636.68  1064.22  1636.13  1067.69  1634.36  1068.65  1634.02  1071.42  1632.91  1072.63  1632.39  1076.86  1631.01  1077.85  1630.68  1082.3  1629.67  1083.51  1629.37  1084.03  1629.28  1084.36  1629.22  1089.4  1628.19  1090.77  1627.83  1092.37  1627.45  1095.15  1626.35  1097.54  1624.97  1097.68  1624.89  1097.88  1624.74  1099.91  1623.08  1100.7  1622.35  1104.09  1619.05  1106.32  1616.67  1109.99  1612.81  1111.94  1610.45  1115.11  1606.59  1115.49  1606.13  1115.5  1606.11  1116.4  1604.87  1116.65  1604.5  1116.85  1604.15  1117.62  1602.75  1117.94  1602.03  1118.45  1600.87  1118.84  1599.7  1119.11  1598.89  1119.54  1597.16  1119.61  1596.81  1119.81  1595.6  1119.94  1594.66  1120.03  1592.99  1121.1  1593.02  " style="fill: none; stroke: Green; stroke-width: 1.000000; fill-type: evenodd"  fill-opacity="1.000000" />
   <path d="M 934.816  1568.11  934.984  1568.14  935  1568.15  935.528  1568.27  935.563  1569.1  934.978  1569.29  934.448  1569.4  928.965  1570.58  922.922  1572.11  920.358  1572.68  919.168  1572.9  918.95  1571.84  922.39  1571.08  922.507  1571.04  928.679  1569.45  933.812  1568.19  933.88  1568.18  934.172  1568.1  934.398  1568.09  934.567  1568.08  934.816  1568.11  " style="fill: none; stroke: Green; stroke-width: 1.000000; fill-type: evenodd"  fill-opacity="1.000000" />
   <path d="M 975.044  1518.88  974.691  1520.53  974.158  1522.63  973.177  1525.94  972.839  1527.27  972.199  1529.53  971.443  1531.71  971.2  1532.57  970.891  1533.21  970.096  1533.1  970.017  1532.65  970.003  1532.26  969.986  1532.22  970.029  1531.8  970.12  1531.55  970.153  1531.43  971.263  1527.95  971.546  1527.13  971.595  1526.96  971.616  1526.88  973.607  1520.17  973.991  1518.64  975.044  1518.88  " style="fill: none; stroke: Green; stroke-width: 1.000000; fill-type: evenodd"  fill-opacity="1.000000" />
   <path d="M 640  536.258  580  536.258  580  533.456  640  533.456  640  536.258  " style="fill: none; stroke: Green; stroke-width: 1.000000; fill-type: evenodd"  fill-opacity="1.000000" />
   <path d="M 640  415.621  580  415.621  580  412.819  640  412.819  640  415.621  " style="fill: none; stroke: Green; stroke-width: 1.000000; fill-type: evenodd"  fill-opacity="1.000000" />
   <path d="M 1108.55  1566.57  1110.99  1569.79  1113.79  1573.44  1114.44  1574.27  1114.59  1574.49  1115.87  1576.35  1116.57  1577.49  1117.16  1578.51  1118.23  1580.71  1119.15  1582.97  1119.91  1585.28  1120.5  1587.61  1120.93  1589.95  1121.01  1590.68  1121.11  1592.22  1121.1  1593.02  1120.03  1592.99  1119.94  1594.66  1119.81  1595.6  1119.61  1596.81  1119.54  1597.16  1119.11  1598.89  1118.84  1599.7  1118.45  1600.87  1117.94  1602.03  1117.62  1602.75  1116.85  1604.15  1116.65  1604.5  1116.4  1604.87  1115.5  1606.11  1115.49  1606.13  1115.11  1606.59  1111.94  1610.45  1109.99  1612.81  1106.32  1616.67  1104.09  1619.05  1100.7  1622.35  1099.91  1623.08  1097.88  1624.74  1097.68  1624.89  1097.54  1624.97  1095.15  1626.35  1092.37  1627.45  1090.77  1627.83  1089.4  1628.19  1084.36  1629.22  1084.03  1629.28  1083.51  1629.37  1082.3  1629.67  1077.85  1630.68  1076.86  1631.01  1072.63  1632.39  1071.42  1632.91  1068.65  1634.02  1067.69  1634.36  1064.22  1636.13  1063.15  1636.68  1060.44  1638.44  1059.01  1639.37  1056.89  1641.05  1055.22  1642.38  1053.41  1644.11  1051.74  1645.67  1049.85  1647.79  1048.54  1649.22  1046.7  1651.69  1045.65  1653.05  1043.99  1655.84  1043.13  1657.2  1041.72  1660.23  1040.97  1661.69  1039.82  1664.84  1039.14  1666.48  1038.24  1669.61  1037.59  1671.53  1037.38  1672.58  1037.22  1673.21  1036.9  1674.3  1036.36  1675.87  1035.64  1677.41  1035.14  1678.4  1034.03  1680.14  1033.78  1680.48  1033.59  1680.76  1031.74  1682.94  1031.64  1683.05  1030.58  1684.13  1028.91  1685.85  1025.47  1689.36  1021.75  1693.1  1021.73  1693.12  1020.83  1693.87  1020.52  1694.1  1019.39  1694.91  1019.06  1695.14  1017.99  1695.77  1017.48  1696.08  1016.51  1696.55  1015.78  1696.91  1014.96  1697.23  1013.99  1697.62  1013.33  1697.83  1013.62  1698.89  1012.17  1699.14  1011.14  1699.33  1010.43  1699.4  1009.1  1699.55  1008.68  1699.57  1007.03  1699.65  1006.28  1699.64  1004.87  1699.58  1003.23  1699.41  1002.65  1699.35  1001.39  1699.15  1000.46  1699  999.591  1698.8  998.324  1698.53  996.243  1697.94  995.946  1697.84  994.157  1697.2  992.816  1696.67  987.102  1694.4  986.729  1694.25  985.248  1693.65  981.745  1692.24  985.911  1688.07  987.978  1688.45  987.982  1688.46  991.712  1689.06  1016.59  1664.18  1014.43  1662.02  1014.43  1662.02  1013.48  1661.07  1063.56  1610.99  1064.5  1611.94  1066.67  1614.1  1107.61  1573.16  1105.89  1570.55  1105.89  1570.55  1104.92  1569.07  1108.05  1565.93  1108.55  1566.57  " style="fill: none; stroke: Green; stroke-width: 1.000000; fill-type: evenodd"  fill-opacity="1.000000" />
   <path d="M 961.599  1631.39  961.882  1631.4  962.048  1631.41  962.846  1631.58  963.124  1631.64  963.272  1631.67  964.043  1631.98  964.307  1632.08  964.435  1632.13  965.155  1632.58  965.399  1632.72  965.504  1632.79  966.156  1633.35  966.372  1633.53  966.933  1634.18  966.998  1634.29  967.181  1634.5  967.625  1635.22  967.768  1635.47  968.133  1636.37  968.233  1636.63  968.443  1637.58  968.497  1637.85  968.547  1638.82  968.553  1639.11  968.44  1640.07  968.398  1640.35  968.127  1641.28  968.039  1641.55  967.616  1642.42  967.484  1642.67  966.922  1643.46  966.749  1643.68  966.064  1644.37  965.855  1644.56  965.065  1645.12  964.828  1645.28  963.955  1645.7  963.695  1645.81  962.764  1646.08  962.489  1646.15  961.526  1646.26  961.244  1646.28  960.276  1646.23  959.994  1646.2  959.048  1645.99  958.776  1645.91  957.878  1645.54  957.623  1645.42  956.798  1644.91  956.567  1644.75  955.915  1644.19  955.715  1643.99  955.153  1643.34  954.83  1642.81  954.667  1642.58  954.481  1642.28  954.243  1641.7  954.121  1641.44  953.994  1641.13  953.854  1640.5  953.777  1640.23  953.706  1639.91  953.673  1639.25  953.643  1638.97  953.627  1638.66  953.705  1637.99  953.723  1637.71  953.757  1637.41  953.949  1636.75  954.015  1636.48  954.094  1636.21  954.4  1635.58  954.51  1635.32  954.627  1635.07  955.042  1634.49  955.196  1634.25  955.342  1634.05  955.859  1633.53  956.05  1633.32  956.219  1633.15  956.826  1632.72  957.05  1632.55  957.233  1632.42  957.917  1632.09  958.166  1631.95  958.355  1631.86  959.099  1631.65  959.367  1631.56  959.555  1631.5  960.338  1631.41  960.617  1631.37  960.797  1631.35  961.599  1631.39  " style="fill: none; stroke: Green; stroke-width: 1.000000; fill-type: evenodd"  fill-opacity="1.000000" />
   <path d="M 936.466  1568.81  936.766  1569.08  938.958  1571.27  931.319  1578.91  930.253  1577.84  883.513  1624.58  884.727  1625.8  881.792  1628.73  881.254  1628.18  880.457  1627.35  877.729  1624.45  876.38  1622.74  876.291  1622.61  875.304  1620.86  875.189  1620.62  875.018  1620.16  874.714  1619.48  874.54  1619.02  874.137  1617.42  874.073  1617.1  873.891  1615.19  874.008  1613.43  874.019  1613.23  874.37  1611.67  874.445  1611.32  875.12  1609.56  875.145  1609.5  875.217  1609.36  877.233  1605.69  878.822  1603.07  879.944  1601.26  881.737  1598.71  882.954  1597.02  884.951  1594.52  886.22  1592.97  887.513  1591.53  889.69  1589.08  890.965  1587.78  893.314  1585.34  896.277  1582.51  899.107  1579.74  900.008  1578.89  900.47  1578.51  902.206  1577.15  903.938  1576.11  904.663  1575.68  905.458  1575.35  907.3  1574.56  908.279  1574.29  910.012  1573.83  918.95  1571.84  919.168  1572.9  920.358  1572.68  922.922  1572.11  928.965  1570.58  934.448  1569.4  934.978  1569.29  935.563  1569.1  935.522  1568.14  936.466  1568.81  " style="fill: none; stroke: Green; stroke-width: 1.000000; fill-type: evenodd"  fill-opacity="1.000000" />
   <path d="M 1042.27  1550.76  1042.56  1550.77  1042.72  1550.78  1043.52  1550.95  1043.8  1551.01  1043.95  1551.04  1044.72  1551.35  1044.98  1551.45  1045.11  1551.51  1045.83  1551.95  1046.07  1552.09  1046.18  1552.16  1046.83  1552.72  1047.05  1552.9  1047.61  1553.55  1047.67  1553.66  1047.85  1553.88  1048.3  1554.59  1048.44  1554.84  1048.81  1555.74  1048.91  1556  1049.12  1556.95  1049.17  1557.23  1049.22  1558.19  1049.23  1558.48  1049.11  1559.44  1049.07  1559.72  1048.8  1560.65  1048.71  1560.92  1048.29  1561.79  1048.16  1562.04  1047.6  1562.83  1047.42  1563.06  1046.74  1563.74  1046.53  1563.93  1045.74  1564.49  1045.5  1564.65  1044.63  1565.07  1044.37  1565.18  1043.44  1565.45  1043.16  1565.52  1042.2  1565.63  1041.92  1565.65  1040.95  1565.6  1040.67  1565.57  1039.72  1565.36  1039.45  1565.28  1038.55  1564.92  1038.3  1564.79  1037.47  1564.28  1037.24  1564.12  1036.59  1563.56  1036.27  1563.19  1036.07  1562.99  1035.83  1562.71  1035.51  1562.18  1035.34  1561.95  1035.16  1561.65  1034.92  1561.07  1034.8  1560.81  1034.67  1560.5  1034.53  1559.87  1034.45  1559.6  1034.38  1559.28  1034.35  1558.62  1034.32  1558.34  1034.3  1558.03  1034.38  1557.36  1034.4  1557.08  1034.43  1556.79  1034.62  1556.13  1034.69  1555.85  1034.77  1555.58  1035.07  1554.95  1035.18  1554.69  1035.3  1554.45  1035.72  1553.86  1035.87  1553.62  1036.02  1553.42  1036.53  1552.9  1036.72  1552.69  1036.89  1552.52  1037.5  1552.09  1037.72  1551.92  1037.91  1551.79  1038.59  1551.46  1038.84  1551.33  1039.03  1551.24  1039.77  1551.02  1040.04  1550.93  1040.23  1550.88  1041.01  1550.78  1041.29  1550.74  1041.47  1550.72  1042.27  1550.76  " style="fill: none; stroke: Green; stroke-width: 1.000000; fill-type: evenodd"  fill-opacity="1.000000" />
   <path d="M 1018.1  1470.06  1018.85  1470.11  1019.58  1470.24  1020.44  1470.38  1020.63  1470.41  1021.51  1470.64  1022.28  1470.88  1023.2  1471.2  1023.57  1471.38  1024.56  1471.82  1024.71  1471.89  1025.74  1472.47  1026.01  1472.65  1027.07  1473.36  1027.2  1473.48  1029.18  1475.23  1030.78  1476.91  1032.16  1478.36  1029.19  1481.33  1027.98  1480.12  980.331  1527.76  981.398  1528.83  973.31  1536.92  970.965  1534.57  970.649  1534.22  969.886  1533.08  970.891  1533.21  971.2  1532.57  971.443  1531.71  972.199  1529.53  972.839  1527.27  973.177  1525.94  974.159  1522.63  974.692  1520.53  975.044  1518.88  973.991  1518.64  974.245  1517.62  975.32  1513.36  975.352  1513.24  976.643  1506.87  976.71  1506.55  976.737  1506.46  977.389  1503.83  977.43  1503.7  977.584  1503.35  978.447  1501.2  978.49  1501.1  978.739  1500.69  979.856  1498.74  981.271  1496.95  981.587  1496.51  983.362  1494.61  987.232  1490.59  988.612  1489.14  992.071  1485.75  995.881  1482.27  999.013  1479.57  1000.79  1478.18  1002.2  1477.1  1004.93  1474.94  1006.44  1473.84  1007.99  1472.76  1008.38  1472.53  1009.65  1471.8  1010.07  1471.58  1011.31  1471.08  1011.91  1470.84  1012.42  1470.69  1013.78  1470.35  1014.35  1470.23  1016.26  1470.03  1016.94  1470.02  1018.1  1470.06  " style="fill: none; stroke: Green; stroke-width: 1.000000; fill-type: evenodd"  fill-opacity="1.000000" />
   <path d="M 1250  1133.19  1154.49  1133.19  1154.3  1133.95  1248.43  1184  1248.22  1184.84  1150.3  1184.84  1250  1284.54  1104.1  1284.54  1104.1  1109.54  1054.1  1109.54  1054.1  1284.54  1026.71  1284.54  1026.71  1109.54  980.711  1109.54  980.711  1284.54  958.292  1284.54  958.292  1084.54  750  1084.54  750  784.538  1250  784.538  1250  1133.19  " style="fill: none; stroke: Green; stroke-width: 1.000000; fill-type: evenodd"  fill-opacity="1.000000" />
   <path d="M 1180.31  1020.04  1180.31  1067.54  1225.31  1067.54  1225.31  1020.04  1180.31  1020.04  " style="fill: none; stroke: Blue; stroke-width: 1.000000; fill-type: evenodd"  fill-opacity="1.000000" />
   <path d="M 1125.31  1020.04  1125.31  1067.54  1170.31  1067.54  1170.31  1020.04  1125.31  1020.04  " style="fill: none; stroke: Blue; stroke-width: 1.000000; fill-type: evenodd"  fill-opacity="1.000000" />
   <path d="M 1055.35  1018.29  1055.35  1067.04  1104.1  1067.04  1104.1  1018.29  1055.35  1018.29  " style="fill: none; stroke: Blue; stroke-width: 1.000000; fill-type: evenodd"  fill-opacity="1.000000" />
   <path d="M 1003.8  1018.29  1003.8  1067.04  1052.55  1067.04  1052.55  1018.29  1003.8  1018.29  " style="fill: none; stroke: Blue; stroke-width: 1.000000; fill-type: evenodd"  fill-opacity="1.000000" />
   <path d="M 930.273  991.311  928.075  991.555  925.907  991.993  923.786  992.62  921.729  993.433  919.752  994.424  917.87  995.585  916.098  996.909  914.45  998.384  912.939  999.999  911.577  1001.74  910.374  1003.6  909.339  1005.55  908.481  1007.59  907.807  1009.7  907.322  1011.85  907.029  1014.05  906.931  1016.26  907.029  1018.47  907.322  1020.66  907.807  1022.82  908.481  1024.92  909.339  1026.96  910.374  1028.92  911.577  1030.77  912.939  1032.51  914.45  1034.13  916.098  1035.6  917.87  1036.93  919.752  1038.09  921.729  1039.08  923.786  1039.89  925.907  1040.52  928.075  1040.96  930.273  1041.2  932.484  1041.25  934.691  1041.1  936.877  1040.76  939.023  1040.23  941.114  1039.51  943.133  1038.61  945.065  1037.53  946.893  1036.28  948.605  1034.88  950.186  1033.34  951.624  1031.66  952.908  1029.86  954.028  1027.95  954.975  1025.95  955.742  1023.88  956.322  1021.74  956.711  1019.57  956.907  1017.36  956.907  1017.18  956.918  1016.69  956.918  1015.64  956.907  1015.15  956.711  1012.95  956.322  1010.77  955.742  1008.64  954.975  1006.56  954.028  1004.56  952.908  1002.66  951.624  1000.85  950.186  999.175  948.605  997.628  946.893  996.228  945.065  994.984  943.133  993.906  941.114  993.004  939.023  992.283  936.877  991.75  934.691  991.409  932.484  991.262  930.273  991.311  " style="fill: none; stroke: Blue; stroke-width: 1.000000; fill-type: evenodd"  fill-opacity="1.000000" />
   <path d="M 872.967  1006.41  871.613  1006.75  870.32  1007.27  869.111  1007.97  868.012  1008.82  867.043  1009.83  866.223  1010.96  865.568  1012.19  865.091  1013.5  864.801  1014.86  864.703  1016.26  864.801  1017.65  865.091  1019.01  865.568  1020.32  866.223  1021.56  867.043  1022.68  868.012  1023.69  869.111  1024.55  870.32  1025.24  871.613  1025.77  872.967  1026.1  874.354  1026.25  875.749  1026.2  877.122  1025.96  878.449  1025.53  879.703  1024.92  880.86  1024.14  881.897  1023.2  882.793  1022.13  883.533  1020.95  884.1  1019.68  884.485  1018.34  884.679  1016.95  884.69  1016.64  884.69  1015.87  884.679  1015.56  884.485  1014.18  884.1  1012.84  883.533  1011.56  882.793  1010.38  881.897  1009.31  880.86  1008.38  879.703  1007.6  878.449  1006.98  877.122  1006.55  875.749  1006.31  874.354  1006.26  872.967  1006.41  " style="fill: none; stroke: Blue; stroke-width: 1.000000; fill-type: evenodd"  fill-opacity="1.000000" />
   <path d="M 845.25  1011.35  844.312  1011.64  843.447  1012.1  842.69  1012.72  842.068  1013.48  841.606  1014.34  841.321  1015.28  841.225  1016.26  841.309  1017.11  841.284  1017.11  841.606  1018.17  842.068  1019.03  842.69  1019.79  843.447  1020.41  844.312  1020.88  845.25  1021.16  846.225  1021.26  847.2  1021.16  848.138  1020.88  849.003  1020.41  849.761  1019.79  850.382  1019.03  850.844  1018.17  851.129  1017.23  851.225  1016.26  851.129  1015.28  850.844  1014.34  850.382  1013.48  849.761  1012.72  849.003  1012.1  848.138  1011.64  847.2  1011.35  846.225  1011.26  845.25  1011.35  " style="fill: none; stroke: Blue; stroke-width: 1.000000; fill-type: evenodd"  fill-opacity="1.000000" />
   <path d="M 830.289  1013.81  829.648  1014.04  829.092  1014.43  828.662  1014.96  828.391  1015.58  828.298  1016.26  828.391  1016.93  828.662  1017.56  829.092  1018.08  829.648  1018.48  830.289  1018.7  830.969  1018.75  831.635  1018.61  832.24  1018.3  832.737  1017.83  833.091  1017.25  833.275  1016.6  833.285  1016.45  833.285  1016.07  833.275  1015.92  833.091  1015.26  832.737  1014.68  832.24  1014.21  831.635  1013.9  830.969  1013.76  830.289  1013.81  " style="fill: none; stroke: Blue; stroke-width: 1.000000; fill-type: evenodd"  fill-opacity="1.000000" />
   <path d="M 1055.48  967.042  1055.48  1015.79  1104.23  1015.79  1104.23  967.042  1055.48  967.042  " style="fill: none; stroke: Blue; stroke-width: 1.000000; fill-type: evenodd"  fill-opacity="1.000000" />
   <path d="M 1003.71  967.042  1003.71  1015.79  1052.46  1015.79  1052.46  967.042  1003.71  967.042  " style="fill: none; stroke: Blue; stroke-width: 1.000000; fill-type: evenodd"  fill-opacity="1.000000" />
   <path d="M 1180.23  967.554  1180.23  1015.05  1225.23  1015.05  1225.23  967.554  1180.23  967.554  " style="fill: none; stroke: Blue; stroke-width: 1.000000; fill-type: evenodd"  fill-opacity="1.000000" />
   <path d="M 1125.23  967.554  1125.23  1015.05  1170.23  1015.05  1170.23  967.554  1125.23  967.554  " style="fill: none; stroke: Blue; stroke-width: 1.000000; fill-type: evenodd"  fill-opacity="1.000000" />
   <path d="M 852.892  1195.78  854.246  1196.12  855.539  1196.64  856.747  1197.34  857.847  1198.2  858.816  1199.2  859.636  1200.33  860.291  1201.56  860.768  1202.87  861.058  1204.24  861.155  1205.63  861.058  1207.02  860.768  1208.39  860.291  1209.7  859.636  1210.93  858.816  1212.06  857.847  1213.06  856.747  1213.92  855.539  1214.62  854.246  1215.14  852.892  1215.48  851.504  1215.62  850.11  1215.57  848.736  1215.33  847.409  1214.9  846.155  1214.29  844.999  1213.51  843.962  1212.58  843.065  1211.51  842.326  1210.32  841.758  1209.05  841.374  1207.71  841.18  1206.33  841.155  1205.63  841.18  1204.93  841.374  1203.55  841.758  1202.21  842.326  1200.93  843.065  1199.75  843.962  1198.68  844.999  1197.75  846.155  1196.97  847.409  1196.36  848.736  1195.93  850.11  1195.68  851.504  1195.64  852.892  1195.78  " style="fill: none; stroke: Green; stroke-width: 1.000000; fill-type: evenodd"  fill-opacity="1.000000" />
   <path d="M 1420  649.538  1380  649.538  1380  669.538  1360  669.538  1360  299.538  1420  299.538  1420  649.538  " style="fill: none; stroke: Green; stroke-width: 1.000000; fill-type: evenodd"  fill-opacity="1.000000" />
   <path d="M 640  669.538  620  669.538  620  649.538  580  649.538  580  536.258  640  536.258  640  669.538  " style="fill: none; stroke: Green; stroke-width: 1.000000; fill-type: evenodd"  fill-opacity="1.000000" />
   <path d="M 640  412.819  580  412.819  580  299.538  640  299.538  640  412.819  " style="fill: none; stroke: Green; stroke-width: 1.000000; fill-type: evenodd"  fill-opacity="1.000000" />
   <path d="M 1206.81  1266.65  1121.99  1266.65  1121.99  1181.83  1206.81  1266.65  " style="fill: none; stroke: Black; stroke-width: 1.000000; fill-type: evenodd"  fill-opacity="1.000000" />
   <path d="M 851.817  1201.68  853.47  1202.37  854.386  1203.19  854.596  1203.48  854.764  1203.8  855.12  1205.03  854.974  1206.78  854.174  1208.24  852.824  1209.27  851.943  1209.55  850.152  1209.51  848.954  1209.03  848.657  1208.83  848.392  1208.59  847.632  1207.54  847.158  1205.81  847.227  1204.83  847.974  1203.2  848.684  1202.47  849.834  1201.8  850.174  1201.69  850.526  1201.63  851.817  1201.68  " style="fill: none; stroke: Black; stroke-width: 1.000000; fill-type: evenodd"  fill-opacity="1.000000" />
   <path d="M 1232.11  1115.3  1140.51  1115.3  1133.56  1143.19  1172.81  1164.05  1172.09  1166.95  1121.99  1166.95  1121.99  1095.08  1125.17  1095.08  1125.17  1085.43  1232.11  1085.43  1232.11  1115.3  " style="fill: none; stroke: Black; stroke-width: 1.000000; fill-type: evenodd"  fill-opacity="1.000000" />
   <path d="M 622.109  631.648  597.891  631.648  597.891  551.346  622.109  551.346  622.109  631.648  " style="fill: none; stroke: Black; stroke-width: 1.000000; fill-type: evenodd"  fill-opacity="1.000000" />
   <path d="M 622.109  397.73  597.891  397.73  597.891  317.429  622.109  317.429  622.109  397.73  " style="fill: none; stroke: Black; stroke-width: 1.000000; fill-type: evenodd"  fill-opacity="1.000000" />
   <path d="M 1232.11  949.663  1122.12  949.663  1122.12  949.151  985.82  949.151  985.912  1081.75  982.734  1081.75  982.734  1091.65  974.671  1091.65  974.671  1066.65  945.957  1066.65  945.417  1056.89  947.711  1056.21  954.5  1052.81  960.265  1048.51  963.546  1045.3  967.979  1039.63  971.344  1033.27  972.935  1028.96  974.514  1021.94  974.85  1014.36  973.845  1006.83  971.652  999.976  969.686  995.828  965.772  989.79  960.583  984.245  954.5  979.701  947.711  976.298  940.429  974.144  933.277  973.35  928.688  973.452  921.579  974.561  914.4  977.035  907.768  980.735  901.892  985.544  896.953  991.313  894.113  996.151  888.737  991.95  881.493  989.024  874.354  988.273  869.227  988.812  863.002  990.834  859.082  993.098  855.894  995.589  850.759  993.462  841.691  993.462  835.072  996.203  826.509  995.618  817.56  1000.25  813.232  1005.57  810.5  1011.86  810.5  1020.65  813.734  1028.09  821.1  1034.97  832.236  1037.29  835.033  1036.29  841.691  1039.05  850.759  1039.05  856.049  1036.86  859.009  1039.52  865.461  1042.67  869.852  1043.77  874.354  1044.24  880.863  1043.56  885.766  1041.96  891.434  1038.69  893.931  1036.44  897.212  1041.5  901.891  1046.97  907.46  1051.53  911.366  1053.94  918.06  1056.93  914.398  1059.44  919.347  1066.65  767.891  1066.65  767.891  802.429  1232.11  802.429  1232.11  949.663  " style="fill: none; stroke: Black; stroke-width: 1.000000; fill-type: evenodd"  fill-opacity="1.000000" />
   <path d="M 1402.11  631.648  1377.89  631.648  1377.89  317.429  1402.11  317.429  1402.11  631.648  " style="fill: none; stroke: Black; stroke-width: 1.000000; fill-type: evenodd"  fill-opacity="1.000000" />
</svg>
